<?xml version="1.0" encoding="UTF-8" standalone="no"?>
<!-- Created with Inkscape (http://www.inkscape.org/) -->

<svg
   xmlns:dc="http://purl.org/dc/elements/1.1/"
   xmlns:cc="http://creativecommons.org/ns#"
   xmlns:rdf="http://www.w3.org/1999/02/22-rdf-syntax-ns#"
   xmlns:svg="http://www.w3.org/2000/svg"
   xmlns="http://www.w3.org/2000/svg"
   xmlns:sodipodi="http://sodipodi.sourceforge.net/DTD/sodipodi-0.dtd"
   xmlns:inkscape="http://www.inkscape.org/namespaces/inkscape"
   id="svg4668"
   version="1.1"
   inkscape:version="0.48.1 "
   width="960"
   height="320"
   xml:space="preserve"
   sodipodi:docname="skici.pdf"><title
     id="title4736">GAL</title><metadata
     id="metadata4674"><rdf:RDF><cc:Work
         rdf:about=""><dc:format>image/svg+xml</dc:format><dc:type
           rdf:resource="http://purl.org/dc/dcmitype/StillImage" /><dc:title>GAL</dc:title></cc:Work></rdf:RDF></metadata><defs
     id="defs4672" /><sodipodi:namedview
     pagecolor="#ffffff"
     bordercolor="#666666"
     borderopacity="1"
     objecttolerance="10"
     gridtolerance="10"
     guidetolerance="10"
     inkscape:pageopacity="0"
     inkscape:pageshadow="2"
     inkscape:window-width="1831"
     inkscape:window-height="1173"
     id="namedview4670"
     showgrid="false"
     inkscape:zoom="1.2808945"
     inkscape:cx="435.88371"
     inkscape:cy="115.53132"
     inkscape:window-x="80"
     inkscape:window-y="-9"
     inkscape:window-maximized="1"
     inkscape:current-layer="g4676" /><g
     id="g4676"
     inkscape:groupmode="layer"
     inkscape:label="skici"
     transform="matrix(1.25,0,0,-1.25,0,320)"><path
       d="m 240.39285,218.70363 294.6,0 0,28.2 -294.6,0 0,-28.2 z"
       style="fill:#dde2cd;fill-opacity:1;fill-rule:evenodd;stroke:none"
       id="path4678"
       inkscape:connector-curvature="0" /><path
       d="m 240.39285,218.70363 294.6,0 -294.6,0 z m 0,28.2 294.6,0 -294.6,0 z"
       style="fill:#dde2cd;fill-opacity:1;fill-rule:evenodd;stroke:none"
       id="path4680"
       inkscape:connector-curvature="0" /><path
       d="m 240.39285,218.70363 294.6,0 m -294.6,28.2 294.6,0 m -294.6,-28.2 0,28.2 m 294.6,-28.2 0,28.2"
       style="fill:none;stroke:#000000;stroke-width:0.23999999;stroke-linecap:round;stroke-linejoin:round;stroke-miterlimit:10;stroke-opacity:1;stroke-dasharray:none"
       id="path4682"
       inkscape:connector-curvature="0" /><path
       d="m 172.59285,4.5036283 189.6,0 0,157.8000017 -189.6,0 0,-157.8000017 z"
       style="fill:#fbd7bb;fill-opacity:1;fill-rule:evenodd;stroke:none"
       id="path4684"
       inkscape:connector-curvature="0" /><path
       d="m 172.59285,4.5036283 189.6,0 0,157.8000017 -189.6,0 0,-157.8000017 z"
       style="fill:none;stroke:#000000;stroke-width:0.23999999;stroke-linecap:round;stroke-linejoin:round;stroke-miterlimit:10;stroke-opacity:1;stroke-dasharray:none"
       id="path4686"
       inkscape:connector-curvature="0" /><text
       transform="scale(1,-1)"
       id="text4688"
       x="188.20284"
       y="-92.403625"><tspan
         style="font-size:30.00024033px;font-variant:normal;font-weight:normal;writing-mode:lr-tb;fill:#000000;fill-opacity:1;fill-rule:nonzero;stroke:none;font-family:ARIAL;-inkscape-font-specification:ARIAL"
         x="188.20284 208.21309 218.20308 234.88765 251.57222 268.25674 274.92188 291.60641 306.6069 323.29147 338.29193 346.62665"
         y="-92.403625"
         sodipodi:role="line"
         id="tspan4690">Propojovací </tspan></text>
<text
       transform="scale(1,-1)"
       id="text4692"
       x="239.05284"
       y="-56.403625"><tspan
         style="font-size:30.00024033px;font-variant:normal;font-weight:normal;writing-mode:lr-tb;fill:#000000;fill-opacity:1;fill-rule:nonzero;stroke:none;font-family:ARIAL;-inkscape-font-specification:ARIAL"
         x="239.05284 255.73741 272.42197 279.08707"
         y="-56.403625"
         sodipodi:role="line"
         id="tspan4694">pole</tspan></text>
<path
       d="m 87.39285,69.303625 70.8,0 0,-14.4 14.4,28.2 -14.4,28.800005 0,-14.400005 -70.8,0 0,-28.2 z"
       style="fill:#dde2cd;fill-opacity:1;fill-rule:evenodd;stroke:none"
       id="path4696"
       inkscape:connector-curvature="0" /><path
       d="m 87.39285,69.303625 70.8,0 0,-14.4 14.4,28.2 -14.4,28.800005 0,-14.400005 -70.8,0 0,-28.2"
       style="fill:none;stroke:#000000;stroke-width:0.23999999;stroke-linecap:round;stroke-linejoin:round;stroke-miterlimit:10;stroke-opacity:1;stroke-dasharray:none"
       id="path4698"
       inkscape:connector-curvature="0" /><path
       d="m 362.19285,69.303625 65.4,0 0,-14.4 14.4,28.2 -14.4,28.800005 0,-14.400005 -65.4,0 0,-28.2 z"
       style="fill:#dde2cd;fill-opacity:1;fill-rule:evenodd;stroke:none"
       id="path4700"
       inkscape:connector-curvature="0" /><path
       d="m 362.19285,69.303625 65.4,0 0,-14.4 14.4,28.2 -14.4,28.800005 0,-14.400005 -65.4,0 0,-28.2"
       style="fill:none;stroke:#000000;stroke-width:0.23999999;stroke-linecap:round;stroke-linejoin:round;stroke-miterlimit:10;stroke-opacity:1;stroke-dasharray:none"
       id="path4702"
       inkscape:connector-curvature="0" /><path
       d="m 597.39285,68.703625 71.4,0 0,-14.4 13.8,28.2 -13.8,28.800005 0,-14.400005 -71.4,0 0,-28.2 z"
       style="fill:#dde2cd;fill-opacity:1;fill-rule:evenodd;stroke:none"
       id="path4704"
       inkscape:connector-curvature="0" /><path
       d="m 597.39285,68.703625 71.4,0 0,-14.4 13.8,28.2 -13.8,28.800005 0,-14.400005 -71.4,0 0,-28.2"
       style="fill:none;stroke:#000000;stroke-width:0.23999999;stroke-linecap:round;stroke-linejoin:round;stroke-miterlimit:10;stroke-opacity:1;stroke-dasharray:none"
       id="path4706"
       inkscape:connector-curvature="0" /><path
       d="m 240.39285,221.10363 0,-45 -13.8,0 28.2,-13.8 28.2,13.8 -14.4,0 0,45 -28.2,0 z"
       style="fill:#dde2cd;fill-opacity:1;fill-rule:evenodd;stroke:none"
       id="path4708"
       inkscape:connector-curvature="0" /><path
       d="m 240.39285,218.70363 0,-42.6 -13.8,0 28.2,-13.8 28.2,13.8 -14.4,0 0,42.6"
       style="fill:none;stroke:#000000;stroke-width:0.23999999;stroke-linecap:round;stroke-linejoin:round;stroke-miterlimit:10;stroke-opacity:1;stroke-dasharray:none"
       id="path4710"
       inkscape:connector-curvature="0" /><path
       d="m 240.99285,219.30363 0,-0.6 27.6,0 0,0.6 -27.6,0"
       style="fill:none;stroke:#dde2cd;stroke-width:0.23999999;stroke-linecap:round;stroke-linejoin:round;stroke-miterlimit:10;stroke-opacity:1;stroke-dasharray:none"
       id="path4712"
       inkscape:connector-curvature="0" /><path
       d="m 506.79285,221.10363 0,-73.2 -13.8,0 28.2,-14.4 28.2,14.4 -14.4,0 0,73.2 -28.2,0 z"
       style="fill:#dde2cd;fill-opacity:1;fill-rule:evenodd;stroke:none"
       id="path4714"
       inkscape:connector-curvature="0" /><path
       d="m 506.79285,218.70363 0,-70.8 -13.8,0 28.2,-14.4 28.2,14.4 -14.4,0 0,70.8"
       style="fill:none;stroke:#000000;stroke-width:0.23999999;stroke-linecap:round;stroke-linejoin:round;stroke-miterlimit:10;stroke-opacity:1;stroke-dasharray:none"
       id="path4716"
       inkscape:connector-curvature="0" /><path
       d="m 507.39285,219.30363 0,-0.6 27.6,0 0,0.6 -27.6,0"
       style="fill:none;stroke:#dde2cd;stroke-width:0.23999999;stroke-linecap:round;stroke-linejoin:round;stroke-miterlimit:10;stroke-opacity:1;stroke-dasharray:none"
       id="path4718"
       inkscape:connector-curvature="0" /><path
       d="m 441.99285,4.5036283 155.4,0 0,157.8000017 -155.4,0 0,-157.8000017 z"
       style="fill:#fbd7bb;fill-opacity:1;fill-rule:evenodd;stroke:none"
       id="path4720"
       inkscape:connector-curvature="0" /><path
       d="m 441.99285,4.5036283 155.4,0 0,157.8000017 -155.4,0 0,-157.8000017 z"
       style="fill:none;stroke:#000000;stroke-width:0.23999999;stroke-linecap:round;stroke-linejoin:round;stroke-miterlimit:10;stroke-opacity:1;stroke-dasharray:none"
       id="path4722"
       inkscape:connector-curvature="0" /><text
       transform="scale(1,-1)"
       id="text4724"
       x="476.36285"
       y="-74.403625"><tspan
         style="font-size:30.00024033px;font-variant:normal;font-weight:normal;writing-mode:lr-tb;fill:#000000;fill-opacity:1;fill-rule:nonzero;stroke:none;font-family:ARIAL;-inkscape-font-specification:ARIAL"
         x="476.36285 499.69806 516.38257 541.37305"
         y="-74.403625"
         sodipodi:role="line"
         id="tspan4726">OLMC</tspan></text>
<text
       transform="scale(1,-1)"
       id="text4728"
       x="1.8828481"
       y="-118.25363"><tspan
         style="font-size:30.00024033px;font-variant:normal;font-weight:normal;writing-mode:lr-tb;fill:#000000;fill-opacity:1;fill-rule:nonzero;stroke:none;font-family:ARIAL;-inkscape-font-specification:ARIAL"
         x="1.8828481 21.893087 41.903332 60.228771 81.89357 101.90381"
         y="-118.25363"
         sodipodi:role="line"
         id="tspan4730">VSTUPY</tspan></text>
<text
       transform="scale(1,-1)"
       id="text4732"
       x="626.84283"
       y="-131.17363"><tspan
         style="font-size:30.00024033px;font-variant:normal;font-weight:normal;writing-mode:lr-tb;fill:#000000;fill-opacity:1;fill-rule:nonzero;stroke:none;font-family:ARIAL;-inkscape-font-specification:ARIAL"
         x="626.84283 646.85309 666.86334 686.87354 705.19897 726.86377 746.87402"
         y="-131.17363"
         sodipodi:role="line"
         id="tspan4734">VÝSTUPY</tspan></text>
</g></svg>