<?xml version="1.0" encoding="UTF-8" standalone="no"?>
<!-- Created with Inkscape (http://www.inkscape.org/) -->

<svg
   xmlns:dc="http://purl.org/dc/elements/1.1/"
   xmlns:cc="http://creativecommons.org/ns#"
   xmlns:rdf="http://www.w3.org/1999/02/22-rdf-syntax-ns#"
   xmlns:svg="http://www.w3.org/2000/svg"
   xmlns="http://www.w3.org/2000/svg"
   xmlns:sodipodi="http://sodipodi.sourceforge.net/DTD/sodipodi-0.dtd"
   xmlns:inkscape="http://www.inkscape.org/namespaces/inkscape"
   id="svg4368"
   version="1.1"
   inkscape:version="0.48.1 "
   width="780"
   height="650"
   xml:space="preserve"
   sodipodi:docname="skici.pdf"><title
     id="title4666">CPLD</title><metadata
     id="metadata4374"><rdf:RDF><cc:Work
         rdf:about=""><dc:format>image/svg+xml</dc:format><dc:type
           rdf:resource="http://purl.org/dc/dcmitype/StillImage" /><dc:title>CPLD</dc:title></cc:Work></rdf:RDF></metadata><defs
     id="defs4372" /><sodipodi:namedview
     pagecolor="#ffffff"
     bordercolor="#666666"
     borderopacity="1"
     objecttolerance="10"
     gridtolerance="10"
     guidetolerance="10"
     inkscape:pageopacity="0"
     inkscape:pageshadow="2"
     inkscape:window-width="1831"
     inkscape:window-height="1173"
     id="namedview4370"
     showgrid="false"
     inkscape:zoom="0.90030781"
     inkscape:cx="507.34295"
     inkscape:cy="441.14136"
     inkscape:window-x="80"
     inkscape:window-y="-9"
     inkscape:window-maximized="1"
     inkscape:current-layer="g4376" /><g
     id="g4376"
     inkscape:groupmode="layer"
     inkscape:label="skici"
     transform="matrix(1.25,0,0,-1.25,0,650)"><path
       d="m 147.68128,370.66851 144.57,0 0,144.57 -144.57,0 0,-144.57 z"
       style="fill:#ffffff;fill-opacity:1;fill-rule:evenodd;stroke:none"
       id="path4378"
       inkscape:connector-curvature="0" /><path
       d="m 147.68128,370.66851 144.57,0 0,144.57 -144.57,0 0,-144.57 z"
       style="fill:none;stroke:#000000;stroke-width:1.5;stroke-linecap:round;stroke-linejoin:round;stroke-miterlimit:10;stroke-opacity:1;stroke-dasharray:none"
       id="path4380"
       inkscape:connector-curvature="0" /><text
       transform="scale(1,-1)"
       id="text4382"
       x="162.69124"
       y="-453.36844"><tspan
         style="font-size:30.00024033px;font-variant:normal;font-weight:normal;writing-mode:lr-tb;fill:#000000;fill-opacity:1;fill-rule:nonzero;stroke:none;font-family:ARIAL;-inkscape-font-specification:ARIAL"
         x="162.69124 182.70149 202.71175"
         y="-453.36844"
         sodipodi:role="line"
         id="tspan4384">PAL</tspan></text>
<text
       transform="scale(1,-1)"
       id="text4386"
       x="219.39131"
       y="-453.36844"><tspan
         style="font-size:30.00024033px;font-variant:normal;font-weight:normal;writing-mode:lr-tb;fill:#000000;fill-opacity:1;fill-rule:nonzero;stroke:none;font-family:ARIAL;-inkscape-font-specification:ARIAL"
         x="219.39131"
         y="-453.36844"
         id="tspan4388">-</tspan></text>
<text
       transform="scale(1,-1)"
       id="text4390"
       x="229.3813"
       y="-453.36844"><tspan
         style="font-size:30.00024033px;font-variant:normal;font-weight:normal;writing-mode:lr-tb;fill:#000000;fill-opacity:1;fill-rule:nonzero;stroke:none;font-family:ARIAL;-inkscape-font-specification:ARIAL"
         x="229.3813 236.04634 242.7115 257.71198 274.39655"
         y="-453.36844"
         sodipodi:role="line"
         id="tspan4392">like </tspan></text>
<text
       transform="scale(1,-1)"
       id="text4394"
       x="183.52132"
       y="-417.36844"><tspan
         style="font-size:30.00024033px;font-variant:normal;font-weight:normal;writing-mode:lr-tb;fill:#000000;fill-opacity:1;fill-rule:nonzero;stroke:none;font-family:ARIAL;-inkscape-font-specification:ARIAL"
         x="183.52132 200.20589 206.87093 223.5555 238.55598"
         y="-417.36844"
         sodipodi:role="line"
         id="tspan4396">block</tspan></text>
<path
       d="m 333.35128,370.66851 144.57,0 0,144.57 -144.57,0 0,-144.57 z"
       style="fill:#ffffff;fill-opacity:1;fill-rule:evenodd;stroke:none"
       id="path4398"
       inkscape:connector-curvature="0" /><path
       d="m 333.35128,370.66851 144.57,0 0,144.57 -144.57,0 0,-144.57 z"
       style="fill:none;stroke:#000000;stroke-width:1.5;stroke-linecap:round;stroke-linejoin:round;stroke-miterlimit:10;stroke-opacity:1;stroke-dasharray:none"
       id="path4400"
       inkscape:connector-curvature="0" /><text
       transform="scale(1,-1)"
       id="text4402"
       x="349.7713"
       y="-453.36844"><tspan
         style="font-size:30.00024033px;font-variant:normal;font-weight:normal;writing-mode:lr-tb;fill:#000000;fill-opacity:1;fill-rule:nonzero;stroke:none;font-family:ARIAL;-inkscape-font-specification:ARIAL"
         x="349.7713 369.78156 389.79169"
         y="-453.36844"
         sodipodi:role="line"
         id="tspan4404">PAL</tspan></text>
<text
       transform="scale(1,-1)"
       id="text4406"
       x="406.48126"
       y="-453.36844"><tspan
         style="font-size:30.00024033px;font-variant:normal;font-weight:normal;writing-mode:lr-tb;fill:#000000;fill-opacity:1;fill-rule:nonzero;stroke:none;font-family:ARIAL;-inkscape-font-specification:ARIAL"
         x="406.48126"
         y="-453.36844"
         id="tspan4408">-</tspan></text>
<text
       transform="scale(1,-1)"
       id="text4410"
       x="416.47125"
       y="-453.36844"><tspan
         style="font-size:30.00024033px;font-variant:normal;font-weight:normal;writing-mode:lr-tb;fill:#000000;fill-opacity:1;fill-rule:nonzero;stroke:none;font-family:ARIAL;-inkscape-font-specification:ARIAL"
         x="416.47125 423.13641 429.80145 444.80194 461.48651"
         y="-453.36844"
         sodipodi:role="line"
         id="tspan4412">like </tspan></text>
<text
       transform="scale(1,-1)"
       id="text4414"
       x="370.61127"
       y="-417.36844"><tspan
         style="font-size:30.00024033px;font-variant:normal;font-weight:normal;writing-mode:lr-tb;fill:#000000;fill-opacity:1;fill-rule:nonzero;stroke:none;font-family:ARIAL;-inkscape-font-specification:ARIAL"
         x="370.61127 387.29584 393.96088 410.64545 425.64594"
         y="-417.36844"
         sodipodi:role="line"
         id="tspan4416">block</tspan></text>
<path
       d="m 147.68128,3.57851 144.57,0 0,144.57 -144.57,0 0,-144.57 z"
       style="fill:#ffffff;fill-opacity:1;fill-rule:evenodd;stroke:none"
       id="path4418"
       inkscape:connector-curvature="0" /><path
       d="m 147.68128,3.57851 144.57,0 0,144.57 -144.57,0 0,-144.57 z"
       style="fill:none;stroke:#000000;stroke-width:1.5;stroke-linecap:round;stroke-linejoin:round;stroke-miterlimit:10;stroke-opacity:1;stroke-dasharray:none"
       id="path4420"
       inkscape:connector-curvature="0" /><text
       transform="scale(1,-1)"
       id="text4422"
       x="162.69124"
       y="-86.278526"><tspan
         style="font-size:30.00024033px;font-variant:normal;font-weight:normal;writing-mode:lr-tb;fill:#000000;fill-opacity:1;fill-rule:nonzero;stroke:none;font-family:ARIAL;-inkscape-font-specification:ARIAL"
         x="162.69124 182.70149 202.71175"
         y="-86.278526"
         sodipodi:role="line"
         id="tspan4424">PAL</tspan></text>
<text
       transform="scale(1,-1)"
       id="text4426"
       x="219.39131"
       y="-86.278526"><tspan
         style="font-size:30.00024033px;font-variant:normal;font-weight:normal;writing-mode:lr-tb;fill:#000000;fill-opacity:1;fill-rule:nonzero;stroke:none;font-family:ARIAL;-inkscape-font-specification:ARIAL"
         x="219.39131"
         y="-86.278526"
         id="tspan4428">-</tspan></text>
<text
       transform="scale(1,-1)"
       id="text4430"
       x="229.3813"
       y="-86.278526"><tspan
         style="font-size:30.00024033px;font-variant:normal;font-weight:normal;writing-mode:lr-tb;fill:#000000;fill-opacity:1;fill-rule:nonzero;stroke:none;font-family:ARIAL;-inkscape-font-specification:ARIAL"
         x="229.3813 236.04634 242.7115 257.71198 274.39655"
         y="-86.278526"
         sodipodi:role="line"
         id="tspan4432">like </tspan></text>
<text
       transform="scale(1,-1)"
       id="text4434"
       x="183.52132"
       y="-50.278526"><tspan
         style="font-size:30.00024033px;font-variant:normal;font-weight:normal;writing-mode:lr-tb;fill:#000000;fill-opacity:1;fill-rule:nonzero;stroke:none;font-family:ARIAL;-inkscape-font-specification:ARIAL"
         x="183.52132 200.20589 206.87093 223.5555 238.55598"
         y="-50.278526"
         sodipodi:role="line"
         id="tspan4436">block</tspan></text>
<path
       d="m 334.76128,3.57851 144.57,0 0,144.57 -144.57,0 0,-144.57 z"
       style="fill:#ffffff;fill-opacity:1;fill-rule:evenodd;stroke:none"
       id="path4438"
       inkscape:connector-curvature="0" /><path
       d="m 334.76128,3.57851 144.57,0 0,144.57 -144.57,0 0,-144.57 z"
       style="fill:none;stroke:#000000;stroke-width:1.5;stroke-linecap:round;stroke-linejoin:round;stroke-miterlimit:10;stroke-opacity:1;stroke-dasharray:none"
       id="path4440"
       inkscape:connector-curvature="0" /><text
       transform="scale(1,-1)"
       id="text4442"
       x="349.7713"
       y="-86.278526"><tspan
         style="font-size:30.00024033px;font-variant:normal;font-weight:normal;writing-mode:lr-tb;fill:#000000;fill-opacity:1;fill-rule:nonzero;stroke:none;font-family:ARIAL;-inkscape-font-specification:ARIAL"
         x="349.7713 369.78156 389.79169"
         y="-86.278526"
         sodipodi:role="line"
         id="tspan4444">PAL</tspan></text>
<text
       transform="scale(1,-1)"
       id="text4446"
       x="406.48126"
       y="-86.278526"><tspan
         style="font-size:30.00024033px;font-variant:normal;font-weight:normal;writing-mode:lr-tb;fill:#000000;fill-opacity:1;fill-rule:nonzero;stroke:none;font-family:ARIAL;-inkscape-font-specification:ARIAL"
         x="406.48126"
         y="-86.278526"
         id="tspan4448">-</tspan></text>
<text
       transform="scale(1,-1)"
       id="text4450"
       x="416.47125"
       y="-86.278526"><tspan
         style="font-size:30.00024033px;font-variant:normal;font-weight:normal;writing-mode:lr-tb;fill:#000000;fill-opacity:1;fill-rule:nonzero;stroke:none;font-family:ARIAL;-inkscape-font-specification:ARIAL"
         x="416.47125 423.13641 429.80145 444.80194 461.48651"
         y="-86.278526"
         sodipodi:role="line"
         id="tspan4452">like </tspan></text>
<text
       transform="scale(1,-1)"
       id="text4454"
       x="370.61127"
       y="-50.278526"><tspan
         style="font-size:30.00024033px;font-variant:normal;font-weight:normal;writing-mode:lr-tb;fill:#000000;fill-opacity:1;fill-rule:nonzero;stroke:none;font-family:ARIAL;-inkscape-font-specification:ARIAL"
         x="370.61127 387.29584 393.96088 410.64545 425.64594"
         y="-50.278526"
         sodipodi:role="line"
         id="tspan4456">block</tspan></text>
<path
       d="m 147.68128,231.76851 331.65,0 0,56.693 -331.65,0 0,-56.693 z"
       style="fill:#ffffff;fill-opacity:1;fill-rule:evenodd;stroke:none"
       id="path4458"
       inkscape:connector-curvature="0" /><path
       d="m 147.68128,231.76851 331.65,0 0,56.693 -331.65,0 0,-56.693 z"
       style="fill:none;stroke:#38557a;stroke-width:1.5;stroke-linecap:round;stroke-linejoin:round;stroke-miterlimit:10;stroke-opacity:1;stroke-dasharray:none"
       id="path4460"
       inkscape:connector-curvature="0" /><text
       transform="scale(1,-1)"
       id="text4462"
       x="171.76131"
       y="-251.11844"><tspan
         style="font-size:30.00024033px;font-variant:normal;font-weight:normal;writing-mode:lr-tb;fill:#0070c0;fill-opacity:1;fill-rule:nonzero;stroke:none;font-family:ARIAL;-inkscape-font-specification:ARIAL"
         x="171.76131 180.09602 196.78059 205.11531 221.79988 231.78987 246.79034 263.47491 280.15948 296.84393 313.5285 328.52899 336.86371 343.52887 360.21344 376.89801 385.23273 406.89752 413.56256 423.55267 440.23712"
         y="-251.11844"
         sodipodi:role="line"
         id="tspan4464">Interconnection wires</tspan></text>
<path
       d="m 5.941315,373.49851 56.69296,0 0,141.73 -56.69296,0 0,-141.73 z"
       style="fill:#dbeef3;fill-opacity:1;fill-rule:evenodd;stroke:none"
       id="path4466"
       inkscape:connector-curvature="0" /><path
       d="m 5.941315,373.49851 56.69296,0 0,141.73 -56.69296,0 0,-141.73 z"
       style="fill:none;stroke:#000000;stroke-width:1.5;stroke-linecap:round;stroke-linejoin:round;stroke-miterlimit:10;stroke-opacity:1;stroke-dasharray:none"
       id="path4468"
       inkscape:connector-curvature="0" /><text
       transform="matrix(0,1,1,0,0,0)"
       id="text4470"
       x="387.68851"
       y="43.291325"><tspan
         style="font-size:30.00024033px;font-variant:normal;font-weight:normal;writing-mode:lr-tb;fill:#000000;fill-opacity:1;fill-rule:nonzero;stroke:none;font-family:ARIAL;-inkscape-font-specification:ARIAL"
         x="387.68851 396.02322 419.35843 427.69315 447.7034 454.36844 471.05301 486.0535"
         y="43.291325"
         sodipodi:role="line"
         id="tspan4472">IO Block</tspan></text>
<path
       d="m 5.841315,4.88851 56.99996,0 0,141.6 -56.99996,0 0,-141.6 z"
       style="fill:#dbeef3;fill-opacity:1;fill-rule:evenodd;stroke:none"
       id="path4474"
       inkscape:connector-curvature="0" /><path
       d="m 5.841315,4.88851 56.99996,0 0,141.6 -56.99996,0 0,-141.6 z"
       style="fill:none;stroke:#000000;stroke-width:0.72000003;stroke-linecap:round;stroke-linejoin:round;stroke-miterlimit:10;stroke-opacity:1;stroke-dasharray:none"
       id="path4476"
       inkscape:connector-curvature="0" /><text
       transform="matrix(0,1,1,0,0,0)"
       id="text4478"
       x="19.178539"
       y="43.291325"><tspan
         style="font-size:30.00024033px;font-variant:normal;font-weight:normal;writing-mode:lr-tb;fill:#000000;fill-opacity:1;fill-rule:nonzero;stroke:none;font-family:ARIAL;-inkscape-font-specification:ARIAL"
         x="19.178539 27.513262 50.848473 59.183189 79.193443 85.858482 102.54305 117.54353"
         y="43.291325"
         sodipodi:role="line"
         id="tspan4480">IO Block</tspan></text>
<path
       d="m 564.37128,4.99851 56.693,0 0,141.73 -56.693,0 0,-141.73 z"
       style="fill:#dbeef3;fill-opacity:1;fill-rule:evenodd;stroke:none"
       id="path4482"
       inkscape:connector-curvature="0" /><path
       d="m 564.37128,4.99851 56.693,0 0,141.73 -56.693,0 0,-141.73 z"
       style="fill:none;stroke:#000000;stroke-width:1.5;stroke-linecap:round;stroke-linejoin:round;stroke-miterlimit:10;stroke-opacity:1;stroke-dasharray:none"
       id="path4484"
       inkscape:connector-curvature="0" /><text
       transform="matrix(0,-1,-1,0,0,0)"
       id="text4486"
       x="-132.54851"
       y="-583.7215"><tspan
         style="font-size:30.00024033px;font-variant:normal;font-weight:normal;writing-mode:lr-tb;fill:#000000;fill-opacity:1;fill-rule:nonzero;stroke:none;font-family:ARIAL;-inkscape-font-specification:ARIAL"
         x="-132.54851 -124.21381 -100.87862 -92.543907 -72.533653 -65.868492 -49.183922 -34.183434"
         y="-583.7215"
         sodipodi:role="line"
         id="tspan4488">IO Block</tspan></text>
<path
       d="m 562.67128,373.49851 56.693,0 0,141.73 -56.693,0 0,-141.73 z"
       style="fill:#dbeef3;fill-opacity:1;fill-rule:evenodd;stroke:none"
       id="path4490"
       inkscape:connector-curvature="0" /><path
       d="m 562.67128,373.49851 56.693,0 0,141.73 -56.693,0 0,-141.73 z"
       style="fill:none;stroke:#000000;stroke-width:1.5;stroke-linecap:round;stroke-linejoin:round;stroke-miterlimit:10;stroke-opacity:1;stroke-dasharray:none"
       id="path4492"
       inkscape:connector-curvature="0" /><text
       transform="matrix(0,-1,-1,0,0,0)"
       id="text4494"
       x="-501.04837"
       y="-582.01154"><tspan
         style="font-size:30.00024033px;font-variant:normal;font-weight:normal;writing-mode:lr-tb;fill:#000000;fill-opacity:1;fill-rule:nonzero;stroke:none;font-family:ARIAL;-inkscape-font-specification:ARIAL"
         x="-501.04837 -492.71365 -469.37845 -461.04373 -441.03348 -434.36844 -417.68387 -402.68338"
         y="-582.01154"
         sodipodi:role="line"
         id="tspan4496">IO Block</tspan></text>
<path
       d="m 176.02128,359.85851 0,-57.76"
       style="fill:none;stroke:#38557a;stroke-width:1;stroke-linecap:round;stroke-linejoin:round;stroke-miterlimit:10;stroke-opacity:1;stroke-dasharray:none"
       id="path4498"
       inkscape:connector-curvature="0" /><path
       d="m 171.06128,358.61851 4.96,14.88 4.96,-14.88 -9.92,0 z"
       style="fill:#38557a;fill-opacity:1;fill-rule:evenodd;stroke:none"
       id="path4500"
       inkscape:connector-curvature="0" /><path
       d="m 180.98128,303.33851 -4.96,-14.88 -4.96,14.88 9.92,0 z"
       style="fill:#38557a;fill-opacity:1;fill-rule:evenodd;stroke:none"
       id="path4502"
       inkscape:connector-curvature="0" /><path
       d="m 204.37128,359.85851 0,-57.76"
       style="fill:none;stroke:#38557a;stroke-width:1;stroke-linecap:round;stroke-linejoin:round;stroke-miterlimit:10;stroke-opacity:1;stroke-dasharray:none"
       id="path4504"
       inkscape:connector-curvature="0" /><path
       d="m 199.41128,358.61851 4.96,14.88 4.96,-14.88 -9.92,0 z"
       style="fill:#38557a;fill-opacity:1;fill-rule:evenodd;stroke:none"
       id="path4506"
       inkscape:connector-curvature="0" /><path
       d="m 209.33128,303.33851 -4.96,-14.88 -4.96,14.88 9.92,0 z"
       style="fill:#38557a;fill-opacity:1;fill-rule:evenodd;stroke:none"
       id="path4508"
       inkscape:connector-curvature="0" /><path
       d="m 261.06128,359.85851 0,-57.76"
       style="fill:none;stroke:#38557a;stroke-width:1;stroke-linecap:round;stroke-linejoin:round;stroke-miterlimit:10;stroke-opacity:1;stroke-dasharray:none"
       id="path4510"
       inkscape:connector-curvature="0" /><path
       d="m 256.10128,358.61851 4.96,14.88 4.96,-14.88 -9.92,0 z"
       style="fill:#38557a;fill-opacity:1;fill-rule:evenodd;stroke:none"
       id="path4512"
       inkscape:connector-curvature="0" /><path
       d="m 266.02128,303.33851 -4.96,-14.88 -4.96,14.88 9.92,0 z"
       style="fill:#38557a;fill-opacity:1;fill-rule:evenodd;stroke:none"
       id="path4514"
       inkscape:connector-curvature="0" /><path
       d="m 363.11128,359.85851 0,-57.76"
       style="fill:none;stroke:#38557a;stroke-width:1;stroke-linecap:round;stroke-linejoin:round;stroke-miterlimit:10;stroke-opacity:1;stroke-dasharray:none"
       id="path4516"
       inkscape:connector-curvature="0" /><path
       d="m 358.15128,358.61851 4.96,14.88 4.96,-14.88 -9.92,0 z"
       style="fill:#38557a;fill-opacity:1;fill-rule:evenodd;stroke:none"
       id="path4518"
       inkscape:connector-curvature="0" /><path
       d="m 368.07128,303.33851 -4.96,-14.88 -4.96,14.88 9.92,0 z"
       style="fill:#38557a;fill-opacity:1;fill-rule:evenodd;stroke:none"
       id="path4520"
       inkscape:connector-curvature="0" /><path
       d="m 391.46128,359.85851 0,-57.76"
       style="fill:none;stroke:#38557a;stroke-width:1;stroke-linecap:round;stroke-linejoin:round;stroke-miterlimit:10;stroke-opacity:1;stroke-dasharray:none"
       id="path4522"
       inkscape:connector-curvature="0" /><path
       d="m 386.50128,358.61851 4.96,14.88 4.96,-14.88 -9.92,0 z"
       style="fill:#38557a;fill-opacity:1;fill-rule:evenodd;stroke:none"
       id="path4524"
       inkscape:connector-curvature="0" /><path
       d="m 396.42128,303.33851 -4.96,-14.88 -4.96,14.88 9.92,0 z"
       style="fill:#38557a;fill-opacity:1;fill-rule:evenodd;stroke:none"
       id="path4526"
       inkscape:connector-curvature="0" /><path
       d="m 448.15128,359.85851 0,-57.76"
       style="fill:none;stroke:#38557a;stroke-width:1;stroke-linecap:round;stroke-linejoin:round;stroke-miterlimit:10;stroke-opacity:1;stroke-dasharray:none"
       id="path4528"
       inkscape:connector-curvature="0" /><path
       d="m 443.19128,358.61851 4.96,14.88 4.96,-14.88 -9.92,0 z"
       style="fill:#38557a;fill-opacity:1;fill-rule:evenodd;stroke:none"
       id="path4530"
       inkscape:connector-curvature="0" /><path
       d="m 453.11128,303.33851 -4.96,-14.88 -4.96,14.88 9.92,0 z"
       style="fill:#38557a;fill-opacity:1;fill-rule:evenodd;stroke:none"
       id="path4532"
       inkscape:connector-curvature="0" /><path
       d="m 176.02128,218.12851 0,-57.76"
       style="fill:none;stroke:#38557a;stroke-width:1;stroke-linecap:round;stroke-linejoin:round;stroke-miterlimit:10;stroke-opacity:1;stroke-dasharray:none"
       id="path4534"
       inkscape:connector-curvature="0" /><path
       d="m 171.06128,216.88851 4.96,14.88 4.96,-14.88 -9.92,0 z"
       style="fill:#38557a;fill-opacity:1;fill-rule:evenodd;stroke:none"
       id="path4536"
       inkscape:connector-curvature="0" /><path
       d="m 180.98128,161.60851 -4.96,-14.88 -4.96,14.88 9.92,0 z"
       style="fill:#38557a;fill-opacity:1;fill-rule:evenodd;stroke:none"
       id="path4538"
       inkscape:connector-curvature="0" /><path
       d="m 204.37128,218.12851 0,-57.76"
       style="fill:none;stroke:#38557a;stroke-width:1;stroke-linecap:round;stroke-linejoin:round;stroke-miterlimit:10;stroke-opacity:1;stroke-dasharray:none"
       id="path4540"
       inkscape:connector-curvature="0" /><path
       d="m 199.41128,216.88851 4.96,14.88 4.96,-14.88 -9.92,0 z"
       style="fill:#38557a;fill-opacity:1;fill-rule:evenodd;stroke:none"
       id="path4542"
       inkscape:connector-curvature="0" /><path
       d="m 209.33128,161.60851 -4.96,-14.88 -4.96,14.88 9.92,0 z"
       style="fill:#38557a;fill-opacity:1;fill-rule:evenodd;stroke:none"
       id="path4544"
       inkscape:connector-curvature="0" /><path
       d="m 261.06128,218.12851 0,-57.76"
       style="fill:none;stroke:#38557a;stroke-width:1;stroke-linecap:round;stroke-linejoin:round;stroke-miterlimit:10;stroke-opacity:1;stroke-dasharray:none"
       id="path4546"
       inkscape:connector-curvature="0" /><path
       d="m 256.10128,216.88851 4.96,14.88 4.96,-14.88 -9.92,0 z"
       style="fill:#38557a;fill-opacity:1;fill-rule:evenodd;stroke:none"
       id="path4548"
       inkscape:connector-curvature="0" /><path
       d="m 266.02128,161.60851 -4.96,-14.88 -4.96,14.88 9.92,0 z"
       style="fill:#38557a;fill-opacity:1;fill-rule:evenodd;stroke:none"
       id="path4550"
       inkscape:connector-curvature="0" /><path
       d="m 363.11128,218.12851 0,-57.76"
       style="fill:none;stroke:#38557a;stroke-width:1;stroke-linecap:round;stroke-linejoin:round;stroke-miterlimit:10;stroke-opacity:1;stroke-dasharray:none"
       id="path4552"
       inkscape:connector-curvature="0" /><path
       d="m 358.15128,216.88851 4.96,14.88 4.96,-14.88 -9.92,0 z"
       style="fill:#38557a;fill-opacity:1;fill-rule:evenodd;stroke:none"
       id="path4554"
       inkscape:connector-curvature="0" /><path
       d="m 368.07128,161.60851 -4.96,-14.88 -4.96,14.88 9.92,0 z"
       style="fill:#38557a;fill-opacity:1;fill-rule:evenodd;stroke:none"
       id="path4556"
       inkscape:connector-curvature="0" /><path
       d="m 391.46128,218.12851 0,-57.76"
       style="fill:none;stroke:#38557a;stroke-width:1;stroke-linecap:round;stroke-linejoin:round;stroke-miterlimit:10;stroke-opacity:1;stroke-dasharray:none"
       id="path4558"
       inkscape:connector-curvature="0" /><path
       d="m 386.50128,216.88851 4.96,14.88 4.96,-14.88 -9.92,0 z"
       style="fill:#38557a;fill-opacity:1;fill-rule:evenodd;stroke:none"
       id="path4560"
       inkscape:connector-curvature="0" /><path
       d="m 396.42128,161.60851 -4.96,-14.88 -4.96,14.88 9.92,0 z"
       style="fill:#38557a;fill-opacity:1;fill-rule:evenodd;stroke:none"
       id="path4562"
       inkscape:connector-curvature="0" /><path
       d="m 448.15128,218.12851 0,-57.76"
       style="fill:none;stroke:#38557a;stroke-width:1;stroke-linecap:round;stroke-linejoin:round;stroke-miterlimit:10;stroke-opacity:1;stroke-dasharray:none"
       id="path4564"
       inkscape:connector-curvature="0" /><path
       d="m 443.19128,216.88851 4.96,14.88 4.96,-14.88 -9.92,0 z"
       style="fill:#38557a;fill-opacity:1;fill-rule:evenodd;stroke:none"
       id="path4566"
       inkscape:connector-curvature="0" /><path
       d="m 453.11128,161.60851 -4.96,-14.88 -4.96,14.88 9.92,0 z"
       style="fill:#38557a;fill-opacity:1;fill-rule:evenodd;stroke:none"
       id="path4568"
       inkscape:connector-curvature="0" /><path
       d="m 134.04128,486.88851 -57.760005,0"
       style="fill:none;stroke:#9c4a09;stroke-width:1;stroke-linecap:round;stroke-linejoin:round;stroke-miterlimit:10;stroke-opacity:1;stroke-dasharray:none"
       id="path4570"
       inkscape:connector-curvature="0" /><path
       d="m 132.80128,491.84851 14.88,-4.96 -14.88,-4.96 0,9.92 z"
       style="fill:#9c4a09;fill-opacity:1;fill-rule:evenodd;stroke:none"
       id="path4572"
       inkscape:connector-curvature="0" /><path
       d="m 77.521275,481.92851 -14.88,4.96 14.88,4.96 0,-9.92 z"
       style="fill:#9c4a09;fill-opacity:1;fill-rule:evenodd;stroke:none"
       id="path4574"
       inkscape:connector-curvature="0" /><path
       d="m 134.04128,458.53851 -57.760005,0"
       style="fill:none;stroke:#9c4a09;stroke-width:1;stroke-linecap:round;stroke-linejoin:round;stroke-miterlimit:10;stroke-opacity:1;stroke-dasharray:none"
       id="path4576"
       inkscape:connector-curvature="0" /><path
       d="m 132.80128,463.49851 14.88,-4.96 -14.88,-4.96 0,9.92 z"
       style="fill:#9c4a09;fill-opacity:1;fill-rule:evenodd;stroke:none"
       id="path4578"
       inkscape:connector-curvature="0" /><path
       d="m 77.521275,453.57851 -14.88,4.96 14.88,4.96 0,-9.92 z"
       style="fill:#9c4a09;fill-opacity:1;fill-rule:evenodd;stroke:none"
       id="path4580"
       inkscape:connector-curvature="0" /><path
       d="m 134.04128,401.84851 -57.760005,0"
       style="fill:none;stroke:#9c4a09;stroke-width:1;stroke-linecap:round;stroke-linejoin:round;stroke-miterlimit:10;stroke-opacity:1;stroke-dasharray:none"
       id="path4582"
       inkscape:connector-curvature="0" /><path
       d="m 132.80128,406.80851 14.88,-4.96 -14.88,-4.96 0,9.92 z"
       style="fill:#9c4a09;fill-opacity:1;fill-rule:evenodd;stroke:none"
       id="path4584"
       inkscape:connector-curvature="0" /><path
       d="m 77.521275,396.88851 -14.88,4.96 14.88,4.96 0,-9.92 z"
       style="fill:#9c4a09;fill-opacity:1;fill-rule:evenodd;stroke:none"
       id="path4586"
       inkscape:connector-curvature="0" /><path
       d="m 547.89128,486.88851 -57.75,0"
       style="fill:none;stroke:#9c4a09;stroke-width:1;stroke-linecap:round;stroke-linejoin:round;stroke-miterlimit:10;stroke-opacity:1;stroke-dasharray:none"
       id="path4588"
       inkscape:connector-curvature="0" /><path
       d="m 546.65128,491.84851 14.88,-4.96 -14.88,-4.96 0,9.92 z"
       style="fill:#9c4a09;fill-opacity:1;fill-rule:evenodd;stroke:none"
       id="path4590"
       inkscape:connector-curvature="0" /><path
       d="m 491.37128,481.92851 -14.87,4.96 14.87,4.96 0,-9.92 z"
       style="fill:#9c4a09;fill-opacity:1;fill-rule:evenodd;stroke:none"
       id="path4592"
       inkscape:connector-curvature="0" /><path
       d="m 547.89128,458.53851 -57.75,0"
       style="fill:none;stroke:#9c4a09;stroke-width:1;stroke-linecap:round;stroke-linejoin:round;stroke-miterlimit:10;stroke-opacity:1;stroke-dasharray:none"
       id="path4594"
       inkscape:connector-curvature="0" /><path
       d="m 546.65128,463.49851 14.88,-4.96 -14.88,-4.96 0,9.92 z"
       style="fill:#9c4a09;fill-opacity:1;fill-rule:evenodd;stroke:none"
       id="path4596"
       inkscape:connector-curvature="0" /><path
       d="m 491.37128,453.57851 -14.87,4.96 14.87,4.96 0,-9.92 z"
       style="fill:#9c4a09;fill-opacity:1;fill-rule:evenodd;stroke:none"
       id="path4598"
       inkscape:connector-curvature="0" /><path
       d="m 547.89128,401.84851 -57.75,0"
       style="fill:none;stroke:#9c4a09;stroke-width:1;stroke-linecap:round;stroke-linejoin:round;stroke-miterlimit:10;stroke-opacity:1;stroke-dasharray:none"
       id="path4600"
       inkscape:connector-curvature="0" /><path
       d="m 546.65128,406.80851 14.88,-4.96 -14.88,-4.96 0,9.92 z"
       style="fill:#9c4a09;fill-opacity:1;fill-rule:evenodd;stroke:none"
       id="path4602"
       inkscape:connector-curvature="0" /><path
       d="m 491.37128,396.88851 -14.87,4.96 14.87,4.96 0,-9.92 z"
       style="fill:#9c4a09;fill-opacity:1;fill-rule:evenodd;stroke:none"
       id="path4604"
       inkscape:connector-curvature="0" /><path
       d="m 134.04128,118.37851 -57.760005,0"
       style="fill:none;stroke:#9c4a09;stroke-width:1;stroke-linecap:round;stroke-linejoin:round;stroke-miterlimit:10;stroke-opacity:1;stroke-dasharray:none"
       id="path4606"
       inkscape:connector-curvature="0" /><path
       d="m 132.80128,123.33851 14.88,-4.96 -14.88,-4.96 0,9.92 z"
       style="fill:#9c4a09;fill-opacity:1;fill-rule:evenodd;stroke:none"
       id="path4608"
       inkscape:connector-curvature="0" /><path
       d="m 77.521275,113.41851 -14.88,4.96 14.88,4.96 0,-9.92 z"
       style="fill:#9c4a09;fill-opacity:1;fill-rule:evenodd;stroke:none"
       id="path4610"
       inkscape:connector-curvature="0" /><path
       d="m 134.04128,90.03851 -57.760005,0"
       style="fill:none;stroke:#9c4a09;stroke-width:1;stroke-linecap:round;stroke-linejoin:round;stroke-miterlimit:10;stroke-opacity:1;stroke-dasharray:none"
       id="path4612"
       inkscape:connector-curvature="0" /><path
       d="m 132.80128,94.99851 14.88,-4.96 -14.88,-4.96 0,9.92 z"
       style="fill:#9c4a09;fill-opacity:1;fill-rule:evenodd;stroke:none"
       id="path4614"
       inkscape:connector-curvature="0" /><path
       d="m 77.521275,85.07851 -14.88,4.96 14.88,4.96 0,-9.92 z"
       style="fill:#9c4a09;fill-opacity:1;fill-rule:evenodd;stroke:none"
       id="path4616"
       inkscape:connector-curvature="0" /><path
       d="m 134.04128,33.34851 -57.760005,0"
       style="fill:none;stroke:#9c4a09;stroke-width:1;stroke-linecap:round;stroke-linejoin:round;stroke-miterlimit:10;stroke-opacity:1;stroke-dasharray:none"
       id="path4618"
       inkscape:connector-curvature="0" /><path
       d="m 132.80128,38.30851 14.88,-4.96 -14.88,-4.97 0,9.93 z"
       style="fill:#9c4a09;fill-opacity:1;fill-rule:evenodd;stroke:none"
       id="path4620"
       inkscape:connector-curvature="0" /><path
       d="m 77.521275,28.37851 -14.88,4.97 14.88,4.96 0,-9.93 z"
       style="fill:#9c4a09;fill-opacity:1;fill-rule:evenodd;stroke:none"
       id="path4622"
       inkscape:connector-curvature="0" /><path
       d="m 550.73128,118.37851 -57.76,0"
       style="fill:none;stroke:#9c4a09;stroke-width:1;stroke-linecap:round;stroke-linejoin:round;stroke-miterlimit:10;stroke-opacity:1;stroke-dasharray:none"
       id="path4624"
       inkscape:connector-curvature="0" /><path
       d="m 549.49128,123.33851 14.88,-4.96 -14.88,-4.96 0,9.92 z"
       style="fill:#9c4a09;fill-opacity:1;fill-rule:evenodd;stroke:none"
       id="path4626"
       inkscape:connector-curvature="0" /><path
       d="m 494.21128,113.41851 -14.88,4.96 14.88,4.96 0,-9.92 z"
       style="fill:#9c4a09;fill-opacity:1;fill-rule:evenodd;stroke:none"
       id="path4628"
       inkscape:connector-curvature="0" /><path
       d="m 550.73128,90.03851 -57.76,0"
       style="fill:none;stroke:#9c4a09;stroke-width:1;stroke-linecap:round;stroke-linejoin:round;stroke-miterlimit:10;stroke-opacity:1;stroke-dasharray:none"
       id="path4630"
       inkscape:connector-curvature="0" /><path
       d="m 549.49128,94.99851 14.88,-4.96 -14.88,-4.96 0,9.92 z"
       style="fill:#9c4a09;fill-opacity:1;fill-rule:evenodd;stroke:none"
       id="path4632"
       inkscape:connector-curvature="0" /><path
       d="m 494.21128,85.07851 -14.88,4.96 14.88,4.96 0,-9.92 z"
       style="fill:#9c4a09;fill-opacity:1;fill-rule:evenodd;stroke:none"
       id="path4634"
       inkscape:connector-curvature="0" /><path
       d="m 550.73128,33.34851 -57.76,0"
       style="fill:none;stroke:#9c4a09;stroke-width:1;stroke-linecap:round;stroke-linejoin:round;stroke-miterlimit:10;stroke-opacity:1;stroke-dasharray:none"
       id="path4636"
       inkscape:connector-curvature="0" /><path
       d="m 549.49128,38.30851 14.88,-4.96 -14.88,-4.97 0,9.93 z"
       style="fill:#9c4a09;fill-opacity:1;fill-rule:evenodd;stroke:none"
       id="path4638"
       inkscape:connector-curvature="0" /><path
       d="m 494.21128,28.37851 -14.88,4.97 14.88,4.96 0,-9.93 z"
       style="fill:#9c4a09;fill-opacity:1;fill-rule:evenodd;stroke:none"
       id="path4640"
       inkscape:connector-curvature="0" /><path
       d="m 34.291315,359.85851 0,-85.57 99.749965,0"
       style="fill:none;stroke:#38557a;stroke-width:1;stroke-linecap:round;stroke-linejoin:round;stroke-miterlimit:10;stroke-opacity:1;stroke-dasharray:none"
       id="path4642"
       inkscape:connector-curvature="0" /><path
       d="m 29.331315,358.61851 4.96,14.88 4.96,-14.88 -9.92,0 z"
       style="fill:#38557a;fill-opacity:1;fill-rule:evenodd;stroke:none"
       id="path4644"
       inkscape:connector-curvature="0" /><path
       d="m 132.80128,279.24851 14.88,-4.96 -14.88,-4.96 0,9.92 z"
       style="fill:#38557a;fill-opacity:1;fill-rule:evenodd;stroke:none"
       id="path4646"
       inkscape:connector-curvature="0" /><path
       d="m 589.88128,359.85851 0,-85.57 -99.74,0"
       style="fill:none;stroke:#38557a;stroke-width:1;stroke-linecap:round;stroke-linejoin:round;stroke-miterlimit:10;stroke-opacity:1;stroke-dasharray:none"
       id="path4648"
       inkscape:connector-curvature="0" /><path
       d="m 594.84128,358.61851 -4.96,14.88 -4.96,-14.88 9.92,0 z"
       style="fill:#38557a;fill-opacity:1;fill-rule:evenodd;stroke:none"
       id="path4650"
       inkscape:connector-curvature="0" /><path
       d="m 491.37128,279.24851 -14.87,-4.96 14.87,-4.96 0,9.92 z"
       style="fill:#38557a;fill-opacity:1;fill-rule:evenodd;stroke:none"
       id="path4652"
       inkscape:connector-curvature="0" /><path
       d="m 34.291315,160.36851 0,85.57 99.749965,0"
       style="fill:none;stroke:#38557a;stroke-width:1;stroke-linecap:round;stroke-linejoin:round;stroke-miterlimit:10;stroke-opacity:1;stroke-dasharray:none"
       id="path4654"
       inkscape:connector-curvature="0" /><path
       d="m 29.331315,161.60851 4.96,-14.88 4.96,14.88 -9.92,0 z"
       style="fill:#38557a;fill-opacity:1;fill-rule:evenodd;stroke:none"
       id="path4656"
       inkscape:connector-curvature="0" /><path
       d="m 132.80128,240.97851 14.88,4.96 -14.88,4.96 0,-9.92 z"
       style="fill:#38557a;fill-opacity:1;fill-rule:evenodd;stroke:none"
       id="path4658"
       inkscape:connector-curvature="0" /><path
       d="m 589.88128,160.36851 0,85.57 -99.74,0"
       style="fill:none;stroke:#38557a;stroke-width:1;stroke-linecap:round;stroke-linejoin:round;stroke-miterlimit:10;stroke-opacity:1;stroke-dasharray:none"
       id="path4660"
       inkscape:connector-curvature="0" /><path
       d="m 594.84128,161.60851 -4.96,-14.88 -4.96,14.88 9.92,0 z"
       style="fill:#38557a;fill-opacity:1;fill-rule:evenodd;stroke:none"
       id="path4662"
       inkscape:connector-curvature="0" /><path
       d="m 491.37128,240.97851 -14.87,4.96 14.87,4.96 0,-9.92 z"
       style="fill:#38557a;fill-opacity:1;fill-rule:evenodd;stroke:none"
       id="path4664"
       inkscape:connector-curvature="0" /></g></svg>