<?xml version="1.0" encoding="UTF-8" standalone="no"?>
<!-- Created with Inkscape (http://www.inkscape.org/) -->

<svg
   xmlns:dc="http://purl.org/dc/elements/1.1/"
   xmlns:cc="http://creativecommons.org/ns#"
   xmlns:rdf="http://www.w3.org/1999/02/22-rdf-syntax-ns#"
   xmlns:svg="http://www.w3.org/2000/svg"
   xmlns="http://www.w3.org/2000/svg"
   xmlns:sodipodi="http://sodipodi.sourceforge.net/DTD/sodipodi-0.dtd"
   xmlns:inkscape="http://www.inkscape.org/namespaces/inkscape"
   id="svg3752"
   version="1.1"
   inkscape:version="0.48.1 "
   width="280"
   height="90"
   xml:space="preserve"
   sodipodi:docname="skici.pdf"><metadata
     id="metadata3758"><rdf:RDF><cc:Work
         rdf:about=""><dc:format>image/svg+xml</dc:format><dc:type
           rdf:resource="http://purl.org/dc/dcmitype/StillImage" /><dc:title></dc:title></cc:Work></rdf:RDF></metadata><defs
     id="defs3756" /><sodipodi:namedview
     pagecolor="#ffffff"
     bordercolor="#666666"
     borderopacity="1"
     objecttolerance="10"
     gridtolerance="10"
     guidetolerance="10"
     inkscape:pageopacity="0"
     inkscape:pageshadow="2"
     inkscape:window-width="1920"
     inkscape:window-height="1125"
     id="namedview3754"
     showgrid="false"
     inkscape:zoom="1.515"
     inkscape:cx="255.24567"
     inkscape:cy="-17.639312"
     inkscape:window-x="-9"
     inkscape:window-y="-9"
     inkscape:window-maximized="1"
     inkscape:current-layer="g3760" /><g
     id="g3760"
     inkscape:groupmode="layer"
     inkscape:label="skici"
     transform="matrix(1.25,0,0,-1.25,0,90)"><text
       transform="scale(1,-1)"
       id="text3762"
       x="73.251678"
       y="-51.73402"><tspan
         style="font-size:18px;font-variant:normal;font-weight:normal;writing-mode:lr-tb;fill:#000000;fill-opacity:1;fill-rule:nonzero;stroke:none;font-family:ARIAL;-inkscape-font-specification:ARIAL"
         x="73.251678"
         y="-51.73402"
         id="tspan3764">R</tspan></text>
<text
       transform="scale(1,-1)"
       id="text3766"
       x="86.251678"
       y="-49.244015"><tspan
         style="font-size:11.69855976px;font-variant:normal;font-weight:normal;writing-mode:lr-tb;fill:#000000;fill-opacity:1;fill-rule:nonzero;stroke:none;font-family:ARIAL;-inkscape-font-specification:ARIAL"
         x="86.251678"
         y="-49.244015"
         id="tspan3768">1</tspan></text>
<path
       d="m 44.441677,43.114016 124.200003,0"
       style="fill:none;stroke:#000000;stroke-width:2.16000009;stroke-linecap:round;stroke-linejoin:round;stroke-miterlimit:10;stroke-opacity:1;stroke-dasharray:none"
       id="path3770"
       inkscape:connector-curvature="0" /><path
       d="m 168.64168,20.914016 51,0 0,44.999998 -51,0 0,-44.999998 z"
       style="fill:#c6d8f0;fill-opacity:1;fill-rule:evenodd;stroke:none"
       id="path3772"
       inkscape:connector-curvature="0" /><path
       d="m 168.64168,20.914016 51,0 0,44.999998 -51,0 0,-44.999998 z"
       style="fill:none;stroke:#000000;stroke-width:2.25;stroke-linecap:round;stroke-linejoin:round;stroke-miterlimit:10;stroke-opacity:1;stroke-dasharray:none"
       id="path3774"
       inkscape:connector-curvature="0" /><text
       transform="scale(1,-1)"
       id="text3776"
       x="181.92168"
       y="-46.924015"><tspan
         style="font-size:12.00024033px;font-variant:normal;font-weight:bold;writing-mode:lr-tb;fill:#000000;fill-opacity:1;fill-rule:nonzero;stroke:none;font-family:ARIAL;-inkscape-font-specification:ARIAL Bold"
         x="181.92168"
         y="-46.924015"
         id="tspan3778">3</tspan></text>
<text
       transform="scale(1,-1)"
       id="text3780"
       x="188.60168"
       y="-46.924015"><tspan
         style="font-size:12.00024033px;font-variant:normal;font-weight:bold;writing-mode:lr-tb;fill:#000000;fill-opacity:1;fill-rule:nonzero;stroke:none;font-family:ARIAL;-inkscape-font-specification:ARIAL Bold"
         x="188.60168"
         y="-46.924015"
         id="tspan3782">.</tspan></text>
<text
       transform="scale(1,-1)"
       id="text3784"
       x="191.93169"
       y="-46.924015"><tspan
         style="font-size:12.00024033px;font-variant:normal;font-weight:bold;writing-mode:lr-tb;fill:#000000;fill-opacity:1;fill-rule:nonzero;stroke:none;font-family:ARIAL;-inkscape-font-specification:ARIAL Bold"
         x="191.93169"
         y="-46.924015"
         id="tspan3786">3</tspan></text>
<text
       transform="scale(1,-1)"
       id="text3788"
       x="198.60168"
       y="-46.924015"><tspan
         style="font-size:12.00024033px;font-variant:normal;font-weight:bold;writing-mode:lr-tb;fill:#000000;fill-opacity:1;fill-rule:nonzero;stroke:none;font-family:ARIAL;-inkscape-font-specification:ARIAL Bold"
         x="198.60168 206.60593"
         y="-46.924015"
         sodipodi:role="line"
         id="tspan3790">V </tspan></text>
<text
       transform="scale(1,-1)"
       id="text3792"
       x="179.61168"
       y="-32.524021"><tspan
         style="font-size:12.00024033px;font-variant:normal;font-weight:bold;writing-mode:lr-tb;fill:#000000;fill-opacity:1;fill-rule:nonzero;stroke:none;font-family:ARIAL;-inkscape-font-specification:ARIAL Bold"
         x="179.61168 182.94579 190.27611 197.60643 204.93675"
         y="-32.524021"
         sodipodi:role="line"
         id="tspan3794">input</tspan></text>
<path
       d="m 4.8416768,19.114016 51.0000002,0 0,44.999998 -51.0000002,0 0,-44.999998 z"
       style="fill:#c05046;fill-opacity:1;fill-rule:evenodd;stroke:none"
       id="path3796"
       inkscape:connector-curvature="0" /><path
       d="m 4.8416768,19.114016 51.0000002,0 0,44.999998 -51.0000002,0 0,-44.999998 z"
       style="fill:none;stroke:#000000;stroke-width:2.25;stroke-linecap:round;stroke-linejoin:round;stroke-miterlimit:10;stroke-opacity:1;stroke-dasharray:none"
       id="path3798"
       inkscape:connector-curvature="0" /><text
       transform="scale(1,-1)"
       id="text3800"
       x="23.081678"
       y="-45.224018"><tspan
         style="font-size:12.00024033px;font-variant:normal;font-weight:bold;writing-mode:lr-tb;fill:#000000;fill-opacity:1;fill-rule:nonzero;stroke:none;font-family:ARIAL;-inkscape-font-specification:ARIAL Bold"
         x="23.081678"
         y="-45.224018"
         id="tspan3802">5</tspan></text>
<text
       transform="scale(1,-1)"
       id="text3804"
       x="29.761679"
       y="-45.224018"><tspan
         style="font-size:12.00024033px;font-variant:normal;font-weight:bold;writing-mode:lr-tb;fill:#000000;fill-opacity:1;fill-rule:nonzero;stroke:none;font-family:ARIAL;-inkscape-font-specification:ARIAL Bold"
         x="29.761679 37.765915"
         y="-45.224018"
         sodipodi:role="line"
         id="tspan3806">V </tspan></text>
<text
       transform="scale(1,-1)"
       id="text3808"
       x="11.771676"
       y="-30.824015"><tspan
         style="font-size:12.00024033px;font-variant:normal;font-weight:bold;writing-mode:lr-tb;fill:#000000;fill-opacity:1;fill-rule:nonzero;stroke:none;font-family:ARIAL;-inkscape-font-specification:ARIAL Bold"
         x="11.771676 19.101999 26.432318 30.428316 37.758636 45.088959"
         y="-30.824015"
         sodipodi:role="line"
         id="tspan3810">output</tspan></text>
<path
       d="m 112.46168,43.124016 c 0,1.16 -0.94,2.1 -2.1,2.1 -1.16,0 -2.1,-0.94 -2.1,-2.1 0,-1.16 0.94,-2.1 2.1,-2.1 1.16,0 2.1,0.94 2.1,2.1 z"
       style="fill:#000000;fill-opacity:1;fill-rule:evenodd;stroke:none"
       id="path3812"
       inkscape:connector-curvature="0" /><path
       d="m 112.46168,43.124016 c 0,1.16 -0.94,2.1 -2.1,2.1 -1.16,0 -2.1,-0.94 -2.1,-2.1 0,-1.16 0.94,-2.1 2.1,-2.1 1.16,0 2.1,0.94 2.1,2.1 z"
       style="fill:none;stroke:#000000;stroke-width:2.16000009;stroke-linecap:round;stroke-linejoin:round;stroke-miterlimit:10;stroke-opacity:1;stroke-dasharray:none"
       id="path3814"
       inkscape:connector-curvature="0" /><path
       d="m 72.041677,39.514016 18.000003,0 0,7.2 -18.000003,0 0,-7.2 z"
       style="fill:#ffffff;fill-opacity:1;fill-rule:evenodd;stroke:none"
       id="path3816"
       inkscape:connector-curvature="0" /><path
       d="m 72.041677,39.514016 18.000003,0 0,7.2 -18.000003,0 0,-7.2 z"
       style="fill:none;stroke:#000000;stroke-width:1.5;stroke-linecap:round;stroke-linejoin:round;stroke-miterlimit:10;stroke-opacity:1;stroke-dasharray:none"
       id="path3818"
       inkscape:connector-curvature="0" /><path
       d="m 135.64168,25.114016 -12.6,0 m 0,8.4 0,-16.8 m 0,4.2 -12.6,-5.4 0,-7.1999996 m 12.6,20.9999996 -12.6,5.4 0,7.2"
       style="fill:none;stroke:#000000;stroke-width:1.5;stroke-linecap:round;stroke-linejoin:round;stroke-miterlimit:10;stroke-opacity:1;stroke-dasharray:none"
       id="path3820"
       inkscape:connector-curvature="0" /><path
       d="m 123.04168,29.314016 -2.4,3 -1.2,-3 3.6,0 z"
       style="fill:#000000;fill-opacity:1;fill-rule:evenodd;stroke:none"
       id="path3822"
       inkscape:connector-curvature="0" /><path
       d="m 123.04168,29.314016 -2.4,3 -1.2,-3 3.6,0 z"
       style="fill:none;stroke:#000000;stroke-width:1.5;stroke-linecap:round;stroke-linejoin:round;stroke-miterlimit:10;stroke-opacity:1;stroke-dasharray:none"
       id="path3824"
       inkscape:connector-curvature="0" /><path
       d="m 108.04168,7.7140164 5.4,0 -3,-5.4 -2.4,5.4 z"
       style="fill:#ffffff;fill-opacity:1;fill-rule:evenodd;stroke:none"
       id="path3826"
       inkscape:connector-curvature="0" /><path
       d="m 108.04168,7.7140164 5.4,0 -3,-5.4 -2.4,5.4 z"
       style="fill:none;stroke:#000000;stroke-width:1.5;stroke-linecap:round;stroke-linejoin:round;stroke-miterlimit:10;stroke-opacity:1;stroke-dasharray:none"
       id="path3828"
       inkscape:connector-curvature="0" /><path
       d="m 137.81168,25.214016 c 0,1.55 -1.26,2.81 -2.81,2.81 -1.55,0 -2.81,-1.26 -2.81,-2.81 0,-1.56 1.26,-2.81 2.81,-2.81 1.55,0 2.81,1.25 2.81,2.81 z"
       style="fill:#ffffff;fill-opacity:1;fill-rule:evenodd;stroke:none"
       id="path3830"
       inkscape:connector-curvature="0" /><path
       d="m 137.81168,25.214016 c 0,1.55 -1.26,2.81 -2.81,2.81 -1.55,0 -2.81,-1.26 -2.81,-2.81 0,-1.56 1.26,-2.81 2.81,-2.81 1.55,0 2.81,1.25 2.81,2.81 z"
       style="fill:none;stroke:#000000;stroke-width:1.5;stroke-linecap:round;stroke-linejoin:round;stroke-miterlimit:10;stroke-opacity:1;stroke-dasharray:none"
       id="path3832"
       inkscape:connector-curvature="0" /><text
       transform="scale(1,-1)"
       id="text3834"
       x="139.40169"
       y="-21.014017"><tspan
         style="font-size:12.00024033px;font-variant:normal;font-weight:normal;writing-mode:lr-tb;fill:#9d3d35;fill-opacity:1;fill-rule:nonzero;stroke:none;font-family:ARIAL;-inkscape-font-specification:ARIAL"
         x="139.40169"
         y="-21.014017"
         id="tspan3836">3</tspan></text>
<text
       transform="scale(1,-1)"
       id="text3838"
       x="146.08168"
       y="-21.014017"><tspan
         style="font-size:12.00024033px;font-variant:normal;font-weight:normal;writing-mode:lr-tb;fill:#9d3d35;fill-opacity:1;fill-rule:nonzero;stroke:none;font-family:ARIAL;-inkscape-font-specification:ARIAL"
         x="146.08168"
         y="-21.014017"
         id="tspan3840">.</tspan></text>
<text
       transform="scale(1,-1)"
       id="text3842"
       x="149.41168"
       y="-21.014017"><tspan
         style="font-size:12.00024033px;font-variant:normal;font-weight:normal;writing-mode:lr-tb;fill:#9d3d35;fill-opacity:1;fill-rule:nonzero;stroke:none;font-family:ARIAL;-inkscape-font-specification:ARIAL"
         x="149.41168"
         y="-21.014017"
         id="tspan3844">3</tspan></text>
<text
       transform="scale(1,-1)"
       id="text3846"
       x="156.08168"
       y="-21.014017"><tspan
         style="font-size:12.00024033px;font-variant:normal;font-weight:normal;writing-mode:lr-tb;fill:#9d3d35;fill-opacity:1;fill-rule:nonzero;stroke:none;font-family:ARIAL;-inkscape-font-specification:ARIAL"
         x="156.08168"
         y="-21.014017"
         id="tspan3848">V</tspan></text>
<text
       transform="scale(1,-1)"
       id="text3850"
       x="90.551682"
       y="-19.294016"><tspan
         style="font-size:18px;font-variant:normal;font-weight:normal;writing-mode:lr-tb;fill:#000000;fill-opacity:1;fill-rule:nonzero;stroke:none;font-family:ARIAL;-inkscape-font-specification:ARIAL"
         x="90.551682"
         y="-19.294016"
         id="tspan3852">T</tspan></text>
<text
       transform="scale(1,-1)"
       id="text3854"
       x="101.55168"
       y="-16.804018"><tspan
         style="font-size:11.69855976px;font-variant:normal;font-weight:normal;writing-mode:lr-tb;fill:#000000;fill-opacity:1;fill-rule:nonzero;stroke:none;font-family:ARIAL;-inkscape-font-specification:ARIAL"
         x="101.55168"
         y="-16.804018"
         id="tspan3856">1</tspan></text>
</g></svg>