<?xml version="1.0" encoding="UTF-8" standalone="no"?>
<!-- Created with Inkscape (http://www.inkscape.org/) -->

<svg
   xmlns:dc="http://purl.org/dc/elements/1.1/"
   xmlns:cc="http://creativecommons.org/ns#"
   xmlns:rdf="http://www.w3.org/1999/02/22-rdf-syntax-ns#"
   xmlns:svg="http://www.w3.org/2000/svg"
   xmlns="http://www.w3.org/2000/svg"
   xmlns:sodipodi="http://sodipodi.sourceforge.net/DTD/sodipodi-0.dtd"
   xmlns:inkscape="http://www.inkscape.org/namespaces/inkscape"
   width="380"
   height="300"
   id="svg49584"
   version="1.1"
   inkscape:version="0.48.0 r9654"
   sodipodi:docname="diodovy_log_OR.svg">
  <defs
     id="defs3" />
  <sodipodi:namedview
     inkscape:document-units="mm"
     id="base"
     pagecolor="#ffffff"
     bordercolor="#666666"
     borderopacity="1.0"
     inkscape:pageopacity="0.0"
     inkscape:pageshadow="2"
     inkscape:zoom="1.4"
     inkscape:cx="248.92078"
     inkscape:cy="258.80163"
     inkscape:current-layer="layer1"
     showgrid="false"
     inkscape:window-width="1917"
     inkscape:window-height="1125"
     inkscape:window-x="-9"
     inkscape:window-y="-9"
     inkscape:window-maximized="1" />
  <metadata
     id="metadata4">
    <rdf:RDF>
      <cc:Work
         rdf:about="">
        <dc:format>image/svg+xml</dc:format>
        <dc:type
           rdf:resource="http://purl.org/dc/dcmitype/StillImage" />
        <dc:title></dc:title>
      </cc:Work>
    </rdf:RDF>
  </metadata>
  <g
     inkscape:label="Layer 1"
     inkscape:groupmode="layer"
     id="layer1"
     transform="translate(0,-752.36218)">
    <path
       inkscape:connector-curvature="0"
       d="m 191.35057,779.7393 c 0,-1.175 0.9375,-2.1125 2.1,-2.1125 1.1625,0 2.1125,0.9375 2.1125,2.1125 0,0 0,0 0,0 0,1.1625 -0.95,2.1 -2.1125,2.1 -1.1625,0 -2.1,-0.9375 -2.1,-2.1 z"
       style="fill:#000000;fill-opacity:1;fill-rule:evenodd;stroke:none"
       id="path43878" />
    <path
       inkscape:connector-curvature="0"
       d="m 191.35057,779.7393 c 0,-1.175 0.9375,-2.1125 2.1,-2.1125 1.1625,0 2.1125,0.9375 2.1125,2.1125 0,0 0,0 0,0 0,1.1625 -0.95,2.1 -2.1125,2.1 -1.1625,0 -2.1,-0.9375 -2.1,-2.1 z"
       style="fill:none;stroke:#000000;stroke-width:3.75;stroke-linecap:round;stroke-linejoin:round;stroke-miterlimit:10;stroke-opacity:1;stroke-dasharray:none"
       id="path43880" />
    <path
       inkscape:connector-curvature="0"
       d="m 116.76306,780.0893 -20.999998,-14.25 0,28.5 20.999998,-14.25 z"
       style="fill:#ffffff;fill-opacity:1;fill-rule:evenodd;stroke:none"
       id="path43882" />
    <path
       inkscape:connector-curvature="0"
       d="m 116.76306,780.0893 -20.999998,-14.25 0,28.5 20.999998,-14.25 z"
       style="fill:none;stroke:#000000;stroke-width:2.8125;stroke-linecap:round;stroke-linejoin:round;stroke-miterlimit:10;stroke-opacity:1;stroke-dasharray:none"
       id="path43884" />
    <path
       inkscape:connector-curvature="0"
       d="m 116.76306,765.8393 0,28.5"
       style="fill:none;stroke:#000000;stroke-width:2.8125;stroke-linecap:round;stroke-linejoin:round;stroke-miterlimit:10;stroke-opacity:1;stroke-dasharray:none"
       id="path43886" />
    <path
       inkscape:connector-curvature="0"
       d="m 116.76306,765.8393 0,28.5"
       style="fill:none;stroke:#000000;stroke-width:2.8125;stroke-linecap:round;stroke-linejoin:round;stroke-miterlimit:10;stroke-opacity:1;stroke-dasharray:none"
       id="path43888" />
    <path
       inkscape:connector-curvature="0"
       d="m 79.263062,780.0893 57.000008,0"
       style="fill:none;stroke:#000000;stroke-width:2.8125;stroke-linecap:round;stroke-linejoin:round;stroke-miterlimit:10;stroke-opacity:1;stroke-dasharray:none"
       id="path43890" />
    <path
       inkscape:connector-curvature="0"
       d="m 79.263062,780.0893 57.000008,0"
       style="fill:none;stroke:#000000;stroke-width:2.8125;stroke-linecap:round;stroke-linejoin:round;stroke-miterlimit:10;stroke-opacity:1;stroke-dasharray:none"
       id="path43892" />
    <path
       inkscape:connector-curvature="0"
       d="m 116.76306,836.3393 -20.999998,-14.25 0,28.5 20.999998,-14.25 z"
       style="fill:#ffffff;fill-opacity:1;fill-rule:evenodd;stroke:none"
       id="path43894" />
    <path
       inkscape:connector-curvature="0"
       d="m 116.76306,836.3393 -20.999998,-14.25 0,28.5 20.999998,-14.25 z"
       style="fill:none;stroke:#000000;stroke-width:2.8125;stroke-linecap:round;stroke-linejoin:round;stroke-miterlimit:10;stroke-opacity:1;stroke-dasharray:none"
       id="path43896" />
    <path
       inkscape:connector-curvature="0"
       d="m 116.76306,822.0893 0,28.5"
       style="fill:none;stroke:#000000;stroke-width:2.8125;stroke-linecap:round;stroke-linejoin:round;stroke-miterlimit:10;stroke-opacity:1;stroke-dasharray:none"
       id="path43898" />
    <path
       inkscape:connector-curvature="0"
       d="m 116.76306,822.0893 0,28.5"
       style="fill:none;stroke:#000000;stroke-width:2.8125;stroke-linecap:round;stroke-linejoin:round;stroke-miterlimit:10;stroke-opacity:1;stroke-dasharray:none"
       id="path43900" />
    <path
       inkscape:connector-curvature="0"
       d="m 79.263062,836.3393 57.000008,0"
       style="fill:none;stroke:#000000;stroke-width:2.8125;stroke-linecap:round;stroke-linejoin:round;stroke-miterlimit:10;stroke-opacity:1;stroke-dasharray:none"
       id="path43902" />
    <path
       inkscape:connector-curvature="0"
       d="m 79.263062,836.3393 57.000008,0"
       style="fill:none;stroke:#000000;stroke-width:2.8125;stroke-linecap:round;stroke-linejoin:round;stroke-miterlimit:10;stroke-opacity:1;stroke-dasharray:none"
       id="path43904" />
    <path
       inkscape:connector-curvature="0"
       d="m 136.26307,780.0893 57,0"
       style="fill:none;stroke:#000000;stroke-width:2.8125;stroke-linecap:round;stroke-linejoin:round;stroke-miterlimit:10;stroke-opacity:1;stroke-dasharray:none"
       id="path43906" />
    <path
       inkscape:connector-curvature="0"
       d="m 136.26307,836.3393 57,0"
       style="fill:none;stroke:#000000;stroke-width:2.8125;stroke-linecap:round;stroke-linejoin:round;stroke-miterlimit:10;stroke-opacity:1;stroke-dasharray:none"
       id="path43908" />
    <path
       inkscape:connector-curvature="0"
       d="m 188.98807,836.6893 c 0,2.4625 2,4.4625 4.4625,4.4625 2.475,0 4.475,-2 4.475,-4.4625 0,0 0,0 0,0 0,-2.475 -2,-4.475 -4.475,-4.475 -2.4625,0 -4.4625,2 -4.4625,4.475 z"
       style="fill:#000000;fill-opacity:1;fill-rule:evenodd;stroke:none"
       id="path43910" />
    <path
       inkscape:connector-curvature="0"
       d="m 250.26307,780.0893 -57,0 0,141.75"
       style="fill:none;stroke:#000000;stroke-width:2.8125;stroke-linecap:round;stroke-linejoin:round;stroke-miterlimit:10;stroke-opacity:1;stroke-dasharray:none"
       id="path43912" />
    <path
       inkscape:connector-curvature="0"
       d="m 182.76307,1007.3393 21,0 0,-57 -21,0 0,57 z"
       style="fill:#ffffff;fill-opacity:1;fill-rule:evenodd;stroke:none"
       id="path43914" />
    <path
       inkscape:connector-curvature="0"
       d="m 182.76307,1007.3393 21,0 0,-57 -21,0 0,57 z"
       style="fill:none;stroke:#000000;stroke-width:2.8125;stroke-linecap:round;stroke-linejoin:round;stroke-miterlimit:10;stroke-opacity:1;stroke-dasharray:none"
       id="path43916" />
    <path
       inkscape:connector-curvature="0"
       d="m 193.26307,921.8393 0,28.5"
       style="fill:none;stroke:#000000;stroke-width:2.8125;stroke-linecap:round;stroke-linejoin:round;stroke-miterlimit:10;stroke-opacity:1;stroke-dasharray:none"
       id="path43918" />
    <path
       inkscape:connector-curvature="0"
       d="m 193.26307,1035.8393 0,-28.5"
       style="fill:none;stroke:#000000;stroke-width:2.8125;stroke-linecap:round;stroke-linejoin:round;stroke-miterlimit:10;stroke-opacity:1;stroke-dasharray:none"
       id="path43920" />
    <path
       inkscape:connector-curvature="0"
       d="m 179.01307,1035.8393 28.5,0"
       style="fill:none;stroke:#000000;stroke-width:2.8125;stroke-linecap:round;stroke-linejoin:round;stroke-miterlimit:10;stroke-opacity:1;stroke-dasharray:none"
       id="path43922" />
    <path
       inkscape:connector-curvature="0"
       d="m 191.35057,836.6893 c 0,-1.175 0.9375,-2.1125 2.1,-2.1125 1.1625,0 2.1125,0.9375 2.1125,2.1125 0,0 0,0 0,0 0,1.1625 -0.95,2.1 -2.1125,2.1 -1.1625,0 -2.1,-0.9375 -2.1,-2.1 z"
       style="fill:#000000;fill-opacity:1;fill-rule:evenodd;stroke:none"
       id="path43924" />
    <path
       inkscape:connector-curvature="0"
       d="m 191.35057,836.6893 c 0,-1.175 0.9375,-2.1125 2.1,-2.1125 1.1625,0 2.1125,0.9375 2.1125,2.1125 0,0 0,0 0,0 0,1.1625 -0.95,2.1 -2.1125,2.1 -1.1625,0 -2.1,-0.9375 -2.1,-2.1 z"
       style="fill:none;stroke:#000000;stroke-width:2.8125;stroke-linecap:round;stroke-linejoin:round;stroke-miterlimit:10;stroke-opacity:1;stroke-dasharray:none"
       id="path43926" />
    <path
       inkscape:connector-curvature="0"
       d="m 36.850563,779.7393 c 0,-1.5625 1.25,-2.8125 2.8125,-2.8125 1.549999,0 2.812499,1.25 2.812499,2.8125 0,0 0,0 0,0 0,1.55 -1.2625,2.8125 -2.812499,2.8125 -1.5625,0 -2.8125,-1.2625 -2.8125,-2.8125"
       style="fill:none;stroke:#000000;stroke-width:2.8125;stroke-linecap:round;stroke-linejoin:round;stroke-miterlimit:10;stroke-opacity:1;stroke-dasharray:none"
       id="path43928" />
    <path
       inkscape:connector-curvature="0"
       d="m 42.513062,780.0893 36.75,0"
       style="fill:none;stroke:#000000;stroke-width:2.8125;stroke-linecap:round;stroke-linejoin:round;stroke-miterlimit:10;stroke-opacity:1;stroke-dasharray:none"
       id="path43930" />
    <path
       inkscape:connector-curvature="0"
       d="m 36.850563,836.6893 c 0,-1.5625 1.25,-2.8125 2.8125,-2.8125 1.549999,0 2.812499,1.25 2.812499,2.8125 0,0 0,0 0,0 0,1.55 -1.2625,2.8125 -2.812499,2.8125 -1.5625,0 -2.8125,-1.2625 -2.8125,-2.8125"
       style="fill:none;stroke:#000000;stroke-width:2.8125;stroke-linecap:round;stroke-linejoin:round;stroke-miterlimit:10;stroke-opacity:1;stroke-dasharray:none"
       id="path43932" />
    <path
       inkscape:connector-curvature="0"
       d="m 42.513062,836.3393 36.75,0"
       style="fill:none;stroke:#000000;stroke-width:2.8125;stroke-linecap:round;stroke-linejoin:round;stroke-miterlimit:10;stroke-opacity:1;stroke-dasharray:none"
       id="path43934" />
    <path
       inkscape:connector-curvature="0"
       d="m 293.11307,779.7393 c 0,1.55 -1.2625,2.8125 -2.8125,2.8125 -1.55,0 -2.8125,-1.2625 -2.8125,-2.8125 0,0 0,0 0,0 0,-1.5625 1.2625,-2.8125 2.8125,-2.8125 1.55,0 2.8125,1.25 2.8125,2.8125"
       style="fill:none;stroke:#000000;stroke-width:2.8125;stroke-linecap:round;stroke-linejoin:round;stroke-miterlimit:10;stroke-opacity:1;stroke-dasharray:none"
       id="path43936" />
    <path
       inkscape:connector-curvature="0"
       d="m 287.76307,780.0893 -37.5,0"
       style="fill:none;stroke:#000000;stroke-width:2.8125;stroke-linecap:round;stroke-linejoin:round;stroke-miterlimit:10;stroke-opacity:1;stroke-dasharray:none"
       id="path43938" />
    <text
       style="font-size:15px"
       y="786.48932"
       x="15.688062"
       id="text43944">
      <tspan
         style="font-size:22.5px;font-variant:normal;font-weight:bold;writing-mode:lr-tb;fill:#000000;fill-opacity:1;fill-rule:nonzero;stroke:none;font-family:CALIBRI;-inkscape-font-specification:CALIBRI Bold"
         x="15.688062"
         y="786.48932"
         id="tspan43946">a</tspan>
    </text>
    <text
       style="font-size:15px"
       y="843.43933"
       x="16.575563"
       id="text43948">
      <tspan
         style="font-size:22.5px;font-variant:normal;font-weight:bold;writing-mode:lr-tb;fill:#000000;fill-opacity:1;fill-rule:nonzero;stroke:none;font-family:CALIBRI;-inkscape-font-specification:CALIBRI Bold"
         x="16.575563"
         y="843.43933"
         id="tspan43950">b</tspan>
    </text>
    <text
       style="font-size:15px"
       y="783.55182"
       x="311.56305"
       id="text43952">
      <tspan
         style="font-size:22.5px;font-variant:normal;font-weight:bold;writing-mode:lr-tb;fill:#000000;fill-opacity:1;fill-rule:nonzero;stroke:none;font-family:CALIBRI;-inkscape-font-specification:CALIBRI Bold"
         x="311.56305"
         y="783.55182"
         id="tspan43954">y</tspan>
    </text>
    <text
       style="font-size:15px"
       y="783.55182"
       x="322.22556"
       id="text43956">
      <tspan
         style="font-size:22.5px;font-variant:normal;font-weight:bold;writing-mode:lr-tb;fill:#000000;fill-opacity:1;fill-rule:nonzero;stroke:none;font-family:CALIBRI;-inkscape-font-specification:CALIBRI Bold"
         x="322.22556"
         y="783.55182"
         id="tspan43958">=</tspan>
    </text>
    <text
       style="font-size:15px"
       y="783.55182"
       x="333.42554"
       id="text43960">
      <tspan
         style="font-size:22.5px;font-variant:normal;font-weight:bold;writing-mode:lr-tb;fill:#000000;fill-opacity:1;fill-rule:nonzero;stroke:none;font-family:CALIBRI;-inkscape-font-specification:CALIBRI Bold"
         x="333.42554"
         y="783.55182"
         id="tspan43962">a</tspan>
    </text>
    <text
       style="font-size:15px"
       y="783.55182"
       x="344.53806"
       id="text43964">
      <tspan
         style="font-size:22.5px;font-variant:normal;font-weight:bold;writing-mode:lr-tb;fill:#000000;fill-opacity:1;fill-rule:nonzero;stroke:none;font-family:CALIBRI;-inkscape-font-specification:CALIBRI Bold"
         x="344.53806"
         y="783.55182"
         id="tspan43966">+</tspan>
    </text>
    <text
       style="font-size:15px"
       y="783.55182"
       x="355.73804"
       id="text43968">
      <tspan
         style="font-size:22.5px;font-variant:normal;font-weight:bold;writing-mode:lr-tb;fill:#000000;fill-opacity:1;fill-rule:nonzero;stroke:none;font-family:CALIBRI;-inkscape-font-specification:CALIBRI Bold"
         x="355.73804"
         y="783.55182"
         id="tspan43970">b</tspan>
    </text>
  </g>
</svg>
