<?xml version="1.0" encoding="UTF-8" standalone="no"?>
<!-- Created with Inkscape (http://www.inkscape.org/) -->

<svg
   xmlns:dc="http://purl.org/dc/elements/1.1/"
   xmlns:cc="http://creativecommons.org/ns#"
   xmlns:rdf="http://www.w3.org/1999/02/22-rdf-syntax-ns#"
   xmlns:svg="http://www.w3.org/2000/svg"
   xmlns="http://www.w3.org/2000/svg"
   xmlns:sodipodi="http://sodipodi.sourceforge.net/DTD/sodipodi-0.dtd"
   xmlns:inkscape="http://www.inkscape.org/namespaces/inkscape"
   width="380"
   height="300"
   id="svg49584"
   version="1.1"
   inkscape:version="0.48.0 r9654"
   sodipodi:docname="diodovy_log_OR.svg">
  <defs
     id="defs3">
    <clipPath
       clipPathUnits="userSpaceOnUse"
       id="clipPath41444">
      <path
         inkscape:connector-curvature="0"
         d="m 0,0 284.78,0 0,465.43 L 0,465.43 0,0 z"
         id="path41446" />
    </clipPath>
    <clipPath
       clipPathUnits="userSpaceOnUse"
       id="clipPath41294">
      <path
         inkscape:connector-curvature="0"
         d="m 0,0 325.91,0 0,465.43 L 0,465.43 0,0 z"
         id="path41296" />
    </clipPath>
    <clipPath
       clipPathUnits="userSpaceOnUse"
       id="clipPath41304">
      <path
         inkscape:connector-curvature="0"
         d="m 0,-0.40549 325.76,0 0,465.83 -325.76,0 0,-465.83 z"
         clip-rule="evenodd"
         id="path41306" />
    </clipPath>
    <clipPath
       clipPathUnits="userSpaceOnUse"
       id="clipPath41316">
      <path
         inkscape:connector-curvature="0"
         d="m 0,-0.40549 325.76,0 0,465.83 -325.76,0 0,-465.83 z"
         clip-rule="evenodd"
         id="path41318" />
    </clipPath>
    <clipPath
       clipPathUnits="userSpaceOnUse"
       id="clipPath41328">
      <path
         inkscape:connector-curvature="0"
         d="m 0,-0.40549 325.76,0 0,465.83 -325.76,0 0,-465.83 z"
         clip-rule="evenodd"
         id="path41330" />
    </clipPath>
    <clipPath
       clipPathUnits="userSpaceOnUse"
       id="clipPath41340">
      <path
         inkscape:connector-curvature="0"
         d="m 0,-0.40549 325.76,0 0,465.83 -325.76,0 0,-465.83 z"
         clip-rule="evenodd"
         id="path41342" />
    </clipPath>
  </defs>
  <sodipodi:namedview
     inkscape:document-units="mm"
     id="base"
     pagecolor="#ffffff"
     bordercolor="#666666"
     borderopacity="1.0"
     inkscape:pageopacity="0.0"
     inkscape:pageshadow="2"
     inkscape:zoom="1.979899"
     inkscape:cx="192.5584"
     inkscape:cy="179.66593"
     inkscape:current-layer="layer1"
     showgrid="false"
     inkscape:window-width="1917"
     inkscape:window-height="1125"
     inkscape:window-x="-9"
     inkscape:window-y="-9"
     inkscape:window-maximized="1" />
  <metadata
     id="metadata4">
    <rdf:RDF>
      <cc:Work
         rdf:about="">
        <dc:format>image/svg+xml</dc:format>
        <dc:type
           rdf:resource="http://purl.org/dc/dcmitype/StillImage" />
        <dc:title></dc:title>
      </cc:Work>
    </rdf:RDF>
  </metadata>
  <g
     inkscape:label="Layer 1"
     inkscape:groupmode="layer"
     id="layer1"
     transform="translate(0,-752.36218)">
    <path
       inkscape:connector-curvature="0"
       d="m 99.779913,933.21192 20.249997,-14.25 0,28.5 -20.249997,-14.25 z"
       style="fill:#ffffff;fill-opacity:1;fill-rule:evenodd;stroke:none"
       id="path43764" />
    <path
       inkscape:connector-curvature="0"
       d="m 99.779913,933.21192 20.249997,-14.25 0,28.5 -20.249997,-14.25 z"
       style="fill:none;stroke:#000000;stroke-width:2.8125;stroke-linecap:round;stroke-linejoin:round;stroke-miterlimit:10;stroke-opacity:1;stroke-dasharray:none"
       id="path43766" />
    <path
       inkscape:connector-curvature="0"
       d="m 99.779913,918.96192 0,28.5"
       style="fill:none;stroke:#000000;stroke-width:2.8125;stroke-linecap:round;stroke-linejoin:round;stroke-miterlimit:10;stroke-opacity:1;stroke-dasharray:none"
       id="path43768" />
    <path
       inkscape:connector-curvature="0"
       d="m 99.779913,918.96192 0,28.5"
       style="fill:none;stroke:#000000;stroke-width:2.8125;stroke-linecap:round;stroke-linejoin:round;stroke-miterlimit:10;stroke-opacity:1;stroke-dasharray:none"
       id="path43770" />
    <path
       inkscape:connector-curvature="0"
       d="m 99.779913,990.21202 20.249997,-14.25 0,28.49998 -20.249997,-14.24998 z"
       style="fill:#ffffff;fill-opacity:1;fill-rule:evenodd;stroke:none"
       id="path43776" />
    <path
       inkscape:connector-curvature="0"
       d="m 99.779913,990.21202 20.249997,-14.25 0,28.49998 -20.249997,-14.24998 z"
       style="fill:none;stroke:#000000;stroke-width:2.8125;stroke-linecap:round;stroke-linejoin:round;stroke-miterlimit:10;stroke-opacity:1;stroke-dasharray:none"
       id="path43778" />
    <path
       inkscape:connector-curvature="0"
       d="m 99.779913,975.96202 0,28.49998"
       style="fill:none;stroke:#000000;stroke-width:2.8125;stroke-linecap:round;stroke-linejoin:round;stroke-miterlimit:10;stroke-opacity:1;stroke-dasharray:none"
       id="path43780" />
    <path
       inkscape:connector-curvature="0"
       d="m 99.779913,975.96202 0,28.49998"
       style="fill:none;stroke:#000000;stroke-width:2.8125;stroke-linecap:round;stroke-linejoin:round;stroke-miterlimit:10;stroke-opacity:1;stroke-dasharray:none"
       id="path43782" />
    <path
       inkscape:connector-curvature="0"
       d="m 192.02101,990.46456 -138.871437,0"
       style="fill:none;stroke:#000000;stroke-width:3.51338673;stroke-linecap:round;stroke-linejoin:round;stroke-miterlimit:10;stroke-opacity:1;stroke-dasharray:none"
       id="path43784" />
    <path
       inkscape:connector-curvature="0"
       d="m 183.02991,904.71192 21,0 0,-56.99996 -21,0 0,56.99996 z"
       style="fill:#ffffff;fill-opacity:1;fill-rule:evenodd;stroke:none"
       id="path43794" />
    <path
       inkscape:connector-curvature="0"
       d="m 183.02991,904.71192 21,0 0,-56.99996 -21,0 0,56.99996 z"
       style="fill:none;stroke:#000000;stroke-width:2.8125;stroke-linecap:round;stroke-linejoin:round;stroke-miterlimit:10;stroke-opacity:1;stroke-dasharray:none"
       id="path43796" />
    <path
       inkscape:connector-curvature="0"
       d="m 193.63002,792.19794 0,54.65932"
       style="fill:none;stroke:#000000;stroke-width:2.90609574;stroke-linecap:round;stroke-linejoin:round;stroke-miterlimit:10;stroke-opacity:1;stroke-dasharray:none"
       id="path43798" />
    <path
       inkscape:connector-curvature="0"
       d="m 193.27737,990.44546 0,-85.481"
       style="fill:none;stroke:#000000;stroke-width:3.35571527;stroke-linecap:round;stroke-linejoin:round;stroke-miterlimit:10;stroke-opacity:1;stroke-dasharray:none"
       id="path43800" />
    <path
       inkscape:connector-curvature="0"
       d="m 193.49241,933.39942 c 0,-0.5875 0.4625,-1.0625 1.05,-1.0625 0.5875,0 1.05,0.475 1.05,1.0625 0,0 0,0 0,0 0,0.575 -0.4625,1.05 -1.05,1.05 -0.5875,0 -1.05,-0.475 -1.05,-1.05 z"
       style="fill:#000000;fill-opacity:1;fill-rule:evenodd;stroke:none"
       id="path43806" />
    <path
       inkscape:connector-curvature="0"
       d="m 193.49241,933.39942 c 0,-0.5875 0.4625,-1.0625 1.05,-1.0625 0.5875,0 1.05,0.475 1.05,1.0625 0,0 0,0 0,0 0,0.575 -0.4625,1.05 -1.05,1.05 -0.5875,0 -1.05,-0.475 -1.05,-1.05 z"
       style="fill:none;stroke:#000000;stroke-width:2.8125;stroke-linecap:round;stroke-linejoin:round;stroke-miterlimit:10;stroke-opacity:1;stroke-dasharray:none"
       id="path43808" />
    <path
       inkscape:connector-curvature="0"
       d="m 36.879913,933.39942 c 0,-3.9375 3.1875,-7.125 7.1125,-7.125 3.9375,0 7.125,3.1875 7.125,7.125 0,0 0,0 0,0 0,3.925 -3.1875,7.1125 -7.125,7.1125 -3.925,0 -7.1125,-3.1875 -7.1125,-7.1125"
       style="fill:none;stroke:#000000;stroke-width:2.8125;stroke-linecap:round;stroke-linejoin:round;stroke-miterlimit:10;stroke-opacity:1;stroke-dasharray:none"
       id="path43810" />
    <path
       inkscape:connector-curvature="0"
       d="m 53.033481,933.25253 225.585239,0"
       style="fill:none;stroke:#000000;stroke-width:3.81742001;stroke-linecap:round;stroke-linejoin:round;stroke-miterlimit:10;stroke-opacity:1;stroke-dasharray:none"
       id="path43812" />
    <path
       inkscape:connector-curvature="0"
       d="m 36.879913,990.34952 c 0,-3.9375 3.1875,-7.125 7.1125,-7.125 3.9375,0 7.125,3.1875 7.125,7.125 0,0 0,0 0,0 0,3.925 -3.1875,7.1125 -7.125,7.1125 -3.925,0 -7.1125,-3.1875 -7.1125,-7.1125"
       style="fill:none;stroke:#000000;stroke-width:2.8125;stroke-linecap:round;stroke-linejoin:round;stroke-miterlimit:10;stroke-opacity:1;stroke-dasharray:none"
       id="path43814" />
    <path
       inkscape:connector-curvature="0"
       d="m 293.14241,933.39942 c 0,3.925 -3.1875,7.1125 -7.1125,7.1125 -3.9375,0 -7.125,-3.1875 -7.125,-7.1125 0,0 0,0 0,0 0,-3.9375 3.1875,-7.125 7.125,-7.125 3.925,0 7.1125,3.1875 7.1125,7.125"
       style="fill:none;stroke:#000000;stroke-width:2.8125;stroke-linecap:round;stroke-linejoin:round;stroke-miterlimit:10;stroke-opacity:1;stroke-dasharray:none"
       id="path43818" />
    <text
       style="font-size:15px"
       y="940.21198"
       x="16.867413"
       id="text43826">
      <tspan
         style="font-size:22.5px;font-variant:normal;font-weight:bold;writing-mode:lr-tb;fill:#000000;fill-opacity:1;fill-rule:nonzero;stroke:none;font-family:CALIBRI;-inkscape-font-specification:CALIBRI Bold"
         x="16.867413"
         y="940.21198"
         id="tspan43828">a</tspan>
    </text>
    <text
       style="font-size:15px"
       y="997.09943"
       x="16.6049"
       id="text43830">
      <tspan
         style="font-size:22.5px;font-variant:normal;font-weight:bold;writing-mode:lr-tb;fill:#000000;fill-opacity:1;fill-rule:nonzero;stroke:none;font-family:CALIBRI;-inkscape-font-specification:CALIBRI Bold"
         x="16.6049"
         y="997.09943"
         id="tspan43832">b</tspan>
    </text>
    <text
       style="font-size:15px"
       y="940.14948"
       x="308.40494"
       id="text43834">
      <tspan
         style="font-size:22.5px;font-variant:normal;font-weight:bold;writing-mode:lr-tb;fill:#000000;fill-opacity:1;fill-rule:nonzero;stroke:none;font-family:CALIBRI;-inkscape-font-specification:CALIBRI Bold"
         x="308.40494"
         y="940.14948"
         id="tspan43836">y</tspan>
    </text>
    <text
       style="font-size:15px"
       y="940.14948"
       x="319.06741"
       id="text43838">
      <tspan
         style="font-size:22.5px;font-variant:normal;font-weight:bold;writing-mode:lr-tb;fill:#000000;fill-opacity:1;fill-rule:nonzero;stroke:none;font-family:CALIBRI;-inkscape-font-specification:CALIBRI Bold"
         x="319.06741"
         y="940.14948"
         id="tspan43840">=</tspan>
    </text>
    <text
       style="font-size:15px"
       y="940.14948"
       x="330.26743"
       id="text43842">
      <tspan
         style="font-size:22.5px;font-variant:normal;font-weight:bold;writing-mode:lr-tb;fill:#000000;fill-opacity:1;fill-rule:nonzero;stroke:none;font-family:CALIBRI;-inkscape-font-specification:CALIBRI Bold"
         x="330.26743"
         y="940.14948"
         id="tspan43844">a</tspan>
    </text>
    <text
       style="font-size:15px"
       y="940.14948"
       x="341.37991"
       id="text43846">
      <tspan
         style="font-size:22.5px;font-variant:normal;font-weight:bold;writing-mode:lr-tb;fill:#000000;fill-opacity:1;fill-rule:nonzero;stroke:none;font-family:CALIBRI;-inkscape-font-specification:CALIBRI Bold"
         x="341.37991"
         y="940.14948"
         id="tspan43848">.</tspan>
    </text>
    <text
       style="font-size:15px"
       y="940.14948"
       x="347.39243"
       id="text43850">
      <tspan
         style="font-size:22.5px;font-variant:normal;font-weight:bold;writing-mode:lr-tb;fill:#000000;fill-opacity:1;fill-rule:nonzero;stroke:none;font-family:CALIBRI;-inkscape-font-specification:CALIBRI Bold"
         x="347.39243"
         y="940.14948"
         id="tspan43852">b</tspan>
    </text>
    <path
       inkscape:connector-curvature="0"
       d="m 108.02991,790.71196 171,0"
       style="fill:none;stroke:#000000;stroke-width:2.8125;stroke-linecap:round;stroke-linejoin:round;stroke-miterlimit:10;stroke-opacity:1;stroke-dasharray:none"
       id="path43858" />
    <path
       inkscape:connector-curvature="0"
       d="m 191.37991,791.02446 c 0,-1.1625 0.9375,-2.1125 2.1125,-2.1125 1.1625,0 2.1,0.95 2.1,2.1125 0,0 0,0 0,0 0,1.1625 -0.9375,2.1125 -2.1,2.1125 -1.175,0 -2.1125,-0.95 -2.1125,-2.1125 z"
       style="fill:#000000;fill-opacity:1;fill-rule:evenodd;stroke:none"
       id="path43862" />
    <path
       inkscape:connector-curvature="0"
       d="m 191.37991,791.02446 c 0,-1.1625 0.9375,-2.1125 2.1125,-2.1125 1.1625,0 2.1,0.95 2.1,2.1125 0,0 0,0 0,0 0,1.1625 -0.9375,2.1125 -2.1,2.1125 -1.175,0 -2.1125,-0.95 -2.1125,-2.1125 z"
       style="fill:none;stroke:#000000;stroke-width:2.8125;stroke-linecap:round;stroke-linejoin:round;stroke-miterlimit:10;stroke-opacity:1;stroke-dasharray:none"
       id="path43864" />
    <text
       style="font-size:15px"
       y="797.77448"
       x="292.62991"
       id="text43866">
      <tspan
         style="font-size:22.5px;font-variant:normal;font-weight:bold;writing-mode:lr-tb;fill:#000000;fill-opacity:1;fill-rule:nonzero;stroke:none;font-family:CALIBRI;-inkscape-font-specification:CALIBRI Bold"
         x="292.62991"
         y="797.77448"
         id="tspan43868">+</tspan>
    </text>
    <text
       style="font-size:15px"
       y="797.77448"
       x="303.84244"
       id="text43870">
      <tspan
         style="font-size:22.5px;font-variant:normal;font-weight:bold;writing-mode:lr-tb;fill:#000000;fill-opacity:1;fill-rule:nonzero;stroke:none;font-family:CALIBRI;-inkscape-font-specification:CALIBRI Bold"
         x="303.84244"
         y="797.77448"
         id="tspan43872">U</tspan>
    </text>
    <text
       style="font-size:15px"
       y="800.91199"
       x="318.52994"
       id="text43874">
      <tspan
         style="font-size:14.62319946px;font-variant:normal;font-weight:bold;writing-mode:lr-tb;fill:#000000;fill-opacity:1;fill-rule:nonzero;stroke:none;font-family:CALIBRI;-inkscape-font-specification:CALIBRI Bold"
         x="318.52994 326.26981"
         y="800.91199"
         sodipodi:role="line"
         id="tspan43876">CC</tspan>
    </text>
    <path
       inkscape:connector-curvature="0"
       d="m 191.37991,933.39942 c 0,-1.175 0.9375,-2.1125 2.1125,-2.1125 1.1625,0 2.1,0.9375 2.1,2.1125 0,0 0,0 0,0 0,1.1625 -0.9375,2.1 -2.1,2.1 -1.175,0 -2.1125,-0.9375 -2.1125,-2.1 z"
       style="fill:#000000;fill-opacity:1;fill-rule:evenodd;stroke:none"
       id="path43976" />
    <path
       inkscape:connector-curvature="0"
       d="m 191.37991,933.39942 c 0,-1.175 0.9375,-2.1125 2.1125,-2.1125 1.1625,0 2.1,0.9375 2.1,2.1125 0,0 0,0 0,0 0,1.1625 -0.9375,2.1 -2.1,2.1 -1.175,0 -2.1125,-0.9375 -2.1125,-2.1 z"
       style="fill:none;stroke:#000000;stroke-width:3.75;stroke-linecap:round;stroke-linejoin:round;stroke-miterlimit:10;stroke-opacity:1;stroke-dasharray:none"
       id="path43978" />
  </g>
</svg>
