<?xml version="1.0" encoding="UTF-8" standalone="no"?>
<!-- Created with Inkscape (http://www.inkscape.org/) -->

<svg
   xmlns:dc="http://purl.org/dc/elements/1.1/"
   xmlns:cc="http://creativecommons.org/ns#"
   xmlns:rdf="http://www.w3.org/1999/02/22-rdf-syntax-ns#"
   xmlns:svg="http://www.w3.org/2000/svg"
   xmlns="http://www.w3.org/2000/svg"
   xmlns:sodipodi="http://sodipodi.sourceforge.net/DTD/sodipodi-0.dtd"
   xmlns:inkscape="http://www.inkscape.org/namespaces/inkscape"
   id="svg2984"
   version="1.1"
   inkscape:version="0.48.1 "
   width="270"
   height="170"
   xml:space="preserve"
   sodipodi:docname="skici.pdf"><metadata
     id="metadata2990"><rdf:RDF><cc:Work
         rdf:about=""><dc:format>image/svg+xml</dc:format><dc:type
           rdf:resource="http://purl.org/dc/dcmitype/StillImage" /><dc:title></dc:title></cc:Work></rdf:RDF></metadata><defs
     id="defs2988" /><sodipodi:namedview
     pagecolor="#ffffff"
     bordercolor="#666666"
     borderopacity="1"
     objecttolerance="10"
     gridtolerance="10"
     guidetolerance="10"
     inkscape:pageopacity="0"
     inkscape:pageshadow="2"
     inkscape:window-width="1920"
     inkscape:window-height="1125"
     id="namedview2986"
     showgrid="false"
     inkscape:zoom="5.3470588"
     inkscape:cx="135"
     inkscape:cy="85"
     inkscape:window-x="0"
     inkscape:window-y="0"
     inkscape:window-maximized="1"
     inkscape:current-layer="g2992" /><g
     id="g2992"
     inkscape:groupmode="layer"
     inkscape:label="skici"
     transform="matrix(1.25,0,0,-1.25,0,170)"><path
       d="m 161.10429,4.8224421 51,0 0,106.2000079 -51,0 0,-106.2000079 z"
       style="fill:#c6d8f0;fill-opacity:1;fill-rule:evenodd;stroke:none"
       id="path2994"
       inkscape:connector-curvature="0" /><path
       d="m 161.10429,4.8224421 51,0 0,106.2000079 -51,0 0,-106.2000079 z"
       style="fill:none;stroke:#000000;stroke-width:2.25;stroke-linecap:round;stroke-linejoin:round;stroke-miterlimit:10;stroke-opacity:1;stroke-dasharray:none"
       id="path2996"
       inkscape:connector-curvature="0" /><text
       transform="scale(1,-1)"
       id="text2998"
       x="176.50429"
       y="-30.922445"><tspan
         style="font-size:10.00008011px;font-variant:normal;font-weight:bold;writing-mode:lr-tb;fill:#000000;fill-opacity:1;fill-rule:nonzero;stroke:none;font-family:ARIAL;-inkscape-font-specification:ARIAL Bold"
         x="176.50429"
         y="-30.922445"
         id="tspan3000">3</tspan></text>
<text
       transform="scale(1,-1)"
       id="text3002"
       x="182.0643"
       y="-30.922445"><tspan
         style="font-size:10.00008011px;font-variant:normal;font-weight:bold;writing-mode:lr-tb;fill:#000000;fill-opacity:1;fill-rule:nonzero;stroke:none;font-family:ARIAL;-inkscape-font-specification:ARIAL Bold"
         x="182.0643"
         y="-30.922445"
         id="tspan3004">.</tspan></text>
<text
       transform="scale(1,-1)"
       id="text3006"
       x="184.8443"
       y="-30.922445"><tspan
         style="font-size:10.00008011px;font-variant:normal;font-weight:bold;writing-mode:lr-tb;fill:#000000;fill-opacity:1;fill-rule:nonzero;stroke:none;font-family:ARIAL;-inkscape-font-specification:ARIAL Bold"
         x="184.8443"
         y="-30.922445"
         id="tspan3008">3</tspan></text>
<text
       transform="scale(1,-1)"
       id="text3010"
       x="190.4043"
       y="-30.922445"><tspan
         style="font-size:10.00008011px;font-variant:normal;font-weight:bold;writing-mode:lr-tb;fill:#000000;fill-opacity:1;fill-rule:nonzero;stroke:none;font-family:ARIAL;-inkscape-font-specification:ARIAL Bold"
         x="190.4043 197.07437"
         y="-30.922445"
         sodipodi:role="line"
         id="tspan3012">V </tspan></text>
<text
       transform="scale(1,-1)"
       id="text3014"
       x="174.5743"
       y="-18.922445"><tspan
         style="font-size:10.00008011px;font-variant:normal;font-weight:bold;writing-mode:lr-tb;fill:#000000;fill-opacity:1;fill-rule:nonzero;stroke:none;font-family:ARIAL;-inkscape-font-specification:ARIAL Bold"
         x="174.5743 177.35271 183.46111 189.56952 195.67793"
         y="-18.922445"
         sodipodi:role="line"
         id="tspan3016">input</tspan></text>
<path
       d="m 5.1042905,4.8224421 50.9999965,0 0,106.2000079 -50.9999965,0 0,-106.2000079 z"
       style="fill:#c05046;fill-opacity:1;fill-rule:evenodd;stroke:none"
       id="path3018"
       inkscape:connector-curvature="0" /><path
       d="m 5.1042905,4.8224421 50.9999965,0 0,106.2000079 -50.9999965,0 0,-106.2000079 z"
       style="fill:none;stroke:#000000;stroke-width:2.25;stroke-linecap:round;stroke-linejoin:round;stroke-miterlimit:10;stroke-opacity:1;stroke-dasharray:none"
       id="path3020"
       inkscape:connector-curvature="0" /><text
       transform="scale(1,-1)"
       id="text3022"
       x="14.214291"
       y="-36.922447"><tspan
         style="font-size:10.00008011px;font-variant:normal;font-weight:bold;writing-mode:lr-tb;fill:#000000;fill-opacity:1;fill-rule:nonzero;stroke:none;font-family:ARIAL;-inkscape-font-specification:ARIAL Bold"
         x="14.214291"
         y="-36.922447"
         id="tspan3024">5</tspan></text>
<text
       transform="scale(1,-1)"
       id="text3026"
       x="19.78429"
       y="-36.922447"><tspan
         style="font-size:10.00008011px;font-variant:normal;font-weight:bold;writing-mode:lr-tb;fill:#000000;fill-opacity:1;fill-rule:nonzero;stroke:none;font-family:ARIAL;-inkscape-font-specification:ARIAL Bold"
         x="19.78429 26.454372 29.232777 35.341183 41.449596 47.55801"
         y="-36.922447"
         sodipodi:role="line"
         id="tspan3028">V TTL </tspan></text>
<text
       transform="scale(1,-1)"
       id="text3030"
       x="15.334293"
       y="-24.922445"><tspan
         style="font-size:10.00008011px;font-variant:normal;font-weight:bold;writing-mode:lr-tb;fill:#000000;fill-opacity:1;fill-rule:nonzero;stroke:none;font-family:ARIAL;-inkscape-font-specification:ARIAL Bold"
         x="15.334293 21.442699 27.551105 30.881031 36.989445 43.097851"
         y="-24.922445"
         sodipodi:role="line"
         id="tspan3032">output</tspan></text>
<path
       d="m 20.70429,68.422445 153.6,0"
       style="fill:none;stroke:#000000;stroke-width:1.5;stroke-linecap:round;stroke-linejoin:round;stroke-miterlimit:10;stroke-opacity:1;stroke-dasharray:none"
       id="path3034"
       inkscape:connector-curvature="0" /><path
       d="m 26.70429,64.822445 18.599997,0 0,7.2002 -18.599997,0 0,-7.2002 z"
       style="fill:#ffffff;fill-opacity:1;fill-rule:evenodd;stroke:none"
       id="path3036"
       inkscape:connector-curvature="0" /><path
       d="m 26.70429,64.822445 18.599997,0 0,7.2002 -18.599997,0 0,-7.2002 z"
       style="fill:none;stroke:#000000;stroke-width:1.5;stroke-linecap:round;stroke-linejoin:round;stroke-miterlimit:10;stroke-opacity:1;stroke-dasharray:none"
       id="path3038"
       inkscape:connector-curvature="0" /><text
       transform="scale(1,-1)"
       id="text3040"
       x="29.334293"
       y="-51.402443"><tspan
         style="font-size:13.99967957px;font-variant:normal;font-weight:normal;writing-mode:lr-tb;fill:#000000;fill-opacity:1;fill-rule:nonzero;stroke:none;font-family:ARIAL;-inkscape-font-specification:ARIAL"
         x="29.334293"
         y="-51.402443"
         id="tspan3042">R</tspan></text>
<text
       transform="scale(1,-1)"
       id="text3044"
       x="39.444294"
       y="-49.47245"><tspan
         style="font-size:9.09864044px;font-variant:normal;font-weight:normal;writing-mode:lr-tb;fill:#000000;fill-opacity:1;fill-rule:nonzero;stroke:none;font-family:ARIAL;-inkscape-font-specification:ARIAL"
         x="39.444294"
         y="-49.47245"
         id="tspan3046">S</tspan></text>
<path
       d="m 96.304287,64.822445 18.000003,0 0,7.2002 -18.000003,0 0,-7.2002 z"
       style="fill:#ffffff;fill-opacity:1;fill-rule:evenodd;stroke:none"
       id="path3048"
       inkscape:connector-curvature="0" /><path
       d="m 96.304287,64.822445 18.000003,0 0,7.2002 -18.000003,0 0,-7.2002 z"
       style="fill:none;stroke:#000000;stroke-width:1.5;stroke-linecap:round;stroke-linejoin:round;stroke-miterlimit:10;stroke-opacity:1;stroke-dasharray:none"
       id="path3050"
       inkscape:connector-curvature="0" /><path
       d="m 138.90429,111.02245 0,-42.600005"
       style="fill:none;stroke:#000000;stroke-width:1.5;stroke-linecap:round;stroke-linejoin:round;stroke-miterlimit:10;stroke-opacity:1;stroke-dasharray:none"
       id="path3052"
       inkscape:connector-curvature="0" /><path
       d="m 143.10429,90.622445 -9,0"
       style="fill:none;stroke:#000000;stroke-width:1.5;stroke-linecap:round;stroke-linejoin:round;stroke-miterlimit:10;stroke-opacity:1;stroke-dasharray:none"
       id="path3054"
       inkscape:connector-curvature="0" /><path
       d="m 138.90429,90.022445 4.2,-9 -9,0 4.8,9 z"
       style="fill:#ffffff;fill-opacity:1;fill-rule:evenodd;stroke:none"
       id="path3056"
       inkscape:connector-curvature="0" /><path
       d="m 138.90429,90.022445 4.2,-9 -9,0 4.8,9 z"
       style="fill:none;stroke:#000000;stroke-width:1.5;stroke-linecap:round;stroke-linejoin:round;stroke-miterlimit:10;stroke-opacity:1;stroke-dasharray:none"
       id="path3058"
       inkscape:connector-curvature="0" /><path
       d="m 168.30429,58.222445 11.4,0"
       style="fill:none;stroke:#000000;stroke-width:1.5;stroke-linecap:butt;stroke-linejoin:miter;stroke-miterlimit:2;stroke-opacity:1;stroke-dasharray:none"
       id="path3060"
       inkscape:connector-curvature="0" /><path
       d="m 168.30429,55.822445 11.4,0"
       style="fill:none;stroke:#000000;stroke-width:1.5;stroke-linecap:butt;stroke-linejoin:miter;stroke-miterlimit:2;stroke-opacity:1;stroke-dasharray:none"
       id="path3062"
       inkscape:connector-curvature="0" /><path
       d="m 174.30429,58.222445 0,6"
       style="fill:none;stroke:#000000;stroke-width:1.5;stroke-linecap:round;stroke-linejoin:round;stroke-miterlimit:2;stroke-opacity:1;stroke-dasharray:none"
       id="path3064"
       inkscape:connector-curvature="0" /><path
       d="m 174.30429,55.822445 0,-7.2"
       style="fill:none;stroke:#000000;stroke-width:1.5;stroke-linecap:round;stroke-linejoin:round;stroke-miterlimit:2;stroke-opacity:1;stroke-dasharray:none"
       id="path3066"
       inkscape:connector-curvature="0" /><path
       d="m 174.30429,64.222445 0,4.2"
       style="fill:none;stroke:#000000;stroke-width:1.5;stroke-linecap:round;stroke-linejoin:round;stroke-miterlimit:2;stroke-opacity:1;stroke-dasharray:none"
       id="path3068"
       inkscape:connector-curvature="0" /><path
       d="m 174.30429,48.622445 0,-4.2"
       style="fill:none;stroke:#000000;stroke-width:1.5;stroke-linecap:round;stroke-linejoin:round;stroke-miterlimit:2;stroke-opacity:1;stroke-dasharray:none"
       id="path3070"
       inkscape:connector-curvature="0" /><path
       d="m 171.30429,44.422445 5.4,0 -2.4,-4.8 -3,4.8 z"
       style="fill:#ffffff;fill-opacity:1;fill-rule:evenodd;stroke:none"
       id="path3072"
       inkscape:connector-curvature="0" /><path
       d="m 171.30429,44.422445 5.4,0 -2.4,-4.8 -3,4.8 z"
       style="fill:none;stroke:#000000;stroke-width:1;stroke-linecap:round;stroke-linejoin:round;stroke-miterlimit:2;stroke-opacity:1;stroke-dasharray:none"
       id="path3074"
       inkscape:connector-curvature="0" /><path
       d="m 141.96429,110.34245 c 0,1.55 -1.26,2.81 -2.82,2.81 -1.55,0 -2.81,-1.26 -2.81,-2.81 0,-1.56 1.26,-2.82 2.81,-2.82 1.56,0 2.82,1.26 2.82,2.82 z"
       style="fill:#ffffff;fill-opacity:1;fill-rule:evenodd;stroke:none"
       id="path3076"
       inkscape:connector-curvature="0" /><path
       d="m 141.96429,110.34245 c 0,1.55 -1.26,2.81 -2.82,2.81 -1.55,0 -2.81,-1.26 -2.81,-2.81 0,-1.56 1.26,-2.82 2.81,-2.82 1.56,0 2.82,1.26 2.82,2.82 z"
       style="fill:none;stroke:#000000;stroke-width:1.5;stroke-linecap:round;stroke-linejoin:round;stroke-miterlimit:2;stroke-opacity:1;stroke-dasharray:none"
       id="path3078"
       inkscape:connector-curvature="0" /><text
       transform="scale(1,-1)"
       id="text3080"
       x="123.38429"
       y="-119.78244"><tspan
         style="font-size:12.00024033px;font-variant:normal;font-weight:normal;writing-mode:lr-tb;fill:#9d3d35;fill-opacity:1;fill-rule:nonzero;stroke:none;font-family:ARIAL;-inkscape-font-specification:ARIAL"
         x="123.38429 131.38853 140.05446"
         y="-119.78244"
         sodipodi:role="line"
         id="tspan3082">VDD</tspan></text>
<text
       transform="scale(1,-1)"
       id="text3084"
       x="90.174301"
       y="-48.962433"><tspan
         style="font-size:13.99967957px;font-variant:normal;font-weight:normal;writing-mode:lr-tb;fill:#000000;fill-opacity:1;fill-rule:nonzero;stroke:none;font-family:ARIAL;-inkscape-font-specification:ARIAL"
         x="90.174301"
         y="-48.962433"
         id="tspan3086">R</tspan></text>
<text
       transform="scale(1,-1)"
       id="text3088"
       x="100.28429"
       y="-47.022446"><tspan
         style="font-size:9.09864044px;font-variant:normal;font-weight:normal;writing-mode:lr-tb;fill:#000000;fill-opacity:1;fill-rule:nonzero;stroke:none;font-family:ARIAL;-inkscape-font-specification:ARIAL"
         x="100.28429 106.35289 112.42148"
         y="-47.022446"
         sodipodi:role="line"
         id="tspan3090">SER</tspan></text>
<text
       transform="scale(1,-1)"
       id="text3092"
       x="181.2043"
       y="-55.652443"><tspan
         style="font-size:13.99967957px;font-variant:normal;font-weight:normal;writing-mode:lr-tb;fill:#000000;fill-opacity:1;fill-rule:nonzero;stroke:none;font-family:ARIAL;-inkscape-font-specification:ARIAL"
         x="181.2043"
         y="-55.652443"
         id="tspan3094">C</tspan></text>
<text
       transform="scale(1,-1)"
       id="text3096"
       x="191.3143"
       y="-53.72245"><tspan
         style="font-size:9.09864044px;font-variant:normal;font-weight:normal;writing-mode:lr-tb;fill:#000000;fill-opacity:1;fill-rule:nonzero;stroke:none;font-family:ARIAL;-inkscape-font-specification:ARIAL"
         x="191.3143"
         y="-53.72245"
         id="tspan3098">L</tspan></text>
<path
       d="m 138.90429,101.42245 22.8,0"
       style="fill:none;stroke:#000000;stroke-width:1.5;stroke-linecap:round;stroke-linejoin:round;stroke-miterlimit:2;stroke-opacity:1;stroke-dasharray:none"
       id="path3100"
       inkscape:connector-curvature="0" /><path
       d="m 140.02429,101.15245 c 0,0.66 -0.54,1.19 -1.2,1.19 -0.66,0 -1.19,-0.53 -1.19,-1.19 0,-0.66 0.53,-1.190005 1.19,-1.190005 0.66,0 1.2,0.530005 1.2,1.190005 z"
       style="fill:#000000;fill-opacity:1;fill-rule:evenodd;stroke:none"
       id="path3102"
       inkscape:connector-curvature="0" /><path
       d="m 140.02429,101.15245 c 0,0.66 -0.54,1.19 -1.2,1.19 -0.66,0 -1.19,-0.53 -1.19,-1.19 0,-0.66 0.53,-1.190005 1.19,-1.190005 0.66,0 1.2,0.530005 1.2,1.190005 z"
       style="fill:none;stroke:#000000;stroke-width:2.16000009;stroke-linecap:round;stroke-linejoin:round;stroke-miterlimit:2;stroke-opacity:1;stroke-dasharray:none"
       id="path3104"
       inkscape:connector-curvature="0" /><path
       d="m 140.30429,68.552445 c 0,0.66 -0.54,1.19 -1.19,1.19 -0.66,0 -1.2,-0.53 -1.2,-1.19 0,-0.66 0.54,-1.19 1.2,-1.19 0.65,0 1.19,0.53 1.19,1.19 z"
       style="fill:#000000;fill-opacity:1;fill-rule:evenodd;stroke:none"
       id="path3106"
       inkscape:connector-curvature="0" /><path
       d="m 140.30429,68.552445 c 0,0.66 -0.54,1.19 -1.19,1.19 -0.66,0 -1.2,-0.53 -1.2,-1.19 0,-0.66 0.54,-1.19 1.2,-1.19 0.65,0 1.19,0.53 1.19,1.19 z"
       style="fill:none;stroke:#000000;stroke-width:2.16000009;stroke-linecap:round;stroke-linejoin:round;stroke-miterlimit:2;stroke-opacity:1;stroke-dasharray:none"
       id="path3108"
       inkscape:connector-curvature="0" /></g></svg>