<?xml version="1.0" encoding="UTF-8" standalone="no"?>
<!-- Created with Inkscape (http://www.inkscape.org/) -->

<svg
   xmlns:dc="http://purl.org/dc/elements/1.1/"
   xmlns:cc="http://creativecommons.org/ns#"
   xmlns:rdf="http://www.w3.org/1999/02/22-rdf-syntax-ns#"
   xmlns:svg="http://www.w3.org/2000/svg"
   xmlns="http://www.w3.org/2000/svg"
   xmlns:sodipodi="http://sodipodi.sourceforge.net/DTD/sodipodi-0.dtd"
   xmlns:inkscape="http://www.inkscape.org/namespaces/inkscape"
   id="svg2984"
   version="1.1"
   inkscape:version="0.48.1 "
   width="270"
   height="130"
   xml:space="preserve"
   sodipodi:docname="skici.pdf"><metadata
     id="metadata2990"><rdf:RDF><cc:Work
         rdf:about=""><dc:format>image/svg+xml</dc:format><dc:type
           rdf:resource="http://purl.org/dc/dcmitype/StillImage" /><dc:title></dc:title></cc:Work></rdf:RDF></metadata><defs
     id="defs2988" /><sodipodi:namedview
     pagecolor="#ffffff"
     bordercolor="#666666"
     borderopacity="1"
     objecttolerance="10"
     gridtolerance="10"
     guidetolerance="10"
     inkscape:pageopacity="0"
     inkscape:pageshadow="2"
     inkscape:window-width="1920"
     inkscape:window-height="1125"
     id="namedview2986"
     showgrid="false"
     inkscape:zoom="6.2689655"
     inkscape:cx="135"
     inkscape:cy="72.5"
     inkscape:window-x="0"
     inkscape:window-y="0"
     inkscape:window-maximized="1"
     inkscape:current-layer="g2992" /><g
     id="g2992"
     inkscape:groupmode="layer"
     inkscape:label="skici"
     transform="matrix(1.25,0,0,-1.25,0,130)"><text
       transform="scale(1,-1)"
       id="text2994"
       x="85.240067"
       y="-4.3954139"><tspan
         style="font-size:18px;font-variant:normal;font-weight:normal;writing-mode:lr-tb;fill:#000000;fill-opacity:1;fill-rule:nonzero;stroke:none;font-family:ARIAL;-inkscape-font-specification:ARIAL"
         x="85.240067"
         y="-4.3954139"
         id="tspan2996">D</tspan></text>
<text
       transform="scale(1,-1)"
       id="text2998"
       x="98.240067"
       y="-1.9054163"><tspan
         style="font-size:11.69855976px;font-variant:normal;font-weight:normal;writing-mode:lr-tb;fill:#000000;fill-opacity:1;fill-rule:nonzero;stroke:none;font-family:ARIAL;-inkscape-font-specification:ARIAL"
         x="98.240067"
         y="-1.9054163"
         id="tspan3000">1</tspan></text>
<path
       d="m 44.860066,31.12541 109.799994,0"
       style="fill:none;stroke:#000000;stroke-width:2.16000009;stroke-linecap:round;stroke-linejoin:round;stroke-miterlimit:10;stroke-opacity:1;stroke-dasharray:none"
       id="path3002"
       inkscape:connector-curvature="0" /><path
       d="m 5.2600659,8.3254121 50.9999981,0 0,45.5999979 -50.9999981,0 0,-45.5999979 z"
       style="fill:#c6d8f0;fill-opacity:1;fill-rule:evenodd;stroke:none"
       id="path3004"
       inkscape:connector-curvature="0" /><path
       d="m 5.2600659,8.3254121 50.9999981,0 0,45.5999979 -50.9999981,0 0,-45.5999979 z"
       style="fill:none;stroke:#000000;stroke-width:2.25;stroke-linecap:round;stroke-linejoin:round;stroke-miterlimit:10;stroke-opacity:1;stroke-dasharray:none"
       id="path3006"
       inkscape:connector-curvature="0" /><text
       transform="scale(1,-1)"
       id="text3008"
       x="18.160065"
       y="-34.655422"><tspan
         style="font-size:12.00024033px;font-variant:normal;font-weight:bold;writing-mode:lr-tb;fill:#000000;fill-opacity:1;fill-rule:nonzero;stroke:none;font-family:ARIAL;-inkscape-font-specification:ARIAL Bold"
         x="18.160065"
         y="-34.655422"
         id="tspan3010">3</tspan></text>
<text
       transform="scale(1,-1)"
       id="text3012"
       x="24.830063"
       y="-34.655422"><tspan
         style="font-size:12.00024033px;font-variant:normal;font-weight:bold;writing-mode:lr-tb;fill:#000000;fill-opacity:1;fill-rule:nonzero;stroke:none;font-family:ARIAL;-inkscape-font-specification:ARIAL Bold"
         x="24.830063"
         y="-34.655422"
         id="tspan3014">.</tspan></text>
<text
       transform="scale(1,-1)"
       id="text3016"
       x="28.170067"
       y="-34.655422"><tspan
         style="font-size:12.00024033px;font-variant:normal;font-weight:bold;writing-mode:lr-tb;fill:#000000;fill-opacity:1;fill-rule:nonzero;stroke:none;font-family:ARIAL;-inkscape-font-specification:ARIAL Bold"
         x="28.170067"
         y="-34.655422"
         id="tspan3018">3</tspan></text>
<text
       transform="scale(1,-1)"
       id="text3020"
       x="34.840065"
       y="-34.655422"><tspan
         style="font-size:12.00024033px;font-variant:normal;font-weight:bold;writing-mode:lr-tb;fill:#000000;fill-opacity:1;fill-rule:nonzero;stroke:none;font-family:ARIAL;-inkscape-font-specification:ARIAL Bold"
         x="34.840065 42.844307"
         y="-34.655422"
         sodipodi:role="line"
         id="tspan3022">V </tspan></text>
<text
       transform="scale(1,-1)"
       id="text3024"
       x="11.850064"
       y="-20.255415"><tspan
         style="font-size:12.00024033px;font-variant:normal;font-weight:bold;writing-mode:lr-tb;fill:#000000;fill-opacity:1;fill-rule:nonzero;stroke:none;font-family:ARIAL;-inkscape-font-specification:ARIAL Bold"
         x="11.850064 19.180382 26.510704 30.506706 37.837021 45.167343"
         y="-20.255415"
         sodipodi:role="line"
         id="tspan3026">output</tspan></text>
<path
       d="m 88.060064,38.92541 0,-16.199998"
       style="fill:none;stroke:#000000;stroke-width:2.16000009;stroke-linecap:round;stroke-linejoin:round;stroke-miterlimit:10;stroke-opacity:1;stroke-dasharray:none"
       id="path3028"
       inkscape:connector-curvature="0" /><path
       d="m 88.660064,31.12541 15.599996,7.8 0,-15.599998 -15.599996,7.799998 z"
       style="fill:#ffffff;fill-opacity:1;fill-rule:evenodd;stroke:none"
       id="path3030"
       inkscape:connector-curvature="0" /><path
       d="m 88.660064,31.12541 15.599996,7.8 0,-15.599998 -15.599996,7.799998 z"
       style="fill:none;stroke:#000000;stroke-width:2.16000009;stroke-linecap:round;stroke-linejoin:round;stroke-miterlimit:10;stroke-opacity:1;stroke-dasharray:none"
       id="path3032"
       inkscape:connector-curvature="0" /><path
       d="m 154.66006,5.3254121 51.6,0 0,45.5999979 -51.6,0 0,-45.5999979 z"
       style="fill:#c05046;fill-opacity:1;fill-rule:evenodd;stroke:none"
       id="path3034"
       inkscape:connector-curvature="0" /><path
       d="m 154.66006,5.3254121 51.6,0 0,45.5999979 -51.6,0 0,-45.5999979 z"
       style="fill:none;stroke:#000000;stroke-width:2.25;stroke-linecap:round;stroke-linejoin:round;stroke-miterlimit:10;stroke-opacity:1;stroke-dasharray:none"
       id="path3036"
       inkscape:connector-curvature="0" /><text
       transform="scale(1,-1)"
       id="text3038"
       x="173.12007"
       y="-31.815413"><tspan
         style="font-size:12.00024033px;font-variant:normal;font-weight:bold;writing-mode:lr-tb;fill:#000000;fill-opacity:1;fill-rule:nonzero;stroke:none;font-family:ARIAL;-inkscape-font-specification:ARIAL Bold"
         x="173.12007"
         y="-31.815413"
         id="tspan3040">5</tspan></text>
<text
       transform="scale(1,-1)"
       id="text3042"
       x="179.79007"
       y="-31.815413"><tspan
         style="font-size:12.00024033px;font-variant:normal;font-weight:bold;writing-mode:lr-tb;fill:#000000;fill-opacity:1;fill-rule:nonzero;stroke:none;font-family:ARIAL;-inkscape-font-specification:ARIAL Bold"
         x="179.79007 187.79431"
         y="-31.815413"
         sodipodi:role="line"
         id="tspan3044">V </tspan></text>
<text
       transform="scale(1,-1)"
       id="text3046"
       x="165.80006"
       y="-17.415411"><tspan
         style="font-size:12.00024033px;font-variant:normal;font-weight:bold;writing-mode:lr-tb;fill:#000000;fill-opacity:1;fill-rule:nonzero;stroke:none;font-family:ARIAL;-inkscape-font-specification:ARIAL Bold"
         x="165.80006 169.13417 176.46449 183.79482 191.12512"
         y="-17.415411"
         sodipodi:role="line"
         id="tspan3048">input</tspan></text>
<path
       d="m 67.060064,86.32541 113.399996,0"
       style="fill:none;stroke:#000000;stroke-width:2.16000009;stroke-linecap:round;stroke-linejoin:round;stroke-miterlimit:10;stroke-opacity:1;stroke-dasharray:none"
       id="path3050"
       inkscape:connector-curvature="0" /><text
       transform="scale(1,-1)"
       id="text3052"
       x="136.10007"
       y="-64.525452"><tspan
         style="font-size:18px;font-variant:normal;font-weight:normal;writing-mode:lr-tb;fill:#000000;fill-opacity:1;fill-rule:nonzero;stroke:none;font-family:ARIAL;-inkscape-font-specification:ARIAL"
         x="136.10007"
         y="-64.525452"
         id="tspan3054">R</tspan></text>
<text
       transform="scale(1,-1)"
       id="text3056"
       x="149.10007"
       y="-62.035446"><tspan
         style="font-size:11.69855976px;font-variant:normal;font-weight:normal;writing-mode:lr-tb;fill:#000000;fill-opacity:1;fill-rule:nonzero;stroke:none;font-family:ARIAL;-inkscape-font-specification:ARIAL"
         x="149.10007"
         y="-62.035446"
         id="tspan3058">1</tspan></text>
<path
       d="m 130.66006,80.92541 29.4,0 0,10.8 -29.4,0 0,-10.8 z"
       style="fill:#ffffff;fill-opacity:1;fill-rule:evenodd;stroke:none"
       id="path3060"
       inkscape:connector-curvature="0" /><path
       d="m 130.66006,80.92541 29.4,0 0,10.8 -29.4,0 0,-10.8 z"
       style="fill:none;stroke:#000000;stroke-width:2.25;stroke-linecap:round;stroke-linejoin:round;stroke-miterlimit:10;stroke-opacity:1;stroke-dasharray:none"
       id="path3062"
       inkscape:connector-curvature="0" /><text
       transform="scale(1,-1)"
       id="text3064"
       x="89.490067"
       y="-63.895454"><tspan
         style="font-size:18px;font-variant:normal;font-weight:normal;writing-mode:lr-tb;fill:#000000;fill-opacity:1;fill-rule:nonzero;stroke:none;font-family:ARIAL;-inkscape-font-specification:ARIAL"
         x="89.490067"
         y="-63.895454"
         id="tspan3066">D</tspan></text>
<text
       transform="scale(1,-1)"
       id="text3068"
       x="102.49007"
       y="-61.405449"><tspan
         style="font-size:11.69855976px;font-variant:normal;font-weight:normal;writing-mode:lr-tb;fill:#000000;fill-opacity:1;fill-rule:nonzero;stroke:none;font-family:ARIAL;-inkscape-font-specification:ARIAL"
         x="102.49007"
         y="-61.405449"
         id="tspan3070">2</tspan></text>
<path
       d="m 88.060064,94.72541 0,-16.2"
       style="fill:none;stroke:#000000;stroke-width:2.16000009;stroke-linecap:round;stroke-linejoin:round;stroke-miterlimit:10;stroke-opacity:1;stroke-dasharray:none"
       id="path3072"
       inkscape:connector-curvature="0" /><path
       d="m 88.660064,86.92541 15.599996,7.8 0,-15.6 -15.599996,7.8 z"
       style="fill:#ffffff;fill-opacity:1;fill-rule:evenodd;stroke:none"
       id="path3074"
       inkscape:connector-curvature="0" /><path
       d="m 88.660064,86.92541 15.599996,7.8 0,-15.6 -15.599996,7.8 z"
       style="fill:none;stroke:#000000;stroke-width:2.16000009;stroke-linecap:round;stroke-linejoin:round;stroke-miterlimit:10;stroke-opacity:1;stroke-dasharray:none"
       id="path3076"
       inkscape:connector-curvature="0" /><path
       d="m 116.86006,31.12541 -0.6,55.2"
       style="fill:none;stroke:#000000;stroke-width:2.16000009;stroke-linecap:round;stroke-linejoin:round;stroke-miterlimit:10;stroke-opacity:1;stroke-dasharray:none"
       id="path3078"
       inkscape:connector-curvature="0" /><path
       d="m 189.46006,86.22541 c 0,2.4 -1.95,4.36 -4.36,4.36 -2.41,0 -4.36,-1.96 -4.36,-4.36 0,-2.41 1.95,-4.37 4.36,-4.37 2.41,0 4.36,1.96 4.36,4.37 z"
       style="fill:#ffffff;fill-opacity:1;fill-rule:evenodd;stroke:none"
       id="path3080"
       inkscape:connector-curvature="0" /><path
       d="m 189.46006,86.22541 c 0,2.4 -1.95,4.36 -4.36,4.36 -2.41,0 -4.36,-1.96 -4.36,-4.36 0,-2.41 1.95,-4.37 4.36,-4.37 2.41,0 4.36,1.96 4.36,4.37 z"
       style="fill:none;stroke:#000000;stroke-width:2.16000009;stroke-linecap:round;stroke-linejoin:round;stroke-miterlimit:10;stroke-opacity:1;stroke-dasharray:none"
       id="path3082"
       inkscape:connector-curvature="0" /><path
       d="m 68.770064,86.43541 c 0,2.41 -1.95,4.36 -4.36,4.36 -2.41,0 -4.36,-1.95 -4.36,-4.36 0,-2.41 1.95,-4.36 4.36,-4.36 2.41,0 4.36,1.95 4.36,4.36 z"
       style="fill:#ffffff;fill-opacity:1;fill-rule:evenodd;stroke:none"
       id="path3084"
       inkscape:connector-curvature="0" /><path
       d="m 68.770064,86.43541 c 0,2.41 -1.95,4.36 -4.36,4.36 -2.41,0 -4.36,-1.95 -4.36,-4.36 0,-2.41 1.95,-4.36 4.36,-4.36 2.41,0 4.36,1.95 4.36,4.36 z"
       style="fill:none;stroke:#000000;stroke-width:2.16000009;stroke-linecap:round;stroke-linejoin:round;stroke-miterlimit:10;stroke-opacity:1;stroke-dasharray:none"
       id="path3086"
       inkscape:connector-curvature="0" /><text
       transform="scale(1,-1)"
       id="text3088"
       x="193.39005"
       y="-80.485413"><tspan
         style="font-size:18px;font-variant:normal;font-weight:normal;writing-mode:lr-tb;fill:#9d3d35;fill-opacity:1;fill-rule:nonzero;stroke:none;font-family:ARIAL;-inkscape-font-specification:ARIAL"
         x="193.39005"
         y="-80.485413"
         id="tspan3090">5</tspan></text>
<text
       transform="scale(1,-1)"
       id="text3092"
       x="203.40004"
       y="-80.485413"><tspan
         style="font-size:18px;font-variant:normal;font-weight:normal;writing-mode:lr-tb;fill:#9d3d35;fill-opacity:1;fill-rule:nonzero;stroke:none;font-family:ARIAL;-inkscape-font-specification:ARIAL"
         x="203.40004"
         y="-80.485413"
         id="tspan3094">V</tspan></text>
<text
       transform="scale(1,-1)"
       id="text3096"
       x="22.72007"
       y="-80.485413"><tspan
         style="font-size:18px;font-variant:normal;font-weight:normal;writing-mode:lr-tb;fill:#9d3d35;fill-opacity:1;fill-rule:nonzero;stroke:none;font-family:ARIAL;-inkscape-font-specification:ARIAL"
         x="22.72007"
         y="-80.485413"
         id="tspan3098">3</tspan></text>
<text
       transform="scale(1,-1)"
       id="text3100"
       x="32.730064"
       y="-80.485413"><tspan
         style="font-size:18px;font-variant:normal;font-weight:normal;writing-mode:lr-tb;fill:#9d3d35;fill-opacity:1;fill-rule:nonzero;stroke:none;font-family:ARIAL;-inkscape-font-specification:ARIAL"
         x="32.730064"
         y="-80.485413"
         id="tspan3102">.</tspan></text>
<text
       transform="scale(1,-1)"
       id="text3104"
       x="37.730057"
       y="-80.485413"><tspan
         style="font-size:18px;font-variant:normal;font-weight:normal;writing-mode:lr-tb;fill:#9d3d35;fill-opacity:1;fill-rule:nonzero;stroke:none;font-family:ARIAL;-inkscape-font-specification:ARIAL"
         x="37.730057"
         y="-80.485413"
         id="tspan3106">3</tspan></text>
<text
       transform="scale(1,-1)"
       id="text3108"
       x="47.740051"
       y="-80.485413"><tspan
         style="font-size:18px;font-variant:normal;font-weight:normal;writing-mode:lr-tb;fill:#9d3d35;fill-opacity:1;fill-rule:nonzero;stroke:none;font-family:ARIAL;-inkscape-font-specification:ARIAL"
         x="47.740051"
         y="-80.485413"
         id="tspan3110">V</tspan></text>
<path
       d="m 119.06006,31.05541 c 0,1.16 -0.94,2.1 -2.1,2.1 -1.16,0 -2.1,-0.94 -2.1,-2.1 0,-1.16 0.94,-2.1 2.1,-2.1 1.16,0 2.1,0.94 2.1,2.1 z"
       style="fill:#000000;fill-opacity:1;fill-rule:evenodd;stroke:none"
       id="path3112"
       inkscape:connector-curvature="0" /><path
       d="m 119.06006,31.05541 c 0,1.16 -0.94,2.1 -2.1,2.1 -1.16,0 -2.1,-0.94 -2.1,-2.1 0,-1.16 0.94,-2.1 2.1,-2.1 1.16,0 2.1,0.94 2.1,2.1 z"
       style="fill:none;stroke:#000000;stroke-width:2.16000009;stroke-linecap:round;stroke-linejoin:round;stroke-miterlimit:10;stroke-opacity:1;stroke-dasharray:none"
       id="path3114"
       inkscape:connector-curvature="0" /><path
       d="m 118.33006,86.21541 c 0,1.16 -0.94,2.1 -2.1,2.1 -1.16,0 -2.11,-0.94 -2.11,-2.1 0,-1.16 0.95,-2.1 2.11,-2.1 1.16,0 2.1,0.94 2.1,2.1 z"
       style="fill:#000000;fill-opacity:1;fill-rule:evenodd;stroke:none"
       id="path3116"
       inkscape:connector-curvature="0" /><path
       d="m 118.33006,86.21541 c 0,1.16 -0.94,2.1 -2.1,2.1 -1.16,0 -2.11,-0.94 -2.11,-2.1 0,-1.16 0.95,-2.1 2.11,-2.1 1.16,0 2.1,0.94 2.1,2.1 z"
       style="fill:none;stroke:#000000;stroke-width:2.16000009;stroke-linecap:round;stroke-linejoin:round;stroke-miterlimit:10;stroke-opacity:1;stroke-dasharray:none"
       id="path3118"
       inkscape:connector-curvature="0" /></g></svg>