<?xml version="1.0" encoding="UTF-8" standalone="no"?>
<!-- Created with Inkscape (http://www.inkscape.org/) -->

<svg
   xmlns:dc="http://purl.org/dc/elements/1.1/"
   xmlns:cc="http://creativecommons.org/ns#"
   xmlns:rdf="http://www.w3.org/1999/02/22-rdf-syntax-ns#"
   xmlns:svg="http://www.w3.org/2000/svg"
   xmlns="http://www.w3.org/2000/svg"
   xmlns:sodipodi="http://sodipodi.sourceforge.net/DTD/sodipodi-0.dtd"
   xmlns:inkscape="http://www.inkscape.org/namespaces/inkscape"
   id="svg2984"
   version="1.1"
   inkscape:version="0.48.1 "
   width="380"
   height="230"
   xml:space="preserve"
   sodipodi:docname="level_shifting_COMP.svg"><metadata
     id="metadata2990"><rdf:RDF><cc:Work
         rdf:about=""><dc:format>image/svg+xml</dc:format><dc:type
           rdf:resource="http://purl.org/dc/dcmitype/StillImage" /><dc:title></dc:title></cc:Work></rdf:RDF></metadata><defs
     id="defs2988" /><sodipodi:namedview
     pagecolor="#ffffff"
     bordercolor="#666666"
     borderopacity="1"
     objecttolerance="10"
     gridtolerance="10"
     guidetolerance="10"
     inkscape:pageopacity="0"
     inkscape:pageshadow="2"
     inkscape:window-width="1920"
     inkscape:window-height="1125"
     id="namedview2986"
     showgrid="false"
     inkscape:zoom="1.976087"
     inkscape:cx="203.47142"
     inkscape:cy="197.39187"
     inkscape:window-x="0"
     inkscape:window-y="0"
     inkscape:window-maximized="1"
     inkscape:current-layer="g2992" /><g
     id="g2992"
     inkscape:groupmode="layer"
     inkscape:label="skici"
     transform="matrix(1.25,0,0,-1.25,0,230)"><path
       d="m 192.22524,95.273212 -57,28.199998 0,-56.999998 57,28.8 z"
       style="fill:#ffffff;fill-opacity:1;fill-rule:evenodd;stroke:none"
       id="path2994"
       inkscape:connector-curvature="0" /><path
       d="m 192.22524,95.273212 -57,28.199998 0,-56.999998 57,28.8 z"
       style="fill:none;stroke:#000000;stroke-width:2.25;stroke-linecap:round;stroke-linejoin:round;stroke-miterlimit:10;stroke-opacity:1;stroke-dasharray:none"
       id="path2996"
       inkscape:connector-curvature="0" /><text
       transform="scale(1,-1)"
       id="text2998"
       x="230.10524"
       y="-130.32323"><tspan
         style="font-size:18px;font-variant:normal;font-weight:normal;writing-mode:lr-tb;fill:#000000;fill-opacity:1;fill-rule:nonzero;stroke:none;font-family:ARIAL;-inkscape-font-specification:ARIAL"
         x="230.10524"
         y="-130.32323"
         id="tspan3000">R</tspan></text>
<text
       transform="scale(1,-1)"
       id="text3002"
       x="243.10524"
       y="-127.83321"><tspan
         style="font-size:11.69855976px;font-variant:normal;font-weight:normal;writing-mode:lr-tb;fill:#000000;fill-opacity:1;fill-rule:nonzero;stroke:none;font-family:ARIAL;-inkscape-font-specification:ARIAL"
         x="243.10524"
         y="-127.83321"
         id="tspan3004">O</tspan></text>
<text
       transform="scale(1,-1)"
       id="text3006"
       x="61.325233"
       y="-49.013214"><tspan
         style="font-size:18px;font-variant:normal;font-weight:normal;writing-mode:lr-tb;fill:#000000;fill-opacity:1;fill-rule:nonzero;stroke:none;font-family:ARIAL;-inkscape-font-specification:ARIAL"
         x="61.325233"
         y="-49.013214"
         id="tspan3008">R</tspan></text>
<text
       transform="scale(1,-1)"
       id="text3010"
       x="74.325233"
       y="-46.533218"><tspan
         style="font-size:11.69855976px;font-variant:normal;font-weight:normal;writing-mode:lr-tb;fill:#000000;fill-opacity:1;fill-rule:nonzero;stroke:none;font-family:ARIAL;-inkscape-font-specification:ARIAL"
         x="74.325233"
         y="-46.533218"
         id="tspan3012">2</tspan></text>
<text
       transform="scale(1,-1)"
       id="text3014"
       x="62.41523"
       y="-137.41322"><tspan
         style="font-size:18px;font-variant:normal;font-weight:normal;writing-mode:lr-tb;fill:#000000;fill-opacity:1;fill-rule:nonzero;stroke:none;font-family:ARIAL;-inkscape-font-specification:ARIAL"
         x="62.41523"
         y="-137.41322"
         id="tspan3016">R</tspan></text>
<text
       transform="scale(1,-1)"
       id="text3018"
       x="75.41523"
       y="-134.92322"><tspan
         style="font-size:11.69855976px;font-variant:normal;font-weight:normal;writing-mode:lr-tb;fill:#000000;fill-opacity:1;fill-rule:nonzero;stroke:none;font-family:ARIAL;-inkscape-font-specification:ARIAL"
         x="75.41523"
         y="-134.92322"
         id="tspan3020">1</tspan></text>
<path
       d="m 92.625236,173.27321 0,-155.999994"
       style="fill:none;stroke:#000000;stroke-width:2.25;stroke-linecap:round;stroke-linejoin:round;stroke-miterlimit:10;stroke-opacity:1;stroke-dasharray:none"
       id="path3022"
       inkscape:connector-curvature="0" /><path
       d="m 87.225236,36.473216 11.4,0 0,29.399996 -11.4,0 0,-29.399996 z"
       style="fill:#ffffff;fill-opacity:1;fill-rule:evenodd;stroke:none"
       id="path3024"
       inkscape:connector-curvature="0" /><path
       d="m 87.225236,36.473216 11.4,0 0,29.399996 -11.4,0 0,-29.399996 z"
       style="fill:none;stroke:#000000;stroke-width:2.25;stroke-linecap:round;stroke-linejoin:round;stroke-miterlimit:10;stroke-opacity:1;stroke-dasharray:none"
       id="path3026"
       inkscape:connector-curvature="0" /><path
       d="m 92.625236,80.873212 42.600004,0"
       style="fill:none;stroke:#000000;stroke-width:2.25;stroke-linecap:round;stroke-linejoin:round;stroke-miterlimit:10;stroke-opacity:1;stroke-dasharray:none"
       id="path3028"
       inkscape:connector-curvature="0" /><path
       d="m 135.22524,109.07321 -84.600004,0"
       style="fill:none;stroke:#000000;stroke-width:2.25;stroke-linecap:round;stroke-linejoin:round;stroke-miterlimit:10;stroke-opacity:1;stroke-dasharray:none"
       id="path3030"
       inkscape:connector-curvature="0" /><path
       d="m 192.22524,95.273212 70.8,0"
       style="fill:none;stroke:#000000;stroke-width:2.25;stroke-linecap:round;stroke-linejoin:round;stroke-miterlimit:10;stroke-opacity:1;stroke-dasharray:none"
       id="path3032"
       inkscape:connector-curvature="0" /><path
       d="m 92.625236,173.27321 127.800004,0 0,-77.999998"
       style="fill:none;stroke:#000000;stroke-width:2.25;stroke-linecap:round;stroke-linejoin:round;stroke-miterlimit:10;stroke-opacity:1;stroke-dasharray:none"
       id="path3034"
       inkscape:connector-curvature="0" /><path
       d="m 215.02524,122.27321 10.8,0 0,29.4 -10.8,0 0,-29.4 z"
       style="fill:#ffffff;fill-opacity:1;fill-rule:evenodd;stroke:none"
       id="path3036"
       inkscape:connector-curvature="0" /><path
       d="m 215.02524,122.27321 10.8,0 0,29.4 -10.8,0 0,-29.4 z"
       style="fill:none;stroke:#000000;stroke-width:2.25;stroke-linecap:round;stroke-linejoin:round;stroke-miterlimit:10;stroke-opacity:1;stroke-dasharray:none"
       id="path3038"
       inkscape:connector-curvature="0" /><path
       d="m 87.225236,123.47321 11.4,0 0,29.4 -11.4,0 0,-29.4 z"
       style="fill:#ffffff;fill-opacity:1;fill-rule:evenodd;stroke:none"
       id="path3040"
       inkscape:connector-curvature="0" /><path
       d="m 87.225236,123.47321 11.4,0 0,29.4 -11.4,0 0,-29.4 z"
       style="fill:none;stroke:#000000;stroke-width:2.25;stroke-linecap:round;stroke-linejoin:round;stroke-miterlimit:10;stroke-opacity:1;stroke-dasharray:none"
       id="path3042"
       inkscape:connector-curvature="0" /><text
       transform="scale(1,-1)"
       id="text3044"
       x="137.51524"
       y="-103.04322"><tspan
         style="font-size:18px;font-variant:normal;font-weight:bold;writing-mode:lr-tb;fill:#000000;fill-opacity:1;fill-rule:nonzero;stroke:none;font-family:ARIAL;-inkscape-font-specification:ARIAL Bold"
         x="137.51524"
         y="-103.04322"
         id="tspan3046">+</tspan></text>
<text
       transform="scale(1,-1)"
       id="text3048"
       x="139.40524"
       y="-83.483208"><tspan
         style="font-size:18px;font-variant:normal;font-weight:bold;writing-mode:lr-tb;fill:#000000;fill-opacity:1;fill-rule:nonzero;stroke:none;font-family:ARIAL;-inkscape-font-specification:ARIAL Bold"
         x="139.40524"
         y="-83.483208"
         id="tspan3050">_</tspan></text>
<path
       d="m 222.54524,95.073212 c 0,1.16 -0.94,2.1 -2.1,2.1 -1.16,0 -2.1,-0.94 -2.1,-2.1 0,-1.16 0.94,-2.1 2.1,-2.1 1.16,0 2.1,0.94 2.1,2.1 z"
       style="fill:#000000;fill-opacity:1;fill-rule:evenodd;stroke:none"
       id="path3052"
       inkscape:connector-curvature="0" /><path
       d="m 222.54524,95.073212 c 0,1.16 -0.94,2.1 -2.1,2.1 -1.16,0 -2.1,-0.94 -2.1,-2.1 0,-1.16 0.94,-2.1 2.1,-2.1 1.16,0 2.1,0.94 2.1,2.1 z"
       style="fill:none;stroke:#000000;stroke-width:2.16000009;stroke-linecap:round;stroke-linejoin:round;stroke-miterlimit:10;stroke-opacity:1;stroke-dasharray:none"
       id="path3054"
       inkscape:connector-curvature="0" /><path
       d="m 94.985236,80.893212 c 0,1.16 -0.94,2.1 -2.1,2.1 -1.16,0 -2.1,-0.94 -2.1,-2.1 0,-1.16 0.94,-2.1 2.1,-2.1 1.16,0 2.1,0.94 2.1,2.1 z"
       style="fill:#000000;fill-opacity:1;fill-rule:evenodd;stroke:none"
       id="path3056"
       inkscape:connector-curvature="0" /><path
       d="m 94.985236,80.893212 c 0,1.16 -0.94,2.1 -2.1,2.1 -1.16,0 -2.1,-0.94 -2.1,-2.1 0,-1.16 0.94,-2.1 2.1,-2.1 1.16,0 2.1,0.94 2.1,2.1 z"
       style="fill:none;stroke:#000000;stroke-width:2.16000009;stroke-linecap:round;stroke-linejoin:round;stroke-miterlimit:10;stroke-opacity:1;stroke-dasharray:none"
       id="path3058"
       inkscape:connector-curvature="0" /><path
       d="m 50.625236,173.27321 42,0"
       style="fill:none;stroke:#000000;stroke-width:2.25;stroke-linecap:round;stroke-linejoin:round;stroke-miterlimit:10;stroke-opacity:1;stroke-dasharray:none"
       id="path3060"
       inkscape:connector-curvature="0" /><path
       d="m 52.005236,173.02321 c 0,2.41 -1.96,4.36 -4.37,4.36 -2.4,0 -4.36,-1.95 -4.36,-4.36 0,-2.41 1.96,-4.36 4.36,-4.36 2.41,0 4.37,1.95 4.37,4.36 z"
       style="fill:#ffffff;fill-opacity:1;fill-rule:evenodd;stroke:none"
       id="path3062"
       inkscape:connector-curvature="0" /><path
       d="m 52.005236,173.02321 c 0,2.41 -1.96,4.36 -4.37,4.36 -2.4,0 -4.36,-1.95 -4.36,-4.36 0,-2.41 1.96,-4.36 4.36,-4.36 2.41,0 4.37,1.95 4.37,4.36 z"
       style="fill:none;stroke:#000000;stroke-width:2.16000009;stroke-linecap:round;stroke-linejoin:round;stroke-miterlimit:10;stroke-opacity:1;stroke-dasharray:none"
       id="path3064"
       inkscape:connector-curvature="0" /><path
       d="m 86.625236,16.073216 12.6,0 -6.6,-12.0000004 -6,12.0000004 z"
       style="fill:#ffffff;fill-opacity:1;fill-rule:evenodd;stroke:none"
       id="path3066"
       inkscape:connector-curvature="0" /><path
       d="m 86.625236,16.073216 12.6,0 -6.6,-12.0000004 -6,12.0000004 z"
       style="fill:none;stroke:#000000;stroke-width:2.25;stroke-linecap:round;stroke-linejoin:round;stroke-miterlimit:10;stroke-opacity:1;stroke-dasharray:none"
       id="path3068"
       inkscape:connector-curvature="0" /><text
       transform="scale(1,-1)"
       id="text3070"
       x="16.575235"
       y="-167.62321"><tspan
         style="font-size:18px;font-variant:normal;font-weight:normal;writing-mode:lr-tb;fill:#9d3d35;fill-opacity:1;fill-rule:nonzero;stroke:none;font-family:ARIAL;-inkscape-font-specification:ARIAL"
         x="16.575235"
         y="-167.62321"
         id="tspan3072">5</tspan></text>
<text
       transform="scale(1,-1)"
       id="text3074"
       x="26.585238"
       y="-167.62321"><tspan
         style="font-size:18px;font-variant:normal;font-weight:normal;writing-mode:lr-tb;fill:#9d3d35;fill-opacity:1;fill-rule:nonzero;stroke:none;font-family:ARIAL;-inkscape-font-specification:ARIAL"
         x="26.585238"
         y="-167.62321"
         id="tspan3076">V</tspan></text>
<path
       d="m 7.6969206,86.50693 50.9999984,0 0,45.6 -50.9999984,0 0,-45.6 z"
       style="fill:#c6d8f0;fill-opacity:1;fill-rule:evenodd;stroke:none"
       id="path3004"
       inkscape:connector-curvature="0" /><path
       d="m 7.6969206,86.50693 50.9999984,0 0,45.6 -50.9999984,0 0,-45.6 z"
       style="fill:none;stroke:#000000;stroke-width:2.25;stroke-linecap:round;stroke-linejoin:round;stroke-miterlimit:10;stroke-opacity:1;stroke-dasharray:none"
       id="path3006"
       inkscape:connector-curvature="0" /><text
       style="font-size:12px"
       id="text3008"
       x="20.59692"
       y="-112.83694"
       transform="scale(1,-1)"><tspan
         style="font-size:12.00024033px;font-variant:normal;font-weight:bold;writing-mode:lr-tb;fill:#000000;fill-opacity:1;fill-rule:nonzero;stroke:none;font-family:ARIAL;-inkscape-font-specification:ARIAL Bold"
         x="20.59692"
         y="-112.83694"
         id="tspan3010">3</tspan></text>
<text
       style="font-size:12px"
       id="text3012"
       x="27.266916"
       y="-112.83694"
       transform="scale(1,-1)"><tspan
         style="font-size:12.00024033px;font-variant:normal;font-weight:bold;writing-mode:lr-tb;fill:#000000;fill-opacity:1;fill-rule:nonzero;stroke:none;font-family:ARIAL;-inkscape-font-specification:ARIAL Bold"
         x="27.266916"
         y="-112.83694"
         id="tspan3014">.</tspan></text>
<text
       style="font-size:12px"
       id="text3016"
       x="30.60692"
       y="-112.83694"
       transform="scale(1,-1)"><tspan
         style="font-size:12.00024033px;font-variant:normal;font-weight:bold;writing-mode:lr-tb;fill:#000000;fill-opacity:1;fill-rule:nonzero;stroke:none;font-family:ARIAL;-inkscape-font-specification:ARIAL Bold"
         x="30.60692"
         y="-112.83694"
         id="tspan3018">3</tspan></text>
<text
       style="font-size:12px"
       id="text3020"
       x="37.27692"
       y="-112.83694"
       transform="scale(1,-1)"><tspan
         style="font-size:12.00024033px;font-variant:normal;font-weight:bold;writing-mode:lr-tb;fill:#000000;fill-opacity:1;fill-rule:nonzero;stroke:none;font-family:ARIAL;-inkscape-font-specification:ARIAL Bold"
         x="37.27692 45.281162"
         y="-112.83694"
         sodipodi:role="line"
         id="tspan3022">V</tspan></text>
<text
       style="font-size:12px"
       id="text3024"
       x="14.28692"
       y="-98.436935"
       transform="scale(1,-1)"><tspan
         style="font-size:12.00024033px;font-variant:normal;font-weight:bold;writing-mode:lr-tb;fill:#000000;fill-opacity:1;fill-rule:nonzero;stroke:none;font-family:ARIAL;-inkscape-font-specification:ARIAL Bold"
         x="14.28692 21.617237 28.947557 32.943562 40.27388 47.604202"
         y="-98.436935"
         sodipodi:role="line"
         id="tspan3026">output</tspan></text>
<path
       d="m 247.06249,73.956876 51.6,0 0,45.599994 -51.6,0 0,-45.599994 z"
       style="fill:#c05046;fill-opacity:1;fill-rule:evenodd;stroke:none"
       id="path3034-2"
       inkscape:connector-curvature="0" /><path
       d="m 247.06249,73.956876 51.6,0 0,45.599994 -51.6,0 0,-45.599994 z"
       style="fill:none;stroke:#000000;stroke-width:2.25;stroke-linecap:round;stroke-linejoin:round;stroke-miterlimit:10;stroke-opacity:1;stroke-dasharray:none"
       id="path3036-0"
       inkscape:connector-curvature="0" /><text
       style="font-size:12px"
       id="text3038"
       x="265.52249"
       y="-100.44688"
       transform="scale(1,-1)"><tspan
         style="font-size:12.00024033px;font-variant:normal;font-weight:bold;writing-mode:lr-tb;fill:#000000;fill-opacity:1;fill-rule:nonzero;stroke:none;font-family:ARIAL;-inkscape-font-specification:ARIAL Bold"
         x="265.52249"
         y="-100.44688"
         id="tspan3040">5</tspan></text>
<text
       style="font-size:12px"
       id="text3042"
       x="272.1925"
       y="-100.44688"
       transform="scale(1,-1)"><tspan
         style="font-size:12.00024033px;font-variant:normal;font-weight:bold;writing-mode:lr-tb;fill:#000000;fill-opacity:1;fill-rule:nonzero;stroke:none;font-family:ARIAL;-inkscape-font-specification:ARIAL Bold"
         x="272.1925 280.19675"
         y="-100.44688"
         sodipodi:role="line"
         id="tspan3044">V</tspan></text>
<text
       style="font-size:12px"
       id="text3046"
       x="258.20248"
       y="-86.046883"
       transform="scale(1,-1)"><tspan
         style="font-size:12.00024033px;font-variant:normal;font-weight:bold;writing-mode:lr-tb;fill:#000000;fill-opacity:1;fill-rule:nonzero;stroke:none;font-family:ARIAL;-inkscape-font-specification:ARIAL Bold"
         x="258.20248 261.53659 268.86691 276.19724 283.52756"
         y="-86.046883"
         sodipodi:role="line"
         id="tspan3048">input</tspan></text>
</g></svg>