<?xml version="1.0" encoding="UTF-8" standalone="no"?>
<!-- Created with Inkscape (http://www.inkscape.org/) -->

<svg
   xmlns:dc="http://purl.org/dc/elements/1.1/"
   xmlns:cc="http://creativecommons.org/ns#"
   xmlns:rdf="http://www.w3.org/1999/02/22-rdf-syntax-ns#"
   xmlns:svg="http://www.w3.org/2000/svg"
   xmlns="http://www.w3.org/2000/svg"
   xmlns:sodipodi="http://sodipodi.sourceforge.net/DTD/sodipodi-0.dtd"
   xmlns:inkscape="http://www.inkscape.org/namespaces/inkscape"
   id="svg3500"
   version="1.1"
   inkscape:version="0.48.1 "
   width="320"
   height="180"
   xml:space="preserve"
   sodipodi:docname="PLD_timing_tsu_th_tco_fmax.svg"><metadata
     id="metadata3506"><rdf:RDF><cc:Work
         rdf:about=""><dc:format>image/svg+xml</dc:format><dc:type
           rdf:resource="http://purl.org/dc/dcmitype/StillImage" /><dc:title /></cc:Work></rdf:RDF></metadata><defs
     id="defs3504" /><sodipodi:namedview
     pagecolor="#ffffff"
     bordercolor="#666666"
     borderopacity="1"
     objecttolerance="10"
     gridtolerance="10"
     guidetolerance="10"
     inkscape:pageopacity="0"
     inkscape:pageshadow="2"
     inkscape:window-width="1831"
     inkscape:window-height="1167"
     id="namedview3502"
     showgrid="false"
     inkscape:zoom="4.845"
     inkscape:cx="160"
     inkscape:cy="100"
     inkscape:window-x="2000"
     inkscape:window-y="-9"
     inkscape:window-maximized="0"
     inkscape:current-layer="g3508" /><g
     id="g3508"
     inkscape:groupmode="layer"
     inkscape:label="skici"
     transform="matrix(1.25,0,0,-1.25,0,180)"><path
   d="m 232.45583,121.3253 14.4,0 0,13.8 -14.4,0 0,-13.8 z"
   style="fill:#bfbfbf;fill-opacity:1;fill-rule:evenodd;stroke:none"
   id="path3512"
   inkscape:connector-curvature="0" /><path
   d="m 168.45893,57.538526 0,-14.4 35.4,0 3.6,7.2 -3.6,7.2 -35.4,0 z"
   style="fill:#bfbfbf;fill-opacity:1;fill-rule:evenodd;stroke:none"
   id="path3564"
   inkscape:connector-curvature="0" /><path
   d="m 104.85893,43.138526 70.8,0 0,14.4 -70.8,0 0,-14.4 z"
   style="fill:#bfbfbf;fill-opacity:1;fill-rule:evenodd;stroke:none"
   id="path3566"
   inkscape:connector-curvature="0" /><path
   d="m 104.85893,134.93853 0,-13.8 35.4,0 3.6,7.2 -3.6,6.6 -35.4,0 z"
   style="fill:#bfbfbf;fill-opacity:1;fill-rule:evenodd;stroke:none"
   id="path3568"
   inkscape:connector-curvature="0" /><path
   d="m 104.85893,134.93853 35.4,0"
   style="fill:none;stroke:#000000;stroke-width:0.72000003;stroke-linecap:round;stroke-linejoin:round;stroke-miterlimit:10;stroke-opacity:1;stroke-dasharray:none"
   id="path3570"
   inkscape:connector-curvature="0" /><path
   d="m 104.85893,121.13853 35.4,0"
   style="fill:none;stroke:#000000;stroke-width:0.72000003;stroke-linecap:round;stroke-linejoin:round;stroke-miterlimit:10;stroke-opacity:1;stroke-dasharray:none"
   id="path3572"
   inkscape:connector-curvature="0" /><path
   d="m 140.25893,134.93853 7.2,-13.8"
   style="fill:none;stroke:#000000;stroke-width:0.72000003;stroke-linecap:round;stroke-linejoin:round;stroke-miterlimit:10;stroke-opacity:1;stroke-dasharray:none"
   id="path3574"
   inkscape:connector-curvature="0" /><path
   d="m 147.45893,121.13853 49.8,0"
   style="fill:none;stroke:#000000;stroke-width:0.72000003;stroke-linecap:round;stroke-linejoin:round;stroke-miterlimit:10;stroke-opacity:1;stroke-dasharray:none"
   id="path3576"
   inkscape:connector-curvature="0" /><path
   d="m 143.85893,16.738526 0,105.600004 0,-105.600004 z m 63.6,0 0,27.6 0,-27.6 z"
   style="fill:#ffffff;fill-opacity:1;fill-rule:evenodd;stroke:none"
   id="path3578"
   inkscape:connector-curvature="0" /><path
   d="m 143.85893,16.738526 0,105.600004 0,-105.600004 m 63.6,0 0,27.6 0,-27.6"
   style="fill:none;stroke:#000000;stroke-width:0.23999999;stroke-linecap:round;stroke-linejoin:round;stroke-miterlimit:10;stroke-opacity:1;stroke-dasharray:none"
   id="path3580"
   inkscape:connector-curvature="0" /><path
   d="m 175.65893,28.738526 -26.4,0 m 26.4,0 26.4,0"
   style="fill:none;stroke:#000000;stroke-width:0.23999999;stroke-linecap:round;stroke-linejoin:round;stroke-miterlimit:10;stroke-opacity:1;stroke-dasharray:none"
   id="path3582"
   inkscape:connector-curvature="0" /><path
   d="m 149.85893,26.938526 -6,1.8 6,2.4 0,-4.2 z"
   style="fill:#000000;fill-opacity:1;fill-rule:evenodd;stroke:none"
   id="path3584"
   inkscape:connector-curvature="0" /><path
   d="m 201.45893,31.138526 6,-2.4 -6,-1.8 0,4.2 z"
   style="fill:#000000;fill-opacity:1;fill-rule:evenodd;stroke:none"
   id="path3586"
   inkscape:connector-curvature="0" /><path
   d="m 161.85893,20.938526 28.2,0 0,15 -28.2,0 0,-15 z"
   style="fill:#ffffff;fill-opacity:1;fill-rule:evenodd;stroke:none"
   id="path3588"
   inkscape:connector-curvature="0" /><text
   transform="scale(1,-1)"
   id="text3590"
   x="161.6989"
   y="-25.298532"><tspan
     style="font-size:12.00024033px;font-variant:normal;font-weight:normal;writing-mode:lr-tb;fill:#c00000;fill-opacity:1;fill-rule:nonzero;stroke:none;font-family:ARIAL;-inkscape-font-specification:ARIAL"
     x="161.6989"
     y="-25.298532"
     id="tspan3592">1</tspan></text>

<text
   transform="scale(1,-1)"
   id="text3594"
   x="168.3689"
   y="-25.298532"><tspan
     style="font-size:12.00024033px;font-variant:normal;font-weight:normal;writing-mode:lr-tb;fill:#c00000;fill-opacity:1;fill-rule:nonzero;stroke:none;font-family:ARIAL;-inkscape-font-specification:ARIAL"
     x="168.3689"
     y="-25.298532"
     id="tspan3596">/</tspan></text>

<text
   transform="scale(1,-1)"
   id="text3598"
   x="171.70891"
   y="-25.298532"><tspan
     style="font-size:12.00024033px;font-variant:normal;font-weight:normal;writing-mode:lr-tb;fill:#c00000;fill-opacity:1;fill-rule:nonzero;stroke:none;font-family:ARIAL;-inkscape-font-specification:ARIAL"
     x="171.70891"
     y="-25.298532"
     id="tspan3600">f</tspan></text>

<text
   transform="scale(1,-1)"
   id="text3602"
   x="175.03891"
   y="-23.638531"><tspan
     style="font-size:7.79831982px;font-variant:normal;font-weight:normal;writing-mode:lr-tb;fill:#c00000;fill-opacity:1;fill-rule:nonzero;stroke:none;font-family:ARIAL;-inkscape-font-specification:ARIAL"
     x="175.03891 181.53511 185.87224"
     y="-23.638531"
     sodipodi:role="line"
     id="tspan3604">max</tspan></text>

<path
   d="m 140.25893,121.13853 7.2,13.8"
   style="fill:none;stroke:#000000;stroke-width:0.72000003;stroke-linecap:round;stroke-linejoin:round;stroke-miterlimit:10;stroke-opacity:1;stroke-dasharray:none"
   id="path3606"
   inkscape:connector-curvature="0" /><path
   d="m 197.25893,134.93853 -49.8,0"
   style="fill:none;stroke:#000000;stroke-width:0.72000003;stroke-linecap:round;stroke-linejoin:round;stroke-miterlimit:10;stroke-opacity:1;stroke-dasharray:none"
   id="path3608"
   inkscape:connector-curvature="0" /><path
   d="m 104.85893,57.538526 99,0"
   style="fill:none;stroke:#000000;stroke-width:0.72000003;stroke-linecap:round;stroke-linejoin:round;stroke-miterlimit:10;stroke-opacity:1;stroke-dasharray:none"
   id="path3610"
   inkscape:connector-curvature="0" /><path
   d="m 104.85893,43.138526 99,0"
   style="fill:none;stroke:#000000;stroke-width:0.72000003;stroke-linecap:round;stroke-linejoin:round;stroke-miterlimit:10;stroke-opacity:1;stroke-dasharray:none"
   id="path3612"
   inkscape:connector-curvature="0" /><path
   d="m 203.85893,57.538526 7.2,-14.4"
   style="fill:none;stroke:#000000;stroke-width:0.72000003;stroke-linecap:round;stroke-linejoin:round;stroke-miterlimit:10;stroke-opacity:1;stroke-dasharray:none"
   id="path3614"
   inkscape:connector-curvature="0" /><path
   d="m 203.85893,43.138526 7.2,14.4"
   style="fill:none;stroke:#000000;stroke-width:0.72000003;stroke-linecap:round;stroke-linejoin:round;stroke-miterlimit:10;stroke-opacity:1;stroke-dasharray:none"
   id="path3616"
   inkscape:connector-curvature="0" /><path
   d="m 211.05893,43.138526 35.4,0"
   style="fill:none;stroke:#000000;stroke-width:0.72000003;stroke-linecap:round;stroke-linejoin:round;stroke-miterlimit:10;stroke-opacity:1;stroke-dasharray:none"
   id="path3618"
   inkscape:connector-curvature="0" /><path
   d="m 211.05893,57.538526 35.4,0"
   style="fill:none;stroke:#000000;stroke-width:0.72000003;stroke-linecap:round;stroke-linejoin:round;stroke-miterlimit:10;stroke-opacity:1;stroke-dasharray:none"
   id="path3620"
   inkscape:connector-curvature="0" /><path
   d="m 239.25893,134.93853 0,-13.8 -35.4,0 -3.6,7.2 3.6,6.6 35.4,0 z"
   style="fill:#bfbfbf;fill-opacity:1;fill-rule:evenodd;stroke:none"
   id="path3622"
   inkscape:connector-curvature="0" /><path
   d="m 197.25893,134.93853 6.6,-13.8"
   style="fill:none;stroke:#000000;stroke-width:0.72000003;stroke-linecap:round;stroke-linejoin:round;stroke-miterlimit:10;stroke-opacity:1;stroke-dasharray:none"
   id="path3624"
   inkscape:connector-curvature="0" /><path
   d="m 203.85893,121.13853 42.6,0"
   style="fill:none;stroke:#000000;stroke-width:0.72000003;stroke-linecap:round;stroke-linejoin:round;stroke-miterlimit:10;stroke-opacity:1;stroke-dasharray:none"
   id="path3626"
   inkscape:connector-curvature="0" /><path
   d="m 143.85893,94.73853 0,27.6 0,-27.6 z m 28.8,24 0,-28.2 0,28.2 z m -40.8,-12 12,0 -12,0 z"
   style="fill:#ffffff;fill-opacity:1;fill-rule:evenodd;stroke:none"
   id="path3628"
   inkscape:connector-curvature="0" /><path
   d="m 143.85893,94.73853 0,27.6 0,-27.6 m 28.8,24 0,-28.2 0,28.2 m -40.8,-12 12,0 -12,0"
   style="fill:none;stroke:#000000;stroke-width:0.23999999;stroke-linecap:round;stroke-linejoin:round;stroke-miterlimit:10;stroke-opacity:1;stroke-dasharray:none"
   id="path3630"
   inkscape:connector-curvature="0" /><path
   d="m 158.25893,106.73853 -9,0 m 9,0 9,0"
   style="fill:none;stroke:#000000;stroke-width:0.23999999;stroke-linecap:round;stroke-linejoin:round;stroke-miterlimit:10;stroke-opacity:1;stroke-dasharray:none"
   id="path3632"
   inkscape:connector-curvature="0" /><path
   d="m 149.85893,104.93853 -6,1.8 6,2.4 0,-4.2 z"
   style="fill:#000000;fill-opacity:1;fill-rule:evenodd;stroke:none"
   id="path3634"
   inkscape:connector-curvature="0" /><path
   d="m 166.65893,109.13853 6,-2.4 -6,-1.8 0,4.2 z"
   style="fill:#000000;fill-opacity:1;fill-rule:evenodd;stroke:none"
   id="path3636"
   inkscape:connector-curvature="0" /><path
   d="m 124.65893,98.93853 14.4,0 0,15 -14.4,0 0,-15 z"
   style="fill:#ffffff;fill-opacity:1;fill-rule:evenodd;stroke:none"
   id="path3638"
   inkscape:connector-curvature="0" /><text
   transform="scale(1,-1)"
   id="text3640"
   x="124.70893"
   y="-103.24854"><tspan
     style="font-size:12.00024033px;font-variant:normal;font-weight:normal;writing-mode:lr-tb;fill:#c00000;fill-opacity:1;fill-rule:nonzero;stroke:none;font-family:ARIAL;-inkscape-font-specification:ARIAL"
     x="124.70893"
     y="-103.24854"
     id="tspan3642">t</tspan></text>

<text
   transform="scale(1,-1)"
   id="text3644"
   x="128.0489"
   y="-101.59854"><tspan
     style="font-size:7.79831982px;font-variant:normal;font-weight:normal;writing-mode:lr-tb;fill:#c00000;fill-opacity:1;fill-rule:nonzero;stroke:none;font-family:ARIAL;-inkscape-font-specification:ARIAL"
     x="128.0489 133.25069"
     y="-101.59854"
     sodipodi:role="line"
     id="tspan3646">SU</tspan></text>

<path
   d="m 172.65893,118.73853 0,-30 0,30 z m 27.6,-24 0,27.6 0,-27.6 z m 13.8,12 -13.8,0 13.8,0 z"
   style="fill:#ffffff;fill-opacity:1;fill-rule:evenodd;stroke:none"
   id="path3648"
   inkscape:connector-curvature="0" /><path
   d="m 172.65893,118.73853 0,-30 0,30 m 27.6,-24 0,27.6 0,-27.6 m 13.8,12 -13.8,0 13.8,0"
   style="fill:none;stroke:#000000;stroke-width:0.23999999;stroke-linecap:round;stroke-linejoin:round;stroke-miterlimit:10;stroke-opacity:1;stroke-dasharray:none"
   id="path3650"
   inkscape:connector-curvature="0" /><path
   d="m 186.45893,106.73853 -7.8,0 m 7.8,0 8.4,0"
   style="fill:none;stroke:#000000;stroke-width:0.23999999;stroke-linecap:round;stroke-linejoin:round;stroke-miterlimit:10;stroke-opacity:1;stroke-dasharray:none"
   id="path3652"
   inkscape:connector-curvature="0" /><path
   d="m 179.25893,104.93853 -6.6,1.8 6.6,2.4 0,-4.2 z"
   style="fill:#000000;fill-opacity:1;fill-rule:evenodd;stroke:none"
   id="path3654"
   inkscape:connector-curvature="0" /><path
   d="m 194.25893,109.13853 6,-2.4 -6,-1.8 0,4.2 z"
   style="fill:#000000;fill-opacity:1;fill-rule:evenodd;stroke:none"
   id="path3656"
   inkscape:connector-curvature="0" /><path
   d="m 209.25893,98.93853 9,0 0,15 -9,0 0,-15 z"
   style="fill:#ffffff;fill-opacity:1;fill-rule:evenodd;stroke:none"
   id="path3658"
   inkscape:connector-curvature="0" /><text
   transform="scale(1,-1)"
   id="text3660"
   x="209.51891"
   y="-103.24854"><tspan
     style="font-size:12.00024033px;font-variant:normal;font-weight:normal;writing-mode:lr-tb;fill:#c00000;fill-opacity:1;fill-rule:nonzero;stroke:none;font-family:ARIAL;-inkscape-font-specification:ARIAL"
     x="209.51891"
     y="-103.24854"
     id="tspan3662">t</tspan></text>

<text
   transform="scale(1,-1)"
   id="text3664"
   x="212.84891"
   y="-101.59854"><tspan
     style="font-size:7.79831982px;font-variant:normal;font-weight:normal;writing-mode:lr-tb;fill:#c00000;fill-opacity:1;fill-rule:nonzero;stroke:none;font-family:ARIAL;-inkscape-font-specification:ARIAL"
     x="212.84891"
     y="-101.59854"
     id="tspan3666">H</tspan></text>

<path
   d="m 104.85893,78.538526 63.6,0 7.2,14.400004 70.8,0"
   style="fill:none;stroke:#000000;stroke-width:0.72000003;stroke-linecap:round;stroke-linejoin:round;stroke-miterlimit:10;stroke-opacity:1;stroke-dasharray:none"
   id="path3668"
   inkscape:connector-curvature="0" /><path
   d="m 197.25893,121.13853 6.6,13.8"
   style="fill:none;stroke:#000000;stroke-width:0.72000003;stroke-linecap:round;stroke-linejoin:round;stroke-miterlimit:10;stroke-opacity:1;stroke-dasharray:none"
   id="path3670"
   inkscape:connector-curvature="0" /><path
   d="m 246.45893,134.93853 -42.6,0"
   style="fill:none;stroke:#000000;stroke-width:0.72000003;stroke-linecap:round;stroke-linejoin:round;stroke-miterlimit:10;stroke-opacity:1;stroke-dasharray:none"
   id="path3672"
   inkscape:connector-curvature="0" /><path
   d="m 172.65893,59.338526 0,23.4 0,-23.4 z m 34.8,24 0,-27 0,27 z"
   style="fill:#ffffff;fill-opacity:1;fill-rule:evenodd;stroke:none"
   id="path3674"
   inkscape:connector-curvature="0" /><path
   d="m 172.65893,59.338526 0,23.4 0,-23.4 m 34.8,24 0,-27 0,27"
   style="fill:none;stroke:#000000;stroke-width:0.23999999;stroke-linecap:round;stroke-linejoin:round;stroke-miterlimit:10;stroke-opacity:1;stroke-dasharray:none"
   id="path3676"
   inkscape:connector-curvature="0" /><path
   d="m 190.05893,71.338526 -11.4,0 m 11.4,0 12,0"
   style="fill:none;stroke:#000000;stroke-width:0.23999999;stroke-linecap:round;stroke-linejoin:round;stroke-miterlimit:10;stroke-opacity:1;stroke-dasharray:none"
   id="path3678"
   inkscape:connector-curvature="0" /><path
   d="m 179.25893,69.538526 -6.6,1.8 6.6,2.4 0,-4.2 z"
   style="fill:#000000;fill-opacity:1;fill-rule:evenodd;stroke:none"
   id="path3680"
   inkscape:connector-curvature="0" /><path
   d="m 201.45893,73.738526 6,-2.4 -6,-1.8 0,4.2 z"
   style="fill:#000000;fill-opacity:1;fill-rule:evenodd;stroke:none"
   id="path3682"
   inkscape:connector-curvature="0" /><path
   d="m 182.25893,63.538526 15,0 0,15 -15,0 0,-15 z"
   style="fill:#ffffff;fill-opacity:1;fill-rule:evenodd;stroke:none"
   id="path3684"
   inkscape:connector-curvature="0" /><text
   transform="scale(1,-1)"
   id="text3686"
   x="182.3889"
   y="-67.818542"><tspan
     style="font-size:12.00024033px;font-variant:normal;font-weight:normal;writing-mode:lr-tb;fill:#c00000;fill-opacity:1;fill-rule:nonzero;stroke:none;font-family:ARIAL;-inkscape-font-specification:ARIAL"
     x="182.3889"
     y="-67.818542"
     id="tspan3688">t</tspan></text>

<text
   transform="scale(1,-1)"
   id="text3690"
   x="185.7289"
   y="-66.158539"><tspan
     style="font-size:7.79831982px;font-variant:normal;font-weight:normal;writing-mode:lr-tb;fill:#c00000;fill-opacity:1;fill-rule:nonzero;stroke:none;font-family:ARIAL;-inkscape-font-specification:ARIAL"
     x="185.7289 191.36075"
     y="-66.158539"
     sodipodi:role="line"
     id="tspan3692">CO</tspan></text>

<text
   transform="scale(1,-1)"
   id="text3822"
   x="64.618935"
   y="-128.79846"><tspan
     style="font-size:12.00024033px;font-variant:normal;font-weight:normal;writing-mode:lr-tb;fill:#000000;fill-opacity:1;fill-rule:nonzero;stroke:none;font-family:ARIAL NARROW;-inkscape-font-specification:ARIAL NARROW"
     x="64.618935 69.540779"
     y="-128.79846"
     sodipodi:role="line"
     id="tspan3824">vs</tspan></text>

<text
   transform="scale(1,-1)"
   id="text3826"
   x="74.468933"
   y="-128.79846"><tspan
     style="font-size:12.00024033px;font-variant:normal;font-weight:normal;writing-mode:lr-tb;fill:#000000;fill-opacity:1;fill-rule:nonzero;stroke:none;font-family:ARIAL NARROW;-inkscape-font-specification:ARIAL NARROW"
     x="74.468933 77.205368 82.67794"
     y="-128.79846"
     sodipodi:role="line"
     id="tspan3828">tup</tspan></text>

<text
   transform="scale(1,-1)"
   id="text3830"
   x="88.148933"
   y="-128.79846"><tspan
     style="font-size:12.00024033px;font-variant:normal;font-weight:normal;writing-mode:lr-tb;fill:#000000;fill-opacity:1;fill-rule:nonzero;stroke:none;font-family:ARIAL NARROW;-inkscape-font-specification:ARIAL NARROW"
     x="88.148933"
     y="-128.79846"
     id="tspan3832">,</tspan></text>

<text
   transform="scale(1,-1)"
   id="text3834"
   x="32.338932"
   y="-114.39852"><tspan
     style="font-size:12.00024033px;font-variant:normal;font-weight:normal;writing-mode:lr-tb;fill:#000000;fill-opacity:1;fill-rule:nonzero;stroke:none;font-family:ARIAL NARROW;-inkscape-font-specification:ARIAL NARROW"
     x="32.338932 37.26078"
     y="-114.39852"
     sodipodi:role="line"
     id="tspan3836">zp</tspan></text>

<text
   transform="scale(1,-1)"
   id="text3838"
   x="42.728935"
   y="-114.39852"><tspan
     style="font-size:12.00024033px;font-variant:normal;font-weight:normal;writing-mode:lr-tb;fill:#000000;fill-opacity:1;fill-rule:nonzero;stroke:none;font-family:ARIAL NARROW;-inkscape-font-specification:ARIAL NARROW"
     x="42.728935 48.201511 50.937943 56.410519 61.883095 64.61953 69.541374 75.013947 79.935799 85.408371"
     y="-114.39852"
     sodipodi:role="line"
     id="tspan3840">ětná vazba</tspan></text>

<text
   transform="scale(1,-1)"
   id="text3842"
   x="17.788927"
   y="-44.908543"><tspan
     style="font-size:12.00024033px;font-variant:normal;font-weight:normal;writing-mode:lr-tb;fill:#000000;fill-opacity:1;fill-rule:nonzero;stroke:none;font-family:ARIAL NARROW;-inkscape-font-specification:ARIAL NARROW"
     x="17.788927 21.064207 26.536781 32.009365 34.194855 39.116703 41.853134 45.128414 50.60099 55.522839 60.444687 63.181122 68.102966 73.024818"
     y="-44.908543"
     sodipodi:role="line"
     id="tspan3844">registrový výs</tspan></text>

<text
   transform="scale(1,-1)"
   id="text3846"
   x="77.938934"
   y="-44.908543"><tspan
     style="font-size:12.00024033px;font-variant:normal;font-weight:normal;writing-mode:lr-tb;fill:#000000;fill-opacity:1;fill-rule:nonzero;stroke:none;font-family:ARIAL NARROW;-inkscape-font-specification:ARIAL NARROW"
     x="77.938934 80.675369 86.147942"
     y="-44.908543"
     sodipodi:role="line"
     id="tspan3848">tup</tspan></text>

<text
   transform="scale(1,-1)"
   id="text3850"
   x="61.238937"
   y="-79.078545"><tspan
     style="font-size:12.00024033px;font-variant:normal;font-weight:normal;writing-mode:lr-tb;fill:#000000;fill-opacity:1;fill-rule:nonzero;stroke:none;font-family:ARIAL NARROW;-inkscape-font-specification:ARIAL NARROW"
     x="61.238937 66.71151 72.18409 77.656662 79.842148 85.314728"
     y="-79.078545"
     sodipodi:role="line"
     id="tspan3852">hodiny</tspan></text>

<text
   transform="matrix(1,0,-0.33330556,-1,0,0)"
   id="text3936"
   x="-24.0711"
   y="-101.31853"
   style="font-size:11.38429451px"><tspan
     style="font-size:9px;font-variant:normal;font-weight:normal;writing-mode:lr-tb;fill:#000000;fill-opacity:1;fill-rule:nonzero;stroke:none;font-family:COMIC SANS MS;-inkscape-font-specification:COMIC SANS MS"
     x="-24.0711 -19.153645 -14.442685 -9.6307077 -4.9505649 -0.70983624 1.9796523 6.7125726 11.036818 13.726305 18.301041 23.231674 28.162302 33.448895 38.788269 43.393749 48.016796"
     y="-101.31853"
     sodipodi:role="line"
     id="tspan3938">Input or feedback</tspan></text>

<text
   transform="matrix(1,0,-0.33330556,-1,0,0)"
   id="text3940"
   x="52.878887"
   y="-101.31853"
   style="font-size:11.38429451px"><tspan
     style="font-size:9px;font-variant:normal;font-weight:normal;writing-mode:lr-tb;fill:#000000;fill-opacity:1;fill-rule:nonzero;stroke:none;font-family:COMIC SANS MS;-inkscape-font-specification:COMIC SANS MS"
     x="52.878887"
     y="-101.31853"
     id="tspan3942">)</tspan></text>

<text
   transform="matrix(1,0,-0.33330556,-1,0,0)"
   id="text3944"
   x="38.497902"
   y="-65.888542"
   style="font-size:11.38429451px"><tspan
     style="font-size:9px;font-variant:normal;font-weight:normal;writing-mode:lr-tb;fill:#000000;fill-opacity:1;fill-rule:nonzero;stroke:none;font-family:COMIC SANS MS;-inkscape-font-specification:COMIC SANS MS"
     x="38.497902"
     y="-65.888542"
     id="tspan3946">(</tspan></text>

<text
   transform="matrix(1,0,-0.33330556,-1,0,0)"
   id="text3948"
   x="41.797905"
   y="-65.888542"
   style="font-size:11.38429451px"><tspan
     style="font-size:9px;font-variant:normal;font-weight:normal;writing-mode:lr-tb;fill:#000000;fill-opacity:1;fill-rule:nonzero;stroke:none;font-family:COMIC SANS MS;-inkscape-font-specification:COMIC SANS MS"
     x="41.797905 47.220726 52.177784"
     y="-65.888542"
     sodipodi:role="line"
     id="tspan3950">CLK</tspan></text>

<text
   transform="matrix(1,0,-0.33330556,-1,0,0)"
   id="text3952"
   x="57.677902"
   y="-65.888542"
   style="font-size:11.38429451px"><tspan
     style="font-size:9px;font-variant:normal;font-weight:normal;writing-mode:lr-tb;fill:#000000;fill-opacity:1;fill-rule:nonzero;stroke:none;font-family:COMIC SANS MS;-inkscape-font-specification:COMIC SANS MS"
     x="57.677902"
     y="-65.888542"
     id="tspan3954">)</tspan></text>

<text
   transform="matrix(1,0,-0.33330556,-1,0,0)"
   id="text3960"
   x="0.00026538371"
   y="-30.448538"
   style="font-size:11.38429451px"><tspan
     style="font-size:9px;font-variant:normal;font-weight:normal;writing-mode:lr-tb;fill:#000000;fill-opacity:1;fill-rule:nonzero;stroke:none;font-family:COMIC SANS MS;-inkscape-font-specification:COMIC SANS MS"
     x="0.00026538371 5.6560087 10.586639 15.36348 17.885927 22.267273 26.507996 31.438616 35.762867 40.693501 45.980099 48.669586 53.402508 58.082657 62.32338 67.135353 71.815498"
     y="-30.448538"
     sodipodi:role="line"
     id="tspan3962">Registered output</tspan></text>

<text
   transform="matrix(1,0,-0.33330556,-1,0,0)"
   id="text3964"
   x="76.050255"
   y="-30.448538"
   style="font-size:11.38429451px"><tspan
     style="font-size:9px;font-variant:normal;font-weight:normal;writing-mode:lr-tb;fill:#000000;fill-opacity:1;fill-rule:nonzero;stroke:none;font-family:COMIC SANS MS;-inkscape-font-specification:COMIC SANS MS"
     x="76.050255"
     y="-30.448538"
     id="tspan3966">)</tspan></text>

<text
   transform="matrix(1,0,-0.33330556,-1,0,0)"
   id="text4004"
   x="130.84624"
   y="-4.4785228"
   style="font-size:11.38429451px"><tspan
     style="font-size:9px;font-variant:normal;font-weight:normal;writing-mode:lr-tb;fill:#000000;fill-opacity:1;fill-rule:nonzero;stroke:none;font-family:COMIC SANS MS;-inkscape-font-specification:COMIC SANS MS"
     x="130.84624"
     y="-4.4785228"
     id="tspan4006">(</tspan></text>

<text
   transform="matrix(1,0,-0.33330556,-1,0,0)"
   id="text4008"
   x="134.14624"
   y="-4.4785228"
   style="font-size:11.38429451px"><tspan
     style="font-size:9px;font-variant:normal;font-weight:normal;writing-mode:lr-tb;fill:#000000;fill-opacity:1;fill-rule:nonzero;stroke:none;font-family:COMIC SANS MS;-inkscape-font-specification:COMIC SANS MS"
     x="134.14624 139.07687 144.38989 148.63063 153.56126 157.88551 162.59647 167.20195 169.6673 172.35678 176.93152 181.86215 186.79279 192.07939 197.41876 202.02425 206.64729"
     y="-4.4785228"
     sodipodi:role="line"
     id="tspan4010">external feedback</tspan></text>

<text
   transform="matrix(1,0,-0.33330556,-1,0,0)"
   id="text4012"
   x="211.50624"
   y="-4.4785228"
   style="font-size:11.38429451px"><tspan
     style="font-size:9px;font-variant:normal;font-weight:normal;writing-mode:lr-tb;fill:#000000;fill-opacity:1;fill-rule:nonzero;stroke:none;font-family:COMIC SANS MS;-inkscape-font-specification:COMIC SANS MS"
     x="211.50624"
     y="-4.4785228"
     id="tspan4014">)</tspan></text>

</g></svg>