<?xml version="1.0" encoding="UTF-8" standalone="no"?>
<!-- Created with Inkscape (http://www.inkscape.org/) -->

<svg
   xmlns:dc="http://purl.org/dc/elements/1.1/"
   xmlns:cc="http://creativecommons.org/ns#"
   xmlns:rdf="http://www.w3.org/1999/02/22-rdf-syntax-ns#"
   xmlns:svg="http://www.w3.org/2000/svg"
   xmlns="http://www.w3.org/2000/svg"
   xmlns:sodipodi="http://sodipodi.sourceforge.net/DTD/sodipodi-0.dtd"
   xmlns:inkscape="http://www.inkscape.org/namespaces/inkscape"
   id="svg4016"
   version="1.1"
   inkscape:version="0.48.1 "
   width="320"
   height="154"
   xml:space="preserve"
   sodipodi:docname="PLD_timing_tsu_tcf_fmax.svg"><metadata
     id="metadata4022"><rdf:RDF><cc:Work
         rdf:about=""><dc:format>image/svg+xml</dc:format><dc:type
           rdf:resource="http://purl.org/dc/dcmitype/StillImage" /><dc:title /></cc:Work></rdf:RDF></metadata><defs
     id="defs4020" /><sodipodi:namedview
     pagecolor="#ffffff"
     bordercolor="#666666"
     borderopacity="1"
     objecttolerance="10"
     gridtolerance="10"
     guidetolerance="10"
     inkscape:pageopacity="0"
     inkscape:pageshadow="2"
     inkscape:window-width="1831"
     inkscape:window-height="1167"
     id="namedview4018"
     showgrid="false"
     inkscape:zoom="2.1416874"
     inkscape:cx="214.00558"
     inkscape:cy="138.79192"
     inkscape:window-x="2000"
     inkscape:window-y="-9"
     inkscape:window-maximized="0"
     inkscape:current-layer="g4024" /><g
     id="g4024"
     inkscape:groupmode="layer"
     inkscape:label="skici"
     transform="matrix(1.25,0,0,-1.25,0,154)"><path
   d="m 105.12074,40.376063 13.8,0 0,13.800005 -13.8,0 0,-13.800005 z"
   style="fill:#bfbfbf;fill-opacity:1;fill-rule:evenodd;stroke:none"
   id="path4026"
   inkscape:connector-curvature="0" /><path
   d="m 118.92074,54.176068 0,-13.800005 35.4,0 3.6,7.200005 -3.6,6.6 -35.4,0 z"
   style="fill:#bfbfbf;fill-opacity:1;fill-rule:evenodd;stroke:none"
   id="path4210"
   inkscape:connector-curvature="0" /><path
   d="m 105.12074,54.176068 49.2,0"
   style="fill:none;stroke:#000000;stroke-width:0.72000003;stroke-linecap:round;stroke-linejoin:round;stroke-miterlimit:10;stroke-opacity:1;stroke-dasharray:none"
   id="path4212"
   inkscape:connector-curvature="0" /><path
   d="m 105.12074,40.376063 49.2,0"
   style="fill:none;stroke:#000000;stroke-width:0.72000003;stroke-linecap:round;stroke-linejoin:round;stroke-miterlimit:10;stroke-opacity:1;stroke-dasharray:none"
   id="path4214"
   inkscape:connector-curvature="0" /><path
   d="m 154.32074,54.176068 7.2,-13.800005"
   style="fill:none;stroke:#000000;stroke-width:0.72000003;stroke-linecap:round;stroke-linejoin:round;stroke-miterlimit:10;stroke-opacity:1;stroke-dasharray:none"
   id="path4216"
   inkscape:connector-curvature="0" /><path
   d="m 154.32074,40.376063 7.2,13.800005"
   style="fill:none;stroke:#000000;stroke-width:0.72000003;stroke-linecap:round;stroke-linejoin:round;stroke-miterlimit:10;stroke-opacity:1;stroke-dasharray:none"
   id="path4218"
   inkscape:connector-curvature="0" /><path
   d="m 161.52074,40.376063 85.2,0"
   style="fill:none;stroke:#000000;stroke-width:0.72000003;stroke-linecap:round;stroke-linejoin:round;stroke-miterlimit:10;stroke-opacity:1;stroke-dasharray:none"
   id="path4220"
   inkscape:connector-curvature="0" /><path
   d="m 161.52074,54.176068 85.2,0"
   style="fill:none;stroke:#000000;stroke-width:0.72000003;stroke-linecap:round;stroke-linejoin:round;stroke-miterlimit:10;stroke-opacity:1;stroke-dasharray:none"
   id="path4222"
   inkscape:connector-curvature="0" /><path
   d="m 121.92074,115.97607 0,-34.200002 0,34.200002 z m 36,0 0,-62.400002 0,62.400002 z"
   style="fill:#ffffff;fill-opacity:1;fill-rule:evenodd;stroke:none"
   id="path4224"
   inkscape:connector-curvature="0" /><path
   d="m 121.92074,115.97607 0,-34.200002 0,34.200002 m 36,0 0,-62.400002 0,62.400002"
   style="fill:none;stroke:#000000;stroke-width:0.23999999;stroke-linecap:round;stroke-linejoin:round;stroke-miterlimit:10;stroke-opacity:1;stroke-dasharray:none"
   id="path4226"
   inkscape:connector-curvature="0" /><path
   d="m 139.92074,103.97607 -12,0 m 12,0 12.6,0"
   style="fill:none;stroke:#000000;stroke-width:0.23999999;stroke-linecap:round;stroke-linejoin:round;stroke-miterlimit:10;stroke-opacity:1;stroke-dasharray:none"
   id="path4228"
   inkscape:connector-curvature="0" /><path
   d="m 128.52074,102.17607 -6.6,1.8 6.6,1.8 0,-3.6 z"
   style="fill:#000000;fill-opacity:1;fill-rule:evenodd;stroke:none"
   id="path4230"
   inkscape:connector-curvature="0" /><path
   d="m 151.92074,105.77607 6,-1.8 -6,-1.8 0,3.6 z"
   style="fill:#000000;fill-opacity:1;fill-rule:evenodd;stroke:none"
   id="path4232"
   inkscape:connector-curvature="0" /><path
   d="m 132.72074,96.17607 13.8,0 0,15 -13.8,0 0,-15 z"
   style="fill:#ffffff;fill-opacity:1;fill-rule:evenodd;stroke:none"
   id="path4234"
   inkscape:connector-curvature="0" /><text
   transform="scale(1,-1)"
   id="text4236"
   x="132.89069"
   y="-100.40606"><tspan
     style="font-size:12.00024033px;font-variant:normal;font-weight:normal;writing-mode:lr-tb;fill:#c00000;fill-opacity:1;fill-rule:nonzero;stroke:none;font-family:ARIAL;-inkscape-font-specification:ARIAL"
     x="132.89069"
     y="-100.40606"
     id="tspan4238">t</tspan></text>

<text
   transform="scale(1,-1)"
   id="text4240"
   x="136.2207"
   y="-98.756073"><tspan
     style="font-size:7.79831982px;font-variant:normal;font-weight:normal;writing-mode:lr-tb;fill:#c00000;fill-opacity:1;fill-rule:nonzero;stroke:none;font-family:ARIAL;-inkscape-font-specification:ARIAL"
     x="136.2207 141.85254"
     y="-98.756073"
     sodipodi:role="line"
     id="tspan4242">CF</tspan></text>

<path
   d="m 105.12074,75.776068 13.8,0"
   style="fill:none;stroke:#000000;stroke-width:0.72000003;stroke-linecap:round;stroke-linejoin:round;stroke-miterlimit:10;stroke-opacity:1;stroke-dasharray:none"
   id="path4244"
   inkscape:connector-curvature="0" /><path
   d="m 126.12074,89.57607 -7.2,-13.800002"
   style="fill:none;stroke:#000000;stroke-width:0.72000003;stroke-linecap:round;stroke-linejoin:round;stroke-miterlimit:10;stroke-opacity:1;stroke-dasharray:none"
   id="path4246"
   inkscape:connector-curvature="0" /><path
   d="m 175.92074,75.776068 -7.2,13.800002"
   style="fill:none;stroke:#000000;stroke-width:0.72000003;stroke-linecap:round;stroke-linejoin:round;stroke-miterlimit:10;stroke-opacity:1;stroke-dasharray:none"
   id="path4248"
   inkscape:connector-curvature="0" /><path
   d="m 225.72074,89.57607 -7.2,-13.800002"
   style="fill:none;stroke:#000000;stroke-width:0.72000003;stroke-linecap:round;stroke-linejoin:round;stroke-miterlimit:10;stroke-opacity:1;stroke-dasharray:none"
   id="path4250"
   inkscape:connector-curvature="0" /><path
   d="m 218.52074,75.776068 -42.6,0"
   style="fill:none;stroke:#000000;stroke-width:0.72000003;stroke-linecap:round;stroke-linejoin:round;stroke-miterlimit:10;stroke-opacity:1;stroke-dasharray:none"
   id="path4252"
   inkscape:connector-curvature="0" /><path
   d="m 246.72074,89.57607 -21,0"
   style="fill:none;stroke:#000000;stroke-width:0.72000003;stroke-linecap:round;stroke-linejoin:round;stroke-miterlimit:10;stroke-opacity:1;stroke-dasharray:none"
   id="path4254"
   inkscape:connector-curvature="0" /><path
   d="m 121.92074,13.976063 0,69.600005 0,-69.600005 z m 100.8,0 0,76.800007 0,-76.800007 z"
   style="fill:#ffffff;fill-opacity:1;fill-rule:evenodd;stroke:none"
   id="path4256"
   inkscape:connector-curvature="0" /><path
   d="m 121.92074,13.976063 0,69.600005 0,-69.600005 m 100.8,0 0,76.800007 0,-76.800007"
   style="fill:none;stroke:#000000;stroke-width:0.23999999;stroke-linecap:round;stroke-linejoin:round;stroke-miterlimit:10;stroke-opacity:1;stroke-dasharray:none"
   id="path4258"
   inkscape:connector-curvature="0" /><path
   d="m 172.32074,25.976063 -44.4,0 m 44.4,0 44.4,0"
   style="fill:none;stroke:#000000;stroke-width:0.23999999;stroke-linecap:round;stroke-linejoin:round;stroke-miterlimit:10;stroke-opacity:1;stroke-dasharray:none"
   id="path4260"
   inkscape:connector-curvature="0" /><path
   d="m 128.52074,24.176063 -6.6,1.8 6.6,2.4 0,-4.2 z"
   style="fill:#000000;fill-opacity:1;fill-rule:evenodd;stroke:none"
   id="path4262"
   inkscape:connector-curvature="0" /><path
   d="m 216.72074,28.376063 6,-2.4 -6,-1.8 0,4.2 z"
   style="fill:#000000;fill-opacity:1;fill-rule:evenodd;stroke:none"
   id="path4264"
   inkscape:connector-curvature="0" /><path
   d="m 158.52074,18.176063 27.6,0 0,15 -27.6,0 0,-15 z"
   style="fill:#ffffff;fill-opacity:1;fill-rule:evenodd;stroke:none"
   id="path4266"
   inkscape:connector-curvature="0" /><text
   transform="scale(1,-1)"
   id="text4268"
   x="158.33069"
   y="-22.456062"><tspan
     style="font-size:12.00024033px;font-variant:normal;font-weight:normal;writing-mode:lr-tb;fill:#c00000;fill-opacity:1;fill-rule:nonzero;stroke:none;font-family:ARIAL;-inkscape-font-specification:ARIAL"
     x="158.33069"
     y="-22.456062"
     id="tspan4270">1</tspan></text>

<text
   transform="scale(1,-1)"
   id="text4272"
   x="165.00073"
   y="-22.456062"><tspan
     style="font-size:12.00024033px;font-variant:normal;font-weight:normal;writing-mode:lr-tb;fill:#c00000;fill-opacity:1;fill-rule:nonzero;stroke:none;font-family:ARIAL;-inkscape-font-specification:ARIAL"
     x="165.00073"
     y="-22.456062"
     id="tspan4274">/</tspan></text>

<text
   transform="scale(1,-1)"
   id="text4276"
   x="168.3407"
   y="-22.456062"><tspan
     style="font-size:12.00024033px;font-variant:normal;font-weight:normal;writing-mode:lr-tb;fill:#c00000;fill-opacity:1;fill-rule:nonzero;stroke:none;font-family:ARIAL;-inkscape-font-specification:ARIAL"
     x="168.3407"
     y="-22.456062"
     id="tspan4278">f</tspan></text>

<text
   transform="scale(1,-1)"
   id="text4280"
   x="171.67072"
   y="-20.796062"><tspan
     style="font-size:7.79831982px;font-variant:normal;font-weight:normal;writing-mode:lr-tb;fill:#c00000;fill-opacity:1;fill-rule:nonzero;stroke:none;font-family:ARIAL;-inkscape-font-specification:ARIAL"
     x="171.67072 178.16693 182.50403"
     y="-20.796062"
     sodipodi:role="line"
     id="tspan4282">max</tspan></text>

<path
   d="m 157.92074,115.97607 0,-34.200002 0,34.200002 z m 64.8,0 0,-34.200002 0,34.200002 z"
   style="fill:#ffffff;fill-opacity:1;fill-rule:evenodd;stroke:none"
   id="path4284"
   inkscape:connector-curvature="0" /><path
   d="m 157.92074,115.97607 0,-34.200002 0,34.200002 m 64.8,0 0,-34.200002 0,34.200002"
   style="fill:none;stroke:#000000;stroke-width:0.23999999;stroke-linecap:round;stroke-linejoin:round;stroke-miterlimit:10;stroke-opacity:1;stroke-dasharray:none"
   id="path4286"
   inkscape:connector-curvature="0" /><path
   d="m 190.32074,103.97607 -26.4,0 m 26.4,0 26.4,0"
   style="fill:none;stroke:#000000;stroke-width:0.23999999;stroke-linecap:round;stroke-linejoin:round;stroke-miterlimit:10;stroke-opacity:1;stroke-dasharray:none"
   id="path4288"
   inkscape:connector-curvature="0" /><path
   d="m 164.52074,102.17607 -6.6,1.8 6.6,2.4 0,-4.2 z"
   style="fill:#000000;fill-opacity:1;fill-rule:evenodd;stroke:none"
   id="path4290"
   inkscape:connector-curvature="0" /><path
   d="m 216.72074,106.37607 6,-2.4 -6,-1.8 0,4.2 z"
   style="fill:#000000;fill-opacity:1;fill-rule:evenodd;stroke:none"
   id="path4292"
   inkscape:connector-curvature="0" /><path
   d="m 182.52074,96.17607 14.4,0 0,15 -14.4,0 0,-15 z"
   style="fill:#ffffff;fill-opacity:1;fill-rule:evenodd;stroke:none"
   id="path4294"
   inkscape:connector-curvature="0" /><text
   transform="scale(1,-1)"
   id="text4296"
   x="182.63074"
   y="-100.48606"><tspan
     style="font-size:12.00024033px;font-variant:normal;font-weight:normal;writing-mode:lr-tb;fill:#c00000;fill-opacity:1;fill-rule:nonzero;stroke:none;font-family:ARIAL;-inkscape-font-specification:ARIAL"
     x="182.63074"
     y="-100.48606"
     id="tspan4298">t</tspan></text>

<text
   transform="scale(1,-1)"
   id="text4300"
   x="185.96069"
   y="-98.826073"><tspan
     style="font-size:7.79831982px;font-variant:normal;font-weight:normal;writing-mode:lr-tb;fill:#c00000;fill-opacity:1;fill-rule:nonzero;stroke:none;font-family:ARIAL;-inkscape-font-specification:ARIAL"
     x="185.96069 191.16248"
     y="-98.826073"
     sodipodi:role="line"
     id="tspan4302">SU</tspan></text>

<path
   d="m 168.72074,89.57607 -42.6,0"
   style="fill:none;stroke:#000000;stroke-width:0.72000003;stroke-linecap:round;stroke-linejoin:round;stroke-miterlimit:10;stroke-opacity:1;stroke-dasharray:none"
   id="path4304"
   inkscape:connector-curvature="0" /><text
   transform="scale(1,-1)"
   id="text4412"
   x="67.730751"
   y="-83.406075"><tspan
     style="font-size:12.00024033px;font-variant:normal;font-weight:normal;writing-mode:lr-tb;fill:#000000;fill-opacity:1;fill-rule:nonzero;stroke:none;font-family:ARIAL NARROW;-inkscape-font-specification:ARIAL NARROW"
     x="67.730751 73.203346 78.67588 84.148476 86.333961 91.806557"
     y="-83.406075"
     sodipodi:role="line"
     id="tspan4414">hodiny</tspan></text>

<text
   transform="scale(1,-1)"
   id="text4416"
   x="21.230743"
   y="-49.576077"><tspan
     style="font-size:12.00024033px;font-variant:normal;font-weight:normal;writing-mode:lr-tb;fill:#000000;fill-opacity:1;fill-rule:nonzero;stroke:none;font-family:ARIAL NARROW;-inkscape-font-specification:ARIAL NARROW"
     x="21.230743 24.506014 29.978615 35.451153 37.6367 42.558514 45.294964 48.570232 54.042828 58.964638 64.437233 67.173683 72.095497 77.568092 83.040688 85.777077 91.249672 96.722267"
     y="-49.576077"
     sodipodi:role="line"
     id="tspan4418">registrová zpětná </tspan></text>

<text
   transform="scale(1,-1)"
   id="text4420"
   x="70.460732"
   y="-35.176075"><tspan
     style="font-size:12.00024033px;font-variant:normal;font-weight:normal;writing-mode:lr-tb;fill:#000000;fill-opacity:1;fill-rule:nonzero;stroke:none;font-family:ARIAL NARROW;-inkscape-font-specification:ARIAL NARROW"
     x="70.460732 75.382607 80.855202 85.777016 91.249611"
     y="-35.176075"
     sodipodi:role="line"
     id="tspan4422">vazba</tspan></text>

<text
   transform="matrix(1,0,-0.33330556,-1,0,0)"
   id="text4484"
   x="48.927341"
   y="-71.086082"
   style="font-size:11.38429451px"><tspan
     style="font-size:9px;font-variant:normal;font-weight:normal;writing-mode:lr-tb;fill:#000000;fill-opacity:1;fill-rule:nonzero;stroke:none;font-family:COMIC SANS MS;-inkscape-font-specification:COMIC SANS MS"
     x="48.927341"
     y="-71.086082"
     id="tspan4486">(</tspan></text>

<text
   transform="matrix(1,0,-0.33330556,-1,0,0)"
   id="text4488"
   x="52.217381"
   y="-71.086082"
   style="font-size:11.38429451px"><tspan
     style="font-size:9px;font-variant:normal;font-weight:normal;writing-mode:lr-tb;fill:#000000;fill-opacity:1;fill-rule:nonzero;stroke:none;font-family:COMIC SANS MS;-inkscape-font-specification:COMIC SANS MS"
     x="52.217381 57.640171 62.597267"
     y="-71.086082"
     sodipodi:role="line"
     id="tspan4490">CLK</tspan></text>

<text
   transform="matrix(1,0,-0.33330556,-1,0,0)"
   id="text4492"
   x="68.097328"
   y="-71.086082"
   style="font-size:11.38429451px"><tspan
     style="font-size:9px;font-variant:normal;font-weight:normal;writing-mode:lr-tb;fill:#000000;fill-opacity:1;fill-rule:nonzero;stroke:none;font-family:COMIC SANS MS;-inkscape-font-specification:COMIC SANS MS"
     x="68.097328"
     y="-71.086082"
     id="tspan4494">)</tspan></text>

<text
   transform="matrix(1,0,-0.33330556,-1,0,0)"
   id="text4500"
   x="-3.6406438"
   y="-21.936064"
   style="font-size:11.38429451px"><tspan
     style="font-size:9px;font-variant:normal;font-weight:normal;writing-mode:lr-tb;fill:#000000;fill-opacity:1;fill-rule:nonzero;stroke:none;font-family:COMIC SANS MS;-inkscape-font-specification:COMIC SANS MS"
     x="-3.6406438 2.0150576 6.9457192 11.722574 14.244975 18.626322 22.867044 27.797705 32.121922 37.052586 42.339146 45.02866 49.603367 54.534031 59.464638 64.751259 70.090614 74.696144 79.319191"
     y="-21.936064"
     sodipodi:role="line"
     id="tspan4502">Registered feedback</tspan></text>

<text
   transform="matrix(1,0,-0.33330556,-1,0,0)"
   id="text4504"
   x="84.179298"
   y="-21.936064"
   style="font-size:11.38429451px"><tspan
     style="font-size:9px;font-variant:normal;font-weight:normal;writing-mode:lr-tb;fill:#000000;fill-opacity:1;fill-rule:nonzero;stroke:none;font-family:COMIC SANS MS;-inkscape-font-specification:COMIC SANS MS"
     x="84.179298"
     y="-21.936064"
     id="tspan4506">)</tspan></text>

<text
   transform="matrix(1,0,-0.33330556,-1,0,0)"
   id="text4508"
   x="127.28889"
   y="-4.0560622"
   style="font-size:11.38429451px"><tspan
     style="font-size:9px;font-variant:normal;font-weight:normal;writing-mode:lr-tb;fill:#000000;fill-opacity:1;fill-rule:nonzero;stroke:none;font-family:COMIC SANS MS;-inkscape-font-specification:COMIC SANS MS"
     x="127.28889"
     y="-4.0560622"
     id="tspan4510">(</tspan></text>

<text
   transform="matrix(1,0,-0.33330556,-1,0,0)"
   id="text4512"
   x="130.58887"
   y="-4.0560622"
   style="font-size:11.38429451px"><tspan
     style="font-size:9px;font-variant:normal;font-weight:normal;writing-mode:lr-tb;fill:#000000;fill-opacity:1;fill-rule:nonzero;stroke:none;font-family:COMIC SANS MS;-inkscape-font-specification:COMIC SANS MS"
     x="130.58887 133.11133 137.82227 142.06299 146.99359 151.31787 156.02881 160.63434 163.09967 165.78912 170.36389 175.29449 180.22516 185.51172 190.85114 195.4566 200.07965"
     y="-4.0560622"
     sodipodi:role="line"
     id="tspan4514">internal feedback</tspan></text>

<text
   transform="matrix(1,0,-0.33330556,-1,0,0)"
   id="text4516"
   x="204.93884"
   y="-4.0560622"
   style="font-size:11.38429451px"><tspan
     style="font-size:9px;font-variant:normal;font-weight:normal;writing-mode:lr-tb;fill:#000000;fill-opacity:1;fill-rule:nonzero;stroke:none;font-family:COMIC SANS MS;-inkscape-font-specification:COMIC SANS MS"
     x="204.93884"
     y="-4.0560622"
     id="tspan4518">)</tspan></text>

</g></svg>