<?xml version="1.0" encoding="UTF-8" standalone="no"?>
<!-- Created with Inkscape (http://www.inkscape.org/) -->

<svg
   xmlns:dc="http://purl.org/dc/elements/1.1/"
   xmlns:cc="http://creativecommons.org/ns#"
   xmlns:rdf="http://www.w3.org/1999/02/22-rdf-syntax-ns#"
   xmlns:svg="http://www.w3.org/2000/svg"
   xmlns="http://www.w3.org/2000/svg"
   xmlns:sodipodi="http://sodipodi.sourceforge.net/DTD/sodipodi-0.dtd"
   xmlns:inkscape="http://www.inkscape.org/namespaces/inkscape"
   id="svg2"
   version="1.1"
   inkscape:version="0.48.1 "
   width="455"
   height="190"
   xml:space="preserve"
   sodipodi:docname="pwm_RC_filter.svg"><metadata
     id="metadata8"><rdf:RDF><cc:Work
         rdf:about=""><dc:format>image/svg+xml</dc:format><dc:type
           rdf:resource="http://purl.org/dc/dcmitype/StillImage" /><dc:title></dc:title></cc:Work></rdf:RDF></metadata><defs
     id="defs6"><clipPath
       clipPathUnits="userSpaceOnUse"
       id="clipPath250"><path
         d="m 171.12,18 252.84,0 0,13.2 -252.84,0 0,-13.2 z"
         id="path252"
         inkscape:connector-curvature="0" /></clipPath></defs><sodipodi:namedview
     pagecolor="#ffffff"
     bordercolor="#666666"
     borderopacity="1"
     objecttolerance="10"
     gridtolerance="10"
     guidetolerance="10"
     inkscape:pageopacity="0"
     inkscape:pageshadow="2"
     inkscape:window-width="1831"
     inkscape:window-height="1173"
     id="namedview4"
     showgrid="false"
     inkscape:zoom="1.8631192"
     inkscape:cx="308.73811"
     inkscape:cy="94.845346"
     inkscape:window-x="80"
     inkscape:window-y="-9"
     inkscape:window-maximized="1"
     inkscape:current-layer="g10" /><g
     id="g10"
     inkscape:groupmode="layer"
     inkscape:label="pwm_RC_filter"
     transform="matrix(1.25,0,0,-1.25,0,190)"><path
       d="m 213.77865,30.941489 -26.88,-26.7599999"
       style="fill:none;stroke:#00007f;stroke-width:0.80000001;stroke-linecap:butt;stroke-linejoin:miter;stroke-miterlimit:10;stroke-opacity:1;stroke-dasharray:none"
       id="path12"
       inkscape:connector-curvature="0" /><path
       d="m 186.89865,4.0614891 0.12,0 0,0.12 -0.12,0 0,-0.12 z"
       style="fill:#00007f;fill-opacity:1;fill-rule:nonzero;stroke:none"
       id="path14"
       inkscape:connector-curvature="0" /><path
       d="m 240.53865,4.1814891 -26.76,26.7599999"
       style="fill:none;stroke:#00007f;stroke-width:0.80000001;stroke-linecap:butt;stroke-linejoin:miter;stroke-miterlimit:10;stroke-opacity:1;stroke-dasharray:none"
       id="path16"
       inkscape:connector-curvature="0" /><path
       d="m 213.77865,30.821489 0.12,0 0,0.12 -0.12,0 0,-0.12 z"
       style="fill:#00007f;fill-opacity:1;fill-rule:nonzero;stroke:none"
       id="path18"
       inkscape:connector-curvature="0" /><path
       d="m 267.41865,30.941489 -26.88,-26.7599999"
       style="fill:none;stroke:#00007f;stroke-width:0.80000001;stroke-linecap:butt;stroke-linejoin:miter;stroke-miterlimit:10;stroke-opacity:1;stroke-dasharray:none"
       id="path20"
       inkscape:connector-curvature="0" /><path
       d="m 240.53865,4.0614891 0.12,0 0,0.12 -0.12,0 0,-0.12 z"
       style="fill:#00007f;fill-opacity:1;fill-rule:nonzero;stroke:none"
       id="path22"
       inkscape:connector-curvature="0" /><path
       d="m 294.29865,4.1814891 -26.88,26.7599999"
       style="fill:none;stroke:#00007f;stroke-width:0.80000001;stroke-linecap:butt;stroke-linejoin:miter;stroke-miterlimit:10;stroke-opacity:1;stroke-dasharray:none"
       id="path24"
       inkscape:connector-curvature="0" /><path
       d="m 267.41865,30.821489 0.12,0 0,0.12 -0.12,0 0,-0.12 z"
       style="fill:#00007f;fill-opacity:1;fill-rule:nonzero;stroke:none"
       id="path26"
       inkscape:connector-curvature="0" /><path
       d="m 299.69865,30.941489 -118.2,0"
       style="fill:none;stroke:#00007f;stroke-width:0.80000001;stroke-linecap:butt;stroke-linejoin:miter;stroke-miterlimit:10;stroke-opacity:1;stroke-dasharray:none;stroke-dashoffset:0"
       id="path28"
       inkscape:connector-curvature="0" /><path
       d="m 181.49865,30.821489 0.12,0 0,0.12 -0.12,0 0,-0.12 z"
       style="fill:#00007f;fill-opacity:1;fill-rule:nonzero;stroke:none"
       id="path30"
       inkscape:connector-curvature="0" /><path
       d="m 299.69865,4.1814891 -118.2,0"
       style="fill:none;stroke:#00007f;stroke-width:0.80000001;stroke-linecap:butt;stroke-linejoin:miter;stroke-miterlimit:10;stroke-opacity:1;stroke-dasharray:none;stroke-dashoffset:0"
       id="path32"
       inkscape:connector-curvature="0" /><path
       d="m 181.49865,4.0614891 0.12,0 0,0.12 -0.12,0 0,-0.12 z"
       style="fill:#00007f;fill-opacity:1;fill-rule:nonzero;stroke:none"
       id="path34"
       inkscape:connector-curvature="0" /><path
       d="m 259.37865,107.50149 -21.48,0"
       style="fill:none;stroke:#00007f;stroke-width:0.88;stroke-linecap:butt;stroke-linejoin:miter;stroke-miterlimit:10;stroke-opacity:1;stroke-dasharray:none"
       id="path36"
       inkscape:connector-curvature="0" /><path
       d="m 237.89865,107.38149 0.12,0 0,0.12 -0.12,0 0,-0.12 z"
       style="fill:#00007f;fill-opacity:1;fill-rule:nonzero;stroke:none"
       id="path38"
       inkscape:connector-curvature="0" /><path
       d="m 237.89865,107.50149 0,8.04"
       style="fill:none;stroke:#00007f;stroke-width:0.88;stroke-linecap:butt;stroke-linejoin:miter;stroke-miterlimit:10;stroke-opacity:1;stroke-dasharray:none"
       id="path40"
       inkscape:connector-curvature="0" /><path
       d="m 237.89865,115.42149 0.12,0 0,0.12 -0.12,0 0,-0.12 z"
       style="fill:#00007f;fill-opacity:1;fill-rule:nonzero;stroke:none"
       id="path42"
       inkscape:connector-curvature="0" /><path
       d="m 237.89865,115.54149 21.48,0"
       style="fill:none;stroke:#00007f;stroke-width:0.88;stroke-linecap:butt;stroke-linejoin:miter;stroke-miterlimit:10;stroke-opacity:1;stroke-dasharray:none"
       id="path44"
       inkscape:connector-curvature="0" /><path
       d="m 259.37865,115.42149 0.12,0 0,0.12 -0.12,0 0,-0.12 z"
       style="fill:#00007f;fill-opacity:1;fill-rule:nonzero;stroke:none"
       id="path46"
       inkscape:connector-curvature="0" /><path
       d="m 259.37865,115.54149 0,-8.04"
       style="fill:none;stroke:#00007f;stroke-width:0.88;stroke-linecap:butt;stroke-linejoin:miter;stroke-miterlimit:10;stroke-opacity:1;stroke-dasharray:none"
       id="path48"
       inkscape:connector-curvature="0" /><path
       d="m 259.37865,107.38149 0.12,0 0,0.12 -0.12,0 0,-0.12 z"
       style="fill:#00007f;fill-opacity:1;fill-rule:nonzero;stroke:none"
       id="path50"
       inkscape:connector-curvature="0" /><text
       transform="scale(1,-1)"
       id="text52"
       x="243.53865"
       y="-118.78149"><tspan
         style="font-size:8.39999962px;font-variant:normal;font-weight:bold;writing-mode:lr-tb;fill:#000000;fill-opacity:1;fill-rule:nonzero;stroke:none;font-family:Arial;-inkscape-font-specification:Arial Bold"
         x="243.53865 249.29866"
         y="-118.78149"
         sodipodi:role="line"
         id="tspan54">R1</tspan><tspan
         style="font-size:8.39999962px;font-variant:normal;font-weight:bold;writing-mode:lr-tb;fill:#000000;fill-opacity:1;fill-rule:nonzero;stroke:none;font-family:Arial;-inkscape-font-specification:Arial Bold"
         x="241.97865 246.41866 250.85866"
         y="-98.741493"
         sodipodi:role="line"
         id="tspan56">10k</tspan></text>
<path
       d="m 259.37865,111.46149 2.64,0"
       style="fill:none;stroke:#00007f;stroke-width:0.88;stroke-linecap:butt;stroke-linejoin:miter;stroke-miterlimit:10;stroke-opacity:1;stroke-dasharray:none"
       id="path58"
       inkscape:connector-curvature="0" /><path
       d="m 262.01865,111.34149 0.12,0 0,0.12 -0.12,0 0,-0.12 z"
       style="fill:#00007f;fill-opacity:1;fill-rule:nonzero;stroke:none"
       id="path60"
       inkscape:connector-curvature="0" /><path
       d="m 235.25865,111.46149 2.64,0"
       style="fill:none;stroke:#00007f;stroke-width:0.88;stroke-linecap:butt;stroke-linejoin:miter;stroke-miterlimit:10;stroke-opacity:1;stroke-dasharray:none"
       id="path62"
       inkscape:connector-curvature="0" /><path
       d="m 237.89865,111.34149 0.12,0 0,0.12 -0.12,0 0,-0.12 z"
       style="fill:#00007f;fill-opacity:1;fill-rule:nonzero;stroke:none"
       id="path64"
       inkscape:connector-curvature="0" /><text
       transform="scale(1,-1)"
       id="text66"
       x="318.41864"
       y="-89.981491"
       style="stroke-width:0.88;stroke-miterlimit:10;stroke-dasharray:none"><tspan
         style="font-size:8.39999962px;font-variant:normal;font-weight:bold;writing-mode:lr-tb;fill:#000000;fill-opacity:1;fill-rule:nonzero;stroke:none;font-family:Arial;-inkscape-font-specification:Arial Bold"
         x="318.41864 324.17865"
         y="-89.981491"
         sodipodi:role="line"
         id="tspan68">C1</tspan><tspan
         style="font-size:8.39999962px;font-variant:normal;font-weight:bold;writing-mode:lr-tb;fill:#000000;fill-opacity:1;fill-rule:nonzero;stroke:none;font-family:Arial;-inkscape-font-specification:Arial Bold"
         x="318.41864 321.53864 327.29865 332.09863"
         y="-71.141495"
         sodipodi:role="line"
         id="tspan70">{CF}</tspan></text>
<path
       d="m 315.77865,83.261489 0,-9.36"
       style="fill:none;stroke:#00007f;stroke-width:0.88;stroke-linecap:butt;stroke-linejoin:miter;stroke-miterlimit:10;stroke-opacity:1;stroke-dasharray:none"
       id="path72"
       inkscape:connector-curvature="0" /><path
       d="m 315.77865,73.781489 0.12,0 0,0.12 -0.12,0 0,-0.12 z"
       style="fill:#00007f;fill-opacity:1;fill-rule:nonzero;stroke:none"
       id="path74"
       inkscape:connector-curvature="0" /><path
       d="m 315.77865,86.021488 0,9.36"
       style="fill:none;stroke:#00007f;stroke-width:0.88;stroke-linecap:butt;stroke-linejoin:miter;stroke-miterlimit:10;stroke-opacity:1;stroke-dasharray:none"
       id="path76"
       inkscape:connector-curvature="0" /><path
       d="m 315.77865,95.261488 0.12,0 0,0.12 -0.12,0 0,-0.12 z"
       style="fill:#00007f;fill-opacity:1;fill-rule:nonzero;stroke:none"
       id="path78"
       inkscape:connector-curvature="0" /><path
       d="m 310.37865,86.021488 10.8,0"
       style="fill:none;stroke:#00007f;stroke-width:0.88;stroke-linecap:butt;stroke-linejoin:miter;stroke-miterlimit:10;stroke-opacity:1;stroke-dasharray:none"
       id="path80"
       inkscape:connector-curvature="0" /><path
       d="m 321.17865,85.901488 0.12,0 0,0.12 -0.12,0 0,-0.12 z"
       style="fill:#00007f;fill-opacity:1;fill-rule:nonzero;stroke:none"
       id="path82"
       inkscape:connector-curvature="0" /><path
       d="m 310.37865,83.261489 10.8,0"
       style="fill:none;stroke:#00007f;stroke-width:0.88;stroke-linecap:butt;stroke-linejoin:miter;stroke-miterlimit:10;stroke-opacity:1;stroke-dasharray:none"
       id="path84"
       inkscape:connector-curvature="0" /><path
       d="m 321.17865,83.141489 0.12,0 0,0.12 -0.12,0 0,-0.12 z"
       style="fill:#00007f;fill-opacity:1;fill-rule:nonzero;stroke:none"
       id="path86"
       inkscape:connector-curvature="0" /><text
       transform="scale(1,-1)"
       id="text88"
       x="184.25865"
       y="-92.62149"
       style="stroke-width:0.88;stroke-miterlimit:10;stroke-dasharray:none"><tspan
         style="font-size:8.39999962px;font-variant:normal;font-weight:bold;writing-mode:lr-tb;fill:#000000;fill-opacity:1;fill-rule:nonzero;stroke:none;font-family:Arial;-inkscape-font-specification:Arial Bold"
         x="184.25865 189.52905"
         y="-92.62149"
         sodipodi:role="line"
         id="tspan90">V1</tspan><tspan
         style="font-size:8.39999962px;font-variant:normal;font-weight:bold;writing-mode:lr-tb;fill:#000000;fill-opacity:1;fill-rule:nonzero;stroke:none;font-family:Arial;-inkscape-font-specification:Arial Bold"
         x="184.25865 189.52905 195.28906 200.08905 205.35945 210.62985 213.26985 217.70985 219.86986 222.98985 228.26985 234.01186 239.75386 242.87386 245.03386 249.47386 251.63387 256.07385 260.87384 263.03384 267.47385 272.27383 274.43384 278.87384 283.31384 288.11383 290.27383 294.71384 299.15384 303.59384 308.39383"
         y="-63.10149"
         sodipodi:role="line"
         id="tspan92">PULSE(0 {VCC} 0 1n 1n 50u 100u)</tspan></text>
<path
       d="m 173.45865,88.661488 5.4,0"
       style="fill:none;stroke:#00007f;stroke-width:0.88;stroke-linecap:butt;stroke-linejoin:miter;stroke-miterlimit:10;stroke-opacity:1;stroke-dasharray:none"
       id="path94"
       inkscape:connector-curvature="0" /><path
       d="m 178.85865,88.541488 0.12,0 0,0.12 -0.12,0 0,-0.12 z"
       style="fill:#00007f;fill-opacity:1;fill-rule:nonzero;stroke:none"
       id="path96"
       inkscape:connector-curvature="0" /><path
       d="m 173.45865,75.221489 5.4,0"
       style="fill:none;stroke:#00007f;stroke-width:0.88;stroke-linecap:butt;stroke-linejoin:miter;stroke-miterlimit:10;stroke-opacity:1;stroke-dasharray:none"
       id="path98"
       inkscape:connector-curvature="0" /><path
       d="m 178.85865,75.101489 0.12,0 0,0.12 -0.12,0 0,-0.12 z"
       style="fill:#00007f;fill-opacity:1;fill-rule:nonzero;stroke:none"
       id="path100"
       inkscape:connector-curvature="0" /><path
       d="m 176.21865,91.421488 0,-5.4"
       style="fill:none;stroke:#00007f;stroke-width:0.88;stroke-linecap:butt;stroke-linejoin:miter;stroke-miterlimit:10;stroke-opacity:1;stroke-dasharray:none"
       id="path102"
       inkscape:connector-curvature="0" /><path
       d="m 176.21865,85.901488 0.12,0 0,0.12 -0.12,0 0,-0.12 z"
       style="fill:#00007f;fill-opacity:1;fill-rule:nonzero;stroke:none"
       id="path104"
       inkscape:connector-curvature="0" /><path
       d="m 176.21865,68.501489 0,2.76"
       style="fill:none;stroke:#00007f;stroke-width:0.88;stroke-linecap:butt;stroke-linejoin:miter;stroke-miterlimit:10;stroke-opacity:1;stroke-dasharray:none"
       id="path106"
       inkscape:connector-curvature="0" /><path
       d="m 176.21865,71.141489 0.12,0 0,0.12 -0.12,0 0,-0.12 z"
       style="fill:#00007f;fill-opacity:1;fill-rule:nonzero;stroke:none"
       id="path108"
       inkscape:connector-curvature="0" /><path
       d="m 176.21865,95.381488 0,-2.64"
       style="fill:none;stroke:#00007f;stroke-width:0.88;stroke-linecap:butt;stroke-linejoin:miter;stroke-miterlimit:10;stroke-opacity:1;stroke-dasharray:none"
       id="path110"
       inkscape:connector-curvature="0" /><path
       d="m 176.21865,92.621488 0.12,0 0,0.12 -0.12,0 0,-0.12 z"
       style="fill:#00007f;fill-opacity:1;fill-rule:nonzero;stroke:none"
       id="path112"
       inkscape:connector-curvature="0" /><path
       d="m 186.77865,82.061489 c 0,5.999999 -4.8,10.679999 -10.68,10.679999 -6,0 -10.68,-4.68 -10.68,-10.679999 0,-5.88 4.68,-10.68 10.68,-10.68 5.88,0 10.68,4.8 10.68,10.68 z"
       style="fill:none;stroke:#00007f;stroke-width:0.88;stroke-linecap:butt;stroke-linejoin:miter;stroke-miterlimit:10;stroke-opacity:1;stroke-dasharray:none"
       id="path114"
       inkscape:connector-curvature="0" /><path
       d="m 309.65865,52.421489 12.12,0"
       style="fill:none;stroke:#0000ff;stroke-width:0.88;stroke-linecap:butt;stroke-linejoin:miter;stroke-miterlimit:10;stroke-opacity:1;stroke-dasharray:none"
       id="path116"
       inkscape:connector-curvature="0" /><path
       d="m 321.77865,52.301489 0.12,0 0,0.12 -0.12,0 0,-0.12 z"
       style="fill:#000000;fill-opacity:1;fill-rule:nonzero;stroke:none"
       id="path118"
       inkscape:connector-curvature="0" /><path
       d="m 321.77865,52.421489 -6,-6"
       style="fill:none;stroke:#0000ff;stroke-width:0.88;stroke-linecap:butt;stroke-linejoin:miter;stroke-miterlimit:10;stroke-opacity:1;stroke-dasharray:none"
       id="path120"
       inkscape:connector-curvature="0" /><path
       d="m 315.77865,46.301489 0.12,0 0,0.12 -0.12,0 0,-0.12 z"
       style="fill:#000000;fill-opacity:1;fill-rule:nonzero;stroke:none"
       id="path122"
       inkscape:connector-curvature="0" /><path
       d="m 315.77865,46.421489 -6.12,6"
       style="fill:none;stroke:#0000ff;stroke-width:0.88;stroke-linecap:butt;stroke-linejoin:miter;stroke-miterlimit:10;stroke-opacity:1;stroke-dasharray:none"
       id="path124"
       inkscape:connector-curvature="0" /><path
       d="m 309.65865,52.301489 0.12,0 0,0.12 -0.12,0 0,-0.12 z"
       style="fill:#000000;fill-opacity:1;fill-rule:nonzero;stroke:none"
       id="path126"
       inkscape:connector-curvature="0" /><path
       d="m 170.09865,52.421489 12.12,0"
       style="fill:none;stroke:#0000ff;stroke-width:0.88;stroke-linecap:butt;stroke-linejoin:miter;stroke-miterlimit:10;stroke-opacity:1;stroke-dasharray:none"
       id="path128"
       inkscape:connector-curvature="0" /><path
       d="m 182.21865,52.301489 0.12,0 0,0.12 -0.12,0 0,-0.12 z"
       style="fill:#000000;fill-opacity:1;fill-rule:nonzero;stroke:none"
       id="path130"
       inkscape:connector-curvature="0" /><path
       d="m 182.21865,52.421489 -6,-6"
       style="fill:none;stroke:#0000ff;stroke-width:0.88;stroke-linecap:butt;stroke-linejoin:miter;stroke-miterlimit:10;stroke-opacity:1;stroke-dasharray:none"
       id="path132"
       inkscape:connector-curvature="0" /><path
       d="m 176.21865,46.301489 0.12,0 0,0.12 -0.12,0 0,-0.12 z"
       style="fill:#000000;fill-opacity:1;fill-rule:nonzero;stroke:none"
       id="path134"
       inkscape:connector-curvature="0" /><path
       d="m 176.21865,46.421489 -6.12,6"
       style="fill:none;stroke:#0000ff;stroke-width:0.88;stroke-linecap:butt;stroke-linejoin:miter;stroke-miterlimit:10;stroke-opacity:1;stroke-dasharray:none"
       id="path136"
       inkscape:connector-curvature="0" /><path
       d="m 170.09865,52.301489 0.12,0 0,0.12 -0.12,0 0,-0.12 z"
       style="fill:#000000;fill-opacity:1;fill-rule:nonzero;stroke:none"
       id="path138"
       inkscape:connector-curvature="0" /><path
       d="m 331.85865,106.78149 0,9.36"
       style="fill:none;stroke:#0000ff;stroke-width:0.88;stroke-linecap:butt;stroke-linejoin:miter;stroke-miterlimit:10;stroke-opacity:1;stroke-dasharray:none"
       id="path140"
       inkscape:connector-curvature="0" /><path
       d="m 331.85865,106.78149 15.48,0"
       style="fill:none;stroke:#0000ff;stroke-width:0.88;stroke-linecap:butt;stroke-linejoin:miter;stroke-miterlimit:10;stroke-opacity:1;stroke-dasharray:none"
       id="path142"
       inkscape:connector-curvature="0" /><path
       d="m 331.85865,116.14149 15.48,0"
       style="fill:none;stroke:#0000ff;stroke-width:0.88;stroke-linecap:butt;stroke-linejoin:miter;stroke-miterlimit:10;stroke-opacity:1;stroke-dasharray:none"
       id="path144"
       inkscape:connector-curvature="0" /><path
       d="m 347.33865,106.78149 4.68,4.68"
       style="fill:none;stroke:#0000ff;stroke-width:0.88;stroke-linecap:butt;stroke-linejoin:miter;stroke-miterlimit:10;stroke-opacity:1;stroke-dasharray:none"
       id="path146"
       inkscape:connector-curvature="0" /><path
       d="m 352.01865,111.46149 -4.68,4.68"
       style="fill:none;stroke:#0000ff;stroke-width:0.88;stroke-linecap:butt;stroke-linejoin:miter;stroke-miterlimit:10;stroke-opacity:1;stroke-dasharray:none"
       id="path148"
       inkscape:connector-curvature="0" /><text
       transform="scale(1,-1)"
       id="text150"
       x="332.45865"
       y="-108.70149"><tspan
         style="font-size:8.39999962px;font-variant:normal;font-weight:bold;writing-mode:lr-tb;fill:#000000;fill-opacity:1;fill-rule:nonzero;stroke:none;font-family:Arial;-inkscape-font-specification:Arial Bold"
         x="332.45865 337.25864 342.05865"
         y="-108.70149"
         sodipodi:role="line"
         id="tspan152">out</tspan><tspan
         style="font-size:8.39999962px;font-variant:normal;font-weight:bold;writing-mode:lr-tb;fill:#000000;fill-opacity:1;fill-rule:nonzero;stroke:none;font-family:Arial;-inkscape-font-specification:Arial Bold"
         x="4.3786659 6.5386391 9.1606483 12.280643 16.720646 21.520664 23.680637 28.12064 30.280643 34.720646 39.160648 46.240665 48.400639 52.840641 55.000645 59.440647"
         y="-103.42149"
         sodipodi:role="line"
         id="tspan154">.tran 0 50m 0 1u</tspan><tspan
         style="font-size:8.39999962px;font-variant:normal;font-weight:bold;writing-mode:lr-tb;fill:#000000;fill-opacity:1;fill-rule:nonzero;stroke:none;font-family:Arial;-inkscape-font-specification:Arial Bold"
         x="4.3786659 6.5386391 8.6986427 13.138645 15.298649 20.578648 23.218662 28.01865 32.818638 35.458652 38.098667 42.77866 45.898655 51.178654 56.920658 62.662663 64.82267 69.262642"
         y="-114.10149"
         sodipodi:role="line"
         id="tspan156">.ic V(out)={VCC/2}</tspan><tspan
         style="font-size:8.39999962px;font-variant:normal;font-weight:bold;writing-mode:lr-tb;fill:#000000;fill-opacity:1;fill-rule:nonzero;stroke:none;font-family:Arial;-inkscape-font-specification:Arial Bold"
         x="4.3786659 6.5386391 11.338657 16.138645 18.77866 20.956638 25.756657 30.556644 34.996647 37.156651 41.956638 44.116642 48.91666 51.556644 57.934666 60.112644 64.912666 69.352669 71.512642 75.472664 79.903053 84.568657"
         y="-95.381493"
         sodipodi:role="line"
         id="tspan158">.options plotwinsize=0</tspan><tspan
         style="font-size:8.39999962px;font-variant:normal;font-weight:bold;writing-mode:lr-tb;fill:#000000;fill-opacity:1;fill-rule:nonzero;stroke:none;font-family:Arial;-inkscape-font-specification:Arial Bold"
         x="4.3786659 6.5386391 11.338657 15.77866 18.898655 23.338657 30.418644 32.578648 38.338657 43.138645 47.818638 52.263462"
         y="-135.58148"
         sodipodi:role="line"
         id="tspan160">.param CF=1u</tspan><tspan
         style="font-size:8.39999962px;font-variant:normal;font-weight:bold;writing-mode:lr-tb;fill:#000000;fill-opacity:1;fill-rule:nonzero;stroke:none;font-family:Arial;-inkscape-font-specification:Arial Bold"
         x="1.7386513 3.8986549 8.6986427 13.138645 16.25864 20.698643 27.77866 29.938663 34.738651 39.538639 44.218662 48.663456 53.10825 57.553043 62.353062 64.513069 69.313057 75.673042 80.35305 84.797859 89.242661 94.042656 96.20266 101.00267 105.44265 110.24266 114.92266 119.36745 123.81226 130.89224 133.05225 138.33224 142.77225 147.21225 151.88745"
         y="-73.901489"
         sodipodi:role="line"
         id="tspan162">.param Tp=100u Tw=50u Tau=10m Vcc=5</tspan><tspan
         style="font-size:8.39999962px;font-variant:normal;font-weight:bold;writing-mode:lr-tb;fill:#000000;fill-opacity:1;fill-rule:nonzero;stroke:none;font-family:Arial;-inkscape-font-specification:Arial Bold"
         x="1.7386513 3.8986549 8.6986427 13.138645 16.25864 20.698643 27.77866 29.938663 34.738651 39.178654 43.853855 48.293858 52.73386 57.533848 60.173862 62.813847 67.613869 72.413857 74.57386 79.373863 83.81385 88.613861"
         y="-64.421494"
         sodipodi:role="line"
         id="tspan164">.param h1=exp(-Tp/Tau)</tspan><tspan
         style="font-size:8.39999962px;font-variant:normal;font-weight:bold;writing-mode:lr-tb;fill:#000000;fill-opacity:1;fill-rule:nonzero;stroke:none;font-family:Arial;-inkscape-font-specification:Arial Bold"
         x="1.7386513 3.8986549 8.6986427 13.138645 16.25864 20.698643 27.77866 29.938663 34.738651 39.178654 43.853855 48.293858 52.73386 57.533848 60.173862 64.973854 71.33387 73.493843 78.293861 82.733864 87.533844"
         y="-55.061489"
         sodipodi:role="line"
         id="tspan166">.param h2=exp(Tw/Tau)</tspan><tspan
         style="font-size:8.39999962px;font-variant:normal;font-weight:bold;writing-mode:lr-tb;fill:#000000;fill-opacity:1;fill-rule:nonzero;stroke:none;font-family:Arial;-inkscape-font-specification:Arial Bold"
         x="1.7386513 3.8986549 8.6986427 13.138645 16.25864 20.698643 27.77866 29.938663 35.218662 39.658665 44.333866 49.613865 54.053867 58.493839 61.613865 66.413857 70.853859 73.973854 76.623451 81.423454 85.863457 88.503456 92.943459 95.583458 97.761444 100.40145 104.84146 107.48146 112.28146 116.72145"
         y="-45.701488"
         sodipodi:role="line"
         id="tspan168">.param V2=Vcc*h1*(h2-1)/(1-h1)</tspan><tspan
         style="font-size:8.39999962px;font-variant:normal;font-weight:bold;writing-mode:lr-tb;fill:#000000;fill-opacity:1;fill-rule:nonzero;stroke:none;font-family:Arial;-inkscape-font-specification:Arial Bold"
         x="1.7386513 3.8986549 8.6986427 13.138645 16.25864 20.698643 27.77866 29.938663 35.218662 39.658665 44.333866 49.613865 54.053867 56.21384 58.83585 63.635838 68.075844 71.195869 75.995857 80.43586"
         y="-36.221485"
         sodipodi:role="line"
         id="tspan170">.param V1=V2/(h1*h2)</tspan><tspan
         style="font-size:8.39999962px;font-variant:normal;font-weight:bold;writing-mode:lr-tb;fill:#000000;fill-opacity:1;fill-rule:nonzero;stroke:none;font-family:Arial;-inkscape-font-specification:Arial Bold"
         x="1.7386513 3.8986549 8.6986427 13.138645 16.25864 20.698643 27.77866 29.938663 35.218662 37.858646 42.298649 47.098667 51.898655 56.578648 61.858646 66.298653 68.938667 74.218666"
         y="-26.861494"
         sodipodi:role="line"
         id="tspan172">.param Vf_pp=V1-V2</tspan><tspan
         style="font-size:8.39999962px;font-variant:normal;font-weight:bold;writing-mode:lr-tb;fill:#000000;fill-opacity:1;fill-rule:nonzero;stroke:none;font-family:Arial;-inkscape-font-specification:Arial Bold"
         x="1.7386513 3.8986549 10.978642 15.418644 19.858646 24.298649 29.098667 32.218662 36.658665 38.818638 44.098667 48.908237 53.717838 55.877842 60.67786 65.117867 68.237862 72.677864 79.757851 81.917854 87.197853 89.83786 94.277855 99.077858"
         y="-14.74149"
         sodipodi:role="line"
         id="tspan174">.measure Vpp param Vf_pp</tspan><tspan
         style="font-size:8.39999962px;font-variant:normal;font-weight:bold;writing-mode:lr-tb;fill:#000000;fill-opacity:1;fill-rule:nonzero;stroke:none;font-family:Arial;-inkscape-font-specification:Arial Bold"
         x="1.7386513 4.2586403 6.418644 13.01865 17.458652 22.25864 27.058659 29.578648 31.738651 37.01865 39.178654 43.618656 49.978642 52.138645 54.760654 57.382664 62.062656 64.222664 69.502663 74.782661 76.94265 82.70266 88.000664 90.160645 95.440651 98.560654 101.68066 106.48066 109.60065 111.76066 116.56065 121.36064"
         y="-5.3814902"
         sodipodi:role="line"
         id="tspan176">; Menu: View --&gt; SPICE Error Log</tspan><tspan
         style="font-size:8.39999962px;font-variant:normal;font-weight:bold;writing-mode:lr-tb;fill:#0000c8;fill-opacity:1;fill-rule:nonzero;stroke:none;font-family:Arial;-inkscape-font-specification:Arial Bold"
         x="4.3786659 6.5386391 10.978642 13.618656 18.058659 22.858646 25.01865 29.818638 34.25864 37.378666 41.818638 48.898655 51.058659 56.818638 61.618656 63.77866 65.938667 68.098671 72.538643 75.178658 77.356651 81.796654 83.956657 88.39666 92.836655 97.63665 99.796654 104.23666 106.39666 110.83665 115.63664 117.79665 122.23665"
         y="-127.5415"
         sodipodi:role="line"
         id="tspan178">.step param CF list 0.01u 0.1u 1u</tspan><tspan
         style="font-size:8.39999962px;font-variant:normal;font-weight:bold;writing-mode:lr-tb;fill:#0000c8;fill-opacity:1;fill-rule:nonzero;stroke:none;font-family:Arial;-inkscape-font-specification:Arial Bold"
         sodipodi:role="line"
         id="tspan180"
         y="-135.58148"
         x="372.17865 377.57864 382.37863 387.17865 390.29865 395.09863 399.53864 401.69864 408.77863 413.21863 415.85864 418.03665 422.83664 427.63663">Approximation:</tspan><tspan
         style="font-size:8.39999962px;font-variant:normal;font-weight:bold;writing-mode:lr-tb;fill:#0000c8;fill-opacity:1;fill-rule:nonzero;stroke:none;font-family:Arial;-inkscape-font-specification:Arial Bold"
         x="372.17865 374.81863 377.45865 380.09863 382.73865 385.37863 388.01865 390.65863 393.29865 395.93863 398.57864 401.21863 403.85864 406.49863 409.13864 411.77863 414.41864 417.05862 419.69864 422.33862 424.97864 427.61865"
         sodipodi:role="line"
         id="tspan182"
         y="-126.22149">----------------------</tspan><tspan
         style="font-size:8.39999962px;font-variant:normal;font-weight:bold;writing-mode:lr-tb;fill:#0000c8;fill-opacity:1;fill-rule:nonzero;stroke:none;font-family:Arial;-inkscape-font-specification:Arial Bold"
         x="372.17865"
         y="-116.74149"
         id="tspan184"> </tspan><tspan
         style="font-size:8.39999962px;font-variant:normal;font-weight:bold;writing-mode:lr-tb;fill:#0000c8;fill-opacity:1;fill-rule:nonzero;stroke:none;font-family:Arial;-inkscape-font-specification:Arial Bold"
         x="372.17865 377.45865 380.09863 384.53864 389.33865 394.13864 398.57864 405.65863 410.09863 414.53864 416.69864 421.37863 423.53864 427.97864 430.13864 434.57864 439.01865 441.17865 444.29865 446.45865 451.73865 456.17865 460.61865 462.77866 465.89865 468.05865 472.85864 477.65863 479.81863 481.97864 484.13864 488.93863 493.37863"
         sodipodi:role="line"
         id="tspan186"
         y="-107.38149">Vf_pp_max = 0.25 * Vcc * Tp / Tau</tspan><tspan
         style="font-size:8.39999962px;font-variant:normal;font-weight:bold;writing-mode:lr-tb;fill:#0000c8;fill-opacity:1;fill-rule:nonzero;stroke:none;font-family:Arial;-inkscape-font-specification:Arial Bold"
         x="372.17865"
         y="-98.021492"
         id="tspan188"> </tspan><tspan
         style="font-size:8.39999962px;font-variant:normal;font-weight:bold;writing-mode:lr-tb;fill:#0000c8;fill-opacity:1;fill-rule:nonzero;stroke:none;font-family:Arial;-inkscape-font-specification:Arial Bold"
         x="372.17865 377.45865 380.09863 384.53864 389.33865 394.13864 398.57864 405.65863 410.09863 414.53864 416.69864 421.37863 423.53864 427.97864 430.13864 434.57864 439.01865 442.13864 446.57864 449.69864 454.13864 458.57864 463.01865 467.81863 469.97864 474.41864 478.85864 485.93863 488.09863 492.77866 497.09863 501.53867 503.69864 508.13864 512.57867 517.01868 521.45868"
         y="-88.661491"
         sodipodi:role="line"
         id="tspan190">Vf_pp_max = 0.25*5*100u/10m = 0.0125V</tspan><tspan
         style="font-size:8.39999962px;font-variant:normal;font-weight:bold;writing-mode:lr-tb;fill:#0000c8;fill-opacity:1;fill-rule:nonzero;stroke:none;font-family:Arial;-inkscape-font-specification:Arial Bold"
         x="372.17865"
         y="-79.181488"
         id="tspan192"> </tspan><tspan
         style="font-size:8.39999962px;font-variant:normal;font-weight:bold;writing-mode:lr-tb;fill:#0000c8;fill-opacity:1;fill-rule:nonzero;stroke:none;font-family:Arial;-inkscape-font-specification:Arial Bold"
         x="372.17865 377.45865 380.57864 385.01865 389.45865 391.61865 396.05862 400.49863 402.65863 405.28064 410.08063 413.20062 420.28064 425.08063 427.24063 431.68063"
         y="-69.821487"
         sodipodi:role="line"
         id="tspan194">Precise formula:</tspan><tspan
         style="font-size:8.39999962px;font-variant:normal;font-weight:bold;writing-mode:lr-tb;fill:#0000c8;fill-opacity:1;fill-rule:nonzero;stroke:none;font-family:Arial;-inkscape-font-specification:Arial Bold"
         x="372.17865 374.81863 377.45865 380.09863 382.73865 385.37863 388.01865 390.65863 393.29865 395.93863 398.57864 401.21863 403.85864 406.49863 409.13864 411.77863 414.41864 417.05862 419.69864 422.33862 424.97864 427.61865 430.25864 432.89865"
         y="-60.461483"
         sodipodi:role="line"
         id="tspan196">------------------------</tspan><tspan
         style="font-size:8.39999962px;font-variant:normal;font-weight:bold;writing-mode:lr-tb;fill:#0000c8;fill-opacity:1;fill-rule:nonzero;stroke:none;font-family:Arial;-inkscape-font-specification:Arial Bold"
         x="372.17865"
         y="-50.981487"
         id="tspan198"> </tspan><tspan
         style="font-size:8.39999962px;font-variant:normal;font-weight:bold;writing-mode:lr-tb;fill:#0000c8;fill-opacity:1;fill-rule:nonzero;stroke:none;font-family:Arial;-inkscape-font-specification:Arial Bold"
         x="372.17865 376.97864 381.41864 383.57864 388.25864 390.41864 395.69864 400.97864 406.25864 408.89865 411.53864 416.33862 421.13864 423.29865 425.45865 427.61865 432.41864 436.85864 441.65863"
         y="-41.621487"
         sodipodi:role="line"
         id="tspan200">h1 = EXP(-Tp / Tau)</tspan><tspan
         style="font-size:8.39999962px;font-variant:normal;font-weight:bold;writing-mode:lr-tb;fill:#0000c8;fill-opacity:1;fill-rule:nonzero;stroke:none;font-family:Arial;-inkscape-font-specification:Arial Bold"
         x="372.17865 376.97864 381.41864 383.57864 388.25864 390.41864 395.69864 400.97864 406.25864 408.89865 413.69864 420.05862 422.21863 424.37863 426.53864 431.33862 435.77863 440.57864"
         y="-32.261486"
         sodipodi:role="line"
         id="tspan202">h2 = EXP(Tw / Tau)</tspan><tspan
         style="font-size:8.39999962px;font-variant:normal;font-weight:bold;writing-mode:lr-tb;fill:#0000c8;fill-opacity:1;fill-rule:nonzero;stroke:none;font-family:Arial;-inkscape-font-specification:Arial Bold"
         x="372.17865 377.44904 381.88904 384.04904 388.72903 390.88904 396.16904 400.60904 405.04904 407.20905 410.32904 412.48904 417.28903 421.72903 423.88904 427.00903 429.16904 431.79105 436.59103 441.03104 443.19104 445.81305 447.97302 452.41302 455.05304 457.23105 459.40903 461.58704 464.22705 468.66705 470.82703 473.44904 475.60904 480.40903 484.84903 487.48904 491.84503 494.02304 498.82303 505.18301 507.80502 512.60504 517.04504 521.48505"
         y="-22.901487"
         sodipodi:role="line"
         id="tspan204">V2 = Vcc * h1 * (h2 - 1) / (1 - h1) low-peak</tspan><tspan
         style="font-size:8.39999962px;font-variant:normal;font-weight:bold;writing-mode:lr-tb;fill:#0000c8;fill-opacity:1;fill-rule:nonzero;stroke:none;font-family:Arial;-inkscape-font-specification:Arial Bold"
         x="372.17865 377.45865 381.89865 384.05862 388.73865 390.89865 396.17865 400.61865 402.77863 404.93863 407.09863 409.72064 414.52063 418.96063 421.12064 424.24063 426.40063 431.20062 435.64063 438.28064 444.81464 449.61462 451.77463 456.57465 461.37463 464.01465 468.81464 473.25464 477.69464"
         y="-13.421491"
         sodipodi:role="line"
         id="tspan206">V1 = V2 / (h1 * h2) high-peak</tspan><tspan
         style="font-size:8.39999962px;font-variant:normal;font-weight:bold;writing-mode:lr-tb;fill:#0000c8;fill-opacity:1;fill-rule:nonzero;stroke:none;font-family:Arial;-inkscape-font-specification:Arial Bold"
         x="372.17865 377.45865 380.09863 384.53864 389.33865 394.13864 396.29865 400.97864 403.13864 408.41864 412.85864 415.01865 417.64063 419.80063 425.08063 429.52063 429.52063 429.52063 429.52063 429.52063 429.52063 429.52063 429.52063 429.52063 429.52063 429.52063 429.52063 429.52063 429.52063 429.52063 429.52063 429.52063 429.52063 429.52063 436.00064 440.80063 445.60065 448.24063 451.35104 453.52902 458.32904 463.12903 465.28903 168.05865 173.33865"
         sodipodi:role="line"
         id="tspan208"
         y="-4.0614905">Vf_pp = V1 - V2                   pp-rippleV2</tspan><tspan
         style="font-size:8.39999962px;font-variant:normal;font-weight:bold;writing-mode:lr-tb;fill:#0000c8;fill-opacity:1;fill-rule:nonzero;stroke:none;font-family:Arial;-inkscape-font-specification:Arial Bold"
         x="168.05865 173.33865"
         y="-28.181494"
         sodipodi:role="line"
         id="tspan210">V1</tspan><tspan
         style="font-size:8.39999962px;font-variant:normal;font-weight:bold;writing-mode:lr-tb;fill:#0000c8;fill-opacity:1;fill-rule:nonzero;stroke:none;font-family:Arial;-inkscape-font-specification:Arial Bold"
         x="141.29865 147.04065 151.48065 153.64066 158.08064 162.88065 165.04065 169.48065 172.12065 174.29865 179.09865 183.89865 186.05865 192.17865 194.81865 196.99664 201.79665 206.59665 211.03665 213.19666 218.47665 223.28625 225.44626 228.06825 232.50826 237.30826 241.74825 244.38826 250.14824 252.30824 257.10825 261.90823 264.06824 268.50824 270.66824 277.98825 282.78824 287.22824 292.02823 294.18823 299.94824 304.38824 306.54825 311.34824 316.14825 318.30823 323.70825 325.86826 331.62823 337.38824 340.02823 344.82825 346.98825 349.14825 351.77023 356.21024"
         y="-135.58148"
         sodipodi:role="line"
         id="tspan212">Calculation Of The Voltage-Ripple When Using A RC-Filter</tspan><tspan
         style="font-size:8.39999962px;font-variant:normal;font-weight:bold;writing-mode:lr-tb;fill:#0000c8;fill-opacity:1;fill-rule:nonzero;stroke:none;font-family:Arial;-inkscape-font-specification:Arial Bold"
         x="141.29865 143.93864 146.57864 149.21864 151.85864 154.49864 157.13864 159.77866 162.41866 165.05865 167.69865 170.33865 172.97865 175.61865 178.25865 180.89865 183.53865 186.17865 188.81865 191.45865 194.09865 196.73865 199.37865 202.01865 204.65865 207.29865 209.93866 212.57866 215.21866 217.85866 220.49866 223.13866 225.77866 228.41866 231.05865 233.69865 236.33865 238.97865 241.61865 244.25865 246.89867 249.53865 252.17867 254.81865 257.45865 260.09863 262.73865 265.37863 268.01865 270.65863 273.29865 275.93863 278.57864 281.21863 283.85864 286.49863 289.13864 291.77863 294.41864 297.05862 299.69864 302.33865 304.97864 307.61865 310.25864 312.89865 315.53864 318.17865 320.81863 323.45865 326.09863 328.73865 331.37863 334.01865 336.65863 339.29865 341.93863 344.57864 347.21863 349.85864 352.49863 355.13864"
         y="-126.22149"
         sodipodi:role="line"
         id="tspan214">----------------------------------------------------------------------------------</tspan></text>
<path
       d="m 235.25865,111.46149 -59.04,0"
       style="fill:none;stroke:#0000ff;stroke-width:0.88;stroke-linecap:butt;stroke-linejoin:miter;stroke-miterlimit:10;stroke-opacity:1;stroke-dasharray:none"
       id="path216"
       inkscape:connector-curvature="0" /><path
       d="m 176.21865,111.34149 0.12,0 0,0.12 -0.12,0 0,-0.12 z"
       style="fill:#0000ff;fill-opacity:1;fill-rule:nonzero;stroke:none"
       id="path218"
       inkscape:connector-curvature="0" /><path
       d="m 315.77865,111.46149 -53.76,0"
       style="fill:none;stroke:#0000ff;stroke-width:0.88;stroke-linecap:butt;stroke-linejoin:miter;stroke-miterlimit:10;stroke-opacity:1;stroke-dasharray:none"
       id="path220"
       inkscape:connector-curvature="0" /><path
       d="m 262.01865,111.34149 0.12,0 0,0.12 -0.12,0 0,-0.12 z"
       style="fill:#0000ff;fill-opacity:1;fill-rule:nonzero;stroke:none"
       id="path222"
       inkscape:connector-curvature="0" /><path
       d="m 331.85865,111.46149 -16.08,0"
       style="fill:none;stroke:#0000ff;stroke-width:0.88;stroke-linecap:butt;stroke-linejoin:miter;stroke-miterlimit:10;stroke-opacity:1;stroke-dasharray:none"
       id="path224"
       inkscape:connector-curvature="0" /><path
       d="m 315.77865,111.34149 0.12,0 0,0.12 -0.12,0 0,-0.12 z"
       style="fill:#0000ff;fill-opacity:1;fill-rule:nonzero;stroke:none"
       id="path226"
       inkscape:connector-curvature="0" /><path
       d="m 176.21865,95.381488 0,16.080002"
       style="fill:none;stroke:#0000ff;stroke-width:0.88;stroke-linecap:butt;stroke-linejoin:miter;stroke-miterlimit:10;stroke-opacity:1;stroke-dasharray:none"
       id="path228"
       inkscape:connector-curvature="0" /><path
       d="m 176.21865,111.34149 0.12,0 0,0.12 -0.12,0 0,-0.12 z"
       style="fill:#0000ff;fill-opacity:1;fill-rule:nonzero;stroke:none"
       id="path230"
       inkscape:connector-curvature="0" /><path
       d="m 315.77865,95.381488 0,16.080002"
       style="fill:none;stroke:#0000ff;stroke-width:0.88;stroke-linecap:butt;stroke-linejoin:miter;stroke-miterlimit:10;stroke-opacity:1;stroke-dasharray:none"
       id="path232"
       inkscape:connector-curvature="0" /><path
       d="m 315.77865,111.34149 0.12,0 0,0.12 -0.12,0 0,-0.12 z"
       style="fill:#0000ff;fill-opacity:1;fill-rule:nonzero;stroke:none"
       id="path234"
       inkscape:connector-curvature="0" /><path
       d="m 176.21865,52.421489 0,16.08"
       style="fill:none;stroke:#0000ff;stroke-width:0.88;stroke-linecap:butt;stroke-linejoin:miter;stroke-miterlimit:10;stroke-opacity:1;stroke-dasharray:none"
       id="path236"
       inkscape:connector-curvature="0" /><path
       d="m 176.21865,68.381489 0.12,0 0,0.12 -0.12,0 0,-0.12 z"
       style="fill:#0000ff;fill-opacity:1;fill-rule:nonzero;stroke:none"
       id="path238"
       inkscape:connector-curvature="0" /><path
       d="m 315.77865,52.421489 0,21.48"
       style="fill:none;stroke:#0000ff;stroke-width:0.88;stroke-linecap:butt;stroke-linejoin:miter;stroke-miterlimit:10;stroke-opacity:1;stroke-dasharray:none"
       id="path240"
       inkscape:connector-curvature="0" /><path
       d="m 315.77865,73.781489 0.12,0 0,0.12 -0.12,0 0,-0.12 z"
       style="fill:#0000ff;fill-opacity:1;fill-rule:nonzero;stroke:none"
       id="path242"
       inkscape:connector-curvature="0" /><path
       d="m 314.45865,110.02149 2.76,0 0,2.76 -2.76,0 0,-2.76 z"
       style="fill:#0000ff;fill-opacity:1;fill-rule:nonzero;stroke:none"
       id="path244"
       inkscape:connector-curvature="0" /></g></svg>