<?xml version="1.0" encoding="UTF-8" standalone="no"?>
<!-- Created with Inkscape (http://www.inkscape.org/) -->

<svg
   xmlns:dc="http://purl.org/dc/elements/1.1/"
   xmlns:cc="http://creativecommons.org/ns#"
   xmlns:rdf="http://www.w3.org/1999/02/22-rdf-syntax-ns#"
   xmlns:svg="http://www.w3.org/2000/svg"
   xmlns="http://www.w3.org/2000/svg"
   xmlns:sodipodi="http://sodipodi.sourceforge.net/DTD/sodipodi-0.dtd"
   xmlns:inkscape="http://www.inkscape.org/namespaces/inkscape"
   id="svg10662"
   version="1.1"
   inkscape:version="0.48.1 "
   width="300"
   height="260"
   xml:space="preserve"
   sodipodi:docname="PWM_DAC_RC.svg"><metadata
     id="metadata10668"><rdf:RDF><cc:Work
         rdf:about=""><dc:format>image/svg+xml</dc:format><dc:type
           rdf:resource="http://purl.org/dc/dcmitype/StillImage" /><dc:title></dc:title></cc:Work></rdf:RDF></metadata><defs
     id="defs10666" /><sodipodi:namedview
     pagecolor="#ffffff"
     bordercolor="#666666"
     borderopacity="1"
     objecttolerance="10"
     gridtolerance="10"
     guidetolerance="10"
     inkscape:pageopacity="0"
     inkscape:pageshadow="2"
     inkscape:window-width="1920"
     inkscape:window-height="1125"
     id="namedview10664"
     showgrid="false"
     inkscape:zoom="2.5677966"
     inkscape:cx="83.832373"
     inkscape:cy="120.47609"
     inkscape:window-x="-9"
     inkscape:window-y="-9"
     inkscape:window-maximized="1"
     inkscape:current-layer="g10670" /><g
     id="g10670"
     inkscape:groupmode="layer"
     inkscape:label="skici"
     transform="matrix(1.25,0,0,-1.25,0,260)"><path
       d="m 50.83237,11.202379 0,166.200001"
       style="fill:none;stroke:#000000;stroke-width:1.5;stroke-linecap:round;stroke-linejoin:round;stroke-miterlimit:10;stroke-opacity:1;stroke-dasharray:none"
       id="path10672"
       inkscape:connector-curvature="0" /><path
       d="m 8.8323704,41.80238 85.1999996,0 0,113.4 -85.1999996,0 0,-113.4 z"
       style="fill:#a5a5a5;fill-opacity:1;fill-rule:evenodd;stroke:none"
       id="path10674"
       inkscape:connector-curvature="0" /><path
       d="m 8.8323704,41.80238 85.1999996,0 0,113.4 -85.1999996,0 0,-113.4 z"
       style="fill:none;stroke:#000000;stroke-width:0.72000003;stroke-linecap:round;stroke-linejoin:round;stroke-miterlimit:10;stroke-opacity:1;stroke-dasharray:none"
       id="path10676"
       inkscape:connector-curvature="0" /><path
       d="m 130.63237,38.00238 11.4,0"
       style="fill:none;stroke:#000000;stroke-width:2.25;stroke-linecap:round;stroke-linejoin:round;stroke-miterlimit:10;stroke-opacity:1;stroke-dasharray:none"
       id="path10678"
       inkscape:connector-curvature="0" /><path
       d="m 130.63237,35.00238 11.4,0"
       style="fill:none;stroke:#000000;stroke-width:2.25;stroke-linecap:round;stroke-linejoin:round;stroke-miterlimit:10;stroke-opacity:1;stroke-dasharray:none"
       id="path10680"
       inkscape:connector-curvature="0" /><path
       d="m 136.63237,39.20238 0,26.4"
       style="fill:none;stroke:#000000;stroke-width:1.5;stroke-linecap:round;stroke-linejoin:round;stroke-miterlimit:10;stroke-opacity:1;stroke-dasharray:none"
       id="path10682"
       inkscape:connector-curvature="0" /><path
       d="m 136.63237,33.80238 0,-14.4"
       style="fill:none;stroke:#000000;stroke-width:1.5;stroke-linecap:round;stroke-linejoin:round;stroke-miterlimit:10;stroke-opacity:1;stroke-dasharray:none"
       id="path10684"
       inkscape:connector-curvature="0" /><path
       d="m 138.24237,64.98238 c 0,0.99 -0.83,1.79 -1.85,1.79 -1.03,0 -1.86,-0.8 -1.86,-1.79 0,-0.99 0.83,-1.79 1.86,-1.79 1.02,0 1.85,0.8 1.85,1.79 z"
       style="fill:#000000;fill-opacity:1;fill-rule:evenodd;stroke:none"
       id="path10686"
       inkscape:connector-curvature="0" /><path
       d="m 138.24237,64.98238 c 0,0.99 -0.83,1.79 -1.85,1.79 -1.03,0 -1.86,-0.8 -1.86,-1.79 0,-0.99 0.83,-1.79 1.86,-1.79 1.02,0 1.85,0.8 1.85,1.79 z"
       style="fill:none;stroke:#000000;stroke-width:0.72000003;stroke-linecap:round;stroke-linejoin:round;stroke-miterlimit:10;stroke-opacity:1;stroke-dasharray:none"
       id="path10688"
       inkscape:connector-curvature="0" /><path
       d="m 94.03237,65.60238 78,0"
       style="fill:none;stroke:#000000;stroke-width:1.5;stroke-linecap:round;stroke-linejoin:round;stroke-miterlimit:10;stroke-opacity:1;stroke-dasharray:none"
       id="path10690"
       inkscape:connector-curvature="0" /><path
       d="m 106.03237,62.00238 18.6,0 0,7.2 -18.6,0 0,-7.2 z"
       style="fill:#ffffff;fill-opacity:1;fill-rule:evenodd;stroke:none"
       id="path10692"
       inkscape:connector-curvature="0" /><path
       d="m 106.03237,62.00238 18.6,0 0,7.2 -18.6,0 0,-7.2 z"
       style="fill:none;stroke:#000000;stroke-width:1;stroke-linecap:round;stroke-linejoin:round;stroke-miterlimit:10;stroke-opacity:1;stroke-dasharray:none"
       id="path10694"
       inkscape:connector-curvature="0" /><text
       transform="scale(1,-1)"
       id="text10696"
       x="62.652374"
       y="-62.602386"><tspan
         style="font-size:10.00008011px;font-variant:normal;font-weight:normal;writing-mode:lr-tb;fill:#000000;fill-opacity:1;fill-rule:nonzero;stroke:none;font-family:ARIAL;-inkscape-font-specification:ARIAL"
         x="62.652374 69.322449 78.760925"
         y="-62.602386"
         sodipodi:role="line"
         id="tspan10698">PWM</tspan></text>
<text
       transform="scale(1,-1)"
       id="text10700"
       x="31.002373"
       y="-95.792381"><tspan
         style="font-size:18px;font-variant:normal;font-weight:normal;writing-mode:lr-tb;fill:#000000;fill-opacity:1;fill-rule:nonzero;stroke:none;font-family:ARIAL;-inkscape-font-specification:ARIAL"
         x="31.002373 45.996368 58.995255"
         y="-95.792381"
         sodipodi:role="line"
         id="tspan10702">MCU</tspan></text>
<path
       d="m 55.47237,181.79238 c 0,2.41 -1.95,4.36 -4.36,4.36 -2.41,0 -4.36,-1.95 -4.36,-4.36 0,-2.41 1.95,-4.36 4.36,-4.36 2.41,0 4.36,1.95 4.36,4.36 z"
       style="fill:#ffffff;fill-opacity:1;fill-rule:evenodd;stroke:none"
       id="path10704"
       inkscape:connector-curvature="0" /><path
       d="m 55.47237,181.79238 c 0,2.41 -1.95,4.36 -4.36,4.36 -2.41,0 -4.36,-1.95 -4.36,-4.36 0,-2.41 1.95,-4.36 4.36,-4.36 2.41,0 4.36,1.95 4.36,4.36 z"
       style="fill:none;stroke:#000000;stroke-width:2.16000009;stroke-linecap:round;stroke-linejoin:round;stroke-miterlimit:10;stroke-opacity:1;stroke-dasharray:none"
       id="path10706"
       inkscape:connector-curvature="0" /><text
       transform="scale(1,-1)"
       id="text10708"
       x="42.022369"
       y="-190.22238"><tspan
         style="font-size:18px;font-variant:normal;font-weight:normal;writing-mode:lr-tb;fill:#9d3d35;fill-opacity:1;fill-rule:nonzero;stroke:none;font-family:ARIAL;-inkscape-font-specification:ARIAL"
         x="42.022369"
         y="-190.22238"
         id="tspan10710">5</tspan></text>
<text
       transform="scale(1,-1)"
       id="text10712"
       x="52.032364"
       y="-190.22238"><tspan
         style="font-size:18px;font-variant:normal;font-weight:normal;writing-mode:lr-tb;fill:#9d3d35;fill-opacity:1;fill-rule:nonzero;stroke:none;font-family:ARIAL;-inkscape-font-specification:ARIAL"
         x="52.032364"
         y="-190.22238"
         id="tspan10714">V</tspan></text>
<path
       d="m 46.63237,16.002379 9,0 -4.8,-9.0000003 -4.2,9.0000003 z"
       style="fill:#ffffff;fill-opacity:1;fill-rule:evenodd;stroke:none"
       id="path10716"
       inkscape:connector-curvature="0" /><path
       d="m 46.63237,16.002379 9,0 -4.8,-9.0000003 -4.2,9.0000003 z"
       style="fill:none;stroke:#000000;stroke-width:1.5;stroke-linecap:round;stroke-linejoin:round;stroke-miterlimit:10;stroke-opacity:1;stroke-dasharray:none"
       id="path10718"
       inkscape:connector-curvature="0" /><text
       transform="scale(1,-1)"
       id="text10720"
       x="113.78236"
       y="-72.602341"><tspan
         style="font-size:10.00008011px;font-variant:normal;font-weight:normal;writing-mode:lr-tb;fill:#000000;fill-opacity:1;fill-rule:nonzero;stroke:none;font-family:ARIAL;-inkscape-font-specification:ARIAL"
         x="113.78236"
         y="-72.602341"
         id="tspan10722">R</tspan></text>
<text
       transform="scale(1,-1)"
       id="text10724"
       x="149.21237"
       y="-31.342443"><tspan
         style="font-size:10.00008011px;font-variant:normal;font-weight:normal;writing-mode:lr-tb;fill:#000000;fill-opacity:1;fill-rule:nonzero;stroke:none;font-family:ARIAL;-inkscape-font-specification:ARIAL"
         x="149.21237"
         y="-31.342443"
         id="tspan10726">C</tspan></text>
<path
       d="m 179.06237,65.60238 c 0,2.4 -1.95,4.36 -4.36,4.36 -2.41,0 -4.36,-1.96 -4.36,-4.36 0,-2.41 1.95,-4.37 4.36,-4.37 2.41,0 4.36,1.96 4.36,4.37 z"
       style="fill:#ffffff;fill-opacity:1;fill-rule:evenodd;stroke:none"
       id="path10728"
       inkscape:connector-curvature="0" /><path
       d="m 179.06237,65.60238 c 0,2.4 -1.95,4.36 -4.36,4.36 -2.41,0 -4.36,-1.96 -4.36,-4.36 0,-2.41 1.95,-4.37 4.36,-4.37 2.41,0 4.36,1.96 4.36,4.37 z"
       style="fill:none;stroke:#000000;stroke-width:2.16000009;stroke-linecap:round;stroke-linejoin:round;stroke-miterlimit:10;stroke-opacity:1;stroke-dasharray:none"
       id="path10730"
       inkscape:connector-curvature="0" /><path
       d="m 131.83237,17.60238 9,0 -4.2,-8.4 -4.8,8.4 z"
       style="fill:#ffffff;fill-opacity:1;fill-rule:evenodd;stroke:none"
       id="path10732"
       inkscape:connector-curvature="0" /><path
       d="m 131.83237,17.60238 9,0 -4.2,-8.4 -4.8,8.4 z"
       style="fill:none;stroke:#000000;stroke-width:1.5;stroke-linecap:round;stroke-linejoin:round;stroke-miterlimit:10;stroke-opacity:1;stroke-dasharray:none"
       id="path10734"
       inkscape:connector-curvature="0" /><path
       style="fill:none;stroke:#d90000;stroke-width:2;stroke-linecap:butt;stroke-linejoin:miter;stroke-miterlimit:4;stroke-opacity:1;stroke-dasharray:none"
       d="m 240.28383,177.82838 c 2.00099,-12.46319 5.83321,-30.63971 12.68073,-30.6732 6.84752,-0.0335 9.72544,14.23475 11.92089,28.21986 2.19545,13.9851 5.5688,26.53209 11.63374,26.6841 6.06495,0.15202 9.39355,-13.21426 12.61121,-30.01782"
       id="path10736"
       inkscape:connector-curvature="0"
       transform="matrix(0.8,0,0,-0.8,0,208)"
       sodipodi:nodetypes="czzzc" /></g></svg>