<?xml version="1.0" encoding="UTF-8" standalone="no"?>
<!-- Created with Inkscape (http://www.inkscape.org/) -->

<svg
   xmlns:dc="http://purl.org/dc/elements/1.1/"
   xmlns:cc="http://creativecommons.org/ns#"
   xmlns:rdf="http://www.w3.org/1999/02/22-rdf-syntax-ns#"
   xmlns:svg="http://www.w3.org/2000/svg"
   xmlns="http://www.w3.org/2000/svg"
   xmlns:sodipodi="http://sodipodi.sourceforge.net/DTD/sodipodi-0.dtd"
   xmlns:inkscape="http://www.inkscape.org/namespaces/inkscape"
   id="svg2993"
   version="1.1"
   inkscape:version="0.48.1 "
   width="420"
   height="180"
   xml:space="preserve"
   sodipodi:docname="PWM_sig.svg"><title
     id="title3109">PWM signal</title><metadata
     id="metadata2999"><rdf:RDF><cc:Work
         rdf:about=""><dc:format>image/svg+xml</dc:format><dc:type
           rdf:resource="http://purl.org/dc/dcmitype/StillImage" /><dc:title>PWM signal</dc:title></cc:Work></rdf:RDF></metadata><defs
     id="defs2997" /><sodipodi:namedview
     pagecolor="#ffffff"
     bordercolor="#666666"
     borderopacity="1"
     objecttolerance="10"
     gridtolerance="10"
     guidetolerance="10"
     inkscape:pageopacity="0"
     inkscape:pageshadow="2"
     inkscape:window-width="1831"
     inkscape:window-height="1173"
     id="namedview2995"
     showgrid="false"
     inkscape:zoom="2.2632397"
     inkscape:cx="246.56967"
     inkscape:cy="112.94672"
     inkscape:window-x="80"
     inkscape:window-y="-9"
     inkscape:window-maximized="1"
     inkscape:current-layer="g3001" /><g
     id="g3001"
     inkscape:groupmode="layer"
     inkscape:label="skici"
     transform="matrix(1.25,0,0,-1.25,0,180)"><path
   d="m 2.992288,87.39608 302.999992,0"
   style="fill:none;stroke:#000000;stroke-width:0.72000003;stroke-linecap:round;stroke-linejoin:round;stroke-miterlimit:10;stroke-opacity:1;stroke-dasharray:none"
   id="path3003"
   inkscape:connector-curvature="0" /><path
   d="m 304.79228,90.99608 10.2,-3.6 -10.2,-3 0,6.6 z"
   style="fill:#000000;fill-opacity:1;fill-rule:evenodd;stroke:none"
   id="path3005"
   inkscape:connector-curvature="0" /><path
   d="m 2.992288,94.59608 28.2,0 0,42.6 99.600002,0 0,-42.6 42,0 0,42.6 71.4,0 0,-42.6 44.99999,0"
   style="fill:none;stroke:#9c4a09;stroke-width:1.5;stroke-linecap:round;stroke-linejoin:round;stroke-miterlimit:10;stroke-opacity:1;stroke-dasharray:none"
   id="path3007"
   inkscape:connector-curvature="0" /><path
   d="m 187.19229,87.39608 27,0 -27,0 z m 0,49.8 27,0 -27,0 z"
   style="fill:#ffffff;fill-opacity:1;fill-rule:evenodd;stroke:none"
   id="path3009"
   inkscape:connector-curvature="0" /><path
   d="m 187.19229,87.39608 27,0 -27,0 m 0,49.8 27,0 -27,0"
   style="fill:none;stroke:#000000;stroke-width:0.23999999;stroke-linecap:round;stroke-linejoin:round;stroke-miterlimit:10;stroke-opacity:1;stroke-dasharray:none"
   id="path3011"
   inkscape:connector-curvature="0" /><path
   d="m 201.59229,112.59608 0,-19.2 m 0,19.2 0,19.2"
   style="fill:none;stroke:#000000;stroke-width:0.23999999;stroke-linecap:round;stroke-linejoin:round;stroke-miterlimit:10;stroke-opacity:1;stroke-dasharray:none"
   id="path3013"
   inkscape:connector-curvature="0" /><path
   d="m 203.39229,93.39608 -1.8,-6 -2.4,6 4.2,0 z"
   style="fill:#000000;fill-opacity:1;fill-rule:evenodd;stroke:none"
   id="path3015"
   inkscape:connector-curvature="0" /><path
   d="m 199.19229,131.19608 2.4,6 1.8,-6 -4.2,0 z"
   style="fill:#000000;fill-opacity:1;fill-rule:evenodd;stroke:none"
   id="path3017"
   inkscape:connector-curvature="0" /><path
   d="m 181.19229,104.19608 17.4,0 0,16.2 -17.4,0 0,-16.2 z"
   style="fill:#ffffff;fill-opacity:1;fill-rule:evenodd;stroke:none"
   id="path3019"
   inkscape:connector-curvature="0" />

<path
   d="m 252.59229,87.39608 26.99999,0 -26.99999,0 z m 0,7.2 29.99999,0 -29.99999,0 z m 13.8,-7.2 0,-21.599999 0,21.599999 z"
   style="fill:#ffffff;fill-opacity:1;fill-rule:evenodd;stroke:none"
   id="path3029"
   inkscape:connector-curvature="0" /><path
   d="m 252.59229,87.39608 26.99999,0 -26.99999,0 m 0,7.2 29.99999,0 -29.99999,0 m 13.8,-7.2 0,-21.599999 0,21.599999"
   style="fill:none;stroke:#000000;stroke-width:0.23999999;stroke-linecap:round;stroke-linejoin:round;stroke-miterlimit:10;stroke-opacity:1;stroke-dasharray:none"
   id="path3031"
   inkscape:connector-curvature="0" /><path
   d="m 266.39229,75.396081 0,6.599999 m 0,24.6 0,-6.6"
   style="fill:none;stroke:#000000;stroke-width:0.23999999;stroke-linecap:round;stroke-linejoin:round;stroke-miterlimit:10;stroke-opacity:1;stroke-dasharray:none"
   id="path3033"
   inkscape:connector-curvature="0" /><path
   d="m 264.59229,81.39608 1.8,6 2.4,-6 -4.2,0 z"
   style="fill:#000000;fill-opacity:1;fill-rule:evenodd;stroke:none"
   id="path3035"
   inkscape:connector-curvature="0" /><path
   d="m 268.79229,100.59608 -2.4,-6 -1.8,6 4.2,0 z"
   style="fill:#000000;fill-opacity:1;fill-rule:evenodd;stroke:none"
   id="path3037"
   inkscape:connector-curvature="0" />

<path
   d="m 31.192288,45.396081 0,41.999999 0,-41.999999 z m 99.600002,0 0,41.999999 0,-41.999999 z"
   style="fill:#ffffff;fill-opacity:1;fill-rule:evenodd;stroke:none"
   id="path3049"
   inkscape:connector-curvature="0" /><path
   d="m 31.192288,45.39608 0,58.61335 0,-58.61335 m 99.600002,0 0,58.61335 0,-58.61335"
   style="fill:none;stroke:#000000;stroke-width:0.23999999;stroke-linecap:round;stroke-linejoin:round;stroke-miterlimit:10;stroke-opacity:1;stroke-dasharray:none"
   id="path3051"
   inkscape:connector-curvature="0" /><path
   d="m 80.99229,59.196081 -43.800002,0 m 43.800002,0 43.8,0"
   style="fill:none;stroke:#000000;stroke-width:0.23999999;stroke-linecap:round;stroke-linejoin:round;stroke-miterlimit:10;stroke-opacity:1;stroke-dasharray:none"
   id="path3053"
   inkscape:connector-curvature="0" /><path
   d="m 37.192288,57.396081 -6,1.8 6,1.8 0,-3.6 z"
   style="fill:#000000;fill-opacity:1;fill-rule:evenodd;stroke:none"
   id="path3055"
   inkscape:connector-curvature="0" /><path
   d="m 124.19229,60.996081 6.6,-1.8 -6.6,-1.8 0,3.6 z"
   style="fill:#000000;fill-opacity:1;fill-rule:evenodd;stroke:none"
   id="path3057"
   inkscape:connector-curvature="0" /><path
   d="m 75.592288,40.596081 13.200002,0 0,17.4 -13.200002,0 0,-17.4 z"
   style="fill:#ffffff;fill-opacity:1;fill-rule:evenodd;stroke:none"
   id="path3059"
   inkscape:connector-curvature="0" />

<path
   d="m 130.79229,45.396081 0,41.999999 0,-41.999999 z m 42,0 0,41.999999 0,-41.999999 z"
   style="fill:#ffffff;fill-opacity:1;fill-rule:evenodd;stroke:none"
   id="path3069"
   inkscape:connector-curvature="0" /><path
   d="m 130.79229,45.396081 0,54.371644 0,-54.371644 m 42,0 0,54.371644 0,-54.371644"
   style="fill:none;stroke:#000000;stroke-width:0.23999998;stroke-linecap:round;stroke-linejoin:round;stroke-miterlimit:10;stroke-opacity:1;stroke-dasharray:none"
   id="path3071"
   inkscape:connector-curvature="0" /><path
   d="m 151.79229,59.196081 -15.6,0 m 15.6,0 15.6,0"
   style="fill:none;stroke:#000000;stroke-width:0.23999999;stroke-linecap:round;stroke-linejoin:round;stroke-miterlimit:10;stroke-opacity:1;stroke-dasharray:none"
   id="path3073"
   inkscape:connector-curvature="0" /><path
   d="m 136.79229,57.396081 -6,1.8 6,1.8 0,-3.6 z"
   style="fill:#000000;fill-opacity:1;fill-rule:evenodd;stroke:none"
   id="path3075"
   inkscape:connector-curvature="0" /><path
   d="m 166.79229,60.996081 6,-1.8 -6,-1.8 0,3.6 z"
   style="fill:#000000;fill-opacity:1;fill-rule:evenodd;stroke:none"
   id="path3077"
   inkscape:connector-curvature="0" /><path
   d="m 145.79229,40.596081 13.2,0 0,17.4 -13.2,0 0,-17.4 z"
   style="fill:#ffffff;fill-opacity:1;fill-rule:evenodd;stroke:none"
   id="path3079"
   inkscape:connector-curvature="0" /><text
   transform="scale(1,-1)"
   id="text3081"
   x="145.51219"
   y="-39.076164"><tspan
     style="font-size:13.99967957px;font-variant:normal;font-weight:normal;writing-mode:lr-tb;fill:#000000;fill-opacity:1;fill-rule:nonzero;stroke:none;font-family:ARIAL;-inkscape-font-specification:ARIAL"
     x="145.51219"
     y="-39.076164"
     id="tspan3083" /></text>

<text
   transform="scale(1,-1)"
   id="text3085"
   x="154.06218"
   y="-37.146111"><tspan
     style="font-size:9.09864044px;font-variant:normal;font-weight:normal;writing-mode:lr-tb;fill:#000000;fill-opacity:1;fill-rule:nonzero;stroke:none;font-family:ARIAL;-inkscape-font-specification:ARIAL"
     x="154.06218"
     y="-37.146111"
     id="tspan3087" /></text>

<path
   d="m 31.192288,9.996081 0,42 0,-42 z m 141.600002,0 0,42 0,-42 z"
   style="fill:#ffffff;fill-opacity:1;fill-rule:evenodd;stroke:none"
   id="path3089"
   inkscape:connector-curvature="0" /><path
   d="m 31.192288,9.996081 0,42 0,-42 m 141.600002,0 0,42 0,-42"
   style="fill:none;stroke:#000000;stroke-width:0.23999999;stroke-linecap:round;stroke-linejoin:round;stroke-miterlimit:10;stroke-opacity:1;stroke-dasharray:none"
   id="path3091"
   inkscape:connector-curvature="0" /><path
   d="m 101.99229,23.796081 -64.800002,0 m 64.800002,0 65.4,0"
   style="fill:none;stroke:#000000;stroke-width:0.23999999;stroke-linecap:round;stroke-linejoin:round;stroke-miterlimit:10;stroke-opacity:1;stroke-dasharray:none"
   id="path3093"
   inkscape:connector-curvature="0" /><path
   d="m 37.192288,21.996081 -6,1.8 6,1.8 0,-3.6 z"
   style="fill:#000000;fill-opacity:1;fill-rule:evenodd;stroke:none"
   id="path3095"
   inkscape:connector-curvature="0" /><path
   d="m 166.79229,25.596081 6,-1.8 -6,-1.8 0,3.6 z"
   style="fill:#000000;fill-opacity:1;fill-rule:evenodd;stroke:none"
   id="path3097"
   inkscape:connector-curvature="0" /><path
   d="m 99.59229,5.796081 8.4,0 0,16.8 -8.4,0 0,-16.8 z"
   style="fill:#ffffff;fill-opacity:1;fill-rule:evenodd;stroke:none"
   id="path3099"
   inkscape:connector-curvature="0" />
<text
   transform="scale(1,-1)"
   id="text3105"
   x="318.8222"
   y="-81.726158"><tspan
     style="font-size:18px;font-variant:normal;font-weight:normal;writing-mode:lr-tb;fill:#000000;fill-opacity:1;fill-rule:nonzero;stroke:none;font-family:ARIAL;-inkscape-font-specification:ARIAL"
     x="318.8222"
     y="-81.726158"
     id="tspan3107">t</tspan></text>

<flowRoot
   xml:space="preserve"
   id="flowRoot3036"
   style="fill:black;stroke:none;stroke-opacity:1;stroke-width:1px;stroke-linejoin:miter;stroke-linecap:butt;fill-opacity:1;font-family:Freestyle Script;font-style:normal;font-weight:normal;font-size:40px;line-height:125%;letter-spacing:0px;word-spacing:0px;-inkscape-font-specification:Freestyle Script;font-stretch:normal;font-variant:normal;text-anchor:start;text-align:start;writing-mode:lr"><flowRegion
     id="flowRegion3038"><rect
       id="rect3040"
       width="49.044739"
       height="41.533382"
       x="83.066765"
       y="104.88644" /></flowRegion><flowPara
     id="flowPara3042"></flowPara></flowRoot><path
   d="m 111.37797,24.21067 13.2,0 0,17.4 -13.2,0 0,-17.4 z"
   style="fill:#ffffff;fill-opacity:1;fill-rule:evenodd;stroke:none"
   id="path3059-1"
   inkscape:connector-curvature="0" /><text
   xml:space="preserve"
   style="font-size:19.83183861px;font-style:normal;font-variant:normal;font-weight:normal;font-stretch:normal;text-align:start;line-height:125%;letter-spacing:0px;word-spacing:0px;writing-mode:lr-tb;text-anchor:start;fill:#000000;fill-opacity:1;stroke:none;font-family:Freestyle Script;-inkscape-font-specification:Freestyle Script"
   x="134.53853"
   y="-42.110897"
   id="text3074"
   sodipodi:linespacing="125%"
   transform="scale(1,-1)"><tspan
     sodipodi:role="line"
     id="tspan3076"
     x="134.53853"
     y="-42.110897">Tp-Tw</tspan></text>
<text
   xml:space="preserve"
   style="font-size:19.83183861px;font-style:normal;font-variant:normal;font-weight:normal;font-stretch:normal;text-align:start;line-height:125%;letter-spacing:0px;word-spacing:0px;writing-mode:lr-tb;text-anchor:start;fill:#000000;fill-opacity:1;stroke:none;font-family:Freestyle Script;-inkscape-font-specification:Freestyle Script"
   x="73.585236"
   y="-42.244152"
   id="text3074-0"
   sodipodi:linespacing="125%"
   transform="scale(1,-1)"><tspan
     sodipodi:role="line"
     id="tspan3076-4"
     x="73.585236"
     y="-42.244152">Tw</tspan></text>
<text
   xml:space="preserve"
   style="font-size:19.83183861px;font-style:normal;font-variant:normal;font-weight:normal;font-stretch:normal;text-align:start;line-height:125%;letter-spacing:0px;word-spacing:0px;writing-mode:lr-tb;text-anchor:start;fill:#000000;fill-opacity:1;stroke:none;font-family:Freestyle Script;-inkscape-font-specification:Freestyle Script"
   x="96.566765"
   y="-6.9082398"
   id="text3074-0-8"
   sodipodi:linespacing="125%"
   transform="scale(1,-1)"><tspan
     sodipodi:role="line"
     id="tspan3076-4-3"
     x="96.566765"
     y="-6.9082398">Tp</tspan></text>
<text
   xml:space="preserve"
   style="font-size:19.83183861px;font-style:normal;font-variant:normal;font-weight:normal;font-stretch:normal;text-align:start;line-height:125%;letter-spacing:0px;word-spacing:0px;writing-mode:lr-tb;text-anchor:start;fill:#000000;fill-opacity:1;stroke:none;font-family:Freestyle Script;-inkscape-font-specification:Freestyle Script"
   x="105.34383"
   y="197.52017"
   id="text3074-0-2"
   sodipodi:linespacing="125%"
   transform="matrix(0,1,1,0,0,0)"><tspan
     sodipodi:role="line"
     id="tspan3076-4-5"
     x="105.34383"
     y="197.52017">Uh</tspan></text>
<text
   xml:space="preserve"
   style="font-size:19.83183861px;font-style:normal;font-variant:normal;font-weight:normal;font-stretch:normal;text-align:start;line-height:125%;letter-spacing:0px;word-spacing:0px;writing-mode:lr-tb;text-anchor:start;fill:#000000;fill-opacity:1;stroke:none;font-family:Freestyle Script;-inkscape-font-specification:Freestyle Script"
   x="47.474236"
   y="273.94867"
   id="text3074-0-2-9"
   sodipodi:linespacing="125%"
   transform="matrix(0,1,1,0,0,0)"><tspan
     sodipodi:role="line"
     id="tspan3076-4-5-8"
     x="47.474236"
     y="273.94867">Ul</tspan></text>
</g></svg>