<?xml version="1.0" encoding="UTF-8" standalone="no"?>
<!-- Created with Inkscape (http://www.inkscape.org/) -->

<svg
   xmlns:dc="http://purl.org/dc/elements/1.1/"
   xmlns:cc="http://creativecommons.org/ns#"
   xmlns:rdf="http://www.w3.org/1999/02/22-rdf-syntax-ns#"
   xmlns:svg="http://www.w3.org/2000/svg"
   xmlns="http://www.w3.org/2000/svg"
   xmlns:sodipodi="http://sodipodi.sourceforge.net/DTD/sodipodi-0.dtd"
   xmlns:inkscape="http://www.inkscape.org/namespaces/inkscape"
   id="svg4032"
   version="1.1"
   inkscape:version="0.48.1 "
   width="1250"
   height="860"
   xml:space="preserve"
   sodipodi:docname="skici.pdf"><metadata
     id="metadata4038"><rdf:RDF><cc:Work
         rdf:about=""><dc:format>image/svg+xml</dc:format><dc:type
           rdf:resource="http://purl.org/dc/dcmitype/StillImage" /><dc:title></dc:title></cc:Work></rdf:RDF></metadata><defs
     id="defs4036" /><sodipodi:namedview
     pagecolor="#ffffff"
     bordercolor="#666666"
     borderopacity="1"
     objecttolerance="10"
     gridtolerance="10"
     guidetolerance="10"
     inkscape:pageopacity="0"
     inkscape:pageshadow="2"
     inkscape:window-width="1831"
     inkscape:window-height="1173"
     id="namedview4034"
     showgrid="false"
     inkscape:zoom="1.0833333"
     inkscape:cx="700"
     inkscape:cy="450"
     inkscape:window-x="80"
     inkscape:window-y="-9"
     inkscape:window-maximized="1"
     inkscape:current-layer="g4040" /><g
     id="g4040"
     inkscape:groupmode="layer"
     inkscape:label="skici"
     transform="matrix(1.25,0,0,-1.25,0,860)"><path
       d="m 708.79221,491.77742 c 0,101.76 -120.57,184.25 -269.29,184.25 -148.73,0 -269.29,-82.49 -269.29,-184.25 0,-101.76 120.56,-184.25 269.29,-184.25 148.72,0 269.29,82.49 269.29,184.25 z"
       style="fill:#dbeef3;fill-opacity:1;fill-rule:evenodd;stroke:none"
       id="path4042"
       inkscape:connector-curvature="0" /><g
       id="g4044"
       transform="translate(-2806.1678,-3599.3226)"><path
         d="m 3514.96,4091.1 c 0,101.76 -120.57,184.25 -269.29,184.25 -148.73,0 -269.29,-82.49 -269.29,-184.25 0,-101.76 120.56,-184.25 269.29,-184.25 148.72,0 269.29,82.49 269.29,184.25 z"
         style="fill:none;stroke:#000000;stroke-width:0.72000003;stroke-linecap:round;stroke-linejoin:round;stroke-miterlimit:10;stroke-opacity:1;stroke-dasharray:5.04, 3.6;stroke-dashoffset:0"
         id="path4046"
         inkscape:connector-curvature="0" /></g><path
       d="m 606.74221,130.35742 c 0,50.88 -76.14,92.13 -170.08,92.13 -93.93,0 -170.07,-41.25 -170.07,-92.13 0,-50.87 76.14,-92.12 170.07,-92.12 93.94,0 170.08,41.25 170.08,92.12 z"
       style="fill:#dbeef3;fill-opacity:1;fill-rule:evenodd;stroke:none"
       id="path4048"
       inkscape:connector-curvature="0" /><g
       id="g4050"
       transform="translate(-2806.1678,-3599.3226)"><path
         d="m 3412.91,3729.68 c 0,50.88 -76.14,92.13 -170.08,92.13 -93.93,0 -170.07,-41.25 -170.07,-92.13 0,-50.87 76.14,-92.12 170.07,-92.12 93.94,0 170.08,41.25 170.08,92.12 z"
         style="fill:none;stroke:#000000;stroke-width:0.72000003;stroke-linecap:round;stroke-linejoin:round;stroke-miterlimit:10;stroke-opacity:1;stroke-dasharray:5.04, 3.6;stroke-dashoffset:0"
         id="path4052"
         inkscape:connector-curvature="0" /></g><path
       d="m 253.66221,194.12742 520.33,0"
       style="fill:none;stroke:#000000;stroke-width:1;stroke-linecap:round;stroke-linejoin:round;stroke-miterlimit:10;stroke-opacity:1;stroke-dasharray:none"
       id="path4054"
       inkscape:connector-curvature="0" /><path
       d="m 253.67221,129.64742 517.48,0"
       style="fill:none;stroke:#000000;stroke-width:1;stroke-linecap:round;stroke-linejoin:round;stroke-miterlimit:10;stroke-opacity:1;stroke-dasharray:none"
       id="path4056"
       inkscape:connector-curvature="0" /><path
       d="m 253.67221,65.16742 520.32,0"
       style="fill:none;stroke:#000000;stroke-width:1;stroke-linecap:round;stroke-linejoin:round;stroke-miterlimit:10;stroke-opacity:1;stroke-dasharray:none"
       id="path4058"
       inkscape:connector-curvature="0" /><path
       d="m 217.49221,373.77742 0,54.58 52.01,-28.38 -52.01,-26.2 z"
       style="fill:#f2dcda;fill-opacity:1;fill-rule:evenodd;stroke:none"
       id="path4060"
       inkscape:connector-curvature="0" /><path
       d="m 217.49221,373.77742 0,54.58 52.01,-28.38 -52.01,-26.2 z"
       style="fill:none;stroke:#000000;stroke-width:1;stroke-linecap:round;stroke-linejoin:round;stroke-miterlimit:10;stroke-opacity:1;stroke-dasharray:none"
       id="path4062"
       inkscape:connector-curvature="0" /><path
       d="m 238.77221,384.49742 30.73,0"
       style="fill:none;stroke:#000000;stroke-width:1;stroke-linecap:round;stroke-linejoin:round;stroke-miterlimit:10;stroke-opacity:1;stroke-dasharray:none"
       id="path4064"
       inkscape:connector-curvature="0" /><path
       d="m 248.69221,422.89742 c -2.87,0 -5.2,-2.44 -5.2,-5.45 0,-3.02 2.33,-5.46 5.2,-5.46 2.88,0 5.21,2.44 5.21,5.46 0,3.01 -2.33,5.45 -5.21,5.45 z"
       style="fill:#f2dcda;fill-opacity:1;fill-rule:evenodd;stroke:none"
       id="path4066"
       inkscape:connector-curvature="0" /><path
       d="m 248.69221,422.89742 c -2.87,0 -5.2,-2.44 -5.2,-5.45 0,-3.02 2.33,-5.46 5.2,-5.46 2.88,0 5.21,2.44 5.21,5.46 0,3.01 -2.33,5.45 -5.21,5.45 z"
       style="fill:none;stroke:#000000;stroke-width:1;stroke-linecap:round;stroke-linejoin:round;stroke-miterlimit:10;stroke-opacity:1;stroke-dasharray:none"
       id="path4068"
       inkscape:connector-curvature="0" /><path
       d="m 253.90221,417.44742 15.6,0"
       style="fill:none;stroke:#000000;stroke-width:1;stroke-linecap:round;stroke-linejoin:round;stroke-miterlimit:10;stroke-opacity:1;stroke-dasharray:none"
       id="path4070"
       inkscape:connector-curvature="0" /><path
       d="m 217.49221,444.64742 0,54.58 52.01,-28.38 -52.01,-26.2 z"
       style="fill:#f2dcda;fill-opacity:1;fill-rule:evenodd;stroke:none"
       id="path4072"
       inkscape:connector-curvature="0" /><path
       d="m 217.49221,444.64742 0,54.58 52.01,-28.38 -52.01,-26.2 z"
       style="fill:none;stroke:#000000;stroke-width:1;stroke-linecap:round;stroke-linejoin:round;stroke-miterlimit:10;stroke-opacity:1;stroke-dasharray:none"
       id="path4074"
       inkscape:connector-curvature="0" /><path
       d="m 238.77221,455.36742 30.73,0"
       style="fill:none;stroke:#000000;stroke-width:1;stroke-linecap:round;stroke-linejoin:round;stroke-miterlimit:10;stroke-opacity:1;stroke-dasharray:none"
       id="path4076"
       inkscape:connector-curvature="0" /><path
       d="m 248.69221,493.76742 c -2.87,0 -5.2,-2.44 -5.2,-5.46 0,-3.01 2.33,-5.45 5.2,-5.45 2.88,0 5.21,2.44 5.21,5.45 0,3.02 -2.33,5.46 -5.21,5.46 z"
       style="fill:#f2dcda;fill-opacity:1;fill-rule:evenodd;stroke:none"
       id="path4078"
       inkscape:connector-curvature="0" /><path
       d="m 248.69221,493.76742 c -2.87,0 -5.2,-2.44 -5.2,-5.46 0,-3.01 2.33,-5.45 5.2,-5.45 2.88,0 5.21,2.44 5.21,5.45 0,3.02 -2.33,5.46 -5.21,5.46 z"
       style="fill:none;stroke:#000000;stroke-width:1;stroke-linecap:round;stroke-linejoin:round;stroke-miterlimit:10;stroke-opacity:1;stroke-dasharray:none"
       id="path4080"
       inkscape:connector-curvature="0" /><path
       d="m 253.90221,488.30742 15.6,0"
       style="fill:none;stroke:#000000;stroke-width:1;stroke-linecap:round;stroke-linejoin:round;stroke-miterlimit:10;stroke-opacity:1;stroke-dasharray:none"
       id="path4082"
       inkscape:connector-curvature="0" /><path
       d="m 217.49221,515.51742 0,54.57 52.01,-28.38 -52.01,-26.19 z"
       style="fill:#f2dcda;fill-opacity:1;fill-rule:evenodd;stroke:none"
       id="path4084"
       inkscape:connector-curvature="0" /><path
       d="m 217.49221,515.51742 0,54.57 52.01,-28.38 -52.01,-26.19 z"
       style="fill:none;stroke:#000000;stroke-width:1;stroke-linecap:round;stroke-linejoin:round;stroke-miterlimit:10;stroke-opacity:1;stroke-dasharray:none"
       id="path4086"
       inkscape:connector-curvature="0" /><path
       d="m 238.77221,526.23742 30.73,0"
       style="fill:none;stroke:#000000;stroke-width:1;stroke-linecap:round;stroke-linejoin:round;stroke-miterlimit:10;stroke-opacity:1;stroke-dasharray:none"
       id="path4088"
       inkscape:connector-curvature="0" /><path
       d="m 248.69221,564.63742 c -2.87,0 -5.2,-2.45 -5.2,-5.46 0,-3.02 2.33,-5.46 5.2,-5.46 2.88,0 5.21,2.44 5.21,5.46 0,3.01 -2.33,5.46 -5.21,5.46 z"
       style="fill:#f2dcda;fill-opacity:1;fill-rule:evenodd;stroke:none"
       id="path4090"
       inkscape:connector-curvature="0" /><path
       d="m 248.69221,564.63742 c -2.87,0 -5.2,-2.45 -5.2,-5.46 0,-3.02 2.33,-5.46 5.2,-5.46 2.88,0 5.21,2.44 5.21,5.46 0,3.01 -2.33,5.46 -5.21,5.46 z"
       style="fill:none;stroke:#000000;stroke-width:1;stroke-linecap:round;stroke-linejoin:round;stroke-miterlimit:10;stroke-opacity:1;stroke-dasharray:none"
       id="path4092"
       inkscape:connector-curvature="0" /><path
       d="m 253.90221,559.17742 15.6,0"
       style="fill:none;stroke:#000000;stroke-width:1;stroke-linecap:round;stroke-linejoin:round;stroke-miterlimit:10;stroke-opacity:1;stroke-dasharray:none"
       id="path4094"
       inkscape:connector-curvature="0" /><path
       d="m 217.49221,586.37742 0,54.58 52.01,-28.38 -52.01,-26.2 z"
       style="fill:#f2dcda;fill-opacity:1;fill-rule:evenodd;stroke:none"
       id="path4096"
       inkscape:connector-curvature="0" /><path
       d="m 217.49221,586.37742 0,54.58 52.01,-28.38 -52.01,-26.2 z"
       style="fill:none;stroke:#000000;stroke-width:1;stroke-linecap:round;stroke-linejoin:round;stroke-miterlimit:10;stroke-opacity:1;stroke-dasharray:none"
       id="path4098"
       inkscape:connector-curvature="0" /><path
       d="m 238.77221,597.09742 30.73,0"
       style="fill:none;stroke:#000000;stroke-width:1;stroke-linecap:round;stroke-linejoin:round;stroke-miterlimit:10;stroke-opacity:1;stroke-dasharray:none"
       id="path4100"
       inkscape:connector-curvature="0" /><path
       d="m 248.69221,635.49742 c -2.87,0 -5.2,-2.44 -5.2,-5.45 0,-3.02 2.33,-5.46 5.2,-5.46 2.88,0 5.21,2.44 5.21,5.46 0,3.01 -2.33,5.45 -5.21,5.45 z"
       style="fill:#f2dcda;fill-opacity:1;fill-rule:evenodd;stroke:none"
       id="path4102"
       inkscape:connector-curvature="0" /><path
       d="m 248.69221,635.49742 c -2.87,0 -5.2,-2.44 -5.2,-5.45 0,-3.02 2.33,-5.46 5.2,-5.46 2.88,0 5.21,2.44 5.21,5.46 0,3.01 -2.33,5.45 -5.21,5.45 z"
       style="fill:none;stroke:#000000;stroke-width:1;stroke-linecap:round;stroke-linejoin:round;stroke-miterlimit:10;stroke-opacity:1;stroke-dasharray:none"
       id="path4104"
       inkscape:connector-curvature="0" /><path
       d="m 253.90221,630.04742 15.6,0"
       style="fill:none;stroke:#000000;stroke-width:1;stroke-linecap:round;stroke-linejoin:round;stroke-miterlimit:10;stroke-opacity:1;stroke-dasharray:none"
       id="path4106"
       inkscape:connector-curvature="0" /><path
       d="m 217.49221,401.06742 -41.61,0"
       style="fill:none;stroke:#000000;stroke-width:1;stroke-linecap:round;stroke-linejoin:round;stroke-miterlimit:10;stroke-opacity:1;stroke-dasharray:none"
       id="path4108"
       inkscape:connector-curvature="0" /><path
       d="m 217.49221,471.93742 -41.61,0"
       style="fill:none;stroke:#000000;stroke-width:1;stroke-linecap:round;stroke-linejoin:round;stroke-miterlimit:10;stroke-opacity:1;stroke-dasharray:none"
       id="path4110"
       inkscape:connector-curvature="0" /><path
       d="m 217.49221,542.80742 -41.61,0"
       style="fill:none;stroke:#000000;stroke-width:1;stroke-linecap:round;stroke-linejoin:round;stroke-miterlimit:10;stroke-opacity:1;stroke-dasharray:none"
       id="path4112"
       inkscape:connector-curvature="0" /><path
       d="m 217.49221,613.66742 -41.61,0"
       style="fill:none;stroke:#000000;stroke-width:1;stroke-linecap:round;stroke-linejoin:round;stroke-miterlimit:10;stroke-opacity:1;stroke-dasharray:none"
       id="path4114"
       inkscape:connector-curvature="0" /><path
       d="m 687.70221,97.96742 c 19.61,-3.55 36.64,-15.58 46.56,-32.86 -9.37,-17.78 -26.67,-30 -46.56,-32.87 l -35.6,0 c 9.13,20.96 9.13,44.77 0,65.73 l 35.6,0 z"
       style="fill:#f2dcda;fill-opacity:1;fill-rule:evenodd;stroke:none"
       id="path4116"
       inkscape:connector-curvature="0" /><path
       d="m 687.70221,97.96742 c 19.61,-3.55 36.64,-15.58 46.56,-32.86 -9.37,-17.78 -26.67,-30 -46.56,-32.87 l -35.6,0 c 9.13,20.96 9.13,44.77 0,65.73 l 35.6,0 z"
       style="fill:none;stroke:#000000;stroke-width:1;stroke-linecap:round;stroke-linejoin:round;stroke-miterlimit:10;stroke-opacity:1;stroke-dasharray:none"
       id="path4118"
       inkscape:connector-curvature="0" /><path
       d="m 687.70221,162.66742 c 19.61,-3.55 36.64,-15.58 46.56,-32.87 -9.37,-17.77 -26.67,-29.99 -46.56,-32.86 l -35.6,0 c 9.13,20.96 9.13,44.77 0,65.73 l 0,0 35.6,0 z"
       style="fill:#f2dcda;fill-opacity:1;fill-rule:evenodd;stroke:none"
       id="path4120"
       inkscape:connector-curvature="0" /><path
       d="m 687.70221,162.66742 c 19.61,-3.55 36.64,-15.58 46.56,-32.87 -9.37,-17.77 -26.67,-29.99 -46.56,-32.86 l -35.6,0 c 9.13,20.96 9.13,44.77 0,65.73 l 0,0 35.6,0 z"
       style="fill:none;stroke:#000000;stroke-width:1;stroke-linecap:round;stroke-linejoin:round;stroke-miterlimit:10;stroke-opacity:1;stroke-dasharray:none"
       id="path4122"
       inkscape:connector-curvature="0" /><path
       d="m 687.70221,228.15742 c 19.61,-3.55 36.64,-15.58 46.56,-32.86 -9.37,-17.78 -26.67,-30 -46.56,-32.87 l -35.6,0 c 9.13,20.96 9.13,44.77 0,65.73 l 0,0 35.6,0 z"
       style="fill:#f2dcda;fill-opacity:1;fill-rule:evenodd;stroke:none"
       id="path4124"
       inkscape:connector-curvature="0" /><path
       d="m 687.70221,228.15742 c 19.61,-3.55 36.64,-15.58 46.56,-32.86 -9.37,-17.78 -26.67,-30 -46.56,-32.87 l -35.6,0 c 9.13,20.96 9.13,44.77 0,65.73 l 0,0 35.6,0 z"
       style="fill:none;stroke:#000000;stroke-width:1;stroke-linecap:round;stroke-linejoin:round;stroke-miterlimit:10;stroke-opacity:1;stroke-dasharray:none"
       id="path4126"
       inkscape:connector-curvature="0" /><path
       d="m 367.67221,342.18742 -69.9,0 0,-52.43 c 0,-19.31 15.65,-34.95 34.95,-34.95 19.3,0 34.95,15.64 34.95,34.95 0,0 0,0 0,0 l 0,52.43 z"
       style="fill:#f2dcda;fill-opacity:1;fill-rule:evenodd;stroke:none"
       id="path4128"
       inkscape:connector-curvature="0" /><path
       d="m 367.67221,342.18742 -69.9,0 0,-52.43 c 0,-19.31 15.65,-34.95 34.95,-34.95 19.3,0 34.95,15.64 34.95,34.95 0,0 0,0 0,0 l 0,52.43 z"
       style="fill:none;stroke:#000000;stroke-width:1;stroke-linecap:round;stroke-linejoin:round;stroke-miterlimit:10;stroke-opacity:1;stroke-dasharray:none"
       id="path4130"
       inkscape:connector-curvature="0" /><path
       d="m 269.50221,630.04742 405.27,0"
       style="fill:none;stroke:#000000;stroke-width:1;stroke-linecap:round;stroke-linejoin:round;stroke-miterlimit:10;stroke-opacity:1;stroke-dasharray:none"
       id="path4132"
       inkscape:connector-curvature="0" /><path
       d="m 269.50221,597.09742 405.27,0"
       style="fill:none;stroke:#000000;stroke-width:1;stroke-linecap:round;stroke-linejoin:round;stroke-miterlimit:10;stroke-opacity:1;stroke-dasharray:none"
       id="path4134"
       inkscape:connector-curvature="0" /><path
       d="m 269.42221,559.30742 405.28,0"
       style="fill:none;stroke:#000000;stroke-width:1;stroke-linecap:round;stroke-linejoin:round;stroke-miterlimit:10;stroke-opacity:1;stroke-dasharray:none"
       id="path4136"
       inkscape:connector-curvature="0" /><path
       d="m 269.42221,526.35742 405.28,0"
       style="fill:none;stroke:#000000;stroke-width:1;stroke-linecap:round;stroke-linejoin:round;stroke-miterlimit:10;stroke-opacity:1;stroke-dasharray:none"
       id="path4138"
       inkscape:connector-curvature="0" /><path
       d="m 269.42221,488.43742 405.28,0"
       style="fill:none;stroke:#000000;stroke-width:1;stroke-linecap:round;stroke-linejoin:round;stroke-miterlimit:10;stroke-opacity:1;stroke-dasharray:none"
       id="path4140"
       inkscape:connector-curvature="0" /><path
       d="m 269.42221,455.49742 405.28,0"
       style="fill:none;stroke:#000000;stroke-width:1;stroke-linecap:round;stroke-linejoin:round;stroke-miterlimit:10;stroke-opacity:1;stroke-dasharray:none"
       id="path4142"
       inkscape:connector-curvature="0" /><path
       d="m 269.42221,417.57742 405.28,0"
       style="fill:none;stroke:#000000;stroke-width:1;stroke-linecap:round;stroke-linejoin:round;stroke-miterlimit:10;stroke-opacity:1;stroke-dasharray:none"
       id="path4144"
       inkscape:connector-curvature="0" /><path
       d="m 269.42221,384.62742 405.28,0"
       style="fill:none;stroke:#000000;stroke-width:1;stroke-linecap:round;stroke-linejoin:round;stroke-miterlimit:10;stroke-opacity:1;stroke-dasharray:none"
       id="path4146"
       inkscape:connector-curvature="0" /><path
       d="m 312.41221,342.18742 -0.47,254.91"
       style="fill:none;stroke:#000000;stroke-width:1;stroke-linecap:round;stroke-linejoin:round;stroke-miterlimit:10;stroke-opacity:1;stroke-dasharray:none"
       id="path4148"
       inkscape:connector-curvature="0" /><path
       d="m 326.11221,342.18742 0,184.17"
       style="fill:none;stroke:#000000;stroke-width:1;stroke-linecap:round;stroke-linejoin:round;stroke-miterlimit:10;stroke-opacity:1;stroke-dasharray:none"
       id="path4150"
       inkscape:connector-curvature="0" /><path
       d="m 340.29221,342.18742 0,113.31"
       style="fill:none;stroke:#000000;stroke-width:1;stroke-linecap:round;stroke-linejoin:round;stroke-miterlimit:10;stroke-opacity:1;stroke-dasharray:none"
       id="path4152"
       inkscape:connector-curvature="0" /><path
       d="m 353.75221,342.18742 0,42.44"
       style="fill:none;stroke:#000000;stroke-width:1;stroke-linecap:round;stroke-linejoin:round;stroke-miterlimit:10;stroke-opacity:1;stroke-dasharray:none"
       id="path4154"
       inkscape:connector-curvature="0" /><path
       d="m 437.83221,342.55742 -69.91,0 0,-52.43 c 0,-19.31 15.65,-34.95 34.96,-34.95 19.3,0 34.95,15.64 34.95,34.95 0,0 0,0 0,0 l 0,52.43 z"
       style="fill:#f2dcda;fill-opacity:1;fill-rule:evenodd;stroke:none"
       id="path4156"
       inkscape:connector-curvature="0" /><path
       d="m 437.83221,342.55742 -69.91,0 0,-52.43 c 0,-19.31 15.65,-34.95 34.96,-34.95 19.3,0 34.95,15.64 34.95,34.95 0,0 0,0 0,0 l 0,52.43 z"
       style="fill:none;stroke:#000000;stroke-width:1;stroke-linecap:round;stroke-linejoin:round;stroke-miterlimit:10;stroke-opacity:1;stroke-dasharray:none"
       id="path4158"
       inkscape:connector-curvature="0" /><path
       d="m 383.27221,342.55742 0,288.42"
       style="fill:none;stroke:#000000;stroke-width:1;stroke-linecap:round;stroke-linejoin:round;stroke-miterlimit:10;stroke-opacity:1;stroke-dasharray:none"
       id="path4160"
       inkscape:connector-curvature="0" /><path
       d="m 396.98221,342.55742 0,184.05"
       style="fill:none;stroke:#000000;stroke-width:1;stroke-linecap:round;stroke-linejoin:round;stroke-miterlimit:10;stroke-opacity:1;stroke-dasharray:none"
       id="path4162"
       inkscape:connector-curvature="0" /><path
       d="m 411.15221,342.55742 0,112.94"
       style="fill:none;stroke:#000000;stroke-width:1;stroke-linecap:round;stroke-linejoin:round;stroke-miterlimit:10;stroke-opacity:1;stroke-dasharray:none"
       id="path4164"
       inkscape:connector-curvature="0" /><path
       d="m 331.78221,15.92742 0,239.25"
       style="fill:none;stroke:#000000;stroke-width:1;stroke-linecap:round;stroke-linejoin:round;stroke-miterlimit:10;stroke-opacity:1;stroke-dasharray:none"
       id="path4166"
       inkscape:connector-curvature="0" /><path
       d="m 507.76221,342.24742 -69.91,0 0,-52.42 c 0,-19.31 15.65,-34.96 34.96,-34.96 19.3,0 34.95,15.65 34.95,34.96 0,0 0,0 0,0 l 0,0 0,52.42 z"
       style="fill:#f2dcda;fill-opacity:1;fill-rule:evenodd;stroke:none"
       id="path4168"
       inkscape:connector-curvature="0" /><path
       d="m 507.76221,342.24742 -69.91,0 0,-52.42 c 0,-19.31 15.65,-34.96 34.96,-34.96 19.3,0 34.95,15.65 34.95,34.96 0,0 0,0 0,0 l 0,0 0,52.42 z"
       style="fill:none;stroke:#000000;stroke-width:1;stroke-linecap:round;stroke-linejoin:round;stroke-miterlimit:10;stroke-opacity:1;stroke-dasharray:none"
       id="path4170"
       inkscape:connector-curvature="0" /><path
       d="m 453.91221,342.24742 0,255.56"
       style="fill:none;stroke:#000000;stroke-width:1;stroke-linecap:round;stroke-linejoin:round;stroke-miterlimit:10;stroke-opacity:1;stroke-dasharray:none"
       id="path4172"
       inkscape:connector-curvature="0" /><path
       d="m 467.62221,342.24742 0,217.77"
       style="fill:none;stroke:#000000;stroke-width:1;stroke-linecap:round;stroke-linejoin:round;stroke-miterlimit:10;stroke-opacity:1;stroke-dasharray:none"
       id="path4174"
       inkscape:connector-curvature="0" /><path
       d="m 481.79221,342.24742 0,113.96"
       style="fill:none;stroke:#000000;stroke-width:1;stroke-linecap:round;stroke-linejoin:round;stroke-miterlimit:10;stroke-opacity:1;stroke-dasharray:none"
       id="path4176"
       inkscape:connector-curvature="0" /><path
       d="m 495.96221,342.24742 0,43.09"
       style="fill:none;stroke:#000000;stroke-width:1;stroke-linecap:round;stroke-linejoin:round;stroke-miterlimit:10;stroke-opacity:1;stroke-dasharray:none"
       id="path4178"
       inkscape:connector-curvature="0" /><path
       d="m 577.69221,342.24742 -69.91,0 0,-52.42 c 0,-19.31 15.65,-34.96 34.96,-34.96 19.3,0 34.95,15.65 34.95,34.96 0,0 0,0 0,0 l 0,52.42 z"
       style="fill:#f2dcda;fill-opacity:1;fill-rule:evenodd;stroke:none"
       id="path4180"
       inkscape:connector-curvature="0" /><path
       d="m 577.69221,342.24742 -69.91,0 0,-52.42 c 0,-19.31 15.65,-34.96 34.96,-34.96 19.3,0 34.95,15.65 34.95,34.96 0,0 0,0 0,0 l 0,52.42 z"
       style="fill:none;stroke:#000000;stroke-width:1;stroke-linecap:round;stroke-linejoin:round;stroke-miterlimit:10;stroke-opacity:1;stroke-dasharray:none"
       id="path4182"
       inkscape:connector-curvature="0" /><path
       d="m 523.84221,342.24742 0,288.5"
       style="fill:none;stroke:#000000;stroke-width:1;stroke-linecap:round;stroke-linejoin:round;stroke-miterlimit:10;stroke-opacity:1;stroke-dasharray:none"
       id="path4184"
       inkscape:connector-curvature="0" /><path
       d="m 537.55221,342.24742 0,217.77"
       style="fill:none;stroke:#000000;stroke-width:1;stroke-linecap:round;stroke-linejoin:round;stroke-miterlimit:10;stroke-opacity:1;stroke-dasharray:none"
       id="path4186"
       inkscape:connector-curvature="0" /><path
       d="m 551.72221,342.24742 0,113.96"
       style="fill:none;stroke:#000000;stroke-width:1;stroke-linecap:round;stroke-linejoin:round;stroke-miterlimit:10;stroke-opacity:1;stroke-dasharray:none"
       id="path4188"
       inkscape:connector-curvature="0" /><path
       d="m 565.89221,342.24742 0,43.09"
       style="fill:none;stroke:#000000;stroke-width:1;stroke-linecap:round;stroke-linejoin:round;stroke-miterlimit:10;stroke-opacity:1;stroke-dasharray:none"
       id="path4190"
       inkscape:connector-curvature="0" /><path
       d="m 388.48221,631.14742 c 0,2.87 -2.45,5.2 -5.46,5.2 -3.02,0 -5.46,-2.33 -5.46,-5.2 0,-2.87 2.44,-5.2 5.46,-5.2 3.01,0 5.46,2.33 5.46,5.2 z"
       style="fill:#1f477d;fill-opacity:1;fill-rule:evenodd;stroke:none"
       id="path4192"
       inkscape:connector-curvature="0" /><path
       d="m 388.48221,631.14742 c 0,2.87 -2.45,5.2 -5.46,5.2 -3.02,0 -5.46,-2.33 -5.46,-5.2 0,-2.87 2.44,-5.2 5.46,-5.2 3.01,0 5.46,2.33 5.46,5.2 z"
       style="fill:none;stroke:#000000;stroke-width:1;stroke-linecap:round;stroke-linejoin:round;stroke-miterlimit:10;stroke-opacity:1;stroke-dasharray:none"
       id="path4194"
       inkscape:connector-curvature="0" /><path
       d="m 317.61221,596.19742 c 0,2.87 -2.44,5.2 -5.46,5.2 -3.01,0 -5.46,-2.33 -5.46,-5.2 0,-2.88 2.45,-5.21 5.46,-5.21 3.02,0 5.46,2.33 5.46,5.21 z"
       style="fill:#1f477d;fill-opacity:1;fill-rule:evenodd;stroke:none"
       id="path4196"
       inkscape:connector-curvature="0" /><path
       d="m 317.61221,596.19742 c 0,2.87 -2.44,5.2 -5.46,5.2 -3.01,0 -5.46,-2.33 -5.46,-5.2 0,-2.88 2.45,-5.21 5.46,-5.21 3.02,0 5.46,2.33 5.46,5.21 z"
       style="fill:none;stroke:#000000;stroke-width:1;stroke-linecap:round;stroke-linejoin:round;stroke-miterlimit:10;stroke-opacity:1;stroke-dasharray:none"
       id="path4198"
       inkscape:connector-curvature="0" /><path
       d="m 529.18221,630.91742 c 0,2.87 -2.45,5.2 -5.46,5.2 -3.01,0 -5.46,-2.33 -5.46,-5.2 0,-2.87 2.45,-5.2 5.46,-5.2 3.01,0 5.46,2.33 5.46,5.2 z"
       style="fill:#1f477d;fill-opacity:1;fill-rule:evenodd;stroke:none"
       id="path4200"
       inkscape:connector-curvature="0" /><path
       d="m 529.18221,630.91742 c 0,2.87 -2.45,5.2 -5.46,5.2 -3.01,0 -5.46,-2.33 -5.46,-5.2 0,-2.87 2.45,-5.2 5.46,-5.2 3.01,0 5.46,2.33 5.46,5.2 z"
       style="fill:none;stroke:#000000;stroke-width:1;stroke-linecap:round;stroke-linejoin:round;stroke-miterlimit:10;stroke-opacity:1;stroke-dasharray:none"
       id="path4202"
       inkscape:connector-curvature="0" /><path
       d="m 459.13221,596.89742 c 0,2.88 -2.44,5.21 -5.46,5.21 -3.01,0 -5.46,-2.33 -5.46,-5.21 0,-2.87 2.45,-5.2 5.46,-5.2 3.02,0 5.46,2.33 5.46,5.2 z"
       style="fill:#1f477d;fill-opacity:1;fill-rule:evenodd;stroke:none"
       id="path4204"
       inkscape:connector-curvature="0" /><path
       d="m 459.13221,596.89742 c 0,2.88 -2.44,5.21 -5.46,5.21 -3.01,0 -5.46,-2.33 -5.46,-5.21 0,-2.87 2.45,-5.2 5.46,-5.2 3.02,0 5.46,2.33 5.46,5.2 z"
       style="fill:none;stroke:#000000;stroke-width:1;stroke-linecap:round;stroke-linejoin:round;stroke-miterlimit:10;stroke-opacity:1;stroke-dasharray:none"
       id="path4206"
       inkscape:connector-curvature="0" /><path
       d="m 473.32221,559.56742 c 0,2.88 -2.44,5.2 -5.46,5.2 -3.01,0 -5.46,-2.32 -5.46,-5.2 0,-2.87 2.45,-5.2 5.46,-5.2 3.02,0 5.46,2.33 5.46,5.2 z"
       style="fill:#1f477d;fill-opacity:1;fill-rule:evenodd;stroke:none"
       id="path4208"
       inkscape:connector-curvature="0" /><path
       d="m 473.32221,559.56742 c 0,2.88 -2.44,5.2 -5.46,5.2 -3.01,0 -5.46,-2.32 -5.46,-5.2 0,-2.87 2.45,-5.2 5.46,-5.2 3.02,0 5.46,2.33 5.46,5.2 z"
       style="fill:none;stroke:#000000;stroke-width:1;stroke-linecap:round;stroke-linejoin:round;stroke-miterlimit:10;stroke-opacity:1;stroke-dasharray:none"
       id="path4210"
       inkscape:connector-curvature="0" /><path
       d="m 542.78221,560.51742 c 0,2.87 -2.45,5.2 -5.46,5.2 -3.02,0 -5.46,-2.33 -5.46,-5.2 0,-2.87 2.44,-5.2 5.46,-5.2 3.01,0 5.46,2.33 5.46,5.2 z"
       style="fill:#1f477d;fill-opacity:1;fill-rule:evenodd;stroke:none"
       id="path4212"
       inkscape:connector-curvature="0" /><path
       d="m 542.78221,560.51742 c 0,2.87 -2.45,5.2 -5.46,5.2 -3.02,0 -5.46,-2.33 -5.46,-5.2 0,-2.87 2.44,-5.2 5.46,-5.2 3.01,0 5.46,2.33 5.46,5.2 z"
       style="fill:none;stroke:#000000;stroke-width:1;stroke-linecap:round;stroke-linejoin:round;stroke-miterlimit:10;stroke-opacity:1;stroke-dasharray:none"
       id="path4214"
       inkscape:connector-curvature="0" /><path
       d="m 402.68221,525.79742 c 0,2.87 -2.44,5.2 -5.46,5.2 -3.01,0 -5.45,-2.33 -5.45,-5.2 0,-2.87 2.44,-5.2 5.45,-5.2 3.02,0 5.46,2.33 5.46,5.2 z"
       style="fill:#1f477d;fill-opacity:1;fill-rule:evenodd;stroke:none"
       id="path4216"
       inkscape:connector-curvature="0" /><path
       d="m 402.68221,525.79742 c 0,2.87 -2.44,5.2 -5.46,5.2 -3.01,0 -5.45,-2.33 -5.45,-5.2 0,-2.87 2.44,-5.2 5.45,-5.2 3.02,0 5.46,2.33 5.46,5.2 z"
       style="fill:none;stroke:#000000;stroke-width:1;stroke-linecap:round;stroke-linejoin:round;stroke-miterlimit:10;stroke-opacity:1;stroke-dasharray:none"
       id="path4218"
       inkscape:connector-curvature="0" /><path
       d="m 329.94221,525.79742 c 0,2.87 -2.44,5.2 -5.46,5.2 -3.01,0 -5.45,-2.33 -5.45,-5.2 0,-2.87 2.44,-5.2 5.45,-5.2 3.02,0 5.46,2.33 5.46,5.2 z"
       style="fill:#1f477d;fill-opacity:1;fill-rule:evenodd;stroke:none"
       id="path4220"
       inkscape:connector-curvature="0" /><path
       d="m 329.94221,525.79742 c 0,2.87 -2.44,5.2 -5.46,5.2 -3.01,0 -5.45,-2.33 -5.45,-5.2 0,-2.87 2.44,-5.2 5.45,-5.2 3.02,0 5.46,2.33 5.46,5.2 z"
       style="fill:none;stroke:#000000;stroke-width:1;stroke-linecap:round;stroke-linejoin:round;stroke-miterlimit:10;stroke-opacity:1;stroke-dasharray:none"
       id="path4222"
       inkscape:connector-curvature="0" /><path
       d="m 345.74221,455.39742 c 0,2.87 -2.44,5.2 -5.45,5.2 -3.02,0 -5.46,-2.33 -5.46,-5.2 0,-2.87 2.44,-5.2 5.46,-5.2 3.01,0 5.45,2.33 5.45,5.2 z"
       style="fill:#1f477d;fill-opacity:1;fill-rule:evenodd;stroke:none"
       id="path4224"
       inkscape:connector-curvature="0" /><path
       d="m 345.74221,455.39742 c 0,2.87 -2.44,5.2 -5.45,5.2 -3.02,0 -5.46,-2.33 -5.46,-5.2 0,-2.87 2.44,-5.2 5.46,-5.2 3.01,0 5.45,2.33 5.45,5.2 z"
       style="fill:none;stroke:#000000;stroke-width:1;stroke-linecap:round;stroke-linejoin:round;stroke-miterlimit:10;stroke-opacity:1;stroke-dasharray:none"
       id="path4226"
       inkscape:connector-curvature="0" /><path
       d="m 359.56221,384.52742 c 0,2.88 -2.44,5.21 -5.46,5.21 -3.01,0 -5.45,-2.33 -5.45,-5.21 0,-2.87 2.44,-5.2 5.45,-5.2 3.02,0 5.46,2.33 5.46,5.2 z"
       style="fill:#1f477d;fill-opacity:1;fill-rule:evenodd;stroke:none"
       id="path4228"
       inkscape:connector-curvature="0" /><path
       d="m 359.56221,384.52742 c 0,2.88 -2.44,5.21 -5.46,5.21 -3.01,0 -5.45,-2.33 -5.45,-5.21 0,-2.87 2.44,-5.2 5.45,-5.2 3.02,0 5.46,2.33 5.46,5.2 z"
       style="fill:none;stroke:#000000;stroke-width:1;stroke-linecap:round;stroke-linejoin:round;stroke-miterlimit:10;stroke-opacity:1;stroke-dasharray:none"
       id="path4230"
       inkscape:connector-curvature="0" /><path
       d="m 431.03221,385.94742 c 0,2.87 -2.44,5.2 -5.46,5.2 -3.01,0 -5.46,-2.33 -5.46,-5.2 0,-2.87 2.45,-5.2 5.46,-5.2 3.02,0 5.46,2.33 5.46,5.2 z"
       style="fill:#1f477d;fill-opacity:1;fill-rule:evenodd;stroke:none"
       id="path4232"
       inkscape:connector-curvature="0" /><path
       d="m 431.03221,385.94742 c 0,2.87 -2.44,5.2 -5.46,5.2 -3.01,0 -5.46,-2.33 -5.46,-5.2 0,-2.87 2.45,-5.2 5.46,-5.2 3.02,0 5.46,2.33 5.46,5.2 z"
       style="fill:none;stroke:#000000;stroke-width:1;stroke-linecap:round;stroke-linejoin:round;stroke-miterlimit:10;stroke-opacity:1;stroke-dasharray:none"
       id="path4234"
       inkscape:connector-curvature="0" /><path
       d="m 416.20221,455.33742 c 0,2.87 -2.45,5.2 -5.46,5.2 -3.02,0 -5.46,-2.33 -5.46,-5.2 0,-2.88 2.44,-5.2 5.46,-5.2 3.01,0 5.46,2.32 5.46,5.2 z"
       style="fill:#1f477d;fill-opacity:1;fill-rule:evenodd;stroke:none"
       id="path4236"
       inkscape:connector-curvature="0" /><path
       d="m 416.20221,455.33742 c 0,2.87 -2.45,5.2 -5.46,5.2 -3.02,0 -5.46,-2.33 -5.46,-5.2 0,-2.88 2.44,-5.2 5.46,-5.2 3.01,0 5.46,2.32 5.46,5.2 z"
       style="fill:none;stroke:#000000;stroke-width:1;stroke-linecap:round;stroke-linejoin:round;stroke-miterlimit:10;stroke-opacity:1;stroke-dasharray:none"
       id="path4238"
       inkscape:connector-curvature="0" /><path
       d="m 487.49221,456.58742 c 0,2.87 -2.44,5.2 -5.45,5.2 -3.02,0 -5.46,-2.33 -5.46,-5.2 0,-2.87 2.44,-5.2 5.46,-5.2 3.01,0 5.45,2.33 5.45,5.2 z"
       style="fill:#1f477d;fill-opacity:1;fill-rule:evenodd;stroke:none"
       id="path4240"
       inkscape:connector-curvature="0" /><path
       d="m 487.49221,456.58742 c 0,2.87 -2.44,5.2 -5.45,5.2 -3.02,0 -5.46,-2.33 -5.46,-5.2 0,-2.87 2.44,-5.2 5.46,-5.2 3.01,0 5.45,2.33 5.45,5.2 z"
       style="fill:none;stroke:#000000;stroke-width:1;stroke-linecap:round;stroke-linejoin:round;stroke-miterlimit:10;stroke-opacity:1;stroke-dasharray:none"
       id="path4242"
       inkscape:connector-curvature="0" /><path
       d="m 501.88221,385.23742 c 0,2.87 -2.45,5.2 -5.46,5.2 -3.01,0 -5.46,-2.33 -5.46,-5.2 0,-2.87 2.45,-5.2 5.46,-5.2 3.01,0 5.46,2.33 5.46,5.2 z"
       style="fill:#1f477d;fill-opacity:1;fill-rule:evenodd;stroke:none"
       id="path4244"
       inkscape:connector-curvature="0" /><path
       d="m 501.88221,385.23742 c 0,2.87 -2.45,5.2 -5.46,5.2 -3.01,0 -5.46,-2.33 -5.46,-5.2 0,-2.87 2.45,-5.2 5.46,-5.2 3.01,0 5.46,2.33 5.46,5.2 z"
       style="fill:none;stroke:#000000;stroke-width:1;stroke-linecap:round;stroke-linejoin:round;stroke-miterlimit:10;stroke-opacity:1;stroke-dasharray:none"
       id="path4246"
       inkscape:connector-curvature="0" /><path
       d="m 571.60221,385.23742 c 0,2.87 -2.45,5.2 -5.46,5.2 -3.02,0 -5.46,-2.33 -5.46,-5.2 0,-2.87 2.44,-5.2 5.46,-5.2 3.01,0 5.46,2.33 5.46,5.2 z"
       style="fill:#1f477d;fill-opacity:1;fill-rule:evenodd;stroke:none"
       id="path4248"
       inkscape:connector-curvature="0" /><path
       d="m 571.60221,385.23742 c 0,2.87 -2.45,5.2 -5.46,5.2 -3.02,0 -5.46,-2.33 -5.46,-5.2 0,-2.87 2.44,-5.2 5.46,-5.2 3.01,0 5.46,2.33 5.46,5.2 z"
       style="fill:none;stroke:#000000;stroke-width:1;stroke-linecap:round;stroke-linejoin:round;stroke-miterlimit:10;stroke-opacity:1;stroke-dasharray:none"
       id="path4250"
       inkscape:connector-curvature="0" /><path
       d="m 557.42221,457.05742 c 0,2.87 -2.44,5.2 -5.46,5.2 -3.01,0 -5.45,-2.33 -5.45,-5.2 0,-2.87 2.44,-5.2 5.45,-5.2 3.02,0 5.46,2.33 5.46,5.2 z"
       style="fill:#1f477d;fill-opacity:1;fill-rule:evenodd;stroke:none"
       id="path4252"
       inkscape:connector-curvature="0" /><path
       d="m 557.42221,457.05742 c 0,2.87 -2.44,5.2 -5.46,5.2 -3.01,0 -5.45,-2.33 -5.45,-5.2 0,-2.87 2.44,-5.2 5.45,-5.2 3.02,0 5.46,2.33 5.46,5.2 z"
       style="fill:none;stroke:#000000;stroke-width:1;stroke-linecap:round;stroke-linejoin:round;stroke-miterlimit:10;stroke-opacity:1;stroke-dasharray:none"
       id="path4254"
       inkscape:connector-curvature="0" /><path
       d="m 402.88221,15.92742 0,239.25"
       style="fill:none;stroke:#000000;stroke-width:1;stroke-linecap:round;stroke-linejoin:round;stroke-miterlimit:10;stroke-opacity:1;stroke-dasharray:none"
       id="path4256"
       inkscape:connector-curvature="0" /><path
       d="m 472.81221,15.62742 0,239.24"
       style="fill:none;stroke:#000000;stroke-width:1;stroke-linecap:round;stroke-linejoin:round;stroke-miterlimit:10;stroke-opacity:1;stroke-dasharray:none"
       id="path4258"
       inkscape:connector-curvature="0" /><path
       d="m 542.74221,15.62742 0,239.24"
       style="fill:none;stroke:#000000;stroke-width:1;stroke-linecap:round;stroke-linejoin:round;stroke-miterlimit:10;stroke-opacity:1;stroke-dasharray:none"
       id="path4260"
       inkscape:connector-curvature="0" /><text
       transform="scale(1,-1)"
       id="text4262"
       x="794.50293"
       y="-189.78722"><tspan
         style="font-size:30.00024033px;font-variant:normal;font-weight:normal;writing-mode:lr-tb;fill:#000000;fill-opacity:1;fill-rule:nonzero;stroke:none;font-family:ARIAL;-inkscape-font-specification:ARIAL"
         x="794.50293"
         y="-189.78722"
         id="tspan4264">D</tspan></text>
<text
       transform="scale(1,-1)"
       id="text4266"
       x="816.16296"
       y="-189.78722"><tspan
         style="font-size:30.00024033px;font-variant:normal;font-weight:normal;writing-mode:lr-tb;fill:#000000;fill-opacity:1;fill-rule:nonzero;stroke:none;font-family:ARIAL;-inkscape-font-specification:ARIAL"
         x="816.16296"
         y="-189.78722"
         id="tspan4268">0</tspan></text>
<text
       transform="scale(1,-1)"
       id="text4270"
       x="746.49292"
       y="-232.30719"><tspan
         style="font-size:30.00024033px;font-variant:normal;font-weight:normal;writing-mode:lr-tb;fill:#000000;fill-opacity:1;fill-rule:nonzero;stroke:none;font-family:ARIAL;-inkscape-font-specification:ARIAL"
         x="746.49292 766.50317 786.51343 806.52368 824.84912 846.51392 866.52411"
         y="-232.30719"
         sodipodi:role="line"
         id="tspan4272">VÝSTUPY</tspan></text>
<text
       transform="scale(1,-1)"
       id="text4274"
       x="794.50293"
       y="-118.92726"><tspan
         style="font-size:30.00024033px;font-variant:normal;font-weight:normal;writing-mode:lr-tb;fill:#000000;fill-opacity:1;fill-rule:nonzero;stroke:none;font-family:ARIAL;-inkscape-font-specification:ARIAL"
         x="794.50293"
         y="-118.92726"
         id="tspan4276">D</tspan></text>
<text
       transform="scale(1,-1)"
       id="text4278"
       x="816.16296"
       y="-118.92726"><tspan
         style="font-size:30.00024033px;font-variant:normal;font-weight:normal;writing-mode:lr-tb;fill:#000000;fill-opacity:1;fill-rule:nonzero;stroke:none;font-family:ARIAL;-inkscape-font-specification:ARIAL"
         x="816.16296"
         y="-118.92726"
         id="tspan4280">1</tspan></text>
<text
       transform="scale(1,-1)"
       id="text4282"
       x="794.50293"
       y="-53.727463"><tspan
         style="font-size:30.00024033px;font-variant:normal;font-weight:normal;writing-mode:lr-tb;fill:#000000;fill-opacity:1;fill-rule:nonzero;stroke:none;font-family:ARIAL;-inkscape-font-specification:ARIAL"
         x="794.50293"
         y="-53.727463"
         id="tspan4284">D</tspan></text>
<text
       transform="scale(1,-1)"
       id="text4286"
       x="816.16296"
       y="-53.727463"><tspan
         style="font-size:30.00024033px;font-variant:normal;font-weight:normal;writing-mode:lr-tb;fill:#000000;fill-opacity:1;fill-rule:nonzero;stroke:none;font-family:ARIAL;-inkscape-font-specification:ARIAL"
         x="816.16296"
         y="-53.727463"
         id="tspan4288">2</tspan></text>
<text
       transform="scale(1,-1)"
       id="text4290"
       x="109.34211"
       y="-600.81824"><tspan
         style="font-size:30.00024033px;font-variant:normal;font-weight:normal;writing-mode:lr-tb;fill:#000000;fill-opacity:1;fill-rule:nonzero;stroke:none;font-family:ARIAL;-inkscape-font-specification:ARIAL"
         x="109.34211"
         y="-600.81824"
         id="tspan4292">A</tspan></text>
<text
       transform="scale(1,-1)"
       id="text4294"
       x="129.35202"
       y="-600.81824"><tspan
         style="font-size:30.00024033px;font-variant:normal;font-weight:normal;writing-mode:lr-tb;fill:#000000;fill-opacity:1;fill-rule:nonzero;stroke:none;font-family:ARIAL;-inkscape-font-specification:ARIAL"
         x="129.35202"
         y="-600.81824"
         id="tspan4296">0</tspan></text>
<text
       transform="scale(1,-1)"
       id="text4298"
       x="70.512238"
       y="-643.32825"><tspan
         style="font-size:30.00024033px;font-variant:normal;font-weight:normal;writing-mode:lr-tb;fill:#000000;fill-opacity:1;fill-rule:nonzero;stroke:none;font-family:ARIAL;-inkscape-font-specification:ARIAL"
         x="70.512238 90.52243 110.53257 128.85794 150.52274 170.53297"
         y="-643.32825"
         sodipodi:role="line"
         id="tspan4300">VSTUPY</tspan></text>
<text
       transform="scale(1,-1)"
       id="text4302"
       x="109.34211"
       y="-529.94824"><tspan
         style="font-size:30.00024033px;font-variant:normal;font-weight:normal;writing-mode:lr-tb;fill:#000000;fill-opacity:1;fill-rule:nonzero;stroke:none;font-family:ARIAL;-inkscape-font-specification:ARIAL"
         x="109.34211"
         y="-529.94824"
         id="tspan4304">A</tspan></text>
<text
       transform="scale(1,-1)"
       id="text4306"
       x="129.35202"
       y="-529.94824"><tspan
         style="font-size:30.00024033px;font-variant:normal;font-weight:normal;writing-mode:lr-tb;fill:#000000;fill-opacity:1;fill-rule:nonzero;stroke:none;font-family:ARIAL;-inkscape-font-specification:ARIAL"
         x="129.35202"
         y="-529.94824"
         id="tspan4308">1</tspan></text>
<text
       transform="scale(1,-1)"
       id="text4310"
       x="109.34211"
       y="-464.74738"><tspan
         style="font-size:30.00024033px;font-variant:normal;font-weight:normal;writing-mode:lr-tb;fill:#000000;fill-opacity:1;fill-rule:nonzero;stroke:none;font-family:ARIAL;-inkscape-font-specification:ARIAL"
         x="109.34211"
         y="-464.74738"
         id="tspan4312">A</tspan></text>
<text
       transform="scale(1,-1)"
       id="text4314"
       x="129.35202"
       y="-464.74738"><tspan
         style="font-size:30.00024033px;font-variant:normal;font-weight:normal;writing-mode:lr-tb;fill:#000000;fill-opacity:1;fill-rule:nonzero;stroke:none;font-family:ARIAL;-inkscape-font-specification:ARIAL"
         x="129.35202"
         y="-464.74738"
         id="tspan4316">2</tspan></text>
<text
       transform="scale(1,-1)"
       id="text4318"
       x="109.34211"
       y="-396.71719"><tspan
         style="font-size:30.00024033px;font-variant:normal;font-weight:normal;writing-mode:lr-tb;fill:#000000;fill-opacity:1;fill-rule:nonzero;stroke:none;font-family:ARIAL;-inkscape-font-specification:ARIAL"
         x="109.34211"
         y="-396.71719"
         id="tspan4320">A</tspan></text>
<text
       transform="scale(1,-1)"
       id="text4322"
       x="129.35202"
       y="-396.71719"><tspan
         style="font-size:30.00024033px;font-variant:normal;font-weight:normal;writing-mode:lr-tb;fill:#000000;fill-opacity:1;fill-rule:nonzero;stroke:none;font-family:ARIAL;-inkscape-font-specification:ARIAL"
         x="129.35202"
         y="-396.71719"
         id="tspan4324">3</tspan></text>
<text
       transform="scale(1,-1)"
       id="text4326"
       x="8.6322241"
       y="-147.48721"><tspan
         style="font-size:30.00024033px;font-variant:normal;font-weight:normal;writing-mode:lr-tb;fill:#000000;fill-opacity:1;fill-rule:nonzero;stroke:none;font-family:ARIAL;-inkscape-font-specification:ARIAL"
         x="8.6322241 28.642488 38.632492 55.317055 72.001595 81.991577 98.676071 123.66645 140.35098 155.35146 172.03603 180.37074 197.0553 203.72041"
         y="-147.48721"
         sodipodi:role="line"
         id="tspan4328">Programovateln</tspan></text>
<text
       transform="scale(1,-1)"
       id="text4330"
       x="220.41202"
       y="-147.48721"><tspan
         style="font-size:30.00024033px;font-variant:normal;font-weight:normal;writing-mode:lr-tb;fill:#000000;fill-opacity:1;fill-rule:nonzero;stroke:none;font-family:ARIAL;-inkscape-font-specification:ARIAL"
         x="220.41202 237.09659"
         y="-147.48721"
         sodipodi:role="line"
         id="tspan4332">é </tspan></text>
<text
       transform="scale(1,-1)"
       id="text4334"
       x="67.832245"
       y="-111.48728"><tspan
         style="font-size:30.00024033px;font-variant:normal;font-weight:normal;writing-mode:lr-tb;fill:#000000;fill-opacity:1;fill-rule:nonzero;stroke:none;font-family:ARIAL;-inkscape-font-specification:ARIAL"
         x="67.832245 84.516777 101.20125 107.86635 124.55083 132.88553 156.22073"
         y="-111.48728"
         sodipodi:role="line"
         id="tspan4336">pole OR</tspan></text>
<text
       transform="scale(1,-1)"
       id="text4338"
       x="726.95294"
       y="-553.59827"><tspan
         style="font-size:30.00024033px;font-variant:normal;font-weight:normal;writing-mode:lr-tb;fill:#000000;fill-opacity:1;fill-rule:nonzero;stroke:none;font-family:ARIAL;-inkscape-font-specification:ARIAL"
         x="726.95294 746.9632"
         y="-553.59827"
         sodipodi:role="line"
         id="tspan4340">Pr</tspan></text>
<text
       transform="scale(1,-1)"
       id="text4342"
       x="756.95294"
       y="-553.59827"><tspan
         style="font-size:30.00024033px;font-variant:normal;font-weight:normal;writing-mode:lr-tb;fill:#000000;fill-opacity:1;fill-rule:nonzero;stroke:none;font-family:ARIAL;-inkscape-font-specification:ARIAL"
         x="756.95294 773.63751 790.32208 800.31207 816.99664 841.98712 858.67163 873.67212 890.35669 898.69141 915.37598 922.04108"
         y="-553.59827"
         sodipodi:role="line"
         id="tspan4344">ogramovateln</tspan></text>
<text
       transform="scale(1,-1)"
       id="text4346"
       x="938.72296"
       y="-553.59827"><tspan
         style="font-size:30.00024033px;font-variant:normal;font-weight:normal;writing-mode:lr-tb;fill:#000000;fill-opacity:1;fill-rule:nonzero;stroke:none;font-family:ARIAL;-inkscape-font-specification:ARIAL"
         x="938.72296 955.40741"
         y="-553.59827"
         sodipodi:role="line"
         id="tspan4348">é </tspan></text>
<text
       transform="scale(1,-1)"
       id="text4350"
       x="776.98291"
       y="-517.59827"><tspan
         style="font-size:30.00024033px;font-variant:normal;font-weight:normal;writing-mode:lr-tb;fill:#000000;fill-opacity:1;fill-rule:nonzero;stroke:none;font-family:ARIAL;-inkscape-font-specification:ARIAL"
         x="776.98291 793.66748 810.35205 817.01715 833.70172 842.03644 862.04669 883.71149"
         y="-517.59827"
         sodipodi:role="line"
         id="tspan4352">pole AND</tspan></text>
<text
       transform="scale(1,-1)"
       id="text4354"
       x="718.79297"
       y="-474.27753"><tspan
         style="font-size:30.00024033px;font-variant:normal;font-weight:normal;writing-mode:lr-tb;fill:#000000;fill-opacity:1;fill-rule:nonzero;stroke:none;font-family:ARIAL;-inkscape-font-specification:ARIAL"
         x="718.79297"
         y="-474.27753"
         id="tspan4356">(</tspan></text>
<text
       transform="scale(1,-1)"
       id="text4358"
       x="728.78296"
       y="-474.27753"><tspan
         style="font-size:30.00024033px;font-variant:normal;font-weight:normal;writing-mode:lr-tb;fill:#000000;fill-opacity:1;fill-rule:nonzero;stroke:none;font-family:ARIAL;-inkscape-font-specification:ARIAL"
         x="728.78296 748.79315 765.47772 775.46771 792.15228 807.15277 823.83734 838.83783 853.83832 862.17303 878.8576 895.54211 910.5426 927.22717 943.91174 960.59631"
         y="-474.27753"
         sodipodi:role="line"
         id="tspan4360">Adresový dekodér</tspan></text>
<text
       transform="scale(1,-1)"
       id="text4362"
       x="970.58276"
       y="-474.27753"><tspan
         style="font-size:30.00024033px;font-variant:normal;font-weight:normal;writing-mode:lr-tb;fill:#000000;fill-opacity:1;fill-rule:nonzero;stroke:none;font-family:ARIAL;-inkscape-font-specification:ARIAL"
         x="970.58276"
         y="-474.27753"
         id="tspan4364">)</tspan></text>
</g></svg>