<?xml version="1.0" encoding="UTF-8" standalone="no"?>
<!-- Created with Inkscape (http://www.inkscape.org/) -->

<svg
   xmlns:dc="http://purl.org/dc/elements/1.1/"
   xmlns:cc="http://creativecommons.org/ns#"
   xmlns:rdf="http://www.w3.org/1999/02/22-rdf-syntax-ns#"
   xmlns:svg="http://www.w3.org/2000/svg"
   xmlns="http://www.w3.org/2000/svg"
   xmlns:sodipodi="http://sodipodi.sourceforge.net/DTD/sodipodi-0.dtd"
   xmlns:inkscape="http://www.inkscape.org/namespaces/inkscape"
   width="471"
   height="310"
   id="svg4381"
   version="1.1"
   inkscape:version="0.48.4 r9939"
   sodipodi:docname="New document 6">
  <defs
     id="defs4383">
    <clipPath
       clipPathUnits="userSpaceOnUse"
       id="clipPath3001">
      <path
         inkscape:connector-curvature="0"
         d="M 0,0 595,0 595,841 0,841 0,0 z"
         id="path3003" />
    </clipPath>
  </defs>
  <sodipodi:namedview
     id="base"
     pagecolor="#ffffff"
     bordercolor="#666666"
     borderopacity="1.0"
     inkscape:pageopacity="0.0"
     inkscape:pageshadow="2"
     inkscape:zoom="0.98994949"
     inkscape:cx="306.92982"
     inkscape:cy="287.4513"
     inkscape:document-units="px"
     inkscape:current-layer="layer1"
     showgrid="false"
     inkscape:window-width="1846"
     inkscape:window-height="1178"
     inkscape:window-x="1912"
     inkscape:window-y="-8"
     inkscape:window-maximized="1" />
  <metadata
     id="metadata4386">
    <rdf:RDF>
      <cc:Work
         rdf:about="">
        <dc:format>image/svg+xml</dc:format>
        <dc:type
           rdf:resource="http://purl.org/dc/dcmitype/StillImage" />
        <dc:title></dc:title>
      </cc:Work>
    </rdf:RDF>
  </metadata>
  <g
     inkscape:label="Layer 1"
     inkscape:groupmode="layer"
     id="layer1"
     transform="translate(0,-742.36218)">
    <g
       transform="matrix(1.25,0,0,-1.25,-98.549595,1562.5003)"
       id="g2999"
       clip-path="url(#clipPath3001)">
      <g
         id="g3065"
         transform="translate(0,-0.11)" />
      <g
         id="g3071"
         transform="translate(0,-0.11)" />
      <path
         inkscape:connector-curvature="0"
         d="m 81.302857,448.16571 34.434003,0 0,20.517 -34.434003,0 0,-20.517 z"
         style="fill:#ffffff;fill-opacity:1;fill-rule:nonzero;stroke:none"
         id="path3073" />
      <g
         id="g3075"
         transform="translate(-38.857143,27.775714)">
        <text
           transform="matrix(1,0,0,-1,127.3585,430.8278)"
           id="text3077">
          <tspan
             style="font-size:6.95889997px;font-variant:normal;font-weight:normal;writing-mode:lr-tb;fill:#010202;fill-opacity:1;fill-rule:nonzero;stroke:none;font-family:Arial;-inkscape-font-specification:Arial"
             x="0 4.6791644 6.6026044 10.439742 12.363182"
             y="0"
             sodipodi:role="line"
             id="tspan3079">SIL 2</tspan>
        </text>
      </g>
      <path
         inkscape:connector-curvature="0"
         d="m 80.822857,430.16771 34.434003,0 0,20.517 -34.434003,0 0,-20.517 z"
         style="fill:#ffffff;fill-opacity:1;fill-rule:nonzero;stroke:none"
         id="path3081" />
      <g
         id="g3083"
         transform="translate(-38.857143,27.775714)">
        <text
           transform="matrix(1,0,0,-1,126.7586,412.8307)"
           id="text3085">
          <tspan
             style="font-size:6.95889997px;font-variant:normal;font-weight:normal;writing-mode:lr-tb;fill:#010202;fill-opacity:1;fill-rule:nonzero;stroke:none;font-family:Arial;-inkscape-font-specification:Arial"
             x="0 4.6791644 6.6026044 10.439742 12.363182"
             y="0"
             sodipodi:role="line"
             id="tspan3087">SIL 1</tspan>
        </text>
      </g>
      <path
         inkscape:connector-curvature="0"
         d="m 80.822857,410.73171 34.434003,0 0,20.517 -34.434003,0 0,-20.517 z"
         style="fill:#ffffff;fill-opacity:1;fill-rule:nonzero;stroke:none"
         id="path3089" />
      <g
         id="g3091"
         transform="translate(-38.857143,27.775714)">
        <text
           transform="matrix(1,0,0,-1,126.7586,393.394)"
           id="text3093">
          <tspan
             style="font-size:6.95889997px;font-variant:normal;font-weight:normal;writing-mode:lr-tb;fill:#010202;fill-opacity:1;fill-rule:nonzero;stroke:none;font-family:Arial;-inkscape-font-specification:Arial"
             x="0 4.6791644 6.6026044 10.439742 12.363182"
             y="0"
             sodipodi:role="line"
             id="tspan3095">SIL 0</tspan>
        </text>
      </g>
      <g
         id="g3097"
         transform="translate(-38.857143,27.775714)">
        <text
           transform="matrix(1,0,0,-1,309.7297,612.5993)"
           id="text3099">
          <tspan
             style="font-size:6.95889997px;font-variant:normal;font-weight:normal;writing-mode:lr-tb;fill:#010202;fill-opacity:1;fill-rule:nonzero;stroke:none;font-family:Arial;-inkscape-font-specification:Arial"
             x="0 4.6791644 8.5163021 10.439742 14.276879 16.311661 19.668634 21.710377 23.633816 27.470953 29.505735 33.342873 37.312229 39.590572 41.152149 43.193893"
             y="0"
             sodipodi:role="line"
             id="tspan3101">Safety Integrity</tspan>
        </text>
      </g>
      <g
         id="g3103"
         transform="translate(-38.857143,27.775714)">
        <text
           transform="matrix(1,0,0,-1,241.9402,564.3679)"
           id="text3105">
          <tspan
             style="font-size:6.95889997px;font-variant:normal;font-weight:normal;writing-mode:lr-tb;fill:#010202;fill-opacity:1;fill-rule:nonzero;stroke:none;font-family:Arial;-inkscape-font-specification:Arial"
             x="0 4.7995534 8.0403128 11.524634 13.568463 17.407688 23.285872 27.125095 29.043665 30.593412 34.077732 36.121563 40.440952 44.280178 45.829922 47.379669 51.218895 53.61763"
             y="0"
             sodipodi:role="line"
             id="tspan3107">Systematic Failure</tspan>
        </text>
      </g>
      <g
         id="g3109"
         transform="translate(-38.857143,27.775714)">
        <text
           transform="matrix(1,0,0,-1,259.0974,555.8495)"
           id="text3111">
          <tspan
             style="font-size:6.95889997px;font-variant:normal;font-weight:normal;writing-mode:lr-tb;fill:#010202;fill-opacity:1;fill-rule:nonzero;stroke:none;font-family:Arial;-inkscape-font-specification:Arial"
             x="0 1.9206564 5.775887 7.6965432 11.656157 15.511388 17.814783 19.345741 21.384699"
             y="0"
             sodipodi:role="line"
             id="tspan3113">Integrity</tspan>
        </text>
      </g>
      <g
         id="g3115"
         transform="translate(-38.857143,27.775714)">
        <text
           transform="matrix(1,0,0,-1,375.478,561.9685)"
           id="text3117">
          <tspan
             style="font-size:6.95889997px;font-variant:normal;font-weight:normal;writing-mode:lr-tb;fill:#010202;fill-opacity:1;fill-rule:nonzero;stroke:none;font-family:Arial;-inkscape-font-specification:Arial"
             x="0 5.0382438 8.8795567 12.720869 16.680483 20.521795 26.402067 28.322723 32.644199 36.485512 38.044308 39.6031 43.562714 45.852192"
             y="0"
             sodipodi:role="line"
             id="tspan3119">Random Failure</tspan>
        </text>
      </g>
      <g
         id="g3121"
         transform="translate(-38.857143,27.775714)">
        <text
           transform="matrix(1,0,0,-1,390.2365,552.9699)"
           id="text3123">
          <tspan
             style="font-size:6.95889997px;font-variant:normal;font-weight:normal;writing-mode:lr-tb;fill:#010202;fill-opacity:1;fill-rule:nonzero;stroke:none;font-family:Arial;-inkscape-font-specification:Arial"
             x="0 1.9206564 5.775887 7.6965432 11.656157 15.511388 17.814783 19.345741 21.384699"
             y="0"
             sodipodi:role="line"
             id="tspan3125">Integrity</tspan>
        </text>
      </g>
      <g
         id="g3127"
         transform="translate(-38.857143,27.775714)">
        <text
           transform="matrix(1,0,0,-1,260.2971,525.7342)"
           id="text3129">
          <tspan
             style="font-size:6.95889997px;font-variant:normal;font-weight:normal;writing-mode:lr-tb;fill:#010202;fill-opacity:1;fill-rule:nonzero;stroke:none;font-family:Arial;-inkscape-font-specification:Arial"
             x="0 4.6791644 8.5163021 10.439742 14.276879 16.318621"
             y="0"
             sodipodi:role="line"
             id="tspan3131">Safety</tspan>
        </text>
      </g>
      <g
         id="g3133"
         transform="translate(-38.857143,27.775714)">
        <text
           transform="matrix(1,0,0,-1,249.7391,517.4545)"
           id="text3135">
          <tspan
             style="font-size:6.95889997px;font-variant:normal;font-weight:normal;writing-mode:lr-tb;fill:#010202;fill-opacity:1;fill-rule:nonzero;stroke:none;font-family:Arial;-inkscape-font-specification:Arial"
             x="0 5.8788786 9.7187996 13.558721 17.398642 21.356865 25.196785 31.075665 34.915585 38.755505"
             y="0"
             sodipodi:role="line"
             id="tspan3137">management</tspan>
        </text>
      </g>
      <g
         id="g3139"
         transform="translate(-38.857143,27.775714)">
        <text
           transform="matrix(1,0,0,-1,254.5386,509.1755)"
           id="text3141">
          <tspan
             style="font-size:6.95889997px;font-variant:normal;font-weight:normal;writing-mode:lr-tb;fill:#010202;fill-opacity:1;fill-rule:nonzero;stroke:none;font-family:Arial;-inkscape-font-specification:Arial"
             x="0 3.4557898 7.3012781 11.146766 14.992254 16.673525 18.584438 20.140448 23.985937 27.942766"
             y="0"
             sodipodi:role="line"
             id="tspan3143">conditions</tspan>
        </text>
      </g>
      <g
         id="g3145"
         transform="translate(-38.857143,27.775714)">
        <path
           inkscape:connector-curvature="0"
           d="m 243.02,506.415 61.19,0 0,27.595 -61.19,0 0,-27.595 z"
           style="fill:none;stroke:#010202;stroke-width:0.12;stroke-linecap:butt;stroke-linejoin:miter;stroke-miterlimit:10;stroke-opacity:1;stroke-dasharray:none"
           id="path3147" />
      </g>
      <g
         id="g3149"
         transform="translate(-38.857143,27.775714)">
        <text
           transform="matrix(1,0,0,-1,328.6855,527.5319)"
           id="text3151">
          <tspan
             style="font-size:6.95889997px;font-variant:normal;font-weight:normal;writing-mode:lr-tb;fill:#010202;fill-opacity:1;fill-rule:nonzero;stroke:none;font-family:Arial;-inkscape-font-specification:Arial"
             x="0 4.320085 8.1600065 11.617188 15.464067 19.310947 20.868349 24.464708 28.30463"
             y="0"
             sodipodi:role="line"
             id="tspan3153">Technical</tspan>
        </text>
      </g>
      <g
         id="g3155"
         transform="translate(-38.857143,27.775714)">
        <text
           transform="matrix(1,0,0,-1,334.2046,519.2529)"
           id="text3157">
          <tspan
             style="font-size:6.95889997px;font-variant:normal;font-weight:normal;writing-mode:lr-tb;fill:#010202;fill-opacity:1;fill-rule:nonzero;stroke:none;font-family:Arial;-inkscape-font-specification:Arial"
             x="0 3.4606609 7.3110204 9.2268057 13.077165 15.236511"
             y="0"
             sodipodi:role="line"
             id="tspan3159">safety</tspan>
        </text>
      </g>
      <g
         id="g3161"
         transform="translate(-38.857143,27.775714)">
        <text
           transform="matrix(1,0,0,-1,327.7259,510.9739)"
           id="text3163">
          <tspan
             style="font-size:6.95889997px;font-variant:normal;font-weight:normal;writing-mode:lr-tb;fill:#010202;fill-opacity:1;fill-rule:nonzero;stroke:none;font-family:Arial;-inkscape-font-specification:Arial"
             x="0 3.4557898 7.3012781 11.146766 14.992254 16.673525 18.584438 20.140448 23.985937 27.942766"
             y="0"
             sodipodi:role="line"
             id="tspan3165">conditions</tspan>
        </text>
      </g>
      <g
         id="g3167"
         transform="translate(-38.857143,27.775714)">
        <path
           inkscape:connector-curvature="0"
           d="m 319.207,506.415 61.19,0 0,27.595 -61.19,0 0,-27.595 z"
           style="fill:none;stroke:#010202;stroke-width:0.12;stroke-linecap:butt;stroke-linejoin:miter;stroke-miterlimit:10;stroke-opacity:1;stroke-dasharray:none"
           id="path3169" />
      </g>
      <g
         id="g3171"
         transform="translate(-38.857143,27.775714)">
        <text
           transform="matrix(1,0,0,-1,420.7104,524.7724)"
           id="text3173">
          <tspan
             style="font-size:6.95889997px;font-variant:normal;font-weight:normal;writing-mode:lr-tb;fill:#010202;fill-opacity:1;fill-rule:nonzero;stroke:none;font-family:Arial;-inkscape-font-specification:Arial"
             x="0 5.3987145 9.252553 13.210775 17.064615 18.983879 20.513445 22.432711 23.962276 27.920498 31.774338 33.693604 38.375549 42.333771 44.253036 48.106876 50.151402"
             y="0"
             sodipodi:role="line"
             id="tspan3175">Quantified Safety</tspan>
        </text>
      </g>
      <g
         id="g3177"
         transform="translate(-38.857143,27.775714)">
        <text
           transform="matrix(1,0,0,-1,434.988,510.4948)"
           id="text3179">
          <tspan
             style="font-size:6.95889997px;font-variant:normal;font-weight:normal;writing-mode:lr-tb;fill:#010202;fill-opacity:1;fill-rule:nonzero;stroke:none;font-family:Arial;-inkscape-font-specification:Arial"
             x="0 4.3305235 8.1669655 10.444613 14.281054 18.228838 20.151583"
             y="0"
             sodipodi:role="line"
             id="tspan3181">Targets</tspan>
        </text>
      </g>
      <g
         id="g3183"
         transform="translate(-38.857143,27.775714)">
        <path
           inkscape:connector-curvature="0"
           d="m 411.592,506.415 77.507,0 0,27.595 -77.507,0 0,-27.595 z m -246.56,0 61.31,0 0,27.595 -61.31,0 0,-27.595 z"
           style="fill:none;stroke:#010202;stroke-width:0.12;stroke-linecap:butt;stroke-linejoin:miter;stroke-miterlimit:10;stroke-opacity:1;stroke-dasharray:none"
           id="path3185" />
      </g>
      <g
         id="g3187"
         transform="translate(-38.857143,27.775714)">
        <text
           transform="matrix(1,0,0,-1,180.9897,525.7322)"
           id="text3189">
          <tspan
             style="font-size:6.95889997px;font-variant:normal;font-weight:normal;writing-mode:lr-tb;fill:#010202;fill-opacity:1;fill-rule:nonzero;stroke:none;font-family:Arial;-inkscape-font-specification:Arial"
             x="0 5.4209833 9.2622957 13.103609 14.655443 16.207277 18.371496"
             y="0"
             sodipodi:role="line"
             id="tspan3191">Quality</tspan>
        </text>
      </g>
      <g
         id="g3193"
         transform="translate(-38.857143,27.775714)">
        <text
           transform="matrix(1,0,0,-1,171.0315,517.4532)"
           id="text3195">
          <tspan
             style="font-size:6.95889997px;font-variant:normal;font-weight:normal;writing-mode:lr-tb;fill:#010202;fill-opacity:1;fill-rule:nonzero;stroke:none;font-family:Arial;-inkscape-font-specification:Arial"
             x="0 5.8788786 9.7187996 13.558721 17.398642 21.356865 25.196785 31.075665 34.915585 38.755505"
             y="0"
             sodipodi:role="line"
             id="tspan3197">management</tspan>
        </text>
      </g>
      <g
         id="g3199"
         transform="translate(-38.857143,27.775714)">
        <text
           transform="matrix(1,0,0,-1,175.9508,509.1742)"
           id="text3201">
          <tspan
             style="font-size:6.95889997px;font-variant:normal;font-weight:normal;writing-mode:lr-tb;fill:#010202;fill-opacity:1;fill-rule:nonzero;stroke:none;font-family:Arial;-inkscape-font-specification:Arial"
             x="0 3.4557898 7.3012781 11.146766 14.992254 16.673525 18.584438 20.140448 23.985937 27.942766"
             y="0"
             sodipodi:role="line"
             id="tspan3203">conditions</tspan>
        </text>
      </g>
      <g
         id="g3205"
         transform="translate(297.98686,630.65571)">
        <path
           inkscape:connector-curvature="0"
           d="m 0,0 0,-20.037 0.12,0"
           style="fill:none;stroke:#010202;stroke-width:0.12;stroke-linecap:butt;stroke-linejoin:miter;stroke-miterlimit:10;stroke-opacity:1;stroke-dasharray:none"
           id="path3207" />
      </g>
      <g
         id="g3209"
         transform="translate(236.31686,610.49871)">
        <path
           inkscape:connector-curvature="0"
           d="M 0,0 123.58,0"
           style="fill:none;stroke:#010202;stroke-width:0.12;stroke-linecap:butt;stroke-linejoin:miter;stroke-miterlimit:10;stroke-opacity:1;stroke-dasharray:none"
           id="path3211" />
      </g>
      <g
         id="g3213"
         transform="translate(236.31686,610.61871)">
        <path
           inkscape:connector-curvature="0"
           d="m 0,0 0,-9.118 0.24,0"
           style="fill:none;stroke:#010202;stroke-width:0.12;stroke-linecap:butt;stroke-linejoin:miter;stroke-miterlimit:10;stroke-opacity:1;stroke-dasharray:none"
           id="path3215" />
      </g>
      <g
         id="g3217"
         transform="translate(359.77686,610.61871)">
        <path
           inkscape:connector-curvature="0"
           d="m 0,0 0,-9.118 0.12,0"
           style="fill:none;stroke:#010202;stroke-width:0.12;stroke-linecap:butt;stroke-linejoin:miter;stroke-miterlimit:10;stroke-opacity:1;stroke-dasharray:none"
           id="path3219" />
      </g>
      <g
         id="g3221"
         transform="translate(232.71786,577.98371)">
        <path
           inkscape:connector-curvature="0"
           d="m 0,0 0,-11.158 0.12,0"
           style="fill:none;stroke:#010202;stroke-width:0.12;stroke-linecap:butt;stroke-linejoin:miter;stroke-miterlimit:10;stroke-opacity:1;stroke-dasharray:none"
           id="path3223" />
      </g>
      <g
         id="g3225"
         transform="translate(158.44986,566.82571)">
        <path
           inkscape:connector-curvature="0"
           d="M 0,0 132.458,0"
           style="fill:none;stroke:#010202;stroke-width:0.12;stroke-linecap:butt;stroke-linejoin:miter;stroke-miterlimit:10;stroke-opacity:1;stroke-dasharray:none"
           id="path3227" />
      </g>
      <g
         id="g3229"
         transform="translate(290.78786,566.82571)">
        <path
           inkscape:connector-curvature="0"
           d="m 0,0 0,-5.039 0.12,0"
           style="fill:none;stroke:#010202;stroke-width:0.12;stroke-linecap:butt;stroke-linejoin:miter;stroke-miterlimit:10;stroke-opacity:1;stroke-dasharray:none"
           id="path3231" />
      </g>
      <g
         id="g3233"
         transform="translate(158.44986,566.82571)">
        <path
           inkscape:connector-curvature="0"
           d="m 0,0 0,-5.039 0.12,0"
           style="fill:none;stroke:#010202;stroke-width:0.12;stroke-linecap:butt;stroke-linejoin:miter;stroke-miterlimit:10;stroke-opacity:1;stroke-dasharray:none"
           id="path3235" />
      </g>
      <g
         id="g3237"
         transform="translate(232.71786,566.82571)">
        <path
           inkscape:connector-curvature="0"
           d="m 0,0 0,-5.039 0.12,0"
           style="fill:none;stroke:#010202;stroke-width:0.12;stroke-linecap:butt;stroke-linejoin:miter;stroke-miterlimit:10;stroke-opacity:1;stroke-dasharray:none"
           id="path3239" />
      </g>
      <g
         id="g3241"
         transform="translate(365.05586,577.98371)">
        <path
           inkscape:connector-curvature="0"
           d="m 0,0 0,-11.158 0.12,0"
           style="fill:none;stroke:#010202;stroke-width:0.12;stroke-linecap:butt;stroke-linejoin:miter;stroke-miterlimit:10;stroke-opacity:1;stroke-dasharray:none"
           id="path3243" />
      </g>
      <g
         id="g3245"
         transform="translate(330.62186,566.82571)">
        <path
           inkscape:connector-curvature="0"
           d="M 0,0 81.827,0"
           style="fill:none;stroke:#010202;stroke-width:0.12;stroke-linecap:butt;stroke-linejoin:miter;stroke-miterlimit:10;stroke-opacity:1;stroke-dasharray:none"
           id="path3247" />
      </g>
      <g
         id="g3249"
         transform="translate(412.32886,566.82571)">
        <path
           inkscape:connector-curvature="0"
           d="m 0,0 0,-5.039 0.12,0"
           style="fill:none;stroke:#010202;stroke-width:0.12;stroke-linecap:butt;stroke-linejoin:miter;stroke-miterlimit:10;stroke-opacity:1;stroke-dasharray:none"
           id="path3251" />
      </g>
      <g
         id="g3253"
         transform="translate(330.62186,566.82571)">
        <path
           inkscape:connector-curvature="0"
           d="m 0,0 0,-5.039 0.12,0"
           style="fill:none;stroke:#010202;stroke-width:0.12;stroke-linecap:butt;stroke-linejoin:miter;stroke-miterlimit:10;stroke-opacity:1;stroke-dasharray:none"
           id="path3255" />
      </g>
      <g
         id="g3257"
         transform="translate(156.53086,534.07071)">
        <path
           inkscape:connector-curvature="0"
           d="m 0,0 0,-19.437 0.24,0"
           style="fill:none;stroke:#010202;stroke-width:0.12;stroke-linecap:butt;stroke-linejoin:miter;stroke-miterlimit:10;stroke-opacity:1;stroke-dasharray:none"
           id="path3259" />
      </g>
      <path
         inkscape:connector-curvature="0"
         d="m 162.16886,521.95271 -5.639,-7.319 -5.639,7.319 5.639,-3.719 5.639,3.719"
         style="fill:#010202;fill-opacity:1;fill-rule:evenodd;stroke:none"
         id="path3261" />
      <g
         id="g3263"
         transform="translate(162.16886,521.95271)">
        <path
           inkscape:connector-curvature="0"
           d="M 0,0 -5.639,-7.319 -11.278,0 -5.639,-3.719 0,0 z"
           style="fill:none;stroke:#010202;stroke-width:0.12;stroke-linecap:butt;stroke-linejoin:miter;stroke-miterlimit:10;stroke-opacity:1;stroke-dasharray:none"
           id="path3265" />
      </g>
      <g
         id="g3267"
         transform="translate(232.71686,534.07071)">
        <path
           inkscape:connector-curvature="0"
           d="m 0,0 0,-19.437 0.12,0"
           style="fill:none;stroke:#010202;stroke-width:0.12;stroke-linecap:butt;stroke-linejoin:miter;stroke-miterlimit:10;stroke-opacity:1;stroke-dasharray:none"
           id="path3269" />
      </g>
      <path
         inkscape:connector-curvature="0"
         d="m 238.35686,521.95271 -5.639,-7.319 -5.639,7.319 5.639,-3.719 5.639,3.719"
         style="fill:#010202;fill-opacity:1;fill-rule:evenodd;stroke:none"
         id="path3271" />
      <g
         id="g3273"
         transform="translate(238.35686,521.95271)">
        <path
           inkscape:connector-curvature="0"
           d="M 0,0 -5.639,-7.319 -11.278,0 -5.639,-3.719 0,0 z"
           style="fill:none;stroke:#010202;stroke-width:0.12;stroke-linecap:butt;stroke-linejoin:miter;stroke-miterlimit:10;stroke-opacity:1;stroke-dasharray:none"
           id="path3275" />
      </g>
      <g
         id="g3277"
         transform="translate(310.70486,534.07071)">
        <path
           inkscape:connector-curvature="0"
           d="m 0,0 0,-19.437 0.12,0"
           style="fill:none;stroke:#010202;stroke-width:0.12;stroke-linecap:butt;stroke-linejoin:miter;stroke-miterlimit:10;stroke-opacity:1;stroke-dasharray:none"
           id="path3279" />
      </g>
      <path
         inkscape:connector-curvature="0"
         d="m 316.34386,521.95271 -5.639,-7.319 -5.759,7.319 5.759,-3.719 5.639,3.719"
         style="fill:#010202;fill-opacity:1;fill-rule:evenodd;stroke:none"
         id="path3281" />
      <g
         id="g3283"
         transform="translate(316.34386,521.95271)">
        <path
           inkscape:connector-curvature="0"
           d="M 0,0 -5.639,-7.319 -11.398,0 -5.639,-3.719 0,0 z"
           style="fill:none;stroke:#010202;stroke-width:0.12;stroke-linecap:butt;stroke-linejoin:miter;stroke-miterlimit:10;stroke-opacity:1;stroke-dasharray:none"
           id="path3285" />
      </g>
      <g
         id="g3287"
         transform="translate(112.61686,513.43371)">
        <path
           inkscape:connector-curvature="0"
           d="M 0,0 338.464,0"
           style="fill:none;stroke:#010202;stroke-width:0.12;stroke-linecap:butt;stroke-linejoin:miter;stroke-miterlimit:10;stroke-opacity:1;stroke-dasharray:none"
           id="path3289" />
      </g>
      <g
         id="g3291"
         transform="translate(112.61686,490.87771)">
        <path
           inkscape:connector-curvature="0"
           d="M 0,0 338.464,0"
           style="fill:none;stroke:#010202;stroke-width:0.12;stroke-linecap:butt;stroke-linejoin:miter;stroke-miterlimit:10;stroke-opacity:1;stroke-dasharray:none"
           id="path3293" />
      </g>
      <g
         id="g3295"
         transform="translate(111.41686,470.00071)">
        <path
           inkscape:connector-curvature="0"
           d="M 0,0 339.664,0"
           style="fill:none;stroke:#010202;stroke-width:0.12;stroke-linecap:butt;stroke-linejoin:miter;stroke-miterlimit:10;stroke-opacity:1;stroke-dasharray:none"
           id="path3297" />
      </g>
      <g
         id="g3299"
         transform="translate(111.41686,449.36371)">
        <path
           inkscape:connector-curvature="0"
           d="M 0,0 339.664,0"
           style="fill:none;stroke:#010202;stroke-width:0.12;stroke-linecap:butt;stroke-linejoin:miter;stroke-miterlimit:10;stroke-opacity:1;stroke-dasharray:none"
           id="path3301" />
      </g>
      <path
         inkscape:connector-curvature="0"
         d="m 112.25786,409.89171 338.824,0 0,21.237 -338.824,0 0,-21.237 z"
         style="fill:#808080;fill-opacity:1;fill-rule:nonzero;stroke:none"
         id="path3303" />
      <g
         id="g3305"
         transform="translate(-38.857143,27.775714)">
        <path
           inkscape:connector-curvature="0"
           d="m 150.995,382.116 338.944,0 0,21.357 -338.944,0 0,-21.357 z"
           style="fill:none;stroke:#010202;stroke-width:0.12;stroke-linecap:butt;stroke-linejoin:miter;stroke-miterlimit:10;stroke-opacity:1;stroke-dasharray:none"
           id="path3307" />
      </g>
      <path
         inkscape:connector-curvature="0"
         d="m 169.00786,438.32671 134.858,0 0,63.829 -134.858,0 0,-63.829 z"
         style="fill:#ffffff;fill-opacity:1;fill-rule:nonzero;stroke:none"
         id="path3309" />
      <g
         id="g3311"
         transform="translate(-38.857143,27.775714)">
        <path
           inkscape:connector-curvature="0"
           d="m 207.865,410.551 134.858,0 0,63.829 -134.858,0 0,-63.829 z"
           style="fill:none;stroke:#010202;stroke-width:0.72000003;stroke-linecap:round;stroke-linejoin:miter;stroke-miterlimit:10;stroke-opacity:1;stroke-dasharray:none"
           id="path3313" />
      </g>
      <g
         id="g3315"
         transform="translate(-38.857143,27.775714)">
        <text
           transform="matrix(1,0,0,-1,243.7394,462.0227)"
           id="text3317">
          <tspan
             style="font-size:8.99849987px;font-variant:normal;font-weight:normal;writing-mode:lr-tb;fill:#010202;fill-opacity:1;fill-rule:nonzero;stroke:none;font-family:Arial;-inkscape-font-specification:Arial"
             x="0 6.0316944 11.064555 16.097416 21.130278 26.163139 31.07902 33.610298 38.643158 41.039459 45.568405 50.601265 53.132542 55.654823 60.570702"
             y="0"
             sodipodi:role="line"
             id="tspan3319">Adequate set of</tspan>
        </text>
      </g>
      <g
         id="g3321"
         transform="translate(-38.857143,27.775714)">
        <text
           transform="matrix(1,0,0,-1,238.46,451.7041)"
           id="text3323">
          <tspan
             style="font-size:8.99849987px;font-variant:normal;font-weight:normal;writing-mode:lr-tb;fill:#010202;fill-opacity:1;fill-rule:nonzero;stroke:none;font-family:Arial;-inkscape-font-specification:Arial"
             x="0 7.5317445 12.570905 15.108481 20.021662 25.060823 30.099983 34.635227 37.037827 42.076984 47.116146 52.155308 54.557907 57.095482 62.134644 67.047821 69.081482"
             y="0"
             sodipodi:role="line"
             id="tspan3325">methods and tools</tspan>
        </text>
      </g>
      <g
         id="g3327"
         transform="translate(-38.857143,27.775714)">
        <text
           transform="matrix(1,0,0,-1,240.7384,441.2659)"
           id="text3329">
          <tspan
             style="font-size:8.99849987px;font-variant:normal;font-weight:normal;writing-mode:lr-tb;fill:#010202;fill-opacity:1;fill-rule:nonzero;stroke:none;font-family:Arial;-inkscape-font-specification:Arial"
             x="0 3.0342941 8.0752535 13.116214 17.653257 22.568237 27.609198 30.130577 35.045559 39.582603 44.119644 49.160606 52.041924 57.082886 59.118347 64.033325"
             y="0"
             sodipodi:role="line"
             id="tspan3331">ranked according</tspan>
        </text>
      </g>
      <g
         id="g3333"
         transform="translate(-38.857143,27.775714)">
        <text
           transform="matrix(1,0,0,-1,260.895,430.9473)"
           id="text3335">
          <tspan
             style="font-size:8.99849987px;font-variant:normal;font-weight:normal;writing-mode:lr-tb;fill:#010202;fill-opacity:1;fill-rule:nonzero;stroke:none;font-family:Arial;-inkscape-font-specification:Arial"
             x="0 2.5249791 7.5515413 12.578103 15.103083 21.128477 23.653458"
             y="0"
             sodipodi:role="line"
             id="tspan3337">the SIL</tspan>
        </text>
      </g>
      <g
         id="g3339"
         transform="translate(-38.857143,27.775714)">
        <text
           transform="matrix(1,0,0,-1,217.462,420.869)"
           id="text3341">
          <tspan
             style="font-size:8.99849987px;font-variant:normal;font-weight:normal;writing-mode:lr-tb;fill:#010202;fill-opacity:1;fill-rule:nonzero;stroke:none;font-family:Arial;-inkscape-font-specification:Arial"
             x="0 3.0261955 7.5551405 12.588001 17.620863 20.143143 26.021862 31.054724 36.087585 41.120445 45.442425 47.964706 53.996399 56.518677 61.55154 66.584404 71.617264 74.139542 79.541344 84.574203 89.607063 91.634422 96.66729 99.189568 105.06828 107.59057 112.62343"
             y="0"
             sodipodi:role="line"
             id="tspan3343">(see Annex E and Table A.1)</tspan>
        </text>
      </g>
      <path
         inkscape:connector-curvature="0"
         d="m 204.52286,409.89171 127.779,0 0,21.357 -127.779,0 0,-21.357 z"
         style="fill:#ffffff;fill-opacity:1;fill-rule:nonzero;stroke:none"
         id="path3345" />
      <g
         id="g3347"
         transform="translate(-38.857143,27.775714)">
        <path
           inkscape:connector-curvature="0"
           d="m 243.38,382.116 127.779,0 0,21.357 -127.779,0 0,-21.357 z"
           style="fill:none;stroke:#010202;stroke-width:0.72000003;stroke-linecap:round;stroke-linejoin:miter;stroke-miterlimit:10;stroke-opacity:1;stroke-dasharray:none"
           id="path3349" />
      </g>
      <g
         id="g3351"
         transform="translate(-38.857143,27.775714)">
        <text
           transform="matrix(1,0,0,-1,250.9383,390.9944)"
           id="text3353">
          <tspan
             style="font-size:8.99849987px;font-variant:normal;font-weight:normal;writing-mode:lr-tb;fill:#010202;fill-opacity:1;fill-rule:nonzero;stroke:none;font-family:Arial;-inkscape-font-specification:Arial"
             x="0 6.4771204 11.514481 14.032261 18.565704 23.603065 28.523445 33.056889 35.088753 37.489552 39.521412 44.054855 46.572636 49.450356 54.487717 59.525078 64.445457 66.477318 69.508011 74.545372 81.985336 87.022697 92.060051 94.460854"
             y="0"
             sodipodi:role="line"
             id="tspan3355">No specific requirements</tspan>
        </text>
      </g>
      <g
         id="g3357"
         transform="translate(112.25786,491.71771)">
        <path
           inkscape:connector-curvature="0"
           d="M 0,0 -26.996,0"
           style="fill:none;stroke:#010202;stroke-width:0.72000003;stroke-linecap:round;stroke-linejoin:round;stroke-miterlimit:10;stroke-opacity:1;stroke-dasharray:none"
           id="path3359" />
      </g>
      <g
         id="g3361"
         transform="translate(112.25786,449.72471)">
        <path
           inkscape:connector-curvature="0"
           d="M 0,0 -27.475,0"
           style="fill:none;stroke:#010202;stroke-width:0.72000003;stroke-linecap:round;stroke-linejoin:round;stroke-miterlimit:10;stroke-opacity:1;stroke-dasharray:none"
           id="path3363" />
      </g>
      <path
         inkscape:connector-curvature="0"
         d="m 80.342857,492.67771 34.434003,0 0,20.517 -34.434003,0 0,-20.517 z"
         style="fill:#ffffff;fill-opacity:1;fill-rule:nonzero;stroke:none"
         id="path3365" />
      <g
         id="g3367"
         transform="translate(-38.857143,27.775714)">
        <text
           transform="matrix(1,0,0,-1,126.2787,475.3405)"
           id="text3369">
          <tspan
             style="font-size:6.95889997px;font-variant:normal;font-weight:normal;writing-mode:lr-tb;fill:#010202;fill-opacity:1;fill-rule:nonzero;stroke:none;font-family:Arial;-inkscape-font-specification:Arial"
             x="0 4.6791644 6.6026044 10.439742 12.363182"
             y="0"
             sodipodi:role="line"
             id="tspan3371">SIL 4</tspan>
        </text>
      </g>
      <g
         id="g3373"
         transform="translate(112.73786,430.76771)">
        <path
           inkscape:connector-curvature="0"
           d="M 0,0 -27.475,-0.12"
           style="fill:none;stroke:#010202;stroke-width:0.72000003;stroke-linecap:round;stroke-linejoin:round;stroke-miterlimit:10;stroke-opacity:1;stroke-dasharray:none"
           id="path3375" />
      </g>
      <path
         inkscape:connector-curvature="0"
         d="m 81.302857,470.72171 34.434003,0 0,20.517 -34.434003,0 0,-20.517 z"
         style="fill:#ffffff;fill-opacity:1;fill-rule:nonzero;stroke:none"
         id="path3377" />
      <g
         id="g3379"
         transform="translate(-38.857143,27.775714)">
        <text
           transform="matrix(1,0,0,-1,127.3585,453.3841)"
           id="text3381">
          <tspan
             style="font-size:6.95889997px;font-variant:normal;font-weight:normal;writing-mode:lr-tb;fill:#010202;fill-opacity:1;fill-rule:nonzero;stroke:none;font-family:Arial;-inkscape-font-specification:Arial"
             x="0 4.6791644 6.6026044 10.439742 12.363182"
             y="0"
             sodipodi:role="line"
             id="tspan3383">SIL 3</tspan>
        </text>
      </g>
      <g
         id="g3385"
         transform="translate(111.77786,471.20171)">
        <path
           inkscape:connector-curvature="0"
           d="M 0,0 -26.516,0"
           style="fill:none;stroke:#010202;stroke-width:0.72000003;stroke-linecap:round;stroke-linejoin:round;stroke-miterlimit:10;stroke-opacity:1;stroke-dasharray:none"
           id="path3387" />
      </g>
      <g
         id="g3389"
         transform="translate(-38.857143,27.775714)">
        <path
           inkscape:connector-curvature="0"
           d="m 124.119,382.116 26.876,0 0,104.503 -26.876,0 0,-104.503 z"
           style="fill:none;stroke:#010202;stroke-width:0.72000003;stroke-linecap:round;stroke-linejoin:miter;stroke-miterlimit:10;stroke-opacity:1;stroke-dasharray:none"
           id="path3391" />
      </g>
      <path
         inkscape:connector-curvature="0"
         d="m 261.27286,578.22371 32.035,0 0,16.917 -32.035,0 0,-16.917 z"
         style="fill:#ffffff;fill-opacity:1;fill-rule:nonzero;stroke:none"
         id="path3393" />
    </g>
  </g>
</svg>
