<?xml version="1.0" encoding="UTF-8" standalone="no"?>
<!-- Created with Inkscape (http://www.inkscape.org/) -->

<svg
   xmlns:dc="http://purl.org/dc/elements/1.1/"
   xmlns:cc="http://creativecommons.org/ns#"
   xmlns:rdf="http://www.w3.org/1999/02/22-rdf-syntax-ns#"
   xmlns:svg="http://www.w3.org/2000/svg"
   xmlns="http://www.w3.org/2000/svg"
   xmlns:sodipodi="http://sodipodi.sourceforge.net/DTD/sodipodi-0.dtd"
   xmlns:inkscape="http://www.inkscape.org/namespaces/inkscape"
   width="319"
   height="147"
   id="svg2"
   inkscape:label="Pozadí"
   version="1.1"
   inkscape:version="0.48.0 r9654"
   sodipodi:docname="Nový dokument 7">
  <defs
     id="defs26289" />
  <sodipodi:namedview
     id="base"
     pagecolor="#ffffff"
     bordercolor="#666666"
     borderopacity="1.0"
     inkscape:pageopacity="0.0"
     inkscape:pageshadow="2"
     inkscape:zoom="0.98994949"
     inkscape:cx="579.40145"
     inkscape:cy="50.070153"
     inkscape:document-units="px"
     inkscape:current-layer="layer1"
     showgrid="false"
     inkscape:window-width="1917"
     inkscape:window-height="1125"
     inkscape:window-x="-9"
     inkscape:window-y="-9"
     inkscape:window-maximized="1" />
  <metadata
     id="metadata26292">
    <rdf:RDF>
      <cc:Work
         rdf:about="">
        <dc:format>image/svg+xml</dc:format>
        <dc:type
           rdf:resource="http://purl.org/dc/dcmitype/StillImage" />
        <dc:title></dc:title>
      </cc:Work>
    </rdf:RDF>
  </metadata>
  <g
     inkscape:label="Vrstva 1"
     inkscape:groupmode="layer"
     id="layer1"
     transform="translate(0,-905.36218)">
    <path
       inkscape:connector-curvature="0"
       d="m 20.460264,1007.9152 275.967296,0"
       style="fill:none;stroke:#000000;stroke-width:2.17505598;stroke-linecap:round;stroke-linejoin:round;stroke-miterlimit:10;stroke-opacity:1;stroke-dasharray:none"
       id="path8074" />
    <path
       inkscape:connector-curvature="0"
       d="m 45.416761,1007.7926 0,-49.74105 212.999989,0 0,49.74105"
       style="fill:none;stroke:#000000;stroke-width:2.26791477;stroke-linecap:round;stroke-linejoin:round;stroke-miterlimit:10;stroke-opacity:1;stroke-dasharray:none"
       id="path8076" />
    <path
       inkscape:connector-curvature="0"
       d="m 116.66676,1022.0426 70.5,0 0,-27.74999 -70.5,0 0,27.74999 z"
       style="fill:#ffffff;fill-opacity:1;fill-rule:evenodd;stroke:none"
       id="path8078" />
    <path
       inkscape:connector-curvature="0"
       d="m 116.66676,1022.0426 70.5,0 0,-27.74999 -70.5,0 0,27.74999 z"
       style="fill:none;stroke:#000000;stroke-width:0.90000004;stroke-linecap:round;stroke-linejoin:round;stroke-miterlimit:10;stroke-opacity:1;stroke-dasharray:none"
       id="path8080" />
    <path
       inkscape:connector-curvature="0"
       d="m 116.66676,1007.7926 10.5,0"
       style="fill:none;stroke:#000000;stroke-width:2.70000005;stroke-linecap:round;stroke-linejoin:round;stroke-miterlimit:10;stroke-opacity:1;stroke-dasharray:none"
       id="path8082" />
    <path
       inkscape:connector-curvature="0"
       d="m 136.11676,1008.0926 c 0,-2.25 -1.825,-4.075 -4.075,-4.075 -2.25,0 -4.075,1.825 -4.075,4.075 0,2.25 1.825,4.075 4.075,4.075 2.25,0 4.075,-1.825 4.075,-4.075 z"
       style="fill:#ffffff;fill-opacity:1;fill-rule:evenodd;stroke:none"
       id="path8084" />
    <path
       inkscape:connector-curvature="0"
       d="m 136.11676,1008.0926 c 0,-2.25 -1.825,-4.075 -4.075,-4.075 -2.25,0 -4.075,1.825 -4.075,4.075 0,2.25 1.825,4.075 4.075,4.075 2.25,0 4.075,-1.825 4.075,-4.075 z"
       style="fill:none;stroke:#000000;stroke-width:2.70000005;stroke-linecap:round;stroke-linejoin:round;stroke-miterlimit:10;stroke-opacity:1;stroke-dasharray:none"
       id="path8086" />
    <path
       inkscape:connector-curvature="0"
       d="m 187.16676,1007.7926 -10.5,0"
       style="fill:none;stroke:#000000;stroke-width:2.70000005;stroke-linecap:round;stroke-linejoin:round;stroke-miterlimit:10;stroke-opacity:1;stroke-dasharray:none"
       id="path8088" />
    <path
       inkscape:connector-curvature="0"
       d="m 181.91676,1002.5426 -10.5,10.5"
       style="fill:none;stroke:#000000;stroke-width:2.70000005;stroke-linecap:round;stroke-linejoin:round;stroke-miterlimit:10;stroke-opacity:1;stroke-dasharray:none"
       id="path8090" />
    <path
       inkscape:connector-curvature="0"
       d="m 171.41676,1002.5426 10.5,10.5"
       style="fill:none;stroke:#000000;stroke-width:2.70000005;stroke-linecap:round;stroke-linejoin:round;stroke-miterlimit:10;stroke-opacity:1;stroke-dasharray:none"
       id="path8092" />
    <path
       inkscape:connector-curvature="0"
       d="m 136.16676,1007.7926 35.25,-8.24999"
       style="fill:none;stroke:#000000;stroke-width:2.70000005;stroke-linecap:round;stroke-linejoin:round;stroke-miterlimit:10;stroke-opacity:1;stroke-dasharray:none"
       id="path8094" />
    <path
       inkscape:connector-curvature="0"
       d="m 154.41985,972.01399 70.49999,0 0,-28.5 -70.49999,0 0,28.5 z"
       style="fill:#ffffff;fill-opacity:1;fill-rule:evenodd;stroke:none"
       id="path8096" />
    <path
       inkscape:connector-curvature="0"
       d="m 154.40407,972.50328 70.49999,0 0,-28.5 -70.49999,0 0,28.5 z"
       style="fill:none;stroke:#000000;stroke-width:0.90000004;stroke-linecap:round;stroke-linejoin:round;stroke-miterlimit:10;stroke-opacity:1;stroke-dasharray:none"
       id="path8098" />
    <path
       inkscape:connector-curvature="0"
       d="m 154.40407,958.02442 10.5,0"
       style="fill:none;stroke:#000000;stroke-width:2.46051645;stroke-linecap:round;stroke-linejoin:round;stroke-miterlimit:10;stroke-opacity:1;stroke-dasharray:none"
       id="path8100" />
    <path
       inkscape:connector-curvature="0"
       d="m 173.82907,958.19078 c 0,-2.25 -1.825,-4.075 -4.075,-4.075 -2.25,0 -4.075,1.825 -4.075,4.075 0,2.25 1.825,4.075 4.075,4.075 2.25,0 4.075,-1.825 4.075,-4.075 z"
       style="fill:#ffffff;fill-opacity:1;fill-rule:evenodd;stroke:none"
       id="path8102" />
    <path
       inkscape:connector-curvature="0"
       d="m 173.82907,958.19078 c 0,-2.25 -1.825,-4.075 -4.075,-4.075 -2.25,0 -4.075,1.825 -4.075,4.075 0,2.25 1.825,4.075 4.075,4.075 2.25,0 4.075,-1.825 4.075,-4.075 z"
       style="fill:none;stroke:#000000;stroke-width:2.70000005;stroke-linecap:round;stroke-linejoin:round;stroke-miterlimit:10;stroke-opacity:1;stroke-dasharray:none"
       id="path8104" />
    <path
       inkscape:connector-curvature="0"
       d="m 224.90406,958.04809 -10.49999,0"
       style="fill:none;stroke:#000000;stroke-width:2.48636055;stroke-linecap:round;stroke-linejoin:round;stroke-miterlimit:10;stroke-opacity:1;stroke-dasharray:none"
       id="path8106" />
    <path
       inkscape:connector-curvature="0"
       d="m 219.65407,953.00328 -10.5,10.5"
       style="fill:none;stroke:#000000;stroke-width:2.70000005;stroke-linecap:round;stroke-linejoin:round;stroke-miterlimit:10;stroke-opacity:1;stroke-dasharray:none"
       id="path8108" />
    <path
       inkscape:connector-curvature="0"
       d="m 209.15407,953.00328 10.5,10.5"
       style="fill:none;stroke:#000000;stroke-width:2.70000005;stroke-linecap:round;stroke-linejoin:round;stroke-miterlimit:10;stroke-opacity:1;stroke-dasharray:none"
       id="path8110" />
    <path
       inkscape:connector-curvature="0"
       d="m 173.90407,958.25328 35.25,-9"
       style="fill:none;stroke:#000000;stroke-width:2.70000005;stroke-linecap:round;stroke-linejoin:round;stroke-miterlimit:10;stroke-opacity:1;stroke-dasharray:none"
       id="path8112" />
    <path
       inkscape:connector-curvature="0"
       d="m 76.40407,965.00328 49.5,0 0,-14.25 -49.5,0 0,14.25 z"
       style="fill:#ffffff;fill-opacity:1;fill-rule:evenodd;stroke:none"
       id="path8114" />
    <path
       inkscape:connector-curvature="0"
       d="m 76.40407,965.00328 49.5,0 0,-14.25 -49.5,0 0,14.25 z"
       style="fill:none;stroke:#000000;stroke-width:2.70000005;stroke-linecap:round;stroke-linejoin:round;stroke-miterlimit:10;stroke-opacity:1;stroke-dasharray:none"
       id="path8116" />
    <path
       inkscape:connector-curvature="0"
       d="m 261.90425,1008.0926 c 0,-1.95 -1.5875,-3.5375 -3.5375,-3.5375 -1.9625,0 -3.55,1.5875 -3.55,3.5375 0,1.9625 1.5875,3.55 3.55,3.55 1.95,0 3.5375,-1.5875 3.5375,-3.55 z"
       style="fill:#000000;fill-opacity:1;fill-rule:evenodd;stroke:none"
       id="path8118" />
    <path
       inkscape:connector-curvature="0"
       d="m 261.90425,1008.0926 c 0,-1.95 -1.5875,-3.5375 -3.5375,-3.5375 -1.9625,0 -3.55,1.5875 -3.55,3.5375 0,1.9625 1.5875,3.55 3.55,3.55 1.95,0 3.5375,-1.5875 3.5375,-3.55 z"
       style="fill:none;stroke:#000000;stroke-width:0.90000004;stroke-linecap:round;stroke-linejoin:round;stroke-miterlimit:10;stroke-opacity:1;stroke-dasharray:none"
       id="path8120" />
    <path
       inkscape:connector-curvature="0"
       d="m 49.304261,1008.0926 c 0,-1.95 -1.5875,-3.5375 -3.5375,-3.5375 -1.9625,0 -3.55,1.5875 -3.55,3.5375 0,1.9625 1.5875,3.55 3.55,3.55 1.95,0 3.5375,-1.5875 3.5375,-3.55 z"
       style="fill:#000000;fill-opacity:1;fill-rule:evenodd;stroke:none"
       id="path8122" />
    <path
       inkscape:connector-curvature="0"
       d="m 49.304261,1008.0926 c 0,-1.95 -1.5875,-3.5375 -3.5375,-3.5375 -1.9625,0 -3.55,1.5875 -3.55,3.5375 0,1.9625 1.5875,3.55 3.55,3.55 1.95,0 3.5375,-1.5875 3.5375,-3.55 z"
       style="fill:none;stroke:#000000;stroke-width:0.90000004;stroke-linecap:round;stroke-linejoin:round;stroke-miterlimit:10;stroke-opacity:1;stroke-dasharray:none"
       id="path8124" />
    <path
       inkscape:connector-curvature="0"
       d="m 456.08526,1008.2152 c 0,-2.9375 -2.375,-5.3125 -5.3125,-5.3125 -2.9375,0 -5.3125,2.375 -5.3125,5.3125 0,2.9375 2.375,5.3125 5.3125,5.3125 2.9375,0 5.3125,-2.375 5.3125,-5.3125 z"
       style="fill:#ffffff;fill-opacity:1;fill-rule:evenodd;stroke:none"
       id="path8126" />
    <path
       inkscape:connector-curvature="0"
       d="m 307.59284,1006.7 c 0,-2.9375 -2.375,-5.3125 -5.3125,-5.3125 -2.9375,0 -5.3125,2.375 -5.3125,5.3125 0,2.9375 2.375,5.3125 5.3125,5.3125 2.9375,0 5.3125,-2.375 5.3125,-5.3125 z"
       style="fill:none;stroke:#000000;stroke-width:2.70000005;stroke-linecap:round;stroke-linejoin:round;stroke-miterlimit:10;stroke-opacity:1;stroke-dasharray:none"
       id="path8128" />
    <path
       inkscape:connector-curvature="0"
       d="m 20.259014,1008.2152 c 0,-2.9375 -2.37875,-5.3125 -5.315,-5.3125 -2.935,0 -5.3149996,2.375 -5.3149996,5.3125 0,2.9375 2.3799996,5.3125 5.3149996,5.3125 2.93625,0 5.315,-2.375 5.315,-5.3125 z"
       style="fill:#ffffff;fill-opacity:1;fill-rule:evenodd;stroke:none"
       id="path8130" />
    <path
       inkscape:connector-curvature="0"
       d="m 20.259014,1008.2152 c 0,-2.9375 -2.37875,-5.3125 -5.315,-5.3125 -2.935,0 -5.3149996,2.375 -5.3149996,5.3125 0,2.9375 2.3799996,5.3125 5.3149996,5.3125 2.93625,0 5.315,-2.375 5.315,-5.3125 z"
       style="fill:none;stroke:#000000;stroke-width:2.70000005;stroke-linecap:round;stroke-linejoin:round;stroke-miterlimit:10;stroke-opacity:1;stroke-dasharray:none"
       id="path8132" />
    <text
       style="font-size:15px"
       y="943.67828"
       x="93.79158"
       id="text8134">
      <tspan
         style="font-size:22.5px;font-variant:normal;font-weight:normal;writing-mode:lr-tb;fill:#000000;fill-opacity:1;fill-rule:nonzero;stroke:none;font-family:ARIAL;-inkscape-font-specification:ARIAL"
         x="93.79158"
         y="943.67828"
         id="tspan8136">R</tspan>
    </text>
    <text
       style="font-size:15px"
       y="934.8158"
       x="178.67906"
       id="text8138">
      <tspan
         style="font-size:22.5px;font-variant:normal;font-weight:normal;writing-mode:lr-tb;fill:#000000;fill-opacity:1;fill-rule:nonzero;stroke:none;font-family:ARIAL;-inkscape-font-specification:ARIAL"
         x="178.67906 193.68654"
         y="934.8158"
         sodipodi:role="line"
         id="tspan8140">Vp</tspan>
    </text>
    <text
       style="font-size:15px"
       y="1046.7301"
       x="135.64177"
       id="text8142">
      <tspan
         style="font-size:22.5px;font-variant:normal;font-weight:normal;writing-mode:lr-tb;fill:#000000;fill-opacity:1;fill-rule:nonzero;stroke:none;font-family:ARIAL;-inkscape-font-specification:ARIAL"
         x="135.64177 150.64926"
         y="1046.7301"
         sodipodi:role="line"
         id="tspan8144">Vh</tspan>
    </text>
  </g>
</svg>
