<?xml version="1.0" encoding="UTF-8" standalone="no"?>
<!-- Created with Inkscape (http://www.inkscape.org/) -->

<svg
   xmlns:ns0="http://www.iki.fi/pav/software/textext/"
   xmlns:dc="http://purl.org/dc/elements/1.1/"
   xmlns:cc="http://creativecommons.org/ns#"
   xmlns:rdf="http://www.w3.org/1999/02/22-rdf-syntax-ns#"
   xmlns:svg="http://www.w3.org/2000/svg"
   xmlns="http://www.w3.org/2000/svg"
   xmlns:xlink="http://www.w3.org/1999/xlink"
   xmlns:sodipodi="http://sodipodi.sourceforge.net/DTD/sodipodi-0.dtd"
   xmlns:inkscape="http://www.inkscape.org/namespaces/inkscape"
   width="400"
   height="430"
   id="svg2"
   inkscape:label="Pozadí"
   version="1.1"
   inkscape:version="0.48.1 "
   sodipodi:docname="Eqv_circuit_IGBT_module.svg">
  <sodipodi:namedview
     id="base"
     pagecolor="#ffffff"
     bordercolor="#666666"
     borderopacity="1.0"
     inkscape:pageopacity="0.0"
     inkscape:pageshadow="2"
     inkscape:zoom="0.84286571"
     inkscape:cx="-103.47235"
     inkscape:cy="244.05714"
     inkscape:document-units="px"
     inkscape:current-layer="layer1"
     showgrid="false"
     inkscape:window-width="1920"
     inkscape:window-height="1125"
     inkscape:window-x="1911"
     inkscape:window-y="-9"
     inkscape:window-maximized="1" />
  <defs
     id="defs6037">
    <linearGradient
       inkscape:collect="always"
       id="linearGradient19516">
      <stop
         style="stop-color:#4b615e;stop-opacity:1;"
         offset="0"
         id="stop19518" />
      <stop
         style="stop-color:#4b615e;stop-opacity:0;"
         offset="1"
         id="stop19520" />
    </linearGradient>
    <marker
       style="overflow:visible;"
       id="Arrow1Mend"
       refX="0.0"
       refY="0.0"
       orient="auto"
       inkscape:stockid="Arrow1Mend">
      <path
         transform="scale(0.4) rotate(180) translate(10,0)"
         style="fill-rule:evenodd;stroke:#000000;stroke-width:1.0pt;marker-start:none;"
         d="M 0.0,0.0 L 5.0,-5.0 L -12.5,0.0 L 5.0,5.0 L 0.0,0.0 z "
         id="path12573" />
    </marker>
    <inkscape:path-effect
       is_visible="true"
       id="path-effect13739"
       effect="spiro" />
    <marker
       style="overflow:visible;"
       id="Arrow1Lend"
       refX="0.0"
       refY="0.0"
       orient="auto"
       inkscape:stockid="Arrow1Lend">
      <path
         transform="scale(0.8) rotate(180) translate(12.5,0)"
         style="fill-rule:evenodd;stroke:#000000;stroke-width:1.0pt;marker-start:none;"
         d="M 0.0,0.0 L 5.0,-5.0 L -12.5,0.0 L 5.0,5.0 L 0.0,0.0 z "
         id="path12567" />
    </marker>
    <marker
       style="overflow:visible"
       id="Arrow2Mstart"
       refX="0.0"
       refY="0.0"
       orient="auto"
       inkscape:stockid="Arrow2Mstart">
      <path
         transform="scale(0.6) translate(0,0)"
         d="M 8.7185878,4.0337352 L -2.2072895,0.016013256 L 8.7185884,-4.0017078 C 6.9730900,-1.6296469 6.9831476,1.6157441 8.7185878,4.0337352 z "
         style="font-size:12.0;fill-rule:evenodd;stroke-width:0.62500000;stroke-linejoin:round"
         id="path12588" />
    </marker>
    <inkscape:path-effect
       is_visible="true"
       id="path-effect12430"
       effect="spiro" />
    <inkscape:path-effect
       is_visible="true"
       id="path-effect12381"
       effect="spiro" />
    <inkscape:path-effect
       is_visible="true"
       id="path-effect12371"
       effect="spiro" />
    <inkscape:path-effect
       is_visible="true"
       id="path-effect12367"
       effect="spiro" />
    <inkscape:path-effect
       is_visible="true"
       id="path-effect12363"
       effect="spiro" />
    <inkscape:path-effect
       is_visible="true"
       id="path-effect12318"
       effect="spiro" />
    <inkscape:path-effect
       is_visible="true"
       id="path-effect12314"
       effect="spiro" />
    <inkscape:path-effect
       is_visible="true"
       id="path-effect7944"
       effect="spiro" />
    <inkscape:path-effect
       is_visible="true"
       id="path-effect7919"
       effect="spiro" />
    <inkscape:path-effect
       is_visible="true"
       id="path-effect7915"
       effect="spiro" />
    <inkscape:path-effect
       is_visible="true"
       id="path-effect7911"
       effect="spiro" />
    <inkscape:path-effect
       is_visible="true"
       id="path-effect7907"
       effect="spiro" />
    <inkscape:path-effect
       is_visible="true"
       id="path-effect7903"
       effect="spiro" />
    <inkscape:path-effect
       is_visible="true"
       id="path-effect7895"
       effect="spiro" />
    <inkscape:path-effect
       is_visible="true"
       id="path-effect7919-4"
       effect="spiro" />
    <inkscape:path-effect
       is_visible="true"
       id="path-effect7944-1"
       effect="spiro" />
    <inkscape:path-effect
       is_visible="true"
       id="path-effect12314-9"
       effect="spiro" />
    <inkscape:path-effect
       is_visible="true"
       id="path-effect12367-5"
       effect="spiro" />
    <inkscape:path-effect
       is_visible="true"
       id="path-effect12363-2"
       effect="spiro" />
    <inkscape:path-effect
       is_visible="true"
       id="path-effect7944-5"
       effect="spiro" />
    <marker
       style="overflow:visible"
       id="Arrow1Mend-0"
       refX="0"
       refY="0"
       orient="auto"
       inkscape:stockid="Arrow1Mend">
      <path
         transform="matrix(-0.4,0,0,-0.4,-4,0)"
         style="fill-rule:evenodd;stroke:#000000;stroke-width:1pt;marker-start:none"
         d="M 0,0 5,-5 -12.5,0 5,5 0,0 z"
         id="path12573-7"
         inkscape:connector-curvature="0" />
    </marker>
    <inkscape:path-effect
       is_visible="true"
       id="path-effect13739-6"
       effect="spiro" />
    <radialGradient
       inkscape:collect="always"
       xlink:href="#linearGradient19516"
       id="radialGradient19522"
       cx="239.72475"
       cy="189.43633"
       fx="239.72475"
       fy="189.43633"
       r="106.33459"
       gradientUnits="userSpaceOnUse" />
  </defs>
  <metadata
     id="metadata6040">
    <rdf:RDF>
      <cc:Work
         rdf:about="">
        <dc:format>image/svg+xml</dc:format>
        <dc:type
           rdf:resource="http://purl.org/dc/dcmitype/StillImage" />
        <dc:title />
      </cc:Work>
    </rdf:RDF>
  </metadata>
  <g
     transform="translate(0,-622.36218)"
     id="layer1"
     inkscape:groupmode="layer"
     inkscape:label="Vrstva 1">
    <path
       transform="matrix(1.1696253,0,0,1.0986193,-22.702591,602.38827)"
       d="m 346.05933,189.43633 c 0,58.72697 -47.60761,106.33458 -106.33458,106.33458 -58.72697,0 -106.33459,-47.60761 -106.33459,-106.33458 0,-58.72698 47.60762,-106.334592 106.33459,-106.334592 58.72697,0 106.33458,47.607612 106.33458,106.334592 z"
       sodipodi:ry="106.33459"
       sodipodi:rx="106.33459"
       sodipodi:cy="189.43633"
       sodipodi:cx="239.72475"
       id="path12547"
       style="opacity:0.61538462999999999;fill:url(#radialGradient19522);fill-opacity:1;stroke:none"
       sodipodi:type="arc" />
    <rect
       y="657.12146"
       x="54.823093"
       height="372.25397"
       width="311.81351"
       id="rect12557"
       style="opacity:0.61538463;fill:#b0b25e;fill-opacity:0.25795055;stroke:#000000;stroke-width:2;stroke-linecap:round;stroke-linejoin:round;stroke-miterlimit:4;stroke-opacity:1;stroke-dasharray:4, 2;stroke-dashoffset:0" />
    <text
       sodipodi:linespacing="125%"
       id="text3714"
       y="1051.7987"
       x="260.14212"
       style="font-size:20.85118866px;font-style:normal;font-weight:normal;line-height:125%;letter-spacing:0px;word-spacing:0px;fill:#000000;fill-opacity:1;stroke:none;font-family:Sans"
       xml:space="preserve"><tspan
         y="1051.7987"
         x="260.14212"
         id="tspan3716"
         sodipodi:role="line">PE</tspan></text>
    <text
       sodipodi:linespacing="125%"
       id="text3714-4"
       y="966.42902"
       x="18.348347"
       style="font-size:20.85118866px;font-style:normal;font-weight:normal;line-height:125%;letter-spacing:0px;word-spacing:0px;fill:#000000;fill-opacity:1;stroke:none;font-family:Sans"
       xml:space="preserve"><tspan
         y="966.42902"
         x="18.348347"
         id="tspan3716-0"
         sodipodi:role="line">AE</tspan></text>
    <text
       sodipodi:linespacing="125%"
       id="text3714-4-9"
       y="800.90826"
       x="26.121607"
       style="font-size:20.85118866px;font-style:normal;font-weight:normal;line-height:125%;letter-spacing:0px;word-spacing:0px;fill:#000000;fill-opacity:1;stroke:none;font-family:Sans"
       xml:space="preserve"><tspan
         y="800.90826"
         x="26.121607"
         id="tspan3716-0-4"
         sodipodi:role="line">G</tspan></text>
    <text
       sodipodi:linespacing="125%"
       id="text3714-4-9-8"
       y="647.23669"
       x="265.2543"
       style="font-size:20.85118866px;font-style:normal;font-weight:normal;line-height:125%;letter-spacing:0px;word-spacing:0px;fill:#000000;fill-opacity:1;stroke:none;font-family:Sans"
       xml:space="preserve"><tspan
         y="647.23669"
         x="265.2543"
         id="tspan3716-0-4-8"
         sodipodi:role="line">C</tspan></text>
    <path
       sodipodi:nodetypes="csscccscccsccc"
       inkscape:connector-curvature="0"
       id="path664-1"
       style="fill:none;stroke:#000000;stroke-width:2.37729192;stroke-linecap:butt;stroke-linejoin:miter;stroke-miterlimit:4;stroke-opacity:1;stroke-dasharray:none"
       d="m 271.92993,941.8511 1.16885,0 c 3.55604,0 6.44046,-2.8824 6.44046,-6.4425 0,-3.556 -2.88442,-6.3058 -6.44046,-6.3058 l -1.16885,-0.068 1.16885,0.068 c 3.55604,0 6.44046,-2.8864 6.44046,-6.4425 0,-3.55997 -2.88442,-6.30961 -6.44046,-6.30961 l -1.16885,-0.0648 1.16885,0.0648 c 3.55604,0 6.44046,-2.88247 6.44046,-6.44251 0,-3.558 -2.88442,-6.30577 -6.44046,-6.30577 l -1.16885,-0.0673 1.16885,0.0673" />
    <path
       sodipodi:nodetypes="csscccscccsccc"
       inkscape:connector-curvature="0"
       id="path664-1-3"
       style="fill:none;stroke:#000000;stroke-width:2.37729192;stroke-linecap:butt;stroke-linejoin:miter;stroke-miterlimit:4;stroke-opacity:1;stroke-dasharray:none"
       d="m 272.79946,1005.1619 1.16885,0 c 3.55604,0 6.44046,-2.8824 6.44046,-6.44255 0,-3.556 -2.88442,-6.3059 -6.44046,-6.3059 l -1.16885,-0.068 1.16885,0.068 c 3.55604,0 6.44046,-2.8864 6.44046,-6.4425 0,-3.5599 -2.88442,-6.3096 -6.44046,-6.3096 l -1.16885,-0.065 1.16885,0.065 c 3.55604,0 6.44046,-2.8824 6.44046,-6.44249 0,-3.558 -2.88442,-6.30577 -6.44046,-6.30577 l -1.16885,-0.0673 1.16885,0.0673" />
    <path
       inkscape:connector-curvature="0"
       inkscape:original-d="m 272.74713,940.65012 c 5.69835,9.98643 0.86718,20.91353 -0.12626,27.38532"
       inkscape:path-effect="#path-effect7919"
       id="path7917"
       d="m 272.74713,940.65012 -0.12626,27.38532"
       style="fill:none;stroke:#000000;stroke-width:2.09318566;stroke-linecap:butt;stroke-linejoin:miter;stroke-miterlimit:4;stroke-opacity:1;stroke-dasharray:none" />
    <path
       inkscape:connector-curvature="0"
       inkscape:original-d="m 273.84578,1004.9452 c 5.69835,9.987 0.86718,20.9141 -0.12626,27.3858"
       inkscape:path-effect="#path-effect7919-4"
       id="path7917-1"
       d="m 273.84578,1004.9452 -0.12626,27.3858"
       style="fill:none;stroke:#000000;stroke-width:2.09318566;stroke-linecap:butt;stroke-linejoin:miter;stroke-miterlimit:4;stroke-opacity:1;stroke-dasharray:none" />
    <path
       transform="matrix(1.051388,0,0,1.051388,83.91878,-34.435405)"
       d="m 184.35283,1011.5773 c 0,2.1618 -1.75251,3.9143 -3.91434,3.9143 -2.16183,0 -3.91434,-1.7525 -3.91434,-3.9143 0,-2.1619 1.75251,-3.9144 3.91434,-3.9144 2.16183,0 3.91434,1.7525 3.91434,3.9144 z"
       sodipodi:ry="3.9143412"
       sodipodi:rx="3.9143412"
       sodipodi:cy="1011.5773"
       sodipodi:cx="180.43849"
       id="path7383"
       style="fill:#ffffff;fill-opacity:1;stroke:#000000;stroke-width:2;stroke-linecap:round;stroke-linejoin:round;stroke-miterlimit:10;stroke-opacity:1;stroke-dasharray:none;stroke-dashoffset:0"
       sodipodi:type="arc" />
    <path
       inkscape:connector-curvature="0"
       inkscape:original-d="m 272.62086,956.84793 c -71.77982,-0.3808 -145.96896,6.80784 -216.930263,-0.029"
       inkscape:path-effect="#path-effect7944"
       id="path7942"
       d="m 272.62086,956.84793 -216.930263,-0.029"
       style="fill:none;stroke:#000000;stroke-width:2;stroke-linecap:butt;stroke-linejoin:miter;stroke-miterlimit:4;stroke-opacity:1;stroke-dasharray:none" />
    <path
       transform="matrix(0.65168321,0,0,0.65168321,154.72966,298.20444)"
       d="m 184.35283,1011.5773 c 0,2.1618 -1.75251,3.9143 -3.91434,3.9143 -2.16183,0 -3.91434,-1.7525 -3.91434,-3.9143 0,-2.1619 1.75251,-3.9144 3.91434,-3.9144 2.16183,0 3.91434,1.7525 3.91434,3.9144 z"
       sodipodi:ry="3.9143412"
       sodipodi:rx="3.9143412"
       sodipodi:cy="1011.5773"
       sodipodi:cx="180.43849"
       id="path7383-6"
       style="fill:#000000;fill-opacity:1;stroke:#000000;stroke-width:2;stroke-linecap:round;stroke-linejoin:round;stroke-miterlimit:10;stroke-opacity:1;stroke-dasharray:none;stroke-dashoffset:0"
       sodipodi:type="arc" />
    <path
       transform="matrix(1.051388,0,0,1.051388,-135.28295,-106.97933)"
       d="m 184.35283,1011.5773 c 0,2.1618 -1.75251,3.9143 -3.91434,3.9143 -2.16183,0 -3.91434,-1.7525 -3.91434,-3.9143 0,-2.1619 1.75251,-3.9144 3.91434,-3.9144 2.16183,0 3.91434,1.7525 3.91434,3.9144 z"
       sodipodi:ry="3.9143412"
       sodipodi:rx="3.9143412"
       sodipodi:cy="1011.5773"
       sodipodi:cx="180.43849"
       id="path7383-0"
       style="fill:#ffffff;fill-opacity:1;stroke:#000000;stroke-width:2;stroke-linecap:round;stroke-linejoin:round;stroke-miterlimit:10;stroke-opacity:1;stroke-dasharray:none;stroke-dashoffset:0"
       sodipodi:type="arc" />
    <g
       style="stroke-width:1.60000002;stroke-miterlimit:10;stroke-dasharray:none"
       transform="matrix(1.25,0,0,1.25,169.11456,647.84269)"
       id="g8052">
      <path
         id="path8054"
         style="fill:none;stroke:#000000;stroke-width:1.60000002;stroke-linecap:round;stroke-linejoin:round;stroke-miterlimit:10;stroke-opacity:1;stroke-dasharray:none"
         d="m 4.172,117.379 21,0 0,-24"
         inkscape:connector-curvature="0" />
    </g>
    <g
       style="stroke-width:1.60000002;stroke-miterlimit:10;stroke-dasharray:none"
       transform="matrix(1.25,0,0,1.25,169.11456,647.84269)"
       id="g8056">
      <path
         id="path8058"
         style="fill:none;stroke:#000000;stroke-width:1.60000002;stroke-linecap:round;stroke-linejoin:round;stroke-miterlimit:10;stroke-opacity:1;stroke-dasharray:none"
         d="m 30.57,93.379 0,5.402"
         inkscape:connector-curvature="0" />
    </g>
    <g
       style="stroke-width:1.60000002;stroke-miterlimit:10;stroke-dasharray:none"
       transform="matrix(1.25,0,0,1.25,169.11456,647.84269)"
       id="g8060">
      <path
         id="path8062"
         style="fill:none;stroke:#000000;stroke-width:1.60000002;stroke-linecap:round;stroke-linejoin:round;stroke-miterlimit:10;stroke-opacity:1;stroke-dasharray:none"
         d="m 30.57,96.379 16.2,0"
         inkscape:connector-curvature="0" />
    </g>
    <g
       style="stroke-width:1.60000002;stroke-miterlimit:10;stroke-dasharray:none"
       transform="matrix(1.25,0,0,1.25,169.11456,647.84269)"
       id="g8064">
      <path
         id="path8066"
         style="fill:none;stroke:#000000;stroke-width:1.60000002;stroke-linecap:round;stroke-linejoin:round;stroke-miterlimit:10;stroke-opacity:1;stroke-dasharray:none"
         d="m 30.57,111.98 0,5.399"
         inkscape:connector-curvature="0" />
    </g>
    <g
       style="stroke-width:1.60000002;stroke-miterlimit:10;stroke-dasharray:none"
       transform="matrix(1.25,0,0,1.25,169.11456,647.84269)"
       id="g8068">
      <path
         id="path8070"
         style="fill:none;stroke:#000000;stroke-width:1.60000002;stroke-linecap:round;stroke-linejoin:round;stroke-miterlimit:10;stroke-opacity:1;stroke-dasharray:none"
         d="m 30.57,114.98 16.2,0"
         inkscape:connector-curvature="0" />
    </g>
    <g
       style="stroke-width:1.60000002;stroke-miterlimit:10;stroke-dasharray:none"
       transform="matrix(1.25,0,0,1.25,169.11456,647.84269)"
       id="g8072">
      <path
         id="path8074"
         style="fill:none;stroke:#000000;stroke-width:1.60000002;stroke-linecap:round;stroke-linejoin:round;stroke-miterlimit:10;stroke-opacity:1;stroke-dasharray:none"
         d="m 30.57,111.98 0,5.399"
         inkscape:connector-curvature="0" />
    </g>
    <g
       style="stroke-width:1.60000002;stroke-miterlimit:10;stroke-dasharray:none"
       transform="matrix(1.25,0,0,1.25,169.11456,647.84269)"
       id="g8076">
      <path
         id="path8078"
         style="fill:none;stroke:#000000;stroke-width:1.60000002;stroke-linecap:round;stroke-linejoin:round;stroke-miterlimit:10;stroke-opacity:1;stroke-dasharray:none"
         d="m 30.57,114.98 16.2,0"
         inkscape:connector-curvature="0" />
    </g>
    <g
       style="stroke-width:1.60000002;stroke-miterlimit:10;stroke-dasharray:none"
       transform="matrix(1.25,0,0,1.25,169.11456,647.84269)"
       id="g8080">
      <path
         id="path8082"
         style="fill:none;stroke:#000000;stroke-width:1.60000002;stroke-linecap:round;stroke-linejoin:round;stroke-miterlimit:10;stroke-opacity:1;stroke-dasharray:none"
         d="m 30.57,111.98 0,5.399"
         inkscape:connector-curvature="0" />
    </g>
    <g
       style="stroke-width:1.60000002;stroke-miterlimit:10;stroke-dasharray:none"
       transform="matrix(1.25,0,0,1.25,169.11456,647.84269)"
       id="g8084">
      <path
         id="path8086"
         style="fill:none;stroke:#000000;stroke-width:1.60000002;stroke-linecap:round;stroke-linejoin:round;stroke-miterlimit:10;stroke-opacity:1;stroke-dasharray:none"
         d="m 30.57,114.98 16.2,0"
         inkscape:connector-curvature="0" />
    </g>
    <g
       style="stroke-width:1.60000002;stroke-miterlimit:10;stroke-dasharray:none"
       transform="matrix(1.25,0,0,1.25,169.11456,647.84269)"
       id="g8088">
      <path
         id="path8090"
         style="fill:none;stroke:#000000;stroke-width:1.60000002;stroke-linecap:round;stroke-linejoin:round;stroke-miterlimit:10;stroke-opacity:1;stroke-dasharray:none"
         d="m 30.57,111.98 0,5.399"
         inkscape:connector-curvature="0" />
    </g>
    <g
       style="stroke-width:1.60000002;stroke-miterlimit:10;stroke-dasharray:none"
       transform="matrix(1.25,0,0,1.25,169.11456,647.84269)"
       id="g8092">
      <path
         id="path8094"
         style="fill:none;stroke:#000000;stroke-width:1.60000002;stroke-linecap:round;stroke-linejoin:round;stroke-miterlimit:10;stroke-opacity:1;stroke-dasharray:none"
         d="m 30.57,114.98 16.2,0"
         inkscape:connector-curvature="0" />
    </g>
    <g
       style="stroke-width:1.60000002;stroke-miterlimit:10;stroke-dasharray:none"
       transform="matrix(1.25,0,0,1.25,169.11456,647.84269)"
       id="g8096">
      <path
         id="path8098"
         style="fill:none;stroke:#000000;stroke-width:1.60000002;stroke-linecap:round;stroke-linejoin:round;stroke-miterlimit:10;stroke-opacity:1;stroke-dasharray:none"
         d="m 30.57,111.98 0,5.399"
         inkscape:connector-curvature="0" />
    </g>
    <g
       style="stroke-width:1.60000002;stroke-miterlimit:10;stroke-dasharray:none"
       transform="matrix(1.25,0,0,1.25,169.11456,647.84269)"
       id="g8100">
      <path
         id="path8102"
         style="fill:none;stroke:#000000;stroke-width:1.60000002;stroke-linecap:round;stroke-linejoin:round;stroke-miterlimit:10;stroke-opacity:1;stroke-dasharray:none"
         d="m 30.57,114.98 16.2,0"
         inkscape:connector-curvature="0" />
    </g>
    <g
       style="stroke-width:1.60000002;stroke-miterlimit:10;stroke-dasharray:none"
       transform="matrix(1.25,0,0,1.25,169.11456,647.84269)"
       id="g8104">
      <path
         id="path8106"
         style="fill:none;stroke:#000000;stroke-width:1.60000002;stroke-linecap:round;stroke-linejoin:round;stroke-miterlimit:10;stroke-opacity:1;stroke-dasharray:none"
         d="m 30.57,111.98 0,5.399"
         inkscape:connector-curvature="0" />
    </g>
    <g
       style="stroke-width:1.60000002;stroke-miterlimit:10;stroke-dasharray:none"
       transform="matrix(1.25,0,0,1.25,169.11456,647.84269)"
       id="g8108">
      <path
         id="path8110"
         style="fill:none;stroke:#000000;stroke-width:1.60000002;stroke-linecap:round;stroke-linejoin:round;stroke-miterlimit:10;stroke-opacity:1;stroke-dasharray:none"
         d="m 30.57,114.98 16.2,0"
         inkscape:connector-curvature="0" />
    </g>
    <g
       style="stroke-width:1.60000002;stroke-miterlimit:10;stroke-dasharray:none"
       transform="matrix(1.25,0,0,1.25,169.11456,647.84269)"
       id="g8112">
      <path
         id="path8114"
         style="fill:none;stroke:#000000;stroke-width:1.60000002;stroke-linecap:round;stroke-linejoin:round;stroke-miterlimit:10;stroke-opacity:1;stroke-dasharray:none"
         d="m 30.57,102.98 0,5.399"
         inkscape:connector-curvature="0" />
    </g>
    <g
       style="stroke-width:1.60000002;stroke-miterlimit:10;stroke-dasharray:none"
       transform="matrix(1.25,0,0,1.25,169.11456,647.84269)"
       id="g8116">
      <path
         id="path8118"
         style="fill:none;stroke:#000000;stroke-width:1.60000002;stroke-linecap:round;stroke-linejoin:round;stroke-miterlimit:10;stroke-opacity:1;stroke-dasharray:none"
         d="m 30.57,105.98 16.2,0"
         inkscape:connector-curvature="0" />
    </g>
    <g
       style="stroke-width:1.60000002;stroke-miterlimit:10;stroke-dasharray:none"
       transform="matrix(1.25,0,0,1.25,169.11456,647.84269)"
       id="g8120">
      <path
         id="path8122"
         style="fill:none;stroke:#000000;stroke-width:1.60000002;stroke-linecap:round;stroke-linejoin:round;stroke-miterlimit:10;stroke-opacity:1;stroke-dasharray:none"
         d="m 30.57,102.98 0,5.399"
         inkscape:connector-curvature="0" />
    </g>
    <g
       style="stroke-width:1.60000002;stroke-miterlimit:10;stroke-dasharray:none"
       transform="matrix(1.25,0,0,1.25,169.11456,647.84269)"
       id="g8124">
      <path
         id="path8126"
         style="fill:none;stroke:#000000;stroke-width:1.60000002;stroke-linecap:round;stroke-linejoin:round;stroke-miterlimit:10;stroke-opacity:1;stroke-dasharray:none"
         d="m 30.57,105.98 16.2,0"
         inkscape:connector-curvature="0" />
    </g>
    <g
       style="stroke-width:1.60000002;stroke-miterlimit:10;stroke-dasharray:none"
       transform="matrix(1.25,0,0,1.25,169.11456,647.84269)"
       id="g8128">
      <path
         id="path8130"
         style="fill:none;stroke:#000000;stroke-width:1.60000002;stroke-linecap:round;stroke-linejoin:round;stroke-miterlimit:10;stroke-opacity:1;stroke-dasharray:none"
         d="m 30.57,102.98 0,5.399"
         inkscape:connector-curvature="0" />
    </g>
    <g
       style="stroke-width:1.60000002;stroke-miterlimit:10;stroke-dasharray:none"
       transform="matrix(1.25,0,0,1.25,169.11456,647.84269)"
       id="g8132">
      <path
         id="path8134"
         style="fill:none;stroke:#000000;stroke-width:1.60000002;stroke-linecap:round;stroke-linejoin:round;stroke-miterlimit:10;stroke-opacity:1;stroke-dasharray:none"
         d="m 43.172,105.98 3.598,0"
         inkscape:connector-curvature="0" />
    </g>
    <path
       id="path8136"
       style="fill:#000000;fill-opacity:1;fill-rule:evenodd;stroke:none"
       d="m 224.57831,785.56769 -17.25125,-5.25 17.25125,-6 0,11.25 z"
       inkscape:connector-curvature="0" />
    <g
       style="stroke-width:1.60000002;stroke-miterlimit:10;stroke-dasharray:none"
       transform="matrix(1.25,0,0,1.25,169.11456,647.84269)"
       id="g8138">
      <path
         id="path8140"
         style="fill:none;stroke:#000000;stroke-width:1.60000002;stroke-linecap:round;stroke-linejoin:round;stroke-miterlimit:10;stroke-opacity:1;stroke-dasharray:none"
         d="m 46.77,105.98 0,16.2"
         inkscape:connector-curvature="0" />
    </g>
    <g
       style="stroke-width:1.60000002;stroke-miterlimit:10;stroke-dasharray:none"
       transform="matrix(1.25,0,0,1.25,169.11456,647.84269)"
       id="g8142">
      <path
         id="path8144"
         style="fill:none;stroke:#000000;stroke-width:1.60000002;stroke-linecap:round;stroke-linejoin:round;stroke-miterlimit:10;stroke-opacity:1;stroke-dasharray:none"
         d="m 46.77,96.379 0,-7.797"
         inkscape:connector-curvature="0" />
    </g>
    <g
       style="stroke-width:1.60000002;stroke-miterlimit:10;stroke-dasharray:none"
       transform="matrix(1.25,0,0,1.25,169.11456,647.84269)"
       id="g8158">
      <path
         id="path8160"
         style="fill:none;stroke:#000000;stroke-width:1.60000002;stroke-linecap:round;stroke-linejoin:round;stroke-miterlimit:10;stroke-opacity:1;stroke-dasharray:none"
         d="m 46.77,118.582 0,15"
         inkscape:connector-curvature="0" />
    </g>
    <g
       id="layer1-6"
       transform="matrix(0.12373015,0,0,0.12373015,199.03171,699.16212)">
      <path
         id="path2184"
         style="fill:none;stroke:#000000;stroke-width:16.16420937;stroke-linecap:round;stroke-linejoin:miter;stroke-miterlimit:4;stroke-opacity:1;stroke-dasharray:none"
         d="m 237.03587,288.74855 215.52115,0"
         inkscape:connector-curvature="0" />
      <path
         id="path2186"
         style="fill:none;stroke:#000000;stroke-width:16.16420937;stroke-linecap:round;stroke-linejoin:miter;stroke-miterlimit:4;stroke-opacity:1;stroke-dasharray:none"
         d="m 452.55702,163.02778 0,251.44155"
         inkscape:connector-curvature="0" />
      <path
         id="path2188"
         style="fill:none;stroke:#000000;stroke-width:16.16420937;stroke-linecap:round;stroke-linejoin:miter;stroke-miterlimit:4;stroke-opacity:1;stroke-dasharray:none"
         d="m 596.23779,109.14754 0,-143.680881"
         inkscape:connector-curvature="0" />
      <path
         id="path5022"
         style="fill:none;stroke:#000000;stroke-width:16.16420937;stroke-linecap:round;stroke-linejoin:miter;stroke-miterlimit:4;stroke-opacity:1;stroke-dasharray:none;marker-start:none"
         d="m 452.55702,360.589 143.68077,107.76067 0,143.68078"
         inkscape:connector-curvature="0" />
      <g
         style="stroke-width:22.50016975;stroke-miterlimit:4;stroke-dasharray:none"
         transform="matrix(0.71840384,0,0,0.71840384,201.11568,-70.453559)"
         id="g1941">
        <path
           d="m 413.072,352.696 31.36,-73.52 48,64 -79.36,9.52 z"
           style="fill-rule:evenodd;stroke:#000000;stroke-width:22.50016975;stroke-miterlimit:4;stroke-dasharray:none;marker-start:none"
           id="path1947"
           inkscape:connector-curvature="0" />
      </g>
      <path
         sodipodi:nodetypes="cc"
         d="M 452.55702,216.90821 596.23779,109.14754"
         style="fill:none;stroke:#000000;stroke-width:16.16420937;stroke-linecap:round;stroke-linejoin:miter;stroke-miterlimit:4;stroke-opacity:1;stroke-dasharray:none;marker-mid:none"
         id="path1939"
         inkscape:connector-curvature="0" />
    </g>
    <path
       inkscape:connector-curvature="0"
       inkscape:original-d="m 272.86408,903.97297 c 0.3808,-44.15869 -6.80784,-89.79963 0.029,-133.45481"
       inkscape:path-effect="#path-effect7944-1"
       id="path7942-7"
       d="m 272.86408,903.97297 0.029,-133.45481"
       style="fill:none;stroke:#000000;stroke-width:2;stroke-linecap:butt;stroke-linejoin:miter;stroke-miterlimit:4;stroke-opacity:1;stroke-dasharray:none" />
    <path
       transform="matrix(1.051388,0,0,1.051388,82.941948,-406.91183)"
       d="m 184.35283,1011.5773 c 0,2.1618 -1.75251,3.9143 -3.91434,3.9143 -2.16183,0 -3.91434,-1.7525 -3.91434,-3.9143 0,-2.1619 1.75251,-3.9144 3.91434,-3.9144 2.16183,0 3.91434,1.7525 3.91434,3.9144 z"
       sodipodi:ry="3.9143412"
       sodipodi:rx="3.9143412"
       sodipodi:cy="1011.5773"
       sodipodi:cx="180.43849"
       id="path7383-0-1"
       style="fill:#ffffff;fill-opacity:1;stroke:#000000;stroke-width:2;stroke-linecap:round;stroke-linejoin:round;stroke-miterlimit:10;stroke-opacity:1;stroke-dasharray:none;stroke-dashoffset:0"
       sodipodi:type="arc" />
    <path
       inkscape:connector-curvature="0"
       inkscape:original-d="m 226.54403,734.87889 c 5.10351,0 10.207,0 15.31052,0"
       inkscape:path-effect="#path-effect12314"
       id="path12312"
       d="m 226.54403,734.87889 15.31052,0"
       style="fill:none;stroke:#000000;stroke-width:2;stroke-linecap:butt;stroke-linejoin:miter;stroke-miterlimit:4;stroke-opacity:1;stroke-dasharray:none" />
    <path
       inkscape:connector-curvature="0"
       inkscape:original-d="m 227.55694,734.38525 c -2.59159,7.66691 -0.01,18.95982 -0.013,24.53876"
       inkscape:path-effect="#path-effect12318"
       id="path12316"
       d="m 227.55694,734.38525 -0.013,24.53876"
       style="fill:none;stroke:#000000;stroke-width:2;stroke-linecap:butt;stroke-linejoin:miter;stroke-miterlimit:4;stroke-opacity:1;stroke-dasharray:none" />
    <path
       inkscape:connector-curvature="0"
       inkscape:original-d="m 272.30101,815.38295 c -15.15718,0 -30.31439,0 -45.47158,0"
       inkscape:path-effect="#path-effect12314-9"
       id="path12312-9"
       d="m 272.30101,815.38295 -45.47158,0"
       style="fill:none;stroke:#000000;stroke-width:2;stroke-linecap:butt;stroke-linejoin:miter;stroke-miterlimit:4;stroke-opacity:1;stroke-dasharray:none" />
    <path
       transform="matrix(0.65168321,0,0,0.65168321,155.28984,156.04369)"
       d="m 184.35283,1011.5773 c 0,2.1618 -1.75251,3.9143 -3.91434,3.9143 -2.16183,0 -3.91434,-1.7525 -3.91434,-3.9143 0,-2.1619 1.75251,-3.9144 3.91434,-3.9144 2.16183,0 3.91434,1.7525 3.91434,3.9144 z"
       sodipodi:ry="3.9143412"
       sodipodi:rx="3.9143412"
       sodipodi:cy="1011.5773"
       sodipodi:cx="180.43849"
       id="path7383-6-6"
       style="fill:#000000;fill-opacity:1;stroke:#000000;stroke-width:2;stroke-linecap:round;stroke-linejoin:round;stroke-miterlimit:10;stroke-opacity:1;stroke-dasharray:none;stroke-dashoffset:0"
       sodipodi:type="arc" />
    <path
       inkscape:connector-curvature="0"
       inkscape:original-d="m 204.99138,831.29323 c -6.25891,6.29591 -13.39744,11.84988 -19.18213,16.96637"
       inkscape:path-effect="#path-effect12363"
       id="path12361"
       d="M 204.99138,831.29323 185.80925,848.2596"
       style="fill:none;stroke:#000000;stroke-width:3;stroke-linecap:butt;stroke-linejoin:miter;stroke-miterlimit:4;stroke-opacity:1;stroke-dasharray:none" />
    <path
       sodipodi:nodetypes="cc"
       inkscape:connector-curvature="0"
       inkscape:original-d="m 208.85102,835.12975 c -5.59022,6.81096 -14.85733,13.00267 -19.69357,17.10039"
       inkscape:path-effect="#path-effect12367"
       id="path12365"
       d="m 208.85102,835.12975 -19.69357,17.10039"
       style="fill:none;stroke:#000000;stroke-width:3;stroke-linecap:butt;stroke-linejoin:miter;stroke-miterlimit:4;stroke-opacity:1;stroke-dasharray:none" />
    <path
       sodipodi:nodetypes="cc"
       inkscape:connector-curvature="0"
       id="path12373"
       d="m 198.77575,844.93852 c 17.38729,22.17474 41.03525,38.38222 74.12453,38.19396"
       style="fill:none;stroke:#000000;stroke-width:2;stroke-linecap:butt;stroke-linejoin:miter;stroke-miterlimit:4;stroke-opacity:1;stroke-dasharray:none" />
    <path
       sodipodi:nodetypes="cc"
       inkscape:connector-curvature="0"
       id="path12375"
       d="m 195.51893,839.02795 c -8.08098,-13.37687 -12.47264,-28.83853 -12.5775,-44.5773"
       style="fill:none;stroke:#000000;stroke-width:2;stroke-linecap:butt;stroke-linejoin:miter;stroke-miterlimit:4;stroke-opacity:1;stroke-dasharray:none" />
    <path
       inkscape:connector-curvature="0"
       inkscape:original-d="m 193.80142,794.61927 c -47.00573,1.79198 -97.184285,-1.71859 -139.666484,0.006"
       inkscape:path-effect="#path-effect12381"
       id="path12379"
       d="m 193.80142,794.61927 -139.666484,0.006"
       style="fill:none;stroke:#000000;stroke-width:2;stroke-linecap:butt;stroke-linejoin:miter;stroke-miterlimit:4;stroke-opacity:1;stroke-dasharray:none" />
    <rect
       y="788.91571"
       x="80.453888"
       height="10.906113"
       width="33.55727"
       id="rect12359"
       style="fill:#ffffff;fill-opacity:1;stroke:#000000;stroke-width:2;stroke-linecap:round;stroke-linejoin:round;stroke-miterlimit:4;stroke-opacity:1;stroke-dasharray:none;stroke-dashoffset:0" />
    <path
       transform="matrix(0.65168321,0,0,0.65168321,65.270587,135.43755)"
       d="m 184.35283,1011.5773 c 0,2.1618 -1.75251,3.9143 -3.91434,3.9143 -2.16183,0 -3.91434,-1.7525 -3.91434,-3.9143 0,-2.1619 1.75251,-3.9144 3.91434,-3.9144 2.16183,0 3.91434,1.7525 3.91434,3.9144 z"
       sodipodi:ry="3.9143412"
       sodipodi:rx="3.9143412"
       sodipodi:cy="1011.5773"
       sodipodi:cx="180.43849"
       id="path7383-6-6-2"
       style="fill:#000000;fill-opacity:1;stroke:#000000;stroke-width:2;stroke-linecap:round;stroke-linejoin:round;stroke-miterlimit:10;stroke-opacity:1;stroke-dasharray:none;stroke-dashoffset:0"
       sodipodi:type="arc" />
    <path
       inkscape:connector-curvature="0"
       inkscape:original-d="m 201.24708,721.12059 c 6.26151,6.29333 11.77626,13.4622 16.86096,19.27484"
       inkscape:path-effect="#path-effect12363-2"
       id="path12361-1"
       d="m 201.24708,721.12059 16.86096,19.27484"
       style="fill:none;stroke:#000000;stroke-width:3;stroke-linecap:butt;stroke-linejoin:miter;stroke-miterlimit:4;stroke-opacity:1;stroke-dasharray:none" />
    <path
       sodipodi:nodetypes="cc"
       inkscape:connector-curvature="0"
       inkscape:original-d="m 197.25825,724.44697 c 6.78023,5.62748 12.92103,14.92837 16.99219,19.78702"
       inkscape:path-effect="#path-effect12367-5"
       id="path12365-6"
       d="m 197.25825,724.44697 16.99219,19.78702"
       style="fill:none;stroke:#000000;stroke-width:3;stroke-linecap:butt;stroke-linejoin:miter;stroke-miterlimit:4;stroke-opacity:1;stroke-dasharray:none" />
    <path
       inkscape:connector-curvature="0"
       inkscape:original-d="m 272.78037,696.38251 c -3.18406,-11.74817 -0.97044,-24.62715 -0.10019,-34.99964"
       inkscape:path-effect="#path-effect12430"
       id="path12428"
       d="m 272.78037,696.38251 -0.10019,-34.99964"
       style="fill:none;stroke:#000000;stroke-width:2;stroke-linecap:butt;stroke-linejoin:miter;stroke-miterlimit:4;stroke-opacity:1;stroke-dasharray:none" />
    <path
       sodipodi:nodetypes="cc"
       inkscape:connector-curvature="0"
       id="path12373-5"
       d="m 205.23576,734.8865 c -18.18981,22.84035 -22.02305,41.76932 -22.25425,59.75782"
       style="fill:none;stroke:#000000;stroke-width:2;stroke-linecap:butt;stroke-linejoin:miter;stroke-miterlimit:4;stroke-opacity:1;stroke-dasharray:none" />
    <path
       sodipodi:nodetypes="cc"
       inkscape:connector-curvature="0"
       id="path12373-5-1"
       d="m 272.88294,704.76802 c -19.45039,-1.70389 -51.1647,12.1086 -62.81528,25.87045"
       style="fill:none;stroke:#000000;stroke-width:2;stroke-linecap:butt;stroke-linejoin:miter;stroke-miterlimit:4;stroke-opacity:1;stroke-dasharray:none" />
    <path
       transform="matrix(0.65168321,0,0,0.65168321,155.14154,224.24165)"
       d="m 184.35283,1011.5773 c 0,2.1618 -1.75251,3.9143 -3.91434,3.9143 -2.16183,0 -3.91434,-1.7525 -3.91434,-3.9143 0,-2.1619 1.75251,-3.9144 3.91434,-3.9144 2.16183,0 3.91434,1.7525 3.91434,3.9144 z"
       sodipodi:ry="3.9143412"
       sodipodi:rx="3.9143412"
       sodipodi:cy="1011.5773"
       sodipodi:cx="180.43849"
       id="path7383-6-3"
       style="fill:#000000;fill-opacity:1;stroke:#000000;stroke-width:2;stroke-linecap:round;stroke-linejoin:round;stroke-miterlimit:10;stroke-opacity:1;stroke-dasharray:none;stroke-dashoffset:0"
       sodipodi:type="arc" />
    <path
       transform="matrix(1.051388,0,0,1.051388,-134.99569,-269.33296)"
       d="m 184.35283,1011.5773 c 0,2.1618 -1.75251,3.9143 -3.91434,3.9143 -2.16183,0 -3.91434,-1.7525 -3.91434,-3.9143 0,-2.1619 1.75251,-3.9144 3.91434,-3.9144 2.16183,0 3.91434,1.7525 3.91434,3.9144 z"
       sodipodi:ry="3.9143412"
       sodipodi:rx="3.9143412"
       sodipodi:cy="1011.5773"
       sodipodi:cx="180.43849"
       id="path7383-0-3"
       style="fill:#ffffff;fill-opacity:1;stroke:#000000;stroke-width:2;stroke-linecap:round;stroke-linejoin:round;stroke-miterlimit:10;stroke-opacity:1;stroke-dasharray:none;stroke-dashoffset:0"
       sodipodi:type="arc" />
    <path
       transform="matrix(0.65168321,0,0,0.65168321,154.94348,45.250572)"
       d="m 184.35283,1011.5773 c 0,2.1618 -1.75251,3.9143 -3.91434,3.9143 -2.16183,0 -3.91434,-1.7525 -3.91434,-3.9143 0,-2.1619 1.75251,-3.9144 3.91434,-3.9144 2.16183,0 3.91434,1.7525 3.91434,3.9144 z"
       sodipodi:ry="3.9143412"
       sodipodi:rx="3.9143412"
       sodipodi:cy="1011.5773"
       sodipodi:cx="180.43849"
       id="path7383-6-3-6"
       style="fill:#000000;fill-opacity:1;stroke:#000000;stroke-width:2;stroke-linecap:round;stroke-linejoin:round;stroke-miterlimit:10;stroke-opacity:1;stroke-dasharray:none;stroke-dashoffset:0"
       sodipodi:type="arc" />
    <path
       sodipodi:nodetypes="cc"
       transform="translate(0,622.36218)"
       inkscape:connector-curvature="0"
       id="path12559"
       d="M 286.79804,47.424044 C 320.88344,154.95611 330.17825,260.7833 285.9293,396.18678"
       style="opacity:0.95999995;fill:none;stroke:#000000;stroke-width:2;stroke-linecap:butt;stroke-linejoin:miter;stroke-miterlimit:4;stroke-opacity:1;stroke-dasharray:none;marker-start:none;marker-end:url(#Arrow1Mend)" />
    <path
       inkscape:connector-curvature="0"
       inkscape:original-d="m 122.69935,794.56958 c 10.90318,1.04307 24.33381,0.90269 33.1378,-0.0124"
       inkscape:path-effect="#path-effect13739"
       id="path13737"
       d="m 122.69935,794.56958 33.1378,-0.0124"
       style="fill:none;stroke:#000000;stroke-width:2;stroke-linecap:butt;stroke-linejoin:miter;stroke-miterlimit:4;stroke-opacity:1;stroke-dasharray:none;marker-mid:none;marker-end:url(#Arrow1Mend)" />
    <path
       sodipodi:nodetypes="cc"
       inkscape:connector-curvature="0"
       id="path13741"
       d="m 140.49091,818.81703 c 11.56409,51.17584 52.18413,66.84933 69.63134,78.02065"
       style="fill:none;stroke:#000000;stroke-width:2;stroke-linecap:butt;stroke-linejoin:miter;stroke-miterlimit:4;stroke-opacity:1;stroke-dasharray:none;marker-end:url(#Arrow1Mend)" />
    <path
       inkscape:transform-center-y="2.8645049"
       inkscape:transform-center-x="-3.4188904"
       inkscape:connector-curvature="0"
       inkscape:original-d="m 190.56318,758.9542 c -1.13869,2.28566 -2.2293,5.21801 -2.764,7.20769"
       inkscape:path-effect="#path-effect13739-6"
       id="path13737-1"
       d="m 190.56318,758.9542 -2.764,7.20769"
       style="fill:none;stroke:#000000;stroke-width:2;stroke-linecap:butt;stroke-linejoin:miter;stroke-miterlimit:4;stroke-opacity:1;stroke-dasharray:none;marker-mid:none;marker-end:url(#Arrow1Mend)" />
    <g
       id="content"
       transform="matrix(2.9025315,0,0,-2.9025315,-986.72494,2807.9675)"
       xml:space="preserve"
       stroke-miterlimit="10.433"
       font-style="normal"
       font-variant="normal"
       font-weight="normal"
       font-stretch="normal"
       font-size-adjust="none"
       letter-spacing="normal"
       word-spacing="normal"
       ns0:text="$$i_{c_{rss}}$$\n\n\n\n"
       ns0:preamble=""
       style="font-style:normal;font-variant:normal;font-weight:normal;font-stretch:normal;letter-spacing:normal;word-spacing:normal;text-anchor:start;fill:none;stroke:#000000;stroke-linecap:butt;stroke-linejoin:miter;stroke-miterlimit:10.43299961;stroke-opacity:1;stroke-dasharray:none;stroke-dashoffset:0">
<path
   style="fill:#000000;stroke-width:0"
   inkscape:connector-curvature="0"
   d="m 389.03,713.34 0,0.02 0,0.02 -0.01,0.02 0,0.02 0,0.01 -0.01,0.02 0,0.02 -0.01,0.02 0,0.01 -0.01,0.02 -0.01,0.01 -0.01,0.02 -0.01,0.01 -0.01,0.01 -0.01,0.02 -0.01,0.01 -0.01,0.01 -0.02,0.01 -0.01,0.01 -0.01,0.01 -0.02,0.01 -0.01,0.01 -0.02,0.01 -0.02,0.01 -0.01,0 -0.02,0.01 -0.02,0 -0.02,0.01 -0.02,0 -0.02,0 -0.02,0 -0.02,0 c -0.27,0 -0.54,-0.25 -0.54,-0.52 0,-0.19 0.14,-0.36 0.38,-0.36 0.23,0 0.53,0.23 0.53,0.52 z"
   id="path15950" />
<path
   style="fill:#000000;stroke-width:0"
   inkscape:connector-curvature="0"
   d="m 388.27,709.6 0.01,0.03 0.01,0.02 0.01,0.03 0.01,0.02 0.01,0.02 0.01,0.02 0,0.02 0.01,0.02 0.01,0.01 0,0.02 0.01,0.02 0.01,0.01 0,0.02 0.01,0.01 0.01,0.03 0.01,0.03 0.01,0.03 0,0.01 0.01,0.02 0,0.01 0.01,0.02 0.01,0.01 0,0.02 0.01,0.02 0.01,0.02 0,0.02 0.01,0.02 0.01,0.03 0.01,0.02 c 0.08,0.2 0.13,0.34 0.13,0.53 0,0.45 -0.32,0.81 -0.82,0.81 -0.94,0 -1.31,-1.44 -1.31,-1.53 0,-0.1 0.1,-0.1 0.12,-0.1 0.09,0 0.1,0.02 0.16,0.18 0.26,0.94 0.66,1.23 1,1.23 0.08,0 0.25,0 0.25,-0.31 0,-0.21 -0.07,-0.42 -0.11,-0.52 -0.08,-0.26 -0.53,-1.41 -0.69,-1.84 -0.1,-0.26 -0.23,-0.59 -0.23,-0.8 0,-0.47 0.34,-0.81 0.82,-0.81 0.94,0 1.31,1.44 1.31,1.53 0,0.1 -0.09,0.1 -0.12,0.1 -0.1,0 -0.1,-0.03 -0.15,-0.18 -0.18,-0.63 -0.51,-1.24 -1.02,-1.24 -0.17,0 -0.24,0.1 -0.24,0.33 0,0.25 0.06,0.39 0.29,1 z"
   id="path15952" />
<path
   style="fill:#000000;stroke-width:0"
   inkscape:connector-curvature="0"
   d="m 392.68,708.29 -0.02,0 -0.03,-0.01 -0.02,0 -0.02,-0.01 -0.02,-0.01 -0.02,0 -0.01,-0.01 -0.02,-0.01 -0.02,-0.01 -0.01,-0.01 -0.02,-0.02 -0.01,-0.01 -0.02,-0.01 -0.01,-0.01 -0.01,-0.02 -0.01,-0.01 -0.01,-0.01 -0.01,-0.02 -0.01,-0.01 -0.01,-0.02 -0.01,-0.01 0,-0.02 -0.01,-0.01 -0.01,-0.02 0,-0.01 0,-0.02 -0.01,-0.01 0,-0.02 0,-0.01 0,-0.02 -0.01,-0.01 0,-0.01 c 0,-0.19 0.15,-0.26 0.28,-0.26 0.15,0 0.39,0.11 0.39,0.44 0,0.48 -0.54,0.61 -0.92,0.61 -1.04,0 -2.01,-0.96 -2.01,-1.93 0,-0.6 0.42,-1.21 1.29,-1.21 1.18,0 1.73,0.69 1.73,0.79 0,0.04 -0.07,0.12 -0.12,0.12 -0.04,0 -0.06,-0.02 -0.11,-0.07 -0.55,-0.64 -1.36,-0.64 -1.49,-0.64 -0.5,0 -0.72,0.34 -0.72,0.77 0,0.2 0.1,0.96 0.46,1.44 0.26,0.34 0.63,0.53 0.97,0.53 0.1,0 0.44,-0.01 0.61,-0.21 z"
   id="path15954" />
<path
   style="fill:#000000;stroke-width:0"
   inkscape:connector-curvature="0"
   d="m 394.67,705.45 0,0.01 0,0 0.01,0.01 0,0.01 0,0.01 0,0.01 0.01,0.01 0,0.01 0,0.01 0,0.02 0.01,0.01 0,0.01 0,0.02 0.01,0.03 0.01,0.02 0,0.03 0.01,0.01 0,0.01 0,0.01 0,0.01 0.01,0.01 0,0.01 0,0.01 0,0.01 0.01,0.01 0,0.01 0,0.01 0,0.01 c 0.02,0.07 0.04,0.15 0.06,0.22 0.02,0.08 0.18,0.34 0.34,0.48 0.18,0.14 0.33,0.17 0.51,0.17 0.06,0 0.29,0 0.45,-0.08 -0.21,-0.08 -0.21,-0.29 -0.21,-0.29 0,-0.09 0.06,-0.21 0.22,-0.21 0.14,0 0.31,0.12 0.31,0.34 0,0.37 -0.52,0.41 -0.76,0.41 -0.12,0 -0.46,0 -0.8,-0.39 -0.06,0.27 -0.35,0.39 -0.59,0.39 -0.17,0 -0.32,-0.08 -0.44,-0.27 -0.13,-0.21 -0.2,-0.47 -0.2,-0.5 0,-0.07 0.08,-0.07 0.11,-0.07 0.08,0 0.09,0.02 0.12,0.14 0.08,0.3 0.2,0.53 0.38,0.53 0.17,0 0.21,-0.16 0.21,-0.26 0,-0.07 -0.05,-0.26 -0.08,-0.39 -0.04,-0.13 -0.09,-0.34 -0.11,-0.45 l -0.12,-0.44 c -0.03,-0.12 -0.08,-0.34 -0.08,-0.37 0,-0.11 0.09,-0.17 0.18,-0.17 0.08,0 0.17,0.04 0.22,0.13 0.02,0.04 0.06,0.2 0.09,0.3 z"
   id="path15956" />
<path
   style="fill:#000000;stroke-width:0"
   inkscape:connector-curvature="0"
   d="m 399.23,706.51 -0.01,0 -0.01,0 0,-0.01 -0.01,0 -0.01,0 -0.01,-0.01 -0.01,0 -0.01,-0.01 -0.01,-0.01 -0.02,0 -0.01,-0.01 -0.01,-0.01 0,-0.01 -0.01,-0.01 -0.01,-0.01 -0.01,0 0,-0.01 -0.01,-0.01 -0.01,-0.01 0,-0.01 -0.01,-0.01 0,-0.01 0,-0.01 -0.01,-0.01 0,-0.01 0,-0.01 0,0 -0.01,-0.01 0,-0.01 0,-0.01 0,0 0,-0.01 0,-0.01 0,0 0,-0.01 c 0,-0.12 0.11,-0.18 0.19,-0.18 0.06,0 0.26,0.05 0.26,0.31 0,0.33 -0.39,0.44 -0.76,0.44 -0.84,0 -1,-0.51 -1,-0.69 0,-0.18 0.1,-0.28 0.19,-0.35 0.14,-0.1 0.29,-0.12 0.55,-0.17 0.32,-0.05 0.67,-0.1 0.67,-0.35 0,-0.01 0,-0.52 -0.92,-0.52 -0.19,0 -0.5,0.01 -0.66,0.17 0.18,0.04 0.26,0.18 0.26,0.3 0,0.14 -0.1,0.2 -0.21,0.2 -0.17,0 -0.32,-0.13 -0.32,-0.35 0,-0.49 0.77,-0.49 0.92,-0.49 1.02,0 1.19,0.58 1.19,0.79 0,0.45 -0.54,0.53 -0.8,0.58 -0.36,0.05 -0.6,0.09 -0.6,0.29 0,0.01 0,0.42 0.72,0.42 0.13,0 0.39,-0.01 0.52,-0.15 z"
   id="path15958" />
<path
   style="fill:#000000;stroke-width:0"
   inkscape:connector-curvature="0"
   d="m 402.57,706.51 -0.01,0 -0.01,0 -0.01,-0.01 0,0 -0.01,0 -0.01,-0.01 -0.01,0 -0.01,-0.01 -0.02,-0.01 -0.01,0 -0.01,-0.01 -0.01,-0.01 -0.01,-0.01 0,-0.01 -0.01,-0.01 -0.01,0 -0.01,-0.01 0,-0.01 -0.01,-0.01 0,-0.01 -0.01,-0.01 0,-0.01 0,-0.01 -0.01,-0.01 0,-0.01 0,-0.01 -0.01,0 0,-0.01 0,-0.01 0,-0.01 0,0 0,-0.01 0,-0.01 0,0 0,-0.01 c 0,-0.12 0.1,-0.18 0.19,-0.18 0.06,0 0.26,0.05 0.26,0.31 0,0.33 -0.39,0.44 -0.77,0.44 -0.84,0 -1,-0.51 -1,-0.69 0,-0.18 0.11,-0.28 0.2,-0.35 0.14,-0.1 0.29,-0.12 0.55,-0.17 0.31,-0.05 0.66,-0.1 0.66,-0.35 0,-0.01 0,-0.52 -0.91,-0.52 -0.19,0 -0.5,0.01 -0.66,0.17 0.18,0.04 0.26,0.18 0.26,0.3 0,0.14 -0.1,0.2 -0.21,0.2 -0.17,0 -0.32,-0.13 -0.32,-0.35 0,-0.49 0.77,-0.49 0.92,-0.49 1.02,0 1.19,0.58 1.19,0.79 0,0.45 -0.55,0.53 -0.8,0.58 -0.36,0.05 -0.6,0.09 -0.6,0.29 0,0.01 0,0.42 0.72,0.42 0.12,0 0.39,-0.01 0.52,-0.15 z"
   id="path15960" />
</g>    <g
       style="font-style:normal;font-variant:normal;font-weight:normal;font-stretch:normal;letter-spacing:normal;word-spacing:normal;text-anchor:start;fill:none;stroke:#000000;stroke-linecap:butt;stroke-linejoin:miter;stroke-miterlimit:10.43299961;stroke-opacity:1;stroke-dasharray:none;stroke-dashoffset:0"
       ns0:preamble=""
       ns0:text="$$i_g$$\n\n"
       word-spacing="normal"
       letter-spacing="normal"
       font-size-adjust="none"
       font-stretch="normal"
       font-weight="normal"
       font-variant="normal"
       font-style="normal"
       stroke-miterlimit="10.433"
       xml:space="preserve"
       transform="matrix(2.9025315,0,0,-2.9025315,-1002.1131,2832.6282)"
       id="g16256">
<path
   id="path16258"
   d="m 394.08,713.34 0,0.02 0,0.02 0,0.02 0,0.02 -0.01,0.01 0,0.02 0,0.02 -0.01,0.02 -0.01,0.01 0,0.02 -0.01,0.01 -0.01,0.02 -0.01,0.01 -0.01,0.01 -0.01,0.02 -0.01,0.01 -0.02,0.01 -0.01,0.01 -0.01,0.01 -0.02,0.01 -0.01,0.01 -0.02,0.01 -0.01,0.01 -0.02,0.01 -0.02,0 -0.01,0.01 -0.02,0 -0.02,0.01 -0.02,0 -0.02,0 -0.02,0 -0.02,0 c -0.27,0 -0.54,-0.25 -0.54,-0.52 0,-0.19 0.14,-0.36 0.38,-0.36 0.23,0 0.52,0.23 0.52,0.52 z"
   inkscape:connector-curvature="0"
   style="fill:#000000;stroke-width:0" />
<path
   id="path16260"
   d="m 393.33,709.6 0.01,0.03 0.01,0.02 0.01,0.03 0.01,0.02 0.01,0.02 0,0.02 0.01,0.02 0.01,0.02 0,0.01 0.01,0.02 0.01,0.02 0,0.01 0.01,0.02 0,0.01 0.01,0.03 0.01,0.03 0.02,0.03 0,0.01 0.01,0.02 0,0.01 0.01,0.02 0,0.01 0.01,0.02 0.01,0.02 0,0.02 0.01,0.02 0.01,0.02 0.01,0.03 0.01,0.02 c 0.08,0.2 0.13,0.34 0.13,0.53 0,0.45 -0.32,0.81 -0.82,0.81 -0.94,0 -1.32,-1.44 -1.32,-1.53 0,-0.1 0.1,-0.1 0.12,-0.1 0.1,0 0.11,0.02 0.16,0.18 0.27,0.94 0.67,1.23 1.01,1.23 0.08,0 0.25,0 0.25,-0.31 0,-0.21 -0.07,-0.42 -0.11,-0.52 -0.08,-0.26 -0.53,-1.41 -0.69,-1.84 -0.1,-0.26 -0.23,-0.59 -0.23,-0.8 0,-0.47 0.34,-0.81 0.82,-0.81 0.94,0 1.3,1.44 1.3,1.53 0,0.1 -0.09,0.1 -0.12,0.1 -0.1,0 -0.1,-0.03 -0.14,-0.18 -0.18,-0.63 -0.51,-1.24 -1.02,-1.24 -0.17,0 -0.24,0.1 -0.24,0.33 0,0.25 0.06,0.39 0.29,1 z"
   inkscape:connector-curvature="0"
   style="fill:#000000;stroke-width:0" />
<path
   id="path16262"
   d="m 398.39,708.2 0,0.01 0.01,0.01 0,0 0,0.01 0,0.01 0,0.01 0.01,0.01 0,0 0,0.01 0,0.01 0,0 0,0.01 0,0 0,0.01 0,0 0.01,0.01 0,0 0,0 0,0.01 0,0 0,0 0,0.01 0,0 0,0 0,0 0,0.01 0,0 0,0 0,0 0,0 0,0 0,0 c 0,0.16 -0.13,0.23 -0.24,0.23 -0.16,0 -0.29,-0.14 -0.32,-0.27 -0.12,0.19 -0.35,0.4 -0.72,0.4 v -0.2 c 0.49,0 0.62,-0.52 0.62,-0.59 0,-0.01 0,-0.03 -0.02,-0.1 l -0.31,-1.25 c -0.03,-0.11 -0.03,-0.12 -0.15,-0.26 -0.24,-0.29 -0.57,-0.47 -0.84,-0.47 -0.35,0 -0.52,0.3 -0.52,0.66 0,0.3 0.19,1.08 0.37,1.39 0.29,0.48 0.62,0.62 0.85,0.62 v 0.2 c -0.87,0 -1.78,-0.93 -1.78,-1.93 0,-0.72 0.49,-1.14 1.06,-1.14 0.32,0 0.63,0.16 0.87,0.38 l -0.15,-0.63 c -0.08,-0.29 -0.13,-0.48 -0.39,-0.72 -0.31,-0.25 -0.61,-0.25 -0.78,-0.25 -0.32,0 -0.41,0.02 -0.54,0.05 0.18,0.08 0.22,0.25 0.22,0.34 0,0.17 -0.13,0.26 -0.27,0.26 -0.19,0 -0.4,-0.16 -0.4,-0.42 0,-0.42 0.6,-0.43 0.99,-0.43 1.1,0 1.56,0.56 1.66,0.95 z"
   inkscape:connector-curvature="0"
   style="fill:#000000;stroke-width:0" />
</g>    <g
       id="g16589"
       transform="matrix(2.9025315,0,0,-2.9025315,-994.80984,2938.1859)"
       xml:space="preserve"
       stroke-miterlimit="10.433"
       font-style="normal"
       font-variant="normal"
       font-weight="normal"
       font-stretch="normal"
       font-size-adjust="none"
       letter-spacing="normal"
       word-spacing="normal"
       ns0:text="$$v_{GS}$$\n\n\n"
       ns0:preamble=""
       style="font-style:normal;font-variant:normal;font-weight:normal;font-stretch:normal;letter-spacing:normal;word-spacing:normal;text-anchor:start;fill:none;stroke:#000000;stroke-linecap:butt;stroke-linejoin:miter;stroke-miterlimit:10.43299961;stroke-opacity:1;stroke-dasharray:none;stroke-dashoffset:0">
<path
   style="fill:#000000;stroke-width:0"
   inkscape:connector-curvature="0"
   d="m 391.55,710.83 0,0.02 0,0.03 0,0.02 0,0.02 0,0.03 -0.01,0.02 0,0.02 0,0.02 -0.01,0.04 0,0.04 -0.01,0.04 -0.01,0.03 -0.01,0.04 -0.01,0.03 -0.02,0.03 -0.01,0.02 -0.01,0.03 -0.02,0.02 -0.01,0.03 -0.02,0.02 -0.02,0.02 -0.01,0.01 -0.02,0.02 -0.02,0.02 -0.02,0.01 -0.02,0.01 -0.01,0.01 -0.02,0.01 -0.02,0.01 -0.02,0.01 -0.02,0 -0.02,0.01 -0.01,0 -0.02,0 -0.02,0 -0.02,0 c -0.25,0 -0.49,-0.25 -0.49,-0.47 0,-0.13 0.05,-0.19 0.16,-0.3 0.21,-0.2 0.34,-0.46 0.34,-0.82 0,-0.42 -0.61,-2.7 -1.77,-2.7 -0.51,0 -0.74,0.35 -0.74,0.87 0,0.56 0.27,1.28 0.58,2.11 0.07,0.17 0.12,0.31 0.12,0.5 0,0.45 -0.32,0.81 -0.82,0.81 -0.94,0 -1.32,-1.44 -1.32,-1.53 0,-0.1 0.1,-0.1 0.13,-0.1 0.09,0 0.1,0.02 0.15,0.18 0.29,1.01 0.72,1.23 1.01,1.23 0.08,0 0.25,0 0.25,-0.31 0,-0.25 -0.1,-0.52 -0.17,-0.7 -0.44,-1.15 -0.57,-1.61 -0.57,-2.04 0,-1.08 0.88,-1.23 1.34,-1.23 1.67,0 2.24,3.29 2.24,3.81 z"
   id="path16591" />
<path
   style="fill:#000000;stroke-width:0"
   inkscape:connector-curvature="0"
   d="m 397.59,710.43 0,0 0,0.01 0,0 -0.01,0 0,0.01 0,0 0,0 0,0.01 0,0 0,0.01 0,0 0,0 -0.01,0.01 0,0 0,0 0,0.01 -0.01,0 0,0 0,0.01 -0.01,0 0,0 0,0.01 -0.01,0 0,0 -0.01,0 0,0 -0.01,0.01 0,0 0,0 -0.01,0 0,0 0,0 0,0 -0.01,0 0,0 0,0 c -0.05,0 -0.07,-0.01 -0.13,-0.08 l -0.51,-0.54 c -0.06,0.08 -0.45,0.62 -1.31,0.62 -1.69,0 -3.35,-1.5 -3.35,-3.07 0,-1.07 0.82,-1.96 2.16,-1.96 0.61,0 1.26,0.16 1.62,0.55 0.07,-0.15 0.26,-0.4 0.35,-0.4 0.06,0 0.07,0.03 0.11,0.17 l 0.13,0.54 c 0.03,0.12 0.13,0.54 0.15,0.62 0.09,0.32 0.09,0.32 0.5,0.33 0.05,0 0.16,0 0.16,0.15 0,0.07 -0.05,0.1 -0.11,0.1 -0.23,0 -0.52,-0.03 -0.76,-0.03 -0.18,0 -0.41,0 -0.58,0.01 -0.18,0.01 -0.38,0.02 -0.55,0.02 -0.05,0 -0.15,0 -0.15,-0.15 0,-0.1 0.07,-0.1 0.25,-0.1 0.13,0 0.27,0 0.4,-0.01 0.22,-0.02 0.23,-0.05 0.23,-0.14 0,-0.02 0,-0.04 -0.05,-0.22 -0.05,-0.19 -0.12,-0.51 -0.15,-0.58 -0.2,-0.42 -0.85,-0.61 -1.39,-0.61 -0.7,0 -1.61,0.34 -1.61,1.51 0,0.74 0.34,1.68 0.86,2.2 0.72,0.71 1.46,0.82 1.85,0.82 0.81,0 1.28,-0.59 1.28,-1.36 0,-0.2 -0.02,-0.25 -0.02,-0.29 0,-0.09 0.09,-0.09 0.13,-0.09 0.11,0 0.11,0.02 0.14,0.15 z"
   id="path16593" />
<path
   style="fill:#000000;stroke-width:0"
   inkscape:connector-curvature="0"
   d="m 402.86,710.43 0,0 0,0.01 0,0 0,0 0,0.01 0,0 0,0 0,0.01 0,0 0,0.01 -0.01,0 0,0 0,0.01 0,0 0,0 -0.01,0.01 0,0 0,0 -0.01,0.01 0,0 0,0 -0.01,0.01 0,0 0,0 -0.01,0 0,0 -0.01,0.01 0,0 -0.01,0 0,0 0,0 -0.01,0 0,0 0,0 0,0 -0.01,0 c -0.04,0 -0.05,-0.01 -0.14,-0.1 l -0.34,-0.39 c -0.26,0.36 -0.7,0.49 -1.13,0.49 -0.98,0 -1.85,-0.79 -1.85,-1.59 0,-0.11 0.02,-0.39 0.23,-0.64 0.24,-0.28 0.5,-0.34 0.97,-0.45 0.14,-0.04 0.49,-0.12 0.59,-0.14 0.22,-0.06 0.65,-0.21 0.65,-0.73 0,-0.57 -0.59,-1.23 -1.39,-1.23 -0.61,0 -1.35,0.22 -1.35,0.99 0,0.07 0.01,0.22 0.04,0.35 0.01,0.02 0.01,0.03 0.01,0.04 0,0.09 -0.08,0.09 -0.11,0.09 -0.1,0 -0.11,-0.01 -0.13,-0.14 l -0.36,-1.39 c -0.01,-0.03 -0.02,-0.07 -0.02,-0.1 0,-0.05 0.03,-0.09 0.1,-0.09 0.04,0 0.05,0.01 0.14,0.1 0.07,0.08 0.25,0.31 0.33,0.39 0.37,-0.4 0.91,-0.49 1.33,-0.49 1.05,0 1.9,0.91 1.9,1.73 0,0.3 -0.12,0.58 -0.28,0.74 -0.24,0.25 -0.34,0.28 -1.24,0.49 -0.15,0.03 -0.38,0.09 -0.44,0.11 -0.18,0.06 -0.47,0.23 -0.47,0.63 0,0.55 0.62,1.11 1.35,1.11 0.75,0 1.11,-0.43 1.11,-1.09 0,-0.09 -0.03,-0.25 -0.03,-0.31 0,-0.1 0.09,-0.1 0.12,-0.1 0.1,0 0.11,0.04 0.14,0.16 z"
   id="path16595" />
</g>    <g
       style="font-style:normal;font-variant:normal;font-weight:normal;font-stretch:normal;letter-spacing:normal;word-spacing:normal;text-anchor:start;fill:none;stroke:#000000;stroke-linecap:butt;stroke-linejoin:miter;stroke-miterlimit:10.43299961;stroke-opacity:1;stroke-dasharray:none;stroke-dashoffset:0"
       ns0:preamble=""
       ns0:text="$$R_{Gi}$$\n\n\n"
       word-spacing="normal"
       letter-spacing="normal"
       font-size-adjust="none"
       font-stretch="normal"
       font-weight="normal"
       font-variant="normal"
       font-style="normal"
       stroke-miterlimit="10.433"
       xml:space="preserve"
       transform="matrix(2.9025315,0,0,-2.9025315,-1047.4773,2832.9512)"
       id="g16930">
<path
   id="path16932"
   d="m 391.92,710.51 0.09,0.02 0.1,0.03 0.1,0.02 0.09,0.03 0.1,0.04 0.1,0.03 0.09,0.04 0.1,0.04 0.09,0.04 0.09,0.05 0.1,0.05 0.09,0.05 0.08,0.05 0.09,0.06 0.08,0.05 0.08,0.06 0.08,0.07 0.08,0.06 0.07,0.07 0.06,0.07 0.07,0.07 0.06,0.07 0.05,0.08 0.05,0.08 0.05,0.08 0.04,0.08 0.03,0.08 0.03,0.09 0.02,0.09 0.02,0.09 0.01,0.09 0,0.09 c 0,0.86 -0.9,1.49 -2.2,1.49 h -2.84 c -0.2,0 -0.29,0 -0.29,-0.2 0,-0.11 0.09,-0.11 0.28,-0.11 0.02,0 0.21,0 0.38,-0.02 0.18,-0.02 0.27,-0.03 0.27,-0.16 0,-0.03 -0.01,-0.07 -0.04,-0.18 l -1.34,-5.35 c -0.1,-0.39 -0.12,-0.47 -0.91,-0.47 -0.18,0 -0.27,0 -0.27,-0.2 0,-0.1 0.12,-0.1 0.14,-0.1 0.28,0 0.98,0.03 1.26,0.03 0.28,0 0.99,-0.03 1.27,-0.03 0.08,0 0.2,0 0.2,0.19 0,0.11 -0.09,0.11 -0.28,0.11 -0.37,0 -0.65,0 -0.65,0.18 0,0.06 0.02,0.11 0.03,0.17 l 0.66,2.64 h 1.18 l -0.01,0.22 h -1.11 l 0.64,2.6 c 0.06,0.23 0.09,0.33 0.28,0.36 0.09,0.01 0.41,0.01 0.61,0.01 0.71,0 1.82,0 1.82,-0.98 0,-0.34 -0.16,-1.03 -0.55,-1.41 -0.26,-0.26 -0.79,-0.58 -1.69,-0.58 l 0.01,-0.22 c 0.91,0 1.09,-0.56 1.09,-0.91 0,-0.15 -0.08,-0.45 -0.14,-0.68 -0.07,-0.28 -0.16,-0.65 -0.16,-0.85 0,-1.07 1.2,-1.07 1.33,-1.07 0.84,0 1.19,1 1.19,1.14 0,0.12 -0.11,0.12 -0.12,0.12 -0.09,0 -0.11,-0.07 -0.13,-0.14 -0.25,-0.74 -0.67,-0.9 -0.9,-0.9 -0.33,0 -0.4,0.21 -0.4,0.6 0,0.31 0.06,0.82 0.1,1.14 0.02,0.14 0.04,0.33 0.04,0.46 0,0.77 -0.67,1.08 -0.94,1.18 z"
   inkscape:connector-curvature="0"
   style="fill:#000000;stroke-width:0" />
<path
   id="path16934"
   d="m 400.18,710.43 0,0 0,0.01 0,0 0,0 0,0.01 0,0 0,0 0,0.01 0,0 -0.01,0.01 0,0 0,0 0,0.01 0,0 -0.01,0 0,0.01 0,0 0,0 -0.01,0.01 0,0 0,0 -0.01,0.01 0,0 -0.01,0 0,0 -0.01,0 0,0.01 -0.01,0 0,0 0,0 0,0 -0.01,0 0,0 0,0 -0.01,0 0,0 c -0.05,0 -0.06,-0.01 -0.13,-0.08 l -0.5,-0.54 c -0.07,0.08 -0.46,0.62 -1.31,0.62 -1.7,0 -3.35,-1.5 -3.35,-3.07 0,-1.07 0.82,-1.96 2.16,-1.96 0.61,0 1.26,0.16 1.62,0.55 0.07,-0.15 0.26,-0.4 0.34,-0.4 0.06,0 0.08,0.03 0.11,0.17 l 0.13,0.54 c 0.04,0.12 0.14,0.54 0.16,0.62 0.08,0.32 0.09,0.32 0.5,0.33 0.05,0 0.15,0 0.15,0.15 0,0.07 -0.05,0.1 -0.1,0.1 -0.23,0 -0.52,-0.03 -0.77,-0.03 -0.17,0 -0.4,0 -0.58,0.01 -0.17,0.01 -0.37,0.02 -0.55,0.02 -0.05,0 -0.15,0 -0.15,-0.15 0,-0.1 0.08,-0.1 0.25,-0.1 0.13,0 0.27,0 0.41,-0.01 0.22,-0.02 0.22,-0.05 0.22,-0.14 0,-0.02 0,-0.04 -0.04,-0.22 -0.05,-0.19 -0.13,-0.51 -0.16,-0.58 -0.2,-0.42 -0.85,-0.61 -1.39,-0.61 -0.7,0 -1.61,0.34 -1.61,1.51 0,0.74 0.35,1.68 0.86,2.2 0.72,0.71 1.47,0.82 1.86,0.82 0.8,0 1.28,-0.59 1.28,-1.36 0,-0.2 -0.02,-0.25 -0.02,-0.29 0,-0.09 0.09,-0.09 0.12,-0.09 0.11,0 0.11,0.02 0.15,0.15 z"
   inkscape:connector-curvature="0"
   style="fill:#000000;stroke-width:0" />
<path
   id="path16936"
   d="m 402.77,709.98 0,0.01 0,0.01 0,0.01 0,0.01 -0.01,0.01 0,0.01 0,0.01 -0.01,0.02 0,0.01 -0.01,0.01 0,0.01 -0.01,0.01 0,0.01 -0.01,0.01 -0.01,0.01 -0.01,0.01 -0.01,0.01 -0.01,0.01 -0.01,0.01 -0.01,0.01 -0.01,0 -0.01,0.01 -0.01,0.01 -0.01,0.01 -0.02,0 -0.01,0.01 -0.02,0 -0.01,0 -0.02,0.01 -0.01,0 -0.02,0 -0.02,0 c -0.19,0 -0.39,-0.18 -0.39,-0.38 0,-0.12 0.09,-0.27 0.28,-0.27 0.2,0 0.39,0.2 0.39,0.39 z"
   inkscape:connector-curvature="0"
   style="fill:#000000;stroke-width:0" />
<path
   id="path16938"
   d="m 401.35,706.44 -0.01,-0.03 -0.01,-0.03 -0.01,-0.02 0,-0.02 -0.01,-0.01 0,-0.02 -0.01,-0.02 0,-0.02 -0.01,-0.02 0,-0.01 0,-0.01 0,-0.01 0,-0.01 0,-0.01 0,-0.02 0,-0.01 0,-0.01 0,-0.01 c 0,-0.32 0.27,-0.59 0.66,-0.59 0.69,0 1,0.96 1,1.07 0,0.09 -0.09,0.09 -0.11,0.09 -0.1,0 -0.11,-0.05 -0.13,-0.12 -0.16,-0.56 -0.47,-0.84 -0.74,-0.84 -0.14,0 -0.18,0.09 -0.18,0.24 0,0.16 0.05,0.29 0.11,0.44 0.08,0.19 0.15,0.38 0.23,0.56 0.06,0.17 0.31,0.8 0.34,0.88 0.02,0.07 0.04,0.16 0.04,0.23 0,0.32 -0.28,0.59 -0.66,0.59 -0.69,0 -1.01,-0.95 -1.01,-1.07 0,-0.09 0.1,-0.09 0.12,-0.09 0.1,0 0.1,0.04 0.12,0.11 0.19,0.6 0.49,0.85 0.75,0.85 0.11,0 0.17,-0.05 0.17,-0.24 0,-0.16 -0.04,-0.27 -0.21,-0.7 z"
   inkscape:connector-curvature="0"
   style="fill:#000000;stroke-width:0" />
</g>    <g
       id="g17286"
       transform="matrix(2.9025315,0,0,-2.9025315,-983.71471,2763.5695)"
       xml:space="preserve"
       stroke-miterlimit="10.433"
       font-style="normal"
       font-variant="normal"
       font-weight="normal"
       font-stretch="normal"
       font-size-adjust="none"
       letter-spacing="normal"
       word-spacing="normal"
       ns0:text="$$C_{rss}(V_{CE})$$\n\n\n\n"
       ns0:preamble=""
       style="font-style:normal;font-variant:normal;font-weight:normal;font-stretch:normal;letter-spacing:normal;word-spacing:normal;text-anchor:start;fill:none;stroke:#000000;stroke-linecap:butt;stroke-linejoin:miter;stroke-miterlimit:10.43299961;stroke-opacity:1;stroke-dasharray:none;stroke-dashoffset:0">
<path
   style="fill:#000000;stroke-width:0"
   inkscape:connector-curvature="0"
   d="m 380.09,714.04 0,0 0,0.01 0,0 0,0 0,0.01 0,0 0,0.01 0,0 0,0 -0.01,0.01 0,0 0,0.01 0,0 0,0 -0.01,0.01 0,0 0,0.01 -0.01,0 0,0 0,0.01 -0.01,0 0,0 -0.01,0.01 0,0 -0.01,0 0,0 -0.01,0 0,0.01 0,0 -0.01,0 0,0 0,0 -0.01,0 0,0 0,0 -0.01,0 0,0 0,0 -0.01,0 c -0.03,0 -0.04,-0.01 -0.15,-0.12 l -0.7,-0.76 c -0.09,0.14 -0.54,0.88 -1.65,0.88 -2.22,0 -4.47,-2.2 -4.47,-4.51 0,-1.64 1.18,-2.72 2.7,-2.72 0.87,0 1.63,0.39 2.16,0.85 0.93,0.82 1.09,1.72 1.09,1.75 0,0.1 -0.1,0.1 -0.11,0.1 -0.06,0 -0.12,-0.02 -0.14,-0.1 -0.08,-0.29 -0.31,-0.99 -1,-1.57 -0.69,-0.56 -1.32,-0.72 -1.84,-0.72 -0.89,0 -1.95,0.51 -1.95,2.06 0,0.57 0.21,2.18 1.21,3.35 0.6,0.71 1.54,1.2 2.43,1.2 1.02,0 1.6,-0.76 1.6,-1.92 0,-0.4 -0.03,-0.41 -0.03,-0.5 0,-0.11 0.11,-0.11 0.15,-0.11 0.13,0 0.13,0.03 0.18,0.2 z"
   id="path17288" />
<path
   style="fill:#000000;stroke-width:0"
   inkscape:connector-curvature="0"
   d="m 381.27,707.04 0,0 0,0 0,0.01 0.01,0 0,0.01 0,0 0,0.01 0,0.01 0,0 0.01,0.01 0,0.01 0,0.01 0,0.01 0.01,0.01 0,0.03 0.01,0.02 0,0.03 0.01,0.03 0.01,0.03 0.01,0.03 0,0.03 0.02,0.06 0.02,0.06 0,0.03 0.01,0.03 0.01,0.03 0.01,0.03 0,0.02 0.01,0.03 0.01,0.02 0,0.01 0,0.01 0,0.01 0.01,0.01 0,0.01 0,0.01 0,0.01 0.01,0 0,0.01 0,0 0,0.01 0,0 0,0.01 0,0 c 0.02,0.05 0.22,0.4 0.44,0.57 0.08,0.05 0.27,0.19 0.57,0.19 0.06,0 0.24,0 0.38,-0.09 -0.22,-0.07 -0.31,-0.26 -0.31,-0.39 0,-0.15 0.12,-0.25 0.28,-0.25 0.16,0 0.39,0.13 0.39,0.42 0,0.36 -0.38,0.51 -0.74,0.51 -0.36,0 -0.67,-0.15 -0.98,-0.5 -0.12,0.43 -0.55,0.5 -0.72,0.5 -0.25,0 -0.43,-0.16 -0.54,-0.36 -0.16,-0.27 -0.26,-0.67 -0.26,-0.71 0,-0.09 0.1,-0.09 0.12,-0.09 0.1,0 0.1,0.02 0.15,0.21 0.11,0.43 0.24,0.75 0.51,0.75 0.18,0 0.23,-0.15 0.23,-0.34 0,-0.13 -0.06,-0.39 -0.11,-0.57 -0.05,-0.19 -0.12,-0.48 -0.15,-0.63 l -0.23,-0.89 c -0.02,-0.09 -0.06,-0.27 -0.06,-0.29 0,-0.15 0.12,-0.22 0.23,-0.22 0.11,0 0.25,0.06 0.3,0.2 0.01,0.04 0.09,0.35 0.13,0.52 z"
   id="path17290" />
<path
   style="fill:#000000;stroke-width:0"
   inkscape:connector-curvature="0"
   d="m 386.55,708.24 -0.01,0 -0.02,0 -0.02,-0.01 -0.01,-0.01 -0.02,0 -0.01,-0.01 -0.02,-0.01 -0.01,0 -0.01,-0.01 -0.02,-0.01 -0.01,-0.01 -0.01,-0.01 -0.01,-0.01 -0.01,-0.01 -0.01,-0.01 -0.01,-0.01 -0.01,-0.01 -0.01,-0.01 -0.01,-0.02 -0.01,-0.01 0,-0.01 -0.01,-0.01 -0.01,-0.01 0,-0.02 -0.01,-0.01 0,-0.01 0,-0.02 -0.01,-0.01 0,-0.01 0,-0.01 0,-0.02 0,-0.01 c 0,-0.16 0.14,-0.22 0.23,-0.22 0.07,0 0.33,0.04 0.33,0.39 0,0.45 -0.5,0.61 -0.92,0.61 -1.09,0 -1.28,-0.8 -1.28,-1.02 0,-0.26 0.14,-0.42 0.24,-0.51 0.18,-0.13 0.31,-0.16 0.79,-0.25 0.14,-0.02 0.59,-0.11 0.59,-0.45 0,-0.12 -0.08,-0.39 -0.37,-0.56 -0.27,-0.15 -0.61,-0.15 -0.7,-0.15 -0.28,0 -0.67,0.06 -0.83,0.29 0.23,0.03 0.38,0.2 0.38,0.39 0,0.18 -0.12,0.26 -0.27,0.26 -0.2,0 -0.4,-0.16 -0.4,-0.46 0,-0.42 0.44,-0.68 1.12,-0.68 1.28,0 1.51,0.88 1.51,1.15 0,0.64 -0.7,0.76 -0.96,0.81 -0.06,0.02 -0.23,0.04 -0.28,0.06 -0.25,0.05 -0.38,0.19 -0.38,0.35 0,0.16 0.13,0.34 0.28,0.44 0.19,0.12 0.43,0.13 0.55,0.13 0.15,0 0.51,-0.02 0.66,-0.26 z"
   id="path17292" />
<path
   style="fill:#000000;stroke-width:0"
   inkscape:connector-curvature="0"
   d="m 390.31,708.24 -0.01,0 -0.02,0 -0.02,-0.01 -0.01,-0.01 -0.02,0 -0.01,-0.01 -0.02,-0.01 -0.01,0 -0.01,-0.01 -0.02,-0.01 -0.01,-0.01 -0.01,-0.01 -0.01,-0.01 -0.01,-0.01 -0.01,-0.01 -0.01,-0.01 -0.01,-0.01 -0.01,-0.01 -0.01,-0.02 -0.01,-0.01 0,-0.01 -0.01,-0.01 -0.01,-0.01 0,-0.02 -0.01,-0.01 0,-0.01 0,-0.02 -0.01,-0.01 0,-0.01 0,-0.01 0,-0.02 0,-0.01 c 0,-0.16 0.14,-0.22 0.23,-0.22 0.07,0 0.33,0.04 0.33,0.39 0,0.45 -0.5,0.61 -0.92,0.61 -1.09,0 -1.28,-0.8 -1.28,-1.02 0,-0.26 0.14,-0.42 0.24,-0.51 0.18,-0.13 0.31,-0.16 0.79,-0.25 0.14,-0.02 0.59,-0.11 0.59,-0.45 0,-0.12 -0.08,-0.39 -0.37,-0.56 -0.27,-0.15 -0.61,-0.15 -0.7,-0.15 -0.28,0 -0.67,0.06 -0.83,0.29 0.23,0.03 0.38,0.2 0.38,0.39 0,0.18 -0.12,0.26 -0.27,0.26 -0.2,0 -0.41,-0.16 -0.41,-0.46 0,-0.42 0.45,-0.68 1.13,-0.68 1.28,0 1.51,0.88 1.51,1.15 0,0.64 -0.7,0.76 -0.96,0.81 -0.06,0.02 -0.23,0.04 -0.28,0.06 -0.25,0.05 -0.38,0.19 -0.38,0.35 0,0.16 0.13,0.34 0.28,0.44 0.19,0.12 0.43,0.13 0.55,0.13 0.15,0 0.51,-0.02 0.66,-0.26 z"
   id="path17294" />
<path
   style="fill:#000000;stroke-width:0"
   inkscape:connector-curvature="0"
   d="m 394.87,704.74 0,0 0,0.01 0,0 0,0 0,0.01 -0.01,0 0,0 0,0.01 0,0 0,0 0,0.01 -0.01,0 0,0.01 0,0 -0.01,0.01 0,0.01 -0.01,0 0,0.01 -0.01,0 0,0.01 0,0 -0.01,0.01 0,0 -0.01,0 0,0.01 0,0 -0.01,0.01 0,0 -0.01,0.01 0,0 -0.01,0.01 -0.01,0.01 0,0 -0.01,0.01 0,0 -0.01,0.01 -0.01,0.01 0,0.01 -0.01,0 -0.01,0.01 -0.01,0.01 0,0.01 c -1.25,1.25 -1.57,3.13 -1.57,4.65 0,1.73 0.38,3.47 1.61,4.71 0.13,0.12 0.13,0.14 0.13,0.17 0,0.07 -0.04,0.1 -0.1,0.1 -0.1,0 -1,-0.68 -1.59,-1.94 -0.51,-1.1 -0.63,-2.2 -0.63,-3.04 0,-0.77 0.11,-1.98 0.66,-3.1 0.6,-1.23 1.46,-1.87 1.56,-1.87 0.06,0 0.1,0.03 0.1,0.1 z"
   id="path17296" />
<path
   style="fill:#000000;stroke-width:0"
   inkscape:connector-curvature="0"
   d="m 401.7,712.79 0.05,0.07 0.04,0.06 0.05,0.07 0.04,0.06 0.05,0.05 0.04,0.05 0.04,0.05 0.05,0.04 0.04,0.04 0.04,0.04 0.04,0.03 0.04,0.04 0.04,0.02 0.04,0.03 0.05,0.02 0.04,0.02 0.03,0.02 0.04,0.02 0.04,0.02 0.04,0.01 0.04,0.01 0.04,0.01 0.03,0.01 0.04,0.01 0.04,0 0.04,0.01 0.07,0 0.07,0.01 0.07,0 c 0.12,0.01 0.13,0.18 0.13,0.19 0,0.08 -0.05,0.12 -0.13,0.12 -0.26,0 -0.55,-0.03 -0.82,-0.03 -0.33,0 -0.67,0.03 -0.99,0.03 -0.06,0 -0.19,0 -0.19,-0.19 0,-0.11 0.09,-0.12 0.16,-0.12 0.27,-0.02 0.46,-0.12 0.46,-0.32 0,-0.15 -0.15,-0.37 -0.15,-0.38 l -3.06,-4.86 -0.68,5.27 c 0,0.16 0.23,0.29 0.69,0.29 0.14,0 0.25,0 0.25,0.2 0,0.09 -0.08,0.11 -0.14,0.11 -0.4,0 -0.83,-0.03 -1.23,-0.03 -0.18,0 -0.37,0.01 -0.55,0.01 -0.18,0 -0.37,0.02 -0.54,0.02 -0.07,0 -0.19,0 -0.19,-0.19 0,-0.12 0.09,-0.12 0.25,-0.12 0.56,0 0.57,-0.09 0.6,-0.33 l 0.79,-6.14 c 0.03,-0.2 0.06,-0.23 0.19,-0.23 0.16,0 0.2,0.05 0.28,0.18 z"
   id="path17298" />
<path
   style="fill:#000000;stroke-width:0"
   inkscape:connector-curvature="0"
   d="m 407.12,710.43 0,0 0,0.01 0,0 0,0 0,0.01 0,0 0,0 0,0.01 0,0 0,0.01 0,0 -0.01,0 0,0.01 0,0 0,0 -0.01,0.01 0,0 0,0 0,0.01 -0.01,0 0,0 0,0.01 -0.01,0 0,0 -0.01,0 0,0 -0.01,0.01 0,0 -0.01,0 0,0 0,0 0,0 -0.01,0 0,0 0,0 -0.01,0 c -0.05,0 -0.06,-0.01 -0.12,-0.08 l -0.51,-0.54 c -0.06,0.08 -0.45,0.62 -1.31,0.62 -1.69,0 -3.35,-1.5 -3.35,-3.07 0,-1.13 0.89,-1.96 2.14,-1.96 0.38,0 1.04,0.08 1.76,0.68 0.55,0.47 0.7,1.07 0.7,1.13 0,0.09 -0.08,0.09 -0.11,0.09 -0.09,0 -0.11,-0.04 -0.13,-0.11 -0.28,-0.95 -1.26,-1.54 -2.1,-1.54 -0.74,0 -1.56,0.4 -1.56,1.5 0,0.2 0.05,1.3 0.85,2.17 0.48,0.54 1.21,0.86 1.87,0.86 0.81,0 1.28,-0.59 1.28,-1.36 0,-0.2 -0.02,-0.25 -0.02,-0.29 0,-0.09 0.09,-0.09 0.13,-0.09 0.11,0 0.11,0.02 0.14,0.15 z"
   id="path17300" />
<path
   style="fill:#000000;stroke-width:0"
   inkscape:connector-curvature="0"
   d="m 412.97,707.24 0,0 0,0.01 0.01,0 0,0 0,0.01 0,0 0,0 0,0.01 0.01,0 0,0.01 0,0 0,0.01 0.01,0 0,0.01 0,0 0,0.01 0,0 0,0.01 0.01,0 0,0.01 0,0 0,0 0,0.01 0,0 0,0 0,0.01 0,0 0,0 0,0 0,0 0,0.01 0,0 0,0 0,0 0,0 0,0 0,0 c 0,0.04 -0.03,0.1 -0.12,0.1 -0.01,0 -0.04,0 -0.07,-0.03 -0.02,-0.01 -0.02,-0.02 -0.11,-0.2 -0.45,-1 -0.8,-1.35 -1.94,-1.35 h -1.18 c -0.22,0 -0.23,0.01 -0.23,0.07 0,0.01 0,0.04 0.03,0.15 l 0.47,1.86 h 0.78 c 0.55,0 0.63,-0.09 0.63,-0.32 0,-0.08 -0.02,-0.19 -0.05,-0.31 -0.02,-0.06 -0.02,-0.07 -0.02,-0.09 0,-0.01 0.01,-0.09 0.12,-0.09 0.1,0 0.1,0.03 0.13,0.15 l 0.39,1.52 c 0.02,0.09 0.02,0.1 0.02,0.11 0,0.07 -0.06,0.09 -0.12,0.09 -0.09,0 -0.1,-0.03 -0.14,-0.18 -0.15,-0.54 -0.36,-0.63 -0.95,-0.63 h -0.73 l 0.42,1.66 c 0.05,0.21 0.06,0.23 0.35,0.23 h 1.14 c 0.91,0 1.14,-0.19 1.14,-0.81 0,-0.18 -0.03,-0.38 -0.03,-0.42 0,-0.05 0.02,-0.12 0.12,-0.12 0.11,0 0.11,0.07 0.13,0.18 l 0.12,1.21 c 0.02,0.21 -0.02,0.21 -0.2,0.21 h -3.83 c -0.14,0 -0.22,0 -0.22,-0.15 0,-0.1 0.07,-0.1 0.23,-0.1 0.11,0 0.14,0 0.26,-0.01 0.14,-0.02 0.15,-0.03 0.15,-0.1 0,-0.05 -0.02,-0.12 -0.02,-0.15 l -0.91,-3.64 c -0.07,-0.27 -0.08,-0.32 -0.63,-0.32 -0.12,0 -0.2,0 -0.2,-0.15 0,-0.1 0.08,-0.1 0.2,-0.1 h 3.94 c 0.17,0 0.18,0 0.24,0.13 z"
   id="path17302" />
<path
   style="fill:#000000;stroke-width:0"
   inkscape:connector-curvature="0"
   d="m 417.07,709.61 0,0.08 0,0.07 -0.01,0.08 0,0.08 -0.01,0.17 -0.01,0.18 -0.02,0.18 -0.02,0.19 -0.02,0.2 -0.04,0.19 -0.04,0.21 -0.04,0.21 -0.06,0.21 -0.06,0.21 -0.07,0.21 -0.08,0.21 -0.04,0.11 -0.04,0.11 -0.05,0.1 -0.05,0.11 c -0.6,1.22 -1.46,1.87 -1.56,1.87 -0.06,0 -0.1,-0.04 -0.1,-0.1 0,-0.03 0,-0.05 0.19,-0.23 0.98,-0.98 1.55,-2.57 1.55,-4.65 0,-1.7 -0.37,-3.45 -1.61,-4.7 -0.13,-0.12 -0.13,-0.14 -0.13,-0.17 0,-0.06 0.04,-0.1 0.1,-0.1 0.1,0 1,0.67 1.59,1.94 0.51,1.09 0.63,2.2 0.63,3.03 z"
   id="path17304" />
</g>    <g
       style="font-style:normal;font-variant:normal;font-weight:normal;font-stretch:normal;letter-spacing:normal;word-spacing:normal;text-anchor:start;fill:none;stroke:#000000;stroke-linecap:butt;stroke-linejoin:miter;stroke-miterlimit:10.43299961;stroke-opacity:1;stroke-dasharray:none;stroke-dashoffset:0"
       ns0:preamble=""
       ns0:text="$$L_{SE_1}$$\n\n\n\n\n"
       word-spacing="normal"
       letter-spacing="normal"
       font-size-adjust="none"
       font-stretch="normal"
       font-weight="normal"
       font-variant="normal"
       font-style="normal"
       stroke-miterlimit="10.433"
       xml:space="preserve"
       transform="matrix(2.9025315,0,0,-2.9025315,-909.62693,2978.2722)"
       id="g17687">
<path
   id="path17689"
   d="m 387.87,713.15 0.01,0.03 0.01,0.03 0.01,0.03 0,0.03 0.01,0.03 0.01,0.02 0.01,0.03 0.01,0.02 0.01,0.02 0.02,0.02 0.01,0.02 0.02,0.02 0.02,0.02 0.02,0.02 0.02,0.01 0.02,0.01 0.03,0.02 0.03,0.01 0.03,0.01 0.04,0.01 0.01,0.01 0.02,0 0.02,0 0.03,0.01 0.02,0 0.02,0.01 0.03,0 0.02,0 0.03,0 0.02,0.01 0.03,0 0.03,0 0.03,0 0.03,0.01 0.03,0 0.04,0 0.03,0 0.04,0 0.03,0 0.04,0 0.04,0 0.04,0 0.04,0 0.05,0 c 0.3,0 0.38,0 0.38,0.19 0,0.12 -0.11,0.12 -0.16,0.12 -0.33,0 -1.15,-0.03 -1.48,-0.03 -0.3,0 -1.03,0.03 -1.32,0.03 -0.07,0 -0.19,0 -0.19,-0.2 0,-0.11 0.09,-0.11 0.28,-0.11 0.02,0 0.2,0 0.38,-0.02 0.17,-0.02 0.26,-0.03 0.26,-0.16 0,-0.03 -0.01,-0.07 -0.04,-0.18 l -1.33,-5.35 c -0.1,-0.39 -0.12,-0.47 -0.91,-0.47 -0.17,0 -0.27,0 -0.27,-0.2 0,-0.1 0.09,-0.1 0.27,-0.1 h 4.62 c 0.24,0 0.25,0 0.31,0.16 l 0.78,2.15 c 0.04,0.11 0.04,0.13 0.04,0.14 0,0.04 -0.03,0.11 -0.12,0.11 -0.09,0 -0.1,-0.05 -0.17,-0.21 -0.34,-0.91 -0.77,-2.05 -2.5,-2.05 h -0.94 c -0.14,0 -0.15,0 -0.21,0.01 -0.1,0.01 -0.13,0.02 -0.13,0.1 0,0.03 0,0.05 0.04,0.23 z"
   inkscape:connector-curvature="0"
   style="fill:#000000;stroke-width:0" />
<path
   id="path17691"
   d="m 395.87,710.43 0,0 0,0.01 0,0 0,0 0,0.01 0,0 -0.01,0 0,0.01 0,0 0,0.01 0,0 0,0 0,0.01 -0.01,0 0,0 0,0.01 0,0 -0.01,0 0,0.01 0,0 -0.01,0 0,0.01 0,0 -0.01,0 0,0 -0.01,0 0,0.01 -0.01,0 0,0 0,0 -0.01,0 0,0 0,0 -0.01,0 0,0 0,0 c -0.05,0 -0.05,-0.01 -0.14,-0.1 l -0.34,-0.39 c -0.27,0.36 -0.71,0.49 -1.13,0.49 -0.98,0 -1.85,-0.79 -1.85,-1.59 0,-0.11 0.02,-0.39 0.23,-0.64 0.23,-0.28 0.49,-0.34 0.96,-0.45 0.14,-0.04 0.49,-0.12 0.6,-0.14 0.22,-0.06 0.64,-0.21 0.64,-0.73 0,-0.57 -0.59,-1.23 -1.38,-1.23 -0.61,0 -1.35,0.22 -1.35,0.99 0,0.07 0.01,0.22 0.04,0.35 0.01,0.02 0.01,0.03 0.01,0.04 0,0.09 -0.09,0.09 -0.12,0.09 -0.09,0 -0.1,-0.01 -0.13,-0.14 l -0.35,-1.39 c -0.01,-0.03 -0.02,-0.07 -0.02,-0.1 0,-0.05 0.02,-0.09 0.09,-0.09 0.04,0 0.05,0.01 0.14,0.1 0.08,0.08 0.26,0.31 0.34,0.39 0.37,-0.4 0.91,-0.49 1.33,-0.49 1.05,0 1.9,0.91 1.9,1.73 0,0.3 -0.13,0.58 -0.28,0.74 -0.24,0.25 -0.35,0.28 -1.25,0.49 -0.14,0.03 -0.37,0.09 -0.44,0.11 -0.17,0.06 -0.46,0.23 -0.46,0.63 0,0.55 0.62,1.11 1.34,1.11 0.75,0 1.12,-0.43 1.12,-1.09 0,-0.09 -0.03,-0.25 -0.03,-0.31 0,-0.1 0.08,-0.1 0.12,-0.1 0.1,0 0.11,0.04 0.14,0.16 z"
   inkscape:connector-curvature="0"
   style="fill:#000000;stroke-width:0" />
<path
   id="path17693"
   d="m 401.71,707.24 0.01,0 0,0.01 0,0 0,0 0,0.01 0.01,0 0,0 0,0.01 0,0 0,0.01 0,0 0.01,0.01 0,0 0,0.01 0,0 0,0.01 0.01,0 0,0.01 0,0 0,0.01 0,0 0,0 0,0.01 0,0 0,0 0,0.01 0,0 0.01,0 0,0 0,0 0,0.01 0,0 0,0 0,0 0,0 0,0 0,0 c 0,0.04 -0.03,0.1 -0.12,0.1 -0.02,0 -0.05,0 -0.08,-0.03 -0.01,-0.01 -0.02,-0.02 -0.1,-0.2 -0.46,-1 -0.81,-1.35 -1.95,-1.35 h -1.18 c -0.22,0 -0.22,0.01 -0.22,0.07 0,0.01 0,0.04 0.03,0.15 l 0.46,1.86 h 0.78 c 0.55,0 0.64,-0.09 0.64,-0.32 0,-0.08 -0.03,-0.19 -0.05,-0.31 -0.02,-0.06 -0.02,-0.07 -0.02,-0.09 0,-0.01 0,-0.09 0.11,-0.09 0.1,0 0.11,0.03 0.14,0.15 l 0.38,1.52 c 0.02,0.09 0.02,0.1 0.02,0.11 0,0.07 -0.06,0.09 -0.12,0.09 -0.09,0 -0.1,-0.03 -0.14,-0.18 -0.14,-0.54 -0.35,-0.63 -0.95,-0.63 h -0.73 l 0.42,1.66 c 0.06,0.21 0.06,0.23 0.36,0.23 h 1.13 c 0.91,0 1.14,-0.19 1.14,-0.81 0,-0.18 -0.02,-0.38 -0.02,-0.42 0,-0.05 0.02,-0.12 0.11,-0.12 0.11,0 0.12,0.07 0.13,0.18 l 0.13,1.21 c 0.02,0.21 -0.03,0.21 -0.21,0.21 h -3.83 c -0.14,0 -0.22,0 -0.22,-0.15 0,-0.1 0.08,-0.1 0.23,-0.1 0.11,0 0.14,0 0.27,-0.01 0.13,-0.02 0.15,-0.03 0.15,-0.1 0,-0.05 -0.02,-0.12 -0.03,-0.15 l -0.91,-3.64 c -0.07,-0.27 -0.08,-0.32 -0.62,-0.32 -0.13,0 -0.21,0 -0.21,-0.15 0,-0.1 0.08,-0.1 0.21,-0.1 h 3.93 c 0.18,0 0.18,0 0.24,0.13 z"
   inkscape:connector-curvature="0"
   style="fill:#000000;stroke-width:0" />
<path
   id="path17695"
   d="m 404.03,707.79 0,0.01 0,0.01 0,0 0,0.01 0,0.01 0,0 0,0.01 0,0 -0.01,0.01 0,0 0,0.01 0,0 0,0.01 0,0 0,0.01 0,0 0,0 0,0.01 0,0 0,0 0,0.01 -0.01,0.01 0,0 0,0.01 -0.01,0 0,0 -0.01,0.01 0,0 -0.01,0 0,0 -0.01,0.01 -0.01,0 -0.01,0 0,0 -0.01,0 0,0 -0.01,0 0,0 -0.01,0 0,0 -0.01,0 0,0 -0.01,0 0,0 -0.01,0 -0.01,0 0,0 -0.01,0 -0.01,0 -0.01,0 0,0 c -0.36,-0.32 -0.91,-0.32 -1.01,-0.32 h -0.08 v -0.21 h 0.08 c 0.12,0 0.44,0.01 0.73,0.13 v -2.48 c 0,-0.15 0,-0.21 -0.53,-0.21 h -0.25 v -0.22 c 0.28,0.02 0.72,0.02 1.01,0.02 0.29,0 0.73,0 1,-0.02 v 0.22 h -0.25 c -0.52,0 -0.52,0.06 -0.52,0.21 z"
   inkscape:connector-curvature="0"
   style="fill:#000000;stroke-width:0" />
</g>    <g
       id="g18073"
       transform="matrix(2.9025315,0,0,-2.9025315,-911.20791,3043.7256)"
       xml:space="preserve"
       stroke-miterlimit="10.433"
       font-style="normal"
       font-variant="normal"
       font-weight="normal"
       font-stretch="normal"
       font-size-adjust="none"
       letter-spacing="normal"
       word-spacing="normal"
       ns0:text="$$L_{SE_2}$$\n\n\n\n\n\n"
       ns0:preamble=""
       style="font-style:normal;font-variant:normal;font-weight:normal;font-stretch:normal;letter-spacing:normal;word-spacing:normal;text-anchor:start;fill:none;stroke:#000000;stroke-linecap:butt;stroke-linejoin:miter;stroke-miterlimit:10.43299961;stroke-opacity:1;stroke-dasharray:none;stroke-dashoffset:0">
<path
   style="fill:#000000;stroke-width:0"
   inkscape:connector-curvature="0"
   d="m 387.87,713.15 0.01,0.03 0.01,0.03 0.01,0.03 0,0.03 0.01,0.03 0.01,0.02 0.01,0.03 0.01,0.02 0.01,0.02 0.02,0.02 0.01,0.02 0.02,0.02 0.02,0.02 0.02,0.02 0.02,0.01 0.02,0.01 0.03,0.02 0.03,0.01 0.03,0.01 0.04,0.01 0.01,0.01 0.02,0 0.02,0 0.03,0.01 0.02,0 0.02,0.01 0.03,0 0.02,0 0.03,0 0.02,0.01 0.03,0 0.03,0 0.03,0 0.03,0.01 0.03,0 0.04,0 0.03,0 0.04,0 0.03,0 0.04,0 0.04,0 0.04,0 0.04,0 0.05,0 c 0.3,0 0.38,0 0.38,0.19 0,0.12 -0.11,0.12 -0.16,0.12 -0.33,0 -1.15,-0.03 -1.48,-0.03 -0.3,0 -1.03,0.03 -1.32,0.03 -0.07,0 -0.19,0 -0.19,-0.2 0,-0.11 0.09,-0.11 0.28,-0.11 0.02,0 0.2,0 0.38,-0.02 0.17,-0.02 0.26,-0.03 0.26,-0.16 0,-0.03 -0.01,-0.07 -0.04,-0.18 l -1.33,-5.35 c -0.1,-0.39 -0.12,-0.47 -0.91,-0.47 -0.17,0 -0.27,0 -0.27,-0.2 0,-0.1 0.09,-0.1 0.27,-0.1 h 4.62 c 0.24,0 0.25,0 0.31,0.16 l 0.78,2.15 c 0.04,0.11 0.04,0.13 0.04,0.14 0,0.04 -0.03,0.11 -0.12,0.11 -0.09,0 -0.1,-0.05 -0.17,-0.21 -0.34,-0.91 -0.77,-2.05 -2.5,-2.05 h -0.94 c -0.14,0 -0.15,0 -0.21,0.01 -0.1,0.01 -0.13,0.02 -0.13,0.1 0,0.03 0,0.05 0.04,0.23 z"
   id="path18075" />
<path
   style="fill:#000000;stroke-width:0"
   inkscape:connector-curvature="0"
   d="m 395.87,710.43 0,0 0,0.01 0,0 0,0 0,0.01 0,0 -0.01,0 0,0.01 0,0 0,0.01 0,0 0,0 0,0.01 -0.01,0 0,0 0,0.01 0,0 -0.01,0 0,0.01 0,0 -0.01,0 0,0.01 0,0 -0.01,0 0,0 -0.01,0 0,0.01 -0.01,0 0,0 0,0 -0.01,0 0,0 0,0 -0.01,0 0,0 0,0 c -0.05,0 -0.05,-0.01 -0.14,-0.1 l -0.34,-0.39 c -0.27,0.36 -0.71,0.49 -1.13,0.49 -0.98,0 -1.85,-0.79 -1.85,-1.59 0,-0.11 0.02,-0.39 0.23,-0.64 0.23,-0.28 0.49,-0.34 0.96,-0.45 0.14,-0.04 0.49,-0.12 0.6,-0.14 0.22,-0.06 0.64,-0.21 0.64,-0.73 0,-0.57 -0.59,-1.23 -1.38,-1.23 -0.61,0 -1.35,0.22 -1.35,0.99 0,0.07 0.01,0.22 0.04,0.35 0.01,0.02 0.01,0.03 0.01,0.04 0,0.09 -0.09,0.09 -0.12,0.09 -0.09,0 -0.1,-0.01 -0.13,-0.14 l -0.35,-1.39 c -0.01,-0.03 -0.02,-0.07 -0.02,-0.1 0,-0.05 0.02,-0.09 0.09,-0.09 0.04,0 0.05,0.01 0.14,0.1 0.08,0.08 0.26,0.31 0.34,0.39 0.37,-0.4 0.91,-0.49 1.33,-0.49 1.05,0 1.9,0.91 1.9,1.73 0,0.3 -0.13,0.58 -0.28,0.74 -0.24,0.25 -0.35,0.28 -1.25,0.49 -0.14,0.03 -0.37,0.09 -0.44,0.11 -0.17,0.06 -0.46,0.23 -0.46,0.63 0,0.55 0.62,1.11 1.34,1.11 0.75,0 1.12,-0.43 1.12,-1.09 0,-0.09 -0.03,-0.25 -0.03,-0.31 0,-0.1 0.08,-0.1 0.12,-0.1 0.1,0 0.11,0.04 0.14,0.16 z"
   id="path18077" />
<path
   style="fill:#000000;stroke-width:0"
   inkscape:connector-curvature="0"
   d="m 401.71,707.24 0.01,0 0,0.01 0,0 0,0 0,0.01 0.01,0 0,0 0,0.01 0,0 0,0.01 0,0 0.01,0.01 0,0 0,0.01 0,0 0,0.01 0.01,0 0,0.01 0,0 0,0.01 0,0 0,0 0,0.01 0,0 0,0 0,0.01 0,0 0.01,0 0,0 0,0 0,0.01 0,0 0,0 0,0 0,0 0,0 0,0 c 0,0.04 -0.03,0.1 -0.12,0.1 -0.02,0 -0.05,0 -0.08,-0.03 -0.01,-0.01 -0.02,-0.02 -0.1,-0.2 -0.46,-1 -0.81,-1.35 -1.95,-1.35 h -1.18 c -0.22,0 -0.22,0.01 -0.22,0.07 0,0.01 0,0.04 0.03,0.15 l 0.46,1.86 h 0.78 c 0.55,0 0.64,-0.09 0.64,-0.32 0,-0.08 -0.03,-0.19 -0.05,-0.31 -0.02,-0.06 -0.02,-0.07 -0.02,-0.09 0,-0.01 0,-0.09 0.11,-0.09 0.1,0 0.11,0.03 0.14,0.15 l 0.38,1.52 c 0.02,0.09 0.02,0.1 0.02,0.11 0,0.07 -0.06,0.09 -0.12,0.09 -0.09,0 -0.1,-0.03 -0.14,-0.18 -0.14,-0.54 -0.35,-0.63 -0.95,-0.63 h -0.73 l 0.42,1.66 c 0.06,0.21 0.06,0.23 0.36,0.23 h 1.13 c 0.91,0 1.14,-0.19 1.14,-0.81 0,-0.18 -0.02,-0.38 -0.02,-0.42 0,-0.05 0.02,-0.12 0.11,-0.12 0.11,0 0.12,0.07 0.13,0.18 l 0.13,1.21 c 0.02,0.21 -0.03,0.21 -0.21,0.21 h -3.83 c -0.14,0 -0.22,0 -0.22,-0.15 0,-0.1 0.08,-0.1 0.23,-0.1 0.11,0 0.14,0 0.27,-0.01 0.13,-0.02 0.15,-0.03 0.15,-0.1 0,-0.05 -0.02,-0.12 -0.03,-0.15 l -0.91,-3.64 c -0.07,-0.27 -0.08,-0.32 -0.62,-0.32 -0.13,0 -0.21,0 -0.21,-0.15 0,-0.1 0.08,-0.1 0.21,-0.1 h 3.93 c 0.18,0 0.18,0 0.24,0.13 z"
   id="path18079" />
<path
   style="fill:#000000;stroke-width:0"
   inkscape:connector-curvature="0"
   d="m 404.98,705.59 h -0.21 c -0.02,-0.09 -0.07,-0.4 -0.15,-0.45 -0.04,-0.03 -0.45,-0.03 -0.53,-0.03 h -0.97 c 0.32,0.24 0.69,0.52 0.99,0.72 0.45,0.31 0.87,0.6 0.87,1.12 0,0.64 -0.61,0.99 -1.32,0.99 -0.67,0 -1.16,-0.39 -1.16,-0.87 0,-0.26 0.22,-0.3 0.29,-0.3 0.13,0 0.29,0.08 0.29,0.29 0,0.18 -0.13,0.28 -0.28,0.29 0.14,0.22 0.43,0.37 0.76,0.37 0.48,0 0.88,-0.29 0.88,-0.77 0,-0.42 -0.29,-0.74 -0.67,-1.06 l -1.21,-1.03 c -0.05,-0.04 -0.06,-0.04 -0.06,-0.08 v -0.15 h 2.31 z"
   id="path18081" />
</g>    <text
       sodipodi:linespacing="125%"
       id="text18260"
       y="699.5976"
       x="61.418945"
       style="font-size:16.60713768px;font-style:normal;font-weight:normal;line-height:125%;letter-spacing:0px;word-spacing:0px;fill:#000000;fill-opacity:1;stroke:none;font-family:Sans"
       xml:space="preserve"
       transform="scale(1.0341763,0.96695312)"><tspan
         y="699.5976"
         x="61.418945"
         id="tspan18262"
         sodipodi:role="line">IGBT modul</tspan></text>
    <text
       sodipodi:linespacing="125%"
       id="text18260-2"
       y="873.6662"
       x="205.46643"
       style="font-size:23.71198463px;font-style:normal;font-weight:normal;line-height:125%;letter-spacing:0px;word-spacing:0px;fill:#000000;fill-opacity:1;stroke:none;font-family:Sans"
       xml:space="preserve"
       transform="scale(1.0341763,0.96695312)"><tspan
         y="873.6662"
         x="205.46643"
         id="tspan18262-4"
         sodipodi:role="line">IGBT</tspan></text>
    <g
       style="font-style:normal;font-variant:normal;font-weight:normal;font-stretch:normal;letter-spacing:normal;word-spacing:normal;text-anchor:start;fill:none;stroke:#000000;stroke-linecap:butt;stroke-linejoin:miter;stroke-miterlimit:10.43299961;stroke-opacity:1;stroke-dasharray:none;stroke-dashoffset:0"
       ns0:preamble=""
       ns0:text="$$v_{CE}$$\n\n\n\n"
       word-spacing="normal"
       letter-spacing="normal"
       font-size-adjust="none"
       font-stretch="normal"
       font-weight="normal"
       font-variant="normal"
       font-style="normal"
       stroke-miterlimit="10.433"
       xml:space="preserve"
       transform="matrix(2.9025315,0,0,-2.9025315,-823.75029,3057.9563)"
       id="g18495">
<path
   id="path18497"
   d="m 391.07,710.83 0,0.02 0,0.03 0,0.02 0,0.02 0,0.03 0,0.02 -0.01,0.02 0,0.02 -0.01,0.04 0,0.04 -0.01,0.04 -0.01,0.03 -0.01,0.04 -0.01,0.03 -0.02,0.03 -0.01,0.02 -0.01,0.03 -0.02,0.02 -0.01,0.03 -0.02,0.02 -0.02,0.02 -0.01,0.01 -0.02,0.02 -0.02,0.02 -0.02,0.01 -0.02,0.01 -0.01,0.01 -0.02,0.01 -0.02,0.01 -0.02,0.01 -0.02,0 -0.02,0.01 -0.01,0 -0.02,0 -0.02,0 -0.02,0 c -0.25,0 -0.49,-0.25 -0.49,-0.47 0,-0.13 0.06,-0.19 0.16,-0.3 0.21,-0.2 0.34,-0.46 0.34,-0.82 0,-0.42 -0.6,-2.7 -1.77,-2.7 -0.51,0 -0.74,0.35 -0.74,0.87 0,0.56 0.27,1.28 0.58,2.11 0.07,0.17 0.12,0.31 0.12,0.5 0,0.45 -0.32,0.81 -0.82,0.81 -0.93,0 -1.31,-1.44 -1.31,-1.53 0,-0.1 0.1,-0.1 0.12,-0.1 0.1,0 0.1,0.02 0.16,0.18 0.28,1.01 0.71,1.23 1,1.23 0.08,0 0.25,0 0.25,-0.31 0,-0.25 -0.1,-0.52 -0.17,-0.7 -0.44,-1.15 -0.57,-1.61 -0.57,-2.04 0,-1.08 0.88,-1.23 1.34,-1.23 1.67,0 2.24,3.29 2.24,3.81 z"
   inkscape:connector-curvature="0"
   style="fill:#000000;stroke-width:0" />
<path
   id="path18499"
   d="m 397.11,710.43 0,0 0,0.01 0,0 0,0 0,0.01 -0.01,0 0,0 0,0.01 0,0 0,0.01 0,0 0,0 -0.01,0.01 0,0 0,0 0,0.01 0,0 -0.01,0 0,0.01 0,0 -0.01,0 0,0.01 -0.01,0 0,0 0,0 -0.01,0 0,0.01 -0.01,0 0,0 0,0 -0.01,0 0,0 0,0 -0.01,0 0,0 0,0 c -0.05,0 -0.07,-0.01 -0.13,-0.08 l -0.51,-0.54 c -0.06,0.08 -0.45,0.62 -1.31,0.62 -1.69,0 -3.35,-1.5 -3.35,-3.07 0,-1.13 0.89,-1.96 2.14,-1.96 0.38,0 1.05,0.08 1.76,0.68 0.55,0.47 0.71,1.07 0.71,1.13 0,0.09 -0.09,0.09 -0.12,0.09 -0.09,0 -0.11,-0.04 -0.13,-0.11 -0.28,-0.95 -1.26,-1.54 -2.1,-1.54 -0.74,0 -1.56,0.4 -1.56,1.5 0,0.2 0.05,1.3 0.85,2.17 0.48,0.54 1.21,0.86 1.87,0.86 0.81,0 1.28,-0.59 1.28,-1.36 0,-0.2 -0.02,-0.25 -0.02,-0.29 0,-0.09 0.09,-0.09 0.13,-0.09 0.11,0 0.11,0.02 0.14,0.15 z"
   inkscape:connector-curvature="0"
   style="fill:#000000;stroke-width:0" />
<path
   id="path18501"
   d="m 402.95,707.24 0.01,0 0,0.01 0,0 0,0 0,0.01 0,0 0.01,0 0,0.01 0,0 0,0.01 0,0 0.01,0.01 0,0 0,0.01 0,0 0,0.01 0.01,0 0,0.01 0,0 0,0.01 0,0 0,0 0,0.01 0,0 0,0 0,0.01 0,0 0.01,0 0,0 0,0 0,0.01 0,0 0,0 0,0 0,0 0,0 0,0 c 0,0.04 -0.03,0.1 -0.12,0.1 -0.02,0 -0.05,0 -0.08,-0.03 -0.01,-0.01 -0.02,-0.02 -0.1,-0.2 -0.46,-1 -0.81,-1.35 -1.95,-1.35 h -1.18 c -0.22,0 -0.22,0.01 -0.22,0.07 0,0.01 0,0.04 0.03,0.15 l 0.46,1.86 h 0.78 c 0.55,0 0.64,-0.09 0.64,-0.32 0,-0.08 -0.03,-0.19 -0.05,-0.31 -0.03,-0.06 -0.03,-0.07 -0.03,-0.09 0,-0.01 0.01,-0.09 0.12,-0.09 0.1,0 0.11,0.03 0.14,0.15 l 0.38,1.52 c 0.02,0.09 0.02,0.1 0.02,0.11 0,0.07 -0.06,0.09 -0.12,0.09 -0.09,0 -0.1,-0.03 -0.14,-0.18 -0.14,-0.54 -0.35,-0.63 -0.94,-0.63 h -0.74 l 0.42,1.66 c 0.06,0.21 0.06,0.23 0.36,0.23 h 1.13 c 0.91,0 1.14,-0.19 1.14,-0.81 0,-0.18 -0.02,-0.38 -0.02,-0.42 0,-0.05 0.02,-0.12 0.12,-0.12 0.1,0 0.11,0.07 0.12,0.18 l 0.13,1.21 c 0.02,0.21 -0.03,0.21 -0.21,0.21 h -3.83 c -0.14,0 -0.22,0 -0.22,-0.15 0,-0.1 0.08,-0.1 0.23,-0.1 0.11,0 0.14,0 0.27,-0.01 0.13,-0.02 0.15,-0.03 0.15,-0.1 0,-0.05 -0.02,-0.12 -0.03,-0.15 l -0.91,-3.64 c -0.07,-0.27 -0.08,-0.32 -0.62,-0.32 -0.13,0 -0.21,0 -0.21,-0.15 0,-0.1 0.08,-0.1 0.21,-0.1 h 3.93 c 0.18,0 0.18,0 0.24,0.13 z"
   inkscape:connector-curvature="0"
   style="fill:#000000;stroke-width:0" />
</g>    <g
       style="font-style:normal;font-variant:normal;font-weight:normal;font-stretch:normal;letter-spacing:normal;word-spacing:normal;text-anchor:start;fill:none;stroke:#000000;stroke-linecap:butt;stroke-linejoin:miter;stroke-miterlimit:10.43299961;stroke-opacity:1;stroke-dasharray:none;stroke-dashoffset:0"
       ns0:preamble=""
       ns0:text="$$C_{gs}$$\n\n\n\n\n\n"
       word-spacing="normal"
       letter-spacing="normal"
       font-size-adjust="none"
       font-stretch="normal"
       font-weight="normal"
       font-variant="normal"
       font-style="normal"
       stroke-miterlimit="10.433"
       xml:space="preserve"
       transform="matrix(2.9025315,0,0,-2.9025315,-979.57126,2887.6278)"
       id="g19319">
<path
   id="path19321"
   d="m 395.11,714.04 0,0 0,0.01 0,0 -0.01,0 0,0.01 0,0 0,0.01 0,0 0,0 0,0.01 0,0 -0.01,0.01 0,0 0,0 0,0.01 -0.01,0 0,0.01 0,0 -0.01,0 0,0.01 0,0 -0.01,0 0,0.01 -0.01,0 0,0 -0.01,0 0,0 0,0.01 -0.01,0 0,0 0,0 -0.01,0 0,0 0,0 -0.01,0 0,0 -0.01,0 0,0 0,0 c -0.03,0 -0.04,-0.01 -0.15,-0.12 l -0.7,-0.76 c -0.09,0.14 -0.55,0.88 -1.66,0.88 -2.22,0 -4.46,-2.2 -4.46,-4.51 0,-1.64 1.17,-2.72 2.7,-2.72 0.87,0 1.63,0.39 2.15,0.85 0.93,0.82 1.1,1.72 1.1,1.75 0,0.1 -0.1,0.1 -0.12,0.1 -0.06,0 -0.11,-0.02 -0.13,-0.1 -0.09,-0.29 -0.32,-0.99 -1.01,-1.57 -0.68,-0.56 -1.31,-0.72 -1.83,-0.72 -0.9,0 -1.95,0.51 -1.95,2.06 0,0.57 0.2,2.18 1.2,3.35 0.61,0.71 1.55,1.2 2.43,1.2 1.02,0 1.61,-0.76 1.61,-1.92 0,-0.4 -0.03,-0.41 -0.03,-0.5 0,-0.11 0.11,-0.11 0.15,-0.11 0.13,0 0.13,0.03 0.18,0.2 z"
   inkscape:connector-curvature="0"
   style="fill:#000000;stroke-width:0" />
<path
   id="path19323"
   d="m 398.36,708.2 0,0.01 0,0.01 0,0 0,0.01 0.01,0.01 0,0.01 0,0.01 0,0 0,0.01 0,0.01 0.01,0 0,0.01 0,0 0,0.01 0,0 0,0.01 0,0 0,0 0,0.01 0,0 0,0 0,0.01 0,0 0,0 0,0 0,0.01 0,0 0,0 0,0 0,0 0,0 0,0 c 0,0.16 -0.12,0.23 -0.23,0.23 -0.16,0 -0.3,-0.14 -0.32,-0.27 -0.12,0.19 -0.36,0.4 -0.72,0.4 v -0.2 c 0.49,0 0.62,-0.52 0.62,-0.59 0,-0.01 0,-0.03 -0.02,-0.1 l -0.32,-1.25 c -0.02,-0.11 -0.02,-0.12 -0.14,-0.26 -0.25,-0.29 -0.58,-0.47 -0.85,-0.47 -0.35,0 -0.52,0.3 -0.52,0.66 0,0.3 0.19,1.08 0.37,1.39 0.29,0.48 0.62,0.62 0.86,0.62 v 0.2 c -0.87,0 -1.78,-0.93 -1.78,-1.93 0,-0.72 0.48,-1.14 1.05,-1.14 0.32,0 0.63,0.16 0.88,0.38 l -0.16,-0.63 c -0.08,-0.29 -0.12,-0.48 -0.39,-0.72 -0.31,-0.25 -0.6,-0.25 -0.78,-0.25 -0.32,0 -0.41,0.02 -0.54,0.05 0.18,0.08 0.23,0.25 0.23,0.34 0,0.17 -0.13,0.26 -0.27,0.26 -0.2,0 -0.4,-0.16 -0.4,-0.42 0,-0.42 0.6,-0.43 0.99,-0.43 1.09,0 1.56,0.56 1.66,0.95 z"
   inkscape:connector-curvature="0"
   style="fill:#000000;stroke-width:0" />
<path
   id="path19325"
   d="m 401.79,708.24 -0.02,0 -0.01,0 -0.02,-0.01 -0.02,-0.01 -0.01,0 -0.02,-0.01 -0.01,-0.01 -0.01,0 -0.02,-0.01 -0.01,-0.01 -0.01,-0.01 -0.01,-0.01 -0.01,-0.01 -0.01,-0.01 -0.02,-0.01 0,-0.01 -0.01,-0.01 -0.01,-0.01 -0.01,-0.02 -0.01,-0.01 -0.01,-0.01 0,-0.01 -0.01,-0.01 0,-0.02 -0.01,-0.01 0,-0.01 -0.01,-0.02 0,-0.01 0,-0.01 0,-0.01 0,-0.02 0,-0.01 c 0,-0.16 0.14,-0.22 0.23,-0.22 0.07,0 0.33,0.04 0.33,0.39 0,0.45 -0.5,0.61 -0.92,0.61 -1.09,0 -1.29,-0.8 -1.29,-1.02 0,-0.26 0.15,-0.42 0.25,-0.51 0.18,-0.13 0.3,-0.16 0.78,-0.25 0.15,-0.02 0.6,-0.11 0.6,-0.45 0,-0.12 -0.08,-0.39 -0.37,-0.56 -0.28,-0.15 -0.62,-0.15 -0.7,-0.15 -0.28,0 -0.68,0.06 -0.83,0.29 0.22,0.03 0.38,0.2 0.38,0.39 0,0.18 -0.13,0.26 -0.27,0.26 -0.21,0 -0.41,-0.16 -0.41,-0.46 0,-0.42 0.45,-0.68 1.12,-0.68 1.28,0 1.52,0.88 1.52,1.15 0,0.64 -0.7,0.76 -0.96,0.81 -0.06,0.02 -0.24,0.04 -0.28,0.06 -0.26,0.05 -0.38,0.19 -0.38,0.35 0,0.16 0.12,0.34 0.28,0.44 0.19,0.12 0.43,0.13 0.55,0.13 0.14,0 0.51,-0.02 0.66,-0.26 z"
   inkscape:connector-curvature="0"
   style="fill:#000000;stroke-width:0" />
</g>  </g>
</svg>
