<?xml version="1.0" encoding="UTF-8" standalone="no"?>
<!-- Created with Inkscape (http://www.inkscape.org/) -->

<svg
   xmlns:dc="http://purl.org/dc/elements/1.1/"
   xmlns:cc="http://creativecommons.org/ns#"
   xmlns:rdf="http://www.w3.org/1999/02/22-rdf-syntax-ns#"
   xmlns:svg="http://www.w3.org/2000/svg"
   xmlns="http://www.w3.org/2000/svg"
   xmlns:sodipodi="http://sodipodi.sourceforge.net/DTD/sodipodi-0.dtd"
   xmlns:inkscape="http://www.inkscape.org/namespaces/inkscape"
   id="svg4136"
   version="1.1"
   inkscape:version="0.91pre2 r13516"
   xml:space="preserve"
   width="730"
   height="530"
   viewBox="0 0 730 530"
   sodipodi:docname="ltc001_RC.svg"><metadata
     id="metadata4142"><rdf:RDF><cc:Work
         rdf:about=""><dc:format>image/svg+xml</dc:format><dc:type
           rdf:resource="http://purl.org/dc/dcmitype/StillImage" /><dc:title></dc:title></cc:Work></rdf:RDF></metadata><defs
     id="defs4140"><clipPath
       clipPathUnits="userSpaceOnUse"
       id="clipPath4288"><path
         d="m 154.079,0 287.04,0 0,12.96 -287.04,0 0,-12.96 z"
         id="path4290"
         inkscape:connector-curvature="0" /></clipPath></defs><sodipodi:namedview
     pagecolor="#ffffff"
     bordercolor="#666666"
     borderopacity="1"
     objecttolerance="10"
     gridtolerance="10"
     guidetolerance="10"
     inkscape:pageopacity="0"
     inkscape:pageshadow="2"
     inkscape:window-width="1842"
     inkscape:window-height="1171"
     id="namedview4138"
     showgrid="false"
     inkscape:zoom="0.9293055"
     inkscape:cx="352.09266"
     inkscape:cy="436.1084"
     inkscape:window-x="69"
     inkscape:window-y="-9"
     inkscape:window-maximized="1"
     inkscape:current-layer="g4144" /><g
     id="g4144"
     inkscape:groupmode="layer"
     inkscape:label="Draft2"
     transform="matrix(1.25,0,0,-1.25,0,529.99999)"
     style="display:inline"><g
       id="g4146"
       style="stroke-width:2.4;stroke-miterlimit:10;stroke-dasharray:none"><path
         d="m 38.407847,212.01053 22.32,0"
         style="fill:none;stroke:#00007f;stroke-width:2.4;stroke-linecap:butt;stroke-linejoin:miter;stroke-miterlimit:10;stroke-dasharray:none;stroke-opacity:1"
         id="path4148"
         inkscape:connector-curvature="0" /><path
         d="m 60.727847,211.77053 0.239,0 0,0.24 -0.239,0 0,-0.24 z"
         style="fill:#00007f;fill-opacity:1;fill-rule:nonzero;stroke:none;stroke-width:2.4;stroke-miterlimit:10;stroke-dasharray:none"
         id="path4150"
         inkscape:connector-curvature="0" /><path
         d="m 38.407847,156.33053 22.32,0"
         style="fill:none;stroke:#00007f;stroke-width:2.4;stroke-linecap:butt;stroke-linejoin:miter;stroke-miterlimit:10;stroke-dasharray:none;stroke-opacity:1"
         id="path4152"
         inkscape:connector-curvature="0" /><path
         d="m 60.727847,156.09053 0.239,0 0,0.24 -0.239,0 0,-0.24 z"
         style="fill:#00007f;fill-opacity:1;fill-rule:nonzero;stroke:none;stroke-width:2.4;stroke-miterlimit:10;stroke-dasharray:none"
         id="path4154"
         inkscape:connector-curvature="0" /><path
         d="m 49.447847,223.29053 0,-22.32"
         style="fill:none;stroke:#00007f;stroke-width:2.4;stroke-linecap:butt;stroke-linejoin:miter;stroke-miterlimit:10;stroke-dasharray:none;stroke-opacity:1"
         id="path4156"
         inkscape:connector-curvature="0" /><path
         d="m 49.447847,200.73053 0.24,0 0,0.24 -0.24,0 0,-0.24 z"
         style="fill:#00007f;fill-opacity:1;fill-rule:nonzero;stroke:none;stroke-width:2.4;stroke-miterlimit:10;stroke-dasharray:none"
         id="path4158"
         inkscape:connector-curvature="0" /><path
         d="m 49.447847,128.49053 0,11.04"
         style="fill:none;stroke:#00007f;stroke-width:2.4;stroke-linecap:butt;stroke-linejoin:miter;stroke-miterlimit:10;stroke-dasharray:none;stroke-opacity:1"
         id="path4160"
         inkscape:connector-curvature="0" /><path
         d="m 49.447847,139.29053 0.24,0 0,0.24 -0.24,0 0,-0.24 z"
         style="fill:#00007f;fill-opacity:1;fill-rule:nonzero;stroke:none;stroke-width:2.4;stroke-miterlimit:10;stroke-dasharray:none"
         id="path4162"
         inkscape:connector-curvature="0" /><path
         d="m 49.447847,239.85053 0,-11.039"
         style="fill:none;stroke:#00007f;stroke-width:2.4;stroke-linecap:butt;stroke-linejoin:miter;stroke-miterlimit:10;stroke-dasharray:none;stroke-opacity:1"
         id="path4164"
         inkscape:connector-curvature="0" /><path
         d="m 49.447847,228.57053 0.24,0 0,0.24 -0.24,0 0,-0.24 z"
         style="fill:#00007f;fill-opacity:1;fill-rule:nonzero;stroke:none;stroke-width:2.4;stroke-miterlimit:10;stroke-dasharray:none"
         id="path4166"
         inkscape:connector-curvature="0" /><g
         id="g4168"
         transform="translate(93.848847,184.29053)"
         style="stroke-width:2.4;stroke-miterlimit:10;stroke-dasharray:none"><path
           d="m 0,0 c 0,24.585 -19.875,44.52 -44.4,44.52 -24.524,0 -44.399,-19.935 -44.399,-44.52 0,-24.584 19.875,-44.519 44.399,-44.519 C -19.875,-44.519 0,-24.584 0,0 Z"
           style="fill:none;stroke:#00007f;stroke-width:2.4;stroke-linecap:butt;stroke-linejoin:miter;stroke-miterlimit:10;stroke-dasharray:none;stroke-opacity:1"
           id="path4170"
           inkscape:connector-curvature="0" /></g><path
         d="m 450.72785,167.37153 0,-38.881"
         style="fill:none;stroke:#00007f;stroke-width:2.4;stroke-linecap:butt;stroke-linejoin:miter;stroke-miterlimit:10;stroke-dasharray:none;stroke-opacity:1"
         id="path4178"
         inkscape:connector-curvature="0" /><path
         d="m 450.72785,128.25053 0.24,0 0,0.239 -0.24,0 0,-0.239 z"
         style="fill:#00007f;fill-opacity:1;fill-rule:nonzero;stroke:none;stroke-width:2.4;stroke-miterlimit:10;stroke-dasharray:none"
         id="path4180"
         inkscape:connector-curvature="0" /><path
         d="m 450.72785,178.65053 0,38.88"
         style="fill:none;stroke:#00007f;stroke-width:2.4;stroke-linecap:butt;stroke-linejoin:miter;stroke-miterlimit:10;stroke-dasharray:none;stroke-opacity:1"
         id="path4182"
         inkscape:connector-curvature="0" /><path
         d="m 450.72785,217.29053 0.24,0 0,0.24 -0.24,0 0,-0.24 z"
         style="fill:#00007f;fill-opacity:1;fill-rule:nonzero;stroke:none;stroke-width:2.4;stroke-miterlimit:10;stroke-dasharray:none"
         id="path4184"
         inkscape:connector-curvature="0" /><path
         d="m 428.40785,178.65053 44.64,0"
         style="fill:none;stroke:#00007f;stroke-width:2.4;stroke-linecap:butt;stroke-linejoin:miter;stroke-miterlimit:10;stroke-dasharray:none;stroke-opacity:1"
         id="path4186"
         inkscape:connector-curvature="0" /><path
         d="m 473.04785,178.41053 0.24,0 0,0.24 -0.24,0 0,-0.24 z"
         style="fill:#00007f;fill-opacity:1;fill-rule:nonzero;stroke:none;stroke-width:2.4;stroke-miterlimit:10;stroke-dasharray:none"
         id="path4188"
         inkscape:connector-curvature="0" /><path
         d="m 428.40785,167.37153 44.64,0"
         style="fill:none;stroke:#00007f;stroke-width:2.4;stroke-linecap:butt;stroke-linejoin:miter;stroke-miterlimit:10;stroke-dasharray:none;stroke-opacity:1"
         id="path4190"
         inkscape:connector-curvature="0" /><path
         d="m 473.04785,167.13053 0.24,0 0,0.24 -0.24,0 0,-0.24 z"
         style="fill:#00007f;fill-opacity:1;fill-rule:nonzero;stroke:none;stroke-width:2.4;stroke-miterlimit:10;stroke-dasharray:none"
         id="path4192"
         inkscape:connector-curvature="0" /><path
         d="m 194.40785,373.53153 -11.04,0"
         style="fill:none;stroke:#00007f;stroke-width:2.4;stroke-linecap:butt;stroke-linejoin:miter;stroke-miterlimit:10;stroke-dasharray:none;stroke-opacity:1"
         id="path4202"
         inkscape:connector-curvature="0" /><path
         d="m 183.36785,373.29153 0.24,0 0,0.24 -0.24,0 0,-0.24 z"
         style="fill:#00007f;fill-opacity:1;fill-rule:nonzero;stroke:none;stroke-width:2.4;stroke-miterlimit:10;stroke-dasharray:none"
         id="path4204"
         inkscape:connector-curvature="0" /><path
         d="m 294.72785,373.53153 -11.279,0"
         style="fill:none;stroke:#00007f;stroke-width:2.4;stroke-linecap:butt;stroke-linejoin:miter;stroke-miterlimit:10;stroke-dasharray:none;stroke-opacity:1"
         id="path4206"
         inkscape:connector-curvature="0" /><path
         d="m 283.44885,373.29153 0.239,0 0,0.24 -0.239,0 0,-0.24 z"
         style="fill:#00007f;fill-opacity:1;fill-rule:nonzero;stroke:none;stroke-width:2.4;stroke-miterlimit:10;stroke-dasharray:none"
         id="path4208"
         inkscape:connector-curvature="0" /><path
         d="m 283.44885,358.41053 0,30.48"
         style="fill:none;stroke:#00007f;stroke-width:2.4;stroke-linecap:butt;stroke-linejoin:miter;stroke-miterlimit:10;stroke-dasharray:none;stroke-opacity:1"
         id="path4210"
         inkscape:connector-curvature="0" /><path
         d="m 283.44885,388.65053 0.239,0 0,0.24 -0.239,0 0,-0.24 z"
         style="fill:#00007f;fill-opacity:1;fill-rule:nonzero;stroke:none;stroke-width:2.4;stroke-miterlimit:10;stroke-dasharray:none"
         id="path4212"
         inkscape:connector-curvature="0" /><path
         d="m 194.40785,388.89053 89.041,0"
         style="fill:none;stroke:#00007f;stroke-width:2.4;stroke-linecap:butt;stroke-linejoin:miter;stroke-miterlimit:10;stroke-dasharray:none;stroke-opacity:1"
         id="path4214"
         inkscape:connector-curvature="0" /><path
         d="m 283.44885,388.65053 0.239,0 0,0.24 -0.239,0 0,-0.24 z"
         style="fill:#00007f;fill-opacity:1;fill-rule:nonzero;stroke:none;stroke-width:2.4;stroke-miterlimit:10;stroke-dasharray:none"
         id="path4216"
         inkscape:connector-curvature="0" /><path
         d="m 194.40785,388.89053 0,-30.48"
         style="fill:none;stroke:#00007f;stroke-width:2.4;stroke-linecap:butt;stroke-linejoin:miter;stroke-miterlimit:10;stroke-dasharray:none;stroke-opacity:1"
         id="path4218"
         inkscape:connector-curvature="0" /><path
         d="m 194.40785,358.17053 0.24,0 0,0.24 -0.24,0 0,-0.24 z"
         style="fill:#00007f;fill-opacity:1;fill-rule:nonzero;stroke:none;stroke-width:2.4;stroke-miterlimit:10;stroke-dasharray:none"
         id="path4220"
         inkscape:connector-curvature="0" /><path
         d="m 283.44885,358.41053 -89.041,0"
         style="fill:none;stroke:#00007f;stroke-width:2.4;stroke-linecap:butt;stroke-linejoin:miter;stroke-miterlimit:10;stroke-dasharray:none;stroke-opacity:1"
         id="path4222"
         inkscape:connector-curvature="0" /><path
         d="m 194.40785,358.17053 0.24,0 0,0.24 -0.24,0 0,-0.24 z"
         style="fill:#00007f;fill-opacity:1;fill-rule:nonzero;stroke:none;stroke-width:2.4;stroke-miterlimit:10;stroke-dasharray:none"
         id="path4224"
         inkscape:connector-curvature="0" /><path
         d="m 24.487847,39.210526 50.16,0"
         style="fill:none;stroke:#0000ff;stroke-width:2.4;stroke-linecap:butt;stroke-linejoin:miter;stroke-miterlimit:10;stroke-dasharray:none;stroke-opacity:1"
         id="path4232"
         inkscape:connector-curvature="0" /><path
         d="m 74.647847,38.970526 0.239,0 0,0.24 -0.239,0 0,-0.24 z"
         style="fill:#000000;fill-opacity:1;fill-rule:nonzero;stroke:none;stroke-width:2.4;stroke-miterlimit:10;stroke-dasharray:none"
         id="path4234"
         inkscape:connector-curvature="0" /><path
         d="m 74.647847,39.210526 -25.2,-24.96"
         style="fill:none;stroke:#0000ff;stroke-width:2.4;stroke-linecap:butt;stroke-linejoin:miter;stroke-miterlimit:10;stroke-dasharray:none;stroke-opacity:1"
         id="path4236"
         inkscape:connector-curvature="0" /><path
         d="m 49.447847,14.010526 0.24,0 0,0.24 -0.24,0 0,-0.24 z"
         style="fill:#000000;fill-opacity:1;fill-rule:nonzero;stroke:none;stroke-width:2.4;stroke-miterlimit:10;stroke-dasharray:none"
         id="path4238"
         inkscape:connector-curvature="0" /><path
         d="m 49.447847,14.250526 -24.96,24.96"
         style="fill:none;stroke:#0000ff;stroke-width:2.4;stroke-linecap:butt;stroke-linejoin:miter;stroke-miterlimit:10;stroke-dasharray:none;stroke-opacity:1"
         id="path4240"
         inkscape:connector-curvature="0" /><path
         d="m 24.487847,38.970526 0.24,0 0,0.24 -0.24,0 0,-0.24 z"
         style="fill:#000000;fill-opacity:1;fill-rule:nonzero;stroke:none;stroke-width:2.4;stroke-miterlimit:10;stroke-dasharray:none"
         id="path4242"
         inkscape:connector-curvature="0" /><path
         d="m 183.36785,373.53153 -133.920003,0"
         style="fill:none;stroke:#0000ff;stroke-width:2.4;stroke-linecap:butt;stroke-linejoin:miter;stroke-miterlimit:10;stroke-dasharray:none;stroke-opacity:1"
         id="path4250"
         inkscape:connector-curvature="0" /><path
         d="m 49.447847,373.29153 0.24,0 0,0.24 -0.24,0 0,-0.24 z"
         style="fill:#0000ff;fill-opacity:1;fill-rule:nonzero;stroke:none;stroke-width:2.4;stroke-miterlimit:10;stroke-dasharray:none"
         id="path4252"
         inkscape:connector-curvature="0" /><path
         d="m 450.72785,373.53153 -156,0"
         style="fill:none;stroke:#0000ff;stroke-width:2.4;stroke-linecap:butt;stroke-linejoin:miter;stroke-miterlimit:10;stroke-dasharray:none;stroke-opacity:1"
         id="path4254"
         inkscape:connector-curvature="0" /><path
         d="m 294.72785,373.29153 0.24,0 0,0.24 -0.24,0 0,-0.24 z"
         style="fill:#0000ff;fill-opacity:1;fill-rule:nonzero;stroke:none;stroke-width:2.4;stroke-miterlimit:10;stroke-dasharray:none"
         id="path4256"
         inkscape:connector-curvature="0" /><path
         d="m 49.447847,239.85053 0,133.681"
         style="fill:none;stroke:#0000ff;stroke-width:2.4;stroke-linecap:butt;stroke-linejoin:miter;stroke-miterlimit:10;stroke-dasharray:none;stroke-opacity:1"
         id="path4258"
         inkscape:connector-curvature="0" /><path
         d="m 49.447847,373.29153 0.24,0 0,0.24 -0.24,0 0,-0.24 z"
         style="fill:#0000ff;fill-opacity:1;fill-rule:nonzero;stroke:none;stroke-width:2.4;stroke-miterlimit:10;stroke-dasharray:none"
         id="path4260"
         inkscape:connector-curvature="0" /><path
         d="m 450.72785,217.53053 0,156.001"
         style="fill:none;stroke:#0000ff;stroke-width:2.4;stroke-linecap:butt;stroke-linejoin:miter;stroke-miterlimit:10;stroke-dasharray:none;stroke-opacity:1"
         id="path4262"
         inkscape:connector-curvature="0" /><path
         d="m 450.72785,373.29153 0.24,0 0,0.24 -0.24,0 0,-0.24 z"
         style="fill:#0000ff;fill-opacity:1;fill-rule:nonzero;stroke:none;stroke-width:2.4;stroke-miterlimit:10;stroke-dasharray:none"
         id="path4264"
         inkscape:connector-curvature="0" /><path
         d="m 49.447847,61.531526 0,66.959004"
         style="fill:none;stroke:#0000ff;stroke-width:2.4;stroke-linecap:butt;stroke-linejoin:miter;stroke-miterlimit:10;stroke-dasharray:none;stroke-opacity:1"
         id="path4266"
         inkscape:connector-curvature="0" /><path
         d="m 49.447847,128.25053 0.24,0 0,0.239 -0.24,0 0,-0.239 z"
         style="fill:#0000ff;fill-opacity:1;fill-rule:nonzero;stroke:none;stroke-width:2.4;stroke-miterlimit:10;stroke-dasharray:none"
         id="path4268"
         inkscape:connector-curvature="0" /><path
         d="m 450.72785,61.531526 0,66.959004"
         style="fill:none;stroke:#0000ff;stroke-width:2.4;stroke-linecap:butt;stroke-linejoin:miter;stroke-miterlimit:10;stroke-dasharray:none;stroke-opacity:1"
         id="path4270"
         inkscape:connector-curvature="0" /><path
         d="m 450.72785,128.25053 0.24,0 0,0.239 -0.24,0 0,-0.239 z"
         style="fill:#0000ff;fill-opacity:1;fill-rule:nonzero;stroke:none;stroke-width:2.4;stroke-miterlimit:10;stroke-dasharray:none"
         id="path4272"
         inkscape:connector-curvature="0" /><path
         d="m 450.72785,61.531526 -401.280003,0"
         style="fill:none;stroke:#0000ff;stroke-width:2.4;stroke-linecap:butt;stroke-linejoin:miter;stroke-miterlimit:10;stroke-dasharray:none;stroke-opacity:1"
         id="path4274"
         inkscape:connector-curvature="0" /><path
         d="m 49.447847,61.291526 0.24,0 0,0.24 -0.24,0 0,-0.24 z"
         style="fill:#0000ff;fill-opacity:1;fill-rule:nonzero;stroke:none;stroke-width:2.4;stroke-miterlimit:10;stroke-dasharray:none"
         id="path4276"
         inkscape:connector-curvature="0" /><path
         d="m 49.447847,39.210526 0,22.321"
         style="fill:none;stroke:#0000ff;stroke-width:2.4;stroke-linecap:butt;stroke-linejoin:miter;stroke-miterlimit:10;stroke-dasharray:none;stroke-opacity:1"
         id="path4278"
         inkscape:connector-curvature="0" /><path
         d="m 49.447847,61.291526 0.24,0 0,0.24 -0.24,0 0,-0.24 z"
         style="fill:#0000ff;fill-opacity:1;fill-rule:nonzero;stroke:none;stroke-width:2.4;stroke-miterlimit:10;stroke-dasharray:none"
         id="path4280"
         inkscape:connector-curvature="0" /><path
         d="m 43.927847,55.771526 11.28,0 0,11.279 -11.28,0 0,-11.279 z"
         style="fill:#0000ff;fill-opacity:1;fill-rule:nonzero;stroke:none;stroke-width:2.4;stroke-miterlimit:10;stroke-dasharray:none"
         id="path4282"
         inkscape:connector-curvature="0" /></g></g><g
     inkscape:groupmode="layer"
     id="layer1"
     inkscape:label="text"
     style="display:inline"><text
       transform="matrix(1.25,0,0,1.25,0,529.99999)"
       style="font-variant:normal;font-weight:bold;font-size:34.80099869px;font-family:Arial;-inkscape-font-specification:Arial-BoldMT;writing-mode:lr-tb;display:inline;fill:#000000;fill-opacity:1;fill-rule:nonzero;stroke:none"
       id="text4244"
       x="421.68887"
       y="-380.97052"><tspan
         x="421.68887 440.40823 459.12759 34.328861 43.688507"
         y="-380.97052"
         sodipodi:role="line"
         id="tspan4246">capin</tspan><tspan
         x="147.12787 156.47855 167.74329 180.95688 199.98222 220.92165 229.6897 248.71506 278.42432 297.44968 306.80936 325.20828 336.47302 355.49838 368.71198 379.97672 400.32449"
         y="-16.170538"
         sodipodi:role="line"
         id="tspan4248">.tran 1ms startup</tspan></text>
<text
       transform="matrix(1.25,0,0,1.25,0,529.99999)"
       style="font-variant:normal;font-weight:bold;font-size:34.80099869px;font-family:Arial;-inkscape-font-specification:Arial-BoldMT;writing-mode:lr-tb;display:inline;fill:#000000;fill-opacity:1;fill-rule:nonzero;stroke:none"
       id="text4226"
       x="217.44887"
       y="-396.33054"><tspan
         x="217.44887 241.92819"
         y="-396.33054"
         sodipodi:role="line"
         id="tspan4228">R1</tspan><tspan
         x="208.08987 226.80923 245.52858"
         y="-326.97153"
         sodipodi:role="line"
         id="tspan4230">10R</tspan></text>
<text
       transform="matrix(1.25,0,0,1.25,0,529.99999)"
       style="font-variant:normal;font-weight:bold;font-size:34.80099869px;font-family:Arial;-inkscape-font-specification:Arial-BoldMT;writing-mode:lr-tb;display:inline;fill:#000000;fill-opacity:1;fill-rule:nonzero;stroke:none"
       id="text4172"
       x="83.048843"
       y="-227.85153"><tspan
         x="83.048843 105.60811"
         y="-227.85153"
         sodipodi:role="line"
         id="tspan4174">V1</tspan><tspan
         x="56.40884 78.982109 103.46943 124.09385 146.66714 169.2404 180.19014 198.9005 208.26117 226.97153 245.68188 255.04257 273.7529 283.11359 301.82394 313.40009"
         y="-105.21152"
         sodipodi:role="line"
         id="tspan4176">PULSE(0 24 0 1f)</tspan></text>
<text
       transform="matrix(1.25,0,0,1.25,0,529.99999)"
       style="font-variant:normal;font-weight:bold;font-size:34.80099869px;font-family:Arial;-inkscape-font-specification:Arial-BoldMT;writing-mode:lr-tb;display:inline;fill:#000000;fill-opacity:1;fill-rule:nonzero;stroke:none"
       id="text4194"
       x="461.76886"
       y="-194.49153"><tspan
         x="461.76886 486.2482"
         y="-194.49153"
         sodipodi:role="line"
         id="tspan4196">C1</tspan><tspan
         x="461.76886 480.49622 499.22357 518.64685"
         y="-127.53252"
         sodipodi:role="line"
         id="tspan4198">10µF</tspan><tspan
         x="461.76886 470.80356 495.28989 514.97363 533.68286"
         y="-88.652527"
         sodipodi:role="line"
         id="tspan4200">IC=0V</tspan></text>
</g></svg>