<?xml version="1.0" encoding="UTF-8" standalone="no"?>
<!-- Created with Inkscape (http://www.inkscape.org/) -->

<svg
   xmlns:ns0="http://www.iki.fi/pav/software/textext/"
   xmlns:dc="http://purl.org/dc/elements/1.1/"
   xmlns:cc="http://creativecommons.org/ns#"
   xmlns:rdf="http://www.w3.org/1999/02/22-rdf-syntax-ns#"
   xmlns:svg="http://www.w3.org/2000/svg"
   xmlns="http://www.w3.org/2000/svg"
   xmlns:xlink="http://www.w3.org/1999/xlink"
   xmlns:sodipodi="http://sodipodi.sourceforge.net/DTD/sodipodi-0.dtd"
   xmlns:inkscape="http://www.inkscape.org/namespaces/inkscape"
   width="300"
   height="300"
   id="svg2"
   inkscape:label="Pozadí"
   version="1.1"
   inkscape:version="0.48.1 "
   sodipodi:docname="1D_r_uloha.svg">
  <sodipodi:namedview
     id="base"
     pagecolor="#ffffff"
     bordercolor="#666666"
     borderopacity="1.0"
     inkscape:pageopacity="0.0"
     inkscape:pageshadow="2"
     inkscape:zoom="1.7235728"
     inkscape:cx="249.20619"
     inkscape:cy="107.1014"
     inkscape:document-units="px"
     inkscape:current-layer="layer8"
     showgrid="false"
     inkscape:window-width="1831"
     inkscape:window-height="1173"
     inkscape:window-x="2000"
     inkscape:window-y="-9"
     inkscape:window-maximized="1"
     inkscape:snap-page="true" />
  <defs
     id="defs5318">
    <linearGradient
       inkscape:collect="always"
       id="linearGradient11899">
      <stop
         style="stop-color:#000000;stop-opacity:1;"
         offset="0"
         id="stop11901" />
      <stop
         style="stop-color:#000000;stop-opacity:0;"
         offset="1"
         id="stop11903" />
    </linearGradient>
    <marker
       inkscape:stockid="Arrow1Mend"
       orient="auto"
       refY="0.0"
       refX="0.0"
       id="Arrow1Mend"
       style="overflow:visible;">
      <path
         id="path5270"
         d="M 0.0,0.0 L 5.0,-5.0 L -12.5,0.0 L 5.0,5.0 L 0.0,0.0 z "
         style="fill-rule:evenodd;stroke:#000000;stroke-width:1.0pt;marker-start:none;"
         transform="scale(0.4) rotate(180) translate(10,0)" />
    </marker>
    <marker
       inkscape:stockid="Arrow2Mend"
       orient="auto"
       refY="0"
       refX="0"
       id="Arrow2Mend"
       style="overflow:visible">
      <path
         inkscape:connector-curvature="0"
         id="path5288"
         style="font-size:12px;fill-rule:evenodd;stroke-width:0.625;stroke-linejoin:round"
         d="M 8.7185878,4.0337352 -2.2072895,0.01601326 8.7185884,-4.0017078 c -1.7454984,2.3720609 -1.7354408,5.6174519 -6e-7,8.035443 z"
         transform="scale(-0.6,-0.6)" />
    </marker>
    <radialGradient
       inkscape:collect="always"
       xlink:href="#linearGradient11899"
       id="radialGradient11905"
       cx="279.07147"
       cy="5.8435745"
       fx="279.07147"
       fy="5.8435745"
       r="142.43669"
       gradientUnits="userSpaceOnUse"
       gradientTransform="matrix(0.8314739,0.58716311,-0.57330228,0.81184563,50.380952,-162.76097)" />
    <radialGradient
       inkscape:collect="always"
       xlink:href="#linearGradient11899-0"
       id="radialGradient11905-1"
       cx="279.07147"
       cy="5.8435745"
       fx="279.07147"
       fy="5.8435745"
       r="142.43669"
       gradientUnits="userSpaceOnUse"
       gradientTransform="matrix(0.8314739,0.58716311,-0.57330228,0.81184563,50.380952,-162.76097)" />
    <linearGradient
       inkscape:collect="always"
       id="linearGradient11899-0">
      <stop
         style="stop-color:#000000;stop-opacity:1;"
         offset="0"
         id="stop11901-2" />
      <stop
         style="stop-color:#000000;stop-opacity:0;"
         offset="1"
         id="stop11903-1" />
    </linearGradient>
    <radialGradient
       r="142.43669"
       fy="5.8435745"
       fx="279.07147"
       cy="5.8435745"
       cx="279.07147"
       gradientTransform="matrix(0.8314739,0.58716311,-0.57330228,0.81184563,50.380952,-162.76097)"
       gradientUnits="userSpaceOnUse"
       id="radialGradient11939"
       xlink:href="#linearGradient11899-0"
       inkscape:collect="always" />
  </defs>
  <metadata
     id="metadata5321">
    <rdf:RDF>
      <cc:Work
         rdf:about="">
        <dc:format>image/svg+xml</dc:format>
        <dc:type
           rdf:resource="http://purl.org/dc/dcmitype/StillImage" />
        <dc:title></dc:title>
      </cc:Work>
    </rdf:RDF>
  </metadata>
  <g
     transform="translate(0,-752.36218)"
     id="layer1"
     inkscape:groupmode="layer"
     inkscape:label="circle1">
    <path
       transform="matrix(1.0156686,0,0,1.0158936,-59.658608,693.65182)"
       d="m 321.64103,206.76923 a 116.10256,116.10256 0 1 1 -232.205125,0 116.10256,116.10256 0 1 1 232.205125,0 z"
       sodipodi:ry="116.10256"
       sodipodi:rx="116.10256"
       sodipodi:cy="206.76923"
       sodipodi:cx="205.53847"
       id="path5834"
       style="fill:#a17829;fill-opacity:1;stroke:#000000;stroke-width:2.95339227;stroke-miterlimit:4;stroke-opacity:1;stroke-dasharray:none;stroke-dashoffset:0"
       sodipodi:type="arc" />
    <path
       transform="matrix(0.67275451,0,0,0.67290349,-32.805958,738.81597)"
       d="m 421.79825,245.66942 a 150.26926,150.26926 0 1 1 -300.53851,0 150.26926,150.26926 0 1 1 300.53851,0 z"
       sodipodi:ry="150.26926"
       sodipodi:rx="150.26926"
       sodipodi:cy="245.66942"
       sodipodi:cx="271.52899"
       id="path5837"
       style="fill:#ffffff;fill-opacity:1;stroke:#000000;stroke-width:4.45878506;stroke-miterlimit:4;stroke-opacity:1;stroke-dasharray:none;stroke-dashoffset:0"
       sodipodi:type="arc" />
  </g>
  <g
     inkscape:groupmode="layer"
     id="layer8"
     inkscape:label="pole">
    <path
       sodipodi:type="arc"
       style="fill:url(#radialGradient11939);fill-opacity:1;stroke:none"
       id="path11897"
       sodipodi:cx="282.84271"
       sodipodi:cy="9.0346251"
       sodipodi:rx="142.43669"
       sodipodi:ry="142.43669"
       d="m 425.2794,9.0346251 a 142.43669,142.43669 0 1 1 -284.87338,0 142.43669,142.43669 0 1 1 284.87338,0 z"
       transform="matrix(1.0429162,0,0,1.0429162,-145.99503,138.82725)" />
  </g>
  <g
     inkscape:label="circle2"
     id="layer4"
     inkscape:groupmode="layer"
     transform="translate(0,-100)" />
  <g
     inkscape:label="circle3"
     id="layer5"
     inkscape:groupmode="layer"
     transform="translate(0,-100)">
    <path
       transform="matrix(0.2962214,0,0,0.29628699,88.6543,188.41171)"
       d="m 321.64103,206.76923 a 116.10256,116.10256 0 1 1 -232.205125,0 116.10256,116.10256 0 1 1 232.205125,0 z"
       sodipodi:ry="116.10256"
       sodipodi:rx="116.10256"
       sodipodi:cy="206.76923"
       sodipodi:cx="205.53847"
       id="path5834-9"
       style="fill:#a1786d;fill-opacity:1;stroke:#000000;stroke-width:10.12643814;stroke-miterlimit:4;stroke-opacity:1;stroke-dasharray:none;stroke-dashoffset:0"
       sodipodi:type="arc" />
    <path
       style="fill:none;stroke:#000000;stroke-width:2;stroke-linecap:butt;stroke-linejoin:miter;stroke-miterlimit:4;stroke-opacity:1;stroke-dasharray:none;marker-end:url(#Arrow2Mend)"
       d="M 190.35339,205.93438 248.25277,148.6538"
       id="path6593"
       inkscape:connector-curvature="0"
       sodipodi:nodetypes="cc" />
    <g
       style="font-style:normal;font-variant:normal;font-weight:normal;font-stretch:normal;letter-spacing:normal;word-spacing:normal;text-anchor:start;fill:none;stroke:#000000;stroke-width:1.96949446;stroke-linecap:butt;stroke-linejoin:miter;stroke-miterlimit:10.43299961;stroke-opacity:1;stroke-dasharray:none;stroke-dashoffset:0"
       id="content-6"
       transform="matrix(2.0378717,0,0,-2.0241077,-547.32902,1570.5607)"
       xml:space="preserve"
       stroke-miterlimit="10.433"
       font-style="normal"
       font-variant="normal"
       font-weight="normal"
       font-stretch="normal"
       font-size-adjust="none"
       letter-spacing="normal"
       word-spacing="normal"
       ns0:text="$$\\overrightarrow{E}(x,y,z)$$\n"
       ns0:preamble="">
<path
   style="fill:#000000;stroke-width:0"
   inkscape:connector-curvature="0"
   d="m 380.57,715.23 0.03,0 0.03,0 0.03,0 0.02,0 0.02,0 0.01,0 0.02,0 0.01,0 0.01,0.01 0.02,0 0.01,0 0.01,0.01 0.02,0 0.01,0.01 0.01,0 0.01,0.01 0.01,0 0.01,0.01 0.01,0.01 0.01,0.01 0.01,0.01 0,0.01 0,0 0.01,0.01 0,0 0,0.01 0.01,0.01 0,0 0,0.01 0,0.01 0,0 0,0.01 0.01,0.01 0,0.01 0,0.01 0,0.01 0,0 c 0,0.2 -0.18,0.2 -0.35,0.2 h -5.39 c -0.17,0 -0.35,0 -0.35,-0.2 0,-0.19 0.18,-0.19 0.35,-0.19 z"
   id="path6839" />
<path
   style="fill:#000000;stroke-width:0"
   inkscape:connector-curvature="0"
   d="m 382.31,715.23 -0.05,-0.04 -0.05,-0.04 -0.05,-0.04 -0.04,-0.04 -0.05,-0.04 -0.04,-0.04 -0.04,-0.03 -0.04,-0.04 -0.04,-0.04 -0.03,-0.03 -0.04,-0.04 -0.03,-0.04 -0.03,-0.03 -0.04,-0.03 -0.02,-0.04 -0.03,-0.03 -0.03,-0.03 -0.02,-0.03 -0.03,-0.03 -0.02,-0.03 -0.02,-0.03 -0.02,-0.02 -0.02,-0.03 -0.02,-0.02 -0.02,-0.03 -0.01,-0.02 -0.01,-0.02 -0.02,-0.02 -0.01,-0.02 -0.01,-0.01 -0.01,-0.02 -0.01,-0.01 c -0.44,-0.69 -0.52,-1.31 -0.52,-1.32 0,-0.12 0.12,-0.12 0.2,-0.12 0.17,0 0.18,0.02 0.21,0.2 0.23,0.97 0.82,1.81 1.95,2.27 0.12,0.04 0.15,0.06 0.15,0.12 0,0.07 -0.06,0.11 -0.08,0.11 -0.44,0.17 -1.65,0.67 -2.02,2.34 -0.03,0.12 -0.04,0.15 -0.21,0.15 -0.08,0 -0.2,0 -0.2,-0.12 0,-0.02 0.09,-0.64 0.5,-1.31 0.2,-0.3 0.49,-0.65 0.92,-0.97 h -7.41 c -0.17,0 -0.35,0 -0.35,-0.2 0,-0.19 0.18,-0.19 0.35,-0.19 z"
   id="path6841" />
<path
   style="fill:#000000;stroke-width:0"
   inkscape:connector-curvature="0"
   d="m 382.08,709.44 0,0.01 0,0 0,0.01 0.01,0.01 0,0.01 0.01,0.01 0,0.01 0,0.01 0.01,0.01 0,0.01 0,0 0,0.01 0,0 0.01,0.01 0,0 0,0.01 0,0 0,0 0,0.01 0,0 0,0 0,0.01 0,0 0,0 0.01,0 c 0,0.01 0,0.11 -0.12,0.11 -0.09,0 -0.11,-0.06 -0.13,-0.12 -0.65,-1.47 -1.02,-2.14 -2.73,-2.14 h -1.45 c -0.14,0 -0.16,0 -0.22,0.01 -0.1,0.01 -0.13,0.02 -0.13,0.1 0,0.03 0,0.05 0.05,0.23 l 0.68,2.72 h 0.99 c 0.84,0 0.84,-0.21 0.84,-0.46 0,-0.07 0,-0.19 -0.07,-0.49 -0.02,-0.05 -0.03,-0.08 -0.03,-0.11 0,-0.05 0.04,-0.11 0.13,-0.11 0.08,0 0.11,0.05 0.15,0.2 l 0.57,2.33 c 0,0.06 -0.05,0.11 -0.12,0.11 -0.09,0 -0.11,-0.06 -0.14,-0.18 -0.21,-0.75 -0.39,-0.98 -1.3,-0.98 h -0.94 l 0.6,2.4 c 0.09,0.34 0.1,0.38 0.53,0.38 h 1.41 c 1.22,0 1.51,-0.29 1.51,-1.1 0,-0.24 0,-0.26 -0.04,-0.53 0,-0.06 0,-0.13 0,-0.18 0,-0.05 0.03,-0.12 0.12,-0.12 0.1,0 0.11,0.06 0.13,0.25 l 0.2,1.72 c 0.03,0.27 -0.02,0.27 -0.26,0.27 h -5.04 c -0.2,0 -0.3,0 -0.3,-0.2 0,-0.11 0.09,-0.11 0.28,-0.11 0.37,0 0.65,0 0.65,-0.17 0,-0.05 0,-0.07 -0.05,-0.24 l -1.32,-5.27 c -0.1,-0.39 -0.12,-0.47 -0.9,-0.47 -0.17,0 -0.28,0 -0.28,-0.19 0,-0.11 0.09,-0.11 0.28,-0.11 h 5.17 c 0.23,0 0.24,0.01 0.31,0.16 z"
   id="path6843" />
<path
   style="fill:#000000;stroke-width:0"
   inkscape:connector-curvature="0"
   d="m 387.26,704.74 0,0 0,0.01 0,0 0,0 0,0.01 0,0 0,0 0,0.01 0,0 -0.01,0 0,0.01 0,0 0,0.01 -0.01,0 0,0.01 -0.01,0.01 0,0 -0.01,0.01 0,0 -0.01,0.01 0,0 0,0.01 -0.01,0 0,0 0,0.01 -0.01,0 0,0.01 -0.01,0 0,0.01 -0.01,0 0,0.01 -0.01,0.01 0,0 -0.01,0.01 -0.01,0 0,0.01 -0.01,0.01 -0.01,0.01 0,0 -0.01,0.01 -0.01,0.01 -0.01,0.01 c -1.24,1.25 -1.56,3.13 -1.56,4.65 0,1.73 0.38,3.47 1.6,4.71 0.13,0.12 0.13,0.14 0.13,0.17 0,0.07 -0.04,0.1 -0.1,0.1 -0.1,0 -0.99,-0.68 -1.58,-1.94 -0.51,-1.1 -0.63,-2.2 -0.63,-3.04 0,-0.77 0.11,-1.98 0.66,-3.1 0.6,-1.23 1.45,-1.87 1.55,-1.87 0.06,0 0.1,0.03 0.1,0.1 z"
   id="path6845" />
<path
   style="fill:#000000;stroke-width:0"
   inkscape:connector-curvature="0"
   d="m 391.17,710.13 0,0.03 0.01,0.03 0.01,0.03 0.01,0.04 0.01,0.03 0.01,0.05 0.01,0.04 0.02,0.04 0.01,0.05 0.02,0.05 0.02,0.05 0.02,0.05 0.02,0.05 0.03,0.05 0.02,0.05 0.03,0.04 0.03,0.05 0.03,0.05 0.04,0.05 0.03,0.04 0.04,0.04 0.04,0.04 0.04,0.04 0.04,0.04 0.05,0.03 0.05,0.03 0.02,0.01 0.03,0.01 0.03,0.02 0.02,0.01 0.03,0 0.03,0.01 0.03,0.01 0.03,0 0.03,0.01 0.03,0 0.03,0 0.03,0 c 0.05,0 0.29,0 0.5,-0.12 -0.28,-0.05 -0.48,-0.3 -0.48,-0.54 0,-0.16 0.11,-0.35 0.38,-0.35 0.22,0 0.54,0.18 0.54,0.58 0,0.52 -0.59,0.65 -0.93,0.65 -0.57,0 -0.92,-0.52 -1.04,-0.75 -0.25,0.65 -0.79,0.75 -1.08,0.75 -1.04,0 -1.6,-1.28 -1.6,-1.53 0,-0.1 0.1,-0.1 0.12,-0.1 0.08,0 0.11,0.02 0.12,0.11 0.34,1.06 1,1.3 1.34,1.3 0.19,0 0.54,-0.08 0.54,-0.66 0,-0.31 -0.17,-0.98 -0.54,-2.37 -0.16,-0.62 -0.51,-1.04 -0.95,-1.04 -0.06,0 -0.28,0 -0.49,0.13 0.25,0.05 0.46,0.26 0.46,0.54 0,0.27 -0.21,0.35 -0.37,0.35 -0.29,0 -0.54,-0.26 -0.54,-0.58 0,-0.45 0.5,-0.65 0.93,-0.65 0.66,0 1.02,0.69 1.05,0.75 0.12,-0.37 0.48,-0.75 1.08,-0.75 1.02,0 1.59,1.28 1.59,1.53 0,0.1 -0.09,0.1 -0.12,0.1 -0.09,0 -0.11,-0.04 -0.13,-0.11 -0.33,-1.07 -1,-1.31 -1.32,-1.31 -0.39,0 -0.55,0.32 -0.55,0.66 0,0.22 0.06,0.44 0.17,0.88 z"
   id="path6847" />
<path
   style="fill:#000000;stroke-width:0"
   inkscape:connector-curvature="0"
   d="m 395.55,707.14 0,0.06 0,0.06 0,0.05 -0.01,0.06 0,0.05 -0.01,0.06 -0.01,0.05 -0.01,0.05 -0.01,0.04 -0.01,0.05 -0.02,0.04 -0.01,0.04 -0.02,0.04 -0.02,0.04 -0.02,0.04 -0.02,0.03 -0.02,0.04 -0.02,0.03 -0.03,0.03 -0.02,0.02 -0.03,0.03 -0.02,0.02 -0.03,0.02 -0.03,0.02 -0.03,0.02 -0.03,0.01 -0.03,0.01 -0.03,0.01 -0.04,0.01 -0.03,0.01 -0.04,0 -0.03,0 c -0.33,0 -0.53,-0.25 -0.53,-0.53 0,-0.27 0.2,-0.52 0.53,-0.52 0.12,0 0.25,0.03 0.35,0.12 0.03,0.02 0.04,0.03 0.05,0.03 0.01,0 0.02,-0.01 0.02,-0.14 0,-0.74 -0.35,-1.34 -0.68,-1.67 -0.11,-0.11 -0.11,-0.13 -0.11,-0.16 0,-0.07 0.05,-0.11 0.1,-0.11 0.11,0 0.9,0.77 0.9,1.94 z"
   id="path6849" />
<path
   style="fill:#000000;stroke-width:0"
   inkscape:connector-curvature="0"
   d="m 402.81,710.92 0,0 0,0.01 0,0.01 0,0 0.01,0.01 0,0.01 0,0.01 0.01,0.01 0,0.01 0,0.01 0,0.01 0,0.01 0.01,0.01 0,0 0,0.01 0,0.01 0,0 0,0.01 0,0 0,0.01 0,0.01 0.01,0.01 0,0.01 0,0.01 0,0.01 0,0.01 0,0 0,0.01 0,0.01 c 0,0.18 -0.14,0.26 -0.29,0.26 -0.1,0 -0.26,-0.06 -0.35,-0.2 -0.02,-0.05 -0.1,-0.36 -0.14,-0.54 -0.07,-0.26 -0.14,-0.53 -0.2,-0.8 l -0.45,-1.79 c -0.04,-0.15 -0.47,-0.85 -1.12,-0.85 -0.51,0 -0.62,0.44 -0.62,0.81 0,0.46 0.17,1.08 0.51,1.95 0.16,0.41 0.2,0.52 0.2,0.72 0,0.45 -0.32,0.81 -0.82,0.81 -0.95,0 -1.32,-1.44 -1.32,-1.53 0,-0.1 0.1,-0.1 0.12,-0.1 0.1,0 0.11,0.02 0.16,0.18 0.27,0.94 0.67,1.23 1.01,1.23 0.08,0 0.25,0 0.25,-0.31 0,-0.25 -0.1,-0.51 -0.17,-0.7 -0.4,-1.06 -0.58,-1.62 -0.58,-2.09 0,-0.89 0.63,-1.18 1.22,-1.18 0.38,0 0.72,0.16 1,0.44 -0.13,-0.51 -0.25,-1 -0.65,-1.53 -0.25,-0.34 -0.63,-0.63 -1.09,-0.63 -0.14,0 -0.59,0.03 -0.76,0.42 0.16,0 0.29,0 0.43,0.12 0.1,0.09 0.2,0.22 0.2,0.41 0,0.31 -0.27,0.35 -0.37,0.35 -0.23,0 -0.56,-0.16 -0.56,-0.65 0,-0.5 0.44,-0.86 1.06,-0.86 1.03,0 2.05,0.9 2.33,2.02 z"
   id="path6851" />
<path
   style="fill:#000000;stroke-width:0"
   inkscape:connector-curvature="0"
   d="m 405.23,707.14 0,0.06 0,0.06 -0.01,0.05 0,0.06 -0.01,0.05 -0.01,0.06 0,0.05 -0.01,0.05 -0.02,0.04 -0.01,0.05 -0.01,0.04 -0.02,0.04 -0.02,0.04 -0.01,0.04 -0.02,0.04 -0.02,0.03 -0.02,0.04 -0.03,0.03 -0.02,0.03 -0.03,0.02 -0.02,0.03 -0.03,0.02 -0.03,0.02 -0.02,0.02 -0.03,0.02 -0.03,0.01 -0.04,0.01 -0.03,0.01 -0.03,0.01 -0.04,0.01 -0.03,0 -0.04,0 c -0.33,0 -0.53,-0.25 -0.53,-0.53 0,-0.27 0.2,-0.52 0.53,-0.52 0.12,0 0.25,0.03 0.35,0.12 0.03,0.02 0.04,0.03 0.05,0.03 0.01,0 0.02,-0.01 0.02,-0.14 0,-0.74 -0.35,-1.34 -0.68,-1.67 -0.11,-0.11 -0.11,-0.13 -0.11,-0.16 0,-0.07 0.05,-0.11 0.1,-0.11 0.11,0 0.91,0.77 0.91,1.94 z"
   id="path6853" />
<path
   style="fill:#000000;stroke-width:0"
   inkscape:connector-curvature="0"
   d="m 408.95,707.95 0.05,0.05 0.05,0.06 0.05,0.04 0.04,0.05 0.05,0.05 0.04,0.04 0.04,0.05 0.05,0.04 0.04,0.04 0.03,0.04 0.04,0.04 0.04,0.03 0.04,0.04 0.03,0.03 0.07,0.07 0.07,0.06 0.07,0.06 0.06,0.06 0.07,0.06 0.13,0.11 0.06,0.06 0.07,0.06 c 0,0.01 0.62,0.53 0.98,0.89 0.94,0.93 1.16,1.41 1.16,1.44 0,0.1 -0.09,0.1 -0.11,0.1 -0.07,0 -0.1,-0.02 -0.15,-0.11 -0.29,-0.47 -0.5,-0.63 -0.74,-0.63 -0.24,0 -0.36,0.15 -0.51,0.32 -0.19,0.23 -0.36,0.42 -0.69,0.42 -0.75,0 -1.21,-0.92 -1.21,-1.13 0,-0.05 0.03,-0.11 0.12,-0.11 0.09,0 0.11,0.05 0.13,0.11 0.19,0.46 0.77,0.47 0.85,0.47 0.21,0 0.4,-0.07 0.63,-0.15 0.4,-0.15 0.51,-0.15 0.77,-0.15 -0.36,-0.43 -1.2,-1.15 -1.39,-1.3 l -0.9,-0.84 c -0.68,-0.67 -1.02,-1.24 -1.02,-1.31 0,-0.09 0.1,-0.09 0.12,-0.09 0.08,0 0.1,0.01 0.15,0.13 0.24,0.34 0.53,0.61 0.85,0.61 0.23,0 0.33,-0.09 0.58,-0.38 0.17,-0.21 0.35,-0.36 0.64,-0.36 0.99,0 1.56,1.26 1.56,1.53 0,0.05 -0.04,0.1 -0.12,0.1 -0.08,0 -0.11,-0.06 -0.14,-0.13 -0.22,-0.65 -0.86,-0.84 -1.19,-0.84 -0.2,0 -0.38,0.06 -0.59,0.13 -0.34,0.13 -0.49,0.17 -0.7,0.17 -0.02,0 -0.18,0 -0.27,-0.03 z"
   id="path6855" />
<path
   style="fill:#000000;stroke-width:0"
   inkscape:connector-curvature="0"
   d="m 415.58,709.61 0,0.08 0,0.07 0,0.08 0,0.08 -0.01,0.17 -0.01,0.18 -0.02,0.18 -0.02,0.19 -0.03,0.2 -0.03,0.19 -0.04,0.21 -0.05,0.21 -0.05,0.21 -0.06,0.21 -0.07,0.21 -0.08,0.21 -0.04,0.11 -0.05,0.11 -0.05,0.1 -0.05,0.11 c -0.59,1.22 -1.45,1.87 -1.55,1.87 -0.06,0 -0.1,-0.04 -0.1,-0.1 0,-0.03 0,-0.05 0.19,-0.23 0.97,-0.98 1.54,-2.57 1.54,-4.65 0,-1.7 -0.37,-3.45 -1.6,-4.7 -0.13,-0.12 -0.13,-0.14 -0.13,-0.17 0,-0.06 0.04,-0.1 0.1,-0.1 0.1,0 0.99,0.67 1.58,1.94 0.51,1.09 0.63,2.2 0.63,3.03 z"
   id="path6857" />
</g>  </g>
  <g
     style="display:inline"
     inkscape:label="other"
     id="layer6"
     inkscape:groupmode="layer"
     transform="translate(0,-100)">
    <g
       ns0:preamble=""
       ns0:text="$$I$$\n"
       word-spacing="normal"
       letter-spacing="normal"
       font-size-adjust="none"
       font-stretch="normal"
       font-weight="normal"
       font-variant="normal"
       font-style="normal"
       stroke-miterlimit="10.433"
       xml:space="preserve"
       transform="matrix(2.691018,0,0,-2.6916139,-913.39955,2170.9063)"
       id="content"
       style="font-style:normal;font-variant:normal;font-weight:normal;font-stretch:normal;letter-spacing:normal;word-spacing:normal;text-anchor:start;fill:none;stroke:#000000;stroke-width:1.48626173;stroke-linecap:butt;stroke-linejoin:miter;stroke-miterlimit:10.43299961;stroke-opacity:1;stroke-dasharray:none;stroke-dashoffset:0">
<path
   id="path5985"
   d="m 400.50081,716.80228 0.01,0.029 0.01,0.0289 0.01,0.029 0.01,0.0289 0.01,0.029 0,0.0193 0.01,0.029 0.01,0.0193 0.01,0.0193 0.0191,0.0193 0.01,0.0193 0.01,0.0193 0.0192,0.0193 0.0191,0.01 0.0191,0.0193 0.0191,0.01 0.0191,0.01 0.0287,0.01 0.0191,0.01 0.0287,0.01 0.0383,0.01 0.01,0.01 0.0191,0 0.0191,0 0.0191,0.01 0.0191,0 0.0191,0 0.0191,0.01 0.0287,0 0.0191,0 0.0191,0 0.0287,0 0.0287,0.01 0.0191,0 0.0287,0 0.0287,0 0.0287,0 0.0287,0 0.0287,0 0.0383,0 0.0287,0 0.0383,0 0.0287,0 c 0.22953,0 0.30603,0 0.30603,0.18348 0,0.11587 -0.1052,0.11587 -0.14345,0.11587 -0.27735,0 -0.98505,-0.0289 -1.25283,-0.0289 -0.28691,0 -0.98505,0.0289 -1.27196,0.0289 -0.0669,0 -0.19128,0 -0.19128,-0.19312 0,-0.10623 0.0861,-0.10623 0.26778,-0.10623 0.40167,0 0.6599,0 0.6599,-0.18347 0,-0.0386 0,-0.0676 -0.0191,-0.14485 l -1.29108,-5.18549 c -0.0861,-0.35729 -0.11476,-0.45386 -0.87029,-0.45386 -0.2104,0 -0.29647,0 -0.29647,-0.19312 0,-0.0966 0.11476,-0.0966 0.14345,-0.0966 0.26779,0 0.96593,0.029 1.24327,0.029 0.28691,0 0.99462,-0.029 1.28153,-0.029 0.0765,0 0.19126,0 0.19126,0.17382 0,0.11587 -0.0765,0.11587 -0.2869,0.11587 -0.17215,0 -0.21997,0 -0.41124,0.0193 -0.20084,0.0193 -0.23909,0.058 -0.23909,0.16416 0,0.0773 0.0191,0.1545 0.0383,0.2221 z"
   inkscape:connector-curvature="0"
   style="fill:#000000;stroke-width:0" />
</g>    <g
       ns0:preamble=""
       ns0:text="$$I$$\n"
       word-spacing="normal"
       letter-spacing="normal"
       font-size-adjust="none"
       font-stretch="normal"
       font-weight="normal"
       font-variant="normal"
       font-style="normal"
       stroke-miterlimit="10.433"
       xml:space="preserve"
       transform="matrix(2.5735835,0,0,-2.5991349,-868.23166,2008.2745)"
       id="content-3"
       style="font-style:normal;font-variant:normal;font-weight:normal;font-stretch:normal;letter-spacing:normal;word-spacing:normal;text-anchor:start;fill:none;stroke:#000000;stroke-width:1.54659438;stroke-linecap:butt;stroke-linejoin:miter;stroke-miterlimit:10.43299961;stroke-opacity:1;stroke-dasharray:none;stroke-dashoffset:0;display:inline">
<path
   id="path5985-3"
   d="m 396.43,713.16 0.01,0.03 0.01,0.03 0.01,0.03 0.01,0.03 0.01,0.03 0,0.02 0.01,0.03 0.01,0.02 0.01,0.02 0.02,0.02 0.01,0.02 0.01,0.02 0.02,0.02 0.02,0.01 0.02,0.02 0.02,0.01 0.02,0.01 0.03,0.01 0.02,0.01 0.03,0.01 0.04,0.01 0.01,0.01 0.02,0 0.02,0 0.02,0.01 0.02,0 0.02,0 0.02,0.01 0.03,0 0.02,0 0.02,0 0.03,0 0.03,0.01 0.02,0 0.03,0 0.03,0 0.03,0 0.03,0 0.03,0 0.04,0 0.03,0 0.04,0 0.03,0 c 0.24,0 0.32,0 0.32,0.19 0,0.12 -0.11,0.12 -0.15,0.12 -0.29,0 -1.03,-0.03 -1.31,-0.03 -0.3,0 -1.03,0.03 -1.33,0.03 -0.07,0 -0.2,0 -0.2,-0.2 0,-0.11 0.09,-0.11 0.28,-0.11 0.42,0 0.69,0 0.69,-0.19 0,-0.04 0,-0.07 -0.02,-0.15 l -1.35,-5.37 c -0.09,-0.37 -0.12,-0.47 -0.91,-0.47 -0.22,0 -0.31,0 -0.31,-0.2 0,-0.1 0.12,-0.1 0.15,-0.1 0.28,0 1.01,0.03 1.3,0.03 0.3,0 1.04,-0.03 1.34,-0.03 0.08,0 0.2,0 0.2,0.18 0,0.12 -0.08,0.12 -0.3,0.12 -0.18,0 -0.23,0 -0.43,0.02 -0.21,0.02 -0.25,0.06 -0.25,0.17 0,0.08 0.02,0.16 0.04,0.23 z"
   inkscape:connector-curvature="0"
   style="fill:#000000;stroke-width:0" />
</g>    <g
       style="font-style:normal;font-variant:normal;font-weight:normal;font-stretch:normal;letter-spacing:normal;word-spacing:normal;text-anchor:start;fill:none;stroke:#000000;stroke-width:1.53154492;stroke-linecap:butt;stroke-linejoin:miter;stroke-miterlimit:10.43299961;stroke-opacity:1;stroke-dasharray:none;stroke-dashoffset:0"
       ns0:preamble=""
       ns0:text="$$r$$\n\n"
       word-spacing="normal"
       letter-spacing="normal"
       font-size-adjust="none"
       font-stretch="normal"
       font-weight="normal"
       font-variant="normal"
       font-style="normal"
       stroke-miterlimit="10.433"
       xml:space="preserve"
       transform="matrix(2.6132081,0,0,-2.6102764,-929.15878,2070.5536)"
       id="g8513">
<path
   id="path8515"
   d="m 393.78,707.71 0,-0.01 -0.01,-0.02 0,-0.01 0,-0.02 -0.01,-0.03 -0.01,-0.03 0,-0.03 -0.01,-0.04 -0.01,-0.03 -0.01,-0.03 0,-0.01 0,-0.02 -0.01,-0.01 0,-0.02 0,-0.01 -0.01,-0.01 0,-0.02 0,-0.01 0,-0.01 0,-0.01 -0.01,-0.01 0,-0.01 0,-0.01 0,0 0,-0.01 0,-0.01 c 0,-0.18 0.14,-0.26 0.29,-0.26 0.12,0 0.3,0.07 0.37,0.27 0.02,0.04 0.36,1.4 0.4,1.58 0.08,0.33 0.26,1.02 0.32,1.29 0.04,0.13 0.31,0.6 0.55,0.82 0.08,0.07 0.37,0.32 0.8,0.32 0.26,0 0.41,-0.11 0.42,-0.11 -0.3,-0.05 -0.52,-0.29 -0.52,-0.55 0,-0.16 0.11,-0.35 0.38,-0.35 0.27,0 0.55,0.23 0.55,0.59 0,0.34 -0.32,0.64 -0.83,0.64 -0.65,0 -1.09,-0.48 -1.28,-0.76 -0.07,0.45 -0.43,0.76 -0.9,0.76 -0.46,0 -0.65,-0.38 -0.74,-0.56 -0.18,-0.34 -0.31,-0.94 -0.31,-0.97 0,-0.1 0.1,-0.1 0.12,-0.1 0.1,0 0.11,0.01 0.17,0.23 0.17,0.71 0.37,1.18 0.73,1.18 0.17,0 0.31,-0.08 0.31,-0.45 0,-0.21 -0.03,-0.32 -0.16,-0.84 z"
   inkscape:connector-curvature="0"
   style="fill:#000000;stroke-width:0" />
</g>    <path
       sodipodi:type="arc"
       style="fill:none;stroke:#c20000;stroke-width:4.45878506;stroke-linecap:round;stroke-miterlimit:4;stroke-opacity:1;stroke-dasharray:4.45878525, 8.9175705;stroke-dashoffset:0;marker-start:none"
       id="path8551"
       sodipodi:cx="250.25641"
       sodipodi:cy="231.1282"
       sodipodi:rx="116.51282"
       sodipodi:ry="116.51282"
       d="m 366.76923,231.1282 a 116.51282,116.51282 0 1 1 -233.02564,0 116.51282,116.51282 0 1 1 233.02564,0 z"
       transform="matrix(0.67275451,0,0,0.67290349,-19.615235,95.13071)" />
    <path
       style="fill:none;stroke:#000000;stroke-width:2;stroke-linecap:butt;stroke-linejoin:miter;stroke-miterlimit:4;stroke-opacity:1;stroke-dasharray:none;marker-end:url(#Arrow1Mend)"
       d="M 141.69338,247.31511 79.30345,221.90231"
       id="path9446"
       inkscape:connector-curvature="0"
       sodipodi:nodetypes="cc" />
  </g>
  <g
     style="display:inline"
     inkscape:label="proud"
     id="layer7"
     inkscape:groupmode="layer"
     transform="translate(0,-100)">
    <g
       transform="matrix(0.67275451,0,0,0.67290349,14.332993,125.3251)"
       id="g5936">
      <path
         sodipodi:type="arc"
         style="fill:#ffffff;fill-opacity:1;stroke:#000000;stroke-width:1.48626173;stroke-miterlimit:4;stroke-opacity:1;stroke-dasharray:none;stroke-dashoffset:0"
         id="path5859"
         sodipodi:cx="207.1279"
         sodipodi:cy="199.83438"
         sodipodi:rx="11.603804"
         sodipodi:ry="11.603804"
         d="m 218.7317,199.83438 c 0,6.4086 -5.1952,11.6038 -11.6038,11.6038 -6.4086,0 -11.6038,-5.1952 -11.6038,-11.6038 0,-6.4086 5.1952,-11.6038 11.6038,-11.6038 6.4086,0 11.6038,5.1952 11.6038,11.6038 z"
         transform="translate(-6.5271445,-16.390366)" />
      <path
         style="fill:none;stroke:#000000;stroke-width:1.48626173px;stroke-linecap:butt;stroke-linejoin:miter;stroke-opacity:1"
         d="m 192.51436,175.03126 16.24532,16.24532"
         id="path5926"
         inkscape:connector-curvature="0" />
      <path
         style="fill:none;stroke:#000000;stroke-width:1.48626173px;stroke-linecap:butt;stroke-linejoin:miter;stroke-opacity:1"
         d="m 192.22425,191.42163 16.39038,-16.24532"
         id="path5928"
         inkscape:connector-curvature="0" />
    </g>
    <path
       transform="matrix(0.67275451,0,0,0.67290349,9.399666,7.316079)"
       d="m 218.7317,199.83438 a 11.603804,11.603804 0 1 1 -23.2076,0 11.603804,11.603804 0 1 1 23.2076,0 z"
       sodipodi:ry="11.603804"
       sodipodi:rx="11.603804"
       sodipodi:cy="199.83438"
       sodipodi:cx="207.1279"
       id="path5859-3"
       style="fill:#ffffff;fill-opacity:1;stroke:#000000;stroke-width:1.48626173;stroke-miterlimit:4;stroke-opacity:1;stroke-dasharray:none;stroke-dashoffset:0"
       sodipodi:type="arc" />
    <path
       transform="matrix(1.0935742,0,0,1.0938165,-76.94389,101.74524)"
       d="m 206.97436,36.461536 a 0.66666669,0.66666669 0 1 1 -1.33333,0 0.66666669,0.66666669 0 1 1 1.33333,0 z"
       sodipodi:ry="0.66666669"
       sodipodi:rx="0.66666669"
       sodipodi:cy="36.461536"
       sodipodi:cx="206.30769"
       id="path5971"
       style="fill:#000000;fill-opacity:1;stroke:#000000;stroke-width:0.91433144;stroke-miterlimit:4;stroke-opacity:1;stroke-dasharray:none;stroke-dashoffset:0"
       sodipodi:type="arc" />
  </g>
</svg>
