<?xml version="1.0" encoding="UTF-8" standalone="no"?>
<!-- Created with Inkscape (http://www.inkscape.org/) -->

<svg
   xmlns:ns0="http://www.iki.fi/pav/software/textext/"
   xmlns:dc="http://purl.org/dc/elements/1.1/"
   xmlns:cc="http://creativecommons.org/ns#"
   xmlns:rdf="http://www.w3.org/1999/02/22-rdf-syntax-ns#"
   xmlns:svg="http://www.w3.org/2000/svg"
   xmlns="http://www.w3.org/2000/svg"
   xmlns:sodipodi="http://sodipodi.sourceforge.net/DTD/sodipodi-0.dtd"
   xmlns:inkscape="http://www.inkscape.org/namespaces/inkscape"
   id="svg14816"
   version="1.1"
   inkscape:version="0.48.0 r9654"
   width="420"
   height="380"
   xml:space="preserve"
   sodipodi:docname="fey_skalarni_pole.svg"><sodipodi:namedview
     pagecolor="#ffffff"
     bordercolor="#666666"
     borderopacity="1"
     objecttolerance="10"
     gridtolerance="10"
     guidetolerance="10"
     inkscape:pageopacity="0"
     inkscape:pageshadow="2"
     inkscape:window-width="1917"
     inkscape:window-height="1125"
     id="namedview14818"
     showgrid="false"
     inkscape:zoom="2.5473684"
     inkscape:cx="255.21766"
     inkscape:cy="108.58552"
     inkscape:window-x="-9"
     inkscape:window-y="-9"
     inkscape:window-maximized="1"
     inkscape:current-layer="g14824" /><metadata
     id="metadata14822"><rdf:RDF><cc:Work
         rdf:about=""><dc:format>image/svg+xml</dc:format><dc:type
           rdf:resource="http://purl.org/dc/dcmitype/StillImage" /><dc:title /></cc:Work></rdf:RDF></metadata><defs
     id="defs14820" /><g
     transform="matrix(1.25,0,0,-1.25,0,380)"
     inkscape:label="fey_skalarni_pole"
     inkscape:groupmode="layer"
     id="g14824"><g
   id="g14826"><g
   transform="matrix(1,0,0,-1,0,304)"
   id="g14828"><path
     id="path14830"
     style="fill:none;stroke:#000000;stroke-opacity:1;stroke-width:1.2;stroke-linecap:round;stroke-linejoin:round;stroke-miterlimit:10;stroke-dasharray:none"
     d="m 19.363,24.066 0,273" /></g><path
   id="path14832"
   style="fill:#000000;fill-opacity:1;fill-rule:evenodd;stroke:none"
   d="m 15.762,279.332 3.601,10.801 3.598,-10.801 -7.199,0 z" /><g
   transform="matrix(1,0,0,-1,0,304)"
   id="g14834"><path
     id="path14836"
     style="fill:none;stroke:#000000;stroke-opacity:1;stroke-width:1.276346;stroke-linecap:round;stroke-linejoin:round;stroke-miterlimit:10;stroke-dasharray:none"
     d="m 4.961,282.668 309.523,0" /></g><path
   id="path14838"
   style="fill:#000000;fill-opacity:1;fill-rule:evenodd;stroke:none"
   d="m 313.934,25.219 11.398,-3.602 -11.398,-4.199 0,7.801 z" /><g
   transform="matrix(1,0,0,-1,0,304)"
   id="g14840"><path
     id="path14842"
     style="fill:none;stroke:#ff0000;stroke-opacity:1;stroke-width:1.2;stroke-linecap:round;stroke-linejoin:round;stroke-miterlimit:10;stroke-dasharray:none"
     d="m 33.41,50.898 c 35,-6.402 44.832,18.188 61.551,36.77 l 0.25,0.02 c 37.062,40.648 108.133,52.718 164.75,47.98" /></g><g
   transform="matrix(1,0,0,-1,0,304)"
   id="g14844"><path
     id="path14846"
     style="fill:none;stroke:#d23c00;stroke-opacity:1;stroke-width:1.2;stroke-linecap:round;stroke-linejoin:round;stroke-miterlimit:10;stroke-dasharray:none"
     d="m 33.41,102.426 c 36.762,2.211 52.391,45.351 82.551,56.64 l 0.109,0.129 c 18.571,7.012 42.653,2.094 63.493,4.672 l -0.04,-0.058 c 28.29,3.437 50.528,20.648 80.438,15.058" /></g><g
   transform="matrix(1,0,0,-1,0,304)"
   id="g14848"><path
     id="path14850"
     style="fill:none;stroke:#7e006c;stroke-opacity:1;stroke-width:1.2;stroke-linecap:round;stroke-linejoin:round;stroke-miterlimit:10;stroke-dasharray:none"
     d="m 33.41,134.617 c 27.75,-1.359 19.762,27.031 25.551,43.051 l 0.09,-0.121 c 5.672,15.32 24.23,19.031 43.711,19.32 l 0.011,0.11 c 27.321,0.57 56.457,-5.36 77.989,-0.11 l 0.23,-0.262 c 12.918,2.973 23.238,9.782 32.77,20.063 l 0.16,-0.121 c 12.578,13.172 24.109,31.969 46.039,24.121" /></g><g
   transform="matrix(1,0,0,-1,0,304)"
   id="g14852"><path
     id="path14854"
     style="fill:none;stroke:#0000d5;stroke-opacity:1;stroke-width:1.2;stroke-linecap:round;stroke-linejoin:round;stroke-miterlimit:10;stroke-dasharray:none"
     d="m 33.41,183.758 c 29.082,5.609 19.602,45.711 30.352,62.91 l -0.012,0.18 c 7.172,11.609 23.371,13.078 40.211,11.218 l -0.199,0.11 c 28.422,-3 58.172,-15.387 80.601,-10.309 l 0.16,-0.039 c 23.579,5.27 39.379,29.52 75.438,12.641" /></g><text
   id="text14856"
   transform="matrix(1,0,0,-1,266.54187,162.00288)"><tspan
     id="tspan14858"
     sodipodi:role="line"
     y="0"
     x="0 7.3201464 14.31628632 20.98841976 27.6605532 32.44864896"
     style="fill:#000000;fill-opacity:1;fill-rule:nonzero;stroke:none;font-family:Arial;font-variant:normal;font-weight:normal;font-size:12.00024;writing-mode:lr;-inkscape-font-specification:Arial">T=40째C</tspan><tspan
     id="tspan14860"
     sodipodi:role="line"
     y="39.68999"
     x="0 7.3201464 14.31628632 20.98841976 27.6605532 32.44864896"
     style="fill:#000000;fill-opacity:1;fill-rule:nonzero;stroke:none;font-family:Arial;font-variant:normal;font-weight:normal;font-size:12.00024;writing-mode:lr;-inkscape-font-specification:Arial">T=30째C</tspan><tspan
     id="tspan14862"
     sodipodi:role="line"
     y="101.23032"
     x="2.21813636 9.53828276 16.53442268 23.20655612 29.87868956 34.66678532"
     style="fill:#000000;fill-opacity:1;fill-rule:nonzero;stroke:none;font-family:Arial;font-variant:normal;font-weight:normal;font-size:12.00024;writing-mode:lr;-inkscape-font-specification:Arial">T=20째C</tspan><tspan
     id="tspan14864"
     sodipodi:role="line"
     y="120.69096"
     x="2.62218924 9.94233564 16.93847556 23.610609 30.28274244 35.0708382"
     style="fill:#000000;fill-opacity:1;fill-rule:nonzero;stroke:none;font-family:Arial;font-variant:normal;font-weight:normal;font-size:12.00024;writing-mode:lr;-inkscape-font-specification:Arial">T=10째C</tspan></text>


<text
   id="text14866"
   transform="matrix(1,0,0,-1,142.91898,195.17578)"><tspan
     id="tspan14868"
     sodipodi:role="line"
     y="0"
     x="0 8.66417328 17.98835976 26.65253304 34.64469288"
     style="fill:#ff0000;fill-opacity:1;fill-rule:nonzero;stroke:none;font-family:Arial;font-variant:normal;font-weight:normal;font-size:12.00024;writing-mode:lr;-inkscape-font-specification:Arial">HORKO</tspan></text>


<text
   id="text14870"
   transform="matrix(1,0,0,-1,38.501859,31.61284)"><tspan
     id="tspan14872"
     sodipodi:role="line"
     y="0"
     x="0 8.66417328 17.32834656 24.00048 31.99263984"
     style="fill:#00b0f0;fill-opacity:1;fill-rule:nonzero;stroke:none;font-family:Arial;font-variant:normal;font-weight:normal;font-size:12.00024;writing-mode:lr;-inkscape-font-specification:Arial">CHLAD</tspan></text>


<g
   transform="matrix(1,0,0,-1,0,304)"
   id="g14874"><path
     id="path14876"
     style="fill:none;stroke:#000000;stroke-opacity:1;stroke-width:1.2;stroke-linecap:round;stroke-linejoin:round;stroke-miterlimit:10;stroke-dasharray:none"
     d="M 54.762,85.867 67.363,73.266" /></g><path
   id="path14878"
   style="fill:#000000;fill-opacity:1;fill-rule:evenodd;stroke:none"
   d="m 58.363,216.332 -10.8,-5.398 5.398,10.8 5.402,-5.402 z" /><g
   transform="matrix(1,0,0,-1,0,304)"
   id="g14880"><path
     id="path14882"
     style="fill:none;stroke:#000000;stroke-opacity:1;stroke-width:1.2;stroke-linecap:round;stroke-linejoin:round;stroke-miterlimit:10;stroke-dasharray:none"
     d="M 125.563,142.266 138.16,129.668" /></g><path
   id="path14884"
   style="fill:#000000;fill-opacity:1;fill-rule:evenodd;stroke:none"
   d="m 129.16,159.332 -10.797,-4.801 5.399,10.203 5.398,-5.402 z" /><g
   transform="matrix(1,0,0,-1,0,304)"
   id="g14886"><path
     id="path14888"
     style="fill:none;stroke:#000000;stroke-opacity:1;stroke-width:1.2;stroke-linecap:round;stroke-linejoin:round;stroke-miterlimit:10;stroke-dasharray:none"
     d="m 225.16,156.668 12.602,-12.602" /></g><path
   id="path14890"
   style="fill:#000000;fill-opacity:1;fill-rule:evenodd;stroke:none"
   d="m 228.16,145.531 -10.199,-5.398 4.801,10.199 5.398,-4.801 z" /><g
   transform="matrix(1,0,0,-1,0,304)"
   id="g14892"><path
     id="path14894"
     style="fill:none;stroke:#000000;stroke-opacity:1;stroke-width:1.2;stroke-linecap:round;stroke-linejoin:round;stroke-miterlimit:10;stroke-dasharray:none"
     d="M 69.16,162.066 81.762,149.469" /></g><path
   id="path14896"
   style="fill:#000000;fill-opacity:1;fill-rule:evenodd;stroke:none"
   d="m 72.16,139.531 -10.199,-5.398 4.801,10.801 5.398,-5.403 z" /><g
   transform="matrix(1,0,0,-1,0,304)"
   id="g14898"><path
     id="path14900"
     style="fill:none;stroke:#000000;stroke-opacity:1;stroke-width:1.2;stroke-linecap:round;stroke-linejoin:round;stroke-miterlimit:10;stroke-dasharray:none"
     d="m 139.961,182.469 12.602,-12.602" /></g><path
   id="path14902"
   style="fill:#000000;fill-opacity:1;fill-rule:evenodd;stroke:none"
   d="m 142.961,119.734 -10.199,-5.402 5.398,10.801 4.801,-5.399 z" /><g
   transform="matrix(1,0,0,-1,0,304)"
   id="g14904"><path
     id="path14906"
     style="fill:none;stroke:#000000;stroke-opacity:1;stroke-width:1.2;stroke-linecap:round;stroke-linejoin:round;stroke-miterlimit:10;stroke-dasharray:none"
     d="M 233.563,210.668 246.16,198.066" /></g><path
   id="path14908"
   style="fill:#000000;fill-opacity:1;fill-rule:evenodd;stroke:none"
   d="m 236.563,91.531 -10.2,-5.398 4.797,10.801 5.403,-5.403 z" /><g
   transform="matrix(1,0,0,-1,0,304)"
   id="g14910"><path
     id="path14912"
     style="fill:none;stroke:#000000;stroke-opacity:1;stroke-width:1.2;stroke-linecap:round;stroke-linejoin:round;stroke-miterlimit:10;stroke-dasharray:none"
     d="m 37.961,166.266 9.602,-19.2" /></g><path
   id="path14914"
   style="fill:#000000;fill-opacity:1;fill-rule:evenodd;stroke:none"
   d="m 41.563,137.133 -8.403,-8.399 1.801,11.399 6.602,-3 z" /><g
   transform="matrix(1,0,0,-1,0,304)"
   id="g14916"><path
     id="path14918"
     style="fill:none;stroke:#000000;stroke-opacity:1;stroke-width:1.2;stroke-linecap:round;stroke-linejoin:round;stroke-miterlimit:10;stroke-dasharray:none"
     d="m 102.961,214.723 8.402,-12" /></g><path
   id="path14920"
   style="fill:#000000;fill-opacity:1;fill-rule:evenodd;stroke:none"
   d="m 106.563,88.074 -9.602,-6.597 3.602,10.8 6,-4.203 z" /><g
   transform="matrix(1,0,0,-1,0,304)"
   id="g14922"><path
     id="path14924"
     style="fill:none;stroke:#000000;stroke-opacity:1;stroke-width:1.2;stroke-linecap:round;stroke-linejoin:round;stroke-miterlimit:10;stroke-dasharray:none"
     d="m 170.617,227.637 9.602,-19.199" /></g><path
   id="path14926"
   style="fill:#000000;fill-opacity:1;fill-rule:evenodd;stroke:none"
   d="m 174.219,75.16 -8.399,-8.398 1.797,12 6.602,-3.602 z" /><text
   id="text14928"
   transform="matrix(1,0,0,-1,23.027565,287.40576)"><tspan
     id="tspan14930"
     y="0"
     x="0"
     style="fill:#000000;fill-opacity:1;fill-rule:nonzero;stroke:none;font-family:Arial;font-variant:normal;font-weight:normal;font-size:18;writing-mode:lr;-inkscape-font-specification:Arial">y</tspan><tspan
     id="tspan14932"
     y="283.92579"
     x="-18.406854"
     style="fill:#000000;fill-opacity:1;fill-rule:nonzero;stroke:none;font-family:Arial;font-variant:normal;font-weight:normal;font-size:18;writing-mode:lr;-inkscape-font-specification:Arial">0</tspan></text>


<path
   id="path14934"
   style="fill:#000000;fill-opacity:1;fill-rule:nonzero;stroke:none"
   d="m 75.973,64.984 0,0.032 0.015,0.047 0,0.031 0.02,0.031 0.015,0.031 0,0.032 0.016,0.031 0,0.031 0.016,0.016 0.015,0.031 0,0.016 0.016,0.031 0,0.015 0.016,0.016 0,0.016 0.015,0.015 0.016,0.016 0,0.016 0.015,0.015 0.016,0.016 0.016,0.015 0,0 0.015,0.016 0.016,0 0.016,0.016 0.015,0 0,0.015 0.016,0 0.015,0 0.016,0.016 0.016,0 0.015,0 c 0.141,0.031 0.657,0.031 0.985,0.031 1.578,0 2.281,-0.047 2.281,-1.265 0,-0.235 -0.063,-0.844 -0.125,-1.25 -0.016,-0.063 -0.047,-0.25 -0.047,-0.297 0,-0.098 0.047,-0.207 0.188,-0.207 0.171,0 0.203,0.129 0.234,0.363 l 0.422,2.703 c 0.015,0.063 0.031,0.219 0.031,0.266 0,0.172 -0.156,0.172 -0.422,0.172 l -8.644,0 c -0.375,0 -0.391,-0.016 -0.5,-0.313 l -0.938,-2.734 c -0.015,-0.032 -0.094,-0.25 -0.094,-0.282 0,-0.097 0.079,-0.175 0.188,-0.175 0.156,0 0.172,0.078 0.266,0.332 0.843,2.422 1.234,2.687 3.546,2.687 l 0.61,0 c 0.437,0 0.437,-0.047 0.437,-0.187 0,-0.078 -0.047,-0.266 -0.062,-0.313 l -2.094,-8.316 c -0.141,-0.578 -0.187,-0.75 -1.844,-0.75 -0.562,0 -0.656,0 -0.656,-0.297 0,-0.172 0.172,-0.172 0.266,-0.172 0.422,0 0.843,0.031 1.265,0.031 0.438,0 0.891,0.016 1.328,0.016 0.438,0 0.875,-0.016 1.297,-0.016 0.453,0 0.922,-0.031 1.36,-0.031 0.156,0 0.343,0 0.343,0.297 0,0.172 -0.125,0.172 -0.531,0.172 -0.39,0 -0.594,0 -1,0.031 -0.453,0.047 -0.578,0.094 -0.578,0.344 0,0.015 0,0.093 0.063,0.328 l 2.078,8.269 z" /><path
   id="path14936"
   style="fill:#000000;fill-opacity:1;fill-rule:nonzero;stroke:none"
   d="m 85.746,51.805 -0.016,0 0,0.015 0,0 0,0 0,0.016 0,0 0,0 0,0.016 0,0 0,0 -0.015,0.015 0,0 0,0.016 -0.016,0 0,0.015 -0.015,0.016 0,0 -0.016,0.016 0,0 0,0.015 -0.016,0 0,0.016 0,0 -0.015,0 0,0.016 -0.016,0 0,0.015 -0.016,0 0,0.016 -0.015,0 0,0.015 -0.016,0.016 0,0 -0.015,0.016 -0.016,0 0,0.015 -0.016,0.016 -0.015,0.016 0,0 -0.016,0.015 -0.016,0.016 -0.015,0.015 c -1.942,1.954 -2.442,4.895 -2.442,7.27 0,2.703 0.594,5.426 2.52,7.363 0.203,0.188 0.203,0.219 0.203,0.266 0,0.109 -0.062,0.156 -0.156,0.156 -0.172,0 -1.567,-1.062 -2.488,-3.031 -0.797,-1.723 -0.985,-3.442 -0.985,-4.754 0,-1.203 0.172,-3.094 1.031,-4.844 0.938,-1.926 2.27,-2.926 2.442,-2.926 0.094,0 0.156,0.047 0.156,0.157 z" /><path
   id="path14938"
   style="fill:#000000;fill-opacity:1;fill-rule:nonzero;stroke:none"
   d="m 91.84,60.23 0,0.047 0.015,0.047 0.016,0.047 0.016,0.063 0.015,0.046 0.016,0.079 0.016,0.062 0.031,0.063 0.031,0.078 0.016,0.078 0.031,0.078 0.031,0.078 0.047,0.078 0.031,0.078 0.047,0.078 0.031,0.063 0.047,0.078 0.047,0.078 0.063,0.078 0.051,0.063 0.062,0.062 0.063,0.063 0.062,0.062 0.078,0.063 0.063,0.047 0.078,0.047 0.047,0.015 0.031,0.016 0.047,0.031 0.031,0.016 0.047,0 0.047,0.015 0.047,0.016 0.047,0 0.046,0.016 0.047,0 0.047,0 0.047,0 c 0.094,0 0.453,0 0.781,-0.188 -0.437,-0.078 -0.734,-0.469 -0.734,-0.844 0,-0.25 0.156,-0.547 0.578,-0.547 0.344,0 0.844,0.282 0.844,0.907 0,0.812 -0.922,1.015 -1.438,1.015 -0.906,0 -1.457,-0.812 -1.644,-1.172 -0.391,1.016 -1.235,1.172 -1.688,1.172 -1.609,0 -2.5,-2 -2.5,-2.39 0,-0.157 0.156,-0.157 0.188,-0.157 0.125,0 0.172,0.032 0.203,0.172 0.515,1.657 1.547,2.032 2.078,2.032 0.297,0 0.844,-0.125 0.844,-1.032 0,-0.484 -0.266,-1.531 -0.844,-3.703 -0.25,-0.969 -0.797,-1.625 -1.469,-1.625 -0.094,0 -0.453,0 -0.781,0.203 0.391,0.078 0.734,0.407 0.734,0.844 0,0.422 -0.343,0.547 -0.578,0.547 -0.469,0 -0.859,-0.406 -0.859,-0.906 0,-0.703 0.781,-1.016 1.453,-1.016 1.031,0 1.594,1.078 1.641,1.172 0.187,-0.578 0.75,-1.172 1.687,-1.172 1.598,0 2.488,2 2.488,2.391 0,0.156 -0.14,0.156 -0.187,0.156 -0.141,0 -0.172,-0.063 -0.203,-0.172 -0.5,-1.672 -1.563,-2.047 -2.067,-2.047 -0.609,0 -0.859,0.5 -0.859,1.031 0,0.344 0.094,0.688 0.266,1.375 l 0.531,2.125 z" /><path
   id="path14940"
   style="fill:#000000;fill-opacity:1;fill-rule:nonzero;stroke:none"
   d="m 98.703,55.559 0,0.093 -0.015,0.094 0,0.078 -0.016,0.094 0,0.078 -0.016,0.094 -0.015,0.078 -0.016,0.078 -0.016,0.063 -0.015,0.078 -0.031,0.062 -0.016,0.063 -0.031,0.062 -0.032,0.063 -0.031,0.062 -0.031,0.047 -0.031,0.063 -0.032,0.046 -0.031,0.047 -0.047,0.032 -0.031,0.046 -0.047,0.032 -0.047,0.031 -0.047,0.031 -0.046,0.031 -0.047,0.016 -0.047,0.016 -0.047,0.015 -0.063,0.016 -0.046,0.016 -0.063,0 -0.047,0 c -0.515,0 -0.828,-0.391 -0.828,-0.829 0,-0.421 0.313,-0.812 0.828,-0.812 0.188,0 0.391,0.047 0.547,0.187 0.047,0.032 0.063,0.047 0.078,0.047 0.016,0 0.031,-0.015 0.031,-0.218 0,-1.161 -0.546,-2.098 -1.062,-2.614 -0.172,-0.172 -0.172,-0.203 -0.172,-0.25 0,-0.109 0.078,-0.172 0.156,-0.172 0.172,0 1.422,1.204 1.422,3.036 z" /><path
   id="path14942"
   style="fill:#000000;fill-opacity:1;fill-rule:nonzero;stroke:none"
   d="m 110.039,61.465 0,0 0,0.015 0,0.016 0.016,0 0,0.016 0,0.015 0,0.016 0.015,0.016 0,0.015 0,0.016 0,0.015 0.016,0.016 0,0.016 0,0 0,0.015 0,0.016 0,0 0,0.016 0,0 0,0.015 0.016,0.016 0,0.015 0,0.016 0,0.016 0,0.015 0,0.016 0,0 0,0.016 0,0.015 c 0,0.281 -0.219,0.406 -0.454,0.406 -0.156,0 -0.406,-0.093 -0.546,-0.312 -0.032,-0.078 -0.157,-0.563 -0.219,-0.844 -0.113,-0.406 -0.223,-0.828 -0.317,-1.25 l -0.703,-2.797 c -0.062,-0.234 -0.734,-1.328 -1.75,-1.328 -0.797,0 -0.968,0.688 -0.968,1.266 0,0.719 0.265,1.687 0.796,3.047 0.25,0.64 0.313,0.812 0.313,1.125 0,0.703 -0.5,1.265 -1.281,1.265 -1.485,0 -2.063,-2.25 -2.063,-2.39 0,-0.157 0.156,-0.157 0.188,-0.157 0.156,0 0.172,0.032 0.25,0.282 0.422,1.468 1.047,1.922 1.578,1.922 0.125,0 0.39,0 0.39,-0.485 0,-0.39 -0.156,-0.797 -0.265,-1.094 -0.625,-1.656 -0.906,-2.531 -0.906,-3.265 0,-1.391 0.984,-1.844 1.906,-1.844 0.609,0 1.125,0.25 1.562,0.688 -0.203,-0.797 -0.39,-1.563 -1,-2.395 -0.406,-0.531 -1,-0.984 -1.718,-0.984 -0.219,0 -0.922,0.047 -1.188,0.656 0.25,0 0.453,0 0.672,0.187 0.156,0.141 0.312,0.344 0.312,0.641 0,0.488 -0.421,0.551 -0.578,0.551 -0.359,0 -0.875,-0.254 -0.875,-1.02 0,-0.781 0.688,-1.343 1.657,-1.343 1.609,0 3.203,1.406 3.64,3.16 l 1.504,5.953 z" /><path
   id="path14944"
   style="fill:#000000;fill-opacity:1;fill-rule:nonzero;stroke:none"
   d="m 113.82,55.559 0,0.093 0,0.094 -0.015,0.078 0,0.094 -0.016,0.078 0,0.094 -0.016,0.078 -0.015,0.078 -0.031,0.063 -0.016,0.078 -0.016,0.062 -0.031,0.063 -0.016,0.062 -0.031,0.063 -0.031,0.062 -0.031,0.047 -0.032,0.063 -0.046,0.046 -0.032,0.047 -0.031,0.032 -0.047,0.046 -0.047,0.032 -0.031,0.031 -0.047,0.031 -0.047,0.031 -0.047,0.016 -0.062,0.016 -0.047,0.015 -0.047,0.016 -0.062,0.016 -0.047,0 -0.063,0 c -0.515,0 -0.828,-0.391 -0.828,-0.829 0,-0.421 0.313,-0.812 0.828,-0.812 0.188,0 0.391,0.047 0.547,0.187 0.047,0.032 0.063,0.047 0.078,0.047 0.016,0 0.032,-0.015 0.032,-0.218 0,-1.161 -0.547,-2.098 -1.063,-2.614 -0.172,-0.172 -0.172,-0.203 -0.172,-0.25 0,-0.109 0.078,-0.172 0.156,-0.172 0.172,0 1.422,1.204 1.422,3.036 z" /><path
   id="path14946"
   style="fill:#000000;fill-opacity:1;fill-rule:nonzero;stroke:none"
   d="m 119.637,56.824 0.078,0.078 0.078,0.094 0.078,0.063 0.078,0.078 0.063,0.078 0.062,0.062 0.078,0.078 0.063,0.063 0.062,0.062 0.063,0.063 0.047,0.062 0.062,0.047 0.063,0.063 0.047,0.047 0.125,0.109 0.093,0.094 0.11,0.094 0.109,0.093 0.094,0.094 0.203,0.172 0.094,0.094 0.109,0.093 c 0,0.016 0.969,0.829 1.531,1.391 1.469,1.453 1.813,2.203 1.813,2.25 0,0.156 -0.141,0.156 -0.172,0.156 -0.109,0 -0.156,-0.031 -0.234,-0.172 -0.454,-0.734 -0.782,-0.984 -1.157,-0.984 -0.375,0 -0.562,0.234 -0.797,0.5 -0.296,0.359 -0.562,0.656 -1.078,0.656 -1.172,0 -1.89,-1.437 -1.89,-1.765 0,-0.078 0.047,-0.172 0.187,-0.172 0.141,0 0.172,0.078 0.203,0.172 0.297,0.718 1.203,0.734 1.328,0.734 0.329,0 0.625,-0.109 0.985,-0.234 0.625,-0.235 0.797,-0.235 1.203,-0.235 -0.563,-0.672 -1.875,-1.797 -2.172,-2.031 l -1.406,-1.312 c -1.047,-1.047 -1.594,-1.938 -1.594,-2.047 0,-0.141 0.156,-0.141 0.188,-0.141 0.125,0 0.156,0.016 0.25,0.203 0.359,0.531 0.812,0.953 1.312,0.953 0.359,0 0.516,-0.14 0.906,-0.593 0.266,-0.329 0.547,-0.563 1,-0.563 1.547,0 2.438,1.969 2.438,2.391 0,0.078 -0.047,0.156 -0.188,0.156 -0.125,0 -0.156,-0.094 -0.203,-0.203 -0.359,-1.016 -1.359,-1.313 -1.875,-1.313 -0.312,0 -0.594,0.094 -0.922,0.203 -0.531,0.204 -0.765,0.266 -1.093,0.266 -0.032,0 -0.282,0 -0.422,-0.047 z" /><path
   id="path14948"
   style="fill:#000000;fill-opacity:1;fill-rule:nonzero;stroke:none"
   d="m 130,59.418 0,0.125 0,0.109 0,0.125 0,0.125 -0.016,0.266 -0.015,0.281 -0.031,0.281 -0.032,0.297 -0.047,0.313 -0.046,0.297 -0.063,0.328 -0.078,0.328 -0.078,0.328 -0.094,0.332 -0.109,0.328 -0.125,0.328 -0.063,0.172 -0.078,0.172 -0.062,0.156 -0.079,0.172 c -0.937,1.907 -2.281,2.922 -2.437,2.922 -0.094,0 -0.156,-0.062 -0.156,-0.156 0,-0.047 0,-0.078 0.297,-0.359 1.531,-1.532 2.421,-4.02 2.421,-7.27 0,-2.656 -0.578,-5.395 -2.515,-7.348 -0.203,-0.187 -0.203,-0.218 -0.203,-0.265 0,-0.094 0.062,-0.157 0.156,-0.157 0.156,0 1.562,1.047 2.484,3.036 0.782,1.703 0.969,3.437 0.969,4.734 z" /><text
   id="text14950"
   transform="matrix(1,0,0,-1,323.13154,7.710545)"><tspan
     id="tspan14952"
     y="0"
     x="0"
     style="fill:#000000;fill-opacity:1;fill-rule:nonzero;stroke:none;font-family:Arial;font-variant:normal;font-weight:normal;font-size:18;writing-mode:lr;-inkscape-font-specification:Arial">x</tspan></text>


</g><g
   ns0:preamble=""
   ns0:text="$$\\overrightarrow{h}$$\n"
   word-spacing="normal"
   letter-spacing="normal"
   font-size-adjust="none"
   font-stretch="normal"
   font-weight="normal"
   font-variant="normal"
   font-style="normal"
   stroke-miterlimit="10.433"
   xml:space="preserve"
   transform="matrix(2.4741093,0,0,2.4741093,-869.39077,-1586.2772)"
   id="content"
   style="font-style:normal;font-variant:normal;font-weight:normal;font-stretch:normal;letter-spacing:normal;word-spacing:normal;text-anchor:start;fill:none;stroke:#000000;stroke-linecap:butt;stroke-linejoin:miter;stroke-miterlimit:10.43299961;stroke-opacity:1;stroke-dasharray:none;stroke-dashoffset:0">
<path
   id="path3123"
   d="m 396.88,715.34 0.03,0 0.03,0 0.03,0 0.02,0 0.01,0 0.02,0 0.01,0 0.02,0 0.01,0.01 0.01,0 0.02,0 0.01,0.01 0.01,0 0.02,0.01 0.01,0 0.01,0.01 0.01,0 0.01,0.01 0.01,0.01 0.01,0.01 0,0.01 0.01,0.01 0,0 0,0.01 0.01,0 0,0.01 0,0.01 0,0 0.01,0.01 0,0.01 0,0 0,0.01 0,0.01 0,0.01 0,0.01 0,0.01 0,0 c 0,0.2 -0.17,0.2 -0.34,0.2 h -5.4 c -0.17,0 -0.35,0 -0.35,-0.2 0,-0.19 0.18,-0.19 0.35,-0.19 z"
   inkscape:connector-curvature="0"
   style="fill:#000000;stroke-width:0" />
<path
   id="path3125"
   d="m 398.62,715.34 -0.05,-0.04 -0.05,-0.04 -0.05,-0.04 -0.04,-0.04 -0.05,-0.04 -0.04,-0.04 -0.04,-0.03 -0.04,-0.04 -0.04,-0.04 -0.04,-0.03 -0.03,-0.04 -0.04,-0.04 -0.03,-0.03 -0.03,-0.03 -0.03,-0.04 -0.03,-0.03 -0.02,-0.03 -0.03,-0.03 -0.02,-0.03 -0.03,-0.03 -0.02,-0.03 -0.02,-0.02 -0.02,-0.03 -0.01,-0.02 -0.02,-0.03 -0.01,-0.02 -0.02,-0.02 -0.01,-0.02 -0.01,-0.02 -0.01,-0.01 -0.01,-0.02 -0.01,-0.01 c -0.45,-0.69 -0.53,-1.31 -0.53,-1.32 0,-0.12 0.12,-0.12 0.2,-0.12 0.17,0 0.18,0.02 0.22,0.2 0.23,0.97 0.82,1.81 1.94,2.27 0.12,0.04 0.15,0.06 0.15,0.12 0,0.07 -0.06,0.11 -0.08,0.12 -0.43,0.16 -1.64,0.66 -2.02,2.33 -0.03,0.12 -0.04,0.15 -0.21,0.15 -0.08,0 -0.2,0 -0.2,-0.12 0,-0.02 0.09,-0.64 0.51,-1.31 0.2,-0.3 0.49,-0.65 0.92,-0.97 h -7.41 c -0.18,0 -0.36,0 -0.36,-0.2 0,-0.19 0.18,-0.19 0.36,-0.19 z"
   inkscape:connector-curvature="0"
   style="fill:#000000;stroke-width:0" />
<path
   id="path3127"
   d="m 395.28,713.92 0,0 0,0 0,0.01 0,0 0,0 0,0 0,0.01 0,0 0,0 0,0.01 0,0 -0.01,0.01 0,0 0,0.01 0,0 0,0.01 -0.01,0 0,0.01 0,0 -0.01,0.01 0,0 -0.01,0 0,0 0,0.01 0,0 -0.01,0 0,0 0,0 -0.01,0.01 0,0 0,0 -0.01,0 0,0 0,0 -0.01,0.01 0,0 -0.01,0 0,0 -0.01,0 0,0 -0.01,0 0,0 -0.01,0 -0.01,0 0,0 c -0.23,0 -0.96,-0.08 -1.22,-0.1 -0.08,-0.01 -0.19,-0.02 -0.19,-0.2 0,-0.12 0.09,-0.12 0.24,-0.12 0.48,0 0.5,-0.07 0.5,-0.16 l -0.03,-0.2 -1.44,-5.74 c -0.04,-0.14 -0.04,-0.16 -0.04,-0.22 0,-0.22 0.2,-0.27 0.29,-0.27 0.16,0 0.31,0.12 0.36,0.25 l 0.19,0.76 0.22,0.9 c 0.06,0.22 0.12,0.43 0.17,0.66 0.02,0.06 0.1,0.39 0.11,0.45 0.03,0.09 0.34,0.65 0.68,0.92 0.22,0.16 0.53,0.34 0.96,0.34 0.43,0 0.53,-0.33 0.53,-0.69 0,-0.54 -0.37,-1.62 -0.61,-2.23 -0.08,-0.23 -0.13,-0.35 -0.13,-0.55 0,-0.47 0.35,-0.81 0.81,-0.81 0.94,0 1.31,1.45 1.31,1.53 0,0.1 -0.09,0.1 -0.12,0.1 -0.1,0 -0.1,-0.03 -0.15,-0.18 -0.15,-0.53 -0.47,-1.24 -1.01,-1.24 -0.18,0 -0.24,0.1 -0.24,0.33 0,0.25 0.08,0.49 0.18,0.71 0.15,0.43 0.6,1.61 0.6,2.19 0,0.65 -0.4,1.06 -1.14,1.06 -0.63,0 -1.11,-0.3 -1.48,-0.76 z"
   inkscape:connector-curvature="0"
   style="fill:#000000;stroke-width:0" />
</g>
</g></svg>