<?xml version="1.0" encoding="UTF-8" standalone="no"?>
<!-- Created with Inkscape (http://www.inkscape.org/) -->

<svg
   xmlns:ns1="http://www.iki.fi/pav/software/textext/"
   xmlns:dc="http://purl.org/dc/elements/1.1/"
   xmlns:cc="http://creativecommons.org/ns#"
   xmlns:rdf="http://www.w3.org/1999/02/22-rdf-syntax-ns#"
   xmlns:svg="http://www.w3.org/2000/svg"
   xmlns="http://www.w3.org/2000/svg"
   xmlns:sodipodi="http://sodipodi.sourceforge.net/DTD/sodipodi-0.dtd"
   xmlns:inkscape="http://www.inkscape.org/namespaces/inkscape"
   sodipodi:docname="fyz_fig911b.svg"
   inkscape:version="0.92.4 (5da689c313, 2019-01-14)"
   id="svg8456"
   version="1.1"
   viewBox="0 0 80 22"
   height="22mm"
   width="80mm">
  <defs
     id="defs8450">
    <clipPath
       clipPathUnits="userSpaceOnUse"
       id="clipPath5668">
      <path
         d="m 403.684,185.969 h 9 v 10 h -9 z"
         id="path5666"
         inkscape:connector-curvature="0" />
    </clipPath>
    <clipPath
       clipPathUnits="userSpaceOnUse"
       id="clipPath5674">
      <path
         d="M 0,739.839 H 598.115 V 0 H 0 Z"
         id="path5672"
         inkscape:connector-curvature="0" />
    </clipPath>
    <clipPath
       clipPathUnits="userSpaceOnUse"
       id="clipPath5514">
      <path
         d="m 484.121,209.041 h 9 v 10 h -9 z"
         id="path5512"
         inkscape:connector-curvature="0" />
    </clipPath>
    <clipPath
       clipPathUnits="userSpaceOnUse"
       id="clipPath5520">
      <path
         d="M 0,739.839 H 598.115 V 0 H 0 Z"
         id="path5518"
         inkscape:connector-curvature="0" />
    </clipPath>
    <clipPath
       clipPathUnits="userSpaceOnUse"
       id="clipPath5342">
      <path
         d="m 403.684,276.969 h 9 v 10 h -9 z"
         id="path5340"
         inkscape:connector-curvature="0" />
    </clipPath>
    <clipPath
       clipPathUnits="userSpaceOnUse"
       id="clipPath5348">
      <path
         d="M 0,739.839 H 598.115 V 0 H 0 Z"
         id="path5346"
         inkscape:connector-curvature="0" />
    </clipPath>
    <clipPath
       clipPathUnits="userSpaceOnUse"
       id="clipPath5188">
      <path
         d="m 449.152,300.041 h 9 v 10 h -9 z"
         id="path5186"
         inkscape:connector-curvature="0" />
    </clipPath>
    <clipPath
       clipPathUnits="userSpaceOnUse"
       id="clipPath5194">
      <path
         d="M 0,739.839 H 598.115 V 0 H 0 Z"
         id="path5192"
         inkscape:connector-curvature="0" />
    </clipPath>
    <clipPath
       clipPathUnits="userSpaceOnUse"
       id="clipPath5022">
      <path
         d="m 403.684,354.969 h 9 v 10 h -9 z"
         id="path5020"
         inkscape:connector-curvature="0" />
    </clipPath>
    <clipPath
       clipPathUnits="userSpaceOnUse"
       id="clipPath5028">
      <path
         d="M 0,739.839 H 598.115 V 0 H 0 Z"
         id="path5026"
         inkscape:connector-curvature="0" />
    </clipPath>
    <clipPath
       clipPathUnits="userSpaceOnUse"
       id="clipPath4868">
      <path
         d="m 429.934,378.041 h 9 v 10 h -9 z"
         id="path4866"
         inkscape:connector-curvature="0" />
    </clipPath>
    <clipPath
       clipPathUnits="userSpaceOnUse"
       id="clipPath4874">
      <path
         d="M 0,739.839 H 598.115 V 0 H 0 Z"
         id="path4872"
         inkscape:connector-curvature="0" />
    </clipPath>
    <clipPath
       clipPathUnits="userSpaceOnUse"
       id="clipPath4700">
      <path
         d="m 403.684,440.219 h 9 v 10 h -9 z"
         id="path4698"
         inkscape:connector-curvature="0" />
    </clipPath>
    <clipPath
       clipPathUnits="userSpaceOnUse"
       id="clipPath4706">
      <path
         d="M 0,739.839 H 598.115 V 0 H 0 Z"
         id="path4704"
         inkscape:connector-curvature="0" />
    </clipPath>
    <clipPath
       clipPathUnits="userSpaceOnUse"
       id="clipPath4546">
      <path
         d="m 403.684,463.291 h 9 v 10 h -9 z"
         id="path4544"
         inkscape:connector-curvature="0" />
    </clipPath>
    <clipPath
       clipPathUnits="userSpaceOnUse"
       id="clipPath4552">
      <path
         d="M 0,739.839 H 598.115 V 0 H 0 Z"
         id="path4550"
         inkscape:connector-curvature="0" />
    </clipPath>
  </defs>
  <sodipodi:namedview
     id="base"
     pagecolor="#ffffff"
     bordercolor="#666666"
     borderopacity="1.0"
     inkscape:pageopacity="0.0"
     inkscape:pageshadow="2"
     inkscape:zoom="5.6"
     inkscape:cx="230.27988"
     inkscape:cy="66.616776"
     inkscape:document-units="mm"
     inkscape:current-layer="layer1"
     showgrid="false"
     inkscape:window-width="3696"
     inkscape:window-height="2115"
     inkscape:window-x="131"
     inkscape:window-y="-13"
     inkscape:window-maximized="1" />
  <metadata
     id="metadata8453">
    <rdf:RDF>
      <cc:Work
         rdf:about="">
        <dc:format>image/svg+xml</dc:format>
        <dc:type
           rdf:resource="http://purl.org/dc/dcmitype/StillImage" />
        <dc:title></dc:title>
      </cc:Work>
    </rdf:RDF>
  </metadata>
  <g
     inkscape:label="Layer 1"
     inkscape:groupmode="layer"
     id="layer1"
     transform="translate(0,-275)">
    <path
       d="m 23.505325,285.74534 h 44.802776 c 0.97437,0 1.76389,-0.78952 1.76389,-1.76389 0,-0.97402 -0.78952,-1.76389 -1.76389,-1.76389 H 23.505325 v 3.52778"
       style="fill:#c2d3e2;fill-opacity:1;fill-rule:nonzero;stroke:none;stroke-width:0.35277775"
       id="path4772"
       inkscape:connector-curvature="0" />
    <path
       d="M 68.308101,285.69066 H 23.505325 v -3.41842 h 44.802776 c 0.97437,0 1.76389,0.76553 1.76389,1.70921 0,0.94403 -0.78952,1.70921 -1.76389,1.70921"
       style="fill:#b7ccdc;fill-opacity:1;fill-rule:nonzero;stroke:none;stroke-width:0.35277775"
       id="path4774"
       inkscape:connector-curvature="0" />
    <path
       d="M 68.308101,285.63633 H 23.505325 v -3.30941 h 44.802776 c 0.97437,0 1.76389,0.74084 1.76389,1.65453 0,0.91405 -0.78952,1.65488 -1.76389,1.65488"
       style="fill:#acc4d7;fill-opacity:1;fill-rule:nonzero;stroke:none;stroke-width:0.35277775"
       id="path4776"
       inkscape:connector-curvature="0" />
    <path
       d="M 68.308101,285.58165 H 23.505325 v -3.20005 h 44.802776 c 0.97437,0 1.76389,0.7165 1.76389,1.59985 0,0.88371 -0.78952,1.6002 -1.76389,1.6002"
       style="fill:#a2bcd2;fill-opacity:1;fill-rule:nonzero;stroke:none;stroke-width:0.35277775"
       id="path4778"
       inkscape:connector-curvature="0" />
    <path
       d="M 68.308101,285.52697 H 23.505325 v -3.09069 h 44.802776 c 0.97437,0 1.76389,0.6918 1.76389,1.54517 0,0.85372 -0.78952,1.54552 -1.76389,1.54552"
       style="fill:#97b5cc;fill-opacity:1;fill-rule:nonzero;stroke:none;stroke-width:0.35277775"
       id="path4780"
       inkscape:connector-curvature="0" />
    <path
       d="m 23.505325,285.47229 h 44.802776 c 0.97437,0 1.76389,-0.66746 1.76389,-1.49084 0,-0.82303 -0.78952,-1.49049 -1.76389,-1.49049 H 23.505325 v 2.98133"
       style="fill:#8eaec7;fill-opacity:1;fill-rule:nonzero;stroke:none;stroke-width:0.35277775"
       id="path4782"
       inkscape:connector-curvature="0" />
    <path
       d="M 68.308101,285.36681 H 23.505325 v -2.84762 h 44.802776 c 0.97437,0 1.76389,0.67592 1.76389,1.46226 0,0.7867 -0.78952,1.38536 -1.76389,1.38536"
       style="fill:#91b0c9;fill-opacity:1;fill-rule:nonzero;stroke:none;stroke-width:0.35277775"
       id="path4784"
       inkscape:connector-curvature="0" />
    <path
       d="M 68.308101,285.26168 H 23.505325 v -2.71462 h 44.802776 c 0.97437,0 1.76389,0.68509 1.76389,1.43439 0,0.74965 -0.78952,1.28023 -1.76389,1.28023"
       style="fill:#93b2ca;fill-opacity:1;fill-rule:nonzero;stroke:none;stroke-width:0.35277775"
       id="path4786"
       inkscape:connector-curvature="0" />
    <path
       d="M 68.308101,285.15655 H 23.505325 v -2.58127 h 44.802776 c 0.97437,0 1.76389,0.69356 1.76389,1.40617 0,0.71296 -0.78952,1.1751 -1.76389,1.1751"
       style="fill:#97b5cc;fill-opacity:1;fill-rule:nonzero;stroke:none;stroke-width:0.35277775"
       id="path4788"
       inkscape:connector-curvature="0" />
    <path
       d="M 68.308101,285.05107 H 23.505325 v -2.44792 h 44.802776 c 0.97437,0 1.76389,0.70238 1.76389,1.3783 0,0.67627 -0.78952,1.06962 -1.76389,1.06962"
       style="fill:#99b6cd;fill-opacity:1;fill-rule:nonzero;stroke:none;stroke-width:0.35277775"
       id="path4790"
       inkscape:connector-curvature="0" />
    <path
       d="M 68.308101,284.94595 H 23.505325 v -2.31458 h 44.802776 c 0.97437,0 1.76389,0.7112 1.76389,1.35008 0,0.63923 -0.78952,0.9645 -1.76389,0.9645"
       style="fill:#9db9cf;fill-opacity:1;fill-rule:nonzero;stroke:none;stroke-width:0.35277775"
       id="path4792"
       inkscape:connector-curvature="0" />
    <path
       d="M 68.308101,284.84082 H 23.505325 v -2.18123 h 44.802776 c 0.97437,0 1.76389,0.71967 1.76389,1.32186 0,0.60255 -0.78952,0.85937 -1.76389,0.85937"
       style="fill:#a0bbd1;fill-opacity:1;fill-rule:nonzero;stroke:none;stroke-width:0.35277775"
       id="path4794"
       inkscape:connector-curvature="0" />
    <path
       d="M 68.308101,284.73534 H 23.505325 v -2.04788 h 44.802776 c 0.97437,0 1.76389,0.72849 1.76389,1.29399 0,0.5655 -0.78952,0.75389 -1.76389,0.75389"
       style="fill:#a3bdd3;fill-opacity:1;fill-rule:nonzero;stroke:none;stroke-width:0.35277775"
       id="path4796"
       inkscape:connector-curvature="0" />
    <path
       d="M 68.308101,284.63021 H 23.505325 v -1.91453 h 44.802776 c 0.97437,0 1.76389,0.73731 1.76389,1.26577 0,0.52881 -0.78952,0.64876 -1.76389,0.64876"
       style="fill:#a7c0d5;fill-opacity:1;fill-rule:nonzero;stroke:none;stroke-width:0.35277775"
       id="path4798"
       inkscape:connector-curvature="0" />
    <path
       d="M 68.308101,284.52473 H 23.505325 v -1.78082 h 44.802776 c 0.97437,0 1.76389,0.74577 1.76389,1.23754 0,0.49212 -0.78952,0.54328 -1.76389,0.54328"
       style="fill:#aac2d6;fill-opacity:1;fill-rule:nonzero;stroke:none;stroke-width:0.35277775"
       id="path4800"
       inkscape:connector-curvature="0" />
    <path
       d="M 68.308101,284.4196 H 23.505325 v -1.64783 h 44.802776 c 0.97437,0 1.76389,0.75495 1.76389,1.20968 0,0.45508 -0.78952,0.43815 -1.76389,0.43815"
       style="fill:#adc5d8;fill-opacity:1;fill-rule:nonzero;stroke:none;stroke-width:0.35277775"
       id="path4802"
       inkscape:connector-curvature="0" />
    <path
       d="M 68.308101,284.31447 H 23.505325 V 282.8 h 44.802776 c 0.97437,0 1.76389,0.76341 1.76389,1.18145 0,0.4184 -0.78952,0.33302 -1.76389,0.33302"
       style="fill:#b1c7da;fill-opacity:1;fill-rule:nonzero;stroke:none;stroke-width:0.35277775"
       id="path4804"
       inkscape:connector-curvature="0" />
    <path
       d="M 68.308101,284.20899 H 23.505325 v -1.38112 h 44.802776 c 0.97437,0 1.76389,0.77223 1.76389,1.15358 0,0.38135 -0.78952,0.22754 -1.76389,0.22754"
       style="fill:#b4c9db;fill-opacity:1;fill-rule:nonzero;stroke:none;stroke-width:0.35277775"
       id="path4806"
       inkscape:connector-curvature="0" />
    <path
       d="M 68.308101,284.10386 H 23.505325 v -1.24777 h 44.802776 c 0.97437,0 1.76389,0.78105 1.76389,1.12536 0,0.34466 -0.78952,0.12241 -1.76389,0.12241"
       style="fill:#b8ccdd;fill-opacity:1;fill-rule:nonzero;stroke:none;stroke-width:0.35277775"
       id="path4808"
       inkscape:connector-curvature="0" />
    <path
       d="M 68.308101,283.99874 H 23.505325 v -1.11443 h 44.802776 c 0.97437,0 1.76389,0.78952 1.76389,1.09714 0,0.30797 -0.78952,0.0173 -1.76389,0.0173"
       style="fill:#bbcfdf;fill-opacity:1;fill-rule:nonzero;stroke:none;stroke-width:0.35277775"
       id="path4810"
       inkscape:connector-curvature="0" />
    <path
       d="M 68.308101,283.89326 H 23.505325 v -0.98108 h 44.802776 c 0.97437,0 1.76389,0.79834 1.76389,1.06927 0,0.27093 -0.78952,-0.0882 -1.76389,-0.0882"
       style="fill:#bfd1e1;fill-opacity:1;fill-rule:nonzero;stroke:none;stroke-width:0.35277775"
       id="path4812"
       inkscape:connector-curvature="0" />
    <path
       d="m 23.505325,283.78813 h 44.802776 c 0.97437,0 1.76389,0.42757 1.76389,0.19332 0,-0.23389 -0.78952,-1.04105 -1.76389,-1.04105 H 23.505325 v 0.84773"
       style="fill:#c2d3e2;fill-opacity:1;fill-rule:nonzero;stroke:none;stroke-width:0.35277775"
       id="path4814"
       inkscape:connector-curvature="0" />
    <path
       d="m 22.446992,285.03978 h 1.058333 v -2.11666 h -1.058333 z"
       style="fill:#c2d3e2;fill-opacity:1;fill-rule:nonzero;stroke:none;stroke-width:0.35277775"
       id="path4816"
       inkscape:connector-curvature="0" />
    <path
       d="m 22.446992,282.94781 h 1.058333 v 2.03553 h -1.058333 z"
       style="fill:#b7ccdc;fill-opacity:1;fill-rule:nonzero;stroke:none;stroke-width:0.35277775"
       id="path4818"
       inkscape:connector-curvature="0" />
    <path
       d="m 22.446992,282.97215 h 1.058333 v 1.95439 h -1.058333 z"
       style="fill:#acc4d7;fill-opacity:1;fill-rule:nonzero;stroke:none;stroke-width:0.35277775"
       id="path4820"
       inkscape:connector-curvature="0" />
    <path
       d="m 22.446992,282.99685 h 1.058333 v 1.87325 h -1.058333 z"
       style="fill:#a2bcd2;fill-opacity:1;fill-rule:nonzero;stroke:none;stroke-width:0.35277775"
       id="path4822"
       inkscape:connector-curvature="0" />
    <path
       d="m 22.446992,283.02119 h 1.058333 v 1.79176 h -1.058333 z"
       style="fill:#97b5cc;fill-opacity:1;fill-rule:nonzero;stroke:none;stroke-width:0.35277775"
       id="path4824"
       inkscape:connector-curvature="0" />
    <path
       d="m 22.446992,284.7565 h 1.058333 v -1.71062 h -1.058333 z"
       style="fill:#8eaec7;fill-opacity:1;fill-rule:nonzero;stroke:none;stroke-width:0.35277775"
       id="path4826"
       inkscape:connector-curvature="0" />
    <path
       d="m 22.446992,283.06282 h 1.058333 v 1.63371 h -1.058333 z"
       style="fill:#91b0c9;fill-opacity:1;fill-rule:nonzero;stroke:none;stroke-width:0.35277775"
       id="path4828"
       inkscape:connector-curvature="0" />
    <path
       d="m 22.446992,283.07975 h 1.058333 v 1.55646 h -1.058333 z"
       style="fill:#93b2ca;fill-opacity:1;fill-rule:nonzero;stroke:none;stroke-width:0.35277775"
       id="path4830"
       inkscape:connector-curvature="0" />
    <path
       d="m 22.446992,283.09668 h 1.058333 v 1.4792 h -1.058333 z"
       style="fill:#97b5cc;fill-opacity:1;fill-rule:nonzero;stroke:none;stroke-width:0.35277775"
       id="path4832"
       inkscape:connector-curvature="0" />
    <path
       d="m 22.446992,283.11362 h 1.058333 v 1.40194 h -1.058333 z"
       style="fill:#99b6cd;fill-opacity:1;fill-rule:nonzero;stroke:none;stroke-width:0.35277775"
       id="path4834"
       inkscape:connector-curvature="0" />
    <path
       d="m 22.446992,283.1302 h 1.058333 v 1.32503 h -1.058333 z"
       style="fill:#9db9cf;fill-opacity:1;fill-rule:nonzero;stroke:none;stroke-width:0.35277775"
       id="path4836"
       inkscape:connector-curvature="0" />
    <path
       d="m 22.446992,283.14713 h 1.058333 v 1.24778 h -1.058333 z"
       style="fill:#a0bbd1;fill-opacity:1;fill-rule:nonzero;stroke:none;stroke-width:0.35277775"
       id="path4838"
       inkscape:connector-curvature="0" />
    <path
       d="m 22.446992,283.16406 h 1.058333 v 1.17052 h -1.058333 z"
       style="fill:#a3bdd3;fill-opacity:1;fill-rule:nonzero;stroke:none;stroke-width:0.35277775"
       id="path4840"
       inkscape:connector-curvature="0" />
    <path
       d="m 22.446992,283.181 h 1.058333 v 1.09361 h -1.058333 z"
       style="fill:#a7c0d5;fill-opacity:1;fill-rule:nonzero;stroke:none;stroke-width:0.35277775"
       id="path4842"
       inkscape:connector-curvature="0" />
    <path
       d="m 22.446992,283.19793 h 1.058333 v 1.01635 h -1.058333 z"
       style="fill:#aac2d6;fill-opacity:1;fill-rule:nonzero;stroke:none;stroke-width:0.35277775"
       id="path4844"
       inkscape:connector-curvature="0" />
    <path
       d="m 22.446992,283.21486 h 1.058333 v 0.9391 h -1.058333 z"
       style="fill:#adc5d8;fill-opacity:1;fill-rule:nonzero;stroke:none;stroke-width:0.35277775"
       id="path4846"
       inkscape:connector-curvature="0" />
    <path
       d="m 22.446992,283.2318 h 1.058333 v 0.86219 h -1.058333 z"
       style="fill:#b1c7da;fill-opacity:1;fill-rule:nonzero;stroke:none;stroke-width:0.35277775"
       id="path4848"
       inkscape:connector-curvature="0" />
    <path
       d="m 22.446992,283.24873 h 1.058333 v 0.78493 h -1.058333 z"
       style="fill:#b4c9db;fill-opacity:1;fill-rule:nonzero;stroke:none;stroke-width:0.35277775"
       id="path4850"
       inkscape:connector-curvature="0" />
    <path
       d="m 22.446992,283.26566 h 1.058333 v 0.70768 h -1.058333 z"
       style="fill:#b8ccdd;fill-opacity:1;fill-rule:nonzero;stroke:none;stroke-width:0.35277775"
       id="path4852"
       inkscape:connector-curvature="0" />
    <path
       d="m 22.446992,283.2826 h 1.058333 v 0.63041 h -1.058333 z"
       style="fill:#bbcfdf;fill-opacity:1;fill-rule:nonzero;stroke:none;stroke-width:0.35277775"
       id="path4854"
       inkscape:connector-curvature="0" />
    <path
       d="m 22.446992,283.29953 h 1.058333 v 0.55351 h -1.058333 z"
       style="fill:#bfd1e1;fill-opacity:1;fill-rule:nonzero;stroke:none;stroke-width:0.35277775"
       id="path4856"
       inkscape:connector-curvature="0" />
    <path
       d="m 22.446992,283.79236 h 1.058333 v -0.47625 h -1.058333 z"
       style="fill:#c2d3e2;fill-opacity:1;fill-rule:nonzero;stroke:none;stroke-width:0.35277775"
       id="path4858"
       inkscape:connector-curvature="0" />
    <path
       d="m 22.446992,285.03978 h 1.058333 v -2.11666 h -1.058333 z"
       style="fill:none;stroke:#000000;stroke-width:0.17638887;stroke-linecap:butt;stroke-linejoin:miter;stroke-miterlimit:4;stroke-dasharray:none;stroke-opacity:1"
       id="path4860"
       inkscape:connector-curvature="0" />
    <g
       transform="matrix(0.35277777,0,0,-0.35277777,-107.35195,419.1098)"
       id="g4862">
      <g
         id="g4864"
         clip-path="url(#clipPath4868)">
        <g
           id="g4870"
           clip-path="url(#clipPath4874)">
          <path
             d="m 370.934,378.041 h 127 c 2.762,0 5,2.238 5,5 0,2.761 -2.238,5 -5,5 h -127 v -10"
             style="fill:#fccf83;fill-opacity:1;fill-rule:nonzero;stroke:none"
             id="path4876"
             inkscape:connector-curvature="0" />
          <path
             d="m 497.934,378.196 h -127 v 9.69 h 127 c 2.762,0 5,-2.17 5,-4.845 0,-2.676 -2.238,-4.845 -5,-4.845"
             style="fill:#fbc76d;fill-opacity:1;fill-rule:nonzero;stroke:none"
             id="path4878"
             inkscape:connector-curvature="0" />
          <path
             d="m 497.934,378.35 h -127 v 9.381 h 127 c 2.762,0 5,-2.1 5,-4.69 0,-2.591 -2.238,-4.691 -5,-4.691"
             style="fill:#fabe58;fill-opacity:1;fill-rule:nonzero;stroke:none"
             id="path4880"
             inkscape:connector-curvature="0" />
          <path
             d="m 497.934,378.505 h -127 v 9.071 h 127 c 2.762,0 5,-2.031 5,-4.535 0,-2.505 -2.238,-4.536 -5,-4.536"
             style="fill:#fab744;fill-opacity:1;fill-rule:nonzero;stroke:none"
             id="path4882"
             inkscape:connector-curvature="0" />
          <path
             d="m 497.934,378.66 h -127 v 8.761 h 127 c 2.762,0 5,-1.961 5,-4.38 0,-2.42 -2.238,-4.381 -5,-4.381"
             style="fill:#f9af31;fill-opacity:1;fill-rule:nonzero;stroke:none"
             id="path4884"
             inkscape:connector-curvature="0" />
          <path
             d="m 370.934,378.815 h 127 c 2.762,0 5,1.892 5,4.226 0,2.333 -2.238,4.225 -5,4.225 h -127 v -8.451"
             style="fill:#f9a71f;fill-opacity:1;fill-rule:nonzero;stroke:none"
             id="path4886"
             inkscape:connector-curvature="0" />
          <path
             d="m 497.934,379.114 h -127 v 8.072 h 127 c 2.762,0 5,-1.916 5,-4.145 0,-2.23 -2.238,-3.927 -5,-3.927"
             style="fill:#f9aa24;fill-opacity:1;fill-rule:nonzero;stroke:none"
             id="path4888"
             inkscape:connector-curvature="0" />
          <path
             d="m 497.934,379.412 h -127 v 7.695 h 127 c 2.762,0 5,-1.942 5,-4.066 0,-2.125 -2.238,-3.629 -5,-3.629"
             style="fill:#f9ab2a;fill-opacity:1;fill-rule:nonzero;stroke:none"
             id="path4890"
             inkscape:connector-curvature="0" />
          <path
             d="m 497.934,379.71 h -127 v 7.317 h 127 c 2.762,0 5,-1.966 5,-3.986 0,-2.021 -2.238,-3.331 -5,-3.331"
             style="fill:#f9ae30;fill-opacity:1;fill-rule:nonzero;stroke:none"
             id="path4892"
             inkscape:connector-curvature="0" />
          <path
             d="m 497.934,380.009 h -127 v 6.939 h 127 c 2.762,0 5,-1.991 5,-3.907 0,-1.917 -2.238,-3.032 -5,-3.032"
             style="fill:#f9b135;fill-opacity:1;fill-rule:nonzero;stroke:none"
             id="path4894"
             inkscape:connector-curvature="0" />
          <path
             d="m 497.934,380.307 h -127 v 6.561 h 127 c 2.762,0 5,-2.016 5,-3.827 0,-1.812 -2.238,-2.734 -5,-2.734"
             style="fill:#fab33b;fill-opacity:1;fill-rule:nonzero;stroke:none"
             id="path4896"
             inkscape:connector-curvature="0" />
          <path
             d="m 497.934,380.605 h -127 v 6.183 h 127 c 2.762,0 5,-2.04 5,-3.747 0,-1.708 -2.238,-2.436 -5,-2.436"
             style="fill:#fab642;fill-opacity:1;fill-rule:nonzero;stroke:none"
             id="path4898"
             inkscape:connector-curvature="0" />
          <path
             d="m 497.934,380.904 h -127 v 5.805 h 127 c 2.762,0 5,-2.065 5,-3.668 0,-1.603 -2.238,-2.137 -5,-2.137"
             style="fill:#fab848;fill-opacity:1;fill-rule:nonzero;stroke:none"
             id="path4900"
             inkscape:connector-curvature="0" />
          <path
             d="m 497.934,381.202 h -127 v 5.427 h 127 c 2.762,0 5,-2.09 5,-3.588 0,-1.499 -2.238,-1.839 -5,-1.839"
             style="fill:#faba4e;fill-opacity:1;fill-rule:nonzero;stroke:none"
             id="path4902"
             inkscape:connector-curvature="0" />
          <path
             d="m 497.934,381.501 h -127 v 5.048 h 127 c 2.762,0 5,-2.114 5,-3.508 0,-1.395 -2.238,-1.54 -5,-1.54"
             style="fill:#fabd54;fill-opacity:1;fill-rule:nonzero;stroke:none"
             id="path4904"
             inkscape:connector-curvature="0" />
          <path
             d="m 497.934,381.799 h -127 v 4.671 h 127 c 2.762,0 5,-2.14 5,-3.429 0,-1.29 -2.238,-1.242 -5,-1.242"
             style="fill:#fbc05a;fill-opacity:1;fill-rule:nonzero;stroke:none"
             id="path4906"
             inkscape:connector-curvature="0" />
          <path
             d="m 497.934,382.097 h -127 v 4.293 h 127 c 2.762,0 5,-2.164 5,-3.349 0,-1.186 -2.238,-0.944 -5,-0.944"
             style="fill:#fbc261;fill-opacity:1;fill-rule:nonzero;stroke:none"
             id="path4908"
             inkscape:connector-curvature="0" />
          <path
             d="m 497.934,382.396 h -127 v 3.915 h 127 c 2.762,0 5,-2.189 5,-3.27 0,-1.081 -2.238,-0.645 -5,-0.645"
             style="fill:#fbc568;fill-opacity:1;fill-rule:nonzero;stroke:none"
             id="path4910"
             inkscape:connector-curvature="0" />
          <path
             d="m 497.934,382.694 h -127 v 3.537 h 127 c 2.762,0 5,-2.214 5,-3.19 0,-0.977 -2.238,-0.347 -5,-0.347"
             style="fill:#fbc86e;fill-opacity:1;fill-rule:nonzero;stroke:none"
             id="path4912"
             inkscape:connector-curvature="0" />
          <path
             d="m 497.934,382.992 h -127 v 3.159 h 127 c 2.762,0 5,-2.238 5,-3.11 0,-0.873 -2.238,-0.049 -5,-0.049"
             style="fill:#fbca75;fill-opacity:1;fill-rule:nonzero;stroke:none"
             id="path4914"
             inkscape:connector-curvature="0" />
          <path
             d="m 497.934,383.291 h -127 v 2.781 h 127 c 2.762,0 5,-2.263 5,-3.031 0,-0.768 -2.238,0.25 -5,0.25"
             style="fill:#fccd7c;fill-opacity:1;fill-rule:nonzero;stroke:none"
             id="path4916"
             inkscape:connector-curvature="0" />
          <path
             d="m 370.934,383.589 h 127 c 2.762,0 5,-1.212 5,-0.548 0,0.663 -2.238,2.951 -5,2.951 h -127 v -2.403"
             style="fill:#fccf83;fill-opacity:1;fill-rule:nonzero;stroke:none"
             id="path4918"
             inkscape:connector-curvature="0" />
        </g>
      </g>
    </g>
    <path
       d="m 45.906711,284.33423 c 0.48719,0 0.88195,-0.39476 0.88195,-0.88195 0,-0.48683 -0.39476,-0.88194 -0.88195,-0.88194 -0.48718,0 -0.88194,0.39511 -0.88194,0.88194 0,0.48719 0.39476,0.88195 0.88194,0.88195 z m 0,0 v 1.05833 m -0.52917,-0.52916 h 1.05834"
       style="fill:none;stroke:#000000;stroke-width:0.17638887;stroke-linecap:butt;stroke-linejoin:miter;stroke-miterlimit:4;stroke-dasharray:none;stroke-opacity:1"
       id="path4920"
       inkscape:connector-curvature="0" />
    <path
       d="m 44.319211,282.21756 v 3.52778 m 3.175,0 v -3.52778"
       style="fill:none;stroke:#000000;stroke-width:0.10583334;stroke-linecap:butt;stroke-linejoin:miter;stroke-miterlimit:4;stroke-dasharray:none;stroke-opacity:1"
       id="path4922"
       inkscape:connector-curvature="0" />
    <path
       d="m 23.505325,285.74534 h 44.802776 c 0.97437,0 1.76389,-0.78952 1.76389,-1.76389 0,-0.97402 -0.78952,-1.76389 -1.76389,-1.76389 H 23.505325 Z"
       style="fill:none;stroke:#000000;stroke-width:0.17638887;stroke-linecap:butt;stroke-linejoin:miter;stroke-miterlimit:4;stroke-dasharray:none;stroke-opacity:1"
       id="path4924"
       inkscape:connector-curvature="0" />
    <path
       d="m 14.228681,293.88463 h 44.80277 c 0.97438,0 1.76389,-0.78987 1.76389,-1.76389 0,-0.97437 -0.78951,-1.76389 -1.76389,-1.76389 h -44.80277 v 3.52778"
       style="fill:#c2d3e2;fill-opacity:1;fill-rule:nonzero;stroke:none;stroke-width:0.35277775"
       id="path4926"
       inkscape:connector-curvature="0" />
    <path
       d="m 59.031451,293.82995 h -44.80277 v -3.41842 h 44.80277 c 0.97438,0 1.76389,0.76518 1.76389,1.70921 0,0.94403 -0.78951,1.70921 -1.76389,1.70921"
       style="fill:#b7ccdc;fill-opacity:1;fill-rule:nonzero;stroke:none;stroke-width:0.35277775"
       id="path4928"
       inkscape:connector-curvature="0" />
    <path
       d="m 59.031451,293.77527 h -44.80277 v -3.30941 h 44.80277 c 0.97438,0 1.76389,0.74083 1.76389,1.65488 0,0.91369 -0.78951,1.65453 -1.76389,1.65453"
       style="fill:#acc4d7;fill-opacity:1;fill-rule:nonzero;stroke:none;stroke-width:0.35277775"
       id="path4930"
       inkscape:connector-curvature="0" />
    <path
       d="m 59.031451,293.72059 h -44.80277 v -3.20005 h 44.80277 c 0.97438,0 1.76389,0.71649 1.76389,1.6002 0,0.88336 -0.78951,1.59985 -1.76389,1.59985"
       style="fill:#a2bcd2;fill-opacity:1;fill-rule:nonzero;stroke:none;stroke-width:0.35277775"
       id="path4932"
       inkscape:connector-curvature="0" />
    <path
       d="m 59.031451,293.66591 h -44.80277 v -3.09069 h 44.80277 c 0.97438,0 1.76389,0.6918 1.76389,1.54552 0,0.85337 -0.78951,1.54517 -1.76389,1.54517"
       style="fill:#97b5cc;fill-opacity:1;fill-rule:nonzero;stroke:none;stroke-width:0.35277775"
       id="path4934"
       inkscape:connector-curvature="0" />
    <path
       d="m 14.228681,293.61122 h 44.80277 c 0.97438,0 1.76389,-0.66745 1.76389,-1.49048 0,-0.82338 -0.78951,-1.49084 -1.76389,-1.49084 h -44.80277 v 2.98132"
       style="fill:#8eaec7;fill-opacity:1;fill-rule:nonzero;stroke:none;stroke-width:0.35277775"
       id="path4936"
       inkscape:connector-curvature="0" />
    <path
       d="m 59.031451,293.5061 h -44.80277 v -2.84798 h 44.80277 c 0.97438,0 1.76389,0.67593 1.76389,1.46262 0,0.78634 -0.78951,1.38536 -1.76389,1.38536"
       style="fill:#91b0c9;fill-opacity:1;fill-rule:nonzero;stroke:none;stroke-width:0.35277775"
       id="path4938"
       inkscape:connector-curvature="0" />
    <path
       d="m 59.031451,293.40062 h -44.80277 v -2.71463 h 44.80277 c 0.97438,0 1.76389,0.6851 1.76389,1.43475 0,0.74965 -0.78951,1.27988 -1.76389,1.27988"
       style="fill:#93b2ca;fill-opacity:1;fill-rule:nonzero;stroke:none;stroke-width:0.35277775"
       id="path4940"
       inkscape:connector-curvature="0" />
    <path
       d="m 59.031451,293.29549 h -44.80277 v -2.58128 h 44.80277 c 0.97438,0 1.76389,0.69356 1.76389,1.40653 0,0.71261 -0.78951,1.17475 -1.76389,1.17475"
       style="fill:#97b5cc;fill-opacity:1;fill-rule:nonzero;stroke:none;stroke-width:0.35277775"
       id="path4942"
       inkscape:connector-curvature="0" />
    <path
       d="m 59.031451,293.19036 h -44.80277 v -2.44792 h 44.80277 c 0.97438,0 1.76389,0.70238 1.76389,1.3783 0,0.67592 -0.78951,1.06962 -1.76389,1.06962"
       style="fill:#99b6cd;fill-opacity:1;fill-rule:nonzero;stroke:none;stroke-width:0.35277775"
       id="path4944"
       inkscape:connector-curvature="0" />
    <path
       d="m 59.031451,293.08488 h -44.80277 v -2.31457 h 44.80277 c 0.97438,0 1.76389,0.7112 1.76389,1.35043 0,0.63888 -0.78951,0.96414 -1.76389,0.96414"
       style="fill:#9db9cf;fill-opacity:1;fill-rule:nonzero;stroke:none;stroke-width:0.35277775"
       id="path4946"
       inkscape:connector-curvature="0" />
    <path
       d="m 59.031451,292.97975 h -44.80277 v -2.18122 h 44.80277 c 0.97438,0 1.76389,0.71967 1.76389,1.32221 0,0.60219 -0.78951,0.85901 -1.76389,0.85901"
       style="fill:#a0bbd1;fill-opacity:1;fill-rule:nonzero;stroke:none;stroke-width:0.35277775"
       id="path4948"
       inkscape:connector-curvature="0" />
    <path
       d="m 59.031451,292.87427 h -44.80277 v -2.04752 h 44.80277 c 0.97438,0 1.76389,0.72849 1.76389,1.29399 0,0.5655 -0.78951,0.75353 -1.76389,0.75353"
       style="fill:#a3bdd3;fill-opacity:1;fill-rule:nonzero;stroke:none;stroke-width:0.35277775"
       id="path4950"
       inkscape:connector-curvature="0" />
    <path
       d="m 59.031451,292.76915 h -44.80277 v -1.91453 h 44.80277 c 0.97438,0 1.76389,0.7373 1.76389,1.26612 0,0.52846 -0.78951,0.64841 -1.76389,0.64841"
       style="fill:#a7c0d5;fill-opacity:1;fill-rule:nonzero;stroke:none;stroke-width:0.35277775"
       id="path4952"
       inkscape:connector-curvature="0" />
    <path
       d="m 59.031451,292.66402 h -44.80277 v -1.78118 h 44.80277 c 0.97438,0 1.76389,0.74577 1.76389,1.2379 0,0.49177 -0.78951,0.54328 -1.76389,0.54328"
       style="fill:#aac2d6;fill-opacity:1;fill-rule:nonzero;stroke:none;stroke-width:0.35277775"
       id="path4954"
       inkscape:connector-curvature="0" />
    <path
       d="m 59.031451,292.55854 h -44.80277 v -1.64783 h 44.80277 c 0.97438,0 1.76389,0.75495 1.76389,1.21003 0,0.45473 -0.78951,0.4378 -1.76389,0.4378"
       style="fill:#adc5d8;fill-opacity:1;fill-rule:nonzero;stroke:none;stroke-width:0.35277775"
       id="path4956"
       inkscape:connector-curvature="0" />
    <path
       d="m 59.031451,292.45341 h -44.80277 v -1.51448 h 44.80277 c 0.97438,0 1.76389,0.76342 1.76389,1.18181 0,0.41804 -0.78951,0.33267 -1.76389,0.33267"
       style="fill:#b1c7da;fill-opacity:1;fill-rule:nonzero;stroke:none;stroke-width:0.35277775"
       id="path4958"
       inkscape:connector-curvature="0" />
    <path
       d="m 59.031451,292.34828 h -44.80277 v -1.38112 h 44.80277 c 0.97438,0 1.76389,0.77187 1.76389,1.15358 0,0.38135 -0.78951,0.22754 -1.76389,0.22754"
       style="fill:#b4c9db;fill-opacity:1;fill-rule:nonzero;stroke:none;stroke-width:0.35277775"
       id="path4960"
       inkscape:connector-curvature="0" />
    <path
       d="m 59.031451,292.2428 h -44.80277 v -1.24778 h 44.80277 c 0.97438,0 1.76389,0.78105 1.76389,1.12572 0,0.34431 -0.78951,0.12206 -1.76389,0.12206"
       style="fill:#b8ccdd;fill-opacity:1;fill-rule:nonzero;stroke:none;stroke-width:0.35277775"
       id="path4962"
       inkscape:connector-curvature="0" />
    <path
       d="m 59.031451,292.13767 h -44.80277 v -1.11442 h 44.80277 c 0.97438,0 1.76389,0.78951 1.76389,1.09749 0,0.30762 -0.78951,0.0169 -1.76389,0.0169"
       style="fill:#bbcfdf;fill-opacity:1;fill-rule:nonzero;stroke:none;stroke-width:0.35277775"
       id="path4964"
       inkscape:connector-curvature="0" />
    <path
       d="m 59.031451,292.03219 h -44.80277 v -0.98107 h 44.80277 c 0.97438,0 1.76389,0.79869 1.76389,1.06962 0,0.27093 -0.78951,-0.0885 -1.76389,-0.0885"
       style="fill:#bfd1e1;fill-opacity:1;fill-rule:nonzero;stroke:none;stroke-width:0.35277775"
       id="path4966"
       inkscape:connector-curvature="0" />
    <path
       d="m 14.228681,291.92706 h 44.80277 c 0.97438,0 1.76389,0.42757 1.76389,0.19368 0,-0.23424 -0.78951,-1.0414 -1.76389,-1.0414 h -44.80277 v 0.84772"
       style="fill:#c2d3e2;fill-opacity:1;fill-rule:nonzero;stroke:none;stroke-width:0.35277775"
       id="path4968"
       inkscape:connector-curvature="0" />
    <path
       d="m 13.170347,293.17907 h 1.058334 v -2.11666 h -1.058334 z"
       style="fill:#c2d3e2;fill-opacity:1;fill-rule:nonzero;stroke:none;stroke-width:0.35277775"
       id="path4970"
       inkscape:connector-curvature="0" />
    <path
       d="m 13.170347,291.08675 h 1.058334 v 2.03552 h -1.058334 z"
       style="fill:#b7ccdc;fill-opacity:1;fill-rule:nonzero;stroke:none;stroke-width:0.35277775"
       id="path4972"
       inkscape:connector-curvature="0" />
    <path
       d="m 13.170347,291.11144 h 1.058334 v 1.95439 h -1.058334 z"
       style="fill:#acc4d7;fill-opacity:1;fill-rule:nonzero;stroke:none;stroke-width:0.35277775"
       id="path4974"
       inkscape:connector-curvature="0" />
    <path
       d="m 13.170347,291.13578 h 1.058334 v 1.87325 h -1.058334 z"
       style="fill:#a2bcd2;fill-opacity:1;fill-rule:nonzero;stroke:none;stroke-width:0.35277775"
       id="path4976"
       inkscape:connector-curvature="0" />
    <path
       d="m 13.170347,291.16048 h 1.058334 v 1.79176 h -1.058334 z"
       style="fill:#97b5cc;fill-opacity:1;fill-rule:nonzero;stroke:none;stroke-width:0.35277775"
       id="path4978"
       inkscape:connector-curvature="0" />
    <path
       d="m 13.170347,292.89544 h 1.058334 v -1.71062 h -1.058334 z"
       style="fill:#8eaec7;fill-opacity:1;fill-rule:nonzero;stroke:none;stroke-width:0.35277775"
       id="path4980"
       inkscape:connector-curvature="0" />
    <path
       d="m 13.170347,291.20175 h 1.058334 v 1.63372 h -1.058334 z"
       style="fill:#91b0c9;fill-opacity:1;fill-rule:nonzero;stroke:none;stroke-width:0.35277775"
       id="path4982"
       inkscape:connector-curvature="0" />
    <path
       d="m 13.170347,291.21869 h 1.058334 v 1.55645 h -1.058334 z"
       style="fill:#93b2ca;fill-opacity:1;fill-rule:nonzero;stroke:none;stroke-width:0.35277775"
       id="path4984"
       inkscape:connector-curvature="0" />
    <path
       d="m 13.170347,291.23562 h 1.058334 v 1.4792 h -1.058334 z"
       style="fill:#97b5cc;fill-opacity:1;fill-rule:nonzero;stroke:none;stroke-width:0.35277775"
       id="path4986"
       inkscape:connector-curvature="0" />
    <path
       d="m 13.170347,291.25255 h 1.058334 v 1.40194 h -1.058334 z"
       style="fill:#99b6cd;fill-opacity:1;fill-rule:nonzero;stroke:none;stroke-width:0.35277775"
       id="path4988"
       inkscape:connector-curvature="0" />
    <path
       d="m 13.170347,291.26949 h 1.058334 v 1.32503 h -1.058334 z"
       style="fill:#9db9cf;fill-opacity:1;fill-rule:nonzero;stroke:none;stroke-width:0.35277775"
       id="path4990"
       inkscape:connector-curvature="0" />
    <path
       d="m 13.170347,291.28642 h 1.058334 v 1.24778 h -1.058334 z"
       style="fill:#a0bbd1;fill-opacity:1;fill-rule:nonzero;stroke:none;stroke-width:0.35277775"
       id="path4992"
       inkscape:connector-curvature="0" />
    <path
       d="m 13.170347,291.30335 h 1.058334 v 1.17052 h -1.058334 z"
       style="fill:#a3bdd3;fill-opacity:1;fill-rule:nonzero;stroke:none;stroke-width:0.35277775"
       id="path4994"
       inkscape:connector-curvature="0" />
    <path
       d="m 13.170347,291.32029 h 1.058334 v 1.09361 h -1.058334 z"
       style="fill:#a7c0d5;fill-opacity:1;fill-rule:nonzero;stroke:none;stroke-width:0.35277775"
       id="path4996"
       inkscape:connector-curvature="0" />
    <path
       d="m 13.170347,291.33687 h 1.058334 v 1.01635 h -1.058334 z"
       style="fill:#aac2d6;fill-opacity:1;fill-rule:nonzero;stroke:none;stroke-width:0.35277775"
       id="path4998"
       inkscape:connector-curvature="0" />
    <path
       d="m 13.170347,291.3538 h 1.058334 v 0.9391 h -1.058334 z"
       style="fill:#adc5d8;fill-opacity:1;fill-rule:nonzero;stroke:none;stroke-width:0.35277775"
       id="path5000"
       inkscape:connector-curvature="0" />
    <path
       d="m 13.170347,291.37073 h 1.058334 v 0.86219 h -1.058334 z"
       style="fill:#b1c7da;fill-opacity:1;fill-rule:nonzero;stroke:none;stroke-width:0.35277775"
       id="path5002"
       inkscape:connector-curvature="0" />
    <path
       d="m 13.170347,291.38767 h 1.058334 v 0.78493 h -1.058334 z"
       style="fill:#b4c9db;fill-opacity:1;fill-rule:nonzero;stroke:none;stroke-width:0.35277775"
       id="path5004"
       inkscape:connector-curvature="0" />
    <path
       d="m 13.170347,291.4046 h 1.058334 v 0.70767 h -1.058334 z"
       style="fill:#b8ccdd;fill-opacity:1;fill-rule:nonzero;stroke:none;stroke-width:0.35277775"
       id="path5006"
       inkscape:connector-curvature="0" />
    <path
       d="m 13.170347,291.42153 h 1.058334 v 0.63042 h -1.058334 z"
       style="fill:#bbcfdf;fill-opacity:1;fill-rule:nonzero;stroke:none;stroke-width:0.35277775"
       id="path5008"
       inkscape:connector-curvature="0" />
    <path
       d="m 13.170347,291.43847 h 1.058334 v 0.5535 h -1.058334 z"
       style="fill:#bfd1e1;fill-opacity:1;fill-rule:nonzero;stroke:none;stroke-width:0.35277775"
       id="path5010"
       inkscape:connector-curvature="0" />
    <path
       d="m 13.170347,291.93165 h 1.058334 v -0.47625 h -1.058334 z"
       style="fill:#c2d3e2;fill-opacity:1;fill-rule:nonzero;stroke:none;stroke-width:0.35277775"
       id="path5012"
       inkscape:connector-curvature="0" />
    <path
       d="m 13.170347,293.17907 h 1.058334 v -2.11666 h -1.058334 z"
       style="fill:none;stroke:#000000;stroke-width:0.17638887;stroke-linecap:butt;stroke-linejoin:miter;stroke-miterlimit:4;stroke-dasharray:none;stroke-opacity:1"
       id="path5014"
       inkscape:connector-curvature="0" />
    <g
       transform="matrix(0.35277777,0,0,-0.35277777,-107.35195,419.1098)"
       id="g5016">
      <g
         id="g5018"
         clip-path="url(#clipPath5022)">
        <g
           id="g5024"
           clip-path="url(#clipPath5028)">
          <path
             d="m 344.684,354.969 h 127 c 2.762,0 5,2.239 5,5 0,2.762 -2.238,5 -5,5 h -127 v -10"
             style="fill:#acda9a;fill-opacity:1;fill-rule:nonzero;stroke:none"
             id="path5030"
             inkscape:connector-curvature="0" />
          <path
             d="m 471.684,355.124 h -127 v 9.691 h 127 c 2.762,0 5,-2.17 5,-4.846 0,-2.675 -2.238,-4.845 -5,-4.845"
             style="fill:#9cd38a;fill-opacity:1;fill-rule:nonzero;stroke:none"
             id="path5032"
             inkscape:connector-curvature="0" />
          <path
             d="m 471.684,355.279 h -127 v 9.381 h 127 c 2.762,0 5,-2.1 5,-4.691 0,-2.59 -2.238,-4.69 -5,-4.69"
             style="fill:#8dcc7a;fill-opacity:1;fill-rule:nonzero;stroke:none"
             id="path5034"
             inkscape:connector-curvature="0" />
          <path
             d="m 471.684,355.434 h -127 v 9.071 h 127 c 2.762,0 5,-2.031 5,-4.536 0,-2.504 -2.238,-4.535 -5,-4.535"
             style="fill:#7dc66b;fill-opacity:1;fill-rule:nonzero;stroke:none"
             id="path5036"
             inkscape:connector-curvature="0" />
          <path
             d="m 471.684,355.589 h -127 v 8.761 h 127 c 2.762,0 5,-1.961 5,-4.381 0,-2.419 -2.238,-4.38 -5,-4.38"
             style="fill:#6ebf5e;fill-opacity:1;fill-rule:nonzero;stroke:none"
             id="path5038"
             inkscape:connector-curvature="0" />
          <path
             d="m 344.684,355.744 h 127 c 2.762,0 5,1.892 5,4.225 0,2.334 -2.238,4.226 -5,4.226 h -127 v -8.451"
             style="fill:#5fb851;fill-opacity:1;fill-rule:nonzero;stroke:none"
             id="path5040"
             inkscape:connector-curvature="0" />
          <path
             d="m 471.684,356.042 h -127 v 8.073 h 127 c 2.762,0 5,-1.916 5,-4.146 0,-2.229 -2.238,-3.927 -5,-3.927"
             style="fill:#63ba54;fill-opacity:1;fill-rule:nonzero;stroke:none"
             id="path5042"
             inkscape:connector-curvature="0" />
          <path
             d="m 471.684,356.341 h -127 v 7.695 h 127 c 2.762,0 5,-1.942 5,-4.067 0,-2.124 -2.238,-3.628 -5,-3.628"
             style="fill:#68bc59;fill-opacity:1;fill-rule:nonzero;stroke:none"
             id="path5044"
             inkscape:connector-curvature="0" />
          <path
             d="m 471.684,356.639 h -127 v 7.317 h 127 c 2.762,0 5,-1.966 5,-3.987 0,-2.02 -2.238,-3.33 -5,-3.33"
             style="fill:#6dbe5d;fill-opacity:1;fill-rule:nonzero;stroke:none"
             id="path5046"
             inkscape:connector-curvature="0" />
          <path
             d="m 471.684,356.938 h -127 v 6.938 h 127 c 2.762,0 5,-1.99 5,-3.907 0,-1.916 -2.238,-3.031 -5,-3.031"
             style="fill:#71c061;fill-opacity:1;fill-rule:nonzero;stroke:none"
             id="path5048"
             inkscape:connector-curvature="0" />
          <path
             d="m 471.684,357.236 h -127 v 6.561 h 127 c 2.762,0 5,-2.016 5,-3.828 0,-1.811 -2.238,-2.733 -5,-2.733"
             style="fill:#76c265;fill-opacity:1;fill-rule:nonzero;stroke:none"
             id="path5050"
             inkscape:connector-curvature="0" />
          <path
             d="m 471.684,357.534 h -127 v 6.183 h 127 c 2.762,0 5,-2.04 5,-3.748 0,-1.707 -2.238,-2.435 -5,-2.435"
             style="fill:#7bc469;fill-opacity:1;fill-rule:nonzero;stroke:none"
             id="path5052"
             inkscape:connector-curvature="0" />
          <path
             d="m 471.684,357.833 h -127 v 5.804 h 127 c 2.762,0 5,-2.065 5,-3.668 0,-1.603 -2.238,-2.136 -5,-2.136"
             style="fill:#80c66e;fill-opacity:1;fill-rule:nonzero;stroke:none"
             id="path5054"
             inkscape:connector-curvature="0" />
          <path
             d="m 471.684,358.131 h -127 v 5.427 h 127 c 2.762,0 5,-2.09 5,-3.589 0,-1.498 -2.238,-1.838 -5,-1.838"
             style="fill:#85c972;fill-opacity:1;fill-rule:nonzero;stroke:none"
             id="path5056"
             inkscape:connector-curvature="0" />
          <path
             d="m 471.684,358.429 h -127 v 5.049 h 127 c 2.762,0 5,-2.114 5,-3.509 0,-1.394 -2.238,-1.54 -5,-1.54"
             style="fill:#8aca77;fill-opacity:1;fill-rule:nonzero;stroke:none"
             id="path5058"
             inkscape:connector-curvature="0" />
          <path
             d="m 471.684,358.728 h -127 v 4.671 h 127 c 2.762,0 5,-2.14 5,-3.43 0,-1.289 -2.238,-1.241 -5,-1.241"
             style="fill:#8fcd7b;fill-opacity:1;fill-rule:nonzero;stroke:none"
             id="path5060"
             inkscape:connector-curvature="0" />
          <path
             d="m 471.684,359.026 h -127 v 4.293 h 127 c 2.762,0 5,-2.164 5,-3.35 0,-1.185 -2.238,-0.943 -5,-0.943"
             style="fill:#93cf81;fill-opacity:1;fill-rule:nonzero;stroke:none"
             id="path5062"
             inkscape:connector-curvature="0" />
          <path
             d="m 471.684,359.324 h -127 v 3.915 h 127 c 2.762,0 5,-2.188 5,-3.27 0,-1.081 -2.238,-0.645 -5,-0.645"
             style="fill:#98d185;fill-opacity:1;fill-rule:nonzero;stroke:none"
             id="path5064"
             inkscape:connector-curvature="0" />
          <path
             d="m 471.684,359.623 h -127 v 3.537 h 127 c 2.762,0 5,-2.214 5,-3.191 0,-0.976 -2.238,-0.346 -5,-0.346"
             style="fill:#9dd38b;fill-opacity:1;fill-rule:nonzero;stroke:none"
             id="path5066"
             inkscape:connector-curvature="0" />
          <path
             d="m 471.684,359.921 h -127 v 3.159 h 127 c 2.762,0 5,-2.238 5,-3.111 0,-0.872 -2.238,-0.048 -5,-0.048"
             style="fill:#a3d690;fill-opacity:1;fill-rule:nonzero;stroke:none"
             id="path5068"
             inkscape:connector-curvature="0" />
          <path
             d="m 471.684,360.22 h -127 v 2.781 h 127 c 2.762,0 5,-2.264 5,-3.032 0,-0.768 -2.238,0.251 -5,0.251"
             style="fill:#a7d895;fill-opacity:1;fill-rule:nonzero;stroke:none"
             id="path5070"
             inkscape:connector-curvature="0" />
          <path
             d="m 344.684,360.518 h 127 c 2.762,0 5,-1.212 5,-0.549 0,0.664 -2.238,2.952 -5,2.952 h -127 v -2.403"
             style="fill:#acda9a;fill-opacity:1;fill-rule:nonzero;stroke:none"
             id="path5072"
             inkscape:connector-curvature="0" />
        </g>
      </g>
    </g>
    <path
       d="m 37.008951,291.87097 c -0.34431,-0.34431 -0.90276,-0.34431 -1.24707,0 -0.34466,0.34467 -0.34466,0.90311 0,1.24743 0.34431,0.34431 0.90276,0.34431 1.24707,0 0.34431,-0.34432 0.34431,-0.90276 0,-1.24743 z m 0,0 0.74824,-0.74824 m -0.52916,0 h 0.52916 v 0.52952"
       style="fill:none;stroke:#000000;stroke-width:0.17638887;stroke-linecap:butt;stroke-linejoin:miter;stroke-miterlimit:4;stroke-dasharray:none;stroke-opacity:1"
       id="path5074"
       inkscape:connector-curvature="0" />
    <path
       d="m 35.058791,290.35685 v 3.52778 m 3.175,0 v -3.52778"
       style="fill:none;stroke:#000000;stroke-width:0.10583334;stroke-linecap:butt;stroke-linejoin:miter;stroke-miterlimit:4;stroke-dasharray:none;stroke-opacity:1"
       id="path5076"
       inkscape:connector-curvature="0" />
    <path
       d="m 14.228681,293.88463 h 44.80277 c 0.97438,0 1.76389,-0.78987 1.76389,-1.76389 0,-0.97437 -0.78951,-1.76389 -1.76389,-1.76389 h -44.80277 z"
       style="fill:none;stroke:#000000;stroke-width:0.17638887;stroke-linecap:butt;stroke-linejoin:miter;stroke-miterlimit:4;stroke-dasharray:none;stroke-opacity:1"
       id="path5078"
       inkscape:connector-curvature="0" />
    <path
       d="m 53.713331,289.60543 1.49648,1.49649 m -1.49648,0 1.49648,-1.49649 m -35.363144,0 1.496483,1.49649 m -1.496483,0 1.496483,-1.49649"
       style="fill:none;stroke:#ffffff;stroke-width:0.08819444;stroke-linecap:butt;stroke-linejoin:miter;stroke-miterlimit:4;stroke-dasharray:none;stroke-opacity:1"
       id="path5080"
       inkscape:connector-curvature="0" />
    <path
       d="m 49.136041,280.16228 c -2.53365,1.71168 -4.19947,4.61045 -4.19947,7.89799 0,3.24943 1.62701,6.11893 4.11127,7.83801 m -23.09812,0.0406 c 2.517071,-1.71415 4.170188,-4.6034 4.170188,-7.87859 0,-3.38984 -1.770946,-6.36587 -4.437946,-8.05426"
       style="fill:none;stroke:#ffffff;stroke-width:0.49388885;stroke-linecap:butt;stroke-linejoin:miter;stroke-miterlimit:4;stroke-dasharray:none;stroke-opacity:1"
       id="path5082"
       inkscape:connector-curvature="0" />
    <path
       d="m 53.713331,289.60543 1.49648,1.49649 m -1.49648,0 1.49648,-1.49649"
       style="fill:none;stroke:#ed1c24;stroke-width:0.26458332;stroke-linecap:butt;stroke-linejoin:miter;stroke-miterlimit:4;stroke-dasharray:none;stroke-opacity:1"
       id="path5084"
       inkscape:connector-curvature="0" />
    <path
       d="m 19.846667,289.60543 1.496483,1.49649 m -1.496483,0 1.496483,-1.49649"
       style="fill:none;stroke:#345bb2;stroke-width:0.26458332;stroke-linecap:butt;stroke-linejoin:miter;stroke-miterlimit:4;stroke-dasharray:none;stroke-opacity:1"
       id="path5086"
       inkscape:connector-curvature="0" />
    <path
       d="m 49.136041,280.16228 c -2.53365,1.71168 -4.19947,4.61045 -4.19947,7.89799 0,3.24943 1.62701,6.11893 4.11127,7.83801"
       style="fill:none;stroke:#ed1c24;stroke-width:0.7055555;stroke-linecap:butt;stroke-linejoin:miter;stroke-miterlimit:4;stroke-dasharray:none;stroke-opacity:1"
       id="path5088"
       inkscape:connector-curvature="0" />
    <path
       d="m 25.949721,295.93885 c 2.517071,-1.71414 4.170188,-4.60339 4.170188,-7.87858 0,-3.38985 -1.770946,-6.36588 -4.437946,-8.05427"
       style="fill:none;stroke:#345bb2;stroke-width:0.7055555;stroke-linecap:butt;stroke-linejoin:miter;stroke-miterlimit:4;stroke-dasharray:none;stroke-opacity:1"
       id="path5090"
       inkscape:connector-curvature="0" />
    <path
       d="m 17.290439,283.63643 v 0.89006 l 1.065036,-0.61136 -1.065036,-0.61172 v 0.33302 l -0.270933,-0.003 v -0.77999 l 1.838677,1.05093 -1.838677,1.05128 v -0.79305 h -6.627989 v -0.52917 h 6.627989 l 0.270933,0.003"
       style="fill:#ce0077;fill-opacity:1;fill-rule:nonzero;stroke:none;stroke-width:0.35277775"
       id="path6896"
       inkscape:connector-curvature="0" />
    <text
       y="111.12691"
       x="107.20358"
       style="font-variant:normal;font-weight:normal;font-size:2.95225596px;font-family:TorontoPlain;-inkscape-font-specification:TorontoPlain;writing-mode:lr-tb;fill:#000000;fill-opacity:1;fill-rule:nonzero;stroke:none;stroke-width:0.35277775"
       id="text6908">
      <tspan
         style="stroke-width:0.35277775"
         x="107.20358"
         y="111.12691"
         id="tspan6906" />
    </text>
    <text
       y="111.12691"
       x="108.17724"
       style="font-style:italic;font-variant:normal;font-weight:normal;font-size:2.95225596px;font-family:TorontoItalic;-inkscape-font-specification:TorontoItalic;writing-mode:lr-tb;fill:#000000;fill-opacity:1;fill-rule:nonzero;stroke:none;stroke-width:0.35277775"
       id="text6912">
      <tspan
         style="stroke-width:0.35277775"
         x="108.17724"
         y="111.12691"
         id="tspan6910" />
    </text>
    <text
       y="141.20122"
       x="107.31658"
       style="font-variant:normal;font-weight:normal;font-size:2.95225596px;font-family:TorontoPlain;-inkscape-font-specification:TorontoPlain;writing-mode:lr-tb;fill:#000000;fill-opacity:1;fill-rule:nonzero;stroke:none;stroke-width:0.35277775"
       id="text6958">
      <tspan
         style="stroke-width:0.35277775"
         x="107.31658"
         y="141.20122"
         id="tspan6956" />
    </text>
    <text
       y="141.20122"
       x="108.29023"
       style="font-style:italic;font-variant:normal;font-weight:normal;font-size:2.95225596px;font-family:TorontoItalic;-inkscape-font-specification:TorontoItalic;writing-mode:lr-tb;fill:#000000;fill-opacity:1;fill-rule:nonzero;stroke:none;stroke-width:0.35277775"
       id="text6962">
      <tspan
         style="stroke-width:0.35277775"
         x="108.29023"
         y="141.20122"
         id="tspan6960" />
    </text>
    <text
       y="141.20122"
       x="109.77197"
       style="font-variant:normal;font-weight:normal;font-size:2.95225596px;font-family:TorontoPlain;-inkscape-font-specification:TorontoPlain;writing-mode:lr-tb;fill:#000000;fill-opacity:1;fill-rule:nonzero;stroke:none;stroke-width:0.35277775"
       id="text6966">
      <tspan
         style="stroke-width:0.35277775"
         x="109.77197"
         y="141.20122"
         id="tspan6964" />
    </text>
    <text
       y="200.24753"
       x="108.17716"
       style="font-style:italic;font-variant:normal;font-weight:normal;font-size:2.95225596px;font-family:TorontoItalic;-inkscape-font-specification:TorontoItalic;writing-mode:lr-tb;fill:#000000;fill-opacity:1;fill-rule:nonzero;stroke:none;stroke-width:0.35277775"
       id="text6998">
      <tspan
         style="stroke-width:0.35277775"
         x="108.17716"
         y="200.24753"
         id="tspan6996" />
    </text>
    <g
       id="g12597-0-8"
       ns1:jacobian_sqrt="0.352778"
       ns1:alignment="middle center"
       ns1:scale="1.0"
       ns1:preamble="C:\\Users\\HP\\AppData\\Roaming\\inkscape\\extensions\\textext\\default_packages.tex"
       ns1:text="\\(M\\)"
       ns1:pdfconverter="pdf2svg"
       ns1:texconverter="pdflatex"
       ns1:version="0.10.2"
       transform="matrix(0.35277801,0,0,0.35277801,-33.947398,246.14781)">
      <g
         id="surface1-2-9">
        <g
           id="g12594-3-9"
           style="fill:#000000;fill-opacity:1">
          <path
             id="path12592-7-9"
             transform="translate(148.712,134.765)"
             d="M 9.234375,-6.046875 C 9.328125,-6.40625 9.34375,-6.5 10.09375,-6.5 c 0.21875,0 0.3125,0 0.3125,-0.203125 0,-0.109375 -0.09375,-0.109375 -0.265625,-0.109375 h -1.3125 c -0.265625,0 -0.28125,0 -0.390625,0.1875 L 4.796875,-0.9375 4.015625,-6.578125 C 3.984375,-6.8125 3.96875,-6.8125 3.703125,-6.8125 H 2.34375 c -0.1875,0 -0.296875,0 -0.296875,0.1875 0,0.125 0.09375,0.125 0.28125,0.125 0.140625,0 0.3125,0.015625 0.4375,0.015625 0.15625,0.03125 0.21875,0.046875 0.21875,0.171875 0,0.03125 -0.015625,0.0625 -0.046875,0.1875 l -1.265625,5.0625 c -0.09375,0.40625 -0.265625,0.71875 -1.078125,0.75 -0.046875,0 -0.171875,0.015625 -0.171875,0.1875 0,0.09375 0.0625,0.125 0.140625,0.125 0.3125,0 0.65625,-0.03125 1,-0.03125 C 1.890625,-0.03125 2.25,0 2.578125,0 c 0.046875,0 0.1875,0 0.1875,-0.203125 0,-0.109375 -0.109375,-0.109375 -0.1875,-0.109375 -0.5625,0 -0.671875,-0.203125 -0.671875,-0.4375 0,-0.0625 0,-0.125 0.03125,-0.234375 L 3.296875,-6.40625 H 3.3125 l 0.859375,6.171875 C 4.1875,-0.109375 4.203125,0 4.3125,0 4.421875,0 4.484375,-0.109375 4.53125,-0.171875 l 4.03125,-6.3125 h 0.015625 l -1.4375,5.703125 c -0.09375,0.390625 -0.109375,0.46875 -0.90625,0.46875 -0.15625,0 -0.265625,0 -0.265625,0.1875 C 5.96875,0 6.078125,0 6.109375,0 6.390625,0 7.0625,-0.03125 7.34375,-0.03125 7.75,-0.03125 8.1875,0 8.59375,0 8.65625,0 8.78125,0 8.78125,-0.203125 8.78125,-0.3125 8.6875,-0.3125 8.5,-0.3125 c -0.359375,0 -0.640625,0 -0.640625,-0.171875 0,-0.046875 0,-0.0625 0.046875,-0.25 z m 0,0"
             style="stroke:none;stroke-width:0"
             inkscape:connector-curvature="0" />
        </g>
      </g>
    </g>
    <g
       id="g15445"
       ns1:jacobian_sqrt="0.352778"
       inkscapeversion="0.92.4"
       ns1:alignment="middle center"
       ns1:scale="1.0"
       ns1:preamble="C:\\Users\\HP\\AppData\\Roaming\\inkscape\\extensions\\textext\\default_packages.tex"
       ns1:text="\\(R\\)"
       ns1:pdfconverter="pdf2svg"
       ns1:texconverter="pdflatex"
       ns1:version="0.10.2"
       transform="matrix(0.352778,0,0,0.352778,0.43655386,246.10625)">
      <g
         id="g15443">
        <g
           id="g15441"
           style="fill:#000000;fill-opacity:1">
          <path
             id="path15439"
             transform="translate(148.712,134.765)"
             d="m 3.734375,-6.125 c 0.0625,-0.234375 0.09375,-0.328125 0.28125,-0.359375 C 4.109375,-6.5 4.421875,-6.5 4.625,-6.5 c 0.703125,0 1.8125,0 1.8125,0.984375 0,0.34375 -0.15625,1.03125 -0.546875,1.421875 -0.265625,0.25 -0.78125,0.578125 -1.6875,0.578125 H 3.09375 Z m 1.4375,2.734375 c 1.015625,-0.21875 2.1875,-0.921875 2.1875,-1.921875 0,-0.859375 -0.890625,-1.5 -2.203125,-1.5 H 2.328125 c -0.203125,0 -0.296875,0 -0.296875,0.203125 C 2.03125,-6.5 2.125,-6.5 2.3125,-6.5 c 0.015625,0 0.203125,0 0.375,0.015625 0.1875,0.03125 0.265625,0.03125 0.265625,0.171875 0,0.03125 0,0.0625 -0.03125,0.1875 l -1.34375,5.34375 C 1.484375,-0.390625 1.46875,-0.3125 0.671875,-0.3125 0.5,-0.3125 0.40625,-0.3125 0.40625,-0.109375 0.40625,0 0.53125,0 0.546875,0 c 0.28125,0 0.984375,-0.03125 1.25,-0.03125 0.28125,0 1,0.03125 1.28125,0.03125 0.078125,0 0.1875,0 0.1875,-0.203125 0,-0.109375 -0.078125,-0.109375 -0.28125,-0.109375 -0.359375,0 -0.640625,0 -0.640625,-0.171875 0,-0.0625 0.015625,-0.109375 0.03125,-0.171875 l 0.65625,-2.640625 h 1.1875 c 0.90625,0 1.078125,0.5625 1.078125,0.90625 0,0.140625 -0.078125,0.453125 -0.140625,0.6875 C 5.09375,-1.421875 5,-1.0625 5,-0.859375 5,0.21875 6.203125,0.21875 6.328125,0.21875 c 0.84375,0 1.203125,-1 1.203125,-1.140625 0,-0.125 -0.109375,-0.125 -0.125,-0.125 -0.09375,0 -0.109375,0.0625 -0.125,0.140625 C 7.03125,-0.171875 6.59375,0 6.375,0 6.046875,0 5.96875,-0.21875 5.96875,-0.609375 c 0,-0.3125 0.0625,-0.8125 0.109375,-1.140625 0.015625,-0.140625 0.03125,-0.328125 0.03125,-0.46875 0,-0.765625 -0.671875,-1.078125 -0.9375,-1.171875 z m 0,0"
             style="stroke:none;stroke-width:0"
             inkscape:connector-curvature="0" />
        </g>
      </g>
    </g>
    <g
       id="g26556"
       ns1:jacobian_sqrt="0.352778"
       inkscapeversion="0.92.4"
       ns1:alignment="middle center"
       ns1:scale="1.00000002835"
       ns1:preamble="C:\\Users\\HP\\AppData\\Roaming\\inkscape\\extensions\\textext\\default_packages.tex"
       ns1:text="\\(\\text{Sylva zji\xc5\xa1\xc5\xa5uje Rudou ud\xc3\xa1lost}\\)"
       ns1:pdfconverter="pdf2svg"
       ns1:texconverter="pdflatex"
       ns1:version="0.10.2"
       transform="matrix(0.352778,0,0,0.352778,-22.94362,231.24595)">
      <g
         id="g26554">
        <g
           id="g26486"
           style="fill:#000000;fill-opacity:1">
          <path
             id="path26478"
             transform="translate(148.712,134.765)"
             d="m 3.484375,-3.875 -1.28125,-0.296875 c -0.625,-0.15625 -1,-0.6875 -1,-1.265625 0,-0.703125 0.53125,-1.3125 1.3125,-1.3125 1.65625,0 1.875,1.640625 1.9375,2.078125 0.015625,0.0625 0.015625,0.125 0.125,0.125 0.125,0 0.125,-0.046875 0.125,-0.234375 v -2 c 0,-0.171875 0,-0.25 -0.109375,-0.25 -0.0625,0 -0.078125,0.015625 -0.140625,0.140625 l -0.359375,0.5625 C 3.796875,-6.625 3.390625,-7.03125 2.5,-7.03125 c -1.109375,0 -1.9375,0.875 -1.9375,1.9375 0,0.828125 0.53125,1.5625 1.296875,1.828125 0.109375,0.03125 0.625,0.15625 1.328125,0.328125 0.265625,0.0625 0.5625,0.140625 0.84375,0.5 0.203125,0.265625 0.3125,0.59375 0.3125,0.921875 0,0.703125 -0.5,1.421875 -1.34375,1.421875 -0.28125,0 -1.046875,-0.046875 -1.578125,-0.53125 C 0.84375,-1.171875 0.8125,-1.796875 0.8125,-2.15625 0.796875,-2.265625 0.71875,-2.265625 0.6875,-2.265625 c -0.125,0 -0.125,0.078125 -0.125,0.25 v 2 c 0,0.171875 0,0.234375 0.109375,0.234375 0.0625,0 0.078125,-0.015625 0.140625,-0.125 0,-0.015625 0.03125,-0.046875 0.359375,-0.578125 0.3125,0.34375 0.953125,0.703125 1.84375,0.703125 1.15625,0 1.953125,-0.96875 1.953125,-2.078125 0,-0.984375 -0.65625,-1.8125 -1.484375,-2.015625 z m 0,0"
             style="stroke:none;stroke-width:0"
             inkscape:connector-curvature="0" />
          <path
             id="path26480"
             transform="translate(154.24722,134.765)"
             d="m 4.140625,-3.34375 c 0.25,-0.640625 0.765625,-0.640625 0.921875,-0.640625 v -0.3125 c -0.234375,0.015625 -0.515625,0.03125 -0.75,0.03125 -0.171875,0 -0.640625,-0.015625 -0.859375,-0.03125 v 0.3125 c 0.3125,0 0.46875,0.171875 0.46875,0.421875 0,0.109375 -0.015625,0.125 -0.0625,0.25 L 2.84375,-0.875 1.75,-3.546875 C 1.703125,-3.65625 1.6875,-3.6875 1.6875,-3.734375 c 0,-0.25 0.359375,-0.25 0.5625,-0.25 v -0.3125 c -0.265625,0.015625 -0.921875,0.03125 -1.09375,0.03125 -0.265625,0 -0.671875,-0.015625 -0.96875,-0.03125 v 0.3125 c 0.484375,0 0.671875,0 0.8125,0.34375 L 2.5,0 C 2.4375,0.125 2.296875,0.453125 2.25,0.59375 2.03125,1.140625 1.75,1.828125 1.109375,1.828125 c -0.046875,0 -0.28125,0 -0.46875,-0.1875 0.3125,-0.03125 0.390625,-0.25 0.390625,-0.421875 0,-0.25 -0.1875,-0.40625 -0.421875,-0.40625 -0.203125,0 -0.421875,0.125 -0.421875,0.421875 0,0.453125 0.421875,0.8125 0.921875,0.8125 0.625,0 1.03125,-0.578125 1.265625,-1.140625 z m 0,0"
             style="stroke:none;stroke-width:0"
             inkscape:connector-curvature="0" />
          <path
             id="path26482"
             transform="translate(159.50548,134.765)"
             d="M 1.765625,-6.921875 0.328125,-6.8125 V -6.5 c 0.703125,0 0.78125,0.0625 0.78125,0.5625 V -0.75 c 0,0.4375 -0.109375,0.4375 -0.78125,0.4375 V 0 C 0.65625,-0.015625 1.1875,-0.03125 1.4375,-0.03125 c 0.25,0 0.734375,0.015625 1.109375,0.03125 v -0.3125 c -0.671875,0 -0.78125,0 -0.78125,-0.4375 z m 0,0"
             style="stroke:none;stroke-width:0"
             inkscape:connector-curvature="0" />
          <path
             id="path26484"
             transform="translate(162.27309,134.765)"
             d="M 4.140625,-3.3125 C 4.234375,-3.546875 4.40625,-3.984375 5.0625,-3.984375 v -0.3125 c -0.234375,0.015625 -0.515625,0.03125 -0.75,0.03125 -0.234375,0 -0.6875,-0.015625 -0.859375,-0.03125 v 0.3125 c 0.359375,0 0.46875,0.234375 0.46875,0.421875 0,0.09375 -0.015625,0.140625 -0.046875,0.25 L 2.84375,-0.78125 1.734375,-3.5625 c -0.0625,-0.125 -0.0625,-0.140625 -0.0625,-0.171875 0,-0.25 0.390625,-0.25 0.578125,-0.25 v -0.3125 c -0.3125,0.015625 -0.859375,0.03125 -1.09375,0.03125 -0.265625,0 -0.671875,-0.015625 -0.96875,-0.03125 v 0.3125 c 0.625,0 0.671875,0.0625 0.796875,0.359375 l 1.4375,3.546875 C 2.484375,0.0625 2.5,0.109375 2.625,0.109375 c 0.140625,0 0.171875,-0.09375 0.21875,-0.1875 z m 0,0"
             style="stroke:none;stroke-width:0"
             inkscape:connector-curvature="0" />
        </g>
        <g
           id="g26490"
           style="fill:#000000;fill-opacity:1">
          <path
             id="path26488"
             transform="translate(166.97345,134.765)"
             d="m 3.3125,-0.75 c 0.046875,0.390625 0.3125,0.8125 0.78125,0.8125 0.21875,0 0.828125,-0.140625 0.828125,-0.953125 v -0.5625 h -0.25 v 0.5625 c 0,0.578125 -0.25,0.640625 -0.359375,0.640625 -0.328125,0 -0.375,-0.453125 -0.375,-0.5 v -1.984375 c 0,-0.421875 0,-0.8125 -0.359375,-1.1875 C 3.1875,-4.3125 2.6875,-4.46875 2.21875,-4.46875 c -0.828125,0 -1.515625,0.46875 -1.515625,1.125 0,0.296875 0.203125,0.46875 0.46875,0.46875 0.28125,0 0.453125,-0.203125 0.453125,-0.453125 0,-0.125 -0.046875,-0.453125 -0.515625,-0.453125 C 1.390625,-4.140625 1.875,-4.25 2.1875,-4.25 c 0.5,0 1.0625,0.390625 1.0625,1.28125 v 0.359375 c -0.515625,0.03125 -1.203125,0.0625 -1.828125,0.359375 -0.75,0.34375 -1,0.859375 -1,1.296875 0,0.8125 0.96875,1.0625 1.59375,1.0625 0.65625,0 1.109375,-0.40625 1.296875,-0.859375 z M 3.25,-2.390625 v 1 c 0,0.9375 -0.71875,1.28125 -1.171875,1.28125 -0.484375,0 -0.890625,-0.34375 -0.890625,-0.84375 0,-0.546875 0.421875,-1.375 2.0625,-1.4375 z m 0,0"
             style="stroke:none;stroke-width:0"
             inkscape:connector-curvature="0" />
        </g>
        <g
           id="g26498"
           style="fill:#000000;fill-opacity:1">
          <path
             id="path26492"
             transform="translate(175.28225,134.765)"
             d="m 3.890625,-4 c 0.09375,-0.109375 0.09375,-0.125 0.09375,-0.171875 0,-0.125 -0.09375,-0.125 -0.265625,-0.125 H 0.53125 L 0.421875,-2.6875 h 0.25 c 0.0625,-1.015625 0.25,-1.390625 1.34375,-1.390625 H 3.15625 L 0.375,-0.3125 C 0.28125,-0.203125 0.28125,-0.1875 0.28125,-0.140625 0.28125,0 0.34375,0 0.53125,0 H 3.828125 L 4,-1.859375 H 3.75 C 3.65625,-0.6875 3.453125,-0.25 2.296875,-0.25 h -1.1875 z m 0,0"
             style="stroke:none;stroke-width:0"
             inkscape:connector-curvature="0" />
          <path
             id="path26494"
             transform="translate(179.70963,134.765)"
             d="m 2.09375,-4.40625 -1.515625,0.109375 v 0.3125 c 0.765625,0 0.859375,0.0625 0.859375,0.5625 v 3.9375 c 0,0.453125 -0.09375,1.3125 -0.734375,1.3125 -0.046875,0 -0.28125,0 -0.53125,-0.140625 C 0.3125,1.65625 0.515625,1.515625 0.515625,1.25 0.515625,0.984375 0.34375,0.78125 0.0625,0.78125 c -0.28125,0 -0.46875,0.203125 -0.46875,0.46875 0,0.515625 0.5625,0.796875 1.140625,0.796875 C 1.46875,2.046875 2.09375,1.40625 2.09375,0.5 Z m 0,-1.734375 c 0,-0.296875 -0.234375,-0.53125 -0.53125,-0.53125 -0.28125,0 -0.53125,0.234375 -0.53125,0.53125 0,0.28125 0.25,0.53125 0.53125,0.53125 0.296875,0 0.53125,-0.25 0.53125,-0.53125 z m 0,0"
             style="stroke:none;stroke-width:0"
             inkscape:connector-curvature="0" />
          <path
             id="path26496"
             transform="translate(182.7542,134.765)"
             d="M 1.765625,-4.40625 0.375,-4.296875 v 0.3125 c 0.640625,0 0.734375,0.0625 0.734375,0.546875 V -0.75 c 0,0.4375 -0.109375,0.4375 -0.78125,0.4375 V 0 C 0.640625,-0.015625 1.1875,-0.03125 1.421875,-0.03125 1.78125,-0.03125 2.125,-0.015625 2.46875,0 v -0.3125 c -0.671875,0 -0.703125,-0.046875 -0.703125,-0.4375 z m 0.03125,-1.734375 c 0,-0.3125 -0.234375,-0.53125 -0.515625,-0.53125 -0.3125,0 -0.53125,0.265625 -0.53125,0.53125 0,0.265625 0.21875,0.53125 0.53125,0.53125 0.28125,0 0.515625,-0.21875 0.515625,-0.53125 z m 0,0"
             style="stroke:none;stroke-width:0"
             inkscape:connector-curvature="0" />
        </g>
        <g
           id="g26502"
           style="fill:#000000;fill-opacity:1">
          <path
             id="path26500"
             transform="translate(184.9938,134.765)"
             d="m 2.5,-5.671875 -1.1875,-0.6875 -0.140625,0.203125 1.3125,1.015625 1.3125,-1.015625 -0.140625,-0.203125 z m 0,0"
             style="stroke:none;stroke-width:0"
             inkscape:connector-curvature="0" />
        </g>
        <g
           id="g26506"
           style="fill:#000000;fill-opacity:1">
          <path
             id="path26504"
             transform="translate(185.52181,134.765)"
             d="m 2.078125,-1.9375 c 0.21875,0.046875 1.03125,0.203125 1.03125,0.921875 0,0.5 -0.34375,0.90625 -1.125,0.90625 -0.84375,0 -1.203125,-0.5625 -1.390625,-1.421875 C 0.5625,-1.65625 0.5625,-1.6875 0.453125,-1.6875 c -0.125,0 -0.125,0.0625 -0.125,0.234375 V -0.125 c 0,0.171875 0,0.234375 0.109375,0.234375 0.046875,0 0.0625,-0.015625 0.25,-0.203125 0.015625,-0.015625 0.015625,-0.03125 0.203125,-0.21875 0.4375,0.40625 0.890625,0.421875 1.09375,0.421875 1.140625,0 1.609375,-0.671875 1.609375,-1.390625 0,-0.515625 -0.296875,-0.828125 -0.421875,-0.9375 C 2.84375,-2.546875 2.453125,-2.625 2.03125,-2.703125 1.46875,-2.8125 0.8125,-2.9375 0.8125,-3.515625 c 0,-0.359375 0.25,-0.765625 1.109375,-0.765625 1.09375,0 1.15625,0.90625 1.171875,1.203125 0,0.09375 0.09375,0.09375 0.109375,0.09375 0.140625,0 0.140625,-0.046875 0.140625,-0.234375 v -1.015625 c 0,-0.15625 0,-0.234375 -0.109375,-0.234375 -0.046875,0 -0.078125,0 -0.203125,0.125 -0.03125,0.03125 -0.125,0.125 -0.171875,0.15625 -0.375,-0.28125 -0.78125,-0.28125 -0.9375,-0.28125 -1.21875,0 -1.59375,0.671875 -1.59375,1.234375 0,0.34375 0.15625,0.625 0.421875,0.84375 0.328125,0.25 0.609375,0.3125 1.328125,0.453125 z m 0,0"
             style="stroke:none;stroke-width:0"
             inkscape:connector-curvature="0" />
        </g>
        <g
           id="g26510"
           style="fill:#000000;fill-opacity:1">
          <path
             id="path26508"
             transform="translate(188.895,132.926)"
             d="m 2.5,-5.671875 -1.1875,-0.6875 -0.140625,0.203125 1.3125,1.015625 1.3125,-1.015625 -0.140625,-0.203125 z m 0,0"
             style="stroke:none;stroke-width:0"
             inkscape:connector-curvature="0" />
        </g>
        <g
           id="g26520"
           style="fill:#000000;fill-opacity:1">
          <path
             id="path26512"
             transform="translate(189.449,134.765)"
             d="m 1.71875,-3.984375 h 1.4375 v -0.3125 H 1.71875 V -6.125 h -0.25 c 0,0.8125 -0.296875,1.875 -1.28125,1.921875 v 0.21875 h 0.84375 v 2.75 c 0,1.21875 0.9375,1.34375 1.296875,1.34375 0.703125,0 0.984375,-0.703125 0.984375,-1.34375 v -0.5625 h -0.25 V -1.25 c 0,0.734375 -0.296875,1.109375 -0.671875,1.109375 -0.671875,0 -0.671875,-0.90625 -0.671875,-1.078125 z m 0,0"
             style="stroke:none;stroke-width:0"
             inkscape:connector-curvature="0" />
          <path
             id="path26514"
             transform="translate(193.32345,134.765)"
             d="M 3.890625,-0.78125 V 0.109375 L 5.328125,0 V -0.3125 C 4.640625,-0.3125 4.5625,-0.375 4.5625,-0.875 v -3.53125 l -1.46875,0.109375 v 0.3125 c 0.6875,0 0.78125,0.0625 0.78125,0.5625 v 1.765625 c 0,0.875 -0.484375,1.546875 -1.21875,1.546875 -0.828125,0 -0.875,-0.46875 -0.875,-0.984375 v -3.3125 L 0.3125,-4.296875 v 0.3125 c 0.78125,0 0.78125,0.03125 0.78125,0.90625 v 1.5 c 0,0.78125 0,1.6875 1.515625,1.6875 0.5625,0 1,-0.28125 1.28125,-0.890625 z m 0,0"
             style="stroke:none;stroke-width:0"
             inkscape:connector-curvature="0" />
          <path
             id="path26516"
             transform="translate(198.85868,134.765)"
             d="m 2.09375,-4.40625 -1.515625,0.109375 v 0.3125 c 0.765625,0 0.859375,0.0625 0.859375,0.5625 v 3.9375 c 0,0.453125 -0.09375,1.3125 -0.734375,1.3125 -0.046875,0 -0.28125,0 -0.53125,-0.140625 C 0.3125,1.65625 0.515625,1.515625 0.515625,1.25 0.515625,0.984375 0.34375,0.78125 0.0625,0.78125 c -0.28125,0 -0.46875,0.203125 -0.46875,0.46875 0,0.515625 0.5625,0.796875 1.140625,0.796875 C 1.46875,2.046875 2.09375,1.40625 2.09375,0.5 Z m 0,-1.734375 c 0,-0.296875 -0.234375,-0.53125 -0.53125,-0.53125 -0.28125,0 -0.53125,0.234375 -0.53125,0.53125 0,0.28125 0.25,0.53125 0.53125,0.53125 0.296875,0 0.53125,-0.25 0.53125,-0.53125 z m 0,0"
             style="stroke:none;stroke-width:0"
             inkscape:connector-curvature="0" />
          <path
             id="path26518"
             transform="translate(201.90325,134.765)"
             d="M 1.109375,-2.515625 C 1.171875,-4 2.015625,-4.25 2.359375,-4.25 c 1.015625,0 1.125,1.34375 1.125,1.734375 z m 0,0.21875 h 2.78125 c 0.21875,0 0.25,0 0.25,-0.21875 0,-0.984375 -0.546875,-1.953125 -1.78125,-1.953125 -1.15625,0 -2.078125,1.03125 -2.078125,2.28125 0,1.328125 1.046875,2.296875 2.1875,2.296875 C 3.6875,0.109375 4.140625,-1 4.140625,-1.1875 4.140625,-1.28125 4.0625,-1.3125 4,-1.3125 c -0.078125,0 -0.109375,0.0625 -0.125,0.140625 -0.34375,1.03125 -1.25,1.03125 -1.34375,1.03125 -0.5,0 -0.890625,-0.296875 -1.125,-0.671875 -0.296875,-0.46875 -0.296875,-1.125 -0.296875,-1.484375 z m 0,0"
             style="stroke:none;stroke-width:0"
             inkscape:connector-curvature="0" />
        </g>
        <g
           id="g26532"
           style="fill:#000000;fill-opacity:1">
          <path
             id="path26522"
             transform="translate(209.64817,134.765)"
             d="M 2.234375,-3.515625 V -6.09375 c 0,-0.234375 0,-0.359375 0.21875,-0.390625 C 2.546875,-6.5 2.84375,-6.5 3.046875,-6.5 c 0.890625,0 2,0.046875 2,1.484375 0,0.6875 -0.234375,1.5 -1.703125,1.5 z m 2.109375,0.125 C 5.296875,-3.625 6.078125,-4.234375 6.078125,-5.015625 6.078125,-5.96875 4.9375,-6.8125 3.484375,-6.8125 H 0.34375 V -6.5 h 0.25 c 0.765625,0 0.78125,0.109375 0.78125,0.46875 v 5.25 c 0,0.359375 -0.015625,0.46875 -0.78125,0.46875 h -0.25 V 0 c 0.359375,-0.03125 1.078125,-0.03125 1.453125,-0.03125 0.390625,0 1.109375,0 1.46875,0.03125 v -0.3125 h -0.25 c -0.765625,0 -0.78125,-0.109375 -0.78125,-0.46875 V -3.296875 H 3.375 c 0.15625,0 0.578125,0 0.9375,0.34375 0.375,0.34375 0.375,0.65625 0.375,1.328125 0,0.640625 0,1.046875 0.40625,1.421875 0.40625,0.359375 0.953125,0.421875 1.25,0.421875 0.78125,0 0.953125,-0.8125 0.953125,-1.09375 0,-0.0625 0,-0.171875 -0.125,-0.171875 -0.109375,0 -0.109375,0.09375 -0.125,0.15625 C 6.984375,-0.171875 6.640625,0 6.390625,0 5.90625,0 5.828125,-0.515625 5.6875,-1.4375 L 5.546875,-2.234375 C 5.375,-2.875 4.890625,-3.203125 4.34375,-3.390625 Z m 0,0"
             style="stroke:none;stroke-width:0"
             inkscape:connector-curvature="0" />
          <path
             id="path26524"
             transform="translate(216.98164,134.765)"
             d="M 3.890625,-0.78125 V 0.109375 L 5.328125,0 V -0.3125 C 4.640625,-0.3125 4.5625,-0.375 4.5625,-0.875 v -3.53125 l -1.46875,0.109375 v 0.3125 c 0.6875,0 0.78125,0.0625 0.78125,0.5625 v 1.765625 c 0,0.875 -0.484375,1.546875 -1.21875,1.546875 -0.828125,0 -0.875,-0.46875 -0.875,-0.984375 v -3.3125 L 0.3125,-4.296875 v 0.3125 c 0.78125,0 0.78125,0.03125 0.78125,0.90625 v 1.5 c 0,0.78125 0,1.6875 1.515625,1.6875 0.5625,0 1,-0.28125 1.28125,-0.890625 z m 0,0"
             style="stroke:none;stroke-width:0"
             inkscape:connector-curvature="0" />
          <path
             id="path26526"
             transform="translate(222.51686,134.765)"
             d="m 3.78125,-0.546875 v 0.65625 L 5.25,0 v -0.3125 c -0.6875,0 -0.78125,-0.0625 -0.78125,-0.5625 V -6.921875 L 3.046875,-6.8125 V -6.5 c 0.6875,0 0.765625,0.0625 0.765625,0.5625 v 2.15625 c -0.28125,-0.359375 -0.71875,-0.625 -1.25,-0.625 -1.171875,0 -2.21875,0.984375 -2.21875,2.265625 0,1.265625 0.96875,2.25 2.109375,2.25 0.640625,0 1.078125,-0.34375 1.328125,-0.65625 z m 0,-2.671875 v 2.046875 c 0,0.171875 0,0.1875 -0.109375,0.359375 C 3.375,-0.328125 2.9375,-0.109375 2.5,-0.109375 2.046875,-0.109375 1.6875,-0.375 1.453125,-0.75 1.203125,-1.15625 1.171875,-1.71875 1.171875,-2.140625 1.171875,-2.5 1.1875,-3.09375 1.46875,-3.546875 1.6875,-3.859375 2.0625,-4.1875 2.609375,-4.1875 c 0.34375,0 0.765625,0.15625 1.0625,0.59375 0.109375,0.171875 0.109375,0.1875 0.109375,0.375 z m 0,0"
             style="stroke:none;stroke-width:0"
             inkscape:connector-curvature="0" />
          <path
             id="path26528"
             transform="translate(228.05208,134.765)"
             d="M 4.6875,-2.140625 C 4.6875,-3.40625 3.703125,-4.46875 2.5,-4.46875 c -1.25,0 -2.21875,1.09375 -2.21875,2.328125 0,1.296875 1.03125,2.25 2.203125,2.25 1.203125,0 2.203125,-0.984375 2.203125,-2.25 z m -2.1875,2 c -0.4375,0 -0.875,-0.203125 -1.140625,-0.671875 -0.25,-0.4375 -0.25,-1.046875 -0.25,-1.40625 0,-0.390625 0,-0.921875 0.234375,-1.359375 C 1.609375,-4.03125 2.078125,-4.25 2.484375,-4.25 c 0.4375,0 0.859375,0.21875 1.125,0.65625 0.265625,0.421875 0.265625,1 0.265625,1.375 0,0.359375 0,0.90625 -0.21875,1.34375 C 3.421875,-0.421875 2.984375,-0.140625 2.5,-0.140625 Z m 0,0"
             style="stroke:none;stroke-width:0"
             inkscape:connector-curvature="0" />
          <path
             id="path26530"
             transform="translate(233.03338,134.765)"
             d="M 3.890625,-0.78125 V 0.109375 L 5.328125,0 V -0.3125 C 4.640625,-0.3125 4.5625,-0.375 4.5625,-0.875 v -3.53125 l -1.46875,0.109375 v 0.3125 c 0.6875,0 0.78125,0.0625 0.78125,0.5625 v 1.765625 c 0,0.875 -0.484375,1.546875 -1.21875,1.546875 -0.828125,0 -0.875,-0.46875 -0.875,-0.984375 v -3.3125 L 0.3125,-4.296875 v 0.3125 c 0.78125,0 0.78125,0.03125 0.78125,0.90625 v 1.5 c 0,0.78125 0,1.6875 1.515625,1.6875 0.5625,0 1,-0.28125 1.28125,-0.890625 z m 0,0"
             style="stroke:none;stroke-width:0"
             inkscape:connector-curvature="0" />
        </g>
        <g
           id="g26540"
           style="fill:#000000;fill-opacity:1">
          <path
             id="path26534"
             transform="translate(241.88615,134.765)"
             d="M 3.890625,-0.78125 V 0.109375 L 5.328125,0 V -0.3125 C 4.640625,-0.3125 4.5625,-0.375 4.5625,-0.875 v -3.53125 l -1.46875,0.109375 v 0.3125 c 0.6875,0 0.78125,0.0625 0.78125,0.5625 v 1.765625 c 0,0.875 -0.484375,1.546875 -1.21875,1.546875 -0.828125,0 -0.875,-0.46875 -0.875,-0.984375 v -3.3125 L 0.3125,-4.296875 v 0.3125 c 0.78125,0 0.78125,0.03125 0.78125,0.90625 v 1.5 c 0,0.78125 0,1.6875 1.515625,1.6875 0.5625,0 1,-0.28125 1.28125,-0.890625 z m 0,0"
             style="stroke:none;stroke-width:0"
             inkscape:connector-curvature="0" />
          <path
             id="path26536"
             transform="translate(247.42137,134.765)"
             d="m 3.78125,-0.546875 v 0.65625 L 5.25,0 v -0.3125 c -0.6875,0 -0.78125,-0.0625 -0.78125,-0.5625 V -6.921875 L 3.046875,-6.8125 V -6.5 c 0.6875,0 0.765625,0.0625 0.765625,0.5625 v 2.15625 c -0.28125,-0.359375 -0.71875,-0.625 -1.25,-0.625 -1.171875,0 -2.21875,0.984375 -2.21875,2.265625 0,1.265625 0.96875,2.25 2.109375,2.25 0.640625,0 1.078125,-0.34375 1.328125,-0.65625 z m 0,-2.671875 v 2.046875 c 0,0.171875 0,0.1875 -0.109375,0.359375 C 3.375,-0.328125 2.9375,-0.109375 2.5,-0.109375 2.046875,-0.109375 1.6875,-0.375 1.453125,-0.75 1.203125,-1.15625 1.171875,-1.71875 1.171875,-2.140625 1.171875,-2.5 1.1875,-3.09375 1.46875,-3.546875 1.6875,-3.859375 2.0625,-4.1875 2.609375,-4.1875 c 0.34375,0 0.765625,0.15625 1.0625,0.59375 0.109375,0.171875 0.109375,0.1875 0.109375,0.375 z m 0,0"
             style="stroke:none;stroke-width:0"
             inkscape:connector-curvature="0" />
          <path
             id="path26538"
             transform="translate(252.95659,134.765)"
             d="M 3.734375,-6.296875 C 3.828125,-6.375 3.90625,-6.484375 3.90625,-6.59375 c 0,-0.1875 -0.171875,-0.359375 -0.359375,-0.359375 -0.140625,0 -0.25,0.109375 -0.296875,0.171875 l -1.203125,1.515625 0.171875,0.1875 z m 0,0"
             style="stroke:none;stroke-width:0"
             inkscape:connector-curvature="0" />
        </g>
        <g
           id="g26552"
           style="fill:#000000;fill-opacity:1">
          <path
             id="path26542"
             transform="translate(252.95659,134.765)"
             d="m 3.3125,-0.75 c 0.046875,0.390625 0.3125,0.8125 0.78125,0.8125 0.21875,0 0.828125,-0.140625 0.828125,-0.953125 v -0.5625 h -0.25 v 0.5625 c 0,0.578125 -0.25,0.640625 -0.359375,0.640625 -0.328125,0 -0.375,-0.453125 -0.375,-0.5 v -1.984375 c 0,-0.421875 0,-0.8125 -0.359375,-1.1875 C 3.1875,-4.3125 2.6875,-4.46875 2.21875,-4.46875 c -0.828125,0 -1.515625,0.46875 -1.515625,1.125 0,0.296875 0.203125,0.46875 0.46875,0.46875 0.28125,0 0.453125,-0.203125 0.453125,-0.453125 0,-0.125 -0.046875,-0.453125 -0.515625,-0.453125 C 1.390625,-4.140625 1.875,-4.25 2.1875,-4.25 c 0.5,0 1.0625,0.390625 1.0625,1.28125 v 0.359375 c -0.515625,0.03125 -1.203125,0.0625 -1.828125,0.359375 -0.75,0.34375 -1,0.859375 -1,1.296875 0,0.8125 0.96875,1.0625 1.59375,1.0625 0.65625,0 1.109375,-0.40625 1.296875,-0.859375 z M 3.25,-2.390625 v 1 c 0,0.9375 -0.71875,1.28125 -1.171875,1.28125 -0.484375,0 -0.890625,-0.34375 -0.890625,-0.84375 0,-0.546875 0.421875,-1.375 2.0625,-1.4375 z m 0,0"
             style="stroke:none;stroke-width:0"
             inkscape:connector-curvature="0" />
          <path
             id="path26544"
             transform="translate(257.93789,134.765)"
             d="M 1.765625,-6.921875 0.328125,-6.8125 V -6.5 c 0.703125,0 0.78125,0.0625 0.78125,0.5625 V -0.75 c 0,0.4375 -0.109375,0.4375 -0.78125,0.4375 V 0 C 0.65625,-0.015625 1.1875,-0.03125 1.4375,-0.03125 c 0.25,0 0.734375,0.015625 1.109375,0.03125 v -0.3125 c -0.671875,0 -0.78125,0 -0.78125,-0.4375 z m 0,0"
             style="stroke:none;stroke-width:0"
             inkscape:connector-curvature="0" />
          <path
             id="path26546"
             transform="translate(260.7055,134.765)"
             d="M 4.6875,-2.140625 C 4.6875,-3.40625 3.703125,-4.46875 2.5,-4.46875 c -1.25,0 -2.21875,1.09375 -2.21875,2.328125 0,1.296875 1.03125,2.25 2.203125,2.25 1.203125,0 2.203125,-0.984375 2.203125,-2.25 z m -2.1875,2 c -0.4375,0 -0.875,-0.203125 -1.140625,-0.671875 -0.25,-0.4375 -0.25,-1.046875 -0.25,-1.40625 0,-0.390625 0,-0.921875 0.234375,-1.359375 C 1.609375,-4.03125 2.078125,-4.25 2.484375,-4.25 c 0.4375,0 0.859375,0.21875 1.125,0.65625 0.265625,0.421875 0.265625,1 0.265625,1.375 0,0.359375 0,0.90625 -0.21875,1.34375 C 3.421875,-0.421875 2.984375,-0.140625 2.5,-0.140625 Z m 0,0"
             style="stroke:none;stroke-width:0"
             inkscape:connector-curvature="0" />
          <path
             id="path26548"
             transform="translate(265.6868,134.765)"
             d="m 2.078125,-1.9375 c 0.21875,0.046875 1.03125,0.203125 1.03125,0.921875 0,0.5 -0.34375,0.90625 -1.125,0.90625 -0.84375,0 -1.203125,-0.5625 -1.390625,-1.421875 C 0.5625,-1.65625 0.5625,-1.6875 0.453125,-1.6875 c -0.125,0 -0.125,0.0625 -0.125,0.234375 V -0.125 c 0,0.171875 0,0.234375 0.109375,0.234375 0.046875,0 0.0625,-0.015625 0.25,-0.203125 0.015625,-0.015625 0.015625,-0.03125 0.203125,-0.21875 0.4375,0.40625 0.890625,0.421875 1.09375,0.421875 1.140625,0 1.609375,-0.671875 1.609375,-1.390625 0,-0.515625 -0.296875,-0.828125 -0.421875,-0.9375 C 2.84375,-2.546875 2.453125,-2.625 2.03125,-2.703125 1.46875,-2.8125 0.8125,-2.9375 0.8125,-3.515625 c 0,-0.359375 0.25,-0.765625 1.109375,-0.765625 1.09375,0 1.15625,0.90625 1.171875,1.203125 0,0.09375 0.09375,0.09375 0.109375,0.09375 0.140625,0 0.140625,-0.046875 0.140625,-0.234375 v -1.015625 c 0,-0.15625 0,-0.234375 -0.109375,-0.234375 -0.046875,0 -0.078125,0 -0.203125,0.125 -0.03125,0.03125 -0.125,0.125 -0.171875,0.15625 -0.375,-0.28125 -0.78125,-0.28125 -0.9375,-0.28125 -1.21875,0 -1.59375,0.671875 -1.59375,1.234375 0,0.34375 0.15625,0.625 0.421875,0.84375 0.328125,0.25 0.609375,0.3125 1.328125,0.453125 z m 0,0"
             style="stroke:none;stroke-width:0"
             inkscape:connector-curvature="0" />
          <path
             id="path26550"
             transform="translate(269.61605,134.765)"
             d="m 1.71875,-3.984375 h 1.4375 v -0.3125 H 1.71875 V -6.125 h -0.25 c 0,0.8125 -0.296875,1.875 -1.28125,1.921875 v 0.21875 h 0.84375 v 2.75 c 0,1.21875 0.9375,1.34375 1.296875,1.34375 0.703125,0 0.984375,-0.703125 0.984375,-1.34375 v -0.5625 h -0.25 V -1.25 c 0,0.734375 -0.296875,1.109375 -0.671875,1.109375 -0.671875,0 -0.671875,-0.90625 -0.671875,-1.078125 z m 0,0"
             style="stroke:none;stroke-width:0"
             inkscape:connector-curvature="0" />
        </g>
      </g>
    </g>
    <g
       id="g31063-0-9"
       ns1:jacobian_sqrt="0.352778"
       inkscapeversion="0.92.4"
       ns1:alignment="middle center"
       ns1:scale="1.0000000567"
       ns1:preamble="C:\\Users\\HP\\AppData\\Roaming\\inkscape\\extensions\\textext\\default_packages.tex"
       ns1:text="\\(\\vec{v}\\)"
       ns1:pdfconverter="pdf2svg"
       ns1:texconverter="pdflatex"
       ns1:version="0.10.2"
       transform="matrix(0.44800933,0,0,0.44800933,-47.621046,224.94315)">
      <g
         id="g31061-6-1">
        <g
           id="g31055-9-5"
           style="fill:#000000;fill-opacity:1">
          <path
             id="path31053-1-4"
             transform="translate(148.325,134.765)"
             d="m 5.359375,-5.9375 c -0.140625,0.140625 -0.46875,0.421875 -0.46875,0.59375 0,0.09375 0.09375,0.203125 0.1875,0.203125 0.09375,0 0.140625,-0.078125 0.203125,-0.140625 C 5.390625,-5.421875 5.625,-5.703125 6.0625,-5.921875 6.125,-5.96875 6.234375,-6.015625 6.234375,-6.125 6.234375,-6.234375 6.15625,-6.28125 6.09375,-6.328125 5.875,-6.484375 5.765625,-6.65625 5.6875,-6.890625 5.65625,-6.984375 5.625,-7.125 5.484375,-7.125 c -0.140625,0 -0.203125,0.140625 -0.203125,0.21875 0,0.046875 0.078125,0.359375 0.234375,0.578125 H 2.15625 c -0.15625,0 -0.34375,0 -0.34375,0.203125 0,0.1875 0.1875,0.1875 0.34375,0.1875 z m 0,0"
             style="stroke:none;stroke-width:0"
             inkscape:connector-curvature="0" />
        </g>
        <g
           id="g31059-15-7"
           style="fill:#000000;fill-opacity:1">
          <path
             id="path31057-57-5"
             transform="translate(148.71354,134.765)"
             d="m 4.671875,-3.703125 c 0,-0.546875 -0.265625,-0.703125 -0.4375,-0.703125 -0.25,0 -0.5,0.265625 -0.5,0.484375 0,0.125 0.046875,0.1875 0.15625,0.296875 0.21875,0.203125 0.34375,0.453125 0.34375,0.8125 0,0.421875 -0.609375,2.703125 -1.765625,2.703125 -0.515625,0 -0.75,-0.34375 -0.75,-0.875 0,-0.546875 0.28125,-1.28125 0.578125,-2.109375 0.078125,-0.171875 0.125,-0.3125 0.125,-0.5 0,-0.4375 -0.3125,-0.8125 -0.8125,-0.8125 -0.9375,0 -1.3125,1.453125 -1.3125,1.53125 0,0.109375 0.09375,0.109375 0.109375,0.109375 0.109375,0 0.109375,-0.03125 0.15625,-0.1875 0.296875,-1 0.71875,-1.234375 1.015625,-1.234375 0.078125,0 0.25,0 0.25,0.3125 0,0.25 -0.109375,0.53125 -0.171875,0.703125 -0.4375,1.15625 -0.5625,1.609375 -0.5625,2.046875 0,1.078125 0.875,1.234375 1.328125,1.234375 1.671875,0 2.25,-3.296875 2.25,-3.8125 z m 0,0"
             style="stroke:none;stroke-width:0"
             inkscape:connector-curvature="0" />
        </g>
      </g>
    </g>
  </g>
</svg>
