<?xml version="1.0" encoding="UTF-8" standalone="no"?>
<!-- Created with Inkscape (http://www.inkscape.org/) -->

<svg
   xmlns:dc="http://purl.org/dc/elements/1.1/"
   xmlns:cc="http://creativecommons.org/ns#"
   xmlns:rdf="http://www.w3.org/1999/02/22-rdf-syntax-ns#"
   xmlns:svg="http://www.w3.org/2000/svg"
   xmlns="http://www.w3.org/2000/svg"
   xmlns:sodipodi="http://sodipodi.sourceforge.net/DTD/sodipodi-0.dtd"
   xmlns:inkscape="http://www.inkscape.org/namespaces/inkscape"
   id="svg6108"
   version="1.1"
   inkscape:version="0.48.0 r9654"
   width="400"
   height="200"
   xml:space="preserve"
   sodipodi:docname="trajectory_wheel_cycloide.svg"><metadata
     id="metadata6114"><rdf:RDF><cc:Work
         rdf:about=""><dc:format>image/svg+xml</dc:format><dc:type
           rdf:resource="http://purl.org/dc/dcmitype/StillImage" /><dc:title></dc:title></cc:Work></rdf:RDF></metadata><defs
     id="defs6112"><clipPath
       clipPathUnits="userSpaceOnUse"
       id="clipPath6124"><path
         d="m 0,2637.93 5950,0 0,3128.28 -5950,0 0,-3128.28 z"
         id="path6126"
         inkscape:connector-curvature="0" /></clipPath><clipPath
       clipPathUnits="userSpaceOnUse"
       id="clipPath6334"><path
         d="m 552.414,5530.35 0,-2557.24 5102.076,0 0,2557.24 -5102.076,0 z"
         id="path6336"
         inkscape:connector-curvature="0" /></clipPath><clipPath
       clipPathUnits="userSpaceOnUse"
       id="clipPath6334-7"><path
         d="m 552.414,5530.35 0,-2557.24 5102.076,0 0,2557.24 -5102.076,0 z"
         id="path6336-2"
         inkscape:connector-curvature="0" /></clipPath></defs><sodipodi:namedview
     pagecolor="#ffffff"
     bordercolor="#666666"
     borderopacity="1"
     objecttolerance="10"
     gridtolerance="10"
     guidetolerance="10"
     inkscape:pageopacity="0"
     inkscape:pageshadow="2"
     inkscape:window-width="1920"
     inkscape:window-height="1125"
     id="namedview6110"
     showgrid="false"
     inkscape:zoom="1.8394299"
     inkscape:cx="260.07296"
     inkscape:cy="225.27013"
     inkscape:window-x="-9"
     inkscape:window-y="-9"
     inkscape:window-maximized="1"
     inkscape:current-layer="g6118" /><g
     id="g6116"
     inkscape:groupmode="layer"
     inkscape:label="trajectory_wheel_cycloide"
     transform="matrix(1.25,0,0,-1.25,0,200)"><g
       id="g6118"
       transform="matrix(0.1,0,0,0.1,-29.523169,-279.23997)"><g
         transform="matrix(0.50550219,0,0,0.50550219,369.5187,1420.7219)"
         id="g6330"><g
           id="g6332"
           clip-path="url(#clipPath6334-7)"><path
             d="m 3686.9,3910.35 12.42,-24.83 6.2,-18.62 12.41,-12.42 12.42,-12.41 12.41,-6.21 18.62,0 12.42,6.21 6.2,6.21 12.42,18.62 12.41,18.62 12.42,18.62 12.41,24.83 12.41,31.03 12.42,31.04 12.41,37.24 18.62,31.03 12.41,43.45 18.62,37.24 18.63,43.45 18.62,43.45 18.62,37.24 24.83,43.45 18.62,43.45 24.83,43.44 24.82,37.25 24.83,37.24 24.83,37.24 24.82,31.04 31.04,31.03 24.83,31.03 31.03,18.62 31.04,24.83 24.82,12.42 31.04,12.41 31.03,12.41 93.11,0 31.03,-12.41 31.03,-12.41 24.83,-12.42 31.04,-24.83 31.03,-18.62 24.83,-31.03 31.03,-31.03 24.83,-31.04 24.83,-37.24 24.83,-37.24 24.82,-37.25 24.83,-43.44 18.62,-43.45 24.83,-43.45 18.62,-37.24 18.62,-43.45 18.62,-43.45 18.62,-37.24 12.42,-43.45 18.62,-37.24 12.41,-31.03 12.42,-31.04 12.41,-31.03 12.41,-24.83 12.42,-18.62 12.41,-18.62 12.42,-18.62 12.41,-6.21 6.2,-6.21 18.62,0 12.42,6.21 12.41,12.41 12.42,12.42 6.2,18.62 12.42,24.83 12.41,24.83 12.42,31.03 18.62,31.03 12.41,37.24 12.41,31.04 18.63,43.45 18.61,37.24 18.62,43.45 18.63,43.45 18.62,43.44 24.82,37.25 18.63,43.45 24.82,43.44 24.83,37.24 24.83,37.25 24.82,37.24 24.83,31.03 31.04,31.03 24.83,24.83 31.03,24.83 31.04,18.62 31.03,18.62 24.83,12.42 31.03,6.2"
             style="fill:none;stroke:#0000ff;stroke-width:10;stroke-linecap:butt;stroke-linejoin:round;stroke-miterlimit:10;stroke-opacity:1;stroke-dasharray:none"
             id="path6338"
             inkscape:connector-curvature="0" /><path
             d="m 1520.69,4456.55 24.83,37.25 24.83,31.03 31.03,37.24 24.83,24.83 31.03,24.83 24.83,24.82 31.04,18.63 31.03,12.41 31.04,6.21 31.03,6.2 62.07,0 24.83,-6.2 31.03,-12.42 31.04,-12.41 31.03,-18.62 31.04,-24.83 24.82,-24.83 31.04,-31.03 24.82,-31.03 24.83,-37.25 24.83,-37.24 24.83,-37.24 24.83,-43.45 24.82,-37.24 18.62,-43.45 18.62,-43.45 18.62,-43.45 18.62,-43.44 18.63,-37.24 18.62,-43.45 12.41,-37.25 18.62,-31.03 12.42,-31.03 12.41,-31.04 12.41,-31.03 12.41,-18.62 12.42,-18.62 12.41,-18.63 6.21,-12.41 12.41,-6.21 18.62,0 12.42,6.21 12.41,6.21 6.21,12.41 12.41,18.62 12.42,24.83 12.41,24.83 12.42,24.83 12.41,31.03 12.41,37.24 18.62,31.04 12.42,43.44 18.62,37.25 18.62,43.45 18.62,37.23 18.62,43.45 24.83,43.45 18.62,43.45 24.83,43.45 24.82,37.24 24.83,37.24 24.83,37.24 24.83,31.04 31.03,31.03 24.83,31.04 31.03,24.82 24.83,18.62 31.03,18.63 31.04,12.41 31.03,12.41 93.11,0 31.03,-6.2 31.04,-12.42 24.82,-18.62 31.04,-18.62 31.03,-24.83 24.83,-24.83 31.03,-31.03 24.83,-31.03 24.83,-37.24 24.83,-37.25 24.83,-37.24 24.82,-43.44 24.83,-43.45 18.62,-37.25 18.62,-43.44 18.62,-43.45 18.62,-43.45 18.62,-37.24 18.63,-43.45 12.41,-37.24 12.41,-31.04 18.62,-31.03 12.42,-31.03 12.41,-24.83"
             style="fill:none;stroke:#0000ff;stroke-width:10;stroke-linecap:butt;stroke-linejoin:round;stroke-miterlimit:10;stroke-opacity:1;stroke-dasharray:none"
             id="path6340"
             inkscape:connector-curvature="0" /><path
             d="m 552.414,4680 24.828,0 31.035,-6.2 31.036,-12.42 31.035,-12.41 31.035,-18.62 24.824,-18.62 31.035,-31.04 31.035,-24.83 24.828,-31.03 24.829,-37.24 24.828,-37.24 24.828,-37.24 24.824,-43.45 24.828,-37.24 18.621,-43.45 18.621,-43.45 24.829,-43.45 18.617,-43.44 12.42,-37.25 18.62,-43.45 18.62,-37.24 12.41,-31.03 12.42,-37.24 12.41,-31.04 12.41,-24.83 12.42,-24.82 12.41,-18.62 12.41,-18.63 12.42,-12.41 6.21,-6.21 31.03,0 12.41,12.42 12.42,12.41 6.21,18.62 12.41,18.62 12.41,24.83 12.42,24.83 12.41,31.04 18.62,37.23 12.41,31.04 18.62,43.45 12.42,37.24 18.62,43.45 18.62,37.24 18.62,43.45 24.83,43.45 18.62,43.45 24.83,37.23 24.82,43.45 24.83,37.24"
             style="fill:none;stroke:#0000ff;stroke-width:10;stroke-linecap:butt;stroke-linejoin:round;stroke-miterlimit:10;stroke-opacity:1;stroke-dasharray:none"
             id="path6342"
             inkscape:connector-curvature="0" /><path
             d="m 3525.52,4617.93 31.03,-80.68 24.83,-80.7 24.83,-80.69 18.62,-86.89 24.83,-86.9 18.62,-80.69 12.42,-86.9 12.41,-80.68 12.41,-74.49 12.41,-74.48 6.21,-68.28 12.41,-68.27 0,-55.86 6.21,-49.66 6.21,-49.65 0,-105.52 0,37.24 6.21,24.83 0,80.69 6.2,55.86 6.21,55.86 6.21,62.07 6.2,68.28 12.42,74.48 12.41,74.48 12.42,80.69 18.62,86.9 18.62,80.69 18.62,86.89 18.62,86.9 24.82,80.69 24.83,80.69 31.04,80.69 31.03,74.48 31.04,74.48 31.03,62.07 37.24,62.08 31.04,55.85 37.24,49.66 37.24,37.24 43.45,37.25 37.24,24.82 43.45,12.42 37.24,12.41 43.45,0 37.24,-12.41 43.45,-12.42 37.24,-24.82 43.45,-37.25 37.24,-37.24 37.24,-49.66 37.24,-55.85 31.04,-62.08 31.03,-62.07 37.24,-74.48 24.83,-74.48 31.03,-80.69 24.83,-80.69 24.83,-86.89 18.62,-80.7 18.62,-86.89 18.62,-80.69 18.62,-86.9 12.42,-80.69 12.41,-74.48 12.42,-74.48 6.2,-68.28 6.21,-62.07 6.2,-62.07 6.21,-49.65 0,-80.69 6.21,-24.83 0,-37.24 0,105.52 6.2,49.65 6.21,49.66 0,55.86 12.42,68.27 6.2,68.28 12.42,74.48 12.41,74.49 12.41,86.89 18.63,80.69 12.41,86.9 24.83,80.69 18.62,86.89 24.82,80.69 24.83,80.7 31.04,80.68 31.03,74.49 31.04,74.48 31.03,62.07 37.24,62.07 37.24,49.65 37.24,49.66 37.25,37.24 37.24,31.04 43.44,24.82 37.25,18.62"
             style="fill:none;stroke:#ff0000;stroke-width:10;stroke-linecap:butt;stroke-linejoin:round;stroke-miterlimit:10;stroke-opacity:1;stroke-dasharray:none"
             id="path6344"
             inkscape:connector-curvature="0" /><path
             d="m 1185.52,3531.73 0,-74.49 6.21,-24.82 0,-24.83 0,86.89 6.2,43.45 0,49.66 6.21,55.86 6.21,55.86 6.2,68.28 12.42,74.48 12.41,74.48 12.42,80.69 12.41,80.69 18.62,86.9 18.62,80.69 18.62,86.9 24.83,86.89 24.83,80.69 31.03,80.69 24.83,74.49 31.04,74.48 31.03,68.27 37.24,62.07 37.24,55.87 37.24,49.65 37.25,43.45 37.23,37.24 37.25,31.04 43.44,18.62 37.25,12.41 43.45,0 43.44,-6.21 37.24,-12.41 37.25,-24.83 43.45,-31.03 37.23,-37.25 37.25,-43.44 37.24,-55.86 37.24,-55.87 31.04,-68.27 31.03,-68.28 31.03,-74.48 31.04,-80.69 24.82,-80.69 24.83,-80.69 18.62,-86.9 24.83,-80.69 18.62,-86.89 12.42,-80.69 18.61,-80.69 12.42,-80.69 6.21,-74.49 12.41,-68.27 6.21,-68.28 6.2,-62.06 6.21,-49.66 0,-49.66 6.21,-37.24 0,-74.48 0,62.07 6.2,31.03 0,43.45 6.21,49.66 0,55.86 12.42,62.07 6.2,68.27 6.21,74.48 12.41,74.49 12.42,80.69 18.62,80.69 18.62,86.9 18.62,86.89 18.62,80.69 24.83,86.9 24.82,80.69 31.04,80.69 24.83,74.48 31.03,74.48 37.24,68.28 31.04,62.07 37.24,55.86 37.24,49.65 37.24,37.25 37.24,37.24 43.45,24.83 37.24,18.62 43.45,12.41 37.24,0 43.45,-6.21 37.24,-18.62 43.45,-24.82 37.24,-31.04 37.25,-37.24 37.23,-49.66 37.25,-49.65 37.24,-62.07 31.03,-62.07 31.04,-74.48 31.03,-74.49"
             style="fill:none;stroke:#ff0000;stroke-width:10;stroke-linecap:butt;stroke-linejoin:round;stroke-miterlimit:10;stroke-opacity:1;stroke-dasharray:none"
             id="path6346"
             inkscape:connector-curvature="0" /><path
             d="m 552.414,5108.28 37.242,-6.21 43.449,-12.41 37.243,-18.62 37.242,-31.04 43.445,-37.24 37.242,-43.45 37.243,-49.65 31.035,-62.07 37.242,-62.07 31.031,-68.27 31.035,-74.49 31.035,-74.48 24.832,-80.69 24.82,-86.9 24.83,-80.69 18.62,-86.89 18.62,-86.9 18.62,-80.69 12.42,-80.69 12.41,-80.69 12.41,-74.48 6.21,-74.48 12.42,-62.07 0,-62.07 6.2,-55.86 6.21,-43.45"
             style="fill:none;stroke:#ff0000;stroke-width:10;stroke-linecap:butt;stroke-linejoin:round;stroke-miterlimit:10;stroke-opacity:1;stroke-dasharray:none"
             id="path6348"
             inkscape:connector-curvature="0" /><path
             d="m 3798.63,3686.9 6.2,-111.72 0,-366.21 -6.2,-68.28 -12.42,-55.86 -6.21,-43.45 -6.2,-31.03 -12.42,-18.62 -12.41,-6.21 -6.21,0 -12.41,18.62 -6.21,31.04 -12.41,43.44 -6.21,55.86 -6.2,62.07 0,80.69 -6.21,86.9 0,93.1 6.21,105.52 0,105.52 12.41,117.93 6.2,117.93 18.62,124.14 12.42,130.35 18.62,124.13 24.83,130.35 24.83,124.14 31.03,124.13 31.04,117.93 31.03,111.73 37.24,111.72 43.45,99.31 37.24,86.9 43.45,86.9 49.65,68.27 43.45,62.07 49.66,49.66 49.65,37.24 49.66,24.82 49.65,12.42 55.87,0 49.65,-12.42 49.66,-24.82 49.65,-37.24 49.66,-49.66 43.44,-62.07 49.66,-68.27 43.45,-86.9 37.24,-86.9 43.45,-105.52 37.24,-105.51 31.03,-111.73 31.04,-117.93 31.03,-124.13 24.83,-124.14 24.83,-130.35 18.62,-124.13 12.41,-130.35 18.62,-124.14 6.21,-117.93 12.41,-117.93 0,-111.73 6.21,-99.31 0,-93.1 -6.21,-86.9 0,-80.69 -6.2,-62.07 -6.21,-55.86 -12.41,-43.44 -6.21,-31.04 -12.42,-18.62 -6.2,0 -12.42,6.21 -12.41,18.62 -6.2,31.03 -6.21,43.45 -12.42,62.07 0,62.07 -6.2,80.69 0,291.72 6.2,105.52 6.21,117.93 12.42,124.14 12.41,124.14 18.62,124.14 18.62,130.34 24.83,124.14 24.82,124.13 31.04,124.14 31.03,117.93 37.24,111.73 37.25,105.52 37.24,99.3 43.45,93.11 43.45,80.69 43.44,68.27 49.66,62.08 49.65,43.44 49.66,37.24 49.65,24.83"
             style="fill:none;stroke:#000000;stroke-width:10;stroke-linecap:butt;stroke-linejoin:round;stroke-miterlimit:10;stroke-opacity:1;stroke-dasharray:none"
             id="path6350"
             inkscape:connector-curvature="0" /><path
             d="m 1154.48,3866.9 12.42,124.14 18.62,124.14 18.62,124.13 18.62,130.35 24.83,124.14 24.83,124.13 31.03,124.14 37.24,111.73 37.24,111.72 37.25,99.31 37.24,99.31 43.44,80.69 49.66,80.69 43.45,62.07 49.66,55.86 49.65,37.25 49.65,31.03 49.66,18.62 49.66,0 49.65,-6.21 55.86,-18.62 49.66,-37.24 43.44,-43.45 49.66,-55.86 49.66,-68.28 43.45,-80.69 43.44,-86.89 37.24,-99.31 37.24,-105.52 37.25,-111.73 31.03,-117.92 31.04,-117.94 24.82,-124.14 24.83,-130.34 18.62,-124.14 18.62,-130.34 12.42,-124.14 12.41,-124.14 12.41,-117.93 0,-111.72 6.21,-105.52 0,-186.21 -6.21,-80.69 -6.2,-68.27 -6.21,-55.87 -6.21,-49.65 -6.2,-31.04 -12.42,-24.82 -12.41,-6.21 -6.21,0 -12.41,18.62 -6.21,24.83 -12.41,43.44 -6.21,49.66 -6.21,68.28 -6.21,74.48 0,279.31 6.21,105.52 6.21,117.93 12.41,117.93 12.42,124.14 12.41,124.14 18.62,130.34 24.83,124.14 24.83,130.35 31.03,124.13 31.03,117.93 31.04,111.73 37.24,111.72 37.24,99.31 43.45,93.1 43.45,86.9 43.45,68.28 49.65,68.27 49.66,49.66 43.45,37.24 55.86,31.03 49.66,12.42 49.65,0 49.65,-6.21 49.66,-24.83 49.66,-37.24 49.65,-49.65 49.65,-55.87 43.45,-68.27 43.45,-80.69 43.45,-93.11 37.24,-99.3 37.24,-105.52 37.25,-111.73 31.03,-117.93 31.04,-124.14 24.82,-124.13 24.83,-124.14 18.62,-130.34 18.62,-124.14 12.41,-124.14 12.42,-124.14 6.21,-117.93"
             style="fill:none;stroke:#000000;stroke-width:10;stroke-linecap:butt;stroke-linejoin:round;stroke-miterlimit:10;stroke-opacity:1;stroke-dasharray:none"
             id="path6352"
             inkscape:connector-curvature="0" /><path
             d="m 552.414,5530.35 49.656,-6.21 49.657,-18.62 49.656,-31.03 49.652,-43.45 49.656,-55.86 43.45,-62.07 43.449,-80.69 43.445,-86.9 43.449,-93.1 37.246,-105.52 37.24,-111.72 31.03,-117.93 31.04,-117.94 24.82,-124.13 24.83,-124.14 18.62,-130.35 18.62,-124.14 18.62,-130.34 12.42,-117.93 6.21,-124.14 6.2,-111.72 6.21,-105.52 0,-192.42 -6.21,-80.68 -6.2,-68.28 -6.21,-62.07 -6.21,-49.65 -6.21,-37.25 -12.41,-18.62 -12.41,-12.41 -6.21,0 -12.41,12.41 -6.21,24.83 -12.42,43.45 -6.2,49.65 -6.21,62.07 -6.21,68.28 0,384.83 12.42,117.93 6.2,117.93"
             style="fill:none;stroke:#000000;stroke-width:10;stroke-linecap:butt;stroke-linejoin:round;stroke-miterlimit:10;stroke-opacity:1;stroke-dasharray:none"
             id="path6354"
             inkscape:connector-curvature="0" /></g></g><text
         xml:space="preserve"
         style="font-size:131.54519653px;font-style:normal;font-variant:normal;font-weight:normal;font-stretch:normal;line-height:125%;letter-spacing:0px;word-spacing:0px;fill:#000000;fill-opacity:1;stroke:none;font-family:Segoe UI;-inkscape-font-specification:Segoe UI"
         x="1182.9232"
         y="-4048.5295"
         id="text7663"
         sodipodi:linespacing="125%"
         transform="scale(1,-1)"><tspan
           sodipodi:role="line"
           id="tspan7665"
           x="1182.9232"
           y="-4048.5295">r=R</tspan></text>
<text
         xml:space="preserve"
         style="font-size:131.54519653px;font-style:normal;font-variant:normal;font-weight:normal;font-stretch:normal;line-height:125%;letter-spacing:0px;word-spacing:0px;fill:#000000;fill-opacity:1;stroke:none;font-family:Segoe UI;-inkscape-font-specification:Segoe UI"
         x="1190.8221"
         y="-3813.8726"
         id="text7667"
         sodipodi:linespacing="125%"
         transform="scale(1,-1)"><tspan
           sodipodi:role="line"
           id="tspan7669"
           x="1190.8221"
           y="-3813.8726">r&lt;R</tspan></text>
<text
         xml:space="preserve"
         style="font-size:131.54519653px;font-style:normal;font-variant:normal;font-weight:normal;font-stretch:normal;line-height:125%;letter-spacing:0px;word-spacing:0px;fill:#000000;fill-opacity:1;stroke:none;font-family:Segoe UI;-inkscape-font-specification:Segoe UI"
         x="1180.4037"
         y="-4245.0996"
         id="text7671"
         sodipodi:linespacing="125%"
         transform="scale(1,-1)"><tspan
           sodipodi:role="line"
           id="tspan7673"
           x="1180.4037"
           y="-4245.0996">r&gt;R</tspan></text>
</g></g></svg>