<?xml version="1.0" encoding="UTF-8" standalone="no"?>
<!-- Created with Inkscape (http://www.inkscape.org/) -->

<svg
   xmlns:ns0="http://www.iki.fi/pav/software/textext/"
   xmlns:dc="http://purl.org/dc/elements/1.1/"
   xmlns:cc="http://creativecommons.org/ns#"
   xmlns:rdf="http://www.w3.org/1999/02/22-rdf-syntax-ns#"
   xmlns:svg="http://www.w3.org/2000/svg"
   xmlns="http://www.w3.org/2000/svg"
   xmlns:xlink="http://www.w3.org/1999/xlink"
   xmlns:sodipodi="http://sodipodi.sourceforge.net/DTD/sodipodi-0.dtd"
   xmlns:inkscape="http://www.inkscape.org/namespaces/inkscape"
   width="300"
   height="300"
   id="svg2"
   inkscape:label="Pozadí"
   version="1.1"
   inkscape:version="0.48.1 "
   sodipodi:docname="2D_uloha.svg">
  <sodipodi:namedview
     id="base"
     pagecolor="#ffffff"
     bordercolor="#666666"
     borderopacity="1.0"
     inkscape:pageopacity="0.0"
     inkscape:pageshadow="2"
     inkscape:zoom="1.4142136"
     inkscape:cx="84.720299"
     inkscape:cy="23.698178"
     inkscape:document-units="px"
     inkscape:current-layer="layer3"
     showgrid="false"
     inkscape:snap-grids="false"
     inkscape:snap-to-guides="false"
     inkscape:snap-global="true"
     inkscape:object-paths="false"
     inkscape:snap-midpoints="true"
     inkscape:snap-intersection-paths="true"
     inkscape:snap-smooth-nodes="false"
     inkscape:object-nodes="false"
     inkscape:snap-object-midpoints="true"
     inkscape:snap-center="true"
     inkscape:snap-nodes="true"
     inkscape:window-width="1831"
     inkscape:window-height="1173"
     inkscape:window-x="2000"
     inkscape:window-y="-9"
     inkscape:window-maximized="1"
     inkscape:snap-bbox="true" />
  <defs
     id="defs3">
    <linearGradient
       inkscape:collect="always"
       id="linearGradient12085">
      <stop
         style="stop-color:#4d4d4d;stop-opacity:1;"
         offset="0"
         id="stop12087" />
      <stop
         style="stop-color:#4d4d4d;stop-opacity:0"
         offset="1"
         id="stop12089" />
    </linearGradient>
    <linearGradient
       inkscape:collect="always"
       id="linearGradient7601">
      <stop
         style="stop-color:#af773b;stop-opacity:1;"
         offset="0"
         id="stop7603" />
      <stop
         style="stop-color:#af773b;stop-opacity:0;"
         offset="1"
         id="stop7605" />
    </linearGradient>
    <marker
       inkscape:stockid="Arrow2Mend"
       orient="auto"
       refY="0.0"
       refX="0.0"
       id="Arrow2Mend"
       style="overflow:visible;">
      <path
         id="path5288"
         style="font-size:12.0;fill-rule:evenodd;stroke-width:0.62500000;stroke-linejoin:round;"
         d="M 8.7185878,4.0337352 L -2.2072895,0.016013256 L 8.7185884,-4.0017078 C 6.9730900,-1.6296469 6.9831476,1.6157441 8.7185878,4.0337352 z "
         transform="scale(0.6) rotate(180) translate(0,0)" />
    </marker>
    <marker
       inkscape:stockid="Arrow1Mstart"
       orient="auto"
       refY="0.0"
       refX="0.0"
       id="Arrow1Mstart"
       style="overflow:visible">
      <path
         id="path5267"
         d="M 0.0,0.0 L 5.0,-5.0 L -12.5,0.0 L 5.0,5.0 L 0.0,0.0 z "
         style="fill-rule:evenodd;stroke:#000000;stroke-width:1.0pt;marker-start:none"
         transform="scale(0.4) translate(10,0)" />
    </marker>
    <marker
       inkscape:stockid="Arrow1Mend"
       orient="auto"
       refY="0.0"
       refX="0.0"
       id="Arrow1Mend"
       style="overflow:visible;">
      <path
         id="path5270"
         d="M 0.0,0.0 L 5.0,-5.0 L -12.5,0.0 L 5.0,5.0 L 0.0,0.0 z "
         style="fill-rule:evenodd;stroke:#000000;stroke-width:1.0pt;marker-start:none;"
         transform="scale(0.4) rotate(180) translate(10,0)" />
    </marker>
    <marker
       inkscape:stockid="Arrow1Mend"
       orient="auto"
       refY="0"
       refX="0"
       id="Arrow1Mend-5"
       style="overflow:visible">
      <path
         inkscape:connector-curvature="0"
         id="path5270-4"
         d="M 0,0 5,-5 -12.5,0 5,5 0,0 z"
         style="fill-rule:evenodd;stroke:#000000;stroke-width:1pt;marker-start:none"
         transform="matrix(-0.4,0,0,-0.4,-4,0)" />
    </marker>
    <linearGradient
       inkscape:collect="always"
       xlink:href="#linearGradient7601-7"
       id="linearGradient7607-3"
       x1="133.5"
       y1="186.75"
       x2="164.96083"
       y2="217.61235"
       gradientUnits="userSpaceOnUse"
       gradientTransform="matrix(0.91424594,0,0,0.91417279,20.547124,775.1457)" />
    <linearGradient
       inkscape:collect="always"
       id="linearGradient7601-7">
      <stop
         style="stop-color:#af773b;stop-opacity:1;"
         offset="0"
         id="stop7603-3" />
      <stop
         style="stop-color:#af773b;stop-opacity:0;"
         offset="1"
         id="stop7605-6" />
    </linearGradient>
    <linearGradient
       y2="217.61235"
       x2="164.96083"
       y1="186.75"
       x1="133.5"
       gradientTransform="matrix(0.91424594,0,0,0.91417279,76.54712,22.783522)"
       gradientUnits="userSpaceOnUse"
       id="linearGradient7654"
       xlink:href="#linearGradient7601-7"
       inkscape:collect="always" />
    <linearGradient
       inkscape:collect="always"
       xlink:href="#linearGradient7601"
       id="linearGradient7684"
       gradientUnits="userSpaceOnUse"
       gradientTransform="matrix(0.91424594,0,0,0.91417279,-47.452876,775.1457)"
       x1="133.5"
       y1="186.75"
       x2="164.96083"
       y2="217.61235" />
    <filter
       inkscape:collect="always"
       id="filter7727"
       x="-0.085861516"
       width="1.171723"
       y="-0.12721783"
       height="1.2544357">
      <feGaussianBlur
         inkscape:collect="always"
         stdDeviation="0.47906576"
         id="feGaussianBlur7729" />
    </filter>
    <filter
       color-interpolation-filters="sRGB"
       inkscape:collect="always"
       id="filter7727-2"
       x="-0.085861519"
       width="1.171723"
       y="-0.12721783"
       height="1.2544357">
      <feGaussianBlur
         inkscape:collect="always"
         stdDeviation="0.47906576"
         id="feGaussianBlur7729-5" />
    </filter>
    <filter
       color-interpolation-filters="sRGB"
       inkscape:collect="always"
       id="filter7727-2-9"
       x="-0.085861519"
       width="1.171723"
       y="-0.12721783"
       height="1.2544357">
      <feGaussianBlur
         inkscape:collect="always"
         stdDeviation="0.47906576"
         id="feGaussianBlur7729-5-7" />
    </filter>
    <filter
       color-interpolation-filters="sRGB"
       inkscape:collect="always"
       id="filter7727-2-9-2"
       x="-0.085861519"
       width="1.171723"
       y="-0.12721783"
       height="1.2544357">
      <feGaussianBlur
         inkscape:collect="always"
         stdDeviation="0.47906576"
         id="feGaussianBlur7729-5-7-0" />
    </filter>
    <filter
       color-interpolation-filters="sRGB"
       inkscape:collect="always"
       id="filter7727-2-9-2-5"
       x="-0.085861519"
       width="1.171723"
       y="-0.12721783"
       height="1.2544357">
      <feGaussianBlur
         inkscape:collect="always"
         stdDeviation="0.47906576"
         id="feGaussianBlur7729-5-7-0-9" />
    </filter>
    <filter
       color-interpolation-filters="sRGB"
       inkscape:collect="always"
       id="filter7727-2-9-2-3"
       x="-0.085861519"
       width="1.171723"
       y="-0.12721783"
       height="1.2544357">
      <feGaussianBlur
         inkscape:collect="always"
         stdDeviation="0.47906576"
         id="feGaussianBlur7729-5-7-0-6" />
    </filter>
    <filter
       color-interpolation-filters="sRGB"
       inkscape:collect="always"
       id="filter7727-2-9-2-7"
       x="-0.085861519"
       width="1.171723"
       y="-0.12721783"
       height="1.2544357">
      <feGaussianBlur
         inkscape:collect="always"
         stdDeviation="0.47906576"
         id="feGaussianBlur7729-5-7-0-8" />
    </filter>
    <linearGradient
       inkscape:collect="always"
       xlink:href="#linearGradient7601-1"
       id="linearGradient7684-1"
       gradientUnits="userSpaceOnUse"
       gradientTransform="matrix(0.91424594,0,0,0.91417279,-47.452876,775.1457)"
       x1="133.5"
       y1="186.75"
       x2="164.96083"
       y2="217.61235" />
    <linearGradient
       inkscape:collect="always"
       id="linearGradient7601-1">
      <stop
         style="stop-color:#af773b;stop-opacity:1;"
         offset="0"
         id="stop7603-7" />
      <stop
         style="stop-color:#af773b;stop-opacity:0;"
         offset="1"
         id="stop7605-7" />
    </linearGradient>
    <linearGradient
       inkscape:collect="always"
       xlink:href="#linearGradient7601-1"
       id="linearGradient12081"
       gradientUnits="userSpaceOnUse"
       gradientTransform="matrix(0.68362946,0,0,0.6421275,264.57526,167.05668)"
       x1="133.5"
       y1="186.75"
       x2="164.96083"
       y2="217.61235" />
    <radialGradient
       inkscape:collect="always"
       xlink:href="#linearGradient12085"
       id="radialGradient12091"
       cx="109.5"
       cy="166.1506"
       fx="109.5"
       fy="166.1506"
       r="109.49431"
       gradientTransform="matrix(0.32143065,0.30220426,-1.8251894,1.9413082,377.55969,-190.39087)"
       gradientUnits="userSpaceOnUse" />
    <radialGradient
       inkscape:collect="always"
       xlink:href="#linearGradient12085-8"
       id="radialGradient12091-0"
       cx="109.5"
       cy="166.1506"
       fx="109.5"
       fy="166.1506"
       r="109.49431"
       gradientTransform="matrix(0.38079447,0.39809966,-1.92553,1.8418274,387.731,-184.36262)"
       gradientUnits="userSpaceOnUse" />
    <linearGradient
       inkscape:collect="always"
       id="linearGradient12085-8">
      <stop
         style="stop-color:#4d4d4d;stop-opacity:1;"
         offset="0"
         id="stop12087-5" />
      <stop
         style="stop-color:#4d4d4d;stop-opacity:0"
         offset="1"
         id="stop12089-1" />
    </linearGradient>
    <radialGradient
       r="109.49431"
       fy="166.1506"
       fx="109.5"
       cy="166.1506"
       cx="109.5"
       gradientTransform="matrix(0.31686421,0.32960295,-1.9208984,1.8466574,494.8988,-160.89523)"
       gradientUnits="userSpaceOnUse"
       id="radialGradient12108"
       xlink:href="#linearGradient12085-8"
       inkscape:collect="always" />
  </defs>
  <metadata
     id="metadata6">
    <rdf:RDF>
      <cc:Work
         rdf:about="">
        <dc:format>image/svg+xml</dc:format>
        <dc:type
           rdf:resource="http://purl.org/dc/dcmitype/StillImage" />
        <dc:title></dc:title>
      </cc:Work>
    </rdf:RDF>
  </metadata>
  <g
     inkscape:groupmode="layer"
     id="layer9"
     inkscape:label="sil" />
  <g
     inkscape:groupmode="layer"
     id="layer3"
     inkscape:label="hrot">
    <path
       style="fill:none;stroke:#000000;stroke-width:2;stroke-linecap:butt;stroke-linejoin:miter;stroke-miterlimit:4;stroke-opacity:1;stroke-dasharray:none;marker-end:url(#Arrow2Mend)"
       d="m 208.67504,98.442153 52.71461,-7.857238"
       id="path6593"
       inkscape:connector-curvature="0"
       sodipodi:nodetypes="cc" />
    <g
       style="font-style:normal;font-variant:normal;font-weight:normal;font-stretch:normal;letter-spacing:normal;word-spacing:normal;text-anchor:start;fill:none;stroke:#000000;stroke-width:1.9648385;stroke-linecap:butt;stroke-linejoin:miter;stroke-miterlimit:10.43299961;stroke-opacity:1;stroke-dasharray:none;stroke-dashoffset:0"
       id="content"
       transform="matrix(2.0772598,0,0,-1.9951497,-569.00264,1485.8313)"
       xml:space="preserve"
       stroke-miterlimit="10.433"
       font-style="normal"
       font-variant="normal"
       font-weight="normal"
       font-stretch="normal"
       font-size-adjust="none"
       letter-spacing="normal"
       word-spacing="normal"
       ns0:text="$$\\overrightarrow{E}(x,y,z)$$\n"
       ns0:preamble="">
<path
   style="fill:#000000;stroke-width:0"
   inkscape:connector-curvature="0"
   d="m 380.57,715.23 0.03,0 0.03,0 0.03,0 0.02,0 0.02,0 0.01,0 0.02,0 0.01,0 0.01,0.01 0.02,0 0.01,0 0.01,0.01 0.02,0 0.01,0.01 0.01,0 0.01,0.01 0.01,0 0.01,0.01 0.01,0.01 0.01,0.01 0.01,0.01 0,0.01 0,0 0.01,0.01 0,0 0,0.01 0.01,0.01 0,0 0,0.01 0,0.01 0,0 0,0.01 0.01,0.01 0,0.01 0,0.01 0,0.01 0,0 c 0,0.2 -0.18,0.2 -0.35,0.2 h -5.39 c -0.17,0 -0.35,0 -0.35,-0.2 0,-0.19 0.18,-0.19 0.35,-0.19 z"
   id="path6839" />
<path
   style="fill:#000000;stroke-width:0"
   inkscape:connector-curvature="0"
   d="m 382.31,715.23 -0.05,-0.04 -0.05,-0.04 -0.05,-0.04 -0.04,-0.04 -0.05,-0.04 -0.04,-0.04 -0.04,-0.03 -0.04,-0.04 -0.04,-0.04 -0.03,-0.03 -0.04,-0.04 -0.03,-0.04 -0.03,-0.03 -0.04,-0.03 -0.02,-0.04 -0.03,-0.03 -0.03,-0.03 -0.02,-0.03 -0.03,-0.03 -0.02,-0.03 -0.02,-0.03 -0.02,-0.02 -0.02,-0.03 -0.02,-0.02 -0.02,-0.03 -0.01,-0.02 -0.01,-0.02 -0.02,-0.02 -0.01,-0.02 -0.01,-0.01 -0.01,-0.02 -0.01,-0.01 c -0.44,-0.69 -0.52,-1.31 -0.52,-1.32 0,-0.12 0.12,-0.12 0.2,-0.12 0.17,0 0.18,0.02 0.21,0.2 0.23,0.97 0.82,1.81 1.95,2.27 0.12,0.04 0.15,0.06 0.15,0.12 0,0.07 -0.06,0.11 -0.08,0.11 -0.44,0.17 -1.65,0.67 -2.02,2.34 -0.03,0.12 -0.04,0.15 -0.21,0.15 -0.08,0 -0.2,0 -0.2,-0.12 0,-0.02 0.09,-0.64 0.5,-1.31 0.2,-0.3 0.49,-0.65 0.92,-0.97 h -7.41 c -0.17,0 -0.35,0 -0.35,-0.2 0,-0.19 0.18,-0.19 0.35,-0.19 z"
   id="path6841" />
<path
   style="fill:#000000;stroke-width:0"
   inkscape:connector-curvature="0"
   d="m 382.08,709.44 0,0.01 0,0 0,0.01 0.01,0.01 0,0.01 0.01,0.01 0,0.01 0,0.01 0.01,0.01 0,0.01 0,0 0,0.01 0,0 0.01,0.01 0,0 0,0.01 0,0 0,0 0,0.01 0,0 0,0 0,0.01 0,0 0,0 0.01,0 c 0,0.01 0,0.11 -0.12,0.11 -0.09,0 -0.11,-0.06 -0.13,-0.12 -0.65,-1.47 -1.02,-2.14 -2.73,-2.14 h -1.45 c -0.14,0 -0.16,0 -0.22,0.01 -0.1,0.01 -0.13,0.02 -0.13,0.1 0,0.03 0,0.05 0.05,0.23 l 0.68,2.72 h 0.99 c 0.84,0 0.84,-0.21 0.84,-0.46 0,-0.07 0,-0.19 -0.07,-0.49 -0.02,-0.05 -0.03,-0.08 -0.03,-0.11 0,-0.05 0.04,-0.11 0.13,-0.11 0.08,0 0.11,0.05 0.15,0.2 l 0.57,2.33 c 0,0.06 -0.05,0.11 -0.12,0.11 -0.09,0 -0.11,-0.06 -0.14,-0.18 -0.21,-0.75 -0.39,-0.98 -1.3,-0.98 h -0.94 l 0.6,2.4 c 0.09,0.34 0.1,0.38 0.53,0.38 h 1.41 c 1.22,0 1.51,-0.29 1.51,-1.1 0,-0.24 0,-0.26 -0.04,-0.53 0,-0.06 0,-0.13 0,-0.18 0,-0.05 0.03,-0.12 0.12,-0.12 0.1,0 0.11,0.06 0.13,0.25 l 0.2,1.72 c 0.03,0.27 -0.02,0.27 -0.26,0.27 h -5.04 c -0.2,0 -0.3,0 -0.3,-0.2 0,-0.11 0.09,-0.11 0.28,-0.11 0.37,0 0.65,0 0.65,-0.17 0,-0.05 0,-0.07 -0.05,-0.24 l -1.32,-5.27 c -0.1,-0.39 -0.12,-0.47 -0.9,-0.47 -0.17,0 -0.28,0 -0.28,-0.19 0,-0.11 0.09,-0.11 0.28,-0.11 h 5.17 c 0.23,0 0.24,0.01 0.31,0.16 z"
   id="path6843" />
<path
   style="fill:#000000;stroke-width:0"
   inkscape:connector-curvature="0"
   d="m 387.26,704.74 0,0 0,0.01 0,0 0,0 0,0.01 0,0 0,0 0,0.01 0,0 -0.01,0 0,0.01 0,0 0,0.01 -0.01,0 0,0.01 -0.01,0.01 0,0 -0.01,0.01 0,0 -0.01,0.01 0,0 0,0.01 -0.01,0 0,0 0,0.01 -0.01,0 0,0.01 -0.01,0 0,0.01 -0.01,0 0,0.01 -0.01,0.01 0,0 -0.01,0.01 -0.01,0 0,0.01 -0.01,0.01 -0.01,0.01 0,0 -0.01,0.01 -0.01,0.01 -0.01,0.01 c -1.24,1.25 -1.56,3.13 -1.56,4.65 0,1.73 0.38,3.47 1.6,4.71 0.13,0.12 0.13,0.14 0.13,0.17 0,0.07 -0.04,0.1 -0.1,0.1 -0.1,0 -0.99,-0.68 -1.58,-1.94 -0.51,-1.1 -0.63,-2.2 -0.63,-3.04 0,-0.77 0.11,-1.98 0.66,-3.1 0.6,-1.23 1.45,-1.87 1.55,-1.87 0.06,0 0.1,0.03 0.1,0.1 z"
   id="path6845" />
<path
   style="fill:#000000;stroke-width:0"
   inkscape:connector-curvature="0"
   d="m 391.17,710.13 0,0.03 0.01,0.03 0.01,0.03 0.01,0.04 0.01,0.03 0.01,0.05 0.01,0.04 0.02,0.04 0.01,0.05 0.02,0.05 0.02,0.05 0.02,0.05 0.02,0.05 0.03,0.05 0.02,0.05 0.03,0.04 0.03,0.05 0.03,0.05 0.04,0.05 0.03,0.04 0.04,0.04 0.04,0.04 0.04,0.04 0.04,0.04 0.05,0.03 0.05,0.03 0.02,0.01 0.03,0.01 0.03,0.02 0.02,0.01 0.03,0 0.03,0.01 0.03,0.01 0.03,0 0.03,0.01 0.03,0 0.03,0 0.03,0 c 0.05,0 0.29,0 0.5,-0.12 -0.28,-0.05 -0.48,-0.3 -0.48,-0.54 0,-0.16 0.11,-0.35 0.38,-0.35 0.22,0 0.54,0.18 0.54,0.58 0,0.52 -0.59,0.65 -0.93,0.65 -0.57,0 -0.92,-0.52 -1.04,-0.75 -0.25,0.65 -0.79,0.75 -1.08,0.75 -1.04,0 -1.6,-1.28 -1.6,-1.53 0,-0.1 0.1,-0.1 0.12,-0.1 0.08,0 0.11,0.02 0.12,0.11 0.34,1.06 1,1.3 1.34,1.3 0.19,0 0.54,-0.08 0.54,-0.66 0,-0.31 -0.17,-0.98 -0.54,-2.37 -0.16,-0.62 -0.51,-1.04 -0.95,-1.04 -0.06,0 -0.28,0 -0.49,0.13 0.25,0.05 0.46,0.26 0.46,0.54 0,0.27 -0.21,0.35 -0.37,0.35 -0.29,0 -0.54,-0.26 -0.54,-0.58 0,-0.45 0.5,-0.65 0.93,-0.65 0.66,0 1.02,0.69 1.05,0.75 0.12,-0.37 0.48,-0.75 1.08,-0.75 1.02,0 1.59,1.28 1.59,1.53 0,0.1 -0.09,0.1 -0.12,0.1 -0.09,0 -0.11,-0.04 -0.13,-0.11 -0.33,-1.07 -1,-1.31 -1.32,-1.31 -0.39,0 -0.55,0.32 -0.55,0.66 0,0.22 0.06,0.44 0.17,0.88 z"
   id="path6847" />
<path
   style="fill:#000000;stroke-width:0"
   inkscape:connector-curvature="0"
   d="m 395.55,707.14 0,0.06 0,0.06 0,0.05 -0.01,0.06 0,0.05 -0.01,0.06 -0.01,0.05 -0.01,0.05 -0.01,0.04 -0.01,0.05 -0.02,0.04 -0.01,0.04 -0.02,0.04 -0.02,0.04 -0.02,0.04 -0.02,0.03 -0.02,0.04 -0.02,0.03 -0.03,0.03 -0.02,0.02 -0.03,0.03 -0.02,0.02 -0.03,0.02 -0.03,0.02 -0.03,0.02 -0.03,0.01 -0.03,0.01 -0.03,0.01 -0.04,0.01 -0.03,0.01 -0.04,0 -0.03,0 c -0.33,0 -0.53,-0.25 -0.53,-0.53 0,-0.27 0.2,-0.52 0.53,-0.52 0.12,0 0.25,0.03 0.35,0.12 0.03,0.02 0.04,0.03 0.05,0.03 0.01,0 0.02,-0.01 0.02,-0.14 0,-0.74 -0.35,-1.34 -0.68,-1.67 -0.11,-0.11 -0.11,-0.13 -0.11,-0.16 0,-0.07 0.05,-0.11 0.1,-0.11 0.11,0 0.9,0.77 0.9,1.94 z"
   id="path6849" />
<path
   style="fill:#000000;stroke-width:0"
   inkscape:connector-curvature="0"
   d="m 402.81,710.92 0,0 0,0.01 0,0.01 0,0 0.01,0.01 0,0.01 0,0.01 0.01,0.01 0,0.01 0,0.01 0,0.01 0,0.01 0.01,0.01 0,0 0,0.01 0,0.01 0,0 0,0.01 0,0 0,0.01 0,0.01 0.01,0.01 0,0.01 0,0.01 0,0.01 0,0.01 0,0 0,0.01 0,0.01 c 0,0.18 -0.14,0.26 -0.29,0.26 -0.1,0 -0.26,-0.06 -0.35,-0.2 -0.02,-0.05 -0.1,-0.36 -0.14,-0.54 -0.07,-0.26 -0.14,-0.53 -0.2,-0.8 l -0.45,-1.79 c -0.04,-0.15 -0.47,-0.85 -1.12,-0.85 -0.51,0 -0.62,0.44 -0.62,0.81 0,0.46 0.17,1.08 0.51,1.95 0.16,0.41 0.2,0.52 0.2,0.72 0,0.45 -0.32,0.81 -0.82,0.81 -0.95,0 -1.32,-1.44 -1.32,-1.53 0,-0.1 0.1,-0.1 0.12,-0.1 0.1,0 0.11,0.02 0.16,0.18 0.27,0.94 0.67,1.23 1.01,1.23 0.08,0 0.25,0 0.25,-0.31 0,-0.25 -0.1,-0.51 -0.17,-0.7 -0.4,-1.06 -0.58,-1.62 -0.58,-2.09 0,-0.89 0.63,-1.18 1.22,-1.18 0.38,0 0.72,0.16 1,0.44 -0.13,-0.51 -0.25,-1 -0.65,-1.53 -0.25,-0.34 -0.63,-0.63 -1.09,-0.63 -0.14,0 -0.59,0.03 -0.76,0.42 0.16,0 0.29,0 0.43,0.12 0.1,0.09 0.2,0.22 0.2,0.41 0,0.31 -0.27,0.35 -0.37,0.35 -0.23,0 -0.56,-0.16 -0.56,-0.65 0,-0.5 0.44,-0.86 1.06,-0.86 1.03,0 2.05,0.9 2.33,2.02 z"
   id="path6851" />
<path
   style="fill:#000000;stroke-width:0"
   inkscape:connector-curvature="0"
   d="m 405.23,707.14 0,0.06 0,0.06 -0.01,0.05 0,0.06 -0.01,0.05 -0.01,0.06 0,0.05 -0.01,0.05 -0.02,0.04 -0.01,0.05 -0.01,0.04 -0.02,0.04 -0.02,0.04 -0.01,0.04 -0.02,0.04 -0.02,0.03 -0.02,0.04 -0.03,0.03 -0.02,0.03 -0.03,0.02 -0.02,0.03 -0.03,0.02 -0.03,0.02 -0.02,0.02 -0.03,0.02 -0.03,0.01 -0.04,0.01 -0.03,0.01 -0.03,0.01 -0.04,0.01 -0.03,0 -0.04,0 c -0.33,0 -0.53,-0.25 -0.53,-0.53 0,-0.27 0.2,-0.52 0.53,-0.52 0.12,0 0.25,0.03 0.35,0.12 0.03,0.02 0.04,0.03 0.05,0.03 0.01,0 0.02,-0.01 0.02,-0.14 0,-0.74 -0.35,-1.34 -0.68,-1.67 -0.11,-0.11 -0.11,-0.13 -0.11,-0.16 0,-0.07 0.05,-0.11 0.1,-0.11 0.11,0 0.91,0.77 0.91,1.94 z"
   id="path6853" />
<path
   style="fill:#000000;stroke-width:0"
   inkscape:connector-curvature="0"
   d="m 408.95,707.95 0.05,0.05 0.05,0.06 0.05,0.04 0.04,0.05 0.05,0.05 0.04,0.04 0.04,0.05 0.05,0.04 0.04,0.04 0.03,0.04 0.04,0.04 0.04,0.03 0.04,0.04 0.03,0.03 0.07,0.07 0.07,0.06 0.07,0.06 0.06,0.06 0.07,0.06 0.13,0.11 0.06,0.06 0.07,0.06 c 0,0.01 0.62,0.53 0.98,0.89 0.94,0.93 1.16,1.41 1.16,1.44 0,0.1 -0.09,0.1 -0.11,0.1 -0.07,0 -0.1,-0.02 -0.15,-0.11 -0.29,-0.47 -0.5,-0.63 -0.74,-0.63 -0.24,0 -0.36,0.15 -0.51,0.32 -0.19,0.23 -0.36,0.42 -0.69,0.42 -0.75,0 -1.21,-0.92 -1.21,-1.13 0,-0.05 0.03,-0.11 0.12,-0.11 0.09,0 0.11,0.05 0.13,0.11 0.19,0.46 0.77,0.47 0.85,0.47 0.21,0 0.4,-0.07 0.63,-0.15 0.4,-0.15 0.51,-0.15 0.77,-0.15 -0.36,-0.43 -1.2,-1.15 -1.39,-1.3 l -0.9,-0.84 c -0.68,-0.67 -1.02,-1.24 -1.02,-1.31 0,-0.09 0.1,-0.09 0.12,-0.09 0.08,0 0.1,0.01 0.15,0.13 0.24,0.34 0.53,0.61 0.85,0.61 0.23,0 0.33,-0.09 0.58,-0.38 0.17,-0.21 0.35,-0.36 0.64,-0.36 0.99,0 1.56,1.26 1.56,1.53 0,0.05 -0.04,0.1 -0.12,0.1 -0.08,0 -0.11,-0.06 -0.14,-0.13 -0.22,-0.65 -0.86,-0.84 -1.19,-0.84 -0.2,0 -0.38,0.06 -0.59,0.13 -0.34,0.13 -0.49,0.17 -0.7,0.17 -0.02,0 -0.18,0 -0.27,-0.03 z"
   id="path6855" />
<path
   style="fill:#000000;stroke-width:0"
   inkscape:connector-curvature="0"
   d="m 415.58,709.61 0,0.08 0,0.07 0,0.08 0,0.08 -0.01,0.17 -0.01,0.18 -0.02,0.18 -0.02,0.19 -0.03,0.2 -0.03,0.19 -0.04,0.21 -0.05,0.21 -0.05,0.21 -0.06,0.21 -0.07,0.21 -0.08,0.21 -0.04,0.11 -0.05,0.11 -0.05,0.1 -0.05,0.11 c -0.59,1.22 -1.45,1.87 -1.55,1.87 -0.06,0 -0.1,-0.04 -0.1,-0.1 0,-0.03 0,-0.05 0.19,-0.23 0.97,-0.98 1.54,-2.57 1.54,-4.65 0,-1.7 -0.37,-3.45 -1.6,-4.7 -0.13,-0.12 -0.13,-0.14 -0.13,-0.17 0,-0.06 0.04,-0.1 0.1,-0.1 0.1,0 0.99,0.67 1.58,1.94 0.51,1.09 0.63,2.2 0.63,3.03 z"
   id="path6857" />
</g>    <g
       ns0:preamble=""
       ns0:text="$$x$$\n"
       word-spacing="normal"
       letter-spacing="normal"
       font-size-adjust="none"
       font-stretch="normal"
       font-weight="normal"
       font-variant="normal"
       font-style="normal"
       stroke-miterlimit="10.433"
       xml:space="preserve"
       transform="matrix(2.8636364,0,0,-2.8335253,-846.41371,2277.0132)"
       id="g7054"
       style="font-style:normal;font-variant:normal;font-weight:normal;font-stretch:normal;letter-spacing:normal;word-spacing:normal;text-anchor:start;fill:none;stroke:#000000;stroke-width:1.40422761;stroke-linecap:butt;stroke-linejoin:miter;stroke-miterlimit:10.43299961;stroke-opacity:1;stroke-dasharray:none;stroke-dashoffset:0">
<path
   id="path7056"
   d="m 395.77,710.13 0.01,0.03 0,0.03 0.01,0.03 0.01,0.04 0.01,0.03 0.01,0.05 0.02,0.04 0.01,0.04 0.02,0.05 0.02,0.05 0.01,0.05 0.02,0.05 0.03,0.05 0.02,0.05 0.03,0.05 0.02,0.04 0.03,0.05 0.04,0.05 0.03,0.05 0.03,0.04 0.04,0.04 0.04,0.04 0.04,0.04 0.05,0.04 0.04,0.03 0.05,0.03 0.03,0.01 0.02,0.01 0.03,0.02 0.03,0.01 0.02,0 0.03,0.01 0.03,0.01 0.03,0 0.03,0.01 0.03,0 0.03,0 0.04,0 c 0.05,0 0.29,0 0.5,-0.12 -0.28,-0.05 -0.48,-0.3 -0.48,-0.54 0,-0.16 0.11,-0.35 0.38,-0.35 0.22,0 0.53,0.18 0.53,0.58 0,0.52 -0.58,0.65 -0.92,0.65 -0.58,0 -0.93,-0.52 -1.05,-0.75 -0.25,0.65 -0.79,0.75 -1.08,0.75 -1.03,0 -1.6,-1.28 -1.6,-1.53 0,-0.1 0.1,-0.1 0.12,-0.1 0.08,0 0.11,0.02 0.13,0.11 0.34,1.06 1,1.3 1.33,1.3 0.19,0 0.54,-0.08 0.54,-0.66 0,-0.31 -0.17,-0.98 -0.54,-2.37 -0.16,-0.62 -0.5,-1.04 -0.94,-1.04 -0.06,0 -0.29,0 -0.5,0.13 0.25,0.05 0.47,0.26 0.47,0.54 0,0.27 -0.22,0.35 -0.37,0.35 -0.3,0 -0.55,-0.26 -0.55,-0.58 0,-0.45 0.5,-0.65 0.94,-0.65 0.66,0 1.01,0.69 1.04,0.75 0.12,-0.37 0.48,-0.75 1.08,-0.75 1.03,0 1.6,1.28 1.6,1.53 0,0.1 -0.09,0.1 -0.12,0.1 -0.09,0 -0.11,-0.04 -0.13,-0.11 -0.33,-1.07 -1.01,-1.31 -1.33,-1.31 -0.39,0 -0.55,0.32 -0.55,0.66 0,0.22 0.06,0.44 0.17,0.88 z"
   inkscape:connector-curvature="0"
   style="fill:#000000;stroke-width:0" />
</g>    <g
       style="font-style:normal;font-variant:normal;font-weight:normal;font-stretch:normal;letter-spacing:normal;word-spacing:normal;text-anchor:start;fill:none;stroke:#000000;stroke-width:1.40422761;stroke-linecap:butt;stroke-linejoin:miter;stroke-miterlimit:10.43299961;stroke-opacity:1;stroke-dasharray:none;stroke-dashoffset:0"
       ns0:preamble=""
       ns0:text="$$y$$\n\n"
       word-spacing="normal"
       letter-spacing="normal"
       font-size-adjust="none"
       font-stretch="normal"
       font-weight="normal"
       font-variant="normal"
       font-style="normal"
       stroke-miterlimit="10.433"
       xml:space="preserve"
       transform="matrix(2.8636364,0,0,-2.8335253,-1019.7438,2090.6929)"
       id="g7387">
<path
   id="path7389"
   d="m 397.51,710.92 0,0 0.01,0.01 0,0.01 0,0 0,0.01 0,0.01 0.01,0.01 0,0.01 0,0.01 0,0.01 0.01,0.01 0,0.01 0,0.01 0,0 0,0.01 0,0.01 0.01,0 0,0.01 0,0 0,0.01 0,0.01 0,0.01 0,0.01 0,0.01 0,0.01 0,0.01 0,0 0,0.01 0,0.01 c 0,0.18 -0.14,0.26 -0.29,0.26 -0.1,0 -0.26,-0.06 -0.35,-0.2 -0.02,-0.05 -0.1,-0.36 -0.14,-0.54 -0.07,-0.26 -0.14,-0.53 -0.19,-0.8 l -0.45,-1.79 c -0.04,-0.15 -0.47,-0.85 -1.13,-0.85 -0.51,0 -0.62,0.44 -0.62,0.81 0,0.46 0.17,1.08 0.51,1.95 0.16,0.41 0.2,0.52 0.2,0.72 0,0.45 -0.32,0.81 -0.82,0.81 -0.94,0 -1.31,-1.44 -1.31,-1.53 0,-0.1 0.1,-0.1 0.12,-0.1 0.09,0 0.1,0.02 0.15,0.18 0.27,0.94 0.67,1.23 1.01,1.23 0.08,0 0.25,0 0.25,-0.31 0,-0.25 -0.1,-0.51 -0.17,-0.7 -0.4,-1.06 -0.58,-1.62 -0.58,-2.09 0,-0.89 0.63,-1.18 1.22,-1.18 0.39,0 0.73,0.16 1.01,0.44 -0.13,-0.51 -0.25,-1 -0.65,-1.53 -0.26,-0.34 -0.64,-0.63 -1.1,-0.63 -0.14,0 -0.59,0.03 -0.76,0.42 0.16,0 0.29,0 0.43,0.12 0.1,0.09 0.2,0.22 0.2,0.41 0,0.31 -0.27,0.35 -0.37,0.35 -0.23,0 -0.55,-0.16 -0.55,-0.65 0,-0.5 0.43,-0.86 1.05,-0.86 1.03,0 2.06,0.9 2.33,2.02 z"
   inkscape:connector-curvature="0"
   style="fill:#000000;stroke-width:0" />
</g>    <g
       id="g7676"
       transform="translate(8,0)">
      <path
         sodipodi:nodetypes="cccccc"
         inkscape:connector-curvature="0"
         id="path7599"
         d="m 13.115918,986.7767 c 131.431962,-123.5472 0,0 131.431962,-123.5472 14.7183,-11.64664 36.25273,7.52193 22.82842,23.85405 -51.05176,50.96408 -88.53116,83.71848 -128.20437,120.49055 5.40705,-16.9811 -15.230361,-29.47291 -26.056012,-20.7974 -23.125605,20.7633 9.505729,44.8031 26.056012,20.7974"
         style="fill:url(#linearGradient7684);fill-opacity:1;stroke:#000000;stroke-width:3;stroke-linecap:butt;stroke-linejoin:miter;stroke-miterlimit:4;stroke-opacity:1;stroke-dasharray:none"
         transform="translate(0,-752.36218)" />
      <path
         transform="matrix(0.91424594,0,0,0.91417279,-46.846913,22.880632)"
         d="m 94.045204,247.14377 c 0,10.056 -8.151999,18.208 -18.208,18.208 -10.056001,0 -18.208,-8.152 -18.208,-18.208 0,-10.056 8.151999,-18.208 18.208,-18.208 10.056001,0 18.208,8.152 18.208,18.208 z"
         sodipodi:ry="18.208"
         sodipodi:rx="18.208"
         sodipodi:cy="247.14377"
         sodipodi:cx="75.837204"
         id="path7459"
         style="fill:#808080;fill-opacity:1;stroke:#000000;stroke-width:3.28152394;stroke-miterlimit:4;stroke-opacity:1;stroke-dasharray:none"
         sodipodi:type="arc" />
    </g>
    <g
       id="g7680">
      <path
         sodipodi:nodetypes="cccccc"
         inkscape:connector-curvature="0"
         id="path7599-5"
         d="m 137.11592,234.41452 c 131.43196,-123.5472 0,0 131.43196,-123.5472 14.7183,-11.646638 36.25273,7.52193 22.82842,23.85405 -51.05176,50.96408 -88.53116,83.71848 -128.20437,120.49055 5.40705,-16.9811 -15.23036,-29.47291 -26.05601,-20.7974 -23.12561,20.7633 9.50573,44.8031 26.05601,20.7974"
         style="fill:url(#linearGradient7654);fill-opacity:1;stroke:#000000;stroke-width:3;stroke-linecap:butt;stroke-linejoin:miter;stroke-miterlimit:4;stroke-opacity:1;stroke-dasharray:none" />
      <path
         transform="matrix(0.91424594,0,0,0.91417279,77.15309,22.880634)"
         d="m 94.045204,247.14377 c 0,10.056 -8.151999,18.208 -18.208,18.208 -10.056001,0 -18.208,-8.152 -18.208,-18.208 0,-10.056 8.151999,-18.208 18.208,-18.208 10.056001,0 18.208,8.152 18.208,18.208 z"
         sodipodi:ry="18.208"
         sodipodi:rx="18.208"
         sodipodi:cy="247.14377"
         sodipodi:cx="75.837204"
         id="path7459-27"
         style="fill:#808080;fill-opacity:1;stroke:#000000;stroke-width:3.28152394;stroke-miterlimit:4;stroke-opacity:1;stroke-dasharray:none"
         sodipodi:type="arc" />
    </g>
    <path
       style="fill:url(#radialGradient12091);fill-opacity:1;stroke:none"
       d="M 158.89518,39.665477 C 128.61357,60.707845 79.893689,109.67719 49.5,145 20.212879,179.03678 -34.908329,264.25462 3.7469517,302.9099 c 4.533006,4.53301 51.7596753,3.77394 61.5060963,0.52513 C 108.01122,289.18231 236.37618,129.10049 248.25,81.75 263.32958,21.615584 191.0549,17.318038 158.89518,39.665477 z"
       id="path12083"
       inkscape:connector-curvature="0"
       sodipodi:nodetypes="ssssss" />
    <path
       style="fill:url(#radialGradient12108);fill-opacity:1;stroke:none"
       d="m 235.43699,79.7695 c -28.77592,18.156642 -46.12103,55.86958 -76.51472,91.19239 -29.28712,34.03678 -224.41547,155.67062 -43.98528,132.80761 6.35979,-0.80587 31.25358,6.24881 41,3 42.75817,-14.25272 129.88409,-124.14014 155,-166 37.35344,-62.255737 -44.57018,-79.557894 -75.5,-61 z"
       id="path12083-9"
       inkscape:connector-curvature="0"
       sodipodi:nodetypes="cssssc" />
  </g>
  <g
     inkscape:groupmode="layer"
     id="layer2"
     inkscape:label="osy">
    <path
       style="fill:none;stroke:#000000;stroke-width:1.99999988;stroke-linecap:butt;stroke-linejoin:miter;stroke-miterlimit:4;stroke-opacity:1;stroke-dasharray:none;marker-start:url(#Arrow1Mstart)"
       d="m 96.353789,86.936909 0.35646,182.536731"
       id="path5161-9"
       inkscape:connector-curvature="0"
       sodipodi:nodetypes="cc" />
    <path
       style="fill:none;stroke:#000000;stroke-width:1.99999988;stroke-linecap:butt;stroke-linejoin:miter;stroke-miterlimit:4;stroke-opacity:1;stroke-dasharray:none;marker-end:url(#Arrow1Mend)"
       d="M 0.51238553,250.62019 286.94373,250.87003"
       id="path5161"
       inkscape:connector-curvature="0" />
  </g>
  <g
     inkscape:label="Vrstva 1"
     inkscape:groupmode="layer"
     id="layer1"
     transform="translate(0,-752.36218)">
    <path
       style="fill:none;stroke:#e80700;stroke-width:2.12412429;stroke-linecap:round;stroke-linejoin:miter;stroke-miterlimit:4;stroke-opacity:1;stroke-dasharray:2.12412421, 4.24824841;stroke-dashoffset:0;filter:url(#filter7727)"
       d="m 72.823265,970.76356 c 20.126931,-13.67752 30.526955,-11.4233 45.241475,1.52983"
       id="path4122-9"
       inkscape:connector-curvature="0"
       sodipodi:nodetypes="cc"
       transform="matrix(-2.3532755,0,0,2.3545473,439.1966,-1411.4956)" />
    <path
       style="fill:none;stroke:#e80700;stroke-width:2.12412429;stroke-linecap:round;stroke-linejoin:miter;stroke-miterlimit:4;stroke-opacity:1;stroke-dasharray:2.12412421, 4.24824841;stroke-dashoffset:0;filter:url(#filter7727-2)"
       d="m 72.823265,970.76356 c 20.126931,-13.67752 30.526955,-11.4233 45.241475,1.52983"
       id="path4122-9-0"
       inkscape:connector-curvature="0"
       sodipodi:nodetypes="cc"
       transform="matrix(-2.3532755,0,0,2.3545473,396.92866,-1371.2098)" />
    <path
       style="fill:none;stroke:#e80700;stroke-width:2.12412429;stroke-linecap:round;stroke-linejoin:miter;stroke-miterlimit:4;stroke-opacity:1;stroke-dasharray:2.12412421, 4.24824841;stroke-dashoffset:0;filter:url(#filter7727-2-9)"
       d="m 72.823265,970.76356 c 20.126931,-13.67752 30.526955,-11.4233 45.241475,1.52983"
       id="path4122-9-0-7"
       inkscape:connector-curvature="0"
       sodipodi:nodetypes="cc"
       transform="matrix(-2.3532755,0,0,2.3545473,349.05683,-1325.702)" />
  </g>
</svg>
