<?xml version="1.0" encoding="UTF-8" standalone="no"?>
<!-- Created with Inkscape (http://www.inkscape.org/) -->

<svg
   xmlns:ns0="http://www.iki.fi/pav/software/textext/"
   xmlns:dc="http://purl.org/dc/elements/1.1/"
   xmlns:cc="http://creativecommons.org/ns#"
   xmlns:rdf="http://www.w3.org/1999/02/22-rdf-syntax-ns#"
   xmlns:svg="http://www.w3.org/2000/svg"
   xmlns="http://www.w3.org/2000/svg"
   xmlns:sodipodi="http://sodipodi.sourceforge.net/DTD/sodipodi-0.dtd"
   xmlns:inkscape="http://www.inkscape.org/namespaces/inkscape"
   width="700"
   height="350"
   id="svg2"
   inkscape:label="Pozadí"
   version="1.1"
   inkscape:version="0.48.0 r9654"
   sodipodi:docname="kinematika_delo_vakuum.svg">
  <sodipodi:namedview
     id="base"
     pagecolor="#ffffff"
     bordercolor="#666666"
     borderopacity="1.0"
     inkscape:pageopacity="0.0"
     inkscape:pageshadow="2"
     inkscape:zoom="0.98994949"
     inkscape:cx="247.87937"
     inkscape:cy="179.98012"
     inkscape:document-units="px"
     inkscape:current-layer="layer1"
     showgrid="false"
     inkscape:window-width="1917"
     inkscape:window-height="1125"
     inkscape:window-x="-9"
     inkscape:window-y="-9"
     inkscape:window-maximized="1" />
  <defs
     id="defs25883" />
  <metadata
     id="metadata25886">
    <rdf:RDF>
      <cc:Work
         rdf:about="">
        <dc:format>image/svg+xml</dc:format>
        <dc:type
           rdf:resource="http://purl.org/dc/dcmitype/StillImage" />
        <dc:title />
      </cc:Work>
    </rdf:RDF>
  </metadata>
  <g
     transform="translate(0,-702.361)"
     id="layer1"
     inkscape:groupmode="layer"
     inkscape:label="Vrstva 1">
    <path
       sodipodi:nodetypes="ccc"
       id="path3082"
       style="fill:none;stroke:#c00000;stroke-width:1.875;stroke-linecap:round;stroke-linejoin:round;stroke-miterlimit:10;stroke-opacity:1;stroke-dasharray:none"
       d="m 163.25174,965.81396 c 16.8363,-53.9519 15.7813,-222.15574 77.96672,-218.32398 45.05184,5.43199 61.69744,121.28219 70.66614,216.73639"
       inkscape:connector-curvature="0" />
    <path
       sodipodi:nodetypes="ccccccc"
       id="path21698"
       style="fill:none;stroke:#c00000;stroke-width:1.875;stroke-linecap:round;stroke-linejoin:round;stroke-miterlimit:10;stroke-opacity:1;stroke-dasharray:none"
       d="m 165.02674,965.81396 c 3.3375,-7.075 14.5125,-17.45 21.0375,-23.8375 l -0.1,0.1875 c 3.4875,-3.375 5.5625,-5.5125 7.6,-7.6875 l 0.037,0.05 c 94.97275,-90.36455 196.24152,-143.41942 313.46254,-68.3 42.27723,29.30093 70.23046,62.44349 100.5,99.75"
       inkscape:connector-curvature="0" />
    <path
       id="path21700"
       style="fill:#7f7f7f;fill-opacity:1;fill-rule:evenodd;stroke:none"
       d="m 406.46936,829.38699 c 0,-4.8875 -3.9625,-8.8625 -8.85,-8.8625 -4.9,0 -8.8625,3.975 -8.8625,8.8625 0,4.8875 3.9625,8.8625 8.8625,8.8625 4.8875,0 8.85,-3.975 8.85,-8.8625 z"
       inkscape:connector-curvature="0" />
    <path
       id="path21704"
       style="fill:#000000;fill-opacity:1;fill-rule:evenodd;stroke:none"
       d="m 563.63928,905.57646 c 0,-4.4 -3.5625,-7.975 -7.9625,-7.975 -4.4125,0 -7.975,3.575 -7.975,7.975 0,4.4 3.5625,7.975 7.975,7.975 4.4,0 7.9625,-3.575 7.9625,-7.975 z"
       inkscape:connector-curvature="0" />
    <path
       id="path21706"
       style="fill:none;stroke:#000000;stroke-width:0.90000004;stroke-linecap:round;stroke-linejoin:round;stroke-miterlimit:10;stroke-opacity:1;stroke-dasharray:none"
       d="m 563.63928,905.57646 c 0,-4.4 -3.5625,-7.975 -7.9625,-7.975 -4.4125,0 -7.975,3.575 -7.975,7.975 0,4.4 3.5625,7.975 7.975,7.975 4.4,0 7.9625,-3.575 7.9625,-7.975 z"
       inkscape:connector-curvature="0" />
    <text
       id="text21708"
       x="344.73929"
       y="877.26392"
       style="font-size:15px">
      <tspan
         id="tspan21710"
         y="877.26392"
         x="344.73929"
         style="font-size:17.49959946px;font-variant:normal;font-weight:bold;writing-mode:lr-tb;fill:#000000;fill-opacity:1;fill-rule:nonzero;stroke:none;font-family:ARIAL;-inkscape-font-specification:ARIAL Bold">r</tspan>
    </text>
    <text
       id="text21712"
       x="351.53928"
       y="879.67645"
       style="font-size:15px">
      <tspan
         id="tspan21714"
         y="879.67645"
         x="351.53928"
         style="font-size:11.37330055px;font-variant:normal;font-weight:bold;writing-mode:lr-tb;fill:#000000;fill-opacity:1;fill-rule:nonzero;stroke:none;font-family:ARIAL;-inkscape-font-specification:ARIAL Bold">1</tspan>
    </text>
    <path
       id="path21716"
       style="fill:none;stroke:#000000;stroke-width:0.90000004;stroke-linecap:round;stroke-linejoin:round;stroke-miterlimit:10;stroke-opacity:1;stroke-dasharray:none"
       d="m 343.56428,864.72646 16.5,0"
       inkscape:connector-curvature="0" />
    <path
       id="path21718"
       style="fill:#000000;fill-opacity:1;fill-rule:evenodd;stroke:none"
       d="m 359.31428,861.72646 8.25,3 -8.25,2.25 0,-5.25 z"
       inkscape:connector-curvature="0" />
    <text
       id="text21720"
       x="468.23929"
       y="909.05145"
       style="font-size:15px">
      <tspan
         id="tspan21722"
         y="909.05145"
         x="468.23929"
         style="font-size:17.49959946px;font-variant:normal;font-weight:bold;writing-mode:lr-tb;fill:#000000;fill-opacity:1;fill-rule:nonzero;stroke:none;font-family:ARIAL;-inkscape-font-specification:ARIAL Bold">r</tspan>
    </text>
    <text
       id="text21724"
       x="475.05179"
       y="911.47644"
       style="font-size:15px">
      <tspan
         id="tspan21726"
         y="911.47644"
         x="475.05179"
         style="font-size:11.37330055px;font-variant:normal;font-weight:bold;writing-mode:lr-tb;fill:#000000;fill-opacity:1;fill-rule:nonzero;stroke:none;font-family:ARIAL;-inkscape-font-specification:ARIAL Bold">2</tspan>
    </text>
    <path
       id="path21728"
       style="fill:none;stroke:#000000;stroke-width:0.90000004;stroke-linecap:round;stroke-linejoin:round;stroke-miterlimit:10;stroke-opacity:1;stroke-dasharray:none"
       d="m 466.56428,896.22646 17.25,0"
       inkscape:connector-curvature="0" />
    <path
       id="path21730"
       style="fill:#000000;fill-opacity:1;fill-rule:evenodd;stroke:none"
       d="m 483.06428,893.22646 8.25,3 -8.25,3 0,-6 z"
       inkscape:connector-curvature="0" />
    <path
       id="path21732"
       style="fill:none;stroke:#000080;stroke-width:0.90000004;stroke-linecap:round;stroke-linejoin:round;stroke-miterlimit:10;stroke-opacity:1;stroke-dasharray:none"
       d="m 164.73395,965.35769 81.75,0"
       inkscape:connector-curvature="0" />
    <path
       id="path21734"
       style="fill:#000080;fill-opacity:1;fill-rule:evenodd;stroke:none"
       d="m 243.57332,960.10515 13.42857,4.48052 -13.42857,5.37662 0,-9.85714 z"
       inkscape:connector-curvature="0" />
    <path
       id="path21762"
       style="fill:#000080;fill-opacity:1;fill-rule:evenodd;stroke:none"
       d="m 159.7441,889.45922 5.12987,-11.28571 6.15584,11.28571 -11.28571,0 z"
       inkscape:connector-curvature="0" />
    <path
       id="path21788"
       style="fill:none;stroke:#000000;stroke-width:1.5;stroke-linecap:round;stroke-linejoin:round;stroke-miterlimit:10;stroke-opacity:1;stroke-dasharray:none"
       d="m 163.99156,965.11277 59.25,-61.5"
       inkscape:connector-curvature="0" />
    <path
       id="path21790"
       style="fill:#000000;fill-opacity:1;fill-rule:evenodd;stroke:none"
       d="m 227.9941,898.36277 -3,9.75 0.1375,-0.025 c -1.1,-3.075 -3.575,-5.475 -6.7,-6.45 l -0.1875,-0.275 9.75,-3 z"
       inkscape:connector-curvature="0" />
    <g
       id="g21792"
       transform="matrix(1.25,0,0,-1.2593954,-3161.2483,3747.3601)">
      <path
         id="path21794"
         style="fill:none;stroke:#000000;stroke-width:0.72000003;stroke-linecap:round;stroke-linejoin:round;stroke-miterlimit:10;stroke-opacity:1;stroke-dasharray:5.04, 3.6;stroke-dashoffset:0"
         d="m 2660.4,2262 51,0 0,-53.4"
         inkscape:connector-curvature="0" />
    </g>
    <text
       id="text21796"
       x="220.96046"
       y="893.36267"
       style="font-size:20.85136985999999800px;font-style:oblique;-inkscape-font-specification:Sans Oblique">
      <tspan
         id="tspan21798"
         y="893.36267"
         x="220.96046"
         style="font-size:20.85178756999999900px;font-variant:normal;font-weight:normal;writing-mode:lr-tb;fill:#000000;fill-opacity:1;fill-rule:nonzero;stroke:none;font-family:Times New Roman;-inkscape-font-specification:Sans Oblique;font-style:oblique">v</tspan>
    </text>
    <text
       id="text21800"
       x="231.38614"
       y="896.35138"
       style="font-size:20.85136985999999800px;font-style:oblique;-inkscape-font-specification:Sans Oblique">
      <tspan
         id="tspan21802"
         y="896.35138"
         x="231.38614"
         style="font-size:13.55047034999999900px;font-variant:normal;font-weight:normal;writing-mode:lr-tb;fill:#000000;fill-opacity:1;fill-rule:nonzero;stroke:none;font-family:Times New Roman;-inkscape-font-specification:Sans Oblique;font-style:oblique">0</tspan>
    </text>
    <text
       id="text21804"
       x="146.96748"
       y="880.38092"
       style="font-size:20.0857029px">
      <tspan
         id="tspan21806"
         y="880.38092"
         x="146.96748"
         style="font-size:20.08610535px;font-style:italic;font-variant:normal;font-weight:normal;writing-mode:lr-tb;fill:#000000;fill-opacity:1;fill-rule:nonzero;stroke:none;font-family:TIMES NEW ROMAN;-inkscape-font-specification:'TIMES NEW ROMAN, Italic'">v</tspan>
    </text>
    <text
       id="text21808"
       x="154.45433"
       y="884.19965"
       style="font-size:20.0857029px">
      <tspan
         id="tspan21810"
         y="884.19965"
         x="154.45433"
         style="font-size:13.05289555px;font-style:italic;font-variant:normal;font-weight:normal;writing-mode:lr-tb;fill:#000000;fill-opacity:1;fill-rule:nonzero;stroke:none;font-family:TIMES NEW ROMAN;-inkscape-font-specification:'TIMES NEW ROMAN, Italic'">z</tspan>
    </text>
    <text
       id="text21812"
       x="247.22095"
       y="979.91742"
       style="font-size:22.83924866px">
      <tspan
         id="tspan21814"
         y="979.91742"
         x="247.22095"
         style="font-size:22.83970642px;font-style:italic;font-variant:normal;font-weight:normal;writing-mode:lr-tb;fill:#000000;fill-opacity:1;fill-rule:nonzero;stroke:none;font-family:TIMES NEW ROMAN;-inkscape-font-specification:'TIMES NEW ROMAN, Italic'">v</tspan>
    </text>
    <text
       id="text21816"
       x="257.34613"
       y="983.17206"
       style="font-size:22.83924866px">
      <tspan
         id="tspan21818"
         y="983.17206"
         x="257.34613"
         style="font-size:14.84231377px;font-style:italic;font-variant:normal;font-weight:normal;writing-mode:lr-tb;fill:#000000;fill-opacity:1;fill-rule:nonzero;stroke:none;font-family:TIMES NEW ROMAN;-inkscape-font-specification:'TIMES NEW ROMAN, Italic'">x</tspan>
    </text>
    <path
       id="path21820"
       style="fill:none;stroke:#5880b3;stroke-width:0.90000004;stroke-linecap:round;stroke-linejoin:round;stroke-miterlimit:10;stroke-opacity:1;stroke-dasharray:none"
       d="m 165.06424,965.97646 372.00004,-57.75"
       inkscape:connector-curvature="0" />
    <path
       id="path21822"
       style="fill:#5880b3;fill-opacity:1;fill-rule:evenodd;stroke:none"
       d="m 534.81428,904.47646 12.75,2.25 -11.25,5.25 -1.5,-7.5 z"
       inkscape:connector-curvature="0" />
    <path
       id="path21824"
       style="fill:none;stroke:#5880b3;stroke-width:0.90000004;stroke-linecap:round;stroke-linejoin:round;stroke-miterlimit:10;stroke-opacity:1;stroke-dasharray:none"
       d="m 165.06424,965.97646 216.00004,-129"
       inkscape:connector-curvature="0" />
    <path
       id="path21826"
       style="fill:#5880b3;fill-opacity:1;fill-rule:evenodd;stroke:none"
       d="m 378.06428,833.97646 12,-2.25 -8.25,9.75 -3.75,-7.5 z"
       inkscape:connector-curvature="0" />
    <path
       id="path21832"
       style="fill:none;stroke:#000000;stroke-width:2.8125;stroke-linecap:round;stroke-linejoin:round;stroke-miterlimit:10;stroke-opacity:1;stroke-dasharray:none"
       d="m 163.09995,964.90503 501.75004,0"
       inkscape:connector-curvature="0" />
    <path
       id="path21834"
       style="fill:#000000;fill-opacity:1;fill-rule:evenodd;stroke:none"
       d="m 665.31428,959.22646 13.5,6.75 -13.5,6.75 0,-13.5 z"
       inkscape:connector-curvature="0" />
    <path
       id="path21836"
       style="fill:none;stroke:#000000;stroke-width:2.8125;stroke-linecap:round;stroke-linejoin:round;stroke-miterlimit:10;stroke-opacity:1;stroke-dasharray:none"
       d="m 165.06424,965.26218 0,-248.25"
       inkscape:connector-curvature="0" />
    <path
       id="path21838"
       style="fill:#000000;fill-opacity:1;fill-rule:evenodd;stroke:none"
       d="m 158.31424,719.22646 6.75,-13.5 6.75,13.5 -13.5,0 z"
       inkscape:connector-curvature="0" />
    <path
       id="path21840"
       style="fill:#bfbfbf;fill-opacity:1;fill-rule:evenodd;stroke:none"
       d="m 166.88924,969.26396 c 0,-3.7625 -3.0625,-6.825 -6.825,-6.825 -3.775,0 -6.825,3.0625 -6.825,6.825 0,3.775 3.05,6.825 6.825,6.825 3.7625,0 6.825,-3.05 6.825,-6.825 z"
       inkscape:connector-curvature="0" />
    <path
       id="path21842"
       style="fill:none;stroke:#bfbfbf;stroke-width:0.90000004;stroke-linecap:round;stroke-linejoin:round;stroke-miterlimit:10;stroke-opacity:1;stroke-dasharray:none"
       d="m 166.88924,969.26396 c 0,-3.7625 -3.0625,-6.825 -6.825,-6.825 -3.775,0 -6.825,3.0625 -6.825,6.825 0,3.775 3.05,6.825 6.825,6.825 3.7625,0 6.825,-3.05 6.825,-6.825 z"
       inkscape:connector-curvature="0" />
    <path
       id="path21844"
       style="fill:none;stroke:#000000;stroke-width:0.90000004;stroke-linecap:round;stroke-linejoin:round;stroke-miterlimit:10;stroke-opacity:1;stroke-dasharray:none"
       d="m 189.81423,938.69967 c 14.40532,2.17496 20.47166,15.04001 19.2495,26.5625"
       inkscape:connector-curvature="0"
       sodipodi:nodetypes="cc" />
    <path
       id="path21846"
       style="fill:#008000;fill-opacity:1;fill-rule:evenodd;stroke:none"
       d="m 3.0892428,1049.7139 c 0,-12.4875 11.5750002,-22.6125 25.8500002,-22.6125 l -0.375,-0.375 82.499997,0 0.25,0.375 c 15.175,0 27.4625,10.125 27.4625,22.6125 0,0 0,0 0,0 l 0.038,0.2625 -135.7499972,0 0.025,-0.2625 z"
       inkscape:connector-curvature="0" />
    <path
       id="path21848"
       style="fill:none;stroke:#000000;stroke-width:0.90000004;stroke-linecap:round;stroke-linejoin:round;stroke-miterlimit:10;stroke-opacity:1;stroke-dasharray:none"
       d="m 3.0892428,1049.7139 c 0,-12.4875 11.5750002,-22.6125 25.8500002,-22.6125 l -0.375,-0.375 82.499997,0 0.25,0.375 c 15.175,0 27.4625,10.125 27.4625,22.6125 0,0 0,0 0,0 l 0.038,0.2625 -135.7499972,0 0.025,-0.2625 z"
       inkscape:connector-curvature="0" />
    <path
       id="path21850"
       style="fill:#808080;fill-opacity:1;fill-rule:evenodd;stroke:none"
       d="m 78.814243,1013.9765 -8.25,5.25 -39.75,0 0,8.2499 68.25,0 -20.25,-13.4999 z"
       inkscape:connector-curvature="0" />
    <path
       id="path21852"
       style="fill:none;stroke:#000000;stroke-width:2.70000005;stroke-linecap:round;stroke-linejoin:round;stroke-miterlimit:10;stroke-opacity:1;stroke-dasharray:none"
       d="m 78.814243,1013.9765 -8.25,5.25 -39.75,0 0,8.2499 68.25,0 -20.25,-13.4999 z"
       inkscape:connector-curvature="0" />
    <path
       id="path21854"
       style="fill:#800000;fill-opacity:1;fill-rule:evenodd;stroke:none"
       d="m 117.81424,1001.9765 -6.75,-12.75004 34.5,-20.25 0.75,-4.5 4.5,-3 0.75,1.5 1.5,-0.75 9,15.75 -1.5,0.75 1.5,1.5 -4.5,3 -4.5,-2.25 -35.25,21.00004 z"
       inkscape:connector-curvature="0" />
    <path
       id="path21856"
       style="fill:none;stroke:#000000;stroke-width:2.70000005;stroke-linecap:round;stroke-linejoin:round;stroke-miterlimit:10;stroke-opacity:1;stroke-dasharray:none"
       d="m 117.81424,1001.9765 -6.75,-12.75004 34.5,-20.25 0.75,-4.5 4.5,-3 0.75,1.5 1.5,-0.75 9,15.75 -1.5,0.75 1.5,1.5 -4.5,3 -4.5,-2.25 -35.25,21.00004 z"
       inkscape:connector-curvature="0" />
    <path
       id="path21858"
       style="fill:#ffffff;fill-opacity:1;fill-rule:evenodd;stroke:none"
       d="m 100.00174,1025.9639 c 11.15,0 20.2,-9.0374 20.2,-20.1874 0,-11.15004 -9.05,-20.18754 -20.2,-20.18754 0,0 0,0 0,0 -11.149997,0 -20.187497,9.0375 -20.187497,20.18754 0,11.15 9.0375,20.1874 20.187497,20.1874 z"
       inkscape:connector-curvature="0" />
    <path
       id="path21860"
       style="fill:none;stroke:#000000;stroke-width:5.0999999;stroke-linecap:round;stroke-linejoin:round;stroke-miterlimit:10;stroke-opacity:1;stroke-dasharray:none"
       d="m 100.00174,1025.9639 c 11.15,0 20.2,-9.0374 20.2,-20.1874 0,-11.15004 -9.05,-20.18754 -20.2,-20.18754 0,0 0,0 0,0 -11.149997,0 -20.187497,9.0375 -20.187497,20.18754 0,11.15 9.0375,20.1874 20.187497,20.1874 z"
       inkscape:connector-curvature="0" />
    <g
       id="g21862"
       transform="matrix(1.25,0,0,-1.25,-3165.6858,3730.4764)">
      <path
         id="path21864"
         style="fill:none;stroke:#000000;stroke-width:4.07999992;stroke-linecap:round;stroke-linejoin:round;stroke-miterlimit:10;stroke-opacity:1;stroke-dasharray:28.56, 20.4;stroke-dashoffset:0"
         d="m 2612.55,2161.99 c 9.82,0 17.77,7.95 17.77,17.77 0,9.81 -7.95,17.77 -17.77,17.77 0,0 0,0 0,0 -9.81,0 -17.77,-7.96 -17.77,-17.77 0,-9.81 7.96,-17.77 17.77,-17.77"
         inkscape:connector-curvature="0" />
    </g>
    <path
       id="path21866"
       style="fill:none;stroke:#000000;stroke-width:2.73615742;stroke-linecap:round;stroke-linejoin:round;stroke-miterlimit:10;stroke-opacity:1;stroke-dasharray:none"
       d="m 85.394822,991.58382 29.401338,27.62458"
       inkscape:connector-curvature="0" />
    <path
       id="path21868"
       style="fill:#ffffff;fill-opacity:1;fill-rule:evenodd;stroke:none"
       d="m 90.814243,1008.7265 6,6 12.749997,-12.75 -6,-6.00004 -12.749997,12.75004 z"
       inkscape:connector-curvature="0" />
    <path
       id="path21874"
       style="fill:none;stroke:#000000;stroke-width:2.70000005;stroke-linecap:round;stroke-linejoin:round;stroke-miterlimit:10;stroke-opacity:1;stroke-dasharray:none"
       d="M 114.81424,991.47646 85.564243,1019.9765"
       inkscape:connector-curvature="0" />
    <path
       id="path21876"
       style="fill:none;stroke:#000000;stroke-width:2.70000005;stroke-linecap:round;stroke-linejoin:round;stroke-miterlimit:10;stroke-opacity:1;stroke-dasharray:none"
       d="m 99.814243,985.47646 0,40.49994"
       inkscape:connector-curvature="0" />
    <path
       id="path21878"
       style="fill:none;stroke:#000000;stroke-width:2.70000005;stroke-linecap:round;stroke-linejoin:round;stroke-miterlimit:10;stroke-opacity:1;stroke-dasharray:none"
       d="m 79.564243,1005.7265 40.499997,0"
       inkscape:connector-curvature="0" />
    <path
       id="path21880"
       style="fill:#ffffff;fill-opacity:1;fill-rule:evenodd;stroke:none"
       d="m 102.98924,1005.7765 c 0,-1.65 -1.3375,-2.9875 -2.9875,-2.9875 -1.649997,0 -2.987497,1.3375 -2.987497,2.9875 0,1.65 1.3375,2.9875 2.987497,2.9875 1.65,0 2.9875,-1.3375 2.9875,-2.9875 z"
       inkscape:connector-curvature="0" />
    <path
       id="path21882"
       style="fill:none;stroke:#000000;stroke-width:3.24039745;stroke-linecap:round;stroke-linejoin:round;stroke-miterlimit:10;stroke-opacity:1;stroke-dasharray:none"
       d="m 103.70118,1005.9058 c 0,-1.9667 -1.61625,-3.5609 -3.61015,-3.5609 -1.993897,0 -3.61016,1.5942 -3.61016,3.5609 0,1.9667 1.616263,3.5609 3.61016,3.5609 1.9939,0 3.61015,-1.5942 3.61015,-3.5609 z"
       inkscape:connector-curvature="0" />
    <text
       id="text21884"
       x="654.42676"
       y="990.75146"
       style="font-size:15px">
      <tspan
         id="tspan21886"
         y="990.75146"
         x="654.42676"
         style="font-size:29.99969864px;font-style:italic;font-variant:normal;font-weight:normal;writing-mode:lr-tb;fill:#000000;fill-opacity:1;fill-rule:nonzero;stroke:none;font-family:TIMES NEW ROMAN;-inkscape-font-specification:'TIMES NEW ROMAN, Italic'">x</tspan>
    </text>
    <text
       id="text21888"
       x="137.92685"
       y="726.77643"
       style="font-size:15px">
      <tspan
         id="tspan21890"
         y="726.77643"
         x="137.92685"
         style="font-size:29.99969864px;font-style:italic;font-variant:normal;font-weight:normal;writing-mode:lr-tb;fill:#000000;fill-opacity:1;fill-rule:nonzero;stroke:none;font-family:TIMES NEW ROMAN;-inkscape-font-specification:'TIMES NEW ROMAN, Italic'">z</tspan>
    </text>
    <g
       id="g21892"
       transform="matrix(1.25,0,0,-1.25,-3165.6858,3730.4764)">
      <path
         sodipodi:nodetypes="ccccccc"
         id="path21894"
         style="fill:none;stroke:#00b0f0;stroke-width:1.5;stroke-linecap:round;stroke-linejoin:round;stroke-miterlimit:10;stroke-opacity:1;stroke-dasharray:10.5, 7.5;stroke-dashoffset:0"
         d="m 3018.9,2211.73 c -5.4573,44.294 -32.9819,88.2683 -68.4114,113.1043 -55.8969,44.6245 -131.5094,55.3538 -195.8886,60.7657 l 0.23,-0.1 c -15.18,1.26 -29.8,1.45 -43.43,1.9 l -0.29,-0.27 c -13.69,0.18 -26.7,0.35 -46.51,0.27"
         inkscape:connector-curvature="0" />
    </g>
    <text
       id="text21896"
       x="267.6268"
       y="740.00146"
       style="font-size:15px">
      <tspan
         id="tspan21898"
         sodipodi:role="line"
         y="740.00146"
         x="267.6268 278.4592 285.11697 292.61722 297.61221 304.26993 311.77017 319.27042 325.92819 329.67831 337.17856 343.83627 348.83127 355.48904 362.98929 370.48953 374.65714"
         style="font-size:15.00030041px;font-variant:normal;font-weight:normal;writing-mode:lr-tb;fill:#00b0f0;fill-opacity:1;fill-rule:nonzero;stroke:none;font-family:Times New Roman;-inkscape-font-specification:Times New">Ochranná parabola</tspan>
    </text>
    <text
       id="text21900"
       x="561.26428"
       y="991.57648"
       style="font-size:15px">
      <tspan
         id="tspan21902"
         sodipodi:role="line"
         y="991.57648"
         x="561.26428 574.60138 581.25909 588.75934 592.50946 600.0097 607.50995 613.34741 617.51508 622.51007 629.16785"
         style="font-size:15.00030041px;font-variant:normal;font-weight:normal;writing-mode:lr-tb;fill:#000000;fill-opacity:1;fill-rule:nonzero;stroke:none;font-family:Times New Roman;-inkscape-font-specification:Times New">Max dostřel</tspan>
    </text>
    <path
       id="path21904"
       style="fill:#000000;fill-opacity:1;fill-rule:evenodd;stroke:none"
       d="m 615.02678,964.92646 c 0,-4.4 -3.575,-7.975 -7.975,-7.975 -4.4,0 -7.975,3.575 -7.975,7.975 0,4.4 3.575,7.975 7.975,7.975 4.4,0 7.975,-3.575 7.975,-7.975 z"
       inkscape:connector-curvature="0" />
    <path
       id="path21906"
       style="fill:none;stroke:#000000;stroke-width:0.90000004;stroke-linecap:round;stroke-linejoin:round;stroke-miterlimit:10;stroke-opacity:1;stroke-dasharray:none"
       d="m 615.02678,964.92646 c 0,-4.4 -3.575,-7.975 -7.975,-7.975 -4.4,0 -7.975,3.575 -7.975,7.975 0,4.4 3.575,7.975 7.975,7.975 4.4,0 7.975,-3.575 7.975,-7.975 z"
       inkscape:connector-curvature="0" />
    <g
       ns0:preamble=""
       ns0:text="$$\\alpha$$\n"
       word-spacing="normal"
       letter-spacing="normal"
       font-size-adjust="none"
       font-stretch="normal"
       font-weight="normal"
       font-variant="normal"
       font-style="normal"
       stroke-miterlimit="10.433"
       xml:space="preserve"
       transform="matrix(1.9555328,0,0,-1.9555328,-581.36213,2343.5781)"
       id="content"
       style="font-style:normal;font-variant:normal;font-weight:normal;font-stretch:normal;letter-spacing:normal;word-spacing:normal;text-anchor:start;fill:none;stroke:#000000;stroke-linecap:butt;stroke-linejoin:miter;stroke-miterlimit:10.43299961;stroke-opacity:1;stroke-dasharray:none;stroke-dashoffset:0">
<path
   id="path48997"
   d="m 396.84,709.47 0,0.08 0,0.07 -0.01,0.07 0,0.06 -0.02,0.14 -0.01,0.12 -0.03,0.12 -0.02,0.11 -0.03,0.11 -0.04,0.1 -0.04,0.1 -0.04,0.09 -0.05,0.09 -0.04,0.08 -0.06,0.08 -0.05,0.07 -0.06,0.06 -0.06,0.06 -0.06,0.06 -0.06,0.05 -0.07,0.05 -0.07,0.05 -0.06,0.04 -0.07,0.03 -0.07,0.04 -0.08,0.02 -0.07,0.03 -0.07,0.02 -0.07,0.02 -0.07,0.01 -0.08,0.01 -0.07,0.01 -0.07,0 -0.07,0 c -1.36,0 -2.68,-1.42 -2.68,-2.82 0,-0.93 0.6,-1.68 1.62,-1.68 l 0.02,0.21 c -0.6,0 -0.9,0.45 -0.9,1.09 0,0.49 0.26,1.56 0.58,2.07 0.47,0.73 1,0.91 1.35,0.91 0.99,0 0.99,-1.3 0.99,-2.08 0,-0.36 0,-0.94 0.02,-1.11 h 0 c -0.88,-0.77 -1.65,-0.88 -2.04,-0.88 l -0.02,-0.21 c 0.62,0 1.34,0.22 2.1,0.83 0.13,-0.53 0.46,-0.83 0.91,-0.83 0.52,0 0.83,0.54 0.83,0.7 0,0.07 -0.06,0.1 -0.12,0.1 -0.06,0 -0.1,-0.03 -0.13,-0.1 -0.17,-0.49 -0.53,-0.49 -0.55,-0.49 -0.31,0 -0.31,0.78 -0.31,1.02 0,0.21 0,0.23 0.1,0.35 0.94,1.17 1.14,2.33 1.14,2.34 0,0.02 -0.01,0.1 -0.12,0.1 -0.1,0 -0.1,-0.03 -0.14,-0.21 -0.18,-0.63 -0.51,-1.39 -0.98,-1.97 z"
   inkscape:connector-curvature="0"
   style="fill:#000000;stroke-width:0" />
</g>    <g
       style="font-style:normal;font-variant:normal;font-weight:normal;font-stretch:normal;letter-spacing:normal;word-spacing:normal;text-anchor:start;fill:none;stroke:#000000;stroke-linecap:butt;stroke-linejoin:miter;stroke-miterlimit:10.43299961;stroke-opacity:1;stroke-dasharray:none;stroke-dashoffset:0"
       id="g49214"
       transform="matrix(0.01255671,-1.8789846,-1.8789846,-0.01255671,1476.5991,1675.0701)"
       xml:space="preserve"
       stroke-miterlimit="10.433"
       font-style="normal"
       font-variant="normal"
       font-weight="normal"
       font-stretch="normal"
       font-size-adjust="none"
       letter-spacing="normal"
       word-spacing="normal"
       ns0:text="$$v_0\\sin(\\alpha)$$\n"
       ns0:preamble="">
<path
   style="fill:#000000;stroke-width:0"
   inkscape:connector-curvature="0"
   d="m 381.28,710.83 0,0.02 0,0.03 0,0.02 0,0.02 -0.01,0.03 0,0.02 0,0.02 0,0.02 -0.01,0.04 -0.01,0.04 -0.01,0.04 -0.01,0.03 -0.01,0.04 -0.01,0.03 -0.01,0.03 -0.01,0.02 -0.02,0.03 -0.01,0.02 -0.02,0.03 -0.01,0.02 -0.02,0.02 -0.02,0.01 -0.01,0.02 -0.02,0.02 -0.02,0.01 -0.02,0.01 -0.02,0.01 -0.02,0.01 -0.01,0.01 -0.02,0.01 -0.02,0 -0.02,0.01 -0.02,0 -0.02,0 -0.01,0 -0.02,0 c -0.25,0 -0.49,-0.25 -0.49,-0.47 0,-0.13 0.05,-0.19 0.16,-0.3 0.21,-0.2 0.34,-0.46 0.34,-0.82 0,-0.42 -0.61,-2.7 -1.77,-2.7 -0.51,0 -0.74,0.35 -0.74,0.87 0,0.56 0.27,1.28 0.58,2.11 0.06,0.17 0.12,0.31 0.12,0.5 0,0.45 -0.32,0.81 -0.82,0.81 -0.94,0 -1.32,-1.44 -1.32,-1.53 0,-0.1 0.1,-0.1 0.12,-0.1 0.1,0 0.11,0.02 0.16,0.18 0.29,1.01 0.72,1.23 1.01,1.23 0.08,0 0.25,0 0.25,-0.31 0,-0.25 -0.1,-0.52 -0.17,-0.7 -0.44,-1.15 -0.57,-1.61 -0.57,-2.04 0,-1.08 0.88,-1.23 1.34,-1.23 1.67,0 2.24,3.29 2.24,3.81 z"
   id="path49216" />
<path
   style="fill:#000000;stroke-width:0"
   inkscape:connector-curvature="0"
   d="m 385.04,707.85 -0.01,0.14 0,0.14 0,0.13 -0.01,0.12 -0.01,0.13 -0.02,0.12 -0.02,0.11 -0.02,0.11 -0.02,0.11 -0.03,0.11 -0.04,0.1 -0.04,0.1 -0.04,0.1 -0.05,0.09 -0.05,0.1 -0.03,0.04 -0.02,0.05 c -0.22,0.32 -0.65,0.6 -1.21,0.6 v -0.2 c 0.38,0 0.74,-0.23 0.86,-0.63 0.11,-0.38 0.12,-0.88 0.12,-1.48 0,-0.52 0,-1.03 -0.09,-1.47 -0.14,-0.63 -0.61,-0.78 -0.89,-0.78 h 0 c -0.32,0 -0.75,0.18 -0.88,0.75 -0.1,0.41 -0.1,0.98 -0.1,1.5 0,0.51 0,1.04 0.1,1.42 0.15,0.55 0.59,0.69 0.88,0.69 v 0.2 c -1.62,0 -1.62,-1.9 -1.62,-2.4 0,-0.5 0,-2.36 1.62,-2.36 1.62,0 1.62,1.86 1.62,2.36 z"
   id="path49218" />
<path
   style="fill:#000000;stroke-width:0"
   inkscape:connector-curvature="0"
   d="m 389.64,709.06 0.03,-0.01 0.02,0 0.03,-0.01 0.03,-0.01 0.04,0 0.03,-0.01 0.04,-0.01 0.04,-0.01 0.04,-0.02 0.04,-0.01 0.05,-0.02 0.04,-0.01 0.04,-0.02 0.05,-0.02 0.04,-0.02 0.05,-0.03 0.04,-0.02 0.04,-0.03 0.04,-0.03 0.04,-0.04 0.04,-0.03 0.04,-0.04 0.03,-0.04 0.03,-0.04 0.03,-0.04 0.01,-0.03 0.02,-0.02 0.01,-0.03 0.01,-0.02 0.01,-0.03 0.01,-0.03 0,-0.02 0.01,-0.03 0.01,-0.03 0,-0.03 0.01,-0.03 0,-0.03 0,-0.04 0,-0.03 c 0,-0.51 -0.35,-0.91 -1.12,-0.91 -0.84,0 -1.2,0.57 -1.39,1.42 -0.03,0.13 -0.04,0.17 -0.14,0.17 -0.13,0 -0.13,-0.07 -0.13,-0.25 v -1.32 c 0,-0.16 0,-0.23 0.11,-0.23 0.05,0 0.06,0.01 0.25,0.2 0.02,0.01 0.02,0.03 0.2,0.22 0.44,-0.41 0.89,-0.42 1.1,-0.42 1.14,0 1.6,0.66 1.6,1.38 0,0.53 -0.3,0.82 -0.42,0.94 -0.33,0.32 -0.72,0.4 -1.13,0.48 -0.56,0.11 -1.23,0.24 -1.23,0.82 0,0.35 0.26,0.76 1.12,0.76 1.09,0 1.14,-0.9 1.16,-1.21 0.01,-0.09 0.1,-0.09 0.12,-0.09 0.13,0 0.13,0.05 0.13,0.24 v 1 c 0,0.17 0,0.24 -0.11,0.24 -0.05,0 -0.07,0 -0.2,-0.12 -0.03,-0.04 -0.13,-0.12 -0.17,-0.16 -0.38,0.28 -0.79,0.28 -0.93,0.28 -1.22,0 -1.6,-0.66 -1.6,-1.22 0,-0.35 0.16,-0.63 0.43,-0.85 0.32,-0.25 0.6,-0.31 1.31,-0.45 z"
   id="path49220" />
<path
   style="fill:#000000;stroke-width:0"
   inkscape:connector-curvature="0"
   d="m 393.27,711.52 -1.4,-0.11 v -0.3 c 0.65,0 0.74,-0.06 0.74,-0.55 v -2.68 c 0,-0.45 -0.11,-0.45 -0.78,-0.45 v -0.3 c 0.32,0.01 0.86,0.03 1.1,0.03 0.35,0 0.69,-0.02 1.03,-0.03 v 0.3 c -0.66,0 -0.69,0.05 -0.69,0.44 z"
   id="path49222" />
<path
   style="fill:#000000;stroke-width:0"
   inkscape:connector-curvature="0"
   d="m 393.3,713.26 0,0.03 0,0.02 0,0.03 -0.01,0.03 0,0.03 -0.01,0.02 -0.01,0.03 -0.01,0.02 -0.01,0.03 -0.01,0.02 -0.01,0.02 -0.02,0.02 -0.01,0.02 -0.02,0.02 -0.02,0.02 -0.01,0.02 -0.02,0.02 -0.02,0.01 -0.02,0.02 -0.02,0.01 -0.02,0.01 -0.03,0.01 -0.02,0.02 -0.02,0.01 -0.03,0 -0.02,0.01 -0.03,0.01 -0.02,0 -0.03,0.01 -0.02,0 -0.03,0 -0.02,0 c -0.31,0 -0.53,-0.26 -0.53,-0.52 0,-0.27 0.22,-0.53 0.53,-0.53 0.28,0 0.52,0.21 0.52,0.53 z"
   id="path49224" />
<path
   style="fill:#000000;stroke-width:0"
   inkscape:connector-curvature="0"
   d="m 395.36,710.55 v -2.67 c 0,-0.45 -0.1,-0.45 -0.77,-0.45 v -0.3 c 0.35,0.01 0.86,0.03 1.12,0.03 0.26,0 0.78,-0.02 1.12,-0.03 v 0.3 c -0.67,0 -0.78,0 -0.78,0.45 v 1.83 c 0,1.04 0.71,1.59 1.35,1.59 0.63,0 0.74,-0.53 0.74,-1.1 v -2.32 c 0,-0.45 -0.11,-0.45 -0.78,-0.45 v -0.3 c 0.35,0.01 0.86,0.03 1.12,0.03 0.26,0 0.78,-0.02 1.12,-0.03 v 0.3 c -0.52,0 -0.77,0 -0.78,0.3 v 1.9 c 0,0.86 0,1.17 -0.3,1.53 -0.14,0.17 -0.47,0.36 -1.05,0.36 -0.73,0 -1.2,-0.42 -1.48,-1.04 v 1.04 l -1.4,-0.11 v -0.3 c 0.7,0 0.77,-0.07 0.77,-0.56 z"
   id="path49226" />
<path
   style="fill:#000000;stroke-width:0"
   inkscape:connector-curvature="0"
   d="m 403.1,704.74 0,0 0,0.01 0,0 0,0 0,0.01 0,0 0,0 0,0.01 0,0 0,0 -0.01,0.01 0,0 0,0.01 -0.01,0 0,0.01 -0.01,0.01 0,0 -0.01,0.01 0,0 0,0.01 -0.01,0 0,0.01 -0.01,0 0,0 0,0.01 -0.01,0 0,0.01 -0.01,0 0,0.01 -0.01,0 0,0.01 -0.01,0.01 0,0 -0.01,0.01 -0.01,0 0,0.01 -0.01,0.01 -0.01,0.01 0,0 -0.01,0.01 -0.01,0.01 -0.01,0.01 c -1.24,1.25 -1.56,3.13 -1.56,4.65 0,1.73 0.38,3.47 1.6,4.71 0.13,0.12 0.13,0.14 0.13,0.17 0,0.07 -0.04,0.1 -0.1,0.1 -0.1,0 -0.99,-0.68 -1.58,-1.94 -0.51,-1.1 -0.63,-2.2 -0.63,-3.04 0,-0.77 0.11,-1.98 0.66,-3.1 0.6,-1.23 1.45,-1.87 1.55,-1.87 0.06,0 0.1,0.03 0.1,0.1 z"
   id="path49228" />
<path
   style="fill:#000000;stroke-width:0"
   inkscape:connector-curvature="0"
   d="m 408.43,709.47 0,0.08 0,0.07 0,0.07 -0.01,0.06 -0.01,0.14 -0.02,0.12 -0.02,0.12 -0.03,0.11 -0.03,0.11 -0.03,0.1 -0.04,0.1 -0.04,0.09 -0.05,0.09 -0.05,0.08 -0.05,0.08 -0.06,0.07 -0.05,0.06 -0.06,0.06 -0.06,0.06 -0.07,0.05 -0.06,0.05 -0.07,0.05 -0.07,0.04 -0.07,0.03 -0.07,0.04 -0.07,0.02 -0.07,0.03 -0.07,0.02 -0.08,0.02 -0.07,0.01 -0.07,0.01 -0.07,0.01 -0.07,0 -0.07,0 c -1.37,0 -2.68,-1.42 -2.68,-2.82 0,-0.93 0.59,-1.68 1.61,-1.68 l 0.02,0.21 c -0.6,0 -0.9,0.45 -0.9,1.09 0,0.49 0.26,1.56 0.58,2.07 0.47,0.73 1.01,0.91 1.36,0.91 0.98,0 0.98,-1.3 0.98,-2.08 0,-0.36 0,-0.94 0.03,-1.11 h 0 c -0.88,-0.77 -1.65,-0.88 -2.05,-0.88 l -0.02,-0.21 c 0.63,0 1.35,0.22 2.1,0.83 0.13,-0.53 0.46,-0.83 0.91,-0.83 0.53,0 0.84,0.54 0.84,0.7 0,0.07 -0.06,0.1 -0.12,0.1 -0.07,0 -0.1,-0.03 -0.13,-0.1 -0.18,-0.49 -0.54,-0.49 -0.56,-0.49 -0.31,0 -0.31,0.78 -0.31,1.02 0,0.21 0,0.23 0.1,0.35 0.94,1.17 1.15,2.33 1.15,2.34 0,0.02 -0.01,0.1 -0.12,0.1 -0.1,0 -0.1,-0.03 -0.15,-0.21 -0.18,-0.63 -0.51,-1.39 -0.98,-1.97 z"
   id="path49230" />
<path
   style="fill:#000000;stroke-width:0"
   inkscape:connector-curvature="0"
   d="m 412.97,709.61 0,0.08 0,0.07 0,0.08 -0.01,0.08 0,0.17 -0.02,0.18 -0.01,0.18 -0.02,0.19 -0.03,0.2 -0.03,0.19 -0.04,0.21 -0.05,0.21 -0.05,0.21 -0.06,0.21 -0.07,0.21 -0.08,0.21 -0.05,0.11 -0.04,0.11 -0.05,0.1 -0.05,0.11 c -0.6,1.22 -1.45,1.87 -1.55,1.87 -0.06,0 -0.1,-0.04 -0.1,-0.1 0,-0.03 0,-0.05 0.19,-0.23 0.97,-0.98 1.54,-2.57 1.54,-4.65 0,-1.7 -0.37,-3.45 -1.6,-4.7 -0.13,-0.12 -0.13,-0.14 -0.13,-0.17 0,-0.06 0.04,-0.1 0.1,-0.1 0.1,0 0.99,0.67 1.58,1.94 0.51,1.09 0.63,2.2 0.63,3.03 z"
   id="path49232" />
</g>    <g
       ns0:preamble=""
       ns0:text="$$v_0\\cos(\\alpha)$$\n"
       word-spacing="normal"
       letter-spacing="normal"
       font-size-adjust="none"
       font-stretch="normal"
       font-weight="normal"
       font-variant="normal"
       font-style="normal"
       stroke-miterlimit="10.433"
       xml:space="preserve"
       transform="matrix(1.5080897,0,0,-1.5080897,-386.20138,2044.9567)"
       id="g49454"
       style="font-style:normal;font-variant:normal;font-weight:normal;font-stretch:normal;letter-spacing:normal;word-spacing:normal;text-anchor:start;fill:none;stroke:#000000;stroke-linecap:butt;stroke-linejoin:miter;stroke-miterlimit:10.43299961;stroke-opacity:1;stroke-dasharray:none;stroke-dashoffset:0">
<path
   id="path49456"
   d="m 380.72,710.83 0,0.02 0,0.03 0,0.02 0,0.02 0,0.03 0,0.02 0,0.02 -0.01,0.02 0,0.04 -0.01,0.04 -0.01,0.04 -0.01,0.03 -0.01,0.04 -0.01,0.03 -0.01,0.03 -0.02,0.02 -0.01,0.03 -0.02,0.02 -0.01,0.03 -0.02,0.02 -0.01,0.02 -0.02,0.01 -0.02,0.02 -0.02,0.02 -0.01,0.01 -0.02,0.01 -0.02,0.01 -0.02,0.01 -0.02,0.01 -0.02,0.01 -0.02,0 -0.01,0.01 -0.02,0 -0.02,0 -0.02,0 -0.01,0 c -0.25,0 -0.49,-0.25 -0.49,-0.47 0,-0.13 0.05,-0.19 0.16,-0.3 0.21,-0.2 0.34,-0.46 0.34,-0.82 0,-0.42 -0.61,-2.7 -1.78,-2.7 -0.51,0 -0.74,0.35 -0.74,0.87 0,0.56 0.27,1.28 0.58,2.11 0.07,0.17 0.12,0.31 0.12,0.5 0,0.45 -0.32,0.81 -0.82,0.81 -0.93,0 -1.31,-1.44 -1.31,-1.53 0,-0.1 0.1,-0.1 0.12,-0.1 0.1,0 0.11,0.02 0.16,0.18 0.29,1.01 0.72,1.23 1,1.23 0.08,0 0.25,0 0.25,-0.31 0,-0.25 -0.1,-0.52 -0.17,-0.7 -0.44,-1.15 -0.56,-1.61 -0.56,-2.04 0,-1.08 0.87,-1.23 1.33,-1.23 1.68,0 2.24,3.29 2.24,3.81 z"
   inkscape:connector-curvature="0"
   style="fill:#000000;stroke-width:0" />
<path
   id="path49458"
   d="m 384.48,707.85 0,0.14 0,0.14 -0.01,0.13 -0.01,0.12 -0.01,0.13 -0.01,0.12 -0.02,0.11 -0.02,0.11 -0.03,0.11 -0.03,0.11 -0.03,0.1 -0.04,0.1 -0.04,0.1 -0.05,0.09 -0.05,0.1 -0.03,0.04 -0.03,0.05 c -0.21,0.32 -0.65,0.6 -1.2,0.6 v -0.2 c 0.37,0 0.74,-0.23 0.86,-0.63 0.11,-0.38 0.12,-0.88 0.12,-1.48 0,-0.52 0,-1.03 -0.09,-1.47 -0.14,-0.63 -0.62,-0.78 -0.89,-0.78 h 0 c -0.32,0 -0.75,0.18 -0.89,0.75 -0.09,0.41 -0.09,0.98 -0.09,1.5 0,0.51 0,1.04 0.1,1.42 0.15,0.55 0.59,0.69 0.88,0.69 v 0.2 c -1.62,0 -1.62,-1.9 -1.62,-2.4 0,-0.5 0,-2.36 1.62,-2.36 1.61,0 1.61,1.86 1.61,2.36 z"
   inkscape:connector-curvature="0"
   style="fill:#000000;stroke-width:0" />
<path
   id="path49460"
   d="m 388.18,709.29 0,0.08 0.01,0.07 0,0.08 0,0.07 0.01,0.06 0,0.07 0.01,0.07 0.01,0.06 0.01,0.06 0.01,0.06 0.01,0.06 0.01,0.06 0.03,0.1 0.03,0.11 0.03,0.1 0.04,0.09 0.04,0.08 0.04,0.08 0.04,0.08 0.05,0.07 0.05,0.06 0.05,0.06 0.05,0.06 0.05,0.05 0.06,0.05 0.05,0.04 0.06,0.03 0.05,0.04 0.06,0.03 0.06,0.02 0.05,0.03 0.06,0.02 0.06,0.01 0.05,0.01 0.05,0.01 0.06,0.01 0.05,0 0.05,0.01 c 0.09,0 0.72,-0.01 1.07,-0.37 -0.41,-0.03 -0.47,-0.33 -0.47,-0.46 0,-0.26 0.18,-0.46 0.46,-0.46 0.26,0 0.46,0.17 0.46,0.47 0,0.68 -0.76,1.06 -1.53,1.06 -1.25,0 -2.16,-1.07 -2.16,-2.3 0,-1.28 0.98,-2.26 2.14,-2.26 1.34,0 1.65,1.19 1.65,1.29 0,0.1 -0.1,0.1 -0.13,0.1 -0.08,0 -0.1,-0.04 -0.12,-0.1 -0.29,-0.93 -0.94,-1.05 -1.31,-1.05 -0.53,0 -1.41,0.43 -1.41,2.03 z"
   inkscape:connector-curvature="0"
   style="fill:#000000;stroke-width:0" />
<path
   id="path49462"
   d="m 396.14,709.26 0,0.11 -0.01,0.12 -0.02,0.12 -0.02,0.11 -0.02,0.11 -0.03,0.11 -0.03,0.11 -0.04,0.11 -0.05,0.1 -0.05,0.1 -0.05,0.1 -0.06,0.09 -0.06,0.09 -0.07,0.09 -0.07,0.09 -0.07,0.08 -0.08,0.07 -0.08,0.08 -0.08,0.07 -0.09,0.06 -0.08,0.06 -0.1,0.06 -0.09,0.05 -0.1,0.05 -0.1,0.04 -0.1,0.04 -0.11,0.03 -0.1,0.03 -0.11,0.02 -0.11,0.01 -0.11,0.01 -0.11,0 -0.01,-0.22 c 0.44,0 0.87,-0.21 1.12,-0.64 0.26,-0.43 0.26,-1.01 0.26,-1.39 0,-0.35 0,-0.89 -0.22,-1.33 -0.22,-0.45 -0.65,-0.74 -1.15,-0.74 h 0 c -0.43,0 -0.87,0.21 -1.14,0.67 -0.25,0.44 -0.25,1.05 -0.25,1.4 0,0.39 0,0.93 0.24,1.37 0.27,0.46 0.74,0.66 1.14,0.66 l 0.01,0.22 c -1.25,0 -2.22,-1.08 -2.22,-2.32 0,-1.29 1.04,-2.24 2.21,-2.24 1.2,0 2.21,0.97 2.21,2.24 z"
   inkscape:connector-curvature="0"
   style="fill:#000000;stroke-width:0" />
<path
   id="path49464"
   d="m 398.5,709.06 0.02,-0.01 0.03,0 0.03,-0.01 0.03,-0.01 0.03,0 0.04,-0.01 0.03,-0.01 0.04,-0.01 0.05,-0.02 0.04,-0.01 0.04,-0.02 0.04,-0.01 0.05,-0.02 0.04,-0.02 0.05,-0.02 0.04,-0.03 0.04,-0.02 0.05,-0.03 0.04,-0.03 0.04,-0.04 0.03,-0.03 0.04,-0.04 0.03,-0.04 0.04,-0.04 0.02,-0.04 0.02,-0.03 0.01,-0.02 0.01,-0.03 0.01,-0.02 0.01,-0.03 0.01,-0.03 0.01,-0.02 0.01,-0.03 0,-0.03 0.01,-0.03 0,-0.03 0,-0.03 0.01,-0.04 0,-0.03 c 0,-0.51 -0.35,-0.91 -1.13,-0.91 -0.84,0 -1.2,0.57 -1.39,1.42 -0.03,0.13 -0.04,0.17 -0.13,0.17 -0.13,0 -0.13,-0.07 -0.13,-0.25 v -1.32 c 0,-0.16 0,-0.23 0.1,-0.23 0.06,0 0.06,0.01 0.25,0.2 0.02,0.01 0.02,0.03 0.2,0.22 0.44,-0.41 0.89,-0.42 1.1,-0.42 1.15,0 1.61,0.66 1.61,1.38 0,0.53 -0.3,0.82 -0.42,0.94 -0.33,0.32 -0.72,0.4 -1.14,0.48 -0.56,0.11 -1.23,0.24 -1.23,0.82 0,0.35 0.26,0.76 1.12,0.76 1.1,0 1.15,-0.9 1.17,-1.21 0.01,-0.09 0.1,-0.09 0.12,-0.09 0.13,0 0.13,0.05 0.13,0.24 v 1 c 0,0.17 0,0.24 -0.11,0.24 -0.05,0 -0.07,0 -0.2,-0.12 -0.03,-0.04 -0.13,-0.12 -0.17,-0.16 -0.38,0.28 -0.79,0.28 -0.94,0.28 -1.22,0 -1.59,-0.66 -1.59,-1.22 0,-0.35 0.16,-0.63 0.42,-0.85 0.32,-0.25 0.6,-0.31 1.32,-0.45 z"
   inkscape:connector-curvature="0"
   style="fill:#000000;stroke-width:0" />
<path
   id="path49466"
   d="m 403.65,704.74 0,0 0,0.01 0,0 0,0 0,0.01 0,0 0,0 0,0.01 0,0 0,0 -0.01,0.01 0,0 0,0.01 -0.01,0 0,0.01 -0.01,0.01 0,0 -0.01,0.01 0,0 0,0.01 -0.01,0 0,0.01 0,0 -0.01,0 0,0.01 -0.01,0 0,0.01 -0.01,0 0,0.01 -0.01,0 0,0.01 -0.01,0.01 0,0 -0.01,0.01 0,0 -0.01,0.01 -0.01,0.01 0,0.01 -0.01,0 -0.01,0.01 -0.01,0.01 0,0.01 c -1.25,1.25 -1.57,3.13 -1.57,4.65 0,1.73 0.38,3.47 1.61,4.71 0.12,0.12 0.12,0.14 0.12,0.17 0,0.07 -0.03,0.1 -0.09,0.1 -0.1,0 -1,-0.68 -1.59,-1.94 -0.51,-1.1 -0.63,-2.2 -0.63,-3.04 0,-0.77 0.11,-1.98 0.66,-3.1 0.6,-1.23 1.46,-1.87 1.56,-1.87 0.06,0 0.09,0.03 0.09,0.1 z"
   inkscape:connector-curvature="0"
   style="fill:#000000;stroke-width:0" />
<path
   id="path49468"
   d="m 408.99,709.47 0,0.08 -0.01,0.07 0,0.07 0,0.06 -0.02,0.14 -0.01,0.12 -0.03,0.12 -0.02,0.11 -0.03,0.11 -0.04,0.1 -0.04,0.1 -0.04,0.09 -0.05,0.09 -0.05,0.08 -0.05,0.08 -0.05,0.07 -0.06,0.06 -0.06,0.06 -0.06,0.06 -0.06,0.05 -0.07,0.05 -0.07,0.05 -0.07,0.04 -0.06,0.03 -0.08,0.04 -0.07,0.02 -0.07,0.03 -0.07,0.02 -0.07,0.02 -0.07,0.01 -0.08,0.01 -0.07,0.01 -0.07,0 -0.07,0 c -1.36,0 -2.68,-1.42 -2.68,-2.82 0,-0.93 0.6,-1.68 1.62,-1.68 l 0.01,0.21 c -0.59,0 -0.89,0.45 -0.89,1.09 0,0.49 0.26,1.56 0.58,2.07 0.46,0.73 1,0.91 1.35,0.91 0.99,0 0.99,-1.3 0.99,-2.08 0,-0.36 0,-0.94 0.02,-1.11 h 0 c -0.88,-0.77 -1.65,-0.88 -2.05,-0.88 l -0.01,-0.21 c 0.62,0 1.34,0.22 2.1,0.83 0.13,-0.53 0.46,-0.83 0.91,-0.83 0.52,0 0.83,0.54 0.83,0.7 0,0.07 -0.06,0.1 -0.12,0.1 -0.07,0 -0.1,-0.03 -0.13,-0.1 -0.18,-0.49 -0.53,-0.49 -0.55,-0.49 -0.31,0 -0.31,0.78 -0.31,1.02 0,0.21 0,0.23 0.1,0.35 0.93,1.17 1.14,2.33 1.14,2.34 0,0.02 -0.01,0.1 -0.12,0.1 -0.1,0 -0.1,-0.03 -0.15,-0.21 -0.18,-0.63 -0.51,-1.39 -0.97,-1.97 z"
   inkscape:connector-curvature="0"
   style="fill:#000000;stroke-width:0" />
<path
   id="path49470"
   d="m 413.52,709.61 0,0.08 0,0.07 0,0.08 0,0.08 -0.01,0.17 -0.01,0.18 -0.02,0.18 -0.02,0.19 -0.03,0.2 -0.03,0.19 -0.04,0.21 -0.05,0.21 -0.05,0.21 -0.06,0.21 -0.07,0.21 -0.08,0.21 -0.04,0.11 -0.05,0.11 -0.04,0.1 -0.06,0.11 c -0.59,1.22 -1.45,1.87 -1.55,1.87 -0.06,0 -0.1,-0.04 -0.1,-0.1 0,-0.03 0,-0.05 0.19,-0.23 0.98,-0.98 1.55,-2.57 1.55,-4.65 0,-1.7 -0.37,-3.45 -1.61,-4.7 -0.13,-0.12 -0.13,-0.14 -0.13,-0.17 0,-0.06 0.04,-0.1 0.1,-0.1 0.1,0 1,0.67 1.58,1.94 0.51,1.09 0.63,2.2 0.63,3.03 z"
   inkscape:connector-curvature="0"
   style="fill:#000000;stroke-width:0" />
</g>  </g>
</svg>
