<?xml version="1.0" encoding="UTF-8" standalone="no"?>
<!-- Created with Inkscape (http://www.inkscape.org/) -->

<svg
   xmlns:ns1="http://www.iki.fi/pav/software/textext/"
   xmlns:dc="http://purl.org/dc/elements/1.1/"
   xmlns:cc="http://creativecommons.org/ns#"
   xmlns:rdf="http://www.w3.org/1999/02/22-rdf-syntax-ns#"
   xmlns:svg="http://www.w3.org/2000/svg"
   xmlns="http://www.w3.org/2000/svg"
   xmlns:sodipodi="http://sodipodi.sourceforge.net/DTD/sodipodi-0.dtd"
   xmlns:inkscape="http://www.inkscape.org/namespaces/inkscape"
   width="82mm"
   height="40mm"
   viewBox="0 0 82 40"
   version="1.1"
   id="svg3451"
   inkscape:version="0.92.4 (5da689c313, 2019-01-14)"
   sodipodi:docname="fyz_fig913.svg">
  <defs
     id="defs3445" />
  <sodipodi:namedview
     id="base"
     pagecolor="#ffffff"
     bordercolor="#666666"
     borderopacity="1.0"
     inkscape:pageopacity="0.0"
     inkscape:pageshadow="2"
     inkscape:zoom="3.959798"
     inkscape:cx="250.3392"
     inkscape:cy="82.409787"
     inkscape:document-units="mm"
     inkscape:current-layer="layer1"
     showgrid="false"
     inkscape:window-width="3696"
     inkscape:window-height="2115"
     inkscape:window-x="131"
     inkscape:window-y="-13"
     inkscape:window-maximized="1" />
  <metadata
     id="metadata3448">
    <rdf:RDF>
      <cc:Work
         rdf:about="">
        <dc:format>image/svg+xml</dc:format>
        <dc:type
           rdf:resource="http://purl.org/dc/dcmitype/StillImage" />
        <dc:title />
      </cc:Work>
    </rdf:RDF>
  </metadata>
  <g
     inkscape:label="Layer 1"
     inkscape:groupmode="layer"
     id="layer1"
     transform="translate(0,-257)">
    <path
       d="m 18.422625,258.22376 v 31.75035 m 12.49433,-31.75035 v 31.75035 m 12.49433,-31.75035 v 31.75035 m 12.49398,-31.75035 v 31.75035 m 12.49433,-31.75035 v 31.75035 M 5.9286574,264.57376 H 80.893575 M 5.9286574,270.92411 H 80.893575 m -74.9649176,6.35 H 80.893575 m -74.9649176,6.35 H 80.893575 m -74.9649176,6.35 H 80.893925 v -31.75 H 5.9286574 Z"
       style="fill:none;stroke:#b3b3b3;stroke-width:0.17638887;stroke-linecap:butt;stroke-linejoin:miter;stroke-miterlimit:4;stroke-dasharray:none;stroke-opacity:1"
       id="path301"
       inkscape:connector-curvature="0" />
    <path
       d="m 5.9925074,286.71092 c 9.7179676,0 41.9057576,0 49.8259776,0 9.0237,0 12.3631,-6.74688 12.3631,-17.38525 v -11.10191"
       style="fill:none;stroke:#ffffff;stroke-width:0.3175;stroke-linecap:butt;stroke-linejoin:miter;stroke-miterlimit:4;stroke-dasharray:none;stroke-opacity:1"
       id="path303"
       inkscape:connector-curvature="0" />
    <path
       d="m 5.9925074,286.71092 c 9.7179676,0 41.9057576,0 49.8259776,0 9.0237,0 12.3631,-6.74688 12.3631,-17.38525 v -11.10191"
       style="fill:none;stroke:#5fb851;stroke-width:0.52916664;stroke-linecap:butt;stroke-linejoin:miter;stroke-miterlimit:4;stroke-dasharray:none;stroke-opacity:1"
       id="path305"
       inkscape:connector-curvature="0" />
    <path
       d="m 5.9286574,258.22376 v 31.75035 H 80.893575"
       style="fill:none;stroke:#000000;stroke-width:0.17638887;stroke-linecap:butt;stroke-linejoin:miter;stroke-miterlimit:4;stroke-dasharray:none;stroke-opacity:1"
       id="path307"
       inkscape:connector-curvature="0" />
    <text
       y="292.70792"
       x="3.756268"
       style="font-variant:normal;font-weight:normal;font-size:2.95225596px;font-family:TorontoPlain;-inkscape-font-specification:TorontoPlain;writing-mode:lr-tb;fill:#000000;fill-opacity:1;fill-rule:nonzero;stroke:none;stroke-width:0.35277775"
       id="text329">
      <tspan
         style="stroke-width:0.35277775"
         x="3.756268"
         y="292.70792"
         id="tspan315">0</tspan>
      <tspan
         style="stroke-width:0.35277775"
         x="3.756268"
         y="284.59393"
         id="tspan317">2</tspan>
      <tspan
         style="stroke-width:0.35277775"
         x="3.756268"
         y="278.24393"
         id="tspan319">4</tspan>
      <tspan
         style="stroke-width:0.35277775"
         x="3.756268"
         y="271.89392"
         id="tspan321">6</tspan>
      <tspan
         style="stroke-width:0.35277775"
         x="3.756268"
         y="265.54391"
         id="tspan323">8</tspan>
      <tspan
         style="stroke-width:0.35277775"
         x="2.2892871 3.7710381"
         y="259.19376"
         sodipodi:role="line"
         id="tspan325">10</tspan>
      <tspan
         style="stroke-width:0.35277775"
         x="16.589443"
         y="292.70764"
         id="tspan327">0</tspan>
    </text>
    <text
       y="292.70764"
       x="18.071194"
       style="font-style:italic;font-variant:normal;font-weight:normal;font-size:2.95225596px;font-family:'MT Extra';-inkscape-font-specification:MTMI;writing-mode:lr-tb;fill:#000000;fill-opacity:1;fill-rule:nonzero;stroke:none;stroke-width:0.35277775"
       id="text333">
      <tspan
         style="stroke-width:0.35277775"
         x="18.071194"
         y="292.70764"
         id="tspan331">,</tspan>
    </text>
    <text
       y="292.70764"
       x="19.044827"
       style="font-variant:normal;font-weight:normal;font-size:2.95225596px;font-family:TorontoPlain;-inkscape-font-specification:TorontoPlain;writing-mode:lr-tb;fill:#000000;fill-opacity:1;fill-rule:nonzero;stroke:none;stroke-width:0.35277775"
       id="text337">
      <tspan
         style="stroke-width:0.35277775"
         x="19.044827 29.083706"
         y="292.70764"
         sodipodi:role="line"
         id="tspan335">20</tspan>
    </text>
    <text
       y="292.70764"
       x="30.565395"
       style="font-style:italic;font-variant:normal;font-weight:normal;font-size:2.95225596px;font-family:'MT Extra';-inkscape-font-specification:MTMI;writing-mode:lr-tb;fill:#000000;fill-opacity:1;fill-rule:nonzero;stroke:none;stroke-width:0.35277775"
       id="text341">
      <tspan
         style="stroke-width:0.35277775"
         x="30.565395"
         y="292.70764"
         id="tspan339">,</tspan>
    </text>
    <text
       y="292.70764"
       x="31.539089"
       style="font-variant:normal;font-weight:normal;font-size:2.95225596px;font-family:TorontoPlain;-inkscape-font-specification:TorontoPlain;writing-mode:lr-tb;fill:#000000;fill-opacity:1;fill-rule:nonzero;stroke:none;stroke-width:0.35277775"
       id="text345">
      <tspan
         style="stroke-width:0.35277775"
         x="31.539089 41.577908"
         y="292.70764"
         sodipodi:role="line"
         id="tspan343">40</tspan>
    </text>
    <text
       y="292.70764"
       x="43.059658"
       style="font-style:italic;font-variant:normal;font-weight:normal;font-size:2.95225596px;font-family:'MT Extra';-inkscape-font-specification:MTMI;writing-mode:lr-tb;fill:#000000;fill-opacity:1;fill-rule:nonzero;stroke:none;stroke-width:0.35277775"
       id="text349">
      <tspan
         style="stroke-width:0.35277775"
         x="43.059658"
         y="292.70764"
         id="tspan347">,</tspan>
    </text>
    <text
       y="292.70764"
       x="44.033291"
       style="font-variant:normal;font-weight:normal;font-size:2.95225596px;font-family:TorontoPlain;-inkscape-font-specification:TorontoPlain;writing-mode:lr-tb;fill:#000000;fill-opacity:1;fill-rule:nonzero;stroke:none;stroke-width:0.35277775"
       id="text353">
      <tspan
         style="stroke-width:0.35277775"
         x="44.033291 54.072174"
         y="292.70764"
         sodipodi:role="line"
         id="tspan351">60</tspan>
    </text>
    <text
       y="292.70764"
       x="55.553925"
       style="font-style:italic;font-variant:normal;font-weight:normal;font-size:2.95225596px;font-family:'MT Extra';-inkscape-font-specification:MTMI;writing-mode:lr-tb;fill:#000000;fill-opacity:1;fill-rule:nonzero;stroke:none;stroke-width:0.35277775"
       id="text357">
      <tspan
         style="stroke-width:0.35277775"
         x="55.553925"
         y="292.70764"
         id="tspan355">,</tspan>
    </text>
    <text
       y="292.70764"
       x="56.527557"
       style="font-variant:normal;font-weight:normal;font-size:2.95225596px;font-family:TorontoPlain;-inkscape-font-specification:TorontoPlain;writing-mode:lr-tb;fill:#000000;fill-opacity:1;fill-rule:nonzero;stroke:none;stroke-width:0.35277775"
       id="text361">
      <tspan
         style="stroke-width:0.35277775"
         x="56.527557 66.566437"
         y="292.70764"
         sodipodi:role="line"
         id="tspan359">81</tspan>
    </text>
    <text
       y="292.70764"
       x="68.048126"
       style="font-style:italic;font-variant:normal;font-weight:normal;font-size:2.95225596px;font-family:'MT Extra';-inkscape-font-specification:MTMI;writing-mode:lr-tb;fill:#000000;fill-opacity:1;fill-rule:nonzero;stroke:none;stroke-width:0.35277775"
       id="text365">
      <tspan
         style="stroke-width:0.35277775"
         x="68.048126"
         y="292.70764"
         id="tspan363">,</tspan>
    </text>
    <text
       y="292.70764"
       x="69.02182"
       style="font-variant:normal;font-weight:normal;font-size:2.95225596px;font-family:TorontoPlain;-inkscape-font-specification:TorontoPlain;writing-mode:lr-tb;fill:#000000;fill-opacity:1;fill-rule:nonzero;stroke:none;stroke-width:0.35277775"
       id="text369">
      <tspan
         style="stroke-width:0.35277775"
         x="69.02182"
         y="292.70764"
         id="tspan367">0</tspan>
    </text>
    <g
       id="g3626"
       ns1:jacobian_sqrt="0.352778"
       inkscapeversion="0.92.4"
       ns1:alignment="middle center"
       ns1:scale="1.00000025515"
       ns1:preamble="C:\\Users\\HP\\AppData\\Roaming\\inkscape\\extensions\\textext\\default_packages.tex"
       ns1:text="\\(\\gamma\\)"
       ns1:pdfconverter="pdf2svg"
       ns1:texconverter="pdflatex"
       ns1:version="0.10.2"
       transform="matrix(0.52456214,0,0,0.52456214,-77.511204,204.06947)">
      <g
         id="g3624">
        <g
           id="g3622"
           style="fill:#000000;fill-opacity:1">
          <path
             id="path3620"
             transform="translate(148.712,134.765)"
             d="M 0.40625,-2.53125 C 0.796875,-3.671875 1.890625,-3.6875 2,-3.6875 c 1.5,0 1.609375,1.75 1.609375,2.53125 0,0.609375 -0.046875,0.78125 -0.125,0.984375 -0.21875,0.71875 -0.515625,1.875 -0.515625,2.140625 0,0.109375 0.046875,0.171875 0.125,0.171875 0.140625,0 0.21875,-0.21875 0.328125,-0.59375 C 3.65625,0.703125 3.75,0.140625 3.78125,-0.171875 c 0.03125,-0.125 0.046875,-0.25 0.09375,-0.390625 0.3125,-0.984375 0.953125,-2.46875 1.34375,-3.25 0.078125,-0.125 0.1875,-0.34375 0.1875,-0.390625 0,-0.09375 -0.09375,-0.09375 -0.109375,-0.09375 -0.03125,0 -0.09375,0 -0.125,0.0625 C 4.65625,-3.28125 4.25,-2.28125 3.859375,-1.28125 3.84375,-1.578125 3.84375,-2.34375 3.453125,-3.3125 3.203125,-3.921875 2.8125,-4.40625 2.125,-4.40625 c -1.25,0 -1.953125,1.515625 -1.953125,1.828125 0,0.09375 0.09375,0.09375 0.203125,0.09375 z m 0,0"
             style="stroke:none;stroke-width:0"
             inkscape:connector-curvature="0" />
        </g>
      </g>
    </g>
    <g
       id="g3678"
       ns1:jacobian_sqrt="0.524562"
       inkscapeversion="0.92.4"
       ns1:alignment="middle center"
       ns1:scale="1.48694724116"
       ns1:preamble="C:\\Users\\HP\\AppData\\Roaming\\inkscape\\extensions\\textext\\default_packages.tex"
       ns1:text="\\(\\beta\\)"
       ns1:pdfconverter="pdf2svg"
       ns1:texconverter="pdflatex"
       ns1:version="0.10.2"
       transform="matrix(0.524562,0.000000,0.000000,0.524562,-30.621148,224.905092)">
      <g
         id="surface1">
        <g
           id="g3675"
           style="fill:rgb(0%,0%,0%);fill-opacity:1;">
          <path
             id="path3673"
             transform="translate(148.712,134.765)"
             d="M 5.734375 -5.671875 C 5.734375 -6.421875 5.1875 -7.03125 4.375 -7.03125 C 3.796875 -7.03125 3.515625 -6.875 3.171875 -6.625 C 2.625 -6.21875 2.078125 -5.25 1.890625 -4.5 L 0.296875 1.828125 C 0.296875 1.875 0.34375 1.9375 0.421875 1.9375 C 0.5 1.9375 0.53125 1.90625 0.53125 1.890625 L 1.234375 -0.875 C 1.421875 -0.265625 1.859375 0.09375 2.59375 0.09375 C 3.3125 0.09375 4.0625 -0.25 4.515625 -0.6875 C 5 -1.140625 5.3125 -1.78125 5.3125 -2.515625 C 5.3125 -3.234375 4.9375 -3.765625 4.578125 -4 C 5.15625 -4.34375 5.734375 -4.953125 5.734375 -5.671875 Z M 3.9375 -4.015625 C 3.8125 -3.96875 3.703125 -3.953125 3.453125 -3.953125 C 3.3125 -3.953125 3.125 -3.9375 3.015625 -3.984375 C 3.046875 -4.09375 3.40625 -4.0625 3.515625 -4.0625 C 3.71875 -4.0625 3.8125 -4.0625 3.9375 -4.015625 Z M 5.171875 -5.90625 C 5.171875 -5.203125 4.796875 -4.484375 4.28125 -4.171875 C 4 -4.28125 3.8125 -4.296875 3.515625 -4.296875 C 3.296875 -4.296875 2.734375 -4.3125 2.734375 -3.984375 C 2.734375 -3.703125 3.25 -3.734375 3.421875 -3.734375 C 3.796875 -3.734375 3.953125 -3.734375 4.25 -3.859375 C 4.625 -3.5 4.671875 -3.1875 4.6875 -2.734375 C 4.703125 -2.15625 4.46875 -1.40625 4.1875 -1.015625 C 3.796875 -0.484375 3.125 -0.125 2.5625 -0.125 C 1.796875 -0.125 1.421875 -0.703125 1.421875 -1.40625 C 1.421875 -1.5 1.421875 -1.65625 1.46875 -1.84375 L 2.109375 -4.359375 C 2.328125 -5.21875 3.046875 -6.8125 4.25 -6.8125 C 4.828125 -6.8125 5.171875 -6.5 5.171875 -5.90625 Z M 5.171875 -5.90625 "
             style="stroke:none;stroke-width:0" />
        </g>
      </g>
    </g>
  </g>
</svg>
