<?xml version="1.0" encoding="UTF-8" standalone="no"?>
<!-- Created with Inkscape (http://www.inkscape.org/) -->

<svg
   xmlns:ns0="http://www.iki.fi/pav/software/textext/"
   xmlns:dc="http://purl.org/dc/elements/1.1/"
   xmlns:cc="http://creativecommons.org/ns#"
   xmlns:rdf="http://www.w3.org/1999/02/22-rdf-syntax-ns#"
   xmlns:svg="http://www.w3.org/2000/svg"
   xmlns="http://www.w3.org/2000/svg"
   xmlns:xlink="http://www.w3.org/1999/xlink"
   xmlns:sodipodi="http://sodipodi.sourceforge.net/DTD/sodipodi-0.dtd"
   xmlns:inkscape="http://www.inkscape.org/namespaces/inkscape"
   width="340"
   height="340"
   id="svg2"
   inkscape:label="Pozadí"
   version="1.1"
   inkscape:version="0.48.0 r9654"
   sodipodi:docname="fey_tepelny_tok_ploskou.svg">
  <sodipodi:namedview
     id="base"
     pagecolor="#ffffff"
     bordercolor="#666666"
     borderopacity="1.0"
     inkscape:pageopacity="0.0"
     inkscape:pageshadow="2"
     inkscape:zoom="0.98994949"
     inkscape:cx="-276.08008"
     inkscape:cy="-60.888087"
     inkscape:document-units="px"
     inkscape:current-layer="layer1"
     showgrid="false"
     inkscape:window-width="1917"
     inkscape:window-height="1125"
     inkscape:window-x="-9"
     inkscape:window-y="-9"
     inkscape:window-maximized="1" />
  <defs
     id="defs11626">
    <clipPath
       id="clipPath6205"
       clipPathUnits="userSpaceOnUse">
      <path
         id="path6207"
         d="m 0,0 262.44,0 0,465.43 L 0,465.43 0,0 z"
         inkscape:connector-curvature="0" />
    </clipPath>
    <clipPath
       id="clipPath6187"
       clipPathUnits="userSpaceOnUse">
      <path
         id="path6189"
         d="m 0,0 465.43,0 0,289.48 L 0,289.48 0,0 z"
         inkscape:connector-curvature="0" />
    </clipPath>
    <clipPath
       id="clipPath6157"
       clipPathUnits="userSpaceOnUse">
      <path
         id="path6159"
         clip-rule="evenodd"
         d="m 225.6,5287.2 18.6,0 0,18 -18.6,0 0,-18 z"
         inkscape:connector-curvature="0" />
    </clipPath>
    <linearGradient
       id="linearGradient6161"
       spreadMethod="pad"
       gradientUnits="userSpaceOnUse"
       y2="5305.8599"
       x2="234.87"
       y1="5267.4102"
       x1="234.87">
      <stop
         id="stop6163"
         offset="0"
         style="stop-opacity:1;stop-color:#ffffff" />
      <stop
         id="stop6165"
         offset="0.25"
         style="stop-opacity:1;stop-color:#927aad" />
      <stop
         id="stop6167"
         offset="0.5"
         style="stop-opacity:1;stop-color:#ffffff" />
      <stop
         id="stop6169"
         offset="0.75"
         style="stop-opacity:1;stop-color:#927aad" />
      <stop
         id="stop6171"
         offset="0.75"
         style="stop-opacity:1;stop-color:#927aad" />
      <stop
         id="stop6173"
         offset="1"
         style="stop-opacity:1;stop-color:#ffffff" />
    </linearGradient>
    <linearGradient
       inkscape:collect="always"
       xlink:href="#linearGradient6161"
       id="linearGradient12684"
       gradientUnits="userSpaceOnUse"
       spreadMethod="pad"
       x1="234.87"
       y1="5267.4102"
       x2="234.87"
       y2="5305.8599" />
  </defs>
  <metadata
     id="metadata11629">
    <rdf:RDF>
      <cc:Work
         rdf:about="">
        <dc:format>image/svg+xml</dc:format>
        <dc:type
           rdf:resource="http://purl.org/dc/dcmitype/StillImage" />
      </cc:Work>
    </rdf:RDF>
  </metadata>
  <g
     id="layer1"
     inkscape:groupmode="layer"
     inkscape:label="Vrstva 1"
     transform="translate(0,-712.36218)">
    <path
       id="path6133"
       style="fill:none;stroke:#000000;stroke-width:1.5;stroke-linecap:round;stroke-linejoin:round;stroke-miterlimit:10;stroke-opacity:1;stroke-dasharray:none"
       d="m 103.50569,752.51303 0,199.5 -79.500007,79.50007"
       inkscape:connector-curvature="0" />
    <path
       id="path6135"
       style="fill:#000000;fill-opacity:1;fill-rule:evenodd;stroke:none"
       d="m 99.005684,753.26303 4.500006,-13.5 4.5,13.5 -9.000006,0 z"
       inkscape:connector-curvature="0" />
    <path
       id="path6137"
       style="fill:#000000;fill-opacity:1;fill-rule:evenodd;stroke:none"
       d="m 27.755683,1033.7631 -12.75,6.75 6.75,-12.75 6,6 z"
       inkscape:connector-curvature="0" />
    <path
       id="path6139"
       style="fill:none;stroke:#000000;stroke-width:1.5;stroke-linecap:round;stroke-linejoin:round;stroke-miterlimit:10;stroke-opacity:1;stroke-dasharray:none"
       d="m 303.00569,952.01303 -199.5,0"
       inkscape:connector-curvature="0" />
    <path
       id="path6141"
       style="fill:#000000;fill-opacity:1;fill-rule:evenodd;stroke:none"
       d="m 302.25569,947.51303 13.5,4.5 -13.5,4.5 0,-9 z"
       inkscape:connector-curvature="0" />
    <path
       id="path6143"
       style="fill:none;stroke:#927aad;stroke-width:1.5;stroke-linecap:round;stroke-linejoin:round;stroke-miterlimit:10;stroke-opacity:1;stroke-dasharray:none"
       d="m 57.380683,812.31303 c 58.850007,0.3875 127.087507,-13.1125 169.875007,-47.8"
       inkscape:connector-curvature="0" />
    <path
       id="path6145"
       style="fill:none;stroke:#927aad;stroke-width:1.5;stroke-linecap:round;stroke-linejoin:round;stroke-miterlimit:10;stroke-opacity:1;stroke-dasharray:none"
       d="m 50.293183,859.11303 c 46.298514,-0.28479 84.336537,-25.1523 126.375007,-38.725 33.1625,-10.35 62.925,-19.35 103.8375,-20.625"
       inkscape:connector-curvature="0"
       sodipodi:nodetypes="ccc" />
    <path
       id="path6147"
       style="fill:none;stroke:#927aad;stroke-width:1.5;stroke-linecap:round;stroke-linejoin:round;stroke-miterlimit:10;stroke-opacity:1;stroke-dasharray:none"
       d="m 50.293183,913.51303 c 57.312507,12.275 83.425007,-18.8125 116.962507,-41 l -0.125,0.05 c 32.625,-21.6125 72.2,-34.6875 123.875,-27.05"
       inkscape:connector-curvature="0" />
    <path
       id="path6149"
       style="fill:none;stroke:#927aad;stroke-width:1.5;stroke-linecap:round;stroke-linejoin:round;stroke-miterlimit:10;stroke-opacity:1;stroke-dasharray:none"
       d="m 149.50569,1005.188 c 60.27771,-2.426 94.57632,-69.84623 149,-71.17497"
       inkscape:connector-curvature="0"
       sodipodi:nodetypes="cc" />
    <path
       id="path6151"
       style="fill:none;stroke:#927aad;stroke-width:1.5;stroke-linecap:round;stroke-linejoin:round;stroke-miterlimit:10;stroke-opacity:1;stroke-dasharray:none"
       d="m 50.293183,952.03803 c 33.414233,40.71676 95.642067,27.6051 132.712507,3.725 39.6207,-24.58642 70.00077,-63.11603 108,-75.75"
       inkscape:connector-curvature="0"
       sodipodi:nodetypes="ccc" />
    <g
       id="g6153"
       transform="matrix(1.25,0,0,-1.25,-116.24431,7525.7631)">
      <g
         clip-path="url(#clipPath6157)"
         id="g6155">
        <path
           id="path6175"
           style="fill:url(#linearGradient12684);fill-opacity:1;fill-rule:evenodd;stroke:none"
           d="m 225.21,5286.63 19.315,0 0,19.227 -19.315,0 0,-19.227 z"
           inkscape:connector-curvature="0" />
      </g>
    </g>
    <path
       id="path6177"
       style="fill:none;stroke:#927aad;stroke-width:1.5;stroke-linecap:round;stroke-linejoin:round;stroke-miterlimit:10;stroke-opacity:1;stroke-dasharray:none"
       d="m 179.25569,904.01303 38.25,-27.75"
       inkscape:connector-curvature="0" />
    <path
       id="path6179"
       style="fill:#927aad;fill-opacity:1;fill-rule:evenodd;stroke:none"
       d="m 213.75569,873.26303 13.5,-4.5 -8.25,12 -5.25,-7.5 z"
       inkscape:connector-curvature="0" />
    <g
       transform="matrix(0.433075,0,-2.375e-8,-0.269025,150.21819,935.75053)"
       id="g6181">
      <g
         transform="scale(0.1547,0.24872)"
         id="g6183">
        <g
           clip-path="url(#clipPath6187)"
           id="g6185">
          <text
             id="text6191"
             transform="matrix(1,0,0,-1,236.56,47.772)">
            <tspan
               id="tspan6193"
               y="0"
               x="0"
               style="font-size:290.16000366px;font-style:italic;font-variant:normal;font-weight:normal;writing-mode:lr-tb;fill:#000000;fill-opacity:1;fill-rule:nonzero;stroke:none;font-family:Times New Roman;-inkscape-font-specification:'Times New Roman, Italic'">S</tspan>
          </text>
          <text
             id="text6195"
             transform="matrix(1,0,0,-1,32.034,47.772)">
            <tspan
               id="tspan6197"
               y="0"
               x="0"
               style="font-size:290.16000366px;font-variant:normal;font-weight:normal;writing-mode:lr-tb;fill:#000000;fill-opacity:1;fill-rule:nonzero;stroke:none;font-family:SYMBOL;-inkscape-font-specification:SYMBOL"></tspan>
          </text>
        </g>
      </g>
    </g>
    <text
       id="text6217"
       x="63.04319"
       y="907.03802"
       style="font-size:15px">
      <tspan
         id="tspan6219"
         y="907.03802"
         x="63.04319"
         style="font-size:15.00030041px;font-variant:normal;font-weight:normal;writing-mode:lr-tb;fill:#000000;fill-opacity:1;fill-rule:nonzero;stroke:none;font-family:ARIAL;-inkscape-font-specification:ARIAL">T</tspan>
    </text>
    <text
       id="text6221"
       x="72.205681"
       y="909.11304"
       style="font-size:15px">
      <tspan
         id="tspan6223"
         y="909.11304"
         x="72.205681"
         style="font-size:9.74790001px;font-variant:normal;font-weight:normal;writing-mode:lr-tb;fill:#000000;fill-opacity:1;fill-rule:nonzero;stroke:none;font-family:ARIAL;-inkscape-font-specification:ARIAL">1</tspan>
    </text>
    <text
       id="text6225"
       x="270.98068"
       y="836.16302"
       style="font-size:15px">
      <tspan
         id="tspan6227"
         y="836.16302"
         x="270.98068"
         style="font-size:15.00030041px;font-variant:normal;font-weight:normal;writing-mode:lr-tb;fill:#000000;fill-opacity:1;fill-rule:nonzero;stroke:none;font-family:ARIAL;-inkscape-font-specification:ARIAL">T</tspan>
    </text>
    <text
       id="text6229"
       x="280.14316"
       y="838.23804"
       style="font-size:15px">
      <tspan
         id="tspan6231"
         y="838.23804"
         x="280.14316"
         style="font-size:9.74790001px;font-variant:normal;font-weight:normal;writing-mode:lr-tb;fill:#000000;fill-opacity:1;fill-rule:nonzero;stroke:none;font-family:ARIAL;-inkscape-font-specification:ARIAL">2</tspan>
    </text>
    <text
       id="text6233"
       x="318.03729"
       y="964.03802"
       style="font-size:26.77326202px">
      <tspan
         id="tspan6235"
         y="964.03802"
         x="318.03729"
         style="font-size:26.77379799px;font-variant:normal;font-weight:normal;writing-mode:lr-tb;fill:#000000;fill-opacity:1;fill-rule:nonzero;stroke:none;font-family:ARIAL;-inkscape-font-specification:ARIAL">x</tspan>
    </text>
    <text
       id="text6237"
       x="101.88398"
       y="732.19788"
       style="font-size:23.32822227px">
      <tspan
         id="tspan6239"
         y="732.19788"
         x="101.88398"
         style="font-size:23.32868958px;font-variant:normal;font-weight:normal;writing-mode:lr-tb;fill:#000000;fill-opacity:1;fill-rule:nonzero;stroke:none;font-family:ARIAL;-inkscape-font-specification:ARIAL">y</tspan>
    </text>
    <text
       id="text6241"
       x="1.4644926"
       y="1050.338"
       style="font-size:26.70813179px">
      <tspan
         id="tspan6243"
         y="1050.338"
         x="1.4644926"
         style="font-size:26.70866776px;font-variant:normal;font-weight:normal;writing-mode:lr-tb;fill:#000000;fill-opacity:1;fill-rule:nonzero;stroke:none;font-family:ARIAL;-inkscape-font-specification:ARIAL">z</tspan>
    </text>
    <path
       id="path6247"
       style="fill:#927aad;fill-opacity:1;fill-rule:evenodd;stroke:none"
       d="m 189.75569,855.26303 14.25,-1.5 -10.5,9.75 -3.75,-8.25 z"
       inkscape:connector-curvature="0" />
    <path
       id="path6251"
       style="fill:#927aad;fill-opacity:1;fill-rule:evenodd;stroke:none"
       d="m 228.91242,914.76557 13.5,-5.25 -7.5,12.75 -6,-7.5 z"
       inkscape:connector-curvature="0" />
    <path
       id="path6255"
       style="fill:#927aad;fill-opacity:1;fill-rule:evenodd;stroke:none"
       d="m 260.25569,941.51303 14.25,-3 -9.75,11.25 -4.5,-8.25 z"
       inkscape:connector-curvature="0" />
    <path
       id="path6259"
       style="fill:#927aad;fill-opacity:1;fill-rule:evenodd;stroke:none"
       d="m 178.63574,814.74933 15.31751,0.70078 -11.85575,7.65294 -3.46176,-8.35371 z"
       inkscape:connector-curvature="0" />
    <g
       ns0:preamble=""
       ns0:text="$$\\overrightarrow{\\mathbf{h}}$$\n"
       word-spacing="normal"
       letter-spacing="normal"
       font-size-adjust="none"
       font-stretch="normal"
       font-weight="normal"
       font-variant="normal"
       font-style="normal"
       stroke-miterlimit="10.433"
       xml:space="preserve"
       transform="matrix(2.3252623,0,0,-2.3252623,-680.9645,2524.8499)"
       id="content"
       style="font-style:normal;font-variant:normal;font-weight:normal;font-stretch:normal;letter-spacing:normal;word-spacing:normal;text-anchor:start;fill:none;stroke:#000000;stroke-linecap:butt;stroke-linejoin:miter;stroke-miterlimit:10.43299961;stroke-opacity:1;stroke-dasharray:none;stroke-dashoffset:0">
<path
   id="path11828"
   d="m 396.88,715.34 0.03,0 0.03,0 0.03,0 0.02,0 0.01,0 0.02,0 0.01,0 0.02,0 0.01,0.01 0.01,0 0.02,0 0.01,0.01 0.01,0 0.02,0.01 0.01,0 0.01,0.01 0.01,0 0.01,0.01 0.01,0.01 0.01,0.01 0,0.01 0.01,0.01 0,0 0,0.01 0.01,0 0,0.01 0,0.01 0,0 0.01,0.01 0,0.01 0,0 0,0.01 0,0.01 0,0.01 0,0.01 0,0.01 0,0 c 0,0.2 -0.17,0.2 -0.34,0.2 h -5.4 c -0.17,0 -0.35,0 -0.35,-0.2 0,-0.19 0.18,-0.19 0.35,-0.19 z"
   inkscape:connector-curvature="0"
   style="fill:#000000;stroke-width:0" />
<path
   id="path11830"
   d="m 398.62,715.34 -0.05,-0.04 -0.05,-0.04 -0.05,-0.04 -0.04,-0.04 -0.05,-0.04 -0.04,-0.04 -0.04,-0.03 -0.04,-0.04 -0.04,-0.04 -0.04,-0.03 -0.03,-0.04 -0.04,-0.04 -0.03,-0.03 -0.03,-0.03 -0.03,-0.04 -0.03,-0.03 -0.02,-0.03 -0.03,-0.03 -0.02,-0.03 -0.03,-0.03 -0.02,-0.03 -0.02,-0.02 -0.02,-0.03 -0.01,-0.02 -0.02,-0.03 -0.01,-0.02 -0.02,-0.02 -0.01,-0.02 -0.01,-0.02 -0.01,-0.01 -0.01,-0.02 -0.01,-0.01 c -0.45,-0.69 -0.53,-1.31 -0.53,-1.32 0,-0.12 0.12,-0.12 0.2,-0.12 0.17,0 0.18,0.02 0.22,0.2 0.23,0.97 0.82,1.81 1.94,2.27 0.12,0.04 0.15,0.06 0.15,0.12 0,0.07 -0.06,0.11 -0.08,0.12 -0.43,0.16 -1.64,0.66 -2.02,2.33 -0.03,0.12 -0.04,0.15 -0.21,0.15 -0.08,0 -0.2,0 -0.2,-0.12 0,-0.02 0.09,-0.64 0.51,-1.31 0.2,-0.3 0.49,-0.65 0.92,-0.97 h -7.41 c -0.18,0 -0.36,0 -0.36,-0.2 0,-0.19 0.18,-0.19 0.36,-0.19 z"
   inkscape:connector-curvature="0"
   style="fill:#000000;stroke-width:0" />
<path
   id="path11832"
   d="m 393.24,707.59 h -0.69 v -0.46 c 0.28,0.01 0.88,0.03 1.26,0.03 0.39,0 0.98,-0.02 1.26,-0.03 v 0.46 h -0.69 v 2.08 c 0,1.09 0.85,1.57 1.48,1.57 0.34,0 0.55,-0.2 0.55,-0.96 v -2.69 h -0.69 v -0.46 c 0.28,0.01 0.88,0.03 1.26,0.03 0.39,0 0.98,-0.02 1.26,-0.03 v 0.46 h -0.69 v 2.58 c 0,1.05 -0.54,1.43 -1.54,1.43 -0.95,0 -1.46,-0.57 -1.69,-0.97 v 3.4 l -1.77,-0.08 v -0.47 c 0.62,0 0.69,0 0.69,-0.38 z"
   inkscape:connector-curvature="0"
   style="fill:#000000;stroke-width:0" />
</g>    <path
       id="path6259-1"
       style="fill:#927aad;fill-opacity:1;fill-rule:evenodd;stroke:none"
       d="m 166.94175,790.95714 15.32474,-0.51918 -11.20982,8.57124 -4.11492,-8.05205 z"
       inkscape:connector-curvature="0" />
  </g>
</svg>
