<?xml version="1.0" encoding="UTF-8" standalone="no"?>
<!-- Created with Inkscape (http://www.inkscape.org/) -->

<svg
   xmlns:ns0="http://www.iki.fi/pav/software/textext/"
   xmlns:dc="http://purl.org/dc/elements/1.1/"
   xmlns:cc="http://creativecommons.org/ns#"
   xmlns:rdf="http://www.w3.org/1999/02/22-rdf-syntax-ns#"
   xmlns:svg="http://www.w3.org/2000/svg"
   xmlns="http://www.w3.org/2000/svg"
   xmlns:sodipodi="http://sodipodi.sourceforge.net/DTD/sodipodi-0.dtd"
   xmlns:inkscape="http://www.inkscape.org/namespaces/inkscape"
   width="170"
   height="150"
   id="svg2"
   inkscape:label="Pozadí"
   version="1.1"
   inkscape:version="0.48.0 r9654"
   sodipodi:docname="kinematika_delo_tan_alpha.svg">
  <sodipodi:namedview
     id="base"
     pagecolor="#ffffff"
     bordercolor="#666666"
     borderopacity="1.0"
     inkscape:pageopacity="0.0"
     inkscape:pageshadow="2"
     inkscape:zoom="7.9195959"
     inkscape:cx="56.834593"
     inkscape:cy="75.04269"
     inkscape:document-units="px"
     inkscape:current-layer="layer1"
     showgrid="false"
     inkscape:window-width="1920"
     inkscape:window-height="1125"
     inkscape:window-x="-9"
     inkscape:window-y="-9"
     inkscape:window-maximized="1" />
  <defs
     id="defs8388">
    <inkscape:path-effect
       effect="spiro"
       id="path-effect8862"
       is_visible="true" />
  </defs>
  <metadata
     id="metadata8391">
    <rdf:RDF>
      <cc:Work
         rdf:about="">
        <dc:format>image/svg+xml</dc:format>
        <dc:type
           rdf:resource="http://purl.org/dc/dcmitype/StillImage" />
        <dc:title />
      </cc:Work>
    </rdf:RDF>
  </metadata>
  <g
     inkscape:label="Vrstva 1"
     inkscape:groupmode="layer"
     id="layer1"
     transform="translate(0,-902.36218)">
    <path
       d="m 3.8589469,1013.317 150.7500031,0"
       style="fill:none;stroke:#000000;stroke-width:2.8125;stroke-linecap:round;stroke-linejoin:round;stroke-miterlimit:10;stroke-opacity:1;stroke-dasharray:none"
       id="path22267"
       inkscape:connector-curvature="0" />
    <path
       d="m 153.10895,1006.567 13.5,6.75 -13.5,6.75 0,-13.5 z"
       style="fill:#000000;fill-opacity:1;fill-rule:evenodd;stroke:none"
       id="path22269"
       inkscape:connector-curvature="0" />
    <path
       d="m 42.858947,1048.567 0,-126.00004"
       style="fill:none;stroke:#000000;stroke-width:2.8125;stroke-linecap:round;stroke-linejoin:round;stroke-miterlimit:10;stroke-opacity:1;stroke-dasharray:none"
       id="path22271"
       inkscape:connector-curvature="0" />
    <path
       d="m 36.108947,924.81696 6.75,-14.25 6.75,14.25 -13.5,0 z"
       style="fill:#000000;fill-opacity:1;fill-rule:evenodd;stroke:none"
       id="path22273"
       inkscape:connector-curvature="0" />
    <path
       d="m 113.79645,1013.5045 c 0,-39.13754 -31.725003,-70.87504 -70.862503,-70.87504"
       style="fill:none;stroke:#ff0000;stroke-width:1.875;stroke-linecap:round;stroke-linejoin:round;stroke-miterlimit:10;stroke-opacity:1;stroke-dasharray:none"
       id="path22275"
       inkscape:connector-curvature="0" />
    <path
       d="M 42.858947,1013.317 114.10895,949.56696"
       style="fill:none;stroke:#000000;stroke-width:0.90000004;stroke-linecap:round;stroke-linejoin:round;stroke-miterlimit:10;stroke-opacity:1;stroke-dasharray:none"
       id="path22277"
       inkscape:connector-curvature="0" />
    <path
       d="m 114.10895,1015.567 0,-94.50004"
       style="fill:none;stroke:#ff0000;stroke-width:1.875;stroke-linecap:round;stroke-linejoin:round;stroke-miterlimit:10;stroke-opacity:1;stroke-dasharray:none"
       id="path22279"
       inkscape:connector-curvature="0" />
    <path
       d="m 60.433947,997.75446 c 5.9875,0 10.8375,7.05004 10.8375,15.75004"
       style="fill:none;stroke:#000000;stroke-width:0.90000004;stroke-linecap:round;stroke-linejoin:round;stroke-miterlimit:10;stroke-opacity:1;stroke-dasharray:none"
       id="path22281"
       inkscape:connector-curvature="0" />
    <text
       style="font-size:15px"
       id="text22291"
       x="76.058945"
       y="1027.5044">
      <tspan
         style="font-size:15.00030041px;font-variant:normal;font-weight:normal;writing-mode:lr-tb;fill:#000000;fill-opacity:1;fill-rule:nonzero;stroke:none;font-family:Times New Roman;-inkscape-font-specification:Times New"
         x="76.058945"
         y="1027.5044"
         id="tspan22293">1</tspan>
    </text>
    <path
       d="m 82.608947,1022.317 23.250003,0"
       style="fill:none;stroke:#000000;stroke-width:0.90000004;stroke-linecap:round;stroke-linejoin:round;stroke-miterlimit:10;stroke-opacity:1;stroke-dasharray:none"
       id="path22295"
       inkscape:connector-curvature="0" />
    <path
       d="m 105.10895,1019.317 8.25,3 -8.25,3 0,-6 z"
       style="fill:#000000;fill-opacity:1;fill-rule:evenodd;stroke:none"
       id="path22297"
       inkscape:connector-curvature="0" />
    <path
       d="m 51.858947,1022.317 24,0"
       style="fill:none;stroke:#000000;stroke-width:0.90000004;stroke-linecap:round;stroke-linejoin:round;stroke-miterlimit:10;stroke-opacity:1;stroke-dasharray:none"
       id="path22299"
       inkscape:connector-curvature="0" />
    <path
       d="m 52.608947,1025.317 -8.25,-3 8.25,-3 0,6 z"
       style="fill:#000000;fill-opacity:1;fill-rule:evenodd;stroke:none"
       id="path22301"
       inkscape:connector-curvature="0" />
    <path
       d="m 126.85895,974.31696 0,-17.25"
       style="fill:none;stroke:#000000;stroke-width:0.90000004;stroke-linecap:round;stroke-linejoin:round;stroke-miterlimit:10;stroke-opacity:1;stroke-dasharray:none"
       id="path22303"
       inkscape:connector-curvature="0" />
    <path
       d="m 123.85895,957.81696 3,-8.25 3,8.25 -6,0 z"
       style="fill:#000000;fill-opacity:1;fill-rule:evenodd;stroke:none"
       id="path22305"
       inkscape:connector-curvature="0" />
    <path
       d="m 126.85895,1005.067 0,-20.25004"
       style="fill:none;stroke:#000000;stroke-width:0.90000004;stroke-linecap:round;stroke-linejoin:round;stroke-miterlimit:10;stroke-opacity:1;stroke-dasharray:none"
       id="path22307"
       inkscape:connector-curvature="0" />
    <path
       d="m 129.85895,1004.317 -3,8.25 -3,-8.25 6,0 z"
       style="fill:#000000;fill-opacity:1;fill-rule:evenodd;stroke:none"
       id="path22309"
       inkscape:connector-curvature="0" />
    <path
       d="m 114.10895,949.56696 17.25,0"
       style="fill:none;stroke:#000000;stroke-width:0.90000004;stroke-linecap:round;stroke-linejoin:round;stroke-miterlimit:10;stroke-opacity:1;stroke-dasharray:none"
       id="path22311"
       inkscape:connector-curvature="0" />
    <path
       d="m 114.10895,1024.567 0,-12.75"
       style="fill:none;stroke:#000000;stroke-width:0.90000004;stroke-linecap:round;stroke-linejoin:round;stroke-miterlimit:10;stroke-opacity:1;stroke-dasharray:none"
       id="path22313"
       inkscape:connector-curvature="0" />
    <g
       style="font-style:normal;font-variant:normal;font-weight:normal;font-stretch:normal;letter-spacing:normal;word-spacing:normal;text-anchor:start;fill:none;stroke:#000000;stroke-linecap:butt;stroke-linejoin:miter;stroke-miterlimit:10.43299961;stroke-opacity:1;stroke-dasharray:none;stroke-dashoffset:0"
       id="content"
       transform="matrix(1.6984127,0,0,-1.6984127,-609.42379,2211.2546)"
       xml:space="preserve"
       stroke-miterlimit="10.433"
       font-style="normal"
       font-variant="normal"
       font-weight="normal"
       font-stretch="normal"
       font-size-adjust="none"
       letter-spacing="normal"
       word-spacing="normal"
       ns0:text="$$\\alpha$$\n"
       ns0:preamble="">
<path
   style="fill:#000000;stroke-width:0"
   inkscape:connector-curvature="0"
   d="m 396.84,709.47 0,0.08 0,0.07 -0.01,0.07 0,0.06 -0.02,0.14 -0.01,0.12 -0.03,0.12 -0.02,0.11 -0.03,0.11 -0.04,0.1 -0.04,0.1 -0.04,0.09 -0.05,0.09 -0.04,0.08 -0.06,0.08 -0.05,0.07 -0.06,0.06 -0.06,0.06 -0.06,0.06 -0.06,0.05 -0.07,0.05 -0.07,0.05 -0.06,0.04 -0.07,0.03 -0.07,0.04 -0.08,0.02 -0.07,0.03 -0.07,0.02 -0.07,0.02 -0.07,0.01 -0.08,0.01 -0.07,0.01 -0.07,0 -0.07,0 c -1.36,0 -2.68,-1.42 -2.68,-2.82 0,-0.93 0.6,-1.68 1.62,-1.68 l 0.02,0.21 c -0.6,0 -0.9,0.45 -0.9,1.09 0,0.49 0.26,1.56 0.58,2.07 0.47,0.73 1,0.91 1.35,0.91 0.99,0 0.99,-1.3 0.99,-2.08 0,-0.36 0,-0.94 0.02,-1.11 h 0 c -0.88,-0.77 -1.65,-0.88 -2.04,-0.88 l -0.02,-0.21 c 0.62,0 1.34,0.22 2.1,0.83 0.13,-0.53 0.46,-0.83 0.91,-0.83 0.52,0 0.83,0.54 0.83,0.7 0,0.07 -0.06,0.1 -0.12,0.1 -0.06,0 -0.1,-0.03 -0.13,-0.1 -0.17,-0.49 -0.53,-0.49 -0.55,-0.49 -0.31,0 -0.31,0.78 -0.31,1.02 0,0.21 0,0.23 0.1,0.35 0.94,1.17 1.14,2.33 1.14,2.34 0,0.02 -0.01,0.1 -0.12,0.1 -0.1,0 -0.1,-0.03 -0.14,-0.21 -0.18,-0.63 -0.51,-1.39 -0.98,-1.97 z"
   id="path8477" />
</g>    <g
       style="font-style:normal;font-variant:normal;font-weight:normal;font-stretch:normal;letter-spacing:normal;word-spacing:normal;text-anchor:start;fill:none;stroke:#000000;stroke-linecap:butt;stroke-linejoin:miter;stroke-miterlimit:10.43299961;stroke-opacity:1;stroke-dasharray:none;stroke-dashoffset:0"
       ns0:preamble=""
       ns0:text="$$\\tan(\\alpha)$$\n\n"
       word-spacing="normal"
       letter-spacing="normal"
       font-size-adjust="none"
       font-stretch="normal"
       font-weight="normal"
       font-variant="normal"
       font-style="normal"
       stroke-miterlimit="10.433"
       xml:space="preserve"
       transform="matrix(1.4031544,0,0,-1.4031544,-418.78665,1974.3196)"
       id="g8552">
<path
   id="path8554"
   d="m 382.74,711.11 h 1.42 v 0.3 h -1.42 v 1.84 h -0.25 c -0.01,-0.82 -0.31,-1.89 -1.29,-1.92 v -0.22 h 0.85 v -2.75 c 0,-1.22 0.93,-1.34 1.29,-1.34 0.7,0 0.98,0.7 0.98,1.34 v 0.57 h -0.25 v -0.55 c 0,-0.74 -0.3,-1.12 -0.67,-1.12 -0.66,0 -0.66,0.91 -0.66,1.08 z"
   inkscape:connector-curvature="0"
   style="fill:#000000;stroke-width:0" />
<path
   id="path8556"
   d="m 388.21,707.88 0,-0.04 0.01,-0.03 0,-0.04 0.01,-0.04 0.01,-0.04 0.01,-0.03 0.02,-0.04 0.01,-0.03 0.01,-0.04 0.02,-0.03 0.02,-0.04 0.02,-0.03 0.02,-0.03 0.02,-0.04 0.02,-0.03 0.03,-0.03 0.02,-0.02 0.03,-0.03 0.02,-0.03 0.03,-0.02 0.03,-0.02 0.03,-0.03 0.04,-0.02 0.03,-0.01 0.04,-0.02 0.03,-0.01 0.04,-0.02 0.04,-0.01 0.04,0 0.04,-0.01 0.04,0 0.04,0 c 0.21,0 0.82,0.14 0.82,0.94 v 0.56 h -0.25 v -0.56 c 0,-0.58 -0.25,-0.64 -0.36,-0.64 -0.33,0 -0.36,0.45 -0.36,0.5 v 1.99 c 0,0.42 0,0.81 -0.36,1.18 -0.39,0.38 -0.89,0.54 -1.37,0.54 -0.82,0 -1.5,-0.46 -1.5,-1.12 0,-0.3 0.2,-0.47 0.45,-0.47 0.28,0 0.46,0.2 0.46,0.46 0,0.12 -0.05,0.45 -0.51,0.46 0.27,0.35 0.76,0.45 1.08,0.45 0.49,0 1.06,-0.38 1.06,-1.27 v -0.37 -0.21 -0.99 c 0,-0.95 -0.72,-1.29 -1.17,-1.29 -0.49,0 -0.9,0.35 -0.9,0.85 0,0.55 0.42,1.37 2.07,1.43 h 0 v 0.21 c -0.51,-0.03 -1.21,-0.06 -1.84,-0.36 -0.75,-0.33 -0.99,-0.85 -0.99,-1.29 0,-0.81 0.96,-1.05 1.59,-1.05 0.66,0 1.12,0.39 1.31,0.86 z"
   inkscape:connector-curvature="0"
   style="fill:#000000;stroke-width:0" />
<path
   id="path8558"
   d="m 390.96,710.55 v -2.67 c 0,-0.45 -0.1,-0.45 -0.77,-0.45 v -0.3 c 0.35,0.01 0.86,0.03 1.12,0.03 0.26,0 0.78,-0.02 1.12,-0.03 v 0.3 c -0.67,0 -0.78,0 -0.78,0.45 v 1.83 c 0,1.04 0.71,1.59 1.35,1.59 0.63,0 0.74,-0.53 0.74,-1.1 v -2.32 c 0,-0.45 -0.11,-0.45 -0.78,-0.45 v -0.3 c 0.35,0.01 0.86,0.03 1.12,0.03 0.26,0 0.78,-0.02 1.12,-0.03 v 0.3 c -0.52,0 -0.77,0 -0.78,0.3 v 1.9 c 0,0.86 0,1.17 -0.31,1.53 -0.13,0.17 -0.46,0.36 -1.04,0.36 -0.73,0 -1.2,-0.42 -1.48,-1.04 v 1.04 l -1.4,-0.11 v -0.3 c 0.7,0 0.77,-0.07 0.77,-0.56 z"
   inkscape:connector-curvature="0"
   style="fill:#000000;stroke-width:0" />
<path
   id="path8560"
   d="m 398.7,704.74 0,0 0,0.01 0,0 0,0 0,0.01 0,0 0,0 0,0.01 0,0 -0.01,0 0,0.01 0,0 0,0.01 -0.01,0 0,0.01 -0.01,0.01 0,0 -0.01,0.01 0,0 0,0.01 -0.01,0 0,0.01 -0.01,0 0,0 0,0.01 -0.01,0 0,0.01 -0.01,0 0,0.01 -0.01,0 0,0.01 -0.01,0.01 0,0 -0.01,0.01 -0.01,0 0,0.01 -0.01,0.01 -0.01,0.01 0,0 -0.01,0.01 -0.01,0.01 -0.01,0.01 c -1.24,1.25 -1.56,3.13 -1.56,4.65 0,1.73 0.38,3.47 1.6,4.71 0.13,0.12 0.13,0.14 0.13,0.17 0,0.07 -0.04,0.1 -0.1,0.1 -0.1,0 -0.99,-0.68 -1.58,-1.94 -0.51,-1.1 -0.63,-2.2 -0.63,-3.04 0,-0.77 0.11,-1.98 0.66,-3.1 0.6,-1.23 1.45,-1.87 1.55,-1.87 0.06,0 0.1,0.03 0.1,0.1 z"
   inkscape:connector-curvature="0"
   style="fill:#000000;stroke-width:0" />
<path
   id="path8562"
   d="m 404.03,709.47 0,0.08 0,0.07 0,0.07 -0.01,0.06 -0.01,0.14 -0.02,0.12 -0.02,0.12 -0.03,0.11 -0.03,0.11 -0.03,0.1 -0.04,0.1 -0.04,0.09 -0.05,0.09 -0.05,0.08 -0.05,0.08 -0.06,0.07 -0.05,0.06 -0.06,0.06 -0.06,0.06 -0.07,0.05 -0.06,0.05 -0.07,0.05 -0.07,0.04 -0.07,0.03 -0.07,0.04 -0.07,0.02 -0.07,0.03 -0.07,0.02 -0.08,0.02 -0.07,0.01 -0.07,0.01 -0.07,0.01 -0.07,0 -0.07,0 c -1.37,0 -2.68,-1.42 -2.68,-2.82 0,-0.93 0.6,-1.68 1.61,-1.68 l 0.02,0.21 c -0.6,0 -0.9,0.45 -0.9,1.09 0,0.49 0.26,1.56 0.58,2.07 0.47,0.73 1.01,0.91 1.36,0.91 0.99,0 0.99,-1.3 0.99,-2.08 0,-0.36 0,-0.94 0.01,-1.11 h 0 c -0.87,-0.77 -1.64,-0.88 -2.04,-0.88 l -0.02,-0.21 c 0.63,0 1.35,0.22 2.1,0.83 0.13,-0.53 0.46,-0.83 0.91,-0.83 0.53,0 0.84,0.54 0.84,0.7 0,0.07 -0.06,0.1 -0.12,0.1 -0.07,0 -0.1,-0.03 -0.13,-0.1 -0.18,-0.49 -0.54,-0.49 -0.56,-0.49 -0.31,0 -0.31,0.78 -0.31,1.02 0,0.21 0,0.23 0.1,0.35 0.94,1.17 1.15,2.33 1.15,2.34 0,0.02 -0.01,0.1 -0.12,0.1 -0.1,0 -0.1,-0.03 -0.15,-0.21 -0.18,-0.63 -0.51,-1.39 -0.98,-1.97 z"
   inkscape:connector-curvature="0"
   style="fill:#000000;stroke-width:0" />
<path
   id="path8564"
   d="m 408.57,709.61 0,0.08 0,0.07 0,0.08 -0.01,0.08 0,0.17 -0.02,0.18 -0.01,0.18 -0.02,0.19 -0.03,0.2 -0.03,0.19 -0.04,0.21 -0.05,0.21 -0.05,0.21 -0.06,0.21 -0.07,0.21 -0.08,0.21 -0.05,0.11 -0.04,0.11 -0.05,0.1 -0.05,0.11 c -0.6,1.22 -1.45,1.87 -1.55,1.87 -0.06,0 -0.1,-0.04 -0.1,-0.1 0,-0.03 0,-0.05 0.19,-0.23 0.97,-0.98 1.54,-2.57 1.54,-4.65 0,-1.7 -0.37,-3.45 -1.6,-4.7 -0.13,-0.12 -0.13,-0.14 -0.13,-0.17 0,-0.06 0.04,-0.1 0.1,-0.1 0.1,0 0.99,0.67 1.58,1.94 0.51,1.09 0.63,2.2 0.63,3.03 z"
   inkscape:connector-curvature="0"
   style="fill:#000000;stroke-width:0" />
</g>    <text
       xml:space="preserve"
       style="font-size:15.28957558px;font-style:normal;font-variant:normal;font-weight:normal;font-stretch:normal;line-height:125%;letter-spacing:0px;word-spacing:0px;fill:#000000;fill-opacity:1;stroke:none;font-family:Segoe UI;-inkscape-font-specification:Segoe UI"
       x="70.849419"
       y="976.82648"
       id="text8632"
       sodipodi:linespacing="125%"><tspan
         sodipodi:role="line"
         id="tspan8634"
         x="70.849419"
         y="976.82648">x</tspan></text>
    <g
       style="font-style:normal;font-variant:normal;font-weight:normal;font-stretch:normal;letter-spacing:normal;word-spacing:normal;text-anchor:start;fill:none;stroke:#000000;stroke-linecap:butt;stroke-linejoin:miter;stroke-miterlimit:10.43299961;stroke-opacity:1;stroke-dasharray:none;stroke-dashoffset:0"
       ns0:preamble=""
       ns0:text="$$\\cos\\alpha=\\frac{1}{x}$$\n\n"
       word-spacing="normal"
       letter-spacing="normal"
       font-size-adjust="none"
       font-stretch="normal"
       font-weight="normal"
       font-variant="normal"
       font-style="normal"
       stroke-miterlimit="10.433"
       xml:space="preserve"
       transform="matrix(1.2560803,0,0,-1.2560803,-414.78183,1819.1149)"
       id="g8769">
<path
   id="path8771"
   d="m 375.07,706.1 0,0.07 0,0.08 0,0.07 0,0.07 0.01,0.07 0.01,0.06 0,0.07 0.01,0.06 0.01,0.06 0.01,0.06 0.01,0.06 0.01,0.06 0.03,0.11 0.03,0.1 0.03,0.1 0.04,0.09 0.04,0.09 0.04,0.08 0.05,0.07 0.04,0.07 0.05,0.07 0.05,0.06 0.05,0.05 0.05,0.05 0.06,0.05 0.05,0.04 0.06,0.04 0.05,0.03 0.06,0.03 0.06,0.03 0.05,0.02 0.06,0.02 0.06,0.01 0.05,0.02 0.06,0.01 0.05,0 0.05,0.01 0.05,0 c 0.09,0 0.72,-0.01 1.07,-0.37 -0.41,-0.03 -0.47,-0.33 -0.47,-0.46 0,-0.26 0.18,-0.46 0.46,-0.46 0.26,0 0.46,0.17 0.46,0.47 0,0.68 -0.76,1.07 -1.53,1.07 -1.25,0 -2.16,-1.08 -2.16,-2.31 0,-1.28 0.99,-2.26 2.14,-2.26 1.34,0 1.66,1.19 1.66,1.29 0,0.1 -0.1,0.1 -0.13,0.1 -0.09,0 -0.11,-0.04 -0.13,-0.1 -0.29,-0.92 -0.94,-1.04 -1.31,-1.04 -0.53,0 -1.4,0.42 -1.4,2.03 z"
   inkscape:connector-curvature="0"
   style="fill:#000000;stroke-width:0" />
<path
   id="path8773"
   d="m 383.02,706.06 0,0.12 -0.01,0.11 -0.01,0.12 -0.02,0.11 -0.03,0.12 -0.03,0.11 -0.03,0.1 -0.04,0.11 -0.05,0.1 -0.05,0.1 -0.05,0.1 -0.06,0.09 -0.06,0.1 -0.07,0.08 -0.06,0.09 -0.08,0.08 -0.07,0.08 -0.08,0.07 -0.09,0.07 -0.08,0.07 -0.09,0.06 -0.1,0.05 -0.09,0.06 -0.1,0.04 -0.1,0.04 -0.1,0.04 -0.1,0.03 -0.11,0.03 -0.11,0.02 -0.11,0.01 -0.11,0.01 -0.11,0.01 -0.01,-0.22 c 0.44,0 0.87,-0.22 1.12,-0.65 0.26,-0.43 0.26,-1 0.26,-1.38 0,-0.36 0,-0.9 -0.21,-1.34 -0.22,-0.44 -0.66,-0.73 -1.16,-0.73 h 0 c -0.43,0 -0.87,0.21 -1.14,0.66 -0.25,0.44 -0.25,1.05 -0.25,1.41 0,0.39 0,0.92 0.24,1.36 0.27,0.46 0.74,0.67 1.14,0.67 l 0.01,0.22 c -1.25,0 -2.21,-1.09 -2.21,-2.33 0,-1.29 1.03,-2.24 2.2,-2.24 1.21,0 2.21,0.97 2.21,2.24 z"
   inkscape:connector-curvature="0"
   style="fill:#000000;stroke-width:0" />
<path
   id="path8775"
   d="m 385.38,705.86 0.02,-0.01 0.03,0 0.03,-0.01 0.03,0 0.03,-0.01 0.04,-0.01 0.04,-0.01 0.04,-0.01 0.04,-0.01 0.04,-0.02 0.04,-0.01 0.05,-0.02 0.04,-0.02 0.04,-0.02 0.05,-0.02 0.04,-0.03 0.04,-0.02 0.05,-0.03 0.04,-0.03 0.04,-0.03 0.04,-0.04 0.03,-0.03 0.04,-0.04 0.03,-0.05 0.03,-0.04 0.01,-0.03 0.01,-0.02 0.01,-0.02 0.01,-0.03 0.01,-0.03 0.01,-0.02 0.01,-0.03 0.01,-0.03 0,-0.03 0.01,-0.03 0,-0.03 0.01,-0.03 0,-0.03 0,-0.04 c 0,-0.51 -0.35,-0.9 -1.13,-0.9 -0.84,0 -1.19,0.56 -1.38,1.41 -0.03,0.13 -0.04,0.17 -0.14,0.17 -0.13,0 -0.13,-0.07 -0.13,-0.25 v -1.31 c 0,-0.17 0,-0.24 0.11,-0.24 0.05,0 0.06,0.01 0.24,0.2 0.03,0.02 0.03,0.04 0.21,0.23 0.43,-0.42 0.88,-0.43 1.09,-0.43 1.15,0 1.61,0.66 1.61,1.38 0,0.53 -0.3,0.83 -0.42,0.95 -0.33,0.32 -0.72,0.39 -1.14,0.48 -0.56,0.1 -1.23,0.23 -1.23,0.81 0,0.35 0.26,0.76 1.12,0.76 1.1,0 1.15,-0.9 1.17,-1.21 0.01,-0.09 0.1,-0.09 0.12,-0.09 0.13,0 0.13,0.05 0.13,0.24 v 1.01 c 0,0.17 0,0.24 -0.11,0.24 -0.05,0 -0.07,0 -0.2,-0.12 -0.03,-0.04 -0.13,-0.13 -0.17,-0.16 -0.38,0.28 -0.79,0.28 -0.94,0.28 -1.21,0 -1.59,-0.67 -1.59,-1.23 0,-0.35 0.16,-0.62 0.43,-0.84 0.31,-0.26 0.59,-0.32 1.31,-0.46 z"
   inkscape:connector-curvature="0"
   style="fill:#000000;stroke-width:0" />
<path
   id="path8777"
   d="m 393.65,706.28 0,0.07 0,0.07 0,0.07 -0.01,0.07 -0.01,0.13 -0.02,0.12 -0.02,0.12 -0.03,0.12 -0.03,0.1 -0.03,0.11 -0.04,0.09 -0.04,0.09 -0.05,0.09 -0.05,0.08 -0.05,0.08 -0.06,0.07 -0.05,0.07 -0.06,0.06 -0.06,0.05 -0.07,0.06 -0.06,0.05 -0.07,0.04 -0.07,0.04 -0.07,0.04 -0.07,0.03 -0.07,0.03 -0.07,0.02 -0.07,0.02 -0.08,0.02 -0.07,0.01 -0.07,0.01 -0.07,0.01 -0.07,0.01 -0.07,0 c -1.37,0 -2.68,-1.43 -2.68,-2.83 0,-0.92 0.59,-1.68 1.61,-1.68 l 0.02,0.22 c -0.6,0 -0.9,0.44 -0.9,1.08 0,0.49 0.26,1.56 0.58,2.07 0.47,0.73 1.01,0.92 1.36,0.92 0.98,0 0.98,-1.31 0.98,-2.08 0,-0.37 0,-0.95 0.02,-1.12 h 0 c -0.87,-0.76 -1.64,-0.87 -2.04,-0.87 l -0.02,-0.22 c 0.63,0 1.35,0.23 2.1,0.84 0.13,-0.53 0.46,-0.84 0.91,-0.84 0.53,0 0.84,0.55 0.84,0.71 0,0.06 -0.06,0.1 -0.12,0.1 -0.07,0 -0.1,-0.04 -0.13,-0.1 -0.18,-0.49 -0.54,-0.49 -0.56,-0.49 -0.31,0 -0.31,0.77 -0.31,1.01 0,0.21 0,0.23 0.1,0.35 0.94,1.18 1.15,2.33 1.15,2.34 0,0.02 -0.01,0.1 -0.12,0.1 -0.1,0 -0.1,-0.03 -0.15,-0.21 -0.18,-0.63 -0.51,-1.38 -0.98,-1.97 z"
   inkscape:connector-curvature="0"
   style="fill:#000000;stroke-width:0" />
<path
   id="path8779"
   d="m 404.92,707.18 0.03,0 0.03,0 0.03,0 0.01,0 0.02,0.01 0.01,0 0.02,0 0.01,0 0.02,0 0.01,0.01 0.01,0 0.02,0 0.01,0.01 0.01,0 0.01,0.01 0.01,0 0.01,0.01 0.01,0.01 0.01,0.01 0.01,0.01 0.01,0.01 0,0 0.01,0.01 0,0 0,0.01 0.01,0.01 0,0 0,0.01 0,0.01 0.01,0 0,0.01 0,0.01 0,0.01 0,0 0,0.01 0,0.01 0,0.01 c 0,0.2 -0.19,0.2 -0.33,0.2 h -5.97 c -0.14,0 -0.33,0 -0.33,-0.2 0,-0.2 0.19,-0.2 0.34,-0.2 z"
   inkscape:connector-curvature="0"
   style="fill:#000000;stroke-width:0" />
<path
   id="path8781"
   d="m 404.93,705.25 0.03,0 0.03,0 0.03,0 0.01,0 0.01,0.01 0.02,0 0.01,0 0.02,0 0.01,0 0.01,0.01 0.01,0 0.02,0 0.01,0.01 0.01,0 0.01,0.01 0.01,0 0.01,0.01 0.01,0.01 0.01,0.01 0.01,0.01 0.01,0 0,0.01 0,0 0.01,0.01 0,0 0,0.01 0.01,0.01 0,0 0,0.01 0,0.01 0.01,0 0,0.01 0,0.01 0,0.01 0,0 0,0.01 0,0.01 0,0.01 c 0,0.2 -0.19,0.2 -0.34,0.2 h -5.95 c -0.15,0 -0.34,0 -0.34,-0.2 0,-0.2 0.19,-0.2 0.33,-0.2 z"
   inkscape:connector-curvature="0"
   style="fill:#000000;stroke-width:0" />
<path
   id="path8783"
   d="m 413.07,717.04 0,0.01 0,0.01 0,0.01 0,0.01 0,0.01 0,0.01 0,0.01 0,0.01 0,0.01 0,0 0,0.01 0,0.01 0,0.01 0,0 0,0.01 0,0.01 0,0 0,0.01 0,0.01 -0.01,0.01 0,0.01 0,0.01 -0.01,0.01 0,0.01 0,0.01 -0.01,0 -0.01,0.01 0,0 -0.01,0.01 -0.01,0 -0.01,0 0,0 -0.01,0 0,0.01 -0.01,0 0,0 -0.01,0 -0.01,0 0,0 -0.01,0 -0.01,0 0,0 -0.01,0 -0.01,0 -0.01,0 -0.01,0 -0.01,0 -0.01,0 -0.01,0 -0.01,0 -0.01,0 -0.01,0 c -0.61,-0.63 -1.49,-0.63 -1.81,-0.63 v -0.31 c 0.2,0 0.79,0 1.31,0.26 v -5.16 c 0,-0.36 -0.03,-0.47 -0.93,-0.47 h -0.32 v -0.31 c 0.35,0.03 1.22,0.03 1.61,0.03 0.4,0 1.27,0 1.62,-0.03 v 0.31 H 414 c -0.9,0 -0.93,0.11 -0.93,0.47 z"
   inkscape:connector-curvature="0"
   style="fill:#000000;stroke-width:0" />
<line
   id="line8785"
   y2="706.41998"
   x2="415.48001"
   y1="706.41998"
   x1="409.79001"
   style="stroke-width:0.398" />
<path
   id="path8787"
   d="m 413.12,700.1 0,0.03 0.01,0.03 0.01,0.03 0.01,0.03 0.01,0.04 0.01,0.04 0.01,0.05 0.02,0.04 0.01,0.05 0.02,0.05 0.02,0.05 0.02,0.04 0.02,0.05 0.03,0.05 0.02,0.05 0.03,0.05 0.03,0.05 0.03,0.05 0.03,0.05 0.04,0.04 0.04,0.04 0.04,0.04 0.04,0.04 0.04,0.04 0.05,0.03 0.05,0.03 0.02,0.01 0.03,0.01 0.03,0.01 0.02,0.01 0.03,0.01 0.03,0.01 0.03,0.01 0.03,0 0.03,0.01 0.03,0 0.03,0 0.03,0 c 0.05,0 0.29,0 0.5,-0.12 -0.28,-0.06 -0.48,-0.3 -0.48,-0.54 0,-0.16 0.11,-0.35 0.38,-0.35 0.22,0 0.54,0.18 0.54,0.58 0,0.51 -0.59,0.65 -0.93,0.65 -0.57,0 -0.92,-0.52 -1.04,-0.75 -0.25,0.65 -0.79,0.75 -1.08,0.75 -1.04,0 -1.6,-1.28 -1.6,-1.53 0,-0.1 0.09,-0.1 0.12,-0.1 0.07,0 0.1,0.02 0.12,0.11 0.34,1.06 1,1.3 1.34,1.3 0.19,0 0.54,-0.09 0.54,-0.66 0,-0.31 -0.17,-0.98 -0.54,-2.37 -0.16,-0.62 -0.51,-1.04 -0.95,-1.04 -0.06,0 -0.29,0 -0.5,0.13 0.25,0.05 0.47,0.26 0.47,0.54 0,0.27 -0.22,0.35 -0.37,0.35 -0.29,0 -0.54,-0.26 -0.54,-0.58 0,-0.46 0.49,-0.66 0.93,-0.66 0.66,0 1.02,0.7 1.05,0.76 0.12,-0.37 0.48,-0.76 1.08,-0.76 1.02,0 1.59,1.29 1.59,1.54 0,0.1 -0.09,0.1 -0.12,0.1 -0.09,0 -0.11,-0.04 -0.13,-0.11 -0.33,-1.07 -1,-1.31 -1.32,-1.31 -0.39,0 -0.55,0.32 -0.55,0.66 0,0.22 0.06,0.44 0.17,0.88 z"
   inkscape:connector-curvature="0"
   style="fill:#000000;stroke-width:0" />
</g>    <path
       d="m 27.808944,969.3653 0.184437,-18.75356"
       style="fill:none;stroke:#000000;stroke-width:0.80831325;stroke-linecap:round;stroke-linejoin:round;stroke-miterlimit:10;stroke-opacity:1;stroke-dasharray:none"
       id="path22295-0"
       inkscape:connector-curvature="0" />
    <path
       d="m 24.987526,951.49417 3.065351,-8.22595 2.93446,8.27354 -5.999811,-0.0476 z"
       style="fill:#000000;fill-opacity:1;fill-rule:evenodd;stroke:none"
       id="path22297-9"
       inkscape:connector-curvature="0" />
    <path
       d="m 27.56501,1004.61 0.190387,-19.98327"
       style="fill:none;stroke:#000000;stroke-width:0.8212539;stroke-linecap:round;stroke-linejoin:round;stroke-miterlimit:10;stroke-opacity:1;stroke-dasharray:none"
       id="path22299-3"
       inkscape:connector-curvature="0" />
    <path
       d="m 30.570865,1003.8839 -3.065351,8.2259 -2.93446,-8.2735 5.999811,0.048 z"
       style="fill:#000000;fill-opacity:1;fill-rule:evenodd;stroke:none"
       id="path22301-0"
       inkscape:connector-curvature="0" />
    <path
       style="fill:none;stroke:#000000;stroke-width:1.04788685px;stroke-linecap:butt;stroke-linejoin:miter;stroke-opacity:1"
       d="m 43.169643,942.74303 -16.471001,0.0865"
       id="path8860"
       inkscape:path-effect="#path-effect8862"
       inkscape:original-d="m 43.169643,942.74303 c -4.512075,-3.03062 -11.033536,-0.43824 -16.471001,0.0865"
       inkscape:connector-curvature="0" />
    <text
       style="font-size:15px"
       id="text22291-0"
       x="23.813208"
       y="982.17426">
      <tspan
         style="font-size:15.00030041px;font-variant:normal;font-weight:normal;writing-mode:lr-tb;fill:#000000;fill-opacity:1;fill-rule:nonzero;stroke:none;font-family:Times New Roman;-inkscape-font-specification:Times New"
         x="23.813208"
         y="982.17426"
         id="tspan22293-8">1</tspan>
    </text>
  </g>
</svg>
