<?xml version="1.0" encoding="UTF-8" standalone="no"?>
<!-- Created with Inkscape (http://www.inkscape.org/) -->

<svg
   xmlns:ns0="http://www.iki.fi/pav/software/textext/"
   xmlns:dc="http://purl.org/dc/elements/1.1/"
   xmlns:cc="http://creativecommons.org/ns#"
   xmlns:rdf="http://www.w3.org/1999/02/22-rdf-syntax-ns#"
   xmlns:svg="http://www.w3.org/2000/svg"
   xmlns="http://www.w3.org/2000/svg"
   xmlns:xlink="http://www.w3.org/1999/xlink"
   xmlns:sodipodi="http://sodipodi.sourceforge.net/DTD/sodipodi-0.dtd"
   xmlns:inkscape="http://www.inkscape.org/namespaces/inkscape"
   width="300"
   height="300"
   id="svg2"
   inkscape:label="Pozadí"
   version="1.1"
   inkscape:version="0.48.1 "
   sodipodi:docname="1D_x_uloha.svg">
  <sodipodi:namedview
     id="base"
     pagecolor="#ffffff"
     bordercolor="#666666"
     borderopacity="1.0"
     inkscape:pageopacity="0.0"
     inkscape:pageshadow="2"
     inkscape:zoom="1.7235728"
     inkscape:cx="117.32596"
     inkscape:cy="72.14604"
     inkscape:document-units="px"
     inkscape:current-layer="layer6"
     showgrid="false"
     inkscape:window-width="1831"
     inkscape:window-height="1173"
     inkscape:window-x="2000"
     inkscape:window-y="-9"
     inkscape:window-maximized="1" />
  <defs
     id="defs5318">
    <linearGradient
       id="linearGradient11116"
       inkscape:collect="always">
      <stop
         id="stop11118"
         offset="0"
         style="stop-color:#000000;stop-opacity:1;" />
      <stop
         id="stop11120"
         offset="1"
         style="stop-color:#000000;stop-opacity:0;" />
    </linearGradient>
    <marker
       style="overflow:visible;"
       id="Arrow1Mend"
       refX="0.0"
       refY="0.0"
       orient="auto"
       inkscape:stockid="Arrow1Mend">
      <path
         transform="scale(0.4) rotate(180) translate(10,0)"
         style="fill-rule:evenodd;stroke:#000000;stroke-width:1.0pt;marker-start:none;"
         d="M 0.0,0.0 L 5.0,-5.0 L -12.5,0.0 L 5.0,5.0 L 0.0,0.0 z "
         id="path5270" />
    </marker>
    <marker
       style="overflow:visible"
       id="Arrow1Mend-1"
       refX="0"
       refY="0"
       orient="auto"
       inkscape:stockid="Arrow1Mend">
      <path
         transform="matrix(-0.4,0,0,-0.4,-4,0)"
         style="fill-rule:evenodd;stroke:#000000;stroke-width:1pt;marker-start:none"
         d="M 0,0 5,-5 -12.5,0 5,5 0,0 z"
         id="path5270-3"
         inkscape:connector-curvature="0" />
    </marker>
    <marker
       style="overflow:visible"
       id="Arrow1Mend-6"
       refX="0"
       refY="0"
       orient="auto"
       inkscape:stockid="Arrow1Mend">
      <path
         transform="matrix(-0.4,0,0,-0.4,-4,0)"
         style="fill-rule:evenodd;stroke:#000000;stroke-width:1pt;marker-start:none"
         d="M 0,0 5,-5 -12.5,0 5,5 0,0 z"
         id="path5270-4"
         inkscape:connector-curvature="0" />
    </marker>
    <marker
       style="overflow:visible"
       id="Arrow1Mend-7"
       refX="0"
       refY="0"
       orient="auto"
       inkscape:stockid="Arrow1Mend">
      <path
         transform="matrix(-0.4,0,0,-0.4,-4,0)"
         style="fill-rule:evenodd;stroke:#000000;stroke-width:1pt;marker-start:none"
         d="M 0,0 5,-5 -12.5,0 5,5 0,0 z"
         id="path5270-0"
         inkscape:connector-curvature="0" />
    </marker>
    <marker
       style="overflow:visible"
       id="Arrow1Mend-2"
       refX="0"
       refY="0"
       orient="auto"
       inkscape:stockid="Arrow1Mend">
      <path
         transform="matrix(-0.4,0,0,-0.4,-4,0)"
         style="fill-rule:evenodd;stroke:#000000;stroke-width:1pt;marker-start:none"
         d="M 0,0 5,-5 -12.5,0 5,5 0,0 z"
         id="path5270-6"
         inkscape:connector-curvature="0" />
    </marker>
    <marker
       style="overflow:visible"
       id="Arrow1Mend-9"
       refX="0"
       refY="0"
       orient="auto"
       inkscape:stockid="Arrow1Mend">
      <path
         transform="matrix(-0.4,0,0,-0.4,-4,0)"
         style="fill-rule:evenodd;stroke:#000000;stroke-width:1pt;marker-start:none"
         d="M 0,0 5,-5 -12.5,0 5,5 0,0 z"
         id="path5270-2"
         inkscape:connector-curvature="0" />
    </marker>
    <marker
       style="overflow:visible"
       id="Arrow1Mend-0"
       refX="0"
       refY="0"
       orient="auto"
       inkscape:stockid="Arrow1Mend">
      <path
         transform="matrix(-0.4,0,0,-0.4,-4,0)"
         style="fill-rule:evenodd;stroke:#000000;stroke-width:1pt;marker-start:none"
         d="M 0,0 5,-5 -12.5,0 5,5 0,0 z"
         id="path5270-1"
         inkscape:connector-curvature="0" />
    </marker>
    <marker
       style="overflow:visible"
       id="Arrow1Mend-4"
       refX="0"
       refY="0"
       orient="auto"
       inkscape:stockid="Arrow1Mend">
      <path
         transform="matrix(-0.4,0,0,-0.4,-4,0)"
         style="fill-rule:evenodd;stroke:#000000;stroke-width:1pt;marker-start:none"
         d="M 0,0 5,-5 -12.5,0 5,5 0,0 z"
         id="path5270-7"
         inkscape:connector-curvature="0" />
    </marker>
    <marker
       style="overflow:visible"
       id="Arrow1Mend-5"
       refX="0"
       refY="0"
       orient="auto"
       inkscape:stockid="Arrow1Mend">
      <path
         transform="matrix(-0.4,0,0,-0.4,-4,0)"
         style="fill-rule:evenodd;stroke:#000000;stroke-width:1pt;marker-start:none"
         d="M 0,0 5,-5 -12.5,0 5,5 0,0 z"
         id="path5270-61"
         inkscape:connector-curvature="0" />
    </marker>
    <marker
       style="overflow:visible"
       id="marker11058"
       refX="0"
       refY="0"
       orient="auto"
       inkscape:stockid="Arrow1Mend">
      <path
         transform="matrix(-0.4,0,0,-0.4,-4,0)"
         style="fill-rule:evenodd;stroke:#000000;stroke-width:1pt;marker-start:none"
         d="M 0,0 5,-5 -12.5,0 5,5 0,0 z"
         id="path11060"
         inkscape:connector-curvature="0" />
    </marker>
    <marker
       style="overflow:visible"
       id="marker11062"
       refX="0"
       refY="0"
       orient="auto"
       inkscape:stockid="Arrow1Mend">
      <path
         transform="matrix(-0.4,0,0,-0.4,-4,0)"
         style="fill-rule:evenodd;stroke:#000000;stroke-width:1pt;marker-start:none"
         d="M 0,0 5,-5 -12.5,0 5,5 0,0 z"
         id="path11064"
         inkscape:connector-curvature="0" />
    </marker>
    <marker
       style="overflow:visible"
       id="marker11066"
       refX="0"
       refY="0"
       orient="auto"
       inkscape:stockid="Arrow1Mend">
      <path
         transform="matrix(-0.4,0,0,-0.4,-4,0)"
         style="fill-rule:evenodd;stroke:#000000;stroke-width:1pt;marker-start:none"
         d="M 0,0 5,-5 -12.5,0 5,5 0,0 z"
         id="path11068"
         inkscape:connector-curvature="0" />
    </marker>
    <marker
       style="overflow:visible"
       id="marker11070"
       refX="0"
       refY="0"
       orient="auto"
       inkscape:stockid="Arrow1Mend">
      <path
         transform="matrix(-0.4,0,0,-0.4,-4,0)"
         style="fill-rule:evenodd;stroke:#000000;stroke-width:1pt;marker-start:none"
         d="M 0,0 5,-5 -12.5,0 5,5 0,0 z"
         id="path11072"
         inkscape:connector-curvature="0" />
    </marker>
    <linearGradient
       gradientTransform="matrix(0.99502488,0,0,0.95211039,0.96747033,106.93598)"
       gradientUnits="userSpaceOnUse"
       y2="129.9427"
       x2="221.90868"
       y1="129.74359"
       x1="83.515854"
       id="linearGradient11122"
       xlink:href="#linearGradient11116"
       inkscape:collect="always" />
    <marker
       inkscape:stockid="Arrow1Mend"
       orient="auto"
       refY="0"
       refX="0"
       id="Arrow1Mend-10"
       style="overflow:visible">
      <path
         inkscape:connector-curvature="0"
         id="path5270-31"
         d="M 0,0 5,-5 -12.5,0 5,5 0,0 z"
         style="fill-rule:evenodd;stroke:#000000;stroke-width:1pt;marker-start:none"
         transform="matrix(-0.4,0,0,-0.4,-4,0)" />
    </marker>
  </defs>
  <metadata
     id="metadata5321">
    <rdf:RDF>
      <cc:Work
         rdf:about="">
        <dc:format>image/svg+xml</dc:format>
        <dc:type
           rdf:resource="http://purl.org/dc/dcmitype/StillImage" />
        <dc:title />
      </cc:Work>
    </rdf:RDF>
  </metadata>
  <g
     inkscape:label="circle1"
     inkscape:groupmode="layer"
     id="layer1"
     transform="translate(0,-752.36218)" />
  <g
     transform="translate(0,-100)"
     inkscape:groupmode="layer"
     id="layer4"
     inkscape:label="circle2" />
  <g
     transform="translate(0,-100)"
     inkscape:groupmode="layer"
     id="layer5"
     inkscape:label="circle3" />
  <g
     transform="translate(0,-100)"
     inkscape:groupmode="layer"
     id="layer6"
     inkscape:label="other"
     style="display:inline;opacity:0.87820513">
    <path
       sodipodi:nodetypes="cc"
       inkscape:connector-curvature="0"
       id="path9446"
       d="m 122.36361,134.2948 59.53562,-0.53545"
       style="fill:none;stroke:#000000;stroke-width:2;stroke-linecap:butt;stroke-linejoin:miter;stroke-miterlimit:4;stroke-opacity:1;stroke-dasharray:none;marker-end:url(#Arrow1Mend)" />
    <path
       sodipodi:nodetypes="cc"
       inkscape:connector-curvature="0"
       id="path9446-7"
       d="m 122.39505,155.44344 59.53562,-0.53545"
       style="fill:none;stroke:#000000;stroke-width:2;stroke-linecap:butt;stroke-linejoin:miter;stroke-miterlimit:4;stroke-opacity:1;stroke-dasharray:none;marker-end:url(#Arrow1Mend);display:inline" />
    <path
       sodipodi:nodetypes="cc"
       inkscape:connector-curvature="0"
       id="path9446-6"
       d="m 122.56497,176.03066 59.53562,-0.53545"
       style="fill:none;stroke:#000000;stroke-width:2;stroke-linecap:butt;stroke-linejoin:miter;stroke-miterlimit:4;stroke-opacity:1;stroke-dasharray:none;marker-end:url(#Arrow1Mend);display:inline" />
    <path
       sodipodi:nodetypes="cc"
       inkscape:connector-curvature="0"
       id="path9446-9"
       d="m 122.49459,196.35439 59.53562,-0.53545"
       style="fill:none;stroke:#000000;stroke-width:2;stroke-linecap:butt;stroke-linejoin:miter;stroke-miterlimit:4;stroke-opacity:1;stroke-dasharray:none;marker-end:url(#Arrow1Mend);display:inline" />
    <path
       sodipodi:nodetypes="cc"
       inkscape:connector-curvature="0"
       id="path9446-5"
       d="m 122.60016,216.77163 59.53562,-0.53545"
       style="fill:none;stroke:#000000;stroke-width:2;stroke-linecap:butt;stroke-linejoin:miter;stroke-miterlimit:4;stroke-opacity:1;stroke-dasharray:none;marker-end:url(#Arrow1Mend);display:inline" />
    <path
       sodipodi:nodetypes="cc"
       inkscape:connector-curvature="0"
       id="path9446-79"
       d="m 123.25074,236.72031 59.53562,-0.53545"
       style="fill:none;stroke:#000000;stroke-width:2;stroke-linecap:butt;stroke-linejoin:miter;stroke-miterlimit:4;stroke-opacity:1;stroke-dasharray:none;marker-end:url(#Arrow1Mend);display:inline" />
    <path
       sodipodi:nodetypes="cc"
       inkscape:connector-curvature="0"
       id="path9446-1"
       d="m 123.83697,256.83891 59.53562,-0.53545"
       style="fill:none;stroke:#000000;stroke-width:2;stroke-linecap:butt;stroke-linejoin:miter;stroke-miterlimit:4;stroke-opacity:1;stroke-dasharray:none;marker-end:url(#Arrow1Mend);display:inline" />
    <path
       sodipodi:nodetypes="cc"
       inkscape:connector-curvature="0"
       id="path9446-3"
       d="m 124.07125,276.85797 59.53562,-0.53545"
       style="fill:none;stroke:#000000;stroke-width:2;stroke-linecap:butt;stroke-linejoin:miter;stroke-miterlimit:4;stroke-opacity:1;stroke-dasharray:none;marker-end:url(#Arrow1Mend);display:inline" />
    <path
       sodipodi:nodetypes="cc"
       inkscape:connector-curvature="0"
       id="path9446-9-7"
       d="m 123.82211,297.09882 59.53562,-0.53545"
       style="fill:none;stroke:#000000;stroke-width:2;stroke-linecap:butt;stroke-linejoin:miter;stroke-miterlimit:4;stroke-opacity:1;stroke-dasharray:none;marker-end:url(#Arrow1Mend);display:inline" />
    <path
       sodipodi:nodetypes="cc"
       inkscape:connector-curvature="0"
       id="path9446-5-9"
       d="m 123.92768,317.51606 59.53562,-0.53545"
       style="fill:none;stroke:#000000;stroke-width:2;stroke-linecap:butt;stroke-linejoin:miter;stroke-miterlimit:4;stroke-opacity:1;stroke-dasharray:none;marker-end:url(#Arrow1Mend);display:inline" />
    <path
       sodipodi:nodetypes="cc"
       inkscape:connector-curvature="0"
       id="path9446-79-6"
       d="m 124.57826,337.46474 59.53562,-0.53545"
       style="fill:none;stroke:#000000;stroke-width:2;stroke-linecap:butt;stroke-linejoin:miter;stroke-miterlimit:4;stroke-opacity:1;stroke-dasharray:none;marker-end:url(#Arrow1Mend);display:inline" />
    <path
       sodipodi:nodetypes="cc"
       inkscape:connector-curvature="0"
       id="path9446-1-8"
       d="m 125.16449,357.58334 59.53562,-0.53545"
       style="fill:none;stroke:#000000;stroke-width:2;stroke-linecap:butt;stroke-linejoin:miter;stroke-miterlimit:4;stroke-opacity:1;stroke-dasharray:none;marker-end:url(#Arrow1Mend);display:inline" />
    <rect
       y="126.5641"
       x="112.41026"
       height="240.61539"
       width="82.051285"
       id="rect11114"
       style="fill:url(#linearGradient11122);fill-opacity:1;stroke:none" />
    <g
       style="font-style:normal;font-variant:normal;font-weight:normal;font-stretch:normal;letter-spacing:normal;word-spacing:normal;text-anchor:start;fill:none;stroke:#000000;stroke-width:1.20725965;stroke-linecap:butt;stroke-linejoin:miter;stroke-miterlimit:10.43299961;stroke-opacity:1;stroke-dasharray:none;stroke-dashoffset:0"
       ns0:preamble=""
       ns0:text="$$Q&gt;0$$\n\n"
       word-spacing="normal"
       letter-spacing="normal"
       font-size-adjust="none"
       font-stretch="normal"
       font-weight="normal"
       font-variant="normal"
       font-style="normal"
       stroke-miterlimit="10.433"
       xml:space="preserve"
       transform="matrix(0,-3.3129484,-3.3136292,0,2432.482,1501.4605)"
       id="content">
<path
   id="path11178"
   d="m 386.58,707.18 0.15,0.06 0.14,0.07 0.14,0.07 0.15,0.08 0.14,0.08 0.13,0.09 0.14,0.1 0.14,0.1 0.13,0.11 0.13,0.11 0.12,0.12 0.12,0.12 0.12,0.13 0.12,0.13 0.11,0.13 0.11,0.14 0.1,0.15 0.1,0.15 0.09,0.15 0.09,0.15 0.08,0.16 0.08,0.16 0.07,0.16 0.06,0.17 0.06,0.17 0.05,0.17 0.04,0.17 0.04,0.17 0.03,0.18 0.02,0.18 0.01,0.17 0,0.18 c 0,1.61 -1.05,2.68 -2.54,2.68 l -0.06,-0.25 c 1,0 1.73,-0.77 1.73,-2.11 0,-0.99 -0.51,-3.32 -2.19,-4.26 -0.05,0.35 -0.15,1.08 -0.87,1.08 v -0.22 c 0.42,0 0.6,-0.24 0.6,-0.85 0,-0.15 -0.01,-0.16 -0.11,-0.2 -0.26,-0.11 -0.55,-0.17 -0.83,-0.17 h 0 c -0.14,0 -0.46,0 -0.46,0.42 0,0.4 0.38,0.8 0.8,0.8 v 0.22 c -0.53,0 -1.02,-0.5 -1.02,-1.02 0,-0.2 0.06,-0.31 0.06,-0.32 h 0 c -0.78,0.31 -1.12,1.09 -1.12,1.98 0,0.69 0.26,2.1 1.02,3.18 0.73,1.01 1.66,1.47 2.39,1.47 l 0.06,0.25 c -2.15,0 -4.35,-2.26 -4.35,-4.58 0,-1.65 1.12,-2.65 2.56,-2.65 0.25,0 0.59,0.04 0.97,0.14 -0.04,-0.61 -0.04,-0.63 -0.04,-0.76 0,-0.32 0,-1.1 0.83,-1.1 1.19,0 1.67,1.83 1.67,1.94 0,0.07 -0.07,0.09 -0.11,0.09 -0.08,0 -0.1,-0.05 -0.12,-0.11 -0.24,-0.7 -0.82,-0.95 -1.17,-0.95 -0.46,0 -0.61,0.27 -0.71,1.02 z"
   inkscape:connector-curvature="0"
   style="fill:#000000;stroke-width:0" />
<path
   id="path11180"
   d="m 399.59,709.39 0.02,0.01 0.02,0.01 0.01,0.01 0.01,0 0.01,0.01 0.01,0 0.01,0.01 0,0 0.01,0.01 0.01,0 0.01,0.01 0,0.01 0.01,0 0.01,0.01 0,0 0.01,0.01 0,0.01 0.01,0 0,0.01 0.01,0.01 0,0.01 0.01,0.01 0,0 0,0.01 0.01,0.01 0,0.01 0,0.01 0,0.01 0,0.01 0,0.01 c 0,0.12 -0.08,0.17 -0.19,0.22 l -5.52,2.6 c -0.13,0.07 -0.15,0.07 -0.18,0.07 -0.11,0 -0.2,-0.09 -0.2,-0.2 0,-0.09 0.05,-0.15 0.19,-0.22 l 5.23,-2.47 -5.23,-2.46 c -0.14,-0.07 -0.19,-0.13 -0.19,-0.22 0,-0.11 0.09,-0.2 0.2,-0.2 0.03,0 0.05,0 0.18,0.07 z"
   inkscape:connector-curvature="0"
   style="fill:#000000;stroke-width:0" />
<path
   id="path11182"
   d="m 407.96,710.31 0,0.15 0,0.15 0,0.15 -0.01,0.15 -0.01,0.14 -0.01,0.15 -0.02,0.15 -0.02,0.15 -0.02,0.14 -0.03,0.15 -0.03,0.14 -0.04,0.15 -0.04,0.14 -0.05,0.14 -0.05,0.14 -0.03,0.07 -0.04,0.07 c -0.45,0.95 -1.27,1.11 -1.69,1.11 -0.6,0 -1.33,-0.26 -1.73,-1.18 -0.32,-0.69 -0.37,-1.46 -0.37,-2.26 0,-0.75 0.04,-1.64 0.44,-2.4 0.43,-0.81 1.16,-1 1.65,-1 v 0.22 c -0.39,0 -0.98,0.24 -1.16,1.2 -0.11,0.6 -0.11,1.51 -0.11,2.1 0,0.64 0,1.29 0.08,1.83 0.19,1.19 0.94,1.27 1.19,1.27 0.33,0 0.99,-0.18 1.18,-1.16 0.1,-0.56 0.1,-1.31 0.1,-1.94 0,-0.75 0,-1.42 -0.12,-2.06 -0.14,-0.95 -0.71,-1.24 -1.16,-1.24 h 0 v -0.22 c 0.54,0 1.29,0.2 1.73,1.15 0.32,0.69 0.37,1.46 0.37,2.25 z"
   inkscape:connector-curvature="0"
   style="fill:#000000;stroke-width:0" />
</g>    <path
       id="path7056"
       d="m 290.0675,262.88641 0.0286,-0.085 0,-0.085 0.0286,-0.085 0.0286,-0.11334 0.0286,-0.085 0.0286,-0.14167 0.0573,-0.11334 0.0286,-0.11335 0.0573,-0.14167 0.0573,-0.14168 0.0286,-0.14167 0.0573,-0.14168 0.0859,-0.14168 0.0573,-0.14167 0.0859,-0.14168 0.0573,-0.11334 0.0859,-0.14168 0.11455,-0.14167 0.0859,-0.14168 0.0859,-0.11334 0.11455,-0.11334 0.11455,-0.11334 0.11454,-0.11334 0.14318,-0.11334 0.11455,-0.085 0.14318,-0.085 0.0859,-0.0283 0.0573,-0.0283 0.0859,-0.0567 0.0859,-0.0283 0.0573,0 0.0859,-0.0283 0.0859,-0.0283 0.0859,0 0.0859,-0.0283 0.0859,0 0.0859,0 0.11454,0 c 0.14318,0 0.83046,0 1.43182,0.34002 -0.80182,0.14168 -1.37454,0.85006 -1.37454,1.5301 0,0.45337 0.315,0.99174 1.08818,0.99174 0.63,0 1.51772,-0.51004 1.51772,-1.64345 0,-1.47343 -1.6609,-1.84179 -2.63454,-1.84179 -1.66091,0 -2.66318,1.47343 -3.00682,2.12514 -0.71591,-1.84179 -2.26227,-2.12514 -3.09273,-2.12514 -2.94954,0 -4.58181,3.62691 -4.58181,4.33529 0,0.28336 0.28636,0.28336 0.34363,0.28336 0.22909,0 0.315,-0.0567 0.37227,-0.31169 0.97364,-3.00354 2.86364,-3.68358 3.80864,-3.68358 0.54409,0 1.54636,0.22668 1.54636,1.87012 0,0.8784 -0.48681,2.77686 -1.54636,6.71546 -0.45818,1.75678 -1.43182,2.94686 -2.69182,2.94686 -0.17182,0 -0.83045,0 -1.43182,-0.36835 0.71591,-0.14168 1.34591,-0.73672 1.34591,-1.53011 0,-0.76505 -0.63,-0.99173 -1.05954,-0.99173 -0.85909,0 -1.575,0.73671 -1.575,1.64344 0,1.27509 1.43182,1.84179 2.69182,1.84179 1.89,0 2.89227,-1.95513 2.97818,-2.12514 0.34363,1.04841 1.37454,2.12514 3.09273,2.12514 2.94954,0 4.58181,-3.62691 4.58181,-4.33529 0,-0.28335 -0.25772,-0.28335 -0.34363,-0.28335 -0.25773,0 -0.315,0.11334 -0.37228,0.31169 -0.945,3.03187 -2.89227,3.71191 -3.80863,3.71191 -1.11682,0 -1.575,-0.90672 -1.575,-1.87012 0,-0.62338 0.17182,-1.24675 0.48682,-2.49351 z"
       inkscape:connector-curvature="0"
       style="font-style:normal;font-variant:normal;font-weight:normal;font-stretch:normal;letter-spacing:normal;word-spacing:normal;text-anchor:start;fill:#000000;stroke:#000000;stroke-width:0;stroke-linecap:butt;stroke-linejoin:miter;stroke-miterlimit:10.43299961;stroke-opacity:1;stroke-dasharray:none;stroke-dashoffset:0" />
    <path
       style="fill:none;stroke:#000000;stroke-width:1.99999988;stroke-linecap:butt;stroke-linejoin:miter;stroke-miterlimit:4;stroke-opacity:1;stroke-dasharray:none;marker-end:url(#Arrow1Mend)"
       d="M 3.6522256,246.66473 290.08356,246.91457"
       id="path5161"
       inkscape:connector-curvature="0" />
  </g>
  <g
     transform="translate(0,-100)"
     inkscape:groupmode="layer"
     id="layer7"
     inkscape:label="proud"
     style="display:inline">
    <path
       inkscape:connector-curvature="0"
       id="path10380"
       d="m 199.75282,119.82403 0,253.53846"
       style="fill:#000000;fill-opacity:1;stroke:#000000;stroke-width:10;stroke-linecap:butt;stroke-linejoin:miter;stroke-miterlimit:4;stroke-opacity:1;stroke-dasharray:none" />
    <path
       inkscape:connector-curvature="0"
       id="path10380-8"
       d="m 107.45784,120.06057 0,253.53846"
       style="fill:#000000;fill-opacity:1;stroke:#000000;stroke-width:10;stroke-linecap:butt;stroke-linejoin:miter;stroke-miterlimit:4;stroke-opacity:1;stroke-dasharray:none;display:inline" />
    <g
       transform="matrix(0,-1,1,0,-72.06375,536.07001)"
       id="g10952">
      <path
         sodipodi:type="arc"
         style="fill:none;stroke:#0000ff;stroke-width:1.68051994;stroke-linecap:round;stroke-miterlimit:4;stroke-opacity:1;stroke-dasharray:none;stroke-dashoffset:0"
         id="path5102"
         sodipodi:cx="101.6908"
         sodipodi:cy="271.1412"
         sodipodi:rx="2.8726213"
         sodipodi:ry="2.8726213"
         d="m 104.56342,271.1412 c 0,1.58651 -1.28611,2.87263 -2.87262,2.87263 -1.5865,0 -2.872618,-1.28612 -2.872618,-2.87263 0,-1.5865 1.286118,-2.87262 2.872618,-2.87262 1.58651,0 2.87262,1.28612 2.87262,2.87262 z"
         transform="matrix(1.1947308,0,0,1.1855028,167.9749,7.20096)" />
      <path
         style="fill:#0000ff;stroke:#0000ff;stroke-width:2.99999976;stroke-linecap:butt;stroke-linejoin:miter;stroke-miterlimit:4;stroke-opacity:1;stroke-dasharray:none"
         d="m 289.42222,276.65916 -0.23705,49.44535"
         id="path5100"
         inkscape:connector-curvature="0" />
    </g>
    <g
       transform="matrix(0,-1,1,0,-2.3597157,508.90995)"
       id="g10948">
      <path
         sodipodi:type="arc"
         style="fill:none;stroke:#ff0000;stroke-width:1.56967509;stroke-linecap:round;stroke-miterlimit:4;stroke-opacity:1;stroke-dasharray:none;stroke-dashoffset:0"
         id="path5102-0"
         sodipodi:cx="101.6908"
         sodipodi:cy="271.1412"
         sodipodi:rx="2.8726213"
         sodipodi:ry="2.8726213"
         d="m 104.56342,271.1412 c 0,1.58651 -1.28611,2.87263 -2.87262,2.87263 -1.5865,0 -2.872618,-1.28612 -2.872618,-2.87263 0,-1.5865 1.286118,-2.87262 2.872618,-2.87262 1.58651,0 2.87262,1.28612 2.87262,2.87262 z"
         transform="matrix(1.279105,0,0,-1.2692122,131.97314,396.83925)" />
      <path
         style="fill:none;stroke:#ff0000;stroke-width:3;stroke-linecap:round;stroke-linejoin:miter;stroke-miterlimit:4;stroke-opacity:1;stroke-dasharray:none"
         d="M 262.38433,103.53668 262.14728,57.63683"
         id="path5100-1-8"
         inkscape:connector-curvature="0" />
    </g>
  </g>
</svg>
