<?xml version="1.0" encoding="UTF-8" standalone="no"?>
<!-- Created with Inkscape (http://www.inkscape.org/) -->

<svg
   xmlns:ns0="http://www.iki.fi/pav/software/textext/"
   xmlns:dc="http://purl.org/dc/elements/1.1/"
   xmlns:cc="http://creativecommons.org/ns#"
   xmlns:rdf="http://www.w3.org/1999/02/22-rdf-syntax-ns#"
   xmlns:svg="http://www.w3.org/2000/svg"
   xmlns="http://www.w3.org/2000/svg"
   xmlns:sodipodi="http://sodipodi.sourceforge.net/DTD/sodipodi-0.dtd"
   xmlns:inkscape="http://www.inkscape.org/namespaces/inkscape"
   width="260"
   height="190"
   id="svg2"
   inkscape:label="Pozadí"
   version="1.1"
   inkscape:version="0.48.0 r9654"
   sodipodi:docname="trajectory_wheel_carriage.svg"
   style="display:inline">
  <sodipodi:namedview
     id="base"
     pagecolor="#ffffff"
     bordercolor="#666666"
     borderopacity="1.0"
     inkscape:pageopacity="0.0"
     inkscape:pageshadow="2"
     inkscape:zoom="3.959798"
     inkscape:cx="114.56597"
     inkscape:cy="85.471529"
     inkscape:document-units="px"
     inkscape:current-layer="layer3"
     showgrid="false"
     inkscape:window-width="1920"
     inkscape:window-height="1125"
     inkscape:window-x="-9"
     inkscape:window-y="-9"
     inkscape:window-maximized="1" />
  <defs
     id="defs4022">
    <inkscape:path-effect
       is_visible="true"
       id="path-effect7075"
       effect="spiro" />
    <marker
       style="overflow:visible"
       id="Arrow1Lend"
       refX="0"
       refY="0"
       orient="auto"
       inkscape:stockid="Arrow1Lend">
      <path
         transform="matrix(-0.8,0,0,-0.8,-10,0)"
         style="fill-rule:evenodd;stroke:#000000;stroke-width:1pt;marker-start:none"
         d="M 0,0 5,-5 -12.5,0 5,5 0,0 z"
         id="path4535"
         inkscape:connector-curvature="0" />
    </marker>
    <marker
       style="overflow:visible"
       id="Arrow2Lend"
       refX="0"
       refY="0"
       orient="auto"
       inkscape:stockid="Arrow2Lend">
      <path
         transform="matrix(-1.1,0,0,-1.1,-1.1,0)"
         d="M 8.7185878,4.0337352 -2.2072895,0.01601326 8.7185884,-4.0017078 c -1.7454984,2.3720609 -1.7354408,5.6174519 -6e-7,8.035443 z"
         style="font-size:12px;fill-rule:evenodd;stroke-width:0.625;stroke-linejoin:round"
         id="path4553"
         inkscape:connector-curvature="0" />
    </marker>
    <inkscape:path-effect
       is_visible="true"
       id="path-effect4134"
       effect="spiro" />
    <inkscape:path-effect
       is_visible="true"
       id="path-effect4130"
       effect="spiro" />
    <inkscape:path-effect
       is_visible="true"
       id="path-effect3821"
       effect="spiro" />
    <marker
       style="overflow:visible"
       id="Arrow2Lstart"
       refX="0"
       refY="0"
       orient="auto"
       inkscape:stockid="Arrow2Lstart">
      <path
         inkscape:connector-curvature="0"
         transform="matrix(1.1,0,0,1.1,1.1,0)"
         d="M 8.7185878,4.0337352 -2.2072895,0.01601326 8.7185884,-4.0017078 c -1.7454984,2.3720609 -1.7354408,5.6174519 -6e-7,8.035443 z"
         style="font-size:12px;fill-rule:evenodd;stroke-width:0.625;stroke-linejoin:round"
         id="path5143" />
    </marker>
    <inkscape:path-effect
       is_visible="true"
       id="path-effect5198"
       effect="spiro" />
    <inkscape:path-effect
       is_visible="true"
       id="path-effect5194"
       effect="spiro" />
    <marker
       style="overflow:visible"
       id="Arrow1Lstart"
       refX="0"
       refY="0"
       orient="auto"
       inkscape:stockid="Arrow1Lstart">
      <path
         inkscape:connector-curvature="0"
         transform="matrix(0.8,0,0,0.8,10,0)"
         style="fill-rule:evenodd;stroke:#000000;stroke-width:1pt;marker-start:none"
         d="M 0,0 5,-5 -12.5,0 5,5 0,0 z"
         id="path4569" />
    </marker>
    <inkscape:path-effect
       is_visible="true"
       id="path-effect4564"
       effect="spiro" />
    <inkscape:path-effect
       is_visible="true"
       id="path-effect4560"
       effect="spiro" />
    <marker
       style="overflow:visible"
       id="Arrow1Lstart-3"
       refX="0"
       refY="0"
       orient="auto"
       inkscape:stockid="Arrow1Lstart">
      <path
         transform="matrix(0.8,0,0,0.8,10,0)"
         style="fill-rule:evenodd;stroke:#000000;stroke-width:1pt;marker-start:none"
         d="M 0,0 5,-5 -12.5,0 5,5 0,0 z"
         id="path4569-1"
         inkscape:connector-curvature="0" />
    </marker>
    <inkscape:path-effect
       is_visible="true"
       id="path-effect5198-9"
       effect="spiro" />
    <inkscape:path-effect
       is_visible="true"
       id="path-effect5194-1"
       effect="spiro" />
    <inkscape:path-effect
       is_visible="true"
       id="path-effect5194-1-1"
       effect="spiro" />
    <inkscape:path-effect
       is_visible="true"
       id="path-effect3821-9"
       effect="spiro" />
    <inkscape:path-effect
       is_visible="true"
       id="path-effect4134-0"
       effect="spiro" />
  </defs>
  <metadata
     id="metadata4025">
    <rdf:RDF>
      <cc:Work
         rdf:about="">
        <dc:format>image/svg+xml</dc:format>
        <dc:type
           rdf:resource="http://purl.org/dc/dcmitype/StillImage" />
        <dc:title></dc:title>
      </cc:Work>
    </rdf:RDF>
  </metadata>
  <g
     transform="translate(0,-40)"
     inkscape:label="obrys"
     id="layer4"
     inkscape:groupmode="layer"
     style="display:inline" />
  <g
     style="display:inline"
     transform="translate(0,-862.36218)"
     inkscape:label="svg"
     id="layer2"
     inkscape:groupmode="layer">
    <path
       inkscape:connector-curvature="0"
       inkscape:original-d="m 241.29601,1017.6794 c -78.27856,-12.7299 -166.07864,11.2671 -239.220657,0.5519"
       inkscape:path-effect="#path-effect4564"
       id="path4562"
       d="M 241.29601,1017.6794 2.075353,1018.2313"
       style="fill:none;stroke:#000000;stroke-width:1.5;stroke-linecap:butt;stroke-linejoin:miter;stroke-miterlimit:4;stroke-opacity:1;stroke-dasharray:none;marker-start:url(#Arrow2Lstart)" />
    <path
       sodipodi:open="true"
       sodipodi:end="6.2817011"
       sodipodi:start="0"
       transform="translate(-86,838.36218)"
       d="m 207.91555,151.96571 a 52.857143,53.92857 0 1 1 -5e-5,-0.08"
       sodipodi:ry="53.92857"
       sodipodi:rx="52.857143"
       sodipodi:cy="151.96571"
       sodipodi:cx="155.05841"
       id="path3029"
       style="fill:#57304e;fill-opacity:0.28975267999999998;fill-rule:nonzero;stroke:#000000;stroke-width:3;stroke-linejoin:round;stroke-miterlimit:10;stroke-opacity:1;stroke-dasharray:none;stroke-dashoffset:0;"
       sodipodi:type="arc" />
    <path
       inkscape:connector-curvature="0"
       inkscape:original-d="M 68.816385,871.24174 C 58.790232,930.13189 62.297062,1006.3757 68.43789,1051.9685"
       inkscape:path-effect="#path-effect4560"
       id="path4558"
       d="M 68.816385,871.24174 68.43789,1051.9685"
       style="fill:none;stroke:#000000;stroke-width:1.5;stroke-linecap:butt;stroke-linejoin:miter;stroke-miterlimit:4;stroke-opacity:1;stroke-dasharray:none;marker-start:url(#Arrow2Lstart)" />
    <text
       sodipodi:linespacing="125%"
       id="text5434"
       y="1028.9258"
       x="243.3105"
       style="font-size:29.92655563px;font-style:oblique;font-variant:normal;font-weight:normal;font-stretch:normal;line-height:125%;letter-spacing:0px;word-spacing:0px;fill:#000000;fill-opacity:1;stroke:none;font-family:Segoe UI;-inkscape-font-specification:Segoe UI Oblique"
       xml:space="preserve"><tspan
         y="1028.9258"
         x="243.3105"
         id="tspan5436"
         sodipodi:role="line">x</tspan></text>
    <text
       sodipodi:linespacing="125%"
       id="text5434-0"
       y="879.17853"
       x="52.391216"
       style="font-size:28.004776px;font-style:oblique;font-variant:normal;font-weight:normal;font-stretch:normal;line-height:125%;letter-spacing:0px;word-spacing:0px;fill:#000000;fill-opacity:1;stroke:none;font-family:Segoe UI;-inkscape-font-specification:Segoe UI Oblique"
       xml:space="preserve"><tspan
         y="879.17853"
         x="52.391216"
         id="tspan5436-9"
         sodipodi:role="line">y</tspan></text>
    <flowRoot
       transform="translate(0,822.36218)"
       style="font-size:40px;font-style:normal;font-variant:normal;font-weight:normal;font-stretch:normal;line-height:125%;letter-spacing:0px;word-spacing:0px;fill:#000000;fill-opacity:1;stroke:none;font-family:Segoe UI;-inkscape-font-specification:Segoe UI"
       id="flowRoot3021"
       xml:space="preserve"><flowRegion
         id="flowRegion3023"><rect
           y="-41.225956"
           x="-8.586297"
           height="276.27673"
           width="553.5636"
           id="rect3025" /></flowRegion><flowPara
         id="flowPara3027" /></flowRoot>    <path
       sodipodi:open="true"
       sodipodi:end="6.2817011"
       sodipodi:start="0"
       transform="matrix(0.93282666,0,0,0.93282666,6.516156,897.72949)"
       d="m 94.954336,99.185249 a 28.53681,28.789347 0 1 1 -3.1e-5,-0.04273"
       sodipodi:ry="28.789347"
       sodipodi:rx="28.53681"
       sodipodi:cy="99.185249"
       sodipodi:cx="66.417526"
       id="path3817"
       style="opacity:0.57051284;fill:#57304e;fill-opacity:0.75971728;fill-rule:nonzero;stroke:#000000;stroke-width:3;stroke-linejoin:round;stroke-miterlimit:10;stroke-opacity:1;stroke-dasharray:none;stroke-dashoffset:0"
       sodipodi:type="arc" />
    <path
       inkscape:connector-curvature="0"
       inkscape:original-d="M 133.62441,990.36407 C 91.989754,989.34276 49.525601,988.38048 8.0539218,990.49034"
       inkscape:path-effect="#path-effect3821"
       id="path3819"
       d="M 133.62441,990.36407 8.0539218,990.49034"
       style="fill:none;stroke:#000000;stroke-width:0.99973238;stroke-linecap:butt;stroke-linejoin:miter;stroke-miterlimit:4;stroke-opacity:1;stroke-dasharray:3.99892951, 0.99973238;stroke-dashoffset:0" />
    <path
       inkscape:connector-curvature="0"
       inkscape:original-d="M 68.823966,962.96032 C 47.972432,962.62273 27.382429,962.7222 8.4668238,963.15926"
       inkscape:path-effect="#path-effect4134"
       id="path4132"
       d="M 68.823966,962.96032 8.4668238,963.15926"
       style="fill:none;stroke:#000000;stroke-width:1px;stroke-linecap:butt;stroke-linejoin:miter;stroke-opacity:1" />
    <path
       inkscape:connector-curvature="0"
       inkscape:original-d="m 8.871134,989.23718 c 0.33759,-8.93895 0.23812,-17.76579 -0.19894,-25.87482"
       inkscape:path-effect="#path-effect4134-0"
       id="path4132-9"
       d="M 8.871134,989.23718 8.672194,963.36236"
       style="fill:none;stroke:#000000;stroke-width:0.42310855;stroke-linecap:butt;stroke-linejoin:miter;stroke-miterlimit:4;stroke-opacity:1;stroke-dasharray:none;marker-start:url(#Arrow2Lstart);marker-mid:none;marker-end:url(#Arrow2Lend);display:inline" />
    <text
       sodipodi:linespacing="125%"
       id="text7069"
       y="979.98828"
       x="-0.37520871"
       style="font-size:12.96275711px;font-style:normal;font-variant:normal;font-weight:normal;font-stretch:normal;line-height:125%;letter-spacing:0px;word-spacing:0px;fill:#000000;fill-opacity:1;stroke:none;font-family:Segoe UI;-inkscape-font-specification:Segoe UI"
       xml:space="preserve"><tspan
         y="979.98828"
         x="-0.37520871"
         id="tspan7071"
         sodipodi:role="line">R</tspan></text>
    <path
       inkscape:connector-curvature="0"
       inkscape:original-d="m 167.98795,917.90197 c -27.05103,2.90749 -53.56085,0.11389 -77.387394,-0.008"
       inkscape:path-effect="#path-effect7075"
       id="path7073"
       d="m 167.98795,917.90197 -77.387394,-0.008"
       style="fill:none;stroke:#000000;stroke-width:1.34376562px;stroke-linecap:butt;stroke-linejoin:miter;stroke-opacity:1;marker-start:url(#Arrow2Lstart)" />
    <g
       ns0:preamble=""
       ns0:text="$v=\\omega R$\n"
       word-spacing="normal"
       letter-spacing="normal"
       font-size-adjust="none"
       font-stretch="normal"
       font-weight="normal"
       font-variant="normal"
       font-style="normal"
       stroke-miterlimit="10.433"
       xml:space="preserve"
       transform="matrix(1.8092521,0,0,-1.8092521,-314.17159,2190.2669)"
       id="content"
       style="font-style:normal;font-variant:normal;font-weight:normal;font-stretch:normal;letter-spacing:normal;word-spacing:normal;text-anchor:start;fill:none;stroke:#000000;stroke-linecap:butt;stroke-linejoin:miter;stroke-miterlimit:10.43299961;stroke-opacity:1;stroke-dasharray:none;stroke-dashoffset:0">
<path
   id="path7320"
   d="m 228.1,710.83 0,0.02 0,0.03 0,0.02 -0.01,0.02 0,0.03 0,0.02 0,0.02 0,0.02 -0.01,0.04 -0.01,0.04 -0.01,0.04 -0.01,0.03 -0.01,0.04 -0.01,0.03 -0.01,0.03 -0.01,0.02 -0.02,0.03 -0.01,0.02 -0.02,0.03 -0.01,0.02 -0.02,0.02 -0.02,0.01 -0.02,0.02 -0.01,0.02 -0.02,0.01 -0.02,0.01 -0.02,0.01 -0.02,0.01 -0.02,0.01 -0.01,0.01 -0.02,0 -0.02,0.01 -0.02,0 -0.02,0 -0.01,0 -0.02,0 c -0.25,0 -0.49,-0.25 -0.49,-0.47 0,-0.13 0.05,-0.19 0.16,-0.3 0.21,-0.2 0.34,-0.46 0.34,-0.82 0,-0.42 -0.61,-2.7 -1.78,-2.7 -0.5,0 -0.73,0.35 -0.73,0.87 0,0.56 0.27,1.28 0.58,2.11 0.06,0.17 0.11,0.31 0.11,0.5 0,0.45 -0.31,0.81 -0.81,0.81 -0.94,0 -1.32,-1.44 -1.32,-1.53 0,-0.1 0.1,-0.1 0.12,-0.1 0.1,0 0.11,0.02 0.16,0.18 0.29,1.01 0.72,1.23 1.01,1.23 0.08,0 0.25,0 0.25,-0.31 0,-0.25 -0.1,-0.52 -0.17,-0.7 -0.44,-1.15 -0.57,-1.61 -0.57,-2.04 0,-1.08 0.88,-1.23 1.33,-1.23 1.68,0 2.25,3.29 2.25,3.81 z"
   inkscape:connector-curvature="0"
   style="fill:#000000;stroke-width:0" />
<path
   id="path7322"
   d="m 238.23,710.38 0.03,0 0.03,0 0.03,0 0.02,0 0.01,0 0.01,0 0.02,0.01 0.01,0 0.02,0 0.01,0 0.01,0.01 0.02,0 0.01,0 0.01,0.01 0.01,0 0.01,0.01 0.02,0.01 0.01,0.01 0,0 0.01,0.01 0.01,0.01 0,0.01 0.01,0 0,0.01 0,0.01 0.01,0 0,0.01 0,0.01 0,0 0.01,0.01 0,0.01 0,0 0,0.01 0,0.01 0,0.01 0,0.01 0,0.01 c 0,0.2 -0.19,0.2 -0.33,0.2 h -5.97 c -0.14,0 -0.33,0 -0.33,-0.2 0,-0.2 0.19,-0.2 0.34,-0.2 z"
   inkscape:connector-curvature="0"
   style="fill:#000000;stroke-width:0" />
<path
   id="path7324"
   d="m 238.24,708.45 0.03,0 0.03,0 0.03,0 0.01,0 0.01,0 0.02,0 0.01,0.01 0.02,0 0.01,0 0.01,0 0.02,0.01 0.01,0 0.01,0 0.01,0.01 0.01,0 0.02,0.01 0.01,0.01 0.01,0.01 0,0 0.01,0.01 0.01,0.01 0,0 0,0.01 0.01,0 0,0.01 0,0.01 0.01,0 0,0.01 0,0.01 0,0 0.01,0.01 0,0.01 0,0 0,0.01 0,0.01 0,0.01 0,0.01 0,0.01 c 0,0.2 -0.19,0.2 -0.34,0.2 h -5.95 c -0.15,0 -0.34,0 -0.34,-0.2 0,-0.2 0.19,-0.2 0.33,-0.2 z"
   inkscape:connector-curvature="0"
   style="fill:#000000;stroke-width:0" />
<path
   id="path7326"
   d="m 247.93,710.83 0,0.04 0,0.04 0,0.04 -0.01,0.04 0,0.03 -0.01,0.04 0,0.03 -0.01,0.03 -0.01,0.04 -0.01,0.03 -0.01,0.03 -0.01,0.02 -0.01,0.03 -0.01,0.03 -0.01,0.02 -0.01,0.02 -0.02,0.03 -0.01,0.02 -0.02,0.01 -0.01,0.02 -0.02,0.02 -0.02,0.01 -0.01,0.02 -0.02,0.01 -0.02,0.01 -0.02,0.01 -0.02,0.01 -0.02,0 -0.02,0.01 -0.02,0 -0.02,0 -0.02,0 c -0.26,0 -0.52,-0.24 -0.52,-0.46 0,-0.1 0.05,-0.21 0.14,-0.3 0.17,-0.15 0.35,-0.42 0.35,-0.84 0,-0.4 -0.18,-0.96 -0.49,-1.42 -0.3,-0.43 -0.67,-0.77 -1.14,-0.77 -0.57,0 -0.88,0.36 -0.97,0.9 0.11,0.26 0.34,0.89 0.34,1.17 0,0.12 -0.05,0.22 -0.18,0.22 -0.08,0 -0.19,-0.02 -0.27,-0.17 -0.11,-0.2 -0.23,-0.84 -0.23,-1.2 -0.32,-0.47 -0.72,-0.92 -1.35,-0.92 -0.66,0 -0.87,0.59 -0.87,1.15 0,1.24 1.02,2.29 1.02,2.41 0,0.12 -0.08,0.19 -0.19,0.19 -0.13,0 -0.2,-0.13 -0.26,-0.21 -0.51,-0.74 -0.89,-1.93 -0.89,-2.83 0,-0.69 0.23,-1.42 1.05,-1.42 0.71,0 1.17,0.49 1.53,1.04 0.09,-0.58 0.48,-1.04 1.1,-1.04 0.78,0 1.26,0.6 1.62,1.35 0.23,0.49 0.61,1.84 0.61,2.46 z"
   inkscape:connector-curvature="0"
   style="fill:#000000;stroke-width:0" />
<path
   id="path7328"
   d="m 253.64,710.51 0.09,0.02 0.1,0.03 0.09,0.02 0.1,0.03 0.1,0.04 0.09,0.03 0.1,0.04 0.09,0.04 0.1,0.04 0.09,0.05 0.09,0.05 0.09,0.05 0.09,0.05 0.09,0.06 0.08,0.05 0.08,0.06 0.08,0.07 0.07,0.06 0.07,0.07 0.07,0.07 0.06,0.07 0.06,0.07 0.06,0.08 0.05,0.08 0.04,0.08 0.04,0.08 0.04,0.08 0.03,0.09 0.02,0.09 0.02,0.09 0.01,0.09 0,0.09 c 0,0.86 -0.9,1.49 -2.2,1.49 h -2.84 c -0.2,0 -0.29,0 -0.29,-0.2 0,-0.11 0.09,-0.11 0.27,-0.11 0.02,0 0.21,0 0.38,-0.02 0.18,-0.02 0.27,-0.03 0.27,-0.16 0,-0.03 -0.01,-0.07 -0.04,-0.18 l -1.33,-5.35 c -0.1,-0.39 -0.12,-0.47 -0.91,-0.47 -0.18,0 -0.27,0 -0.27,-0.2 0,-0.1 0.12,-0.1 0.14,-0.1 0.28,0 0.98,0.03 1.26,0.03 0.28,0 0.98,-0.03 1.26,-0.03 0.08,0 0.2,0 0.2,0.19 0,0.11 -0.09,0.11 -0.28,0.11 -0.37,0 -0.65,0 -0.65,0.18 0,0.06 0.02,0.11 0.04,0.17 l 0.65,2.64 h 1.19 l -0.01,0.22 h -1.12 l 0.65,2.6 c 0.06,0.23 0.09,0.33 0.28,0.36 0.09,0.01 0.41,0.01 0.61,0.01 0.7,0 1.81,0 1.81,-0.98 0,-0.34 -0.16,-1.03 -0.55,-1.41 -0.25,-0.26 -0.78,-0.58 -1.68,-0.58 l 0.01,-0.22 c 0.91,0 1.09,-0.56 1.09,-0.91 0,-0.15 -0.08,-0.45 -0.14,-0.68 -0.07,-0.28 -0.16,-0.65 -0.16,-0.85 0,-1.07 1.19,-1.07 1.32,-1.07 0.85,0 1.2,1 1.2,1.14 0,0.12 -0.11,0.12 -0.12,0.12 -0.09,0 -0.11,-0.07 -0.13,-0.14 -0.25,-0.74 -0.68,-0.9 -0.91,-0.9 -0.33,0 -0.4,0.21 -0.4,0.6 0,0.31 0.06,0.82 0.1,1.14 0.02,0.14 0.04,0.33 0.04,0.46 0,0.77 -0.67,1.08 -0.93,1.18 z"
   inkscape:connector-curvature="0"
   style="fill:#000000;stroke-width:0" />
</g>  </g>
  <g
     transform="translate(0,-40)"
     style="display:inline"
     inkscape:label="text"
     id="layer3"
     inkscape:groupmode="layer">
    <text
       sodipodi:linespacing="125%"
       id="text3823"
       y="165.00078"
       x="57.835213"
       style="font-size:15.27846336px;font-style:normal;font-variant:normal;font-weight:normal;font-stretch:normal;line-height:125%;letter-spacing:0px;word-spacing:0px;fill:#000007;fill-opacity:1;stroke:none;font-family:Segoe UI;-inkscape-font-specification:Segoe UI"
       xml:space="preserve"><tspan
         y="165.00078"
         x="57.835213"
         id="tspan3825"
         sodipodi:role="line">S</tspan></text>
    <text
       sodipodi:linespacing="125%"
       id="text3827"
       y="208.24344"
       x="58.034554"
       style="font-size:15.27846336px;font-style:normal;font-variant:normal;font-weight:normal;font-stretch:normal;line-height:125%;letter-spacing:0px;word-spacing:0px;fill:#000000;fill-opacity:1;stroke:none;font-family:Segoe UI;-inkscape-font-specification:Segoe UI"
       xml:space="preserve"><tspan
         y="208.24344"
         x="58.034554"
         id="tspan3829"
         sodipodi:role="line">0</tspan></text>
    <text
       sodipodi:linespacing="125%"
       id="text3831"
       y="160.5703"
       x="72.651802"
       style="font-size:15.27846336px;font-style:normal;font-variant:normal;font-weight:normal;font-stretch:normal;line-height:125%;letter-spacing:0px;word-spacing:0px;fill:#ffff00;fill-opacity:1;stroke:none;font-family:Segoe UI;-inkscape-font-specification:Segoe UI"
       xml:space="preserve"><tspan
         y="160.5703"
         x="72.651802"
         id="tspan3833"
         sodipodi:role="line">B<tspan
   id="tspan3923"
   style="font-size:65.00091553%;baseline-shift:sub">1</tspan></tspan></text>
    <path
       transform="translate(48.013979,36.112953)"
       sodipodi:open="true"
       sodipodi:end="6.2817011"
       sodipodi:start="0"
       d="m 22.980971,117.11546 a 2.5253813,2.7779195 0 1 1 -3e-6,-0.004"
       sodipodi:ry="2.7779195"
       sodipodi:rx="2.5253813"
       sodipodi:cy="117.11546"
       sodipodi:cx="20.455589"
       id="path3885"
       style="fill:#ffff00;fill-opacity:1;fill-rule:nonzero;stroke:#ffff00;stroke-width:1.5;stroke-linejoin:round;stroke-miterlimit:4;stroke-opacity:1;stroke-dasharray:none;stroke-dashoffset:0"
       sodipodi:type="arc" />
    <path
       transform="translate(48.013979,23.612305)"
       sodipodi:open="true"
       sodipodi:end="6.2817011"
       sodipodi:start="0"
       d="m 22.980971,117.11546 a 2.5253813,2.7779195 0 1 1 -3e-6,-0.004"
       sodipodi:ry="2.7779195"
       sodipodi:rx="2.5253813"
       sodipodi:cy="117.11546"
       sodipodi:cx="20.455589"
       id="path3885-5"
       style="fill:#ffff00;fill-opacity:1;fill-rule:nonzero;stroke:#ffff00;stroke-width:1.5;stroke-linejoin:round;stroke-miterlimit:4;stroke-opacity:1;stroke-dasharray:none;stroke-dashoffset:0"
       sodipodi:type="arc" />
    <path
       transform="translate(48.013978,4.6719451)"
       sodipodi:open="true"
       sodipodi:end="6.2817011"
       sodipodi:start="0"
       d="m 22.980971,117.11546 a 2.5253813,2.7779195 0 1 1 -3e-6,-0.004"
       sodipodi:ry="2.7779195"
       sodipodi:rx="2.5253813"
       sodipodi:cy="117.11546"
       sodipodi:cx="20.455589"
       id="path3885-5-0"
       style="fill:#ffff00;fill-opacity:1;fill-rule:nonzero;stroke:#ffff00;stroke-width:1.5;stroke-linejoin:round;stroke-miterlimit:4;stroke-opacity:1;stroke-dasharray:none;stroke-dashoffset:0"
       sodipodi:type="arc" />
    <text
       sodipodi:linespacing="125%"
       id="text3831-4"
       y="144.02747"
       x="72.355247"
       style="font-size:15.27846336px;font-style:normal;font-variant:normal;font-weight:normal;font-stretch:normal;line-height:125%;letter-spacing:0px;word-spacing:0px;fill:#ffff00;fill-opacity:1;stroke:none;font-family:Segoe UI;-inkscape-font-specification:Segoe UI"
       xml:space="preserve"><tspan
         y="144.02747"
         x="72.355247"
         id="tspan3833-0"
         sodipodi:role="line">B<tspan
   id="tspan3923-1"
   style="font-size:65.00091553%;baseline-shift:sub">2</tspan></tspan></text>
    <text
       sodipodi:linespacing="125%"
       id="text3831-4-4"
       y="128.03384"
       x="72.165833"
       style="font-size:15.27846336px;font-style:normal;font-variant:normal;font-weight:normal;font-stretch:normal;line-height:125%;letter-spacing:0px;word-spacing:0px;fill:#ffff00;fill-opacity:1;stroke:none;font-family:Segoe UI;-inkscape-font-specification:Segoe UI"
       xml:space="preserve"><tspan
         y="128.03384"
         x="72.165833"
         id="tspan3833-0-3"
         sodipodi:role="line">B<tspan
   id="tspan3923-1-4"
   style="font-size:65.00091553%;baseline-shift:sub">3</tspan></tspan></text>
  </g>
</svg>
