<?xml version="1.0" encoding="UTF-8" standalone="no"?>
<!-- Created with Inkscape (http://www.inkscape.org/) -->

<svg
   xmlns:ns0="http://www.iki.fi/pav/software/textext/"
   xmlns:dc="http://purl.org/dc/elements/1.1/"
   xmlns:cc="http://creativecommons.org/ns#"
   xmlns:rdf="http://www.w3.org/1999/02/22-rdf-syntax-ns#"
   xmlns:svg="http://www.w3.org/2000/svg"
   xmlns="http://www.w3.org/2000/svg"
   xmlns:sodipodi="http://sodipodi.sourceforge.net/DTD/sodipodi-0.dtd"
   xmlns:inkscape="http://www.inkscape.org/namespaces/inkscape"
   width="300"
   height="220"
   id="svg2"
   inkscape:label="Pozadí"
   version="1.1"
   inkscape:version="0.48.4 r9939"
   sodipodi:docname="fey_rotate_sstvb.svg">
  <sodipodi:namedview
     id="base"
     pagecolor="#ffffff"
     bordercolor="#666666"
     borderopacity="1.0"
     inkscape:pageopacity="0.0"
     inkscape:pageshadow="2"
     inkscape:zoom="1.28"
     inkscape:cx="89.376192"
     inkscape:cy="47.440336"
     inkscape:document-units="px"
     inkscape:current-layer="layer1"
     showgrid="false"
     showguides="true"
     inkscape:guide-bbox="true"
     inkscape:window-width="1846"
     inkscape:window-height="1058"
     inkscape:window-x="66"
     inkscape:window-y="-8"
     inkscape:window-maximized="1" />
  <defs
     id="defs10079">
    <inkscape:path-effect
       is_visible="true"
       id="path-effect10766"
       effect="spiro" />
  </defs>
  <metadata
     id="metadata10082">
    <rdf:RDF>
      <cc:Work
         rdf:about="">
        <dc:format>image/svg+xml</dc:format>
        <dc:type
           rdf:resource="http://purl.org/dc/dcmitype/StillImage" />
        <dc:title />
      </cc:Work>
    </rdf:RDF>
  </metadata>
  <g
     transform="translate(0,-832.36218)"
     id="layer1"
     inkscape:groupmode="layer"
     inkscape:label="Vrstva 1">
    <g
       transform="matrix(1.25,0,0,-1.25,-984.06051,6055.1294)"
       id="g3535">
      <path
         inkscape:connector-curvature="0"
         id="path3537"
         style="fill:none;stroke:#000000;stroke-width:0.72000003;stroke-linecap:round;stroke-linejoin:round;stroke-miterlimit:10;stroke-opacity:1;stroke-dasharray:5.04, 3.6;stroke-dashoffset:0"
         d="m 951.6,4106.4 -64.2,-0.6" />
    </g>
    <path
       inkscape:connector-curvature="0"
       id="path7997"
       style="fill:none;stroke:#000000;stroke-width:0.79528666;stroke-linecap:round;stroke-linejoin:round;stroke-miterlimit:10;stroke-opacity:1;stroke-dasharray:none"
       d="m 89.66285,1035.0419 175.10353,0" />
    <path
       inkscape:connector-curvature="0"
       id="path7999"
       style="fill:#000000;fill-opacity:1;fill-rule:evenodd;stroke:none"
       d="m 271.91279,1035.0419 -8.2499,4.5 0.1875,-0.125 c 1.275,-2.55 1.275,-5.55 0,-8.1 l -0.1875,-0.025 8.2499,3.75 z" />
    <path
       inkscape:connector-curvature="0"
       id="path8001"
       style="fill:none;stroke:#c05046;stroke-width:0.75761038;stroke-linecap:round;stroke-linejoin:round;stroke-miterlimit:10;stroke-opacity:1;stroke-dasharray:none"
       d="M 263.69837,977.61354 89.59166,1035.1131" />
    <path
       inkscape:connector-curvature="0"
       id="path8003"
       style="fill:#c05046;fill-opacity:1;fill-rule:evenodd;stroke:none"
       d="m 265.67367,977.29506 -6,6 -0.075,0.3625 c 0.4,-2.825 -0.55,-5.675 -2.5625,-7.6875 l -0.3625,-0.175 9,1.5 z" />
    <path
       inkscape:connector-curvature="0"
       id="path8005"
       style="fill:none;stroke:#000000;stroke-width:0.78212327;stroke-linecap:round;stroke-linejoin:round;stroke-miterlimit:10;stroke-opacity:1;stroke-dasharray:none"
       d="m 89.66285,1035.0419 0,-168.78852" />
    <path
       inkscape:connector-curvature="0"
       id="path8007"
       style="fill:#000000;fill-opacity:1;fill-rule:evenodd;stroke:none"
       d="m 89.84142,864.97046 3.75,8.25 0.275,0.1125 c -2.55,-1.275 -5.55,-1.275 -8.1,0 l 0.325,-0.1125 3.75,-8.25 z" />
    <path
       sodipodi:nodetypes="cc"
       inkscape:connector-curvature="0"
       id="path8009"
       style="fill:none;stroke:#c05046;stroke-width:0.90000004;stroke-linecap:round;stroke-linejoin:round;stroke-miterlimit:10;stroke-opacity:1;stroke-dasharray:none"
       d="M 89.66285,1035.0419 29.76999,874.68475" />
    <path
       inkscape:connector-curvature="0"
       id="path8011"
       style="fill:#c05046;fill-opacity:1;fill-rule:evenodd;stroke:none"
       d="m 29.3057,873.14903 6.75,6.75 0.0125,-0.375 c -2.825,-0.4 -5.6625,0.55 -7.6875,2.5625 l 0.175,0.0625 0.75,-9 z" />
    <text
       y="1039.1545"
       x="274.17523"
       id="text8013"
       style="font-size:15px">
      <tspan
         id="tspan8015"
         y="1039.1545"
         x="274.17523"
         style="font-size:29.99969864px;font-style:italic;font-variant:normal;font-weight:normal;writing-mode:lr-tb;fill:#000000;fill-opacity:1;fill-rule:nonzero;stroke:none;font-family:GARAMOND;-inkscape-font-specification:GARAMOND Italic">x</tspan>
    </text>
    <text
       y="981.04498"
       x="266.47363"
       id="text8017"
       style="font-size:15px">
      <tspan
         id="tspan8019"
         sodipodi:role="line"
         y="981.04498"
         x="266.47363 281.474"
         style="font-size:29.99969864px;font-style:italic;font-variant:normal;font-weight:normal;writing-mode:lr-tb;fill:#9d3d35;fill-opacity:1;fill-rule:nonzero;stroke:none;font-family:GARAMOND;-inkscape-font-specification:GARAMOND Italic">x’</tspan>
    </text>
    <text
       y="876.91156"
       x="10.755547"
       id="text8021"
       style="font-size:15px">
      <tspan
         id="tspan8023"
         sodipodi:role="line"
         y="876.91156"
         x="10.755547 20.760071"
         style="font-size:29.99969864px;font-style:italic;font-variant:normal;font-weight:normal;writing-mode:lr-tb;fill:#9d3d35;fill-opacity:1;fill-rule:nonzero;stroke:none;font-family:GARAMOND;-inkscape-font-specification:GARAMOND Italic">y’</tspan>
    </text>
    <text
       y="862.52063"
       x="79.266296"
       id="text8025"
       style="font-size:15px">
      <tspan
         id="tspan8027"
         y="862.52063"
         x="79.266296"
         style="font-size:29.99969864px;font-style:italic;font-variant:normal;font-weight:normal;writing-mode:lr-tb;fill:#000000;fill-opacity:1;fill-rule:nonzero;stroke:none;font-family:GARAMOND;-inkscape-font-specification:GARAMOND Italic">y</tspan>
    </text>
    <text
       y="928.67938"
       x="100.93945"
       id="text8029"
       style="font-size:15px">
      <tspan
         id="tspan8031"
         y="928.67938"
         x="100.93945"
         style="font-size:17.49959946px;font-variant:normal;font-weight:normal;writing-mode:lr-tb;fill:#000000;fill-opacity:1;fill-rule:nonzero;stroke:none;font-family:ARIAL;-inkscape-font-specification:ARIAL">P</tspan>
    </text>
    <text
       y="931.10461"
       x="112.61438"
       id="text8033"
       style="font-size:15px">
      <tspan
         id="tspan8035"
         y="931.10461"
         x="112.61438"
         style="font-size:11.37330055px;font-variant:normal;font-weight:normal;writing-mode:lr-tb;fill:#000000;fill-opacity:1;fill-rule:nonzero;stroke:none;font-family:ARIAL;-inkscape-font-specification:ARIAL">1</tspan>
    </text>
    <text
       y="928.67938"
       x="212.552"
       id="text8037"
       style="font-size:15px">
      <tspan
         id="tspan8039"
         y="928.67938"
         x="212.552"
         style="font-size:17.49959946px;font-variant:normal;font-weight:normal;writing-mode:lr-tb;fill:#000000;fill-opacity:1;fill-rule:nonzero;stroke:none;font-family:ARIAL;-inkscape-font-specification:ARIAL">P</tspan>
    </text>
    <text
       y="931.10461"
       x="224.22705"
       id="text8041"
       style="font-size:15px">
      <tspan
         id="tspan8043"
         y="931.10461"
         x="224.22705"
         style="font-size:11.37330055px;font-variant:normal;font-weight:normal;writing-mode:lr-tb;fill:#000000;fill-opacity:1;fill-rule:nonzero;stroke:none;font-family:ARIAL;-inkscape-font-specification:ARIAL">2</tspan>
    </text>
    <g
       transform="matrix(1.25,0,0,-1.25,-984.06051,6055.1294)"
       id="g8045">
      <path
         inkscape:connector-curvature="0"
         id="path8047"
         style="fill:none;stroke:#000000;stroke-width:0.72000003;stroke-linecap:round;stroke-linejoin:round;stroke-miterlimit:10;stroke-opacity:1;stroke-dasharray:5.04, 3.6;stroke-dashoffset:0"
         d="m 945.6,4125 7.2,-21" />
    </g>
    <g
       transform="matrix(1.25,0,0,-1.25,-984.06051,6055.1294)"
       id="g8049">
      <path
         inkscape:connector-curvature="0"
         id="path8051"
         style="fill:none;stroke:#000000;stroke-width:0.72000003;stroke-linecap:round;stroke-linejoin:round;stroke-miterlimit:10;stroke-opacity:1;stroke-dasharray:5.04, 3.6;stroke-dashoffset:0"
         d="m 945.6,4125 -58.2,-19.2" />
    </g>
    <path
       inkscape:connector-curvature="0"
       id="path8053"
       style="fill:#c05046;fill-opacity:1;fill-rule:evenodd;stroke:none"
       d="m 208.70203,922.10444 c 0,-1.7125 -1.3875,-3.1 -3.1,-3.1 -1.7125,0 -3.1,1.3875 -3.1,3.1 0,1.7125 1.3875,3.1 3.1,3.1 1.7125,0 3.1,-1.3875 3.1,-3.1 z" />
    <path
       inkscape:connector-curvature="0"
       id="path8055"
       style="fill:none;stroke:#c05046;stroke-width:0.90000004;stroke-linecap:round;stroke-linejoin:round;stroke-miterlimit:10;stroke-opacity:1;stroke-dasharray:none"
       d="m 208.70203,922.10444 c 0,-1.7125 -1.3875,-3.1 -3.1,-3.1 -1.7125,0 -3.1,1.3875 -3.1,3.1 0,1.7125 1.3875,3.1 3.1,3.1 1.7125,0 3.1,-1.3875 3.1,-3.1 z" />
    <path
       inkscape:connector-curvature="0"
       id="path8057"
       style="fill:#c05046;fill-opacity:1;fill-rule:evenodd;stroke:none"
       d="m 128.97699,922.20444 c 0,-1.7125 -1.3875,-3.1 -3.1,-3.1 -1.7125,0 -3.1,1.3875 -3.1,3.1 0,1.7125 1.3875,3.1 3.1,3.1 1.7125,0 3.1,-1.3875 3.1,-3.1 z" />
    <path
       inkscape:connector-curvature="0"
       id="path8059"
       style="fill:none;stroke:#c05046;stroke-width:0.90000004;stroke-linecap:round;stroke-linejoin:round;stroke-miterlimit:10;stroke-opacity:1;stroke-dasharray:none"
       d="m 128.97699,922.20444 c 0,-1.7125 -1.3875,-3.1 -3.1,-3.1 -1.7125,0 -3.1,1.3875 -3.1,3.1 0,1.7125 1.3875,3.1 3.1,3.1 1.7125,0 3.1,-1.3875 3.1,-3.1 z" />
    <text
       y="940.32947"
       x="160.6395"
       id="text8061"
       style="font-size:15px">
      <tspan
         id="tspan8063"
         y="940.32947"
         x="160.6395"
         style="font-size:15.00030041px;font-variant:normal;font-weight:normal;writing-mode:lr-tb;fill:#000000;fill-opacity:1;fill-rule:nonzero;stroke:none;font-family:ARIAL;-inkscape-font-specification:ARIAL">Δ</tspan>
    </text>
    <text
       y="940.32947"
       x="170.65198"
       id="text8065"
       style="font-size:15px">
      <tspan
         id="tspan8067"
         y="940.32947"
         x="170.65198"
         style="font-size:15.00030041px;font-variant:normal;font-weight:normal;writing-mode:lr-tb;fill:#000000;fill-opacity:1;fill-rule:nonzero;stroke:none;font-family:ARIAL;-inkscape-font-specification:ARIAL">x</tspan>
    </text>
    <text
       y="904.90466"
       x="146.85193"
       id="text8069"
       style="font-size:15px">
      <tspan
         id="tspan8071"
         y="904.90466"
         x="146.85193"
         style="font-size:15.00030041px;font-variant:normal;font-weight:normal;writing-mode:lr-tb;fill:#9d3d35;fill-opacity:1;fill-rule:nonzero;stroke:none;font-family:ARIAL;-inkscape-font-specification:ARIAL">Δ</tspan>
    </text>
    <text
       y="904.90466"
       x="156.86447"
       id="text8073"
       style="font-size:15px">
      <tspan
         id="tspan8075"
         sodipodi:role="line"
         y="904.90466"
         x="156.86447 164.36459"
         style="font-size:15.00030041px;font-variant:normal;font-weight:normal;writing-mode:lr-tb;fill:#9d3d35;fill-opacity:1;fill-rule:nonzero;stroke:none;font-family:ARIAL;-inkscape-font-specification:ARIAL">x’</tspan>
    </text>
    <text
       y="908.54205"
       x="205.81458"
       id="text8077"
       style="font-size:15px">
      <tspan
         id="tspan8079"
         y="908.54205"
         x="205.81458"
         style="font-size:15.00030041px;font-variant:normal;font-weight:normal;writing-mode:lr-tb;fill:#9d3d35;fill-opacity:1;fill-rule:nonzero;stroke:none;font-family:ARIAL;-inkscape-font-specification:ARIAL">Δ</tspan>
    </text>
    <text
       y="908.54205"
       x="215.82703"
       id="text8081"
       style="font-size:15px">
      <tspan
         id="tspan8083"
         sodipodi:role="line"
         y="908.54205"
         x="215.82703 223.32727"
         style="font-size:15.00030041px;font-variant:normal;font-weight:normal;writing-mode:lr-tb;fill:#9d3d35;fill-opacity:1;fill-rule:nonzero;stroke:none;font-family:ARIAL;-inkscape-font-specification:ARIAL">y’</tspan>
    </text>
    <g
       transform="matrix(1.25,0,0,-1.25,-984.06051,6055.1294)"
       id="g8321">
      <path
         inkscape:connector-curvature="0"
         id="path8323"
         style="fill:none;stroke:#000000;stroke-width:0.72000003;stroke-linecap:round;stroke-linejoin:round;stroke-miterlimit:10;stroke-opacity:1;stroke-dasharray:0.72, 1.44;stroke-dashoffset:0"
         d="m 934.38,4106.41 c 0.87,3.51 0.37,7.71 -1.26,10.71" />
    </g>
    <path
       inkscape:connector-curvature="0"
       id="path8325"
       style="fill:#000000;fill-opacity:1;fill-rule:evenodd;stroke:none"
       d="m 179.93949,905.62944 5.25,2.25 0.075,0.175 c -1.85,0.4125 -3.4125,1.6625 -4.2,3.3875 l -0.375,0.1875 -0.75,-6 z" />
    <flowRoot
       style="font-size:40px;font-style:normal;font-variant:normal;font-weight:normal;font-stretch:normal;line-height:125%;letter-spacing:0px;word-spacing:0px;fill:#000000;fill-opacity:1;stroke:none;font-family:Segoe UI;-inkscape-font-specification:Segoe UI"
       id="flowRoot10772"
       xml:space="preserve"><flowRegion
         id="flowRegion10774"><rect
           y="-11553.328"
           x="-12020.815"
           height="11207.643"
           width="39138.359"
           id="rect10776" /></flowRegion><flowPara
         id="flowPara10778" /></flowRoot>    <flowRoot
       style="font-size:40px;font-style:normal;font-variant:normal;font-weight:normal;font-stretch:normal;line-height:125%;letter-spacing:0px;word-spacing:0px;fill:#000000;fill-opacity:1;stroke:none;font-family:Segoe UI;-inkscape-font-specification:Segoe UI"
       id="flowRoot10780"
       xml:space="preserve"><flowRegion
         id="flowRegion10782"><rect
           y="1209.9495"
           x="8732.7686"
           height="141.42136"
           width="141.42136"
           id="rect10784" /></flowRegion><flowPara
         id="flowPara10786" /></flowRoot>    <g
       ns0:preamble=""
       ns0:text="$$\\vartheta$$\n"
       word-spacing="normal"
       letter-spacing="normal"
       font-size-adjust="none"
       font-stretch="normal"
       font-weight="normal"
       font-variant="normal"
       font-style="normal"
       stroke-miterlimit="10.433"
       xml:space="preserve"
       transform="matrix(1.9152036,0,0,-1.9152036,-583.59096,2275.1044)"
       id="content-33"
       style="font-style:normal;font-variant:normal;font-weight:normal;font-stretch:normal;letter-spacing:normal;word-spacing:normal;text-anchor:start;fill:none;stroke:#000000;stroke-linecap:butt;stroke-linejoin:miter;stroke-miterlimit:10.43299961;stroke-opacity:1;stroke-dasharray:none;stroke-dashoffset:0">
<path
   id="path10939-7"
   d="m 397.44,710.67 0.01,0.08 0.02,0.07 0.02,0.08 0.01,0.07 0.02,0.07 0.01,0.07 0.01,0.06 0.01,0.07 0.01,0.06 0.01,0.06 0.01,0.06 0.01,0.06 0,0.05 0.01,0.05 0.01,0.05 0,0.05 0,0.05 0.01,0.04 0,0.05 0,0.04 0.01,0.03 0,0.04 0,0.03 0,0.03 0,0.03 0,0.03 0,0.02 0,0.03 0,0.02 0,0.01 0.01,0.02 0,0.01 c 0,0.37 -0.06,1.98 -1.11,1.98 l -0.01,-0.22 c 0.25,0 0.52,-0.15 0.52,-1.18 0,-0.63 -0.16,-1.31 -0.29,-1.87 h 0 c -0.49,0.17 -1.45,0.55 -1.45,1.46 0,0.62 0.52,1.59 1.22,1.59 l 0.01,0.22 c -0.83,0 -1.48,-1.04 -1.48,-1.82 0,-0.97 0.94,-1.44 1.64,-1.67 -0.22,-0.9 -0.38,-1.48 -0.71,-2.15 -0.13,-0.28 -0.61,-1.27 -1.2,-1.27 -0.67,0 -0.73,0.51 -0.73,0.8 0,0.26 0.08,0.58 0.13,0.81 0.06,0.25 0.12,0.46 0.19,0.76 l 0.11,0.48 c 0.06,0.17 0.1,0.38 0.1,0.53 0,0.6 -0.44,0.91 -0.9,0.91 -0.46,0 -0.65,-0.38 -0.74,-0.56 -0.18,-0.34 -0.31,-0.94 -0.31,-0.97 0,-0.1 0.1,-0.1 0.12,-0.1 0.1,0 0.11,0.01 0.17,0.23 0.17,0.71 0.37,1.18 0.73,1.18 0.17,0 0.31,-0.08 0.31,-0.45 0,-0.22 -0.14,-0.76 -0.23,-1.13 -0.04,-0.17 -0.13,-0.5 -0.18,-0.72 -0.08,-0.3 -0.14,-0.55 -0.14,-0.84 0,-0.94 0.7,-1.14 1.34,-1.14 1.06,0 2.13,1.57 2.64,3.44 0.1,-0.02 0.38,-0.09 0.44,-0.09 0.04,0 0.1,0.03 0.1,0.12 0,0.08 -0.07,0.09 -0.2,0.12 z"
   inkscape:connector-curvature="0"
   style="fill:#000000;stroke-width:0" />
</g>  </g>
</svg>
