<?xml version="1.0" encoding="UTF-8" standalone="no"?>
<svg
   xmlns:ns1="http://www.iki.fi/pav/software/textext/"
   xmlns:dc="http://purl.org/dc/elements/1.1/"
   xmlns:cc="http://creativecommons.org/ns#"
   xmlns:rdf="http://www.w3.org/1999/02/22-rdf-syntax-ns#"
   xmlns:svg="http://www.w3.org/2000/svg"
   xmlns="http://www.w3.org/2000/svg"
   xmlns:xlink="http://www.w3.org/1999/xlink"
   xmlns:sodipodi="http://sodipodi.sourceforge.net/DTD/sodipodi-0.dtd"
   xmlns:inkscape="http://www.inkscape.org/namespaces/inkscape"
   width="600"
   height="480"
   viewBox="0 0 600 480"
   version="1.1"
   id="svg521"
   sodipodi:docname="fyz_fig909.svg"
   inkscape:version="0.92.4 (5da689c313, 2019-01-14)">
  <metadata
     id="metadata525">
    <rdf:RDF>
      <cc:Work
         rdf:about="">
        <dc:format>image/svg+xml</dc:format>
        <dc:type
           rdf:resource="http://purl.org/dc/dcmitype/StillImage" />
      </cc:Work>
    </rdf:RDF>
  </metadata>
  <sodipodi:namedview
     pagecolor="#ffffff"
     bordercolor="#666666"
     borderopacity="1"
     objecttolerance="10"
     gridtolerance="10"
     guidetolerance="10"
     inkscape:pageopacity="0"
     inkscape:pageshadow="2"
     inkscape:window-width="3642"
     inkscape:window-height="2115"
     id="namedview523"
     showgrid="false"
     inkscape:zoom="3.9333333"
     inkscape:cx="373.02563"
     inkscape:cy="243.64575"
     inkscape:window-x="185"
     inkscape:window-y="-13"
     inkscape:window-maximized="1"
     inkscape:current-layer="svg521" />
  <desc
     id="desc287">Produced by GNUPLOT 4.4 patchlevel 3 </desc>
  <defs
     id="defs303">
    <circle
       id="gpDot"
       r="0.5"
       stroke-width="0.5" />
    <path
       id="gpPt0"
       stroke-width="0.222"
       stroke="currentColor"
       d="M-1,0 h2 M0,-1 v2" />
    <path
       id="gpPt1"
       stroke-width="0.222"
       stroke="currentColor"
       d="M-1,-1 L1,1 M1,-1 L-1,1" />
    <path
       id="gpPt2"
       stroke-width="0.222"
       stroke="currentColor"
       d="M-1,0 L1,0 M0,-1 L0,1 M-1,-1 L1,1 M-1,1 L1,-1" />
    <rect
       id="gpPt3"
       stroke-width="0.222"
       stroke="currentColor"
       x="-1"
       y="-1"
       width="2"
       height="2" />
    <rect
       id="gpPt4"
       stroke-width="0.222"
       stroke="currentColor"
       fill="currentColor"
       x="-1"
       y="-1"
       width="2"
       height="2" />
    <circle
       id="gpPt5"
       stroke-width="0.222"
       stroke="currentColor"
       cx="0"
       cy="0"
       r="1" />
    <use
       xlink:href="#gpPt5"
       id="gpPt6"
       fill="currentColor"
       stroke="none" />
    <path
       id="gpPt7"
       stroke-width="0.222"
       stroke="currentColor"
       d="M0,-1.33 L-1.33,0.67 L1.33,0.67 z" />
    <use
       xlink:href="#gpPt7"
       id="gpPt8"
       fill="currentColor"
       stroke="none" />
    <use
       xlink:href="#gpPt7"
       id="gpPt9"
       stroke="currentColor"
       transform="rotate(180)" />
    <use
       xlink:href="#gpPt9"
       id="gpPt10"
       fill="currentColor"
       stroke="none" />
    <use
       xlink:href="#gpPt3"
       id="gpPt11"
       stroke="currentColor"
       transform="rotate(45)" />
    <use
       xlink:href="#gpPt11"
       id="gpPt12"
       fill="currentColor"
       stroke="none" />
  </defs>
  <g
     style="fill:none; color:white; stroke:currentColor; stroke-width:1.00; stroke-linecap:butt; stroke-linejoin:miter"
     id="g305" />
  <g
     style="fill:none; color:black; stroke:currentColor; stroke-width:1.00; stroke-linecap:butt; stroke-linejoin:miter"
     id="g307" />
  <g
     style="fill:none; color:gray; stroke:currentColor; stroke-width:1.00; stroke-linecap:butt; stroke-linejoin:miter"
     id="g311">
    <path
       d="M71.9,422.4 L575.0,422.4 "
       id="path309" />
  </g>
  <g
     style="fill:none; color:black; stroke:currentColor; stroke-width:1.00; stroke-linecap:butt; stroke-linejoin:miter"
     id="g319">
    <path
       d="M71.9,422.4 L80.9,422.4 M575.0,422.4 L566.0,422.4 "
       id="path313" />
    <g
       transform="translate(63.6,426.9)"
       style="stroke:none; fill:black; font-family:Arial; font-size:12.00pt; text-anchor:end"
       id="g317">
      <text
         id="text315"> 0.6</text>
    </g>
  </g>
  <g
     style="fill:none; color:gray; stroke:currentColor; stroke-width:1.00; stroke-linecap:butt; stroke-linejoin:miter"
     id="g323">
    <path
       d="M71.9,341.3 L575.0,341.3 "
       id="path321" />
  </g>
  <g
     style="fill:none; color:black; stroke:currentColor; stroke-width:1.00; stroke-linecap:butt; stroke-linejoin:miter"
     id="g331">
    <path
       d="M71.9,341.3 L80.9,341.3 M575.0,341.3 L566.0,341.3 "
       id="path325" />
    <g
       transform="translate(63.6,345.8)"
       style="stroke:none; fill:black; font-family:Arial; font-size:12.00pt; text-anchor:end"
       id="g329">
      <text
         id="text327"> 0.7</text>
    </g>
  </g>
  <g
     style="fill:none; color:gray; stroke:currentColor; stroke-width:1.00; stroke-linecap:butt; stroke-linejoin:miter"
     id="g335">
    <path
       d="M71.9,260.1 L575.0,260.1 "
       id="path333" />
  </g>
  <g
     style="fill:none; color:black; stroke:currentColor; stroke-width:1.00; stroke-linecap:butt; stroke-linejoin:miter"
     id="g343">
    <path
       d="M71.9,260.1 L80.9,260.1 M575.0,260.1 L566.0,260.1 "
       id="path337" />
    <g
       transform="translate(63.6,264.6)"
       style="stroke:none; fill:black; font-family:Arial; font-size:12.00pt; text-anchor:end"
       id="g341">
      <text
         id="text339"> 0.8</text>
    </g>
  </g>
  <g
     style="fill:none; color:gray; stroke:currentColor; stroke-width:1.00; stroke-linecap:butt; stroke-linejoin:miter"
     id="g347">
    <path
       d="M71.9,179.0 L575.0,179.0 "
       id="path345" />
  </g>
  <g
     style="fill:none; color:black; stroke:currentColor; stroke-width:1.00; stroke-linecap:butt; stroke-linejoin:miter"
     id="g355">
    <path
       d="M71.9,179.0 L80.9,179.0 M575.0,179.0 L566.0,179.0 "
       id="path349" />
    <g
       transform="translate(63.6,183.5)"
       style="stroke:none; fill:black; font-family:Arial; font-size:12.00pt; text-anchor:end"
       id="g353">
      <text
         id="text351"> 0.9</text>
    </g>
  </g>
  <g
     style="fill:none; color:gray; stroke:currentColor; stroke-width:1.00; stroke-linecap:butt; stroke-linejoin:miter"
     id="g359">
    <path
       d="M71.9,97.8 L575.0,97.8 "
       id="path357" />
  </g>
  <g
     style="fill:none; color:black; stroke:currentColor; stroke-width:1.00; stroke-linecap:butt; stroke-linejoin:miter"
     id="g367">
    <path
       d="M71.9,97.8 L80.9,97.8 M575.0,97.8 L566.0,97.8 "
       id="path361" />
    <g
       transform="translate(63.6,102.3)"
       style="stroke:none; fill:black; font-family:Arial; font-size:12.00pt; text-anchor:end"
       id="g365">
      <text
         id="text363"> 1</text>
    </g>
  </g>
  <g
     style="fill:none; color:gray; stroke:currentColor; stroke-width:1.00; stroke-linecap:butt; stroke-linejoin:miter"
     id="g371">
    <path
       d="M71.9,16.7 L575.0,16.7 "
       id="path369" />
  </g>
  <g
     style="fill:none; color:black; stroke:currentColor; stroke-width:1.00; stroke-linecap:butt; stroke-linejoin:miter"
     id="g379">
    <path
       d="M71.9,16.7 L80.9,16.7 M575.0,16.7 L566.0,16.7 "
       id="path373" />
    <g
       transform="translate(63.6,21.2)"
       style="stroke:none; fill:black; font-family:Arial; font-size:12.00pt; text-anchor:end"
       id="g377">
      <text
         id="text375"> 1.1</text>
    </g>
  </g>
  <g
     style="fill:none; color:gray; stroke:currentColor; stroke-width:1.00; stroke-linecap:butt; stroke-linejoin:miter"
     id="g383">
    <path
       d="M71.9,422.4 L71.9,16.7 "
       id="path381" />
  </g>
  <g
     style="fill:none; color:black; stroke:currentColor; stroke-width:1.00; stroke-linecap:butt; stroke-linejoin:miter"
     id="g391">
    <path
       d="M71.9,422.4 L71.9,413.4 M71.9,16.7 L71.9,25.7 "
       id="path385" />
    <g
       transform="translate(71.9,444.9)"
       style="stroke:none; fill:black; font-family:Arial; font-size:12.00pt; text-anchor:middle"
       id="g389">
      <text
         id="text387"> 0</text>
    </g>
  </g>
  <g
     style="fill:none; color:gray; stroke:currentColor; stroke-width:1.00; stroke-linecap:butt; stroke-linejoin:miter"
     id="g395">
    <path
       d="M153.0,422.4 L153.0,16.7 "
       id="path393" />
  </g>
  <g
     style="fill:none; color:black; stroke:currentColor; stroke-width:1.00; stroke-linecap:butt; stroke-linejoin:miter"
     id="g403">
    <path
       d="M153.0,422.4 L153.0,413.4 M153.0,16.7 L153.0,25.7 "
       id="path397" />
    <g
       transform="translate(153.0,444.9)"
       style="stroke:none; fill:black; font-family:Arial; font-size:12.00pt; text-anchor:middle"
       id="g401">
      <text
         id="text399"> 5</text>
    </g>
  </g>
  <g
     style="fill:none; color:gray; stroke:currentColor; stroke-width:1.00; stroke-linecap:butt; stroke-linejoin:miter"
     id="g407">
    <path
       d="M234.2,422.4 L234.2,16.7 "
       id="path405" />
  </g>
  <g
     style="fill:none; color:black; stroke:currentColor; stroke-width:1.00; stroke-linecap:butt; stroke-linejoin:miter"
     id="g415">
    <path
       d="M234.2,422.4 L234.2,413.4 M234.2,16.7 L234.2,25.7 "
       id="path409" />
    <g
       transform="translate(234.2,444.9)"
       style="stroke:none; fill:black; font-family:Arial; font-size:12.00pt; text-anchor:middle"
       id="g413">
      <text
         id="text411"> 10</text>
    </g>
  </g>
  <g
     style="fill:none; color:gray; stroke:currentColor; stroke-width:1.00; stroke-linecap:butt; stroke-linejoin:miter"
     id="g419">
    <path
       d="M315.3,422.4 L315.3,16.7 "
       id="path417" />
  </g>
  <g
     style="fill:none; color:black; stroke:currentColor; stroke-width:1.00; stroke-linecap:butt; stroke-linejoin:miter"
     id="g427">
    <path
       d="M315.3,422.4 L315.3,413.4 M315.3,16.7 L315.3,25.7 "
       id="path421" />
    <g
       transform="translate(315.3,444.9)"
       style="stroke:none; fill:black; font-family:Arial; font-size:12.00pt; text-anchor:middle"
       id="g425">
      <text
         id="text423"> 15</text>
    </g>
  </g>
  <g
     style="fill:none; color:gray; stroke:currentColor; stroke-width:1.00; stroke-linecap:butt; stroke-linejoin:miter"
     id="g431">
    <path
       d="M396.5,422.4 L396.5,413.4 M396.5,345.9 L396.5,16.7 "
       id="path429" />
  </g>
  <g
     style="fill:none; color:black; stroke:currentColor; stroke-width:1.00; stroke-linecap:butt; stroke-linejoin:miter"
     id="g439">
    <path
       d="M396.5,422.4 L396.5,413.4 M396.5,16.7 L396.5,25.7 "
       id="path433" />
    <g
       transform="translate(396.5,444.9)"
       style="stroke:none; fill:black; font-family:Arial; font-size:12.00pt; text-anchor:middle"
       id="g437">
      <text
         id="text435"> 20</text>
    </g>
  </g>
  <g
     style="fill:none; color:gray; stroke:currentColor; stroke-width:1.00; stroke-linecap:butt; stroke-linejoin:miter"
     id="g443">
    <path
       d="M477.6,422.4 L477.6,413.4 M477.6,345.9 L477.6,16.7 "
       id="path441" />
  </g>
  <g
     style="fill:none; color:black; stroke:currentColor; stroke-width:1.00; stroke-linecap:butt; stroke-linejoin:miter"
     id="g451">
    <path
       d="M477.6,422.4 L477.6,413.4 M477.6,16.7 L477.6,25.7 "
       id="path445" />
    <g
       transform="translate(477.6,444.9)"
       style="stroke:none; fill:black; font-family:Arial; font-size:12.00pt; text-anchor:middle"
       id="g449">
      <text
         id="text447"> 25</text>
    </g>
  </g>
  <g
     style="fill:none; color:gray; stroke:currentColor; stroke-width:1.00; stroke-linecap:butt; stroke-linejoin:miter"
     id="g455">
    <path
       d="M558.8,422.4 L558.8,413.4 M558.8,345.9 L558.8,16.7 "
       id="path453" />
  </g>
  <g
     style="fill:none; color:black; stroke:currentColor; stroke-width:1.00; stroke-linecap:butt; stroke-linejoin:miter"
     id="g471">
    <path
       d="M558.8,422.4 L558.8,413.4 M558.8,16.7 L558.8,25.7 "
       id="path457" />
    <g
       transform="translate(558.8,444.9)"
       style="stroke:none; fill:black; font-family:Arial; font-size:12.00pt; text-anchor:middle"
       id="g461">
      <text
         id="text459"> 30</text>
    </g>
  </g>
  <a
     xlink:title="Plot #1"
     id="a483">
    <g
       style="fill:none; color:white; stroke:currentColor; stroke-width:2.00; stroke-linecap:butt; stroke-linejoin:miter"
       id="g473" />
    <g
       style="fill:none; color:red; stroke:currentColor; stroke-width:2.00; stroke-linecap:butt; stroke-linejoin:miter"
       id="g481">
      <g
         transform="translate(498.9,361.6)"
         style="stroke:none; fill:black; font-family:Arial; font-size:12.00pt; text-anchor:end"
         id="g477">
        <text
           id="text475">Newton</text>
      </g>
      <path
         d="M507.2,357.1 L558.4,357.1 M76.8,422.4 L76.9,405.2 L77.9,304.3 L79.0,203.5 L80.0,102.7 L80.8,16.7    "
         id="path479" />
    </g>
  </a>
  <a
     xlink:title="Plot #2"
     id="a493">
    <g
       style="fill:none; color:green; stroke:currentColor; stroke-width:2.00; stroke-linecap:butt; stroke-linejoin:miter"
       id="g491">
      <g
         transform="translate(498.9,384.1)"
         style="stroke:none; fill:black; font-family:Arial; font-size:12.00pt; text-anchor:end"
         id="g487">
        <text
           id="text485">Special relativity</text>
      </g>
      <path
         d="M507.2,379.6 L558.4,379.6 M81.3,422.4 L82.0,406.5 L83.0,384.2 L84.0,364.2 L85.0,346.2 L86.0,329.9    L87.0,315.3 L88.0,301.9 L89.0,289.8 L90.0,278.7 L91.1,268.5 L92.1,259.2 L93.1,250.6 L94.1,242.7    L95.1,235.4 L96.1,228.6 L97.1,222.3 L98.1,216.5 L99.1,211.0 L100.1,206.0 L101.1,201.2 L102.1,196.8    L103.2,192.6 L104.2,188.7 L105.2,185.1 L106.2,181.6 L107.2,178.4 L108.2,175.3 L109.2,172.4 L110.2,169.7    L111.2,167.1 L112.2,164.6 L113.2,162.3 L114.2,160.1 L115.3,158.0 L116.3,156.1 L117.3,154.2 L118.3,152.4    L119.3,150.6 L120.3,149.0 L121.3,147.5 L122.3,146.0 L123.3,144.5 L124.3,143.2 L125.3,141.9 L126.3,140.6    L127.4,139.4 L128.4,138.3 L129.4,137.2 L130.4,136.1 L131.4,135.1 L132.4,134.1 L133.4,133.2 L134.4,132.3    L135.4,131.4 L136.4,130.6 L137.4,129.8 L138.4,129.0 L139.5,128.3 L140.5,127.6 L141.5,126.9 L142.5,126.2    L143.5,125.6 L144.5,124.9 L145.5,124.3 L146.5,123.7 L147.5,123.2 L148.5,122.6 L149.5,122.1 L150.5,121.6    L151.5,121.1 L152.6,120.6 L153.6,120.1 L154.6,119.7 L155.6,119.2 L156.6,118.8 L157.6,118.4 L158.6,118.0    L159.6,117.6 L160.6,117.2 L161.6,116.9 L162.6,116.5 L163.6,116.2 L164.7,115.8 L165.7,115.5 L166.7,115.2    L167.7,114.9 L168.7,114.6 L169.7,114.3 L170.7,114.0 L171.7,113.7 L172.7,113.4 L173.7,113.2 L174.7,112.9    L175.7,112.7 L176.8,112.4 L177.8,112.2 L178.8,111.9 L179.8,111.7 L180.8,111.5 L181.8,111.3 L182.8,111.1    L183.8,110.9 L184.8,110.7 L185.8,110.5 L186.8,110.3 L187.8,110.1 L188.9,109.9 L189.9,109.7 L190.9,109.5    L191.9,109.4 L192.9,109.2 L193.9,109.0 L194.9,108.9 L195.9,108.7 L196.9,108.6 L197.9,108.4 L198.9,108.3    L199.9,108.1 L201.0,108.0 L202.0,107.8 L203.0,107.7 L204.0,107.6 L205.0,107.4 L206.0,107.3 L207.0,107.2    L208.0,107.0 L209.0,106.9 L210.0,106.8 L211.0,106.7 L212.0,106.6 L213.1,106.5 L214.1,106.4 L215.1,106.3    L216.1,106.1 L217.1,106.0 L218.1,105.9 L219.1,105.8 L220.1,105.7 L221.1,105.6 L222.1,105.6 L223.1,105.5    L224.1,105.4 L225.1,105.3 L226.2,105.2 L227.2,105.1 L228.2,105.0 L229.2,104.9 L230.2,104.9 L231.2,104.8    L232.2,104.7 L233.2,104.6 L234.2,104.5 L235.2,104.5 L236.2,104.4 L237.2,104.3 L238.3,104.3 L239.3,104.2    L240.3,104.1 L241.3,104.0 L242.3,104.0 L243.3,103.9 L244.3,103.8 L245.3,103.8 L246.3,103.7 L247.3,103.7    L248.3,103.6 L249.3,103.5 L250.4,103.5 L251.4,103.4 L252.4,103.4 L253.4,103.3 L254.4,103.3 L255.4,103.2    L256.4,103.1 L257.4,103.1 L258.4,103.0 L259.4,103.0 L260.4,102.9 L261.4,102.9 L262.5,102.8 L263.5,102.8    L264.5,102.7 L265.5,102.7 L266.5,102.6 L267.5,102.6 L268.5,102.6 L269.5,102.5 L270.5,102.5 L271.5,102.4    L272.5,102.4 L273.5,102.3 L274.6,102.3 L275.6,102.3 L276.6,102.2 L277.6,102.2 L278.6,102.1 L279.6,102.1    L280.6,102.1 L281.6,102.0 L282.6,102.0 L283.6,102.0 L284.6,101.9 L285.6,101.9 L286.7,101.8 L287.7,101.8    L288.7,101.8 L289.7,101.7 L290.7,101.7 L291.7,101.7 L292.7,101.6 L293.7,101.6 L294.7,101.6 L295.7,101.5    L296.7,101.5 L297.7,101.5 L298.7,101.5 L299.8,101.4 L300.8,101.4 L301.8,101.4 L302.8,101.3 L303.8,101.3    L304.8,101.3 L305.8,101.3 L306.8,101.2 L307.8,101.2 L308.8,101.2 L309.8,101.1 L310.8,101.1 L311.9,101.1    L312.9,101.1 L313.9,101.0 L314.9,101.0 L315.9,101.0 L316.9,101.0 L317.9,100.9 L318.9,100.9 L319.9,100.9    L320.9,100.9 L321.9,100.9 L322.9,100.8 L324.0,100.8 L325.0,100.8 L326.0,100.8 L327.0,100.7 L328.0,100.7    L329.0,100.7 L330.0,100.7 L331.0,100.7 L332.0,100.6 L333.0,100.6 L334.0,100.6 L335.0,100.6 L336.1,100.6    L337.1,100.5 L338.1,100.5 L339.1,100.5 L340.1,100.5 L341.1,100.5 L342.1,100.4 L343.1,100.4 L344.1,100.4    L345.1,100.4 L346.1,100.4 L347.1,100.4 L348.2,100.3 L349.2,100.3 L350.2,100.3 L351.2,100.3 L352.2,100.3    L353.2,100.3 L354.2,100.2 L355.2,100.2 L356.2,100.2 L357.2,100.2 L358.2,100.2 L359.2,100.2 L360.2,100.1    L361.3,100.1 L362.3,100.1 L363.3,100.1 L364.3,100.1 L365.3,100.1 L366.3,100.1 L367.3,100.0 L368.3,100.0    L369.3,100.0 L370.3,100.0 L371.3,100.0 L372.3,100.0 L373.4,100.0 L374.4,99.9 L375.4,99.9 L376.4,99.9    L377.4,99.9 L378.4,99.9 L379.4,99.9 L380.4,99.9 L381.4,99.9 L382.4,99.8 L383.4,99.8 L384.4,99.8    L385.5,99.8 L386.5,99.8 L387.5,99.8 L388.5,99.8 L389.5,99.8 L390.5,99.7 L391.5,99.7 L392.5,99.7    L393.5,99.7 L394.5,99.7 L395.5,99.7 L396.5,99.7 L397.6,99.7 L398.6,99.7 L399.6,99.6 L400.6,99.6    L401.6,99.6 L402.6,99.6 L403.6,99.6 L404.6,99.6 L405.6,99.6 L406.6,99.6 L407.6,99.6 L408.6,99.6    L409.7,99.5 L410.7,99.5 L411.7,99.5 L412.7,99.5 L413.7,99.5 L414.7,99.5 L415.7,99.5 L416.7,99.5    L417.7,99.5 L418.7,99.5 L419.7,99.5 L420.7,99.4 L421.8,99.4 L422.8,99.4 L423.8,99.4 L424.8,99.4    L425.8,99.4 L426.8,99.4 L427.8,99.4 L428.8,99.4 L429.8,99.4 L430.8,99.4 L431.8,99.4 L432.8,99.3    L433.8,99.3 L434.9,99.3 L435.9,99.3 L436.9,99.3 L437.9,99.3 L438.9,99.3 L439.9,99.3 L440.9,99.3    L441.9,99.3 L442.9,99.3 L443.9,99.3 L444.9,99.3 L445.9,99.2 L447.0,99.2 L448.0,99.2 L449.0,99.2    L450.0,99.2 L451.0,99.2 L452.0,99.2 L453.0,99.2 L454.0,99.2 L455.0,99.2 L456.0,99.2 L457.0,99.2    L458.0,99.2 L459.1,99.2 L460.1,99.1 L461.1,99.1 L462.1,99.1 L463.1,99.1 L464.1,99.1 L465.1,99.1    L466.1,99.1 L467.1,99.1 L468.1,99.1 L469.1,99.1 L470.1,99.1 L471.2,99.1 L472.2,99.1 L473.2,99.1    L474.2,99.1 L475.2,99.1 L476.2,99.0 L477.2,99.0 L478.2,99.0 L479.2,99.0 L480.2,99.0 L481.2,99.0    L482.2,99.0 L483.3,99.0 L484.3,99.0 L485.3,99.0 L486.3,99.0 L487.3,99.0 L488.3,99.0 L489.3,99.0    L490.3,99.0 L491.3,99.0 L492.3,99.0 L493.3,99.0 L494.3,99.0 L495.4,98.9 L496.4,98.9 L497.4,98.9    L498.4,98.9 L499.4,98.9 L500.4,98.9 L501.4,98.9 L502.4,98.9 L503.4,98.9 L504.4,98.9 L505.4,98.9    L506.4,98.9 L507.4,98.9 L508.5,98.9 L509.5,98.9 L510.5,98.9 L511.5,98.9 L512.5,98.9 L513.5,98.9    L514.5,98.9 L515.5,98.9 L516.5,98.8 L517.5,98.8 L518.5,98.8 L519.5,98.8 L520.6,98.8 L521.6,98.8    L522.6,98.8 L523.6,98.8 L524.6,98.8 L525.6,98.8 L526.6,98.8 L527.6,98.8 L528.6,98.8 L529.6,98.8    L530.6,98.8 L531.6,98.8 L532.7,98.8 L533.7,98.8 L534.7,98.8 L535.7,98.8 L536.7,98.8 L537.7,98.8    L538.7,98.8 L539.7,98.8 L540.7,98.7 L541.7,98.7 L542.7,98.7 L543.7,98.7 L544.8,98.7 L545.8,98.7    L546.8,98.7 L547.8,98.7 L548.8,98.7 L549.8,98.7 L550.8,98.7 L551.8,98.7 L552.8,98.7 L553.8,98.7    L554.8,98.7 L555.8,98.7 L556.9,98.7 L557.9,98.7 L558.9,98.7 L559.9,98.7 L560.9,98.7 L561.9,98.7    L562.9,98.7 L563.9,98.7 L564.9,98.7 L565.9,98.7 L566.9,98.7 L567.9,98.7 L569.0,98.7 L570.0,98.6    L571.0,98.6 L572.0,98.6 L573.0,98.6 L574.0,98.6 L575.0,98.6 "
         id="path489" />
    </g>
  </a>
  <a
     xlink:title="Plot #3"
     id="a515">
    <g
       style="fill:none; color:blue; stroke:currentColor; stroke-width:2.00; stroke-linecap:butt; stroke-linejoin:miter"
       id="g513">
      <g
         transform="translate(498.9,406.6)"
         style="stroke:none; fill:black; font-family:Arial; font-size:12.00pt; text-anchor:end"
         id="g497">
        <text
           id="text495">Bertozzi</text>
      </g>
      <path
         d="M507.2,402.1 L558.4,402.1 M88.1,299.1 L104.4,237.4 L120.6,161.1 L218.0,118.9 L558.8,97.8 "
         id="path499" />
      <use
         xlink:href="#gpPt0"
         transform="translate(88.1,299.1) scale(9.00)"
         id="use501" />
      <use
         xlink:href="#gpPt0"
         transform="translate(104.4,237.4) scale(9.00)"
         id="use503" />
      <use
         xlink:href="#gpPt0"
         transform="translate(120.6,161.1) scale(9.00)"
         id="use505" />
      <use
         xlink:href="#gpPt0"
         transform="translate(218.0,118.9) scale(9.00)"
         id="use507" />
      <use
         xlink:href="#gpPt0"
         transform="translate(558.8,97.8) scale(9.00)"
         id="use509" />
      <use
         xlink:href="#gpPt0"
         transform="translate(532.8,402.1) scale(9.00)"
         id="use511" />
    </g>
  </a>
  <g
     style="fill:none; color:white; stroke:currentColor; stroke-width:1.00; stroke-linecap:butt; stroke-linejoin:miter"
     id="g517" />
  <g
     style="fill:none; color:black; stroke:currentColor; stroke-width:1.00; stroke-linecap:butt; stroke-linejoin:miter"
     id="g519" />
  <g
     id="g672"
     ns1:jacobian_sqrt="1.333333"
     ns1:alignment="middle center"
     ns1:scale="1.0"
     ns1:preamble="C:\\Users\\HP\\AppData\\Roaming\\inkscape\\extensions\\textext\\default_packages.tex"
     ns1:text="\\(v^2/c^2\\)"
     ns1:pdfconverter="pdf2svg"
     ns1:texconverter="pdflatex"
     ns1:version="0.10.2"
     transform="matrix(0.56897109,-2.7479092,2.7479092,0.56897109,-429.50798,584.02253)">
    <g
       id="surface1">
      <g
         id="g655"
         style="fill:#000000;fill-opacity:1">
        <path
           id="path653"
           transform="translate(148.712,134.765)"
           d="m 4.671875,-3.703125 c 0,-0.546875 -0.265625,-0.703125 -0.4375,-0.703125 -0.25,0 -0.5,0.265625 -0.5,0.484375 0,0.125 0.046875,0.1875 0.15625,0.296875 0.21875,0.203125 0.34375,0.453125 0.34375,0.8125 0,0.421875 -0.609375,2.703125 -1.765625,2.703125 -0.515625,0 -0.75,-0.34375 -0.75,-0.875 0,-0.546875 0.28125,-1.28125 0.578125,-2.109375 0.078125,-0.171875 0.125,-0.3125 0.125,-0.5 0,-0.4375 -0.3125,-0.8125 -0.8125,-0.8125 -0.9375,0 -1.3125,1.453125 -1.3125,1.53125 0,0.109375 0.09375,0.109375 0.109375,0.109375 0.109375,0 0.109375,-0.03125 0.15625,-0.1875 0.296875,-1 0.71875,-1.234375 1.015625,-1.234375 0.078125,0 0.25,0 0.25,0.3125 0,0.25 -0.109375,0.53125 -0.171875,0.703125 -0.4375,1.15625 -0.5625,1.609375 -0.5625,2.046875 0,1.078125 0.875,1.234375 1.328125,1.234375 1.671875,0 2.25,-3.296875 2.25,-3.8125 z m 0,0"
           style="stroke:none;stroke-width:0"
           inkscape:connector-curvature="0" />
      </g>
      <g
         id="g659"
         style="fill:#000000;fill-opacity:1">
        <path
           id="path657"
           transform="translate(153.899,131.149)"
           d="M 3.515625,-1.265625 H 3.28125 c -0.015625,0.15625 -0.09375,0.5625 -0.1875,0.625 C 3.046875,-0.59375 2.515625,-0.59375 2.40625,-0.59375 H 1.125 c 0.734375,-0.640625 0.984375,-0.84375 1.390625,-1.171875 0.515625,-0.40625 1,-0.84375 1,-1.5 0,-0.84375 -0.734375,-1.359375 -1.625,-1.359375 -0.859375,0 -1.453125,0.609375 -1.453125,1.25 0,0.34375 0.296875,0.390625 0.375,0.390625 0.15625,0 0.359375,-0.125 0.359375,-0.375 0,-0.125 -0.046875,-0.375 -0.40625,-0.375 C 0.984375,-4.21875 1.453125,-4.375 1.78125,-4.375 c 0.703125,0 1.0625,0.546875 1.0625,1.109375 0,0.609375 -0.4375,1.078125 -0.65625,1.328125 L 0.515625,-0.265625 C 0.4375,-0.203125 0.4375,-0.1875 0.4375,0 h 2.875 z m 0,0"
           style="stroke:none;stroke-width:0"
           inkscape:connector-curvature="0" />
      </g>
      <g
         id="g665"
         style="fill:#000000;fill-opacity:1">
        <path
           id="path661"
           transform="translate(158.368,134.765)"
           d="m 4.375,-7.09375 c 0.046875,-0.140625 0.046875,-0.171875 0.046875,-0.1875 0,-0.109375 -0.078125,-0.203125 -0.1875,-0.203125 -0.078125,0 -0.140625,0.03125 -0.171875,0.09375 l -3.46875,9.5 C 0.546875,2.25 0.546875,2.28125 0.546875,2.296875 0.546875,2.40625 0.640625,2.5 0.75,2.5 0.875,2.5 0.90625,2.421875 0.96875,2.25 Z m 0,0"
           style="stroke:none;stroke-width:0"
           inkscape:connector-curvature="0" />
        <path
           id="path663"
           transform="translate(163.3493,134.765)"
           d="m 3.953125,-3.78125 c -0.171875,0 -0.296875,0 -0.4375,0.125 -0.171875,0.15625 -0.1875,0.328125 -0.1875,0.390625 0,0.25 0.1875,0.359375 0.375,0.359375 0.28125,0 0.546875,-0.25 0.546875,-0.640625 0,-0.484375 -0.46875,-0.859375 -1.171875,-0.859375 -1.34375,0 -2.671875,1.421875 -2.671875,2.828125 0,0.90625 0.578125,1.6875 1.625,1.6875 1.421875,0 2.25,-1.0625 2.25,-1.171875 0,-0.0625 -0.046875,-0.140625 -0.109375,-0.140625 -0.0625,0 -0.078125,0.03125 -0.140625,0.109375 -0.78125,0.984375 -1.875,0.984375 -1.984375,0.984375 -0.625,0 -0.90625,-0.484375 -0.90625,-1.09375 0,-0.40625 0.203125,-1.375 0.546875,-1.984375 0.3125,-0.578125 0.859375,-1 1.40625,-1 0.328125,0 0.71875,0.125 0.859375,0.40625 z m 0,0"
           style="stroke:none;stroke-width:0"
           inkscape:connector-curvature="0" />
      </g>
      <g
         id="g669"
         style="fill:#000000;fill-opacity:1">
        <path
           id="path667"
           transform="translate(167.661,131.149)"
           d="M 3.515625,-1.265625 H 3.28125 c -0.015625,0.15625 -0.09375,0.5625 -0.1875,0.625 C 3.046875,-0.59375 2.515625,-0.59375 2.40625,-0.59375 H 1.125 c 0.734375,-0.640625 0.984375,-0.84375 1.390625,-1.171875 0.515625,-0.40625 1,-0.84375 1,-1.5 0,-0.84375 -0.734375,-1.359375 -1.625,-1.359375 -0.859375,0 -1.453125,0.609375 -1.453125,1.25 0,0.34375 0.296875,0.390625 0.375,0.390625 0.15625,0 0.359375,-0.125 0.359375,-0.375 0,-0.125 -0.046875,-0.375 -0.40625,-0.375 C 0.984375,-4.21875 1.453125,-4.375 1.78125,-4.375 c 0.703125,0 1.0625,0.546875 1.0625,1.109375 0,0.609375 -0.4375,1.078125 -0.65625,1.328125 L 0.515625,-0.265625 C 0.4375,-0.203125 0.4375,-0.1875 0.4375,0 h 2.875 z m 0,0"
           style="stroke:none;stroke-width:0"
           inkscape:connector-curvature="0" />
      </g>
    </g>
  </g>
  <g
     id="g875"
     ns1:jacobian_sqrt="1.333333"
     ns1:alignment="middle center"
     ns1:scale="1.0"
     ns1:preamble="C:\\Users\\HP\\AppData\\Roaming\\inkscape\\extensions\\textext\\default_packages.tex"
     ns1:text="Kinetick\xc3\xa1 energie \\(mc^2\\)"
     ns1:pdfconverter="pdf2svg"
     ns1:texconverter="pdflatex"
     ns1:version="0.10.2"
     transform="matrix(1.6214213,0,0,1.6214213,21.855984,249.39329)">
    <g
       id="g873">
      <g
         id="g835"
         style="fill:#000000;fill-opacity:1">
        <path
           id="path821"
           transform="translate(148.712,134.765)"
           d="M 3.984375,-4.171875 5.78125,-5.90625 C 5.859375,-5.984375 6.390625,-6.484375 7.203125,-6.5 V -6.8125 C 6.9375,-6.78125 6.625,-6.78125 6.34375,-6.78125 c -0.359375,0 -0.921875,0 -1.265625,-0.03125 V -6.5 c 0.40625,0.015625 0.46875,0.234375 0.46875,0.328125 0,0.15625 -0.109375,0.265625 -0.1875,0.328125 L 2.25,-2.859375 V -6.03125 C 2.25,-6.390625 2.265625,-6.5 3.03125,-6.5 h 0.234375 v -0.3125 c -0.34375,0.03125 -1.078125,0.03125 -1.46875,0.03125 -0.375,0 -1.125,0 -1.46875,-0.03125 V -6.5 H 0.5625 c 0.765625,0 0.796875,0.109375 0.796875,0.46875 v 5.25 c 0,0.359375 -0.03125,0.46875 -0.796875,0.46875 H 0.328125 V 0 c 0.34375,-0.03125 1.09375,-0.03125 1.46875,-0.03125 0.375,0 1.125,0 1.46875,0.03125 V -0.3125 H 3.03125 C 2.265625,-0.3125 2.25,-0.421875 2.25,-0.78125 V -2.515625 L 3.40625,-3.625 5.203125,-0.953125 c 0.0625,0.09375 0.15625,0.21875 0.15625,0.34375 0,0.296875 -0.390625,0.296875 -0.59375,0.296875 V 0 C 5.109375,-0.03125 5.8125,-0.03125 6.1875,-0.03125 c 0.359375,0 0.734375,0.015625 1.15625,0.03125 v -0.3125 c -0.546875,0 -0.75,-0.03125 -1.046875,-0.46875 z m 0,0"
           style="stroke:none;stroke-width:0"
           inkscape:connector-curvature="0" />
        <path
           id="path823"
           transform="translate(156.46091,134.765)"
           d="M 1.765625,-4.40625 0.375,-4.296875 v 0.3125 c 0.640625,0 0.734375,0.0625 0.734375,0.546875 V -0.75 c 0,0.4375 -0.109375,0.4375 -0.78125,0.4375 V 0 C 0.640625,-0.015625 1.1875,-0.03125 1.421875,-0.03125 1.78125,-0.03125 2.125,-0.015625 2.46875,0 v -0.3125 c -0.671875,0 -0.703125,-0.046875 -0.703125,-0.4375 z m 0.03125,-1.734375 c 0,-0.3125 -0.234375,-0.53125 -0.515625,-0.53125 -0.3125,0 -0.53125,0.265625 -0.53125,0.53125 0,0.265625 0.21875,0.53125 0.53125,0.53125 0.28125,0 0.515625,-0.21875 0.515625,-0.53125 z m 0,0"
           style="stroke:none;stroke-width:0"
           inkscape:connector-curvature="0" />
        <path
           id="path825"
           transform="translate(159.22852,134.765)"
           d="M 1.09375,-3.421875 V -0.75 c 0,0.4375 -0.109375,0.4375 -0.78125,0.4375 V 0 c 0.359375,-0.015625 0.859375,-0.03125 1.140625,-0.03125 0.25,0 0.765625,0.015625 1.109375,0.03125 v -0.3125 c -0.671875,0 -0.78125,0 -0.78125,-0.4375 V -2.59375 C 1.78125,-3.625 2.5,-4.1875 3.125,-4.1875 c 0.640625,0 0.75,0.53125 0.75,1.109375 V -0.75 c 0,0.4375 -0.109375,0.4375 -0.78125,0.4375 V 0 c 0.34375,-0.015625 0.859375,-0.03125 1.125,-0.03125 0.25,0 0.78125,0.015625 1.109375,0.03125 v -0.3125 c -0.515625,0 -0.765625,0 -0.765625,-0.296875 v -1.90625 c 0,-0.859375 0,-1.15625 -0.3125,-1.515625 -0.140625,-0.171875 -0.46875,-0.375 -1.046875,-0.375 C 2.46875,-4.40625 2,-3.984375 1.71875,-3.359375 V -4.40625 L 0.3125,-4.296875 v 0.3125 c 0.703125,0 0.78125,0.0625 0.78125,0.5625 z m 0,0"
           style="stroke:none;stroke-width:0"
           inkscape:connector-curvature="0" />
        <path
           id="path827"
           transform="translate(164.76374,134.765)"
           d="M 1.109375,-2.515625 C 1.171875,-4 2.015625,-4.25 2.359375,-4.25 c 1.015625,0 1.125,1.34375 1.125,1.734375 z m 0,0.21875 h 2.78125 c 0.21875,0 0.25,0 0.25,-0.21875 0,-0.984375 -0.546875,-1.953125 -1.78125,-1.953125 -1.15625,0 -2.078125,1.03125 -2.078125,2.28125 0,1.328125 1.046875,2.296875 2.1875,2.296875 C 3.6875,0.109375 4.140625,-1 4.140625,-1.1875 4.140625,-1.28125 4.0625,-1.3125 4,-1.3125 c -0.078125,0 -0.109375,0.0625 -0.125,0.140625 -0.34375,1.03125 -1.25,1.03125 -1.34375,1.03125 -0.5,0 -0.890625,-0.296875 -1.125,-0.671875 -0.296875,-0.46875 -0.296875,-1.125 -0.296875,-1.484375 z m 0,0"
           style="stroke:none;stroke-width:0"
           inkscape:connector-curvature="0" />
        <path
           id="path829"
           transform="translate(169.19112,134.765)"
           d="m 1.71875,-3.984375 h 1.4375 v -0.3125 H 1.71875 V -6.125 h -0.25 c 0,0.8125 -0.296875,1.875 -1.28125,1.921875 v 0.21875 h 0.84375 v 2.75 c 0,1.21875 0.9375,1.34375 1.296875,1.34375 0.703125,0 0.984375,-0.703125 0.984375,-1.34375 v -0.5625 h -0.25 V -1.25 c 0,0.734375 -0.296875,1.109375 -0.671875,1.109375 -0.671875,0 -0.671875,-0.90625 -0.671875,-1.078125 z m 0,0"
           style="stroke:none;stroke-width:0"
           inkscape:connector-curvature="0" />
        <path
           id="path831"
           transform="translate(173.06558,134.765)"
           d="M 1.765625,-4.40625 0.375,-4.296875 v 0.3125 c 0.640625,0 0.734375,0.0625 0.734375,0.546875 V -0.75 c 0,0.4375 -0.109375,0.4375 -0.78125,0.4375 V 0 C 0.640625,-0.015625 1.1875,-0.03125 1.421875,-0.03125 1.78125,-0.03125 2.125,-0.015625 2.46875,0 v -0.3125 c -0.671875,0 -0.703125,-0.046875 -0.703125,-0.4375 z m 0.03125,-1.734375 c 0,-0.3125 -0.234375,-0.53125 -0.515625,-0.53125 -0.3125,0 -0.53125,0.265625 -0.53125,0.53125 0,0.265625 0.21875,0.53125 0.53125,0.53125 0.28125,0 0.515625,-0.21875 0.515625,-0.53125 z m 0,0"
           style="stroke:none;stroke-width:0"
           inkscape:connector-curvature="0" />
        <path
           id="path833"
           transform="translate(175.83319,134.765)"
           d="m 1.171875,-2.171875 c 0,-1.625 0.8125,-2.046875 1.34375,-2.046875 0.09375,0 0.71875,0.015625 1.0625,0.375 -0.40625,0.03125 -0.46875,0.328125 -0.46875,0.453125 0,0.265625 0.1875,0.453125 0.453125,0.453125 0.265625,0 0.46875,-0.15625 0.46875,-0.46875 0,-0.671875 -0.765625,-1.0625 -1.53125,-1.0625 -1.25,0 -2.15625,1.078125 -2.15625,2.3125 0,1.28125 0.984375,2.265625 2.140625,2.265625 1.328125,0 1.65625,-1.203125 1.65625,-1.296875 0,-0.09375 -0.109375,-0.09375 -0.140625,-0.09375 -0.078125,0 -0.109375,0.03125 -0.125,0.09375 -0.28125,0.921875 -0.9375,1.046875 -1.296875,1.046875 -0.53125,0 -1.40625,-0.421875 -1.40625,-2.03125 z m 0,0"
           style="stroke:none;stroke-width:0"
           inkscape:connector-curvature="0" />
      </g>
      <g
         id="g841"
         style="fill:#000000;fill-opacity:1">
        <path
           id="path837"
           transform="translate(179.98161,134.765)"
           d="m 1.0625,-0.75 c 0,0.4375 -0.109375,0.4375 -0.78125,0.4375 V 0 c 0.328125,-0.015625 0.796875,-0.03125 1.078125,-0.03125 0.3125,0 0.703125,0.015625 1.109375,0.03125 v -0.3125 c -0.671875,0 -0.78125,0 -0.78125,-0.4375 v -1.03125 l 0.640625,-0.546875 c 0.765625,1.046875 1.1875,1.609375 1.1875,1.796875 0,0.1875 -0.171875,0.21875 -0.359375,0.21875 V 0 c 0.265625,-0.015625 0.859375,-0.03125 1.078125,-0.03125 0.28125,0 0.578125,0.015625 0.859375,0.03125 v -0.3125 c -0.375,0 -0.59375,0 -0.96875,-0.53125 L 2.859375,-2.625 c -0.015625,-0.015625 -0.0625,-0.078125 -0.0625,-0.109375 0,-0.03125 0.71875,-0.640625 0.8125,-0.71875 0.625,-0.5 1.046875,-0.53125 1.25,-0.53125 v -0.3125 c -0.28125,0.03125 -0.40625,0.03125 -0.6875,0.03125 -0.359375,0 -0.984375,-0.015625 -1.125,-0.03125 v 0.3125 c 0.1875,0 0.296875,0.109375 0.296875,0.25 0,0.203125 -0.140625,0.3125 -0.21875,0.390625 l -1.40625,1.203125 v -4.78125 L 0.28125,-6.8125 V -6.5 c 0.703125,0 0.78125,0.0625 0.78125,0.5625 z m 0,0"
           style="stroke:none;stroke-width:0"
           inkscape:connector-curvature="0" />
        <path
           id="path839"
           transform="translate(185.23987,134.765)"
           d="M 3.734375,-6.296875 C 3.828125,-6.375 3.90625,-6.484375 3.90625,-6.59375 c 0,-0.1875 -0.171875,-0.359375 -0.359375,-0.359375 -0.140625,0 -0.25,0.109375 -0.296875,0.171875 l -1.203125,1.515625 0.171875,0.1875 z m 0,0"
           style="stroke:none;stroke-width:0"
           inkscape:connector-curvature="0" />
      </g>
      <g
         id="g845"
         style="fill:#000000;fill-opacity:1">
        <path
           id="path843"
           transform="translate(185.23987,134.765)"
           d="m 3.3125,-0.75 c 0.046875,0.390625 0.3125,0.8125 0.78125,0.8125 0.21875,0 0.828125,-0.140625 0.828125,-0.953125 v -0.5625 h -0.25 v 0.5625 c 0,0.578125 -0.25,0.640625 -0.359375,0.640625 -0.328125,0 -0.375,-0.453125 -0.375,-0.5 v -1.984375 c 0,-0.421875 0,-0.8125 -0.359375,-1.1875 C 3.1875,-4.3125 2.6875,-4.46875 2.21875,-4.46875 c -0.828125,0 -1.515625,0.46875 -1.515625,1.125 0,0.296875 0.203125,0.46875 0.46875,0.46875 0.28125,0 0.453125,-0.203125 0.453125,-0.453125 0,-0.125 -0.046875,-0.453125 -0.515625,-0.453125 C 1.390625,-4.140625 1.875,-4.25 2.1875,-4.25 c 0.5,0 1.0625,0.390625 1.0625,1.28125 v 0.359375 c -0.515625,0.03125 -1.203125,0.0625 -1.828125,0.359375 -0.75,0.34375 -1,0.859375 -1,1.296875 0,0.8125 0.96875,1.0625 1.59375,1.0625 0.65625,0 1.109375,-0.40625 1.296875,-0.859375 z M 3.25,-2.390625 v 1 c 0,0.9375 -0.71875,1.28125 -1.171875,1.28125 -0.484375,0 -0.890625,-0.34375 -0.890625,-0.84375 0,-0.546875 0.421875,-1.375 2.0625,-1.4375 z m 0,0"
           style="stroke:none;stroke-width:0"
           inkscape:connector-curvature="0" />
      </g>
      <g
         id="g861"
         style="fill:#000000;fill-opacity:1">
        <path
           id="path847"
           transform="translate(193.54868,134.765)"
           d="M 1.109375,-2.515625 C 1.171875,-4 2.015625,-4.25 2.359375,-4.25 c 1.015625,0 1.125,1.34375 1.125,1.734375 z m 0,0.21875 h 2.78125 c 0.21875,0 0.25,0 0.25,-0.21875 0,-0.984375 -0.546875,-1.953125 -1.78125,-1.953125 -1.15625,0 -2.078125,1.03125 -2.078125,2.28125 0,1.328125 1.046875,2.296875 2.1875,2.296875 C 3.6875,0.109375 4.140625,-1 4.140625,-1.1875 4.140625,-1.28125 4.0625,-1.3125 4,-1.3125 c -0.078125,0 -0.109375,0.0625 -0.125,0.140625 -0.34375,1.03125 -1.25,1.03125 -1.34375,1.03125 -0.5,0 -0.890625,-0.296875 -1.125,-0.671875 -0.296875,-0.46875 -0.296875,-1.125 -0.296875,-1.484375 z m 0,0"
           style="stroke:none;stroke-width:0"
           inkscape:connector-curvature="0" />
        <path
           id="path849"
           transform="translate(197.97606,134.765)"
           d="M 1.09375,-3.421875 V -0.75 c 0,0.4375 -0.109375,0.4375 -0.78125,0.4375 V 0 c 0.359375,-0.015625 0.859375,-0.03125 1.140625,-0.03125 0.25,0 0.765625,0.015625 1.109375,0.03125 v -0.3125 c -0.671875,0 -0.78125,0 -0.78125,-0.4375 V -2.59375 C 1.78125,-3.625 2.5,-4.1875 3.125,-4.1875 c 0.640625,0 0.75,0.53125 0.75,1.109375 V -0.75 c 0,0.4375 -0.109375,0.4375 -0.78125,0.4375 V 0 c 0.34375,-0.015625 0.859375,-0.03125 1.125,-0.03125 0.25,0 0.78125,0.015625 1.109375,0.03125 v -0.3125 c -0.515625,0 -0.765625,0 -0.765625,-0.296875 v -1.90625 c 0,-0.859375 0,-1.15625 -0.3125,-1.515625 -0.140625,-0.171875 -0.46875,-0.375 -1.046875,-0.375 C 2.46875,-4.40625 2,-3.984375 1.71875,-3.359375 V -4.40625 L 0.3125,-4.296875 v 0.3125 c 0.703125,0 0.78125,0.0625 0.78125,0.5625 z m 0,0"
           style="stroke:none;stroke-width:0"
           inkscape:connector-curvature="0" />
        <path
           id="path851"
           transform="translate(203.51128,134.765)"
           d="M 1.109375,-2.515625 C 1.171875,-4 2.015625,-4.25 2.359375,-4.25 c 1.015625,0 1.125,1.34375 1.125,1.734375 z m 0,0.21875 h 2.78125 c 0.21875,0 0.25,0 0.25,-0.21875 0,-0.984375 -0.546875,-1.953125 -1.78125,-1.953125 -1.15625,0 -2.078125,1.03125 -2.078125,2.28125 0,1.328125 1.046875,2.296875 2.1875,2.296875 C 3.6875,0.109375 4.140625,-1 4.140625,-1.1875 4.140625,-1.28125 4.0625,-1.3125 4,-1.3125 c -0.078125,0 -0.109375,0.0625 -0.125,0.140625 -0.34375,1.03125 -1.25,1.03125 -1.34375,1.03125 -0.5,0 -0.890625,-0.296875 -1.125,-0.671875 -0.296875,-0.46875 -0.296875,-1.125 -0.296875,-1.484375 z m 0,0"
           style="stroke:none;stroke-width:0"
           inkscape:connector-curvature="0" />
        <path
           id="path853"
           transform="translate(207.93866,134.765)"
           d="M 1.671875,-3.3125 V -4.40625 L 0.28125,-4.296875 v 0.3125 c 0.703125,0 0.78125,0.0625 0.78125,0.5625 V -0.75 c 0,0.4375 -0.109375,0.4375 -0.78125,0.4375 V 0 c 0.390625,-0.015625 0.859375,-0.03125 1.140625,-0.03125 0.390625,0 0.859375,0 1.265625,0.03125 V -0.3125 H 2.46875 c -0.734375,0 -0.75,-0.109375 -0.75,-0.46875 V -2.3125 c 0,-0.984375 0.421875,-1.875 1.171875,-1.875 0.0625,0 0.09375,0 0.109375,0.015625 -0.03125,0 -0.234375,0.125 -0.234375,0.390625 0,0.265625 0.21875,0.421875 0.4375,0.421875 0.171875,0 0.421875,-0.125 0.421875,-0.4375 0,-0.3125 -0.3125,-0.609375 -0.734375,-0.609375 -0.734375,0 -1.09375,0.671875 -1.21875,1.09375 z m 0,0"
           style="stroke:none;stroke-width:0"
           inkscape:connector-curvature="0" />
        <path
           id="path855"
           transform="translate(211.84101,134.765)"
           d="m 2.21875,-1.71875 c -0.875,0 -0.875,-1 -0.875,-1.21875 0,-0.265625 0.015625,-0.59375 0.15625,-0.84375 0.078125,-0.109375 0.3125,-0.390625 0.71875,-0.390625 0.859375,0 0.859375,0.984375 0.859375,1.21875 0,0.265625 0,0.59375 -0.15625,0.84375 C 2.84375,-2 2.609375,-1.71875 2.21875,-1.71875 Z M 1.0625,-1.328125 c 0,-0.03125 0,-0.265625 0.15625,-0.46875 0.390625,0.28125 0.8125,0.3125 1,0.3125 0.921875,0 1.609375,-0.6875 1.609375,-1.453125 0,-0.375 -0.15625,-0.734375 -0.40625,-0.96875 C 3.78125,-4.25 4.140625,-4.296875 4.3125,-4.296875 c 0.03125,0 0.078125,0 0.109375,0.015625 C 4.3125,-4.25 4.25,-4.140625 4.25,-4.015625 c 0,0.171875 0.140625,0.28125 0.296875,0.28125 0.09375,0 0.28125,-0.0625 0.28125,-0.296875 0,-0.171875 -0.109375,-0.484375 -0.5,-0.484375 -0.203125,0 -0.640625,0.0625 -1.0625,0.46875 C 2.84375,-4.375 2.4375,-4.40625 2.21875,-4.40625 c -0.9375,0 -1.625,0.6875 -1.625,1.453125 0,0.4375 0.21875,0.8125 0.46875,1.03125 -0.125,0.140625 -0.3125,0.46875 -0.3125,0.828125 0,0.3125 0.140625,0.6875 0.453125,0.890625 -0.609375,0.15625 -0.921875,0.59375 -0.921875,0.984375 0,0.71875 0.984375,1.265625 2.203125,1.265625 1.171875,0 2.203125,-0.5 2.203125,-1.28125 0,-0.34375 -0.125,-0.859375 -0.640625,-1.140625 -0.53125,-0.265625 -1.109375,-0.265625 -1.71875,-0.265625 -0.25,0 -0.671875,0 -0.75,-0.015625 C 1.265625,-0.703125 1.0625,-1 1.0625,-1.328125 Z M 2.5,1.828125 c -1.015625,0 -1.703125,-0.515625 -1.703125,-1.046875 0,-0.453125 0.375,-0.828125 0.8125,-0.84375 h 0.59375 c 0.859375,0 1.96875,0 1.96875,0.84375 0,0.546875 -0.703125,1.046875 -1.671875,1.046875 z m 0,0"
           style="stroke:none;stroke-width:0"
           inkscape:connector-curvature="0" />
        <path
           id="path857"
           transform="translate(216.82231,134.765)"
           d="M 1.765625,-4.40625 0.375,-4.296875 v 0.3125 c 0.640625,0 0.734375,0.0625 0.734375,0.546875 V -0.75 c 0,0.4375 -0.109375,0.4375 -0.78125,0.4375 V 0 C 0.640625,-0.015625 1.1875,-0.03125 1.421875,-0.03125 1.78125,-0.03125 2.125,-0.015625 2.46875,0 v -0.3125 c -0.671875,0 -0.703125,-0.046875 -0.703125,-0.4375 z m 0.03125,-1.734375 c 0,-0.3125 -0.234375,-0.53125 -0.515625,-0.53125 -0.3125,0 -0.53125,0.265625 -0.53125,0.53125 0,0.265625 0.21875,0.53125 0.53125,0.53125 0.28125,0 0.515625,-0.21875 0.515625,-0.53125 z m 0,0"
           style="stroke:none;stroke-width:0"
           inkscape:connector-curvature="0" />
        <path
           id="path859"
           transform="translate(219.58992,134.765)"
           d="M 1.109375,-2.515625 C 1.171875,-4 2.015625,-4.25 2.359375,-4.25 c 1.015625,0 1.125,1.34375 1.125,1.734375 z m 0,0.21875 h 2.78125 c 0.21875,0 0.25,0 0.25,-0.21875 0,-0.984375 -0.546875,-1.953125 -1.78125,-1.953125 -1.15625,0 -2.078125,1.03125 -2.078125,2.28125 0,1.328125 1.046875,2.296875 2.1875,2.296875 C 3.6875,0.109375 4.140625,-1 4.140625,-1.1875 4.140625,-1.28125 4.0625,-1.3125 4,-1.3125 c -0.078125,0 -0.109375,0.0625 -0.125,0.140625 -0.34375,1.03125 -1.25,1.03125 -1.34375,1.03125 -0.5,0 -0.890625,-0.296875 -1.125,-0.671875 -0.296875,-0.46875 -0.296875,-1.125 -0.296875,-1.484375 z m 0,0"
           style="stroke:none;stroke-width:0"
           inkscape:connector-curvature="0" />
      </g>
      <g
         id="g867"
         style="fill:#000000;fill-opacity:1">
        <path
           id="path863"
           transform="translate(227.334,134.765)"
           d="m 0.875,-0.59375 c -0.03125,0.15625 -0.09375,0.390625 -0.09375,0.4375 0,0.171875 0.140625,0.265625 0.296875,0.265625 0.125,0 0.296875,-0.078125 0.375,-0.28125 0,-0.015625 0.125,-0.484375 0.1875,-0.734375 l 0.21875,-0.890625 C 1.90625,-2.03125 1.96875,-2.25 2.03125,-2.46875 c 0.03125,-0.171875 0.109375,-0.46875 0.125,-0.5 0.140625,-0.3125 0.671875,-1.21875 1.625,-1.21875 0.453125,0 0.53125,0.375 0.53125,0.703125 0,0.25 -0.0625,0.53125 -0.140625,0.828125 L 3.890625,-1.5 3.6875,-0.75 c -0.03125,0.203125 -0.125,0.546875 -0.125,0.59375 0,0.171875 0.140625,0.265625 0.28125,0.265625 0.3125,0 0.375,-0.25 0.453125,-0.5625 0.140625,-0.5625 0.515625,-2.015625 0.59375,-2.40625 0.03125,-0.125 0.5625,-1.328125 1.65625,-1.328125 0.421875,0 0.53125,0.34375 0.53125,0.703125 0,0.5625 -0.421875,1.703125 -0.625,2.234375 -0.078125,0.234375 -0.125,0.34375 -0.125,0.546875 0,0.46875 0.34375,0.8125 0.8125,0.8125 0.9375,0 1.3125,-1.453125 1.3125,-1.53125 0,-0.109375 -0.09375,-0.109375 -0.125,-0.109375 -0.09375,0 -0.09375,0.03125 -0.140625,0.1875 -0.15625,0.53125 -0.46875,1.234375 -1.015625,1.234375 -0.171875,0 -0.25,-0.09375 -0.25,-0.328125 0,-0.25 0.09375,-0.484375 0.1875,-0.703125 0.1875,-0.53125 0.609375,-1.625 0.609375,-2.203125 0,-0.640625 -0.40625,-1.0625 -1.15625,-1.0625 -0.734375,0 -1.25,0.4375 -1.625,0.96875 0,-0.125 -0.03125,-0.46875 -0.3125,-0.703125 -0.25,-0.21875 -0.5625,-0.265625 -0.8125,-0.265625 -0.90625,0 -1.390625,0.640625 -1.5625,0.875 -0.046875,-0.578125 -0.46875,-0.875 -0.921875,-0.875 -0.453125,0 -0.640625,0.390625 -0.734375,0.5625 -0.171875,0.359375 -0.296875,0.9375 -0.296875,0.96875 0,0.109375 0.09375,0.109375 0.109375,0.109375 0.109375,0 0.109375,-0.015625 0.171875,-0.234375 0.171875,-0.703125 0.375,-1.1875 0.734375,-1.1875 0.15625,0 0.296875,0.078125 0.296875,0.453125 0,0.21875 -0.03125,0.328125 -0.15625,0.84375 z m 0,0"
           style="stroke:none;stroke-width:0"
           inkscape:connector-curvature="0" />
        <path
           id="path865"
           transform="translate(236.08116,134.765)"
           d="m 3.953125,-3.78125 c -0.171875,0 -0.296875,0 -0.4375,0.125 -0.171875,0.15625 -0.1875,0.328125 -0.1875,0.390625 0,0.25 0.1875,0.359375 0.375,0.359375 0.28125,0 0.546875,-0.25 0.546875,-0.640625 0,-0.484375 -0.46875,-0.859375 -1.171875,-0.859375 -1.34375,0 -2.671875,1.421875 -2.671875,2.828125 0,0.90625 0.578125,1.6875 1.625,1.6875 1.421875,0 2.25,-1.0625 2.25,-1.171875 0,-0.0625 -0.046875,-0.140625 -0.109375,-0.140625 -0.0625,0 -0.078125,0.03125 -0.140625,0.109375 -0.78125,0.984375 -1.875,0.984375 -1.984375,0.984375 -0.625,0 -0.90625,-0.484375 -0.90625,-1.09375 0,-0.40625 0.203125,-1.375 0.546875,-1.984375 0.3125,-0.578125 0.859375,-1 1.40625,-1 0.328125,0 0.71875,0.125 0.859375,0.40625 z m 0,0"
           style="stroke:none;stroke-width:0"
           inkscape:connector-curvature="0" />
      </g>
      <g
         id="g871"
         style="fill:#000000;fill-opacity:1">
        <path
           id="path869"
           transform="translate(240.393,131.149)"
           d="M 3.515625,-1.265625 H 3.28125 c -0.015625,0.15625 -0.09375,0.5625 -0.1875,0.625 C 3.046875,-0.59375 2.515625,-0.59375 2.40625,-0.59375 H 1.125 c 0.734375,-0.640625 0.984375,-0.84375 1.390625,-1.171875 0.515625,-0.40625 1,-0.84375 1,-1.5 0,-0.84375 -0.734375,-1.359375 -1.625,-1.359375 -0.859375,0 -1.453125,0.609375 -1.453125,1.25 0,0.34375 0.296875,0.390625 0.375,0.390625 0.15625,0 0.359375,-0.125 0.359375,-0.375 0,-0.125 -0.046875,-0.375 -0.40625,-0.375 C 0.984375,-4.21875 1.453125,-4.375 1.78125,-4.375 c 0.703125,0 1.0625,0.546875 1.0625,1.109375 0,0.609375 -0.4375,1.078125 -0.65625,1.328125 L 0.515625,-0.265625 C 0.4375,-0.203125 0.4375,-0.1875 0.4375,0 h 2.875 z m 0,0"
           style="stroke:none;stroke-width:0"
           inkscape:connector-curvature="0" />
      </g>
    </g>
  </g>
</svg>
