<?xml version="1.0" encoding="UTF-8" standalone="no"?>
<!-- Created with Inkscape (http://www.inkscape.org/) -->

<svg
   xmlns:ns0="http://www.iki.fi/pav/software/textext/"
   xmlns:dc="http://purl.org/dc/elements/1.1/"
   xmlns:cc="http://creativecommons.org/ns#"
   xmlns:rdf="http://www.w3.org/1999/02/22-rdf-syntax-ns#"
   xmlns:svg="http://www.w3.org/2000/svg"
   xmlns="http://www.w3.org/2000/svg"
   xmlns:sodipodi="http://sodipodi.sourceforge.net/DTD/sodipodi-0.dtd"
   xmlns:inkscape="http://www.inkscape.org/namespaces/inkscape"
   width="400"
   height="410"
   id="svg2"
   inkscape:label="Pozadí"
   version="1.1"
   inkscape:version="0.48.1 "
   sodipodi:docname="Nový dokument 13">
  <sodipodi:namedview
     id="base"
     pagecolor="#ffffff"
     bordercolor="#666666"
     borderopacity="1.0"
     inkscape:pageopacity="0.0"
     inkscape:pageshadow="2"
     inkscape:zoom="1.21875"
     inkscape:cx="246.6005"
     inkscape:cy="127.27306"
     inkscape:document-units="px"
     inkscape:current-layer="layer6"
     showgrid="false"
     inkscape:window-width="1831"
     inkscape:window-height="1173"
     inkscape:window-x="80"
     inkscape:window-y="-9"
     inkscape:window-maximized="1" />
  <defs
     id="defs5318" />
  <metadata
     id="metadata5321">
    <rdf:RDF>
      <cc:Work
         rdf:about="">
        <dc:format>image/svg+xml</dc:format>
        <dc:type
           rdf:resource="http://purl.org/dc/dcmitype/StillImage" />
        <dc:title></dc:title>
      </cc:Work>
    </rdf:RDF>
  </metadata>
  <g
     inkscape:label="circle1"
     inkscape:groupmode="layer"
     id="layer1"
     transform="translate(0,-642.36218)"
     sodipodi:insensitive="true">
    <path
       sodipodi:type="arc"
       style="fill:#a17829;fill-opacity:1;stroke:#000000;stroke-width:1.9871279;stroke-miterlimit:4;stroke-opacity:1;stroke-dasharray:none;stroke-dashoffset:0"
       id="path5834"
       sodipodi:cx="205.53847"
       sodipodi:cy="206.76923"
       sodipodi:rx="116.10256"
       sodipodi:ry="116.10256"
       d="m 321.64103,206.76923 c 0,64.12167 -51.98089,116.10256 -116.10256,116.10256 -64.12168,0 -116.102565,-51.98089 -116.102565,-116.10256 0,-64.12168 51.980885,-116.102566 116.102565,-116.102566 64.12167,0 116.10256,51.980886 116.10256,116.102566 z"
       transform="matrix(1.5097166,0,0,1.5097166,-103.82922,540.19528)" />
    <path
       sodipodi:type="arc"
       style="fill:#ffffff;fill-opacity:1;stroke:#000000;stroke-width:3;stroke-miterlimit:4;stroke-opacity:1;stroke-dasharray:none;stroke-dashoffset:0"
       id="path5837"
       sodipodi:cx="271.52899"
       sodipodi:cy="245.66942"
       sodipodi:rx="150.26926"
       sodipodi:ry="150.26926"
       d="m 421.79825,245.66942 c 0,82.99142 -67.27784,150.26925 -150.26926,150.26925 -82.99142,0 -150.26925,-67.27783 -150.26925,-150.26925 0,-82.99142 67.27783,-150.269258 150.26925,-150.269258 82.99142,0 150.26926,67.277838 150.26926,150.269258 z"
       transform="translate(-63.91473,607.31358)" />
  </g>
  <g
     transform="translate(0,10)"
     inkscape:groupmode="layer"
     id="layer4"
     inkscape:label="circle2"
     sodipodi:insensitive="true" />
  <g
     transform="translate(0,10)"
     inkscape:groupmode="layer"
     id="layer5"
     inkscape:label="circle3"
     sodipodi:insensitive="true">
    <path
       sodipodi:type="arc"
       style="fill:#a1786d;fill-opacity:1;stroke:#000000;stroke-width:6.81336164;stroke-miterlimit:4;stroke-opacity:1;stroke-dasharray:none;stroke-dashoffset:0"
       id="path5834-9"
       sodipodi:cx="205.53847"
       sodipodi:cy="206.76923"
       sodipodi:rx="116.10256"
       sodipodi:ry="116.10256"
       d="m 321.64103,206.76923 c 0,64.12167 -51.98089,116.10256 -116.10256,116.10256 -64.12168,0 -116.102565,-51.98089 -116.102565,-116.10256 0,-64.12168 51.980885,-116.102566 116.102565,-116.102566 64.12167,0 116.10256,51.980886 116.10256,116.102566 z"
       transform="matrix(0.44031127,0,0,0.44031127,116.62699,106.4708)" />
  </g>
  <g
     transform="translate(0,10)"
     inkscape:groupmode="layer"
     id="layer6"
     inkscape:label="other"
     style="display:inline">
    <g
       style="font-style:normal;font-variant:normal;font-weight:normal;font-stretch:normal;letter-spacing:normal;word-spacing:normal;text-anchor:start;fill:none;stroke:#000000;stroke-linecap:butt;stroke-linejoin:miter;stroke-miterlimit:10.43299961;stroke-opacity:1;stroke-dasharray:none;stroke-dashoffset:0"
       id="content"
       transform="matrix(4,0,0,-4,-1350.5641,3028.718)"
       xml:space="preserve"
       stroke-miterlimit="10.433"
       font-style="normal"
       font-variant="normal"
       font-weight="normal"
       font-stretch="normal"
       font-size-adjust="none"
       letter-spacing="normal"
       word-spacing="normal"
       ns0:text="$$I$$\n"
       ns0:preamble="">
<path
   style="fill:#000000;stroke-width:0"
   inkscape:connector-curvature="0"
   d="m 396.43,713.16 0.01,0.03 0.01,0.03 0.01,0.03 0.01,0.03 0.01,0.03 0,0.02 0.01,0.03 0.01,0.02 0.01,0.02 0.02,0.02 0.01,0.02 0.01,0.02 0.02,0.02 0.02,0.01 0.02,0.02 0.02,0.01 0.02,0.01 0.03,0.01 0.02,0.01 0.03,0.01 0.04,0.01 0.01,0.01 0.02,0 0.02,0 0.02,0.01 0.02,0 0.02,0 0.02,0.01 0.03,0 0.02,0 0.02,0 0.03,0 0.03,0.01 0.02,0 0.03,0 0.03,0 0.03,0 0.03,0 0.03,0 0.04,0 0.03,0 0.04,0 0.03,0 c 0.24,0 0.32,0 0.32,0.19 0,0.12 -0.11,0.12 -0.15,0.12 -0.29,0 -1.03,-0.03 -1.31,-0.03 -0.3,0 -1.03,0.03 -1.33,0.03 -0.07,0 -0.2,0 -0.2,-0.2 0,-0.11 0.09,-0.11 0.28,-0.11 0.42,0 0.69,0 0.69,-0.19 0,-0.04 0,-0.07 -0.02,-0.15 l -1.35,-5.37 c -0.09,-0.37 -0.12,-0.47 -0.91,-0.47 -0.22,0 -0.31,0 -0.31,-0.2 0,-0.1 0.12,-0.1 0.15,-0.1 0.28,0 1.01,0.03 1.3,0.03 0.3,0 1.04,-0.03 1.34,-0.03 0.08,0 0.2,0 0.2,0.18 0,0.12 -0.08,0.12 -0.3,0.12 -0.18,0 -0.23,0 -0.43,0.02 -0.21,0.02 -0.25,0.06 -0.25,0.17 0,0.08 0.02,0.16 0.04,0.23 z"
   id="path5985" />
</g>    <g
       style="font-style:normal;font-variant:normal;font-weight:normal;font-stretch:normal;letter-spacing:normal;word-spacing:normal;text-anchor:start;fill:none;stroke:#000000;stroke-linecap:butt;stroke-linejoin:miter;stroke-miterlimit:10.43299961;stroke-opacity:1;stroke-dasharray:none;stroke-dashoffset:0;display:inline"
       id="content-3"
       transform="matrix(4,0,0,-4,-1362.343,2847.8435)"
       xml:space="preserve"
       stroke-miterlimit="10.433"
       font-style="normal"
       font-variant="normal"
       font-weight="normal"
       font-stretch="normal"
       font-size-adjust="none"
       letter-spacing="normal"
       word-spacing="normal"
       ns0:text="$$I$$\n"
       ns0:preamble="">
<path
   style="fill:#000000;stroke-width:0"
   inkscape:connector-curvature="0"
   d="m 396.43,713.16 0.01,0.03 0.01,0.03 0.01,0.03 0.01,0.03 0.01,0.03 0,0.02 0.01,0.03 0.01,0.02 0.01,0.02 0.02,0.02 0.01,0.02 0.01,0.02 0.02,0.02 0.02,0.01 0.02,0.02 0.02,0.01 0.02,0.01 0.03,0.01 0.02,0.01 0.03,0.01 0.04,0.01 0.01,0.01 0.02,0 0.02,0 0.02,0.01 0.02,0 0.02,0 0.02,0.01 0.03,0 0.02,0 0.02,0 0.03,0 0.03,0.01 0.02,0 0.03,0 0.03,0 0.03,0 0.03,0 0.03,0 0.04,0 0.03,0 0.04,0 0.03,0 c 0.24,0 0.32,0 0.32,0.19 0,0.12 -0.11,0.12 -0.15,0.12 -0.29,0 -1.03,-0.03 -1.31,-0.03 -0.3,0 -1.03,0.03 -1.33,0.03 -0.07,0 -0.2,0 -0.2,-0.2 0,-0.11 0.09,-0.11 0.28,-0.11 0.42,0 0.69,0 0.69,-0.19 0,-0.04 0,-0.07 -0.02,-0.15 l -1.35,-5.37 c -0.09,-0.37 -0.12,-0.47 -0.91,-0.47 -0.22,0 -0.31,0 -0.31,-0.2 0,-0.1 0.12,-0.1 0.15,-0.1 0.28,0 1.01,0.03 1.3,0.03 0.3,0 1.04,-0.03 1.34,-0.03 0.08,0 0.2,0 0.2,0.18 0,0.12 -0.08,0.12 -0.3,0.12 -0.18,0 -0.23,0 -0.43,0.02 -0.21,0.02 -0.25,0.06 -0.25,0.17 0,0.08 0.02,0.16 0.04,0.23 z"
   id="path5985-3" />
</g>    <path
       transform="translate(0,-10)"
       inkscape:connector-curvature="0"
       id="path6033"
       d="M 124.74089,31.135813 206.5477,205.19287 62.370444,168.64089"
       style="fill:none;stroke:#000000;stroke-width:2;stroke-linecap:butt;stroke-linejoin:miter;stroke-opacity:1;stroke-miterlimit:4;stroke-dasharray:none" />
    <path
       transform="translate(0,-10)"
       inkscape:connector-curvature="0"
       id="path6035"
       d="m 206.8378,205.77306 -56.27845,45.25483"
       style="fill:none;stroke:#000000;stroke-width:2;stroke-linecap:butt;stroke-linejoin:miter;stroke-opacity:1;stroke-miterlimit:4;stroke-dasharray:none" />
    <path
       inkscape:connector-curvature="0"
       id="path6037"
       d="m 124.47274,31.714413 8.82349,-4.243134 0.19602,12.137748 z"
       style="fill:#000000;fill-opacity:1;stroke:#000000;stroke-width:1px;stroke-linecap:butt;stroke-linejoin:miter;stroke-opacity:1" />
    <path
       inkscape:connector-curvature="0"
       id="path6037-6"
       d="m 159.92376,239.90579 -6.2538,-7.53315 11.7289,-3.12986 z"
       style="fill:#000000;fill-opacity:1;stroke:#000000;stroke-width:1px;stroke-linecap:butt;stroke-linejoin:miter;stroke-opacity:1;display:inline" />
    <path
       inkscape:connector-curvature="0"
       id="path6037-9"
       d="m 75.186689,156.68611 -2.106709,9.56138 -9.671523,-7.33655 z"
       style="fill:#000000;fill-opacity:1;stroke:#000000;stroke-width:1px;stroke-linecap:butt;stroke-linejoin:miter;stroke-opacity:1;display:inline" />
    <g
       ns0:preamble=""
       ns0:text="$$r_1$$\n"
       word-spacing="normal"
       letter-spacing="normal"
       font-size-adjust="none"
       font-stretch="normal"
       font-weight="normal"
       font-variant="normal"
       font-style="normal"
       stroke-miterlimit="10.433"
       xml:space="preserve"
       transform="matrix(4,0,0,-4,-1432.2282,3090.4455)"
       id="g6084"
       style="font-style:normal;font-variant:normal;font-weight:normal;font-stretch:normal;letter-spacing:normal;word-spacing:normal;text-anchor:start;fill:none;stroke:#000000;stroke-linecap:butt;stroke-linejoin:miter;stroke-miterlimit:10.43299961;stroke-opacity:1;stroke-dasharray:none;stroke-dashoffset:0">
<path
   id="path6086"
   d="m 391.68,707.71 0,-0.01 0,-0.02 -0.01,-0.01 0,-0.02 -0.01,-0.03 0,-0.03 -0.01,-0.03 -0.01,-0.04 -0.01,-0.03 0,-0.03 -0.01,-0.01 0,-0.02 0,-0.01 -0.01,-0.02 0,-0.01 0,-0.01 0,-0.02 -0.01,-0.01 0,-0.01 0,-0.01 0,-0.01 0,-0.01 0,-0.01 -0.01,0 0,-0.01 0,-0.01 c 0,-0.18 0.14,-0.26 0.29,-0.26 0.12,0 0.3,0.07 0.37,0.27 0.02,0.04 0.36,1.4 0.4,1.58 0.08,0.33 0.26,1.02 0.32,1.29 0.04,0.13 0.32,0.6 0.56,0.82 0.08,0.07 0.37,0.32 0.8,0.32 0.25,0 0.4,-0.11 0.41,-0.11 -0.3,-0.05 -0.51,-0.29 -0.51,-0.55 0,-0.16 0.1,-0.35 0.37,-0.35 0.27,0 0.55,0.23 0.55,0.59 0,0.34 -0.32,0.64 -0.82,0.64 -0.65,0 -1.09,-0.48 -1.28,-0.76 -0.08,0.45 -0.44,0.76 -0.91,0.76 -0.46,0 -0.65,-0.38 -0.74,-0.56 -0.17,-0.34 -0.3,-0.94 -0.3,-0.97 0,-0.1 0.1,-0.1 0.11,-0.1 0.1,0 0.11,0.01 0.17,0.23 0.17,0.71 0.37,1.18 0.73,1.18 0.17,0 0.31,-0.08 0.31,-0.45 0,-0.21 -0.03,-0.32 -0.16,-0.84 z"
   inkscape:connector-curvature="0"
   style="fill:#000000;stroke-width:0" />
<path
   id="path6088"
   d="m 397.63,710.05 0,0.01 0,0.01 0,0.01 0,0.01 0,0 0,0.01 0,0.01 0,0.01 0,0 0,0.01 0,0 0,0.01 0,0.01 0,0 0,0.01 0,0 0,0.01 0,0 -0.01,0.01 0,0.01 0,0.01 -0.01,0 0,0.01 0,0.01 -0.01,0 0,0.01 -0.01,0 -0.01,0 0,0.01 -0.01,0 -0.01,0 -0.01,0 -0.01,0 0,0 -0.01,0 0,0.01 -0.01,0 0,0 -0.01,0 -0.01,0 0,0 -0.01,0 -0.01,0 -0.01,0 0,0 -0.01,0 -0.01,0 -0.01,0 -0.01,0 -0.01,0 c -0.44,-0.44 -1.07,-0.45 -1.36,-0.45 v -0.25 c 0.17,0 0.63,0 1.01,0.2 v -3.55 c 0,-0.23 0,-0.32 -0.7,-0.32 h -0.26 v -0.25 c 0.12,0.01 0.98,0.03 1.24,0.03 0.21,0 1.09,-0.02 1.24,-0.03 v 0.25 h -0.26 c -0.7,0 -0.7,0.09 -0.7,0.32 z"
   inkscape:connector-curvature="0"
   style="fill:#000000;stroke-width:0" />
</g>    <g
       id="g6186"
       transform="matrix(4,0,0,-4,-1477.2261,3020.1462)"
       xml:space="preserve"
       stroke="black"
       stroke-linecap="butt"
       stroke-linejoin="miter"
       stroke-miterlimit="10.433"
       stroke-dasharray="none"
       stroke-dashoffset="0"
       stroke-opacity="1"
       fill="none"
       fill-rule="evenodd"
       fill-opacity="1"
       font-style="normal"
       font-variant="normal"
       font-weight="normal"
       font-stretch="normal"
       font-size-adjust="none"
       letter-spacing="normal"
       word-spacing="normal"
       text-anchor="start"
       ns0:text="$$r_2$$\n\n"
       ns0:preamble=""
       style="font-style:normal;font-variant:normal;font-weight:normal;font-stretch:normal;letter-spacing:normal;word-spacing:normal;text-anchor:start;fill:none;stroke:#000000;stroke-linecap:butt;stroke-linejoin:miter;stroke-miterlimit:10.43299961;stroke-opacity:1;stroke-dasharray:none;stroke-dashoffset:0;display:inline">
<path
   d="M391.68,707.71 L391.68,707.7 L391.68,707.68 L391.67,707.67 L391.67,707.65 L391.66,707.62 L391.66,707.59 L391.65,707.56 L391.64,707.52 L391.63,707.49 L391.63,707.46 L391.62,707.45 L391.62,707.43 L391.62,707.42 L391.61,707.4 L391.61,707.39 L391.61,707.38 L391.61,707.36 L391.6,707.35 L391.6,707.34 L391.6,707.33 L391.6,707.32 L391.6,707.31 L391.6,707.3 L391.59,707.3 L391.59,707.29 L391.59,707.28 C391.59,707.1,391.73,707.02,391.88,707.02 C392,707.02,392.18,707.09,392.25,707.29 C392.27,707.33,392.61,708.69,392.65,708.87 C392.73,709.2,392.91,709.89,392.97,710.16 C393.01,710.29,393.29,710.76,393.53,710.98 C393.61,711.05,393.9,711.3,394.33,711.3 C394.58,711.3,394.73,711.19,394.74,711.19 C394.44,711.14,394.23,710.9,394.23,710.64 C394.23,710.48,394.33,710.29,394.6,710.29 C394.87,710.29,395.15,710.52,395.15,710.88 C395.15,711.22,394.83,711.52,394.33,711.52 C393.68,711.52,393.24,711.04,393.05,710.76 C392.97,711.21,392.61,711.52,392.14,711.52 C391.68,711.52,391.49,711.14,391.4,710.96 C391.23,710.62,391.1,710.02,391.1,709.99 C391.1,709.89,391.2,709.89,391.21,709.89 C391.31,709.89,391.32,709.9,391.38,710.12 C391.55,710.83,391.75,711.3,392.11,711.3 C392.28,711.3,392.42,711.22,392.42,710.85 C392.42,710.64,392.39,710.53,392.26,710.01 Z "
   stroke-width="0"
   fill="black"
   id="path6188" />
<path
   d="M398.82,706.9 H398.58 C398.56,706.74,398.49,706.33,398.4,706.26 C398.34,706.22,397.81,706.22,397.71,706.22 H396.43 C397.16,706.87,397.4,707.06,397.82,707.39 C398.34,707.8,398.82,708.23,398.82,708.89 C398.82,709.73,398.08,710.25,397.19,710.25 C396.32,710.25,395.74,709.64,395.74,709 C395.74,708.65,396.04,708.61,396.11,708.61 C396.27,708.61,396.48,708.73,396.48,708.98 C396.48,709.11,396.43,709.35,396.07,709.35 C396.28,709.84,396.76,710,397.08,710 C397.78,710,398.14,709.46,398.14,708.89 C398.14,708.29,397.71,707.81,397.49,707.56 L395.81,705.9 C395.74,705.84,395.74,705.83,395.74,705.63 H398.61 Z "
   stroke-width="0"
   fill="black"
   id="path6190" />
</g>    <g
       style="font-style:normal;font-variant:normal;font-weight:normal;font-stretch:normal;letter-spacing:normal;word-spacing:normal;text-anchor:start;fill:none;stroke:#000000;stroke-linecap:butt;stroke-linejoin:miter;stroke-miterlimit:10.43299961;stroke-opacity:1;stroke-dasharray:none;stroke-dashoffset:0;display:inline"
       ns0:preamble=""
       ns0:text="$$r_3$$\n\n"
       text-anchor="start"
       word-spacing="normal"
       letter-spacing="normal"
       font-size-adjust="none"
       font-stretch="normal"
       font-weight="normal"
       font-variant="normal"
       font-style="normal"
       fill-opacity="1"
       fill-rule="evenodd"
       fill="none"
       stroke-opacity="1"
       stroke-dashoffset="0"
       stroke-dasharray="none"
       stroke-miterlimit="10.433"
       stroke-linejoin="miter"
       stroke-linecap="butt"
       stroke="black"
       xml:space="preserve"
       transform="matrix(4,0,0,-4,-1400.098,2926.6077)"
       id="g6259">
<path
   id="path6261"
   fill="black"
   stroke-width="0"
   d="M391.68,707.71 L391.68,707.7 L391.68,707.68 L391.67,707.67 L391.67,707.65 L391.66,707.62 L391.66,707.59 L391.65,707.56 L391.64,707.52 L391.63,707.49 L391.63,707.46 L391.62,707.45 L391.62,707.43 L391.62,707.42 L391.61,707.4 L391.61,707.39 L391.61,707.38 L391.61,707.36 L391.6,707.35 L391.6,707.34 L391.6,707.33 L391.6,707.32 L391.6,707.31 L391.6,707.3 L391.59,707.3 L391.59,707.29 L391.59,707.28 C391.59,707.1,391.73,707.02,391.88,707.02 C392,707.02,392.18,707.09,392.25,707.29 C392.27,707.33,392.61,708.69,392.65,708.87 C392.73,709.2,392.91,709.89,392.97,710.16 C393.01,710.29,393.29,710.76,393.53,710.98 C393.61,711.05,393.9,711.3,394.33,711.3 C394.58,711.3,394.73,711.19,394.74,711.19 C394.44,711.14,394.23,710.9,394.23,710.64 C394.23,710.48,394.33,710.29,394.6,710.29 C394.87,710.29,395.15,710.52,395.15,710.88 C395.15,711.22,394.83,711.52,394.33,711.52 C393.68,711.52,393.24,711.04,393.05,710.76 C392.97,711.21,392.61,711.52,392.14,711.52 C391.68,711.52,391.49,711.14,391.4,710.96 C391.23,710.62,391.1,710.02,391.1,709.99 C391.1,709.89,391.2,709.89,391.21,709.89 C391.31,709.89,391.32,709.9,391.38,710.12 C391.55,710.83,391.75,711.3,392.11,711.3 C392.28,711.3,392.42,711.22,392.42,710.85 C392.42,710.64,392.39,710.53,392.26,710.01 Z " />
<path
   id="path6263"
   fill="black"
   stroke-width="0"
   d="M397.2,707.95 L397.25,707.95 L397.3,707.95 L397.35,707.94 L397.4,707.94 L397.44,707.93 L397.49,707.91 L397.53,707.9 L397.58,707.88 L397.62,707.86 L397.66,707.84 L397.7,707.82 L397.74,707.8 L397.77,707.77 L397.81,707.74 L397.84,707.71 L397.87,707.67 L397.9,707.64 L397.93,707.6 L397.96,707.56 L397.98,707.52 L398.01,707.47 L398.03,707.42 L398.05,707.37 L398.07,707.32 L398.08,707.27 L398.1,707.21 L398.11,707.16 L398.12,707.1 L398.12,707.03 L398.13,706.97 L398.13,706.9 L398.14,706.83 C398.14,705.97,397.63,705.71,397.23,705.71 C396.95,705.71,396.34,705.79,396.05,706.2 C396.37,706.22,396.45,706.44,396.45,706.59 C396.45,706.81,396.28,706.97,396.07,706.97 C395.87,706.97,395.68,706.85,395.68,706.57 C395.68,705.92,396.4,705.49,397.24,705.49 C398.21,705.49,398.88,706.14,398.88,706.83 C398.88,707.38,398.43,707.92,397.67,708.08 C398.4,708.34,398.66,708.86,398.66,709.29 C398.66,709.84,398.03,710.25,397.26,710.25 C396.48,710.25,395.89,709.87,395.89,709.32 C395.89,709.08,396.05,708.95,396.25,708.95 C396.47,708.95,396.61,709.11,396.61,709.3 C396.61,709.5,396.47,709.65,396.25,709.66 C396.5,709.97,396.98,710.05,397.24,710.05 C397.55,710.05,397.99,709.89,397.99,709.29 C397.99,709,397.89,708.68,397.71,708.46 C397.48,708.2,397.29,708.18,396.94,708.16 C396.76,708.15,396.75,708.15,396.71,708.14 C396.7,708.14,396.64,708.13,396.64,708.05 C396.64,707.95,396.71,707.95,396.83,707.95 Z " />
</g>  </g>
  <g
     transform="translate(0,10)"
     inkscape:groupmode="layer"
     id="layer7"
     inkscape:label="proud"
     style="display:inline">
    <g
       id="g5936"
       transform="translate(6.1538462,12.717949)">
      <path
         transform="translate(-6.5271445,-16.390366)"
         d="m 218.7317,199.83438 c 0,6.4086 -5.1952,11.6038 -11.6038,11.6038 -6.4086,0 -11.6038,-5.1952 -11.6038,-11.6038 0,-6.4086 5.1952,-11.6038 11.6038,-11.6038 6.4086,0 11.6038,5.1952 11.6038,11.6038 z"
         sodipodi:ry="11.603804"
         sodipodi:rx="11.603804"
         sodipodi:cy="199.83438"
         sodipodi:cx="207.1279"
         id="path5859"
         style="fill:#ffffff;fill-opacity:1;stroke:#000000;stroke-width:1;stroke-miterlimit:4;stroke-opacity:1;stroke-dasharray:none;stroke-dashoffset:0"
         sodipodi:type="arc" />
      <path
         inkscape:connector-curvature="0"
         id="path5926"
         d="m 192.51436,175.03126 16.24532,16.24532"
         style="fill:none;stroke:#000000;stroke-width:1px;stroke-linecap:butt;stroke-linejoin:miter;stroke-opacity:1" />
      <path
         inkscape:connector-curvature="0"
         id="path5928"
         d="m 192.22425,191.42163 16.39038,-16.24532"
         style="fill:none;stroke:#000000;stroke-width:1px;stroke-linecap:butt;stroke-linejoin:miter;stroke-opacity:1" />
    </g>
    <path
       sodipodi:type="arc"
       style="fill:#ffffff;fill-opacity:1;stroke:#000000;stroke-width:1;stroke-miterlimit:4;stroke-opacity:1;stroke-dasharray:none;stroke-dashoffset:0"
       id="path5859-3"
       sodipodi:cx="207.1279"
       sodipodi:cy="199.83438"
       sodipodi:rx="11.603804"
       sodipodi:ry="11.603804"
       d="m 218.7317,199.83438 c 0,6.4086 -5.1952,11.6038 -11.6038,11.6038 -6.4086,0 -11.6038,-5.1952 -11.6038,-11.6038 0,-6.4086 5.1952,-11.6038 11.6038,-11.6038 6.4086,0 11.6038,5.1952 11.6038,11.6038 z"
       transform="translate(-1.1791811,-162.65492)" />
    <path
       sodipodi:type="arc"
       style="fill:#000000;fill-opacity:1;stroke:#000000;stroke-width:0.61518872;stroke-miterlimit:4;stroke-opacity:1;stroke-dasharray:none;stroke-dashoffset:0"
       id="path5971"
       sodipodi:cx="206.30769"
       sodipodi:cy="36.461536"
       sodipodi:rx="0.66666669"
       sodipodi:ry="0.66666669"
       d="m 206.97436,36.461536 c 0,0.36819 -0.29848,0.666667 -0.66667,0.666667 -0.36819,0 -0.66666,-0.298477 -0.66666,-0.666667 0,-0.368189 0.29847,-0.666666 0.66666,-0.666666 0.36819,0 0.66667,0.298477 0.66667,0.666666 z"
       transform="matrix(1.6255175,0,0,1.6255175,-129.52251,-22.324016)" />
  </g>
</svg>
