<?xml version="1.0" encoding="UTF-8" standalone="no"?>
<!-- Created with Inkscape (http://www.inkscape.org/) -->

<svg
   xmlns:dc="http://purl.org/dc/elements/1.1/"
   xmlns:cc="http://creativecommons.org/ns#"
   xmlns:rdf="http://www.w3.org/1999/02/22-rdf-syntax-ns#"
   xmlns:svg="http://www.w3.org/2000/svg"
   xmlns="http://www.w3.org/2000/svg"
   xmlns:sodipodi="http://sodipodi.sourceforge.net/DTD/sodipodi-0.dtd"
   xmlns:inkscape="http://www.inkscape.org/namespaces/inkscape"
   version="1.1"
   id="svg283"
   xml:space="preserve"
   width="303"
   height="98"
   viewBox="0 0 303 98"
   sodipodi:docname="fyz_fig914.svg"
   inkscape:version="0.92.4 (5da689c313, 2019-01-14)"><metadata
     id="metadata289"><rdf:RDF><cc:Work
         rdf:about=""><dc:format>image/svg+xml</dc:format><dc:type
           rdf:resource="http://purl.org/dc/dcmitype/StillImage" /><dc:title></dc:title></cc:Work></rdf:RDF></metadata><defs
     id="defs287" /><sodipodi:namedview
     pagecolor="#ffffff"
     bordercolor="#666666"
     borderopacity="1"
     objecttolerance="10"
     gridtolerance="10"
     guidetolerance="10"
     inkscape:pageopacity="0"
     inkscape:pageshadow="2"
     inkscape:window-width="3696"
     inkscape:window-height="2115"
     id="namedview285"
     showgrid="false"
     inkscape:zoom="7.4513512"
     inkscape:cx="195.35945"
     inkscape:cy="103.11384"
     inkscape:window-x="131"
     inkscape:window-y="-13"
     inkscape:window-maximized="1"
     inkscape:current-layer="g291" /><g
     id="g291"
     inkscape:groupmode="layer"
     inkscape:label="Kap 38"
     transform="matrix(1.3333333,0,0,-1.3333333,0,97.99999)"><text
       transform="matrix(1,0,0,-1,436.8599,691.0593)"
       style="font-variant:normal;font-weight:normal;font-size:7.57159996px;font-family:TorontoPlain;-inkscape-font-specification:TorontoPlain;writing-mode:lr-tb;fill:#000000;fill-opacity:1;fill-rule:nonzero;stroke:none"
       id="text295"><tspan
         x="0 3.7804999 7.5609999 9.4485998 17.008842 22.0485 26.669447 31.290394 35.910583 40.531532 43.040005 48.508968 51.017441 55.037205 62.477058 67.529587 72.99855 77.210632"
         y="0"
         sodipodi:role="line"
         id="tspan293">38.5RELATIVITAČASU</tspan></text>
<text
       transform="matrix(1,0,0,-1,527.1603,691.0593)"
       style="font-variant:normal;font-weight:normal;font-size:9.96259975px;font-family:TorontoBold;-inkscape-font-specification:TorontoBold;writing-mode:lr-tb;fill:#000000;fill-opacity:1;fill-rule:nonzero;stroke:none"
       id="text299"><tspan
         x="0 4.9803038 9.9606075 14.940911"
         y="0"
         sodipodi:role="line"
         id="tspan297">1013</tspan></text>
<text
       transform="matrix(1,0,0,-1,112.08,241.2993)"
       style="font-variant:normal;font-weight:normal;font-size:9.96259975px;font-family:'MT Extra';-inkscape-font-specification:MTEX;writing-mode:lr-tb;fill:#000000;fill-opacity:1;fill-rule:nonzero;stroke:none"
       id="text549"><tspan
         x="0"
         y="0"
         id="tspan547"></tspan></text>
<text
       transform="matrix(1,0,0,-1,163.8,241.2993)"
       style="font-variant:normal;font-weight:normal;font-size:9.96259975px;font-family:'MT Extra';-inkscape-font-specification:MTEX;writing-mode:lr-tb;fill:#000000;fill-opacity:1;fill-rule:nonzero;stroke:none"
       id="text581"><tspan
         x="0"
         y="0"
         id="tspan579"></tspan></text>
<path
       d="m 40.695212,24.864995 v -5.792 c -0.264,0 5.283,0 5.283,0 v 5.812"
       style="fill:none;stroke:#000000;stroke-width:0.30000001;stroke-linecap:butt;stroke-linejoin:miter;stroke-miterlimit:4;stroke-dasharray:none;stroke-opacity:1"
       id="path833"
       inkscape:connector-curvature="0" /><path
       d="m 45.958212,22.507995 c -0.264,0 -5.263,0 -5.263,0"
       style="fill:none;stroke:#000000;stroke-width:0.30000001;stroke-linecap:butt;stroke-linejoin:miter;stroke-miterlimit:4;stroke-dasharray:none;stroke-opacity:1"
       id="path835"
       inkscape:connector-curvature="0" /><path
       d="M 43.865212,25.941995 H 174.72421 v -2.642 H 43.865212 Z"
       style="fill:#000000;fill-opacity:1;fill-rule:nonzero;stroke:none"
       id="path837"
       inkscape:connector-curvature="0" /><path
       d="M -0.18978804,-0.01700524 H 227.40621 V 7.899995 H -0.18978804 Z"
       style="fill:#cccccc;fill-opacity:1;fill-rule:nonzero;stroke:none"
       id="path839"
       inkscape:connector-curvature="0" /><path
       d="M -0.18978804,13.680995 H 227.40621 v -5.635 H -0.18978804 Z"
       style="fill:#cccccc;fill-opacity:1;fill-rule:nonzero;stroke:none"
       id="path841"
       inkscape:connector-curvature="0" /><path
       d="M 227.40621,8.045995 H -0.18978804 m 0,5.635 H 227.40621"
       style="fill:none;stroke:#000000;stroke-width:0.30000001;stroke-linecap:butt;stroke-linejoin:miter;stroke-miterlimit:4;stroke-dasharray:none;stroke-opacity:1"
       id="path843"
       inkscape:connector-curvature="0" /><path
       d="m 4.786212,3.349995 h 7.514 v 4.696 h -7.514 z"
       style="fill:#999999;fill-opacity:1;fill-rule:nonzero;stroke:none"
       id="path845"
       inkscape:connector-curvature="0" /><path
       d="m 4.786212,3.349995 h 7.514 v 4.696 h -7.514 z"
       style="fill:none;stroke:#000000;stroke-width:0.30000001;stroke-linecap:round;stroke-linejoin:miter;stroke-miterlimit:4;stroke-dasharray:none;stroke-opacity:1"
       id="path847"
       inkscape:connector-curvature="0" /><path
       d="m 28.268212,3.349995 h 7.514 v 4.696 h -7.514 z"
       style="fill:#999999;fill-opacity:1;fill-rule:nonzero;stroke:none"
       id="path849"
       inkscape:connector-curvature="0" /><path
       d="m 28.268212,3.349995 h 7.514 v 4.696 h -7.514 z"
       style="fill:none;stroke:#000000;stroke-width:0.30000001;stroke-linecap:round;stroke-linejoin:miter;stroke-miterlimit:4;stroke-dasharray:none;stroke-opacity:1"
       id="path851"
       inkscape:connector-curvature="0" /><path
       d="m 51.749212,3.349995 h 7.514 v 4.696 h -7.514 z"
       style="fill:#999999;fill-opacity:1;fill-rule:nonzero;stroke:none"
       id="path853"
       inkscape:connector-curvature="0" /><path
       d="m 51.749212,3.349995 h 7.514 v 4.696 h -7.514 z"
       style="fill:none;stroke:#000000;stroke-width:0.30000001;stroke-linecap:round;stroke-linejoin:miter;stroke-miterlimit:4;stroke-dasharray:none;stroke-opacity:1"
       id="path855"
       inkscape:connector-curvature="0" /><path
       d="m 75.230212,3.349995 h 7.514 v 4.696 h -7.514 z"
       style="fill:#999999;fill-opacity:1;fill-rule:nonzero;stroke:none"
       id="path857"
       inkscape:connector-curvature="0" /><path
       d="m 75.230212,3.349995 h 7.514 v 4.696 h -7.514 z"
       style="fill:none;stroke:#000000;stroke-width:0.30000001;stroke-linecap:round;stroke-linejoin:miter;stroke-miterlimit:4;stroke-dasharray:none;stroke-opacity:1"
       id="path859"
       inkscape:connector-curvature="0" /><path
       d="m 98.71221,3.349995 h 7.514 v 4.696 h -7.514 z"
       style="fill:#999999;fill-opacity:1;fill-rule:nonzero;stroke:none"
       id="path861"
       inkscape:connector-curvature="0" /><path
       d="m 98.71221,3.349995 h 7.514 v 4.696 h -7.514 z"
       style="fill:none;stroke:#000000;stroke-width:0.30000001;stroke-linecap:round;stroke-linejoin:miter;stroke-miterlimit:4;stroke-dasharray:none;stroke-opacity:1"
       id="path863"
       inkscape:connector-curvature="0" /><path
       d="m 122.19321,3.349995 h 7.514 v 4.696 h -7.514 z"
       style="fill:#999999;fill-opacity:1;fill-rule:nonzero;stroke:none"
       id="path865"
       inkscape:connector-curvature="0" /><path
       d="m 122.19321,3.349995 h 7.514 v 4.696 h -7.514 z"
       style="fill:none;stroke:#000000;stroke-width:0.30000001;stroke-linecap:round;stroke-linejoin:miter;stroke-miterlimit:4;stroke-dasharray:none;stroke-opacity:1"
       id="path867"
       inkscape:connector-curvature="0" /><path
       d="m 145.67421,3.349995 h 7.514 v 4.696 h -7.514 z"
       style="fill:#999999;fill-opacity:1;fill-rule:nonzero;stroke:none"
       id="path869"
       inkscape:connector-curvature="0" /><path
       d="m 145.67421,3.349995 h 7.514 v 4.696 h -7.514 z"
       style="fill:none;stroke:#000000;stroke-width:0.30000001;stroke-linecap:round;stroke-linejoin:miter;stroke-miterlimit:4;stroke-dasharray:none;stroke-opacity:1"
       id="path871"
       inkscape:connector-curvature="0" /><path
       d="m 169.15621,3.349995 h 7.514 v 4.696 h -7.514 z"
       style="fill:#999999;fill-opacity:1;fill-rule:nonzero;stroke:none"
       id="path873"
       inkscape:connector-curvature="0" /><path
       d="m 169.15621,3.349995 h 7.514 v 4.696 h -7.514 z"
       style="fill:none;stroke:#000000;stroke-width:0.30000001;stroke-linecap:round;stroke-linejoin:miter;stroke-miterlimit:4;stroke-dasharray:none;stroke-opacity:1"
       id="path875"
       inkscape:connector-curvature="0" /><path
       d="m 192.63721,3.349995 h 7.514 v 4.696 h -7.514 z"
       style="fill:#999999;fill-opacity:1;fill-rule:nonzero;stroke:none"
       id="path877"
       inkscape:connector-curvature="0" /><path
       d="m 192.63721,3.349995 h 7.514 v 4.696 h -7.514 z"
       style="fill:none;stroke:#000000;stroke-width:0.30000001;stroke-linecap:round;stroke-linejoin:miter;stroke-miterlimit:4;stroke-dasharray:none;stroke-opacity:1"
       id="path879"
       inkscape:connector-curvature="0" /><path
       d="m 216.11821,3.349995 h 7.514 v 4.696 h -7.514 z"
       style="fill:#999999;fill-opacity:1;fill-rule:nonzero;stroke:none"
       id="path881"
       inkscape:connector-curvature="0" /><path
       d="m 216.11821,3.349995 h 7.514 v 4.696 h -7.514 z"
       style="fill:none;stroke:#000000;stroke-width:0.30000001;stroke-linecap:round;stroke-linejoin:miter;stroke-miterlimit:4;stroke-dasharray:none;stroke-opacity:1"
       id="path883"
       inkscape:connector-curvature="0" /><path
       d="M -0.18978804,11.893995 H 227.40621 v -2.113 H -0.18978804 Z"
       style="fill:#b3b3b3;fill-opacity:1;fill-rule:nonzero;stroke:none"
       id="path885"
       inkscape:connector-curvature="0" /><path
       d="M -0.18978804,11.893995 H 227.40621 m 0,-2.114 H -0.18978804"
       style="fill:none;stroke:#000000;stroke-width:0.30000001;stroke-linecap:butt;stroke-linejoin:miter;stroke-miterlimit:4;stroke-dasharray:none;stroke-opacity:1"
       id="path887"
       inkscape:connector-curvature="0" /><path
       d="m 66.716212,21.846995 h 4.094 m 81.030998,0 h 4.094"
       style="fill:none;stroke:#ffffff;stroke-width:0.30000001;stroke-linecap:round;stroke-linejoin:miter;stroke-miterlimit:4;stroke-dasharray:none;stroke-opacity:1"
       id="path889"
       inkscape:connector-curvature="0" /><path
       d="m 183.48421,19.424995 c 0.268,0 0.485,0.217 0.485,0.485 v 3.366 c 0,0.268 -0.217,0.485 -0.485,0.485 h -1.88 c -0.268,0 -0.485,-0.217 -0.485,-0.485 v -3.366 c 0,-0.268 0.217,-0.485 0.485,-0.485 h 1.88"
       style="fill:#808080;fill-opacity:1;fill-rule:nonzero;stroke:none"
       id="path891"
       inkscape:connector-curvature="0" /><path
       d="m 183.48421,19.424995 c 0.268,0 0.485,0.217 0.485,0.485 v 3.366 c 0,0.268 -0.217,0.485 -0.485,0.485 h -1.88 c -0.268,0 -0.485,-0.217 -0.485,-0.485 v -3.366 c 0,-0.268 0.217,-0.485 0.485,-0.485 z"
       style="fill:none;stroke:#000000;stroke-width:0.30000001;stroke-linecap:butt;stroke-linejoin:miter;stroke-miterlimit:4;stroke-dasharray:none;stroke-opacity:1"
       id="path893"
       inkscape:connector-curvature="0" /><path
       d="m 179.87621,19.424995 c -0.268,0 -0.485,0.217 -0.485,0.485 v 3.366 c 0,0.268 0.217,0.485 0.485,0.485 h 1.88 c 0.268,0 0.485,-0.217 0.485,-0.485 v -3.366 c 0,-0.268 -0.217,-0.485 -0.485,-0.485 h -1.88"
       style="fill:#808080;fill-opacity:1;fill-rule:nonzero;stroke:none"
       id="path895"
       inkscape:connector-curvature="0" /><path
       d="m 179.87621,19.424995 c -0.268,0 -0.485,0.217 -0.485,0.485 v 3.366 c 0,0.268 0.217,0.485 0.485,0.485 h 1.88 c 0.268,0 0.485,-0.217 0.485,-0.485 v -3.366 c 0,-0.268 -0.217,-0.485 -0.485,-0.485 z"
       style="fill:none;stroke:#000000;stroke-width:0.30000001;stroke-linecap:butt;stroke-linejoin:miter;stroke-miterlimit:4;stroke-dasharray:none;stroke-opacity:1"
       id="path897"
       inkscape:connector-curvature="0" /><path
       d="m 172.34621,22.903995 h 7.661 v -2.642 h -7.661 z"
       style="fill:#999999;fill-opacity:1;fill-rule:nonzero;stroke:none"
       id="path899"
       inkscape:connector-curvature="0" /><path
       d="m 172.34621,22.903995 h 7.661 v -2.642 h -7.661 z"
       style="fill:none;stroke:#000000;stroke-width:0.30000001;stroke-linecap:butt;stroke-linejoin:miter;stroke-miterlimit:4;stroke-dasharray:none;stroke-opacity:1"
       id="path901"
       inkscape:connector-curvature="0" /><path
       d="m 163.36521,24.092995 h 12.944 v -4.755 h -12.944 z"
       style="fill:#808080;fill-opacity:1;fill-rule:nonzero;stroke:none"
       id="path903"
       inkscape:connector-curvature="0" /><path
       d="m 163.36521,24.092995 h 12.944 v -4.755 h -12.944 z"
       style="fill:none;stroke:#000000;stroke-width:0.30000001;stroke-linecap:butt;stroke-linejoin:miter;stroke-miterlimit:4;stroke-dasharray:none;stroke-opacity:1"
       id="path905"
       inkscape:connector-curvature="0" /><path
       d="m 67.904212,23.035995 h -3.698 l -2.113,0.793 v 1.32 h -6.34 l -0.529,-1.585 -2.113,-4.755 2.642,-0.528 6.604,-2.642 h 3.434 l 0.925,0.661 h 2.377 l 0.925,-0.661 h 3.433 l 6.605,2.642 2.641,0.528 -2.113,4.755 -0.528,1.585 h -6.34 v -1.32 l -2.113,-0.793 h -3.699"
       style="fill:#808080;fill-opacity:1;fill-rule:nonzero;stroke:none"
       id="path907"
       inkscape:connector-curvature="0" /><path
       d="m 67.904212,23.035995 h -3.698 l -2.113,0.793 v 1.32 h -6.34 l -0.529,-1.585 -2.113,-4.755 2.642,-0.528 6.604,-2.642 h 3.434 l 0.925,0.661 h 2.377 l 0.925,-0.661 h 3.433 l 6.605,2.642 2.641,0.528 -2.113,4.755 -0.528,1.585 h -6.34 v -1.32 l -2.113,-0.793 z"
       style="fill:none;stroke:#000000;stroke-width:0.5;stroke-linecap:round;stroke-linejoin:round;stroke-miterlimit:4;stroke-dasharray:none;stroke-opacity:1"
       id="path909"
       inkscape:connector-curvature="0" /><path
       d="m 71.089212,15.785995 c -0.289,0.684 -0.449,1.436 -0.449,2.226 0,3.157 2.56,5.717 5.718,5.717 2.937,0 5.357,-2.216 5.68,-5.067"
       style="fill:#000000;fill-opacity:1;fill-rule:nonzero;stroke:none"
       id="path911"
       inkscape:connector-curvature="0" /><path
       d="m 76.358212,12.786995 c -2.889,0 -5.231,2.341 -5.231,5.23 0,2.888 2.342,5.23 5.231,5.23 2.888,0 5.23,-2.342 5.23,-5.23 0,-2.889 -2.342,-5.23 -5.23,-5.23"
       style="fill:#666666;fill-opacity:1;fill-rule:nonzero;stroke:none"
       id="path913"
       inkscape:connector-curvature="0" /><path
       d="m 76.358212,12.786995 c -2.889,0 -5.231,2.341 -5.231,5.23 0,2.888 2.342,5.23 5.231,5.23 2.888,0 5.23,-2.342 5.23,-5.23 0,-2.889 -2.342,-5.23 -5.23,-5.23 z"
       style="fill:none;stroke:#000000;stroke-width:0.30000001;stroke-linecap:round;stroke-linejoin:miter;stroke-miterlimit:4;stroke-dasharray:none;stroke-opacity:1"
       id="path915"
       inkscape:connector-curvature="0" /><path
       d="m 76.358212,14.740995 c -1.861,0 -3.37,1.509 -3.37,3.37 0,1.861 1.509,3.369 3.37,3.369 1.86,0 3.369,-1.508 3.369,-3.369 0,-1.861 -1.509,-3.37 -3.369,-3.37"
       style="fill:#4c4c4c;fill-opacity:1;fill-rule:nonzero;stroke:none"
       id="path917"
       inkscape:connector-curvature="0" /><path
       d="m 76.358212,14.740995 c -1.861,0 -3.37,1.509 -3.37,3.37 0,1.861 1.509,3.369 3.37,3.369 1.86,0 3.369,-1.508 3.369,-3.369 0,-1.861 -1.509,-3.37 -3.369,-3.37 z"
       style="fill:none;stroke:#000000;stroke-width:0.30000001;stroke-linecap:round;stroke-linejoin:miter;stroke-miterlimit:4;stroke-dasharray:none;stroke-opacity:1"
       id="path919"
       inkscape:connector-curvature="0" /><path
       d="m 76.358212,16.593995 c -0.809,0 -1.465,0.655 -1.465,1.463 0,0.809 0.656,1.465 1.465,1.465 0.808,0 1.464,-0.656 1.464,-1.465 0,-0.808 -0.656,-1.463 -1.464,-1.463"
       style="fill:#808080;fill-opacity:1;fill-rule:nonzero;stroke:none"
       id="path921"
       inkscape:connector-curvature="0" /><path
       d="m 76.358212,16.593995 c -0.809,0 -1.465,0.655 -1.465,1.463 0,0.809 0.656,1.465 1.465,1.465 0.808,0 1.464,-0.656 1.464,-1.465 0,-0.808 -0.656,-1.463 -1.464,-1.463 z"
       style="fill:none;stroke:#000000;stroke-width:0.30000001;stroke-linecap:round;stroke-linejoin:miter;stroke-miterlimit:4;stroke-dasharray:none;stroke-opacity:1"
       id="path923"
       inkscape:connector-curvature="0" /><path
       d="m 69.885212,19.997995 -0.66,-3.302 h -2.906 l -0.792,3.302 c 0,0 1.189,-2.642 1.189,-2.774 0,-0.132 1.981,0 1.981,0 0,0 1.188,2.906 1.188,2.774"
       style="fill:#000000;fill-opacity:1;fill-rule:nonzero;stroke:none"
       id="path925"
       inkscape:connector-curvature="0" /><path
       d="m 70.149212,20.790995 -1.32,-2.51 h -1.717 l 1.585,0.792 1.452,1.718"
       style="fill:#cccccc;fill-opacity:1;fill-rule:nonzero;stroke:none"
       id="path927"
       inkscape:connector-curvature="0" /><path
       d="m 64.719212,15.785995 c 0.289,0.684 0.449,1.436 0.449,2.226 0,3.157 -2.56,5.717 -5.717,5.717 -2.938,0 -5.358,-2.216 -5.681,-5.067"
       style="fill:#000000;fill-opacity:1;fill-rule:nonzero;stroke:none"
       id="path929"
       inkscape:connector-curvature="0" /><path
       d="m 59.451212,12.786995 c 2.888,0 5.23,2.341 5.23,5.23 0,2.888 -2.342,5.23 -5.23,5.23 -2.888,0 -5.231,-2.342 -5.231,-5.23 0,-2.889 2.343,-5.23 5.231,-5.23"
       style="fill:#666666;fill-opacity:1;fill-rule:nonzero;stroke:none"
       id="path931"
       inkscape:connector-curvature="0" /><path
       d="m 59.451212,12.786995 c 2.888,0 5.23,2.341 5.23,5.23 0,2.888 -2.342,5.23 -5.23,5.23 -2.888,0 -5.231,-2.342 -5.231,-5.23 0,-2.889 2.343,-5.23 5.231,-5.23 z"
       style="fill:none;stroke:#000000;stroke-width:0.30000001;stroke-linecap:round;stroke-linejoin:miter;stroke-miterlimit:4;stroke-dasharray:none;stroke-opacity:1"
       id="path933"
       inkscape:connector-curvature="0" /><path
       d="m 59.451212,14.740995 c 1.861,0 3.369,1.509 3.369,3.37 0,1.861 -1.508,3.369 -3.369,3.369 -1.861,0 -3.37,-1.508 -3.37,-3.369 0,-1.861 1.509,-3.37 3.37,-3.37"
       style="fill:#4c4c4c;fill-opacity:1;fill-rule:nonzero;stroke:none"
       id="path935"
       inkscape:connector-curvature="0" /><path
       d="m 59.451212,14.740995 c 1.861,0 3.369,1.509 3.369,3.37 0,1.861 -1.508,3.369 -3.369,3.369 -1.861,0 -3.37,-1.508 -3.37,-3.369 0,-1.861 1.509,-3.37 3.37,-3.37 z"
       style="fill:none;stroke:#000000;stroke-width:0.30000001;stroke-linecap:round;stroke-linejoin:miter;stroke-miterlimit:4;stroke-dasharray:none;stroke-opacity:1"
       id="path937"
       inkscape:connector-curvature="0" /><path
       d="m 59.451212,16.593995 c 0.809,0 1.464,0.655 1.464,1.463 0,0.809 -0.655,1.465 -1.464,1.465 -0.809,0 -1.464,-0.656 -1.464,-1.465 0,-0.808 0.655,-1.463 1.464,-1.463"
       style="fill:#808080;fill-opacity:1;fill-rule:nonzero;stroke:none"
       id="path939"
       inkscape:connector-curvature="0" /><path
       d="m 59.451212,16.593995 c 0.809,0 1.464,0.655 1.464,1.463 0,0.809 -0.655,1.465 -1.464,1.465 -0.809,0 -1.464,-0.656 -1.464,-1.465 0,-0.808 0.655,-1.463 1.464,-1.463 z"
       style="fill:none;stroke:#000000;stroke-width:0.30000001;stroke-linecap:round;stroke-linejoin:miter;stroke-miterlimit:4;stroke-dasharray:none;stroke-opacity:1"
       id="path941"
       inkscape:connector-curvature="0" /><path
       d="m 153.03021,23.035995 h -3.699 l -2.113,0.793 v 1.32 h -6.34 l -0.528,-1.585 -2.114,-4.755 2.642,-0.528 6.604,-2.642 h 3.434 l 0.925,0.661 h 2.377 l 0.925,-0.661 h 3.434 l 6.604,2.642 2.642,0.528 -2.114,4.755 -0.528,1.585 h -6.34 v -1.32 l -2.113,-0.793 h -3.698"
       style="fill:#808080;fill-opacity:1;fill-rule:nonzero;stroke:none"
       id="path943"
       inkscape:connector-curvature="0" /><path
       d="m 153.03021,23.035995 h -3.699 l -2.113,0.793 v 1.32 h -6.34 l -0.528,-1.585 -2.114,-4.755 2.642,-0.528 6.604,-2.642 h 3.434 l 0.925,0.661 h 2.377 l 0.925,-0.661 h 3.434 l 6.604,2.642 2.642,0.528 -2.114,4.755 -0.528,1.585 h -6.34 v -1.32 l -2.113,-0.793 z"
       style="fill:none;stroke:#000000;stroke-width:0.5;stroke-linecap:round;stroke-linejoin:round;stroke-miterlimit:4;stroke-dasharray:none;stroke-opacity:1"
       id="path945"
       inkscape:connector-curvature="0" /><path
       d="m 156.21521,15.785995 c -0.29,0.684 -0.449,1.436 -0.449,2.226 0,3.157 2.559,5.717 5.717,5.717 2.937,0 5.357,-2.216 5.68,-5.067"
       style="fill:#000000;fill-opacity:1;fill-rule:nonzero;stroke:none"
       id="path947"
       inkscape:connector-curvature="0" /><path
       d="m 161.48321,12.786995 c -2.889,0 -5.23,2.341 -5.23,5.23 0,2.888 2.341,5.23 5.23,5.23 2.888,0 5.23,-2.342 5.23,-5.23 0,-2.889 -2.342,-5.23 -5.23,-5.23"
       style="fill:#666666;fill-opacity:1;fill-rule:nonzero;stroke:none"
       id="path949"
       inkscape:connector-curvature="0" /><path
       d="m 161.48321,12.786995 c -2.889,0 -5.23,2.341 -5.23,5.23 0,2.888 2.341,5.23 5.23,5.23 2.888,0 5.23,-2.342 5.23,-5.23 0,-2.889 -2.342,-5.23 -5.23,-5.23 z"
       style="fill:none;stroke:#000000;stroke-width:0.30000001;stroke-linecap:round;stroke-linejoin:miter;stroke-miterlimit:4;stroke-dasharray:none;stroke-opacity:1"
       id="path951"
       inkscape:connector-curvature="0" /><path
       d="m 161.48321,14.740995 c -1.861,0 -3.37,1.509 -3.37,3.37 0,1.861 1.509,3.369 3.37,3.369 1.861,0 3.369,-1.508 3.369,-3.369 0,-1.861 -1.508,-3.37 -3.369,-3.37"
       style="fill:#4c4c4c;fill-opacity:1;fill-rule:nonzero;stroke:none"
       id="path953"
       inkscape:connector-curvature="0" /><path
       d="m 161.48321,14.740995 c -1.861,0 -3.37,1.509 -3.37,3.37 0,1.861 1.509,3.369 3.37,3.369 1.861,0 3.369,-1.508 3.369,-3.369 0,-1.861 -1.508,-3.37 -3.369,-3.37 z"
       style="fill:none;stroke:#000000;stroke-width:0.30000001;stroke-linecap:round;stroke-linejoin:miter;stroke-miterlimit:4;stroke-dasharray:none;stroke-opacity:1"
       id="path955"
       inkscape:connector-curvature="0" /><path
       d="m 161.48321,16.593995 c -0.809,0 -1.464,0.655 -1.464,1.463 0,0.809 0.655,1.465 1.464,1.465 0.808,0 1.464,-0.656 1.464,-1.465 0,-0.808 -0.656,-1.463 -1.464,-1.463"
       style="fill:#808080;fill-opacity:1;fill-rule:nonzero;stroke:none"
       id="path957"
       inkscape:connector-curvature="0" /><path
       d="m 161.48321,16.593995 c -0.809,0 -1.464,0.655 -1.464,1.463 0,0.809 0.655,1.465 1.464,1.465 0.808,0 1.464,-0.656 1.464,-1.465 0,-0.808 -0.656,-1.463 -1.464,-1.463 z"
       style="fill:none;stroke:#000000;stroke-width:0.30000001;stroke-linecap:round;stroke-linejoin:miter;stroke-miterlimit:4;stroke-dasharray:none;stroke-opacity:1"
       id="path959"
       inkscape:connector-curvature="0" /><path
       d="m 155.01121,19.997995 -0.661,-3.302 h -2.905 l -0.793,3.302 c 0,0 1.189,-2.642 1.189,-2.774 0,-0.132 1.981,0 1.981,0 0,0 1.189,2.906 1.189,2.774"
       style="fill:#000000;fill-opacity:1;fill-rule:nonzero;stroke:none"
       id="path961"
       inkscape:connector-curvature="0" /><path
       d="m 155.27521,20.790995 -1.321,-2.51 h -1.717 l 1.585,0.792 1.453,1.718"
       style="fill:#cccccc;fill-opacity:1;fill-rule:nonzero;stroke:none"
       id="path963"
       inkscape:connector-curvature="0" /><path
       d="m 149.84421,15.785995 c 0.289,0.684 0.449,1.436 0.449,2.226 0,3.157 -2.559,5.717 -5.717,5.717 -2.937,0 -5.358,-2.216 -5.68,-5.067"
       style="fill:#000000;fill-opacity:1;fill-rule:nonzero;stroke:none"
       id="path965"
       inkscape:connector-curvature="0" /><path
       d="m 144.57621,12.786995 c 2.889,0 5.23,2.341 5.23,5.23 0,2.888 -2.341,5.23 -5.23,5.23 -2.888,0 -5.23,-2.342 -5.23,-5.23 0,-2.889 2.342,-5.23 5.23,-5.23"
       style="fill:#666666;fill-opacity:1;fill-rule:nonzero;stroke:none"
       id="path967"
       inkscape:connector-curvature="0" /><path
       d="m 144.57621,12.786995 c 2.889,0 5.23,2.341 5.23,5.23 0,2.888 -2.341,5.23 -5.23,5.23 -2.888,0 -5.23,-2.342 -5.23,-5.23 0,-2.889 2.342,-5.23 5.23,-5.23 z"
       style="fill:none;stroke:#000000;stroke-width:0.30000001;stroke-linecap:round;stroke-linejoin:miter;stroke-miterlimit:4;stroke-dasharray:none;stroke-opacity:1"
       id="path969"
       inkscape:connector-curvature="0" /><path
       d="m 144.57621,14.740995 c 1.861,0 3.37,1.509 3.37,3.37 0,1.861 -1.509,3.369 -3.37,3.369 -1.861,0 -3.369,-1.508 -3.369,-3.369 0,-1.861 1.508,-3.37 3.369,-3.37"
       style="fill:#4c4c4c;fill-opacity:1;fill-rule:nonzero;stroke:none"
       id="path971"
       inkscape:connector-curvature="0" /><path
       d="m 144.57621,14.740995 c 1.861,0 3.37,1.509 3.37,3.37 0,1.861 -1.509,3.369 -3.37,3.369 -1.861,0 -3.369,-1.508 -3.369,-3.369 0,-1.861 1.508,-3.37 3.369,-3.37 z"
       style="fill:none;stroke:#000000;stroke-width:0.30000001;stroke-linecap:round;stroke-linejoin:miter;stroke-miterlimit:4;stroke-dasharray:none;stroke-opacity:1"
       id="path973"
       inkscape:connector-curvature="0" /><path
       d="m 144.57621,16.593995 c 0.809,0 1.464,0.655 1.464,1.463 0,0.809 -0.655,1.465 -1.464,1.465 -0.808,0 -1.464,-0.656 -1.464,-1.465 0,-0.808 0.656,-1.463 1.464,-1.463"
       style="fill:#808080;fill-opacity:1;fill-rule:nonzero;stroke:none"
       id="path975"
       inkscape:connector-curvature="0" /><path
       d="m 144.57621,16.593995 c 0.809,0 1.464,0.655 1.464,1.463 0,0.809 -0.655,1.465 -1.464,1.465 -0.808,0 -1.464,-0.656 -1.464,-1.465 0,-0.808 0.656,-1.463 1.464,-1.463 z"
       style="fill:none;stroke:#000000;stroke-width:0.30000001;stroke-linecap:round;stroke-linejoin:miter;stroke-miterlimit:4;stroke-dasharray:none;stroke-opacity:1"
       id="path977"
       inkscape:connector-curvature="0" /><path
       d="M 40.431212,72.434995 H 177.10121 v -47.55 H 40.431212 Z"
       style="fill:#808080;fill-opacity:1;fill-rule:nonzero;stroke:#000000;stroke-width:0.30000001;stroke-linecap:butt;stroke-linejoin:miter;stroke-miterlimit:4;stroke-dasharray:none;stroke-opacity:1"
       id="path979"
       inkscape:connector-curvature="0" /><path
       d="M 172.90421,27.526995 H 43.861212 l 0.004,41.209 H 172.90421 v -41.209"
       style="fill:#cccccc;fill-opacity:1;fill-rule:nonzero;stroke:none"
       id="path981"
       inkscape:connector-curvature="0" /><path
       d="M 43.865212,66.135995 H 170.31221 l -0.017,-38.609 h 2.609 v 41.209 H 43.865212 v -2.6"
       style="fill:#999999;fill-opacity:1;fill-rule:nonzero;stroke:none"
       id="path983"
       inkscape:connector-curvature="0" /><path
       d="M 172.90421,27.526995 H 43.861212 l 0.004,41.209 H 172.90421 Z"
       style="fill:none;stroke:#000000;stroke-width:0.30000001;stroke-linecap:butt;stroke-linejoin:miter;stroke-miterlimit:4;stroke-dasharray:none;stroke-opacity:1"
       id="path985"
       inkscape:connector-curvature="0" /><path
       d="m 50.067212,62.820995 c 0,0.718 0.582,0.65 1.3,0.65 h 15.8 c 0.718,0 1.3,0.068 1.3,-0.65 0,0.718 -0.582,1.3 -1.3,1.3 h -15.8 c -0.718,0 -1.3,-0.582 -1.3,-1.3"
       style="fill:#999999;fill-opacity:1;fill-rule:nonzero;stroke:none"
       id="path987"
       inkscape:connector-curvature="0" /><path
       d="m 50.067212,58.270995 c 0,0.718 0.582,0.65 1.3,0.65 h 15.8 c 0.718,0 1.3,0.068 1.3,-0.65 0,0.718 -0.582,1.3 -1.3,1.3 h -15.8 c -0.718,0 -1.3,-0.582 -1.3,-1.3"
       style="fill:#999999;fill-opacity:1;fill-rule:nonzero;stroke:none"
       id="path989"
       inkscape:connector-curvature="0" /><path
       d="m 50.067212,53.720995 c 0,0.718 0.582,0.65 1.3,0.65 h 15.8 c 0.718,0 1.3,0.068 1.3,-0.65 0,0.718 -0.582,1.3 -1.3,1.3 h -15.8 c -0.718,0 -1.3,-0.582 -1.3,-1.3"
       style="fill:#999999;fill-opacity:1;fill-rule:nonzero;stroke:none"
       id="path991"
       inkscape:connector-curvature="0" /><path
       d="m 50.067212,49.170995 c 0,0.718 0.582,0.65 1.3,0.65 h 15.8 c 0.718,0 1.3,0.068 1.3,-0.65 0,0.718 -0.582,1.3 -1.3,1.3 h -15.8 c -0.718,0 -1.3,-0.582 -1.3,-1.3"
       style="fill:#999999;fill-opacity:1;fill-rule:nonzero;stroke:none"
       id="path993"
       inkscape:connector-curvature="0" /><path
       d="m 50.067212,44.620995 c 0,0.718 0.582,0.65 1.3,0.65 h 15.8 c 0.718,0 1.3,0.068 1.3,-0.65 0,0.718 -0.582,1.3 -1.3,1.3 h -15.8 c -0.718,0 -1.3,-0.582 -1.3,-1.3"
       style="fill:#999999;fill-opacity:1;fill-rule:nonzero;stroke:none"
       id="path995"
       inkscape:connector-curvature="0" /><path
       d="m 50.067212,40.070995 c 0,0.718 0.582,0.65 1.3,0.65 h 15.8 c 0.718,0 1.3,0.068 1.3,-0.65 0,0.718 -0.582,1.3 -1.3,1.3 h -15.8 c -0.718,0 -1.3,-0.582 -1.3,-1.3"
       style="fill:#999999;fill-opacity:1;fill-rule:nonzero;stroke:none"
       id="path997"
       inkscape:connector-curvature="0" /><path
       d="m 50.067212,35.520995 c 0,0.718 0.582,0.65 1.3,0.65 h 15.8 c 0.718,0 1.3,0.068 1.3,-0.65 0,0.718 -0.582,1.3 -1.3,1.3 h -15.8 c -0.718,0 -1.3,-0.582 -1.3,-1.3"
       style="fill:#999999;fill-opacity:1;fill-rule:nonzero;stroke:none"
       id="path999"
       inkscape:connector-curvature="0" /><path
       d="m 50.067212,30.970995 c 0,0.718 0.582,0.65 1.3,0.65 h 15.8 c 0.718,0 1.3,0.068 1.3,-0.65 0,0.718 -0.582,1.3 -1.3,1.3 h -15.8 c -0.718,0 -1.3,-0.582 -1.3,-1.3"
       style="fill:#999999;fill-opacity:1;fill-rule:nonzero;stroke:none"
       id="path1001"
       inkscape:connector-curvature="0" /><path
       d="m 74.642212,62.820995 c 0,0.718 0.582,0.65 1.3,0.65 h 15.8 c 0.718,0 1.3,0.068 1.3,-0.65 0,0.718 -0.582,1.3 -1.3,1.3 h -15.8 c -0.718,0 -1.3,-0.582 -1.3,-1.3"
       style="fill:#999999;fill-opacity:1;fill-rule:nonzero;stroke:none"
       id="path1003"
       inkscape:connector-curvature="0" /><path
       d="m 74.642212,58.270995 c 0,0.718 0.582,0.65 1.3,0.65 h 15.8 c 0.718,0 1.3,0.068 1.3,-0.65 0,0.718 -0.582,1.3 -1.3,1.3 h -15.8 c -0.718,0 -1.3,-0.582 -1.3,-1.3"
       style="fill:#999999;fill-opacity:1;fill-rule:nonzero;stroke:none"
       id="path1005"
       inkscape:connector-curvature="0" /><path
       d="m 74.642212,53.720995 c 0,0.718 0.582,0.65 1.3,0.65 h 15.8 c 0.718,0 1.3,0.068 1.3,-0.65 0,0.718 -0.582,1.3 -1.3,1.3 h -15.8 c -0.718,0 -1.3,-0.582 -1.3,-1.3"
       style="fill:#999999;fill-opacity:1;fill-rule:nonzero;stroke:none"
       id="path1007"
       inkscape:connector-curvature="0" /><path
       d="m 74.642212,49.170995 c 0,0.718 0.582,0.65 1.3,0.65 h 15.8 c 0.718,0 1.3,0.068 1.3,-0.65 0,0.718 -0.582,1.3 -1.3,1.3 h -15.8 c -0.718,0 -1.3,-0.582 -1.3,-1.3"
       style="fill:#999999;fill-opacity:1;fill-rule:nonzero;stroke:none"
       id="path1009"
       inkscape:connector-curvature="0" /><path
       d="m 74.642212,44.620995 c 0,0.718 0.582,0.65 1.3,0.65 h 15.8 c 0.718,0 1.3,0.068 1.3,-0.65 0,0.718 -0.582,1.3 -1.3,1.3 h -15.8 c -0.718,0 -1.3,-0.582 -1.3,-1.3"
       style="fill:#999999;fill-opacity:1;fill-rule:nonzero;stroke:none"
       id="path1011"
       inkscape:connector-curvature="0" /><path
       d="m 74.642212,40.070995 c 0,0.718 0.582,0.65 1.3,0.65 h 15.8 c 0.718,0 1.3,0.068 1.3,-0.65 0,0.718 -0.582,1.3 -1.3,1.3 h -15.8 c -0.718,0 -1.3,-0.582 -1.3,-1.3"
       style="fill:#999999;fill-opacity:1;fill-rule:nonzero;stroke:none"
       id="path1013"
       inkscape:connector-curvature="0" /><path
       d="m 74.642212,35.520995 c 0,0.718 0.582,0.65 1.3,0.65 h 15.8 c 0.718,0 1.3,0.068 1.3,-0.65 0,0.718 -0.582,1.3 -1.3,1.3 h -15.8 c -0.718,0 -1.3,-0.582 -1.3,-1.3"
       style="fill:#999999;fill-opacity:1;fill-rule:nonzero;stroke:none"
       id="path1015"
       inkscape:connector-curvature="0" /><path
       d="m 74.642212,30.970995 c 0,0.718 0.582,0.65 1.3,0.65 h 15.8 c 0.718,0 1.3,0.068 1.3,-0.65 0,0.718 -0.582,1.3 -1.3,1.3 h -15.8 c -0.718,0 -1.3,-0.582 -1.3,-1.3"
       style="fill:#999999;fill-opacity:1;fill-rule:nonzero;stroke:none"
       id="path1017"
       inkscape:connector-curvature="0" /><path
       d="m 121.46721,62.820995 c 0,0.718 0.582,0.65 1.3,0.65 h 15.8 c 0.718,0 1.3,0.068 1.3,-0.65 0,0.718 -0.582,1.3 -1.3,1.3 h -15.8 c -0.718,0 -1.3,-0.582 -1.3,-1.3"
       style="fill:#999999;fill-opacity:1;fill-rule:nonzero;stroke:none"
       id="path1019"
       inkscape:connector-curvature="0" /><path
       d="m 121.46721,58.270995 c 0,0.718 0.582,0.65 1.3,0.65 h 15.8 c 0.718,0 1.3,0.068 1.3,-0.65 0,0.718 -0.582,1.3 -1.3,1.3 h -15.8 c -0.718,0 -1.3,-0.582 -1.3,-1.3"
       style="fill:#999999;fill-opacity:1;fill-rule:nonzero;stroke:none"
       id="path1021"
       inkscape:connector-curvature="0" /><path
       d="m 121.46721,53.720995 c 0,0.718 0.582,0.65 1.3,0.65 h 15.8 c 0.718,0 1.3,0.068 1.3,-0.65 0,0.718 -0.582,1.3 -1.3,1.3 h -15.8 c -0.718,0 -1.3,-0.582 -1.3,-1.3"
       style="fill:#999999;fill-opacity:1;fill-rule:nonzero;stroke:none"
       id="path1023"
       inkscape:connector-curvature="0" /><path
       d="m 121.46721,49.170995 c 0,0.718 0.582,0.65 1.3,0.65 h 15.8 c 0.718,0 1.3,0.068 1.3,-0.65 0,0.718 -0.582,1.3 -1.3,1.3 h -15.8 c -0.718,0 -1.3,-0.582 -1.3,-1.3"
       style="fill:#999999;fill-opacity:1;fill-rule:nonzero;stroke:none"
       id="path1025"
       inkscape:connector-curvature="0" /><path
       d="m 121.46721,44.620995 c 0,0.718 0.582,0.65 1.3,0.65 h 15.8 c 0.718,0 1.3,0.068 1.3,-0.65 0,0.718 -0.582,1.3 -1.3,1.3 h -15.8 c -0.718,0 -1.3,-0.582 -1.3,-1.3"
       style="fill:#999999;fill-opacity:1;fill-rule:nonzero;stroke:none"
       id="path1027"
       inkscape:connector-curvature="0" /><path
       d="m 121.46721,40.070995 c 0,0.718 0.582,0.65 1.3,0.65 h 15.8 c 0.718,0 1.3,0.068 1.3,-0.65 0,0.718 -0.582,1.3 -1.3,1.3 h -15.8 c -0.718,0 -1.3,-0.582 -1.3,-1.3"
       style="fill:#999999;fill-opacity:1;fill-rule:nonzero;stroke:none"
       id="path1029"
       inkscape:connector-curvature="0" /><path
       d="m 121.46721,35.520995 c 0,0.718 0.582,0.65 1.3,0.65 h 15.8 c 0.718,0 1.3,0.068 1.3,-0.65 0,0.718 -0.582,1.3 -1.3,1.3 h -15.8 c -0.718,0 -1.3,-0.582 -1.3,-1.3"
       style="fill:#999999;fill-opacity:1;fill-rule:nonzero;stroke:none"
       id="path1031"
       inkscape:connector-curvature="0" /><path
       d="m 121.46721,30.970995 c 0,0.718 0.582,0.65 1.3,0.65 h 15.8 c 0.718,0 1.3,0.068 1.3,-0.65 0,0.718 -0.582,1.3 -1.3,1.3 h -15.8 c -0.718,0 -1.3,-0.582 -1.3,-1.3"
       style="fill:#999999;fill-opacity:1;fill-rule:nonzero;stroke:none"
       id="path1033"
       inkscape:connector-curvature="0" /><path
       d="m 146.04221,62.820995 c 0,0.718 0.582,0.65 1.3,0.65 h 15.8 c 0.718,0 1.3,0.068 1.3,-0.65 0,0.718 -0.582,1.3 -1.3,1.3 h -15.8 c -0.718,0 -1.3,-0.582 -1.3,-1.3"
       style="fill:#999999;fill-opacity:1;fill-rule:nonzero;stroke:none"
       id="path1035"
       inkscape:connector-curvature="0" /><path
       d="m 146.04221,58.270995 c 0,0.718 0.582,0.65 1.3,0.65 h 15.8 c 0.718,0 1.3,0.068 1.3,-0.65 0,0.718 -0.582,1.3 -1.3,1.3 h -15.8 c -0.718,0 -1.3,-0.582 -1.3,-1.3"
       style="fill:#999999;fill-opacity:1;fill-rule:nonzero;stroke:none"
       id="path1037"
       inkscape:connector-curvature="0" /><path
       d="m 146.04221,53.720995 c 0,0.718 0.582,0.65 1.3,0.65 h 15.8 c 0.718,0 1.3,0.068 1.3,-0.65 0,0.718 -0.582,1.3 -1.3,1.3 h -15.8 c -0.718,0 -1.3,-0.582 -1.3,-1.3"
       style="fill:#999999;fill-opacity:1;fill-rule:nonzero;stroke:none"
       id="path1039"
       inkscape:connector-curvature="0" /><path
       d="m 146.04221,49.170995 c 0,0.718 0.582,0.65 1.3,0.65 h 15.8 c 0.718,0 1.3,0.068 1.3,-0.65 0,0.718 -0.582,1.3 -1.3,1.3 h -15.8 c -0.718,0 -1.3,-0.582 -1.3,-1.3"
       style="fill:#999999;fill-opacity:1;fill-rule:nonzero;stroke:none"
       id="path1041"
       inkscape:connector-curvature="0" /><path
       d="m 146.04221,44.620995 c 0,0.718 0.582,0.65 1.3,0.65 h 15.8 c 0.718,0 1.3,0.068 1.3,-0.65 0,0.718 -0.582,1.3 -1.3,1.3 h -15.8 c -0.718,0 -1.3,-0.582 -1.3,-1.3"
       style="fill:#999999;fill-opacity:1;fill-rule:nonzero;stroke:none"
       id="path1043"
       inkscape:connector-curvature="0" /><path
       d="m 146.04221,40.070995 c 0,0.718 0.582,0.65 1.3,0.65 h 15.8 c 0.718,0 1.3,0.068 1.3,-0.65 0,0.718 -0.582,1.3 -1.3,1.3 h -15.8 c -0.718,0 -1.3,-0.582 -1.3,-1.3"
       style="fill:#999999;fill-opacity:1;fill-rule:nonzero;stroke:none"
       id="path1045"
       inkscape:connector-curvature="0" /><path
       d="m 146.04221,35.520995 c 0,0.718 0.582,0.65 1.3,0.65 h 15.8 c 0.718,0 1.3,0.068 1.3,-0.65 0,0.718 -0.582,1.3 -1.3,1.3 h -15.8 c -0.718,0 -1.3,-0.582 -1.3,-1.3"
       style="fill:#999999;fill-opacity:1;fill-rule:nonzero;stroke:none"
       id="path1047"
       inkscape:connector-curvature="0" /><path
       d="m 146.04221,30.970995 c 0,0.718 0.582,0.65 1.3,0.65 h 15.8 c 0.718,0 1.3,0.068 1.3,-0.65 0,0.718 -0.582,1.3 -1.3,1.3 h -15.8 c -0.718,0 -1.3,-0.582 -1.3,-1.3"
       style="fill:#999999;fill-opacity:1;fill-rule:nonzero;stroke:none"
       id="path1049"
       inkscape:connector-curvature="0" /><path
       d="m 169.17121,38.799995 c 0,-0.495 0.099,-2.478 0.248,-3.172 0.112,-0.979 0.14,-2.127 0.224,-3.051 0.084,-0.921 0.372,-2.581 0.196,-3.331 -0.112,-0.475 -0.29,-0.86 -0.924,-1.063 -0.7,-0.224 -1.484,-0.205 -1.204,-0.588 h 3.191 c 0.28,0.476 -0.165,0.923 -0.112,1.567 0.088,1.068 0.252,3.192 0.392,4.171 0.14,0.98 0.028,1.932 -0.112,2.435 -0.14,0.504 -0.14,0.644 0,1.232 0.149,0.792 0.131,1.701 0.131,1.701 l -2.03,0.099"
       style="fill:#b3b3b3;fill-opacity:1;fill-rule:nonzero;stroke:none"
       id="path1051"
       inkscape:connector-curvature="0" /><path
       d="m 169.17121,38.799995 c 0,-0.495 0.099,-2.478 0.248,-3.172 0.112,-0.979 0.14,-2.127 0.224,-3.051 0.084,-0.921 0.372,-2.581 0.196,-3.331 -0.112,-0.475 -0.29,-0.86 -0.924,-1.063 -0.7,-0.224 -1.484,-0.205 -1.204,-0.588 h 3.191 c 0.28,0.476 -0.165,0.923 -0.112,1.567 0.088,1.068 0.252,3.192 0.392,4.171 0.14,0.98 0.028,1.932 -0.112,2.435 -0.14,0.504 -0.14,0.644 0,1.232 0.149,0.792 0.131,1.701 0.131,1.701 z"
       style="fill:none;stroke:#000000;stroke-width:0.2;stroke-linecap:round;stroke-linejoin:round;stroke-miterlimit:4;stroke-dasharray:none;stroke-opacity:1"
       id="path1053"
       inkscape:connector-curvature="0" /><path
       d="m 170.35921,38.799995 c 0,-0.495 0.099,-2.478 0.247,-3.172 0.112,-0.979 0.14,-2.127 0.224,-3.051 0.084,-0.921 0.373,-2.581 0.196,-3.331 -0.112,-0.475 -0.29,-0.86 -0.923,-1.063 -0.7,-0.224 -1.484,-0.205 -1.204,-0.588 h 3.191 c 0.28,0.476 -0.165,0.923 -0.112,1.567 0.088,1.068 0.252,3.192 0.392,4.171 0.14,0.98 0.028,1.932 -0.112,2.435 -0.14,0.504 -0.14,0.644 0,1.232 0.148,0.792 0.13,1.701 0.13,1.701 l -2.029,0.099"
       style="fill:#b3b3b3;fill-opacity:1;fill-rule:nonzero;stroke:none"
       id="path1055"
       inkscape:connector-curvature="0" /><path
       d="m 170.35921,38.799995 c 0,-0.495 0.099,-2.478 0.247,-3.172 0.112,-0.979 0.14,-2.127 0.224,-3.051 0.084,-0.921 0.373,-2.581 0.196,-3.331 -0.112,-0.475 -0.29,-0.86 -0.923,-1.063 -0.7,-0.224 -1.484,-0.205 -1.204,-0.588 h 3.191 c 0.28,0.476 -0.165,0.923 -0.112,1.567 0.088,1.068 0.252,3.192 0.392,4.171 0.14,0.98 0.028,1.932 -0.112,2.435 -0.14,0.504 -0.14,0.644 0,1.232 0.148,0.792 0.13,1.701 0.13,1.701 z"
       style="fill:none;stroke:#000000;stroke-width:0.2;stroke-linecap:round;stroke-linejoin:round;stroke-miterlimit:4;stroke-dasharray:none;stroke-opacity:1"
       id="path1057"
       inkscape:connector-curvature="0" /><path
       d="m 167.73921,27.594995 c -0.112,0.014 -0.084,0.084 -0.126,0.154 -0.084,0.322 0.658,0.406 0.84,0.448 0.182,0.042 0.518,0.252 0.602,0.294 0.084,0.042 0.098,0.112 0.252,0.182 0.154,0.07 0.196,0.112 0.21,0.28 0.014,0.168 0.042,0.209 0.154,0.139 0.112,-0.07 0.168,-0.041 0.154,-0.139 -0.014,-0.098 -0.112,-0.252 -0.154,-0.392 1.1,-0.226 1.079,0.113 1.175,0.238 0.056,-0.28 0.196,-0.658 0.182,-0.826 -0.016,-0.2 -0.07,-0.308 -0.112,-0.378 h -3.177"
       style="fill:#999999;fill-opacity:1;fill-rule:nonzero;stroke:none"
       id="path1059"
       inkscape:connector-curvature="0" /><path
       d="m 167.73921,27.594995 c -0.112,0.014 -0.084,0.084 -0.126,0.154 -0.084,0.322 0.658,0.406 0.84,0.448 0.182,0.042 0.518,0.252 0.602,0.294 0.084,0.042 0.098,0.112 0.252,0.182 0.154,0.07 0.196,0.112 0.21,0.28 0.014,0.168 0.042,0.209 0.154,0.139 0.112,-0.07 0.168,-0.041 0.154,-0.139 -0.014,-0.098 -0.112,-0.252 -0.154,-0.392 1.1,-0.226 1.079,0.113 1.175,0.238 0.056,-0.28 0.196,-0.658 0.182,-0.826 -0.016,-0.2 -0.07,-0.308 -0.112,-0.378 z"
       style="fill:none;stroke:#000000;stroke-width:0.2;stroke-linecap:round;stroke-linejoin:round;stroke-miterlimit:4;stroke-dasharray:none;stroke-opacity:1"
       id="path1061"
       inkscape:connector-curvature="0" /><path
       d="m 168.92721,27.594995 c -0.112,0.014 -0.084,0.084 -0.126,0.154 -0.084,0.322 0.658,0.406 0.84,0.448 0.182,0.042 0.517,0.252 0.601,0.294 0.084,0.042 0.098,0.112 0.252,0.182 0.154,0.07 0.196,0.112 0.21,0.28 0.014,0.168 0.042,0.209 0.154,0.139 0.112,-0.07 0.168,-0.041 0.154,-0.139 -0.014,-0.098 -0.112,-0.252 -0.154,-0.392 1.1,-0.226 1.079,0.113 1.176,0.238 0.056,-0.28 0.196,-0.658 0.182,-0.826 -0.017,-0.2 -0.07,-0.308 -0.112,-0.378 h -3.177"
       style="fill:#999999;fill-opacity:1;fill-rule:nonzero;stroke:none"
       id="path1063"
       inkscape:connector-curvature="0" /><path
       d="m 168.92721,27.594995 c -0.112,0.014 -0.084,0.084 -0.126,0.154 -0.084,0.322 0.658,0.406 0.84,0.448 0.182,0.042 0.517,0.252 0.601,0.294 0.084,0.042 0.098,0.112 0.252,0.182 0.154,0.07 0.196,0.112 0.21,0.28 0.014,0.168 0.042,0.209 0.154,0.139 0.112,-0.07 0.168,-0.041 0.154,-0.139 -0.014,-0.098 -0.112,-0.252 -0.154,-0.392 1.1,-0.226 1.079,0.113 1.176,0.238 0.056,-0.28 0.196,-0.658 0.182,-0.826 -0.017,-0.2 -0.07,-0.308 -0.112,-0.378 z"
       style="fill:none;stroke:#000000;stroke-width:0.2;stroke-linecap:round;stroke-linejoin:round;stroke-miterlimit:4;stroke-dasharray:none;stroke-opacity:1"
       id="path1065"
       inkscape:connector-curvature="0" /><path
       d="m 171.99421,43.400995 c 0.448,-0.392 0.656,-0.622 0.784,-1.903 0.112,-1.12 -0.27,-2.136 -0.27,-2.304 0,-0.177 0.037,-2.235 0.087,-3.664 -0.161,-0.19 0.053,-6.912 -0.149,-6.899 0.073,-0.004 -1.337,-0.189 -1.588,-0.07 -0.216,0.102 0.252,0.28 0,0 -0.228,-0.254 -1.213,0.279 -1.409,0.559 -0.201,0.288 -0.26,5.462 -0.54,5.798 0.168,1.259 -0.239,2.353 0.256,5.856 0.189,1.338 0.13,2.372 0.338,2.655 0.42,-0.112 2.071,-0.392 2.491,-0.028"
       style="fill:#4c4c4c;fill-opacity:1;fill-rule:nonzero;stroke:none"
       id="path1067"
       inkscape:connector-curvature="0" /><path
       d="m 171.99421,43.400995 c 0.448,-0.392 0.656,-0.622 0.784,-1.903 0.112,-1.12 -0.27,-2.136 -0.27,-2.304 0,-0.177 0.037,-2.235 0.087,-3.664 -0.161,-0.19 0.053,-6.912 -0.149,-6.899 0.073,-0.004 -1.337,-0.189 -1.588,-0.07 -0.216,0.102 0.252,0.28 0,0 -0.228,-0.254 -1.213,0.279 -1.409,0.559 -0.201,0.288 -0.26,5.462 -0.54,5.798 0.168,1.259 -0.239,2.353 0.256,5.856 0.189,1.338 0.13,2.372 0.338,2.655 0.42,-0.112 2.071,-0.392 2.491,-0.028 z"
       style="fill:none;stroke:#000000;stroke-width:0.2;stroke-linecap:round;stroke-linejoin:round;stroke-miterlimit:4;stroke-dasharray:none;stroke-opacity:1"
       id="path1069"
       inkscape:connector-curvature="0" /><path
       d="m 172.24621,48.964995 c -0.104,0.168 -0.42,0.663 -0.34,0.868 0.137,0.352 0.502,0.601 0.516,1.183 0.02,0.821 -0.539,1.293 -0.938,1.405 -0.514,0.143 -1.041,0.142 -1.481,-0.322 -0.148,-0.156 -0.213,-0.46 -0.279,-0.596 -0.066,-0.136 -0.045,-0.301 0.007,-0.368 0.052,-0.067 0,-0.195 -0.063,-0.256 -0.103,-0.101 -0.257,-0.242 -0.311,-0.338 -0.059,-0.104 0.025,-0.146 0.104,-0.167 0.07,-0.019 0.153,-0.049 0.103,-0.1 -0.05,-0.052 -0.127,-0.136 -0.101,-0.178 0.026,-0.042 0.418,-0.223 0.052,-0.084 -0.087,0.033 -0.083,-0.103 -0.032,-0.119 0.051,-0.016 0.079,-0.038 0.087,-0.134 0.005,-0.064 -0.069,-0.099 -0.098,-0.198 -0.11,-0.377 0.456,-0.375 0.665,-0.346 0.219,0.031 0.375,0.031 0.441,-0.061 0.102,-0.141 0.014,-0.632 0.102,-0.885 0.041,-0.262 0.586,-1.037 0.598,-1.234 l 0.968,1.93"
       style="fill:#666666;fill-opacity:1;fill-rule:nonzero;stroke:none"
       id="path1071"
       inkscape:connector-curvature="0" /><path
       d="m 172.24621,48.964995 c -0.104,0.168 -0.42,0.663 -0.34,0.868 0.137,0.352 0.502,0.601 0.516,1.183 0.02,0.821 -0.539,1.293 -0.938,1.405 -0.514,0.143 -1.041,0.142 -1.481,-0.322 -0.148,-0.156 -0.213,-0.46 -0.279,-0.596 -0.066,-0.136 -0.045,-0.301 0.007,-0.368 0.052,-0.067 0,-0.195 -0.063,-0.256 -0.103,-0.101 -0.257,-0.242 -0.311,-0.338 -0.059,-0.104 0.025,-0.146 0.104,-0.167 0.07,-0.019 0.153,-0.049 0.103,-0.1 -0.05,-0.052 -0.127,-0.136 -0.101,-0.178 0.026,-0.042 0.418,-0.223 0.052,-0.084 -0.087,0.033 -0.083,-0.103 -0.032,-0.119 0.051,-0.016 0.079,-0.038 0.087,-0.134 0.005,-0.064 -0.069,-0.099 -0.098,-0.198 -0.11,-0.377 0.456,-0.375 0.665,-0.346 0.219,0.031 0.375,0.031 0.441,-0.061 0.102,-0.141 0.014,-0.632 0.102,-0.885 0.041,-0.262 0.586,-1.037 0.598,-1.234 z"
       style="fill:none;stroke:#000000;stroke-width:0.2;stroke-linecap:butt;stroke-linejoin:miter;stroke-miterlimit:4;stroke-dasharray:none;stroke-opacity:1"
       id="path1073"
       inkscape:connector-curvature="0" /><path
       d="m 170.81821,48.606995 c -0.097,-0.074 -0.14,-0.056 -0.252,-0.056 -0.121,0 -0.759,-0.863 -0.829,-0.919 -0.285,-0.228 -0.524,-1.455 -0.398,-1.637 0.126,-0.182 0.112,-0.753 0.098,-0.851 -0.013,-0.098 -0.097,-0.287 -0.069,-0.623 0.028,-0.336 0.188,-0.561 0.104,-0.729 -0.084,-0.168 0.097,-0.58 0.097,-0.58 0.392,-0.238 1.431,-0.455 2.271,-0.315 0.84,0.14 0.658,0.392 0.616,0.546 -0.042,0.154 -0.039,0.719 0.014,1.456 0.042,0.587 0.07,1.119 0.07,1.329 0,0.21 0.255,0.594 0.203,1.118 -0.073,0.738 -0.175,0.842 -0.245,0.982 -0.064,0.127 -0.126,0.014 -0.28,-0.014 -0.092,-0.017 0.112,0.308 0.224,0.377 -0.462,-0.028 -1.19,0 -1.232,0 -0.042,0 -0.252,-0.461 -0.448,-0.629 -0.196,-0.168 -0.349,-0.266 -0.447,-0.294 0.098,0.182 0.503,0.839 0.503,0.839"
       style="fill:#999999;fill-opacity:1;fill-rule:nonzero;stroke:none"
       id="path1075"
       inkscape:connector-curvature="0" /><path
       d="m 170.81821,48.606995 c -0.097,-0.074 -0.14,-0.056 -0.252,-0.056 -0.121,0 -0.759,-0.863 -0.829,-0.919 -0.285,-0.228 -0.524,-1.455 -0.398,-1.637 0.126,-0.182 0.112,-0.753 0.098,-0.851 -0.013,-0.098 -0.097,-0.287 -0.069,-0.623 0.028,-0.336 0.188,-0.561 0.104,-0.729 -0.084,-0.168 0.097,-0.58 0.097,-0.58 0.392,-0.238 1.431,-0.455 2.271,-0.315 0.84,0.14 0.658,0.392 0.616,0.546 -0.042,0.154 -0.039,0.719 0.014,1.456 0.042,0.587 0.07,1.119 0.07,1.329 0,0.21 0.255,0.594 0.203,1.118 -0.073,0.738 -0.175,0.842 -0.245,0.982 -0.064,0.127 -0.126,0.014 -0.28,-0.014 -0.092,-0.017 0.112,0.308 0.224,0.377 -0.462,-0.028 -1.19,0 -1.232,0 -0.042,0 -0.252,-0.461 -0.448,-0.629 -0.196,-0.168 -0.349,-0.266 -0.447,-0.294 0.098,0.182 0.503,0.839 0.503,0.839 z m -1.497,-2.981 c 0.243,0.067 0.434,-0.118 0.626,-0.234 0.295,-0.178 0.551,0.105 0.831,0.202 0.042,0.014 0.092,0.004 0.138,0.004"
       style="fill:none;stroke:#000000;stroke-width:0.2;stroke-linecap:butt;stroke-linejoin:miter;stroke-miterlimit:4;stroke-dasharray:none;stroke-opacity:1"
       id="path1077"
       inkscape:connector-curvature="0" /><path
       d="m 171.18221,48.550995 c 0.042,0.084 0.012,0.067 0.07,0.028 0.084,-0.056 0.098,-0.279 0.14,-0.419 0.28,0.14 0.796,0.271 1.106,0.168 0.042,-0.014 0.099,0.477 -0.012,0.587 -0.133,0.133 -0.344,0.413 -0.386,0.357 -0.12,-0.161 -0.242,-0.126 -0.448,-0.281 -0.339,-0.255 -0.526,-0.104 -0.554,-0.272 -0.028,-0.168 -0.35,-0.657 -0.685,-0.853 0.139,0.168 0.21,0.979 0.126,0.979 -0.084,0 -0.099,-0.14 -0.154,-0.21 -0.056,-0.07 -0.168,-0.209 -0.21,-0.224 0.056,-0.013 0.334,0.068 0.391,0.084 0.099,0.028 -0.083,-0.46 -0.349,-0.685 -0.024,-0.021 0.071,-0.132 0.084,-0.126 0.341,0.154 0.741,0.42 0.881,0.867"
       style="fill:#999999;fill-opacity:1;fill-rule:nonzero;stroke:none"
       id="path1079"
       inkscape:connector-curvature="0" /><path
       d="m 171.18221,48.550995 c 0.042,0.084 0.012,0.067 0.07,0.028 0.084,-0.056 0.098,-0.279 0.14,-0.419 0.28,0.14 0.796,0.271 1.106,0.168 0.042,-0.014 0.099,0.477 -0.012,0.587 -0.133,0.133 -0.344,0.413 -0.386,0.357 -0.12,-0.161 -0.242,-0.126 -0.448,-0.281 -0.339,-0.255 -0.526,-0.104 -0.554,-0.272 -0.028,-0.168 -0.35,-0.657 -0.685,-0.853 0.139,0.168 0.21,0.979 0.126,0.979 -0.084,0 -0.099,-0.14 -0.154,-0.21 -0.056,-0.07 -0.168,-0.209 -0.21,-0.224 0.056,-0.013 0.334,0.068 0.391,0.084 0.099,0.028 -0.083,-0.46 -0.349,-0.685 -0.024,-0.021 0.071,-0.132 0.084,-0.126 0.341,0.154 0.741,0.42 0.881,0.867 z m -0.601,-0.056 c 0,0.099 -0.015,0.182 -0.042,0.21"
       style="fill:none;stroke:#000000;stroke-width:0.2;stroke-linecap:butt;stroke-linejoin:miter;stroke-miterlimit:4;stroke-dasharray:none;stroke-opacity:1"
       id="path1081"
       inkscape:connector-curvature="0" /><path
       d="m 170.60621,45.411995 c 0.031,-0.206 0.416,-0.317 0.859,-0.249 0.443,0.068 0.776,0.29 0.745,0.495 -0.032,0.206 -0.416,0.317 -0.859,0.249 -0.443,-0.068 -0.777,-0.29 -0.745,-0.495"
       style="fill:#33b887;fill-opacity:1;fill-rule:nonzero;stroke:none"
       id="path1083"
       inkscape:connector-curvature="0" /><path
       d="m 170.60621,45.411995 c 0.031,-0.206 0.416,-0.317 0.859,-0.249 0.443,0.068 0.776,0.29 0.745,0.495 -0.032,0.206 -0.416,0.317 -0.859,0.249 -0.443,-0.068 -0.777,-0.29 -0.745,-0.495 z"
       style="fill:none;stroke:#000000;stroke-width:0.2;stroke-linecap:butt;stroke-linejoin:miter;stroke-miterlimit:4;stroke-dasharray:none;stroke-opacity:1"
       id="path1085"
       inkscape:connector-curvature="0" /><path
       d="m 170.11921,28.734995 c 0,0 0.199,3.167 0.051,4.786 -0.029,0.325 -0.208,0.872 -0.195,1.254 0.014,0.425 0.221,0.675 0.195,0.809 -0.437,2.312 0.125,4.375 0.125,4.375"
       style="fill:none;stroke:#000000;stroke-width:0.2;stroke-linecap:round;stroke-linejoin:miter;stroke-miterlimit:4;stroke-dasharray:none;stroke-opacity:1"
       id="path1087"
       inkscape:connector-curvature="0" /><path
       d="m 170.30921,37.514995 c -0.015,-0.01 -0.029,-0.021 -0.043,-0.031 -0.09,-0.068 -0.181,-0.136 -0.222,0.024 l 0.002,0.002 c -0.076,-0.045 -0.144,-0.063 -0.17,0.07 -0.031,0.162 0.188,0.25 0.297,0.3 0.005,0.064 0.023,0.13 0.126,0.231 -0.048,0.096 0.078,0.261 0.022,0.371 -0.058,0.114 0.005,0.293 0.007,0.394 10e-4,0.102 -0.012,0.216 -0.072,0.297 -0.074,0.101 -0.144,-0.096 -0.171,-0.171 -0.02,-0.053 0.052,-0.35 -0.036,-0.475 -0.088,-0.124 -0.183,0.027 -0.202,0.105 -0.024,0.099 -0.058,0.285 -0.083,0.511 -0.026,0.228 0.09,0.328 0.173,0.719 0.083,0.391 0.358,0.206 0.46,0.662 0.173,0.784 0.215,1.702 0.209,1.752 -0.005,0.05 0,0 0.086,0.594 0.086,0.595 0.259,1.039 0.171,1.437 -0.152,0.687 -0.13,1.859 -0.221,2.102 -0.091,0.244 0.009,0.651 0.019,0.433 l 1.224,-0.095 c -0.048,0.301 -0.011,-0.471 0.043,-0.709 0.053,-0.238 0.019,-1.74 0.014,-1.944 -0.005,-0.204 -0.074,-0.379 -0.096,-0.636 -0.022,-0.257 -0.291,-1.596 -0.445,-1.919 -0.155,-0.322 -0.525,-1.431 -0.566,-1.639 0.078,-0.348 0.066,-1.035 0.043,-1.165 l -0.019,-0.073 c 0.003,-0.118 -0.073,-0.179 -0.058,-0.258 0.014,-0.079 0.024,-0.327 -0.002,-0.396 -0.025,-0.068 -0.054,-0.269 -0.094,-0.294 -0.039,-0.025 -0.133,-0.104 -0.205,-0.176 -0.069,-0.068 -0.137,-0.136 -0.193,-0.025 l 0.002,0.002"
       style="fill:#666666;fill-opacity:1;fill-rule:nonzero;stroke:none"
       id="path1089"
       inkscape:connector-curvature="0" /><path
       d="m 170.30921,37.514995 c -0.015,-0.01 -0.029,-0.021 -0.043,-0.031 -0.09,-0.068 -0.181,-0.136 -0.222,0.024 l 0.002,0.002 c -0.076,-0.045 -0.144,-0.063 -0.17,0.07 -0.031,0.162 0.188,0.25 0.297,0.3 0.005,0.064 0.023,0.13 0.126,0.231 -0.048,0.096 0.078,0.261 0.022,0.371 -0.058,0.114 0.005,0.293 0.007,0.394 10e-4,0.102 -0.012,0.216 -0.072,0.297 -0.074,0.101 -0.144,-0.096 -0.171,-0.171 -0.02,-0.053 0.052,-0.35 -0.036,-0.475 -0.088,-0.124 -0.183,0.027 -0.202,0.105 -0.024,0.099 -0.058,0.285 -0.083,0.511 -0.026,0.228 0.09,0.328 0.173,0.719 0.083,0.391 0.358,0.206 0.46,0.662 0.173,0.784 0.215,1.702 0.209,1.752 -0.005,0.05 0,0 0.086,0.594 0.086,0.595 0.259,1.039 0.171,1.437 -0.152,0.687 -0.13,1.859 -0.221,2.102 -0.091,0.244 0.009,0.651 0.019,0.433 l 1.224,-0.095 c -0.048,0.301 -0.011,-0.471 0.043,-0.709 0.053,-0.238 0.019,-1.74 0.014,-1.944 -0.005,-0.204 -0.074,-0.379 -0.096,-0.636 -0.022,-0.257 -0.291,-1.596 -0.445,-1.919 -0.155,-0.322 -0.525,-1.431 -0.566,-1.639 0.078,-0.348 0.066,-1.035 0.043,-1.165 l -0.019,-0.073 c 0.003,-0.118 -0.073,-0.179 -0.058,-0.258 0.014,-0.079 0.024,-0.327 -0.002,-0.396 -0.025,-0.068 -0.054,-0.269 -0.094,-0.294 -0.039,-0.025 -0.133,-0.104 -0.205,-0.176 -0.069,-0.068 -0.137,-0.136 -0.193,-0.025 z"
       style="fill:none;stroke:#000000;stroke-width:0.2;stroke-linecap:butt;stroke-linejoin:miter;stroke-miterlimit:4;stroke-dasharray:none;stroke-opacity:1"
       id="path1091"
       inkscape:connector-curvature="0" /><path
       d="m 172.21021,47.047995 c -0.103,-0.226 0.008,-1.132 -0.014,-1.384 -0.103,0.369 -1.409,0.23 -1.579,-0.269 -0.06,0.97 -0.317,1.643 -0.396,1.88"
       style="fill:#999999;fill-opacity:1;fill-rule:nonzero;stroke:none"
       id="path1093"
       inkscape:connector-curvature="0" /><path
       d="m 172.21021,47.047995 c -0.103,-0.226 0.008,-1.132 -0.014,-1.384 -0.103,0.369 -1.409,0.23 -1.579,-0.269 -0.06,0.97 -0.317,1.643 -0.396,1.88"
       style="fill:none;stroke:#000000;stroke-width:0.2;stroke-linecap:butt;stroke-linejoin:miter;stroke-miterlimit:4;stroke-dasharray:none;stroke-opacity:1"
       id="path1095"
       inkscape:connector-curvature="0" /><path
       d="m 170.38321,49.246995 c 0.109,0.032 0.406,0.036 0.503,0.136"
       style="fill:#33b887;fill-opacity:1;fill-rule:nonzero;stroke:none"
       id="path1097"
       inkscape:connector-curvature="0" /><path
       d="m 170.38321,49.246995 c 0.109,0.032 0.406,0.036 0.503,0.136"
       style="fill:none;stroke:#000000;stroke-width:0.2;stroke-linecap:butt;stroke-linejoin:miter;stroke-miterlimit:4;stroke-dasharray:none;stroke-opacity:1"
       id="path1099"
       inkscape:connector-curvature="0" /><path
       d="m 169.89921,51.229995 c 0.124,0.114 0.208,0.144 0.261,0.167 0.052,0.023 0.275,-0.106 0.301,-0.139 0.026,-0.033 0.083,-0.13 0.089,-0.161 0.006,-0.031 -0.006,0.031 -0.088,0.091 -0.082,0.061 -0.195,0.115 -0.265,0.114 -0.07,-10e-4 -0.174,-0.117 -0.238,-0.149 -0.064,-0.032 -0.127,0.026 -0.06,0.077 z"
       style="fill:#000000;fill-opacity:1;fill-rule:nonzero;stroke:#000000;stroke-width:0.2;stroke-linecap:butt;stroke-linejoin:miter;stroke-miterlimit:4;stroke-dasharray:none;stroke-opacity:1"
       id="path1101"
       inkscape:connector-curvature="0" /><path
       d="m 169.48721,50.372995 c 0.069,0.011 0.148,0.012 0.148,-0.028 0.001,-0.039 0.081,-0.078 0.13,-0.028 0.048,0.051 0.096,0.14 0.027,0.169"
       style="fill:none;stroke:#000000;stroke-width:0.2;stroke-linecap:round;stroke-linejoin:round;stroke-miterlimit:4;stroke-dasharray:none;stroke-opacity:1"
       id="path1103"
       inkscape:connector-curvature="0" /><path
       d="m 169.67021,49.969995 c 0.047,-0.025 0.112,-0.076 0.17,-0.067"
       style="fill:#33b887;fill-opacity:1;fill-rule:nonzero;stroke:none"
       id="path1105"
       inkscape:connector-curvature="0" /><path
       d="m 169.67021,49.969995 c 0.047,-0.025 0.112,-0.076 0.17,-0.067"
       style="fill:none;stroke:#000000;stroke-width:0.2;stroke-linecap:butt;stroke-linejoin:miter;stroke-miterlimit:4;stroke-dasharray:none;stroke-opacity:1"
       id="path1107"
       inkscape:connector-curvature="0" /><path
       d="m 171.07721,50.563995 c 0.078,0.139 0.095,0.278 0.293,0.281 0.198,0.003 0.289,-0.144 0.272,-0.283 -0.018,-0.139 -0.085,-0.288 -0.124,-0.348 -0.039,-0.06 -0.205,-0.231 -0.303,-0.272 -0.091,-0.038 -0.139,0.018 -0.15,0.087 m -1.052,0.925 c 0.051,-0.127 0.41,-0.197 0.289,-0.144 -0.11,0.048 -0.257,-0.023 -0.316,-0.064"
       style="fill:none;stroke:#000000;stroke-width:0.2;stroke-linecap:round;stroke-linejoin:round;stroke-miterlimit:4;stroke-dasharray:none;stroke-opacity:1"
       id="path1109"
       inkscape:connector-curvature="0" /><path
       d="m 171.03021,50.653995 c -0.019,0.009 -0.008,0.533 0.02,0.589 0.01,0.019 0,0.046 0.009,0.065 0.034,0.072 -0.076,-0.09 -0.083,-0.006 -0.009,0.121 -0.041,0.398 -0.171,0.4 -0.049,0 -0.101,0.046 -0.161,0.055 0.007,0.006 0.02,0.013 0.019,0.016 -0.033,0.109 -0.294,0.193 -0.405,0.183 -0.047,-0.005 -0.073,0.081 -0.119,0.101 -0.058,0.026 -0.114,-0.038 -0.173,-0.061 -0.002,0.03 -0.111,-0.172 -0.112,-0.142 -0.008,-0.006 -0.286,0.062 -0.293,0.056 -0.024,0.056 -0.076,0.151 -0.091,0.21 -0.014,0.049 0.166,0.285 0.163,0.328 -0.006,0.081 1.041,0.557 1.104,0.601 0.09,0.063 0.609,-0.064 0.685,-0.032 0.27,0.112 0.757,-0.182 0.832,-0.27 0.127,-0.149 0.413,-0.18 0.464,-0.373 0.008,0.006 0.229,-0.922 0.086,-1.612 -0.154,-0.743 -0.824,-1.335 -0.951,-1.381 -0.068,-0.025 -0.126,0.163 -0.194,0.138 -0.079,-0.03 -0.278,-0.013 -0.244,0.08 0.025,0.07 -0.065,0.194 -0.04,0.244 0.043,0.088 0.273,0.513 0.294,0.607 0.005,0.021 0.017,0.172 0.014,0.205 -0.009,0.117 -0.492,0.162 -0.535,0.126 -0.058,-0.048 -0.062,-0.153 -0.118,-0.127 z"
       style="fill:#000000;fill-opacity:1;fill-rule:nonzero;stroke:#000000;stroke-width:0.2;stroke-linecap:butt;stroke-linejoin:miter;stroke-miterlimit:4;stroke-dasharray:none;stroke-opacity:1"
       id="path1111"
       inkscape:connector-curvature="0" /><path
       d="m 155.67421,42.375995 h 12.25"
       style="fill:none;stroke:#000000;stroke-width:0.75;stroke-linecap:butt;stroke-linejoin:miter;stroke-miterlimit:4;stroke-dasharray:none;stroke-opacity:1"
       id="path1113"
       inkscape:connector-curvature="0" /><path
       d="m 152.10821,42.342995 6.223,-1.641 v 3.263 l -6.223,-1.622"
       style="fill:#000000;fill-opacity:1;fill-rule:nonzero;stroke:none"
       id="path1115"
       inkscape:connector-curvature="0" /><path
       d="m 197.92921,66.092995 v -2.523 l 3.02,1.733 -3.02,1.734 v -0.944 l -0.767,0.009 v 2.211 l 5.212,-2.979 -5.212,-2.979 v 2.247 h -20.07 v 1.5 h 20.07 l 0.767,-0.009"
       style="fill:#000000;fill-opacity:1;fill-rule:nonzero;stroke:none"
       id="path1117"
       inkscape:connector-curvature="0" /><path
       d="m 20.150212,20.966995 c 0,-0.495 -0.099,-2.479 -0.248,-3.172 -0.111,-0.979 -0.139,-2.127 -0.223,-3.051 -0.084,-0.921 -0.373,-2.581 -0.196,-3.331 0.112,-0.476 0.29,-0.861 0.923,-1.063 0.7,-0.224 1.484,-0.206 1.204,-0.588 h -3.191 c -0.28,0.476 0.165,0.923 0.112,1.567 -0.088,1.068 -0.252,3.191 -0.392,4.171 -0.14,0.98 -0.028,1.932 0.112,2.435 0.14,0.504 0.14,0.644 0,1.232 -0.149,0.792 -0.13,1.701 -0.13,1.701 l 2.029,0.099"
       style="fill:#cccccc;fill-opacity:1;fill-rule:nonzero;stroke:none"
       id="path1119"
       inkscape:connector-curvature="0" /><path
       d="m 20.150212,20.966995 c 0,-0.495 -0.099,-2.479 -0.248,-3.172 -0.111,-0.979 -0.139,-2.127 -0.223,-3.051 -0.084,-0.921 -0.373,-2.581 -0.196,-3.331 0.112,-0.476 0.29,-0.861 0.923,-1.063 0.7,-0.224 1.484,-0.206 1.204,-0.588 h -3.191 c -0.28,0.476 0.165,0.923 0.112,1.567 -0.088,1.068 -0.252,3.191 -0.392,4.171 -0.14,0.98 -0.028,1.932 0.112,2.435 0.14,0.504 0.14,0.644 0,1.232 -0.149,0.792 -0.13,1.701 -0.13,1.701 z"
       style="fill:none;stroke:#000000;stroke-width:0.2;stroke-linecap:round;stroke-linejoin:round;stroke-miterlimit:4;stroke-dasharray:none;stroke-opacity:1"
       id="path1121"
       inkscape:connector-curvature="0" /><path
       d="m 17.030212,19.814995 c 0.28,-0.56 0.532,-1.539 0.644,-2.127 -0.112,-0.364 -0.924,-0.672 -1.092,-1.456 -0.168,-0.783 -0.712,-2.856 -1.065,-3.679 -0.177,-0.412 -0.441,-0.47 -0.706,-0.823 -0.264,-0.353 0.462,-0.855 0.55,-1.237 0.089,-0.382 0.374,-0.673 0.492,-0.82 h 1.427 c 0.059,0.117 -0.088,0.44 -0.352,0.44 -0.31,0 -0.514,0.304 -0.676,0.588 0,0 0.029,0.382 -0.059,0.735 0.088,0.059 0.029,0.382 0.147,0.735 0.117,0.352 1.13,2.359 1.837,3.362 0.336,0.476 0.504,1.119 0.84,1.371 0.336,0.252 0.348,0.647 0.224,1.596 -0.098,0.754 -0.18,3.264 -0.504,4.954"
       style="fill:#cccccc;fill-opacity:1;fill-rule:nonzero;stroke:none"
       id="path1123"
       inkscape:connector-curvature="0" /><path
       d="m 17.030212,19.814995 c 0.28,-0.56 0.532,-1.539 0.644,-2.127 -0.112,-0.364 -0.924,-0.672 -1.092,-1.456 -0.168,-0.783 -0.712,-2.856 -1.065,-3.679 -0.177,-0.412 -0.441,-0.47 -0.706,-0.823 -0.264,-0.353 0.462,-0.855 0.55,-1.237 0.089,-0.382 0.374,-0.673 0.492,-0.82 h 1.427 c 0.059,0.117 -0.088,0.44 -0.352,0.44 -0.31,0 -0.514,0.304 -0.676,0.588 0,0 0.029,0.382 -0.059,0.735 0.088,0.059 0.029,0.382 0.147,0.735 0.117,0.352 1.13,2.359 1.837,3.362 0.336,0.476 0.504,1.119 0.84,1.371 0.336,0.252 0.348,0.647 0.224,1.596 -0.098,0.754 -0.18,3.264 -0.504,4.954"
       style="fill:none;stroke:#000000;stroke-width:0.2;stroke-linecap:round;stroke-linejoin:round;stroke-miterlimit:4;stroke-dasharray:none;stroke-opacity:1"
       id="path1125"
       inkscape:connector-curvature="0" /><path
       d="m 17.327212,26.192995 c -0.448,-0.392 -0.655,-0.622 -0.783,-1.904 -0.112,-1.119 -0.168,-2.323 -0.168,-2.491 0,-0.177 0.349,-1.044 -0.149,-2.539 0.161,-0.189 0.384,-0.474 0.586,-0.461 -0.073,-0.005 0.431,-0.181 0.682,-0.062 0.216,0.102 0.973,0.18 1.225,-0.1 0.228,-0.253 1.206,-0.191 1.402,0.089 0.201,0.287 0.448,0.086 0.728,0.422 -0.168,1.259 -0.304,2.763 -0.444,4.107 -0.14,1.343 -0.028,2.071 -0.587,2.967 -0.42,-0.112 -2.072,-0.392 -2.492,-0.028"
       style="fill:#666666;fill-opacity:1;fill-rule:nonzero;stroke:none"
       id="path1127"
       inkscape:connector-curvature="0" /><path
       d="m 17.327212,26.192995 c -0.448,-0.392 -0.655,-0.622 -0.783,-1.904 -0.112,-1.119 -0.168,-2.323 -0.168,-2.491 0,-0.177 0.349,-1.044 -0.149,-2.539 0.161,-0.189 0.384,-0.474 0.586,-0.461 -0.073,-0.005 0.431,-0.181 0.682,-0.062 0.216,0.102 0.973,0.18 1.225,-0.1 0.228,-0.253 1.206,-0.191 1.402,0.089 0.201,0.287 0.448,0.086 0.728,0.422 -0.168,1.259 -0.304,2.763 -0.444,4.107 -0.14,1.343 -0.028,2.071 -0.587,2.967 -0.42,-0.112 -2.072,-0.392 -2.492,-0.028 z"
       style="fill:none;stroke:#000000;stroke-width:0.2;stroke-linecap:round;stroke-linejoin:round;stroke-miterlimit:4;stroke-dasharray:none;stroke-opacity:1"
       id="path1129"
       inkscape:connector-curvature="0" /><path
       d="m 17.032212,31.619995 c 0.082,0.18 0.334,0.711 0.229,0.904 -0.18,0.333 -0.573,0.534 -0.66,1.11 -0.122,0.812 0.373,1.35 0.755,1.511 0.492,0.206 1.016,0.27 1.509,-0.134 0.167,-0.137 0.27,-0.43 0.352,-0.557 0.082,-0.127 0.082,-0.293 0.039,-0.366 -0.043,-0.073 0.025,-0.193 0.095,-0.246 0.114,-0.088 0.285,-0.208 0.35,-0.296 0.072,-0.096 -0.006,-0.148 -0.082,-0.18 -0.067,-0.027 -0.146,-0.067 -0.09,-0.112 0.057,-0.045 0.143,-0.119 0.122,-0.164 -0.02,-0.045 -0.386,-0.273 -0.041,-0.089 0.083,0.043 0.096,-0.092 0.047,-0.114 -0.048,-0.023 -0.073,-0.048 -0.069,-0.144 0.003,-0.064 0.08,-0.09 0.121,-0.184 0.157,-0.361 -0.404,-0.43 -0.616,-0.426 -0.221,0.003 -0.376,-0.017 -0.43,-0.117 -0.083,-0.152 -0.361,-0.745 -0.417,-1.007 -0.008,-0.265 -0.025,-0.985 -0.012,-1.182 l -1.202,1.793"
       style="fill:#cccccc;fill-opacity:1;fill-rule:nonzero;stroke:none"
       id="path1131"
       inkscape:connector-curvature="0" /><path
       d="m 17.032212,31.619995 c 0.082,0.18 0.334,0.711 0.229,0.904 -0.18,0.333 -0.573,0.534 -0.66,1.11 -0.122,0.812 0.373,1.35 0.755,1.511 0.492,0.206 1.016,0.27 1.509,-0.134 0.167,-0.137 0.27,-0.43 0.352,-0.557 0.082,-0.127 0.082,-0.293 0.039,-0.366 -0.043,-0.073 0.025,-0.193 0.095,-0.246 0.114,-0.088 0.285,-0.208 0.35,-0.296 0.072,-0.096 -0.006,-0.148 -0.082,-0.18 -0.067,-0.027 -0.146,-0.067 -0.09,-0.112 0.057,-0.045 0.143,-0.119 0.122,-0.164 -0.02,-0.045 -0.386,-0.273 -0.041,-0.089 0.083,0.043 0.096,-0.092 0.047,-0.114 -0.048,-0.023 -0.073,-0.048 -0.069,-0.144 0.003,-0.064 0.08,-0.09 0.121,-0.184 0.157,-0.361 -0.404,-0.43 -0.616,-0.426 -0.221,0.003 -0.376,-0.017 -0.43,-0.117 -0.083,-0.152 -0.361,-0.745 -0.417,-1.007 -0.008,-0.265 -0.025,-0.985 -0.012,-1.182 z"
       style="fill:none;stroke:#000000;stroke-width:0.2;stroke-linecap:butt;stroke-linejoin:miter;stroke-miterlimit:4;stroke-dasharray:none;stroke-opacity:1"
       id="path1133"
       inkscape:connector-curvature="0" /><path
       d="m 18.503212,31.398995 c 0.098,-0.074 0.14,-0.056 0.252,-0.056 0.122,0 1.259,-1.175 1.329,-1.231 0.285,-0.228 0.252,-0.182 0.476,-0.35 0.154,-0.154 0.182,-0.196 0.252,-0.364 0.126,-0.35 -0.392,-0.742 -0.518,-0.924 -0.126,-0.182 -0.112,-0.378 -0.098,-0.476 0.014,-0.098 -0.028,-0.35 -0.055,-0.685 -0.029,-0.336 0,-0.686 0.083,-0.854 0.084,-0.168 0.42,-0.28 0.028,-0.518 -0.391,-0.238 -1.931,-0.392 -2.771,-0.252 -0.84,0.14 -0.658,0.392 -0.616,0.546 0.043,0.154 0.039,0.719 -0.014,1.455 -0.042,0.588 -0.07,1.12 -0.07,1.33 0,0.21 -0.168,0.35 -0.265,0.868 -0.098,0.518 0.125,0.868 0.196,1.007 0.063,0.128 0.237,0.238 0.391,0.21 0.093,-0.016 -0.112,0.308 -0.224,0.378 0.462,-0.028 1.19,0 1.232,0 0.042,0 0.252,-0.462 0.448,-0.63 0.196,-0.167 0.35,-0.265 0.448,-0.293 -0.098,0.181 -0.504,0.839 -0.504,0.839"
       style="fill:#999999;fill-opacity:1;fill-rule:nonzero;stroke:none"
       id="path1135"
       inkscape:connector-curvature="0" /><path
       d="m 18.503212,31.398995 c 0.098,-0.074 0.14,-0.056 0.252,-0.056 0.122,0 1.259,-1.175 1.329,-1.231 0.285,-0.228 0.252,-0.182 0.476,-0.35 0.154,-0.154 0.182,-0.196 0.252,-0.364 0.126,-0.35 -0.392,-0.742 -0.518,-0.924 -0.126,-0.182 -0.112,-0.378 -0.098,-0.476 0.014,-0.098 -0.028,-0.35 -0.055,-0.685 -0.029,-0.336 0,-0.686 0.083,-0.854 0.084,-0.168 0.42,-0.28 0.028,-0.518 -0.391,-0.238 -1.931,-0.392 -2.771,-0.252 -0.84,0.14 -0.658,0.392 -0.616,0.546 0.043,0.154 0.039,0.719 -0.014,1.455 -0.042,0.588 -0.07,1.12 -0.07,1.33 0,0.21 -0.168,0.35 -0.265,0.868 -0.098,0.518 0.125,0.868 0.196,1.007 0.063,0.128 0.237,0.238 0.391,0.21 0.093,-0.016 -0.112,0.308 -0.224,0.378 0.462,-0.028 1.19,0 1.232,0 0.042,0 0.252,-0.462 0.448,-0.63 0.196,-0.167 0.35,-0.265 0.448,-0.293 -0.098,0.181 -0.504,0.839 -0.504,0.839 z m 1.497,-2.981 c -0.242,0.067 -0.433,-0.119 -0.626,-0.234 -0.295,-0.178 -0.551,0.105 -0.831,0.201 -0.042,0.015 -0.091,0.005 -0.138,0.005"
       style="fill:none;stroke:#000000;stroke-width:0.2;stroke-linecap:butt;stroke-linejoin:miter;stroke-miterlimit:4;stroke-dasharray:none;stroke-opacity:1"
       id="path1137"
       inkscape:connector-curvature="0" /><path
       d="m 18.139212,31.342995 c -0.042,0.084 -0.012,0.067 -0.07,0.028 -0.084,-0.056 -0.098,-0.28 -0.14,-0.42 -0.28,0.14 -0.796,0.272 -1.106,0.168 -0.042,-0.014 -0.268,0.435 -0.237,0.588 0.013,0.07 0.041,0.238 0.084,0.182 0.12,-0.16 0.517,-0.238 0.937,-0.294 0.42,-0.056 0.588,0.084 0.616,-0.084 0.028,-0.168 0.35,-0.658 0.686,-0.854 -0.14,0.168 -0.434,0.644 -0.462,0.798 -0.026,0.144 -0.056,0.308 -0.084,0.378 0.14,-0.07 0.336,-0.196 0.42,-0.196 0.084,0 0.098,-0.14 0.154,-0.21 0.056,-0.07 0.168,-0.21 0.21,-0.224 -0.056,-0.014 -0.335,0.068 -0.392,0.084 -0.098,0.028 0.083,-0.46 0.35,-0.685 0.024,-0.021 -0.071,-0.132 -0.084,-0.127 -0.341,0.155 -0.742,0.42 -0.882,0.868"
       style="fill:#999999;fill-opacity:1;fill-rule:nonzero;stroke:none"
       id="path1139"
       inkscape:connector-curvature="0" /><path
       d="m 18.139212,31.342995 c -0.042,0.084 -0.012,0.067 -0.07,0.028 -0.084,-0.056 -0.098,-0.28 -0.14,-0.42 -0.28,0.14 -0.796,0.272 -1.106,0.168 -0.042,-0.014 -0.268,0.435 -0.237,0.588 0.013,0.07 0.041,0.238 0.084,0.182 0.12,-0.16 0.517,-0.238 0.937,-0.294 0.42,-0.056 0.588,0.084 0.616,-0.084 0.028,-0.168 0.35,-0.658 0.686,-0.854 -0.14,0.168 -0.434,0.644 -0.462,0.798 -0.026,0.144 -0.056,0.308 -0.084,0.378 0.14,-0.07 0.336,-0.196 0.42,-0.196 0.084,0 0.098,-0.14 0.154,-0.21 0.056,-0.07 0.168,-0.21 0.21,-0.224 -0.056,-0.014 -0.335,0.068 -0.392,0.084 -0.098,0.028 0.083,-0.46 0.35,-0.685 0.024,-0.021 -0.071,-0.132 -0.084,-0.127 -0.341,0.155 -0.742,0.42 -0.882,0.868 z m 0.602,-0.056 c 0,0.098 0.014,0.182 0.042,0.21 m 0.959,-1.126 c 0.085,-0.109 0.221,-0.149 0.321,-0.238"
       style="fill:none;stroke:#000000;stroke-width:0.2;stroke-linecap:butt;stroke-linejoin:miter;stroke-miterlimit:4;stroke-dasharray:none;stroke-opacity:1"
       id="path1141"
       inkscape:connector-curvature="0" /><path
       d="m 18.716212,28.203995 c -0.032,-0.206 -0.417,-0.317 -0.86,-0.249 -0.443,0.068 -0.776,0.29 -0.744,0.495 0.031,0.205 0.416,0.316 0.859,0.248 0.443,-0.068 0.776,-0.289 0.745,-0.494"
       style="fill:#33b887;fill-opacity:1;fill-rule:nonzero;stroke:none"
       id="path1143"
       inkscape:connector-curvature="0" /><path
       d="m 18.716212,28.203995 c -0.032,-0.206 -0.417,-0.317 -0.86,-0.249 -0.443,0.068 -0.776,0.29 -0.744,0.495 0.031,0.205 0.416,0.316 0.859,0.248 0.443,-0.068 0.776,-0.289 0.745,-0.494 z"
       style="fill:none;stroke:#000000;stroke-width:0.2;stroke-linecap:butt;stroke-linejoin:miter;stroke-miterlimit:4;stroke-dasharray:none;stroke-opacity:1"
       id="path1145"
       inkscape:connector-curvature="0" /><path
       d="m 20.616212,20.233995 c 0.016,-0.007 0.033,-0.013 0.049,-0.019 0.105,-0.043 0.209,-0.085 0.209,0.08 l -0.003,0.001 c 0.085,-0.023 0.156,-0.023 0.146,0.112 -0.012,0.164 -0.246,0.193 -0.364,0.213 -0.022,0.061 -0.056,0.12 -0.182,0.19 0.022,0.106 -0.143,0.232 -0.117,0.353 0.027,0.126 -0.08,0.282 -0.108,0.38 -0.027,0.098 -0.044,0.211 -0.007,0.305 0.045,0.116 0.163,-0.056 0.209,-0.121 0.033,-0.047 0.04,-0.352 0.157,-0.449 0.117,-0.098 0.171,0.073 0.169,0.153 -0.003,0.101 -0.018,0.291 -0.052,0.515 -0.034,0.227 -0.172,0.294 -0.353,0.65 -0.181,0.356 -0.399,0.106 -0.615,0.521 -0.37,0.712 -0.647,1.588 -0.655,1.639 -0.007,0.049 0,0 -0.236,0.551 -0.236,0.553 -0.493,0.767 -0.405,1.166 0.153,0.687 0.13,1.859 0.221,2.102 0.091,0.244 -0.008,0.65 -0.018,1.058 l -1.225,-0.095 c 0.049,-0.325 0.011,-1.097 -0.042,-1.335 -0.054,-0.238 -0.02,-1.739 -0.015,-1.943 0.005,-0.204 0.13,-0.441 0.217,-0.683 0.088,-0.242 0.694,-1.467 0.926,-1.738 0.232,-0.272 0.877,-1.248 0.969,-1.439 0.015,-0.355 0.204,-1.016 0.26,-1.136 l 0.037,-0.065 c 0.028,-0.115 0.116,-0.155 0.123,-0.235 0.007,-0.08 0.061,-0.322 0.103,-0.382 0.042,-0.059 0.123,-0.246 0.167,-0.26 0.045,-0.014 0.156,-0.066 0.244,-0.116 0.084,-0.049 0.168,-0.097 0.193,0.025 l -0.002,0.002"
       style="fill:#cccccc;fill-opacity:1;fill-rule:nonzero;stroke:none"
       id="path1147"
       inkscape:connector-curvature="0" /><path
       d="m 20.616212,20.233995 c 0.016,-0.007 0.033,-0.013 0.049,-0.019 0.105,-0.043 0.209,-0.085 0.209,0.08 l -0.003,0.001 c 0.085,-0.023 0.156,-0.023 0.146,0.112 -0.012,0.164 -0.246,0.193 -0.364,0.213 -0.022,0.061 -0.056,0.12 -0.182,0.19 0.022,0.106 -0.143,0.232 -0.117,0.353 0.027,0.126 -0.08,0.282 -0.108,0.38 -0.027,0.098 -0.044,0.211 -0.007,0.305 0.045,0.116 0.163,-0.056 0.209,-0.121 0.033,-0.047 0.04,-0.352 0.157,-0.449 0.117,-0.098 0.171,0.073 0.169,0.153 -0.003,0.101 -0.018,0.291 -0.052,0.515 -0.034,0.227 -0.172,0.294 -0.353,0.65 -0.181,0.356 -0.399,0.106 -0.615,0.521 -0.37,0.712 -0.647,1.588 -0.655,1.639 -0.007,0.049 0,0 -0.236,0.551 -0.236,0.553 -0.493,0.767 -0.405,1.166 0.153,0.687 0.13,1.859 0.221,2.102 0.091,0.244 -0.008,0.65 -0.018,1.058 l -1.225,-0.095 c 0.049,-0.325 0.011,-1.097 -0.042,-1.335 -0.054,-0.238 -0.02,-1.739 -0.015,-1.943 0.005,-0.204 0.13,-0.441 0.217,-0.683 0.088,-0.242 0.694,-1.467 0.926,-1.738 0.232,-0.272 0.877,-1.248 0.969,-1.439 0.015,-0.355 0.204,-1.016 0.26,-1.136 l 0.037,-0.065 c 0.028,-0.115 0.116,-0.155 0.123,-0.235 0.007,-0.08 0.061,-0.322 0.103,-0.382 0.042,-0.059 0.123,-0.246 0.167,-0.26 0.045,-0.014 0.156,-0.066 0.244,-0.116 0.084,-0.049 0.168,-0.097 0.193,0.025 z"
       style="fill:none;stroke:#000000;stroke-width:0.2;stroke-linecap:butt;stroke-linejoin:miter;stroke-miterlimit:4;stroke-dasharray:none;stroke-opacity:1"
       id="path1149"
       inkscape:connector-curvature="0" /><path
       d="m 17.112212,29.839995 c 0.102,-0.226 -0.009,-1.132 0.013,-1.384 0.103,0.368 1.41,0.23 1.58,-0.269 0.059,0.969 0.317,1.642 0.396,1.88"
       style="fill:#999999;fill-opacity:1;fill-rule:nonzero;stroke:none"
       id="path1151"
       inkscape:connector-curvature="0" /><path
       d="m 17.112212,29.839995 c 0.102,-0.226 -0.009,-1.132 0.013,-1.384 0.103,0.368 1.41,0.23 1.58,-0.269 0.059,0.969 0.317,1.642 0.396,1.88"
       style="fill:none;stroke:#000000;stroke-width:0.2;stroke-linecap:butt;stroke-linejoin:miter;stroke-miterlimit:4;stroke-dasharray:none;stroke-opacity:1"
       id="path1153"
       inkscape:connector-curvature="0" /><path
       d="m 18.845212,32.133995 c -0.112,0.017 -0.407,-0.016 -0.516,0.072"
       style="fill:#33b887;fill-opacity:1;fill-rule:nonzero;stroke:none"
       id="path1155"
       inkscape:connector-curvature="0" /><path
       d="m 18.845212,32.133995 c -0.112,0.017 -0.407,-0.016 -0.516,0.072"
       style="fill:none;stroke:#000000;stroke-width:0.2;stroke-linecap:butt;stroke-linejoin:miter;stroke-miterlimit:4;stroke-dasharray:none;stroke-opacity:1"
       id="path1157"
       inkscape:connector-curvature="0" /><path
       d="m 19.078212,34.161995 c -0.138,0.097 -0.224,0.116 -0.28,0.132 -0.055,0.016 -0.26,-0.139 -0.282,-0.175 -0.021,-0.036 -0.066,-0.14 -0.068,-0.171 -0.002,-0.031 0.002,0.031 0.076,0.101 0.074,0.071 0.179,0.139 0.249,0.146 0.069,0.008 0.188,-0.094 0.255,-0.118 0.067,-0.023 0.122,0.042 0.05,0.085 z"
       style="fill:#000000;fill-opacity:1;fill-rule:nonzero;stroke:#000000;stroke-width:0.2;stroke-linecap:butt;stroke-linejoin:miter;stroke-miterlimit:4;stroke-dasharray:none;stroke-opacity:1"
       id="path1159"
       inkscape:connector-curvature="0" /><path
       d="m 19.594212,33.361995 c -0.07,0.003 -0.149,-0.006 -0.144,-0.045 0.004,-0.04 -0.07,-0.088 -0.125,-0.044 -0.055,0.043 -0.114,0.126 -0.048,0.164"
       style="fill:none;stroke:#000000;stroke-width:0.2;stroke-linecap:round;stroke-linejoin:round;stroke-miterlimit:4;stroke-dasharray:none;stroke-opacity:1"
       id="path1161"
       inkscape:connector-curvature="0" /><path
       d="m 19.462212,32.938995 c -0.044,-0.03 -0.102,-0.089 -0.16,-0.087"
       style="fill:#33b887;fill-opacity:1;fill-rule:nonzero;stroke:none"
       id="path1163"
       inkscape:connector-curvature="0" /><path
       d="m 19.462212,32.938995 c -0.044,-0.03 -0.102,-0.089 -0.16,-0.087"
       style="fill:none;stroke:#000000;stroke-width:0.2;stroke-linecap:butt;stroke-linejoin:miter;stroke-miterlimit:4;stroke-dasharray:none;stroke-opacity:1"
       id="path1165"
       inkscape:connector-curvature="0" /><path
       d="m 17.992212,33.352995 c -0.094,0.129 -0.129,0.264 -0.326,0.242 -0.197,-0.022 -0.269,-0.179 -0.234,-0.315 0.035,-0.135 0.12,-0.275 0.166,-0.33 0.046,-0.054 0.232,-0.203 0.335,-0.231 0.094,-0.026 0.136,0.035 0.138,0.105 m 0.928,1.05 c -0.035,-0.134 -0.382,-0.247 -0.269,-0.18 0.103,0.062 0.258,0.009 0.322,-0.024"
       style="fill:none;stroke:#000000;stroke-width:0.2;stroke-linecap:round;stroke-linejoin:round;stroke-miterlimit:4;stroke-dasharray:none;stroke-opacity:1"
       id="path1167"
       inkscape:connector-curvature="0" /><path
       d="m 18.027212,33.448995 c 0.018,0.011 -0.043,0.141 -0.051,0.166 -0.028,0.089 -0.028,0.138 -0.048,0.233 -0.014,0.063 0.04,0.13 0.006,0.182 -0.012,0.018 -0.006,0.046 -0.017,0.064 -0.043,0.067 0.087,-0.08 0.083,0.004 -0.006,0.122 -0.023,0.243 -0.112,0.322 -0.043,0.039 -0.163,0.096 -0.237,0.091 0.128,0.033 0.34,-0.013 0.468,0.005 0.049,0.007 0.095,0.059 0.154,0.075 -0.008,0.005 -0.022,0.011 -0.021,0.014 0.019,0.112 0.268,0.228 0.379,0.231 0.047,0.002 0.062,0.09 0.105,0.116 0.054,0.033 0.118,-0.024 0.179,-0.039 -0.002,0.03 0.132,-0.157 0.13,-0.127 0.008,-0.005 0.275,0.097 0.283,0.092 0.016,0.059 0.056,0.16 0.064,0.22 0.007,0.051 -0.192,0.126 -0.174,0.177 0.015,0.041 -0.027,0.085 -0.029,0.128 -0.004,0.081 -0.388,0.252 -0.452,0.29 -0.074,0.045 -0.126,0.044 -0.181,0.114 -0.052,0.068 -0.223,0.032 -0.309,0.046 -0.074,0.013 -0.16,-0.027 -0.228,0.009 -0.097,0.05 -0.204,-0.017 -0.312,-0.011 -0.092,0.005 -0.284,-0.129 -0.363,-0.107 -0.283,0.078 -0.372,0.07 -0.495,-0.172 -0.027,-0.052 -0.018,-0.144 -0.072,-0.182 -0.097,-0.068 -0.162,0.079 -0.226,-0.018 -0.107,-0.163 -0.387,-0.231 -0.414,-0.428 -0.008,0.005 -0.09,-0.273 -0.098,-0.268 -0.005,-0.138 0.007,-0.231 0.08,-0.327 -0.211,-0.103 -0.074,-0.323 -0.127,-0.548 -0.012,-0.05 -0.103,-0.027 -0.113,-0.092 -0.011,-0.071 -0.003,-0.139 -0.03,-0.211 -0.018,-0.049 0.029,-0.08 0.032,-0.123 0.014,-0.186 0.136,-0.148 0.206,-0.314 0.032,-0.074 -0.216,-0.104 -0.103,-0.509 0.014,-0.049 0.27,-0.307 0.343,-0.303 0.112,0.004 0.19,0.127 0.286,0.087 0.115,-0.048 0.244,-0.221 0.369,-0.218 0.134,0.004 0.256,-0.005 0.388,-0.036 0.07,-0.016 0.105,0.178 0.175,0.161 0.083,-0.019 0.277,0.022 0.232,0.111 -0.033,0.066 0.041,0.2 0.01,0.247 -0.054,0.082 -0.122,0.135 -0.198,0.21 -0.045,0.045 -0.07,0.116 -0.095,0.174 -0.044,0.099 -0.042,0.091 -0.075,0.181 -0.007,0.02 -0.038,0.169 -0.04,0.202 -0.006,0.116 0.159,0.262 0.314,0.26 0.055,0 0.155,-0.038 0.202,-0.068 0.063,-0.041 0.08,-0.144 0.132,-0.111 z"
       style="fill:#000000;fill-opacity:1;fill-rule:nonzero;stroke:#000000;stroke-width:0.2;stroke-linecap:butt;stroke-linejoin:miter;stroke-miterlimit:4;stroke-dasharray:none;stroke-opacity:1"
       id="path1169"
       inkscape:connector-curvature="0" /><path
       d="m 15.853212,9.672995 c -0.118,0.147 -0.431,0.228 -0.492,0.82 -0.039,0.39 -0.814,0.884 -0.55,1.237 0.159,0.211 0.317,0.317 0.457,0.456 l -0.016,0.002 c -0.196,-0.196 -0.075,-0.373 -0.014,-0.532 0.07,-0.182 0.308,-0.56 0.378,-0.672 0.028,0.308 0.07,0.378 0.182,0.378 0.112,0 0.364,-0.014 0.462,-0.014 0.098,0 -0.126,-0.252 0.056,-0.476 0.019,-0.023 0.021,-0.057 0.016,-0.076 -0.009,-0.029 -0.031,-0.059 -0.045,-0.088 -0.016,-0.031 0.026,-0.065 0.052,-0.075 0.022,-0.008 0.045,-0.017 0.05,-0.035 0.024,-0.078 0.092,-0.119 0.125,-0.191 0.021,-0.047 0.077,-0.076 0.103,-0.13 0.036,0.024 0.05,-0.027 0.062,-0.037 0.128,-0.107 0.3,-0.123 0.454,-0.176 0.084,-0.056 0.233,-0.13 0.177,-0.396 l -1.457,0.005"
       style="fill:#999999;fill-opacity:1;fill-rule:nonzero;stroke:none"
       id="path1171"
       inkscape:connector-curvature="0" /><path
       d="m 15.853212,9.672995 c -0.118,0.147 -0.431,0.228 -0.492,0.82 -0.039,0.39 -0.814,0.884 -0.55,1.237 0.159,0.211 0.317,0.317 0.457,0.456 l -0.016,0.002 c -0.196,-0.196 -0.075,-0.373 -0.014,-0.532 0.07,-0.182 0.308,-0.56 0.378,-0.672 0.028,0.308 0.07,0.378 0.182,0.378 0.112,0 0.364,-0.014 0.462,-0.014 0.098,0 -0.126,-0.252 0.056,-0.476 0.019,-0.023 0.021,-0.057 0.016,-0.076 -0.009,-0.029 -0.031,-0.059 -0.045,-0.088 -0.016,-0.031 0.026,-0.065 0.052,-0.075 0.022,-0.008 0.045,-0.017 0.05,-0.035 0.024,-0.078 0.092,-0.119 0.125,-0.191 0.021,-0.047 0.077,-0.076 0.103,-0.13 0.036,0.024 0.05,-0.027 0.062,-0.037 0.128,-0.107 0.3,-0.123 0.454,-0.176 0.084,-0.056 0.233,-0.13 0.177,-0.396 z"
       style="fill:none;stroke:#000000;stroke-width:0.2;stroke-linecap:round;stroke-linejoin:bevel;stroke-miterlimit:4;stroke-dasharray:none;stroke-opacity:1"
       id="path1173"
       inkscape:connector-curvature="0" /><path
       d="m 21.582212,9.761995 c 0.112,0.014 0.084,0.084 0.126,0.154 0.084,0.322 -0.658,0.406 -0.84,0.448 -0.182,0.042 -0.518,0.252 -0.602,0.293 -0.084,0.042 -0.098,0.112 -0.252,0.182 -0.153,0.07 -0.195,0.112 -0.209,0.28 -0.014,0.168 -0.042,0.21 -0.154,0.14 -0.112,-0.07 -0.168,-0.042 -0.154,-0.14 0.014,-0.098 0.112,-0.252 0.154,-0.392 -1.1,-0.225 -1.079,0.114 -1.176,0.239 -0.056,-0.281 -0.196,-0.658 -0.182,-0.826 0.017,-0.2 0.07,-0.308 0.112,-0.378 h 3.177"
       style="fill:#999999;fill-opacity:1;fill-rule:nonzero;stroke:none"
       id="path1175"
       inkscape:connector-curvature="0" /><path
       d="m 21.582212,9.761995 c 0.112,0.014 0.084,0.084 0.126,0.154 0.084,0.322 -0.658,0.406 -0.84,0.448 -0.182,0.042 -0.518,0.252 -0.602,0.293 -0.084,0.042 -0.098,0.112 -0.252,0.182 -0.153,0.07 -0.195,0.112 -0.209,0.28 -0.014,0.168 -0.042,0.21 -0.154,0.14 -0.112,-0.07 -0.168,-0.042 -0.154,-0.14 0.014,-0.098 0.112,-0.252 0.154,-0.392 -1.1,-0.225 -1.079,0.114 -1.176,0.239 -0.056,-0.281 -0.196,-0.658 -0.182,-0.826 0.017,-0.2 0.07,-0.308 0.112,-0.378 z"
       style="fill:none;stroke:#000000;stroke-width:0.2;stroke-linecap:round;stroke-linejoin:round;stroke-miterlimit:4;stroke-dasharray:none;stroke-opacity:1"
       id="path1177"
       inkscape:connector-curvature="0" /><text
       transform="scale(1,-1)"
       style="font-style:italic;font-variant:normal;font-weight:500;font-size:8.36859989px;font-family:Vector;-inkscape-font-specification:Vector-GroteskMediumItalic;writing-mode:lr-tb;fill:#000000;fill-opacity:1;fill-rule:nonzero;stroke:none"
       id="text1181"
       x="192.35811"
       y="-67.958694"><tspan
         x="192.35811"
         y="-67.958694"
         id="tspan1179">v</tspan></text>
<text
       transform="matrix(1,0,0,-1,369.24,81.3393)"
       style="font-variant:normal;font-weight:normal;font-size:9.16559982px;font-family:'MT Extra';-inkscape-font-specification:MTEX;writing-mode:lr-tb;fill:#000000;fill-opacity:1;fill-rule:nonzero;stroke:none"
       id="text2785"><tspan
         x="0"
         y="0"
         id="tspan2783"></tspan></text>
<text
       transform="matrix(1,0,0,-1,431.3999,81.3393)"
       style="font-variant:normal;font-weight:normal;font-size:9.16559982px;font-family:'MT Extra';-inkscape-font-specification:MTEX;writing-mode:lr-tb;fill:#000000;fill-opacity:1;fill-rule:nonzero;stroke:none"
       id="text2833"><tspan
         x="0"
         y="0"
         id="tspan2831"></tspan></text>
</g></svg>