<?xml version="1.0" encoding="UTF-8" standalone="no"?>
<!-- Generator: Adobe Illustrator 15.0.0, SVG Export Plug-In . SVG Version: 6.00 Build 0)  -->

<svg
   xmlns:dc="http://purl.org/dc/elements/1.1/"
   xmlns:cc="http://creativecommons.org/ns#"
   xmlns:rdf="http://www.w3.org/1999/02/22-rdf-syntax-ns#"
   xmlns:svg="http://www.w3.org/2000/svg"
   xmlns="http://www.w3.org/2000/svg"
   xmlns:sodipodi="http://sodipodi.sourceforge.net/DTD/sodipodi-0.dtd"
   xmlns:inkscape="http://www.inkscape.org/namespaces/inkscape"
   version="1.1"
   id="Layer_1"
   x="0px"
   y="0px"
   width="555.076px"
   height="429.391px"
   viewBox="0 0 555.076 429.391"
   enable-background="new 0 0 555.076 429.391"
   xml:space="preserve"
   inkscape:version="0.48.3.1 r9886"
   sodipodi:docname="PerrinPlot2.svg"><metadata
   id="metadata835"><rdf:RDF><cc:Work
       rdf:about=""><dc:format>image/svg+xml</dc:format><dc:type
         rdf:resource="http://purl.org/dc/dcmitype/StillImage" /></cc:Work></rdf:RDF></metadata><defs
   id="defs833" /><sodipodi:namedview
   pagecolor="#ffffff"
   bordercolor="#666666"
   borderopacity="1"
   objecttolerance="10"
   gridtolerance="10"
   guidetolerance="10"
   inkscape:pageopacity="0"
   inkscape:pageshadow="2"
   inkscape:window-width="1920"
   inkscape:window-height="1025"
   id="namedview831"
   showgrid="false"
   inkscape:zoom="1.0992313"
   inkscape:cx="212.47826"
   inkscape:cy="114.56695"
   inkscape:window-x="-2"
   inkscape:window-y="-3"
   inkscape:window-maximized="1"
   inkscape:current-layer="Layer_1" />
<g
   id="g739"
   style="stroke:#808080;stroke-width:0.50000001000000005;stroke-miterlimit:4;stroke-dasharray:none">
	<rect
   x="0.64200002"
   y="0.73100001"
   width="553.83698"
   height="428.02802"
   id="rect741"
   style="fill:none;stroke:#808080;stroke-width:0.50000001000000005;stroke-miterlimit:4;stroke-dasharray:none" />
	<line
   x1="0.64200002"
   y1="22.049"
   x2="554.479"
   y2="22.049"
   id="line743"
   style="fill:none;stroke:#808080;stroke-width:0.50000001000000005;stroke-miterlimit:4;stroke-dasharray:none" />
	<line
   x1="0.64200002"
   y1="43.575001"
   x2="554.479"
   y2="43.575001"
   id="line745"
   style="fill:none;stroke:#808080;stroke-width:0.50000001000000005;stroke-miterlimit:4;stroke-dasharray:none" />
	<line
   x1="0.64200002"
   y1="64.893997"
   x2="554.479"
   y2="64.893997"
   id="line747"
   style="fill:none;stroke:#808080;stroke-width:0.50000001000000005;stroke-miterlimit:4;stroke-dasharray:none" />
	<line
   x1="0.64200002"
   y1="86.418999"
   x2="554.479"
   y2="86.418999"
   id="line749"
   style="fill:none;stroke:#808080;stroke-width:0.50000001000000005;stroke-miterlimit:4;stroke-dasharray:none" />
	<line
   x1="0.64200002"
   y1="107.738"
   x2="554.479"
   y2="107.738"
   id="line751"
   style="fill:none;stroke:#808080;stroke-width:0.50000001000000005;stroke-miterlimit:4;stroke-dasharray:none" />
	<line
   x1="0.64200002"
   y1="129.05701"
   x2="554.479"
   y2="129.05701"
   id="line753"
   style="fill:none;stroke:#808080;stroke-width:0.50000001000000005;stroke-miterlimit:4;stroke-dasharray:none" />
	<line
   x1="0.64200002"
   y1="150.582"
   x2="554.479"
   y2="150.582"
   id="line755"
   style="fill:none;stroke:#808080;stroke-width:0.50000001000000005;stroke-miterlimit:4;stroke-dasharray:none" />
	<line
   x1="0.64200002"
   y1="171.901"
   x2="554.479"
   y2="171.901"
   id="line757"
   style="fill:none;stroke:#808080;stroke-width:0.50000001000000005;stroke-miterlimit:4;stroke-dasharray:none" />
	<line
   x1="0.64200002"
   y1="193.42599"
   x2="554.479"
   y2="193.42599"
   id="line759"
   style="fill:none;stroke:#808080;stroke-width:0.50000001000000005;stroke-miterlimit:4;stroke-dasharray:none" />
	<line
   x1="0.64200002"
   y1="214.745"
   x2="554.479"
   y2="214.745"
   id="line761"
   style="fill:none;stroke:#808080;stroke-width:0.50000001000000005;stroke-miterlimit:4;stroke-dasharray:none" />
	<line
   x1="0.64200002"
   y1="236.064"
   x2="554.479"
   y2="236.064"
   id="line763"
   style="fill:none;stroke:#808080;stroke-width:0.50000001000000005;stroke-miterlimit:4;stroke-dasharray:none" />
	<line
   x1="0.64200002"
   y1="257.58899"
   x2="554.479"
   y2="257.58899"
   id="line765"
   style="fill:none;stroke:#808080;stroke-width:0.50000001000000005;stroke-miterlimit:4;stroke-dasharray:none" />
	<line
   x1="0.64200002"
   y1="278.90701"
   x2="554.479"
   y2="278.90701"
   id="line767"
   style="fill:none;stroke:#808080;stroke-width:0.50000001000000005;stroke-miterlimit:4;stroke-dasharray:none" />
	<line
   x1="0.64200002"
   y1="300.43301"
   x2="554.479"
   y2="300.43301"
   id="line769"
   style="fill:none;stroke:#808080;stroke-width:0.50000001000000005;stroke-miterlimit:4;stroke-dasharray:none" />
	<line
   x1="0.64200002"
   y1="321.75201"
   x2="554.479"
   y2="321.75201"
   id="line771"
   style="fill:none;stroke:#808080;stroke-width:0.50000001000000005;stroke-miterlimit:4;stroke-dasharray:none" />
	<line
   x1="0.64200002"
   y1="343.07001"
   x2="554.479"
   y2="343.07001"
   id="line773"
   style="fill:none;stroke:#808080;stroke-width:0.50000001000000005;stroke-miterlimit:4;stroke-dasharray:none" />
	<line
   x1="0.64200002"
   y1="364.59601"
   x2="554.479"
   y2="364.59601"
   id="line775"
   style="fill:none;stroke:#808080;stroke-width:0.50000001000000005;stroke-miterlimit:4;stroke-dasharray:none" />
	<line
   x1="0.64200002"
   y1="385.91501"
   x2="554.479"
   y2="385.91501"
   id="line777"
   style="fill:none;stroke:#808080;stroke-width:0.50000001000000005;stroke-miterlimit:4;stroke-dasharray:none" />
	<line
   x1="0.64200002"
   y1="407.439"
   x2="554.479"
   y2="407.439"
   id="line779"
   style="fill:none;stroke:#808080;stroke-width:0.50000001000000005;stroke-miterlimit:4;stroke-dasharray:none" />
	<line
   x1="533.11603"
   y1="428.759"
   x2="533.11603"
   y2="0.73100001"
   id="line781"
   style="fill:none;stroke:#808080;stroke-width:0.50000001000000005;stroke-miterlimit:4;stroke-dasharray:none" />
	<line
   x1="511.88599"
   y1="428.759"
   x2="511.88599"
   y2="0.73100001"
   id="line783"
   style="fill:none;stroke:#808080;stroke-width:0.50000001000000005;stroke-miterlimit:4;stroke-dasharray:none" />
	<line
   x1="490.52301"
   y1="428.759"
   x2="490.52301"
   y2="0.73100001"
   id="line785"
   style="fill:none;stroke:#808080;stroke-width:0.50000001000000005;stroke-miterlimit:4;stroke-dasharray:none" />
	<line
   x1="469.29401"
   y1="428.759"
   x2="469.29401"
   y2="0.73100001"
   id="line787"
   style="fill:none;stroke:#808080;stroke-width:0.50000001000000005;stroke-miterlimit:4;stroke-dasharray:none" />
	<line
   x1="447.92999"
   y1="428.759"
   x2="447.92999"
   y2="0.73100001"
   id="line789"
   style="fill:none;stroke:#808080;stroke-width:0.50000001000000005;stroke-miterlimit:4;stroke-dasharray:none" />
	<line
   x1="426.702"
   y1="428.759"
   x2="426.702"
   y2="0.73100001"
   id="line791"
   style="fill:none;stroke:#808080;stroke-width:0.50000001000000005;stroke-miterlimit:4;stroke-dasharray:none" />
	<line
   x1="405.33801"
   y1="428.759"
   x2="405.33801"
   y2="0.73100001"
   id="line793"
   style="fill:none;stroke:#808080;stroke-width:0.50000001000000005;stroke-miterlimit:4;stroke-dasharray:none" />
	<line
   x1="384.10999"
   y1="428.759"
   x2="384.10999"
   y2="0.73100001"
   id="line795"
   style="fill:none;stroke:#808080;stroke-width:0.50000001000000005;stroke-miterlimit:4;stroke-dasharray:none" />
	<line
   x1="362.745"
   y1="428.759"
   x2="362.745"
   y2="0.73100001"
   id="line797"
   style="fill:none;stroke:#808080;stroke-width:0.50000001000000005;stroke-miterlimit:4;stroke-dasharray:none" />
	<line
   x1="341.517"
   y1="428.759"
   x2="341.517"
   y2="0.73100001"
   id="line799"
   style="fill:none;stroke:#808080;stroke-width:0.50000001000000005;stroke-miterlimit:4;stroke-dasharray:none" />
	<line
   x1="320.15302"
   y1="428.759"
   x2="320.15302"
   y2="0.73100001"
   id="line801"
   style="fill:none;stroke:#808080;stroke-width:0.50000001000000005;stroke-miterlimit:4;stroke-dasharray:none" />
	<line
   x1="298.923"
   y1="428.759"
   x2="298.923"
   y2="0.73100001"
   id="line803"
   style="fill:none;stroke:#808080;stroke-width:0.50000001000000005;stroke-miterlimit:4;stroke-dasharray:none" />
	<line
   x1="277.561"
   y1="428.759"
   x2="277.561"
   y2="0.73100001"
   id="line805"
   style="fill:none;stroke:#808080;stroke-width:0.50000001000000005;stroke-miterlimit:4;stroke-dasharray:none" />
	<line
   x1="256.19699"
   y1="428.759"
   x2="256.19699"
   y2="0.73100001"
   id="line807"
   style="fill:none;stroke:#808080;stroke-width:0.50000001000000005;stroke-miterlimit:4;stroke-dasharray:none" />
	<line
   x1="234.968"
   y1="428.759"
   x2="234.968"
   y2="0.73100001"
   id="line809"
   style="fill:none;stroke:#808080;stroke-width:0.50000001000000005;stroke-miterlimit:4;stroke-dasharray:none" />
	<line
   x1="213.604"
   y1="428.759"
   x2="213.604"
   y2="0.73100001"
   id="line811"
   style="fill:none;stroke:#808080;stroke-width:0.50000001000000005;stroke-miterlimit:4;stroke-dasharray:none" />
	<line
   x1="192.37601"
   y1="428.759"
   x2="192.37601"
   y2="0.73100001"
   id="line813"
   style="fill:none;stroke:#808080;stroke-width:0.50000001000000005;stroke-miterlimit:4;stroke-dasharray:none" />
	<line
   x1="171.01199"
   y1="428.759"
   x2="171.01199"
   y2="0.73100001"
   id="line815"
   style="fill:none;stroke:#808080;stroke-width:0.50000001000000005;stroke-miterlimit:4;stroke-dasharray:none" />
	<line
   x1="149.783"
   y1="428.759"
   x2="149.783"
   y2="0.73100001"
   id="line817"
   style="fill:none;stroke:#808080;stroke-width:0.50000001000000005;stroke-miterlimit:4;stroke-dasharray:none" />
	<line
   x1="128.42"
   y1="428.759"
   x2="128.42"
   y2="0.73100001"
   id="line819"
   style="fill:none;stroke:#808080;stroke-width:0.50000001000000005;stroke-miterlimit:4;stroke-dasharray:none" />
	<line
   x1="107.191"
   y1="428.759"
   x2="107.191"
   y2="0.73100001"
   id="line821"
   style="fill:none;stroke:#808080;stroke-width:0.50000001000000005;stroke-miterlimit:4;stroke-dasharray:none" />
	<line
   x1="85.827003"
   y1="428.759"
   x2="85.827003"
   y2="0.73100001"
   id="line823"
   style="fill:none;stroke:#808080;stroke-width:0.50000001000000005;stroke-miterlimit:4;stroke-dasharray:none" />
	<line
   x1="64.598999"
   y1="428.759"
   x2="64.598999"
   y2="0.73100001"
   id="line825"
   style="fill:none;stroke:#808080;stroke-width:0.50000001000000005;stroke-miterlimit:4;stroke-dasharray:none" />
	<line
   x1="43.234001"
   y1="428.759"
   x2="43.234001"
   y2="0.73100001"
   id="line827"
   style="fill:none;stroke:#808080;stroke-width:0.50000001000000005;stroke-miterlimit:4;stroke-dasharray:none" />
	<line
   x1="22.006001"
   y1="428.759"
   x2="22.006001"
   y2="0.73100001"
   id="line829"
   style="fill:none;stroke:#808080;stroke-width:0.50000001000000005;stroke-miterlimit:4;stroke-dasharray:none" />
</g><g
   id="g3">
	<g
   id="g5">
		<g
   id="g7">
			<polyline
   fill="none"
   stroke="#000000"
   stroke-width="1.29"
   points="60.112,82.47 81.752,101.98 84.302,126.59 37.622,60.83      83.872,50.64 73.692,124.05 89.392,137.62 133.522,128.71 70.722,160.96 28.292,159.26 52.052,221.64 48.662,181.75      39.322,155.45 70.722,131.26 118.242,140.17 116.542,157.57 83.022,157.99 39.322,206.79 34.652,209.76 83.872,238.18      100.002,253.88 110.602,276.37 122.062,300.979 102.972,334.08 117.392,335.35 101.692,315.83 181.042,291.649 172.982,316.25      155.582,286.55 142.852,230.55 80.482,273.399 80.902,292.92 76.242,317.53 63.082,276.8 50.782,247.52 53.752,267.04      49.502,320.5 51.202,382.02 57.142,365.05 41.022,332.38 71.992,292.92 27.022,236.49 29.142,261.1    "
   id="polyline9" />
			<path
   fill-rule="evenodd"
   clip-rule="evenodd"
   d="M61.982,84.15c-0.95,1.06-2.57,1.14-3.63,0.19c-1.05-0.95-1.14-2.58-0.19-3.63     c0.96-1.05,2.58-1.14,3.64-0.19C62.852,81.47,62.932,83.1,61.982,84.15z"
   id="path11" />
			<path
   fill="none"
   stroke="#000000"
   stroke-width="0.6856"
   d="M61.982,84.15c-0.95,1.06-2.57,1.14-3.63,0.19     c-1.05-0.95-1.14-2.58-0.19-3.63c0.96-1.05,2.58-1.14,3.64-0.19C62.852,81.47,62.932,83.1,61.982,84.15z"
   id="path13" />
		</g>
		<g
   id="g15">
			<path
   fill-rule="evenodd"
   clip-rule="evenodd"
   d="M82.892,104.23c-1.26,0.64-2.81,0.14-3.45-1.13c-0.65-1.26-0.14-2.81,1.12-3.45     c1.27-0.65,2.82-0.14,3.46,1.12C84.662,102.04,84.162,103.59,82.892,104.23z"
   id="path17" />
			<path
   fill="none"
   stroke="#000000"
   stroke-width="0.6856"
   d="M82.892,104.23c-1.26,0.64-2.81,0.14-3.45-1.13     c-0.65-1.26-0.14-2.81,1.12-3.45c1.27-0.65,2.82-0.14,3.46,1.12C84.662,102.04,84.162,103.59,82.892,104.23z"
   id="path19" />
		</g>
		<g
   id="g21">
			<circle
   fill-rule="evenodd"
   clip-rule="evenodd"
   cx="84.347"
   cy="126.575"
   r="2.57"
   id="circle23" />
			<circle
   fill="none"
   stroke="#000000"
   stroke-width="0.6856"
   cx="84.347"
   cy="126.575"
   r="2.57"
   id="circle25" />
		</g>
		<g
   id="g27">
			<path
   fill-rule="evenodd"
   clip-rule="evenodd"
   d="M38.532,58.48c1.33,0.51,1.99,2,1.47,3.32c-0.51,1.32-2,1.98-3.32,1.47     c-1.32-0.51-1.98-2-1.47-3.32C35.722,58.62,37.212,57.97,38.532,58.48z"
   id="path29" />
			<path
   fill="none"
   stroke="#000000"
   stroke-width="0.6856"
   d="M38.532,58.48c1.33,0.51,1.99,2,1.47,3.32     c-0.51,1.32-2,1.98-3.32,1.47c-1.32-0.51-1.98-2-1.47-3.32C35.722,58.62,37.212,57.97,38.532,58.48z"
   id="path31" />
		</g>
		<g
   id="g33">
			<path
   fill-rule="evenodd"
   clip-rule="evenodd"
   d="M85.722,52.35c-0.96,1.05-2.59,1.11-3.63,0.15c-1.04-0.97-1.11-2.59-0.14-3.64     c0.96-1.04,2.59-1.1,3.63-0.14S86.692,51.31,85.722,52.35z"
   id="path35" />
			<path
   fill="none"
   stroke="#000000"
   stroke-width="0.6856"
   d="M85.722,52.35c-0.96,1.05-2.59,1.11-3.63,0.15     c-1.04-0.97-1.11-2.59-0.14-3.64c0.96-1.04,2.59-1.1,3.63-0.14S86.692,51.31,85.722,52.35z"
   id="path37" />
		</g>
		<g
   id="g39">
			<path
   fill-rule="evenodd"
   clip-rule="evenodd"
   d="M74.582,126.41c-1.33,0.5-2.81-0.18-3.31-1.51c-0.5-1.32,0.17-2.81,1.5-3.31     c1.32-0.5,2.81,0.18,3.31,1.5C76.582,124.42,75.912,125.91,74.582,126.41z"
   id="path41" />
			<path
   fill="none"
   stroke="#000000"
   stroke-width="0.6856"
   d="M74.582,126.41c-1.33,0.5-2.81-0.18-3.31-1.51     c-0.5-1.32,0.17-2.81,1.5-3.31c1.32-0.5,2.81,0.18,3.31,1.5C76.582,124.42,75.912,125.91,74.582,126.41z"
   id="path43" />
		</g>
		<g
   id="g45">
			<path
   fill-rule="evenodd"
   clip-rule="evenodd"
   d="M91.832,138.27c-0.36,1.37-1.77,2.19-3.14,1.83c-1.38-0.36-2.2-1.77-1.84-3.14     s1.77-2.2,3.14-1.83C91.372,135.49,92.192,136.89,91.832,138.27z"
   id="path47" />
			<path
   fill="none"
   stroke="#000000"
   stroke-width="0.6856"
   d="M91.832,138.27c-0.36,1.37-1.77,2.19-3.14,1.83     c-1.38-0.36-2.2-1.77-1.84-3.14s1.77-2.2,3.14-1.83C91.372,135.49,92.192,136.89,91.832,138.27z"
   id="path49" />
		</g>
		<g
   id="g51">
			<path
   fill-rule="evenodd"
   clip-rule="evenodd"
   d="M134.352,131.09c-1.34,0.47-2.81-0.23-3.28-1.57     c-0.47-1.34,0.24-2.81,1.58-3.28c1.34-0.47,2.81,0.24,3.28,1.58C136.392,129.16,135.692,130.62,134.352,131.09z"
   id="path53" />
			<path
   fill="none"
   stroke="#000000"
   stroke-width="0.6856"
   d="M134.352,131.09c-1.34,0.47-2.81-0.23-3.28-1.57     c-0.47-1.34,0.24-2.81,1.58-3.28c1.34-0.47,2.81,0.24,3.28,1.58C136.392,129.16,135.692,130.62,134.352,131.09z"
   id="path55" />
		</g>
		<g
   id="g57">
			<path
   fill-rule="evenodd"
   clip-rule="evenodd"
   d="M68.262,161.5c-0.31-1.38,0.57-2.75,1.96-3.06c1.38-0.31,2.75,0.57,3.06,1.96     c0.31,1.38-0.57,2.76-1.96,3.06C69.942,163.77,68.572,162.89,68.262,161.5z"
   id="path59" />
			<path
   fill="none"
   stroke="#000000"
   stroke-width="0.6856"
   d="M68.262,161.5c-0.31-1.38,0.57-2.75,1.96-3.06     c1.38-0.31,2.75,0.57,3.06,1.96c0.31,1.38-0.57,2.76-1.96,3.06C69.942,163.77,68.572,162.89,68.262,161.5z"
   id="path61" />
		</g>
		<g
   id="g63">
			<path
   fill-rule="evenodd"
   clip-rule="evenodd"
   d="M26.822,161.31c-1.15-0.83-1.42-2.44-0.59-3.59c0.83-1.15,2.44-1.41,3.59-0.58     c1.15,0.82,1.42,2.43,0.59,3.58C29.582,161.88,27.972,162.14,26.822,161.31z"
   id="path65" />
			<path
   fill="none"
   stroke="#000000"
   stroke-width="0.6856"
   d="M26.822,161.31c-1.15-0.83-1.42-2.44-0.59-3.59     c0.83-1.15,2.44-1.41,3.59-0.58c1.15,0.82,1.42,2.43,0.59,3.58C29.582,161.88,27.972,162.14,26.822,161.31z"
   id="path67" />
		</g>
		<g
   id="g69">
			<path
   fill-rule="evenodd"
   clip-rule="evenodd"
   d="M54.512,221.08c0.31,1.38-0.55,2.76-1.94,3.069c-1.38,0.32-2.76-0.55-3.08-1.93     c-0.31-1.38,0.55-2.76,1.94-3.08C52.812,218.83,54.192,219.689,54.512,221.08z"
   id="path71" />
			<path
   fill="none"
   stroke="#000000"
   stroke-width="0.6856"
   d="M54.512,221.08c0.31,1.38-0.55,2.76-1.94,3.069     c-1.38,0.32-2.76-0.55-3.08-1.93c-0.31-1.38,0.55-2.76,1.94-3.08C52.812,218.83,54.192,219.689,54.512,221.08z"
   id="path73" />
		</g>
		<g
   id="g75">
			<path
   fill-rule="evenodd"
   clip-rule="evenodd"
   d="M48.122,179.29c1.39-0.3,2.76,0.58,3.06,1.97c0.3,1.39-0.58,2.76-1.97,3.06     c-1.39,0.3-2.76-0.59-3.06-1.97C45.852,180.96,46.742,179.59,48.122,179.29z"
   id="path77" />
			<path
   fill="none"
   stroke="#000000"
   stroke-width="0.6856"
   d="M48.122,179.29c1.39-0.3,2.76,0.58,3.06,1.97     c0.3,1.39-0.58,2.76-1.97,3.06c-1.39,0.3-2.76-0.59-3.06-1.97C45.852,180.96,46.742,179.59,48.122,179.29z"
   id="path79" />
		</g>
		<g
   id="g81">
			<path
   fill-rule="evenodd"
   clip-rule="evenodd"
   d="M40.032,153.03c1.37,0.4,2.14,1.83,1.74,3.19c-0.4,1.36-1.83,2.14-3.19,1.74     s-2.14-1.83-1.74-3.19C37.242,153.41,38.672,152.63,40.032,153.03z"
   id="path83" />
			<path
   fill="none"
   stroke="#000000"
   stroke-width="0.6856"
   d="M40.032,153.03c1.37,0.4,2.14,1.83,1.74,3.19     c-0.4,1.36-1.83,2.14-3.19,1.74s-2.14-1.83-1.74-3.19C37.242,153.41,38.672,152.63,40.032,153.03z"
   id="path85" />
		</g>
		<g
   id="g87">
			<circle
   fill-rule="evenodd"
   clip-rule="evenodd"
   cx="70.672"
   cy="131.27"
   r="2.571"
   id="circle89" />
			<circle
   fill="none"
   stroke="#000000"
   stroke-width="0.6856"
   cx="70.672"
   cy="131.27"
   r="2.571"
   id="circle91" />
		</g>
		<g
   id="g93">
			<path
   fill-rule="evenodd"
   clip-rule="evenodd"
   d="M119.752,142.19c-1.13,0.85-2.74,0.62-3.6-0.52c-0.85-1.13-0.62-2.74,0.52-3.6     c1.13-0.85,2.74-0.62,3.6,0.52C121.122,139.72,120.892,141.33,119.752,142.19z"
   id="path95" />
			<path
   fill="none"
   stroke="#000000"
   stroke-width="0.6856"
   d="M119.752,142.19c-1.13,0.85-2.74,0.62-3.6-0.52     c-0.85-1.13-0.62-2.74,0.52-3.6c1.13-0.85,2.74-0.62,3.6,0.52C121.122,139.72,120.892,141.33,119.752,142.19z"
   id="path97" />
		</g>
		<g
   id="g99">
			<path
   fill-rule="evenodd"
   clip-rule="evenodd"
   d="M114.692,159.27c-0.96-1.04-0.89-2.67,0.15-3.63c1.05-0.96,2.67-0.89,3.64,0.15     c0.96,1.05,0.89,2.68-0.16,3.64C117.282,160.39,115.652,160.32,114.692,159.27z"
   id="path101" />
			<path
   fill="none"
   stroke="#000000"
   stroke-width="0.6856"
   d="M114.692,159.27c-0.96-1.04-0.89-2.67,0.15-3.63     c1.05-0.96,2.67-0.89,3.64,0.15c0.96,1.05,0.89,2.68-0.16,3.64C117.282,160.39,115.652,160.32,114.692,159.27z"
   id="path103" />
		</g>
		<g
   id="g105">
			<path
   fill-rule="evenodd"
   clip-rule="evenodd"
   d="M80.732,159.03c-0.59-1.29-0.01-2.81,1.28-3.4s2.81-0.02,3.4,1.28     c0.59,1.29,0.02,2.81-1.28,3.4C82.842,160.9,81.322,160.33,80.732,159.03z"
   id="path107" />
			<path
   fill="none"
   stroke="#000000"
   stroke-width="0.6856"
   d="M80.732,159.03c-0.59-1.29-0.01-2.81,1.28-3.4s2.81-0.02,3.4,1.28     c0.59,1.29,0.02,2.81-1.28,3.4C82.842,160.9,81.322,160.33,80.732,159.03z"
   id="path109" />
		</g>
		<g
   id="g111">
			<path
   fill-rule="evenodd"
   clip-rule="evenodd"
   d="M37.402,208.42c-0.92-1.09-0.78-2.71,0.3-3.63s2.7-0.78,3.62,0.3     c0.92,1.08,0.79,2.7-0.3,3.62C39.942,209.63,38.322,209.5,37.402,208.42z"
   id="path113" />
			<path
   fill="none"
   stroke="#000000"
   stroke-width="0.6856"
   d="M37.402,208.42c-0.92-1.09-0.78-2.71,0.3-3.63s2.7-0.78,3.62,0.3     c0.92,1.08,0.79,2.7-0.3,3.62C39.942,209.63,38.322,209.5,37.402,208.42z"
   id="path115" />
		</g>
		<g
   id="g117">
			<path
   fill-rule="evenodd"
   clip-rule="evenodd"
   d="M34.712,212.27c-1.42,0.04-2.6-1.09-2.63-2.51c-0.03-1.42,1.1-2.6,2.52-2.63     s2.59,1.1,2.62,2.52C37.252,211.07,36.132,212.24,34.712,212.27z"
   id="path119" />
			<path
   fill="none"
   stroke="#000000"
   stroke-width="0.6856"
   d="M34.712,212.27c-1.42,0.04-2.6-1.09-2.63-2.51     c-0.03-1.42,1.1-2.6,2.52-2.63s2.59,1.1,2.62,2.52C37.252,211.07,36.132,212.24,34.712,212.27z"
   id="path121" />
		</g>
		<g
   id="g123">
			<path
   fill-rule="evenodd"
   clip-rule="evenodd"
   d="M85.882,239.7c-0.85,1.14-2.47,1.359-3.6,0.5c-1.13-0.851-1.35-2.471-0.5-3.601     c0.86-1.13,2.47-1.35,3.6-0.5C86.522,236.96,86.742,238.57,85.882,239.7z"
   id="path125" />
			<path
   fill="none"
   stroke="#000000"
   stroke-width="0.6856"
   d="M85.882,239.7c-0.85,1.14-2.47,1.359-3.6,0.5     c-1.13-0.851-1.35-2.471-0.5-3.601c0.86-1.13,2.47-1.35,3.6-0.5C86.522,236.96,86.742,238.57,85.882,239.7z"
   id="path127" />
		</g>
		<g
   id="g129">
			<path
   fill-rule="evenodd"
   clip-rule="evenodd"
   d="M101.462,255.93c-1.16,0.83-2.76,0.561-3.59-0.6c-0.82-1.15-0.55-2.76,0.6-3.58     c1.16-0.83,2.77-0.561,3.59,0.6C102.882,253.5,102.622,255.11,101.462,255.93z"
   id="path131" />
			<path
   fill="none"
   stroke="#000000"
   stroke-width="0.6856"
   d="M101.462,255.93c-1.16,0.83-2.76,0.561-3.59-0.6     c-0.82-1.15-0.55-2.76,0.6-3.58c1.16-0.83,2.77-0.561,3.59,0.6C102.882,253.5,102.622,255.11,101.462,255.93z"
   id="path133" />
		</g>
		<g
   id="g135">
			<path
   fill-rule="evenodd"
   clip-rule="evenodd"
   d="M111.672,278.649c-1.28,0.601-2.81,0.051-3.42-1.229     c-0.6-1.29-0.04-2.82,1.24-3.42c1.29-0.61,2.82-0.05,3.42,1.229C113.512,276.52,112.962,278.05,111.672,278.649z"
   id="path137" />
			<path
   fill="none"
   stroke="#000000"
   stroke-width="0.6856"
   d="M111.672,278.649c-1.28,0.601-2.81,0.051-3.42-1.229     c-0.6-1.29-0.04-2.82,1.24-3.42c1.29-0.61,2.82-0.05,3.42,1.229C113.512,276.52,112.962,278.05,111.672,278.649z"
   id="path139" />
		</g>
		<g
   id="g141">
			<path
   fill-rule="evenodd"
   clip-rule="evenodd"
   d="M121.952,303.5c-1.42-0.061-2.52-1.271-2.46-2.68     c0.07-1.421,1.27-2.521,2.68-2.46c1.42,0.06,2.52,1.26,2.46,2.68C124.572,302.46,123.372,303.56,121.952,303.5z"
   id="path143" />
			<path
   fill="none"
   stroke="#000000"
   stroke-width="0.6856"
   d="M121.952,303.5c-1.42-0.061-2.52-1.271-2.46-2.68     c0.07-1.421,1.27-2.521,2.68-2.46c1.42,0.06,2.52,1.26,2.46,2.68C124.572,302.46,123.372,303.56,121.952,303.5z"
   id="path145" />
		</g>
		<g
   id="g147">
			<path
   fill-rule="evenodd"
   clip-rule="evenodd"
   d="M104.132,336.31c-1.26,0.66-2.81,0.17-3.47-1.09c-0.65-1.26-0.16-2.82,1.1-3.47     c1.26-0.66,2.81-0.17,3.46,1.09C105.882,334.1,105.392,335.66,104.132,336.31z"
   id="path149" />
			<path
   fill="none"
   stroke="#000000"
   stroke-width="0.6856"
   d="M104.132,336.31c-1.26,0.66-2.81,0.17-3.47-1.09     c-0.65-1.26-0.16-2.82,1.1-3.47c1.26-0.66,2.81-0.17,3.46,1.09C105.882,334.1,105.392,335.66,104.132,336.31z"
   id="path151" />
		</g>
		<g
   id="g153">
			<path
   fill-rule="evenodd"
   clip-rule="evenodd"
   d="M118.582,333.13c1.25,0.66,1.72,2.22,1.06,3.48c-0.67,1.25-2.23,1.72-3.48,1.05     s-1.73-2.23-1.06-3.48S117.332,332.46,118.582,333.13z"
   id="path155" />
			<path
   fill="none"
   stroke="#000000"
   stroke-width="0.6856"
   d="M118.582,333.13c1.25,0.66,1.72,2.22,1.06,3.48     c-0.67,1.25-2.23,1.72-3.48,1.05s-1.73-2.23-1.06-3.48S117.332,332.46,118.582,333.13z"
   id="path157" />
		</g>
		<g
   id="g159">
			<path
   fill-rule="evenodd"
   clip-rule="evenodd"
   d="M102.442,313.42c1.35,0.42,2.11,1.86,1.7,3.22c-0.42,1.351-1.86,2.11-3.22,1.7     c-1.35-0.42-2.12-1.86-1.7-3.22C99.642,313.77,101.082,313,102.442,313.42z"
   id="path161" />
			<path
   fill="none"
   stroke="#000000"
   stroke-width="0.6856"
   d="M102.442,313.42c1.35,0.42,2.11,1.86,1.7,3.22     c-0.42,1.351-1.86,2.11-3.22,1.7c-1.35-0.42-2.12-1.86-1.7-3.22C99.642,313.77,101.082,313,102.442,313.42z"
   id="path163" />
		</g>
		<g
   id="g165">
			<path
   fill-rule="evenodd"
   clip-rule="evenodd"
   d="M182.802,293.45c-1.01,0.989-2.64,0.97-3.64-0.04     c-0.99-1.021-0.97-2.641,0.04-3.641c1.02-0.989,2.65-0.97,3.64,0.04C183.832,290.82,183.812,292.45,182.802,293.45z"
   id="path167" />
			<path
   fill="none"
   stroke="#000000"
   stroke-width="0.6856"
   d="M182.802,293.45c-1.01,0.989-2.64,0.97-3.64-0.04     c-0.99-1.021-0.97-2.641,0.04-3.641c1.02-0.989,2.65-0.97,3.64,0.04C183.832,290.82,183.812,292.45,182.802,293.45z"
   id="path169" />
		</g>
		<g
   id="g171">
			<path
   fill-rule="evenodd"
   clip-rule="evenodd"
   d="M170.472,316.52c-0.15-1.409,0.87-2.68,2.28-2.83     c1.41-0.149,2.68,0.87,2.83,2.29c0.15,1.41-0.87,2.67-2.28,2.83C171.892,318.96,170.622,317.93,170.472,316.52z"
   id="path173" />
			<path
   fill="none"
   stroke="#000000"
   stroke-width="0.6856"
   d="M170.472,316.52c-0.15-1.409,0.87-2.68,2.28-2.83     c1.41-0.149,2.68,0.87,2.83,2.29c0.15,1.41-0.87,2.67-2.28,2.83C171.892,318.96,170.622,317.93,170.472,316.52z"
   id="path175" />
		</g>
		<g
   id="g177">
			<path
   fill-rule="evenodd"
   clip-rule="evenodd"
   d="M154.652,284.21c1.32-0.521,2.82,0.13,3.34,1.45     c0.52,1.319-0.13,2.81-1.45,3.33c-1.32,0.52-2.81-0.12-3.33-1.44S153.332,284.729,154.652,284.21z"
   id="path179" />
			<path
   fill="none"
   stroke="#000000"
   stroke-width="0.6856"
   d="M154.652,284.21c1.32-0.521,2.82,0.13,3.34,1.45     c0.52,1.319-0.13,2.81-1.45,3.33c-1.32,0.52-2.81-0.12-3.33-1.44S153.332,284.729,154.652,284.21z"
   id="path181" />
		</g>
		<g
   id="g183">
			<path
   fill-rule="evenodd"
   clip-rule="evenodd"
   d="M140.502,229.63c0.52-1.32,2.01-1.98,3.33-1.46c1.33,0.52,1.98,2.01,1.46,3.33     c-0.51,1.32-2.01,1.979-3.33,1.46C140.642,232.439,139.992,230.95,140.502,229.63z"
   id="path185" />
			<path
   fill="none"
   stroke="#000000"
   stroke-width="0.6856"
   d="M140.502,229.63c0.52-1.32,2.01-1.98,3.33-1.46     c1.33,0.52,1.98,2.01,1.46,3.33c-0.51,1.32-2.01,1.979-3.33,1.46C140.642,232.439,139.992,230.95,140.502,229.63z"
   id="path187" />
		</g>
		<g
   id="g189">
			<path
   fill-rule="evenodd"
   clip-rule="evenodd"
   d="M79.332,275.64c-1.26-0.64-1.76-2.189-1.12-3.46c0.65-1.26,2.2-1.76,3.46-1.109     c1.27,0.64,1.77,2.189,1.12,3.46C82.142,275.79,80.592,276.29,79.332,275.64z"
   id="path191" />
			<path
   fill="none"
   stroke="#000000"
   stroke-width="0.6856"
   d="M79.332,275.64c-1.26-0.64-1.76-2.189-1.12-3.46     c0.65-1.26,2.2-1.76,3.46-1.109c1.27,0.64,1.77,2.189,1.12,3.46C82.142,275.79,80.592,276.29,79.332,275.64z"
   id="path193" />
		</g>
		<g
   id="g195">
			<path
   fill-rule="evenodd"
   clip-rule="evenodd"
   d="M80.692,295.43c-1.41-0.12-2.46-1.359-2.35-2.78     c0.12-1.409,1.37-2.46,2.78-2.34c1.41,0.11,2.47,1.36,2.35,2.771S82.112,295.55,80.692,295.43z"
   id="path197" />
			<path
   fill="none"
   stroke="#000000"
   stroke-width="0.6856"
   d="M80.692,295.43c-1.41-0.12-2.46-1.359-2.35-2.78     c0.12-1.409,1.37-2.46,2.78-2.34c1.41,0.11,2.47,1.36,2.35,2.771S82.112,295.55,80.692,295.43z"
   id="path199" />
		</g>
		<g
   id="g201">
			<path
   fill-rule="evenodd"
   clip-rule="evenodd"
   d="M73.722,317.689c-0.09-1.42,0.99-2.64,2.41-2.729c1.41-0.09,2.63,0.99,2.72,2.4     c0.09,1.42-0.99,2.64-2.4,2.729C75.032,320.18,73.812,319.1,73.722,317.689z"
   id="path203" />
			<path
   fill="none"
   stroke="#000000"
   stroke-width="0.6856"
   d="M73.722,317.689c-0.09-1.42,0.99-2.64,2.41-2.729     c1.41-0.09,2.63,0.99,2.72,2.4c0.09,1.42-0.99,2.64-2.4,2.729C75.032,320.18,73.812,319.1,73.722,317.689z"
   id="path205" />
		</g>
		<g
   id="g207">
			<path
   fill-rule="evenodd"
   clip-rule="evenodd"
   d="M62.212,274.43c1.33-0.49,2.81,0.19,3.3,1.521c0.49,1.33-0.19,2.81-1.52,3.3     c-1.33,0.5-2.81-0.18-3.3-1.51C60.202,276.41,60.882,274.93,62.212,274.43z"
   id="path209" />
			<path
   fill="none"
   stroke="#000000"
   stroke-width="0.6856"
   d="M62.212,274.43c1.33-0.49,2.81,0.19,3.3,1.521     c0.49,1.33-0.19,2.81-1.52,3.3c-1.33,0.5-2.81-0.18-3.3-1.51C60.202,276.41,60.882,274.93,62.212,274.43z"
   id="path211" />
		</g>
		<g
   id="g213">
			<path
   fill-rule="evenodd"
   clip-rule="evenodd"
   d="M48.352,248.2c-0.38-1.36,0.41-2.79,1.78-3.17     c1.37-0.381,2.79,0.409,3.17,1.779c0.39,1.36-0.41,2.78-1.78,3.17C50.162,250.36,48.742,249.57,48.352,248.2z"
   id="path215" />
			<path
   fill="none"
   stroke="#000000"
   stroke-width="0.6856"
   d="M48.352,248.2c-0.38-1.36,0.41-2.79,1.78-3.17     c1.37-0.381,2.79,0.409,3.17,1.779c0.39,1.36-0.41,2.78-1.78,3.17C50.162,250.36,48.742,249.57,48.352,248.2z"
   id="path217" />
		</g>
		<g
   id="g219">
			<path
   fill-rule="evenodd"
   clip-rule="evenodd"
   d="M53.842,269.55c-1.42,0.061-2.61-1.05-2.66-2.47s1.06-2.61,2.47-2.66     c1.42-0.06,2.61,1.05,2.67,2.47C56.372,268.31,55.262,269.5,53.842,269.55z"
   id="path221" />
			<path
   fill="none"
   stroke="#000000"
   stroke-width="0.6856"
   d="M53.842,269.55c-1.42,0.061-2.61-1.05-2.66-2.47     s1.06-2.61,2.47-2.66c1.42-0.06,2.61,1.05,2.67,2.47C56.372,268.31,55.262,269.5,53.842,269.55z"
   id="path223" />
		</g>
		<g
   id="g225">
			<path
   fill-rule="evenodd"
   clip-rule="evenodd"
   d="M49.442,323.02c-1.42-0.04-2.54-1.22-2.5-2.64c0.03-1.42,1.21-2.54,2.63-2.5     c1.42,0.03,2.54,1.21,2.51,2.63C52.042,321.93,50.862,323.05,49.442,323.02z"
   id="path227" />
			<path
   fill="none"
   stroke="#000000"
   stroke-width="0.6856"
   d="M49.442,323.02c-1.42-0.04-2.54-1.22-2.5-2.64     c0.03-1.42,1.21-2.54,2.63-2.5c1.42,0.03,2.54,1.21,2.51,2.63C52.042,321.93,50.862,323.05,49.442,323.02z"
   id="path229" />
		</g>
		<g
   id="g231">
			<path
   fill-rule="evenodd"
   clip-rule="evenodd"
   d="M53.692,382.41c-0.22,1.399-1.53,2.359-2.93,2.14     c-1.41-0.21-2.37-1.53-2.15-2.93c0.22-1.4,1.53-2.37,2.94-2.15C52.952,379.689,53.912,381.01,53.692,382.41z"
   id="path233" />
			<path
   fill="none"
   stroke="#000000"
   stroke-width="0.6856"
   d="M53.692,382.41c-0.22,1.399-1.53,2.359-2.93,2.14     c-1.41-0.21-2.37-1.53-2.15-2.93c0.22-1.4,1.53-2.37,2.94-2.15C52.952,379.689,53.912,381.01,53.692,382.41z"
   id="path235" />
		</g>
		<g
   id="g237">
			<path
   fill-rule="evenodd"
   clip-rule="evenodd"
   d="M56.992,362.53c1.42-0.08,2.64,1,2.72,2.409c0.09,1.421-0.99,2.641-2.41,2.73     c-1.41,0.08-2.63-1-2.72-2.41C54.492,363.84,55.572,362.62,56.992,362.53z"
   id="path239" />
			<path
   fill="none"
   stroke="#000000"
   stroke-width="0.6856"
   d="M56.992,362.53c1.42-0.08,2.64,1,2.72,2.409     c0.09,1.421-0.99,2.641-2.41,2.73c-1.41,0.08-2.63-1-2.72-2.41C54.492,363.84,55.572,362.62,56.992,362.53z"
   id="path241" />
		</g>
		<g
   id="g243">
			<path
   fill-rule="evenodd"
   clip-rule="evenodd"
   d="M41.282,329.87c1.41,0.149,2.44,1.41,2.29,2.83c-0.15,1.41-1.41,2.43-2.82,2.29     c-1.41-0.15-2.44-1.41-2.29-2.83C38.602,330.75,39.872,329.729,41.282,329.87z"
   id="path245" />
			<path
   fill="none"
   stroke="#000000"
   stroke-width="0.6856"
   d="M41.282,329.87c1.41,0.149,2.44,1.41,2.29,2.83     c-0.15,1.41-1.41,2.43-2.82,2.29c-1.41-0.15-2.44-1.41-2.29-2.83C38.602,330.75,39.872,329.729,41.282,329.87z"
   id="path247" />
		</g>
		<g
   id="g249">
			<path
   fill-rule="evenodd"
   clip-rule="evenodd"
   d="M71.982,290.399c1.42-0.01,2.58,1.141,2.58,2.561     c0.01,1.42-1.14,2.58-2.56,2.58c-1.42,0.01-2.57-1.141-2.58-2.561C69.422,291.56,70.562,290.399,71.982,290.399z"
   id="path251" />
			<path
   fill="none"
   stroke="#000000"
   stroke-width="0.6856"
   d="M71.982,290.399c1.42-0.01,2.58,1.141,2.58,2.561     c0.01,1.42-1.14,2.58-2.56,2.58c-1.42,0.01-2.57-1.141-2.58-2.561C69.422,291.56,70.562,290.399,71.982,290.399z"
   id="path253" />
		</g>
		<g
   id="g255">
			<path
   fill-rule="evenodd"
   clip-rule="evenodd"
   d="M24.682,237.42c-0.53-1.32,0.11-2.81,1.43-3.34c1.32-0.53,2.82,0.12,3.34,1.439     c0.53,1.311-0.11,2.811-1.43,3.341C26.702,239.38,25.202,238.74,24.682,237.42z"
   id="path257" />
			<path
   fill="none"
   stroke="#000000"
   stroke-width="0.6856"
   d="M24.682,237.42c-0.53-1.32,0.11-2.81,1.43-3.34     c1.32-0.53,2.82,0.12,3.34,1.439c0.53,1.311-0.11,2.811-1.43,3.341C26.702,239.38,25.202,238.74,24.682,237.42z"
   id="path259" />
		</g>
		<g
   id="g261">
			<path
   fill-rule="evenodd"
   clip-rule="evenodd"
   stroke="#000000"
   stroke-width="3"
   d="M29.252,262.35     c-0.71,0.061-1.33-0.46-1.39-1.17c-0.07-0.71,0.46-1.33,1.17-1.39c0.7-0.061,1.33,0.46,1.39,1.17     C30.482,261.67,29.952,262.29,29.252,262.35z"
   id="path263" />
			<path
   fill="none"
   stroke="#000000"
   stroke-width="0.3428"
   d="M29.252,262.35c-0.71,0.061-1.33-0.46-1.39-1.17     c-0.07-0.71,0.46-1.33,1.17-1.39c0.7-0.061,1.33,0.46,1.39,1.17C30.482,261.67,29.952,262.29,29.252,262.35z"
   id="path265" />
		</g>
		<g
   id="g267">
			<polyline
   fill="none"
   stroke="#000000"
   stroke-width="1.29"
   points="133.942,68.46 221.772,82.89 228.562,38.76 199.712,57.86      167.882,45.98 234.072,51.92 217.102,69.74 187.832,59.55 191.222,35.79 220.502,58.71 204.802,37.07 161.102,53.61      203.102,103.26 193.772,113.44 188.252,169.45 194.622,197.88 210.742,211.03 261.232,215.7 260.382,264.49 277.352,323.47      262.502,344.68 260.382,384.57 223.472,378.63 228.562,354.87 233.232,373.96 254.442,392.63 248.082,376.93 223.042,362.08      216.682,389.08 244.262,404.63 308.333,380.17    "
   id="polyline269" />
			<path
   fill-rule="evenodd"
   clip-rule="evenodd"
   d="M136.432,68.87c-0.23,1.4-1.56,2.35-2.96,2.12s-2.35-1.55-2.12-2.95     c0.23-1.4,1.56-2.35,2.96-2.12S136.662,67.47,136.432,68.87z"
   id="path271" />
			<path
   fill="none"
   stroke="#000000"
   stroke-width="0.6856"
   d="M136.432,68.87c-0.23,1.4-1.56,2.35-2.96,2.12s-2.35-1.55-2.12-2.95     c0.23-1.4,1.56-2.35,2.96-2.12S136.662,67.47,136.432,68.87z"
   id="path273" />
		</g>
		<g
   id="g275">
			<path
   fill-rule="evenodd"
   clip-rule="evenodd"
   d="M223.812,81.41c0.83,1.15,0.58,2.76-0.57,3.59s-2.76,0.58-3.59-0.57     c-0.84-1.15-0.58-2.76,0.57-3.59S222.982,80.26,223.812,81.41z"
   id="path277" />
			<path
   fill="none"
   stroke="#000000"
   stroke-width="0.6856"
   d="M223.812,81.41c0.83,1.15,0.58,2.76-0.57,3.59s-2.76,0.58-3.59-0.57     c-0.84-1.15-0.58-2.76,0.57-3.59S222.982,80.26,223.812,81.41z"
   id="path279" />
		</g>
		<g
   id="g281">
			<path
   fill-rule="evenodd"
   clip-rule="evenodd"
   d="M226.442,37.4c0.76-1.19,2.35-1.54,3.55-0.77c1.19,0.76,1.54,2.35,0.78,3.55     c-0.77,1.19-2.36,1.54-3.55,0.78C226.022,40.19,225.672,38.6,226.442,37.4z"
   id="path283" />
			<path
   fill="none"
   stroke="#000000"
   stroke-width="0.6856"
   d="M226.442,37.4c0.76-1.19,2.35-1.54,3.55-0.77     c1.19,0.76,1.54,2.35,0.78,3.55c-0.77,1.19-2.36,1.54-3.55,0.78C226.022,40.19,225.672,38.6,226.442,37.4z"
   id="path285" />
		</g>
		<g
   id="g287">
			<path
   fill-rule="evenodd"
   clip-rule="evenodd"
   d="M197.202,58.14c-0.16-1.41,0.86-2.68,2.27-2.84s2.68,0.85,2.84,2.26     c0.16,1.41-0.85,2.68-2.26,2.85C198.642,60.57,197.362,59.55,197.202,58.14z"
   id="path289" />
			<path
   fill="none"
   stroke="#000000"
   stroke-width="0.6856"
   d="M197.202,58.14c-0.16-1.41,0.86-2.68,2.27-2.84s2.68,0.85,2.84,2.26     c0.16,1.41-0.85,2.68-2.26,2.85C198.642,60.57,197.362,59.55,197.202,58.14z"
   id="path291" />
		</g>
		<g
   id="g293">
			<path
   fill-rule="evenodd"
   clip-rule="evenodd"
   d="M168.442,43.52c1.39,0.31,2.25,1.69,1.94,3.08c-0.31,1.38-1.69,2.25-3.08,1.93     c-1.38-0.31-2.25-1.69-1.93-3.07C165.682,44.07,167.062,43.2,168.442,43.52z"
   id="path295" />
			<path
   fill="none"
   stroke="#000000"
   stroke-width="0.6856"
   d="M168.442,43.52c1.39,0.31,2.25,1.69,1.94,3.08     c-0.31,1.38-1.69,2.25-3.08,1.93c-1.38-0.31-2.25-1.69-1.93-3.07C165.682,44.07,167.062,43.2,168.442,43.52z"
   id="path297" />
		</g>
		<g
   id="g299">
			<path
   fill-rule="evenodd"
   clip-rule="evenodd"
   d="M234.962,54.27c-1.33,0.5-2.81-0.17-3.31-1.5c-0.5-1.32,0.17-2.81,1.5-3.31     c1.33-0.5,2.81,0.17,3.31,1.5S236.292,53.77,234.962,54.27z"
   id="path301" />
			<path
   fill="none"
   stroke="#000000"
   stroke-width="0.6856"
   d="M234.962,54.27c-1.33,0.5-2.81-0.17-3.31-1.5     c-0.5-1.32,0.17-2.81,1.5-3.31c1.33-0.5,2.81,0.17,3.31,1.5S236.292,53.77,234.962,54.27z"
   id="path303" />
		</g>
		<g
   id="g305">
			<path
   fill-rule="evenodd"
   clip-rule="evenodd"
   d="M214.652,70.33c-0.33-1.38,0.52-2.77,1.9-3.1c1.38-0.34,2.77,0.51,3.1,1.89     c0.34,1.38-0.51,2.77-1.89,3.1C216.382,72.56,214.992,71.71,214.652,70.33z"
   id="path307" />
			<path
   fill="none"
   stroke="#000000"
   stroke-width="0.6856"
   d="M214.652,70.33c-0.33-1.38,0.52-2.77,1.9-3.1     c1.38-0.34,2.77,0.51,3.1,1.89c0.34,1.38-0.51,2.77-1.89,3.1C216.382,72.56,214.992,71.71,214.652,70.33z"
   id="path309" />
		</g>
		<g
   id="g311">
			<path
   fill-rule="evenodd"
   clip-rule="evenodd"
   d="M186.522,57.4c1.21-0.74,2.79-0.35,3.53,0.86c0.74,1.21,0.35,2.8-0.86,3.53     c-1.21,0.74-2.79,0.36-3.53-0.85C184.922,59.72,185.302,58.14,186.522,57.4z"
   id="path313" />
			<path
   fill="none"
   stroke="#000000"
   stroke-width="0.6856"
   d="M186.522,57.4c1.21-0.74,2.79-0.35,3.53,0.86     c0.74,1.21,0.35,2.8-0.86,3.53c-1.21,0.74-2.79,0.36-3.53-0.85C184.922,59.72,185.302,58.14,186.522,57.4z"
   id="path315" />
		</g>
		<g
   id="g317">
			<path
   fill-rule="evenodd"
   clip-rule="evenodd"
   d="M193.562,34.85c0.53,1.32-0.11,2.82-1.43,3.35c-1.31,0.53-2.81-0.11-3.34-1.43     c-0.53-1.31,0.11-2.81,1.42-3.34C191.532,32.9,193.032,33.54,193.562,34.85z"
   id="path319" />
			<path
   fill="none"
   stroke="#000000"
   stroke-width="0.6856"
   d="M193.562,34.85c0.53,1.32-0.11,2.82-1.43,3.35     c-1.31,0.53-2.81-0.11-3.34-1.43c-0.53-1.31,0.11-2.81,1.42-3.34C191.532,32.9,193.032,33.54,193.562,34.85z"
   id="path321" />
		</g>
		<g
   id="g323">
			<path
   fill-rule="evenodd"
   clip-rule="evenodd"
   d="M222.312,56.96c0.99,1.02,0.96,2.65-0.07,3.63c-1.02,0.99-2.65,0.96-3.63-0.06     c-0.99-1.03-0.96-2.65,0.07-3.64C219.702,55.91,221.332,55.93,222.312,56.96z"
   id="path325" />
			<path
   fill="none"
   stroke="#000000"
   stroke-width="0.6856"
   d="M222.312,56.96c0.99,1.02,0.96,2.65-0.07,3.63     c-1.02,0.99-2.65,0.96-3.63-0.06c-0.99-1.03-0.96-2.65,0.07-3.64C219.702,55.91,221.332,55.93,222.312,56.96z"
   id="path327" />
		</g>
		<g
   id="g329">
			<path
   fill-rule="evenodd"
   clip-rule="evenodd"
   d="M202.382,36.34c0.41-1.36,1.84-2.13,3.2-1.72c1.36,0.4,2.14,1.84,1.73,3.2     s-1.84,2.13-3.2,1.72C202.752,39.14,201.982,37.7,202.382,36.34z"
   id="path331" />
			<path
   fill="none"
   stroke="#000000"
   stroke-width="0.6856"
   d="M202.382,36.34c0.41-1.36,1.84-2.13,3.2-1.72     c1.36,0.4,2.14,1.84,1.73,3.2s-1.84,2.13-3.2,1.72C202.752,39.14,201.982,37.7,202.382,36.34z"
   id="path333" />
		</g>
		<g
   id="g335">
			<path
   fill-rule="evenodd"
   clip-rule="evenodd"
   d="M160.462,56.05c-1.37-0.35-2.2-1.76-1.84-3.13s1.76-2.2,3.13-1.84     c1.38,0.35,2.2,1.75,1.85,3.13C163.242,55.58,161.842,56.41,160.462,56.05z"
   id="path337" />
			<path
   fill="none"
   stroke="#000000"
   stroke-width="0.6856"
   d="M160.462,56.05c-1.37-0.35-2.2-1.76-1.84-3.13s1.76-2.2,3.13-1.84     c1.38,0.35,2.2,1.75,1.85,3.13C163.242,55.58,161.842,56.41,160.462,56.05z"
   id="path339" />
		</g>
		<g
   id="g341">
			<path
   fill-rule="evenodd"
   clip-rule="evenodd"
   d="M203.052,105.78c-1.42-0.03-2.55-1.21-2.52-2.63c0.03-1.41,1.2-2.54,2.62-2.52     c1.42,0.03,2.55,1.21,2.52,2.63C205.642,104.68,204.472,105.8,203.052,105.78z"
   id="path343" />
			<path
   fill="none"
   stroke="#000000"
   stroke-width="0.6856"
   d="M203.052,105.78c-1.42-0.03-2.55-1.21-2.52-2.63     c0.03-1.41,1.2-2.54,2.62-2.52c1.42,0.03,2.55,1.21,2.52,2.63C205.642,104.68,204.472,105.8,203.052,105.78z"
   id="path345" />
		</g>
		<g
   id="g347">
			<path
   fill-rule="evenodd"
   clip-rule="evenodd"
   d="M192.742,115.74c-1.3-0.58-1.88-2.1-1.3-3.4c0.58-1.29,2.1-1.87,3.4-1.29     c1.29,0.57,1.87,2.1,1.29,3.39C195.562,115.74,194.032,116.32,192.742,115.74z"
   id="path349" />
			<path
   fill="none"
   stroke="#000000"
   stroke-width="0.6856"
   d="M192.742,115.74c-1.3-0.58-1.88-2.1-1.3-3.4     c0.58-1.29,2.1-1.87,3.4-1.29c1.29,0.57,1.87,2.1,1.29,3.39C195.562,115.74,194.032,116.32,192.742,115.74z"
   id="path351" />
		</g>
		<g
   id="g353">
			<path
   fill-rule="evenodd"
   clip-rule="evenodd"
   d="M188.402,171.96c-1.41,0.09-2.63-0.99-2.72-2.41     c-0.09-1.41,0.99-2.63,2.41-2.72c1.42-0.09,2.64,0.99,2.72,2.41C190.902,170.66,189.822,171.88,188.402,171.96z"
   id="path355" />
			<path
   fill="none"
   stroke="#000000"
   stroke-width="0.6856"
   d="M188.402,171.96c-1.41,0.09-2.63-0.99-2.72-2.41     c-0.09-1.41,0.99-2.63,2.41-2.72c1.42-0.09,2.64,0.99,2.72,2.41C190.902,170.66,189.822,171.88,188.402,171.96z"
   id="path357" />
		</g>
		<g
   id="g359">
			<path
   fill-rule="evenodd"
   clip-rule="evenodd"
   d="M195.942,200.02c-1.21,0.74-2.79,0.37-3.54-0.84c-0.75-1.2-0.37-2.79,0.84-3.54     c1.2-0.74,2.79-0.37,3.54,0.84C197.522,197.69,197.152,199.27,195.942,200.02z"
   id="path361" />
			<path
   fill="none"
   stroke="#000000"
   stroke-width="0.6856"
   d="M195.942,200.02c-1.21,0.74-2.79,0.37-3.54-0.84     c-0.75-1.2-0.37-2.79,0.84-3.54c1.2-0.74,2.79-0.37,3.54,0.84C197.522,197.69,197.152,199.27,195.942,200.02z"
   id="path363" />
		</g>
		<g
   id="g365">
			<path
   fill-rule="evenodd"
   clip-rule="evenodd"
   d="M213.072,211.98c-0.54,1.32-2.04,1.95-3.35,1.41     c-1.32-0.54-1.95-2.04-1.41-3.35c0.54-1.32,2.04-1.95,3.35-1.41C212.982,209.17,213.612,210.67,213.072,211.98z"
   id="path367" />
			<path
   fill="none"
   stroke="#000000"
   stroke-width="0.6856"
   d="M213.072,211.98c-0.54,1.32-2.04,1.95-3.35,1.41     c-1.32-0.54-1.95-2.04-1.41-3.35c0.54-1.32,2.04-1.95,3.35-1.41C212.982,209.17,213.612,210.67,213.072,211.98z"
   id="path369" />
		</g>
		<g
   id="g371">
			<path
   fill-rule="evenodd"
   clip-rule="evenodd"
   d="M262.912,217.57c-1.06,0.949-2.68,0.859-3.63-0.2     c-0.95-1.05-0.86-2.68,0.2-3.63c1.06-0.94,2.68-0.85,3.63,0.2C264.062,215,263.972,216.63,262.912,217.57z"
   id="path373" />
			<path
   fill="none"
   stroke="#000000"
   stroke-width="0.6856"
   d="M262.912,217.57c-1.06,0.949-2.68,0.859-3.63-0.2     c-0.95-1.05-0.86-2.68,0.2-3.63c1.06-0.94,2.68-0.85,3.63,0.2C264.062,215,263.972,216.63,262.912,217.57z"
   id="path375" />
		</g>
		<g
   id="g377">
			<path
   fill-rule="evenodd"
   clip-rule="evenodd"
   d="M260.712,266.99c-1.41,0.18-2.7-0.811-2.88-2.21c-0.19-1.41,0.8-2.7,2.21-2.891     c1.4-0.189,2.7,0.811,2.88,2.21C263.112,265.51,262.122,266.8,260.712,266.99z"
   id="path379" />
			<path
   fill="none"
   stroke="#000000"
   stroke-width="0.6856"
   d="M260.712,266.99c-1.41,0.18-2.7-0.811-2.88-2.21     c-0.19-1.41,0.8-2.7,2.21-2.891c1.4-0.189,2.7,0.811,2.88,2.21C263.112,265.51,262.122,266.8,260.712,266.99z"
   id="path381" />
		</g>
		<g
   id="g383">
			<path
   fill-rule="evenodd"
   clip-rule="evenodd"
   d="M276.942,325.95c-1.4-0.23-2.35-1.561-2.11-2.96c0.23-1.4,1.55-2.341,2.95-2.11     c1.4,0.23,2.351,1.56,2.12,2.96C279.662,325.24,278.342,326.189,276.942,325.95z"
   id="path385" />
			<path
   fill="none"
   stroke="#000000"
   stroke-width="0.6856"
   d="M276.942,325.95c-1.4-0.23-2.35-1.561-2.11-2.96     c0.23-1.4,1.55-2.341,2.95-2.11c1.4,0.23,2.351,1.56,2.12,2.96C279.662,325.24,278.342,326.189,276.942,325.95z"
   id="path387" />
		</g>
		<g
   id="g389">
			<path
   fill-rule="evenodd"
   clip-rule="evenodd"
   d="M261.682,347.06c-1.34-0.46-2.05-1.92-1.59-3.26c0.46-1.35,1.93-2.06,3.27-1.6     c1.34,0.47,2.05,1.93,1.59,3.27S263.022,347.53,261.682,347.06z"
   id="path391" />
			<path
   fill="none"
   stroke="#000000"
   stroke-width="0.6856"
   d="M261.682,347.06c-1.34-0.46-2.05-1.92-1.59-3.26     c0.46-1.35,1.93-2.06,3.27-1.6c1.34,0.47,2.05,1.93,1.59,3.27S263.022,347.53,261.682,347.06z"
   id="path393" />
		</g>
		<g
   id="g395">
			<path
   fill-rule="evenodd"
   clip-rule="evenodd"
   d="M258.422,386.149c-0.89-1.1-0.72-2.72,0.39-3.619     c1.1-0.891,2.72-0.71,3.61,0.39c0.89,1.1,0.72,2.72-0.38,3.62C260.932,387.43,259.312,387.25,258.422,386.149z"
   id="path397" />
			<path
   fill="none"
   stroke="#000000"
   stroke-width="0.6856"
   d="M258.422,386.149c-0.89-1.1-0.72-2.72,0.39-3.619     c1.1-0.891,2.72-0.71,3.61,0.39c0.89,1.1,0.72,2.72-0.38,3.62C260.932,387.43,259.312,387.25,258.422,386.149z"
   id="path399" />
		</g>
		<g
   id="g401">
			<path
   fill-rule="evenodd"
   clip-rule="evenodd"
   d="M222.042,376.55c1.18-0.8,2.78-0.5,3.58,0.67s0.5,2.771-0.67,3.57     s-2.77,0.5-3.58-0.67C220.572,378.95,220.872,377.35,222.042,376.55z"
   id="path403" />
			<path
   fill="none"
   stroke="#000000"
   stroke-width="0.6856"
   d="M222.042,376.55c1.18-0.8,2.78-0.5,3.58,0.67s0.5,2.771-0.67,3.57     s-2.77,0.5-3.58-0.67C220.572,378.95,220.872,377.35,222.042,376.55z"
   id="path405" />
		</g>
		<g
   id="g407">
			<path
   fill-rule="evenodd"
   clip-rule="evenodd"
   d="M231.082,354.83c0.02,1.42-1.12,2.59-2.54,2.609     c-1.41,0.021-2.58-1.119-2.6-2.54c-0.02-1.42,1.11-2.579,2.53-2.6C229.892,352.28,231.062,353.41,231.082,354.83z"
   id="path409" />
			<path
   fill="none"
   stroke="#000000"
   stroke-width="0.6856"
   d="M231.082,354.83c0.02,1.42-1.12,2.59-2.54,2.609     c-1.41,0.021-2.58-1.119-2.6-2.54c-0.02-1.42,1.11-2.579,2.53-2.6C229.892,352.28,231.062,353.41,231.082,354.83z"
   id="path411" />
		</g>
		<g
   id="g413">
			<path
   fill-rule="evenodd"
   clip-rule="evenodd"
   d="M234.532,376.11c-1.21,0.739-2.79,0.35-3.53-0.86     c-0.73-1.22-0.35-2.8,0.87-3.53c1.21-0.74,2.79-0.35,3.53,0.86C236.132,373.8,235.752,375.38,234.532,376.11z"
   id="path415" />
			<path
   fill="none"
   stroke="#000000"
   stroke-width="0.6856"
   d="M234.532,376.11c-1.21,0.739-2.79,0.35-3.53-0.86     c-0.73-1.22-0.35-2.8,0.87-3.53c1.21-0.74,2.79-0.35,3.53,0.86C236.132,373.8,235.752,375.38,234.532,376.11z"
   id="path417" />
		</g>
		<g
   id="g419">
			<path
   fill-rule="evenodd"
   clip-rule="evenodd"
   d="M256.502,391.17c0.82,1.16,0.54,2.76-0.61,3.59     c-2.424,1.713-1.506,2.315-3.59-0.61c-0.82-1.159-0.55-2.77,0.61-3.59C254.072,389.74,255.672,390.01,256.502,391.17z"
   id="path421" />
			<path
   fill="none"
   stroke="#000000"
   stroke-width="0.6856"
   d="M256.502,391.17c0.82,1.16,0.54,2.76-0.61,3.59     c-2.424,1.713-1.506,2.315-3.59-0.61c-0.82-1.159-0.55-2.77,0.61-3.59C254.072,389.74,255.672,390.01,256.502,391.17z"
   id="path423" />
		</g>
		<g
   id="g425">
			<path
   fill-rule="evenodd"
   clip-rule="evenodd"
   d="M246.432,375.02c1.08-0.93,2.7-0.8,3.63,0.271c0.92,1.08,0.8,2.7-0.27,3.63     c-1.08,0.92-2.7,0.8-3.63-0.271C245.242,377.57,245.362,375.939,246.432,375.02z"
   id="path427" />
			<path
   fill="none"
   stroke="#000000"
   stroke-width="0.6856"
   d="M246.432,375.02c1.08-0.93,2.7-0.8,3.63,0.271     c0.92,1.08,0.8,2.7-0.27,3.63c-1.08,0.92-2.7,0.8-3.63-0.271C245.242,377.57,245.362,375.939,246.432,375.02z"
   id="path429" />
		</g>
		<g
   id="g431">
			<path
   fill-rule="evenodd"
   clip-rule="evenodd"
   d="M220.732,363.07c-0.56-1.301,0.04-2.811,1.35-3.37     c1.3-0.561,2.81,0.04,3.37,1.34c0.56,1.31-0.04,2.82-1.34,3.38C222.802,364.979,221.292,364.38,220.732,363.07z"
   id="path433" />
			<path
   fill="none"
   stroke="#000000"
   stroke-width="0.6856"
   d="M220.732,363.07c-0.56-1.301,0.04-2.811,1.35-3.37     c1.3-0.561,2.81,0.04,3.37,1.34c0.56,1.31-0.04,2.82-1.34,3.38C222.802,364.979,221.292,364.38,220.732,363.07z"
   id="path435" />
		</g>
		<g
   id="g437">
			<path
   fill-rule="evenodd"
   clip-rule="evenodd"
   d="M217.672,391.399c-1.31,0.561-2.82-0.05-3.38-1.35     c-0.55-1.31,0.05-2.82,1.36-3.38c1.3-0.56,2.82,0.05,3.37,1.36C219.582,389.33,218.972,390.84,217.672,391.399z"
   id="path439" />
			<path
   fill="none"
   stroke="#000000"
   stroke-width="0.6856"
   d="M217.672,391.399c-1.31,0.561-2.82-0.05-3.38-1.35     c-0.55-1.31,0.05-2.82,1.36-3.38c1.3-0.56,2.82,0.05,3.37,1.36C219.582,389.33,218.972,390.84,217.672,391.399z"
   id="path441" />
		</g>
		<g
   id="g443">
			<path
   fill-rule="evenodd"
   clip-rule="evenodd"
   d="M246.772,404.83c-0.12,1.42-1.36,2.47-2.77,2.359     c-1.42-0.119-2.47-1.359-2.36-2.77c0.12-1.42,1.36-2.47,2.78-2.36C245.832,402.18,246.882,403.42,246.772,404.83z"
   id="path445" />
			<path
   fill="none"
   stroke="#000000"
   stroke-width="0.6856"
   d="M246.772,404.83c-0.12,1.42-1.36,2.47-2.77,2.359     c-1.42-0.119-2.47-1.359-2.36-2.77c0.12-1.42,1.36-2.47,2.78-2.36C245.832,402.18,246.882,403.42,246.772,404.83z"
   id="path447" />
		</g>
		<g
   id="g449">
			<polyline
   fill="none"
   stroke="#000000"
   stroke-width="1.29"
   points="548.902,130.71 504.782,75.56 499.692,46.7 446.652,85.74      395.732,108.23 325.722,89.98 328.272,176.11 290.512,204.54 276.932,170.17 245.112,150.23 277.782,141.75 321.902,114.17      380.882,177.39 378.342,246.12 420.342,257.58 371.552,224.91 336.333,210.06 402.952,169.33 372.402,176.11 346.092,174.42      338.452,231.7 356.272,240.61 348.212,227.03 352.882,246.55 439.862,267.34 455.132,316.56 449.192,263.52 483.142,286.86      504.352,242.729 479.322,319.95 542.542,378.93 515.392,360.26 500.532,316.13 436.892,309.77 476.772,339.05 491.623,300.01      397.012,282.61 360.942,301.28 472.962,286.43 408.042,316.68 412.132,364.63 396.012,372.26 401.102,359.11 470.833,317.41      458.952,306.8 458.102,276.25 502.662,378.93 459.802,353.47    "
   id="polyline451" />
			<path
   fill-rule="evenodd"
   clip-rule="evenodd"
   d="M547.333,128.75c1.109-0.89,2.729-0.71,3.609,0.4     c0.891,1.11,0.71,2.73-0.399,3.61c-1.11,0.89-2.721,0.71-3.61-0.4S546.222,129.63,547.333,128.75z"
   id="path453" />
			<path
   fill="none"
   stroke="#000000"
   stroke-width="0.6856"
   d="M547.333,128.75c1.109-0.89,2.729-0.71,3.609,0.4     c0.891,1.11,0.71,2.73-0.399,3.61c-1.11,0.89-2.721,0.71-3.61-0.4S546.222,129.63,547.333,128.75z"
   id="path455" />
		</g>
		<g
   id="g457">
			<path
   fill-rule="evenodd"
   clip-rule="evenodd"
   d="M503.742,73.26c1.29-0.58,2.82-0.01,3.4,1.28c0.59,1.3,0.01,2.82-1.28,3.41     c-1.29,0.58-2.819,0.01-3.399-1.29C501.873,75.37,502.452,73.84,503.742,73.26z"
   id="path459" />
			<path
   fill="none"
   stroke="#000000"
   stroke-width="0.6856"
   d="M503.742,73.26c1.29-0.58,2.82-0.01,3.4,1.28     c0.59,1.3,0.01,2.82-1.28,3.41c-1.29,0.58-2.819,0.01-3.399-1.29C501.873,75.37,502.452,73.84,503.742,73.26z"
   id="path461" />
		</g>
		<g
   id="g463">
			<path
   fill-rule="evenodd"
   clip-rule="evenodd"
   d="M497.352,45.77c0.521-1.32,2.021-1.96,3.34-1.43     c1.32,0.52,1.96,2.02,1.431,3.34c-0.53,1.32-2.021,1.96-3.341,1.43C497.462,48.58,496.822,47.08,497.352,45.77z"
   id="path465" />
			<path
   fill="none"
   stroke="#000000"
   stroke-width="0.6856"
   d="M497.352,45.77c0.521-1.32,2.021-1.96,3.34-1.43     c1.32,0.52,1.96,2.02,1.431,3.34c-0.53,1.32-2.021,1.96-3.341,1.43C497.462,48.58,496.822,47.08,497.352,45.77z"
   id="path467" />
		</g>
		<g
   id="g469">
			<path
   fill-rule="evenodd"
   clip-rule="evenodd"
   d="M444.472,87c-0.71-1.23-0.29-2.8,0.93-3.51c1.23-0.71,2.811-0.29,3.521,0.93     c0.71,1.23,0.29,2.81-0.94,3.52C446.752,88.65,445.182,88.23,444.472,87z"
   id="path471" />
			<path
   fill="none"
   stroke="#000000"
   stroke-width="0.6856"
   d="M444.472,87c-0.71-1.23-0.29-2.8,0.93-3.51     c1.23-0.71,2.811-0.29,3.521,0.93c0.71,1.23,0.29,2.81-0.94,3.52C446.752,88.65,445.182,88.23,444.472,87z"
   id="path473" />
		</g>
		<g
   id="g475">
			<path
   fill-rule="evenodd"
   clip-rule="evenodd"
   d="M393.222,108.43c-0.11-1.42,0.939-2.66,2.36-2.77     c1.409-0.11,2.649,0.939,2.77,2.36c0.11,1.41-0.94,2.65-2.36,2.77C394.583,110.9,393.342,109.84,393.222,108.43z"
   id="path477" />
			<path
   fill="none"
   stroke="#000000"
   stroke-width="0.6856"
   d="M393.222,108.43c-0.11-1.42,0.939-2.66,2.36-2.77     c1.409-0.11,2.649,0.939,2.77,2.36c0.11,1.41-0.94,2.65-2.36,2.77C394.583,110.9,393.342,109.84,393.222,108.43z"
   id="path479" />
		</g>
		<g
   id="g481">
			<path
   fill-rule="evenodd"
   clip-rule="evenodd"
   d="M323.752,91.55c-0.88-1.11-0.7-2.73,0.409-3.61c1.11-0.89,2.73-0.7,3.61,0.41     c0.89,1.11,0.71,2.73-0.399,3.61C326.262,92.85,324.642,92.66,323.752,91.55z"
   id="path483" />
			<path
   fill="none"
   stroke="#000000"
   stroke-width="0.6856"
   d="M323.752,91.55c-0.88-1.11-0.7-2.73,0.409-3.61     c1.11-0.89,2.73-0.7,3.61,0.41c0.89,1.11,0.71,2.73-0.399,3.61C326.262,92.85,324.642,92.66,323.752,91.55z"
   id="path485" />
		</g>
		<g
   id="g487">
			<path
   fill-rule="evenodd"
   clip-rule="evenodd"
   d="M327.182,178.39c-1.28-0.62-1.82-2.16-1.21-3.44c0.62-1.27,2.16-1.81,3.439-1.2     c1.271,0.62,1.811,2.15,1.2,3.43C329.992,178.46,328.462,179,327.182,178.39z"
   id="path489" />
			<path
   fill="none"
   stroke="#000000"
   stroke-width="0.6856"
   d="M327.182,178.39c-1.28-0.62-1.82-2.16-1.21-3.44     c0.62-1.27,2.16-1.81,3.439-1.2c1.271,0.62,1.811,2.15,1.2,3.43C329.992,178.46,328.462,179,327.182,178.39z"
   id="path491" />
		</g>
		<g
   id="g493">
			<path
   fill-rule="evenodd"
   clip-rule="evenodd"
   d="M288.083,203.86c0.39-1.37,1.81-2.16,3.17-1.78c1.37,0.39,2.17,1.81,1.779,3.17     c-0.38,1.37-1.81,2.17-3.17,1.78C288.492,206.65,287.702,205.23,288.083,203.86z"
   id="path495" />
			<path
   fill="none"
   stroke="#000000"
   stroke-width="0.6856"
   d="M288.083,203.86c0.39-1.37,1.81-2.16,3.17-1.78     c1.37,0.39,2.17,1.81,1.779,3.17c-0.38,1.37-1.81,2.17-3.17,1.78C288.492,206.65,287.702,205.23,288.083,203.86z"
   id="path497" />
		</g>
		<g
   id="g499">
			<path
   fill-rule="evenodd"
   clip-rule="evenodd"
   d="M275.322,168.24c1.09-0.91,2.709-0.76,3.62,0.33s0.76,2.71-0.33,3.62     c-1.1,0.91-2.72,0.76-3.62-0.33C274.082,170.77,274.232,169.14,275.322,168.24z"
   id="path501" />
			<path
   fill="none"
   stroke="#000000"
   stroke-width="0.6856"
   d="M275.322,168.24c1.09-0.91,2.709-0.76,3.62,0.33     s0.76,2.71-0.33,3.62c-1.1,0.91-2.72,0.76-3.62-0.33C274.082,170.77,274.232,169.14,275.322,168.24z"
   id="path503" />
		</g>
		<g
   id="g505">
			<path
   fill-rule="evenodd"
   clip-rule="evenodd"
   d="M245.492,147.74c1.4,0.22,2.37,1.53,2.15,2.93c-0.22,1.41-1.53,2.37-2.93,2.15     c-1.41-0.21-2.37-1.53-2.15-2.93C242.772,148.49,244.092,147.53,245.492,147.74z"
   id="path507" />
			<path
   fill="none"
   stroke="#000000"
   stroke-width="0.6856"
   d="M245.492,147.74c1.4,0.22,2.37,1.53,2.15,2.93     c-0.22,1.41-1.53,2.37-2.93,2.15c-1.41-0.21-2.37-1.53-2.15-2.93C242.772,148.49,244.092,147.53,245.492,147.74z"
   id="path509" />
		</g>
		<g
   id="g511">
			<path
   fill-rule="evenodd"
   clip-rule="evenodd"
   d="M280.092,140.75c0.56,1.3-0.04,2.82-1.34,3.38c-1.311,0.56-2.82-0.04-3.38-1.35     c-0.56-1.3,0.04-2.81,1.34-3.37C278.022,138.84,279.532,139.45,280.092,140.75z"
   id="path513" />
			<path
   fill="none"
   stroke="#000000"
   stroke-width="0.6856"
   d="M280.092,140.75c0.56,1.3-0.04,2.82-1.34,3.38     c-1.311,0.56-2.82-0.04-3.38-1.35c-0.56-1.3,0.04-2.81,1.34-3.37C278.022,138.84,279.532,139.45,280.092,140.75z"
   id="path515" />
		</g>
		<g
   id="g517">
			<path
   fill-rule="evenodd"
   clip-rule="evenodd"
   d="M324.402,114.5c-0.18,1.4-1.47,2.39-2.88,2.21c-1.41-0.19-2.399-1.48-2.22-2.88     c0.189-1.41,1.479-2.4,2.89-2.22C323.602,111.8,324.592,113.09,324.402,114.5z"
   id="path519" />
			<path
   fill="none"
   stroke="#000000"
   stroke-width="0.6856"
   d="M324.402,114.5c-0.18,1.4-1.47,2.39-2.88,2.21     c-1.41-0.19-2.399-1.48-2.22-2.88c0.189-1.41,1.479-2.4,2.89-2.22C323.602,111.8,324.592,113.09,324.402,114.5z"
   id="path521" />
		</g>
		<g
   id="g523">
			<path
   fill-rule="evenodd"
   clip-rule="evenodd"
   d="M381.762,179.75c-1.33,0.49-2.811-0.18-3.3-1.51c-0.5-1.33,0.18-2.81,1.51-3.31     s2.81,0.18,3.3,1.51C383.772,177.77,383.092,179.25,381.762,179.75z"
   id="path525" />
			<path
   fill="none"
   stroke="#000000"
   stroke-width="0.6856"
   d="M381.762,179.75c-1.33,0.49-2.811-0.18-3.3-1.51     c-0.5-1.33,0.18-2.81,1.51-3.31s2.81,0.18,3.3,1.51C383.772,177.77,383.092,179.25,381.762,179.75z"
   id="path527" />
		</g>
		<g
   id="g529">
			<path
   fill-rule="evenodd"
   clip-rule="evenodd"
   d="M379.833,248.149c-1.141,0.841-2.761,0.601-3.601-0.539     c-0.84-1.15-0.59-2.761,0.55-3.601c1.15-0.84,2.761-0.59,3.601,0.55C381.222,245.7,380.972,247.31,379.833,248.149z"
   id="path531" />
			<path
   fill="none"
   stroke="#000000"
   stroke-width="0.6856"
   d="M379.833,248.149c-1.141,0.841-2.761,0.601-3.601-0.539     c-0.84-1.15-0.59-2.761,0.55-3.601c1.15-0.84,2.761-0.59,3.601,0.55C381.222,245.7,380.972,247.31,379.833,248.149z"
   id="path533" />
		</g>
		<g
   id="g535">
			<path
   fill-rule="evenodd"
   clip-rule="evenodd"
   d="M421.392,255.29c1.29,0.59,1.86,2.109,1.27,3.399     c-0.59,1.301-2.119,1.87-3.409,1.28s-1.86-2.12-1.271-3.41S420.102,254.7,421.392,255.29z"
   id="path537" />
			<path
   fill="none"
   stroke="#000000"
   stroke-width="0.6856"
   d="M421.392,255.29c1.29,0.59,1.86,2.109,1.27,3.399     c-0.59,1.301-2.119,1.87-3.409,1.28s-1.86-2.12-1.271-3.41S420.102,254.7,421.392,255.29z"
   id="path539" />
		</g>
		<g
   id="g541">
			<path
   fill-rule="evenodd"
   clip-rule="evenodd"
   d="M369.333,223.71c0.67-1.25,2.229-1.71,3.479-1.04s1.72,2.229,1.05,3.479     c-0.68,1.25-2.239,1.721-3.489,1.051C369.123,226.52,368.662,224.96,369.333,223.71z"
   id="path543" />
			<path
   fill="none"
   stroke="#000000"
   stroke-width="0.6856"
   d="M369.333,223.71c0.67-1.25,2.229-1.71,3.479-1.04     s1.72,2.229,1.05,3.479c-0.68,1.25-2.239,1.721-3.489,1.051C369.123,226.52,368.662,224.96,369.333,223.71z"
   id="path545" />
		</g>
		<g
   id="g547">
			<path
   fill-rule="evenodd"
   clip-rule="evenodd"
   d="M336.142,207.55c1.42-0.11,2.65,0.95,2.76,2.37c0.101,1.41-0.96,2.65-2.37,2.75     c-1.42,0.11-2.649-0.95-2.76-2.37C333.662,208.89,334.732,207.65,336.142,207.55z"
   id="path549" />
			<path
   fill="none"
   stroke="#000000"
   stroke-width="0.6856"
   d="M336.142,207.55c1.42-0.11,2.65,0.95,2.76,2.37     c0.101,1.41-0.96,2.65-2.37,2.75c-1.42,0.11-2.649-0.95-2.76-2.37C333.662,208.89,334.732,207.65,336.142,207.55z"
   id="path551" />
		</g>
		<g
   id="g553">
			<path
   fill-rule="evenodd"
   clip-rule="evenodd"
   d="M402.002,166.99c1.319-0.53,2.819,0.11,3.35,1.42     c0.53,1.32-0.11,2.82-1.42,3.35c-1.32,0.53-2.82-0.11-3.35-1.42C400.052,169.02,400.692,167.52,402.002,166.99z"
   id="path555" />
			<path
   fill="none"
   stroke="#000000"
   stroke-width="0.6856"
   d="M402.002,166.99c1.319-0.53,2.819,0.11,3.35,1.42     c0.53,1.32-0.11,2.82-1.42,3.35c-1.32,0.53-2.82-0.11-3.35-1.42C400.052,169.02,400.692,167.52,402.002,166.99z"
   id="path557" />
		</g>
		<g
   id="g559">
			<path
   fill-rule="evenodd"
   clip-rule="evenodd"
   d="M369.882,176.31c-0.11-1.42,0.95-2.65,2.37-2.76     c1.409-0.11,2.649,0.95,2.76,2.36c0.11,1.42-0.95,2.65-2.36,2.76C371.232,178.78,369.992,177.72,369.882,176.31z"
   id="path561" />
			<path
   fill="none"
   stroke="#000000"
   stroke-width="0.6856"
   d="M369.882,176.31c-0.11-1.42,0.95-2.65,2.37-2.76     c1.409-0.11,2.649,0.95,2.76,2.36c0.11,1.42-0.95,2.65-2.36,2.76C371.232,178.78,369.992,177.72,369.882,176.31z"
   id="path563" />
		</g>
		<g
   id="g565">
			<path
   fill-rule="evenodd"
   clip-rule="evenodd"
   d="M344.142,176.02c-0.9-1.1-0.74-2.72,0.36-3.62c1.1-0.9,2.72-0.74,3.62,0.35     c0.899,1.1,0.739,2.72-0.36,3.62C346.662,177.27,345.042,177.11,344.142,176.02z"
   id="path567" />
			<path
   fill="none"
   stroke="#000000"
   stroke-width="0.6856"
   d="M344.142,176.02c-0.9-1.1-0.74-2.72,0.36-3.62     c1.1-0.9,2.72-0.74,3.62,0.35c0.899,1.1,0.739,2.72-0.36,3.62C346.662,177.27,345.042,177.11,344.142,176.02z"
   id="path569" />
		</g>
		<g
   id="g571">
			<path
   fill-rule="evenodd"
   clip-rule="evenodd"
   d="M339.632,233.92c-1.25,0.67-2.811,0.19-3.471-1.06     c-0.67-1.261-0.189-2.811,1.061-3.48c1.26-0.66,2.82-0.19,3.479,1.07C341.362,231.7,340.892,233.26,339.632,233.92z"
   id="path573" />
			<path
   fill="none"
   stroke="#000000"
   stroke-width="0.6856"
   d="M339.632,233.92c-1.25,0.67-2.811,0.19-3.471-1.06     c-0.67-1.261-0.189-2.811,1.061-3.48c1.26-0.66,2.82-0.19,3.479,1.07C341.362,231.7,340.892,233.26,339.632,233.92z"
   id="path575" />
		</g>
		<g
   id="g577">
			<path
   fill-rule="evenodd"
   clip-rule="evenodd"
   d="M357.992,238.76c1.04,0.97,1.101,2.601,0.131,3.64     c-0.971,1.04-2.591,1.091-3.631,0.131c-1.04-0.971-1.1-2.601-0.13-3.641C355.322,237.86,356.952,237.8,357.992,238.76z"
   id="path579" />
			<path
   fill="none"
   stroke="#000000"
   stroke-width="0.6856"
   d="M357.992,238.76c1.04,0.97,1.101,2.601,0.131,3.64     c-0.971,1.04-2.591,1.091-3.631,0.131c-1.04-0.971-1.1-2.601-0.13-3.641C355.322,237.86,356.952,237.8,357.992,238.76z"
   id="path581" />
		</g>
		<g
   id="g583">
			<path
   fill-rule="evenodd"
   clip-rule="evenodd"
   d="M345.882,227.979c-0.54-1.319,0.1-2.819,1.41-3.35     c1.319-0.53,2.819,0.1,3.35,1.42c0.53,1.311-0.1,2.811-1.41,3.34C347.912,229.93,346.412,229.29,345.882,227.979z"
   id="path585" />
			<path
   fill="none"
   stroke="#000000"
   stroke-width="0.6856"
   d="M345.882,227.979c-0.54-1.319,0.1-2.819,1.41-3.35     c1.319-0.53,2.819,0.1,3.35,1.42c0.53,1.311-0.1,2.811-1.41,3.34C347.912,229.93,346.412,229.29,345.882,227.979z"
   id="path587" />
		</g>
		<g
   id="g589">
			<path
   fill-rule="evenodd"
   clip-rule="evenodd"
   d="M354.662,248.33c-1,1-2.63,1-3.64,0c-1-1-1-2.63,0-3.641c1.01-1,2.64-1,3.64,0     C355.662,245.7,355.662,247.33,354.662,248.33z"
   id="path591" />
			<path
   fill="none"
   stroke="#000000"
   stroke-width="0.6856"
   d="M354.662,248.33c-1,1-2.63,1-3.64,0c-1-1-1-2.63,0-3.641     c1.01-1,2.64-1,3.64,0C355.662,245.7,355.662,247.33,354.662,248.33z"
   id="path593" />
		</g>
		<g
   id="g595">
			<path
   fill-rule="evenodd"
   clip-rule="evenodd"
   d="M441.702,269.06c-0.97,1.04-2.6,1.09-3.63,0.12c-1.04-0.97-1.09-2.6-0.12-3.63     c0.96-1.04,2.591-1.09,3.631-0.12S442.672,268.02,441.702,269.06z"
   id="path597" />
			<path
   fill="none"
   stroke="#000000"
   stroke-width="0.6856"
   d="M441.702,269.06c-0.97,1.04-2.6,1.09-3.63,0.12     c-1.04-0.97-1.09-2.6-0.12-3.63c0.96-1.04,2.591-1.09,3.631-0.12S442.672,268.02,441.702,269.06z"
   id="path599" />
		</g>
		<g
   id="g601">
			<path
   fill-rule="evenodd"
   clip-rule="evenodd"
   d="M457.602,316.04c0.29,1.39-0.6,2.75-1.99,3.04c-1.39,0.3-2.75-0.601-3.04-1.99     c-0.29-1.38,0.601-2.75,1.99-3.04S457.312,314.649,457.602,316.04z"
   id="path603" />
			<path
   fill="none"
   stroke="#000000"
   stroke-width="0.6856"
   d="M457.602,316.04c0.29,1.39-0.6,2.75-1.99,3.04     c-1.39,0.3-2.75-0.601-3.04-1.99c-0.29-1.38,0.601-2.75,1.99-3.04S457.312,314.649,457.602,316.04z"
   id="path605" />
		</g>
		<g
   id="g607">
			<path
   fill-rule="evenodd"
   clip-rule="evenodd"
   d="M451.362,262.22c0.73,1.22,0.33,2.8-0.89,3.53     c-1.21,0.729-2.79,0.34-3.521-0.88c-0.729-1.221-0.34-2.8,0.881-3.53C449.052,260.61,450.632,261.01,451.362,262.22z"
   id="path609" />
			<path
   fill="none"
   stroke="#000000"
   stroke-width="0.6856"
   d="M451.362,262.22c0.73,1.22,0.33,2.8-0.89,3.53     c-1.21,0.729-2.79,0.34-3.521-0.88c-0.729-1.221-0.34-2.8,0.881-3.53C449.052,260.61,450.632,261.01,451.362,262.22z"
   id="path611" />
		</g>
		<g
   id="g613">
			<path
   fill-rule="evenodd"
   clip-rule="evenodd"
   d="M485.572,286.21c0.37,1.37-0.449,2.78-1.819,3.14     c-1.37,0.37-2.78-0.45-3.15-1.819c-0.36-1.37,0.46-2.78,1.83-3.141C483.802,284.02,485.212,284.84,485.572,286.21z"
   id="path615" />
			<path
   fill="none"
   stroke="#000000"
   stroke-width="0.6856"
   d="M485.572,286.21c0.37,1.37-0.449,2.78-1.819,3.14     c-1.37,0.37-2.78-0.45-3.15-1.819c-0.36-1.37,0.46-2.78,1.83-3.141C483.802,284.02,485.212,284.84,485.572,286.21z"
   id="path617" />
		</g>
		<g
   id="g619">
			<path
   fill-rule="evenodd"
   clip-rule="evenodd"
   d="M506.692,243.67c-0.52,1.31-2.02,1.95-3.34,1.43     c-1.32-0.529-1.96-2.029-1.43-3.35c0.529-1.311,2.02-1.95,3.34-1.43C506.583,240.85,507.222,242.35,506.692,243.67z"
   id="path621" />
			<path
   fill="none"
   stroke="#000000"
   stroke-width="0.6856"
   d="M506.692,243.67c-0.52,1.31-2.02,1.95-3.34,1.43     c-1.32-0.529-1.96-2.029-1.43-3.35c0.529-1.311,2.02-1.95,3.34-1.43C506.583,240.85,507.222,242.35,506.692,243.67z"
   id="path623" />
		</g>
		<g
   id="g625">
			<path
   fill-rule="evenodd"
   clip-rule="evenodd"
   d="M479.952,322.39c-1.369,0.36-2.779-0.47-3.13-1.84     c-0.359-1.38,0.471-2.78,1.84-3.14c1.381-0.351,2.78,0.47,3.141,1.85C482.152,320.63,481.333,322.04,479.952,322.39z"
   id="path627" />
			<path
   fill="none"
   stroke="#000000"
   stroke-width="0.6856"
   d="M479.952,322.39c-1.369,0.36-2.779-0.47-3.13-1.84     c-0.359-1.38,0.471-2.78,1.84-3.14c1.381-0.351,2.78,0.47,3.141,1.85C482.152,320.63,481.333,322.04,479.952,322.39z"
   id="path629" />
		</g>
		<g
   id="g631">
			<path
   fill-rule="evenodd"
   clip-rule="evenodd"
   d="M540.962,380.89c-1.101-0.88-1.28-2.5-0.391-3.609     c0.891-1.11,2.511-1.28,3.61-0.4c1.11,0.89,1.29,2.51,0.4,3.62C543.692,381.61,542.072,381.78,540.962,380.89z"
   id="path633" />
			<path
   fill="none"
   stroke="#000000"
   stroke-width="0.6856"
   d="M540.962,380.89c-1.101-0.88-1.28-2.5-0.391-3.609     c0.891-1.11,2.511-1.28,3.61-0.4c1.11,0.89,1.29,2.51,0.4,3.62C543.692,381.61,542.072,381.78,540.962,380.89z"
   id="path635" />
		</g>
		<g
   id="g637">
			<path
   fill-rule="evenodd"
   clip-rule="evenodd"
   d="M513.873,358.25c1.13-0.86,2.739-0.63,3.6,0.5c0.85,1.14,0.63,2.75-0.5,3.6     c-1.14,0.86-2.75,0.63-3.61-0.5C512.512,360.72,512.732,359.1,513.873,358.25z"
   id="path639" />
			<path
   fill="none"
   stroke="#000000"
   stroke-width="0.6856"
   d="M513.873,358.25c1.13-0.86,2.739-0.63,3.6,0.5     c0.85,1.14,0.63,2.75-0.5,3.6c-1.14,0.86-2.75,0.63-3.61-0.5C512.512,360.72,512.732,359.1,513.873,358.25z"
   id="path641" />
		</g>
		<g
   id="g643">
			<path
   fill-rule="evenodd"
   clip-rule="evenodd"
   d="M498.562,314.56c0.89-1.109,2.51-1.29,3.62-0.41     c1.11,0.891,1.29,2.511,0.41,3.62c-0.891,1.11-2.51,1.29-3.62,0.41C497.862,317.29,497.682,315.67,498.562,314.56z"
   id="path645" />
			<path
   fill="none"
   stroke="#000000"
   stroke-width="0.6856"
   d="M498.562,314.56c0.89-1.109,2.51-1.29,3.62-0.41     c1.11,0.891,1.29,2.511,0.41,3.62c-0.891,1.11-2.51,1.29-3.62,0.41C497.862,317.29,497.682,315.67,498.562,314.56z"
   id="path647" />
		</g>
		<g
   id="g649">
			<path
   fill-rule="evenodd"
   clip-rule="evenodd"
   d="M435.992,312.12c-1.33-0.51-1.989-2-1.479-3.32c0.51-1.33,1.99-1.99,3.32-1.479     c1.319,0.51,1.989,2,1.479,3.319C438.802,311.97,437.312,312.63,435.992,312.12z"
   id="path651" />
			<path
   fill="none"
   stroke="#000000"
   stroke-width="0.6856"
   d="M435.992,312.12c-1.33-0.51-1.989-2-1.479-3.32     c0.51-1.33,1.99-1.99,3.32-1.479c1.319,0.51,1.989,2,1.479,3.319C438.802,311.97,437.312,312.63,435.992,312.12z"
   id="path653" />
		</g>
		<g
   id="g655">
			<path
   fill-rule="evenodd"
   clip-rule="evenodd"
   d="M479.192,338.33c0.4,1.359-0.38,2.79-1.74,3.2     c-1.359,0.399-2.79-0.381-3.189-1.74c-0.4-1.36,0.38-2.79,1.74-3.2C477.362,336.189,478.792,336.97,479.192,338.33z"
   id="path657" />
			<path
   fill="none"
   stroke="#000000"
   stroke-width="0.6856"
   d="M479.192,338.33c0.4,1.359-0.38,2.79-1.74,3.2     c-1.359,0.399-2.79-0.381-3.189-1.74c-0.4-1.36,0.38-2.79,1.74-3.2C477.362,336.189,478.792,336.97,479.192,338.33z"
   id="path659" />
		</g>
		<g
   id="g661">
			<path
   fill-rule="evenodd"
   clip-rule="evenodd"
   d="M490.392,297.81c1.24-0.689,2.8-0.25,3.5,0.98c0.7,1.24,0.26,2.81-0.98,3.51     c-1.239,0.69-2.8,0.25-3.5-0.979C488.712,300.08,489.152,298.51,490.392,297.81z"
   id="path663" />
			<path
   fill="none"
   stroke="#000000"
   stroke-width="0.6856"
   d="M490.392,297.81c1.24-0.689,2.8-0.25,3.5,0.98     c0.7,1.24,0.26,2.81-0.98,3.51c-1.239,0.69-2.8,0.25-3.5-0.979C488.712,300.08,489.152,298.51,490.392,297.81z"
   id="path665" />
		</g>
		<g
   id="g667">
			<path
   fill-rule="evenodd"
   clip-rule="evenodd"
   d="M394.512,282.99c-0.21-1.41,0.76-2.721,2.17-2.931     c1.4-0.21,2.71,0.761,2.92,2.17c0.21,1.4-0.76,2.71-2.16,2.92C396.032,285.36,394.722,284.39,394.512,282.99z"
   id="path669" />
			<path
   fill="none"
   stroke="#000000"
   stroke-width="0.6856"
   d="M394.512,282.99c-0.21-1.41,0.76-2.721,2.17-2.931     c1.4-0.21,2.71,0.761,2.92,2.17c0.21,1.4-0.76,2.71-2.16,2.92C396.032,285.36,394.722,284.39,394.512,282.99z"
   id="path671" />
		</g>
		<g
   id="g673">
			<path
   fill-rule="evenodd"
   clip-rule="evenodd"
   d="M361.702,303.689c-1.359,0.421-2.8-0.329-3.229-1.68     c-0.42-1.36,0.33-2.8,1.68-3.229c1.36-0.42,2.8,0.33,3.23,1.68C363.802,301.82,363.052,303.26,361.702,303.689z"
   id="path675" />
			<path
   fill="none"
   stroke="#000000"
   stroke-width="0.6856"
   d="M361.702,303.689c-1.359,0.421-2.8-0.329-3.229-1.68     c-0.42-1.36,0.33-2.8,1.68-3.229c1.36-0.42,2.8,0.33,3.23,1.68C363.802,301.82,363.052,303.26,361.702,303.689z"
   id="path677" />
		</g>
		<g
   id="g679">
			<path
   fill-rule="evenodd"
   clip-rule="evenodd"
   d="M473.692,288.84c-1.359,0.42-2.79-0.35-3.21-1.71     c-0.41-1.35,0.351-2.79,1.71-3.21c1.36-0.41,2.79,0.36,3.21,1.71C475.812,286.99,475.052,288.43,473.692,288.84z"
   id="path681" />
			<path
   fill="none"
   stroke="#000000"
   stroke-width="0.6856"
   d="M473.692,288.84c-1.359,0.42-2.79-0.35-3.21-1.71     c-0.41-1.35,0.351-2.79,1.71-3.21c1.36-0.41,2.79,0.36,3.21,1.71C475.812,286.99,475.052,288.43,473.692,288.84z"
   id="path683" />
		</g>
		<g
   id="g685">
			<path
   fill-rule="evenodd"
   clip-rule="evenodd"
   d="M406.833,318.89c-1.25-0.68-1.7-2.25-1.021-3.49     c0.68-1.25,2.25-1.699,3.49-1.02s1.7,2.25,1.02,3.49C409.632,319.12,408.072,319.57,406.833,318.89z"
   id="path687" />
			<path
   fill="none"
   stroke="#000000"
   stroke-width="0.6856"
   d="M406.833,318.89c-1.25-0.68-1.7-2.25-1.021-3.49     c0.68-1.25,2.25-1.699,3.49-1.02s1.7,2.25,1.02,3.49C409.632,319.12,408.072,319.57,406.833,318.89z"
   id="path689" />
		</g>
		<g
   id="g691">
			<path
   fill-rule="evenodd"
   clip-rule="evenodd"
   d="M410.902,366.82c-1.24-0.69-1.68-2.261-0.99-3.5c0.7-1.24,2.261-1.681,3.5-0.98     c1.24,0.69,1.681,2.26,0.99,3.5C413.702,367.08,412.132,367.52,410.902,366.82z"
   id="path693" />
			<path
   fill="none"
   stroke="#000000"
   stroke-width="0.6856"
   d="M410.902,366.82c-1.24-0.69-1.68-2.261-0.99-3.5     c0.7-1.24,2.261-1.681,3.5-0.98c1.24,0.69,1.681,2.26,0.99,3.5C413.702,367.08,412.132,367.52,410.902,366.82z"
   id="path695" />
		</g>
		<g
   id="g697">
			<path
   fill-rule="evenodd"
   clip-rule="evenodd"
   d="M394.162,370.55c0.971-1.04,2.591-1.1,3.631-0.14c1.04,0.97,1.1,2.6,0.14,3.64     c-0.97,1.04-2.6,1.1-3.64,0.13S393.192,371.59,394.162,370.55z"
   id="path699" />
			<path
   fill="none"
   stroke="#000000"
   stroke-width="0.6856"
   d="M394.162,370.55c0.971-1.04,2.591-1.1,3.631-0.14     c1.04,0.97,1.1,2.6,0.14,3.64c-0.97,1.04-2.6,1.1-3.64,0.13S393.192,371.59,394.162,370.55z"
   id="path701" />
		</g>
		<g
   id="g703">
			<path
   fill-rule="evenodd"
   clip-rule="evenodd"
   d="M402.702,357.16c1.091,0.899,1.25,2.52,0.351,3.62     c-0.9,1.1-2.521,1.26-3.62,0.359c-1.09-0.899-1.25-2.52-0.35-3.62C399.982,356.42,401.602,356.26,402.702,357.16z"
   id="path705" />
			<path
   fill="none"
   stroke="#000000"
   stroke-width="0.6856"
   d="M402.702,357.16c1.091,0.899,1.25,2.52,0.351,3.62     c-0.9,1.1-2.521,1.26-3.62,0.359c-1.09-0.899-1.25-2.52-0.35-3.62C399.982,356.42,401.602,356.26,402.702,357.16z"
   id="path707" />
		</g>
		<g
   id="g709">
			<path
   fill-rule="evenodd"
   clip-rule="evenodd"
   d="M471.042,314.899c1.409,0.11,2.47,1.351,2.35,2.771     c-0.11,1.41-1.35,2.47-2.77,2.35c-1.41-0.12-2.471-1.359-2.351-2.77C468.382,315.83,469.623,314.78,471.042,314.899z"
   id="path711" />
			<path
   fill="none"
   stroke="#000000"
   stroke-width="0.6856"
   d="M471.042,314.899c1.409,0.11,2.47,1.351,2.35,2.771     c-0.11,1.41-1.35,2.47-2.77,2.35c-1.41-0.12-2.471-1.359-2.351-2.77C468.382,315.83,469.623,314.78,471.042,314.899z"
   id="path713" />
		</g>
		<g
   id="g715">
			<path
   fill-rule="evenodd"
   clip-rule="evenodd"
   d="M457.892,304.51c1.29-0.59,2.82-0.03,3.42,1.25c0.59,1.29,0.04,2.82-1.25,3.42     c-1.29,0.601-2.82,0.04-3.42-1.25C456.052,306.64,456.602,305.11,457.892,304.51z"
   id="path717" />
			<path
   fill="none"
   stroke="#000000"
   stroke-width="0.6856"
   d="M457.892,304.51c1.29-0.59,2.82-0.03,3.42,1.25     c0.59,1.29,0.04,2.82-1.25,3.42c-1.29,0.601-2.82,0.04-3.42-1.25C456.052,306.64,456.602,305.11,457.892,304.51z"
   id="path719" />
		</g>
		<g
   id="g721">
			<path
   fill-rule="evenodd"
   clip-rule="evenodd"
   d="M460.562,275.7c0.311,1.39-0.56,2.76-1.95,3.069     c-1.38,0.311-2.76-0.569-3.069-1.949c-0.301-1.391,0.569-2.761,1.96-3.07C458.882,273.439,460.262,274.32,460.562,275.7z"
   id="path723" />
			<path
   fill="none"
   stroke="#000000"
   stroke-width="0.6856"
   d="M460.562,275.7c0.311,1.39-0.56,2.76-1.95,3.069     c-1.38,0.311-2.76-0.569-3.069-1.949c-0.301-1.391,0.569-2.761,1.96-3.07C458.882,273.439,460.262,274.32,460.562,275.7z"
   id="path725" />
		</g>
		<g
   id="g727">
			<path
   fill-rule="evenodd"
   clip-rule="evenodd"
   d="M500.772,380.6c-0.939-1.069-0.84-2.7,0.23-3.63     c1.06-0.939,2.689-0.84,3.62,0.23c0.939,1.06,0.84,2.689-0.23,3.63C503.333,381.76,501.702,381.66,500.772,380.6z"
   id="path729" />
			<path
   fill="none"
   stroke="#000000"
   stroke-width="0.6856"
   d="M500.772,380.6c-0.939-1.069-0.84-2.7,0.23-3.63     c1.06-0.939,2.689-0.84,3.62,0.23c0.939,1.06,0.84,2.689-0.23,3.63C503.333,381.76,501.702,381.66,500.772,380.6z"
   id="path731" />
		</g>
		<g
   id="g733">
			<path
   stroke="#000000"
   stroke-width="1.37"
   d="M457.756,352.255c0.701-1.179,2.228-1.57,3.406-0.869     c1.179,0.7,1.565,2.228,0.865,3.406c-0.701,1.179-2.228,1.565-3.406,0.87C457.443,354.961,457.056,353.435,457.756,352.255z"
   id="path735" />
		</g>
	</g>
</g>
<path
   fill-rule="evenodd"
   clip-rule="evenodd"
   d="M311.439,379.997c-0.12,1.42-1.36,2.47-2.771,2.359  c-1.42-0.119-2.469-1.359-2.359-2.77c0.12-1.42,1.359-2.47,2.779-2.36C310.499,377.347,311.549,378.587,311.439,379.997z"
   id="path737" />

</svg>