<?xml version="1.0" encoding="UTF-8" standalone="no"?>
<!-- Created with Inkscape (http://www.inkscape.org/) -->

<svg
   xmlns:ns0="http://www.iki.fi/pav/software/textext/"
   xmlns:dc="http://purl.org/dc/elements/1.1/"
   xmlns:cc="http://creativecommons.org/ns#"
   xmlns:rdf="http://www.w3.org/1999/02/22-rdf-syntax-ns#"
   xmlns:svg="http://www.w3.org/2000/svg"
   xmlns="http://www.w3.org/2000/svg"
   xmlns:sodipodi="http://sodipodi.sourceforge.net/DTD/sodipodi-0.dtd"
   xmlns:inkscape="http://www.inkscape.org/namespaces/inkscape"
   id="svg2"
   version="1.1"
   inkscape:version="0.48.0 r9654"
   width="520"
   height="450"
   xml:space="preserve"
   sodipodi:docname="fey_tepelny_tok_deskou.svg"><sodipodi:namedview
     pagecolor="#ffffff"
     bordercolor="#666666"
     borderopacity="1"
     objecttolerance="10"
     gridtolerance="10"
     guidetolerance="10"
     inkscape:pageopacity="0"
     inkscape:pageshadow="2"
     inkscape:window-width="1917"
     inkscape:window-height="1125"
     id="namedview4"
     showgrid="false"
     inkscape:zoom="1.5452091"
     inkscape:cx="514.84671"
     inkscape:cy="236.14481"
     inkscape:window-x="-9"
     inkscape:window-y="-9"
     inkscape:window-maximized="1"
     inkscape:current-layer="g10" /><metadata
     id="metadata8"><rdf:RDF><cc:Work
         rdf:about=""><dc:format>image/svg+xml</dc:format><dc:type
           rdf:resource="http://purl.org/dc/dcmitype/StillImage" /><dc:title></dc:title></cc:Work></rdf:RDF></metadata><defs
     id="defs6"><clipPath
       clipPathUnits="userSpaceOnUse"
       id="clipPath16"><path
         d="m 1676.4,4858.2 56.4,0 0,198 -56.4,0 0,-198 z"
         clip-rule="evenodd"
         id="path18"
         inkscape:connector-curvature="0" /></clipPath><linearGradient
       x1="1675.75"
       y1="4957.1699"
       x2="1733.64"
       y2="4957.1699"
       gradientUnits="userSpaceOnUse"
       spreadMethod="pad"
       id="linearGradient20"><stop
         style="stop-opacity:1;stop-color:#c05046"
         offset="0"
         id="stop22" /><stop
         style="stop-opacity:1;stop-color:#edcdcb"
         offset="1"
         id="stop24" /></linearGradient><clipPath
       clipPathUnits="userSpaceOnUse"
       id="clipPath44"><path
         d="m 1732.8,5056.2 85.2,85.2 -56.4,0 -85.2,-85.2 56.4,0 z"
         clip-rule="evenodd"
         id="path46"
         inkscape:connector-curvature="0" /></clipPath><linearGradient
       x1="1675.75"
       y1="5098.8999"
       x2="1818.6801"
       y2="5098.8999"
       gradientUnits="userSpaceOnUse"
       spreadMethod="pad"
       id="linearGradient48"><stop
         style="stop-opacity:1;stop-color:#c05046"
         offset="0"
         id="stop50" /><stop
         style="stop-opacity:1;stop-color:#edcdcb"
         offset="1"
         id="stop52" /></linearGradient></defs><g
     id="g10"
     inkscape:groupmode="layer"
     inkscape:label="skici"
     transform="matrix(1.25,0,0,-1.25,0,450)"><g
   id="g12"
   transform="translate(-1639.1308,-4790.0312)"><g
     id="g14"
     clip-path="url(#clipPath16)"><path
       d="m 1675.75,4857.35 57.893,0 0,199.63 -57.893,0 0,-199.63 z"
       style="fill:url(#linearGradient20);fill-opacity:1;fill-rule:evenodd;stroke:none"
       id="path26"
       inkscape:connector-curvature="0" /></g></g><path
   d="m 37.269136,68.168813 56.4,0 0,197.999997 -56.4,0 0,-197.999997 z"
   style="fill:none;stroke:#000000;stroke-width:2.16000009;stroke-linecap:round;stroke-linejoin:round;stroke-miterlimit:10;stroke-opacity:1;stroke-dasharray:none"
   id="path28"
   inkscape:connector-curvature="0" /><path
   d="m 93.669136,266.16881 85.200004,85.2 -56.4,0 -85.200004,-85.2"
   style="fill:none;stroke:#000000;stroke-width:0.72000003;stroke-linecap:round;stroke-linejoin:round;stroke-miterlimit:10;stroke-opacity:1;stroke-dasharray:none"
   id="path30"
   inkscape:connector-curvature="0" /><path
   d="m 178.86914,152.76881 0,198.6"
   style="fill:none;stroke:#000000;stroke-width:0.72000003;stroke-linecap:round;stroke-linejoin:round;stroke-miterlimit:10;stroke-opacity:1;stroke-dasharray:none"
   id="path32"
   inkscape:connector-curvature="0" /><path
   d="M 178.86914,152.76881 93.669136,68.168813"
   style="fill:none;stroke:#000000;stroke-width:0.72000003;stroke-linecap:round;stroke-linejoin:round;stroke-miterlimit:10;stroke-opacity:1;stroke-dasharray:none"
   id="path34"
   inkscape:connector-curvature="0" /><path
   d="m 93.669136,68.168813 0,197.999997 85.200004,85.2 0,-198.6 -85.200004,-84.599997 z"
   style="fill:#edcdcb;fill-opacity:1;fill-rule:evenodd;stroke:none"
   id="path36"
   inkscape:connector-curvature="0" /><path
   d="m 93.669136,68.168813 0,197.999997 85.200004,85.2 0,-198.6 -85.200004,-84.599997 z"
   style="fill:none;stroke:#000000;stroke-width:2.16000009;stroke-linecap:round;stroke-linejoin:round;stroke-miterlimit:10;stroke-opacity:1;stroke-dasharray:none"
   id="path38"
   inkscape:connector-curvature="0" /><g
   id="g40"
   transform="translate(-1639.1308,-4790.0312)"><g
     id="g42"
     clip-path="url(#clipPath44)"><path
       d="m 1675.75,5055.78 142.93,0 0,86.239 -142.93,0 0,-86.239 z"
       style="fill:url(#linearGradient48);fill-opacity:1;fill-rule:evenodd;stroke:none"
       id="path54"
       inkscape:connector-curvature="0" /></g></g><path
   d="m 93.669136,266.16881 85.200004,85.2 -56.4,0 -85.200004,-85.2 56.4,0 z"
   style="fill:none;stroke:#000000;stroke-width:2.16000009;stroke-linecap:round;stroke-linejoin:round;stroke-miterlimit:10;stroke-opacity:1;stroke-dasharray:none"
   id="path56"
   inkscape:connector-curvature="0" /><text
   transform="scale(1,-1)"
   id="text58"
   x="7.209136"
   y="-239.68883"><tspan
     style="font-size:18px;font-variant:normal;font-weight:normal;writing-mode:lr-tb;fill:#000000;fill-opacity:1;fill-rule:nonzero;stroke:none;font-family:ARIAL;-inkscape-font-specification:ARIAL"
     x="7.209136"
     y="-239.68883"
     id="tspan60">T</tspan></text>




<text
   transform="scale(1,-1)"
   id="text62"
   x="18.199135"
   y="-237.19881"><tspan
     style="font-size:11.69855976px;font-variant:normal;font-weight:normal;writing-mode:lr-tb;fill:#000000;fill-opacity:1;fill-rule:nonzero;stroke:none;font-family:ARIAL;-inkscape-font-specification:ARIAL"
     x="18.199135"
     y="-237.19881"
     id="tspan64">2</tspan></text>




<text
   transform="scale(1,-1)"
   id="text66"
   x="99.329132"
   y="-239.68883"><tspan
     style="font-size:18px;font-variant:normal;font-weight:normal;writing-mode:lr-tb;fill:#000000;fill-opacity:1;fill-rule:nonzero;stroke:none;font-family:ARIAL;-inkscape-font-specification:ARIAL"
     x="99.329132"
     y="-239.68883"
     id="tspan68">T</tspan></text>




<text
   transform="scale(1,-1)"
   id="text70"
   x="110.32913"
   y="-237.19881"><tspan
     style="font-size:11.69855976px;font-variant:normal;font-weight:normal;writing-mode:lr-tb;fill:#000000;fill-opacity:1;fill-rule:nonzero;stroke:none;font-family:ARIAL;-inkscape-font-specification:ARIAL"
     x="110.32913"
     y="-237.19881"
     id="tspan72">1</tspan></text>




<path
   d="m 37.269136,68.168813 0,-28.8"
   style="fill:none;stroke:#000000;stroke-width:0.72000003;stroke-linecap:round;stroke-linejoin:round;stroke-miterlimit:10;stroke-opacity:1;stroke-dasharray:none"
   id="path74"
   inkscape:connector-curvature="0" /><path
   d="m 93.669136,68.168813 0,-28.8"
   style="fill:none;stroke:#000000;stroke-width:0.72000003;stroke-linecap:round;stroke-linejoin:round;stroke-miterlimit:10;stroke-opacity:1;stroke-dasharray:none"
   id="path76"
   inkscape:connector-curvature="0" /><path
   d="m 40.869136,39.368813 49.2,0"
   style="fill:none;stroke:#000000;stroke-width:0.72000003;stroke-linecap:round;stroke-linejoin:round;stroke-miterlimit:10;stroke-opacity:1;stroke-dasharray:none"
   id="path78"
   inkscape:connector-curvature="0" /><path
   d="m 41.469136,37.568813 -4.2,1.8 4.2,2.4 0,-4.2 z"
   style="fill:#000000;fill-opacity:1;fill-rule:evenodd;stroke:none"
   id="path80"
   inkscape:connector-curvature="0" /><path
   d="m 89.469136,41.768813 4.2,-2.4 -4.2,-1.8 0,4.2 z"
   style="fill:#000000;fill-opacity:1;fill-rule:evenodd;stroke:none"
   id="path82"
   inkscape:connector-curvature="0" /><text
   transform="scale(1,-1)"
   id="text84"
   x="60.559143"
   y="-45.848808"><tspan
     style="font-size:18px;font-variant:normal;font-weight:normal;writing-mode:lr-tb;fill:#000000;fill-opacity:1;fill-rule:nonzero;stroke:none;font-family:ARIAL;-inkscape-font-specification:ARIAL"
     x="60.559143"
     y="-45.848808"
     id="tspan86">d</tspan></text>




<path
   d="m 135.26914,152.56881 c 20.99,-2.75 36.59,-19.51 36.59,-39.29"
   style="fill:none;stroke:#000000;stroke-width:0.72000003;stroke-linecap:round;stroke-linejoin:round;stroke-miterlimit:10;stroke-opacity:1;stroke-dasharray:none"
   id="path88"
   inkscape:connector-curvature="0" /><path
   d="m 135.66914,150.36881 -6.6,2.4 6.6,1.8 0,-4.2 z"
   style="fill:#000000;fill-opacity:1;fill-rule:evenodd;stroke:none"
   id="path90"
   inkscape:connector-curvature="0" /><text
   transform="scale(1,-1)"
   id="text92"
   x="153.54913"
   y="-97.648811"><tspan
     style="font-size:12.00024033px;font-variant:normal;font-weight:normal;writing-mode:lr-tb;fill:#000000;fill-opacity:1;fill-rule:nonzero;stroke:none;font-family:ARIAL;-inkscape-font-specification:ARIAL"
     x="153.54913 161.55338 164.21947 170.89336 176.89354 183.56746 189.56764 192.90175 199.57564 206.24953 212.24974 218.92363 225.59752 228.93163"
     y="-97.648811"
     sodipodi:role="line"
     id="tspan94">Plošný obsah S</tspan></text>




<path
   d="m 64.269136,216.96881 56.400004,0"
   style="fill:none;stroke:#775e97;stroke-width:0.72000003;stroke-linecap:round;stroke-linejoin:round;stroke-miterlimit:10;stroke-opacity:1;stroke-dasharray:none"
   id="path96"
   inkscape:connector-curvature="0" /><path
   d="m 119.46914,219.96881 9.6,-3 -9.6,-3.6 0,6.6 z"
   style="fill:#775e97;fill-opacity:1;fill-rule:evenodd;stroke:none"
   id="path98"
   inkscape:connector-curvature="0" /><path
   d="m 79.869136,195.36881 33.600004,0"
   style="fill:none;stroke:#775e97;stroke-width:0.72000003;stroke-linecap:round;stroke-linejoin:round;stroke-miterlimit:10;stroke-opacity:1;stroke-dasharray:none"
   id="path100"
   inkscape:connector-curvature="0" /><path
   d="m 112.26914,198.96881 10.2,-3.6 -10.2,-3 0,6.6 z"
   style="fill:#775e97;fill-opacity:1;fill-rule:evenodd;stroke:none"
   id="path102"
   inkscape:connector-curvature="0" /><path
   d="m 72.669136,138.96881 40.800004,0"
   style="fill:none;stroke:#775e97;stroke-width:0.72000003;stroke-linecap:round;stroke-linejoin:round;stroke-miterlimit:10;stroke-opacity:1;stroke-dasharray:none"
   id="path104"
   inkscape:connector-curvature="0" /><path
   d="m 112.26914,141.96881 10.2,-3 -10.2,-3.6 0,6.6 z"
   style="fill:#775e97;fill-opacity:1;fill-rule:evenodd;stroke:none"
   id="path106"
   inkscape:connector-curvature="0" /><text
   transform="scale(1,-1)"
   id="text108"
   x="100.56197"
   y="-177.05226"
   style="font-size:14.01212119999999900px;fill:#3f0000;fill-opacity:1"><tspan
     style="font-size:14.01240252999999900px;font-variant:normal;font-weight:normal;writing-mode:lr-tb;fill:#3f0000;fill-opacity:1;fill-rule:nonzero;stroke:none;font-family:ARIAL;-inkscape-font-specification:ARIAL"
     x="100.56197 109.12143 116.9144 124.70733 132.50026 135.61339 143.40636 150.41263 154.30579 158.19894 165.9919 172.99818"
     y="-177.05226"
     sodipodi:role="line"
     id="tspan110">Tepelný tok </tspan></text>




<path
   d="m 252.79647,258.87426 c 19.39039,-17.0478 42.35536,-40.64396 48.86603,-61.14057 3.8557,-15.32957 2.56084,-31.94641 0.89397,-45.12943 -0.97143,-10.90486 -3.96035,-22.26996 -2.4,-31.8 l -0.03,0.03 c 4.03,-22.489997 31.12,-35.569997 33.63,-55.829997"
   style="fill:none;stroke:#000000;stroke-width:2.16000009;stroke-linecap:round;stroke-linejoin:round;stroke-miterlimit:10;stroke-opacity:1;stroke-dasharray:none"
   id="path112"
   inkscape:connector-curvature="0"
   sodipodi:nodetypes="cccccc" /><path
   d="m 259.87647,261.71426 c 18.10822,-16.6193 41.12021,-41.27737 48.08,-61.71 3.67928,-14.39387 3.35342,-31.49316 1.8,-44.4 -1.13331,-10.70564 -4.06741,-22.46581 -2.4,-31.8 l -0.0106,0.11886 c 4.02,-22.48 30.54935,-35.649007 33.74,-56.259997"
   style="fill:none;stroke:#000000;stroke-width:2.16000009;stroke-linecap:round;stroke-linejoin:round;stroke-miterlimit:10;stroke-opacity:1;stroke-dasharray:none"
   id="path114"
   inkscape:connector-curvature="0"
   sodipodi:nodetypes="cccccs" /><path
   d="m 303.15647,187.40426 7.2,-0.6 0.6,-10.8 0,-9.6 -7.2,0 0,11.4 -0.6,9.6 z"
   style="fill:#edcdcb;fill-opacity:1;fill-rule:evenodd;stroke:none"
   id="path116"
   inkscape:connector-curvature="0" /><path
   d="m 303.15647,187.40426 7.2,-0.6 0.6,-10.8 0,-9.6 -7.2,0 0,11.4 -0.6,9.6 z"
   style="fill:none;stroke:#000000;stroke-width:0.72000003;stroke-linecap:round;stroke-linejoin:round;stroke-miterlimit:10;stroke-opacity:1;stroke-dasharray:none"
   id="path118"
   inkscape:connector-curvature="0" /><path
   d="m 291.75647,204.80426 -10.8,-10.8"
   style="fill:none;stroke:#000000;stroke-width:0.72000003;stroke-linecap:round;stroke-linejoin:round;stroke-miterlimit:10;stroke-opacity:1;stroke-dasharray:none"
   id="path120"
   inkscape:connector-curvature="0" /><path
   d="m 289.95647,206.00426 6,3 -3,-6 -3,3 z"
   style="fill:#000000;fill-opacity:1;fill-rule:evenodd;stroke:none"
   id="path122"
   inkscape:connector-curvature="0" /><path
   d="m 306.15647,218.00426 10.2,10.2"
   style="fill:none;stroke:#000000;stroke-width:0.72000003;stroke-linecap:round;stroke-linejoin:round;stroke-miterlimit:10;stroke-opacity:1;stroke-dasharray:none"
   id="path124"
   inkscape:connector-curvature="0" /><path
   d="m 307.95647,216.80426 -6,-3 3,6 3,-3 z"
   style="fill:#000000;fill-opacity:1;fill-rule:evenodd;stroke:none"
   id="path126"
   inkscape:connector-curvature="0" />



<path
   d="m 310.95647,176.00426 39,0"
   style="fill:none;stroke:#000000;stroke-width:0.72000003;stroke-linecap:round;stroke-linejoin:round;stroke-miterlimit:10;stroke-opacity:1;stroke-dasharray:none"
   id="path136"
   inkscape:connector-curvature="0" /><path
   d="m 349.35647,179.00426 9.6,-3 -9.6,-3.6 0,6.6 z"
   style="fill:#000000;fill-opacity:1;fill-rule:evenodd;stroke:none"
   id="path138"
   inkscape:connector-curvature="0" />


<path
   d="m 323.65647,145.49426 c 0,10.02 -2.85,19.14 -7.31,23.4"
   style="fill:none;stroke:#000000;stroke-width:0.72000003;stroke-linecap:round;stroke-linejoin:round;stroke-miterlimit:10;stroke-opacity:1;stroke-dasharray:none"
   id="path144"
   inkscape:connector-curvature="0" /><path
   d="m 315.75647,167.00426 -4.8,4.2 6.6,-0.6 -1.8,-3.6 z"
   style="fill:#000000;fill-opacity:1;fill-rule:evenodd;stroke:none"
   id="path146"
   inkscape:connector-curvature="0" /><text
   transform="scale(1,-1)"
   id="text148"
   x="313.71213"
   y="-133.3804"
   style="font-size:13.2437048px"><tspan
     style="font-size:13.24397087px;font-variant:normal;font-weight:normal;writing-mode:lr-tb;fill:#000000;fill-opacity:1;fill-rule:nonzero;stroke:none;font-family:ARIAL;-inkscape-font-specification:ARIAL"
     x="313.71213 322.54596 325.48837 332.85394 339.47601 346.84161 353.46365"
     y="-133.3804"
     sodipodi:role="line"
     id="tspan150">Plošný </tspan></text>




<text
   transform="scale(1,-1)"
   id="text152"
   x="354.9324"
   y="-132.73846"
   style="font-size:13.94074249px"><tspan
     style="font-size:13.94102287px;font-variant:normal;font-weight:normal;writing-mode:lr-tb;fill:#000000;fill-opacity:1;fill-rule:nonzero;stroke:none;font-family:ARIAL;-inkscape-font-specification:ARIAL"
     x="354.9324 362.68564 370.4389 377.40952 385.16278 392.91602 396.78934"
     y="-132.73846"
     sodipodi:role="line"
     id="tspan154">obsah S</tspan></text>











<path
   d="m 255.47647,214.56426 c 11.23,0.49 20.8,4.5 24.25,10.19"
   style="fill:none;stroke:#000000;stroke-width:0.72000003;stroke-linecap:round;stroke-linejoin:round;stroke-miterlimit:10;stroke-opacity:1;stroke-dasharray:none"
   id="path184"
   inkscape:connector-curvature="0" /><path
   d="m 277.35647,224.60426 3.6,6 0.6,-6.6 -4.2,0.6 z"
   style="fill:#000000;fill-opacity:1;fill-rule:evenodd;stroke:none"
   id="path186"
   inkscape:connector-curvature="0" /><path
   d="m 266.92647,212.15426 c 11.24,0.48 20.8,4.5 24.26,10.19"
   style="fill:none;stroke:#000000;stroke-width:0.72000003;stroke-linecap:round;stroke-linejoin:round;stroke-miterlimit:10;stroke-opacity:1;stroke-dasharray:none"
   id="path188"
   inkscape:connector-curvature="0" /><path
   d="m 288.75647,222.20426 3.6,6 0.6,-6.6 -4.2,0.6 z"
   style="fill:#000000;fill-opacity:1;fill-rule:evenodd;stroke:none"
   id="path190"
   inkscape:connector-curvature="0" /><text
   transform="scale(1,-1)"
   id="text192"
   x="220.29707"
   y="-202.75429"><tspan
     style="font-size:12.00024033px;font-variant:normal;font-weight:normal;writing-mode:lr-tb;fill:#000000;fill-opacity:1;fill-rule:nonzero;stroke:none;font-family:ARIAL;-inkscape-font-specification:ARIAL"
     x="220.29707 222.96318 228.96339 235.63734 238.97145 245.64537 249.6414 259.63788"
     y="-202.75429"
     sodipodi:role="line"
     id="tspan194">izotermy</tspan></text>




<text
   transform="scale(1,-1)"
   id="text196"
   x="64.649139"
   y="-6.6988001"><tspan
     style="font-size:18px;font-variant:normal;font-weight:normal;writing-mode:lr-tb;fill:#000000;fill-opacity:1;fill-rule:nonzero;stroke:none;font-family:ARIAL;-inkscape-font-specification:ARIAL"
     x="64.649139"
     y="-6.6988001"
     id="tspan198">a</tspan></text>




<text
   transform="scale(1,-1)"
   id="text200"
   x="74.659134"
   y="-6.6988001"><tspan
     style="font-size:18px;font-variant:normal;font-weight:normal;writing-mode:lr-tb;fill:#000000;fill-opacity:1;fill-rule:nonzero;stroke:none;font-family:ARIAL;-inkscape-font-specification:ARIAL"
     x="74.659134"
     y="-6.6988001"
     id="tspan202">)</tspan></text>




<text
   transform="scale(1,-1)"
   id="text204"
   x="316.53741"
   y="-6.864274"><tspan
     style="font-size:18px;font-variant:normal;font-weight:normal;writing-mode:lr-tb;fill:#000000;fill-opacity:1;fill-rule:nonzero;stroke:none;font-family:ARIAL;-inkscape-font-specification:ARIAL"
     x="316.53741"
     y="-6.864274"
     id="tspan206">b</tspan></text>




<text
   transform="scale(1,-1)"
   id="text208"
   x="326.54742"
   y="-6.864274"><tspan
     style="font-size:18px;font-variant:normal;font-weight:normal;writing-mode:lr-tb;fill:#000000;fill-opacity:1;fill-rule:nonzero;stroke:none;font-family:ARIAL;-inkscape-font-specification:ARIAL"
     x="326.54742"
     y="-6.864274"
     id="tspan210">)</tspan></text>




<g
   style="font-style:normal;font-variant:normal;font-weight:normal;font-stretch:normal;letter-spacing:normal;word-spacing:normal;text-anchor:start;fill:none;stroke:#000000;stroke-linecap:butt;stroke-linejoin:miter;stroke-miterlimit:10.43299961;stroke-opacity:1;stroke-dasharray:none;stroke-dashoffset:0"
   id="content"
   transform="matrix(1.7777282,0,0,1.7777282,-411.89526,-1199.4323)"
   xml:space="preserve"
   stroke-miterlimit="10.433"
   font-style="normal"
   font-variant="normal"
   font-weight="normal"
   font-stretch="normal"
   font-size-adjust="none"
   letter-spacing="normal"
   word-spacing="normal"
   ns0:text="$$T_1+\\Delta T_1$$\n"
   ns0:preamble="">
<path
   style="fill:#000000;stroke-width:0"
   inkscape:connector-curvature="0"
   d="m 379.01,713.17 0.01,0.02 0.01,0.03 0,0.02 0.01,0.02 0,0.02 0.01,0.02 0.01,0.02 0,0.02 0.01,0.01 0,0.02 0.01,0.01 0,0.02 0.01,0.01 0.01,0.01 0,0.01 0.01,0.01 0.01,0.01 0,0.01 0.01,0.01 0.01,0.01 0,0.01 0.01,0 0.01,0.01 0.01,0 0,0.01 0.01,0 0.01,0.01 0.01,0 0.01,0 0.01,0.01 0.01,0 0.01,0 c 0.09,0.02 0.42,0.02 0.63,0.02 1.01,0 1.46,-0.03 1.46,-0.81 0,-0.15 -0.04,-0.54 -0.08,-0.8 -0.01,-0.04 -0.03,-0.16 -0.03,-0.19 0,-0.06 0.03,-0.13 0.12,-0.13 0.11,0 0.13,0.08 0.15,0.23 l 0.27,1.73 c 0.01,0.04 0.01,0.14 0.01,0.17 0,0.11 -0.1,0.11 -0.26,0.11 h -5.54 c -0.24,0 -0.25,-0.01 -0.32,-0.2 l -0.59,-1.75 c -0.01,-0.02 -0.06,-0.16 -0.06,-0.18 0,-0.06 0.05,-0.11 0.12,-0.11 0.1,0 0.11,0.05 0.17,0.21 0.53,1.55 0.79,1.72 2.27,1.72 h 0.39 c 0.28,0 0.28,-0.03 0.28,-0.12 0,-0.05 -0.03,-0.17 -0.04,-0.2 l -1.34,-5.32 c -0.09,-0.37 -0.12,-0.48 -1.19,-0.48 -0.36,0 -0.42,0 -0.42,-0.19 0,-0.11 0.12,-0.11 0.18,-0.11 0.26,0 0.54,0.02 0.81,0.02 0.28,0 0.57,0.01 0.85,0.01 0.28,0 0.56,-0.01 0.83,-0.01 0.29,0 0.58,-0.02 0.86,-0.02 0.1,0 0.22,0 0.22,0.19 0,0.11 -0.08,0.11 -0.34,0.11 -0.25,0 -0.37,0 -0.63,0.02 -0.29,0.03 -0.37,0.06 -0.37,0.22 0,0.01 0,0.06 0.04,0.21 z"
   id="path3293" />
<path
   style="fill:#000000;stroke-width:0"
   inkscape:connector-curvature="0"
   d="m 382.91,710.05 0,0.01 0,0.01 0,0.01 0,0.01 0,0 0,0.01 0,0.01 0,0.01 0,0 0,0.01 0,0 0,0.01 0,0.01 0,0 0,0.01 0,0 0,0.01 -0.01,0 0,0.01 0,0.01 0,0.01 -0.01,0 0,0.01 0,0.01 -0.01,0 0,0.01 -0.01,0 -0.01,0 -0.01,0.01 0,0 -0.01,0 -0.01,0 -0.01,0 0,0 -0.01,0 0,0.01 -0.01,0 -0.01,0 0,0 -0.01,0 -0.01,0 0,0 -0.01,0 -0.01,0 0,0 -0.01,0 -0.01,0 -0.01,0 -0.01,0 -0.01,0 c -0.44,-0.44 -1.08,-0.45 -1.36,-0.45 v -0.25 c 0.17,0 0.62,0 1.01,0.2 v -3.55 c 0,-0.23 0,-0.32 -0.7,-0.32 h -0.26 v -0.25 c 0.12,0.01 0.98,0.03 1.24,0.03 0.21,0 1.09,-0.02 1.24,-0.03 v 0.25 h -0.26 c -0.7,0 -0.7,0.09 -0.7,0.32 z"
   id="path3295" />
<path
   style="fill:#000000;stroke-width:0"
   inkscape:connector-curvature="0"
   d="m 391.34,709.41 h 2.78 c 0.14,0 0.33,0 0.33,0.2 0,0.2 -0.19,0.2 -0.33,0.2 h -2.78 v 2.79 c 0,0.14 0,0.33 -0.2,0.33 -0.2,0 -0.2,-0.19 -0.2,-0.33 v -2.79 h -2.79 c -0.14,0 -0.33,0 -0.33,-0.2 0,-0.2 0.19,-0.2 0.33,-0.2 h 2.79 v -2.78 c 0,-0.14 0,-0.33 0.2,-0.33 0.2,0 0.2,0.19 0.2,0.33 z"
   id="path3297" />
<path
   style="fill:#000000;stroke-width:0"
   inkscape:connector-curvature="0"
   d="m 401.63,714.07 -0.01,0.01 0,0.02 -0.01,0.01 -0.01,0.01 0,0.01 -0.01,0.01 0,0.01 -0.01,0 0,0.01 -0.01,0.01 0,0.01 -0.01,0.01 0,0 -0.01,0.01 -0.01,0 0,0.01 -0.01,0.01 -0.01,0 0,0 -0.01,0.01 -0.01,0 -0.01,0.01 -0.01,0 -0.01,0 -0.01,0 -0.01,0.01 -0.01,0 -0.01,0 -0.02,0 -0.01,0 -0.02,0 -0.01,0 c -0.17,0 -0.19,-0.05 -0.26,-0.18 l -0.06,-0.81 2.68,-5.38 h -5.37 l 2.69,5.38 0.06,0.81 -3.37,-6.75 c -0.05,-0.09 -0.05,-0.1 -0.05,-0.11 0,-0.08 0.06,-0.08 0.22,-0.08 h 6.92 c 0.16,0 0.22,0 0.22,0.08 0,0.01 0,0.02 -0.05,0.11 z"
   id="path3299" />
<path
   style="fill:#000000;stroke-width:0"
   inkscape:connector-curvature="0"
   d="m 409.78,713.17 0.01,0.02 0.01,0.03 0,0.02 0.01,0.02 0,0.02 0.01,0.02 0.01,0.02 0,0.02 0.01,0.01 0,0.02 0.01,0.01 0,0.02 0.01,0.01 0.01,0.01 0,0.01 0.01,0.01 0.01,0.01 0,0.01 0.01,0.01 0.01,0.01 0,0.01 0.01,0 0.01,0.01 0.01,0 0,0.01 0.01,0 0.01,0.01 0.01,0 0.01,0 0.01,0.01 0.01,0 0.01,0 c 0.09,0.02 0.42,0.02 0.63,0.02 1.01,0 1.46,-0.03 1.46,-0.81 0,-0.15 -0.04,-0.54 -0.08,-0.8 -0.01,-0.04 -0.03,-0.16 -0.03,-0.19 0,-0.06 0.03,-0.13 0.12,-0.13 0.11,0 0.13,0.08 0.15,0.23 l 0.26,1.73 c 0.02,0.04 0.03,0.14 0.03,0.17 0,0.11 -0.1,0.11 -0.27,0.11 h -5.54 c -0.24,0 -0.25,-0.01 -0.32,-0.2 l -0.59,-1.75 c -0.01,-0.02 -0.06,-0.16 -0.06,-0.18 0,-0.06 0.05,-0.11 0.12,-0.11 0.1,0 0.1,0.05 0.16,0.21 0.54,1.55 0.8,1.72 2.28,1.72 h 0.39 c 0.28,0 0.28,-0.03 0.28,-0.12 0,-0.05 -0.03,-0.17 -0.04,-0.2 l -1.34,-5.32 c -0.09,-0.37 -0.12,-0.48 -1.19,-0.48 -0.35,0 -0.41,0 -0.41,-0.19 0,-0.11 0.11,-0.11 0.16,-0.11 0.27,0 0.55,0.02 0.82,0.02 0.28,0 0.57,0.01 0.85,0.01 0.28,0 0.56,-0.01 0.83,-0.01 0.29,0 0.59,-0.02 0.86,-0.02 0.1,0 0.22,0 0.22,0.19 0,0.11 -0.08,0.11 -0.34,0.11 -0.25,0 -0.37,0 -0.63,0.02 -0.29,0.03 -0.37,0.06 -0.37,0.22 0,0.01 0,0.06 0.04,0.21 z"
   id="path3301" />
<path
   style="fill:#000000;stroke-width:0"
   inkscape:connector-curvature="0"
   d="m 413.68,710.05 0,0.01 0,0.01 0,0.01 0,0.01 0,0 0,0.01 0,0.01 0,0.01 0,0 0,0.01 0,0 0,0.01 0,0.01 0,0 0,0.01 0,0 0,0.01 -0.01,0 0,0.01 0,0.01 0,0.01 -0.01,0 0,0.01 0,0.01 -0.01,0 0,0.01 -0.01,0 -0.01,0 -0.01,0.01 0,0 -0.01,0 -0.01,0 -0.01,0 0,0 -0.01,0 0,0.01 -0.01,0 -0.01,0 0,0 -0.01,0 -0.01,0 0,0 -0.01,0 -0.01,0 0,0 -0.01,0 -0.01,0 -0.01,0 -0.01,0 -0.01,0 c -0.44,-0.44 -1.08,-0.45 -1.36,-0.45 v -0.25 c 0.16,0 0.62,0 1.01,0.2 v -3.55 c 0,-0.23 0,-0.32 -0.7,-0.32 h -0.26 v -0.25 c 0.12,0.01 0.98,0.03 1.24,0.03 0.21,0 1.09,-0.02 1.24,-0.03 v 0.25 h -0.26 c -0.7,0 -0.7,0.09 -0.7,0.32 z"
   id="path3303" />
</g>
<g
   ns0:preamble=""
   ns0:text="$$T_1$$\n"
   word-spacing="normal"
   letter-spacing="normal"
   font-size-adjust="none"
   font-stretch="normal"
   font-weight="normal"
   font-variant="normal"
   font-style="normal"
   stroke-miterlimit="10.433"
   xml:space="preserve"
   transform="matrix(1.8719461,0,0,1.8719461,-384.21028,-1267.85)"
   id="g3513"
   style="font-style:normal;font-variant:normal;font-weight:normal;font-stretch:normal;letter-spacing:normal;word-spacing:normal;text-anchor:start;fill:none;stroke:#000000;stroke-linecap:butt;stroke-linejoin:miter;stroke-miterlimit:10.43299961;stroke-opacity:1;stroke-dasharray:none;stroke-dashoffset:0">
<path
   id="path3515"
   d="m 394.4,713.17 0,0.02 0.01,0.03 0.01,0.02 0,0.02 0.01,0.02 0,0.02 0.01,0.02 0.01,0.02 0,0.01 0.01,0.02 0,0.01 0.01,0.02 0.01,0.01 0,0.01 0.01,0.01 0,0.01 0.01,0.01 0.01,0.01 0,0.01 0.01,0.01 0.01,0.01 0.01,0 0,0.01 0.01,0 0.01,0.01 0.01,0 0.01,0.01 0.01,0 0.01,0 0.01,0.01 0.01,0 0.01,0 c 0.09,0.02 0.42,0.02 0.63,0.02 1,0 1.45,-0.03 1.45,-0.81 0,-0.15 -0.04,-0.54 -0.08,-0.8 -0.01,-0.04 -0.03,-0.16 -0.03,-0.19 0,-0.06 0.03,-0.13 0.12,-0.13 0.11,0 0.13,0.08 0.15,0.23 l 0.27,1.73 c 0.01,0.04 0.02,0.14 0.02,0.17 0,0.11 -0.1,0.11 -0.27,0.11 h -5.53 c -0.24,0 -0.25,-0.01 -0.32,-0.2 l -0.6,-1.75 c -0.01,-0.02 -0.06,-0.16 -0.06,-0.18 0,-0.06 0.05,-0.11 0.12,-0.11 0.1,0 0.11,0.05 0.17,0.21 0.54,1.55 0.8,1.72 2.27,1.72 h 0.39 c 0.28,0 0.28,-0.03 0.28,-0.12 0,-0.05 -0.03,-0.17 -0.04,-0.2 l -1.34,-5.32 c -0.08,-0.37 -0.11,-0.48 -1.18,-0.48 -0.36,0 -0.42,0 -0.42,-0.19 0,-0.11 0.11,-0.11 0.17,-0.11 0.27,0 0.55,0.02 0.82,0.02 0.28,0 0.57,0.01 0.84,0.01 0.28,0 0.56,-0.01 0.83,-0.01 0.29,0 0.59,-0.02 0.87,-0.02 0.1,0 0.22,0 0.22,0.19 0,0.11 -0.08,0.11 -0.34,0.11 -0.25,0 -0.38,0 -0.64,0.02 -0.29,0.03 -0.37,0.06 -0.37,0.22 0,0.01 0,0.06 0.04,0.21 z"
   inkscape:connector-curvature="0"
   style="fill:#000000;stroke-width:0" />
<path
   id="path3517"
   d="m 398.3,710.05 0,0.01 0,0.01 0,0.01 0,0.01 0,0 0,0.01 0,0.01 0,0.01 0,0 0,0.01 -0.01,0 0,0.01 0,0.01 0,0 0,0.01 0,0 0,0.01 0,0 0,0.01 0,0.01 -0.01,0.01 0,0 -0.01,0.01 0,0.01 0,0 -0.01,0.01 -0.01,0 0,0 -0.01,0.01 -0.01,0 -0.01,0 -0.01,0 0,0 -0.01,0 0,0 -0.01,0.01 0,0 -0.01,0 -0.01,0 0,0 -0.01,0 -0.01,0 0,0 -0.01,0 -0.01,0 -0.01,0 -0.01,0 0,0 -0.01,0 -0.01,0 c -0.45,-0.44 -1.08,-0.45 -1.37,-0.45 v -0.25 c 0.17,0 0.63,0 1.01,0.2 v -3.55 c 0,-0.23 0,-0.32 -0.69,-0.32 h -0.27 v -0.25 c 0.13,0.01 0.98,0.03 1.24,0.03 0.22,0 1.1,-0.02 1.25,-0.03 v 0.25 h -0.27 c -0.69,0 -0.69,0.09 -0.69,0.32 z"
   inkscape:connector-curvature="0"
   style="fill:#000000;stroke-width:0" />
</g>
<g
   style="font-style:normal;font-variant:normal;font-weight:normal;font-stretch:normal;letter-spacing:normal;word-spacing:normal;text-anchor:start;fill:none;stroke:#000000;stroke-linecap:butt;stroke-linejoin:miter;stroke-miterlimit:10.43299961;stroke-opacity:1;stroke-dasharray:none;stroke-dashoffset:0"
   id="g3737"
   transform="matrix(2.3738689,0,0,2.3738689,-606.52368,-1460.3924)"
   xml:space="preserve"
   stroke-miterlimit="10.433"
   font-style="normal"
   font-variant="normal"
   font-weight="normal"
   font-stretch="normal"
   font-size-adjust="none"
   letter-spacing="normal"
   word-spacing="normal"
   ns0:text="$$\\Delta d$$\n"
   ns0:preamble="">
<path
   style="fill:#000000;stroke-width:0"
   inkscape:connector-curvature="0"
   d="m 392.95,714.07 -0.01,0.01 0,0.02 -0.01,0.01 0,0.01 -0.01,0.01 -0.01,0.01 0,0.01 -0.01,0 0,0.01 -0.01,0.01 0,0.01 -0.01,0.01 0,0 -0.01,0.01 -0.01,0 0,0.01 -0.01,0.01 -0.01,0 0,0 -0.01,0.01 -0.01,0 -0.01,0.01 -0.01,0 -0.01,0 -0.01,0 -0.01,0.01 -0.01,0 -0.01,0 -0.02,0 -0.01,0 -0.01,0 -0.02,0 c -0.17,0 -0.19,-0.05 -0.26,-0.18 l -0.06,-0.81 2.68,-5.38 h -5.37 l 2.69,5.38 0.06,0.81 -3.37,-6.75 c -0.05,-0.09 -0.05,-0.1 -0.05,-0.11 0,-0.08 0.06,-0.08 0.22,-0.08 h 6.92 c 0.16,0 0.22,0 0.22,0.08 0,0.01 0,0.02 -0.05,0.11 z"
   id="path3739" />
<path
   style="fill:#000000;stroke-width:0"
   inkscape:connector-curvature="0"
   d="m 401.99,713.92 0,0 0,0 0,0.01 0,0 0,0 0,0 0,0.01 0,0 0,0 0,0.01 0,0 -0.01,0.01 0,0 0,0.01 0,0 0,0.01 -0.01,0 0,0.01 0,0 -0.01,0.01 0,0 0,0 -0.01,0 0,0.01 0,0 -0.01,0 0,0 0,0 0,0.01 -0.01,0 0,0 -0.01,0 0,0 0,0 -0.01,0.01 0,0 -0.01,0 0,0 -0.01,0 0,0 -0.01,0 0,0 -0.01,0 0,0 -0.01,0 c -0.15,0 -1.1,-0.09 -1.27,-0.11 -0.08,-0.01 -0.14,-0.06 -0.14,-0.19 0,-0.12 0.09,-0.12 0.24,-0.12 0.48,0 0.5,-0.07 0.5,-0.16 l -0.03,-0.2 -0.6,-2.36 c -0.17,0.37 -0.46,0.63 -0.91,0.63 -1.17,0 -2.41,-1.46 -2.41,-2.91 0,-0.94 0.55,-1.59 1.33,-1.59 l 0.02,0.21 c -0.5,0 -0.64,0.55 -0.64,0.94 0,0.5 0.32,1.72 0.55,2.18 0.31,0.59 0.76,0.95 1.16,0.95 0.64,0 0.79,-0.81 0.79,-0.87 0,-0.06 -0.03,-0.12 -0.03,-0.17 l -0.5,-1.95 c -0.05,-0.18 -0.05,-0.2 -0.2,-0.37 -0.44,-0.55 -0.85,-0.71 -1.13,-0.71 l -0.02,-0.21 c 0.2,0 0.7,0.03 1.3,0.74 0.08,-0.42 0.43,-0.74 0.9,-0.74 0.35,0 0.58,0.22 0.74,0.54 0.17,0.36 0.3,0.97 0.3,0.99 0,0.1 -0.09,0.1 -0.12,0.1 -0.1,0 -0.11,-0.04 -0.14,-0.18 -0.17,-0.65 -0.35,-1.24 -0.76,-1.24 -0.27,0 -0.3,0.26 -0.3,0.46 0,0.24 0.02,0.31 0.06,0.48 z"
   id="path3741" />
</g>
<g
   ns0:preamble=""
   ns0:text="$$\\overrightarrow{\\mathbf{h}}$$\n"
   word-spacing="normal"
   letter-spacing="normal"
   font-size-adjust="none"
   font-stretch="normal"
   font-weight="normal"
   font-variant="normal"
   font-style="normal"
   stroke-miterlimit="10.433"
   xml:space="preserve"
   transform="matrix(3.2130791,0,0,-3.2130791,-637.6139,2362.439)"
   id="g3939"
   style="font-style:normal;font-variant:normal;font-weight:normal;font-stretch:normal;letter-spacing:normal;word-spacing:normal;text-anchor:start;fill:none;stroke:#000000;stroke-linecap:butt;stroke-linejoin:miter;stroke-miterlimit:10.43299961;stroke-opacity:1;stroke-dasharray:none;stroke-dashoffset:0">

<path
   id="path3943"
   d="m 315.50891,677.86372 -0.0335,0.0268 -0.0335,0.0268 -0.0335,0.0268 -0.0268,0.0268 -0.0335,0.0268 -0.0268,0.0268 -0.0268,0.0201 -0.0268,0.0268 -0.0268,0.0268 -0.0268,0.0201 -0.0201,0.0268 -0.0268,0.0268 -0.0201,0.0201 -0.0201,0.0201 -0.0201,0.0268 -0.0201,0.0201 -0.0134,0.0201 -0.0201,0.0201 -0.0134,0.0201 -0.0201,0.0201 -0.0134,0.0201 -0.0134,0.0134 -0.0134,0.0201 -0.007,0.0134 -0.0134,0.0201 -0.007,0.0134 -0.0134,0.0134 -0.007,0.0134 -0.007,0.0134 -0.007,0.007 -0.007,0.0134 -0.007,0.007 c -0.30108,0.46166 -0.35461,0.87648 -0.35461,0.88318 0,0.0803 0.0803,0.0803 0.13382,0.0803 0.11374,0 0.12043,-0.0134 0.14719,-0.13381 0.15389,-0.649 0.54864,-1.21102 1.298,-1.51879 0.0803,-0.0268 0.10036,-0.0401 0.10036,-0.0803 0,-0.0468 -0.0401,-0.0736 -0.0535,-0.0803 -0.28771,-0.10705 -1.09728,-0.44159 -1.35153,-1.55894 -0.0201,-0.0803 -0.0268,-0.10036 -0.1405,-0.10036 -0.0535,0 -0.13382,0 -0.13382,0.0803 0,0.0134 0.0602,0.42821 0.34123,0.87649 0.13381,0.20072 0.32784,0.43489 0.61554,0.649 l -4.95781,0 c -0.12044,0 -0.24087,0 -0.24087,0.13381 0,0.12712 0.12043,0.12712 0.24087,0.12712 z"
   inkscape:connector-curvature="0"
   style="fill:#000000;stroke-width:0" />
<path
   id="path3945"
   d="m 311.74873,682.97068 -0.46166,0 0,0.30777 c 0.18734,-0.007 0.58879,-0.0201 0.84303,-0.0201 0.26094,0 0.65569,0.0134 0.84303,0.0201 l 0,-0.30777 -0.46166,0 0,-1.39167 c 0,-0.72929 0.56872,-1.05044 0.99023,-1.05044 0.22748,0 0.36799,0.13381 0.36799,0.64231 l 0,1.7998 -0.46166,0 0,0.30777 c 0.18734,-0.007 0.58878,-0.0201 0.84303,-0.0201 0.26094,0 0.65569,0.0134 0.84303,0.0201 l 0,-0.30777 -0.46166,0 0,-1.72621 c 0,-0.70252 -0.3613,-0.95677 -1.03037,-0.95677 -0.63562,0 -0.97684,0.38137 -1.13073,0.649 l 0,-2.27484 -1.18426,0.0535 0,0.31447 c 0.41483,0 0.46166,0 0.46166,0.25424 z"
   inkscape:connector-curvature="0"
   style="fill:#000000;stroke-width:0" />
</g>
<path
   d="m 55.318106,160.57931 23.45521,0"
   style="fill:none;stroke:#775e97;stroke-width:0.46431482;stroke-linecap:round;stroke-linejoin:round;stroke-miterlimit:10;stroke-opacity:1;stroke-dasharray:none"
   id="path96-4"
   inkscape:connector-curvature="0" /><path
   d="m 78.578766,163.94541 3.99237,-3 -3.99237,-3.6 0,6.6 z"
   style="fill:#775e97;fill-opacity:1;fill-rule:evenodd;stroke:none"
   id="path98-4"
   inkscape:connector-curvature="0" /></g></svg>