<?xml version="1.0" encoding="UTF-8" standalone="no"?>
<!-- Created with Inkscape (http://www.inkscape.org/) -->

<svg
   xmlns:dc="http://purl.org/dc/elements/1.1/"
   xmlns:cc="http://creativecommons.org/ns#"
   xmlns:rdf="http://www.w3.org/1999/02/22-rdf-syntax-ns#"
   xmlns:svg="http://www.w3.org/2000/svg"
   xmlns="http://www.w3.org/2000/svg"
   xmlns:sodipodi="http://sodipodi.sourceforge.net/DTD/sodipodi-0.dtd"
   xmlns:inkscape="http://www.inkscape.org/namespaces/inkscape"
   id="svg16492"
   version="1.1"
   inkscape:version="0.48.1 "
   width="300"
   height="330"
   xml:space="preserve"
   sodipodi:docname="fey_vektorove_pole.svg"><metadata
     id="metadata16498"><rdf:RDF><cc:Work
         rdf:about=""><dc:format>image/svg+xml</dc:format><dc:type
           rdf:resource="http://purl.org/dc/dcmitype/StillImage" /><dc:title></dc:title></cc:Work></rdf:RDF></metadata><defs
     id="defs16496"><clipPath
       clipPathUnits="userSpaceOnUse"
       id="clipPath16596"><path
         d="M 0,0 240,0 240,264 0,264 0,0 z"
         id="path16598" /></clipPath><radialGradient
       fx="143.01172"
       fy="135.51172"
       cx="143.01172"
       cy="135.51172"
       r="81.570313"
       gradientUnits="userSpaceOnUse"
       gradientTransform="matrix(1.387002,0,0,-0.441176,-79.857064,214.40765)"
       spreadMethod="pad"
       id="radialGradient16600"><stop
         style="stop-opacity:1;stop-color:#ffffff"
         offset="0"
         id="stop16602" /><stop
         style="stop-opacity:0;stop-color:#ffffff"
         offset="1"
         id="stop16604" /></radialGradient><mask
       maskUnits="userSpaceOnUse"
       x="0"
       y="0"
       width="1"
       height="1"
       id="mask16606"><g
         id="g16608"><g
           clip-path="url(#clipPath16596)"
           id="g16610"><g
             id="g16612"><path
               d="M 0,0 240,0 240,264 0,264 0,0 z"
               style="fill:url(#radialGradient16600);fill-opacity:1;fill-rule:nonzero;stroke:none"
               id="path16614" /></g></g></g></mask><clipPath
       clipPathUnits="userSpaceOnUse"
       id="clipPath16620"><path
         d="M 0,0 240,0 240,264 0,264 0,0 z"
         id="path16622" /></clipPath><radialGradient
       fx="143.01172"
       fy="135.51172"
       cx="143.01172"
       cy="135.51172"
       r="81.570313"
       gradientUnits="userSpaceOnUse"
       gradientTransform="matrix(1.387002,0,0,-0.441176,-79.857064,214.40765)"
       spreadMethod="pad"
       id="radialGradient16624"><stop
         style="stop-opacity:1;stop-color:#aa7fd2"
         offset="0"
         id="stop16626" /><stop
         style="stop-opacity:1;stop-color:#aa7fd2"
         offset="1"
         id="stop16628" /></radialGradient></defs><sodipodi:namedview
     pagecolor="#ffffff"
     bordercolor="#666666"
     borderopacity="1"
     objecttolerance="10"
     gridtolerance="10"
     guidetolerance="10"
     inkscape:pageopacity="0"
     inkscape:pageshadow="2"
     inkscape:window-width="1831"
     inkscape:window-height="1173"
     id="namedview16494"
     showgrid="false"
     inkscape:zoom="1.4666666"
     inkscape:cx="425.55015"
     inkscape:cy="-16.24768"
     inkscape:window-x="80"
     inkscape:window-y="-9"
     inkscape:window-maximized="1"
     inkscape:current-layer="g16502" /><g
     id="g16500"
     inkscape:groupmode="layer"
     inkscape:label="fey_vektorove_pole"
     transform="matrix(1.25,0,0,-1.25,0,330)"><g
       id="g16502"><path
   d="m 124.547,7.742 0,99 -14.399,0 0,-99 -0.011,0 c 0.14,-2.121 3.43223,-3.693764 7.351,-3.691 3.21892,0.00227 6.89279,1.7527132 7.059,3.691 z"
   style="fill:#d2c9de;fill-opacity:1;fill-rule:evenodd;stroke:#000000;stroke-width:1.20000005;stroke-linecap:round;stroke-linejoin:round;stroke-miterlimit:10;stroke-opacity:1;stroke-dasharray:none"
   id="path16504"
   inkscape:connector-curvature="0"
   sodipodi:nodetypes="cccccsc" /><path
   d="m 232.027,124.051 c 0,19.562 -50.769,35.433 -113.39,35.433 -62.617,0 -113.387,-15.871 -113.387,-35.433 0,-19.567 50.77,-35.438 113.387,-35.438 62.621,0 113.39,15.871 113.39,35.438 z"
   style="fill:#d2c9de;fill-opacity:1;fill-rule:evenodd;stroke:#000000;stroke-opacity:1;stroke-width:1.2;stroke-linecap:round;stroke-linejoin:round;stroke-miterlimit:10;stroke-dasharray:none"
   id="path16506" /><path
   d="m 231.949,154.742 0,-30.601"
   style="fill:none;stroke:#000000;stroke-opacity:1;stroke-width:1.2;stroke-linecap:round;stroke-linejoin:round;stroke-miterlimit:10;stroke-dasharray:none"
   id="path16508" /><path
   d="m 5.75,124.141 16.797,0 0,27.601 -16.797,0 0,-27.601 z"
   style="fill:#d2c9de;fill-opacity:1;fill-rule:evenodd;stroke:none"
   id="path16510" /><path
   d="m 214.547,124.742 16.801,0 0,27 -16.801,0 0,-27 z"
   style="fill:#d2c9de;fill-opacity:1;fill-rule:evenodd;stroke:none"
   id="path16512" /><path
   d="m 232.027,154.711 c 0,19.57 -50.769,35.43 -113.39,35.43 -62.617,0 -113.387,-15.86 -113.387,-35.43 0,-19.57 50.77,-35.43 113.387,-35.43 62.621,0 113.39,15.86 113.39,35.43 z"
   style="fill:#d2c9de;fill-opacity:1;fill-rule:evenodd;stroke:#000000;stroke-opacity:1;stroke-width:1.2;stroke-linecap:round;stroke-linejoin:round;stroke-miterlimit:10;stroke-dasharray:none"
   id="path16514" /><path
   d="m 5.285,154.742 0,-31.199"
   style="fill:none;stroke:#000000;stroke-opacity:1;stroke-width:1.2;stroke-linecap:round;stroke-linejoin:round;stroke-miterlimit:10;stroke-dasharray:none"
   id="path16516" /><g
   id="g16520"
   transform="matrix(1,0,0,-1,0,264)"><path
     d="m 92.453,58.09 c -44.723,-25.621 59.535,-30.41 52.094,-3"
     style="fill:none;stroke:#000000;stroke-opacity:1;stroke-width:0.8;stroke-linecap:butt;stroke-linejoin:miter;stroke-miterlimit:4;stroke-dasharray:none"
     id="path16522" /></g><path
   d="m 86.797,213.242 6.586,-7.847 -10.102,1.71 c 2.371,1.047 3.785,3.532 3.516,6.137 z"
   style="fill:#000000;fill-opacity:1;fill-rule:evenodd;stroke:none"
   id="path16524" /><path
   d="m 124.547,154.742 0,99 -14.399,0 0,-99 -0.011,-0.031 c 0.14,-2.109 3.433,-3.758 7.351,-3.68 3.7,0.071 6.68,1.68 6.809,3.68 l 0.25,0.031 0,0 z"
   style="fill:#d2c9de;fill-opacity:1;fill-rule:evenodd;stroke:#000000;stroke-opacity:1;stroke-width:1.2;stroke-linecap:round;stroke-linejoin:round;stroke-miterlimit:10;stroke-dasharray:none"
   id="path16526" /><path
   d="m 124.547,154.742 0,99 -14.399,0 0,-99 -0.011,-0.031 c 0.14,-2.109 3.433,-3.758 7.351,-3.68 3.7,0.071 6.68,1.68 6.809,3.68 l 0.25,0.031 0,0 z"
   style="fill:#d2c9de;fill-opacity:1;fill-rule:evenodd;stroke:#000000;stroke-opacity:1;stroke-width:1.2;stroke-linecap:round;stroke-linejoin:round;stroke-miterlimit:10;stroke-dasharray:none"
   id="path16528" /><path
   d="m 124.547,154.742 0,99 -14.399,0 0,-99 -0.011,-0.031 c 0.14,-2.109 3.433,-3.758 7.351,-3.68 3.7,0.071 6.68,1.68 6.809,3.68 l 0.25,0.031 0,0 z"
   style="fill:#d2c9de;fill-opacity:1;fill-rule:evenodd;stroke:#000000;stroke-opacity:1;stroke-width:1.2;stroke-linecap:round;stroke-linejoin:round;stroke-miterlimit:10;stroke-dasharray:none"
   id="path16530" /><path
   d="m 124.547,154.742 0,99 -14.399,0 0,-99 -0.011,-0.031 c 0.14,-2.109 3.433,-3.758 7.351,-3.68 3.7,0.071 6.68,1.68 6.809,3.68 l 0.25,0.031 0,0 z"
   style="fill:#d2c9de;fill-opacity:1;fill-rule:evenodd;stroke:#000000;stroke-opacity:1;stroke-width:1.2;stroke-linecap:round;stroke-linejoin:round;stroke-miterlimit:10;stroke-dasharray:none"
   id="path16532" /><path
   d="m 124.547,154.742 -0.009,99.43501 -14.39048,-0.001 0,-99.43391 -0.011,-0.031 c 2.254,-5.352 13.176,-4.481 14.41,0.031 z"
   style="fill:#d2c9de;fill-opacity:1;fill-rule:evenodd;stroke:#000000;stroke-width:1.20000005;stroke-linecap:round;stroke-linejoin:round;stroke-miterlimit:10;stroke-opacity:1;stroke-dasharray:none"
   id="path16534"
   inkscape:connector-curvature="0"
   sodipodi:nodetypes="cccccc" /><path
   d="m 16.547,126.543 14.402,-7.199"
   style="fill:none;stroke:#000000;stroke-opacity:1;stroke-width:1.2;stroke-linecap:round;stroke-linejoin:round;stroke-miterlimit:10;stroke-dasharray:none"
   id="path16536" /><path
   d="m 31.547,122.941 8.402,-8.398 -11.402,1.801 3,6.597 z"
   style="fill:#000000;fill-opacity:1;fill-rule:evenodd;stroke:none"
   id="path16538" /><path
   d="M 48.949,112.141 68.75,107.344"
   style="fill:none;stroke:#000000;stroke-opacity:1;stroke-width:1.2;stroke-linecap:round;stroke-linejoin:round;stroke-miterlimit:10;stroke-dasharray:none"
   id="path16540" /><path
   d="m 68.75,111.543 10.199,-6.602 -12,-0.597 1.801,7.199 z"
   style="fill:#000000;fill-opacity:1;fill-rule:evenodd;stroke:none"
   id="path16542" /><path
   d="m 87.348,103.742 27,0"
   style="fill:none;stroke:#000000;stroke-opacity:1;stroke-width:1.2;stroke-linecap:round;stroke-linejoin:round;stroke-miterlimit:10;stroke-dasharray:none"
   id="path16544" /><path
   d="m 113.148,107.344 11.399,-3.602 -11.399,-3.601 0,7.203 z"
   style="fill:#000000;fill-opacity:1;fill-rule:evenodd;stroke:none"
   id="path16546" /><path
   d="m 134.148,103.742 25.2,3"
   style="fill:none;stroke:#000000;stroke-opacity:1;stroke-width:1.2;stroke-linecap:round;stroke-linejoin:round;stroke-miterlimit:10;stroke-dasharray:none"
   id="path16548" /><path
   d="m 158.148,110.344 11.399,-2.403 -10.797,-4.8 -0.602,7.203 z"
   style="fill:#000000;fill-opacity:1;fill-rule:evenodd;stroke:none"
   id="path16550" /><path
   d="m 177.949,110.344 25.801,6"
   style="fill:none;stroke:#000000;stroke-opacity:1;stroke-width:1.2;stroke-linecap:round;stroke-linejoin:round;stroke-miterlimit:10;stroke-dasharray:none"
   id="path16552" /><path
   d="m 201.949,119.941 12,-1.199 -10.199,-6 -1.801,7.199 z"
   style="fill:#000000;fill-opacity:1;fill-rule:evenodd;stroke:none"
   id="path16554" /><path
   d="m 105.949,175.742 -10.801,0"
   style="fill:none;stroke:#000000;stroke-opacity:1;stroke-width:1.2;stroke-linecap:round;stroke-linejoin:round;stroke-miterlimit:10;stroke-dasharray:none"
   id="path16556" /><path
   d="m 95.75,172.141 -11.402,3.601 11.402,4.199 0,-7.8 z"
   style="fill:#000000;fill-opacity:1;fill-rule:evenodd;stroke:none"
   id="path16558" /><path
   d="m 77.75,175.742 -12,-3.601"
   style="fill:none;stroke:#000000;stroke-opacity:1;stroke-width:1.2;stroke-linecap:round;stroke-linejoin:round;stroke-miterlimit:10;stroke-dasharray:none"
   id="path16560" /><path
   d="m 68.148,169.141 -12,0 9.602,6.601 2.398,-6.601 z"
   style="fill:#000000;fill-opacity:1;fill-rule:evenodd;stroke:none"
   id="path16562" /><path
   d="m 54.402,166.527 c 0,0 -1.996,-0.953 -2.605,-1.82 -0.781,-1.121 -1.434,-3.773 -1.434,-3.773"
   style="fill:none;stroke:#000000;stroke-opacity:1;stroke-width:1.2;stroke-linecap:round;stroke-linejoin:round;stroke-miterlimit:10;stroke-dasharray:none"
   id="path16564" /><path
   d="m 53.906,160.191 -6.933,-9.648 -0.16,12.133 7.093,-2.485 z"
   style="fill:#000000;fill-opacity:1;fill-rule:evenodd;stroke:none"
   id="path16566" /><path
   d="m 48.039,148.219 c 0,0 4.828,-3.215 7.586,-3.942 3.07,-0.808 9.25,-2.039 9.25,-2.039"
   style="fill:none;stroke:#000000;stroke-opacity:1;stroke-width:1.2;stroke-linecap:round;stroke-linejoin:round;stroke-miterlimit:10;stroke-dasharray:none"
   id="path16568" /><path
   d="m 65.137,146.344 11.058,-4.664 -11.644,-2.903 0.586,7.567 z"
   style="fill:#000000;fill-opacity:1;fill-rule:evenodd;stroke:none"
   id="path16570" /><path
   d="m 80.586,140.004 c 0,0 4.258,-1.625 6.484,-2.063 2.453,-0.484 7.477,-0.597 7.477,-0.597"
   style="fill:none;stroke:#000000;stroke-opacity:1;stroke-width:1.2;stroke-linecap:round;stroke-linejoin:round;stroke-miterlimit:10;stroke-dasharray:none"
   id="path16572" /><path
   d="m 94.547,140.941 10.203,-6 -12,-1.199 1.797,7.199 z"
   style="fill:#000000;fill-opacity:1;fill-rule:evenodd;stroke:none"
   id="path16574" /><path
   d="m 110.148,134.941 15,0"
   style="fill:none;stroke:#000000;stroke-opacity:1;stroke-width:1.2;stroke-linecap:round;stroke-linejoin:round;stroke-miterlimit:10;stroke-dasharray:none"
   id="path16576" /><path
   d="m 124.547,138.543 10.801,-3.602 -10.801,-3.597 0,7.199 z"
   style="fill:#000000;fill-opacity:1;fill-rule:evenodd;stroke:none"
   id="path16578" /><path
   d="m 140.148,136.141 15,1.8"
   style="fill:none;stroke:#000000;stroke-opacity:1;stroke-width:1.2;stroke-linecap:round;stroke-linejoin:round;stroke-miterlimit:10;stroke-dasharray:none"
   id="path16580" /><path
   d="m 153.949,141.543 11.399,-2.402 -10.801,-4.797 -0.598,7.199 z"
   style="fill:#000000;fill-opacity:1;fill-rule:evenodd;stroke:none"
   id="path16582" /><path
   d="m 169.547,141.543 7.203,5.398"
   style="fill:none;stroke:#000000;stroke-opacity:1;stroke-width:1.2;stroke-linecap:round;stroke-linejoin:round;stroke-miterlimit:10;stroke-dasharray:none"
   id="path16584" /><path
   d="m 174.348,149.344 10.8,3.597 -6.601,-9.597 -4.199,6 z"
   style="fill:#000000;fill-opacity:1;fill-rule:evenodd;stroke:none"
   id="path16586" /><path
   d="m 180.949,160.141 -11.402,6.601"
   style="fill:none;stroke:#000000;stroke-opacity:1;stroke-width:1.2;stroke-linecap:round;stroke-linejoin:round;stroke-miterlimit:10;stroke-dasharray:none"
   id="path16588" /><path
   d="m 168.348,163.141 -7.801,8.402 11.402,-2.402 -3.601,-6 z"
   style="fill:#000000;fill-opacity:1;fill-rule:evenodd;stroke:none"
   id="path16590" /><path
   d="m 153.949,171.543 -12.601,2.398"
   style="fill:none;stroke:#000000;stroke-opacity:1;stroke-width:1.2;stroke-linecap:round;stroke-linejoin:round;stroke-miterlimit:10;stroke-dasharray:none"
   id="path16638" /><path
   d="m 141.949,170.344 -10.801,5.398 12,1.801 -1.199,-7.199 z"
   style="fill:#000000;fill-opacity:1;fill-rule:evenodd;stroke:none"
   id="path16640" /><text
   transform="matrix(0.99996056,0.00888161,0.00888161,-0.99996056,147.04728,207.27796)"
   id="text16642"><tspan
     style="fill:#7030a0;fill-opacity:1;fill-rule:nonzero;stroke:none;font-family:Arial;font-variant:normal;font-weight:normal;font-size:12.00029532;writing-mode:lr;-inkscape-font-specification:Arial"
     x="0 8.66421322 17.97644239 25.28462224 33.26481863 41.92903185"
     y="0"
     sodipodi:role="line"
     id="tspan16644">ROTACE</tspan></text>

<path
   d="m 124.56418,254.49103 c 0,2.582 -3.42718,4.53997 -7.34518,4.53997 -3.91,0 -7.082,-2.097 -7.082,-4.679 0,-2.579 3.172,-4.68 7.082,-4.68 3.918,0 7.34518,2.24003 7.34518,4.81903 z"
   style="fill:#d2c9de;fill-opacity:1;fill-rule:evenodd;stroke:#000000;stroke-width:1.20000005;stroke-linecap:round;stroke-linejoin:round;stroke-miterlimit:10;stroke-opacity:1;stroke-dasharray:none"
   id="path16518"
   inkscape:connector-curvature="0"
   sodipodi:nodetypes="sssss" /></g></g></svg>