<?xml version="1.0" encoding="UTF-8" standalone="no"?>
<!-- Created with Inkscape (http://www.inkscape.org/) -->

<svg
   xmlns:dc="http://purl.org/dc/elements/1.1/"
   xmlns:cc="http://creativecommons.org/ns#"
   xmlns:rdf="http://www.w3.org/1999/02/22-rdf-syntax-ns#"
   xmlns:svg="http://www.w3.org/2000/svg"
   xmlns="http://www.w3.org/2000/svg"
   xmlns:sodipodi="http://sodipodi.sourceforge.net/DTD/sodipodi-0.dtd"
   xmlns:inkscape="http://www.inkscape.org/namespaces/inkscape"
   width="50mm"
   height="33mm"
   viewBox="0 0 50 33"
   version="1.1"
   id="svg1819"
   inkscape:version="0.92.3 (2405546, 2018-03-11)"
   sodipodi:docname="fyz_fig910.svg">
  <defs
     id="defs1813" />
  <sodipodi:namedview
     id="base"
     pagecolor="#ffffff"
     bordercolor="#666666"
     borderopacity="1.0"
     inkscape:pageopacity="0.0"
     inkscape:pageshadow="2"
     inkscape:zoom="5.6"
     inkscape:cx="131.60374"
     inkscape:cy="100.0907"
     inkscape:document-units="mm"
     inkscape:current-layer="layer1"
     showgrid="false"
     inkscape:window-width="3592"
     inkscape:window-height="2115"
     inkscape:window-x="235"
     inkscape:window-y="-13"
     inkscape:window-maximized="1" />
  <metadata
     id="metadata1816">
    <rdf:RDF>
      <cc:Work
         rdf:about="">
        <dc:format>image/svg+xml</dc:format>
        <dc:type
           rdf:resource="http://purl.org/dc/dcmitype/StillImage" />
        <dc:title></dc:title>
      </cc:Work>
    </rdf:RDF>
  </metadata>
  <g
     inkscape:label="Vrstva 1"
     inkscape:groupmode="layer"
     id="layer1"
     transform="translate(0,-264)">
    <path
       d="m 5.9929639,267.41492 v 24.51806 H 47.223867"
       style="fill:none;stroke:#000000;stroke-width:0.17638887;stroke-linecap:butt;stroke-linejoin:miter;stroke-miterlimit:4;stroke-dasharray:none;stroke-opacity:1"
       id="path1109"
       inkscape:connector-curvature="0" />
    <path
       d="M 5.9929639,291.93298 2.9996444,294.9263"
       style="fill:none;stroke:#000000;stroke-width:0.17638887;stroke-linecap:butt;stroke-linejoin:miter;stroke-miterlimit:4;stroke-dasharray:none;stroke-opacity:1"
       id="path1111"
       inkscape:connector-curvature="0" />
    <path
       d="m 30.333925,283.68609 c 0.292452,0 0.529167,-0.23671 0.529167,-0.52916 0,-0.2921 -0.236715,-0.52917 -0.529167,-0.52917 -0.2921,0 -0.529166,0.23707 -0.529166,0.52917 0,0.29245 0.237066,0.52916 0.529166,0.52916"
       style="fill:#ed1c24;fill-opacity:1;fill-rule:nonzero;stroke:none;stroke-width:0.35277775"
       id="path1113"
       inkscape:connector-curvature="0" />
    <path
       d="M 2.8179638,291.93298 H 42.990534"
       style="fill:none;stroke:#000000;stroke-width:0.52916664;stroke-linecap:butt;stroke-linejoin:miter;stroke-miterlimit:4;stroke-dasharray:none;stroke-opacity:1"
       id="path1115"
       inkscape:connector-curvature="0" />
    <path
       d="M 2.8179638,291.93298 H 42.990534"
       style="fill:none;stroke:#8eaec7;stroke-width:0.35277775;stroke-linecap:butt;stroke-linejoin:miter;stroke-miterlimit:4;stroke-dasharray:none;stroke-opacity:1"
       id="path1117"
       inkscape:connector-curvature="0" />
    <path
       d="m 5.9929639,269.57569 v 22.35729"
       style="fill:none;stroke:#000000;stroke-width:0.52916664;stroke-linecap:butt;stroke-linejoin:miter;stroke-miterlimit:4;stroke-dasharray:none;stroke-opacity:1"
       id="path1119"
       inkscape:connector-curvature="0" />
    <path
       d="m 5.9929639,269.57569 v 22.35729"
       style="fill:none;stroke:#8eaec7;stroke-width:0.35277775;stroke-linecap:butt;stroke-linejoin:miter;stroke-miterlimit:4;stroke-dasharray:none;stroke-opacity:1"
       id="path1121"
       inkscape:connector-curvature="0" />
    <path
       d="m 12.757478,269.57569 v 22.35729"
       style="fill:none;stroke:#000000;stroke-width:0.52916664;stroke-linecap:butt;stroke-linejoin:miter;stroke-miterlimit:4;stroke-dasharray:none;stroke-opacity:1"
       id="path1123"
       inkscape:connector-curvature="0" />
    <path
       d="m 12.757478,269.57569 v 22.35729"
       style="fill:none;stroke:#8eaec7;stroke-width:0.35277775;stroke-linecap:butt;stroke-linejoin:miter;stroke-miterlimit:4;stroke-dasharray:none;stroke-opacity:1"
       id="path1125"
       inkscape:connector-curvature="0" />
    <path
       d="m 19.521992,269.57569 v 22.35729"
       style="fill:none;stroke:#000000;stroke-width:0.52916664;stroke-linecap:butt;stroke-linejoin:miter;stroke-miterlimit:4;stroke-dasharray:none;stroke-opacity:1"
       id="path1127"
       inkscape:connector-curvature="0" />
    <path
       d="m 19.521992,269.57569 v 22.35729"
       style="fill:none;stroke:#8eaec7;stroke-width:0.35277775;stroke-linecap:butt;stroke-linejoin:miter;stroke-miterlimit:4;stroke-dasharray:none;stroke-opacity:1"
       id="path1129"
       inkscape:connector-curvature="0" />
    <path
       d="m 26.286506,269.57569 v 22.35729"
       style="fill:none;stroke:#000000;stroke-width:0.52916664;stroke-linecap:butt;stroke-linejoin:miter;stroke-miterlimit:4;stroke-dasharray:none;stroke-opacity:1"
       id="path1131"
       inkscape:connector-curvature="0" />
    <path
       d="m 26.286506,269.57569 v 22.35729"
       style="fill:none;stroke:#8eaec7;stroke-width:0.35277775;stroke-linecap:butt;stroke-linejoin:miter;stroke-miterlimit:4;stroke-dasharray:none;stroke-opacity:1"
       id="path1133"
       inkscape:connector-curvature="0" />
    <path
       d="m 33.051019,269.57569 v 22.35729"
       style="fill:none;stroke:#000000;stroke-width:0.52916664;stroke-linecap:butt;stroke-linejoin:miter;stroke-miterlimit:4;stroke-dasharray:none;stroke-opacity:1"
       id="path1135"
       inkscape:connector-curvature="0" />
    <path
       d="m 33.051019,269.57569 v 22.35729"
       style="fill:none;stroke:#8eaec7;stroke-width:0.35277775;stroke-linecap:butt;stroke-linejoin:miter;stroke-miterlimit:4;stroke-dasharray:none;stroke-opacity:1"
       id="path1137"
       inkscape:connector-curvature="0" />
    <path
       d="m 39.815534,269.57569 v 22.35729"
       style="fill:none;stroke:#000000;stroke-width:0.52916664;stroke-linecap:butt;stroke-linejoin:miter;stroke-miterlimit:4;stroke-dasharray:none;stroke-opacity:1"
       id="path1139"
       inkscape:connector-curvature="0" />
    <path
       d="m 39.815534,269.57569 v 22.35729"
       style="fill:none;stroke:#8eaec7;stroke-width:0.35277775;stroke-linecap:butt;stroke-linejoin:miter;stroke-miterlimit:4;stroke-dasharray:none;stroke-opacity:1"
       id="path1141"
       inkscape:connector-curvature="0" />
    <path
       d="M 2.8179638,285.16846 H 42.990534"
       style="fill:none;stroke:#000000;stroke-width:0.52916664;stroke-linecap:butt;stroke-linejoin:miter;stroke-miterlimit:4;stroke-dasharray:none;stroke-opacity:1"
       id="path1143"
       inkscape:connector-curvature="0" />
    <path
       d="M 2.8179638,285.16846 H 42.990534"
       style="fill:none;stroke:#8eaec7;stroke-width:0.35277775;stroke-linecap:butt;stroke-linejoin:miter;stroke-miterlimit:4;stroke-dasharray:none;stroke-opacity:1"
       id="path1145"
       inkscape:connector-curvature="0" />
    <path
       d="M 2.8179638,278.40395 H 42.990534"
       style="fill:none;stroke:#000000;stroke-width:0.52916664;stroke-linecap:butt;stroke-linejoin:miter;stroke-miterlimit:4;stroke-dasharray:none;stroke-opacity:1"
       id="path1147"
       inkscape:connector-curvature="0" />
    <path
       d="M 2.8179638,278.40395 H 42.990534"
       style="fill:none;stroke:#8eaec7;stroke-width:0.35277775;stroke-linecap:butt;stroke-linejoin:miter;stroke-miterlimit:4;stroke-dasharray:none;stroke-opacity:1"
       id="path1149"
       inkscape:connector-curvature="0" />
    <path
       d="M 2.8179638,271.63944 H 42.990534"
       style="fill:none;stroke:#000000;stroke-width:0.52916664;stroke-linecap:butt;stroke-linejoin:miter;stroke-miterlimit:4;stroke-dasharray:none;stroke-opacity:1"
       id="path1151"
       inkscape:connector-curvature="0" />
    <path
       d="M 2.8179638,271.63944 H 42.990534"
       style="fill:none;stroke:#8eaec7;stroke-width:0.35277775;stroke-linecap:butt;stroke-linejoin:miter;stroke-miterlimit:4;stroke-dasharray:none;stroke-opacity:1"
       id="path1153"
       inkscape:connector-curvature="0" />
    <path
       d="m 29.004659,271.47187 v 0.35278 m 0.657931,-0.35278 v 0.35278 m 0.657929,-0.35278 v 0.35278 m -8.084961,-0.35278 v 0.35278 m 0.657931,-0.35278 v 0.35278 m 0.657931,-0.35278 v 0.35278 m -8.084961,-0.35278 v 0.35278 m 0.65793,-0.35278 v 0.35278 m 0.657931,-0.35278 v 0.35278 m -8.0849622,-0.35278 v 0.35278 m 0.657931,-0.35278 v 0.35278 m 0.6579302,-0.35278 v 0.35278 m 25.76054,-0.35278 v 0.35278 m 0.657928,-0.35278 v 0.35278 m 0.657932,-0.35278 v 0.35278 m -8.08496,6.41173 v 0.35278 m 0.657931,-0.35278 v 0.35278 m 0.657929,-0.35278 v 0.35278 m -8.084961,-0.35278 v 0.35278 m 0.657931,-0.35278 v 0.35278 m 0.657931,-0.35278 v 0.35278 m -8.084961,-0.35278 v 0.35278 m 0.65793,-0.35278 v 0.35278 m 0.657931,-0.35278 v 0.35278 m -8.0849622,-0.35278 v 0.35278 m 0.657931,-0.35278 v 0.35278 m 0.6579302,-0.35278 v 0.35278 m 25.76054,-0.35278 v 0.35278 m 0.657928,-0.35278 v 0.35278 m 0.657932,-0.35278 v 0.35278 m -8.08496,6.41173 v 0.35278 m 0.657931,-0.35278 v 0.35278 m 0.657929,-0.35278 v 0.35278 m -8.084961,-0.35278 v 0.35278 m 0.657931,-0.35278 v 0.35278 m 0.657931,-0.35278 v 0.35278 m -8.084961,-0.35278 v 0.35278 m 0.65793,-0.35278 v 0.35278 m 0.657931,-0.35278 v 0.35278 m -8.0849622,-0.35278 v 0.35278 m 0.657931,-0.35278 v 0.35278 m 0.6579302,-0.35278 v 0.35278 m 25.76054,-0.35278 v 0.35278 m 0.657928,-0.35278 v 0.35278 m 0.657932,-0.35278 v 0.35278 m -8.08496,6.41174 v 0.35278 m 0.657931,-0.35278 v 0.35278 m 0.657929,-0.35278 v 0.35278 m -8.084961,-0.35278 v 0.35278 m 0.657931,-0.35278 v 0.35278 m 0.657931,-0.35278 v 0.35278 m -8.084961,-0.35278 v 0.35278 m 0.65793,-0.35278 v 0.35278 m 0.657931,-0.35278 v 0.35278 m -8.0849622,-0.35278 v 0.35278 m 0.657931,-0.35278 v 0.35278 m 0.6579302,-0.35278 v 0.35278 m 25.76054,-0.35278 v 0.35278 m 0.657928,-0.35278 v 0.35278 m 0.657932,-0.35278 v 0.35278 M 6.1693528,273.04843 H 5.8165749 m 0.3527779,0.65793 H 5.8165749 m 0.3527779,0.65793 H 5.8165749 m 0.3527779,0.65793 H 5.8165749"
       style="fill:none;stroke:#000000;stroke-width:0.05291667;stroke-linecap:butt;stroke-linejoin:miter;stroke-miterlimit:4;stroke-dasharray:none;stroke-opacity:1"
       id="path1155"
       inkscape:connector-curvature="0" />
    <path
       d="M 6.1693528,275.68015 H 5.8165749 m 0.3527779,0.65793 H 5.8165749 m 0.3527779,0.65793 H 5.8165749 m 7.1172921,-3.94758 h -0.352778 m 0.352778,0.65793 h -0.352778 m 0.352778,0.65793 h -0.352778 m 0.352778,0.65793 h -0.352778 m 0.352778,0.65793 h -0.352778 m 0.352778,0.65793 h -0.352778 m 0.352778,0.65793 h -0.352778 m 7.117292,-3.94758 h -0.352778 m 0.352778,0.65793 h -0.352778 m 0.352778,0.65793 h -0.352778 m 0.352778,0.65793 h -0.352778 m 0.352778,0.65793 h -0.352778 m 0.352778,0.65793 h -0.352778 m 0.352778,0.65793 h -0.352778 m 7.117291,-3.94758 h -0.352777 m 0.352777,0.65793 h -0.352777 m 0.352777,0.65793 h -0.352777 m 0.352777,0.65793 h -0.352777 m 0.352777,0.65793 h -0.352777 m 0.352777,0.65793 h -0.352777 m 0.352777,0.65793 h -0.352777 m 7.117292,-3.94758 h -0.352777 m 0.352777,0.65793 h -0.352777 m 0.352777,0.65793 h -0.352777 m 0.352777,0.65793 h -0.352777 m 0.352777,0.65793 h -0.352777 m 0.352777,0.65793 h -0.352777 m 0.352777,0.65793 h -0.352777 m 7.117289,-3.94758 h -0.352777 m 0.352777,0.65793 h -0.352777 m 0.352777,0.65793 h -0.352777 m 0.352777,0.65793 h -0.352777 m 0.352777,0.65793 h -0.352777 m 0.352777,0.65793 h -0.352777 m 0.352777,0.65793 H 39.639144 M 6.1693528,279.81294 H 5.8165749 m 0.3527779,0.65794 H 5.8165749 m 0.3527779,0.65793 H 5.8165749 m 0.3527779,0.65793 H 5.8165749 m 0.3527779,0.65793 H 5.8165749 m 0.3527779,0.65793 H 5.8165749 m 0.3527779,0.65758 H 5.8165749 m 7.1172921,-3.94724 h -0.352778 m 0.352778,0.65794 h -0.352778 m 0.352778,0.65793 h -0.352778 m 0.352778,0.65793 h -0.352778 m 0.352778,0.65793 h -0.352778 m 0.352778,0.65793 h -0.352778 m 0.352778,0.65758 h -0.352778 m 7.117292,-3.94724 h -0.352778 m 0.352778,0.65794 h -0.352778 m 0.352778,0.65793 h -0.352778 m 0.352778,0.65793 h -0.352778 m 0.352778,0.65793 h -0.352778 m 0.352778,0.65793 h -0.352778 m 0.352778,0.65758 h -0.352778 m 7.117291,-3.94724 h -0.352777 m 0.352777,0.65794 h -0.352777 m 0.352777,0.65793 h -0.352777 m 0.352777,0.65793 h -0.352777 m 0.352777,0.65793 h -0.352777"
       style="fill:none;stroke:#000000;stroke-width:0.05291667;stroke-linecap:butt;stroke-linejoin:miter;stroke-miterlimit:4;stroke-dasharray:none;stroke-opacity:1"
       id="path1157"
       inkscape:connector-curvature="0" />
    <path
       d="m 26.462894,283.1026 h -0.352777 m 0.352777,0.65758 h -0.352777 m 7.117292,-3.94724 h -0.352777 m 0.352777,0.65794 h -0.352777 m 0.352777,0.65793 h -0.352777 m 0.352777,0.65793 h -0.352777 m 0.352777,0.65793 h -0.352777 m 0.352777,0.65793 h -0.352777 m 0.352777,0.65758 h -0.352777 m 7.117289,-3.94724 h -0.352777 m 0.352777,0.65794 h -0.352777 m 0.352777,0.65793 h -0.352777 m 0.352777,0.65793 h -0.352777 m 0.352777,0.65793 h -0.352777 m 0.352777,0.65793 h -0.352777 m 0.352777,0.65758 H 39.639144 M 6.1693528,286.57746 H 5.8165749 m 0.3527779,0.65793 H 5.8165749 m 0.3527779,0.65793 H 5.8165749 m 0.3527779,0.65793 H 5.8165749 m 0.3527779,0.65793 H 5.8165749 m 0.3527779,0.65793 H 5.8165749 m 0.3527779,0.65793 H 5.8165749 m 7.1172921,-3.94758 h -0.352778 m 0.352778,0.65793 h -0.352778 m 0.352778,0.65793 h -0.352778 m 0.352778,0.65793 h -0.352778 m 0.352778,0.65793 h -0.352778 m 0.352778,0.65793 h -0.352778 m 0.352778,0.65793 h -0.352778 m 7.117292,-3.94758 h -0.352778 m 0.352778,0.65793 h -0.352778 m 0.352778,0.65793 h -0.352778 m 0.352778,0.65793 h -0.352778 m 0.352778,0.65793 h -0.352778 m 0.352778,0.65793 h -0.352778 m 0.352778,0.65793 h -0.352778 m 7.117291,-3.94758 h -0.352777 m 0.352777,0.65793 h -0.352777 m 0.352777,0.65793 h -0.352777 m 0.352777,0.65793 h -0.352777 m 0.352777,0.65793 h -0.352777 m 0.352777,0.65793 h -0.352777 m 0.352777,0.65793 h -0.352777 m 7.117292,-3.94758 h -0.352777 m 0.352777,0.65793 h -0.352777 m 0.352777,0.65793 h -0.352777 m 0.352777,0.65793 h -0.352777 m 0.352777,0.65793 h -0.352777 m 0.352777,0.65793 h -0.352777 m 0.352777,0.65793 h -0.352777 m 7.117289,-3.94758 h -0.352777 m 0.352777,0.65793 h -0.352777 m 0.352777,0.65793 h -0.352777 m 0.352777,0.65793 h -0.352777 m 0.352777,0.65793 h -0.352777 m 0.352777,0.65793 h -0.352777 m 0.352777,0.65793 h -0.352777"
       style="fill:none;stroke:#000000;stroke-width:0.05291667;stroke-linecap:butt;stroke-linejoin:miter;stroke-miterlimit:4;stroke-dasharray:none;stroke-opacity:1"
       id="path1159"
       inkscape:connector-curvature="0" />
    <path
       d="m 10.718422,272.6699 h 4.086931 v -2.04364 h -4.086931 z"
       style="fill:#ffffff;fill-opacity:1;fill-rule:nonzero;stroke:none;stroke-width:0.35277775"
       id="path1161"
       inkscape:connector-curvature="0" />
    <path
       d="m 10.718422,272.6699 h 4.086931 v -2.04364 h -4.086931 z"
       style="fill:none;stroke:#000000;stroke-width:0.35277775;stroke-linecap:butt;stroke-linejoin:miter;stroke-miterlimit:4;stroke-dasharray:none;stroke-opacity:1"
       id="path1163"
       inkscape:connector-curvature="0" />
    <path
       d="m 10.718422,272.6699 h 4.086931 v -2.04364 h -4.086931 z"
       style="fill:none;stroke:#8eaec7;stroke-width:0.14111111;stroke-linecap:butt;stroke-linejoin:miter;stroke-miterlimit:4;stroke-dasharray:none;stroke-opacity:1"
       id="path1167"
       inkscape:connector-curvature="0" />
    <path
       d="m 13.349439,271.64826 h -0.351366 m 1.270352,-0.62054 h -0.284691 m 0.455436,1.07068 v -0.28469 m -0.620889,0.28469 v -0.28469 m -0.475897,-0.16545 h -0.284339 m -0.165453,0.45014 v -0.28469 m -0.475897,0.42933 H 12.132003 M 11.96655,272.0984 v -0.28469 m 0.620537,-0.31045 v -0.28433 m -1.096434,-0.19121 h -0.284692 m 0.284692,1.21532 h -0.284692 m 0.455437,-0.14464 v -0.28469 m 0,-0.31045 v -0.28433 m 2.607027,0.42933 h -0.284339 m 0.284339,0.59478 h -0.284339 m -0.641702,-1.21532 h -0.284692 m 0.455436,1.07068 v -0.28469 m 0,-0.31045 v -0.28433 m -1.096786,0.42933 h -0.284339 m -1.091495,0.45014 v -0.28469"
       style="fill:none;stroke:#ed1c24;stroke-width:0.17638887;stroke-linecap:round;stroke-linejoin:round;stroke-miterlimit:4;stroke-dasharray:none;stroke-opacity:1"
       id="path1169"
       inkscape:connector-curvature="0" />
    <path
       d="m 10.718422,279.41678 h 4.086931 v -2.04365 h -4.086931 z"
       style="fill:#ffffff;fill-opacity:1;fill-rule:nonzero;stroke:none;stroke-width:0.35277775"
       id="path1171"
       inkscape:connector-curvature="0" />
    <path
       d="m 10.718422,279.41678 h 4.086931 v -2.04365 h -4.086931 z"
       style="fill:none;stroke:#000000;stroke-width:0.35277775;stroke-linecap:butt;stroke-linejoin:miter;stroke-miterlimit:4;stroke-dasharray:none;stroke-opacity:1"
       id="path1173"
       inkscape:connector-curvature="0" />
    <path
       d="m 10.718422,279.41678 h 4.086931 v -2.04365 h -4.086931 z"
       style="fill:none;stroke:#8eaec7;stroke-width:0.14111111;stroke-linecap:butt;stroke-linejoin:miter;stroke-miterlimit:4;stroke-dasharray:none;stroke-opacity:1"
       id="path1177"
       inkscape:connector-curvature="0" />
    <path
       d="m 13.349439,278.39513 h -0.351366 m 1.270352,-0.62053 h -0.284691 m 0.455436,1.07068 v -0.2847 m 0,-0.31044 v -0.28434 m -0.620889,0.28434 v -0.28434 m -0.475897,0.42933 h -0.284339 m 0.284339,0.59478 h -0.284339 m -0.64135,0 h -0.284692 m 0.455084,-0.14463 v -0.2847 m 0,-0.31044 v -0.28434 m -1.096434,-0.1912 h -0.284692 m 0.455437,1.07068 v -0.2847 m 2.607027,-0.16545 h -0.284339 m -0.641702,-0.62053 h -0.284692 m 0.455436,1.07068 v -0.2847 m -1.546578,-0.31044 v -0.28434 m -0.926042,0.87948 v -0.2847 m 0.449792,-0.16545 h -0.284339 m -0.165453,-0.14499 v -0.28434"
       style="fill:none;stroke:#ed1c24;stroke-width:0.17638887;stroke-linecap:round;stroke-linejoin:round;stroke-miterlimit:4;stroke-dasharray:none;stroke-opacity:1"
       id="path1179"
       inkscape:connector-curvature="0" />
    <path
       d="m 10.718422,286.18588 h 4.086931 v -2.04329 h -4.086931 z"
       style="fill:#ffffff;fill-opacity:1;fill-rule:nonzero;stroke:none;stroke-width:0.35277775"
       id="path1181"
       inkscape:connector-curvature="0" />
    <path
       d="m 10.718422,286.18588 h 4.086931 v -2.04329 h -4.086931 z"
       style="fill:none;stroke:#000000;stroke-width:0.35277775;stroke-linecap:butt;stroke-linejoin:miter;stroke-miterlimit:4;stroke-dasharray:none;stroke-opacity:1"
       id="path1183"
       inkscape:connector-curvature="0" />
    <path
       d="m 10.718422,286.18588 h 4.086931 v -2.04329 h -4.086931 z"
       style="fill:none;stroke:#8eaec7;stroke-width:0.14111111;stroke-linecap:butt;stroke-linejoin:miter;stroke-miterlimit:4;stroke-dasharray:none;stroke-opacity:1"
       id="path1187"
       inkscape:connector-curvature="0" />
    <path
       d="m 14.43917,285.61402 v -0.28434 m 0,-0.31044 v -0.28469 m -1.096786,1.02446 h -0.284339 m -0.64135,0 h -0.284692 m 0.455084,-0.14499 v -0.28434 m 0,-0.31044 v -0.28469 m -1.096434,-0.19121 h -0.284692 m 0.455437,1.07068 v -0.28434 m 2.607027,-0.16545 h -0.284339 m -0.641702,-0.62089 h -0.284692 m 0.455436,1.07068 v -0.28434 m 0,-0.31044 v -0.28469 m -1.096786,0.42968 h -0.284339 m -0.165453,-0.14499 v -0.28469 m -0.47625,0.42968 h -0.284339 m -0.165453,-0.14499 v -0.28469"
       style="fill:none;stroke:#ed1c24;stroke-width:0.17638887;stroke-linecap:round;stroke-linejoin:round;stroke-miterlimit:4;stroke-dasharray:none;stroke-opacity:1"
       id="path1189"
       inkscape:connector-curvature="0" />
    <path
       d="m 10.718422,292.95462 h 4.086931 v -2.04329 h -4.086931 z"
       style="fill:#ffffff;fill-opacity:1;fill-rule:nonzero;stroke:none;stroke-width:0.35277775"
       id="path1191"
       inkscape:connector-curvature="0" />
    <path
       d="m 10.718422,292.95462 h 4.086931 v -2.04329 h -4.086931 z"
       style="fill:none;stroke:#000000;stroke-width:0.35277775;stroke-linecap:butt;stroke-linejoin:miter;stroke-miterlimit:4;stroke-dasharray:none;stroke-opacity:1"
       id="path1193"
       inkscape:connector-curvature="0" />
    <path
       d="m 10.718422,292.95462 h 4.086931 v -2.04329 h -4.086931 z"
       style="fill:none;stroke:#8eaec7;stroke-width:0.14111111;stroke-linecap:butt;stroke-linejoin:miter;stroke-miterlimit:4;stroke-dasharray:none;stroke-opacity:1"
       id="path1197"
       inkscape:connector-curvature="0" />
    <path
       d="M 13.349439,291.93298 H 12.998073"
       style="fill:none;stroke:#ed1c24;stroke-width:0.17638887;stroke-linecap:round;stroke-linejoin:round;stroke-miterlimit:4;stroke-dasharray:none;stroke-opacity:1"
       id="path1199"
       inkscape:connector-curvature="0" />
    <path
       d="m 14.268425,291.31244 h -0.284691 m 0.455436,1.07068 v -0.28469 m -0.620889,-0.31044 v -0.28434 m -0.475897,0.42933 h -0.284339 m 0.284339,0.59478 h -0.284339 m -0.470958,-0.14464 v -0.28469 m -0.620537,0.28469 v -0.28469 m 0.620537,-0.31044 v -0.28434 m -1.096434,-0.19121 h -0.284692 m 0.284692,1.21532 h -0.284692 m 0.455437,-0.14464 v -0.28469 m 0,-0.31044 v -0.28434 m 2.607027,0.42933 h -0.284339 m -0.641702,-0.62054 h -0.284692 m 0.455436,1.07068 v -0.28469 m -1.546578,-0.31044 v -0.28434 m -0.926042,0.87947 v -0.28469"
       style="fill:none;stroke:#ed1c24;stroke-width:0.17638887;stroke-linecap:round;stroke-linejoin:round;stroke-miterlimit:4;stroke-dasharray:none;stroke-opacity:1"
       id="path1201"
       inkscape:connector-curvature="0" />
    <path
       d="m 6.1234915,278.84528 v -0.2847"
       style="fill:none;stroke:#df2a86;stroke-width:0.10583334;stroke-linecap:round;stroke-linejoin:round;stroke-miterlimit:4;stroke-dasharray:none;stroke-opacity:1"
       id="path1203"
       inkscape:connector-curvature="0" />
    <path
       d="m 3.9496749,272.6699 h 4.0869309 v -2.04364 H 3.9496749 Z"
       style="fill:#ffffff;fill-opacity:1;fill-rule:nonzero;stroke:none;stroke-width:0.35277775"
       id="path1205"
       inkscape:connector-curvature="0" />
    <path
       d="m 3.9496749,272.6699 h 4.0869309 v -2.04364 H 3.9496749 Z"
       style="fill:none;stroke:#000000;stroke-width:0.35277775;stroke-linecap:butt;stroke-linejoin:miter;stroke-miterlimit:4;stroke-dasharray:none;stroke-opacity:1"
       id="path1207"
       inkscape:connector-curvature="0" />
    <path
       d="m 3.9496749,272.6699 h 4.0869309 v -2.04364 H 3.9496749 Z"
       style="fill:none;stroke:#8eaec7;stroke-width:0.14111111;stroke-linecap:butt;stroke-linejoin:miter;stroke-miterlimit:4;stroke-dasharray:none;stroke-opacity:1"
       id="path1211"
       inkscape:connector-curvature="0" />
    <path
       d="m 6.5803388,271.64826 h -0.351014 m 1.440744,0.45014 v -0.28469 m 0,-0.31045 v -0.28433 m -0.620536,0.28433 v -0.28433 m -0.475897,0.42933 h -0.284692 m 0.284692,0.59478 h -0.284692 m -0.6413496,0 H 5.3632555 M 5.1974499,272.0984 v -0.28469 m 0.620889,-0.31045 v -0.28433 M 4.7215526,271.02772 H 4.4372139 m 0.2843387,0.62018 H 4.4372139 m 0.4550833,0.4505 v -0.28469 m 2.6073806,-0.78281 h -0.284692 m -0.64135,-0.003 h -0.284692 m 0.455084,1.07067 v -0.28469 m 0,-0.31045 v -0.28433 m -1.5465779,0.28433 v -0.28433 m 0.4501443,0.42615 H 5.3629026 m -1.0914944,0.45332 v -0.28469 m 0,-0.31045 v -0.28433 m 3.2282696,1.02482 h -0.284692 m -1.0914943,-0.14535 v -0.28469"
       style="fill:none;stroke:#ed1c24;stroke-width:0.17638887;stroke-linecap:round;stroke-linejoin:round;stroke-miterlimit:4;stroke-dasharray:none;stroke-opacity:1"
       id="path1213"
       inkscape:connector-curvature="0" />
    <path
       d="m 3.9496749,292.95462 h 4.0869309 v -2.04329 H 3.9496749 Z"
       style="fill:#ffffff;fill-opacity:1;fill-rule:nonzero;stroke:none;stroke-width:0.35277775"
       id="path1215"
       inkscape:connector-curvature="0" />
    <path
       d="m 3.9496749,292.95462 h 4.0869309 v -2.04329 H 3.9496749 Z"
       style="fill:none;stroke:#000000;stroke-width:0.35277775;stroke-linecap:butt;stroke-linejoin:miter;stroke-miterlimit:4;stroke-dasharray:none;stroke-opacity:1"
       id="path1217"
       inkscape:connector-curvature="0" />
    <path
       d="m 3.9496749,292.95462 h 4.0869309 v -2.04329 H 3.9496749 Z"
       style="fill:none;stroke:#8eaec7;stroke-width:0.14111111;stroke-linecap:butt;stroke-linejoin:miter;stroke-miterlimit:4;stroke-dasharray:none;stroke-opacity:1"
       id="path1221"
       inkscape:connector-curvature="0" />
    <path
       d="m 6.5803388,291.93298 h -0.351014 m 1.440744,0.45014 v -0.28469 m -0.620536,0.28469 v -0.28469 m 0,-0.31044 v -0.28434 m -0.9260413,0.87947 v -0.28469 m 0,-0.31044 v -0.28434 m -0.4758973,1.02411 H 5.3632555 m -0.1658056,-0.14464 v -0.28469 m 0.620889,-0.31044 v -0.28434 M 4.7215526,291.31244 H 4.4372139 m 0.2843387,1.21532 H 4.4372139 m 0.4550833,-0.73977 v -0.28434 m 2.6073806,1.02411 h -0.284692 m -0.64135,-1.21532 h -0.284692 m 0.455084,1.07068 v -0.28469 m 0,-0.31044 v -0.28434 m -1.0964336,0.42933 H 5.3629026 m -0.1654527,-0.14499 v -0.28434 m -0.4758973,0.42933 H 4.4368609 m -0.1654527,-0.14499 v -0.28434"
       style="fill:none;stroke:#ed1c24;stroke-width:0.17638887;stroke-linecap:round;stroke-linejoin:round;stroke-miterlimit:4;stroke-dasharray:none;stroke-opacity:1"
       id="path1223"
       inkscape:connector-curvature="0" />
    <path
       d="m 3.9496749,286.18588 h 4.0869309 v -2.04329 H 3.9496749 Z"
       style="fill:#ffffff;fill-opacity:1;fill-rule:nonzero;stroke:none;stroke-width:0.35277775"
       id="path1225"
       inkscape:connector-curvature="0" />
    <path
       d="m 3.9496749,286.18588 h 4.0869309 v -2.04329 H 3.9496749 Z"
       style="fill:none;stroke:#000000;stroke-width:0.35277775;stroke-linecap:butt;stroke-linejoin:miter;stroke-miterlimit:4;stroke-dasharray:none;stroke-opacity:1"
       id="path1227"
       inkscape:connector-curvature="0" />
    <path
       d="m 3.9496749,286.18588 h 4.0869309 v -2.04329 H 3.9496749 Z"
       style="fill:none;stroke:#8eaec7;stroke-width:0.14111111;stroke-linecap:butt;stroke-linejoin:miter;stroke-miterlimit:4;stroke-dasharray:none;stroke-opacity:1"
       id="path1231"
       inkscape:connector-curvature="0" />
    <path
       d="m 6.5803388,285.16423 h -0.351014 m 1.270353,-0.62089 h -0.284692 m 0.455083,1.07068 v -0.28434 m 0,-0.31044 v -0.28469 m -1.096433,0.42968 h -0.284692 m 0.284692,0.59478 h -0.284692 m -0.1654523,-0.14499 v -0.28434 m -0.3051526,0.28434 v -0.28434 m 0,-0.31044 v -0.28469 m -1.0967863,1.02446 H 4.4372139 m 3.0624639,-0.59478 h -0.284692 m -0.470958,-0.14499 v -0.28469 m -1.0964336,0.42968 H 5.3629026 m -0.1654527,-0.14499 v -0.28469 m 0.4501443,-0.19121 H 5.3629026 m -1.0914944,1.07068 v -0.28434 m 0.4501444,-0.16545 H 4.4368609 m -0.1654527,-0.14499 v -0.28469"
       style="fill:none;stroke:#ed1c24;stroke-width:0.17638887;stroke-linecap:round;stroke-linejoin:round;stroke-miterlimit:4;stroke-dasharray:none;stroke-opacity:1"
       id="path1233"
       inkscape:connector-curvature="0" />
    <path
       d="m 3.9496749,279.41678 h 4.0869309 v -2.04365 H 3.9496749 Z"
       style="fill:#ffffff;fill-opacity:1;fill-rule:nonzero;stroke:none;stroke-width:0.35277775"
       id="path1235"
       inkscape:connector-curvature="0" />
    <path
       d="m 3.9496749,279.41678 h 4.0869309 v -2.04365 H 3.9496749 Z"
       style="fill:none;stroke:#000000;stroke-width:0.35277775;stroke-linecap:butt;stroke-linejoin:miter;stroke-miterlimit:4;stroke-dasharray:none;stroke-opacity:1"
       id="path1237"
       inkscape:connector-curvature="0" />
    <path
       d="m 3.9496749,279.41678 h 4.0869309 v -2.04365 H 3.9496749 Z"
       style="fill:none;stroke:#8eaec7;stroke-width:0.14111111;stroke-linecap:butt;stroke-linejoin:miter;stroke-miterlimit:4;stroke-dasharray:none;stroke-opacity:1"
       id="path1241"
       inkscape:connector-curvature="0" />
    <path
       d="m 6.5803388,278.39513 h -0.351014 m 1.440744,0.45015 v -0.2847 m 0,-0.31044 v -0.28434 m -0.620536,0.28434 v -0.28434 m -0.475897,0.42933 h -0.284692 m 0.284692,0.59478 h -0.284692 m -0.4706049,-0.14463 v -0.2847 m 0,-0.31044 v -0.28434 m -1.0967863,1.02411 H 4.4372139 m 0.4550833,-0.14463 v -0.2847 m 0,-0.31044 v -0.28434 m 2.6073806,0.42933 h -0.284692 m 0.284692,0.59478 h -0.284692 m -0.64135,-1.21531 h -0.284692 m 0.455084,0.47554 v -0.28434 m -1.0964336,0.42933 H 5.3629026 M 5.6475942,277.7746 H 5.3629026 m -1.0914944,1.07068 v -0.2847 m 0,-0.31044 v -0.28434"
       style="fill:none;stroke:#ed1c24;stroke-width:0.17638887;stroke-linecap:round;stroke-linejoin:round;stroke-miterlimit:4;stroke-dasharray:none;stroke-opacity:1"
       id="path1243"
       inkscape:connector-curvature="0" />
    <path
       d="M 12.416695,291.93298 H 12.132003"
       style="fill:none;stroke:#df2a86;stroke-width:0.10583334;stroke-linecap:round;stroke-linejoin:round;stroke-miterlimit:4;stroke-dasharray:none;stroke-opacity:1"
       id="path1245"
       inkscape:connector-curvature="0" />
    <path
       d="m 37.771892,272.6699 h 4.086929 v -2.04364 h -4.086929 z"
       style="fill:#ffffff;fill-opacity:1;fill-rule:nonzero;stroke:none;stroke-width:0.35277775"
       id="path1247"
       inkscape:connector-curvature="0" />
    <path
       d="m 37.771892,272.6699 h 4.086929 v -2.04364 h -4.086929 z"
       style="fill:none;stroke:#000000;stroke-width:0.35277775;stroke-linecap:butt;stroke-linejoin:miter;stroke-miterlimit:4;stroke-dasharray:none;stroke-opacity:1"
       id="path1249"
       inkscape:connector-curvature="0" />
    <path
       d="m 37.771892,272.6699 h 4.086929 v -2.04364 h -4.086929 z"
       style="fill:none;stroke:#8eaec7;stroke-width:0.14111111;stroke-linecap:butt;stroke-linejoin:miter;stroke-miterlimit:4;stroke-dasharray:none;stroke-opacity:1"
       id="path1253"
       inkscape:connector-curvature="0" />
    <path
       d="m 40.402909,271.64826 h -0.351015 m 1.27,-0.62054 h -0.28434 m 0.455083,1.07068 v -0.28469 m -0.620535,0.28469 v -0.28469 m -0.475898,-0.16545 h -0.284692 m -0.165451,0.45014 v -0.28469 m -0.475899,0.42933 h -0.284337 m -0.165806,-0.14464 v -0.28469 m 0.62089,-0.31045 v -0.28433 m -1.096788,-0.19121 h -0.284337 m 0.284337,1.21532 h -0.284337 m 0.455083,-0.14464 v -0.28469 m 0,-0.31045 v -0.28433 m 2.607379,0.42933 h -0.284692 m 0.284692,0.59478 h -0.284692 m -0.641702,-1.21532 h -0.28434 m 0.455084,1.07068 v -0.28469 m 0,-0.31045 v -0.28433 m -1.096434,0.42933 h -0.284691 m -1.091494,0.45014 v -0.28469"
       style="fill:none;stroke:#ed1c24;stroke-width:0.17638887;stroke-linecap:round;stroke-linejoin:round;stroke-miterlimit:4;stroke-dasharray:none;stroke-opacity:1"
       id="path1255"
       inkscape:connector-curvature="0" />
    <path
       d="m 37.771892,279.41678 h 4.086929 v -2.04365 h -4.086929 z"
       style="fill:#ffffff;fill-opacity:1;fill-rule:nonzero;stroke:none;stroke-width:0.35277775"
       id="path1257"
       inkscape:connector-curvature="0" />
    <path
       d="m 37.771892,279.41678 h 4.086929 v -2.04365 h -4.086929 z"
       style="fill:none;stroke:#000000;stroke-width:0.35277775;stroke-linecap:butt;stroke-linejoin:miter;stroke-miterlimit:4;stroke-dasharray:none;stroke-opacity:1"
       id="path1259"
       inkscape:connector-curvature="0" />
    <path
       d="m 37.771892,279.41678 h 4.086929 v -2.04365 h -4.086929 z"
       style="fill:none;stroke:#8eaec7;stroke-width:0.14111111;stroke-linecap:butt;stroke-linejoin:miter;stroke-miterlimit:4;stroke-dasharray:none;stroke-opacity:1"
       id="path1263"
       inkscape:connector-curvature="0" />
    <path
       d="m 40.402909,278.39513 h -0.351015 m 1.27,-0.62053 h -0.28434 m 0.455083,1.07068 v -0.2847 m 0,-0.31044 v -0.28434 m -0.620535,0.28434 v -0.28434 m -0.475898,0.42933 h -0.284692 m 0.284692,0.59478 h -0.284692 m -0.64135,0 h -0.284337 m 0.455084,-0.14463 v -0.2847 m 0,-0.31044 v -0.28434 m -1.096788,-0.1912 h -0.284337 m 0.455083,1.07068 v -0.2847 m 2.607379,-0.16545 h -0.284692 m -0.641702,-0.62053 h -0.28434 m 0.455084,1.07068 v -0.2847 m -1.546577,-0.31044 v -0.28434 m -0.926042,0.87948 v -0.2847 m 0.450144,-0.16545 h -0.284692 m -0.165452,-0.14499 v -0.28434"
       style="fill:none;stroke:#ed1c24;stroke-width:0.17638887;stroke-linecap:round;stroke-linejoin:round;stroke-miterlimit:4;stroke-dasharray:none;stroke-opacity:1"
       id="path1265"
       inkscape:connector-curvature="0" />
    <path
       d="m 37.771892,286.18588 h 4.086929 v -2.04329 h -4.086929 z"
       style="fill:#ffffff;fill-opacity:1;fill-rule:nonzero;stroke:none;stroke-width:0.35277775"
       id="path1267"
       inkscape:connector-curvature="0" />
    <path
       d="m 37.771892,286.18588 h 4.086929 v -2.04329 h -4.086929 z"
       style="fill:none;stroke:#000000;stroke-width:0.35277775;stroke-linecap:butt;stroke-linejoin:miter;stroke-miterlimit:4;stroke-dasharray:none;stroke-opacity:1"
       id="path1269"
       inkscape:connector-curvature="0" />
    <path
       d="m 37.771892,286.18588 h 4.086929 v -2.04329 h -4.086929 z"
       style="fill:none;stroke:#8eaec7;stroke-width:0.14111111;stroke-linecap:butt;stroke-linejoin:miter;stroke-miterlimit:4;stroke-dasharray:none;stroke-opacity:1"
       id="path1273"
       inkscape:connector-curvature="0" />
    <path
       d="m 41.492637,285.61402 v -0.28434 m 0,-0.31044 v -0.28469 m -1.096433,1.02446 h -0.284692 m -0.64135,0 h -0.284337 m 0.455084,-0.14499 v -0.28434 m 0,-0.31044 v -0.28469 m -1.096788,-0.19121 h -0.284337 m 0.455083,1.07068 v -0.28434 m 2.607379,-0.16545 h -0.284692 m -0.641702,-0.62089 h -0.28434 m 0.455084,1.07068 v -0.28434 m 0,-0.31044 v -0.28469 m -1.096434,0.42968 h -0.284691 m -0.165452,-0.14499 v -0.28469 m -0.475898,0.42968 h -0.284692 m -0.165452,-0.14499 v -0.28469"
       style="fill:none;stroke:#ed1c24;stroke-width:0.17638887;stroke-linecap:round;stroke-linejoin:round;stroke-miterlimit:4;stroke-dasharray:none;stroke-opacity:1"
       id="path1275"
       inkscape:connector-curvature="0" />
    <path
       d="m 37.771892,292.95462 h 4.086929 v -2.04329 h -4.086929 z"
       style="fill:#ffffff;fill-opacity:1;fill-rule:nonzero;stroke:none;stroke-width:0.35277775"
       id="path1277"
       inkscape:connector-curvature="0" />
    <path
       d="m 37.771892,292.95462 h 4.086929 v -2.04329 h -4.086929 z"
       style="fill:none;stroke:#000000;stroke-width:0.35277775;stroke-linecap:butt;stroke-linejoin:miter;stroke-miterlimit:4;stroke-dasharray:none;stroke-opacity:1"
       id="path1279"
       inkscape:connector-curvature="0" />
    <path
       d="m 37.771892,292.95462 h 4.086929 v -2.04329 h -4.086929 z"
       style="fill:none;stroke:#8eaec7;stroke-width:0.14111111;stroke-linecap:butt;stroke-linejoin:miter;stroke-miterlimit:4;stroke-dasharray:none;stroke-opacity:1"
       id="path1283"
       inkscape:connector-curvature="0" />
    <path
       d="M 40.402909,291.93298 H 40.051894"
       style="fill:none;stroke:#ed1c24;stroke-width:0.17638887;stroke-linecap:round;stroke-linejoin:round;stroke-miterlimit:4;stroke-dasharray:none;stroke-opacity:1"
       id="path1285"
       inkscape:connector-curvature="0" />
    <path
       d="m 41.321894,291.31244 h -0.28434 m 0.455083,1.07068 v -0.28469 m -0.620535,-0.31044 v -0.28434 m -0.475898,0.42933 h -0.284692 m 0.284692,0.59478 h -0.284692 m -0.470603,-0.14464 v -0.28469 m -0.62089,0.28469 v -0.28469 m 0.62089,-0.31044 v -0.28434 m -1.096788,-0.19121 h -0.284337 m 0.284337,1.21532 h -0.284337 m 0.455083,-0.14464 v -0.28469 m 0,-0.31044 v -0.28434 m 2.607379,0.42933 h -0.284692 m -0.641702,-0.62054 h -0.28434 m 0.455084,1.07068 v -0.28469 m -1.546577,-0.31044 v -0.28434 m -0.926042,0.87947 v -0.28469"
       style="fill:none;stroke:#ed1c24;stroke-width:0.17638887;stroke-linecap:round;stroke-linejoin:round;stroke-miterlimit:4;stroke-dasharray:none;stroke-opacity:1"
       id="path1287"
       inkscape:connector-curvature="0" />
    <path
       d="M 31.025369,272.6699 H 35.1123 v -2.04364 h -4.086931 z"
       style="fill:#ffffff;fill-opacity:1;fill-rule:nonzero;stroke:none;stroke-width:0.35277775"
       id="path1289"
       inkscape:connector-curvature="0" />
    <path
       d="M 31.025369,272.6699 H 35.1123 v -2.04364 h -4.086931 z"
       style="fill:none;stroke:#000000;stroke-width:0.35277775;stroke-linecap:butt;stroke-linejoin:miter;stroke-miterlimit:4;stroke-dasharray:none;stroke-opacity:1"
       id="path1291"
       inkscape:connector-curvature="0" />
    <path
       d="M 31.025369,272.6699 H 35.1123 v -2.04364 h -4.086931 z"
       style="fill:none;stroke:#8eaec7;stroke-width:0.14111111;stroke-linecap:butt;stroke-linejoin:miter;stroke-miterlimit:4;stroke-dasharray:none;stroke-opacity:1"
       id="path1295"
       inkscape:connector-curvature="0" />
    <path
       d="m 33.656034,271.64826 h -0.351015 m 1.440743,0.45014 v -0.28469 m 0,-0.31045 v -0.28433 m -0.620535,0.28433 v -0.28433 m -0.475898,0.42933 h -0.284692 m 0.284692,0.59478 h -0.284692 m -0.641347,0 h -0.28434 m -0.165806,-0.14464 v -0.28469 m 0.62089,-0.31045 v -0.28433 m -1.096786,-0.19121 h -0.284339 m 0.284339,0.62018 h -0.284339 m 0.455083,0.4505 v -0.28469 m 2.607379,-0.78281 h -0.284692 m -0.64135,-0.003 h -0.284692 m 0.455084,1.07068 v -0.2847 m 0,-0.31045 v -0.28433 m -1.546577,0.28433 v -0.28433 m 0.450146,0.42615 h -0.284692 m -1.091496,0.45332 v -0.28469 m 0,-0.31045 v -0.28433 m 3.228269,1.02482 h -0.284692 m -1.091493,-0.14535 v -0.28469"
       style="fill:none;stroke:#ed1c24;stroke-width:0.17638887;stroke-linecap:round;stroke-linejoin:round;stroke-miterlimit:4;stroke-dasharray:none;stroke-opacity:1"
       id="path1297"
       inkscape:connector-curvature="0" />
    <path
       d="M 31.025369,292.95462 H 35.1123 v -2.04329 h -4.086931 z"
       style="fill:#ffffff;fill-opacity:1;fill-rule:nonzero;stroke:none;stroke-width:0.35277775"
       id="path1299"
       inkscape:connector-curvature="0" />
    <path
       d="M 31.025369,292.95462 H 35.1123 v -2.04329 h -4.086931 z"
       style="fill:none;stroke:#000000;stroke-width:0.35277775;stroke-linecap:butt;stroke-linejoin:miter;stroke-miterlimit:4;stroke-dasharray:none;stroke-opacity:1"
       id="path1301"
       inkscape:connector-curvature="0" />
    <path
       d="M 31.025369,292.95462 H 35.1123 v -2.04329 h -4.086931 z"
       style="fill:none;stroke:#8eaec7;stroke-width:0.14111111;stroke-linecap:butt;stroke-linejoin:miter;stroke-miterlimit:4;stroke-dasharray:none;stroke-opacity:1"
       id="path1305"
       inkscape:connector-curvature="0" />
    <path
       d="m 33.656034,291.93298 h -0.351015 m 1.440743,0.45014 v -0.28469 m -0.620535,0.28469 v -0.28469 m 0,-0.31044 v -0.28434 m -0.926041,0.87947 v -0.28469 m 0,-0.31044 v -0.28434 m -0.475896,1.02411 h -0.28434 m -0.165806,-0.14464 v -0.28469 m 0.62089,-0.31044 v -0.28434 m -1.096786,-0.19121 h -0.284339 m 0.284339,1.21532 h -0.284339 m 0.455083,-0.73977 v -0.28434 m 2.607379,1.02411 h -0.284692 m -0.64135,-1.21532 h -0.284692 m 0.455084,1.07068 v -0.28469 m 0,-0.31044 v -0.28434 m -1.096431,0.42933 h -0.284692 m -0.165454,-0.14499 v -0.28434 m -0.475896,0.42933 h -0.284691 m -0.165455,-0.14499 v -0.28434"
       style="fill:none;stroke:#ed1c24;stroke-width:0.17638887;stroke-linecap:round;stroke-linejoin:round;stroke-miterlimit:4;stroke-dasharray:none;stroke-opacity:1"
       id="path1307"
       inkscape:connector-curvature="0" />
    <path
       d="M 31.025369,286.18588 H 35.1123 v -2.04329 h -4.086931 z"
       style="fill:#ffffff;fill-opacity:1;fill-rule:nonzero;stroke:none;stroke-width:0.35277775"
       id="path1309"
       inkscape:connector-curvature="0" />
    <path
       d="M 31.025369,286.18588 H 35.1123 v -2.04329 h -4.086931 z"
       style="fill:none;stroke:#000000;stroke-width:0.35277775;stroke-linecap:butt;stroke-linejoin:miter;stroke-miterlimit:4;stroke-dasharray:none;stroke-opacity:1"
       id="path1311"
       inkscape:connector-curvature="0" />
    <path
       d="M 31.025369,286.18588 H 35.1123 v -2.04329 h -4.086931 z"
       style="fill:none;stroke:#8eaec7;stroke-width:0.14111111;stroke-linecap:butt;stroke-linejoin:miter;stroke-miterlimit:4;stroke-dasharray:none;stroke-opacity:1"
       id="path1315"
       inkscape:connector-curvature="0" />
    <path
       d="m 33.656034,285.16423 h -0.351015 m 1.270352,-0.62089 h -0.284692 m 0.455083,1.07068 v -0.28434 m 0,-0.31044 v -0.28469 m -1.096433,0.42968 h -0.284692 m 0.284692,0.59478 h -0.284692 m -0.165451,-0.14499 v -0.28434 m -0.305152,0.28434 v -0.28434 m 0,-0.31044 v -0.28469 m -1.096786,1.02446 h -0.284339 m 3.062462,-0.59478 h -0.284692 m -0.470958,-0.14499 v -0.28469 m -1.096431,0.42968 h -0.284692 m -0.165454,-0.14499 v -0.28469 m 0.450146,-0.19121 h -0.284692 m -1.091496,1.07068 v -0.28434 m 0.450146,-0.16545 h -0.284691 m -0.165455,-0.14499 v -0.28469"
       style="fill:none;stroke:#ed1c24;stroke-width:0.17638887;stroke-linecap:round;stroke-linejoin:round;stroke-miterlimit:4;stroke-dasharray:none;stroke-opacity:1"
       id="path1317"
       inkscape:connector-curvature="0" />
    <path
       d="M 31.025369,279.41678 H 35.1123 v -2.04365 h -4.086931 z"
       style="fill:#ffffff;fill-opacity:1;fill-rule:nonzero;stroke:none;stroke-width:0.35277775"
       id="path1319"
       inkscape:connector-curvature="0" />
    <path
       d="M 31.025369,279.41678 H 35.1123 v -2.04365 h -4.086931 z"
       style="fill:none;stroke:#000000;stroke-width:0.35277775;stroke-linecap:butt;stroke-linejoin:miter;stroke-miterlimit:4;stroke-dasharray:none;stroke-opacity:1"
       id="path1321"
       inkscape:connector-curvature="0" />
    <path
       d="M 31.025369,279.41678 H 35.1123 v -2.04365 h -4.086931 z"
       style="fill:none;stroke:#8eaec7;stroke-width:0.14111111;stroke-linecap:butt;stroke-linejoin:miter;stroke-miterlimit:4;stroke-dasharray:none;stroke-opacity:1"
       id="path1325"
       inkscape:connector-curvature="0" />
    <path
       d="m 33.656034,278.39513 h -0.351015 m 1.440743,0.45015 v -0.2847 m 0,-0.31044 v -0.28434 m -0.620535,0.28434 v -0.28434 m -0.475898,0.42933 h -0.284692 m 0.284692,0.59478 h -0.284692 m -0.470603,-0.14463 v -0.2847 m 0,-0.31044 v -0.28434 m -1.096786,1.02411 h -0.284339 m 0.455083,-0.14463 v -0.2847 m 0,-0.31044 v -0.28434 m 2.607379,0.42933 h -0.284692 m 0.284692,0.59478 h -0.284692 m -0.64135,-1.21531 h -0.284692 m 0.455084,0.47554 v -0.28434 m -1.096431,0.42933 h -0.284692 m 0.284692,-0.62053 h -0.284692 m -1.091496,1.07068 v -0.2847 m 0,-0.31044 v -0.28434"
       style="fill:none;stroke:#ed1c24;stroke-width:0.17638887;stroke-linecap:round;stroke-linejoin:round;stroke-miterlimit:4;stroke-dasharray:none;stroke-opacity:1"
       id="path1327"
       inkscape:connector-curvature="0" />
    <path
       d="M 24.256269,286.16365 H 28.3432 v -2.04329 h -4.086931 z"
       style="fill:#ffffff;fill-opacity:1;fill-rule:nonzero;stroke:none;stroke-width:0.35277775"
       id="path1329"
       inkscape:connector-curvature="0" />
    <path
       d="M 24.256269,286.16365 H 28.3432 v -2.04329 h -4.086931 z"
       style="fill:none;stroke:#000000;stroke-width:0.35277775;stroke-linecap:butt;stroke-linejoin:miter;stroke-miterlimit:4;stroke-dasharray:none;stroke-opacity:1"
       id="path1331"
       inkscape:connector-curvature="0" />
    <path
       d="M 24.256269,286.16365 H 28.3432 v -2.04329 h -4.086931 z"
       style="fill:none;stroke:#8eaec7;stroke-width:0.14111111;stroke-linecap:butt;stroke-linejoin:miter;stroke-miterlimit:4;stroke-dasharray:none;stroke-opacity:1"
       id="path1335"
       inkscape:connector-curvature="0" />
    <path
       d="m 27.977017,285.59215 v -0.28469 m 0,-0.31045 v -0.28433 m -1.096786,1.02411 h -0.284339 m -0.64135,0 H 25.66985 m 0.455083,-0.14464 v -0.28469 m 0,-0.31045 v -0.28433 M 25.0285,284.52147 h -0.284692 m 0.455436,1.07068 v -0.28469 m 2.607028,-0.16545 h -0.284339 m -0.641702,-0.62054 h -0.284339 m 0.455083,1.07068 v -0.28469 m 0,-0.31045 v -0.28433 m -1.096786,0.42933 H 25.66985 m -0.165453,-0.145 v -0.28433 m -0.47625,0.42933 h -0.284339 m -0.165452,-0.145 v -0.28433"
       style="fill:none;stroke:#ed1c24;stroke-width:0.17638887;stroke-linecap:round;stroke-linejoin:round;stroke-miterlimit:4;stroke-dasharray:none;stroke-opacity:1"
       id="path1337"
       inkscape:connector-curvature="0" />
    <path
       d="M 24.256269,292.95462 H 28.3432 v -2.04329 h -4.086931 z"
       style="fill:#ffffff;fill-opacity:1;fill-rule:nonzero;stroke:none;stroke-width:0.35277775"
       id="path1339"
       inkscape:connector-curvature="0" />
    <path
       d="M 24.256269,292.95462 H 28.3432 v -2.04329 h -4.086931 z"
       style="fill:none;stroke:#000000;stroke-width:0.35277775;stroke-linecap:butt;stroke-linejoin:miter;stroke-miterlimit:4;stroke-dasharray:none;stroke-opacity:1"
       id="path1341"
       inkscape:connector-curvature="0" />
    <path
       d="M 24.256269,292.95462 H 28.3432 v -2.04329 h -4.086931 z"
       style="fill:none;stroke:#8eaec7;stroke-width:0.14111111;stroke-linecap:butt;stroke-linejoin:miter;stroke-miterlimit:4;stroke-dasharray:none;stroke-opacity:1"
       id="path1345"
       inkscape:connector-curvature="0" />
    <path
       d="M 26.887286,291.93298 H 26.535919"
       style="fill:none;stroke:#ed1c24;stroke-width:0.17638887;stroke-linecap:round;stroke-linejoin:round;stroke-miterlimit:4;stroke-dasharray:none;stroke-opacity:1"
       id="path1347"
       inkscape:connector-curvature="0" />
    <path
       d="m 27.806272,291.31244 h -0.284339 m 0.455084,1.07068 v -0.28469 m -0.620889,-0.31044 v -0.28434 m -0.475897,0.42933 h -0.284339 m 0.284339,0.59478 h -0.284339 m -0.470959,-0.14464 v -0.28469 m -0.620536,0.28469 v -0.28469 m 0.620536,-0.31044 v -0.28434 M 25.0285,291.31244 h -0.284692 m 0.284692,1.21532 h -0.284692 m 0.455436,-0.14464 v -0.28469 m 0,-0.31044 v -0.28434 m 2.607028,0.42933 h -0.284339 m -0.641702,-0.62054 h -0.284339 m 0.455083,1.07068 v -0.28469 m -1.546578,-0.31044 v -0.28434 m -0.926041,0.87947 v -0.28469"
       style="fill:none;stroke:#ed1c24;stroke-width:0.17638887;stroke-linecap:round;stroke-linejoin:round;stroke-miterlimit:4;stroke-dasharray:none;stroke-opacity:1"
       id="path1349"
       inkscape:connector-curvature="0" />
    <path
       d="M 24.256269,272.6699 H 28.3432 v -2.04364 h -4.086931 z"
       style="fill:#ffffff;fill-opacity:1;fill-rule:nonzero;stroke:none;stroke-width:0.35277775"
       id="path1351"
       inkscape:connector-curvature="0" />
    <path
       d="M 24.256269,272.6699 H 28.3432 v -2.04364 h -4.086931 z"
       style="fill:none;stroke:#000000;stroke-width:0.35277775;stroke-linecap:butt;stroke-linejoin:miter;stroke-miterlimit:4;stroke-dasharray:none;stroke-opacity:1"
       id="path1353"
       inkscape:connector-curvature="0" />
    <path
       d="M 24.256269,272.6699 H 28.3432 v -2.04364 h -4.086931 z"
       style="fill:none;stroke:#8eaec7;stroke-width:0.14111111;stroke-linecap:butt;stroke-linejoin:miter;stroke-miterlimit:4;stroke-dasharray:none;stroke-opacity:1"
       id="path1357"
       inkscape:connector-curvature="0" />
    <path
       d="m 27.977017,272.0984 v -0.28469 m 0,-0.31045 v -0.28433 m -1.096786,1.02411 h -0.284339 m -0.64135,0 H 25.66985 m 0.455083,-0.14464 v -0.28469 m 0,-0.31045 v -0.28433 M 25.0285,271.02772 h -0.284692 m 0.455436,1.07068 v -0.28469 m 2.607028,-0.16545 h -0.284339 m -0.641702,-0.62054 h -0.284339 m 0.455083,1.07068 v -0.28469 m 0,-0.31045 v -0.28433 m -1.096786,0.42933 H 25.66985 m -0.165453,-0.145 v -0.28433 m -0.47625,0.42933 h -0.284339 m -0.165452,-0.145 v -0.28433"
       style="fill:none;stroke:#ed1c24;stroke-width:0.17638887;stroke-linecap:round;stroke-linejoin:round;stroke-miterlimit:4;stroke-dasharray:none;stroke-opacity:1"
       id="path1359"
       inkscape:connector-curvature="0" />
    <path
       d="M 24.256269,279.41678 H 28.3432 v -2.04365 h -4.086931 z"
       style="fill:#ffffff;fill-opacity:1;fill-rule:nonzero;stroke:none;stroke-width:0.35277775"
       id="path1361"
       inkscape:connector-curvature="0" />
    <path
       d="M 24.256269,279.41678 H 28.3432 v -2.04365 h -4.086931 z"
       style="fill:none;stroke:#000000;stroke-width:0.35277775;stroke-linecap:butt;stroke-linejoin:miter;stroke-miterlimit:4;stroke-dasharray:none;stroke-opacity:1"
       id="path1363"
       inkscape:connector-curvature="0" />
    <path
       d="M 24.256269,279.41678 H 28.3432 v -2.04365 h -4.086931 z"
       style="fill:none;stroke:#8eaec7;stroke-width:0.14111111;stroke-linecap:butt;stroke-linejoin:miter;stroke-miterlimit:4;stroke-dasharray:none;stroke-opacity:1"
       id="path1367"
       inkscape:connector-curvature="0" />
    <path
       d="m 26.887286,278.39513 h -0.351367 m 1.270353,-0.62053 h -0.284339 m 0.455084,1.07068 v -0.2847 m -0.620889,-0.31044 v -0.28434 m -0.475897,0.42933 h -0.284339 m 0.284339,0.59478 h -0.284339 m -0.470959,-0.14463 v -0.2847 m -0.620536,0.2847 v -0.2847 m 0.620536,-0.31044 V 277.9658 M 25.0285,277.7746 h -0.284692 m 0.284692,1.21531 h -0.284692 m 0.455436,-0.14463 v -0.2847 m 0,-0.31044 v -0.28434 m 2.607028,0.42933 h -0.284339 m -0.641702,-0.62053 h -0.284339 m 0.455083,1.07068 v -0.2847 m -1.546578,-0.31044 v -0.28434 m -0.926041,0.87948 v -0.2847"
       style="fill:none;stroke:#ed1c24;stroke-width:0.17638887;stroke-linecap:round;stroke-linejoin:round;stroke-miterlimit:4;stroke-dasharray:none;stroke-opacity:1"
       id="path1369"
       inkscape:connector-curvature="0" />
    <path
       d="m 17.487522,292.95462 h 4.086931 v -2.04329 h -4.086931 z"
       style="fill:#ffffff;fill-opacity:1;fill-rule:nonzero;stroke:none;stroke-width:0.35277775"
       id="path1371"
       inkscape:connector-curvature="0" />
    <path
       d="m 17.487522,292.95462 h 4.086931 v -2.04329 h -4.086931 z"
       style="fill:none;stroke:#000000;stroke-width:0.35277775;stroke-linecap:butt;stroke-linejoin:miter;stroke-miterlimit:4;stroke-dasharray:none;stroke-opacity:1"
       id="path1373"
       inkscape:connector-curvature="0" />
    <path
       d="m 17.487522,292.95462 h 4.086931 v -2.04329 h -4.086931 z"
       style="fill:none;stroke:#8eaec7;stroke-width:0.14111111;stroke-linecap:butt;stroke-linejoin:miter;stroke-miterlimit:4;stroke-dasharray:none;stroke-opacity:1"
       id="path1377"
       inkscape:connector-curvature="0" />
    <path
       d="m 20.118186,291.93298 h -0.351014 m 1.440745,0.45014 v -0.28469 m -0.620536,0.28469 v -0.28469 m 0,-0.31044 v -0.28434 m -0.926042,0.87947 v -0.28469 m 0,-0.31044 v -0.28434 m -0.475897,1.02411 h -0.284339 m -0.165806,-0.14464 v -0.28469 m 0.620889,-0.31044 v -0.28434 M 18.2594,291.31244 h -0.284339 m 0.284339,1.21532 h -0.284339 m 0.455084,-0.73977 v -0.28434 m 2.60738,1.02411 h -0.284692 m -0.641349,-1.21532 h -0.284692 m 0.455083,1.07068 v -0.28469 m 0,-0.31044 v -0.28434 m -1.096433,0.42933 H 18.90075 m -0.165453,-0.14499 v -0.28434 m -0.475897,0.42933 h -0.284691 m -0.165453,-0.14499 v -0.28434"
       style="fill:none;stroke:#ed1c24;stroke-width:0.17638887;stroke-linecap:round;stroke-linejoin:round;stroke-miterlimit:4;stroke-dasharray:none;stroke-opacity:1"
       id="path1379"
       inkscape:connector-curvature="0" />
    <path
       d="m 17.487522,286.18588 h 4.086931 v -2.04329 h -4.086931 z"
       style="fill:#ffffff;fill-opacity:1;fill-rule:nonzero;stroke:none;stroke-width:0.35277775"
       id="path1381"
       inkscape:connector-curvature="0" />
    <path
       d="m 17.487522,286.18588 h 4.086931 v -2.04329 h -4.086931 z"
       style="fill:none;stroke:#000000;stroke-width:0.35277775;stroke-linecap:butt;stroke-linejoin:miter;stroke-miterlimit:4;stroke-dasharray:none;stroke-opacity:1"
       id="path1383"
       inkscape:connector-curvature="0" />
    <path
       d="m 17.487522,286.18588 h 4.086931 v -2.04329 h -4.086931 z"
       style="fill:none;stroke:#8eaec7;stroke-width:0.14111111;stroke-linecap:butt;stroke-linejoin:miter;stroke-miterlimit:4;stroke-dasharray:none;stroke-opacity:1"
       id="path1387"
       inkscape:connector-curvature="0" />
    <path
       d="m 20.118186,285.16423 h -0.351014 m 1.440745,0.44979 v -0.28434 m 0,-0.31044 v -0.28469 m -0.620536,0.28469 v -0.28469 m -0.475897,0.42968 h -0.284692 m 0.284692,0.59478 h -0.284692 m -0.470606,-0.14499 v -0.28434 m 0,-0.31044 v -0.28469 m -1.096786,1.02446 h -0.284339 m 0.455084,-0.14499 v -0.28434 m 0,-0.31044 v -0.28469 m 2.60738,0.42968 h -0.284692 m 0.284692,0.59478 h -0.284692 m -0.641349,-1.21567 h -0.284692 m 0.455083,0.4759 v -0.28469 m -1.096433,0.42968 H 18.90075 m 0.284692,-0.62089 H 18.90075 m -1.091494,1.07068 v -0.28434 m 0,-0.31044 v -0.28469"
       style="fill:none;stroke:#ed1c24;stroke-width:0.17638887;stroke-linecap:round;stroke-linejoin:round;stroke-miterlimit:4;stroke-dasharray:none;stroke-opacity:1"
       id="path1389"
       inkscape:connector-curvature="0" />
    <path
       d="m 17.487522,279.41678 h 4.086931 v -2.04365 h -4.086931 z"
       style="fill:#ffffff;fill-opacity:1;fill-rule:nonzero;stroke:none;stroke-width:0.35277775"
       id="path1391"
       inkscape:connector-curvature="0" />
    <path
       d="m 17.487522,279.41678 h 4.086931 v -2.04365 h -4.086931 z"
       style="fill:none;stroke:#000000;stroke-width:0.35277775;stroke-linecap:butt;stroke-linejoin:miter;stroke-miterlimit:4;stroke-dasharray:none;stroke-opacity:1"
       id="path1393"
       inkscape:connector-curvature="0" />
    <path
       d="m 17.487522,279.41678 h 4.086931 v -2.04365 h -4.086931 z"
       style="fill:none;stroke:#8eaec7;stroke-width:0.14111111;stroke-linecap:butt;stroke-linejoin:miter;stroke-miterlimit:4;stroke-dasharray:none;stroke-opacity:1"
       id="path1397"
       inkscape:connector-curvature="0" />
    <path
       d="m 20.118186,278.39513 h -0.351014 m 1.440745,0.45015 v -0.2847 m -0.620536,0.2847 v -0.2847 m 0,-0.31044 v -0.28434 m -0.926042,0.87948 v -0.2847 m 0,-0.31044 v -0.28434 m -0.475897,1.02411 h -0.284339 m -0.165806,-0.14463 v -0.2847 m 0.620889,-0.31044 V 277.9658 M 18.2594,277.7746 h -0.284339 m 0.284339,1.21531 h -0.284339 m 0.455084,-0.73977 v -0.28434 m 2.60738,1.02411 h -0.284692 m -0.641349,-1.21531 h -0.284692 m 0.455083,1.07068 v -0.2847 m 0,-0.31044 v -0.28434 m -1.096433,0.42933 H 18.90075 m -0.165453,-0.14499 v -0.28434 m -0.475897,0.42933 h -0.284691 m -0.165453,-0.14499 v -0.28434"
       style="fill:none;stroke:#ed1c24;stroke-width:0.17638887;stroke-linecap:round;stroke-linejoin:round;stroke-miterlimit:4;stroke-dasharray:none;stroke-opacity:1"
       id="path1399"
       inkscape:connector-curvature="0" />
    <path
       d="m 17.487522,272.6699 h 4.086931 v -2.04364 h -4.086931 z"
       style="fill:#ffffff;fill-opacity:1;fill-rule:nonzero;stroke:none;stroke-width:0.35277775"
       id="path1401"
       inkscape:connector-curvature="0" />
    <path
       d="m 17.487522,272.6699 h 4.086931 v -2.04364 h -4.086931 z"
       style="fill:none;stroke:#000000;stroke-width:0.35277775;stroke-linecap:butt;stroke-linejoin:miter;stroke-miterlimit:4;stroke-dasharray:none;stroke-opacity:1"
       id="path1403"
       inkscape:connector-curvature="0" />
    <path
       d="m 17.487522,272.6699 h 4.086931 v -2.04364 h -4.086931 z"
       style="fill:none;stroke:#8eaec7;stroke-width:0.14111111;stroke-linecap:butt;stroke-linejoin:miter;stroke-miterlimit:4;stroke-dasharray:none;stroke-opacity:1"
       id="path1407"
       inkscape:connector-curvature="0" />
    <path
       d="m 20.118186,271.64826 h -0.351014 m 1.270353,-0.62054 h -0.284692 m 0.455084,1.07068 v -0.28469 m 0,-0.31045 v -0.28433 m -1.096433,0.42933 h -0.284692 m 0.284692,0.59478 h -0.284692 m -0.165453,-0.14464 v -0.28469 m -0.305153,0.28469 v -0.28469 m 0,-0.31045 v -0.28433 m -1.096786,1.02411 h -0.284339 m 3.062464,-0.59478 h -0.284692 m -0.470958,-0.145 v -0.28433 m -1.096433,0.42933 H 18.90075 m -0.165453,-0.145 v -0.28433 m 0.450145,-0.19121 H 18.90075 m -1.091494,1.07068 v -0.28469 m 0.450144,-0.16545 h -0.284691 m -0.165453,-0.145 v -0.28433"
       style="fill:none;stroke:#ed1c24;stroke-width:0.17638887;stroke-linecap:round;stroke-linejoin:round;stroke-miterlimit:4;stroke-dasharray:none;stroke-opacity:1"
       id="path1409"
       inkscape:connector-curvature="0" />
    <text
       y="292.52835"
       x="47.929424"
       style="font-style:italic;font-variant:normal;font-weight:normal;font-size:2.95225596px;font-family:'MT Extra';-inkscape-font-specification:MTMI;writing-mode:lr-tb;fill:#000000;fill-opacity:1;fill-rule:nonzero;stroke:none;stroke-width:0.35277775"
       id="text1419">
      <tspan
         style="stroke-width:0.35277775"
         x="47.929424"
         y="292.52835"
         id="tspan1411">x</tspan>
      <tspan
         style="stroke-width:0.35277775"
         x="5.4570847"
         y="266.3566"
         id="tspan1413">y</tspan>
      <tspan
         style="stroke-width:0.35277775"
         x="1.480691"
         y="296.55493"
         id="tspan1415">z</tspan>
      <tspan
         style="stroke-width:0.35277775"
         x="27.66543"
         y="282.29434"
         id="tspan1417">A</tspan>
    </text>
  </g>
</svg>
