<?xml version="1.0" encoding="UTF-8" standalone="no"?>
<!-- Created with Inkscape (http://www.inkscape.org/) -->

<svg
   xmlns:dc="http://purl.org/dc/elements/1.1/"
   xmlns:cc="http://creativecommons.org/ns#"
   xmlns:rdf="http://www.w3.org/1999/02/22-rdf-syntax-ns#"
   xmlns:svg="http://www.w3.org/2000/svg"
   xmlns="http://www.w3.org/2000/svg"
   xmlns:sodipodi="http://sodipodi.sourceforge.net/DTD/sodipodi-0.dtd"
   xmlns:inkscape="http://www.inkscape.org/namespaces/inkscape"
   width="440"
   height="180"
   id="svg2"
   inkscape:label="Pozadí"
   version="1.1"
   inkscape:version="0.48.1 "
   sodipodi:docname="cir_RLC_hlavka.svg">
  <title
     id="title27855">RLC obvod</title>
  <defs
     id="defs26466" />
  <sodipodi:namedview
     id="base"
     pagecolor="#ffffff"
     bordercolor="#666666"
     borderopacity="1.0"
     inkscape:pageopacity="0.0"
     inkscape:pageshadow="2"
     inkscape:zoom="1.979899"
     inkscape:cx="204.9457"
     inkscape:cy="19.338368"
     inkscape:document-units="px"
     inkscape:current-layer="layer1"
     showgrid="false"
     inkscape:window-width="1831"
     inkscape:window-height="1173"
     inkscape:window-x="80"
     inkscape:window-y="-9"
     inkscape:window-maximized="1" />
  <metadata
     id="metadata26469">
    <rdf:RDF>
      <cc:Work
         rdf:about="">
        <dc:format>image/svg+xml</dc:format>
        <dc:type
           rdf:resource="http://purl.org/dc/dcmitype/StillImage" />
        <dc:title>RLC obvod</dc:title>
      </cc:Work>
    </rdf:RDF>
  </metadata>
  <g
     inkscape:label="Vrstva 1"
     inkscape:groupmode="layer"
     id="layer1"
     transform="translate(0,-872.36218)">
    <path
       inkscape:connector-curvature="0"
       d="m 17.664573,931.33828 57.478777,0"
       style="fill:none;stroke:#000000;stroke-width:2.02860117;stroke-linecap:round;stroke-linejoin:round;stroke-miterlimit:10;stroke-opacity:1;stroke-dasharray:none"
       id="path20968" />
    <path
       inkscape:connector-curvature="0"
       d="m 75.14335,942.80034 57.55422,0 0,-22.92414 -57.55422,0 0,22.92414 z"
       style="fill:#ffffff;fill-opacity:1;fill-rule:evenodd;stroke:none"
       id="path20970" />
    <path
       inkscape:connector-curvature="0"
       d="m 75.14335,942.80034 57.55422,0 0,-22.92414 -57.55422,0 0,22.92414 z"
       style="fill:none;stroke:#000000;stroke-width:2.02860117;stroke-linecap:round;stroke-linejoin:round;stroke-miterlimit:10;stroke-opacity:1;stroke-dasharray:none"
       id="path20972" />
    <path
       inkscape:connector-curvature="0"
       d="m 132.69757,931.33828 57.55424,0"
       style="fill:none;stroke:#000000;stroke-width:2.02860117;stroke-linecap:round;stroke-linejoin:round;stroke-miterlimit:10;stroke-opacity:1;stroke-dasharray:none"
       id="path20974" />
    <path
       inkscape:connector-curvature="0"
       d="m 190.28433,931.34233 c -0.3211,-9.17372 5.86923,-16.90452 13.82358,-17.27033 7.95435,-0.36581 14.66089,6.77156 14.97792,15.94122 0.0163,0.44304 0.0163,0.88608 0,1.32911 -0.31703,-9.17372 5.87329,-16.90452 13.82764,-17.27033 7.95436,-0.36581 14.66089,6.77156 14.97793,15.94122 0.0163,0.44304 0.0163,0.88608 0,1.32911 -0.3211,-9.17372 5.86923,-16.90452 13.82358,-17.27033 7.95435,-0.36581 14.66089,6.77156 14.97792,15.94122 0.0163,0.44304 0.0163,0.88608 0,1.32911 -0.31703,-9.17372 5.8733,-16.90452 13.82765,-17.27033 7.95437,-0.36581 14.66089,6.77156 14.97793,15.94122 0.0163,0.44304 0.0163,0.88608 0,1.32911"
       style="fill:none;stroke:#000000;stroke-width:2.02860117;stroke-linecap:round;stroke-linejoin:round;stroke-miterlimit:10;stroke-opacity:1;stroke-dasharray:none"
       id="path20976" />
    <path
       inkscape:connector-curvature="0"
       d="m 371.00986,910.88103 0,36.82497 m -9.26721,-36.82497 0,36.82497"
       style="fill:none;stroke:#000000;stroke-width:2.02860117;stroke-linecap:round;stroke-linejoin:round;stroke-miterlimit:10;stroke-opacity:1;stroke-dasharray:none"
       id="path20978" />
    <path
       inkscape:connector-curvature="0"
       d="m 427.5708,1034.9847 0,11.4621 -410.909027,0"
       style="fill:none;stroke:#000000;stroke-width:2.02860117;stroke-linecap:round;stroke-linejoin:round;stroke-miterlimit:10;stroke-opacity:1;stroke-dasharray:none"
       id="path20984" />
    <path
       inkscape:connector-curvature="0"
       d="m 360.64091,931.33828 -54.91779,0"
       style="fill:none;stroke:#000000;stroke-width:2.02860117;stroke-linecap:round;stroke-linejoin:round;stroke-miterlimit:10;stroke-opacity:1;stroke-dasharray:none"
       id="path21004" />
    <path
       inkscape:connector-curvature="0"
       d="m 12.903261,936.47696 0,103.64644 m -5.85297,-5.853 5.85297,5.853 5.85297,-5.853"
       style="fill:none;stroke:#923931;stroke-width:1.01430058;stroke-linecap:round;stroke-linejoin:round;stroke-miterlimit:10;stroke-opacity:1;stroke-dasharray:none"
       id="path21014" />
    <text
       style="font-size:14.81257153px"
       y="1014.9565"
       x="22.711029"
       id="text21016">
      <tspan
         style="font-size:44.43771362px;font-variant:normal;font-weight:normal;writing-mode:lr-tb;fill:#ea700d;fill-opacity:1;fill-rule:nonzero;stroke:none;font-family:FREESTYLE SCRIPT;-inkscape-font-specification:FREESTYLE SCRIPT"
         x="22.711029"
         y="1014.9565"
         id="tspan21018">U</tspan>
    </text>
    <g
       transform="matrix(0.64908226,0,0,-0.64908226,-1536.8367,3731.2868)"
       id="g21080">
      <text
         transform="scale(1,-1)"
         id="text21082"
         x="2518.5542"
         y="-4343.5693"
         style="font-size:14.8180027px">
        <tspan
           style="font-size:44.45401000999999800px;font-variant:normal;font-weight:normal;writing-mode:lr-tb;fill:#000000;fill-opacity:1;fill-rule:nonzero;stroke:#000000;stroke-width:0.01764083000000000;stroke-linecap:round;stroke-linejoin:round;stroke-miterlimit:10;stroke-opacity:1;stroke-dasharray:none;font-family:Arial;-inkscape-font-specification:Arial;font-style:normal;font-stretch:normal"
           x="2518.5542"
           y="-4343.5693"
           id="tspan21084">R</tspan>
      </text>
    </g>
    <g
       transform="matrix(0.89256543,0,0,-0.89256543,-2335.5489,4793.4805)"
       id="g21086">
      <text
         transform="matrix(1,0,0,-1,2885.72,4348.86)"
         id="text21088">
        <tspan
           style="font-size:36px;font-style:normal;font-variant:normal;font-weight:normal;writing-mode:lr-tb;fill:#000000;fill-opacity:1;fill-rule:nonzero;stroke:#000000;stroke-width:0.01428600000000000;stroke-linecap:round;stroke-linejoin:round;stroke-miterlimit:10;stroke-opacity:1;stroke-dasharray:none;font-family:Arial;-inkscape-font-specification:Arial;font-stretch:normal"
           x="0"
           y="0"
           id="tspan21090">L</tspan>
      </text>
    </g>
    <g
       transform="matrix(0.99228748,0,0,-0.99228748,-2651.5235,5064.5622)"
       id="g21092">
      <text
         transform="matrix(1,0,0,-1,3051.74,4178.6)"
         id="text21094">
        <tspan
           style="font-size:36px;font-variant:normal;font-weight:normal;writing-mode:lr-tb;fill:#000000;fill-opacity:1;fill-rule:nonzero;stroke:#000000;stroke-width:0.01428600000000000;stroke-linecap:round;stroke-linejoin:round;stroke-miterlimit:10;stroke-opacity:1;stroke-dasharray:none;font-family:Arial;-inkscape-font-specification:Arial;font-style:normal;font-stretch:normal"
           x="0"
           y="0"
           id="tspan21096">C</tspan>
      </text>
    </g>
    <path
       inkscape:connector-curvature="0"
       d="m 219.52204,1027.2778 50.23803,0"
       style="fill:none;stroke:#548bd4;stroke-width:1.01430058;stroke-linecap:round;stroke-linejoin:round;stroke-miterlimit:10;stroke-opacity:1;stroke-dasharray:none"
       id="path21098" />
    <path
       inkscape:connector-curvature="0"
       d="m 221.01281,1023.1404 -8.53558,4.3898 8.53558,4.1458 0,-8.5356 z"
       style="fill:#548bd4;fill-opacity:1;fill-rule:evenodd;stroke:none"
       id="path21100" />
    <text
       style="font-size:14.38004971px"
       y="1022.7245"
       x="254.28513"
       id="text21102">
      <tspan
         style="font-size:43.14014816px;font-variant:normal;font-weight:normal;writing-mode:lr-tb;fill:#548bd4;fill-opacity:1;fill-rule:nonzero;stroke:none;font-family:FREESTYLE SCRIPT;-inkscape-font-specification:FREESTYLE SCRIPT"
         x="254.28513"
         y="1022.7245"
         id="tspan21104">i</tspan>
    </text>
    <text
       xml:space="preserve"
       style="font-size:40px;font-style:normal;font-weight:normal;line-height:125%;letter-spacing:0px;word-spacing:0px;fill:#000000;fill-opacity:1;stroke:none;font-family:Sans"
       x="239.64285"
       y="-49.642857"
       id="text3087"
       sodipodi:linespacing="125%"
       transform="translate(0,892.36218)"><tspan
         sodipodi:role="line"
         id="tspan3089"
         x="239.64285"
         y="-49.642857" /></text>
    <path
       inkscape:connector-curvature="0"
       d="m 427.60798,931.46416 0,104.77384"
       style="fill:none;stroke:#000000;stroke-width:2.02860117;stroke-linecap:round;stroke-linejoin:round;stroke-miterlimit:10;stroke-opacity:1;stroke-dasharray:none"
       id="path21004-4" />
    <path
       inkscape:connector-curvature="0"
       d="m 426.81664,931.39637 -55.06223,0"
       style="fill:none;stroke:#000000;stroke-width:2.02860117;stroke-linecap:round;stroke-linejoin:round;stroke-miterlimit:10;stroke-opacity:1;stroke-dasharray:none"
       id="path21004-9" />
    <path
       inkscape:connector-curvature="0"
       d="m 16.096074,929.99618 c 0.71535,1.58925 0.004,3.45894 -1.58519,4.17431 -1.5933,0.71536 -3.46301,0.008 -4.17837,-1.58518 0,0 0,0 0,0 -0.71536,-1.58925 -0.004,-3.45895 1.58518,-4.17431 1.58924,-0.71536 3.45895,-0.008 4.17838,1.58518 z"
       style="fill:none;stroke:#000000;stroke-width:2.02860117;stroke-linecap:round;stroke-linejoin:round;stroke-miterlimit:10;stroke-opacity:1;stroke-dasharray:none"
       id="path20988" />
    <path
       inkscape:connector-curvature="0"
       d="m 15.738923,1045.1966 c 0.71535,1.5892 0.004,3.4589 -1.58519,4.1743 -1.5933,0.7154 -3.46301,0.01 -4.17837,-1.5852 0,0 0,0 0,0 -0.71536,-1.5892 -0.004,-3.4589 1.58518,-4.1743 1.58924,-0.7154 3.45895,-0.01 4.17838,1.5852 z"
       style="fill:none;stroke:#000000;stroke-width:2.02860117;stroke-linecap:round;stroke-linejoin:round;stroke-miterlimit:10;stroke-opacity:1;stroke-dasharray:none"
       id="path20988-1" />
  </g>
</svg>
