<?xml version="1.0" encoding="UTF-8" standalone="no"?>
<!-- Created with Inkscape (http://www.inkscape.org/) -->

<svg
   xmlns:ns0="http://www.iki.fi/pav/software/textext/"
   xmlns:dc="http://purl.org/dc/elements/1.1/"
   xmlns:cc="http://creativecommons.org/ns#"
   xmlns:rdf="http://www.w3.org/1999/02/22-rdf-syntax-ns#"
   xmlns:svg="http://www.w3.org/2000/svg"
   xmlns="http://www.w3.org/2000/svg"
   xmlns:sodipodi="http://sodipodi.sourceforge.net/DTD/sodipodi-0.dtd"
   xmlns:inkscape="http://www.inkscape.org/namespaces/inkscape"
   width="230"
   height="220"
   id="svg2"
   inkscape:label="Pozadí"
   version="1.1"
   inkscape:version="0.48.0 r9654"
   sodipodi:docname="current_ef_solve_1.svg">
  <sodipodi:namedview
     id="base"
     pagecolor="#ffffff"
     bordercolor="#666666"
     borderopacity="1.0"
     inkscape:pageopacity="0.0"
     inkscape:pageshadow="2"
     inkscape:zoom="2.8"
     inkscape:cx="32.073265"
     inkscape:cy="100.84776"
     inkscape:document-units="px"
     inkscape:current-layer="1"
     showgrid="false"
     inkscape:window-width="1920"
     inkscape:window-height="1125"
     inkscape:window-x="-9"
     inkscape:window-y="-9"
     inkscape:window-maximized="1" />
  <defs
     id="defs3" />
  <metadata
     id="metadata6">
    <rdf:RDF>
      <cc:Work
         rdf:about="">
        <dc:format>image/svg+xml</dc:format>
        <dc:type
           rdf:resource="http://purl.org/dc/dcmitype/StillImage" />
        <dc:title />
      </cc:Work>
    </rdf:RDF>
  </metadata>
  <g
     transform="translate(0,-832.36218)"
     id="layer1"
     inkscape:groupmode="layer"
     inkscape:label="Vrstva 1">
    <g
       transform="translate(-72.360742,924.15325)"
       id="1">
      <path
         inkscape:connector-curvature="0"
         id="4"
         style="fill:none;stroke:#000000;stroke-width:2.9000001px;stroke-linecap:round;stroke-linejoin:round;stroke-opacity:1;stroke-dasharray:none"
         d="m 117.59545,98.892873 56.8,-132 0,132" />
      <path
         inkscape:connector-curvature="0"
         id="5"
         style="fill:none;stroke:#000080;stroke-width:0.94999999px;stroke-linecap:round;stroke-linejoin:round;stroke-opacity:1;stroke-dasharray:none"
         d="m 117.59545,98.892873 0,-166.4" />
      <path
         inkscape:connector-curvature="0"
         id="6"
         style="fill:#000080;fill-opacity:1;fill-rule:evenodd;stroke:none"
         d="m 112.79545,-65.907127 4.8,-8.8 4,8.8 -8.8,0 z" />
      <text
         id="7"
         xml:space="preserve"
         x="106.11497"
         y="-69.558647"
         style="font-size:18.39999962px;font-style:normal;font-weight:normal;text-align:start;text-anchor:start;fill:#000080;font-family:Arial">i</text>
      <path
         inkscape:connector-curvature="0"
         id="8"
         style="fill:none;stroke:#000080;stroke-width:0.94999999px;stroke-linecap:round;stroke-linejoin:round;stroke-opacity:1;stroke-dasharray:none"
         d="m 117.59545,98.892873 166.4,0" />
      <path
         inkscape:connector-curvature="0"
         id="9"
         style="fill:#000080;fill-opacity:1;fill-rule:evenodd;stroke:none"
         d="m 282.39545,94.892873 8.8,4 -8.8,4.799997 0,-8.799997 z" />
      <text
         id="10"
         xml:space="preserve"
         x="291.56625"
         y="115.4845"
         style="font-size:18.39999962px;font-style:normal;font-weight:normal;text-align:start;text-anchor:start;fill:#000080;font-family:Arial">t</text>
      <text
         id="11"
         xml:space="preserve"
         x="113.59544"
         y="124.49287"
         style="font-size:21.60000038px;font-style:normal;font-weight:normal;text-align:start;text-anchor:start;fill:#000080;font-family:Symbol">0       </text>
      <text
         id="12"
         xml:space="preserve"
         x="167.59544"
         y="124.49287"
         style="font-size:21.60000038px;font-style:normal;font-weight:normal;text-align:start;text-anchor:start;fill:#000080;font-family:Symbol"> T       T</text>
      <path
         inkscape:connector-curvature="0"
         id="13"
         style="fill:none;stroke:#000000;stroke-width:2.9000001px;stroke-linecap:round;stroke-linejoin:round;stroke-opacity:1;stroke-dasharray:none"
         d="m 174.39545,98.892873 56.8,0" />
      <text
         id="14"
         xml:space="preserve"
         x="87.33831"
         y="-31.878557"
         style="font-size:16px;font-style:normal;font-weight:normal;text-align:start;text-anchor:start;fill:#000080;font-family:Arial">I<tspan
   style="font-size:65.00091553%;baseline-shift:sub"
   id="tspan3362">MAX</tspan></text>
      <path
         inkscape:connector-curvature="0"
         id="15"
         style="fill:#000000;fill-opacity:1;fill-rule:nonzero;stroke:#000000;stroke-width:0.80000001px;stroke-linecap:butt;stroke-linejoin:bevel;stroke-opacity:1;stroke-dasharray:none"
         d="m 117.59545,-33.557127 6.75,0 c 0.25,0 0.45,0.2 0.45,0.45 0,0.3 -0.2,0.5 -0.45,0.5 l -6.75,0 c -0.25,0 -0.45,-0.2 -0.45,-0.5 0,-0.25 0.2,-0.45 0.45,-0.45 z m 11.55,0 6.7,0 c 0.3,0 0.5,0.2 0.5,0.45 0,0.3 -0.2,0.5 -0.5,0.5 l -6.7,0 c -0.25,0 -0.5,-0.2 -0.5,-0.5 0,-0.25 0.25,-0.45 0.5,-0.45 z m 11.5,0 6.75,0 c 0.25,0 0.45,0.2 0.45,0.45 0,0.3 -0.2,0.5 -0.45,0.5 l -6.75,0 c -0.25,0 -0.45,-0.2 -0.45,-0.5 0,-0.25 0.2,-0.45 0.45,-0.45 z m 11.55,0 6.7,0 c 0.25,0 0.5,0.2 0.5,0.45 0,0.3 -0.25,0.5 -0.5,0.5 l -6.7,0 c -0.3,0 -0.5,-0.2 -0.5,-0.5 0,-0.25 0.2,-0.45 0.5,-0.45 z m 11.5,0 6.7,0 c 0.3,0 0.5,0.2 0.5,0.45 0,0.3 -0.2,0.5 -0.5,0.5 l -6.7,0 c -0.25,0 -0.5,-0.2 -0.5,-0.5 0,-0.25 0.25,-0.45 0.5,-0.45 z" />
      <path
         sodipodi:nodetypes="cc"
         inkscape:connector-curvature="0"
         id="16"
         style="fill:none;stroke:#000000;stroke-width:0.94999999px;stroke-linecap:round;stroke-linejoin:round;stroke-opacity:1;stroke-dasharray:none"
         d="M 159.19545,5.2928726 C 127.20246,22.539452 112.36371,-56.101374 176.54244,-55.599444" />
      <path
         inkscape:connector-curvature="0"
         id="17"
         style="fill:#ffffff;fill-opacity:1;fill-rule:evenodd;stroke:none"
         d="m 162.84545,7.4428726 c 0,-4.2 -3.8,-7.6 -8.5,-7.6 -4.7,0 -8.5,3.4 -8.5,7.6 0,4.1500004 3.8,7.5500004 8.5,7.5500004 4.7,0 8.5,-3.4 8.5,-7.5500004" />
      <path
         inkscape:connector-curvature="0"
         id="18"
         style="fill:none;stroke:#000000;stroke-width:0.94999999px;stroke-linecap:round;stroke-linejoin:round;stroke-opacity:1;stroke-dasharray:none"
         d="m 162.84545,7.4428726 c 0,-4.2 -3.8,-7.6 -8.5,-7.6 -4.7,0 -8.5,3.4 -8.5,7.6 0,4.1500004 3.8,7.5500004 8.5,7.5500004 4.7,0 8.5,-3.4 8.5,-7.5500004" />
      <text
         id="19"
         xml:space="preserve"
         x="151.2"
         y="39.200001"
         style="font-size:16px;font-style:normal;font-weight:normal;text-align:start;text-anchor:start;fill:#000000;font-family:Arial" />
      <text
         sodipodi:linespacing="125%"
         id="text3088"
         y="-50.386925"
         x="180.22562"
         style="font-size:17.35206223px;font-style:normal;font-variant:normal;font-weight:normal;font-stretch:normal;line-height:125%;letter-spacing:0px;word-spacing:0px;fill:#000000;fill-opacity:1;stroke:none;font-family:Segoe UI;-inkscape-font-specification:Segoe UI"
         xml:space="preserve"><tspan
           y="-50.386925"
           x="180.22562"
           id="tspan3090"
           sodipodi:role="line">přímka</tspan></text>
      <g
         style="font-style:normal;font-variant:normal;font-weight:normal;font-stretch:normal;letter-spacing:normal;word-spacing:normal;text-anchor:start;fill:none;stroke:#000000;stroke-linecap:butt;stroke-linejoin:miter;stroke-miterlimit:10.43299961;stroke-opacity:1;stroke-dasharray:none;stroke-dashoffset:0"
         id="content"
         transform="matrix(1.8148985,0,0,-1.8148985,-475.62597,1256.2737)"
         xml:space="preserve"
         stroke-miterlimit="10.433"
         font-style="normal"
         font-variant="normal"
         font-weight="normal"
         font-stretch="normal"
         font-size-adjust="none"
         letter-spacing="normal"
         word-spacing="normal"
         ns0:text="$$i(t)=\\frac{I_{MAX}}{\\delta T}t$$\n\n"
         ns0:preamble="">
<path
   style="fill:#000000;stroke-width:0"
   inkscape:connector-curvature="0"
   d="m 367.95,709.76 0,0.02 0,0.02 -0.01,0.01 0,0.02 0,0.02 -0.01,0.02 0,0.01 -0.01,0.02 0,0.02 -0.01,0.01 -0.01,0.02 -0.01,0.01 -0.01,0.02 -0.01,0.01 -0.01,0.01 -0.01,0.01 -0.01,0.02 -0.02,0.01 -0.01,0.01 -0.01,0.01 -0.02,0.01 -0.01,0.01 -0.02,0 -0.02,0.01 -0.01,0.01 -0.02,0 -0.02,0.01 -0.02,0 -0.02,0 -0.02,0.01 -0.02,0 -0.02,0 c -0.27,0 -0.54,-0.26 -0.54,-0.53 0,-0.19 0.14,-0.36 0.38,-0.36 0.23,0 0.53,0.23 0.53,0.53 z"
   id="path3210" />
<path
   style="fill:#000000;stroke-width:0"
   inkscape:connector-curvature="0"
   d="m 367.19,706.02 0.01,0.02 0.01,0.03 0.01,0.02 0.01,0.02 0.01,0.03 0.01,0.02 0,0.01 0.01,0.02 0.01,0.02 0,0.02 0.01,0.01 0.01,0.02 0,0.01 0.01,0.02 0.01,0.02 0.01,0.03 0.01,0.03 0,0.02 0.01,0.01 0,0.02 0.01,0.01 0.01,0.02 0,0.02 0.01,0.02 0.01,0.02 0,0.02 0.01,0.02 0.01,0.02 0.01,0.02 c 0.08,0.2 0.13,0.34 0.13,0.53 0,0.45 -0.32,0.82 -0.82,0.82 -0.93,0 -1.31,-1.44 -1.31,-1.53 0,-0.1 0.1,-0.1 0.12,-0.1 0.1,0 0.11,0.02 0.15,0.18 0.27,0.93 0.67,1.23 1.01,1.23 0.08,0 0.25,0 0.25,-0.32 0,-0.21 -0.07,-0.42 -0.11,-0.52 -0.08,-0.25 -0.53,-1.41 -0.69,-1.84 -0.1,-0.26 -0.23,-0.58 -0.23,-0.79 0,-0.47 0.34,-0.82 0.82,-0.82 0.94,0 1.31,1.44 1.31,1.53 0,0.1 -0.09,0.1 -0.12,0.1 -0.1,0 -0.1,-0.03 -0.15,-0.18 -0.18,-0.62 -0.51,-1.23 -1.02,-1.23 -0.17,0 -0.24,0.1 -0.24,0.33 0,0.25 0.06,0.39 0.29,0.99 z"
   id="path3212" />
<path
   style="fill:#000000;stroke-width:0"
   inkscape:connector-curvature="0"
   d="m 371.85,701.15 0,0.01 0,0 0,0 0,0.01 0,0 0,0 0,0.01 -0.01,0 0,0 0,0.01 0,0 0,0.01 -0.01,0 0,0.01 -0.01,0 0,0.01 -0.01,0.01 0,0 0,0.01 -0.01,0 0,0.01 -0.01,0 0,0 0,0.01 -0.01,0 0,0.01 -0.01,0 0,0.01 -0.01,0 0,0.01 -0.01,0.01 0,0 -0.01,0.01 0,0 -0.01,0.01 -0.01,0.01 0,0 -0.01,0.01 -0.01,0.01 0,0 -0.01,0.01 -0.01,0.01 c -1.25,1.25 -1.57,3.14 -1.57,4.66 0,1.73 0.38,3.46 1.61,4.71 0.13,0.11 0.13,0.14 0.13,0.17 0,0.06 -0.04,0.09 -0.1,0.09 -0.1,0 -1,-0.67 -1.58,-1.94 -0.51,-1.09 -0.63,-2.2 -0.63,-3.03 0,-0.78 0.11,-1.98 0.66,-3.11 0.59,-1.22 1.45,-1.87 1.55,-1.87 0.06,0 0.1,0.03 0.1,0.1 z"
   id="path3214" />
<path
   style="fill:#000000;stroke-width:0"
   inkscape:connector-curvature="0"
   d="m 374.48,707.52 h 0.94 c 0.19,0 0.29,0 0.29,0.2 0,0.11 -0.1,0.11 -0.28,0.11 h -0.87 c 0.36,1.41 0.41,1.61 0.41,1.67 0,0.17 -0.12,0.27 -0.29,0.27 -0.03,0 -0.31,-0.01 -0.4,-0.36 l -0.39,-1.58 h -0.94 c -0.2,0 -0.3,0 -0.3,-0.19 0,-0.12 0.08,-0.12 0.28,-0.12 h 0.88 c -0.72,-2.82 -0.76,-2.99 -0.76,-3.17 0,-0.54 0.38,-0.92 0.92,-0.92 1.02,0 1.58,1.45 1.58,1.53 0,0.1 -0.08,0.1 -0.12,0.1 -0.08,0 -0.1,-0.03 -0.14,-0.14 -0.43,-1.03 -0.96,-1.27 -1.3,-1.27 -0.21,0 -0.31,0.13 -0.31,0.46 0,0.24 0.02,0.31 0.06,0.48 z"
   id="path3216" />
<path
   style="fill:#000000;stroke-width:0"
   inkscape:connector-curvature="0"
   d="m 378.9,706.03 0,0.07 0,0.08 0,0.08 0,0.08 -0.01,0.17 -0.01,0.17 -0.02,0.19 -0.02,0.19 -0.03,0.19 -0.03,0.2 -0.04,0.2 -0.05,0.21 -0.05,0.21 -0.06,0.21 -0.07,0.22 -0.08,0.21 -0.04,0.11 -0.05,0.1 -0.04,0.11 -0.06,0.1 c -0.59,1.23 -1.45,1.87 -1.55,1.87 -0.06,0 -0.1,-0.04 -0.1,-0.09 0,-0.03 0,-0.06 0.19,-0.23 0.98,-0.99 1.55,-2.57 1.55,-4.65 0,-1.7 -0.37,-3.45 -1.61,-4.71 -0.13,-0.12 -0.13,-0.14 -0.13,-0.17 0,-0.06 0.04,-0.1 0.1,-0.1 0.1,0 1,0.68 1.58,1.94 0.51,1.1 0.63,2.2 0.63,3.04 z"
   id="path3218" />
<path
   style="fill:#000000;stroke-width:0"
   inkscape:connector-curvature="0"
   d="m 389.51,706.79 0.03,0 0.03,0 0.03,0.01 0.02,0 0.01,0 0.01,0 0.02,0 0.01,0 0.02,0 0.01,0.01 0.01,0 0.02,0 0.01,0.01 0.01,0 0.01,0.01 0.01,0.01 0.02,0 0.01,0.01 0,0.01 0.01,0.01 0.01,0.01 0,0 0.01,0.01 0,0 0,0.01 0.01,0.01 0,0 0,0.01 0,0.01 0.01,0 0,0.01 0,0.01 0,0.01 0,0.01 0,0 0,0.01 0,0.01 c 0,0.2 -0.19,0.2 -0.33,0.2 h -5.97 c -0.14,0 -0.33,0 -0.33,-0.2 0,-0.2 0.19,-0.2 0.34,-0.2 z"
   id="path3220" />
<path
   style="fill:#000000;stroke-width:0"
   inkscape:connector-curvature="0"
   d="m 389.52,704.86 0.03,0 0.03,0 0.03,0.01 0.01,0 0.01,0 0.02,0 0.01,0 0.02,0 0.01,0 0.01,0.01 0.02,0 0.01,0 0.01,0.01 0.01,0 0.01,0.01 0.02,0.01 0.01,0 0.01,0.01 0,0.01 0.01,0.01 0.01,0 0,0.01 0,0 0.01,0.01 0,0 0,0.01 0.01,0.01 0,0 0,0.01 0,0.01 0.01,0 0,0.01 0,0.01 0,0.01 0,0.01 0,0 0,0.01 0,0.01 c 0,0.2 -0.19,0.2 -0.34,0.2 h -5.95 c -0.15,0 -0.34,0 -0.34,-0.2 0,-0.2 0.19,-0.2 0.33,-0.2 z"
   id="path3222" />
<path
   style="fill:#000000;stroke-width:0"
   inkscape:connector-curvature="0"
   d="m 398.1,716.31 0.01,0.03 0.01,0.04 0.01,0.02 0.01,0.03 0,0.03 0.01,0.03 0.01,0.02 0.01,0.02 0.01,0.03 0.01,0.02 0.02,0.02 0.01,0.01 0.02,0.02 0.02,0.02 0.01,0.01 0.03,0.01 0.02,0.02 0.02,0.01 0.03,0.01 0.03,0.01 0.03,0.01 0.02,0 0.02,0 0.02,0.01 0.02,0 0.02,0 0.02,0.01 0.02,0 0.02,0 0.03,0.01 0.02,0 0.03,0 0.02,0 0.03,0 0.03,0 0.03,0.01 0.03,0 0.03,0 0.03,0 0.03,0 0.04,0 0.03,0 0.04,0 c 0.24,0 0.32,0 0.32,0.19 0,0.12 -0.11,0.12 -0.15,0.12 -0.29,0 -1.03,-0.03 -1.32,-0.03 -0.29,0 -1.02,0.03 -1.32,0.03 -0.07,0 -0.2,0 -0.2,-0.2 0,-0.11 0.09,-0.11 0.28,-0.11 0.42,0 0.69,0 0.69,-0.19 0,-0.05 0,-0.07 -0.02,-0.16 l -1.35,-5.36 c -0.09,-0.37 -0.12,-0.47 -0.91,-0.47 -0.23,0 -0.32,0 -0.32,-0.2 0,-0.11 0.12,-0.11 0.15,-0.11 0.29,0 1.02,0.03 1.31,0.03 0.3,0 1.04,-0.03 1.34,-0.03 0.07,0 0.19,0 0.19,0.19 0,0.12 -0.07,0.12 -0.3,0.12 -0.17,0 -0.22,0 -0.42,0.02 -0.21,0.02 -0.25,0.06 -0.25,0.17 0,0.08 0.02,0.16 0.04,0.23 z"
   id="path3224" />
<path
   style="fill:#000000;stroke-width:0"
   inkscape:connector-curvature="0"
   d="m 405.86,712.97 0.01,0.03 0.01,0.02 0,0.02 0.01,0.02 0,0.02 0.01,0.02 0,0.01 0.01,0.02 0.01,0.01 0.01,0.02 0,0.01 0.01,0.01 0.01,0.02 0.01,0.01 0.02,0.01 0.01,0 0.02,0.01 0.01,0.01 0.02,0.01 0.02,0 0.02,0.01 0.01,0 0.01,0 0.02,0.01 0.01,0 0.01,0 0.02,0 0.01,0 0.01,0.01 0.02,0 0.02,0 0.01,0 0.02,0 0.02,0 0.02,0 0.01,0 0.02,0 0.02,0 0.03,0 0.02,0 0.02,0 0.02,0 0.03,0 c 0.14,0 0.23,0 0.23,0.15 0,0.1 -0.08,0.1 -0.21,0.1 h -0.94 c -0.21,0 -0.21,0 -0.3,-0.13 l -2.69,-3.97 -0.69,3.92 c -0.03,0.18 -0.03,0.18 -0.24,0.18 h -1 c -0.14,0 -0.23,0 -0.23,-0.15 0,-0.1 0.08,-0.1 0.24,-0.1 0.11,0 0.14,0 0.26,-0.01 0.14,-0.01 0.16,-0.03 0.16,-0.1 0,0 0,-0.04 -0.03,-0.15 l -0.88,-3.49 c -0.06,-0.24 -0.17,-0.47 -0.72,-0.49 -0.06,0 -0.15,-0.01 -0.15,-0.16 0,0 0.01,-0.09 0.1,-0.09 0.21,0 0.51,0.02 0.73,0.02 0.17,0 0.57,-0.02 0.74,-0.02 0.03,0 0.14,0 0.14,0.15 0,0.09 -0.09,0.1 -0.16,0.1 -0.44,0.01 -0.44,0.19 -0.44,0.29 0,0.03 0,0.06 0.02,0.17 l 0.93,3.7 h 0.01 l 0.74,-4.23 c 0.02,-0.12 0.04,-0.18 0.14,-0.18 0.1,0 0.16,0.07 0.2,0.15 l 2.93,4.33 0.01,-0.01 -0.99,-3.93 c -0.05,-0.24 -0.07,-0.29 -0.61,-0.29 -0.12,0 -0.21,0 -0.21,-0.16 0,0 0,-0.09 0.11,-0.09 0.14,0 0.3,0.02 0.44,0.02 0.13,0 0.29,0 0.44,0 0.19,0 0.68,-0.02 0.88,-0.02 0.04,0 0.15,0 0.15,0.15 0,0.1 -0.09,0.1 -0.23,0.1 -0.01,0 -0.14,0 -0.26,0.01 -0.16,0.01 -0.16,0.04 -0.16,0.1 0,0.05 0.02,0.12 0.03,0.16 z"
   id="path3226" />
<path
   style="fill:#000000;stroke-width:0"
   inkscape:connector-curvature="0"
   d="m 408.53,709.62 -0.02,-0.03 -0.02,-0.04 -0.03,-0.03 -0.02,-0.03 -0.02,-0.03 -0.02,-0.03 -0.03,-0.03 -0.02,-0.03 -0.02,-0.02 -0.03,-0.03 -0.02,-0.02 -0.02,-0.02 -0.03,-0.02 -0.02,-0.02 -0.03,-0.02 -0.02,-0.02 -0.03,-0.02 -0.03,-0.02 -0.02,-0.01 -0.03,-0.02 -0.03,-0.01 -0.03,-0.01 -0.03,-0.01 -0.03,-0.01 -0.03,-0.01 -0.03,-0.01 -0.04,-0.01 -0.03,-0.01 -0.03,0 -0.04,-0.01 -0.04,0 -0.04,0 c -0.07,-0.01 -0.16,-0.01 -0.16,-0.15 0,-0.08 0.07,-0.1 0.1,-0.1 0.18,0 0.41,0.02 0.6,0.02 0.22,0 0.51,-0.02 0.72,-0.02 0.03,0 0.14,0 0.14,0.15 0,0.09 -0.09,0.1 -0.12,0.1 -0.06,0 -0.31,0.02 -0.31,0.2 0,0.09 0.07,0.21 0.11,0.27 l 0.55,0.86 h 2 l -0.04,0.25 h -1.79 l 1.46,2.28 0.33,-2.28 0.04,-0.25 0.16,-1.15 c -0.02,-0.07 -0.07,-0.18 -0.48,-0.18 -0.08,0 -0.18,0 -0.18,-0.16 0,-0.03 0.02,-0.09 0.11,-0.09 0.21,0 0.7,0.02 0.9,0.02 0.13,0 0.29,0 0.41,0 0.13,-0.01 0.27,-0.02 0.4,-0.02 0.09,0 0.14,0.05 0.14,0.14 0,0.11 -0.09,0.11 -0.2,0.11 -0.4,0 -0.41,0.05 -0.43,0.22 l -0.62,4.29 c -0.02,0.15 -0.03,0.19 -0.16,0.19 -0.14,0 -0.18,-0.06 -0.24,-0.16 z"
   id="path3228" />
<path
   style="fill:#000000;stroke-width:0"
   inkscape:connector-curvature="0"
   d="m 416.96,711.44 0.66,0.66 c 0.89,0.88 1.17,1.15 1.79,1.18 0.09,0.01 0.18,0.01 0.18,0.15 0,0.08 -0.08,0.1 -0.1,0.1 -0.2,0 -0.45,-0.02 -0.66,-0.02 -0.18,0 -0.62,0.02 -0.8,0.02 -0.06,0 -0.14,-0.02 -0.14,-0.15 0,0 0,-0.09 0.1,-0.1 0.06,0 0.24,-0.02 0.24,-0.17 0,-0.1 -0.11,-0.21 -0.18,-0.28 -0.05,-0.05 -0.94,-0.92 -1.19,-1.18 l -0.71,1.36 c -0.01,0.02 -0.03,0.07 -0.03,0.1 0,0.05 0.13,0.16 0.37,0.17 0.05,0 0.14,0.01 0.14,0.16 0,0.01 0,0.09 -0.11,0.09 -0.15,0 -0.32,-0.02 -0.47,-0.02 -0.15,0 -0.31,0 -0.45,0 -0.12,0 -0.29,0 -0.42,0 -0.11,0.01 -0.26,0.02 -0.37,0.02 -0.04,0 -0.15,0 -0.15,-0.15 0,-0.1 0.09,-0.1 0.2,-0.1 0.41,0 0.44,-0.06 0.51,-0.2 l 0.98,-1.92 -0.39,-0.39 c -0.13,-0.13 -0.46,-0.44 -0.59,-0.57 -0.85,-0.84 -1.13,-1.14 -1.76,-1.16 -0.1,-0.01 -0.17,-0.01 -0.17,-0.16 0,-0.03 0.02,-0.09 0.09,-0.09 0.21,0 0.44,0.02 0.65,0.02 0.12,0 0.3,0 0.41,0 0.13,-0.01 0.28,-0.02 0.4,-0.02 0.03,0 0.15,0 0.15,0.14 0,0.1 -0.09,0.11 -0.13,0.11 -0.07,0 -0.21,0.02 -0.21,0.17 0,0.11 0.09,0.2 0.24,0.36 l 1.41,1.38 0.85,-1.65 c 0.03,-0.07 0.04,-0.08 0.04,-0.09 0,-0.04 -0.13,-0.15 -0.37,-0.17 -0.07,-0.01 -0.15,-0.01 -0.15,-0.16 0,0 0,-0.09 0.11,-0.09 0.15,0 0.32,0.02 0.47,0.02 0.15,0 0.31,0 0.45,0 0.12,0 0.29,0 0.41,0 0.12,-0.01 0.27,-0.02 0.38,-0.02 0.03,0 0.15,0 0.15,0.15 0,0.1 -0.09,0.1 -0.21,0.1 -0.4,0 -0.44,0.07 -0.5,0.19 z"
   id="path3230" />
<line
   style="stroke-width:0.398"
   x1="394.38"
   y1="706.03003"
   x2="420.67001"
   y2="706.03003"
   id="line3232" />
<path
   style="fill:#000000;stroke-width:0"
   inkscape:connector-curvature="0"
   d="m 404.15,701.05 -0.12,-0.03 -0.11,-0.03 -0.12,-0.04 -0.11,-0.05 -0.1,-0.05 -0.11,-0.06 -0.1,-0.06 -0.1,-0.07 -0.1,-0.07 -0.1,-0.07 -0.09,-0.08 -0.09,-0.08 -0.09,-0.09 -0.08,-0.09 -0.08,-0.09 -0.08,-0.09 -0.07,-0.1 -0.07,-0.1 -0.06,-0.1 -0.06,-0.11 -0.06,-0.1 -0.05,-0.11 -0.05,-0.11 -0.05,-0.11 -0.03,-0.11 -0.04,-0.11 -0.03,-0.11 -0.02,-0.12 -0.02,-0.11 -0.01,-0.11 -0.01,-0.12 -0.01,-0.11 c 0,-0.96 0.64,-1.67 1.58,-1.67 v 0.21 c -0.55,0 -0.96,0.42 -0.96,1.18 0,0.63 0.37,2.5 1.72,2.86 h 0 c 0.25,-0.46 0.55,-1 0.55,-1.71 0,-0.66 -0.38,-2.33 -1.31,-2.33 v -0.21 c 1.16,0 1.99,1.56 1.99,2.93 0,0.91 -0.4,1.41 -0.73,1.85 -0.36,0.45 -0.95,1.2 -0.95,1.64 0,0.21 0.2,0.45 0.55,0.45 0.3,0 0.49,-0.13 0.7,-0.26 0.2,-0.12 0.4,-0.25 0.55,-0.25 0.25,0 0.4,0.23 0.4,0.39 0,0.22 -0.16,0.25 -0.52,0.33 -0.52,0.11 -0.66,0.11 -0.82,0.11 -0.77,0 -1.13,-0.43 -1.13,-1.02 0,-0.54 0.29,-1.1 0.6,-1.71 z"
   id="path3234" />
<path
   style="fill:#000000;stroke-width:0"
   inkscape:connector-curvature="0"
   d="m 410.58,702.75 0,0.02 0.01,0.03 0.01,0.02 0,0.02 0.01,0.02 0,0.02 0.01,0.02 0.01,0.02 0,0.01 0.01,0.02 0,0.01 0.01,0.02 0,0.01 0.01,0.01 0.01,0.01 0,0.01 0.01,0.01 0.01,0.01 0,0.01 0.01,0.01 0.01,0.01 0,0 0.01,0.01 0.01,0 0.01,0.01 0.01,0 0.01,0.01 0.01,0 0.01,0.01 0.01,0 0.01,0 0.01,0 c 0.09,0.03 0.42,0.03 0.62,0.03 1.01,0 1.46,-0.04 1.46,-0.82 0,-0.15 -0.04,-0.54 -0.08,-0.8 -0.01,-0.04 -0.03,-0.16 -0.03,-0.19 0,-0.06 0.03,-0.13 0.12,-0.13 0.11,0 0.13,0.08 0.15,0.23 l 0.27,1.73 c 0.01,0.05 0.02,0.14 0.02,0.17 0,0.11 -0.1,0.11 -0.27,0.11 h -5.53 c -0.24,0 -0.25,-0.01 -0.32,-0.2 l -0.6,-1.75 c -0.01,-0.02 -0.06,-0.16 -0.06,-0.18 0,-0.06 0.05,-0.11 0.12,-0.11 0.1,0 0.11,0.05 0.17,0.21 0.54,1.55 0.8,1.73 2.27,1.73 h 0.39 c 0.28,0 0.28,-0.04 0.28,-0.12 0,-0.06 -0.03,-0.18 -0.04,-0.21 l -1.34,-5.32 c -0.08,-0.37 -0.11,-0.47 -1.18,-0.47 -0.36,0 -0.42,0 -0.42,-0.19 0,-0.12 0.11,-0.12 0.17,-0.12 0.27,0 0.55,0.02 0.82,0.02 0.28,0 0.56,0.01 0.84,0.01 0.28,0 0.56,-0.01 0.83,-0.01 0.29,0 0.59,-0.02 0.87,-0.02 0.1,0 0.22,0 0.22,0.2 0,0.11 -0.08,0.11 -0.34,0.11 -0.25,0 -0.38,0 -0.64,0.01 -0.29,0.03 -0.37,0.06 -0.37,0.22 0,0.01 0,0.06 0.04,0.21 z"
   id="path3236" />
<path
   style="fill:#000000;stroke-width:0"
   inkscape:connector-curvature="0"
   d="m 423.91,707.52 h 0.94 c 0.2,0 0.3,0 0.3,0.2 0,0.11 -0.1,0.11 -0.28,0.11 h -0.88 c 0.36,1.41 0.41,1.61 0.41,1.67 0,0.17 -0.12,0.27 -0.29,0.27 -0.03,0 -0.31,-0.01 -0.4,-0.36 l -0.38,-1.58 h -0.94 c -0.2,0 -0.3,0 -0.3,-0.19 0,-0.12 0.08,-0.12 0.28,-0.12 h 0.88 c -0.72,-2.82 -0.76,-2.99 -0.76,-3.17 0,-0.54 0.38,-0.92 0.91,-0.92 1.02,0 1.59,1.45 1.59,1.53 0,0.1 -0.08,0.1 -0.12,0.1 -0.09,0 -0.1,-0.03 -0.15,-0.14 -0.43,-1.03 -0.96,-1.27 -1.3,-1.27 -0.2,0 -0.3,0.13 -0.3,0.46 0,0.24 0.02,0.31 0.06,0.48 z"
   id="path3238" />
</g>      <g
         ns0:preamble=""
         ns0:text="$$\\delta$$\n"
         word-spacing="normal"
         letter-spacing="normal"
         font-size-adjust="none"
         font-stretch="normal"
         font-weight="normal"
         font-variant="normal"
         font-style="normal"
         stroke-miterlimit="10.433"
         xml:space="preserve"
         transform="matrix(2.4563684,0,0,-2.4563684,-803.08276,1861.7912)"
         id="g3318"
         style="font-style:normal;font-variant:normal;font-weight:normal;font-stretch:normal;letter-spacing:normal;word-spacing:normal;text-anchor:start;fill:#00007e;fill-opacity:1;stroke:#5d00c2;stroke-width:0.08142102;stroke-linecap:butt;stroke-linejoin:miter;stroke-miterlimit:10.43299961;stroke-opacity:1;stroke-dasharray:none;stroke-dashoffset:0">
<path
   id="path3320"
   d="m 395.52,711.47 -0.12,-0.03 -0.11,-0.03 -0.12,-0.05 -0.11,-0.04 -0.1,-0.05 -0.11,-0.06 -0.1,-0.06 -0.1,-0.07 -0.1,-0.07 -0.1,-0.07 -0.09,-0.08 -0.09,-0.08 -0.09,-0.09 -0.08,-0.09 -0.08,-0.09 -0.08,-0.09 -0.07,-0.1 -0.07,-0.1 -0.06,-0.1 -0.06,-0.11 -0.06,-0.1 -0.05,-0.11 -0.05,-0.11 -0.05,-0.11 -0.03,-0.11 -0.04,-0.11 -0.03,-0.12 -0.02,-0.11 -0.02,-0.11 -0.01,-0.12 -0.01,-0.11 -0.01,-0.11 c 0,-0.96 0.64,-1.67 1.58,-1.67 v 0.21 c -0.55,0 -0.96,0.42 -0.96,1.18 0,0.63 0.37,2.5 1.72,2.86 h 0 c 0.25,-0.46 0.54,-1 0.54,-1.72 0,-0.65 -0.37,-2.32 -1.3,-2.32 v -0.21 c 1.17,0 1.99,1.56 1.99,2.93 0,0.91 -0.4,1.4 -0.73,1.85 -0.36,0.45 -0.95,1.2 -0.95,1.63 0,0.22 0.2,0.46 0.55,0.46 0.3,0 0.49,-0.13 0.7,-0.27 0.2,-0.12 0.4,-0.25 0.55,-0.25 0.25,0 0.4,0.24 0.4,0.4 0,0.22 -0.16,0.25 -0.52,0.33 -0.52,0.11 -0.66,0.11 -0.82,0.11 -0.77,0 -1.13,-0.43 -1.13,-1.02 0,-0.54 0.29,-1.1 0.6,-1.71 z"
   inkscape:connector-curvature="0"
   style="fill:#00007e;fill-opacity:1;stroke:#5d00c2;stroke-width:0.08142102;stroke-miterlimit:10.43299961;stroke-opacity:1;stroke-dasharray:none" />
</g>    </g>
  </g>
</svg>
