<?xml version="1.0" encoding="UTF-8" standalone="no"?>
<!-- Created with Inkscape (http://www.inkscape.org/) -->

<svg
   xmlns:ns0="http://www.iki.fi/pav/software/textext/"
   xmlns:dc="http://purl.org/dc/elements/1.1/"
   xmlns:cc="http://creativecommons.org/ns#"
   xmlns:rdf="http://www.w3.org/1999/02/22-rdf-syntax-ns#"
   xmlns:svg="http://www.w3.org/2000/svg"
   xmlns="http://www.w3.org/2000/svg"
   xmlns:sodipodi="http://sodipodi.sourceforge.net/DTD/sodipodi-0.dtd"
   xmlns:inkscape="http://www.inkscape.org/namespaces/inkscape"
   width="230"
   height="180"
   id="svg2"
   inkscape:label="Pozadí"
   version="1.1"
   inkscape:version="0.48.0 r9654"
   sodipodi:docname="current_ef_solve_3.svg">
  <sodipodi:namedview
     id="base"
     pagecolor="#ffffff"
     bordercolor="#666666"
     borderopacity="1.0"
     inkscape:pageopacity="0.0"
     inkscape:pageshadow="2"
     inkscape:zoom="2.8"
     inkscape:cx="177.38569"
     inkscape:cy="107.77684"
     inkscape:document-units="px"
     inkscape:current-layer="1-9"
     showgrid="false"
     inkscape:window-width="1920"
     inkscape:window-height="1125"
     inkscape:window-x="-9"
     inkscape:window-y="-9"
     inkscape:window-maximized="1"
     height="200px" />
  <defs
     id="defs3">
    <inkscape:path-effect
       effect="spiro"
       id="path-effect5261"
       is_visible="true" />
    <inkscape:path-effect
       effect="spiro"
       id="path-effect5224"
       is_visible="true" />
  </defs>
  <metadata
     id="metadata6">
    <rdf:RDF>
      <cc:Work
         rdf:about="">
        <dc:format>image/svg+xml</dc:format>
        <dc:type
           rdf:resource="http://purl.org/dc/dcmitype/StillImage" />
        <dc:title />
      </cc:Work>
    </rdf:RDF>
  </metadata>
  <g
     transform="translate(0,-872.36218)"
     id="layer1"
     inkscape:groupmode="layer"
     inkscape:label="Vrstva 1">
    <g
       transform="translate(-72.360742,924.15325)"
       id="1">
      <text
         id="19"
         xml:space="preserve"
         x="151.2"
         y="39.200001"
         style="font-size:16px;font-style:normal;font-weight:normal;text-align:start;text-anchor:start;fill:#000000;font-family:Arial" />
      <g
         ns0:preamble=""
         ns0:text="$$\\delta$$\n"
         word-spacing="normal"
         letter-spacing="normal"
         font-size-adjust="none"
         font-stretch="normal"
         font-weight="normal"
         font-variant="normal"
         font-style="normal"
         stroke-miterlimit="10.433"
         xml:space="preserve"
         transform="matrix(2.4563684,0,0,-2.4563684,-809.22021,1809.55)"
         id="g3318"
         style="font-style:normal;font-variant:normal;font-weight:normal;font-stretch:normal;letter-spacing:normal;word-spacing:normal;text-anchor:start;fill:#00007e;fill-opacity:1;stroke:#5d00c2;stroke-width:0.08142102;stroke-linecap:butt;stroke-linejoin:miter;stroke-miterlimit:10.43299961;stroke-opacity:1;stroke-dasharray:none;stroke-dashoffset:0">
<path
   id="path3320"
   d="m 395.52,711.47 -0.12,-0.03 -0.11,-0.03 -0.12,-0.05 -0.11,-0.04 -0.1,-0.05 -0.11,-0.06 -0.1,-0.06 -0.1,-0.07 -0.1,-0.07 -0.1,-0.07 -0.09,-0.08 -0.09,-0.08 -0.09,-0.09 -0.08,-0.09 -0.08,-0.09 -0.08,-0.09 -0.07,-0.1 -0.07,-0.1 -0.06,-0.1 -0.06,-0.11 -0.06,-0.1 -0.05,-0.11 -0.05,-0.11 -0.05,-0.11 -0.03,-0.11 -0.04,-0.11 -0.03,-0.12 -0.02,-0.11 -0.02,-0.11 -0.01,-0.12 -0.01,-0.11 -0.01,-0.11 c 0,-0.96 0.64,-1.67 1.58,-1.67 v 0.21 c -0.55,0 -0.96,0.42 -0.96,1.18 0,0.63 0.37,2.5 1.72,2.86 h 0 c 0.25,-0.46 0.54,-1 0.54,-1.72 0,-0.65 -0.37,-2.32 -1.3,-2.32 v -0.21 c 1.17,0 1.99,1.56 1.99,2.93 0,0.91 -0.4,1.4 -0.73,1.85 -0.36,0.45 -0.95,1.2 -0.95,1.63 0,0.22 0.2,0.46 0.55,0.46 0.3,0 0.49,-0.13 0.7,-0.27 0.2,-0.12 0.4,-0.25 0.55,-0.25 0.25,0 0.4,0.24 0.4,0.4 0,0.22 -0.16,0.25 -0.52,0.33 -0.52,0.11 -0.66,0.11 -0.82,0.11 -0.77,0 -1.13,-0.43 -1.13,-1.02 0,-0.54 0.29,-1.1 0.6,-1.71 z"
   inkscape:connector-curvature="0"
   style="fill:#00007e;fill-opacity:1;stroke:#5d00c2;stroke-width:0.08142102;stroke-miterlimit:10.43299961;stroke-opacity:1;stroke-dasharray:none" />
</g>      <text
         id="14-1"
         xml:space="preserve"
         x="81.309364"
         y="111.18642"
         style="font-size:16px;font-style:normal;font-weight:normal;text-align:start;text-anchor:start;fill:#000080;font-family:Arial">I<tspan
   style="font-size:65.00091553%;baseline-shift:sub"
   id="tspan3362-1">MAX</tspan></text>
      <text
         id="14-1-1"
         xml:space="preserve"
         x="79.380745"
         y="-5.3152237"
         style="font-size:16px;font-style:normal;font-weight:normal;text-align:start;text-anchor:start;fill:#000080;font-family:Arial">I<tspan
   style="font-size:65.00091553%;baseline-shift:sub"
   id="tspan3362-1-8">MAX</tspan></text>
      <g
         id="1-9"
         transform="translate(60.440511,-49.60127)">
        <path
           d="M 56,175.2 56,8.8"
           style="fill:none;stroke:#000080;stroke-width:0.94999999px;stroke-linecap:round;stroke-linejoin:round;stroke-opacity:1;stroke-dasharray:none"
           id="2"
           inkscape:connector-curvature="0" />
        <path
           d="m 51.2,10.4 4.8,-8.8 4,8.8 -8.8,0 z"
           style="fill:#000080;fill-opacity:1;fill-rule:evenodd;stroke:none"
           id="3"
           inkscape:connector-curvature="0" />
        <text
           style="font-size:18.39999962px;font-style:normal;font-weight:normal;text-align:start;text-anchor:start;fill:#000080;font-family:Arial"
           y="13.855077"
           x="44.983986"
           xml:space="preserve"
           id="4">i</text>
        <path
           d="m 36.8,100 185.6,0"
           style="fill:none;stroke:#000080;stroke-width:0.94999999px;stroke-linecap:round;stroke-linejoin:round;stroke-opacity:1;stroke-dasharray:none"
           id="5"
           inkscape:connector-curvature="0" />
        <path
           d="m 220.8,95.2 8.8,4.8 -8.8,4 0,-8.8 z"
           style="fill:#000080;fill-opacity:1;fill-rule:evenodd;stroke:none"
           id="6"
           inkscape:connector-curvature="0" />
        <text
           style="font-size:18.39999962px;font-style:normal;font-weight:normal;text-align:start;text-anchor:start;fill:#000080;font-family:Arial"
           y="114.02386"
           x="230.00964"
           xml:space="preserve"
           id="7">t</text>
        <text
           style="font-size:21.60000038px;font-style:normal;font-weight:normal;text-align:start;text-anchor:start;fill:#000080;font-family:Symbol"
           y="122.4"
           x="43.200001"
           xml:space="preserve"
           id="8">0        </text>
        <text
           style="font-size:21.60000038px;font-style:normal;font-weight:normal;text-align:start;text-anchor:start;fill:#000080;font-family:Symbol"
           y="122.4"
           x="104.23457"
           xml:space="preserve"
           id="9">T      T</text>
        <path
           d="m 56,43.2 37.6,0 0,113.6 76,0 0,-56.8"
           style="fill:none;stroke:#000000;stroke-width:2.9000001px;stroke-linecap:round;stroke-linejoin:round;stroke-opacity:1;stroke-dasharray:none"
           id="10"
           inkscape:connector-curvature="0" />
        <text
           style="font-size:16px;font-style:normal;font-weight:normal;text-align:start;text-anchor:start;fill:#000080;font-family:Arial"
           y="159.60001"
           x="13.6"
           xml:space="preserve"
           id="12">-</text>
        <path
           style="fill:none;stroke:#000000;stroke-width:1;stroke-linecap:butt;stroke-linejoin:miter;stroke-miterlimit:4;stroke-opacity:1;stroke-dasharray:4, 1;stroke-dashoffset:0"
           d="m 94.420233,156.61469 -38.035715,-0.0733"
           id="path5259"
           inkscape:path-effect="#path-effect5261"
           inkscape:original-d="m 94.420233,156.61469 c -12.410077,-1.36154 -26.293857,-0.68133 -38.035715,-0.0733"
           inkscape:connector-curvature="0" />
      </g>
    </g>
  </g>
</svg>
