<?xml version="1.0" encoding="UTF-8" standalone="no"?>
<!-- Created with Inkscape (http://www.inkscape.org/) -->

<svg
   xmlns:dc="http://purl.org/dc/elements/1.1/"
   xmlns:cc="http://creativecommons.org/ns#"
   xmlns:rdf="http://www.w3.org/1999/02/22-rdf-syntax-ns#"
   xmlns:svg="http://www.w3.org/2000/svg"
   xmlns="http://www.w3.org/2000/svg"
   xmlns:sodipodi="http://sodipodi.sourceforge.net/DTD/sodipodi-0.dtd"
   xmlns:inkscape="http://www.inkscape.org/namespaces/inkscape"
   width="155"
   height="110"
   id="svg2"
   inkscape:label="Pozadí"
   version="1.1"
   inkscape:version="0.48.1 "
   sodipodi:docname="mag_ind_cary_kruh_z.svg">
  <sodipodi:namedview
     id="base"
     pagecolor="#ffffff"
     bordercolor="#666666"
     borderopacity="1.0"
     inkscape:pageopacity="0.0"
     inkscape:pageshadow="2"
     inkscape:zoom="4.5031537"
     inkscape:cx="91.462531"
     inkscape:cy="31.970179"
     inkscape:document-units="px"
     inkscape:current-layer="layer1"
     showgrid="false"
     inkscape:snap-page="true"
     inkscape:window-width="1831"
     inkscape:window-height="1173"
     inkscape:window-x="80"
     inkscape:window-y="-9"
     inkscape:window-maximized="1" />
  <defs
     id="defs3">
    <marker
       style="overflow:visible"
       id="Arrow1Mstart"
       refX="0"
       refY="0"
       orient="auto"
       inkscape:stockid="Arrow1Mstart">
      <path
         transform="matrix(0.4,0,0,0.4,4,0)"
         style="fill-rule:evenodd;stroke:#000000;stroke-width:1pt;marker-start:none"
         d="M 0,0 5,-5 -12.5,0 5,5 0,0 z"
         id="path4029"
         inkscape:connector-curvature="0" />
    </marker>
    <marker
       style="overflow:visible"
       id="DotM"
       refX="0"
       refY="0"
       orient="auto"
       inkscape:stockid="DotM">
      <path
         transform="matrix(0.4,0,0,0.4,2.96,0.4)"
         style="fill-rule:evenodd;stroke:#000000;stroke-width:1pt;marker-start:none;marker-end:none"
         d="m -2.5,-1 c 0,2.76 -2.24,5 -5,5 -2.76,0 -5,-2.24 -5,-5 0,-2.76 2.24,-5 5,-5 2.76,0 5,2.24 5,5 z"
         id="path4088"
         inkscape:connector-curvature="0" />
    </marker>
    <marker
       style="overflow:visible"
       id="DotS"
       refX="0"
       refY="0"
       orient="auto"
       inkscape:stockid="DotS">
      <path
         transform="matrix(0.2,0,0,0.2,1.48,0.2)"
         style="fill-rule:evenodd;stroke:#000000;stroke-width:1pt;marker-start:none;marker-end:none"
         d="m -2.5,-1 c 0,2.76 -2.24,5 -5,5 -2.76,0 -5,-2.24 -5,-5 0,-2.76 2.24,-5 5,-5 2.76,0 5,2.24 5,5 z"
         id="path4091"
         inkscape:connector-curvature="0" />
    </marker>
    <marker
       style="overflow:visible"
       id="DotL"
       refX="0"
       refY="0"
       orient="auto"
       inkscape:stockid="DotL">
      <path
         transform="matrix(0.8,0,0,0.8,5.92,0.8)"
         style="fill-rule:evenodd;stroke:#000000;stroke-width:1pt;marker-start:none;marker-end:none"
         d="m -2.5,-1 c 0,2.76 -2.24,5 -5,5 -2.76,0 -5,-2.24 -5,-5 0,-2.76 2.24,-5 5,-5 2.76,0 5,2.24 5,5 z"
         id="path4085"
         inkscape:connector-curvature="0" />
    </marker>
    <marker
       inkscape:stockid="Arrow1Mend"
       orient="auto"
       refY="0"
       refX="0"
       id="Arrow1Mend"
       style="overflow:visible">
      <path
         inkscape:connector-curvature="0"
         id="path4032"
         d="M 0,0 5,-5 -12.5,0 5,5 0,0 z"
         style="fill-rule:evenodd;stroke:#000000;stroke-width:1pt;marker-start:none"
         transform="matrix(-0.4,0,0,-0.4,-4,0)" />
    </marker>
    <marker
       inkscape:stockid="Arrow1Mend"
       orient="auto"
       refY="0"
       refX="0"
       id="Arrow1Mend-3"
       style="overflow:visible">
      <path
         inkscape:connector-curvature="0"
         id="path4032-9"
         d="M 0,0 5,-5 -12.5,0 5,5 0,0 z"
         style="fill-rule:evenodd;stroke:#000000;stroke-width:1pt;marker-start:none"
         transform="matrix(-0.4,0,0,-0.4,-4,0)" />
    </marker>
    <marker
       inkscape:stockid="Arrow1Mend"
       orient="auto"
       refY="0"
       refX="0"
       id="Arrow1Mend-2"
       style="overflow:visible">
      <path
         inkscape:connector-curvature="0"
         id="path4032-2"
         d="M 0,0 5,-5 -12.5,0 5,5 0,0 z"
         style="fill-rule:evenodd;stroke:#000000;stroke-width:1pt;marker-start:none"
         transform="matrix(-0.4,0,0,-0.4,-4,0)" />
    </marker>
    <marker
       inkscape:stockid="Arrow1Mend"
       orient="auto"
       refY="0"
       refX="0"
       id="Arrow1Mend-6"
       style="overflow:visible">
      <path
         inkscape:connector-curvature="0"
         id="path4032-93"
         d="M 0,0 5,-5 -12.5,0 5,5 0,0 z"
         style="fill-rule:evenodd;stroke:#000000;stroke-width:1pt;marker-start:none"
         transform="matrix(-0.4,0,0,-0.4,-4,0)" />
    </marker>
    <marker
       style="overflow:visible"
       id="DotS-4"
       refX="0"
       refY="0"
       orient="auto"
       inkscape:stockid="DotS">
      <path
         transform="matrix(0.2,0,0,0.2,1.48,0.2)"
         style="fill-rule:evenodd;stroke:#000000;stroke-width:1pt;marker-start:none;marker-end:none"
         d="m -2.5,-1 c 0,2.76 -2.24,5 -5,5 -2.76,0 -5,-2.24 -5,-5 0,-2.76 2.24,-5 5,-5 2.76,0 5,2.24 5,5 z"
         id="path4091-0"
         inkscape:connector-curvature="0" />
    </marker>
    <marker
       style="overflow:visible"
       id="DotS-43"
       refX="0"
       refY="0"
       orient="auto"
       inkscape:stockid="DotS">
      <path
         transform="matrix(0.2,0,0,0.2,1.48,0.2)"
         style="fill-rule:evenodd;stroke:#000000;stroke-width:1pt;marker-start:none;marker-end:none"
         d="m -2.5,-1 c 0,2.76 -2.24,5 -5,5 -2.76,0 -5,-2.24 -5,-5 0,-2.76 2.24,-5 5,-5 2.76,0 5,2.24 5,5 z"
         id="path4091-01"
         inkscape:connector-curvature="0" />
    </marker>
    <marker
       style="overflow:visible"
       id="DotS-2"
       refX="0"
       refY="0"
       orient="auto"
       inkscape:stockid="DotS">
      <path
         transform="matrix(0.2,0,0,0.2,1.48,0.2)"
         style="fill-rule:evenodd;stroke:#000000;stroke-width:1pt;marker-start:none;marker-end:none"
         d="m -2.5,-1 c 0,2.76 -2.24,5 -5,5 -2.76,0 -5,-2.24 -5,-5 0,-2.76 2.24,-5 5,-5 2.76,0 5,2.24 5,5 z"
         id="path4091-4"
         inkscape:connector-curvature="0" />
    </marker>
    <marker
       style="overflow:visible"
       id="DotS-9"
       refX="0"
       refY="0"
       orient="auto"
       inkscape:stockid="DotS">
      <path
         transform="matrix(0.2,0,0,0.2,1.48,0.2)"
         style="fill-rule:evenodd;stroke:#000000;stroke-width:1pt;marker-start:none;marker-end:none"
         d="m -2.5,-1 c 0,2.76 -2.24,5 -5,5 -2.76,0 -5,-2.24 -5,-5 0,-2.76 2.24,-5 5,-5 2.76,0 5,2.24 5,5 z"
         id="path4091-5"
         inkscape:connector-curvature="0" />
    </marker>
  </defs>
  <metadata
     id="metadata6">
    <rdf:RDF>
      <cc:Work
         rdf:about="">
        <dc:format>image/svg+xml</dc:format>
        <dc:type
           rdf:resource="http://purl.org/dc/dcmitype/StillImage" />
        <dc:title />
      </cc:Work>
    </rdf:RDF>
  </metadata>
  <g
     inkscape:label="Vrstva 1"
     inkscape:groupmode="layer"
     id="layer1"
     transform="translate(0,-942.36218)">
    <g
       style="fill:#692000;fill-opacity:0.22968199;display:inline"
       id="g5936"
       transform="matrix(0.65255229,0,0,0.65255229,-109.08223,879.81475)">
      <path
         transform="translate(-6.5271445,-16.390366)"
         d="m 218.7317,199.83438 c 0,6.4086 -5.1952,11.6038 -11.6038,11.6038 -6.4086,0 -11.6038,-5.1952 -11.6038,-11.6038 0,-6.4086 5.1952,-11.6038 11.6038,-11.6038 6.4086,0 11.6038,5.1952 11.6038,11.6038 z"
         sodipodi:ry="11.603804"
         sodipodi:rx="11.603804"
         sodipodi:cy="199.83438"
         sodipodi:cx="207.1279"
         id="path5859"
         style="fill:#692000;fill-opacity:0.22968199;stroke:#000000;stroke-width:1.53244424;stroke-miterlimit:4;stroke-opacity:1;stroke-dasharray:none;stroke-dashoffset:0"
         sodipodi:type="arc" />
      <path
         inkscape:connector-curvature="0"
         id="path5926"
         d="m 192.51436,175.03126 16.24532,16.24532"
         style="fill:#692000;fill-opacity:0.22968199;stroke:#000000;stroke-width:1.53244424px;stroke-linecap:butt;stroke-linejoin:miter;stroke-opacity:1" />
      <path
         inkscape:connector-curvature="0"
         id="path5928"
         d="m 192.22425,191.42163 16.39038,-16.24532"
         style="fill:#692000;fill-opacity:0.22968199;stroke:#000000;stroke-width:1.53244424px;stroke-linecap:butt;stroke-linejoin:miter;stroke-opacity:1" />
    </g>
    <path
       inkscape:connector-curvature="0"
       id="path6037-6"
       d="m 75.790766,1036.5379 4.280688,-0.02 -2.247789,4.8391 z"
       style="fill:#000098;fill-opacity:1;stroke:#000098;stroke-width:1px;stroke-linecap:butt;stroke-linejoin:miter;stroke-opacity:1;display:inline" />
    <g
       id="g4390"
       transform="matrix(0.62851359,0,0,0.62851359,12.311047,428.67084)">
      <path
         transform="matrix(1.0382469,0,0,1.0382469,-23.151995,700.41739)"
         d="m 218.7317,199.83438 c 0,6.4086 -5.1952,11.6038 -11.6038,11.6038 -6.4086,0 -11.6038,-5.1952 -11.6038,-11.6038 0,-6.4086 5.1952,-11.6038 11.6038,-11.6038 6.4086,0 11.6038,5.1952 11.6038,11.6038 z"
         sodipodi:ry="11.603804"
         sodipodi:rx="11.603804"
         sodipodi:cy="199.83438"
         sodipodi:cx="207.1279"
         id="path5859-4"
         style="fill:#692000;fill-opacity:0.22968199;stroke:#000000;stroke-width:1.53244424;stroke-miterlimit:4;stroke-opacity:1;stroke-dasharray:none;stroke-dashoffset:0"
         sodipodi:type="arc" />
      <path
         transform="translate(17.29692,761.60068)"
         d="m 175.58006,146.07657 c 0,0.51068 -0.41399,0.92468 -0.92468,0.92468 -0.51069,0 -0.92468,-0.414 -0.92468,-0.92468 0,-0.51069 0.41399,-0.92468 0.92468,-0.92468 0.51069,0 0.92468,0.41399 0.92468,0.92468 z"
         sodipodi:ry="0.92467809"
         sodipodi:rx="0.92467809"
         sodipodi:cy="146.07657"
         sodipodi:cx="174.65538"
         id="path4385"
         style="fill:#000000;fill-opacity:1;stroke:#000000;stroke-width:6.36422205;stroke-miterlimit:4;stroke-opacity:1;stroke-dasharray:none;stroke-dashoffset:0"
         sodipodi:type="arc" />
    </g>
    <path
       style="fill:none;stroke:#000098;stroke-width:1px;stroke-linecap:butt;stroke-linejoin:miter;stroke-opacity:1"
       d="m 77.81743,944.23842 -0.0221,107.48028"
       id="path4394"
       inkscape:connector-curvature="0" />
    <path
       style="fill:none;stroke:#000098;stroke-width:1px;stroke-linecap:butt;stroke-linejoin:miter;stroke-opacity:1"
       d="m 32.431395,943.03035 c 31.086735,35.3446 35.251725,75.51305 0.46076,106.64175"
       id="path4396"
       inkscape:connector-curvature="0"
       sodipodi:nodetypes="cc" />
    <path
       style="fill:none;stroke:#000098;stroke-width:1px;stroke-linecap:butt;stroke-linejoin:miter;stroke-opacity:1"
       d="m 4.972938,945.52793 c 58.500722,28.38232 63.100852,72.03187 0.46076,104.90117"
       id="path4396-7"
       inkscape:connector-curvature="0"
       sodipodi:nodetypes="cc" />
    <path
       sodipodi:type="arc"
       style="fill:none;stroke:#000098;stroke-width:1.1836735;stroke-miterlimit:4;stroke-opacity:1;stroke-dasharray:none;stroke-dashoffset:0"
       id="path4434"
       sodipodi:cx="72.668823"
       sodipodi:cy="142.0515"
       sodipodi:rx="25.238274"
       sodipodi:ry="25.238274"
       d="m 97.907097,142.0515 c 0,13.93871 -11.29956,25.23827 -25.238274,25.23827 -13.938713,0 -25.238273,-11.29956 -25.238273,-25.23827 0,-13.93872 11.29956,-25.23828 25.238273,-25.23828 13.938714,0 25.238274,11.29956 25.238274,25.23828 z"
       transform="matrix(0.84482759,0,0,0.84482759,-39.066952,878.97365)" />
    <path
       style="fill:none;stroke:#000098;stroke-width:1px;stroke-linecap:butt;stroke-linejoin:miter;stroke-opacity:1"
       d="m 50.39521,943.43594 c 20.6433,43.61231 22.19744,67.68046 0.46076,106.64176"
       id="path4396-79"
       inkscape:connector-curvature="0"
       sodipodi:nodetypes="cc" />
    <path
       inkscape:connector-curvature="0"
       id="path6037-6-1"
       d="m 56.317455,1034.996 3.877811,1.8132 -4.10179,3.4125 z"
       style="fill:#000098;fill-opacity:1;stroke:#000098;stroke-width:1px;stroke-linecap:butt;stroke-linejoin:miter;stroke-opacity:1;display:inline" />
    <path
       inkscape:connector-curvature="0"
       id="path6037-6-1-3"
       d="m 46.487756,1030.5725 3.531059,2.4201 -4.602433,2.6995 z"
       style="fill:#000098;fill-opacity:1;stroke:#000098;stroke-width:1px;stroke-linecap:butt;stroke-linejoin:miter;stroke-opacity:1;display:inline" />
    <path
       inkscape:connector-curvature="0"
       id="path6037-6-1-4"
       d="m 36.350641,1025.0019 3.176993,2.8691 -4.921179,2.062 z"
       style="fill:#000098;fill-opacity:1;stroke:#000098;stroke-width:1px;stroke-linecap:butt;stroke-linejoin:miter;stroke-opacity:1;display:inline" />
    <path
       inkscape:connector-curvature="0"
       id="path6037-6-1-0"
       d="m 30.093449,1016.2467 1.637006,3.9553 -5.329795,-0.2511 z"
       style="fill:#000098;fill-opacity:1;stroke:#000098;stroke-width:1px;stroke-linecap:butt;stroke-linejoin:miter;stroke-opacity:1;display:inline" />
    <path
       style="fill:none;stroke:#000098;stroke-width:1px;stroke-linecap:butt;stroke-linejoin:miter;stroke-opacity:1"
       d="m 122.92072,942.90623 c -31.086702,35.3446 -35.251692,75.51297 -0.46076,106.64167"
       id="path4396-2"
       inkscape:connector-curvature="0"
       sodipodi:nodetypes="cc" />
    <path
       style="fill:none;stroke:#000098;stroke-width:1px;stroke-linecap:butt;stroke-linejoin:miter;stroke-opacity:1"
       d="m 150.37918,945.40381 c -58.500692,28.38232 -63.100822,72.03179 -0.46076,104.90109"
       id="path4396-7-3"
       inkscape:connector-curvature="0"
       sodipodi:nodetypes="cc" />
    <path
       sodipodi:type="arc"
       style="fill:none;stroke:#000098;stroke-width:1.1836735;stroke-miterlimit:4;stroke-opacity:1;stroke-dasharray:none;stroke-dashoffset:0"
       id="path4434-2"
       sodipodi:cx="72.668823"
       sodipodi:cy="142.0515"
       sodipodi:rx="25.238274"
       sodipodi:ry="25.238274"
       d="m 97.907097,142.0515 c 0,13.93871 -11.29956,25.23827 -25.238274,25.23827 -13.938713,0 -25.238273,-11.29956 -25.238273,-25.23827 0,-13.93872 11.29956,-25.23828 25.238273,-25.23828 13.938714,0 25.238274,11.29956 25.238274,25.23828 z"
       transform="matrix(-0.84482759,0,0,0.84482759,194.41907,878.84953)" />
    <path
       style="fill:none;stroke:#000098;stroke-width:1px;stroke-linecap:butt;stroke-linejoin:miter;stroke-opacity:1"
       d="m 104.95691,943.31182 c -20.643272,43.61231 -22.197412,67.68038 -0.46076,106.64168"
       id="path4396-79-5"
       inkscape:connector-curvature="0"
       sodipodi:nodetypes="cc" />
    <path
       inkscape:connector-curvature="0"
       id="path6037-6-1-1"
       d="m 99.03466,1034.8718 -3.8778,1.8132 4.10178,3.4125 z"
       style="fill:#000098;fill-opacity:1;stroke:#000098;stroke-width:1px;stroke-linecap:butt;stroke-linejoin:miter;stroke-opacity:1;display:inline" />
    <path
       inkscape:connector-curvature="0"
       id="path6037-6-1-3-9"
       d="m 108.86436,1030.4483 -3.53106,2.4201 4.60243,2.6995 z"
       style="fill:#000098;fill-opacity:1;stroke:#000098;stroke-width:1px;stroke-linecap:butt;stroke-linejoin:miter;stroke-opacity:1;display:inline" />
    <path
       inkscape:connector-curvature="0"
       id="path6037-6-1-4-1"
       d="m 119.00147,1024.8777 -3.17699,2.8691 4.92118,2.062 z"
       style="fill:#000098;fill-opacity:1;stroke:#000098;stroke-width:1px;stroke-linecap:butt;stroke-linejoin:miter;stroke-opacity:1;display:inline" />
    <path
       inkscape:connector-curvature="0"
       id="path6037-6-1-0-6"
       d="m 125.25867,1016.1225 -1.63701,3.9553 5.3298,-0.2511 z"
       style="fill:#000098;fill-opacity:1;stroke:#000098;stroke-width:1px;stroke-linecap:butt;stroke-linejoin:miter;stroke-opacity:1;display:inline" />
  </g>
</svg>
