<?xml version="1.0" encoding="UTF-8" standalone="no"?>
<!-- Created with Inkscape (http://www.inkscape.org/) -->

<svg
   xmlns:ns0="http://www.iki.fi/pav/software/textext/"
   xmlns:dc="http://purl.org/dc/elements/1.1/"
   xmlns:cc="http://creativecommons.org/ns#"
   xmlns:rdf="http://www.w3.org/1999/02/22-rdf-syntax-ns#"
   xmlns:svg="http://www.w3.org/2000/svg"
   xmlns="http://www.w3.org/2000/svg"
   xmlns:sodipodi="http://sodipodi.sourceforge.net/DTD/sodipodi-0.dtd"
   xmlns:inkscape="http://www.inkscape.org/namespaces/inkscape"
   id="svg2"
   version="1.1"
   inkscape:version="0.48.1 "
   width="170"
   height="283"
   xml:space="preserve"
   sodipodi:docname="mag_char_fer.svg"><sodipodi:namedview
     pagecolor="#ffffff"
     bordercolor="#666666"
     borderopacity="1"
     objecttolerance="10"
     gridtolerance="10"
     guidetolerance="10"
     inkscape:pageopacity="0"
     inkscape:pageshadow="2"
     inkscape:window-width="1831"
     inkscape:window-height="1173"
     id="namedview4"
     showgrid="false"
     inkscape:zoom="2.8284271"
     inkscape:cx="81.757817"
     inkscape:cy="115.30856"
     inkscape:window-x="80"
     inkscape:window-y="-9"
     inkscape:window-maximized="1"
     inkscape:current-layer="g10" /><metadata
     id="metadata8"><rdf:RDF><cc:Work
         rdf:about=""><dc:format>image/svg+xml</dc:format><dc:type
           rdf:resource="http://purl.org/dc/dcmitype/StillImage" /><dc:title /></cc:Work></rdf:RDF></metadata><defs
     id="defs6"><marker
       inkscape:stockid="DotM"
       orient="auto"
       refY="0.0"
       refX="0.0"
       id="DotM"
       style="overflow:visible"><path
         id="path3886"
         d="M -2.5,-1.0 C -2.5,1.7600000 -4.7400000,4.0 -7.5,4.0 C -10.260000,4.0 -12.5,1.7600000 -12.5,-1.0 C -12.5,-3.7600000 -10.260000,-6.0 -7.5,-6.0 C -4.7400000,-6.0 -2.5,-3.7600000 -2.5,-1.0 z "
         style="fill-rule:evenodd;stroke:#000000;stroke-width:1.0pt;marker-start:none;marker-end:none"
         transform="scale(0.4) translate(7.4, 1)" /></marker><marker
       inkscape:stockid="DotL"
       orient="auto"
       refY="0.0"
       refX="0.0"
       id="DotL"
       style="overflow:visible"><path
         id="path3883"
         d="M -2.5,-1.0 C -2.5,1.7600000 -4.7400000,4.0 -7.5,4.0 C -10.260000,4.0 -12.5,1.7600000 -12.5,-1.0 C -12.5,-3.7600000 -10.260000,-6.0 -7.5,-6.0 C -4.7400000,-6.0 -2.5,-3.7600000 -2.5,-1.0 z "
         style="fill-rule:evenodd;stroke:#000000;stroke-width:1.0pt;marker-start:none;marker-end:none"
         transform="scale(0.8) translate(7.4, 1)" /></marker><clipPath
       clipPathUnits="userSpaceOnUse"
       id="clipPath62"><path
         d="m 0,0 465.43,0 0,287.58 L 0,287.58 0,0 z"
         id="path64"
         inkscape:connector-curvature="0" /></clipPath><clipPath
       clipPathUnits="userSpaceOnUse"
       id="clipPath88"><path
         d="m 0,0 325.91,0 0,465.43 L 0,465.43 0,0 z"
         id="path90"
         inkscape:connector-curvature="0" /></clipPath><clipPath
       clipPathUnits="userSpaceOnUse"
       id="clipPath98"><path
         d="m 0,-0.40549 325.76,0 0,465.83 -325.76,0 0,-465.83 z"
         clip-rule="evenodd"
         id="path100"
         inkscape:connector-curvature="0" /></clipPath><clipPath
       clipPathUnits="userSpaceOnUse"
       id="clipPath110"><path
         d="m 0,-0.40549 325.76,0 0,465.83 -325.76,0 0,-465.83 z"
         clip-rule="evenodd"
         id="path112"
         inkscape:connector-curvature="0" /></clipPath><clipPath
       clipPathUnits="userSpaceOnUse"
       id="clipPath122"><path
         d="m 0,-0.40549 325.76,0 0,465.83 -325.76,0 0,-465.83 z"
         clip-rule="evenodd"
         id="path124"
         inkscape:connector-curvature="0" /></clipPath><clipPath
       clipPathUnits="userSpaceOnUse"
       id="clipPath134"><path
         d="m 0,-0.40549 325.76,0 0,465.83 -325.76,0 0,-465.83 z"
         clip-rule="evenodd"
         id="path136"
         inkscape:connector-curvature="0" /></clipPath><clipPath
       clipPathUnits="userSpaceOnUse"
       id="clipPath150"><path
         d="m 0,0 284.78,0 0,465.43 L 0,465.43 0,0 z"
         id="path152"
         inkscape:connector-curvature="0" /></clipPath></defs><g
     id="g10"
     inkscape:groupmode="layer"
     inkscape:label="skici"
     transform="matrix(1.25,0,0,-1.25,0,283)"><path
   d="m 5.9698292,157.51186 120.7500008,0"
   style="fill:none;stroke:#000000;stroke-width:0.72000003;stroke-linecap:round;stroke-linejoin:round;stroke-miterlimit:10;stroke-opacity:1;stroke-dasharray:none"
   id="path12"
   inkscape:connector-curvature="0" /><path
   d="m 125.96983,160.51186 7.5,-3 -7.5,-2.25 0,5.25 z"
   style="fill:#000000;fill-opacity:1;fill-rule:evenodd;stroke:none"
   id="path14"
   inkscape:connector-curvature="0" /><path
   d="m 58.469826,210.76186 0,-198.750002"
   style="fill:none;stroke:#000000;stroke-width:0.72000003;stroke-linecap:round;stroke-linejoin:round;stroke-miterlimit:10;stroke-opacity:1;stroke-dasharray:none"
   id="path16"
   inkscape:connector-curvature="0" /><path
   d="m 55.469826,210.01186 3,7.5 2.25,-7.5 -5.25,0 z"
   style="fill:#000000;fill-opacity:1;fill-rule:evenodd;stroke:none"
   id="path18"
   inkscape:connector-curvature="0" /><path
   sodipodi:nodetypes="cc"
   d="M 84.80269,187.26327 30.719829,125.26186"
   style="fill:none;stroke:#000000;stroke-width:1.20000005;stroke-linecap:round;stroke-linejoin:round;stroke-miterlimit:10;stroke-opacity:1;stroke-dasharray:none"
   id="path20"
   inkscape:connector-curvature="0" /><path
   sodipodi:nodetypes="cac"
   d="m 84.879826,187.29186 c 2.278544,2.52243 4.379931,3.47076 6.985146,4.30146 6.062725,1.93315 13.543938,1.2578 19.049618,1.24718"
   style="fill:none;stroke:#000000;stroke-width:1.20000005;stroke-linecap:round;stroke-linejoin:round;stroke-miterlimit:10;stroke-opacity:1;stroke-dasharray:none"
   id="path22"
   inkscape:connector-curvature="0" /><path
   sodipodi:nodetypes="caac"
   d="m 30.599829,125.13186 c -1.310413,-1.22364 -3.246949,-2.44899 -5,-3.47 -1.077029,-0.62728 -2.164763,-1.30238 -3.37,-1.62 -5.240315,-1.38099 -8.910469,-1.01047 -16.2209373,-1.0925"
   style="fill:none;stroke:#000000;stroke-width:1.20000005;stroke-linecap:round;stroke-linejoin:round;stroke-miterlimit:10;stroke-opacity:1;stroke-dasharray:none"
   id="path24"
   inkscape:connector-curvature="0" /><path
   sodipodi:nodetypes="cc"
   d="M 3.1510792,19.880608 128.06358,19.793108"
   style="fill:none;stroke:#000000;stroke-width:0.72000003;stroke-linecap:round;stroke-linejoin:round;stroke-miterlimit:10;stroke-opacity:1;stroke-dasharray:none"
   id="path26"
   inkscape:connector-curvature="0" /><path
   d="m 127.46983,22.511858 7.5,-2.25 -7.5,-3 0,5.25 z"
   style="fill:#000000;fill-opacity:1;fill-rule:evenodd;stroke:none"
   id="path28"
   inkscape:connector-curvature="0" /><path
   sodipodi:nodetypes="cccccccccc"
   d="m 6.0955399,20.623875 c 6.5906351,0.292457 20.2277691,0.418917 21.1200001,7.02 l 0.75,18.75 c 0.322187,4.313731 2.400036,7.595996 5.754286,8.367983 l 47.941797,-0.0059 0.0041,0.0013 c 3.375313,-0.545625 6.524806,-3.821942 6.814806,-9.041942 l -0.01384,0.01524 0.0031,-17.21875 c 0.870884,-8.332439 16.595731,-8.452814 22.260011,-8.52"
   style="fill:none;stroke:#000000;stroke-width:1.20000005;stroke-linecap:round;stroke-linejoin:round;stroke-miterlimit:10;stroke-opacity:1;stroke-dasharray:none"
   id="path30"
   inkscape:connector-curvature="0" /><g
   id="g32"
   transform="translate(-1436.2802,-4160.9882)"><path
     d="m 1467,4286.25 0,-105"
     style="fill:none;stroke:#000000;stroke-width:0.72000003;stroke-linecap:round;stroke-linejoin:round;stroke-miterlimit:10;stroke-opacity:1;stroke-dasharray:0.72, 1.44;stroke-dashoffset:0"
     id="path34"
     inkscape:connector-curvature="0" /></g><g
   id="g36"
   transform="translate(-1436.2802,-4160.9882)"><path
     d="m 1521,4348.5 0,-167.25"
     style="fill:none;stroke:#000000;stroke-width:0.72000003;stroke-linecap:round;stroke-linejoin:round;stroke-miterlimit:10;stroke-opacity:1;stroke-dasharray:0.72, 1.44;stroke-dashoffset:0"
     id="path38"
     inkscape:connector-curvature="0" /></g><text
   transform="scale(1,-1)"
   id="text40"
   x="61.529827"
   y="-9.9018517"><tspan
     style="font-size:10.00008011px;font-variant:normal;font-weight:normal;writing-mode:lr-tb;fill:#000000;fill-opacity:1;fill-rule:nonzero;stroke:none;font-family:ARIAL;-inkscape-font-specification:ARIAL"
     x="61.529827"
     y="-9.9018517"
     id="tspan42">0</tspan></text>





<text
   transform="scale(1,-1)"
   id="text44"
   x="60.819836"
   y="-148.21185"><tspan
     style="font-size:10.00008011px;font-variant:normal;font-weight:normal;writing-mode:lr-tb;fill:#000000;fill-opacity:1;fill-rule:nonzero;stroke:none;font-family:ARIAL;-inkscape-font-specification:ARIAL"
     x="60.819836"
     y="-148.21185"
     id="tspan46">0</tspan></text>





<text
   transform="scale(1,-1)"
   id="text48"
   x="123.29983"
   y="-144.18185"><tspan
     style="font-size:13.99967957px;font-style:italic;font-variant:normal;font-weight:normal;writing-mode:lr-tb;fill:#000000;fill-opacity:1;fill-rule:nonzero;stroke:none;font-family:GARAMOND;-inkscape-font-specification:GARAMOND Italic"
     x="123.29983"
     y="-144.18185"
     id="tspan50">i</tspan></text>





<text
   transform="scale(1,-1)"
   id="text52"
   x="125.06983"
   y="-5.8618579"><tspan
     style="font-size:13.99967957px;font-style:italic;font-variant:normal;font-weight:normal;writing-mode:lr-tb;fill:#000000;fill-opacity:1;fill-rule:nonzero;stroke:none;font-family:GARAMOND;-inkscape-font-specification:GARAMOND Italic"
     x="125.06983"
     y="-5.8618579"
     id="tspan54">i</tspan></text>





<path
   d="m 72.719826,90.011858 11.25,0 0,18.000002 -11.25,0 0,-18.000002 z"
   style="fill:#ffffff;fill-opacity:1;fill-rule:evenodd;stroke:none"
   id="path142"
   inkscape:connector-curvature="0" /><flowRoot
   xml:space="preserve"
   id="flowRoot3137"
   style="fill:black;stroke:none;stroke-opacity:1;stroke-width:1px;stroke-linejoin:miter;stroke-linecap:butt;fill-opacity:1;font-family:Sans;font-style:normal;font-weight:normal;font-size:40px;line-height:125%;letter-spacing:0px;word-spacing:0px"><flowRegion
     id="flowRegion3139"><rect
       id="rect3141"
       width="35627.586"
       height="24222.414"
       x="-14745.259"
       y="-13647.604" /></flowRegion><flowPara
     id="flowPara3143" /></flowRoot><flowRoot
   xml:space="preserve"
   id="flowRoot3145"
   style="fill:black;stroke:none;stroke-opacity:1;stroke-width:1px;stroke-linejoin:miter;stroke-linecap:butt;fill-opacity:1;font-family:Sans;font-style:normal;font-weight:normal;font-size:40px;line-height:125%;letter-spacing:0px;word-spacing:0px"><flowRegion
     id="flowRegion3147"><rect
       id="rect3149"
       width="178600"
       height="92100"
       x="-101500"
       y="-46717" /></flowRegion><flowPara
     id="flowPara3151" /></flowRoot><flowRoot
   xml:space="preserve"
   id="flowRoot3153"
   style="fill:black;stroke:none;stroke-opacity:1;stroke-width:1px;stroke-linejoin:miter;stroke-linecap:butt;fill-opacity:1;font-family:Sans;font-style:normal;font-weight:normal;font-size:40px;line-height:125%;letter-spacing:0px;word-spacing:0px"><flowRegion
     id="flowRegion3155"><rect
       id="rect3157"
       width="129.82039"
       height="94.46505"
       x="85.073784"
       y="8.4436941" /></flowRegion><flowPara
     id="flowPara3159" /></flowRoot>
<g
   ns0:preamble=""
   ns0:text="$\\Psi(i)$\n"
   word-spacing="normal"
   letter-spacing="normal"
   font-size-adjust="none"
   font-stretch="normal"
   font-weight="normal"
   font-variant="normal"
   font-style="normal"
   stroke-miterlimit="10.433"
   xml:space="preserve"
   transform="matrix(0.96521758,0,0,0.96521758,-152.80873,-468.49091)"
   id="content"
   style="font-style:normal;font-variant:normal;font-weight:normal;font-stretch:normal;letter-spacing:normal;word-spacing:normal;text-anchor:start;fill:none;stroke:#000000;stroke-linecap:butt;stroke-linejoin:miter;stroke-miterlimit:10.43299961;stroke-opacity:1;stroke-dasharray:none;stroke-dashoffset:0">
<path
   id="path3381"
   d="m 227.69,713.14 0,0.03 0,0.03 0,0.03 0,0.02 0,0.03 0,0.03 0.01,0.02 0,0.02 0.01,0.03 0.01,0.02 0.01,0.02 0.01,0.02 0.01,0.01 0.02,0.02 0.02,0.02 0.02,0.01 0.02,0.02 0.01,0 0.02,0.01 0.01,0.01 0.02,0 0.01,0.01 0.02,0 0.02,0.01 0.02,0 0.02,0.01 0.02,0 0.02,0.01 0.02,0 0.02,0 0.03,0.01 0.02,0 0.03,0 0.03,0.01 0.03,0 0.03,0 0.03,0 0.03,0.01 0.03,0 0.04,0 0.03,0 0.04,0 0.04,0 0.04,0 0.04,0 0.04,0 0.04,0 h 0.33 v 0.31 c -0.35,-0.03 -1.27,-0.03 -1.68,-0.03 -0.41,0 -1.34,0 -1.69,0.03 v -0.31 h 0.32 c 0.95,0 0.95,-0.13 0.95,-0.47 v -4.42 c -1.31,0.35 -1.35,1.88 -1.35,2.52 -0.02,1.21 -0.45,1.4 -0.89,1.4 h -0.37 c -0.15,0 -0.25,0 -0.25,-0.11 0,-0.05 0.03,-0.1 0.09,-0.11 0.33,-0.04 0.58,-0.18 0.59,-1.35 0,-0.23 0.03,-1.02 0.51,-1.69 0.38,-0.53 0.99,-0.82 1.67,-0.91 v -0.56 c 0,-0.34 0,-0.48 -0.95,-0.48 h -0.32 v -0.3 c 0.35,0.03 1.27,0.03 1.68,0.03 0.41,0 1.34,0 1.69,-0.03 v 0.3 h -0.33 c -0.94,0 -0.94,0.13 -0.94,0.48 v 0.56 c 0.72,0.09 1.32,0.39 1.71,0.9 0.52,0.71 0.53,1.5 0.53,1.93 0,0.16 0.01,1.05 0.55,1.12 0.06,0.01 0.13,0.02 0.13,0.11 0,0.11 -0.08,0.11 -0.24,0.11 h -0.38 c -0.39,0 -0.88,-0.07 -0.89,-1.51 -0.01,-1.1 -0.34,-2.15 -1.41,-2.41 z"
   inkscape:connector-curvature="0"
   style="fill:#000000;stroke-width:0" />
<path
   id="path3383"
   d="m 234.48,704.74 0,0 0,0.01 0,0 0,0 0,0.01 0,0 0,0 -0.01,0.01 0,0 0,0 0,0.01 0,0 -0.01,0.01 0,0 -0.01,0.01 0,0.01 -0.01,0 0,0.01 0,0 -0.01,0.01 0,0 0,0.01 -0.01,0 0,0 -0.01,0.01 0,0 -0.01,0.01 0,0 -0.01,0.01 0,0 -0.01,0.01 0,0.01 -0.01,0 0,0.01 -0.01,0 -0.01,0.01 0,0.01 -0.01,0.01 -0.01,0 0,0.01 -0.01,0.01 -0.01,0.01 c -1.24,1.25 -1.56,3.13 -1.56,4.65 0,1.73 0.38,3.47 1.6,4.71 0.13,0.12 0.13,0.14 0.13,0.17 0,0.07 -0.04,0.1 -0.1,0.1 -0.1,0 -1,-0.68 -1.58,-1.94 -0.51,-1.1 -0.63,-2.2 -0.63,-3.04 0,-0.77 0.11,-1.98 0.66,-3.1 0.59,-1.23 1.45,-1.87 1.55,-1.87 0.06,0 0.1,0.03 0.1,0.1 z"
   inkscape:connector-curvature="0"
   style="fill:#000000;stroke-width:0" />
<path
   id="path3385"
   d="m 237.89,713.34 0,0.02 -0.01,0.02 0,0.02 0,0.02 0,0.01 -0.01,0.02 0,0.02 -0.01,0.02 -0.01,0.01 0,0.02 -0.01,0.01 -0.01,0.02 -0.01,0.01 -0.01,0.01 -0.01,0.02 -0.01,0.01 -0.01,0.01 -0.02,0.01 -0.01,0.01 -0.02,0.01 -0.01,0.01 -0.02,0.01 -0.01,0.01 -0.02,0.01 -0.02,0 -0.01,0.01 -0.02,0 -0.02,0.01 -0.02,0 -0.02,0 -0.02,0 -0.02,0 c -0.27,0 -0.54,-0.25 -0.54,-0.52 0,-0.19 0.14,-0.36 0.38,-0.36 0.23,0 0.53,0.23 0.53,0.52 z"
   inkscape:connector-curvature="0"
   style="fill:#000000;stroke-width:0" />
<path
   id="path3387"
   d="m 237.13,709.6 0.01,0.03 0.01,0.02 0.01,0.03 0.01,0.02 0.01,0.02 0,0.02 0.01,0.02 0.01,0.02 0.01,0.01 0,0.02 0.01,0.02 0,0.01 0.01,0.02 0.01,0.01 0.01,0.03 0.01,0.03 0.01,0.03 0,0.01 0.01,0.02 0,0.01 0.01,0.02 0,0.01 0.01,0.02 0.01,0.02 0,0.02 0.01,0.02 0.01,0.02 0.01,0.03 0.01,0.02 c 0.08,0.2 0.13,0.34 0.13,0.53 0,0.45 -0.32,0.81 -0.82,0.81 -0.94,0 -1.32,-1.44 -1.32,-1.53 0,-0.1 0.1,-0.1 0.12,-0.1 0.1,0 0.11,0.02 0.16,0.18 0.27,0.94 0.67,1.23 1.01,1.23 0.08,0 0.25,0 0.25,-0.31 0,-0.21 -0.07,-0.42 -0.11,-0.52 -0.08,-0.26 -0.53,-1.41 -0.69,-1.84 -0.1,-0.26 -0.23,-0.59 -0.23,-0.8 0,-0.47 0.34,-0.81 0.82,-0.81 0.94,0 1.31,1.44 1.31,1.53 0,0.1 -0.09,0.1 -0.12,0.1 -0.1,0 -0.1,-0.03 -0.15,-0.18 -0.18,-0.63 -0.51,-1.24 -1.02,-1.24 -0.17,0 -0.24,0.1 -0.24,0.33 0,0.25 0.06,0.39 0.29,1 z"
   inkscape:connector-curvature="0"
   style="fill:#000000;stroke-width:0" />
<path
   id="path3389"
   d="m 241.37,709.61 0,0.08 0,0.07 -0.01,0.08 0,0.08 -0.01,0.17 -0.01,0.18 -0.01,0.18 -0.03,0.19 -0.02,0.2 -0.04,0.19 -0.03,0.21 -0.05,0.21 -0.05,0.21 -0.07,0.21 -0.07,0.21 -0.07,0.21 -0.05,0.11 -0.04,0.11 -0.05,0.1 -0.05,0.11 c -0.6,1.22 -1.45,1.87 -1.56,1.87 -0.05,0 -0.1,-0.04 -0.1,-0.1 0,-0.03 0,-0.05 0.19,-0.23 0.98,-0.98 1.55,-2.57 1.55,-4.65 0,-1.7 -0.37,-3.45 -1.61,-4.7 -0.13,-0.12 -0.13,-0.14 -0.13,-0.17 0,-0.06 0.05,-0.1 0.1,-0.1 0.11,0 1,0.67 1.59,1.94 0.51,1.09 0.63,2.2 0.63,3.03 z"
   inkscape:connector-curvature="0"
   style="fill:#000000;stroke-width:0" />
</g>

<g
   ns0:preamble=""
   ns0:text="$\\frac{\\partial\\Psi(i)}{\\partial i}$\n"
   word-spacing="normal"
   letter-spacing="normal"
   font-size-adjust="none"
   font-stretch="normal"
   font-weight="normal"
   font-variant="normal"
   font-style="normal"
   stroke-miterlimit="10.433"
   xml:space="preserve"
   transform="matrix(1.5441396,0,0,1.5564081,-250.60467,-1032.5145)"
   id="g3657"
   style="font-style:normal;font-variant:normal;font-weight:normal;font-stretch:normal;letter-spacing:normal;word-spacing:normal;text-anchor:start;fill:none;stroke:#000000;stroke-width:0.69330829;stroke-linecap:butt;stroke-linejoin:miter;stroke-miterlimit:10.43299961;stroke-opacity:1;stroke-dasharray:none;stroke-dashoffset:0">
<path
   id="path3659"
   d="m 228.28,714.21 -0.01,0.03 -0.01,0.04 -0.01,0.04 -0.01,0.04 -0.02,0.04 -0.01,0.03 -0.02,0.04 -0.02,0.04 -0.02,0.03 -0.02,0.04 -0.03,0.03 -0.02,0.03 -0.03,0.04 -0.03,0.03 -0.03,0.03 -0.03,0.03 -0.03,0.03 -0.04,0.02 -0.03,0.03 -0.04,0.02 -0.04,0.03 -0.04,0.02 -0.05,0.02 -0.04,0.02 -0.05,0.01 -0.05,0.02 -0.05,0.01 -0.05,0.01 -0.06,0.01 -0.05,0 -0.06,0.01 -0.06,0 0.03,-0.2 c 0.67,0 0.9,-0.53 0.9,-0.94 0,-0.47 -0.46,-1.95 -1.63,-1.95 h 0 c -0.78,0 -0.87,0.59 -0.87,0.81 0,0.27 0.18,0.95 0.25,1.12 0.13,0.32 0.56,0.96 1.35,0.96 l -0.03,0.2 c -0.98,0 -1.78,-0.73 -2.04,-1.36 -0.04,-0.12 -0.13,-0.4 -0.13,-0.68 0,-0.48 0.37,-1.27 1.46,-1.27 1.8,0 2.53,2.24 2.53,3.23 0,1.19 -0.78,1.87 -1.71,1.87 -1.13,0 -1.45,-0.9 -1.45,-1.12 0,-0.05 0.04,-0.25 0.28,-0.25 0.24,0 0.39,0.22 0.39,0.38 0,0.19 -0.14,0.26 -0.27,0.27 0.35,0.52 0.92,0.52 1.04,0.52 0.52,0 1.14,-0.33 1.14,-1.31 0,-0.3 -0.04,-0.55 -0.17,-1.1 z"
   inkscape:connector-curvature="0"
   style="fill:#000000;stroke-width:0" />
<path
   id="path3661"
   d="m 232.65,716.04 0,0.02 0,0.02 0,0.02 0,0.02 0,0.01 0,0.02 0,0.02 0.01,0.01 0,0.02 0.01,0.01 0,0.02 0.01,0.01 0.01,0.01 0.01,0.01 0.01,0.01 0.02,0.01 0.02,0.01 0,0.01 0.01,0 0.01,0 0.01,0.01 0.02,0 0.01,0.01 0.01,0 0.01,0 0.02,0 0.01,0.01 0.01,0 0.02,0 0.02,0.01 0.01,0 0.02,0 0.02,0 0.02,0 0.02,0.01 0.02,0 0.02,0 0.02,0 0.03,0 0.02,0 0.02,0 0.03,0 0.03,0 0.02,0.01 0.03,0 0.03,0 0.03,0 h 0.24 v 0.25 c -0.15,-0.01 -0.94,-0.03 -1.2,-0.03 -0.41,0 -1.13,0.02 -1.2,0.03 v -0.25 h 0.24 c 0.65,0 0.65,-0.09 0.65,-0.32 v -3 c -1.03,0.23 -1.07,1.25 -1.07,1.72 0,0.09 0,0.94 -0.7,0.94 H 230 c -0.1,0 -0.2,0 -0.2,-0.1 0,-0.09 0.08,-0.1 0.1,-0.1 0.44,-0.05 0.45,-0.68 0.45,-0.73 0,-0.29 0.01,-0.89 0.45,-1.38 0.26,-0.29 0.68,-0.5 1.23,-0.56 v -0.4 c 0,-0.23 0,-0.32 -0.65,-0.32 h -0.24 v -0.25 c 0.15,0 0.94,0.03 1.2,0.03 0.41,0 1.14,-0.03 1.2,-0.03 v 0.25 h -0.24 c -0.65,0 -0.65,0.09 -0.65,0.32 v 0.4 c 0.79,0.08 1.1,0.4 1.27,0.57 0.32,0.32 0.45,0.9 0.45,1.2 0,0.23 0.01,0.44 0.12,0.66 0.1,0.21 0.22,0.23 0.35,0.25 0.05,0 0.08,0.04 0.08,0.09 0,0.1 -0.09,0.1 -0.19,0.1 h -0.27 c -0.62,0 -0.7,-0.64 -0.7,-1.08 -0.01,-0.53 -0.19,-1.42 -1.11,-1.58 z"
   inkscape:connector-curvature="0"
   style="fill:#000000;stroke-width:0" />
<path
   id="path3663"
   d="m 237.9,717.07 -0.12,-0.09 -0.12,-0.09 -0.11,-0.09 -0.1,-0.1 -0.1,-0.1 -0.1,-0.1 -0.09,-0.11 -0.08,-0.1 -0.08,-0.11 -0.07,-0.11 -0.08,-0.11 -0.06,-0.11 -0.06,-0.12 -0.06,-0.11 -0.05,-0.12 -0.05,-0.11 -0.05,-0.12 -0.04,-0.12 -0.04,-0.11 -0.03,-0.12 -0.03,-0.11 -0.03,-0.12 -0.03,-0.11 -0.02,-0.12 -0.02,-0.11 -0.01,-0.11 -0.01,-0.11 -0.01,-0.11 -0.01,-0.11 -0.01,-0.1 0,-0.11 0,-0.1 c 0,-0.98 0.29,-2.5 1.67,-3.47 0.06,0 0.14,0 0.14,0.08 0,0.04 -0.02,0.06 -0.07,0.1 -0.93,0.84 -1.27,2.02 -1.27,3.28 0,1.88 0.72,2.8 1.29,3.32 0.03,0.02 0.05,0.04 0.05,0.08 0,0.08 -0.08,0.08 -0.14,0.08 z"
   inkscape:connector-curvature="0"
   style="fill:#000000;stroke-width:0" />
<path
   id="path3665"
   d="m 240.8,716.2 0,0.01 0,0.01 -0.01,0.02 0,0.01 0,0.01 0,0.01 -0.01,0.01 0,0.01 0,0.01 -0.01,0.01 0,0.01 -0.01,0.02 -0.01,0.01 0,0.01 -0.01,0.01 -0.01,0.01 -0.01,0.01 -0.01,0.01 -0.01,0 -0.01,0.01 -0.01,0.01 -0.01,0.01 -0.01,0.01 -0.02,0 -0.01,0.01 -0.01,0 -0.02,0.01 -0.01,0 -0.02,0 -0.02,0.01 -0.01,0 -0.02,0 c -0.19,0 -0.39,-0.18 -0.39,-0.38 0,-0.12 0.09,-0.27 0.28,-0.27 0.2,0 0.39,0.2 0.39,0.38 z"
   inkscape:connector-curvature="0"
   style="fill:#000000;stroke-width:0" />
<path
   id="path3667"
   d="m 239.38,712.67 -0.01,-0.02 0,-0.01 -0.02,-0.04 0,-0.01 -0.01,-0.02 0,-0.02 -0.01,-0.01 0,-0.02 0,-0.02 -0.01,-0.02 0,-0.02 0,-0.01 0,-0.01 0,-0.01 -0.01,-0.01 0,-0.01 0,-0.01 0,-0.01 0,-0.01 c 0,-0.33 0.28,-0.59 0.67,-0.59 0.69,0 1,0.96 1,1.06 0,0.09 -0.09,0.09 -0.11,0.09 -0.1,0 -0.11,-0.04 -0.14,-0.12 -0.16,-0.55 -0.46,-0.84 -0.73,-0.84 -0.14,0 -0.18,0.09 -0.18,0.25 0,0.16 0.05,0.29 0.11,0.44 0.07,0.19 0.15,0.38 0.23,0.56 0.06,0.16 0.31,0.8 0.34,0.88 0.02,0.07 0.04,0.15 0.04,0.22 0,0.33 -0.28,0.59 -0.66,0.59 -0.69,0 -1.01,-0.94 -1.01,-1.06 0,-0.09 0.09,-0.09 0.12,-0.09 0.09,0 0.1,0.03 0.12,0.11 0.18,0.6 0.49,0.85 0.75,0.85 0.11,0 0.17,-0.06 0.17,-0.25 0,-0.15 -0.04,-0.26 -0.21,-0.69 z"
   inkscape:connector-curvature="0"
   style="fill:#000000;stroke-width:0" />
<path
   id="path3669"
   d="m 241.99,717.07 -0.01,0 0,0 -0.01,0 0,0 -0.01,0 0,0 -0.01,0 -0.01,0 0,0 -0.01,0 0,0 -0.01,0 0,0 -0.01,0 0,-0.01 -0.01,0 0,0 -0.01,0 0,-0.01 -0.01,0 0,0 -0.01,0 0,-0.01 0,0 0,0 0,-0.01 -0.01,0 0,0 0,0 0,-0.01 0,0 0,0 0,0 0,-0.01 0,0 0,0 -0.01,-0.01 0,0 0,0 0,-0.01 0,0 c 0,-0.04 0.02,-0.06 0.07,-0.11 0.59,-0.54 1.26,-1.48 1.26,-3.28 0,-1.45 -0.45,-2.55 -1.2,-3.23 -0.12,-0.12 -0.13,-0.13 -0.13,-0.16 0,-0.04 0.02,-0.08 0.09,-0.08 0.09,0 0.75,0.46 1.21,1.32 0.31,0.58 0.51,1.33 0.51,2.14 0,0.99 -0.29,2.51 -1.67,3.48 z"
   inkscape:connector-curvature="0"
   style="fill:#000000;stroke-width:0" />
<line
   id="line3671"
   y2="709.52002"
   x2="244.47"
   y1="709.52002"
   x1="224.63"
   style="stroke-width:0.27593669" />
<path
   id="path3673"
   d="m 234.46,705.94 -0.01,0.04 -0.02,0.04 -0.01,0.03 -0.01,0.04 -0.02,0.04 -0.01,0.04 -0.02,0.03 -0.02,0.04 -0.02,0.03 -0.02,0.04 -0.03,0.03 -0.02,0.04 -0.03,0.03 -0.03,0.03 -0.03,0.03 -0.03,0.03 -0.03,0.03 -0.04,0.03 -0.03,0.02 -0.04,0.03 -0.04,0.02 -0.04,0.02 -0.05,0.02 -0.04,0.02 -0.05,0.02 -0.05,0.01 -0.05,0.01 -0.05,0.01 -0.05,0.01 -0.06,0.01 -0.06,0 -0.06,0 0.03,-0.19 c 0.67,0 0.9,-0.53 0.9,-0.95 0,-0.47 -0.46,-1.95 -1.63,-1.95 h 0 c -0.78,0 -0.87,0.6 -0.87,0.81 0,0.27 0.18,0.95 0.25,1.13 0.13,0.32 0.56,0.96 1.35,0.96 l -0.03,0.19 c -0.98,0 -1.78,-0.73 -2.03,-1.35 -0.05,-0.12 -0.14,-0.41 -0.14,-0.69 0,-0.48 0.37,-1.27 1.46,-1.27 1.8,0 2.53,2.25 2.53,3.23 0,1.19 -0.78,1.87 -1.71,1.87 -1.13,0 -1.45,-0.9 -1.45,-1.12 0,-0.05 0.04,-0.25 0.28,-0.25 0.24,0 0.39,0.22 0.39,0.39 0,0.19 -0.14,0.25 -0.27,0.26 0.35,0.52 0.92,0.52 1.04,0.52 0.52,0 1.14,-0.32 1.14,-1.31 0,-0.3 -0.03,-0.54 -0.17,-1.1 z"
   inkscape:connector-curvature="0"
   style="fill:#000000;stroke-width:0" />
<path
   id="path3675"
   d="m 237.74,707.94 0,0.01 0,0.01 -0.01,0.01 0,0.01 0,0.01 0,0.01 -0.01,0.01 0,0.01 0,0.02 -0.01,0.01 0,0.01 -0.01,0.01 -0.01,0.01 0,0.01 -0.01,0.01 -0.01,0.01 -0.01,0.01 -0.01,0.01 -0.01,0.01 -0.01,0.01 -0.01,0 -0.01,0.01 -0.01,0.01 -0.02,0 -0.01,0.01 -0.01,0.01 -0.02,0 -0.02,0 -0.01,0.01 -0.02,0 -0.02,0 -0.01,0 c -0.19,0 -0.39,-0.18 -0.39,-0.38 0,-0.12 0.09,-0.27 0.28,-0.27 0.2,0 0.39,0.2 0.39,0.39 z"
   inkscape:connector-curvature="0"
   style="fill:#000000;stroke-width:0" />
<path
   id="path3677"
   d="m 236.32,704.4 -0.01,-0.01 -0.01,-0.02 -0.01,-0.03 0,-0.02 -0.01,-0.02 0,-0.01 -0.01,-0.02 0,-0.02 -0.01,-0.02 0,-0.02 0,-0.02 0,-0.02 -0.01,-0.01 0,-0.01 0,-0.01 0,-0.01 0,-0.01 0,-0.01 c 0,-0.33 0.28,-0.59 0.66,-0.59 0.7,0 1.01,0.96 1.01,1.06 0,0.09 -0.09,0.09 -0.12,0.09 -0.09,0 -0.1,-0.04 -0.13,-0.11 -0.16,-0.56 -0.46,-0.84 -0.74,-0.84 -0.14,0 -0.17,0.09 -0.17,0.24 0,0.16 0.05,0.29 0.11,0.44 0.07,0.19 0.15,0.38 0.23,0.56 0.06,0.17 0.31,0.8 0.34,0.88 0.02,0.07 0.04,0.16 0.04,0.23 0,0.32 -0.28,0.59 -0.66,0.59 -0.69,0 -1.01,-0.95 -1.01,-1.07 0,-0.09 0.09,-0.09 0.12,-0.09 0.09,0 0.1,0.04 0.12,0.11 0.18,0.6 0.49,0.85 0.74,0.85 0.12,0 0.18,-0.05 0.18,-0.24 0,-0.16 -0.04,-0.27 -0.22,-0.7 z"
   inkscape:connector-curvature="0"
   style="fill:#000000;stroke-width:0" />
</g>
<path
   style="fill:none;stroke:#000000;stroke-width:1px;stroke-linecap:butt;stroke-linejoin:miter;stroke-opacity:1;marker-start:url(#DotM)"
   d="M 85.559921,214.41064 115.61196,193.55099"
   id="path3048"
   inkscape:connector-curvature="0"
   transform="matrix(0.8,0,0,-0.8,0,226.4)" /></g></svg>