<?xml version="1.0" encoding="UTF-8" standalone="no"?>
<!-- Created with Inkscape (http://www.inkscape.org/) -->

<svg
   xmlns:ns0="http://www.iki.fi/pav/software/textext/"
   xmlns:dc="http://purl.org/dc/elements/1.1/"
   xmlns:cc="http://creativecommons.org/ns#"
   xmlns:rdf="http://www.w3.org/1999/02/22-rdf-syntax-ns#"
   xmlns:svg="http://www.w3.org/2000/svg"
   xmlns="http://www.w3.org/2000/svg"
   xmlns:sodipodi="http://sodipodi.sourceforge.net/DTD/sodipodi-0.dtd"
   xmlns:inkscape="http://www.inkscape.org/namespaces/inkscape"
   id="svg2"
   version="1.1"
   inkscape:version="0.48.1 "
   width="167"
   height="144"
   xml:space="preserve"
   sodipodi:docname="mag_linearizace.svg"><sodipodi:namedview
     pagecolor="#ffffff"
     bordercolor="#666666"
     borderopacity="1"
     objecttolerance="10"
     gridtolerance="10"
     guidetolerance="10"
     inkscape:pageopacity="0"
     inkscape:pageshadow="2"
     inkscape:window-width="1831"
     inkscape:window-height="1173"
     id="namedview4"
     showgrid="false"
     inkscape:zoom="3.3330544"
     inkscape:cx="37.308576"
     inkscape:cy="52.602045"
     inkscape:window-x="80"
     inkscape:window-y="-9"
     inkscape:window-maximized="1"
     inkscape:current-layer="g10" /><metadata
     id="metadata8"><rdf:RDF><cc:Work
         rdf:about=""><dc:format>image/svg+xml</dc:format><dc:type
           rdf:resource="http://purl.org/dc/dcmitype/StillImage" /><dc:title></dc:title></cc:Work></rdf:RDF></metadata><defs
     id="defs6"><clipPath
       clipPathUnits="userSpaceOnUse"
       id="clipPath36"><path
         d="m 0,0 465.43,0 0,287.58 L 0,287.58 0,0 z"
         id="path38"
         inkscape:connector-curvature="0" /></clipPath><clipPath
       clipPathUnits="userSpaceOnUse"
       id="clipPath62"><path
         d="m 0,0 465.43,0 0,198.6 L 0,198.6 0,0 z"
         id="path64"
         inkscape:connector-curvature="0" /></clipPath></defs><g
     id="g10"
     inkscape:groupmode="layer"
     inkscape:label="skici"
     transform="matrix(1.25,0,0,-1.25,0,144)"><path
   d="m 1.6364135,53.503417 120.7499965,0"
   style="fill:none;stroke:#000000;stroke-width:0.72000003;stroke-linecap:round;stroke-linejoin:round;stroke-miterlimit:10;stroke-opacity:1;stroke-dasharray:none"
   id="path12"
   inkscape:connector-curvature="0" /><path
   d="m 121.63641,56.503417 7.5,-3 -7.5,-2.25 0,5.25 z"
   style="fill:#000000;fill-opacity:1;fill-rule:evenodd;stroke:none"
   id="path14"
   inkscape:connector-curvature="0" /><path
   d="m 54.136413,106.75342 0,-89.994221"
   style="fill:none;stroke:#000000;stroke-width:0.72000003;stroke-linecap:round;stroke-linejoin:round;stroke-miterlimit:10;stroke-opacity:1;stroke-dasharray:none"
   id="path16"
   inkscape:connector-curvature="0" /><path
   d="m 51.136413,106.00342 3,7.5 2.250001,-7.5 -5.250001,0 z"
   style="fill:#000000;fill-opacity:1;fill-rule:evenodd;stroke:none"
   id="path18"
   inkscape:connector-curvature="0" /><text
   transform="scale(1,-1)"
   id="text22"
   x="56.396412"
   y="-44.203423"><tspan
     style="font-size:10.00008011px;font-variant:normal;font-weight:normal;writing-mode:lr-tb;fill:#000000;fill-opacity:1;fill-rule:nonzero;stroke:none;font-family:ARIAL;-inkscape-font-specification:ARIAL"
     x="56.396412"
     y="-44.203423"
     id="tspan24">0</tspan></text>



<text
   transform="scale(1,-1)"
   id="text26"
   x="118.86641"
   y="-40.173424"><tspan
     style="font-size:13.99967957px;font-style:italic;font-variant:normal;font-weight:normal;writing-mode:lr-tb;fill:#000000;fill-opacity:1;fill-rule:nonzero;stroke:none;font-family:GARAMOND;-inkscape-font-specification:GARAMOND Italic"
     x="118.86641"
     y="-40.173424"
     id="tspan28">i</tspan></text>



<g
   style="font-style:normal;font-variant:normal;font-weight:normal;font-stretch:normal;letter-spacing:normal;word-spacing:normal;text-anchor:start;fill:none;stroke:#000000;stroke-width:0.72923499;stroke-linecap:butt;stroke-linejoin:miter;stroke-miterlimit:10.43299961;stroke-opacity:1;stroke-dasharray:none;stroke-dashoffset:0"
   id="content"
   transform="matrix(1.3045608,0,0,1.3270546,-275.72713,-930.46072)"
   xml:space="preserve"
   stroke-miterlimit="10.433"
   font-style="normal"
   font-variant="normal"
   font-weight="normal"
   font-stretch="normal"
   font-size-adjust="none"
   letter-spacing="normal"
   word-spacing="normal"
   ns0:text="$\\frac{\\partial\\Psi(i)}{\\partial i} = L = konst$\n"
   ns0:preamble="">
<path
   style="fill:#000000;stroke-width:0"
   inkscape:connector-curvature="0"
   d="m 228.28,714.21 -0.01,0.03 -0.01,0.04 -0.01,0.04 -0.01,0.04 -0.02,0.04 -0.01,0.03 -0.02,0.04 -0.02,0.04 -0.02,0.03 -0.02,0.04 -0.03,0.03 -0.02,0.03 -0.03,0.04 -0.03,0.03 -0.03,0.03 -0.03,0.03 -0.03,0.03 -0.04,0.02 -0.03,0.03 -0.04,0.02 -0.04,0.03 -0.04,0.02 -0.05,0.02 -0.04,0.02 -0.05,0.01 -0.05,0.02 -0.05,0.01 -0.05,0.01 -0.06,0.01 -0.05,0 -0.06,0.01 -0.06,0 0.03,-0.2 c 0.67,0 0.9,-0.53 0.9,-0.94 0,-0.47 -0.46,-1.95 -1.63,-1.95 h 0 c -0.78,0 -0.87,0.59 -0.87,0.81 0,0.27 0.18,0.95 0.25,1.12 0.13,0.32 0.56,0.96 1.35,0.96 l -0.03,0.2 c -0.98,0 -1.78,-0.73 -2.04,-1.36 -0.04,-0.12 -0.13,-0.4 -0.13,-0.68 0,-0.48 0.37,-1.27 1.46,-1.27 1.8,0 2.53,2.24 2.53,3.23 0,1.19 -0.78,1.87 -1.71,1.87 -1.13,0 -1.45,-0.9 -1.45,-1.12 0,-0.05 0.04,-0.25 0.28,-0.25 0.24,0 0.39,0.22 0.39,0.38 0,0.19 -0.14,0.26 -0.27,0.27 0.35,0.52 0.92,0.52 1.04,0.52 0.52,0 1.14,-0.33 1.14,-1.31 0,-0.3 -0.04,-0.55 -0.17,-1.1 z"
   id="path3094" />
<path
   style="fill:#000000;stroke-width:0"
   inkscape:connector-curvature="0"
   d="m 232.65,716.04 0,0.02 0,0.02 0,0.02 0,0.02 0,0.01 0,0.02 0,0.02 0.01,0.01 0,0.02 0.01,0.01 0,0.02 0.01,0.01 0.01,0.01 0.01,0.01 0.01,0.01 0.02,0.01 0.02,0.01 0,0.01 0.01,0 0.01,0 0.01,0.01 0.02,0 0.01,0.01 0.01,0 0.01,0 0.02,0 0.01,0.01 0.01,0 0.02,0 0.02,0.01 0.01,0 0.02,0 0.02,0 0.02,0 0.02,0.01 0.02,0 0.02,0 0.02,0 0.03,0 0.02,0 0.02,0 0.03,0 0.03,0 0.02,0.01 0.03,0 0.03,0 0.03,0 h 0.24 v 0.25 c -0.15,-0.01 -0.94,-0.03 -1.2,-0.03 -0.41,0 -1.13,0.02 -1.2,0.03 v -0.25 h 0.24 c 0.65,0 0.65,-0.09 0.65,-0.32 v -3 c -1.03,0.23 -1.07,1.25 -1.07,1.72 0,0.09 0,0.94 -0.7,0.94 H 230 c -0.1,0 -0.2,0 -0.2,-0.1 0,-0.09 0.08,-0.1 0.1,-0.1 0.44,-0.05 0.45,-0.68 0.45,-0.73 0,-0.29 0.01,-0.89 0.45,-1.38 0.26,-0.29 0.68,-0.5 1.23,-0.56 v -0.4 c 0,-0.23 0,-0.32 -0.65,-0.32 h -0.24 v -0.25 c 0.15,0 0.94,0.03 1.2,0.03 0.41,0 1.14,-0.03 1.2,-0.03 v 0.25 h -0.24 c -0.65,0 -0.65,0.09 -0.65,0.32 v 0.4 c 0.79,0.08 1.1,0.4 1.27,0.57 0.32,0.32 0.45,0.9 0.45,1.2 0,0.23 0.01,0.44 0.12,0.66 0.1,0.21 0.22,0.23 0.35,0.25 0.05,0 0.08,0.04 0.08,0.09 0,0.1 -0.09,0.1 -0.19,0.1 h -0.27 c -0.62,0 -0.7,-0.64 -0.7,-1.08 -0.01,-0.53 -0.19,-1.42 -1.11,-1.58 z"
   id="path3096" />
<path
   style="fill:#000000;stroke-width:0"
   inkscape:connector-curvature="0"
   d="m 237.9,717.07 -0.12,-0.09 -0.12,-0.09 -0.11,-0.09 -0.1,-0.1 -0.1,-0.1 -0.1,-0.1 -0.09,-0.11 -0.08,-0.1 -0.08,-0.11 -0.07,-0.11 -0.08,-0.11 -0.06,-0.11 -0.06,-0.12 -0.06,-0.11 -0.05,-0.12 -0.05,-0.11 -0.05,-0.12 -0.04,-0.12 -0.04,-0.11 -0.03,-0.12 -0.03,-0.11 -0.03,-0.12 -0.03,-0.11 -0.02,-0.12 -0.02,-0.11 -0.01,-0.11 -0.01,-0.11 -0.01,-0.11 -0.01,-0.11 -0.01,-0.1 0,-0.11 0,-0.1 c 0,-0.98 0.29,-2.5 1.67,-3.47 0.06,0 0.14,0 0.14,0.08 0,0.04 -0.02,0.06 -0.07,0.1 -0.93,0.84 -1.27,2.02 -1.27,3.28 0,1.88 0.72,2.8 1.29,3.32 0.03,0.02 0.05,0.04 0.05,0.08 0,0.08 -0.08,0.08 -0.14,0.08 z"
   id="path3098" />
<path
   style="fill:#000000;stroke-width:0"
   inkscape:connector-curvature="0"
   d="m 240.8,716.2 0,0.01 0,0.01 -0.01,0.02 0,0.01 0,0.01 0,0.01 -0.01,0.01 0,0.01 0,0.01 -0.01,0.01 0,0.01 -0.01,0.02 -0.01,0.01 0,0.01 -0.01,0.01 -0.01,0.01 -0.01,0.01 -0.01,0.01 -0.01,0 -0.01,0.01 -0.01,0.01 -0.01,0.01 -0.01,0.01 -0.02,0 -0.01,0.01 -0.01,0 -0.02,0.01 -0.01,0 -0.02,0 -0.02,0.01 -0.01,0 -0.02,0 c -0.19,0 -0.39,-0.18 -0.39,-0.38 0,-0.12 0.09,-0.27 0.28,-0.27 0.2,0 0.39,0.2 0.39,0.38 z"
   id="path3100" />
<path
   style="fill:#000000;stroke-width:0"
   inkscape:connector-curvature="0"
   d="m 239.38,712.67 -0.01,-0.02 0,-0.01 -0.02,-0.04 0,-0.01 -0.01,-0.02 0,-0.02 -0.01,-0.01 0,-0.02 0,-0.02 -0.01,-0.02 0,-0.02 0,-0.01 0,-0.01 0,-0.01 -0.01,-0.01 0,-0.01 0,-0.01 0,-0.01 0,-0.01 c 0,-0.33 0.28,-0.59 0.67,-0.59 0.69,0 1,0.96 1,1.06 0,0.09 -0.09,0.09 -0.11,0.09 -0.1,0 -0.11,-0.04 -0.14,-0.12 -0.16,-0.55 -0.46,-0.84 -0.73,-0.84 -0.14,0 -0.18,0.09 -0.18,0.25 0,0.16 0.05,0.29 0.11,0.44 0.07,0.19 0.15,0.38 0.23,0.56 0.06,0.16 0.31,0.8 0.34,0.88 0.02,0.07 0.04,0.15 0.04,0.22 0,0.33 -0.28,0.59 -0.66,0.59 -0.69,0 -1.01,-0.94 -1.01,-1.06 0,-0.09 0.09,-0.09 0.12,-0.09 0.09,0 0.1,0.03 0.12,0.11 0.18,0.6 0.49,0.85 0.75,0.85 0.11,0 0.17,-0.06 0.17,-0.25 0,-0.15 -0.04,-0.26 -0.21,-0.69 z"
   id="path3102" />
<path
   style="fill:#000000;stroke-width:0"
   inkscape:connector-curvature="0"
   d="m 241.99,717.07 -0.01,0 0,0 -0.01,0 0,0 -0.01,0 0,0 -0.01,0 -0.01,0 0,0 -0.01,0 0,0 -0.01,0 0,0 -0.01,0 0,-0.01 -0.01,0 0,0 -0.01,0 0,-0.01 -0.01,0 0,0 -0.01,0 0,-0.01 0,0 0,0 0,-0.01 -0.01,0 0,0 0,0 0,-0.01 0,0 0,0 0,0 0,-0.01 0,0 0,0 -0.01,-0.01 0,0 0,0 0,-0.01 0,0 c 0,-0.04 0.02,-0.06 0.07,-0.11 0.59,-0.54 1.26,-1.48 1.26,-3.28 0,-1.45 -0.45,-2.55 -1.2,-3.23 -0.12,-0.12 -0.13,-0.13 -0.13,-0.16 0,-0.04 0.02,-0.08 0.09,-0.08 0.09,0 0.75,0.46 1.21,1.32 0.31,0.58 0.51,1.33 0.51,2.14 0,0.99 -0.29,2.51 -1.67,3.48 z"
   id="path3104" />
<line
   style="stroke-width:0.29023549"
   x1="224.63"
   y1="709.52002"
   x2="244.47"
   y2="709.52002"
   id="line3106" />
<path
   style="fill:#000000;stroke-width:0"
   inkscape:connector-curvature="0"
   d="m 234.46,705.94 -0.01,0.04 -0.02,0.04 -0.01,0.03 -0.01,0.04 -0.02,0.04 -0.01,0.04 -0.02,0.03 -0.02,0.04 -0.02,0.03 -0.02,0.04 -0.03,0.03 -0.02,0.04 -0.03,0.03 -0.03,0.03 -0.03,0.03 -0.03,0.03 -0.03,0.03 -0.04,0.03 -0.03,0.02 -0.04,0.03 -0.04,0.02 -0.04,0.02 -0.05,0.02 -0.04,0.02 -0.05,0.02 -0.05,0.01 -0.05,0.01 -0.05,0.01 -0.05,0.01 -0.06,0.01 -0.06,0 -0.06,0 0.03,-0.19 c 0.67,0 0.9,-0.53 0.9,-0.95 0,-0.47 -0.46,-1.95 -1.63,-1.95 h 0 c -0.78,0 -0.87,0.6 -0.87,0.81 0,0.27 0.18,0.95 0.25,1.13 0.13,0.32 0.56,0.96 1.35,0.96 l -0.03,0.19 c -0.98,0 -1.78,-0.73 -2.03,-1.35 -0.05,-0.12 -0.14,-0.41 -0.14,-0.69 0,-0.48 0.37,-1.27 1.46,-1.27 1.8,0 2.53,2.25 2.53,3.23 0,1.19 -0.78,1.87 -1.71,1.87 -1.13,0 -1.45,-0.9 -1.45,-1.12 0,-0.05 0.04,-0.25 0.28,-0.25 0.24,0 0.39,0.22 0.39,0.39 0,0.19 -0.14,0.25 -0.27,0.26 0.35,0.52 0.92,0.52 1.04,0.52 0.52,0 1.14,-0.32 1.14,-1.31 0,-0.3 -0.03,-0.54 -0.17,-1.1 z"
   id="path3108" />
<path
   style="fill:#000000;stroke-width:0"
   inkscape:connector-curvature="0"
   d="m 237.74,707.94 0,0.01 0,0.01 -0.01,0.01 0,0.01 0,0.01 0,0.01 -0.01,0.01 0,0.01 0,0.02 -0.01,0.01 0,0.01 -0.01,0.01 -0.01,0.01 0,0.01 -0.01,0.01 -0.01,0.01 -0.01,0.01 -0.01,0.01 -0.01,0.01 -0.01,0.01 -0.01,0 -0.01,0.01 -0.01,0.01 -0.02,0 -0.01,0.01 -0.01,0.01 -0.02,0 -0.02,0 -0.01,0.01 -0.02,0 -0.02,0 -0.01,0 c -0.19,0 -0.39,-0.18 -0.39,-0.38 0,-0.12 0.09,-0.27 0.28,-0.27 0.2,0 0.39,0.2 0.39,0.39 z"
   id="path3110" />
<path
   style="fill:#000000;stroke-width:0"
   inkscape:connector-curvature="0"
   d="m 236.32,704.4 -0.01,-0.01 -0.01,-0.02 -0.01,-0.03 0,-0.02 -0.01,-0.02 0,-0.01 -0.01,-0.02 0,-0.02 -0.01,-0.02 0,-0.02 0,-0.02 0,-0.02 -0.01,-0.01 0,-0.01 0,-0.01 0,-0.01 0,-0.01 0,-0.01 c 0,-0.33 0.28,-0.59 0.66,-0.59 0.7,0 1.01,0.96 1.01,1.06 0,0.09 -0.09,0.09 -0.12,0.09 -0.09,0 -0.1,-0.04 -0.13,-0.11 -0.16,-0.56 -0.46,-0.84 -0.74,-0.84 -0.14,0 -0.17,0.09 -0.17,0.24 0,0.16 0.05,0.29 0.11,0.44 0.07,0.19 0.15,0.38 0.23,0.56 0.06,0.17 0.31,0.8 0.34,0.88 0.02,0.07 0.04,0.16 0.04,0.23 0,0.32 -0.28,0.59 -0.66,0.59 -0.69,0 -1.01,-0.95 -1.01,-1.07 0,-0.09 0.09,-0.09 0.12,-0.09 0.09,0 0.1,0.04 0.12,0.11 0.18,0.6 0.49,0.85 0.74,0.85 0.12,0 0.18,-0.05 0.18,-0.24 0,-0.16 -0.04,-0.27 -0.22,-0.7 z"
   id="path3112" />
<path
   style="fill:#000000;stroke-width:0"
   inkscape:connector-curvature="0"
   d="m 255.28,710.28 0.03,0 0.03,0 0.03,0 0.01,0 0.02,0 0.01,0 0.02,0.01 0.01,0 0.02,0 0.01,0 0.01,0.01 0.02,0 0.01,0 0.01,0.01 0.01,0.01 0.01,0 0.01,0.01 0.01,0.01 0.01,0 0.01,0.01 0.01,0.01 0,0.01 0.01,0 0,0.01 0,0.01 0.01,0 0,0.01 0,0.01 0,0 0.01,0.01 0,0.01 0,0.01 0,0 0,0.01 0,0.01 0,0.01 0,0.01 c 0,0.2 -0.19,0.2 -0.33,0.2 h -5.97 c -0.14,0 -0.33,0 -0.33,-0.2 0,-0.2 0.19,-0.2 0.34,-0.2 z"
   id="path3114" />
<path
   style="fill:#000000;stroke-width:0"
   inkscape:connector-curvature="0"
   d="m 255.29,708.35 0.03,0 0.03,0 0.03,0 0.01,0 0.01,0 0.02,0 0.01,0.01 0.02,0 0.01,0 0.01,0 0.01,0.01 0.02,0 0.01,0 0.01,0.01 0.01,0.01 0.01,0 0.01,0.01 0.01,0.01 0.01,0 0.01,0.01 0.01,0.01 0,0 0,0.01 0.01,0 0,0.01 0,0.01 0.01,0 0,0.01 0,0.01 0,0 0.01,0.01 0,0.01 0,0.01 0,0 0,0.01 0,0.01 0,0.01 0,0.01 c 0,0.2 -0.19,0.2 -0.34,0.2 h -5.95 c -0.15,0 -0.34,0 -0.34,-0.2 0,-0.2 0.19,-0.2 0.33,-0.2 z"
   id="path3116" />
<path
   style="fill:#000000;stroke-width:0"
   inkscape:connector-curvature="0"
   d="m 262.68,713.05 0.01,0.03 0.01,0.03 0,0.03 0.01,0.03 0.01,0.03 0.01,0.02 0.01,0.03 0.01,0.02 0.01,0.02 0.02,0.02 0.01,0.02 0.02,0.02 0.01,0.02 0.02,0.02 0.03,0.01 0.02,0.02 0.03,0.01 0.03,0.01 0.03,0.01 0.03,0.01 0.02,0.01 0.02,0 0.02,0 0.02,0.01 0.03,0 0.02,0.01 0.02,0 0.03,0 0.02,0.01 0.03,0 0.03,0 0.03,0 0.03,0 0.03,0.01 0.03,0 0.04,0 0.03,0 0.04,0 0.03,0 0.04,0 0.04,0 0.04,0 0.04,0 0.05,0.01 c 0.3,0 0.37,0 0.37,0.18 0,0.12 -0.1,0.12 -0.16,0.12 -0.32,0 -1.14,-0.03 -1.47,-0.03 -0.3,0 -1.03,0.03 -1.33,0.03 -0.07,0 -0.19,0 -0.19,-0.2 0,-0.1 0.09,-0.1 0.28,-0.1 0.02,0 0.21,0 0.38,-0.03 0.18,-0.02 0.27,-0.02 0.27,-0.15 0,-0.04 -0.01,-0.07 -0.04,-0.19 l -1.33,-5.35 c -0.1,-0.39 -0.12,-0.46 -0.91,-0.46 -0.17,0 -0.27,0 -0.27,-0.2 0,-0.11 0.09,-0.11 0.27,-0.11 h 4.61 c 0.24,0 0.25,0 0.31,0.17 l 0.79,2.14 c 0.04,0.11 0.04,0.13 0.04,0.14 0,0.04 -0.03,0.11 -0.12,0.11 -0.09,0 -0.1,-0.05 -0.17,-0.2 -0.34,-0.92 -0.78,-2.05 -2.5,-2.05 h -0.94 c -0.14,0 -0.16,0 -0.22,0 -0.1,0.01 -0.13,0.02 -0.13,0.1 0,0.03 0,0.05 0.05,0.23 z"
   id="path3118" />
<path
   style="fill:#000000;stroke-width:0"
   inkscape:connector-curvature="0"
   d="m 275.35,710.28 0.03,0 0.02,0 0.03,0 0.02,0 0.01,0 0.02,0 0.01,0.01 0.02,0 0.01,0 0.01,0 0.02,0.01 0.01,0 0.01,0 0.01,0.01 0.02,0.01 0.01,0 0.01,0.01 0.01,0.01 0.01,0 0.01,0.01 0,0.01 0.01,0.01 0,0 0,0.01 0.01,0.01 0,0 0,0.01 0.01,0.01 0,0 0,0.01 0,0.01 0,0.01 0,0 0,0.01 0.01,0.01 0,0.01 0,0.01 c 0,0.2 -0.19,0.2 -0.33,0.2 h -5.97 c -0.14,0 -0.33,0 -0.33,-0.2 0,-0.2 0.19,-0.2 0.34,-0.2 z"
   id="path3120" />
<path
   style="fill:#000000;stroke-width:0"
   inkscape:connector-curvature="0"
   d="m 275.36,708.35 0.02,0 0.03,0 0.03,0 0.01,0 0.02,0 0.01,0 0.02,0.01 0.01,0 0.01,0 0.02,0 0.01,0.01 0.01,0 0.01,0 0.02,0.01 0.01,0.01 0.01,0 0.01,0.01 0.01,0.01 0.01,0 0.01,0.01 0,0.01 0,0 0.01,0.01 0,0 0,0.01 0.01,0.01 0,0 0,0.01 0.01,0.01 0,0 0,0.01 0,0.01 0,0.01 0,0 0,0.01 0.01,0.01 0,0.01 0,0.01 c 0,0.2 -0.19,0.2 -0.34,0.2 h -5.95 c -0.15,0 -0.34,0 -0.34,-0.2 0,-0.2 0.19,-0.2 0.33,-0.2 z"
   id="path3122" />
<path
   style="fill:#000000;stroke-width:0"
   inkscape:connector-curvature="0"
   d="m 281.88,713.82 0,0 0,0.01 0,0 0,0 0,0 0,0 0,0.01 -0.01,0 0,0.01 0,0 0,0 0,0.01 0,0 0,0.01 0,0 -0.01,0.01 0,0 0,0.01 -0.01,0 0,0.01 -0.01,0 0,0 0,0.01 0,0 -0.01,0 0,0 0,0 -0.01,0.01 0,0 0,0 -0.01,0 0,0 0,0 -0.01,0.01 0,0 -0.01,0 0,0 -0.01,0 0,0 -0.01,0 0,0 -0.01,0 0,0 -0.01,0 0,0 c -0.23,0 -0.96,-0.08 -1.22,-0.1 -0.08,-0.01 -0.19,-0.02 -0.19,-0.2 0,-0.11 0.09,-0.11 0.24,-0.11 0.48,0 0.5,-0.07 0.5,-0.17 l -0.03,-0.2 -1.45,-5.74 c -0.04,-0.13 -0.04,-0.15 -0.04,-0.21 0,-0.23 0.2,-0.28 0.29,-0.28 0.13,0 0.28,0.09 0.34,0.21 0.05,0.09 0.5,1.93 0.56,2.17 0.34,-0.02 1.16,-0.18 1.16,-0.84 0,-0.07 0,-0.11 -0.03,-0.21 -0.02,-0.12 -0.04,-0.24 -0.04,-0.35 0,-0.58 0.39,-0.98 0.91,-0.98 0.3,0 0.57,0.16 0.79,0.52 0.25,0.44 0.36,0.99 0.36,1.01 0,0.1 -0.09,0.1 -0.12,0.1 -0.1,0 -0.11,-0.04 -0.14,-0.18 -0.2,-0.73 -0.43,-1.23 -0.87,-1.23 -0.19,0 -0.32,0.1 -0.32,0.46 0,0.17 0.04,0.4 0.08,0.56 0.04,0.17 0.04,0.21 0.04,0.31 0,0.65 -0.62,0.94 -1.47,1.04 0.31,0.18 0.63,0.5 0.86,0.74 0.47,0.53 0.93,0.96 1.42,0.96 0.06,0 0.07,0 0.09,-0.01 0.12,-0.02 0.13,-0.02 0.21,-0.08 0.02,-0.01 0.02,-0.02 0.04,-0.04 -0.48,-0.03 -0.57,-0.42 -0.57,-0.54 0,-0.16 0.11,-0.35 0.38,-0.35 0.26,0 0.55,0.22 0.55,0.61 0,0.3 -0.23,0.62 -0.68,0.62 -0.28,0 -0.74,-0.08 -1.45,-0.87 -0.34,-0.38 -0.73,-0.78 -1.11,-0.93 z"
   id="path3124" />
<path
   style="fill:#000000;stroke-width:0"
   inkscape:connector-curvature="0"
   d="m 289.19,709.74 -0.01,0.1 0,0.09 -0.01,0.09 -0.02,0.09 -0.01,0.09 -0.02,0.08 -0.03,0.08 -0.03,0.08 -0.03,0.08 -0.03,0.07 -0.04,0.07 -0.04,0.07 -0.05,0.06 -0.04,0.07 -0.05,0.06 -0.06,0.05 -0.05,0.06 -0.06,0.05 -0.06,0.04 -0.06,0.05 -0.06,0.04 -0.07,0.03 -0.07,0.04 -0.07,0.03 -0.07,0.02 -0.08,0.03 -0.08,0.02 -0.07,0.02 -0.08,0.01 -0.08,0.01 -0.09,0 -0.08,0 c -1.33,0 -2.67,-1.41 -2.67,-2.82 0,-0.99 0.67,-1.68 1.59,-1.68 l 0.01,0.22 c -0.42,0 -0.86,0.3 -0.86,1.08 0,0.49 0.26,1.56 0.57,2.07 0.5,0.77 1.07,0.92 1.35,0.92 0.58,0 0.88,-0.48 0.88,-1.08 0,-0.39 -0.2,-1.43 -0.58,-2.08 -0.35,-0.58 -0.9,-0.91 -1.36,-0.91 h 0 l -0.01,-0.22 c 1.33,0 2.68,1.37 2.68,2.82 z"
   id="path3126" />
<path
   style="fill:#000000;stroke-width:0"
   inkscape:connector-curvature="0"
   d="m 290.23,707.61 -0.01,-0.01 0,-0.02 0,-0.01 -0.01,-0.02 0,-0.03 -0.01,-0.03 -0.01,-0.03 -0.01,-0.03 0,-0.04 -0.01,-0.03 0,-0.01 -0.01,-0.02 0,-0.01 0,-0.02 -0.01,-0.01 0,-0.01 0,-0.02 0,-0.01 -0.01,-0.01 0,-0.01 0,-0.01 0,-0.01 0,-0.01 0,0 0,-0.01 0,-0.01 c 0,-0.17 0.14,-0.26 0.29,-0.26 0.12,0 0.3,0.08 0.37,0.28 0,0.02 0.12,0.48 0.18,0.73 l 0.22,0.9 c 0.06,0.22 0.12,0.44 0.17,0.66 0.04,0.17 0.12,0.46 0.13,0.5 0.15,0.31 0.68,1.22 1.63,1.22 0.45,0 0.54,-0.37 0.54,-0.7 0,-0.62 -0.49,-1.89 -0.65,-2.32 -0.09,-0.23 -0.1,-0.35 -0.1,-0.46 0,-0.46 0.35,-0.81 0.81,-0.81 0.94,0 1.31,1.45 1.31,1.53 0,0.1 -0.09,0.1 -0.12,0.1 -0.1,0 -0.1,-0.03 -0.15,-0.18 -0.2,-0.68 -0.53,-1.23 -1.01,-1.23 -0.17,0 -0.24,0.09 -0.24,0.32 0,0.25 0.09,0.49 0.18,0.71 0.19,0.53 0.6,1.62 0.6,2.19 0,0.67 -0.42,1.06 -1.14,1.06 -0.9,0 -1.39,-0.63 -1.56,-0.86 -0.05,0.56 -0.46,0.86 -0.92,0.86 -0.45,0 -0.64,-0.38 -0.74,-0.56 -0.16,-0.34 -0.3,-0.93 -0.3,-0.97 0,-0.1 0.1,-0.1 0.12,-0.1 0.1,0 0.11,0.01 0.17,0.23 0.17,0.71 0.37,1.19 0.72,1.19 0.2,0 0.31,-0.13 0.31,-0.46 0,-0.21 -0.03,-0.32 -0.16,-0.84 z"
   id="path3128" />
<path
   style="fill:#000000;stroke-width:0"
   inkscape:connector-curvature="0"
   d="m 299.23,710.75 -0.03,0 -0.03,-0.01 -0.02,0 -0.02,-0.01 -0.03,0 -0.02,-0.01 -0.02,-0.01 -0.03,-0.01 -0.02,-0.01 -0.02,-0.01 -0.02,-0.01 -0.02,-0.01 -0.02,-0.01 -0.01,-0.02 -0.02,-0.01 -0.02,-0.02 -0.01,-0.01 -0.02,-0.02 -0.01,-0.02 -0.01,-0.01 -0.02,-0.02 -0.01,-0.02 -0.01,-0.02 -0.01,-0.02 0,-0.02 -0.01,-0.02 -0.01,-0.02 0,-0.02 -0.01,-0.02 0,-0.02 0,-0.02 0,-0.02 c 0,-0.14 0.09,-0.29 0.31,-0.29 0.22,0 0.46,0.17 0.46,0.56 0,0.45 -0.43,0.85 -1.19,0.85 -1.32,0 -1.69,-1.01 -1.69,-1.45 0,-0.77 0.74,-0.92 1.03,-0.98 0.52,-0.1 1.04,-0.21 1.04,-0.76 0,-0.26 -0.23,-1.09 -1.43,-1.09 -0.14,0 -0.9,0 -1.13,0.52 0.37,-0.05 0.62,0.25 0.62,0.53 0,0.23 -0.16,0.35 -0.37,0.35 -0.25,0 -0.55,-0.21 -0.55,-0.66 0,-0.56 0.57,-0.96 1.42,-0.96 1.62,0 2.01,1.2 2.01,1.65 0,0.36 -0.19,0.61 -0.31,0.72 -0.27,0.28 -0.56,0.33 -1,0.42 -0.36,0.08 -0.76,0.15 -0.76,0.6 0,0.29 0.24,0.9 1.12,0.9 0.25,0 0.75,-0.07 0.9,-0.46 z"
   id="path3130" />
<path
   style="fill:#000000;stroke-width:0"
   inkscape:connector-curvature="0"
   d="m 302.04,711.01 h 0.94 c 0.2,0 0.3,0 0.3,0.2 0,0.11 -0.1,0.11 -0.28,0.11 h -0.88 c 0.36,1.41 0.41,1.61 0.41,1.67 0,0.17 -0.12,0.27 -0.29,0.27 -0.03,0 -0.31,-0.01 -0.4,-0.36 l -0.39,-1.58 h -0.93 c -0.2,0 -0.3,0 -0.3,-0.19 0,-0.12 0.08,-0.12 0.28,-0.12 h 0.88 c -0.72,-2.83 -0.76,-3 -0.76,-3.18 0,-0.54 0.38,-0.91 0.91,-0.91 1.02,0 1.59,1.45 1.59,1.53 0,0.1 -0.08,0.1 -0.12,0.1 -0.09,0 -0.1,-0.03 -0.15,-0.14 -0.43,-1.04 -0.96,-1.27 -1.3,-1.27 -0.2,0 -0.31,0.13 -0.31,0.45 0,0.24 0.03,0.31 0.06,0.48 z"
   id="path3132" />
</g>
<g
   ns0:preamble=""
   ns0:text="$\\Psi(i)$\n"
   word-spacing="normal"
   letter-spacing="normal"
   font-size-adjust="none"
   font-stretch="normal"
   font-weight="normal"
   font-variant="normal"
   font-style="normal"
   stroke-miterlimit="10.433"
   xml:space="preserve"
   transform="matrix(1.1294081,0,0,1.1294081,-224.67306,-693.62912)"
   id="g3210"
   style="font-style:normal;font-variant:normal;font-weight:normal;font-stretch:normal;letter-spacing:normal;word-spacing:normal;text-anchor:start;fill:none;stroke:#000000;stroke-linecap:butt;stroke-linejoin:miter;stroke-miterlimit:10.43299961;stroke-opacity:1;stroke-dasharray:none;stroke-dashoffset:0">
<path
   id="path3212"
   d="m 227.69,713.14 0,0.03 0,0.03 0,0.03 0,0.02 0,0.03 0,0.03 0.01,0.02 0,0.02 0.01,0.03 0.01,0.02 0.01,0.02 0.01,0.02 0.01,0.01 0.02,0.02 0.02,0.02 0.02,0.01 0.02,0.02 0.01,0 0.02,0.01 0.01,0.01 0.02,0 0.01,0.01 0.02,0 0.02,0.01 0.02,0 0.02,0.01 0.02,0 0.02,0.01 0.02,0 0.02,0 0.03,0.01 0.02,0 0.03,0 0.03,0.01 0.03,0 0.03,0 0.03,0 0.03,0.01 0.03,0 0.04,0 0.03,0 0.04,0 0.04,0 0.04,0 0.04,0 0.04,0 0.04,0 h 0.33 v 0.31 c -0.35,-0.03 -1.27,-0.03 -1.68,-0.03 -0.41,0 -1.34,0 -1.69,0.03 v -0.31 h 0.32 c 0.95,0 0.95,-0.13 0.95,-0.47 v -4.42 c -1.31,0.35 -1.35,1.88 -1.35,2.52 -0.02,1.21 -0.45,1.4 -0.89,1.4 h -0.37 c -0.15,0 -0.25,0 -0.25,-0.11 0,-0.05 0.03,-0.1 0.09,-0.11 0.33,-0.04 0.58,-0.18 0.59,-1.35 0,-0.23 0.03,-1.02 0.51,-1.69 0.38,-0.53 0.99,-0.82 1.67,-0.91 v -0.56 c 0,-0.34 0,-0.48 -0.95,-0.48 h -0.32 v -0.3 c 0.35,0.03 1.27,0.03 1.68,0.03 0.41,0 1.34,0 1.69,-0.03 v 0.3 h -0.33 c -0.94,0 -0.94,0.13 -0.94,0.48 v 0.56 c 0.72,0.09 1.32,0.39 1.71,0.9 0.52,0.71 0.53,1.5 0.53,1.93 0,0.16 0.01,1.05 0.55,1.12 0.06,0.01 0.13,0.02 0.13,0.11 0,0.11 -0.08,0.11 -0.24,0.11 h -0.38 c -0.39,0 -0.88,-0.07 -0.89,-1.51 -0.01,-1.1 -0.34,-2.15 -1.41,-2.41 z"
   inkscape:connector-curvature="0"
   style="fill:#000000;stroke-width:0" />
<path
   id="path3214"
   d="m 234.48,704.74 0,0 0,0.01 0,0 0,0 0,0.01 0,0 0,0 -0.01,0.01 0,0 0,0 0,0.01 0,0 -0.01,0.01 0,0 -0.01,0.01 0,0.01 -0.01,0 0,0.01 0,0 -0.01,0.01 0,0 0,0.01 -0.01,0 0,0 -0.01,0.01 0,0 -0.01,0.01 0,0 -0.01,0.01 0,0 -0.01,0.01 0,0.01 -0.01,0 0,0.01 -0.01,0 -0.01,0.01 0,0.01 -0.01,0.01 -0.01,0 0,0.01 -0.01,0.01 -0.01,0.01 c -1.24,1.25 -1.56,3.13 -1.56,4.65 0,1.73 0.38,3.47 1.6,4.71 0.13,0.12 0.13,0.14 0.13,0.17 0,0.07 -0.04,0.1 -0.1,0.1 -0.1,0 -1,-0.68 -1.58,-1.94 -0.51,-1.1 -0.63,-2.2 -0.63,-3.04 0,-0.77 0.11,-1.98 0.66,-3.1 0.59,-1.23 1.45,-1.87 1.55,-1.87 0.06,0 0.1,0.03 0.1,0.1 z"
   inkscape:connector-curvature="0"
   style="fill:#000000;stroke-width:0" />
<path
   id="path3216"
   d="m 237.89,713.34 0,0.02 -0.01,0.02 0,0.02 0,0.02 0,0.01 -0.01,0.02 0,0.02 -0.01,0.02 -0.01,0.01 0,0.02 -0.01,0.01 -0.01,0.02 -0.01,0.01 -0.01,0.01 -0.01,0.02 -0.01,0.01 -0.01,0.01 -0.02,0.01 -0.01,0.01 -0.02,0.01 -0.01,0.01 -0.02,0.01 -0.01,0.01 -0.02,0.01 -0.02,0 -0.01,0.01 -0.02,0 -0.02,0.01 -0.02,0 -0.02,0 -0.02,0 -0.02,0 c -0.27,0 -0.54,-0.25 -0.54,-0.52 0,-0.19 0.14,-0.36 0.38,-0.36 0.23,0 0.53,0.23 0.53,0.52 z"
   inkscape:connector-curvature="0"
   style="fill:#000000;stroke-width:0" />
<path
   id="path3218"
   d="m 237.13,709.6 0.01,0.03 0.01,0.02 0.01,0.03 0.01,0.02 0.01,0.02 0,0.02 0.01,0.02 0.01,0.02 0.01,0.01 0,0.02 0.01,0.02 0,0.01 0.01,0.02 0.01,0.01 0.01,0.03 0.01,0.03 0.01,0.03 0,0.01 0.01,0.02 0,0.01 0.01,0.02 0,0.01 0.01,0.02 0.01,0.02 0,0.02 0.01,0.02 0.01,0.02 0.01,0.03 0.01,0.02 c 0.08,0.2 0.13,0.34 0.13,0.53 0,0.45 -0.32,0.81 -0.82,0.81 -0.94,0 -1.32,-1.44 -1.32,-1.53 0,-0.1 0.1,-0.1 0.12,-0.1 0.1,0 0.11,0.02 0.16,0.18 0.27,0.94 0.67,1.23 1.01,1.23 0.08,0 0.25,0 0.25,-0.31 0,-0.21 -0.07,-0.42 -0.11,-0.52 -0.08,-0.26 -0.53,-1.41 -0.69,-1.84 -0.1,-0.26 -0.23,-0.59 -0.23,-0.8 0,-0.47 0.34,-0.81 0.82,-0.81 0.94,0 1.31,1.44 1.31,1.53 0,0.1 -0.09,0.1 -0.12,0.1 -0.1,0 -0.1,-0.03 -0.15,-0.18 -0.18,-0.63 -0.51,-1.24 -1.02,-1.24 -0.17,0 -0.24,0.1 -0.24,0.33 0,0.25 0.06,0.39 0.29,1 z"
   inkscape:connector-curvature="0"
   style="fill:#000000;stroke-width:0" />
<path
   id="path3220"
   d="m 241.37,709.61 0,0.08 0,0.07 -0.01,0.08 0,0.08 -0.01,0.17 -0.01,0.18 -0.01,0.18 -0.03,0.19 -0.02,0.2 -0.04,0.19 -0.03,0.21 -0.05,0.21 -0.05,0.21 -0.07,0.21 -0.07,0.21 -0.07,0.21 -0.05,0.11 -0.04,0.11 -0.05,0.1 -0.05,0.11 c -0.6,1.22 -1.45,1.87 -1.56,1.87 -0.05,0 -0.1,-0.04 -0.1,-0.1 0,-0.03 0,-0.05 0.19,-0.23 0.98,-0.98 1.55,-2.57 1.55,-4.65 0,-1.7 -0.37,-3.45 -1.61,-4.7 -0.13,-0.12 -0.13,-0.14 -0.13,-0.17 0,-0.06 0.05,-0.1 0.1,-0.1 0.11,0 1,0.67 1.59,1.94 0.51,1.09 0.63,2.2 0.63,3.03 z"
   inkscape:connector-curvature="0"
   style="fill:#000000;stroke-width:0" />
</g>
<path
   style="fill:#1ac506;fill-opacity:1;fill-rule:evenodd;stroke:#d10000;stroke-width:0.1590133;stroke-miterlimit:10;stroke-opacity:1;stroke-dasharray:none"
   d=""
   id="path4055"
   inkscape:connector-curvature="0"
   transform="matrix(0.8,0,0,-0.8,0,120)" /><path
   style="fill:#1ac506;fill-opacity:1;fill-rule:evenodd;stroke:#d10000;stroke-width:0.1590133;stroke-miterlimit:10;stroke-opacity:1;stroke-dasharray:none"
   d=""
   id="path4057"
   inkscape:connector-curvature="0"
   transform="matrix(0.8,0,0,-0.8,0,120)" /><path
   style="fill:#1ac506;fill-opacity:1;fill-rule:evenodd;stroke:#d10000;stroke-width:0.1590133;stroke-miterlimit:10;stroke-opacity:1;stroke-dasharray:none"
   d=""
   id="path4059"
   inkscape:connector-curvature="0"
   transform="matrix(0.8,0,0,-0.8,0,120)" /><path
   style="fill:#1ac506;fill-opacity:1;fill-rule:evenodd;stroke:#d10000;stroke-width:0.1590133;stroke-miterlimit:10;stroke-opacity:1;stroke-dasharray:none"
   d=""
   id="path4061"
   inkscape:connector-curvature="0"
   transform="matrix(0.8,0,0,-0.8,0,120)" /><path
   style="fill:#d51b33;fill-opacity:1;fill-rule:evenodd;stroke:#d10000;stroke-width:0.0899515;stroke-miterlimit:10;stroke-opacity:1;stroke-dasharray:none"
   d="m 28.757406,24.519485 c -0.107172,0.05825 -0.194466,0.216657 -0.193982,0.352032 5.43e-4,0.166713 8.942593,10.208157 27.713178,31.120587 15.241767,16.980947 27.884967,31.044776 28.096,31.252946 0.309624,0.30542 0.441513,0.36439 0.683195,0.30549 0.218714,-0.0533 0.2995,-0.14558 0.2995,-0.34212 0,-0.19798 -7.402673,-8.515256 -28.000188,-31.459612 C 41.955005,38.594045 29.264323,24.525764 29.153593,24.485964 c -0.110729,-0.03981 -0.289013,-0.02473 -0.396187,0.03354 l 0,0 z"
   id="path4067"
   inkscape:connector-curvature="0" /></g></svg>