<?xml version="1.0" encoding="UTF-8" standalone="no"?>
<!-- Created with Inkscape (http://www.inkscape.org/) -->

<svg
   xmlns:dc="http://purl.org/dc/elements/1.1/"
   xmlns:cc="http://creativecommons.org/ns#"
   xmlns:rdf="http://www.w3.org/1999/02/22-rdf-syntax-ns#"
   xmlns:svg="http://www.w3.org/2000/svg"
   xmlns="http://www.w3.org/2000/svg"
   xmlns:sodipodi="http://sodipodi.sourceforge.net/DTD/sodipodi-0.dtd"
   xmlns:inkscape="http://www.inkscape.org/namespaces/inkscape"
   id="svg4225"
   version="1.1"
   inkscape:version="0.48.1 "
   width="390"
   height="240"
   xml:space="preserve"
   sodipodi:docname="MMUN_inv_OPAMP.svg"><metadata
     id="metadata4231"><rdf:RDF><cc:Work
         rdf:about=""><dc:format>image/svg+xml</dc:format><dc:type
           rdf:resource="http://purl.org/dc/dcmitype/StillImage" /><dc:title></dc:title></cc:Work></rdf:RDF></metadata><defs
     id="defs4229" /><sodipodi:namedview
     pagecolor="#ffffff"
     bordercolor="#666666"
     borderopacity="1"
     objecttolerance="10"
     gridtolerance="10"
     guidetolerance="10"
     inkscape:pageopacity="0"
     inkscape:pageshadow="2"
     inkscape:window-width="1831"
     inkscape:window-height="1173"
     id="namedview4227"
     showgrid="false"
     inkscape:zoom="1.1490485"
     inkscape:cx="217.52978"
     inkscape:cy="276.23024"
     inkscape:window-x="80"
     inkscape:window-y="-9"
     inkscape:window-maximized="1"
     inkscape:current-layer="g4233" /><g
     id="g4233"
     inkscape:groupmode="layer"
     inkscape:label="skici"
     transform="matrix(1.25,0,0,-1.25,0,240)"><path
       d="m 172.2354,78.312155 56.69,28.349995 -56.69,28.35 0,-56.699995 z"
       style="fill:#bfbfbf;fill-opacity:1;fill-rule:evenodd;stroke:none"
       id="path4393"
       inkscape:connector-curvature="0" /><path
       d="m 172.2354,78.312155 56.69,28.349995 -56.69,28.35 0,-56.699995 z"
       style="fill:none;stroke:#000000;stroke-width:2.16000009;stroke-linecap:round;stroke-linejoin:round;stroke-miterlimit:10;stroke-opacity:1;stroke-dasharray:none"
       id="path4395"
       inkscape:connector-curvature="0" /><path
       d="m 176.7654,120.83215 6.81,0"
       style="fill:none;stroke:#000000;stroke-width:2.16000009;stroke-linecap:round;stroke-linejoin:round;stroke-miterlimit:10;stroke-opacity:1;stroke-dasharray:none"
       id="path4397"
       inkscape:connector-curvature="0" /><path
       d="m 177.3354,92.492155 6.8,0"
       style="fill:none;stroke:#000000;stroke-width:2.16000009;stroke-linecap:round;stroke-linejoin:round;stroke-miterlimit:10;stroke-opacity:1;stroke-dasharray:none"
       id="path4399"
       inkscape:connector-curvature="0" /><path
       d="m 177.3354,92.492155 6.8,0"
       style="fill:none;stroke:#000000;stroke-width:2.16000009;stroke-linecap:round;stroke-linejoin:round;stroke-miterlimit:10;stroke-opacity:1;stroke-dasharray:none"
       id="path4401"
       inkscape:connector-curvature="0" /><path
       d="m 180.7354,95.892155 0,-6.81"
       style="fill:none;stroke:#000000;stroke-width:2.16000009;stroke-linecap:round;stroke-linejoin:round;stroke-miterlimit:10;stroke-opacity:1;stroke-dasharray:none"
       id="path4403"
       inkscape:connector-curvature="0" /><path
       d="m 172.3854,89.722155 -19.8,0 0,-31.2"
       style="fill:none;stroke:#000000;stroke-width:0.72000003;stroke-linecap:round;stroke-linejoin:round;stroke-miterlimit:10;stroke-opacity:1;stroke-dasharray:none"
       id="path4405"
       inkscape:connector-curvature="0" /><path
       d="m 152.3954,60.902155 c -1.35,0 -2.43,-1.09 -2.43,-2.43 0,-1.34 1.08,-2.43 2.43,-2.43 0,0 0,0 0,0 1.34,0 2.43,1.09 2.43,2.43 0,1.34 -1.09,2.43 -2.43,2.43 z"
       style="fill:#000000;fill-opacity:1;fill-rule:evenodd;stroke:none"
       id="path4407"
       inkscape:connector-curvature="0" /><path
       d="m 56.585404,58.522155 177.599996,0"
       style="fill:none;stroke:#000000;stroke-width:0.72000003;stroke-linecap:round;stroke-linejoin:round;stroke-miterlimit:10;stroke-opacity:1;stroke-dasharray:none"
       id="path4409"
       inkscape:connector-curvature="0" /><path
       d="m 248.5854,160.52215 -95.4,0"
       style="fill:none;stroke:#000000;stroke-width:0.72000003;stroke-linecap:round;stroke-linejoin:round;stroke-miterlimit:10;stroke-opacity:1;stroke-dasharray:none"
       id="path4411"
       inkscape:connector-curvature="0" /><path
       d="m 187.3854,156.32215 28.2,0 0,8.3999 -28.2,0 0,-8.3999 z"
       style="fill:#bfbfbf;fill-opacity:1;fill-rule:evenodd;stroke:none"
       id="path4413"
       inkscape:connector-curvature="0" /><path
       d="m 187.3854,156.32215 28.2,0 0,8.3999 -28.2,0 0,-8.3999 z"
       style="fill:none;stroke:#000000;stroke-width:0.72000003;stroke-linecap:round;stroke-linejoin:round;stroke-miterlimit:10;stroke-opacity:1;stroke-dasharray:none"
       id="path4415"
       inkscape:connector-curvature="0" /><path
       d="m 248.5854,160.52215 0,-54 -19.8,0"
       style="fill:none;stroke:#000000;stroke-width:0.72000003;stroke-linecap:round;stroke-linejoin:round;stroke-miterlimit:10;stroke-opacity:1;stroke-dasharray:none"
       id="path4417"
       inkscape:connector-curvature="0" /><path
       d="m 277.3854,160.52215 -28.8,0"
       style="fill:none;stroke:#000000;stroke-width:0.72000003;stroke-linecap:round;stroke-linejoin:round;stroke-miterlimit:10;stroke-opacity:1;stroke-dasharray:none"
       id="path4419"
       inkscape:connector-curvature="0" /><path
       d="m 251.1954,160.53215 c 0,1.35 -1.1,2.43 -2.44,2.42 -1.34,-0.01 -2.42,-1.11 -2.42,-2.45 0,0 0,0 0,0 0.01,-1.34 1.11,-2.42 2.45,-2.41 1.34,0.01 2.42,1.1 2.41,2.44 z"
       style="fill:#000000;fill-opacity:1;fill-rule:evenodd;stroke:none"
       id="path4421"
       inkscape:connector-curvature="0" /><path
       d="m 282.7854,160.69215 c 0,1.57 -1.27,2.84 -2.83,2.84 -1.57,0 -2.84,-1.27 -2.84,-2.84 0,-1.56 1.27,-2.83 2.84,-2.83 1.56,0 2.83,1.27 2.83,2.83 z"
       style="fill:#bfbfbf;fill-opacity:1;fill-rule:evenodd;stroke:none"
       id="path4423"
       inkscape:connector-curvature="0" /><path
       d="m 282.7854,160.69215 c 0,1.57 -1.27,2.84 -2.83,2.84 -1.57,0 -2.84,-1.27 -2.84,-2.84 0,-1.56 1.27,-2.83 2.84,-2.83 1.56,0 2.83,1.27 2.83,2.83 z"
       style="fill:none;stroke:#000000;stroke-width:0.72000003;stroke-linecap:round;stroke-linejoin:round;stroke-miterlimit:10;stroke-opacity:1;stroke-dasharray:none"
       id="path4425"
       inkscape:connector-curvature="0" /><text
       transform="scale(1,-1)"
       id="text4427"
       x="191.3251"
       y="-168.44215"><tspan
         style="font-size:18px;font-variant:normal;font-weight:normal;writing-mode:lr-tb;fill:#000000;fill-opacity:1;fill-rule:nonzero;stroke:none;font-family:ARIAL;-inkscape-font-specification:ARIAL"
         x="191.3251"
         y="-168.44215"
         id="tspan4429">R</tspan></text>
<text
       transform="scale(1,-1)"
       id="text4431"
       x="204.3251"
       y="-165.95216"><tspan
         style="font-size:11.69855976px;font-variant:normal;font-weight:normal;writing-mode:lr-tb;fill:#000000;fill-opacity:1;fill-rule:nonzero;stroke:none;font-family:ARIAL;-inkscape-font-specification:ARIAL"
         x="204.3251"
         y="-165.95216"
         id="tspan4433">a</tspan></text>
<text
       transform="scale(1,-1)"
       id="text4435"
       x="112.5555"
       y="-168.33214"><tspan
         style="font-size:18px;font-variant:normal;font-weight:normal;writing-mode:lr-tb;fill:#000000;fill-opacity:1;fill-rule:nonzero;stroke:none;font-family:ARIAL;-inkscape-font-specification:ARIAL"
         x="112.5555"
         y="-168.33214"
         id="tspan4437">R</tspan></text>
<text
       transform="scale(1,-1)"
       id="text4439"
       x="125.55549"
       y="-165.85216"><tspan
         style="font-size:11.69855976px;font-variant:normal;font-weight:normal;writing-mode:lr-tb;fill:#000000;fill-opacity:1;fill-rule:nonzero;stroke:none;font-family:ARIAL;-inkscape-font-specification:ARIAL"
         x="125.55549"
         y="-165.85216"
         id="tspan4441">b</tspan></text>
<path
       d="m 282.2154,57.092155 c 0,1.56 -1.27,2.83 -2.83,2.83 -1.57,0 -2.84,-1.27 -2.84,-2.83 0,-1.57 1.27,-2.84 2.84,-2.84 1.56,0 2.83,1.27 2.83,2.84 z"
       style="fill:#bfbfbf;fill-opacity:1;fill-rule:evenodd;stroke:none"
       id="path4443"
       inkscape:connector-curvature="0" /><path
       d="m 282.2154,57.092155 c 0,1.56 -1.27,2.83 -2.83,2.83 -1.57,0 -2.84,-1.27 -2.84,-2.83 0,-1.57 1.27,-2.84 2.84,-2.84 1.56,0 2.83,1.27 2.83,2.84 z"
       style="fill:none;stroke:#000000;stroke-width:0.72000003;stroke-linecap:round;stroke-linejoin:round;stroke-miterlimit:10;stroke-opacity:1;stroke-dasharray:none"
       id="path4445"
       inkscape:connector-curvature="0" /><path
       d="m 86.5554,58.432155 c 0,1.57 -1.27,2.84 -2.829996,2.84 -1.57,0 -2.84,-1.27 -2.84,-2.84 0,-1.56 1.27,-2.83 2.84,-2.83 1.559996,0 2.829996,1.27 2.829996,2.83 z"
       style="fill:#bfbfbf;fill-opacity:1;fill-rule:evenodd;stroke:none"
       id="path4447"
       inkscape:connector-curvature="0" /><path
       d="m 86.5554,58.432155 c 0,1.57 -1.27,2.84 -2.829996,2.84 -1.57,0 -2.84,-1.27 -2.84,-2.84 0,-1.56 1.27,-2.83 2.84,-2.83 1.559996,0 2.829996,1.27 2.829996,2.83 z"
       style="fill:none;stroke:#000000;stroke-width:0.72000003;stroke-linecap:round;stroke-linejoin:round;stroke-miterlimit:10;stroke-opacity:1;stroke-dasharray:none"
       id="path4449"
       inkscape:connector-curvature="0" /><path
       d="m 280.3854,153.32215 0,-80.399995"
       style="fill:none;stroke:#9c4a09;stroke-width:0.72000003;stroke-linecap:round;stroke-linejoin:round;stroke-miterlimit:10;stroke-opacity:1;stroke-dasharray:none"
       id="path4451"
       inkscape:connector-curvature="0" /><path
       d="m 283.9854,74.122155 -3.6,-10.2 -3,10.2 6.6,0 z"
       style="fill:#9c4a09;fill-opacity:1;fill-rule:evenodd;stroke:none"
       id="path4453"
       inkscape:connector-curvature="0" /><path
       d="m 43.385404,153.32215 0,-139.799995"
       style="fill:none;stroke:#9c4a09;stroke-width:0.72000003;stroke-linecap:round;stroke-linejoin:round;stroke-miterlimit:10;stroke-opacity:1;stroke-dasharray:none"
       id="path4455"
       inkscape:connector-curvature="0" /><path
       d="m 46.985404,14.122155 -3.6,-9.6000002 -3,9.6000002 6.6,0 z"
       style="fill:#9c4a09;fill-opacity:1;fill-rule:evenodd;stroke:none"
       id="path4457"
       inkscape:connector-curvature="0" /><path
       d="m 153.1854,123.32215 19.2,0"
       style="fill:none;stroke:#000000;stroke-width:0.72000003;stroke-linecap:round;stroke-linejoin:round;stroke-miterlimit:10;stroke-opacity:1;stroke-dasharray:none"
       id="path4459"
       inkscape:connector-curvature="0" /><path
       d="m 153.1854,123.32215 0,37.2"
       style="fill:none;stroke:#000000;stroke-width:0.72000003;stroke-linecap:round;stroke-linejoin:round;stroke-miterlimit:10;stroke-opacity:1;stroke-dasharray:none"
       id="path4461"
       inkscape:connector-curvature="0" /><path
       d="m 152.8854,158.09215 c -1.34,0 -2.43,1.09 -2.43,2.43 0,1.34 1.09,2.43 2.43,2.43 0,0 0,0 0,0 1.34,0 2.43,-1.09 2.43,-2.43 0,-1.34 -1.09,-2.43 -2.43,-2.43 z"
       style="fill:#000000;fill-opacity:1;fill-rule:evenodd;stroke:none"
       id="path4463"
       inkscape:connector-curvature="0" /><path
       d="m 25.385404,160.52215 143.399996,0"
       style="fill:none;stroke:#000000;stroke-width:0.72000003;stroke-linecap:round;stroke-linejoin:round;stroke-miterlimit:10;stroke-opacity:1;stroke-dasharray:none"
       id="path4465"
       inkscape:connector-curvature="0" /><path
       d="m 106.9854,156.32215 28.2,0 0,7.8 -28.2,0 0,-7.8 z"
       style="fill:#bfbfbf;fill-opacity:1;fill-rule:evenodd;stroke:none"
       id="path4467"
       inkscape:connector-curvature="0" /><path
       d="m 106.9854,156.32215 28.2,0 0,7.8 -28.2,0 0,-7.8 z"
       style="fill:none;stroke:#000000;stroke-width:0.72000003;stroke-linecap:round;stroke-linejoin:round;stroke-miterlimit:10;stroke-opacity:1;stroke-dasharray:none"
       id="path4469"
       inkscape:connector-curvature="0" /><path
       d="m 86.5554,160.49215 c 0,1.57 -1.27,2.84 -2.829996,2.84 -1.57,0 -2.84,-1.27 -2.84,-2.84 0,-1.56 1.27,-2.83 2.84,-2.83 1.559996,0 2.829996,1.27 2.829996,2.83 z"
       style="fill:#bfbfbf;fill-opacity:1;fill-rule:evenodd;stroke:none"
       id="path4471"
       inkscape:connector-curvature="0" /><path
       d="m 86.5554,160.49215 c 0,1.57 -1.27,2.84 -2.829996,2.84 -1.57,0 -2.84,-1.27 -2.84,-2.84 0,-1.56 1.27,-2.83 2.84,-2.83 1.559996,0 2.829996,1.27 2.829996,2.83 z"
       style="fill:none;stroke:#000000;stroke-width:0.72000003;stroke-linecap:round;stroke-linejoin:round;stroke-miterlimit:10;stroke-opacity:1;stroke-dasharray:none"
       id="path4473"
       inkscape:connector-curvature="0" /><text
       transform="scale(1,-1)"
       id="text4475"
       x="82.45549"
       y="-163.85216"><tspan
         style="font-size:23.99975967px;font-variant:normal;font-weight:normal;writing-mode:lr-tb;fill:#7030a0;fill-opacity:1;fill-rule:nonzero;stroke:none;font-family:FREESTYLE SCRIPT;-inkscape-font-specification:FREESTYLE SCRIPT"
         x="82.45549"
         y="-163.85216"
         id="tspan4477">1</tspan></text>
<text
       transform="scale(1,-1)"
       id="text4479"
       x="151.33551"
       y="-164.83214"><tspan
         style="font-size:23.99975967px;font-variant:normal;font-weight:normal;writing-mode:lr-tb;fill:#7030a0;fill-opacity:1;fill-rule:nonzero;stroke:none;font-family:FREESTYLE SCRIPT;-inkscape-font-specification:FREESTYLE SCRIPT"
         x="151.33551"
         y="-164.83214"
         id="tspan4481">4</tspan></text>
<text
       transform="scale(1,-1)"
       id="text4483"
       x="245.16513"
       y="-164.40215"><tspan
         style="font-size:23.99975967px;font-variant:normal;font-weight:normal;writing-mode:lr-tb;fill:#7030a0;fill-opacity:1;fill-rule:nonzero;stroke:none;font-family:FREESTYLE SCRIPT;-inkscape-font-specification:FREESTYLE SCRIPT"
         x="245.16513"
         y="-164.40215"
         id="tspan4485">3</tspan></text>
<text
       transform="scale(1,-1)"
       id="text4487"
       x="47.955486"
       y="-103.75215"><tspan
         style="font-size:23.99975967px;font-variant:normal;font-weight:normal;writing-mode:lr-tb;fill:#ea700d;fill-opacity:1;fill-rule:nonzero;stroke:none;font-family:FREESTYLE SCRIPT;-inkscape-font-specification:FREESTYLE SCRIPT"
         x="47.955486"
         y="-103.75215"
         id="tspan4489">U</tspan></text>
<text
       transform="scale(1,-1)"
       id="text4491"
       x="60.435501"
       y="-100.31215"><tspan
         style="font-size:15.59735966px;font-variant:normal;font-weight:normal;writing-mode:lr-tb;fill:#ea700d;fill-opacity:1;fill-rule:nonzero;stroke:none;font-family:FREESTYLE SCRIPT;-inkscape-font-specification:FREESTYLE SCRIPT"
         x="60.435501"
         y="-100.31215"
         id="tspan4493">1</tspan></text>
<text
       transform="scale(1,-1)"
       id="text4495"
       x="285.71512"
       y="-101.05214"><tspan
         style="font-size:23.99975967px;font-variant:normal;font-weight:normal;writing-mode:lr-tb;fill:#ea700d;fill-opacity:1;fill-rule:nonzero;stroke:none;font-family:FREESTYLE SCRIPT;-inkscape-font-specification:FREESTYLE SCRIPT"
         x="285.71512"
         y="-101.05214"
         id="tspan4497">U</tspan></text>
<text
       transform="scale(1,-1)"
       id="text4499"
       x="298.1951"
       y="-97.622147"><tspan
         style="font-size:15.59735966px;font-variant:normal;font-weight:normal;writing-mode:lr-tb;fill:#ea700d;fill-opacity:1;fill-rule:nonzero;stroke:none;font-family:FREESTYLE SCRIPT;-inkscape-font-specification:FREESTYLE SCRIPT"
         x="298.1951"
         y="-97.622147"
         id="tspan4501">3</tspan></text>
<path
       d="m 152.5854,51.322155 0,-37.8"
       style="fill:none;stroke:#9c4a09;stroke-width:0.72000003;stroke-linecap:round;stroke-linejoin:round;stroke-miterlimit:10;stroke-opacity:1;stroke-dasharray:none"
       id="path4503"
       inkscape:connector-curvature="0" /><path
       d="m 155.5854,14.122155 -3,-9.6000002 -3,9.6000002 6,0 z"
       style="fill:#9c4a09;fill-opacity:1;fill-rule:evenodd;stroke:none"
       id="path4505"
       inkscape:connector-curvature="0" /><text
       transform="scale(1,-1)"
       id="text4507"
       x="157.09549"
       y="-25.792147"><tspan
         style="font-size:23.99975967px;font-variant:normal;font-weight:normal;writing-mode:lr-tb;fill:#ea700d;fill-opacity:1;fill-rule:nonzero;stroke:none;font-family:FREESTYLE SCRIPT;-inkscape-font-specification:FREESTYLE SCRIPT"
         x="157.09549"
         y="-25.792147"
         id="tspan4509">U</tspan></text>
<text
       transform="scale(1,-1)"
       id="text4511"
       x="169.57547"
       y="-22.362154"><tspan
         style="font-size:15.59735966px;font-variant:normal;font-weight:normal;writing-mode:lr-tb;fill:#ea700d;fill-opacity:1;fill-rule:nonzero;stroke:none;font-family:FREESTYLE SCRIPT;-inkscape-font-specification:FREESTYLE SCRIPT"
         x="169.57547"
         y="-22.362154"
         id="tspan4513">5</tspan></text>
<path
       d="m 25.385404,4.5221548 0,155.9999952"
       style="fill:none;stroke:#000000;stroke-width:0.72000003;stroke-linecap:round;stroke-linejoin:round;stroke-miterlimit:10;stroke-opacity:1;stroke-dasharray:none"
       id="path4515"
       inkscape:connector-curvature="0" /><path
       d="m 35.745404,29.452155 c 0,5.87 -4.76,10.63 -10.63,10.63 -5.87,0 -10.63,-4.76 -10.63,-10.63 0,-5.87 4.76,-10.63 10.63,-10.63 5.87,0 10.63,4.76 10.63,10.63 z"
       style="fill:#bfbfbf;fill-opacity:1;fill-rule:evenodd;stroke:none"
       id="path4517"
       inkscape:connector-curvature="0" /><path
       d="m 35.745404,29.452155 c 0,5.87 -4.76,10.63 -10.63,10.63 -5.87,0 -10.63,-4.76 -10.63,-10.63 0,-5.87 4.76,-10.63 10.63,-10.63 5.87,0 10.63,4.76 10.63,10.63 z"
       style="fill:none;stroke:#000000;stroke-width:0.72000003;stroke-linecap:round;stroke-linejoin:round;stroke-miterlimit:10;stroke-opacity:1;stroke-dasharray:none"
       id="path4519"
       inkscape:connector-curvature="0" /><text
       transform="scale(1,-1)"
       id="text4521"
       x="21.615496"
       y="-25.852144"><tspan
         style="font-size:12.00024033px;font-variant:normal;font-weight:normal;writing-mode:lr-tb;fill:#000000;fill-opacity:1;fill-rule:nonzero;stroke:none;font-family:ARIAL;-inkscape-font-specification:ARIAL"
         x="21.615496"
         y="-25.852144"
         id="tspan4523">=</tspan></text>
<path
       d="m 247.9854,99.922155 -12.6,0"
       style="fill:none;stroke:#000000;stroke-width:0.72000003;stroke-linecap:round;stroke-linejoin:round;stroke-miterlimit:10;stroke-opacity:1;stroke-dasharray:none"
       id="path4525"
       inkscape:connector-curvature="0" /><path
       d="m 235.3854,102.32215 -7.2,-2.399995 7.2,-2.4 0,4.799995"
       style="fill:none;stroke:#000000;stroke-width:0.72000003;stroke-linecap:round;stroke-linejoin:round;stroke-miterlimit:10;stroke-opacity:1;stroke-dasharray:none"
       id="path4527"
       inkscape:connector-curvature="0" /><text
       transform="scale(1,-1)"
       id="text4529"
       x="236.11508"
       y="-85.632156"><tspan
         style="font-size:13.99967957px;font-variant:normal;font-weight:normal;writing-mode:lr-tb;fill:#000000;fill-opacity:1;fill-rule:nonzero;stroke:none;font-family:FREESTYLE SCRIPT;-inkscape-font-specification:FREESTYLE SCRIPT"
         x="236.11508"
         y="-85.632156"
         id="tspan4531">I</tspan></text>
<text
       transform="scale(1,-1)"
       id="text4533"
       x="239.27512"
       y="-83.632156"><tspan
         style="font-size:9.09864044px;font-variant:normal;font-weight:normal;writing-mode:lr-tb;fill:#000000;fill-opacity:1;fill-rule:nonzero;stroke:none;font-family:FREESTYLE SCRIPT;-inkscape-font-specification:FREESTYLE SCRIPT"
         x="239.27512 243.33121"
         y="-83.632156"
         sodipodi:role="line"
         id="tspan4535">OZ</tspan></text>
<text
       transform="scale(1,-1)"
       id="text4537"
       x="203.61508"
       y="-123.75215"><tspan
         style="font-size:13.99967957px;font-variant:normal;font-weight:normal;writing-mode:lr-tb;fill:#000000;fill-opacity:1;fill-rule:nonzero;stroke:none;font-family:ARIAL;-inkscape-font-specification:ARIAL"
         x="203.61508 214.5051"
         y="-123.75215"
         sodipodi:role="line"
         id="tspan4539">OZ</tspan></text>
<path
       d="m 234.1854,4.5221548 0,54.0000002"
       style="fill:none;stroke:#000000;stroke-width:0.72000003;stroke-linecap:round;stroke-linejoin:round;stroke-miterlimit:10;stroke-opacity:1;stroke-dasharray:none"
       id="path4541"
       inkscape:connector-curvature="0" /><path
       d="m 228.9254,4.6521548 11.34,0"
       style="fill:none;stroke:#000000;stroke-width:3;stroke-linecap:round;stroke-linejoin:round;stroke-miterlimit:10;stroke-opacity:1;stroke-dasharray:none"
       id="path4543"
       inkscape:connector-curvature="0" /><path
       d="m 187.3854,54.922155 28.2,0 0,8.4001 -28.2,0 0,-8.4001 z"
       style="fill:#bfbfbf;fill-opacity:1;fill-rule:evenodd;stroke:none"
       id="path4545"
       inkscape:connector-curvature="0" /><path
       d="m 187.3854,54.922155 28.2,0 0,8.4001 -28.2,0 0,-8.4001 z"
       style="fill:none;stroke:#000000;stroke-width:0.72000003;stroke-linecap:round;stroke-linejoin:round;stroke-miterlimit:10;stroke-opacity:1;stroke-dasharray:none"
       id="path4547"
       inkscape:connector-curvature="0" /><text
       transform="scale(1,-1)"
       id="text4549"
       x="191.51511"
       y="-67.192154"><tspan
         style="font-size:18px;font-variant:normal;font-weight:normal;writing-mode:lr-tb;fill:#000000;fill-opacity:1;fill-rule:nonzero;stroke:none;font-family:ARIAL;-inkscape-font-specification:ARIAL"
         x="191.51511"
         y="-67.192154"
         id="tspan4551">R</tspan></text>
<text
       transform="scale(1,-1)"
       id="text4553"
       x="204.5051"
       y="-64.702148"><tspan
         style="font-size:11.69855976px;font-variant:normal;font-weight:normal;writing-mode:lr-tb;fill:#000000;fill-opacity:1;fill-rule:nonzero;stroke:none;font-family:ARIAL;-inkscape-font-specification:ARIAL"
         x="204.5051"
         y="-64.702148"
         id="tspan4555">c</tspan></text>
<text
       transform="scale(1,-1)"
       id="text4557"
       x="112.41548"
       y="-67.082153"><tspan
         style="font-size:18px;font-variant:normal;font-weight:normal;writing-mode:lr-tb;fill:#000000;fill-opacity:1;fill-rule:nonzero;stroke:none;font-family:ARIAL;-inkscape-font-specification:ARIAL"
         x="112.41548"
         y="-67.082153"
         id="tspan4559">R</tspan></text>
<text
       transform="scale(1,-1)"
       id="text4561"
       x="125.41548"
       y="-64.602142"><tspan
         style="font-size:11.69855976px;font-variant:normal;font-weight:normal;writing-mode:lr-tb;fill:#000000;fill-opacity:1;fill-rule:nonzero;stroke:none;font-family:ARIAL;-inkscape-font-specification:ARIAL"
         x="125.41548"
         y="-64.602142"
         id="tspan4563">d</tspan></text>
<path
       d="m 106.9854,54.922155 28.2,0 0,7.8 -28.2,0 0,-7.8 z"
       style="fill:#bfbfbf;fill-opacity:1;fill-rule:evenodd;stroke:none"
       id="path4565"
       inkscape:connector-curvature="0" /><path
       d="m 106.9854,54.922155 28.2,0 0,7.8 -28.2,0 0,-7.8 z"
       style="fill:none;stroke:#000000;stroke-width:0.72000003;stroke-linecap:round;stroke-linejoin:round;stroke-miterlimit:10;stroke-opacity:1;stroke-dasharray:none"
       id="path4567"
       inkscape:connector-curvature="0" /><text
       transform="scale(1,-1)"
       id="text4569"
       x="82.805496"
       y="-64.502151"><tspan
         style="font-size:23.99975967px;font-variant:normal;font-weight:normal;writing-mode:lr-tb;fill:#7030a0;fill-opacity:1;fill-rule:nonzero;stroke:none;font-family:FREESTYLE SCRIPT;-inkscape-font-specification:FREESTYLE SCRIPT"
         x="82.805496"
         y="-64.502151"
         id="tspan4571">2</tspan></text>
<text
       transform="scale(1,-1)"
       id="text4573"
       x="159.06549"
       y="-61.662155"><tspan
         style="font-size:23.99975967px;font-variant:normal;font-weight:normal;writing-mode:lr-tb;fill:#7030a0;fill-opacity:1;fill-rule:nonzero;stroke:none;font-family:FREESTYLE SCRIPT;-inkscape-font-specification:FREESTYLE SCRIPT"
         x="159.06549"
         y="-61.662155"
         id="tspan4575">5</tspan></text>
<path
       d="m 56.585404,6.3221548 0,52.2000002"
       style="fill:none;stroke:#000000;stroke-width:0.72000003;stroke-linecap:round;stroke-linejoin:round;stroke-miterlimit:10;stroke-opacity:1;stroke-dasharray:none"
       id="path4577"
       inkscape:connector-curvature="0" /><path
       d="m 67.495404,30.872155 c 0,5.87 -4.76,10.63 -10.63,10.63 -5.87,0 -10.63,-4.76 -10.63,-10.63 0,-5.87 4.76,-10.63 10.63,-10.63 5.87,0 10.63,4.76 10.63,10.63 z"
       style="fill:#bfbfbf;fill-opacity:1;fill-rule:evenodd;stroke:none"
       id="path4579"
       inkscape:connector-curvature="0" /><path
       d="m 67.495404,30.872155 c 0,5.87 -4.76,10.63 -10.63,10.63 -5.87,0 -10.63,-4.76 -10.63,-10.63 0,-5.87 4.76,-10.63 10.63,-10.63 5.87,0 10.63,4.76 10.63,10.63 z"
       style="fill:none;stroke:#000000;stroke-width:0.72000003;stroke-linecap:round;stroke-linejoin:round;stroke-miterlimit:10;stroke-opacity:1;stroke-dasharray:none"
       id="path4581"
       inkscape:connector-curvature="0" /><text
       transform="scale(1,-1)"
       id="text4583"
       x="53.355484"
       y="-27.272158"><tspan
         style="font-size:12.00024033px;font-variant:normal;font-weight:normal;writing-mode:lr-tb;fill:#000000;fill-opacity:1;fill-rule:nonzero;stroke:none;font-family:ARIAL;-inkscape-font-specification:ARIAL"
         x="53.355484"
         y="-27.272158"
         id="tspan4585">=</tspan></text>
<path
       d="m 51.905404,4.6521548 11.34,0"
       style="fill:none;stroke:#000000;stroke-width:3;stroke-linecap:round;stroke-linejoin:round;stroke-miterlimit:10;stroke-opacity:1;stroke-dasharray:none"
       id="path4587"
       inkscape:connector-curvature="0" /><path
       d="m 19.445404,4.6521548 11.34,0"
       style="fill:none;stroke:#000000;stroke-width:3;stroke-linecap:round;stroke-linejoin:round;stroke-miterlimit:10;stroke-opacity:1;stroke-dasharray:none"
       id="path4589"
       inkscape:connector-curvature="0" /><path
       d="m 86.5854,50.122155 0,-36.6"
       style="fill:none;stroke:#9c4a09;stroke-width:0.72000003;stroke-linecap:round;stroke-linejoin:round;stroke-miterlimit:10;stroke-opacity:1;stroke-dasharray:none"
       id="path4591"
       inkscape:connector-curvature="0" /><path
       d="m 89.5854,14.122155 -3,-9.6000002 -2.999996,9.6000002 5.999996,0 z"
       style="fill:#9c4a09;fill-opacity:1;fill-rule:evenodd;stroke:none"
       id="path4593"
       inkscape:connector-curvature="0" /><text
       transform="scale(1,-1)"
       id="text4595"
       x="90.475479"
       y="-25.792147"><tspan
         style="font-size:23.99975967px;font-variant:normal;font-weight:normal;writing-mode:lr-tb;fill:#ea700d;fill-opacity:1;fill-rule:nonzero;stroke:none;font-family:FREESTYLE SCRIPT;-inkscape-font-specification:FREESTYLE SCRIPT"
         x="90.475479"
         y="-25.792147"
         id="tspan4597">U</tspan></text>
<text
       transform="scale(1,-1)"
       id="text4599"
       x="102.95549"
       y="-22.362154"><tspan
         style="font-size:15.59735966px;font-variant:normal;font-weight:normal;writing-mode:lr-tb;fill:#ea700d;fill-opacity:1;fill-rule:nonzero;stroke:none;font-family:FREESTYLE SCRIPT;-inkscape-font-specification:FREESTYLE SCRIPT"
         x="102.95549"
         y="-22.362154"
         id="tspan4601">2</tspan></text>
<path
       d="m 279.7854,4.5221548 0,49.8000002"
       style="fill:none;stroke:#000000;stroke-width:0.72000003;stroke-linecap:round;stroke-linejoin:round;stroke-miterlimit:10;stroke-opacity:1;stroke-dasharray:none"
       id="path4603"
       inkscape:connector-curvature="0" /><path
       d="m 274.4254,4.7921548 11.34,0"
       style="fill:none;stroke:#000000;stroke-width:3;stroke-linecap:round;stroke-linejoin:round;stroke-miterlimit:10;stroke-opacity:1;stroke-dasharray:none"
       id="path4605"
       inkscape:connector-curvature="0" /><path
       d="m 141.7854,153.32215 0,-139.799995"
       style="fill:none;stroke:#9c4a09;stroke-width:0.72000003;stroke-linecap:round;stroke-linejoin:round;stroke-miterlimit:10;stroke-opacity:1;stroke-dasharray:none"
       id="path4607"
       inkscape:connector-curvature="0" /><path
       d="m 145.3854,14.122155 -3.6,-9.6000002 -3,9.6000002 6.6,0 z"
       style="fill:#9c4a09;fill-opacity:1;fill-rule:evenodd;stroke:none"
       id="path4609"
       inkscape:connector-curvature="0" /><text
       transform="scale(1,-1)"
       id="text4611"
       x="114.57551"
       y="-103.75215"><tspan
         style="font-size:23.99975967px;font-variant:normal;font-weight:normal;writing-mode:lr-tb;fill:#ea700d;fill-opacity:1;fill-rule:nonzero;stroke:none;font-family:FREESTYLE SCRIPT;-inkscape-font-specification:FREESTYLE SCRIPT"
         x="114.57551"
         y="-103.75215"
         id="tspan4613">U</tspan></text>
<text
       transform="scale(1,-1)"
       id="text4615"
       x="127.0555"
       y="-100.31215"><tspan
         style="font-size:15.59735966px;font-variant:normal;font-weight:normal;writing-mode:lr-tb;fill:#ea700d;fill-opacity:1;fill-rule:nonzero;stroke:none;font-family:FREESTYLE SCRIPT;-inkscape-font-specification:FREESTYLE SCRIPT"
         x="127.0555"
         y="-100.31215"
         id="tspan4617">4</tspan></text>
<text
       transform="scale(1,-1)"
       id="text4771"
       x="2.605484"
       y="-9.1721506"><tspan
         style="font-size:18px;font-variant:normal;font-weight:normal;writing-mode:lr-tb;fill:#000000;fill-opacity:1;fill-rule:nonzero;stroke:none;font-family:ARIAL;-inkscape-font-specification:ARIAL"
         x="2.605484"
         y="-9.1721506"
         id="tspan4773">U</tspan></text>
<text
       transform="scale(1,-1)"
       id="text4775"
       x="15.605484"
       y="-6.6821451"><tspan
         style="font-size:11.69855976px;font-variant:normal;font-weight:normal;writing-mode:lr-tb;fill:#000000;fill-opacity:1;fill-rule:nonzero;stroke:none;font-family:ARIAL;-inkscape-font-specification:ARIAL"
         x="15.605484"
         y="-6.6821451"
         id="tspan4777">1</tspan></text>
<text
       transform="scale(1,-1)"
       id="text4779"
       x="61.285477"
       y="-7.7521524"><tspan
         style="font-size:18px;font-variant:normal;font-weight:normal;writing-mode:lr-tb;fill:#000000;fill-opacity:1;fill-rule:nonzero;stroke:none;font-family:ARIAL;-inkscape-font-specification:ARIAL"
         x="61.285477"
         y="-7.7521524"
         id="tspan4781">U</tspan></text>
<text
       transform="scale(1,-1)"
       id="text4783"
       x="74.285477"
       y="-5.2621469"><tspan
         style="font-size:11.69855976px;font-variant:normal;font-weight:normal;writing-mode:lr-tb;fill:#000000;fill-opacity:1;fill-rule:nonzero;stroke:none;font-family:ARIAL;-inkscape-font-specification:ARIAL"
         x="74.285477"
         y="-5.2621469"
         id="tspan4785">2</tspan></text>
<text
       transform="scale(1,-1)"
       id="text4803"
       x="67.905472"
       y="-40.132156"><tspan
         style="font-size:13.99967957px;font-variant:normal;font-weight:normal;writing-mode:lr-tb;fill:#000000;fill-opacity:1;fill-rule:nonzero;stroke:none;font-family:FREESTYLE SCRIPT;-inkscape-font-specification:FREESTYLE SCRIPT"
         x="67.905472"
         y="-40.132156"
         id="tspan4805">I</tspan></text>
<text
       transform="scale(1,-1)"
       id="text4807"
       x="71.065475"
       y="-38.132156"><tspan
         style="font-size:9.09864044px;font-variant:normal;font-weight:normal;writing-mode:lr-tb;fill:#000000;fill-opacity:1;fill-rule:nonzero;stroke:none;font-family:FREESTYLE SCRIPT;-inkscape-font-specification:FREESTYLE SCRIPT"
         x="71.065475"
         y="-38.132156"
         id="tspan4809">2</tspan></text>
<path
       d="m 62.585404,51.322155 13.8,0"
       style="fill:none;stroke:#000000;stroke-width:0.72000003;stroke-linecap:round;stroke-linejoin:round;stroke-miterlimit:10;stroke-opacity:1;stroke-dasharray:none"
       id="path4815"
       inkscape:connector-curvature="0" /><path
       d="m 76.385404,48.922155 7.2,2.4 -7.2,2.4 0,-4.8"
       style="fill:none;stroke:#000000;stroke-width:0.72000003;stroke-linecap:round;stroke-linejoin:round;stroke-miterlimit:10;stroke-opacity:1;stroke-dasharray:none"
       id="path4817"
       inkscape:connector-curvature="0" /><text
       transform="scale(1,-1)"
       id="text4823"
       x="64.355484"
       y="-174.78215"><tspan
         style="font-size:13.99967957px;font-variant:normal;font-weight:normal;writing-mode:lr-tb;fill:#000000;fill-opacity:1;fill-rule:nonzero;stroke:none;font-family:FREESTYLE SCRIPT;-inkscape-font-specification:FREESTYLE SCRIPT"
         x="64.355484"
         y="-174.78215"
         id="tspan4825">I</tspan></text>
<text
       transform="scale(1,-1)"
       id="text4827"
       x="67.515488"
       y="-172.78215"><tspan
         style="font-size:9.09864044px;font-variant:normal;font-weight:normal;writing-mode:lr-tb;fill:#000000;fill-opacity:1;fill-rule:nonzero;stroke:none;font-family:FREESTYLE SCRIPT;-inkscape-font-specification:FREESTYLE SCRIPT"
         x="67.515488"
         y="-172.78215"
         id="tspan4829">1</tspan></text>
<path
       d="m 57.185404,167.72215 13.8,0"
       style="fill:none;stroke:#000000;stroke-width:0.72000003;stroke-linecap:round;stroke-linejoin:round;stroke-miterlimit:10;stroke-opacity:1;stroke-dasharray:none"
       id="path4831"
       inkscape:connector-curvature="0" /><path
       d="m 70.985404,165.32215 7.2,2.4 -7.2,2.4 0,-4.8"
       style="fill:none;stroke:#000000;stroke-width:0.72000003;stroke-linecap:round;stroke-linejoin:round;stroke-miterlimit:10;stroke-opacity:1;stroke-dasharray:none"
       id="path4833"
       inkscape:connector-curvature="0" /></g></svg>