<?xml version="1.0" encoding="UTF-8" standalone="no"?>
<!-- Created with Inkscape (http://www.inkscape.org/) -->

<svg
   xmlns:dc="http://purl.org/dc/elements/1.1/"
   xmlns:cc="http://creativecommons.org/ns#"
   xmlns:rdf="http://www.w3.org/1999/02/22-rdf-syntax-ns#"
   xmlns:svg="http://www.w3.org/2000/svg"
   xmlns="http://www.w3.org/2000/svg"
   xmlns:sodipodi="http://sodipodi.sourceforge.net/DTD/sodipodi-0.dtd"
   xmlns:inkscape="http://www.inkscape.org/namespaces/inkscape"
   id="svg4225"
   version="1.1"
   inkscape:version="0.48.1 "
   width="360"
   height="180"
   xml:space="preserve"
   sodipodi:docname="MMUN_neinv_OPAMP.svg"><metadata
     id="metadata4231"><rdf:RDF><cc:Work
         rdf:about=""><dc:format>image/svg+xml</dc:format><dc:type
           rdf:resource="http://purl.org/dc/dcmitype/StillImage" /><dc:title></dc:title></cc:Work></rdf:RDF></metadata><defs
     id="defs4229" /><sodipodi:namedview
     pagecolor="#ffffff"
     bordercolor="#666666"
     borderopacity="1"
     objecttolerance="10"
     gridtolerance="10"
     guidetolerance="10"
     inkscape:pageopacity="0"
     inkscape:pageshadow="2"
     inkscape:window-width="1831"
     inkscape:window-height="1173"
     id="namedview4227"
     showgrid="false"
     inkscape:zoom="1.1490485"
     inkscape:cx="217.52978"
     inkscape:cy="276.23024"
     inkscape:window-x="80"
     inkscape:window-y="-9"
     inkscape:window-maximized="1"
     inkscape:current-layer="g4233" /><g
     id="g4233"
     inkscape:groupmode="layer"
     inkscape:label="skici"
     transform="matrix(1.25,0,0,-1.25,0,180)"><path
       d="m 152.67592,34.805624 56.7,28.35 -56.7,28.35 0,-56.7 z"
       style="fill:#bfbfbf;fill-opacity:1;fill-rule:evenodd;stroke:none"
       id="path4237"
       inkscape:connector-curvature="0" /><path
       d="m 152.67592,34.805624 56.7,28.35 -56.7,28.35 0,-56.7 z"
       style="fill:none;stroke:#000000;stroke-width:2.16000009;stroke-linecap:round;stroke-linejoin:round;stroke-miterlimit:10;stroke-opacity:1;stroke-dasharray:none"
       id="path4239"
       inkscape:connector-curvature="0" /><path
       d="m 157.21592,77.325624 6.8,0"
       style="fill:none;stroke:#000000;stroke-width:2.16000009;stroke-linecap:round;stroke-linejoin:round;stroke-miterlimit:10;stroke-opacity:1;stroke-dasharray:none"
       id="path4241"
       inkscape:connector-curvature="0" /><path
       d="m 157.78592,48.985624 6.8,0"
       style="fill:none;stroke:#000000;stroke-width:2.16000009;stroke-linecap:round;stroke-linejoin:round;stroke-miterlimit:10;stroke-opacity:1;stroke-dasharray:none"
       id="path4243"
       inkscape:connector-curvature="0" /><path
       d="m 157.78592,48.985624 6.8,0"
       style="fill:none;stroke:#000000;stroke-width:2.16000009;stroke-linecap:round;stroke-linejoin:round;stroke-miterlimit:10;stroke-opacity:1;stroke-dasharray:none"
       id="path4245"
       inkscape:connector-curvature="0" /><path
       d="m 161.18592,52.385624 0,-6.81"
       style="fill:none;stroke:#000000;stroke-width:2.16000009;stroke-linecap:round;stroke-linejoin:round;stroke-miterlimit:10;stroke-opacity:1;stroke-dasharray:none"
       id="path4247"
       inkscape:connector-curvature="0" /><path
       d="m 152.47592,45.955624 -19.8,0 0,-31.2"
       style="fill:none;stroke:#000000;stroke-width:0.72000003;stroke-linecap:round;stroke-linejoin:round;stroke-miterlimit:10;stroke-opacity:1;stroke-dasharray:none"
       id="path4249"
       inkscape:connector-curvature="0" /><path
       d="m 132.83592,17.395624 c -1.34,0 -2.43,-1.09 -2.43,-2.43 0,-1.34 1.09,-2.43 2.43,-2.43 0,0 0,0 0,0 1.34,0 2.43,1.09 2.43,2.43 0,1.34 -1.09,2.43 -2.43,2.43 z"
       style="fill:#000000;fill-opacity:1;fill-rule:evenodd;stroke:none"
       id="path4251"
       inkscape:connector-curvature="0" /><path
       d="m 36.675927,14.755624 226.799993,0"
       style="fill:none;stroke:#000000;stroke-width:0.72000003;stroke-linecap:round;stroke-linejoin:round;stroke-miterlimit:10;stroke-opacity:1;stroke-dasharray:none"
       id="path4253"
       inkscape:connector-curvature="0" /><path
       d="m 229.27592,116.75562 -96,0"
       style="fill:none;stroke:#000000;stroke-width:0.72000003;stroke-linecap:round;stroke-linejoin:round;stroke-miterlimit:10;stroke-opacity:1;stroke-dasharray:none"
       id="path4255"
       inkscape:connector-curvature="0" /><path
       d="m 168.07592,113.15562 28.2,0 0,7.8 -28.2,0 0,-7.8 z"
       style="fill:#bfbfbf;fill-opacity:1;fill-rule:evenodd;stroke:none"
       id="path4257"
       inkscape:connector-curvature="0" /><path
       d="m 168.07592,113.15562 28.2,0 0,7.8 -28.2,0 0,-7.8 z"
       style="fill:none;stroke:#000000;stroke-width:0.72000003;stroke-linecap:round;stroke-linejoin:round;stroke-miterlimit:10;stroke-opacity:1;stroke-dasharray:none"
       id="path4259"
       inkscape:connector-curvature="0" /><path
       d="m 229.27592,116.75562 0,-53.999996 -19.8,0.6"
       style="fill:none;stroke:#000000;stroke-width:0.72000003;stroke-linecap:round;stroke-linejoin:round;stroke-miterlimit:10;stroke-opacity:1;stroke-dasharray:none"
       id="path4261"
       inkscape:connector-curvature="0" /><path
       d="m 257.47592,117.35562 -28.2,-0.6"
       style="fill:none;stroke:#000000;stroke-width:0.72000003;stroke-linecap:round;stroke-linejoin:round;stroke-miterlimit:10;stroke-opacity:1;stroke-dasharray:none"
       id="path4263"
       inkscape:connector-curvature="0" /><path
       d="m 231.64592,117.02562 c -0.01,1.35 -1.11,2.43 -2.45,2.42 -1.34,-0.01 -2.42,-1.11 -2.41,-2.45 0,0 0,0 0,0 0.01,-1.34 1.1,-2.42 2.44,-2.41 1.35,0.01 2.43,1.1 2.42,2.44 z"
       style="fill:#000000;fill-opacity:1;fill-rule:evenodd;stroke:none"
       id="path4265"
       inkscape:connector-curvature="0" /><path
       d="m 263.22592,117.18562 c 0,1.57 -1.26,2.84 -2.83,2.84 -1.57,0 -2.83,-1.27 -2.83,-2.84 0,-1.56 1.26,-2.83 2.83,-2.83 1.57,0 2.83,1.27 2.83,2.83 z"
       style="fill:#bfbfbf;fill-opacity:1;fill-rule:evenodd;stroke:none"
       id="path4267"
       inkscape:connector-curvature="0" /><path
       d="m 263.22592,117.18562 c 0,1.57 -1.26,2.84 -2.83,2.84 -1.57,0 -2.83,-1.27 -2.83,-2.84 0,-1.56 1.26,-2.83 2.83,-2.83 1.57,0 2.83,1.27 2.83,2.83 z"
       style="fill:none;stroke:#000000;stroke-width:0.72000003;stroke-linecap:round;stroke-linejoin:round;stroke-miterlimit:10;stroke-opacity:1;stroke-dasharray:none"
       id="path4269"
       inkscape:connector-curvature="0" /><text
       transform="scale(1,-1)"
       id="text4271"
       x="171.76558"
       y="-124.93563"><tspan
         style="font-size:18px;font-variant:normal;font-weight:normal;writing-mode:lr-tb;fill:#000000;fill-opacity:1;fill-rule:nonzero;stroke:none;font-family:ARIAL;-inkscape-font-specification:ARIAL"
         x="171.76558"
         y="-124.93563"
         id="tspan4273">R</tspan></text>
<text
       transform="scale(1,-1)"
       id="text4275"
       x="184.76558"
       y="-122.44561"><tspan
         style="font-size:11.69855976px;font-variant:normal;font-weight:normal;writing-mode:lr-tb;fill:#000000;fill-opacity:1;fill-rule:nonzero;stroke:none;font-family:ARIAL;-inkscape-font-specification:ARIAL"
         x="184.76558"
         y="-122.44561"
         id="tspan4277">a</tspan></text>
<text
       transform="scale(1,-1)"
       id="text4279"
       x="93.006004"
       y="-124.82561"><tspan
         style="font-size:18px;font-variant:normal;font-weight:normal;writing-mode:lr-tb;fill:#000000;fill-opacity:1;fill-rule:nonzero;stroke:none;font-family:ARIAL;-inkscape-font-specification:ARIAL"
         x="93.006004"
         y="-124.82561"
         id="tspan4281">R</tspan></text>
<text
       transform="scale(1,-1)"
       id="text4283"
       x="105.99599"
       y="-122.3456"><tspan
         style="font-size:11.69855976px;font-variant:normal;font-weight:normal;writing-mode:lr-tb;fill:#000000;fill-opacity:1;fill-rule:nonzero;stroke:none;font-family:ARIAL;-inkscape-font-specification:ARIAL"
         x="105.99599"
         y="-122.3456"
         id="tspan4285">b</tspan></text>
<path
       d="m 263.72592,15.145624 c 0,1.56 -1.27,2.83 -2.83,2.83 -1.57,0 -2.84,-1.27 -2.84,-2.83 0,-1.57 1.27,-2.84 2.84,-2.84 1.56,0 2.83,1.27 2.83,2.84 z"
       style="fill:#bfbfbf;fill-opacity:1;fill-rule:evenodd;stroke:none"
       id="path4287"
       inkscape:connector-curvature="0" /><path
       d="m 263.72592,15.145624 c 0,1.56 -1.27,2.83 -2.83,2.83 -1.57,0 -2.84,-1.27 -2.84,-2.83 0,-1.57 1.27,-2.84 2.84,-2.84 1.56,0 2.83,1.27 2.83,2.84 z"
       style="fill:none;stroke:#000000;stroke-width:0.72000003;stroke-linecap:round;stroke-linejoin:round;stroke-miterlimit:10;stroke-opacity:1;stroke-dasharray:none"
       id="path4289"
       inkscape:connector-curvature="0" /><path
       d="m 67.005927,14.925624 c 0,1.57 -1.27,2.84 -2.84,2.84 -1.56,0 -2.83,-1.27 -2.83,-2.84 0,-1.56 1.27,-2.83 2.83,-2.83 1.57,0 2.84,1.27 2.84,2.83 z"
       style="fill:#bfbfbf;fill-opacity:1;fill-rule:evenodd;stroke:none"
       id="path4291"
       inkscape:connector-curvature="0" /><path
       d="m 67.005927,14.925624 c 0,1.57 -1.27,2.84 -2.84,2.84 -1.56,0 -2.83,-1.27 -2.83,-2.84 0,-1.56 1.27,-2.83 2.83,-2.83 1.57,0 2.84,1.27 2.84,2.83 z"
       style="fill:none;stroke:#000000;stroke-width:0.72000003;stroke-linecap:round;stroke-linejoin:round;stroke-miterlimit:10;stroke-opacity:1;stroke-dasharray:none"
       id="path4293"
       inkscape:connector-curvature="0" /><path
       d="m 261.07592,110.15562 0,-80.399996"
       style="fill:none;stroke:#9c4a09;stroke-width:0.72000003;stroke-linecap:round;stroke-linejoin:round;stroke-miterlimit:10;stroke-opacity:1;stroke-dasharray:none"
       id="path4295"
       inkscape:connector-curvature="0" /><path
       d="m 264.07592,30.355624 -3,-9.6 -3.6,9.6 6.6,0 z"
       style="fill:#9c4a09;fill-opacity:1;fill-rule:evenodd;stroke:none"
       id="path4297"
       inkscape:connector-curvature="0" /><path
       d="m 64.275927,112.55562 0,-82.199996"
       style="fill:none;stroke:#9c4a09;stroke-width:0.72000003;stroke-linecap:round;stroke-linejoin:round;stroke-miterlimit:10;stroke-opacity:1;stroke-dasharray:none"
       id="path4299"
       inkscape:connector-curvature="0" /><path
       d="m 67.275927,30.955624 -3,-9.6 -3.6,9.6 6.6,0 z"
       style="fill:#9c4a09;fill-opacity:1;fill-rule:evenodd;stroke:none"
       id="path4301"
       inkscape:connector-curvature="0" /><path
       d="m 133.27592,79.555624 19.2,0"
       style="fill:none;stroke:#000000;stroke-width:0.72000003;stroke-linecap:round;stroke-linejoin:round;stroke-miterlimit:10;stroke-opacity:1;stroke-dasharray:none"
       id="path4303"
       inkscape:connector-curvature="0" /><path
       d="m 133.27592,79.555624 0,37.199996"
       style="fill:none;stroke:#000000;stroke-width:0.72000003;stroke-linecap:round;stroke-linejoin:round;stroke-miterlimit:10;stroke-opacity:1;stroke-dasharray:none"
       id="path4305"
       inkscape:connector-curvature="0" /><path
       d="m 133.33592,114.58562 c -1.35,0 -2.43,1.09 -2.43,2.43 0,1.34 1.08,2.43 2.43,2.43 0,0 0,0 0,0 1.34,0 2.43,-1.09 2.43,-2.43 0,-1.34 -1.09,-2.43 -2.43,-2.43 z"
       style="fill:#000000;fill-opacity:1;fill-rule:evenodd;stroke:none"
       id="path4307"
       inkscape:connector-curvature="0" /><path
       d="m 36.675927,116.75562 112.799993,0"
       style="fill:none;stroke:#000000;stroke-width:0.72000003;stroke-linecap:round;stroke-linejoin:round;stroke-miterlimit:10;stroke-opacity:1;stroke-dasharray:none"
       id="path4309"
       inkscape:connector-curvature="0" /><path
       d="m 87.675927,112.55562 28.200003,0 0,8.3999 -28.200003,0 0,-8.3999 z"
       style="fill:#bfbfbf;fill-opacity:1;fill-rule:evenodd;stroke:none"
       id="path4311"
       inkscape:connector-curvature="0" /><path
       d="m 87.675927,112.55562 28.200003,0 0,8.3999 -28.200003,0 0,-8.3999 z"
       style="fill:none;stroke:#000000;stroke-width:0.72000003;stroke-linecap:round;stroke-linejoin:round;stroke-miterlimit:10;stroke-opacity:1;stroke-dasharray:none"
       id="path4313"
       inkscape:connector-curvature="0" /><path
       d="m 67.005927,116.98562 c 0,1.57 -1.27,2.84 -2.84,2.84 -1.56,0 -2.83,-1.27 -2.83,-2.84 0,-1.56 1.27,-2.83 2.83,-2.83 1.57,0 2.84,1.27 2.84,2.83 z"
       style="fill:#bfbfbf;fill-opacity:1;fill-rule:evenodd;stroke:none"
       id="path4315"
       inkscape:connector-curvature="0" /><path
       d="m 67.005927,116.98562 c 0,1.57 -1.27,2.84 -2.84,2.84 -1.56,0 -2.83,-1.27 -2.83,-2.84 0,-1.56 1.27,-2.83 2.83,-2.83 1.57,0 2.84,1.27 2.84,2.83 z"
       style="fill:none;stroke:#000000;stroke-width:0.72000003;stroke-linecap:round;stroke-linejoin:round;stroke-miterlimit:10;stroke-opacity:1;stroke-dasharray:none"
       id="path4317"
       inkscape:connector-curvature="0" /><path
       d="m 132.67592,3.9556238 0,9.6000002"
       style="fill:none;stroke:#000000;stroke-width:0.72000003;stroke-linecap:round;stroke-linejoin:round;stroke-miterlimit:10;stroke-opacity:1;stroke-dasharray:none"
       id="path4319"
       inkscape:connector-curvature="0" /><path
       d="m 127.66592,3.8056238 11.34,0"
       style="fill:none;stroke:#000000;stroke-width:3;stroke-linecap:round;stroke-linejoin:round;stroke-miterlimit:10;stroke-opacity:1;stroke-dasharray:none"
       id="path4321"
       inkscape:connector-curvature="0" /><text
       transform="scale(1,-1)"
       id="text4323"
       x="62.896023"
       y="-120.3456"><tspan
         style="font-size:23.99975967px;font-variant:normal;font-weight:normal;writing-mode:lr-tb;fill:#7030a0;fill-opacity:1;fill-rule:nonzero;stroke:none;font-family:FREESTYLE SCRIPT;-inkscape-font-specification:FREESTYLE SCRIPT"
         x="62.896023"
         y="-120.3456"
         id="tspan4325">1</tspan></text>
<text
       transform="scale(1,-1)"
       id="text4327"
       x="131.786"
       y="-121.32561"><tspan
         style="font-size:23.99975967px;font-variant:normal;font-weight:normal;writing-mode:lr-tb;fill:#7030a0;fill-opacity:1;fill-rule:nonzero;stroke:none;font-family:FREESTYLE SCRIPT;-inkscape-font-specification:FREESTYLE SCRIPT"
         x="131.786"
         y="-121.32561"
         id="tspan4329">2</tspan></text>
<text
       transform="scale(1,-1)"
       id="text4331"
       x="225.60561"
       y="-120.89562"><tspan
         style="font-size:23.99975967px;font-variant:normal;font-weight:normal;writing-mode:lr-tb;fill:#7030a0;fill-opacity:1;fill-rule:nonzero;stroke:none;font-family:FREESTYLE SCRIPT;-inkscape-font-specification:FREESTYLE SCRIPT"
         x="225.60561"
         y="-120.89562"
         id="tspan4333">3</tspan></text>
<text
       transform="scale(1,-1)"
       id="text4335"
       x="70.566002"
       y="-57.54562"><tspan
         style="font-size:23.99975967px;font-variant:normal;font-weight:normal;writing-mode:lr-tb;fill:#ea700d;fill-opacity:1;fill-rule:nonzero;stroke:none;font-family:FREESTYLE SCRIPT;-inkscape-font-specification:FREESTYLE SCRIPT"
         x="70.566002"
         y="-57.54562"
         id="tspan4337">U</tspan></text>
<text
       transform="scale(1,-1)"
       id="text4339"
       x="83.046013"
       y="-54.115627"><tspan
         style="font-size:15.59735966px;font-variant:normal;font-weight:normal;writing-mode:lr-tb;fill:#ea700d;fill-opacity:1;fill-rule:nonzero;stroke:none;font-family:FREESTYLE SCRIPT;-inkscape-font-specification:FREESTYLE SCRIPT"
         x="83.046013"
         y="-54.115627"
         id="tspan4341">1</tspan></text>
<text
       transform="scale(1,-1)"
       id="text4343"
       x="266.15561"
       y="-57.54562"><tspan
         style="font-size:23.99975967px;font-variant:normal;font-weight:normal;writing-mode:lr-tb;fill:#ea700d;fill-opacity:1;fill-rule:nonzero;stroke:none;font-family:FREESTYLE SCRIPT;-inkscape-font-specification:FREESTYLE SCRIPT"
         x="266.15561"
         y="-57.54562"
         id="tspan4345">U</tspan></text>
<text
       transform="scale(1,-1)"
       id="text4347"
       x="278.63559"
       y="-54.115627"><tspan
         style="font-size:15.59735966px;font-variant:normal;font-weight:normal;writing-mode:lr-tb;fill:#ea700d;fill-opacity:1;fill-rule:nonzero;stroke:none;font-family:FREESTYLE SCRIPT;-inkscape-font-specification:FREESTYLE SCRIPT"
         x="278.63559"
         y="-54.115627"
         id="tspan4349">3</tspan></text>
<path
       d="m 133.27592,75.955624 0,-15.6"
       style="fill:none;stroke:#9c4a09;stroke-width:0.72000003;stroke-linecap:round;stroke-linejoin:round;stroke-miterlimit:10;stroke-opacity:1;stroke-dasharray:none"
       id="path4351"
       inkscape:connector-curvature="0" /><path
       d="m 136.27592,60.955624 -3,-9.6 -3,9.6 6,0 z"
       style="fill:#9c4a09;fill-opacity:1;fill-rule:evenodd;stroke:none"
       id="path4353"
       inkscape:connector-curvature="0" /><text
       transform="scale(1,-1)"
       id="text4355"
       x="108.83602"
       y="-57.54562"><tspan
         style="font-size:23.99975967px;font-variant:normal;font-weight:normal;writing-mode:lr-tb;fill:#ea700d;fill-opacity:1;fill-rule:nonzero;stroke:none;font-family:FREESTYLE SCRIPT;-inkscape-font-specification:FREESTYLE SCRIPT"
         x="108.83602"
         y="-57.54562"
         id="tspan4357">U</tspan></text>
<text
       transform="scale(1,-1)"
       id="text4359"
       x="121.316"
       y="-54.115627"><tspan
         style="font-size:15.59735966px;font-variant:normal;font-weight:normal;writing-mode:lr-tb;fill:#ea700d;fill-opacity:1;fill-rule:nonzero;stroke:none;font-family:FREESTYLE SCRIPT;-inkscape-font-specification:FREESTYLE SCRIPT"
         x="121.316"
         y="-54.115627"
         id="tspan4361">2</tspan></text>
<path
       d="m 36.675927,14.755624 0,101.999996"
       style="fill:none;stroke:#000000;stroke-width:0.72000003;stroke-linecap:round;stroke-linejoin:round;stroke-miterlimit:10;stroke-opacity:1;stroke-dasharray:none"
       id="path4363"
       inkscape:connector-curvature="0" /><path
       d="m 47.585927,65.455624 c 0,5.87 -4.76,10.63 -10.63,10.63 -5.87,0 -10.63,-4.76 -10.63,-10.63 0,-5.87 4.76,-10.63 10.63,-10.63 5.87,0 10.63,4.76 10.63,10.63 z"
       style="fill:#bfbfbf;fill-opacity:1;fill-rule:evenodd;stroke:none"
       id="path4365"
       inkscape:connector-curvature="0" /><path
       d="m 47.585927,65.455624 c 0,5.87 -4.76,10.63 -10.63,10.63 -5.87,0 -10.63,-4.76 -10.63,-10.63 0,-5.87 4.76,-10.63 10.63,-10.63 5.87,0 10.63,4.76 10.63,10.63 z"
       style="fill:none;stroke:#000000;stroke-width:0.72000003;stroke-linecap:round;stroke-linejoin:round;stroke-miterlimit:10;stroke-opacity:1;stroke-dasharray:none"
       id="path4367"
       inkscape:connector-curvature="0" /><text
       transform="scale(1,-1)"
       id="text4369"
       x="33.446007"
       y="-61.855618"><tspan
         style="font-size:12.00024033px;font-variant:normal;font-weight:normal;writing-mode:lr-tb;fill:#000000;fill-opacity:1;fill-rule:nonzero;stroke:none;font-family:ARIAL;-inkscape-font-specification:ARIAL"
         x="33.446007"
         y="-61.855618"
         id="tspan4371">=</tspan></text>
<text
       transform="scale(1,-1)"
       id="text4373"
       x="3.1060107"
       y="-60.765621"><tspan
         style="font-size:18px;font-variant:normal;font-weight:normal;writing-mode:lr-tb;fill:#000000;fill-opacity:1;fill-rule:nonzero;stroke:none;font-family:ARIAL;-inkscape-font-specification:ARIAL"
         x="3.1060107"
         y="-60.765621"
         id="tspan4375">U</tspan></text>
<text
       transform="scale(1,-1)"
       id="text4377"
       x="16.10601"
       y="-58.275631"><tspan
         style="font-size:11.69855976px;font-variant:normal;font-weight:normal;writing-mode:lr-tb;fill:#000000;fill-opacity:1;fill-rule:nonzero;stroke:none;font-family:ARIAL;-inkscape-font-specification:ARIAL"
         x="16.10601"
         y="-58.275631"
         id="tspan4379">1</tspan></text>
<text
       transform="scale(1,-1)"
       id="text4381"
       x="216.55562"
       y="-42.125607"><tspan
         style="font-size:13.99967957px;font-variant:normal;font-weight:normal;writing-mode:lr-tb;fill:#000000;fill-opacity:1;fill-rule:nonzero;stroke:none;font-family:FREESTYLE SCRIPT;-inkscape-font-specification:FREESTYLE SCRIPT"
         x="216.55562"
         y="-42.125607"
         id="tspan4383">I</tspan></text>
<text
       transform="scale(1,-1)"
       id="text4385"
       x="219.71559"
       y="-40.125607"><tspan
         style="font-size:9.09864044px;font-variant:normal;font-weight:normal;writing-mode:lr-tb;fill:#000000;fill-opacity:1;fill-rule:nonzero;stroke:none;font-family:FREESTYLE SCRIPT;-inkscape-font-specification:FREESTYLE SCRIPT"
         x="219.71559 223.77174"
         y="-40.125607"
         sodipodi:role="line"
         id="tspan4387">OZ</tspan></text>
<text
       transform="scale(1,-1)"
       id="text4389"
       x="183.70558"
       y="-34.465633"><tspan
         style="font-size:13.99967957px;font-variant:normal;font-weight:normal;writing-mode:lr-tb;fill:#000000;fill-opacity:1;fill-rule:nonzero;stroke:none;font-family:ARIAL;-inkscape-font-specification:ARIAL"
         x="183.70558 194.5956"
         y="-34.465633"
         sodipodi:role="line"
         id="tspan4391">OZ</tspan></text>
<path
       d="m 231.07592,54.955624 -12,0"
       style="fill:none;stroke:#000000;stroke-width:0.72000003;stroke-linecap:round;stroke-linejoin:round;stroke-miterlimit:10;stroke-opacity:1;stroke-dasharray:none"
       id="path4811"
       inkscape:connector-curvature="0" /><path
       d="m 219.07592,57.355624 -7.8,-2.4 7.8,-2.4 0,4.8"
       style="fill:none;stroke:#000000;stroke-width:0.72000003;stroke-linecap:round;stroke-linejoin:round;stroke-miterlimit:10;stroke-opacity:1;stroke-dasharray:none"
       id="path4813"
       inkscape:connector-curvature="0" /></g></svg>