<?xml version="1.0" encoding="UTF-8" standalone="no"?>
<!-- Created with Inkscape (http://www.inkscape.org/) -->

<svg
   xmlns:dc="http://purl.org/dc/elements/1.1/"
   xmlns:cc="http://creativecommons.org/ns#"
   xmlns:rdf="http://www.w3.org/1999/02/22-rdf-syntax-ns#"
   xmlns:svg="http://www.w3.org/2000/svg"
   xmlns="http://www.w3.org/2000/svg"
   xmlns:sodipodi="http://sodipodi.sourceforge.net/DTD/sodipodi-0.dtd"
   xmlns:inkscape="http://www.inkscape.org/namespaces/inkscape"
   id="svg4225"
   version="1.1"
   inkscape:version="0.48.1 "
   width="320"
   height="230"
   xml:space="preserve"
   sodipodi:docname="MMUN_neinv_OPAMP.svg"><metadata
     id="metadata4231"><rdf:RDF><cc:Work
         rdf:about=""><dc:format>image/svg+xml</dc:format><dc:type
           rdf:resource="http://purl.org/dc/dcmitype/StillImage" /><dc:title></dc:title></cc:Work></rdf:RDF></metadata><defs
     id="defs4229" /><sodipodi:namedview
     pagecolor="#ffffff"
     bordercolor="#666666"
     borderopacity="1"
     objecttolerance="10"
     gridtolerance="10"
     guidetolerance="10"
     inkscape:pageopacity="0"
     inkscape:pageshadow="2"
     inkscape:window-width="1831"
     inkscape:window-height="1173"
     id="namedview4227"
     showgrid="false"
     inkscape:zoom="1.625"
     inkscape:cx="263.4039"
     inkscape:cy="176.45192"
     inkscape:window-x="80"
     inkscape:window-y="-9"
     inkscape:window-maximized="1"
     inkscape:current-layer="g4233" /><g
     id="g4233"
     inkscape:groupmode="layer"
     inkscape:label="skici"
     transform="matrix(1.25,0,0,-1.25,0,230)"><path
       d="m 101.99574,160.82447 104.4,0"
       style="fill:none;stroke:#000000;stroke-width:0.72000003;stroke-linecap:round;stroke-linejoin:round;stroke-miterlimit:10;stroke-opacity:1;stroke-dasharray:none"
       id="path4235"
       inkscape:connector-curvature="0" /><path
       d="m 121.42574,78.39447 56.69,28.34 -56.69,28.35 0,-56.69 z"
       style="fill:#bfbfbf;fill-opacity:1;fill-rule:evenodd;stroke:none"
       id="path4619"
       inkscape:connector-curvature="0" /><path
       d="m 121.42574,78.39447 56.69,28.34 -56.69,28.35 0,-56.69 z"
       style="fill:none;stroke:#000000;stroke-width:2.16000009;stroke-linecap:round;stroke-linejoin:round;stroke-miterlimit:10;stroke-opacity:1;stroke-dasharray:none"
       id="path4621"
       inkscape:connector-curvature="0" /><path
       d="m 125.96574,120.91447 6.8,0"
       style="fill:none;stroke:#000000;stroke-width:2.16000009;stroke-linecap:round;stroke-linejoin:round;stroke-miterlimit:10;stroke-opacity:1;stroke-dasharray:none"
       id="path4623"
       inkscape:connector-curvature="0" /><path
       d="m 126.52574,92.56447 6.81,0"
       style="fill:none;stroke:#000000;stroke-width:2.16000009;stroke-linecap:round;stroke-linejoin:round;stroke-miterlimit:10;stroke-opacity:1;stroke-dasharray:none"
       id="path4625"
       inkscape:connector-curvature="0" /><path
       d="m 126.52574,92.56447 6.81,0"
       style="fill:none;stroke:#000000;stroke-width:2.16000009;stroke-linecap:round;stroke-linejoin:round;stroke-miterlimit:10;stroke-opacity:1;stroke-dasharray:none"
       id="path4627"
       inkscape:connector-curvature="0" /><path
       d="m 129.93574,95.96447 0,-6.8"
       style="fill:none;stroke:#000000;stroke-width:2.16000009;stroke-linecap:round;stroke-linejoin:round;stroke-miterlimit:10;stroke-opacity:1;stroke-dasharray:none"
       id="path4629"
       inkscape:connector-curvature="0" /><path
       d="m 26.995743,16.824465 199.799997,0"
       style="fill:none;stroke:#000000;stroke-width:0.72000003;stroke-linecap:round;stroke-linejoin:round;stroke-miterlimit:10;stroke-opacity:1;stroke-dasharray:none"
       id="path4631"
       inkscape:connector-curvature="0" /><path
       d="m 197.99574,160.82447 -96,0"
       style="fill:none;stroke:#000000;stroke-width:0.72000003;stroke-linecap:round;stroke-linejoin:round;stroke-miterlimit:10;stroke-opacity:1;stroke-dasharray:none"
       id="path4633"
       inkscape:connector-curvature="0" /><path
       d="m 136.79574,156.62447 28.2,0 0,7.8 -28.2,0 0,-7.8 z"
       style="fill:#bfbfbf;fill-opacity:1;fill-rule:evenodd;stroke:none"
       id="path4635"
       inkscape:connector-curvature="0" /><path
       d="m 136.79574,156.62447 28.2,0 0,7.8 -28.2,0 0,-7.8 z"
       style="fill:none;stroke:#000000;stroke-width:0.72000003;stroke-linecap:round;stroke-linejoin:round;stroke-miterlimit:10;stroke-opacity:1;stroke-dasharray:none"
       id="path4637"
       inkscape:connector-curvature="0" /><path
       d="m 197.99574,160.82447 0,-54 -19.8,0"
       style="fill:none;stroke:#000000;stroke-width:0.72000003;stroke-linecap:round;stroke-linejoin:round;stroke-miterlimit:10;stroke-opacity:1;stroke-dasharray:none"
       id="path4639"
       inkscape:connector-curvature="0" /><path
       d="m 226.19574,160.82447 -28.2,0"
       style="fill:none;stroke:#000000;stroke-width:0.72000003;stroke-linecap:round;stroke-linejoin:round;stroke-miterlimit:10;stroke-opacity:1;stroke-dasharray:none"
       id="path4641"
       inkscape:connector-curvature="0" /><path
       d="m 200.39574,160.61447 c -0.01,1.34 -1.11,2.42 -2.45,2.41 -1.34,-0.01 -2.42,-1.1 -2.41,-2.44 0,0 0,0 0,0 0.01,-1.35 1.1,-2.43 2.44,-2.42 1.35,0.01 2.43,1.11 2.42,2.45 z"
       style="fill:#000000;fill-opacity:1;fill-rule:evenodd;stroke:none"
       id="path4643"
       inkscape:connector-curvature="0" /><path
       d="m 231.97574,160.77447 c 0,1.57 -1.27,2.83 -2.83,2.83 -1.57,0 -2.84,-1.26 -2.84,-2.83 0,-1.57 1.27,-2.83 2.84,-2.83 1.56,0 2.83,1.26 2.83,2.83 z"
       style="fill:#bfbfbf;fill-opacity:1;fill-rule:evenodd;stroke:none"
       id="path4645"
       inkscape:connector-curvature="0" /><path
       d="m 231.97574,160.77447 c 0,1.57 -1.27,2.83 -2.83,2.83 -1.57,0 -2.84,-1.26 -2.84,-2.83 0,-1.57 1.27,-2.83 2.84,-2.83 1.56,0 2.83,1.26 2.83,2.83 z"
       style="fill:none;stroke:#000000;stroke-width:0.72000003;stroke-linecap:round;stroke-linejoin:round;stroke-miterlimit:10;stroke-opacity:1;stroke-dasharray:none"
       id="path4647"
       inkscape:connector-curvature="0" /><text
       transform="scale(1,-1)"
       id="text4649"
       x="140.51552"
       y="-168.52426"><tspan
         style="font-size:18px;font-variant:normal;font-weight:normal;writing-mode:lr-tb;fill:#000000;fill-opacity:1;fill-rule:nonzero;stroke:none;font-family:ARIAL;-inkscape-font-specification:ARIAL"
         x="140.51552"
         y="-168.52426"
         id="tspan4651">R</tspan></text>
<text
       transform="scale(1,-1)"
       id="text4653"
       x="153.51552"
       y="-166.03426"><tspan
         style="font-size:11.69855976px;font-variant:normal;font-weight:normal;writing-mode:lr-tb;fill:#000000;fill-opacity:1;fill-rule:nonzero;stroke:none;font-family:ARIAL;-inkscape-font-specification:ARIAL"
         x="153.51552"
         y="-166.03426"
         id="tspan4655">a</tspan></text>
<text
       transform="scale(1,-1)"
       id="text4657"
       x="112.06559"
       y="-43.934517"><tspan
         style="font-size:18px;font-variant:normal;font-weight:normal;writing-mode:lr-tb;fill:#000000;fill-opacity:1;fill-rule:nonzero;stroke:none;font-family:ARIAL;-inkscape-font-specification:ARIAL"
         x="112.06559"
         y="-43.934517"
         id="tspan4659">R</tspan></text>
<text
       transform="scale(1,-1)"
       id="text4661"
       x="125.06553"
       y="-41.454514"><tspan
         style="font-size:11.69855976px;font-variant:normal;font-weight:normal;writing-mode:lr-tb;fill:#000000;fill-opacity:1;fill-rule:nonzero;stroke:none;font-family:ARIAL;-inkscape-font-specification:ARIAL"
         x="125.06553"
         y="-41.454514"
         id="tspan4663">b</tspan></text>
<path
       d="m 232.47574,17.094465 c 0,1.56 -1.27,2.83 -2.84,2.83 -1.56,0 -2.83,-1.27 -2.83,-2.83 0,-1.57 1.27,-2.84 2.83,-2.84 1.57,0 2.84,1.27 2.84,2.84 z"
       style="fill:#bfbfbf;fill-opacity:1;fill-rule:evenodd;stroke:none"
       id="path4665"
       inkscape:connector-curvature="0" /><path
       d="m 232.47574,17.094465 c 0,1.56 -1.27,2.83 -2.84,2.83 -1.56,0 -2.83,-1.27 -2.83,-2.83 0,-1.57 1.27,-2.84 2.83,-2.84 1.57,0 2.84,1.27 2.84,2.84 z"
       style="fill:none;stroke:#000000;stroke-width:0.72000003;stroke-linecap:round;stroke-linejoin:round;stroke-miterlimit:10;stroke-opacity:1;stroke-dasharray:none"
       id="path4667"
       inkscape:connector-curvature="0" /><path
       d="m 55.45574,16.734465 c 0,1.57 -1.27,2.84 -2.84,2.84 -1.56,0 -2.83,-1.27 -2.83,-2.84 0,-1.56 1.27,-2.83 2.83,-2.83 1.57,0 2.84,1.27 2.84,2.83 z"
       style="fill:#bfbfbf;fill-opacity:1;fill-rule:evenodd;stroke:none"
       id="path4669"
       inkscape:connector-curvature="0" /><path
       d="m 55.45574,16.734465 c 0,1.57 -1.27,2.84 -2.84,2.84 -1.56,0 -2.83,-1.27 -2.83,-2.84 0,-1.56 1.27,-2.83 2.83,-2.83 1.57,0 2.84,1.27 2.84,2.83 z"
       style="fill:none;stroke:#000000;stroke-width:0.72000003;stroke-linecap:round;stroke-linejoin:round;stroke-miterlimit:10;stroke-opacity:1;stroke-dasharray:none"
       id="path4671"
       inkscape:connector-curvature="0" /><path
       d="m 229.79574,153.62447 0,-120.600005"
       style="fill:none;stroke:#9c4a09;stroke-width:0.72000003;stroke-linecap:round;stroke-linejoin:round;stroke-miterlimit:10;stroke-opacity:1;stroke-dasharray:none"
       id="path4673"
       inkscape:connector-curvature="0" /><path
       d="m 232.79574,33.624465 -3,-9.6 -3.6,9.6 6.6,0 z"
       style="fill:#9c4a09;fill-opacity:1;fill-rule:evenodd;stroke:none"
       id="path4675"
       inkscape:connector-curvature="0" /><path
       d="m 52.79574,80.42447 0,-48.000005"
       style="fill:none;stroke:#9c4a09;stroke-width:0.72000003;stroke-linecap:round;stroke-linejoin:round;stroke-miterlimit:10;stroke-opacity:1;stroke-dasharray:none"
       id="path4677"
       inkscape:connector-curvature="0" /><path
       d="m 55.79574,33.024465 -3,-9.6 -3.6,9.6 6.6,0 z"
       style="fill:#9c4a09;fill-opacity:1;fill-rule:evenodd;stroke:none"
       id="path4679"
       inkscape:connector-curvature="0" /><path
       d="m 27.595743,88.82447 93.599997,0"
       style="fill:none;stroke:#000000;stroke-width:0.72000003;stroke-linecap:round;stroke-linejoin:round;stroke-miterlimit:10;stroke-opacity:1;stroke-dasharray:none"
       id="path4681"
       inkscape:connector-curvature="0" /><path
       d="m 102.59574,2.424465 -0.6,158.400005"
       style="fill:none;stroke:#000000;stroke-width:0.72000003;stroke-linecap:round;stroke-linejoin:round;stroke-miterlimit:10;stroke-opacity:1;stroke-dasharray:none"
       id="path4683"
       inkscape:connector-curvature="0" /><path
       d="m 98.99574,37.824465 7.7999,0 0,28.800005 -7.7999,0 0,-28.800005 z"
       style="fill:#bfbfbf;fill-opacity:1;fill-rule:evenodd;stroke:none"
       id="path4685"
       inkscape:connector-curvature="0" /><path
       d="m 98.99574,37.824465 7.7999,0 0,28.800005 -7.7999,0 0,-28.800005 z"
       style="fill:none;stroke:#000000;stroke-width:0.72000003;stroke-linecap:round;stroke-linejoin:round;stroke-miterlimit:10;stroke-opacity:1;stroke-dasharray:none"
       id="path4687"
       inkscape:connector-curvature="0" /><path
       d="m 55.45574,89.02447 c 0,1.56 -1.27,2.83 -2.84,2.83 -1.56,0 -2.83,-1.27 -2.83,-2.83 0,-1.57 1.27,-2.84 2.83,-2.84 1.57,0 2.84,1.27 2.84,2.84 z"
       style="fill:#bfbfbf;fill-opacity:1;fill-rule:evenodd;stroke:none"
       id="path4689"
       inkscape:connector-curvature="0" /><path
       d="m 55.45574,89.02447 c 0,1.56 -1.27,2.83 -2.84,2.83 -1.56,0 -2.83,-1.27 -2.83,-2.83 0,-1.57 1.27,-2.84 2.83,-2.84 1.57,0 2.84,1.27 2.84,2.84 z"
       style="fill:none;stroke:#000000;stroke-width:0.72000003;stroke-linecap:round;stroke-linejoin:round;stroke-miterlimit:10;stroke-opacity:1;stroke-dasharray:none"
       id="path4691"
       inkscape:connector-curvature="0" /><path
       d="m 97.47574,2.564465 11.34,0"
       style="fill:none;stroke:#000000;stroke-width:3;stroke-linecap:round;stroke-linejoin:round;stroke-miterlimit:10;stroke-opacity:1;stroke-dasharray:none"
       id="path4693"
       inkscape:connector-curvature="0" /><text
       transform="scale(1,-1)"
       id="text4695"
       x="50.21579"
       y="-95.014389"><tspan
         style="font-size:23.99975967px;font-variant:normal;font-weight:normal;writing-mode:lr-tb;fill:#7030a0;fill-opacity:1;fill-rule:nonzero;stroke:none;font-family:FREESTYLE SCRIPT;-inkscape-font-specification:FREESTYLE SCRIPT"
         x="50.21579"
         y="-95.014389"
         id="tspan4697">1</tspan></text>
<text
       transform="scale(1,-1)"
       id="text4699"
       x="89.895683"
       y="-116.27431"><tspan
         style="font-size:23.99975967px;font-variant:normal;font-weight:normal;writing-mode:lr-tb;fill:#7030a0;fill-opacity:1;fill-rule:nonzero;stroke:none;font-family:FREESTYLE SCRIPT;-inkscape-font-specification:FREESTYLE SCRIPT"
         x="89.895683"
         y="-116.27431"
         id="tspan4701">2</tspan></text>
<text
       transform="scale(1,-1)"
       id="text4703"
       x="194.35551"
       y="-164.47426"><tspan
         style="font-size:23.99975967px;font-variant:normal;font-weight:normal;writing-mode:lr-tb;fill:#7030a0;fill-opacity:1;fill-rule:nonzero;stroke:none;font-family:FREESTYLE SCRIPT;-inkscape-font-specification:FREESTYLE SCRIPT"
         x="194.35551"
         y="-164.47426"
         id="tspan4705">3</tspan></text>
<text
       transform="scale(1,-1)"
       id="text4707"
       x="56.465782"
       y="-42.134514"><tspan
         style="font-size:23.99975967px;font-variant:normal;font-weight:normal;writing-mode:lr-tb;fill:#ea700d;fill-opacity:1;fill-rule:nonzero;stroke:none;font-family:FREESTYLE SCRIPT;-inkscape-font-specification:FREESTYLE SCRIPT"
         x="56.465782"
         y="-42.134514"
         id="tspan4709">U</tspan></text>
<text
       transform="scale(1,-1)"
       id="text4711"
       x="68.94577"
       y="-38.704514"><tspan
         style="font-size:15.59735966px;font-variant:normal;font-weight:normal;writing-mode:lr-tb;fill:#ea700d;fill-opacity:1;fill-rule:nonzero;stroke:none;font-family:FREESTYLE SCRIPT;-inkscape-font-specification:FREESTYLE SCRIPT"
         x="68.94577"
         y="-38.704514"
         id="tspan4713">1</tspan></text>
<text
       transform="scale(1,-1)"
       id="text4715"
       x="235.61551"
       y="-66.234505"><tspan
         style="font-size:23.99975967px;font-variant:normal;font-weight:normal;writing-mode:lr-tb;fill:#ea700d;fill-opacity:1;fill-rule:nonzero;stroke:none;font-family:FREESTYLE SCRIPT;-inkscape-font-specification:FREESTYLE SCRIPT"
         x="235.61551"
         y="-66.234505"
         id="tspan4717">U</tspan></text>
<text
       transform="scale(1,-1)"
       id="text4719"
       x="248.09552"
       y="-62.79451"><tspan
         style="font-size:15.59735966px;font-variant:normal;font-weight:normal;writing-mode:lr-tb;fill:#ea700d;fill-opacity:1;fill-rule:nonzero;stroke:none;font-family:FREESTYLE SCRIPT;-inkscape-font-specification:FREESTYLE SCRIPT"
         x="248.09552"
         y="-62.79451"
         id="tspan4721">3</tspan></text>
<path
       d="m 81.59574,123.02447 0,-91.800005"
       style="fill:none;stroke:#9c4a09;stroke-width:0.72000003;stroke-linecap:round;stroke-linejoin:round;stroke-miterlimit:10;stroke-opacity:1;stroke-dasharray:none"
       id="path4723"
       inkscape:connector-curvature="0" /><path
       d="m 84.59574,32.424465 -3,-10.2 -3.6,10.2 6.6,0 z"
       style="fill:#9c4a09;fill-opacity:1;fill-rule:evenodd;stroke:none"
       id="path4725"
       inkscape:connector-curvature="0" /><text
       transform="scale(1,-1)"
       id="text4727"
       x="61.285789"
       y="-101.66438"><tspan
         style="font-size:23.99975967px;font-variant:normal;font-weight:normal;writing-mode:lr-tb;fill:#ea700d;fill-opacity:1;fill-rule:nonzero;stroke:none;font-family:FREESTYLE SCRIPT;-inkscape-font-specification:FREESTYLE SCRIPT"
         x="61.285789"
         y="-101.66438"
         id="tspan4729">U</tspan></text>
<text
       transform="scale(1,-1)"
       id="text4731"
       x="73.765755"
       y="-98.234383"><tspan
         style="font-size:15.59735966px;font-variant:normal;font-weight:normal;writing-mode:lr-tb;fill:#ea700d;fill-opacity:1;fill-rule:nonzero;stroke:none;font-family:FREESTYLE SCRIPT;-inkscape-font-specification:FREESTYLE SCRIPT"
         x="73.765755"
         y="-98.234383"
         id="tspan4733">2</tspan></text>
<path
       d="m 26.995743,16.824465 0.6,72.000005"
       style="fill:none;stroke:#000000;stroke-width:0.72000003;stroke-linecap:round;stroke-linejoin:round;stroke-miterlimit:10;stroke-opacity:1;stroke-dasharray:none"
       id="path4735"
       inkscape:connector-curvature="0" /><path
       d="m 37.595743,53.05447 c 0,5.87 -4.76,10.63 -10.63,10.63 -5.87,0 -10.63,-4.76 -10.63,-10.63 0,-5.87 4.76,-10.630005 10.63,-10.630005 5.87,0 10.63,4.760005 10.63,10.630005 z"
       style="fill:#bfbfbf;fill-opacity:1;fill-rule:evenodd;stroke:none"
       id="path4737"
       inkscape:connector-curvature="0" /><path
       d="m 37.595743,53.05447 c 0,5.87 -4.76,10.63 -10.63,10.63 -5.87,0 -10.63,-4.76 -10.63,-10.63 0,-5.87 4.76,-10.630005 10.63,-10.630005 5.87,0 10.63,4.760005 10.63,10.630005 z"
       style="fill:none;stroke:#000000;stroke-width:0.72000003;stroke-linecap:round;stroke-linejoin:round;stroke-miterlimit:10;stroke-opacity:1;stroke-dasharray:none"
       id="path4739"
       inkscape:connector-curvature="0" /><text
       transform="scale(1,-1)"
       id="text4741"
       x="23.455791"
       y="-49.454506"><tspan
         style="font-size:12.00024033px;font-variant:normal;font-weight:normal;writing-mode:lr-tb;fill:#000000;fill-opacity:1;fill-rule:nonzero;stroke:none;font-family:ARIAL;-inkscape-font-specification:ARIAL"
         x="23.455791"
         y="-49.454506"
         id="tspan4743">=</tspan></text>
<path
       d="m 196.79574,99.62447 -12.6,0"
       style="fill:none;stroke:#000000;stroke-width:0.72000003;stroke-linecap:round;stroke-linejoin:round;stroke-miterlimit:10;stroke-opacity:1;stroke-dasharray:none"
       id="path4745"
       inkscape:connector-curvature="0" /><path
       d="m 184.79574,97.22447 -7.8,2.4 7.8,3 0,-5.4 z"
       style="fill:#000000;fill-opacity:1;fill-rule:evenodd;stroke:none"
       id="path4747"
       inkscape:connector-curvature="0" /><text
       transform="scale(1,-1)"
       id="text4749"
       x="185.30551"
       y="-85.704445"><tspan
         style="font-size:13.99967957px;font-variant:normal;font-weight:normal;writing-mode:lr-tb;fill:#000000;fill-opacity:1;fill-rule:nonzero;stroke:none;font-family:FREESTYLE SCRIPT;-inkscape-font-specification:FREESTYLE SCRIPT"
         x="185.30551"
         y="-85.704445"
         id="tspan4751">I</tspan></text>
<text
       transform="scale(1,-1)"
       id="text4753"
       x="188.46552"
       y="-83.704445"><tspan
         style="font-size:9.09864044px;font-variant:normal;font-weight:normal;writing-mode:lr-tb;fill:#000000;fill-opacity:1;fill-rule:nonzero;stroke:none;font-family:FREESTYLE SCRIPT;-inkscape-font-specification:FREESTYLE SCRIPT"
         x="188.46552 192.52164"
         y="-83.704445"
         sodipodi:role="line"
         id="tspan4755">OZ</tspan></text>
<text
       transform="scale(1,-1)"
       id="text4757"
       x="152.45552"
       y="-78.054482"><tspan
         style="font-size:13.99967957px;font-variant:normal;font-weight:normal;writing-mode:lr-tb;fill:#000000;fill-opacity:1;fill-rule:nonzero;stroke:none;font-family:ARIAL;-inkscape-font-specification:ARIAL"
         x="152.45552 163.34552"
         y="-78.054482"
         sodipodi:role="line"
         id="tspan4759">OZ</tspan></text>
<path
       d="m 100.79574,122.42447 19.2,0"
       style="fill:none;stroke:#000000;stroke-width:0.72000003;stroke-linecap:round;stroke-linejoin:round;stroke-miterlimit:10;stroke-opacity:1;stroke-dasharray:none"
       id="path4761"
       inkscape:connector-curvature="0" /><path
       d="m 104.91574,16.384465 c 0,1.17 -0.95,2.13 -2.13,2.13 -1.17,0 -2.12,-0.96 -2.12,-2.13 0,-1.17 0.95,-2.13 2.12,-2.13 1.18,0 2.13,0.96 2.13,2.13 z"
       style="fill:#000000;fill-opacity:1;fill-rule:evenodd;stroke:none"
       id="path4763"
       inkscape:connector-curvature="0" /><path
       d="m 104.91574,16.384465 c 0,1.17 -0.95,2.13 -2.13,2.13 -1.17,0 -2.12,-0.96 -2.12,-2.13 0,-1.17 0.95,-2.13 2.12,-2.13 1.18,0 2.13,0.96 2.13,2.13 z"
       style="fill:none;stroke:#000000;stroke-width:0.72000003;stroke-linecap:round;stroke-linejoin:round;stroke-miterlimit:10;stroke-opacity:1;stroke-dasharray:none"
       id="path4765"
       inkscape:connector-curvature="0" /><path
       d="m 104.20574,122.33447 c 0,1.17 -0.95,2.12 -2.12,2.12 -1.18,0 -2.13,-0.95 -2.13,-2.12 0,-1.18 0.95,-2.13 2.13,-2.13 1.17,0 2.12,0.95 2.12,2.13 z"
       style="fill:#000000;fill-opacity:1;fill-rule:evenodd;stroke:none"
       id="path4767"
       inkscape:connector-curvature="0" /><path
       d="m 104.20574,122.33447 c 0,1.17 -0.95,2.12 -2.12,2.12 -1.18,0 -2.13,-0.95 -2.13,-2.12 0,-1.18 0.95,-2.13 2.13,-2.13 1.17,0 2.12,0.95 2.12,2.13 z"
       style="fill:none;stroke:#000000;stroke-width:0.72000003;stroke-linecap:round;stroke-linejoin:round;stroke-miterlimit:10;stroke-opacity:1;stroke-dasharray:none"
       id="path4769"
       inkscape:connector-curvature="0" /><text
       transform="scale(1,-1)"
       id="text4787"
       x="0.91576231"
       y="-35.434517"><tspan
         style="font-size:18px;font-variant:normal;font-weight:normal;writing-mode:lr-tb;fill:#000000;fill-opacity:1;fill-rule:nonzero;stroke:none;font-family:ARIAL;-inkscape-font-specification:ARIAL"
         x="0.91576231"
         y="-35.434517"
         id="tspan4789">U</tspan></text>
<text
       transform="scale(1,-1)"
       id="text4791"
       x="13.905777"
       y="-32.944519"><tspan
         style="font-size:11.69855976px;font-variant:normal;font-weight:normal;writing-mode:lr-tb;fill:#000000;fill-opacity:1;fill-rule:nonzero;stroke:none;font-family:ARIAL;-inkscape-font-specification:ARIAL"
         x="13.905777"
         y="-32.944519"
         id="tspan4793">1</tspan></text>
<text
       transform="scale(1,-1)"
       id="text4795"
       x="34.285797"
       y="-103.24436"><tspan
         style="font-size:13.99967957px;font-variant:normal;font-weight:normal;writing-mode:lr-tb;fill:#000000;fill-opacity:1;fill-rule:nonzero;stroke:none;font-family:FREESTYLE SCRIPT;-inkscape-font-specification:FREESTYLE SCRIPT"
         x="34.285797"
         y="-103.24436"
         id="tspan4797">I</tspan></text>
<text
       transform="scale(1,-1)"
       id="text4799"
       x="37.435799"
       y="-101.24437"><tspan
         style="font-size:9.09864044px;font-variant:normal;font-weight:normal;writing-mode:lr-tb;fill:#000000;fill-opacity:1;fill-rule:nonzero;stroke:none;font-family:FREESTYLE SCRIPT;-inkscape-font-specification:FREESTYLE SCRIPT"
         x="37.435799"
         y="-101.24437"
         id="tspan4801">1</tspan></text>
<path
       d="m 26.995743,96.02447 13.8,0"
       style="fill:none;stroke:#000000;stroke-width:0.72000003;stroke-linecap:round;stroke-linejoin:round;stroke-miterlimit:10;stroke-opacity:1;stroke-dasharray:none"
       id="path4819"
       inkscape:connector-curvature="0" /><path
       d="m 40.795743,93.62447 7.799997,2.4 -7.799997,2.4 0,-4.8"
       style="fill:none;stroke:#000000;stroke-width:0.72000003;stroke-linecap:round;stroke-linejoin:round;stroke-miterlimit:10;stroke-opacity:1;stroke-dasharray:none"
       id="path4821"
       inkscape:connector-curvature="0" /></g></svg>