<?xml version="1.0" encoding="UTF-8" standalone="no"?>
<!-- Created with Inkscape (http://www.inkscape.org/) -->

<svg
   xmlns:dc="http://purl.org/dc/elements/1.1/"
   xmlns:cc="http://creativecommons.org/ns#"
   xmlns:rdf="http://www.w3.org/1999/02/22-rdf-syntax-ns#"
   xmlns:svg="http://www.w3.org/2000/svg"
   xmlns="http://www.w3.org/2000/svg"
   xmlns:sodipodi="http://sodipodi.sourceforge.net/DTD/sodipodi-0.dtd"
   xmlns:inkscape="http://www.inkscape.org/namespaces/inkscape"
   width="310"
   height="210"
   id="svg4072"
   version="1.1"
   inkscape:version="0.48.4 r9939"
   sodipodi:docname="Optoisolator_03.svg">
  <defs
     id="defs4074">
    <clipPath
       clipPathUnits="userSpaceOnUse"
       id="clipPath3395">
      <path
         inkscape:connector-curvature="0"
         d="m 248.202,657.064 231.191,0 0,-158.24 -231.191,0 0,158.24 z"
         id="path3397" />
    </clipPath>
    <clipPath
       clipPathUnits="userSpaceOnUse"
       id="clipPath3153">
      <path
         inkscape:connector-curvature="0"
         d="m 245.172,468.301 245.911,0 0,-161.704 -245.911,0 0,161.704 z"
         id="path3155" />
    </clipPath>
  </defs>
  <sodipodi:namedview
     id="base"
     pagecolor="#ffffff"
     bordercolor="#666666"
     borderopacity="1.0"
     inkscape:pageopacity="0.0"
     inkscape:pageshadow="2"
     inkscape:zoom="11.2"
     inkscape:cx="241.12281"
     inkscape:cy="65.887214"
     inkscape:document-units="px"
     inkscape:current-layer="layer1"
     showgrid="false"
     inkscape:window-width="924"
     inkscape:window-height="780"
     inkscape:window-x="2020"
     inkscape:window-y="100"
     inkscape:window-maximized="0" />
  <metadata
     id="metadata4077">
    <rdf:RDF>
      <cc:Work
         rdf:about="">
        <dc:format>image/svg+xml</dc:format>
        <dc:type
           rdf:resource="http://purl.org/dc/dcmitype/StillImage" />
        <dc:title></dc:title>
      </cc:Work>
    </rdf:RDF>
  </metadata>
  <g
     inkscape:label="Layer 1"
     inkscape:groupmode="layer"
     id="layer1"
     transform="translate(0,-842.36218)">
    <path
       inkscape:connector-curvature="0"
       d="m 102.42198,1028.7172 111.08125,0 0,-138.90378 -111.08125,0 0,138.90378 z"
       style="fill:none;stroke:#000000;stroke-width:0.67124999;stroke-linecap:butt;stroke-linejoin:miter;stroke-miterlimit:4;stroke-opacity:1;stroke-dasharray:2.87375, 2.87375;stroke-dashoffset:0"
       id="path3083" />
    <text
       style="font-size:14.99728966px"
       y="1017.2885"
       x="76.102348"
       transform="scale(0.99981933,1.0001807)"
       id="text3085">
      <tspan
         style="font-size:6.22549963px;font-variant:normal;font-weight:normal;writing-mode:lr-tb;fill:#000000;fill-opacity:1;fill-rule:nonzero;stroke:none;font-family:Helvetica;-inkscape-font-specification:Helvetica"
         x="76.102348"
         y="1017.2885"
         id="tspan3087">1</tspan>
      <tspan
         style="font-size:6.22549963px;font-variant:normal;font-weight:normal;writing-mode:lr-tb;fill:#000000;fill-opacity:1;fill-rule:nonzero;stroke:none;font-family:Helvetica;-inkscape-font-specification:Helvetica"
         x="96.672646"
         y="934.96564"
         id="tspan3089">2</tspan>
      <tspan
         style="font-size:6.22549963px;font-variant:normal;font-weight:normal;writing-mode:lr-tb;fill:#000000;fill-opacity:1;fill-rule:nonzero;stroke:none;font-family:Helvetica;-inkscape-font-specification:Helvetica"
         x="215.19682"
         y="917.24664"
         id="tspan3091">8</tspan>
      <tspan
         style="font-size:6.22549963px;font-variant:normal;font-weight:normal;writing-mode:lr-tb;fill:#000000;fill-opacity:1;fill-rule:nonzero;stroke:none;font-family:Helvetica;-inkscape-font-specification:Helvetica"
         x="215.19682"
         y="949.57129"
         id="tspan3093">7</tspan>
      <tspan
         style="font-size:6.22549963px;font-variant:normal;font-weight:normal;writing-mode:lr-tb;fill:#000000;fill-opacity:1;fill-rule:nonzero;stroke:none;font-family:Helvetica;-inkscape-font-specification:Helvetica"
         x="215.67555"
         y="980.45911"
         id="tspan3095">6</tspan>
      <tspan
         style="font-size:6.22549963px;font-variant:normal;font-weight:normal;writing-mode:lr-tb;fill:#000000;fill-opacity:1;fill-rule:nonzero;stroke:none;font-family:Helvetica;-inkscape-font-specification:Helvetica"
         x="215.43587"
         y="1013.2625"
         id="tspan3097">5</tspan>
      <tspan
         style="font-size:6.22549963px;font-variant:normal;font-weight:normal;writing-mode:lr-tb;fill:#000000;fill-opacity:1;fill-rule:nonzero;stroke:none;font-family:Helvetica;-inkscape-font-specification:Helvetica"
         x="130.10109 133.56245 137.71487"
         y="1044.7095"
         sodipodi:role="line"
         id="tspan3099">LED</tspan>
      <tspan
         style="font-size:6.22549963px;font-variant:normal;font-weight:normal;writing-mode:lr-tb;fill:#000000;fill-opacity:1;fill-rule:nonzero;stroke:none;font-family:Helvetica;-inkscape-font-specification:Helvetica"
         x="97.39045"
         y="981.41656"
         id="tspan3101">3</tspan>
    </text>
    <path
       inkscape:connector-curvature="0"
       d="m 102.42198,941.22467 15.32125,0 0,30.97371 -15.32125,0"
       style="fill:none;stroke:#000000;stroke-width:0.67124999;stroke-linecap:butt;stroke-linejoin:miter;stroke-miterlimit:4;stroke-opacity:1;stroke-dasharray:none"
       id="path3103" />
    <path
       inkscape:connector-curvature="0"
       d="m 122.92948,953.43842 -5.3725,6.63876 -4.8975,-6.63876 10.27,0 z"
       style="fill:#ffffff;fill-opacity:1;fill-rule:nonzero;stroke:#000000;stroke-width:0.95875001;stroke-linecap:butt;stroke-linejoin:miter;stroke-miterlimit:10;stroke-opacity:1;stroke-dasharray:none"
       id="path3105" />
    <path
       inkscape:connector-curvature="0"
       d="m 112.69948,959.99718 10.27125,0"
       style="fill:none;stroke:#000000;stroke-width:0.95875001;stroke-linecap:butt;stroke-linejoin:miter;stroke-miterlimit:10;stroke-opacity:1;stroke-dasharray:none"
       id="path3107" />
    <path
       inkscape:connector-curvature="0"
       d="m 102.48573,941.54717 -82.283753,0 m 198.866253,30.49501 55.85,0"
       style="fill:none;stroke:#000000;stroke-width:0.67124999;stroke-linecap:butt;stroke-linejoin:miter;stroke-miterlimit:4;stroke-opacity:1;stroke-dasharray:none"
       id="path3109" />
    <text
       style="font-size:14.99728966px"
       y="1011.507"
       x="160.35083"
       transform="scale(0.99981933,1.0001807)"
       id="text3111">
      <tspan
         style="font-size:6.22549963px;font-variant:normal;font-weight:normal;writing-mode:lr-tb;fill:#000000;fill-opacity:1;fill-rule:nonzero;stroke:none;font-family:Helvetica;-inkscape-font-specification:Helvetica"
         x="160.35083 164.50323 168.99805 170.72873 174.88115 178.34251"
         y="1011.507"
         sodipodi:role="line"
         id="tspan3113">SHIELD</tspan>
      <tspan
         style="font-size:6.22549963px;font-variant:normal;font-weight:normal;writing-mode:lr-tb;fill:#000000;fill-opacity:1;fill-rule:nonzero;stroke:none;font-family:Helvetica;-inkscape-font-specification:Helvetica"
         x="143.68143 148.17624 152.67105 156.82346 160.28484 162.35793 165.81931 169.28069 172.74207"
         y="862.41443"
         sodipodi:role="line"
         id="tspan3115">HCPL-2400</tspan>
      <tspan
         style="font-size:6.22549963px;font-variant:normal;font-weight:normal;writing-mode:lr-tb;fill:#000000;fill-opacity:1;fill-rule:nonzero;stroke:none;font-family:Helvetica;-inkscape-font-specification:Helvetica"
         x="143.68143 148.17624 152.67105 156.82346 160.28484 162.35793 165.81931 169.28069 172.74207"
         y="870.07678"
         sodipodi:role="line"
         id="tspan3117">HCPL-2430</tspan>
      <tspan
         style="font-size:6.22549963px;font-variant:normal;font-weight:normal;writing-mode:lr-tb;fill:#000000;fill-opacity:1;fill-rule:nonzero;stroke:none;font-family:Helvetica;-inkscape-font-specification:Helvetica"
         x="143.68143 148.17624 152.67105 156.82346 160.28484 162.35793 165.81931 169.28069 172.74207"
         y="877.73914"
         sodipodi:role="line"
         id="tspan3119">HCPL-2201</tspan>
      <tspan
         style="font-size:6.22549963px;font-variant:normal;font-weight:normal;writing-mode:lr-tb;fill:#000000;fill-opacity:1;fill-rule:nonzero;stroke:none;font-family:Helvetica;-inkscape-font-specification:Helvetica"
         x="143.68143 148.17624 152.67105 156.82346 160.28484 162.35793 165.81931 169.28069 172.74207"
         y="885.40149"
         sodipodi:role="line"
         id="tspan3121">HCPL-2230</tspan>
    </text>
    <path
       inkscape:connector-curvature="0"
       d="m 212.90698,1004.7684 -84.615,0"
       style="fill:none;stroke:#000000;stroke-width:0.67124999;stroke-linecap:butt;stroke-linejoin:miter;stroke-miterlimit:4;stroke-opacity:1;stroke-dasharray:none"
       id="path3123" />
    <path
       inkscape:connector-curvature="0"
       d="m 128.31073,1004.7884 0,-108.88748"
       style="fill:none;stroke:#000000;stroke-width:0.67124999;stroke-linecap:butt;stroke-linejoin:miter;stroke-miterlimit:4;stroke-opacity:1;stroke-dasharray:5.74625, 2.87375;stroke-dashoffset:0"
       id="path3125" />
    <path
       inkscape:connector-curvature="0"
       d="m 204.11948,1005.9422 c 0.9675,0 1.7525,-0.785 1.7525,-1.7538 0,-0.9675 -0.785,-1.75 -1.7525,-1.75 -0.9675,0 -1.75125,0.7825 -1.75125,1.75 0,0.9688 0.78375,1.7538 1.75125,1.7538"
       style="fill:#000000;fill-opacity:1;fill-rule:nonzero;stroke:none"
       id="path3127" />
    <path
       inkscape:connector-curvature="0"
       d="m 163.26198,1006.2609 c 0.9675,0 1.7525,-0.785 1.7525,-1.7512 0,-0.9675 -0.785,-1.7525 -1.7525,-1.7525 -0.9675,0 -1.7525,0.785 -1.7525,1.7525 0,0.9662 0.785,1.7512 1.7525,1.7512"
       style="fill:#000000;fill-opacity:1;fill-rule:nonzero;stroke:none"
       id="path3129" />
    <path
       inkscape:connector-curvature="0"
       d="m 201.89573,991.84968 2.29375,5.335 -5.815,0.9912 3.52125,-6.3262 z"
       style="fill:#000000;fill-opacity:1;fill-rule:nonzero;stroke:#000000;stroke-width:0.0875;stroke-linecap:butt;stroke-linejoin:miter;stroke-miterlimit:10;stroke-opacity:1;stroke-dasharray:none"
       id="path3133" />
    <path
       inkscape:connector-curvature="0"
       d="m 195.64698,997.66968 0,-18.5363"
       style="fill:none;stroke:#000000;stroke-width:1.91499996;stroke-linecap:butt;stroke-linejoin:miter;stroke-miterlimit:4;stroke-opacity:1;stroke-dasharray:none"
       id="path3135" />
    <path
       inkscape:connector-curvature="0"
       d="m 195.86198,992.71218 4.09375,2.1562 m -4.30875,-10.5625 8.47375,-4.31 0,-7.9812 9.29625,0 m 0.085,-63.36126 -49.92,0 0,42.04625 m 32.065,37.48621 -8.695,0 0,-48.02371 m 17.2375,57.02251 0,7.64002"
       style="fill:none;stroke:#000000;stroke-width:0.67124999;stroke-linecap:butt;stroke-linejoin:miter;stroke-miterlimit:10;stroke-opacity:1;stroke-dasharray:none"
       id="path3137" />
    <text
       style="font-size:14.99728966px"
       y="875.18207"
       x="73.10482"
       transform="scale(0.99981933,1.0001807)"
       id="text3139">
      <tspan
         style="font-size:6.22549963px;font-variant:normal;font-weight:normal;writing-mode:lr-tb;fill:#000000;fill-opacity:1;fill-rule:nonzero;stroke:none;font-family:Helvetica;-inkscape-font-specification:Helvetica"
         x="73.10482 77.257225 81.752037 86.595474 90.287201"
         y="875.18207"
         sodipodi:role="line"
         id="tspan3141">PHOTO</tspan>
      <tspan
         style="font-size:6.22549963px;font-variant:normal;font-weight:normal;writing-mode:lr-tb;fill:#000000;fill-opacity:1;fill-rule:nonzero;stroke:none;font-family:Helvetica;-inkscape-font-specification:Helvetica"
         x="74.260269 78.755081 80.485771 85.329208 89.82402"
         y="882.84442"
         sodipodi:role="line"
         id="tspan3143">DIODE</tspan>
      <tspan
         style="font-size:6.22549963px;font-variant:normal;font-weight:normal;writing-mode:lr-tb;fill:#000000;fill-opacity:1;fill-rule:nonzero;stroke:none;font-family:Helvetica;-inkscape-font-specification:Helvetica"
         x="76.856926 78.930016 83.082428 84.813118 89.30793"
         y="890.50677"
         sodipodi:role="line"
         id="tspan3145">(PIN)</tspan>
      <tspan
         style="font-size:6.22549963px;font-variant:normal;font-weight:normal;writing-mode:lr-tb;fill:#000000;fill-opacity:1;fill-rule:nonzero;stroke:none;font-family:Helvetica;-inkscape-font-specification:Helvetica"
         x="228.22684"
         y="1043.8297"
         id="tspan3147">2</tspan>
    </text>
    <g
       transform="matrix(1.25,0,0,-1.25,-302.16302,1433.5747)"
       id="g3149">
      <g
         id="g3151"
         clip-path="url(#clipPath3153)">
        <path
           inkscape:connector-curvature="0"
           d="m 421.725,315.886 3.937,-7.564 3.623,7.564 -7.56,0 z"
           style="fill:none;stroke:#000000;stroke-width:0.76700002;stroke-linecap:butt;stroke-linejoin:miter;stroke-miterlimit:10;stroke-opacity:1;stroke-dasharray:none"
           id="path3157" />
      </g>
    </g>
    <path
       inkscape:connector-curvature="0"
       d="m 39.205727,943.74342 13.46625,0 0,-4.55 -13.46625,0 0,4.55 z"
       style="fill:#ffffff;fill-opacity:1;fill-rule:nonzero;stroke:none"
       id="path3159" />
    <path
       inkscape:connector-curvature="0"
       d="m 52.839477,941.20342 -1.615,1.8325 -2.0475,-3.125 -2.155,2.91 -2.04625,-2.91 -2.37,2.47875 -1.93875,-2.5875 -1.61625,1.725"
       style="fill:none;stroke:#000000;stroke-width:0.95875001;stroke-linecap:butt;stroke-linejoin:miter;stroke-miterlimit:10;stroke-opacity:1;stroke-dasharray:none"
       id="path3161" />
    <text
       style="font-size:14.99728966px"
       y="935.50671"
       x="42.176598"
       transform="scale(0.99981933,1.0001807)"
       id="text3163">
      <tspan
         style="font-size:6.22549963px;font-variant:normal;font-weight:normal;writing-mode:lr-tb;fill:#000000;fill-opacity:1;fill-rule:nonzero;stroke:none;font-family:Helvetica;-inkscape-font-specification:Helvetica"
         x="42.176598"
         y="935.50671"
         id="tspan3165">R</tspan>
    </text>
    <text
       style="font-size:14.99715233px"
       y="936.45599"
       x="46.671711"
       transform="scale(0.99981014,1.0001899)"
       id="text3167">
      <tspan
         style="font-size:5.26775026px;font-variant:normal;font-weight:normal;writing-mode:lr-tb;fill:#000000;fill-opacity:1;fill-rule:nonzero;stroke:none;font-family:Helvetica;-inkscape-font-specification:Helvetica"
         x="46.671711"
         y="936.45599"
         id="tspan3169">1</tspan>
    </text>
    <text
       style="font-size:14.99728966px"
       y="974.71521"
       x="282.33786"
       transform="scale(0.99981933,1.0001807)"
       id="text3171">
      <tspan
         style="font-size:6.22549963px;font-variant:normal;font-weight:normal;writing-mode:lr-tb;fill:#000000;fill-opacity:1;fill-rule:nonzero;stroke:none;font-family:Helvetica;-inkscape-font-specification:Helvetica"
         x="282.33786"
         y="974.71521"
         id="tspan3173">V</tspan>
    </text>
    <text
       style="font-size:14.99715233px"
       y="975.66418"
       x="286.49286"
       transform="scale(0.99981014,1.0001899)"
       id="text3175">
      <tspan
         style="font-size:5.26775026px;font-variant:normal;font-weight:normal;writing-mode:lr-tb;fill:#000000;fill-opacity:1;fill-rule:nonzero;stroke:none;font-family:Helvetica;-inkscape-font-specification:Helvetica"
         x="286.49286 290.59067 294.39343"
         y="975.66418"
         sodipodi:role="line"
         id="tspan3177">OUT</tspan>
    </text>
    <text
       style="font-size:14.99728966px"
       y="881.08838"
       x="247.06036"
       transform="scale(0.99981933,1.0001807)"
       id="text3179">
      <tspan
         style="font-size:6.22549963px;font-variant:normal;font-weight:normal;writing-mode:lr-tb;fill:#000000;fill-opacity:1;fill-rule:nonzero;stroke:none;font-family:Helvetica;-inkscape-font-specification:Helvetica"
         x="247.06036"
         y="881.08838"
         id="tspan3181">V</tspan>
    </text>
    <text
       style="font-size:14.99715233px"
       y="882.03821"
       x="251.21492"
       transform="scale(0.99981014,1.0001899)"
       id="text3183">
      <tspan
         style="font-size:5.26775026px;font-variant:normal;font-weight:normal;writing-mode:lr-tb;fill:#000000;fill-opacity:1;fill-rule:nonzero;stroke:none;font-family:Helvetica;-inkscape-font-specification:Helvetica"
         x="251.21492 255.01772"
         y="882.03821"
         sodipodi:role="line"
         id="tspan3185">CC</tspan>
    </text>
    <path
       inkscape:connector-curvature="0"
       d="m 204.11948,910.46467 c 0.9675,0 1.7525,-0.78375 1.7525,-1.75125 0,-0.9675 -0.785,-1.7525 -1.7525,-1.7525 -0.9675,0 -1.75125,0.785 -1.75125,1.7525 0,0.9675 0.78375,1.75125 1.75125,1.75125"
       style="fill:#000000;fill-opacity:1;fill-rule:nonzero;stroke:none"
       id="path3187" />
    <path
       inkscape:connector-curvature="0"
       d="m 204.11948,973.85088 c 0.9675,0 1.7525,-0.785 1.7525,-1.7525 0,-0.9675 -0.785,-1.7525 -1.7525,-1.7525 -0.9675,0 -1.75125,0.785 -1.75125,1.7525 0,0.9675 0.78375,1.7525 1.75125,1.7525"
       style="fill:#000000;fill-opacity:1;fill-rule:nonzero;stroke:none"
       id="path3189" />
    <path
       inkscape:connector-curvature="0"
       d="m 186.72323,964.90968 c 0.9675,0 1.7525,-0.785 1.7525,-1.7538 0,-0.9662 -0.785,-1.7512 -1.7525,-1.7512 -0.9675,0 -1.7525,0.785 -1.7525,1.7512 0,0.9688 0.785,1.7538 1.7525,1.7538"
       style="fill:#000000;fill-opacity:1;fill-rule:nonzero;stroke:none"
       id="path3191" />
    <path
       inkscape:connector-curvature="0"
       d="m 219.38198,1004.1059 10.21375,0 0,34.8063 m -126.45,-67.09502 -25.646253,0 0,39.58872"
       style="fill:none;stroke:#000000;stroke-width:0.67124999;stroke-linecap:butt;stroke-linejoin:miter;stroke-miterlimit:4;stroke-opacity:1;stroke-dasharray:none"
       id="path3193" />
    <path
       inkscape:connector-curvature="0"
       d="m 72.896977,1011.5297 4.92125,9.455 4.5275,-9.455 -9.44875,0 z"
       style="fill:none;stroke:#000000;stroke-width:0.95875001;stroke-linecap:butt;stroke-linejoin:miter;stroke-miterlimit:10;stroke-opacity:1;stroke-dasharray:none"
       id="path3195" />
    <path
       inkscape:connector-curvature="0"
       d="m 17.655727,944.09842 c 1.49625,0 2.71,-1.21375 2.71,-2.71125 0,-1.495 -1.21375,-2.70875 -2.71,-2.70875 -1.495002,0 -2.708752,1.21375 -2.708752,2.70875 0,1.4975 1.21375,2.71125 2.708752,2.71125 z"
       style="fill:#ffffff;fill-opacity:1;fill-rule:nonzero;stroke:#000000;stroke-width:0.67124999;stroke-linecap:butt;stroke-linejoin:miter;stroke-miterlimit:10;stroke-opacity:1;stroke-dasharray:none"
       id="path3197" />
    <path
       inkscape:connector-curvature="0"
       d="m 254.01573,891.14217 c 1.495,0 2.70875,-1.2125 2.70875,-2.71 0,-1.49625 -1.21375,-2.70875 -2.70875,-2.70875 -1.49625,0 -2.71,1.2125 -2.71,2.70875 0,1.4975 1.21375,2.71 2.71,2.71 z"
       style="fill:#ffffff;fill-opacity:1;fill-rule:nonzero;stroke:#000000;stroke-width:0.67124999;stroke-linecap:butt;stroke-linejoin:miter;stroke-miterlimit:10;stroke-opacity:1;stroke-dasharray:none"
       id="path3201" />
    <path
       inkscape:connector-curvature="0"
       d="m 277.47198,974.89088 c 1.49625,0 2.70875,-1.2125 2.70875,-2.7087 0,-1.4963 -1.2125,-2.71 -2.70875,-2.71 -1.49625,0 -2.70875,1.2137 -2.70875,2.71 0,1.4962 1.2125,2.7087 2.70875,2.7087 z"
       style="fill:#ffffff;fill-opacity:1;fill-rule:nonzero;stroke:#000000;stroke-width:0.67124999;stroke-linecap:butt;stroke-linejoin:miter;stroke-miterlimit:10;stroke-opacity:1;stroke-dasharray:none"
       id="path3205" />
    <text
       style="font-size:14.99728966px"
       y="997.82782"
       x="265.18488"
       transform="scale(0.99981933,1.0001807)"
       id="text3209">
      <tspan
         style="font-size:6.22549963px;font-variant:normal;font-weight:normal;writing-mode:lr-tb;fill:#000000;fill-opacity:1;fill-rule:nonzero;stroke:none;font-family:Helvetica;-inkscape-font-specification:Helvetica"
         x="265.18488 268.87662 273.72003 277.52383 281.67624 286.86206 288.59277 292.74518 297.58862 301.04999"
         y="997.82782"
         sodipodi:role="line"
         id="tspan3211">TOTEM POLE</tspan>
      <tspan
         style="font-size:6.22549963px;font-variant:normal;font-weight:normal;writing-mode:lr-tb;fill:#000000;fill-opacity:1;fill-rule:nonzero;stroke:none;font-family:Helvetica;-inkscape-font-specification:Helvetica"
         x="261.26593 266.10938 270.60419 274.40796 278.56036 283.05518 286.74692 288.4776 292.63 295.97308 300.12549 304.96893"
         y="1005.4902"
         sodipodi:role="line"
         id="tspan3213">OUTPUT STAGE</tspan>
    </text>
    <path
       inkscape:connector-curvature="0"
       d="m 261.72448,990.84968 -37.98375,-12.1338"
       style="fill:none;stroke:#000000;stroke-width:0.67124999;stroke-linecap:butt;stroke-linejoin:miter;stroke-miterlimit:4;stroke-opacity:1;stroke-dasharray:none"
       id="path3215" />
    <path
       inkscape:connector-curvature="0"
       d="m 229.59073,978.71834 -7.51375,-0.3563 6.32875,4.0675 1.185,-3.7112"
       style="fill:#000000;fill-opacity:1;fill-rule:nonzero;stroke:none"
       id="path3217" />
    <path
       inkscape:connector-curvature="0"
       d="M 134.85323,1037.8734 113.46698,977.52218"
       style="fill:none;stroke:#000000;stroke-width:0.67124999;stroke-linecap:butt;stroke-linejoin:miter;stroke-miterlimit:4;stroke-opacity:1;stroke-dasharray:none"
       id="path3219" />
    <path
       inkscape:connector-curvature="0"
       d="m 115.72323,978.13588 -4.26375,-6.2012 0.5925,7.5025 3.67125,-1.3013"
       style="fill:#000000;fill-opacity:1;fill-rule:nonzero;stroke:none"
       id="path3221" />
    <path
       inkscape:connector-curvature="0"
       d="m 92.719477,892.26467 43.731253,51.41"
       style="fill:none;stroke:#000000;stroke-width:0.67124999;stroke-linecap:butt;stroke-linejoin:miter;stroke-miterlimit:4;stroke-opacity:1;stroke-dasharray:none"
       id="path3223" />
    <path
       inkscape:connector-curvature="0"
       d="m 134.12073,943.91592 6.20375,4.2575 -3.245,-6.78875 -2.95875,2.53125"
       style="fill:#000000;fill-opacity:1;fill-rule:nonzero;stroke:none"
       id="path3225" />
    <text
       style="font-size:14.99728966px"
       y="943.04932"
       x="4.4099064"
       transform="scale(0.99981933,1.0001807)"
       id="text3227">
      <tspan
         style="font-size:6.22549963px;font-variant:normal;font-weight:normal;writing-mode:lr-tb;fill:#000000;fill-opacity:1;fill-rule:nonzero;stroke:none;font-family:Helvetica;-inkscape-font-specification:Helvetica"
         x="4.4099064"
         y="943.04932"
         id="tspan3229">V</tspan>
    </text>
    <text
       style="font-size:14.99715233px"
       y="943.99854"
       x="8.5623417"
       transform="scale(0.99981014,1.0001899)"
       id="text3231">
      <tspan
         style="font-size:5.26775026px;font-variant:normal;font-weight:normal;writing-mode:lr-tb;fill:#000000;fill-opacity:1;fill-rule:nonzero;stroke:none;font-family:Helvetica;-inkscape-font-specification:Helvetica"
         x="8.5623417 10.026789"
         y="943.99854"
         sodipodi:role="line"
         id="tspan3233">IN</tspan>
    </text>
    <path
       inkscape:connector-curvature="0"
       d="m 210.66323,908.65342 43.18875,0 0,-17.51125"
       style="fill:none;stroke:#000000;stroke-width:0.67124999;stroke-linecap:butt;stroke-linejoin:miter;stroke-miterlimit:4;stroke-opacity:1;stroke-dasharray:none"
       id="path3235" />
    <path
       inkscape:connector-curvature="0"
       d="m 152.72948,982.79088 29.95875,-19.3262 -29.95875,-19.32876 0,38.65496 z"
       style="fill:#ffffff;fill-opacity:1;fill-rule:nonzero;stroke:#000000;stroke-width:1.43625009;stroke-linecap:butt;stroke-linejoin:miter;stroke-miterlimit:10;stroke-opacity:1;stroke-dasharray:none"
       id="path3237" />
    <path
       inkscape:connector-curvature="0"
       d="m 152.25073,949.26342 -11.49125,0 0,29.69626 11.97,0"
       style="fill:none;stroke:#000000;stroke-width:0.67124999;stroke-linecap:butt;stroke-linejoin:miter;stroke-miterlimit:4;stroke-opacity:1;stroke-dasharray:none"
       id="path3239" />
    <path
       inkscape:connector-curvature="0"
       d="m 163.58198,975.60718 0,28.73872"
       style="fill:none;stroke:#000000;stroke-width:0.67124999;stroke-linecap:butt;stroke-linejoin:miter;stroke-miterlimit:10;stroke-opacity:1;stroke-dasharray:none"
       id="path3241" />
    <path
       inkscape:connector-curvature="0"
       d="m 121.20073,966.51968 12.17,-9.39751"
       style="fill:none;stroke:#000000;stroke-width:0.47874999;stroke-linecap:butt;stroke-linejoin:miter;stroke-miterlimit:4;stroke-opacity:1;stroke-dasharray:none"
       id="path3243" />
    <path
       inkscape:connector-curvature="0"
       d="m 135.13573,955.97592 -5.62875,2.02746 1.6025,0.9388 0.385,1.83 3.64125,-4.79626 z"
       style="fill:#000000;fill-opacity:1;fill-rule:nonzero;stroke:#000000;stroke-width:0.47874999;stroke-linecap:butt;stroke-linejoin:miter;stroke-miterlimit:10;stroke-opacity:1;stroke-dasharray:none"
       id="path3245" />
    <path
       inkscape:connector-curvature="0"
       d="m 120.96073,974.06338 12.17125,-9.3962"
       style="fill:none;stroke:#000000;stroke-width:0.47874999;stroke-linecap:butt;stroke-linejoin:miter;stroke-miterlimit:4;stroke-opacity:1;stroke-dasharray:none"
       id="path3247" />
    <path
       inkscape:connector-curvature="0"
       d="m 134.89573,963.51968 -5.6275,2.0275 1.6025,0.9387 0.38375,1.83 3.64125,-4.7962 z"
       style="fill:#000000;fill-opacity:1;fill-rule:nonzero;stroke:#000000;stroke-width:0.47874999;stroke-linecap:butt;stroke-linejoin:miter;stroke-miterlimit:10;stroke-opacity:1;stroke-dasharray:none"
       id="path3249" />
    <path
       inkscape:connector-curvature="0"
       d="m 216.40948,911.42342 c 1.49625,0 2.70875,-1.21375 2.70875,-2.70875 0,-1.49625 -1.2125,-2.71 -2.70875,-2.71 -1.49625,0 -2.71,1.21375 -2.71,2.71 0,1.495 1.21375,2.70875 2.71,2.70875 z"
       style="fill:#ffffff;fill-opacity:1;fill-rule:nonzero;stroke:#000000;stroke-width:0.67124999;stroke-linecap:butt;stroke-linejoin:miter;stroke-miterlimit:10;stroke-opacity:1;stroke-dasharray:none"
       id="path3251" />
    <path
       inkscape:connector-curvature="0"
       d="m 216.40948,943.51467 c 1.49625,0 2.70875,-1.2125 2.70875,-2.71 0,-1.495 -1.2125,-2.7075 -2.70875,-2.7075 -1.49625,0 -2.71,1.2125 -2.71,2.7075 0,1.4975 1.21375,2.71 2.71,2.71 z"
       style="fill:#ffffff;fill-opacity:1;fill-rule:nonzero;stroke:#000000;stroke-width:0.67124999;stroke-linecap:butt;stroke-linejoin:miter;stroke-miterlimit:10;stroke-opacity:1;stroke-dasharray:none"
       id="path3255" />
    <path
       inkscape:connector-curvature="0"
       d="m 216.40948,974.64838 c 1.49625,0 2.70875,-1.2125 2.70875,-2.7087 0,-1.4963 -1.2125,-2.71 -2.70875,-2.71 -1.49625,0 -2.71,1.2137 -2.71,2.71 0,1.4962 1.21375,2.7087 2.71,2.7087 z"
       style="fill:#ffffff;fill-opacity:1;fill-rule:nonzero;stroke:#000000;stroke-width:0.67124999;stroke-linecap:butt;stroke-linejoin:miter;stroke-miterlimit:10;stroke-opacity:1;stroke-dasharray:none"
       id="path3259" />
    <path
       inkscape:connector-curvature="0"
       d="m 216.40948,1006.7409 c 1.49625,0 2.70875,-1.2137 2.70875,-2.71 0,-1.4962 -1.2125,-2.7087 -2.70875,-2.7087 -1.49625,0 -2.71,1.2125 -2.71,2.7087 0,1.4963 1.21375,2.71 2.71,2.71 z"
       style="fill:#ffffff;fill-opacity:1;fill-rule:nonzero;stroke:#000000;stroke-width:0.67124999;stroke-linecap:butt;stroke-linejoin:miter;stroke-miterlimit:10;stroke-opacity:1;stroke-dasharray:none"
       id="path3263" />
    <path
       inkscape:connector-curvature="0"
       d="m 99.103227,943.99467 c 1.496253,0 2.710003,-1.21375 2.710003,-2.71125 0,-1.49625 -1.21375,-2.70875 -2.710003,-2.70875 -1.49625,0 -2.7075,1.2125 -2.7075,2.70875 0,1.4975 1.21125,2.71125 2.7075,2.71125 z"
       style="fill:#ffffff;fill-opacity:1;fill-rule:nonzero;stroke:#000000;stroke-width:0.67124999;stroke-linecap:butt;stroke-linejoin:miter;stroke-miterlimit:10;stroke-opacity:1;stroke-dasharray:none"
       id="path3267" />
    <path
       inkscape:connector-curvature="0"
       d="m 99.103227,974.16968 c 1.496253,0 2.710003,-1.2138 2.710003,-2.71 0,-1.495 -1.21375,-2.7088 -2.710003,-2.7088 -1.49625,0 -2.7075,1.2138 -2.7075,2.7088 0,1.4962 1.21125,2.71 2.7075,2.71 z"
       style="fill:#ffffff;fill-opacity:1;fill-rule:nonzero;stroke:#000000;stroke-width:0.67124999;stroke-linecap:butt;stroke-linejoin:miter;stroke-miterlimit:10;stroke-opacity:1;stroke-dasharray:none"
       id="path3271" />
    <text
       style="font-size:14.99728966px"
       y="938.39606"
       x="219.3306"
       transform="scale(0.99981933,1.0001807)"
       id="text3275">
      <tspan
         style="font-size:6.22549963px;font-variant:normal;font-weight:normal;writing-mode:lr-tb;fill:#000000;fill-opacity:1;fill-rule:nonzero;stroke:none;font-family:Helvetica;-inkscape-font-specification:Helvetica"
         x="219.3306 223.48302 227.97783 232.13025 236.28264 239.74402"
         y="938.39606"
         sodipodi:role="line"
         id="tspan3277">ENABLE</tspan>
    </text>
    <path
       inkscape:connector-curvature="0"
       d="m 171.56073,948.78342 37.66625,-86.85375"
       style="fill:none;stroke:#000000;stroke-width:0.67124999;stroke-linecap:butt;stroke-linejoin:miter;stroke-miterlimit:4;stroke-opacity:1;stroke-dasharray:none"
       id="path3279" />
    <path
       inkscape:connector-curvature="0"
       d="m 170.32698,946.79592 -1.10625,7.445 4.6775,-5.895 -3.57125,-1.55"
       style="fill:#000000;fill-opacity:1;fill-rule:nonzero;stroke:none"
       id="path3281" />
    <text
       style="font-size:14.99728966px"
       y="854.43024"
       x="209.84988"
       transform="scale(0.99981933,1.0001807)"
       id="text3283">
      <tspan
         style="font-size:6.22549963px;font-variant:normal;font-weight:normal;writing-mode:lr-tb;fill:#000000;fill-opacity:1;fill-rule:nonzero;stroke:none;font-family:Helvetica;-inkscape-font-specification:Helvetica"
         x="209.84988 214.3447 218.49712 222.64952 227.14435 231.29674 235.79155 239.94395"
         y="854.43024"
         sodipodi:role="line"
         id="tspan3285">CASCADED</tspan>
      <tspan
         style="font-size:6.22549963px;font-variant:normal;font-weight:normal;writing-mode:lr-tb;fill:#000000;fill-opacity:1;fill-rule:nonzero;stroke:none;font-family:Helvetica;-inkscape-font-specification:Helvetica"
         x="210.71399 214.86639 220.05225 224.20465 227.66603 229.39673 233.2005 234.9312 239.08359"
         y="862.09259"
         sodipodi:role="line"
         id="tspan3287">AMPLIFIER</tspan>
    </text>
    <path
       inkscape:connector-curvature="0"
       d="m 201.85448,943.82592 2.29625,5.335 -5.8175,0.99125 3.52125,-6.32625 z"
       style="fill:#000000;fill-opacity:1;fill-rule:nonzero;stroke:#000000;stroke-width:0.0875;stroke-linecap:butt;stroke-linejoin:miter;stroke-miterlimit:10;stroke-opacity:1;stroke-dasharray:none"
       id="path3291" />
    <path
       inkscape:connector-curvature="0"
       d="m 195.60698,949.64592 0,-18.53625"
       style="fill:none;stroke:#000000;stroke-width:1.91499996;stroke-linecap:butt;stroke-linejoin:miter;stroke-miterlimit:4;stroke-opacity:1;stroke-dasharray:none"
       id="path3293" />
    <path
       inkscape:connector-curvature="0"
       d="m 195.82198,944.68842 4.09375,2.15625 m -4.30875,-10.5625 8.475,-4.31125 0,-23.3175 m -8.475,31.50875 -8.8325,0 m 17.37625,8.99875 0,23.93126 m -21.4625,-9.6275 4.035,0"
       style="fill:none;stroke:#000000;stroke-width:0.67124999;stroke-linecap:butt;stroke-linejoin:miter;stroke-miterlimit:10;stroke-opacity:1;stroke-dasharray:none"
       id="path3295" />
    <path
       inkscape:connector-curvature="0"
       d="m 136.23448,968.42218 5.3725,-6.6388 4.8975,6.6388 -10.27,0 z"
       style="fill:#ffffff;fill-opacity:1;fill-rule:nonzero;stroke:#000000;stroke-width:0.95875001;stroke-linecap:butt;stroke-linejoin:miter;stroke-miterlimit:10;stroke-opacity:1;stroke-dasharray:none"
       id="path3297" />
    <path
       inkscape:connector-curvature="0"
       d="m 146.46448,961.86338 -10.27,0"
       style="fill:none;stroke:#000000;stroke-width:0.95875001;stroke-linecap:butt;stroke-linejoin:miter;stroke-miterlimit:10;stroke-opacity:1;stroke-dasharray:none"
       id="path3299" />
    <path
       inkscape:connector-curvature="0"
       d="m 198.28073,928.38092 c -1.4025,0 -2.54,1.1375 -2.54,2.54 m -2.6325,21.37625 c 1.4025,0 2.53875,-1.1375 2.53875,-2.54 m 2.53875,26.83621 c -1.4025,0 -2.53875,1.1375 -2.53875,2.54 m -2.57375,21.13502 c 1.4025,0 2.53875,-1.13752 2.53875,-2.54002"
       style="fill:none;stroke:#000000;stroke-width:1.91499996;stroke-linecap:butt;stroke-linejoin:miter;stroke-miterlimit:4;stroke-opacity:1;stroke-dasharray:none"
       id="path3301" />
  </g>
</svg>
