<?xml version="1.0" encoding="UTF-8" standalone="no"?>
<!-- Created with Inkscape (http://www.inkscape.org/) -->

<svg
   xmlns:dc="http://purl.org/dc/elements/1.1/"
   xmlns:cc="http://creativecommons.org/ns#"
   xmlns:rdf="http://www.w3.org/1999/02/22-rdf-syntax-ns#"
   xmlns:svg="http://www.w3.org/2000/svg"
   xmlns="http://www.w3.org/2000/svg"
   xmlns:sodipodi="http://sodipodi.sourceforge.net/DTD/sodipodi-0.dtd"
   xmlns:inkscape="http://www.inkscape.org/namespaces/inkscape"
   width="310"
   height="210"
   id="svg4072"
   version="1.1"
   inkscape:version="0.48.4 r9939"
   sodipodi:docname="New document 4">
  <defs
     id="defs4074">
    <clipPath
       clipPathUnits="userSpaceOnUse"
       id="clipPath3395">
      <path
         inkscape:connector-curvature="0"
         d="m 248.202,657.064 231.191,0 0,-158.24 -231.191,0 0,158.24 z"
         id="path3397" />
    </clipPath>
  </defs>
  <sodipodi:namedview
     id="base"
     pagecolor="#ffffff"
     bordercolor="#666666"
     borderopacity="1.0"
     inkscape:pageopacity="0.0"
     inkscape:pageshadow="2"
     inkscape:zoom="0.98994949"
     inkscape:cx="209.10559"
     inkscape:cy="130.93202"
     inkscape:document-units="px"
     inkscape:current-layer="layer1"
     showgrid="false"
     inkscape:window-width="924"
     inkscape:window-height="780"
     inkscape:window-x="2020"
     inkscape:window-y="100"
     inkscape:window-maximized="0" />
  <metadata
     id="metadata4077">
    <rdf:RDF>
      <cc:Work
         rdf:about="">
        <dc:format>image/svg+xml</dc:format>
        <dc:type
           rdf:resource="http://purl.org/dc/dcmitype/StillImage" />
        <dc:title></dc:title>
      </cc:Work>
    </rdf:RDF>
  </metadata>
  <g
     inkscape:label="Layer 1"
     inkscape:groupmode="layer"
     id="layer1"
     transform="translate(0,-842.36218)">
    <g
       id="g3303"
       transform="matrix(1.2485,0,0,-1.2515,-303.39832,1667.2831)">
      <path
         inkscape:connector-curvature="0"
         d="m 325.249,515.132 86.892,0 0,108.615 -86.892,0 0,-108.615 z"
         style="fill:none;stroke:#000000;stroke-width:0.52399999;stroke-linecap:butt;stroke-linejoin:miter;stroke-miterlimit:4;stroke-opacity:1;stroke-dasharray:2.247, 2.247;stroke-dashoffset:0"
         id="path3305" />
    </g>
    <text
       style="font-size:14.98229599px"
       y="1010.4081"
       x="77.056351"
       transform="scale(0.9988197,1.0011817)"
       id="text3307">
      <tspan
         style="font-size:6.08618355px;font-variant:normal;font-weight:normal;writing-mode:lr-tb;fill:#000000;fill-opacity:1;fill-rule:nonzero;stroke:none;font-family:Helvetica;-inkscape-font-specification:Helvetica"
         x="77.056351"
         y="1010.4081"
         id="tspan3309">1</tspan>
      <tspan
         style="font-size:6.08618355px;font-variant:normal;font-weight:normal;writing-mode:lr-tb;fill:#000000;fill-opacity:1;fill-rule:nonzero;stroke:none;font-family:Helvetica;-inkscape-font-specification:Helvetica"
         x="97.166336"
         y="929.92755"
         id="tspan3311">2</tspan>
      <tspan
         style="font-size:6.08618355px;font-variant:normal;font-weight:normal;writing-mode:lr-tb;fill:#000000;fill-opacity:1;fill-rule:nonzero;stroke:none;font-family:Helvetica;-inkscape-font-specification:Helvetica"
         x="213.03816"
         y="912.60504"
         id="tspan3313">8</tspan>
      <tspan
         style="font-size:6.08618355px;font-variant:normal;font-weight:normal;writing-mode:lr-tb;fill:#000000;fill-opacity:1;fill-rule:nonzero;stroke:none;font-family:Helvetica;-inkscape-font-specification:Helvetica"
         x="213.03816"
         y="944.20636"
         id="tspan3315">7</tspan>
      <tspan
         style="font-size:6.08618355px;font-variant:normal;font-weight:normal;writing-mode:lr-tb;fill:#000000;fill-opacity:1;fill-rule:nonzero;stroke:none;font-family:Helvetica;-inkscape-font-specification:Helvetica"
         x="213.50618"
         y="974.40289"
         id="tspan3317">6</tspan>
      <tspan
         style="font-size:6.08618355px;font-variant:normal;font-weight:normal;writing-mode:lr-tb;fill:#000000;fill-opacity:1;fill-rule:nonzero;stroke:none;font-family:Helvetica;-inkscape-font-specification:Helvetica"
         x="213.2718"
         y="1006.4722"
         id="tspan3319">5</tspan>
      <tspan
         style="font-size:6.08618355px;font-variant:normal;font-weight:normal;writing-mode:lr-tb;fill:#000000;fill-opacity:1;fill-rule:nonzero;stroke:none;font-family:Helvetica;-inkscape-font-specification:Helvetica"
         x="66.01973 69.403641 73.463089"
         y="955.44208"
         sodipodi:role="line"
         id="tspan3321">LED</tspan>
      <tspan
         style="font-size:6.08618355px;font-variant:normal;font-weight:normal;writing-mode:lr-tb;fill:#000000;fill-opacity:1;fill-rule:nonzero;stroke:none;font-family:Helvetica;-inkscape-font-specification:Helvetica"
         x="97.868118"
         y="975.33905"
         id="tspan3323">3</tspan>
    </text>
    <g
       id="g3325"
       transform="matrix(1.2485,0,0,-1.2515,-303.39832,1667.2831)">
      <path
         inkscape:connector-curvature="0"
         d="m 325.249,583.548 11.985,0 0,-24.22 -11.985,0"
         style="fill:none;stroke:#000000;stroke-width:0.52399999;stroke-linecap:butt;stroke-linejoin:miter;stroke-miterlimit:4;stroke-opacity:1;stroke-dasharray:none"
         id="path3327" />
    </g>
    <g
       id="g3329"
       transform="matrix(1.2485,0,0,-1.2515,-303.39832,1667.2831)">
      <path
         inkscape:connector-curvature="0"
         d="m 341.291,573.997 -4.202,-5.191 -3.832,5.191 8.034,0 z"
         style="fill:#ffffff;fill-opacity:1;fill-rule:nonzero;stroke:#000000;stroke-width:0.74900001;stroke-linecap:butt;stroke-linejoin:miter;stroke-miterlimit:10;stroke-opacity:1;stroke-dasharray:none"
         id="path3331" />
    </g>
    <g
       id="g3333"
       transform="matrix(1.2485,0,0,-1.2515,-303.39832,1667.2831)">
      <path
         inkscape:connector-curvature="0"
         d="m 333.289,568.869 8.034,0"
         style="fill:none;stroke:#000000;stroke-width:0.74900001;stroke-linecap:butt;stroke-linejoin:miter;stroke-miterlimit:10;stroke-opacity:1;stroke-dasharray:none"
         id="path3335" />
    </g>
    <g
       id="g3337"
       transform="matrix(1.2485,0,0,-1.2515,-303.39832,1667.2831)">
      <path
         inkscape:connector-curvature="0"
         d="m 325.299,583.295 -64.365,0 m 155.561,-23.845 43.688,0"
         style="fill:none;stroke:#000000;stroke-width:0.52399999;stroke-linecap:butt;stroke-linejoin:miter;stroke-miterlimit:4;stroke-opacity:1;stroke-dasharray:none"
         id="path3339" />
    </g>
    <text
       style="font-size:14.98229599px"
       y="1004.7565"
       x="159.42012"
       transform="scale(0.9988197,1.0011817)"
       id="text3341">
      <tspan
         style="font-size:6.08618355px;font-variant:normal;font-weight:normal;writing-mode:lr-tb;fill:#000000;fill-opacity:1;fill-rule:nonzero;stroke:none;font-family:Helvetica;-inkscape-font-specification:Helvetica"
         x="159.42012 163.47957 167.87373 169.56575 173.6252 177.00911"
         y="1004.7565"
         sodipodi:role="line"
         id="tspan3343">SHIELD</tspan>
      <tspan
         style="font-size:6.08618355px;font-variant:normal;font-weight:normal;writing-mode:lr-tb;fill:#000000;fill-opacity:1;fill-rule:nonzero;stroke:none;font-family:Helvetica;-inkscape-font-specification:Helvetica"
         x="142.96785 147.36214 151.7563 155.81587 159.19978 161.22639 164.61043 167.99434 171.37825"
         y="882.40826"
         sodipodi:role="line"
         id="tspan3345">HCPL-2601</tspan>
    </text>
    <g
       id="g3347"
       transform="matrix(1.2485,0,0,-1.2515,-303.39832,1667.2831)">
      <path
         inkscape:connector-curvature="0"
         d="m 411.675,533.86 -66.19,0"
         style="fill:none;stroke:#000000;stroke-width:0.52399999;stroke-linecap:butt;stroke-linejoin:miter;stroke-miterlimit:4;stroke-opacity:1;stroke-dasharray:none"
         id="path3349" />
    </g>
    <g
       id="g3351"
       transform="matrix(1.2485,0,0,-1.2515,-303.39832,1667.2831)">
      <path
         inkscape:connector-curvature="0"
         d="m 345.501,533.844 0,85.145"
         style="fill:none;stroke:#000000;stroke-width:0.52399999;stroke-linecap:butt;stroke-linejoin:miter;stroke-miterlimit:4;stroke-opacity:1;stroke-dasharray:4.494, 2.247;stroke-dashoffset:0"
         id="path3353" />
    </g>
    <path
       inkscape:connector-curvature="0"
       d="m 202.00793,1000.3181 c 0.9437,0 1.7112,-0.76746 1.7112,-1.71366 0,-0.9475 -0.7675,-1.715 -1.7112,-1.715 -0.945,0 -1.7125,0.7675 -1.7125,1.715 0,0.9462 0.7675,1.71366 1.7125,1.71366"
       style="fill:#000000;fill-opacity:1;fill-rule:nonzero;stroke:none"
       id="path3355" />
    <path
       inkscape:connector-curvature="0"
       d="m 162.10293,1000.6306 c 0.945,0 1.7125,-0.76746 1.7125,-1.71496 0,-0.9462 -0.7675,-1.7137 -1.7125,-1.7137 -0.9438,0 -1.71,0.7675 -1.71,1.7137 0,0.9475 0.7662,1.71496 1.71,1.71496"
       style="fill:#000000;fill-opacity:1;fill-rule:nonzero;stroke:none"
       id="path3357" />
    <g
       id="g3363"
       transform="matrix(1.2485,0,0,-1.2515,-303.39832,1667.2831)">
      <path
         inkscape:connector-curvature="0"
         d="m 403.061,543.961 1.796,-4.171 -4.55,-0.775 2.754,4.946 z"
         style="fill:#000000;fill-opacity:1;fill-rule:nonzero;stroke:#000000;stroke-width:0.068;stroke-linecap:butt;stroke-linejoin:miter;stroke-miterlimit:10;stroke-opacity:1;stroke-dasharray:none"
         id="path3365" />
    </g>
    <g
       id="g3367"
       transform="matrix(1.2485,0,0,-1.2515,-303.39832,1667.2831)">
      <path
         inkscape:connector-curvature="0"
         d="m 398.173,539.41 0,14.495"
         style="fill:none;stroke:#000000;stroke-width:1.49800003;stroke-linecap:butt;stroke-linejoin:miter;stroke-miterlimit:4;stroke-opacity:1;stroke-dasharray:none"
         id="path3369" />
    </g>
    <g
       id="g3371"
       transform="matrix(1.2485,0,0,-1.2515,-303.39832,1667.2831)">
      <path
         inkscape:connector-curvature="0"
         d="m 398.342,543.287 3.202,-1.686 m -3.371,8.259 6.63,3.371 0,6.241 7.27,0 m 0.068,49.545 -39.05,0 0,-32.879 m 25.082,-29.312 -6.801,0 m 13.485,-7.036 0,-5.973"
         style="fill:none;stroke:#000000;stroke-width:0.52399999;stroke-linecap:butt;stroke-linejoin:miter;stroke-miterlimit:10;stroke-opacity:1;stroke-dasharray:none"
         id="path3373" />
    </g>
    <text
       style="font-size:14.98229599px"
       y="871.48468"
       x="74.125931"
       transform="scale(0.9988197,1.0011817)"
       id="text3375">
      <tspan
         style="font-size:6.08618355px;font-variant:normal;font-weight:normal;writing-mode:lr-tb;fill:#000000;fill-opacity:1;fill-rule:nonzero;stroke:none;font-family:Helvetica;-inkscape-font-specification:Helvetica"
         x="74.125931 78.185379 82.579666 87.314651 90.923782"
         y="871.48468"
         sodipodi:role="line"
         id="tspan3377">PHOTO</tspan>
      <tspan
         style="font-size:6.08618355px;font-variant:normal;font-weight:normal;writing-mode:lr-tb;fill:#000000;fill-opacity:1;fill-rule:nonzero;stroke:none;font-family:Helvetica;-inkscape-font-specification:Helvetica"
         x="75.255447 79.649734 81.341629 86.076736 90.470901"
         y="878.97565"
         sodipodi:role="line"
         id="tspan3379">DIODE</tspan>
      <tspan
         style="font-size:6.08618355px;font-variant:normal;font-weight:normal;writing-mode:lr-tb;fill:#000000;fill-opacity:1;fill-rule:nonzero;stroke:none;font-family:Helvetica;-inkscape-font-specification:Helvetica"
         x="77.794022 79.820755 83.880203 85.57222 89.966393"
         y="886.46649"
         sodipodi:role="line"
         id="tspan3381">(PIN)</tspan>
    </text>
    <g
       id="g3383"
       transform="matrix(1.2485,0,0,-1.2515,-303.39832,1667.2831)">
      <path
         inkscape:connector-curvature="0"
         d="m 443.703,559.469 0,63.861"
         style="fill:none;stroke:#000000;stroke-width:0.52399999;stroke-linecap:butt;stroke-linejoin:miter;stroke-miterlimit:4;stroke-opacity:1;stroke-dasharray:none"
         id="path3385" />
    </g>
    <text
       style="font-size:14.98229599px"
       y="1036.3575"
       x="225.7773"
       transform="scale(0.9988197,1.0011817)"
       id="text3387">
      <tspan
         style="font-size:6.08618355px;font-variant:normal;font-weight:normal;writing-mode:lr-tb;fill:#000000;fill-opacity:1;fill-rule:nonzero;stroke:none;font-family:Helvetica;-inkscape-font-specification:Helvetica"
         x="225.7773"
         y="1036.3575"
         id="tspan3389">2</tspan>
    </text>
    <g
       transform="matrix(1.25,0,0,-1.25,-303.39832,1667.2831)"
       id="g3391">
      <g
         id="g3393"
         clip-path="url(#clipPath3395)">
        <g
           id="g3399"
           transform="scale(0.9988,1.0012)">
          <path
             inkscape:connector-curvature="0"
             d="m 421.129,507.313 3.85,-7.392 3.542,7.392 -7.392,0 z"
             style="fill:none;stroke:#000000;stroke-width:0.74900001;stroke-linecap:butt;stroke-linejoin:miter;stroke-miterlimit:10;stroke-opacity:1;stroke-dasharray:none"
             id="path3401" />
        </g>
      </g>
    </g>
    <path
       inkscape:connector-curvature="0"
       d="m 40.944129,939.45194 13.1513,0 0,-4.4525 -13.1513,0 0,4.4525 z"
       style="fill:#ffffff;fill-opacity:1;fill-rule:nonzero;stroke:none"
       id="path3403" />
    <g
       id="g3405"
       transform="matrix(1.2485,0,0,-1.2515,-303.39832,1667.2831)">
      <path
         inkscape:connector-curvature="0"
         d="m 286.464,583.564 -1.264,-1.433 -1.601,2.444 -1.686,-2.275 -1.601,2.275 -1.853,-1.938 -1.517,2.022 -1.265,-1.348"
         style="fill:none;stroke:#000000;stroke-width:0.74900001;stroke-linecap:butt;stroke-linejoin:miter;stroke-miterlimit:10;stroke-opacity:1;stroke-dasharray:none"
         id="path3407" />
    </g>
    <text
       style="font-size:14.98229599px"
       y="930.45831"
       x="43.889484"
       transform="scale(0.9988197,1.0011817)"
       id="text3409">
      <tspan
         style="font-size:6.08618355px;font-variant:normal;font-weight:normal;writing-mode:lr-tb;fill:#000000;fill-opacity:1;fill-rule:nonzero;stroke:none;font-family:Helvetica;-inkscape-font-specification:Helvetica"
         x="43.889484"
         y="930.45831"
         id="tspan3411">R</tspan>
    </text>
    <text
       style="font-size:14.98217106px"
       y="931.38684"
       x="48.283974"
       transform="scale(0.99881141,1.00119)"
       id="text3413">
      <tspan
         style="font-size:5.14987183px;font-variant:normal;font-weight:normal;writing-mode:lr-tb;fill:#000000;fill-opacity:1;fill-rule:nonzero;stroke:none;font-family:Helvetica;-inkscape-font-specification:Helvetica"
         x="48.283974"
         y="931.38684"
         id="tspan3415">1</tspan>
    </text>
    <path
       inkscape:connector-curvature="0"
       d="m 248.08293,939.42064 4.4425,0 0,-13.1837 -4.4425,0 0,13.1837 z"
       style="fill:#ffffff;fill-opacity:1;fill-rule:nonzero;stroke:none"
       id="path3417" />
    <g
       id="g3419"
       transform="matrix(1.2485,0,0,-1.2515,-303.39832,1667.2831)">
      <path
         inkscape:connector-curvature="0"
         d="m 443.691,581.472 -1.433,1.265 2.444,1.601 -2.275,1.685 2.275,1.602 -1.939,1.853 2.023,1.517 -1.348,1.264"
         style="fill:none;stroke:#000000;stroke-width:0.74900001;stroke-linecap:butt;stroke-linejoin:miter;stroke-miterlimit:10;stroke-opacity:1;stroke-dasharray:none"
         id="path3421" />
    </g>
    <text
       style="font-size:14.98229599px"
       y="934.84332"
       x="254.11198"
       transform="scale(0.9988197,1.0011817)"
       id="text3423">
      <tspan
         style="font-size:6.08618355px;font-variant:normal;font-weight:normal;writing-mode:lr-tb;fill:#000000;fill-opacity:1;fill-rule:nonzero;stroke:none;font-family:Helvetica;-inkscape-font-specification:Helvetica"
         x="254.11198"
         y="934.84332"
         id="tspan3425">R</tspan>
    </text>
    <text
       style="font-size:14.98217106px"
       y="935.77185"
       x="258.50797"
       transform="scale(0.99881141,1.00119)"
       id="text3427">
      <tspan
         style="font-size:5.14987183px;font-variant:normal;font-weight:normal;writing-mode:lr-tb;fill:#000000;fill-opacity:1;fill-rule:nonzero;stroke:none;font-family:Helvetica;-inkscape-font-specification:Helvetica"
         x="258.50797"
         y="935.77185"
         id="tspan3429">2</tspan>
    </text>
    <text
       style="font-size:14.98229599px"
       y="968.78851"
       x="278.67828"
       transform="scale(0.9988197,1.0011817)"
       id="text3431">
      <tspan
         style="font-size:6.08618355px;font-variant:normal;font-weight:normal;writing-mode:lr-tb;fill:#000000;fill-opacity:1;fill-rule:nonzero;stroke:none;font-family:Helvetica;-inkscape-font-specification:Helvetica"
         x="278.67828"
         y="968.78851"
         id="tspan3433">V</tspan>
    </text>
    <text
       style="font-size:14.98217106px"
       y="969.7168"
       x="282.7399"
       transform="scale(0.99881141,1.00119)"
       id="text3435">
      <tspan
         style="font-size:5.14987183px;font-variant:normal;font-weight:normal;writing-mode:lr-tb;fill:#000000;fill-opacity:1;fill-rule:nonzero;stroke:none;font-family:Helvetica;-inkscape-font-specification:Helvetica"
         x="282.7399 286.74698 290.46573"
         y="969.7168"
         sodipodi:role="line"
         id="tspan3437">OUT</tspan>
    </text>
    <text
       style="font-size:14.98229599px"
       y="877.25873"
       x="244.18979"
       transform="scale(0.9988197,1.0011817)"
       id="text3439">
      <tspan
         style="font-size:6.08618355px;font-variant:normal;font-weight:normal;writing-mode:lr-tb;fill:#000000;fill-opacity:1;fill-rule:nonzero;stroke:none;font-family:Helvetica;-inkscape-font-specification:Helvetica"
         x="244.18979"
         y="877.25873"
         id="tspan3441">V</tspan>
    </text>
    <text
       style="font-size:14.98217106px"
       y="878.18774"
       x="248.25113"
       transform="scale(0.99881141,1.00119)"
       id="text3443">
      <tspan
         style="font-size:5.14987183px;font-variant:normal;font-weight:normal;writing-mode:lr-tb;fill:#000000;fill-opacity:1;fill-rule:nonzero;stroke:none;font-family:Helvetica;-inkscape-font-specification:Helvetica"
         x="248.25113 251.96927"
         y="878.18774"
         sodipodi:role="line"
         id="tspan3445">CC</tspan>
    </text>
    <path
       inkscape:connector-curvature="0"
       d="m 250.57793,906.88694 c 0.9437,0 1.71,-0.7675 1.71,-1.715 0,-0.9463 -0.7663,-1.7138 -1.71,-1.7138 -0.9463,0 -1.7113,0.7675 -1.7113,1.7138 0,0.9475 0.765,1.715 1.7113,1.715"
       style="fill:#000000;fill-opacity:1;fill-rule:nonzero;stroke:none"
       id="path3447" />
    <path
       inkscape:connector-curvature="0"
       d="m 250.42413,968.83564 c 0.945,0 1.7125,-0.7675 1.7125,-1.715 0,-0.9462 -0.7675,-1.7137 -1.7125,-1.7137 -0.9437,0 -1.71,0.7675 -1.71,1.7137 0,0.9475 0.7663,1.715 1.71,1.715"
       style="fill:#000000;fill-opacity:1;fill-rule:nonzero;stroke:none"
       id="path3449" />
    <g
       id="g3451"
       transform="matrix(1.2485,0,0,-1.2515,-303.39832,1667.2831)">
      <path
         inkscape:connector-curvature="0"
         d="m 416.74,534.378 7.99,0 0,-27.216 m -98.916,52.463 -20.06,0 0,-30.955"
         style="fill:none;stroke:#000000;stroke-width:0.52399999;stroke-linecap:butt;stroke-linejoin:miter;stroke-miterlimit:4;stroke-opacity:1;stroke-dasharray:none"
         id="path3453" />
    </g>
    <g
       id="g3455"
       transform="matrix(1.2485,0,0,-1.2515,-303.39832,1667.2831)">
      <path
         inkscape:connector-curvature="0"
         d="m 302.153,528.573 3.851,-7.393 3.541,7.393 -7.392,0 z"
         style="fill:none;stroke:#000000;stroke-width:0.74900001;stroke-linecap:butt;stroke-linejoin:miter;stroke-miterlimit:10;stroke-opacity:1;stroke-dasharray:none"
         id="path3457" />
    </g>
    <g
       id="g3459"
       transform="matrix(1.2485,0,0,-1.2515,-303.39832,1667.2831)">
      <path
         inkscape:connector-curvature="0"
         d="m 258.942,581.301 c 1.17,0 2.119,0.949 2.119,2.119 0,1.17 -0.949,2.119 -2.119,2.119 -1.171,0 -2.12,-0.949 -2.12,-2.119 0,-1.17 0.949,-2.119 2.12,-2.119 z"
         style="fill:#ffffff;fill-opacity:1;fill-rule:nonzero;stroke:#000000;stroke-width:0.52399999;stroke-linecap:butt;stroke-linejoin:miter;stroke-miterlimit:10;stroke-opacity:1;stroke-dasharray:none"
         id="path3461" />
    </g>
    <g
       id="g3467"
       transform="matrix(1.2485,0,0,-1.2515,-303.39832,1667.2831)">
      <path
         inkscape:connector-curvature="0"
         d="m 443.831,622.709 c 1.171,0 2.12,0.949 2.12,2.119 0,1.17 -0.949,2.119 -2.12,2.119 -1.17,0 -2.118,-0.949 -2.118,-2.119 0,-1.17 0.948,-2.119 2.118,-2.119 z"
         style="fill:#ffffff;fill-opacity:1;fill-rule:nonzero;stroke:#000000;stroke-width:0.52399999;stroke-linecap:butt;stroke-linejoin:miter;stroke-miterlimit:10;stroke-opacity:1;stroke-dasharray:none"
         id="path3469" />
    </g>
    <g
       id="g3475"
       transform="matrix(1.2485,0,0,-1.2515,-303.39832,1667.2831)">
      <path
         inkscape:connector-curvature="0"
         d="m 462.181,557.222 c 1.17,0 2.118,0.948 2.118,2.119 0,1.17 -0.948,2.119 -2.118,2.119 -1.171,0 -2.12,-0.949 -2.12,-2.119 0,-1.171 0.949,-2.119 2.12,-2.119 z"
         style="fill:#ffffff;fill-opacity:1;fill-rule:nonzero;stroke:#000000;stroke-width:0.52399999;stroke-linecap:butt;stroke-linejoin:miter;stroke-miterlimit:10;stroke-opacity:1;stroke-dasharray:none"
         id="path3477" />
    </g>
    <text
       style="font-size:14.98229599px"
       y="997.5777"
       x="256.8255"
       transform="scale(0.9988197,1.0011817)"
       id="text3483">
      <tspan
         style="font-size:6.08618355px;font-variant:normal;font-weight:normal;writing-mode:lr-tb;fill:#000000;fill-opacity:1;fill-rule:nonzero;stroke:none;font-family:Helvetica;-inkscape-font-specification:Helvetica"
         x="256.8255 261.21979 262.91168 267.64679 272.04095 273.73297 277.79242 281.85187 285.91132 289.97089"
         y="997.5777"
         sodipodi:role="line"
         id="tspan3485">HIGH SPEED</tspan>
      <tspan
         style="font-size:6.08618355px;font-variant:normal;font-weight:normal;writing-mode:lr-tb;fill:#000000;fill-opacity:1;fill-rule:nonzero;stroke:none;font-family:Helvetica;-inkscape-font-specification:Helvetica"
         x="259.02509 263.08453 267.4787 271.87299 276.60809 280.32672 284.04535 288.1048"
         y="1005.0686"
         sodipodi:role="line"
         id="tspan3487">SCHOTTKY</tspan>
      <tspan
         style="font-size:6.08618355px;font-variant:normal;font-weight:normal;writing-mode:lr-tb;fill:#000000;fill-opacity:1;fill-rule:nonzero;stroke:none;font-family:Helvetica;-inkscape-font-specification:Helvetica"
         x="256.03668 259.75543 264.1496 268.20905 272.60333 276.66278 278.3548 282.41425 286.02338 290.75836"
         y="1012.5595"
         sodipodi:role="line"
         id="tspan3489">TRANSISTOR</tspan>
    </text>
    <g
       id="g3491"
       transform="matrix(1.2485,0,0,-1.2515,-303.39832,1667.2831)">
      <path
         inkscape:connector-curvature="0"
         d="m 446.727,538.224 -29.712,9.488"
         style="fill:none;stroke:#000000;stroke-width:0.52399999;stroke-linecap:butt;stroke-linejoin:miter;stroke-miterlimit:4;stroke-opacity:1;stroke-dasharray:none"
         id="path3493" />
    </g>
    <path
       inkscape:connector-curvature="0"
       d="m 219.06293,980.43814 -7.3388,-0.3487 6.1825,3.98 1.1563,-3.6313"
       style="fill:#000000;fill-opacity:1;fill-rule:nonzero;stroke:none"
       id="path3495" />
    <g
       id="g3497"
       transform="matrix(1.2485,0,0,-1.2515,-303.39832,1667.2831)">
      <path
         inkscape:connector-curvature="0"
         d="m 306.923,569.771 22.353,1.278"
         style="fill:none;stroke:#000000;stroke-width:0.52399999;stroke-linecap:butt;stroke-linejoin:miter;stroke-miterlimit:4;stroke-opacity:1;stroke-dasharray:none"
         id="path3499" />
    </g>
    <path
       inkscape:connector-curvature="0"
       d="m 106.52043,954.58194 6.9775,-2.3075 -7.1925,-1.4988 0.215,3.8063"
       style="fill:#000000;fill-opacity:1;fill-rule:nonzero;stroke:none"
       id="path3501" />
    <g
       id="g3503"
       transform="matrix(1.2485,0,0,-1.2515,-303.39832,1667.2831)">
      <path
         inkscape:connector-curvature="0"
         d="m 317.66,621.832 34.207,-40.2"
         style="fill:none;stroke:#000000;stroke-width:0.52399999;stroke-linecap:butt;stroke-linejoin:miter;stroke-miterlimit:4;stroke-opacity:1;stroke-dasharray:none"
         id="path3505" />
    </g>
    <path
       inkscape:connector-curvature="0"
       d="m 133.64163,939.62194 6.0588,4.1662 -3.1688,-6.6437 -2.89,2.4775"
       style="fill:#000000;fill-opacity:1;fill-rule:nonzero;stroke:none"
       id="path3507" />
    <text
       style="font-size:14.98229599px"
       y="937.83185"
       x="6.9677429"
       transform="scale(0.9988197,1.0011817)"
       id="text3509">
      <tspan
         style="font-size:6.08618355px;font-variant:normal;font-weight:normal;writing-mode:lr-tb;fill:#000000;fill-opacity:1;fill-rule:nonzero;stroke:none;font-family:Helvetica;-inkscape-font-specification:Helvetica"
         x="6.9677429"
         y="937.83185"
         id="tspan3511">V</tspan>
    </text>
    <text
       style="font-size:14.98217106px"
       y="938.76025"
       x="11.02714"
       transform="scale(0.99881141,1.00119)"
       id="text3513">
      <tspan
         style="font-size:5.14987183px;font-variant:normal;font-weight:normal;writing-mode:lr-tb;fill:#000000;fill-opacity:1;fill-rule:nonzero;stroke:none;font-family:Helvetica;-inkscape-font-specification:Helvetica"
         x="11.02714 12.45878"
         y="938.76025"
         sodipodi:role="line"
         id="tspan3515">IN</tspan>
    </text>
    <g
       id="g3517"
       transform="matrix(1.2485,0,0,-1.2515,-303.39832,1667.2831)">
      <path
         inkscape:connector-curvature="0"
         d="m 409.92,609.017 33.783,0 m -32.285,-25.388 -13.483,0 -16.854,-12.734"
         style="fill:none;stroke:#000000;stroke-width:0.52399999;stroke-linecap:butt;stroke-linejoin:miter;stroke-miterlimit:4;stroke-opacity:1;stroke-dasharray:none"
         id="path3519" />
    </g>
    <g
       id="g3521"
       transform="matrix(1.2485,0,0,-1.2515,-303.39832,1667.2831)">
      <path
         inkscape:connector-curvature="0"
         d="m 364.601,551.045 23.436,15.113 -23.436,15.112 0,-30.225 z"
         style="fill:#ffffff;fill-opacity:1;fill-rule:nonzero;stroke:#000000;stroke-width:1.12399995;stroke-linecap:butt;stroke-linejoin:miter;stroke-miterlimit:10;stroke-opacity:1;stroke-dasharray:none"
         id="path3523" />
    </g>
    <g
       id="g3525"
       transform="matrix(1.2485,0,0,-1.2515,-303.39832,1667.2831)">
      <path
         inkscape:connector-curvature="0"
         d="m 364.227,577.262 -8.989,0 0,-23.221 9.363,0"
         style="fill:none;stroke:#000000;stroke-width:0.52399999;stroke-linecap:butt;stroke-linejoin:miter;stroke-miterlimit:4;stroke-opacity:1;stroke-dasharray:none"
         id="path3527" />
    </g>
    <g
       id="g3529"
       transform="matrix(1.2485,0,0,-1.2515,-303.39832,1667.2831)">
      <path
         inkscape:connector-curvature="0"
         d="m 373.091,556.663 0,-22.472 m 14.946,31.967 3.531,0 0,-19.233"
         style="fill:none;stroke:#000000;stroke-width:0.52399999;stroke-linecap:butt;stroke-linejoin:miter;stroke-miterlimit:10;stroke-opacity:1;stroke-dasharray:none"
         id="path3531" />
    </g>
    <g
       id="g3533"
       transform="matrix(1.2485,0,0,-1.2515,-303.39832,1667.2831)">
      <path
         inkscape:connector-curvature="0"
         d="m 339.938,563.769 9.521,7.347"
         style="fill:none;stroke:#000000;stroke-width:0.37400001;stroke-linecap:butt;stroke-linejoin:miter;stroke-miterlimit:4;stroke-opacity:1;stroke-dasharray:none"
         id="path3535" />
    </g>
    <g
       id="g3537"
       transform="matrix(1.2485,0,0,-1.2515,-303.39832,1667.2831)">
      <path
         inkscape:connector-curvature="0"
         d="m 350.838,572.014 -4.401,-1.587 1.253,-0.733 0.301,-1.431 2.847,3.751 z"
         style="fill:#000000;fill-opacity:1;fill-rule:nonzero;stroke:#000000;stroke-width:0.37400001;stroke-linecap:butt;stroke-linejoin:miter;stroke-miterlimit:10;stroke-opacity:1;stroke-dasharray:none"
         id="path3539" />
    </g>
    <g
       id="g3541"
       transform="matrix(1.2485,0,0,-1.2515,-303.39832,1667.2831)">
      <path
         inkscape:connector-curvature="0"
         d="m 339.75,557.869 9.522,7.348"
         style="fill:none;stroke:#000000;stroke-width:0.37400001;stroke-linecap:butt;stroke-linejoin:miter;stroke-miterlimit:4;stroke-opacity:1;stroke-dasharray:none"
         id="path3543" />
    </g>
    <g
       id="g3545"
       transform="matrix(1.2485,0,0,-1.2515,-303.39832,1667.2831)">
      <path
         inkscape:connector-curvature="0"
         d="m 350.652,566.115 -4.403,-1.587 1.253,-0.733 0.301,-1.431 2.849,3.751 z"
         style="fill:#000000;fill-opacity:1;fill-rule:nonzero;stroke:#000000;stroke-width:0.37400001;stroke-linecap:butt;stroke-linejoin:miter;stroke-miterlimit:10;stroke-opacity:1;stroke-dasharray:none"
         id="path3547" />
    </g>
    <g
       id="g3549"
       transform="matrix(1.2485,0,0,-1.2515,-303.39832,1667.2831)">
      <path
         inkscape:connector-curvature="0"
         d="m 414.415,606.85 c 1.17,0 2.118,0.949 2.118,2.12 0,1.17 -0.948,2.117 -2.118,2.117 -1.171,0 -2.12,-0.947 -2.12,-2.117 0,-1.171 0.949,-2.12 2.12,-2.12 z"
         style="fill:#ffffff;fill-opacity:1;fill-rule:nonzero;stroke:#000000;stroke-width:0.52399999;stroke-linecap:butt;stroke-linejoin:miter;stroke-miterlimit:10;stroke-opacity:1;stroke-dasharray:none"
         id="path3551" />
    </g>
    <g
       id="g3557"
       transform="matrix(1.2485,0,0,-1.2515,-303.39832,1667.2831)">
      <path
         inkscape:connector-curvature="0"
         d="m 414.415,581.757 c 1.17,0 2.118,0.949 2.118,2.118 0,1.17 -0.948,2.119 -2.118,2.119 -1.171,0 -2.12,-0.949 -2.12,-2.119 0,-1.169 0.949,-2.118 2.12,-2.118 z"
         style="fill:#ffffff;fill-opacity:1;fill-rule:nonzero;stroke:#000000;stroke-width:0.52399999;stroke-linecap:butt;stroke-linejoin:miter;stroke-miterlimit:10;stroke-opacity:1;stroke-dasharray:none"
         id="path3559" />
    </g>
    <g
       id="g3565"
       transform="matrix(1.2485,0,0,-1.2515,-303.39832,1667.2831)">
      <path
         inkscape:connector-curvature="0"
         d="m 414.415,557.412 c 1.17,0 2.118,0.949 2.118,2.119 0,1.169 -0.948,2.118 -2.118,2.118 -1.171,0 -2.12,-0.949 -2.12,-2.118 0,-1.17 0.949,-2.119 2.12,-2.119 z"
         style="fill:#ffffff;fill-opacity:1;fill-rule:nonzero;stroke:#000000;stroke-width:0.52399999;stroke-linecap:butt;stroke-linejoin:miter;stroke-miterlimit:10;stroke-opacity:1;stroke-dasharray:none"
         id="path3567" />
    </g>
    <g
       id="g3573"
       transform="matrix(1.2485,0,0,-1.2515,-303.39832,1667.2831)">
      <path
         inkscape:connector-curvature="0"
         d="m 414.415,532.318 c 1.17,0 2.118,0.948 2.118,2.119 0,1.17 -0.948,2.118 -2.118,2.118 -1.171,0 -2.12,-0.948 -2.12,-2.118 0,-1.171 0.949,-2.119 2.12,-2.119 z"
         style="fill:#ffffff;fill-opacity:1;fill-rule:nonzero;stroke:#000000;stroke-width:0.52399999;stroke-linecap:butt;stroke-linejoin:miter;stroke-miterlimit:10;stroke-opacity:1;stroke-dasharray:none"
         id="path3575" />
    </g>
    <g
       id="g3581"
       transform="matrix(1.2485,0,0,-1.2515,-303.39832,1667.2831)">
      <path
         inkscape:connector-curvature="0"
         d="m 322.653,581.382 c 1.171,0 2.12,0.948 2.12,2.119 0,1.17 -0.949,2.119 -2.12,2.119 -1.17,0 -2.119,-0.949 -2.119,-2.119 0,-1.171 0.949,-2.119 2.119,-2.119 z"
         style="fill:#ffffff;fill-opacity:1;fill-rule:nonzero;stroke:#000000;stroke-width:0.52399999;stroke-linecap:butt;stroke-linejoin:miter;stroke-miterlimit:10;stroke-opacity:1;stroke-dasharray:none"
         id="path3583" />
    </g>
    <g
       id="g3589"
       transform="matrix(1.2485,0,0,-1.2515,-303.39832,1667.2831)">
      <path
         inkscape:connector-curvature="0"
         d="m 322.653,557.786 c 1.171,0 2.12,0.949 2.12,2.12 0,1.169 -0.949,2.118 -2.12,2.118 -1.17,0 -2.119,-0.949 -2.119,-2.118 0,-1.171 0.949,-2.12 2.119,-2.12 z"
         style="fill:#ffffff;fill-opacity:1;fill-rule:nonzero;stroke:#000000;stroke-width:0.52399999;stroke-linecap:butt;stroke-linejoin:miter;stroke-miterlimit:10;stroke-opacity:1;stroke-dasharray:none"
         id="path3591" />
    </g>
    <text
       style="font-size:14.98229599px"
       y="933.28265"
       x="217.0804"
       transform="scale(0.9988197,1.0011817)"
       id="text3597">
      <tspan
         style="font-size:6.08618355px;font-variant:normal;font-weight:normal;writing-mode:lr-tb;fill:#000000;fill-opacity:1;fill-rule:nonzero;stroke:none;font-family:Helvetica;-inkscape-font-specification:Helvetica"
         x="217.0804 221.13985 225.53413 229.59358 233.65303 237.03694"
         y="933.28265"
         sodipodi:role="line"
         id="tspan3599">ENABLE</tspan>
    </text>
    <g
       id="g3601"
       transform="matrix(1.2485,0,0,-1.2515,-303.39832,1667.2831)">
      <path
         inkscape:connector-curvature="0"
         d="m 379.333,577.636 29.463,67.916"
         style="fill:none;stroke:#000000;stroke-width:0.52399999;stroke-linecap:butt;stroke-linejoin:miter;stroke-miterlimit:4;stroke-opacity:1;stroke-dasharray:none"
         id="path3603" />
    </g>
    <path
       inkscape:connector-curvature="0"
       d="m 169.00293,942.43944 -1.0813,7.285 4.57,-5.7675 -3.4887,-1.5175"
       style="fill:#000000;fill-opacity:1;fill-rule:nonzero;stroke:none"
       id="path3605" />
    <text
       style="font-size:14.98229599px"
       y="851.19733"
       x="207.81184"
       transform="scale(0.9988197,1.0011817)"
       id="text3607">
      <tspan
         style="font-size:6.08618355px;font-variant:normal;font-weight:normal;writing-mode:lr-tb;fill:#000000;fill-opacity:1;fill-rule:nonzero;stroke:none;font-family:Helvetica;-inkscape-font-specification:Helvetica"
         x="207.81184 212.20601 216.26546 220.32503 224.71919 228.77876 233.17293 237.23238"
         y="851.19733"
         sodipodi:role="line"
         id="tspan3609">CASCADED</tspan>
      <tspan
         style="font-size:6.08618355px;font-variant:normal;font-weight:normal;writing-mode:lr-tb;fill:#000000;fill-opacity:1;fill-rule:nonzero;stroke:none;font-family:Helvetica;-inkscape-font-specification:Helvetica"
         x="208.65657 212.71602 217.78584 221.84529 225.2292 226.92122 230.63985 232.33186 236.39131"
         y="858.68817"
         sodipodi:role="line"
         id="tspan3611">AMPLIFIER</tspan>
    </text>
    <g
       id="g3613"
       transform="matrix(1.2485,0,0,-1.2515,-303.39832,1667.2831)">
      <path
         inkscape:connector-curvature="0"
         d="m 351.699,562.281 4.202,5.191 3.832,-5.191 -8.034,0 z"
         style="fill:#ffffff;fill-opacity:1;fill-rule:nonzero;stroke:#000000;stroke-width:0.74900001;stroke-linecap:butt;stroke-linejoin:miter;stroke-miterlimit:10;stroke-opacity:1;stroke-dasharray:none"
         id="path3615" />
    </g>
    <g
       id="g3617"
       transform="matrix(1.2485,0,0,-1.2515,-303.39832,1667.2831)">
      <path
         inkscape:connector-curvature="0"
         d="m 359.701,567.41 -8.034,0"
         style="fill:none;stroke:#000000;stroke-width:0.74900001;stroke-linecap:butt;stroke-linejoin:miter;stroke-miterlimit:10;stroke-opacity:1;stroke-dasharray:none"
         id="path3619" />
    </g>
    <g
       id="g3621"
       transform="matrix(1.2485,0,0,-1.2515,-303.39832,1667.2831)">
      <path
         inkscape:connector-curvature="0"
         d="m 400.286,556.017 c -1.097,0 -1.987,-0.889 -1.987,-1.986 m -2.06,-16.714 c 1.097,0 1.986,0.889 1.986,1.987"
         style="fill:none;stroke:#000000;stroke-width:1.49800003;stroke-linecap:butt;stroke-linejoin:miter;stroke-miterlimit:4;stroke-opacity:1;stroke-dasharray:none"
         id="path3623" />
    </g>
  </g>
</svg>
