<?xml version="1.0" encoding="UTF-8" standalone="no"?>
<!-- Created with Inkscape (http://www.inkscape.org/) -->

<svg
   xmlns:dc="http://purl.org/dc/elements/1.1/"
   xmlns:cc="http://creativecommons.org/ns#"
   xmlns:rdf="http://www.w3.org/1999/02/22-rdf-syntax-ns#"
   xmlns:svg="http://www.w3.org/2000/svg"
   xmlns="http://www.w3.org/2000/svg"
   xmlns:sodipodi="http://sodipodi.sourceforge.net/DTD/sodipodi-0.dtd"
   xmlns:inkscape="http://www.inkscape.org/namespaces/inkscape"
   width="354.33069"
   height="194.88188"
   id="svg3871"
   version="1.1"
   inkscape:version="0.48.4 r9939"
   sodipodi:docname="Nový dokument 4">
  <defs
     id="defs3">
    <clipPath
       clipPathUnits="userSpaceOnUse"
       id="clipPath3230">
      <path
         inkscape:connector-curvature="0"
         d="m 478.56,248.648 11.433,0 0,5.158 -11.433,0 0,-5.158 z"
         id="path3232" />
    </clipPath>
    <clipPath
       clipPathUnits="userSpaceOnUse"
       id="clipPath3208">
      <path
         inkscape:connector-curvature="0"
         d="m 438.906,231.868 0,-60.281 3.562,0 0,65.847 1.569,0 -1.345,6.056 -0.993,0 c -2.491,0 -2.98,-1.654 -2.793,-11.622"
         id="path3210" />
    </clipPath>
  </defs>
  <sodipodi:namedview
     inkscape:document-units="mm"
     id="base"
     pagecolor="#ffffff"
     bordercolor="#666666"
     borderopacity="1.0"
     inkscape:pageopacity="0.0"
     inkscape:pageshadow="2"
     inkscape:zoom="1.979899"
     inkscape:cx="336.91001"
     inkscape:cy="109.70661"
     inkscape:current-layer="layer1"
     showgrid="false"
     units="mm"
     inkscape:window-width="1846"
     inkscape:window-height="1058"
     inkscape:window-x="66"
     inkscape:window-y="-8"
     inkscape:window-maximized="1" />
  <metadata
     id="metadata4">
    <rdf:RDF>
      <cc:Work
         rdf:about="">
        <dc:format>image/svg+xml</dc:format>
        <dc:type
           rdf:resource="http://purl.org/dc/dcmitype/StillImage" />
        <dc:title></dc:title>
      </cc:Work>
    </rdf:RDF>
  </metadata>
  <g
     inkscape:label="Layer 1"
     inkscape:groupmode="layer"
     id="layer1"
     transform="translate(0,-857.48043)">
    <path
       inkscape:connector-curvature="0"
       d="m 103.55859,972.87084 -0.0588,-6.44125"
       style="fill:#ffffff;fill-opacity:1;fill-rule:nonzero;stroke:#000000;stroke-width:0.6925;stroke-linecap:butt;stroke-linejoin:miter;stroke-miterlimit:4;stroke-opacity:1;stroke-dasharray:none"
       id="path3194" />
    <path
       inkscape:connector-curvature="0"
       d="m 81.244835,985.67709 -0.0587,-6.44125 m -3.50625,2.165 -0.0675,3.065 3.71125,1.6325 5.87375,-4.005 0,-6.35875 m 12.79625,-7.14 -0.0675,3.065 3.711255,1.6325 5.87375,-4.005 0,-6.35875"
       style="fill:none;stroke:#000000;stroke-width:0.6925;stroke-linecap:butt;stroke-linejoin:miter;stroke-miterlimit:4;stroke-opacity:1;stroke-dasharray:none"
       id="path3196" />
    <path
       inkscape:connector-curvature="0"
       d="m 107.30984,880.77084 -93.592505,38.6875 -3.9224997,19.06375 2.2412497,18.50375 58.845,28.035 91.210005,-52.84625 1.26125,-16.12 -1.68125,-17.9425 -54.36125,-17.38125 z"
       style="fill:none;stroke:#000000;stroke-width:1.7299999;stroke-linecap:butt;stroke-linejoin:miter;stroke-miterlimit:4;stroke-opacity:1;stroke-dasharray:none"
       id="path3198" />
    <path
       inkscape:connector-curvature="0"
       d="m 10.354835,939.36334 62.1375,26.56375 90.860005,-49.8325 m -149.073755,4.205 56.8825,21.8675 90.510005,-44.015 m -90.510005,44.015 1.40125,23.55 -1.68125,19.34375"
       style="fill:none;stroke:#000000;stroke-width:0.6925;stroke-linecap:butt;stroke-linejoin:miter;stroke-miterlimit:4;stroke-opacity:1;stroke-dasharray:none"
       id="path3200" />
    <path
       inkscape:connector-curvature="0"
       d="m 201.96984,974.47959 0,75.35121 4.4525,0 0,-82.30871 1.96125,0 -1.68125,-7.57 -1.24125,0 c -3.11375,0 -3.725,2.0675 -3.49125,14.5275"
       style="fill:#ffffff;fill-opacity:1;fill-rule:nonzero;stroke:none"
       id="path3202" />
    <g
       transform="matrix(1.25,0,0,-1.25,-346.66266,1264.3146)"
       id="g3204">
      <g
         id="g3206"
         clip-path="url(#clipPath3208)">
        <text
           transform="matrix(0.70710678,0,-0.70710678,-0.70749004,362.1303,169.5666)"
           id="text3212">
          <tspan
             style="font-size:0.78276724px;font-variant:normal;font-weight:normal;writing-mode:lr-tb;fill:#000000;fill-opacity:1;fill-rule:nonzero;stroke:none;font-family:Arial;-inkscape-font-specification:Arial"
             x="0 59.881691"
             y="0"
             sodipodi:role="line"
             id="tspan3214">;;</tspan>
          <tspan
             style="font-size:0.78276724px;font-variant:normal;font-weight:normal;writing-mode:lr-tb;fill:#000000;fill-opacity:1;fill-rule:nonzero;stroke:none;font-family:Arial;-inkscape-font-specification:Arial"
             x="0 59.881691"
             y="-55.772163"
             sodipodi:role="line"
             id="tspan3216">;;</tspan>
        </text>
      </g>
    </g>
    <path
       inkscape:connector-curvature="0"
       d="m 201.96984,974.47959 0,75.35121 4.4525,0 0,-82.30871 1.96125,0 -1.68125,-7.57 -1.24125,0 c -3.11375,0 -3.725,2.0675 -3.49125,14.5275 z"
       style="fill:none;stroke:#000000;stroke-width:0.6925;stroke-linecap:butt;stroke-linejoin:miter;stroke-miterlimit:4;stroke-opacity:1;stroke-dasharray:none"
       id="path3218" />
    <path
       inkscape:connector-curvature="0"
       d="m 301.81109,985.20709 6.105,-24.55 -6.905,-23.58625 -87.17875,0 -6.905,23.58625 6.105,24.55 88.77875,0 z"
       style="fill:none;stroke:#000000;stroke-width:1.7299999;stroke-linecap:square;stroke-linejoin:bevel;stroke-miterlimit:4;stroke-opacity:1;stroke-dasharray:none"
       id="path3220" />
    <path
       inkscape:connector-curvature="0"
       d="m 208.38359,959.95209 14.57125,0 7.28625,-12.89625 43.4325,0 m 32.365,12.75625 -14.57125,0 -9.24625,15.42 -43.43375,0"
       style="fill:none;stroke:#000000;stroke-width:0.6925;stroke-linecap:butt;stroke-linejoin:miter;stroke-miterlimit:4;stroke-opacity:1;stroke-dasharray:none"
       id="path3222" />
    <path
       inkscape:connector-curvature="0"
       d="m 251.53734,953.50459 14.29125,0 0,-6.4475 -14.29125,0 0,6.4475 z"
       style="fill:#ffffff;fill-opacity:1;fill-rule:nonzero;stroke:none"
       id="path3224" />
    <g
       transform="matrix(1.25,0,0,-1.25,-346.66266,1264.3146)"
       id="g3226">
      <g
         id="g3228"
         clip-path="url(#clipPath3230)">
        <text
           transform="matrix(0.70710678,0,-0.70710678,-0.70749004,441.0066,248.4812)"
           id="text3234">
          <tspan
             style="font-size:0.78276724px;font-variant:normal;font-weight:normal;writing-mode:lr-tb;fill:#000000;fill-opacity:1;fill-rule:nonzero;stroke:none;font-family:Arial;-inkscape-font-specification:Arial"
             x="0 59.881691"
             y="0"
             sodipodi:role="line"
             id="tspan3236">;;</tspan>
        </text>
      </g>
    </g>
    <path
       inkscape:connector-curvature="0"
       d="m 251.53734,953.50459 14.29125,0 0,-6.4475 -14.29125,0 0,6.4475 z"
       style="fill:none;stroke:#000000;stroke-width:0.6925;stroke-linecap:butt;stroke-linejoin:miter;stroke-miterlimit:4;stroke-opacity:1;stroke-dasharray:none"
       id="path3238" />
    <path
       inkscape:connector-curvature="0"
       d="m 251.25734,975.28584 30.96375,0 0,-6.4475 -30.96375,0 0,6.4475 z"
       style="fill:#ffffff;fill-opacity:1;fill-rule:nonzero;stroke:none"
       id="path3242" />
    <path
       inkscape:connector-curvature="0"
       d="m 251.25734,975.28584 30.96375,0 0,-6.4475 -30.96375,0 0,6.4475 z"
       style="fill:none;stroke:#000000;stroke-width:0.6925;stroke-linecap:butt;stroke-linejoin:miter;stroke-miterlimit:4;stroke-opacity:1;stroke-dasharray:none"
       id="path3256" />
    <path
       inkscape:connector-curvature="0"
       d="m 35.198585,1012.4846 45.73875,20.0362"
       style="fill:none;stroke:#000000;stroke-width:0.2075;stroke-linecap:butt;stroke-linejoin:miter;stroke-miterlimit:4;stroke-opacity:1;stroke-dasharray:2.07625, 2.07625;stroke-dashoffset:0"
       id="path3258" />
    <path
       inkscape:connector-curvature="0"
       d="m 79.088585,1033.3821 5.405,0.7925 -4.285,-3.39 -1.12,2.5975 z"
       style="fill:#000000;fill-opacity:1;fill-rule:nonzero;stroke:#000000;stroke-width:0.2075;stroke-linecap:butt;stroke-linejoin:miter;stroke-miterlimit:1;stroke-opacity:1;stroke-dasharray:none"
       id="path3260" />
    <path
       inkscape:connector-curvature="0"
       d="m 35.424835,1014.2546 -4.25125,-3.4325 5.3975,0.8462 -1.14625,2.5863 z"
       style="fill:#000000;fill-opacity:1;fill-rule:nonzero;stroke:#000000;stroke-width:0.2075;stroke-linecap:butt;stroke-linejoin:miter;stroke-miterlimit:1;stroke-opacity:1;stroke-dasharray:none"
       id="path3262" />
    <path
       inkscape:connector-curvature="0"
       d="m 24.502335,930.45709 -1.44,5.2725 -1.3875,-5.28625 2.8275,0.0138 z"
       style="fill:#000000;fill-opacity:1;fill-rule:nonzero;stroke:#000000;stroke-width:0.2075;stroke-linecap:butt;stroke-linejoin:miter;stroke-miterlimit:1;stroke-opacity:1;stroke-dasharray:none"
       id="path3264" />
    <path
       inkscape:connector-curvature="0"
       d="m 261.33109,961.14084 0,-4.75875"
       style="fill:none;stroke:#000000;stroke-width:0.2075;stroke-linecap:butt;stroke-linejoin:miter;stroke-miterlimit:4;stroke-opacity:1;stroke-dasharray:none"
       id="path3266" />
    <path
       inkscape:connector-curvature="0"
       d="m 262.86109,958.94334 -1.44,-5.2725 -1.3875,5.28625 2.8275,-0.0138 z"
       style="fill:#000000;fill-opacity:1;fill-rule:nonzero;stroke:#000000;stroke-width:0.2075;stroke-linecap:butt;stroke-linejoin:miter;stroke-miterlimit:1;stroke-opacity:1;stroke-dasharray:none"
       id="path3268" />
    <path
       inkscape:connector-curvature="0"
       d="m 261.33109,966.07334 0,-6.49"
       style="fill:none;stroke:#000000;stroke-width:0.2075;stroke-linecap:butt;stroke-linejoin:miter;stroke-miterlimit:4;stroke-opacity:1;stroke-dasharray:none"
       id="path3270" />
    <path
       inkscape:connector-curvature="0"
       d="m 262.86109,963.51084 -1.44,5.2725 -1.3875,-5.28625 2.8275,0.0138 z"
       style="fill:#000000;fill-opacity:1;fill-rule:nonzero;stroke:#000000;stroke-width:0.2075;stroke-linecap:butt;stroke-linejoin:miter;stroke-miterlimit:1;stroke-opacity:1;stroke-dasharray:none"
       id="path3272" />
    <text
       style="font-size:14.99638844px"
       y="924.58972"
       x="233.88565"
       transform="scale(0.99975925,1.0002408)"
       id="text3274">
      <tspan
         style="font-size:8.30474949px;font-variant:normal;font-weight:bold;writing-mode:lr-tb;fill:#000000;fill-opacity:1;fill-rule:nonzero;stroke:none;font-family:Helvetica;-inkscape-font-specification:Helvetica-Bold"
         x="233.88565 238.95987 244.49911"
         y="924.58972"
         sodipodi:role="line"
         id="tspan3276">LED</tspan>
      <tspan
         style="font-size:8.30474949px;font-variant:normal;font-weight:bold;writing-mode:lr-tb;fill:#000000;fill-opacity:1;fill-rule:nonzero;stroke:none;font-family:Helvetica;-inkscape-font-specification:Helvetica-Bold"
         x="219.70029 225.69632 231.23563 236.30978 241.84909 247.84512 252.91928 259.3804"
         y="1003.3121"
         sodipodi:role="line"
         id="tspan3278">DETECTOR</tspan>
    </text>
    <path
       inkscape:connector-curvature="0"
       d="m 243.38734,927.32834 14.0275,19.3825 m -14.0275,48.61625 14.0275,-19.3825"
       style="fill:none;stroke:#000000;stroke-width:0.2075;stroke-linecap:butt;stroke-linejoin:miter;stroke-miterlimit:4;stroke-opacity:1;stroke-dasharray:none"
       id="path3280" />
    <text
       style="font-size:14.99638844px"
       y="915.76581"
       x="299.51846"
       transform="scale(0.99975925,1.0002408)"
       id="text3282">
      <tspan
         style="font-size:8.30474949px;font-variant:normal;font-weight:bold;writing-mode:lr-tb;fill:#000000;fill-opacity:1;fill-rule:nonzero;stroke:none;font-family:Helvetica;-inkscape-font-specification:Helvetica-Bold"
         x="299.51846 305.5145 307.82321 313.36252 318.43668 324.43271 330.42868 336.42477"
         y="915.76581"
         sodipodi:role="line"
         id="tspan3284">DISTANCE</tspan>
      <tspan
         style="font-size:8.30474949px;font-variant:normal;font-weight:bold;writing-mode:lr-tb;fill:#000000;fill-opacity:1;fill-rule:nonzero;stroke:none;font-family:Helvetica;-inkscape-font-specification:Helvetica-Bold"
         x="299.7518 304.82602 310.82211 316.81808 323.27921 329.27518 335.7363"
         y="924.07056"
         sodipodi:role="line"
         id="tspan3286">THROUGH</tspan>
      <tspan
         style="font-size:8.30474949px;font-variant:normal;font-weight:bold;writing-mode:lr-tb;fill:#000000;fill-opacity:1;fill-rule:nonzero;stroke:none;font-family:Helvetica;-inkscape-font-specification:Helvetica-Bold"
         x="295.36856 297.67728 303.67331 309.21262 315.20871 320.28281 326.2789 331.35312 333.66183 340.12289"
         y="932.37531"
         sodipodi:role="line"
         id="tspan3288">INSULATION</tspan>
    </text>
    <path
       inkscape:connector-curvature="0"
       d="m 263.45234,961.40834 56.57875,-26.305"
       style="fill:none;stroke:#000000;stroke-width:0.2075;stroke-linecap:butt;stroke-linejoin:miter;stroke-miterlimit:4;stroke-opacity:1;stroke-dasharray:none"
       id="path3290" />
    <path
       inkscape:connector-curvature="0"
       d="m 82.994835,949.63209 0,-13.4125 -59.84875,-22.65625 0,17.99875"
       style="fill:none;stroke:#000000;stroke-width:0.34625;stroke-linecap:butt;stroke-linejoin:miter;stroke-miterlimit:4;stroke-opacity:1;stroke-dasharray:2.07625, 2.07625;stroke-dashoffset:0"
       id="path3292" />
    <path
       inkscape:connector-curvature="0"
       d="m 84.524835,947.07084 -1.44,5.2725 -1.3875,-5.28625 2.8275,0.0138 z"
       style="fill:#000000;fill-opacity:1;fill-rule:nonzero;stroke:#000000;stroke-width:0.2075;stroke-linecap:butt;stroke-linejoin:miter;stroke-miterlimit:1;stroke-opacity:1;stroke-dasharray:none"
       id="path3294" />
    <text
       style="font-size:14.99638844px"
       y="877.01007"
       x="29.15097"
       transform="scale(0.99975925,1.0002408)"
       id="text3296">
      <tspan
         style="font-size:8.30474949px;font-variant:normal;font-weight:bold;writing-mode:lr-tb;fill:#000000;fill-opacity:1;fill-rule:nonzero;stroke:none;font-family:Helvetica;-inkscape-font-specification:Helvetica-Bold"
         x="29.15097 34.690277 40.229523 45.303741 50.842987 56.83902 62.835052 68.831085"
         y="877.01007"
         sodipodi:role="line"
         id="tspan3298">EXTERNAL</tspan>
      <tspan
         style="font-size:8.30474949px;font-variant:normal;font-weight:bold;writing-mode:lr-tb;fill:#000000;fill-opacity:1;fill-rule:nonzero;stroke:none;font-family:Helvetica;-inkscape-font-specification:Helvetica-Bold"
         x="28.224152 34.220184 40.216217 45.755524 51.294769 56.834015 62.830048 69.291168"
         y="885.31482"
         sodipodi:role="line"
         id="tspan3300">CREEPAGE</tspan>
      <tspan
         style="font-size:8.30474949px;font-variant:normal;font-weight:bold;writing-mode:lr-tb;fill:#000000;fill-opacity:1;fill-rule:nonzero;stroke:none;font-family:Helvetica;-inkscape-font-specification:Helvetica-Bold"
         x="24.306 29.845245 35.384552 40.45871 45.998016 51.994049 57.990082 63.986053"
         y="1033.7622"
         sodipodi:role="line"
         id="tspan3302">EXTERNAL</tspan>
      <tspan
         style="font-size:8.30474949px;font-variant:normal;font-weight:bold;writing-mode:lr-tb;fill:#000000;fill-opacity:1;fill-rule:nonzero;stroke:none;font-family:Helvetica;-inkscape-font-specification:Helvetica-Bold"
         x="20.618683 26.614716 31.688934 37.22818 43.224213 49.220245 55.216278 61.212311 67.208344"
         y="1042.0669"
         sodipodi:role="line"
         id="tspan3304">CLEARANCE</tspan>
      <tspan
         style="font-size:8.30474949px;font-variant:normal;font-weight:bold;writing-mode:lr-tb;fill:#000000;fill-opacity:1;fill-rule:nonzero;stroke:none;font-family:Helvetica;-inkscape-font-specification:Helvetica-Bold"
         sodipodi:role="line"
         id="tspan3306"
         x="29.15097"
         y="1.#INF" />
    </text>
    <path
       inkscape:connector-curvature="0"
       d="m 50.001085,888.21709 3.30375,36.6875"
       style="fill:none;stroke:#000000;stroke-width:0.2075;stroke-linecap:butt;stroke-linejoin:miter;stroke-miterlimit:4;stroke-opacity:1;stroke-dasharray:none"
       id="path3308" />
    <path
       inkscape:connector-curvature="0"
       d="m 84.473585,974.47584 0.0575,70.56126 4.0575,1.6312 5.87375,-4.0037 0,-54.98876 1.8075,-6.93125 0,-12.495 c -0.1725,-9.5175 -3.25125,-13.31125 -8.61375,-14.69625 l -8.49375,4.78375 0.0275,4.2025 c 2.94,1.38375 5.28375,7.09125 5.28375,11.93625 z"
       style="fill:#ffffff;fill-opacity:1;fill-rule:nonzero;stroke:#000000;stroke-width:0.6925;stroke-linecap:butt;stroke-linejoin:miter;stroke-miterlimit:4;stroke-opacity:1;stroke-dasharray:none"
       id="path3310" />
    <path
       inkscape:connector-curvature="0"
       d="m 88.509835,1046.5946 -0.0588,-70.64751 c 0,-4.845 0.0788,-16.1775 -8.91625,-17.56125"
       style="fill:none;stroke:#000000;stroke-width:0.6925;stroke-linecap:butt;stroke-linejoin:miter;stroke-miterlimit:4;stroke-opacity:1;stroke-dasharray:none"
       id="path3312" />
    <path
       inkscape:connector-curvature="0"
       d="m 21.982335,954.05709 -0.0675,62.59751 3.71125,1.6325 5.87375,-4.005 0,-47.02751 1.8075,-6.93125 0,-12.49375 c 0.6925,-2.59625 2.465,-6.75 4.54125,-7.26875 l 0,-5.71125 c -8.64875,-1.73 -15.86625,-0.175 -15.86625,19.2075 z m 3.565,63.80871 -0.0587,-64.24246 c 0,-4.84625 1.29,-13.40875 5.78625,-15.485 l 6.2275,-2.9425 m -12.01375,18.25375 c 0,-4.845 0.25125,-7.1775 2.5,-8.38875 l 9.51375,-4.3275"
       style="fill:none;stroke:#000000;stroke-width:0.6925;stroke-linecap:butt;stroke-linejoin:miter;stroke-miterlimit:4;stroke-opacity:1;stroke-dasharray:4.1525, 2.07625;stroke-dashoffset:0"
       id="path3314" />
    <path
       inkscape:connector-curvature="0"
       d="m 136.95359,926.21084 -11.26125,6.34 0.0275,4.54875 c 2.94,1.385 5.0525,6.4025 5.0525,11.24875 l 0,10.05 2.88375,4.13375 0,46.50871 4.23,1.8038 5.87375,-4.0038 0,-46.50871 1.8075,-6.93125 0,-12.49375 c -0.1725,-9.51875 -3.25125,-13.3125 -8.61375,-14.69625 z"
       style="fill:#ffffff;fill-opacity:1;fill-rule:nonzero;stroke:#000000;stroke-width:0.6925;stroke-linecap:butt;stroke-linejoin:miter;stroke-miterlimit:4;stroke-opacity:1;stroke-dasharray:none"
       id="path3316" />
    <path
       inkscape:connector-curvature="0"
       d="m 126.06484,932.59959 c 8.995,1.385 8.85875,12.63375 8.85875,17.47875 l 0,10.05125 2.88375,4.1325 0,46.50871 m -112.260005,7.095 -0.0587,-54.03246 m -3.50625,-1.98875 -0.0675,54.81001 3.71125,1.6325 5.87375,-4.005 0,-47.89251"
       style="fill:none;stroke:#000000;stroke-width:0.6925;stroke-linecap:butt;stroke-linejoin:miter;stroke-miterlimit:4;stroke-opacity:1;stroke-dasharray:none"
       id="path3318" />
    <path
       inkscape:connector-curvature="0"
       d="m 162.39359,932.44834 c -0.1725,-9.5175 -3.29875,-13.33375 -8.66125,-14.7175 l -8.32125,4.26375 0.0275,4.375 c 3.97875,0.86625 5.22625,6.57625 5.22625,11.4225 l 0,10.05 2.8825,4.1325 0,43.0475 4.05875,1.805 4.835,-3.31125 -0.0475,-61.0675 z"
       style="fill:#ffffff;fill-opacity:1;fill-rule:nonzero;stroke:#000000;stroke-width:0.6925;stroke-linecap:butt;stroke-linejoin:miter;stroke-miterlimit:4;stroke-opacity:1;stroke-dasharray:none"
       id="path3320" />
    <path
       inkscape:connector-curvature="0"
       d="m 145.78484,922.04334 c 8.99375,1.385 8.8575,12.63375 8.8575,17.47875 l 0,10.05 2.88375,4.13375 0,43.0475"
       style="fill:none;stroke:#000000;stroke-width:0.6925;stroke-linecap:butt;stroke-linejoin:miter;stroke-miterlimit:4;stroke-opacity:1;stroke-dasharray:none"
       id="path3322" />
    <path
       inkscape:connector-curvature="0"
       d="m 130.92234,958.37584 3.7575,1.7625 m -0.895,2.34875 3.9725,1.9675 m 13.0575,-16.635 3.58375,1.76125 m -0.72125,2.35 3.79875,1.96625"
       style="fill:none;stroke:#000000;stroke-width:0.48500001;stroke-linecap:butt;stroke-linejoin:miter;stroke-miterlimit:4;stroke-opacity:1;stroke-dasharray:none"
       id="path3324" />
    <path
       inkscape:connector-curvature="0"
       d="m 312.73489,974.47959 0,75.35121 -4.4513,0 0,-82.30871 -1.9625,0 1.6813,-7.57 1.2425,0 c 3.1137,0 3.725,2.0675 3.49,14.5275"
       style="fill:#ffffff;fill-opacity:1;fill-rule:nonzero;stroke:none"
       id="path3326" />
    <path
       inkscape:connector-curvature="0"
       d="m 312.73489,974.47959 0,75.35121 -4.4513,0 0,-82.30871 -1.9625,0 1.6813,-7.57 1.2425,0 c 3.1137,0 3.725,2.0675 3.49,14.5275 z"
       style="fill:none;stroke:#000000;stroke-width:0.6925;stroke-linecap:butt;stroke-linejoin:miter;stroke-miterlimit:4;stroke-opacity:1;stroke-dasharray:none"
       id="path3342" />
    <path
       inkscape:connector-curvature="0"
       d="m 113.94859,939.01709 -11.26125,6.34 0.0263,4.54875 c 2.94125,1.385 5.0525,6.40375 5.0525,11.24875 l 0,10.05 2.88375,4.13375 0,50.31626 4.23125,1.8037 5.87375,-4.0037 0,-50.31626 1.8075,-6.93125 0,-12.49375 c -0.17375,-9.51875 -3.25125,-13.3125 -8.61375,-14.69625 z"
       style="fill:#ffffff;fill-opacity:1;fill-rule:nonzero;stroke:#000000;stroke-width:0.6925;stroke-linecap:butt;stroke-linejoin:miter;stroke-miterlimit:4;stroke-opacity:1;stroke-dasharray:none"
       id="path3344" />
    <path
       inkscape:connector-curvature="0"
       d="m 103.05984,945.40584 c 8.995,1.385 8.85875,12.63375 8.85875,17.48 l 0,10.05 2.8825,4.1325 0,50.31626"
       style="fill:none;stroke:#000000;stroke-width:0.6925;stroke-linecap:butt;stroke-linejoin:miter;stroke-miterlimit:4;stroke-opacity:1;stroke-dasharray:none"
       id="path3346" />
    <path
       inkscape:connector-curvature="0"
       d="m 107.91734,971.18209 3.7575,1.7625 m -0.89625,2.35 3.97375,1.96625"
       style="fill:none;stroke:#000000;stroke-width:0.48500001;stroke-linecap:butt;stroke-linejoin:miter;stroke-miterlimit:4;stroke-opacity:1;stroke-dasharray:none"
       id="path3348" />
    <path
       inkscape:connector-curvature="0"
       d="m 54.952335,1000.7333 -0.0575,-23.22871 m -3.5075,-1.64125 -0.0675,23.65875 3.7125,1.63121 5.87375,-4.00371 0,-16.7425"
       style="fill:none;stroke:#000000;stroke-width:0.6925;stroke-linecap:butt;stroke-linejoin:miter;stroke-miterlimit:4;stroke-opacity:1;stroke-dasharray:none"
       id="path3350" />
    <flowRoot
       xml:space="preserve"
       id="flowRoot4012"
       style="font-size:40px;font-style:normal;font-weight:normal;line-height:125%;letter-spacing:0px;word-spacing:0px;fill:#000000;fill-opacity:1;stroke:none;font-family:Sans"
       transform="translate(0,839.76388)"><flowRegion
         id="flowRegion4014"><rect
           id="rect4016"
           width="468.71078"
           height="311.12698"
           x="-59.598999"
           y="-59.132614" /></flowRegion><flowPara
         id="flowPara4018"></flowPara></flowRoot>  </g>
</svg>
