<?xml version="1.0" encoding="UTF-8" standalone="no"?>
<!-- Created with Inkscape (http://www.inkscape.org/) -->

<svg
   xmlns:dc="http://purl.org/dc/elements/1.1/"
   xmlns:cc="http://creativecommons.org/ns#"
   xmlns:rdf="http://www.w3.org/1999/02/22-rdf-syntax-ns#"
   xmlns:svg="http://www.w3.org/2000/svg"
   xmlns="http://www.w3.org/2000/svg"
   xmlns:sodipodi="http://sodipodi.sourceforge.net/DTD/sodipodi-0.dtd"
   xmlns:inkscape="http://www.inkscape.org/namespaces/inkscape"
   width="324"
   height="210"
   id="svg3782"
   version="1.1"
   inkscape:version="0.48.4 r9939"
   sodipodi:docname="Optoisolator_01.svg">
  <defs
     id="defs3784" />
  <sodipodi:namedview
     id="base"
     pagecolor="#ffffff"
     bordercolor="#666666"
     borderopacity="1.0"
     inkscape:pageopacity="0.0"
     inkscape:pageshadow="2"
     inkscape:zoom="1.4"
     inkscape:cx="198.14365"
     inkscape:cy="240.88188"
     inkscape:document-units="px"
     inkscape:current-layer="layer1"
     showgrid="false"
     inkscape:window-width="1846"
     inkscape:window-height="1178"
     inkscape:window-x="1912"
     inkscape:window-y="-8"
     inkscape:window-maximized="1" />
  <metadata
     id="metadata3787">
    <rdf:RDF>
      <cc:Work
         rdf:about="">
        <dc:format>image/svg+xml</dc:format>
        <dc:type
           rdf:resource="http://purl.org/dc/dcmitype/StillImage" />
        <dc:title></dc:title>
      </cc:Work>
    </rdf:RDF>
  </metadata>
  <g
     inkscape:label="Layer 1"
     inkscape:groupmode="layer"
     id="layer1"
     transform="translate(0,-842.36218)">
    <path
       inkscape:connector-curvature="0"
       d="m 197.41292,973.01723 2.43125,5.65 -6.16125,1.05 3.73,-6.7 z"
       style="fill:#000000;fill-opacity:1;fill-rule:nonzero;stroke:#000000;stroke-width:0.09125;stroke-linecap:butt;stroke-linejoin:miter;stroke-miterlimit:10;stroke-opacity:1;stroke-dasharray:none"
       id="path3301" />
    <path
       inkscape:connector-curvature="0"
       d="m 190.79542,979.18223 0,-19.635"
       style="fill:none;stroke:#000000;stroke-width:2.02999997;stroke-linecap:butt;stroke-linejoin:miter;stroke-miterlimit:4;stroke-opacity:1;stroke-dasharray:none"
       id="path3303" />
    <path
       inkscape:connector-curvature="0"
       d="m 191.02292,973.92973 4.33625,2.2837 m -4.56375,-11.1862 8.975,-4.5663 0,-60.705 m -8.975,69.38 -7.675,0 m 16.72375,9.5313 0,5.3087"
       style="fill:none;stroke:#000000;stroke-width:0.71000004;stroke-linecap:butt;stroke-linejoin:miter;stroke-miterlimit:10;stroke-opacity:1;stroke-dasharray:none"
       id="path3305" />
    <path
       inkscape:connector-curvature="0"
       d="m 118.22417,1026.9321 117.655,0 0,-147.13237 -117.655,0 0,147.13237 z"
       style="fill:none;stroke:#000000;stroke-width:1.52250004;stroke-linecap:butt;stroke-linejoin:miter;stroke-miterlimit:4;stroke-opacity:1;stroke-dasharray:none"
       id="path3307" />
    <path
       inkscape:connector-curvature="0"
       d="m 117.88667,892.65343 -14.2,0 0,15.5588 14.2,0"
       style="fill:none;stroke:#000000;stroke-width:0.71000004;stroke-linecap:butt;stroke-linejoin:miter;stroke-miterlimit:4;stroke-opacity:1;stroke-dasharray:none"
       id="path3309" />
    <text
       style="font-size:14.99672985px"
       y="902.2652"
       x="108.97819"
       transform="scale(0.99978204,1.000218)"
       id="text3311">
      <tspan
         style="font-size:6.59418774px;font-variant:normal;font-weight:normal;writing-mode:lr-tb;fill:#000000;fill-opacity:1;fill-rule:nonzero;stroke:none;font-family:Helvetica;-inkscape-font-specification:Helvetica"
         x="108.97819"
         y="902.2652"
         id="tspan3313">1</tspan>
      <tspan
         style="font-size:6.59418774px;font-variant:normal;font-weight:normal;writing-mode:lr-tb;fill:#000000;fill-opacity:1;fill-rule:nonzero;stroke:none;font-family:Helvetica;-inkscape-font-specification:Helvetica"
         x="86.187996"
         y="1016.1074"
         id="tspan3315">1</tspan>
    </text>
    <path
       inkscape:connector-curvature="0"
       d="m 117.88667,926.18723 -14.2,0 0,15.5587 14.2,0"
       style="fill:none;stroke:#000000;stroke-width:0.71000004;stroke-linecap:butt;stroke-linejoin:miter;stroke-miterlimit:4;stroke-opacity:1;stroke-dasharray:none"
       id="path3317" />
    <text
       style="font-size:14.99672985px"
       y="935.79193"
       x="108.97819"
       transform="scale(0.99978204,1.000218)"
       id="text3319">
      <tspan
         style="font-size:6.59418774px;font-variant:normal;font-weight:normal;writing-mode:lr-tb;fill:#000000;fill-opacity:1;fill-rule:nonzero;stroke:none;font-family:Helvetica;-inkscape-font-specification:Helvetica"
         x="108.97819"
         y="935.79193"
         id="tspan3321">2</tspan>
      <tspan
         style="font-size:6.59418774px;font-variant:normal;font-weight:normal;writing-mode:lr-tb;fill:#000000;fill-opacity:1;fill-rule:nonzero;stroke:none;font-family:Helvetica;-inkscape-font-specification:Helvetica"
         x="241.2002"
         y="902.60333"
         id="tspan3323">8</tspan>
      <tspan
         style="font-size:6.59418774px;font-variant:normal;font-weight:normal;writing-mode:lr-tb;fill:#000000;fill-opacity:1;fill-rule:nonzero;stroke:none;font-family:Helvetica;-inkscape-font-specification:Helvetica"
         x="241.2002"
         y="936.13019"
         id="tspan3325">7</tspan>
      <tspan
         style="font-size:6.59418774px;font-variant:normal;font-weight:normal;writing-mode:lr-tb;fill:#000000;fill-opacity:1;fill-rule:nonzero;stroke:none;font-family:Helvetica;-inkscape-font-specification:Helvetica"
         x="241.2002"
         y="969.65704"
         id="tspan3327">6</tspan>
      <tspan
         style="font-size:6.59418774px;font-variant:normal;font-weight:normal;writing-mode:lr-tb;fill:#000000;fill-opacity:1;fill-rule:nonzero;stroke:none;font-family:Helvetica;-inkscape-font-specification:Helvetica"
         x="241.2002"
         y="1003.1838"
         id="tspan3329">5</tspan>
      <tspan
         style="font-size:6.59418774px;font-variant:normal;font-weight:normal;writing-mode:lr-tb;fill:#000000;fill-opacity:1;fill-rule:nonzero;stroke:none;font-family:Helvetica;-inkscape-font-specification:Helvetica"
         x="147.55089 151.21727 155.61559"
         y="1043.8456"
         sodipodi:role="line"
         id="tspan3331">LED</tspan>
    </text>
    <path
       inkscape:connector-curvature="0"
       d="m 117.88667,959.72093 -14.2,0 0,15.5588 14.2,0"
       style="fill:none;stroke:#000000;stroke-width:0.71000004;stroke-linecap:butt;stroke-linejoin:miter;stroke-miterlimit:4;stroke-opacity:1;stroke-dasharray:none"
       id="path3333" />
    <text
       style="font-size:14.99672985px"
       y="969.31854"
       x="108.97819"
       transform="scale(0.99978204,1.000218)"
       id="text3335">
      <tspan
         style="font-size:6.59418774px;font-variant:normal;font-weight:normal;writing-mode:lr-tb;fill:#000000;fill-opacity:1;fill-rule:nonzero;stroke:none;font-family:Helvetica;-inkscape-font-specification:Helvetica"
         x="108.97819"
         y="969.31854"
         id="tspan3337">3</tspan>
    </text>
    <path
       inkscape:connector-curvature="0"
       d="m 117.88667,993.25473 -14.2,0 0,15.55867 14.2,0 m 118.28,-116.15997 14.19875,0 0,15.5588 -14.19875,0 m 0,17.975 14.19875,0 0,15.5587 -14.19875,0 m 0,17.975 14.19875,0 0,15.5588 -14.19875,0 m 0,17.975 14.19875,0 0,15.55867 -14.19875,0"
       style="fill:none;stroke:#000000;stroke-width:0.71000004;stroke-linecap:butt;stroke-linejoin:miter;stroke-miterlimit:4;stroke-opacity:1;stroke-dasharray:none"
       id="path3339" />
    <text
       style="font-size:14.99672985px"
       y="1002.8452"
       x="108.97819"
       transform="scale(0.99978204,1.000218)"
       id="text3341">
      <tspan
         style="font-size:6.59418774px;font-variant:normal;font-weight:normal;writing-mode:lr-tb;fill:#000000;fill-opacity:1;fill-rule:nonzero;stroke:none;font-family:Helvetica;-inkscape-font-specification:Helvetica"
         x="108.97819"
         y="1002.8452"
         id="tspan3343">4</tspan>
    </text>
    <path
       inkscape:connector-curvature="0"
       d="m 118.22417,934.25593 16.22875,0 0,32.8088 -16.22875,0"
       style="fill:none;stroke:#000000;stroke-width:0.71000004;stroke-linecap:butt;stroke-linejoin:miter;stroke-miterlimit:4;stroke-opacity:1;stroke-dasharray:none"
       id="path3345" />
    <path
       inkscape:connector-curvature="0"
       d="m 139.94667,947.19343 -5.69,7.0325 -5.1875,-7.0325 10.8775,0 z"
       style="fill:#ffffff;fill-opacity:1;fill-rule:nonzero;stroke:#000000;stroke-width:1.01499999;stroke-linecap:butt;stroke-linejoin:miter;stroke-miterlimit:10;stroke-opacity:1;stroke-dasharray:none"
       id="path3347" />
    <path
       inkscape:connector-curvature="0"
       d="m 129.11167,954.14093 10.8775,0"
       style="fill:none;stroke:#000000;stroke-width:1.01499999;stroke-linecap:butt;stroke-linejoin:miter;stroke-miterlimit:10;stroke-opacity:1;stroke-dasharray:none"
       id="path3349" />
    <path
       inkscape:connector-curvature="0"
       d="m 103.35667,934.14973 -75.542499,0 m 222.286249,33.845 38.05,0"
       style="fill:none;stroke:#000000;stroke-width:0.71000004;stroke-linecap:butt;stroke-linejoin:miter;stroke-miterlimit:4;stroke-opacity:1;stroke-dasharray:none"
       id="path3351" />
    <text
       style="font-size:14.99672985px"
       y="1008.676"
       x="179.59082"
       transform="scale(0.99978204,1.000218)"
       id="text3353">
      <tspan
         style="font-size:6.59418774px;font-variant:normal;font-weight:normal;writing-mode:lr-tb;fill:#000000;fill-opacity:1;fill-rule:nonzero;stroke:none;font-family:Helvetica;-inkscape-font-specification:Helvetica"
         x="179.59082 183.98914 188.75015 190.58331 194.98166 198.64801"
         y="1008.676"
         sodipodi:role="line"
         id="tspan3355">SHIELD</tspan>
      <tspan
         style="font-size:6.59418774px;font-variant:normal;font-weight:normal;writing-mode:lr-tb;fill:#000000;fill-opacity:1;fill-rule:nonzero;stroke:none;font-family:Helvetica;-inkscape-font-specification:Helvetica"
         x="161.26823 166.02922 170.79022 175.18854 178.85492 181.05078 184.71713 188.38351 192.04987"
         y="858.6416"
         sodipodi:role="line"
         id="tspan3357">HCPL-0701</tspan>
      <tspan
         style="font-size:6.59418774px;font-variant:normal;font-weight:normal;writing-mode:lr-tb;fill:#000000;fill-opacity:1;fill-rule:nonzero;stroke:none;font-family:Helvetica;-inkscape-font-specification:Helvetica"
         x="166.02858 169.69492 174.45593 178.12228 181.78867 185.45502 187.28821"
         y="866.75775"
         sodipodi:role="line"
         id="tspan3359">6N139/8</tspan>
      <tspan
         style="font-size:6.59418774px;font-variant:normal;font-weight:normal;writing-mode:lr-tb;fill:#000000;fill-opacity:1;fill-rule:nonzero;stroke:none;font-family:Helvetica;-inkscape-font-specification:Helvetica"
         x="153.02022 157.7812 162.54222 166.94054 170.6069 172.80276 176.46912 180.1355 183.80185 187.46823 189.30142 192.96777 196.63416 200.30051"
         y="874.87384"
         sodipodi:role="line"
         id="tspan3361">HCPL-4701/4731</tspan>
    </text>
    <path
       inkscape:connector-curvature="0"
       d="m 151.10542,938.99223 12.89125,-9.9538"
       style="fill:none;stroke:#000000;stroke-width:0.50749999;stroke-linecap:butt;stroke-linejoin:miter;stroke-miterlimit:4;stroke-opacity:1;stroke-dasharray:none"
       id="path3363" />
    <path
       inkscape:connector-curvature="0"
       d="m 165.86417,927.82223 -5.96,2.15 1.69625,0.9925 0.40875,1.9387 3.855,-5.0812 z"
       style="fill:#000000;fill-opacity:1;fill-rule:nonzero;stroke:#000000;stroke-width:0.50749999;stroke-linecap:butt;stroke-linejoin:miter;stroke-miterlimit:10;stroke-opacity:1;stroke-dasharray:none"
       id="path3365" />
    <path
       inkscape:connector-curvature="0"
       d="m 150.85167,946.98223 12.89125,-9.9538"
       style="fill:none;stroke:#000000;stroke-width:0.50749999;stroke-linecap:butt;stroke-linejoin:miter;stroke-miterlimit:4;stroke-opacity:1;stroke-dasharray:none"
       id="path3367" />
    <path
       inkscape:connector-curvature="0"
       d="m 165.61167,935.81343 -5.96125,2.1488 1.69625,0.9937 0.40875,1.9375 3.85625,-5.08 z"
       style="fill:#000000;fill-opacity:1;fill-rule:nonzero;stroke:#000000;stroke-width:0.50749999;stroke-linecap:butt;stroke-linejoin:miter;stroke-miterlimit:10;stroke-opacity:1;stroke-dasharray:none"
       id="path3369" />
    <path
       inkscape:connector-curvature="0"
       d="m 235.24917,1001.5647 -79.32625,0"
       style="fill:none;stroke:#000000;stroke-width:0.71000004;stroke-linecap:butt;stroke-linejoin:miter;stroke-miterlimit:4;stroke-opacity:1;stroke-dasharray:none"
       id="path3371" />
    <path
       inkscape:connector-curvature="0"
       d="m 155.94417,1001.5859 0,-115.33747"
       style="fill:none;stroke:#000000;stroke-width:0.71000004;stroke-linecap:butt;stroke-linejoin:miter;stroke-miterlimit:4;stroke-opacity:1;stroke-dasharray:6.0875, 3.0425;stroke-dashoffset:0"
       id="path3373" />
    <path
       inkscape:connector-curvature="0"
       d="m 225.94167,1002.8072 c 1.02375,0 1.85625,-0.83 1.85625,-1.8563 0,-1.02497 -0.8325,-1.85617 -1.85625,-1.85617 -1.025,0 -1.855,0.8312 -1.855,1.85617 0,1.0263 0.83,1.8563 1.855,1.8563"
       style="fill:#000000;fill-opacity:1;fill-rule:nonzero;stroke:none"
       id="path3375" />
    <path
       inkscape:connector-curvature="0"
       d="m 223.58417,987.88093 2.43125,5.65 -6.15875,1.0513 3.7275,-6.7013 z"
       style="fill:#000000;fill-opacity:1;fill-rule:nonzero;stroke:#000000;stroke-width:0.09125;stroke-linecap:butt;stroke-linejoin:miter;stroke-miterlimit:10;stroke-opacity:1;stroke-dasharray:none"
       id="path3379" />
    <path
       inkscape:connector-curvature="0"
       d="m 216.96667,994.04473 0,-19.6338"
       style="fill:none;stroke:#000000;stroke-width:2.02999997;stroke-linecap:butt;stroke-linejoin:miter;stroke-miterlimit:4;stroke-opacity:1;stroke-dasharray:none"
       id="path3381" />
    <path
       inkscape:connector-curvature="0"
       d="m 217.19542,988.79473 4.33625,2.2825 m -4.565,-11.1875 8.97625,-4.5663 0,-8.4537 9.845,0 m -52.78375,1.7762 0,-68.89 52.875,0 m -18.9125,84.2438 -17.46,0 m 26.50875,9.5312 0,8.09247"
       style="fill:none;stroke:#000000;stroke-width:0.71000004;stroke-linecap:butt;stroke-linejoin:miter;stroke-miterlimit:10;stroke-opacity:1;stroke-dasharray:none"
       id="path3383" />
    <path
       inkscape:connector-curvature="0"
       d="m 188.81042,924.33723 -5.68875,-7.0325 -5.18875,7.0325 10.8775,0 z"
       style="fill:#ffffff;fill-opacity:1;fill-rule:nonzero;stroke:#000000;stroke-width:1.01499999;stroke-linecap:butt;stroke-linejoin:miter;stroke-miterlimit:10;stroke-opacity:1;stroke-dasharray:none"
       id="path3385" />
    <path
       inkscape:connector-curvature="0"
       d="m 177.97542,917.38973 10.8775,0"
       style="fill:none;stroke:#000000;stroke-width:1.01499999;stroke-linecap:butt;stroke-linejoin:miter;stroke-miterlimit:10;stroke-opacity:1;stroke-dasharray:none"
       id="path3387" />
    <text
       style="font-size:14.99672985px"
       y="853.12152"
       x="101.71934"
       transform="scale(0.99978204,1.000218)"
       id="text3389">
      <tspan
         style="font-size:6.59418774px;font-variant:normal;font-weight:normal;writing-mode:lr-tb;fill:#000000;fill-opacity:1;fill-rule:nonzero;stroke:none;font-family:Helvetica;-inkscape-font-specification:Helvetica"
         x="101.71934 106.11765 110.87867 116.00895 119.91932"
         y="853.12152"
         sodipodi:role="line"
         id="tspan3391">PHOTO</tspan>
      <tspan
         style="font-size:6.59418774px;font-variant:normal;font-weight:normal;writing-mode:lr-tb;fill:#000000;fill-opacity:1;fill-rule:nonzero;stroke:none;font-family:Helvetica;-inkscape-font-specification:Helvetica"
         x="102.94257 107.70356 109.53675 114.66703 119.42805"
         y="861.23767"
         sodipodi:role="line"
         id="tspan3393">DIODE</tspan>
      <tspan
         style="font-size:6.59418774px;font-variant:normal;font-weight:normal;writing-mode:lr-tb;fill:#000000;fill-opacity:1;fill-rule:nonzero;stroke:none;font-family:Helvetica;-inkscape-font-specification:Helvetica"
         x="105.693 107.88886 112.28718 114.12037 118.88139"
         y="869.35376"
         sodipodi:role="line"
         id="tspan3395">(PIN)</tspan>
    </text>
    <path
       inkscape:connector-curvature="0"
       d="m 265.83542,967.96973 0,-68.6625 m -15.75625,0.28 38.1775,0"
       style="fill:none;stroke:#000000;stroke-width:0.71000004;stroke-linecap:butt;stroke-linejoin:miter;stroke-miterlimit:4;stroke-opacity:1;stroke-dasharray:none"
       id="path3397" />
    <text
       style="font-size:14.99672985px"
       y="1043.1685"
       x="259.66504"
       transform="scale(0.99978204,1.000218)"
       id="text3399">
      <tspan
         style="font-size:6.59418774px;font-variant:normal;font-weight:normal;writing-mode:lr-tb;fill:#000000;fill-opacity:1;fill-rule:nonzero;stroke:none;font-family:Helvetica;-inkscape-font-specification:Helvetica"
         x="259.66504"
         y="1043.1685"
         id="tspan3401">2</tspan>
    </text>
    <path
       inkscape:connector-curvature="0"
       d="m 256.22792,1037.7771 5.2125,10.0163 4.79625,-10.0163 -10.00875,0 z"
       style="fill:none;stroke:#000000;stroke-width:1.01499999;stroke-linecap:butt;stroke-linejoin:miter;stroke-miterlimit:10;stroke-opacity:1;stroke-dasharray:none"
       id="path3403" />
    <path
       inkscape:connector-curvature="0"
       d="m 47.942921,936.47593 14.26375,0 0,-4.82 -14.26375,0 0,4.82 z"
       style="fill:#ffffff;fill-opacity:1;fill-rule:nonzero;stroke:none"
       id="path3405" />
    <path
       inkscape:connector-curvature="0"
       d="m 62.382921,933.78593 -1.71125,1.94 -2.16875,-3.31 -2.28125,3.0825 -2.16875,-3.0825 -2.51,2.6263 -2.05375,-2.74 -1.71125,1.8262"
       style="fill:none;stroke:#000000;stroke-width:1.01499999;stroke-linecap:butt;stroke-linejoin:miter;stroke-miterlimit:10;stroke-opacity:1;stroke-dasharray:none"
       id="path3407" />
    <text
       style="font-size:14.99672985px"
       y="927.51703"
       x="52.402229"
       transform="scale(0.99978204,1.000218)"
       id="text3409">
      <tspan
         style="font-size:6.59418774px;font-variant:normal;font-weight:normal;writing-mode:lr-tb;fill:#000000;fill-opacity:1;fill-rule:nonzero;stroke:none;font-family:Helvetica;-inkscape-font-specification:Helvetica"
         x="52.402229"
         y="927.51703"
         id="tspan3411">R</tspan>
    </text>
    <text
       style="font-size:14.99663925px"
       y="928.52606"
       x="57.163597"
       transform="scale(0.99977596,1.0002241)"
       id="text3413">
      <tspan
         style="font-size:5.57962513px;font-variant:normal;font-weight:normal;writing-mode:lr-tb;fill:#000000;fill-opacity:1;fill-rule:nonzero;stroke:none;font-family:Helvetica;-inkscape-font-specification:Helvetica"
         x="57.163597"
         y="928.52606"
         id="tspan3415">1</tspan>
    </text>
    <path
       inkscape:connector-curvature="0"
       d="m 263.13042,936.88843 4.8175,0 0,-14.2687 -4.8175,0 0,14.2687 z"
       style="fill:#ffffff;fill-opacity:1;fill-rule:nonzero;stroke:none"
       id="path3417" />
    <path
       inkscape:connector-curvature="0"
       d="m 265.81917,937.06723 -1.94,-1.7125 3.31,-2.1688 -3.08125,-2.2825 3.08125,-2.17 -2.625,-2.5112 2.73875,-2.0538 -1.82625,-1.7137"
       style="fill:none;stroke:#000000;stroke-width:1.01499999;stroke-linecap:butt;stroke-linejoin:miter;stroke-miterlimit:10;stroke-opacity:1;stroke-dasharray:none"
       id="path3419" />
    <text
       style="font-size:14.99672985px"
       y="932.92767"
       x="269.40228"
       transform="scale(0.99978204,1.000218)"
       id="text3421">
      <tspan
         style="font-size:6.59418774px;font-variant:normal;font-weight:normal;writing-mode:lr-tb;fill:#000000;fill-opacity:1;fill-rule:nonzero;stroke:none;font-family:Helvetica;-inkscape-font-specification:Helvetica"
         x="269.40228"
         y="932.92767"
         id="tspan3423">R</tspan>
    </text>
    <text
       style="font-size:14.99663925px"
       y="933.93658"
       x="274.16513"
       transform="scale(0.99977596,1.0002241)"
       id="text3425">
      <tspan
         style="font-size:5.57962513px;font-variant:normal;font-weight:normal;writing-mode:lr-tb;fill:#000000;fill-opacity:1;fill-rule:nonzero;stroke:none;font-family:Helvetica;-inkscape-font-specification:Helvetica"
         x="274.16513"
         y="933.93658"
         id="tspan3427">L</tspan>
    </text>
    <text
       style="font-size:14.99672985px"
       y="970.80182"
       x="296.0188"
       transform="scale(0.99978204,1.000218)"
       id="text3429">
      <tspan
         style="font-size:6.59418774px;font-variant:normal;font-weight:normal;writing-mode:lr-tb;fill:#000000;fill-opacity:1;fill-rule:nonzero;stroke:none;font-family:Helvetica;-inkscape-font-specification:Helvetica"
         x="296.0188"
         y="970.80182"
         id="tspan3431">V</tspan>
    </text>
    <text
       style="font-size:14.99663925px"
       y="971.81036"
       x="300.41898"
       transform="scale(0.99977596,1.0002241)"
       id="text3433">
      <tspan
         style="font-size:5.57962513px;font-variant:normal;font-weight:normal;writing-mode:lr-tb;fill:#000000;fill-opacity:1;fill-rule:nonzero;stroke:none;font-family:Helvetica;-inkscape-font-specification:Helvetica"
         x="300.41898 304.75882 308.78622"
         y="971.81036"
         sodipodi:role="line"
         id="tspan3435">OUT</tspan>
    </text>
    <text
       style="font-size:14.99672985px"
       y="902.15497"
       x="297.87909"
       transform="scale(0.99978204,1.000218)"
       id="text3437">
      <tspan
         style="font-size:6.59418774px;font-variant:normal;font-weight:normal;writing-mode:lr-tb;fill:#000000;fill-opacity:1;fill-rule:nonzero;stroke:none;font-family:Helvetica;-inkscape-font-specification:Helvetica"
         x="297.87909"
         y="902.15497"
         id="tspan3439">V</tspan>
    </text>
    <text
       style="font-size:14.99663925px"
       y="903.16412"
       x="302.27914"
       transform="scale(0.99977596,1.0002241)"
       id="text3441">
      <tspan
         style="font-size:5.57962513px;font-variant:normal;font-weight:normal;writing-mode:lr-tb;fill:#000000;fill-opacity:1;fill-rule:nonzero;stroke:none;font-family:Helvetica;-inkscape-font-specification:Helvetica"
         x="302.27914 306.3071"
         y="903.16412"
         sodipodi:role="line"
         id="tspan3443">CC</tspan>
    </text>
    <path
       inkscape:connector-curvature="0"
       d="m 265.49792,901.67473 c 1.025,0 1.855,-0.83 1.855,-1.8563 0,-1.025 -0.83,-1.8562 -1.855,-1.8562 -1.025,0 -1.85625,0.8312 -1.85625,1.8562 0,1.0263 0.83125,1.8563 1.85625,1.8563"
       style="fill:#000000;fill-opacity:1;fill-rule:nonzero;stroke:none"
       id="path3445" />
    <path
       inkscape:connector-curvature="0"
       d="m 265.67167,969.82593 c 1.02375,0 1.855,-0.8312 1.855,-1.8562 0,-1.025 -0.83125,-1.8563 -1.855,-1.8563 -1.02625,0 -1.85625,0.8313 -1.85625,1.8563 0,1.025 0.83,1.8562 1.85625,1.8562"
       style="fill:#000000;fill-opacity:1;fill-rule:nonzero;stroke:none"
       id="path3447" />
    <path
       inkscape:connector-curvature="0"
       d="m 208.36042,985.55723 c 1.025,0 1.85625,-0.83 1.85625,-1.8563 0,-1.025 -0.83125,-1.8562 -1.85625,-1.8562 -1.025,0 -1.85625,0.8312 -1.85625,1.8562 0,1.0263 0.83125,1.8563 1.85625,1.8563"
       style="fill:#000000;fill-opacity:1;fill-rule:nonzero;stroke:none"
       id="path3449" />
    <path
       inkscape:connector-curvature="0"
       d="m 68.055421,935.83723 c 1.02375,0 1.855,-0.8313 1.855,-1.8575 0,-1.025 -0.83125,-1.855 -1.855,-1.855 -1.02625,0 -1.85625,0.83 -1.85625,1.855 0,1.0262 0.83,1.8575 1.85625,1.8575"
       style="fill:#000000;fill-opacity:1;fill-rule:nonzero;stroke:none"
       id="path3451" />
    <path
       inkscape:connector-curvature="0"
       d="m 41.684171,936.17473 c 1.02375,0 1.855,-0.83 1.855,-1.8563 0,-1.025 -0.83125,-1.8562 -1.855,-1.8562 -1.025,0 -1.85625,0.8312 -1.85625,1.8562 0,1.0263 0.83125,1.8563 1.85625,1.8563"
       style="fill:#000000;fill-opacity:1;fill-rule:nonzero;stroke:none"
       id="path3453" />
    <path
       inkscape:connector-curvature="0"
       d="m 199.57042,901.33723 c 1.02375,0 1.85625,-0.8313 1.85625,-1.8575 0,-1.025 -0.8325,-1.855 -1.85625,-1.855 -1.02375,0 -1.855,0.83 -1.855,1.855 0,1.0262 0.83125,1.8575 1.855,1.8575"
       style="fill:#000000;fill-opacity:1;fill-rule:nonzero;stroke:none"
       id="path3455" />
    <path
       inkscape:connector-curvature="0"
       d="m 250.28417,1001.1159 10.81875,0 0,36.8675 m -157.8875,-70.01367 -15.551249,0 0,41.93117"
       style="fill:none;stroke:#000000;stroke-width:0.71000004;stroke-linecap:butt;stroke-linejoin:miter;stroke-miterlimit:4;stroke-opacity:1;stroke-dasharray:none"
       id="path3457" />
    <path
       inkscape:connector-curvature="0"
       d="m 82.787921,1010.0346 5.21375,10.0138 4.795,-10.0138 -10.00875,0 z"
       style="fill:none;stroke:#000000;stroke-width:1.01499999;stroke-linecap:butt;stroke-linejoin:miter;stroke-miterlimit:10;stroke-opacity:1;stroke-dasharray:none"
       id="path3459" />
    <path
       inkscape:connector-curvature="0"
       d="m 25.116671,936.85223 c 1.585,0 2.87,-1.2863 2.87,-2.8713 0,-1.5837 -1.285,-2.8687 -2.87,-2.8687 -1.58375,0 -2.86875,1.285 -2.86875,2.8687 0,1.585 1.285,2.8713 2.86875,2.8713 z"
       style="fill:#ffffff;fill-opacity:1;fill-rule:nonzero;stroke:#000000;stroke-width:0.71000004;stroke-linecap:butt;stroke-linejoin:miter;stroke-miterlimit:10;stroke-opacity:1;stroke-dasharray:none"
       id="path3461" />
    <path
       inkscape:connector-curvature="0"
       d="m 291.19167,902.35223 c 1.58625,0 2.87,-1.2863 2.87,-2.8713 0,-1.5837 -1.28375,-2.8687 -2.87,-2.8687 -1.58375,0 -2.8675,1.285 -2.8675,2.8687 0,1.585 1.28375,2.8713 2.8675,2.8713 z"
       style="fill:#ffffff;fill-opacity:1;fill-rule:nonzero;stroke:#000000;stroke-width:0.71000004;stroke-linecap:butt;stroke-linejoin:miter;stroke-miterlimit:10;stroke-opacity:1;stroke-dasharray:none"
       id="path3465" />
    <path
       inkscape:connector-curvature="0"
       d="m 290.85542,971.01343 c 1.58375,0 2.8675,-1.285 2.8675,-2.87 0,-1.585 -1.28375,-2.87 -2.8675,-2.87 -1.585,0 -2.87,1.285 -2.87,2.87 0,1.585 1.285,2.87 2.87,2.87 z"
       style="fill:#ffffff;fill-opacity:1;fill-rule:nonzero;stroke:#000000;stroke-width:0.71000004;stroke-linecap:butt;stroke-linejoin:miter;stroke-miterlimit:10;stroke-opacity:1;stroke-dasharray:none"
       id="path3469" />
    <path
       inkscape:connector-curvature="0"
       d="m 41.345421,944.29343 49.36125,0"
       style="fill:none;stroke:#000000;stroke-width:0.71000004;stroke-linecap:butt;stroke-linejoin:miter;stroke-miterlimit:4;stroke-opacity:1;stroke-dasharray:none"
       id="path3473" />
    <path
       inkscape:connector-curvature="0"
       d="m 89.299171,946.33093 7.6975,-2.0625 -7.6975,-2.0637 0,4.1262"
       style="fill:#000000;fill-opacity:1;fill-rule:nonzero;stroke:none"
       id="path3475" />
    <text
       style="font-size:14.99672985px"
       y="952.20282"
       x="64.772926"
       transform="scale(0.99978204,1.000218)"
       id="text3477">
      <tspan
         style="font-size:6.59418774px;font-variant:normal;font-weight:normal;writing-mode:lr-tb;fill:#000000;fill-opacity:1;fill-rule:nonzero;stroke:none;font-family:Helvetica;-inkscape-font-specification:Helvetica"
         x="64.772926"
         y="952.20282"
         id="tspan3479">I</tspan>
    </text>
    <text
       style="font-size:14.99663925px"
       y="953.21161"
       x="66.606468"
       transform="scale(0.99977596,1.0002241)"
       id="text3481">
      <tspan
         style="font-size:5.57962513px;font-variant:normal;font-weight:normal;writing-mode:lr-tb;fill:#000000;fill-opacity:1;fill-rule:nonzero;stroke:none;font-family:Helvetica;-inkscape-font-specification:Helvetica"
         x="66.606468"
         y="953.21161"
         id="tspan3483">F</tspan>
    </text>
    <text
       style="font-size:14.99672985px"
       y="998.19269"
       x="289.19635"
       transform="scale(0.99978204,1.000218)"
       id="text3485">
      <tspan
         style="font-size:6.59418774px;font-variant:normal;font-weight:normal;writing-mode:lr-tb;fill:#000000;fill-opacity:1;fill-rule:nonzero;stroke:none;font-family:Helvetica;-inkscape-font-specification:Helvetica"
         x="289.19635 293.59467 297.99298 301.65936 303.49255"
         y="998.19269"
         sodipodi:role="line"
         id="tspan3487">SPLIT</tspan>
      <tspan
         style="font-size:6.59418774px;font-variant:normal;font-weight:normal;writing-mode:lr-tb;fill:#000000;fill-opacity:1;fill-rule:nonzero;stroke:none;font-family:Helvetica;-inkscape-font-specification:Helvetica"
         x="276.80389 281.56488 285.9632 290.72418 294.39056 296.22375 300.98474 306.11505 310.02539 315.15564"
         y="1006.3088"
         sodipodi:role="line"
         id="tspan3489">DARLINGTON</tspan>
      <tspan
         style="font-size:6.59418774px;font-variant:normal;font-weight:normal;writing-mode:lr-tb;fill:#000000;fill-opacity:1;fill-rule:nonzero;stroke:none;font-family:Helvetica;-inkscape-font-specification:Helvetica"
         x="280.9549 285.35321 290.84619 295.24451 298.91089 300.74408 304.77313 306.60632 311.00464"
         y="1014.4249"
         sodipodi:role="line"
         id="tspan3491">AMPLIFIER</tspan>
    </text>
    <path
       inkscape:connector-curvature="0"
       d="m 282.71167,995.65223 -40.23375,-12.8525"
       style="fill:none;stroke:#000000;stroke-width:0.71000004;stroke-linecap:butt;stroke-linejoin:miter;stroke-miterlimit:4;stroke-opacity:1;stroke-dasharray:none"
       id="path3493" />
    <path
       inkscape:connector-curvature="0"
       d="m 244.43917,981.28843 -7.96,-0.3775 6.705,4.3088 1.255,-3.9313"
       style="fill:#000000;fill-opacity:1;fill-rule:nonzero;stroke:none"
       id="path3495" />
    <path
       inkscape:connector-curvature="0"
       d="M 152.57667,1036.6309 129.92542,972.70473"
       style="fill:none;stroke:#000000;stroke-width:0.71000004;stroke-linecap:butt;stroke-linejoin:miter;stroke-miterlimit:4;stroke-opacity:1;stroke-dasharray:none"
       id="path3497" />
    <path
       inkscape:connector-curvature="0"
       d="m 132.31292,973.35343 -4.515,-6.5675 0.6275,7.9475 3.8875,-1.38"
       style="fill:#000000;fill-opacity:1;fill-rule:nonzero;stroke:none"
       id="path3499" />
    <path
       inkscape:connector-curvature="0"
       d="m 125.19167,868.86593 52.58,37.7238"
       style="fill:none;stroke:#000000;stroke-width:0.71000004;stroke-linecap:butt;stroke-linejoin:miter;stroke-miterlimit:4;stroke-opacity:1;stroke-dasharray:none"
       id="path3501" />
    <path
       inkscape:connector-curvature="0"
       d="m 175.43917,907.43473 7.46375,2.79 -5.06875,-6.15 -2.395,3.36"
       style="fill:#000000;fill-opacity:1;fill-rule:nonzero;stroke:none"
       id="path3503" />
    <path
       inkscape:connector-curvature="0"
       d="m 235.74667,934.14593 -27.38625,0 0,49.3825"
       style="fill:none;stroke:#000000;stroke-width:0.71000004;stroke-linecap:butt;stroke-linejoin:miter;stroke-miterlimit:4;stroke-opacity:1;stroke-dasharray:none"
       id="path3505" />
    <text
       style="font-size:14.99672985px"
       y="934.61847"
       x="10.666116"
       transform="scale(0.99978204,1.000218)"
       id="text3507">
      <tspan
         style="font-size:6.59418774px;font-variant:normal;font-weight:normal;writing-mode:lr-tb;fill:#000000;fill-opacity:1;fill-rule:nonzero;stroke:none;font-family:Helvetica;-inkscape-font-specification:Helvetica"
         x="10.666116"
         y="934.61847"
         id="tspan3509">V</tspan>
    </text>
    <text
       style="font-size:14.99663925px"
       y="935.62726"
       x="15.064537"
       transform="scale(0.99977596,1.0002241)"
       id="text3511">
      <tspan
         style="font-size:5.57962513px;font-variant:normal;font-weight:normal;writing-mode:lr-tb;fill:#000000;fill-opacity:1;fill-rule:nonzero;stroke:none;font-family:Helvetica;-inkscape-font-specification:Helvetica"
         x="15.064537 16.615685"
         y="935.62726"
         sodipodi:role="line"
         id="tspan3513">IN</tspan>
    </text>
  </g>
</svg>
