<?xml version="1.0" encoding="UTF-8" standalone="no"?>
<!-- Created with Inkscape (http://www.inkscape.org/) -->

<svg
   xmlns:dc="http://purl.org/dc/elements/1.1/"
   xmlns:cc="http://creativecommons.org/ns#"
   xmlns:rdf="http://www.w3.org/1999/02/22-rdf-syntax-ns#"
   xmlns:svg="http://www.w3.org/2000/svg"
   xmlns="http://www.w3.org/2000/svg"
   xmlns:sodipodi="http://sodipodi.sourceforge.net/DTD/sodipodi-0.dtd"
   xmlns:inkscape="http://www.inkscape.org/namespaces/inkscape"
   width="310"
   height="210"
   id="svg4072"
   version="1.1"
   inkscape:version="0.48.4 r9939"
   sodipodi:docname="Optoisolator_04.svg">
  <defs
     id="defs4074">
    <clipPath
       clipPathUnits="userSpaceOnUse"
       id="clipPath3395">
      <path
         inkscape:connector-curvature="0"
         d="m 248.202,657.064 231.191,0 0,-158.24 -231.191,0 0,158.24 z"
         id="path3397" />
    </clipPath>
    <clipPath
       clipPathUnits="userSpaceOnUse"
       id="clipPath3153">
      <path
         inkscape:connector-curvature="0"
         d="m 245.172,468.301 245.911,0 0,-161.704 -245.911,0 0,161.704 z"
         id="path3155" />
    </clipPath>
  </defs>
  <sodipodi:namedview
     id="base"
     pagecolor="#ffffff"
     bordercolor="#666666"
     borderopacity="1.0"
     inkscape:pageopacity="0.0"
     inkscape:pageshadow="2"
     inkscape:zoom="1.979899"
     inkscape:cx="151.39063"
     inkscape:cy="122.2332"
     inkscape:document-units="px"
     inkscape:current-layer="layer1"
     showgrid="false"
     inkscape:window-width="924"
     inkscape:window-height="780"
     inkscape:window-x="2020"
     inkscape:window-y="100"
     inkscape:window-maximized="0" />
  <metadata
     id="metadata4077">
    <rdf:RDF>
      <cc:Work
         rdf:about="">
        <dc:format>image/svg+xml</dc:format>
        <dc:type
           rdf:resource="http://purl.org/dc/dcmitype/StillImage" />
        <dc:title></dc:title>
      </cc:Work>
    </rdf:RDF>
  </metadata>
  <g
     inkscape:label="Layer 1"
     inkscape:groupmode="layer"
     id="layer1"
     transform="translate(0,-842.36218)">
    <path
       inkscape:connector-curvature="0"
       d="m 94.813912,1021.0771 128.968748,0 0,-141.01751 -128.968748,0 0,141.01751 z"
       style="fill:none;stroke:#000000;stroke-width:1.45749998;stroke-linecap:butt;stroke-linejoin:miter;stroke-miterlimit:4;stroke-opacity:1;stroke-dasharray:none"
       id="path3625" />
    <path
       inkscape:connector-curvature="0"
       d="m 94.490162,892.37834 -13.60625,0 0,14.9125 13.60625,0"
       style="fill:none;stroke:#000000;stroke-width:0.68125004;stroke-linecap:butt;stroke-linejoin:miter;stroke-miterlimit:4;stroke-opacity:1;stroke-dasharray:none"
       id="path3627" />
    <text
       style="font-size:14.9948082px"
       y="901.46759"
       x="85.960411"
       transform="scale(0.99965391,1.0003462)"
       id="text3629">
      <tspan
         style="font-size:6.3193121px;font-variant:normal;font-weight:normal;writing-mode:lr-tb;fill:#000000;fill-opacity:1;fill-rule:nonzero;stroke:none;font-family:Helvetica;-inkscape-font-specification:Helvetica"
         x="85.960411"
         y="901.46759"
         id="tspan3631">1</tspan>
      <tspan
         style="font-size:6.3193121px;font-variant:normal;font-weight:normal;writing-mode:lr-tb;fill:#000000;fill-opacity:1;fill-rule:nonzero;stroke:none;font-family:Helvetica;-inkscape-font-specification:Helvetica"
         x="56.01825"
         y="1035.8492"
         id="tspan3633">1</tspan>
    </text>
    <path
       inkscape:connector-curvature="0"
       d="m 94.490162,924.51834 -13.60625,0 0,14.9125 13.60625,0"
       style="fill:none;stroke:#000000;stroke-width:0.68125004;stroke-linecap:butt;stroke-linejoin:miter;stroke-miterlimit:4;stroke-opacity:1;stroke-dasharray:none"
       id="path3635" />
    <text
       style="font-size:14.9948082px"
       y="933.59674"
       x="85.960411"
       transform="scale(0.99965391,1.0003462)"
       id="text3637">
      <tspan
         style="font-size:6.3193121px;font-variant:normal;font-weight:normal;writing-mode:lr-tb;fill:#000000;fill-opacity:1;fill-rule:nonzero;stroke:none;font-family:Helvetica;-inkscape-font-specification:Helvetica"
         x="85.960411"
         y="933.59674"
         id="tspan3639">2</tspan>
      <tspan
         style="font-size:6.3193121px;font-variant:normal;font-weight:normal;writing-mode:lr-tb;fill:#000000;fill-opacity:1;fill-rule:nonzero;stroke:none;font-family:Helvetica;-inkscape-font-specification:Helvetica"
         x="228.91022"
         y="901.79163"
         id="tspan3641">8</tspan>
      <tspan
         style="font-size:6.3193121px;font-variant:normal;font-weight:normal;writing-mode:lr-tb;fill:#000000;fill-opacity:1;fill-rule:nonzero;stroke:none;font-family:Helvetica;-inkscape-font-specification:Helvetica"
         x="228.91022"
         y="933.9209"
         id="tspan3643">7</tspan>
      <tspan
         style="font-size:6.3193121px;font-variant:normal;font-weight:normal;writing-mode:lr-tb;fill:#000000;fill-opacity:1;fill-rule:nonzero;stroke:none;font-family:Helvetica;-inkscape-font-specification:Helvetica"
         x="228.91022"
         y="966.05017"
         id="tspan3645">6</tspan>
      <tspan
         style="font-size:6.3193121px;font-variant:normal;font-weight:normal;writing-mode:lr-tb;fill:#000000;fill-opacity:1;fill-rule:nonzero;stroke:none;font-family:Helvetica;-inkscape-font-specification:Helvetica"
         x="228.91022"
         y="998.17944"
         id="tspan3647">5</tspan>
      <tspan
         style="font-size:6.3193121px;font-variant:normal;font-weight:normal;writing-mode:lr-tb;fill:#000000;fill-opacity:1;fill-rule:nonzero;stroke:none;font-family:Helvetica;-inkscape-font-specification:Helvetica"
         x="21.533133 25.046667 29.963095 34.879517 36.636292"
         y="959.20764"
         sodipodi:role="line"
         id="tspan3649">LOGIC</tspan>
      <tspan
         style="font-size:6.3193121px;font-variant:normal;font-weight:normal;writing-mode:lr-tb;fill:#000000;fill-opacity:1;fill-rule:nonzero;stroke:none;font-family:Helvetica;-inkscape-font-specification:Helvetica"
         x="12.63933 17.555754 21.303106 25.164206 29.379187 31.135962 32.892723 37.455269 41.67025 46.232796"
         y="966.98547"
         sodipodi:role="line"
         id="tspan3651">GATE INPUT</tspan>
    </text>
    <path
       inkscape:connector-curvature="0"
       d="m 94.490162,956.65833 -13.60625,0 0,14.9125 13.60625,0"
       style="fill:none;stroke:#000000;stroke-width:0.68125004;stroke-linecap:butt;stroke-linejoin:miter;stroke-miterlimit:4;stroke-opacity:1;stroke-dasharray:none"
       id="path3653" />
    <text
       style="font-size:14.9948082px"
       y="965.72583"
       x="85.960411"
       transform="scale(0.99965391,1.0003462)"
       id="text3655">
      <tspan
         style="font-size:6.3193121px;font-variant:normal;font-weight:normal;writing-mode:lr-tb;fill:#000000;fill-opacity:1;fill-rule:nonzero;stroke:none;font-family:Helvetica;-inkscape-font-specification:Helvetica"
         x="85.960411"
         y="965.72583"
         id="tspan3657">3</tspan>
    </text>
    <path
       inkscape:connector-curvature="0"
       d="m 94.490162,988.79833 -13.60625,0 0,14.91377 13.60625,0 m 129.567498,-111.33376 13.60625,0 0,14.9125 -13.60625,0 m 0,17.2275 13.60625,0 0,14.9125 -13.60625,0 m 0,17.22749 13.60625,0 0,14.9125 -13.60625,0 m 0,17.2275 13.60625,0 0,14.91377 -13.60625,0"
       style="fill:none;stroke:#000000;stroke-width:0.68125004;stroke-linecap:butt;stroke-linejoin:miter;stroke-miterlimit:4;stroke-opacity:1;stroke-dasharray:none"
       id="path3659" />
    <text
       style="font-size:14.9948082px"
       y="997.85492"
       x="85.960411"
       transform="scale(0.99965391,1.0003462)"
       id="text3661">
      <tspan
         style="font-size:6.3193121px;font-variant:normal;font-weight:normal;writing-mode:lr-tb;fill:#000000;fill-opacity:1;fill-rule:nonzero;stroke:none;font-family:Helvetica;-inkscape-font-specification:Helvetica"
         x="85.960411"
         y="997.85492"
         id="tspan3663">4</tspan>
    </text>
    <path
       inkscape:connector-curvature="0"
       d="m 80.567662,932.15084 -61.888751,0 m 218.728749,32.43749 36.46,0"
       style="fill:none;stroke:#000000;stroke-width:0.68125004;stroke-linecap:butt;stroke-linejoin:miter;stroke-miterlimit:4;stroke-opacity:1;stroke-dasharray:none"
       id="path3665" />
    <text
       style="font-size:14.9948082px"
       y="1003.4427"
       x="145.20367"
       transform="scale(0.99965391,1.0003462)"
       id="text3667">
      <tspan
         style="font-size:6.3193121px;font-variant:normal;font-weight:normal;writing-mode:lr-tb;fill:#000000;fill-opacity:1;fill-rule:nonzero;stroke:none;font-family:Helvetica;-inkscape-font-specification:Helvetica"
         x="145.20367"
         sodipodi:role="line"
         id="tspan3673"
         y="1003.4427">SHIELD</tspan>
    </text>
    <path
       inkscape:connector-curvature="0"
       d="m 147.97641,967.26083 13.95875,0"
       style="fill:none;stroke:#000000;stroke-width:0.48624998;stroke-linecap:butt;stroke-linejoin:miter;stroke-miterlimit:4;stroke-opacity:1;stroke-dasharray:none"
       id="path3675" />
    <path
       inkscape:connector-curvature="0"
       d="m 164.06391,967.43333 -5.77875,-1.86125 0.705,1.7475 -0.825,1.70875 5.89875,-1.595 z"
       style="fill:#000000;fill-opacity:1;fill-rule:nonzero;stroke:#000000;stroke-width:0.48624998;stroke-linecap:butt;stroke-linejoin:miter;stroke-miterlimit:10;stroke-opacity:1;stroke-dasharray:none"
       id="path3677" />
    <path
       inkscape:connector-curvature="0"
       d="m 147.81391,982.82208 13.95875,0"
       style="fill:none;stroke:#000000;stroke-width:0.48624998;stroke-linecap:butt;stroke-linejoin:miter;stroke-miterlimit:4;stroke-opacity:1;stroke-dasharray:none"
       id="path3679" />
    <path
       inkscape:connector-curvature="0"
       d="m 163.90141,982.99333 -5.77875,-1.86125 0.705,1.74875 -0.82375,1.70875 5.8975,-1.59625 z"
       style="fill:#000000;fill-opacity:1;fill-rule:nonzero;stroke:#000000;stroke-width:0.48624998;stroke-linecap:butt;stroke-linejoin:miter;stroke-miterlimit:10;stroke-opacity:1;stroke-dasharray:none"
       id="path3681" />
    <path
       inkscape:connector-curvature="0"
       d="m 156.60891,996.8033 0,-110.54371"
       style="fill:none;stroke:#000000;stroke-width:0.68125004;stroke-linecap:butt;stroke-linejoin:miter;stroke-miterlimit:4;stroke-opacity:1;stroke-dasharray:5.83375, 2.91625;stroke-dashoffset:0"
       id="path3683" />
    <path
       inkscape:connector-curvature="0"
       d="m 214.22391,998.2783 c 0.98125,0 1.77875,-0.7962 1.77875,-1.7787 0,-0.98252 -0.7975,-1.77877 -1.77875,-1.77877 -0.98125,0 -1.7775,0.79625 -1.7775,1.77877 0,0.9825 0.79625,1.7787 1.7775,1.7787"
       style="fill:#000000;fill-opacity:1;fill-rule:nonzero;stroke:none"
       id="path3685" />
    <path
       inkscape:connector-curvature="0"
       d="m 214.26141,966.14208 0,-2.63125 9.43375,0 m 0.0875,-64.32374 -42.2425,0 0,97.47121"
       style="fill:none;stroke:#000000;stroke-width:0.68125004;stroke-linecap:butt;stroke-linejoin:miter;stroke-miterlimit:10;stroke-opacity:1;stroke-dasharray:none"
       id="path3687" />
    <text
       style="font-size:14.9948082px"
       y="850.15973"
       x="78.156212"
       transform="scale(0.99965391,1.0003462)"
       id="text3689">
      <tspan
         style="font-size:6.3193121px;font-variant:normal;font-weight:normal;writing-mode:lr-tb;fill:#000000;fill-opacity:1;fill-rule:nonzero;stroke:none;font-family:Helvetica;-inkscape-font-specification:Helvetica"
         x="78.156212 79.912979 84.475525 88.336632 92.551605 97.468033 102.03058 105.77792 109.63902 113.854"
         y="850.15973"
         sodipodi:role="line"
         id="tspan3691">INTEGRATED</tspan>
      <tspan
         style="font-size:6.3193121px;font-variant:normal;font-weight:normal;writing-mode:lr-tb;fill:#000000;fill-opacity:1;fill-rule:nonzero;stroke:none;font-family:Helvetica;-inkscape-font-specification:Helvetica"
         x="82.840721 87.403259 91.965805 96.528351 101.0909 105.30588 109.86842"
         y="857.93756"
         sodipodi:role="line"
         id="tspan3693">CURRENT</tspan>
      <tspan
         style="font-size:6.3193121px;font-variant:normal;font-weight:normal;writing-mode:lr-tb;fill:#000000;fill-opacity:1;fill-rule:nonzero;stroke:none;font-family:Helvetica;-inkscape-font-specification:Helvetica"
         x="84.767479 88.98246 93.89888 98.461426 103.02397 107.58652"
         y="865.71539"
         sodipodi:role="line"
         id="tspan3695">SOURCE</tspan>
      <tspan
         style="font-size:6.3193121px;font-variant:normal;font-weight:normal;writing-mode:lr-tb;fill:#000000;fill-opacity:1;fill-rule:nonzero;stroke:none;font-family:Helvetica;-inkscape-font-specification:Helvetica"
         x="249.16248"
         y="1036.1746"
         id="tspan3697">2</tspan>
    </text>
    <path
       inkscape:connector-curvature="0"
       d="m 245.83516,1031.1483 4.995,9.5975 4.595,-9.5975 -9.59,0 z"
       style="fill:none;stroke:#000000;stroke-width:0.97125;stroke-linecap:butt;stroke-linejoin:miter;stroke-miterlimit:10;stroke-opacity:1;stroke-dasharray:none"
       id="path3699" />
    <text
       style="font-size:14.9948082px"
       y="932.79639"
       x="270.80701"
       transform="scale(0.99965391,1.0003462)"
       id="text3701">
      <tspan
         style="font-size:6.3193121px;font-variant:normal;font-weight:normal;writing-mode:lr-tb;fill:#000000;fill-opacity:1;fill-rule:nonzero;stroke:none;font-family:Helvetica;-inkscape-font-specification:Helvetica"
         x="270.80701"
         y="932.79639"
         id="tspan3703">C</tspan>
    </text>
    <text
       style="font-size:14.99474144px"
       y="933.76361"
       x="275.37085"
       transform="scale(0.99964942,1.0003507)"
       id="text3705">
      <tspan
         style="font-size:5.34712505px;font-variant:normal;font-weight:normal;writing-mode:lr-tb;fill:#000000;fill-opacity:1;fill-rule:nonzero;stroke:none;font-family:Helvetica;-inkscape-font-specification:Helvetica"
         x="275.37085"
         y="933.76361"
         id="tspan3707">2</tspan>
    </text>
    <text
       style="font-size:14.9948082px"
       y="967.14722"
       x="281.44284"
       transform="scale(0.99965391,1.0003462)"
       id="text3709">
      <tspan
         style="font-size:6.3193121px;font-variant:normal;font-weight:normal;writing-mode:lr-tb;fill:#000000;fill-opacity:1;fill-rule:nonzero;stroke:none;font-family:Helvetica;-inkscape-font-specification:Helvetica"
         x="281.44284"
         y="967.14722"
         id="tspan3711">V</tspan>
    </text>
    <text
       style="font-size:14.99474144px"
       y="968.11438"
       x="285.65909"
       transform="scale(0.99964942,1.0003507)"
       id="text3713">
      <tspan
         style="font-size:5.34712505px;font-variant:normal;font-weight:normal;writing-mode:lr-tb;fill:#000000;fill-opacity:1;fill-rule:nonzero;stroke:none;font-family:Helvetica;-inkscape-font-specification:Helvetica"
         x="285.65909 289.8186 293.67871"
         y="968.11438"
         sodipodi:role="line"
         id="tspan3715">OUT</tspan>
    </text>
    <path
       inkscape:connector-curvature="0"
       d="m 214.32141,965.37458 c 0.98125,0 1.7775,-0.79625 1.7775,-1.77875 0,-0.9825 -0.79625,-1.77875 -1.7775,-1.77875 -0.98375,0 -1.78,0.79625 -1.78,1.77875 0,0.9825 0.79625,1.77875 1.78,1.77875"
       style="fill:#000000;fill-opacity:1;fill-rule:nonzero;stroke:none"
       id="path3717" />
    <path
       inkscape:connector-curvature="0"
       d="m 250.50641,996.0096 0,35.3362"
       style="fill:none;stroke:#000000;stroke-width:0.68125004;stroke-linecap:butt;stroke-linejoin:miter;stroke-miterlimit:4;stroke-opacity:1;stroke-dasharray:none"
       id="path3719" />
    <path
       inkscape:connector-curvature="0"
       d="m 52.760161,1030.1746 4.995,9.5987 4.595,-9.5987 -9.59,0 z"
       style="fill:none;stroke:#000000;stroke-width:0.97125;stroke-linecap:butt;stroke-linejoin:miter;stroke-miterlimit:10;stroke-opacity:1;stroke-dasharray:none"
       id="path3721" />
    <path
       inkscape:connector-curvature="0"
       d="m 16.095161,934.73959 c 1.51875,0 2.74875,-1.23125 2.74875,-2.75125 0,-1.51875 -1.23,-2.75 -2.74875,-2.75 -1.51875,0 -2.75,1.23125 -2.75,2.75 0,1.52 1.23125,2.75125 2.75,2.75125 z"
       style="fill:#ffffff;fill-opacity:1;fill-rule:nonzero;stroke:#000000;stroke-width:0.68125004;stroke-linecap:butt;stroke-linejoin:miter;stroke-miterlimit:10;stroke-opacity:1;stroke-dasharray:none"
       id="path3723" />
    <path
       inkscape:connector-curvature="0"
       d="m 37.995161,902.32209 c 1.5175,0 2.74875,-1.23125 2.74875,-2.75125 0,-1.51875 -1.23125,-2.75 -2.74875,-2.75 -1.51875,0 -2.75,1.23125 -2.75,2.75 0,1.52 1.23125,2.75125 2.75,2.75125 z"
       style="fill:#ffffff;fill-opacity:1;fill-rule:nonzero;stroke:#000000;stroke-width:0.68125004;stroke-linecap:butt;stroke-linejoin:miter;stroke-miterlimit:10;stroke-opacity:1;stroke-dasharray:none"
       id="path3727" />
    <path
       inkscape:connector-curvature="0"
       d="m 276.45891,967.48208 c 1.5175,0 2.74875,-1.23125 2.74875,-2.75125 0,-1.51875 -1.23125,-2.75125 -2.74875,-2.75125 -1.5175,0 -2.74875,1.2325 -2.74875,2.75125 0,1.52 1.23125,2.75125 2.74875,2.75125 z"
       style="fill:#ffffff;fill-opacity:1;fill-rule:nonzero;stroke:#000000;stroke-width:0.68125004;stroke-linecap:butt;stroke-linejoin:miter;stroke-miterlimit:10;stroke-opacity:1;stroke-dasharray:none"
       id="path3731" />
    <path
       inkscape:connector-curvature="0"
       d="m 237.89391,900.09709 36.46,0"
       style="fill:none;stroke:#000000;stroke-width:0.68125004;stroke-linecap:butt;stroke-linejoin:miter;stroke-miterlimit:4;stroke-opacity:1;stroke-dasharray:none"
       id="path3735" />
    <text
       style="font-size:14.9948082px"
       y="902.67859"
       x="282.22534"
       transform="scale(0.99965391,1.0003462)"
       id="text3737">
      <tspan
         style="font-size:6.3193121px;font-variant:normal;font-weight:normal;writing-mode:lr-tb;fill:#000000;fill-opacity:1;fill-rule:nonzero;stroke:none;font-family:Helvetica;-inkscape-font-specification:Helvetica"
         x="282.22534"
         y="902.67859"
         id="tspan3739">V</tspan>
    </text>
    <text
       style="font-size:14.99474144px"
       y="903.64594"
       x="286.44162"
       transform="scale(0.99964942,1.0003507)"
       id="text3741">
      <tspan
         style="font-size:5.34712505px;font-variant:normal;font-weight:normal;writing-mode:lr-tb;fill:#000000;fill-opacity:1;fill-rule:nonzero;stroke:none;font-family:Helvetica;-inkscape-font-specification:Helvetica"
         x="286.44162 290.3017 294.16177"
         y="903.64594"
         sodipodi:role="line"
         id="tspan3743">DD2</tspan>
    </text>
    <path
       inkscape:connector-curvature="0"
       d="m 276.94391,902.99084 c 1.51875,0 2.75,-1.23125 2.75,-2.75125 0,-1.51875 -1.23125,-2.75 -2.75,-2.75 -1.5175,0 -2.74875,1.23125 -2.74875,2.75 0,1.52 1.23125,2.75125 2.74875,2.75125 z"
       style="fill:#ffffff;fill-opacity:1;fill-rule:nonzero;stroke:#000000;stroke-width:0.68125004;stroke-linecap:butt;stroke-linejoin:miter;stroke-miterlimit:10;stroke-opacity:1;stroke-dasharray:none"
       id="path3745" />
    <text
       style="font-size:14.9948082px"
       y="982.21625"
       x="274.49478"
       transform="scale(0.99965391,1.0003462)"
       id="text3749">
      <tspan
         style="font-size:6.3193121px;font-variant:normal;font-weight:normal;writing-mode:lr-tb;fill:#000000;fill-opacity:1;fill-rule:nonzero;stroke:none;font-family:Helvetica;-inkscape-font-specification:Helvetica"
         x="274.49478 279.05734 284.32132 289.23776"
         y="982.21625"
         sodipodi:role="line"
         id="tspan3751">CMOS</tspan>
      <tspan
         style="font-size:6.3193121px;font-variant:normal;font-weight:normal;writing-mode:lr-tb;fill:#000000;fill-opacity:1;fill-rule:nonzero;stroke:none;font-family:Helvetica;-inkscape-font-specification:Helvetica"
         x="266.2424 270.4574 275.01993 279.23489 283.79745 285.90179 290.11676 294.67932 298.19284"
         y="989.99408"
         sodipodi:role="line"
         id="tspan3753">PUSH-PULL</tspan>
      <tspan
         style="font-size:6.3193121px;font-variant:normal;font-weight:normal;writing-mode:lr-tb;fill:#000000;fill-opacity:1;fill-rule:nonzero;stroke:none;font-family:Helvetica;-inkscape-font-specification:Helvetica"
         x="270.98505 275.90146 280.46402 284.3251 288.5401 293.10263"
         y="997.77197"
         sodipodi:role="line"
         id="tspan3755">OUTPUT</tspan>
      <tspan
         style="font-size:6.3193121px;font-variant:normal;font-weight:normal;writing-mode:lr-tb;fill:#000000;fill-opacity:1;fill-rule:nonzero;stroke:none;font-family:Helvetica;-inkscape-font-specification:Helvetica"
         x="273.4957 277.71069 281.10416 285.31915 290.23557"
         y="1005.5497"
         sodipodi:role="line"
         id="tspan3757">STAGE</tspan>
    </text>
    <path
       inkscape:connector-curvature="0"
       d="m 270.30766,982.61708 -25.6725,-8.26625"
       style="fill:none;stroke:#000000;stroke-width:0.68125004;stroke-linecap:butt;stroke-linejoin:miter;stroke-miterlimit:4;stroke-opacity:1;stroke-dasharray:none"
       id="path3759" />
    <path
       inkscape:connector-curvature="0"
       d="m 246.51391,972.90208 -7.6275,-0.36125 6.42375,4.12875 1.20375,-3.7675"
       style="fill:#000000;fill-opacity:1;fill-rule:nonzero;stroke:none"
       id="path3761" />
    <path
       inkscape:connector-curvature="0"
       d="M 45.688911,959.01958 86.158912,948.42833"
       style="fill:none;stroke:#000000;stroke-width:0.68125004;stroke-linecap:butt;stroke-linejoin:miter;stroke-miterlimit:4;stroke-opacity:1;stroke-dasharray:none"
       id="path3763" />
    <path
       inkscape:connector-curvature="0"
       d="m 85.255162,950.62208 6.785,-3.5025 -7.62625,-0.3625 0.84125,3.865"
       style="fill:#000000;fill-opacity:1;fill-rule:nonzero;stroke:none"
       id="path3765" />
    <path
       inkscape:connector-curvature="0"
       d="m 103.10891,868.28334 36.4125,56.68875"
       style="fill:none;stroke:#000000;stroke-width:0.68125004;stroke-linecap:butt;stroke-linejoin:miter;stroke-miterlimit:4;stroke-opacity:1;stroke-dasharray:none"
       id="path3767" />
    <path
       inkscape:connector-curvature="0"
       d="m 137.14766,924.89459 5.65125,5.13625 -2.32875,-7.27625 -3.3225,2.14"
       style="fill:#000000;fill-opacity:1;fill-rule:nonzero;stroke:none"
       id="path3769" />
    <text
       style="font-size:14.9948082px"
       y="933.52551"
       x="2.6513274"
       transform="scale(0.99965391,1.0003462)"
       id="text3771">
      <tspan
         style="font-size:6.3193121px;font-variant:normal;font-weight:normal;writing-mode:lr-tb;fill:#000000;fill-opacity:1;fill-rule:nonzero;stroke:none;font-family:Helvetica;-inkscape-font-specification:Helvetica"
         x="2.6513274"
         y="933.52551"
         id="tspan3773">V</tspan>
    </text>
    <text
       style="font-size:14.99474144px"
       y="934.49274"
       x="6.8663182"
       transform="scale(0.99964942,1.0003507)"
       id="text3775">
      <tspan
         style="font-size:5.34712505px;font-variant:normal;font-weight:normal;writing-mode:lr-tb;fill:#000000;fill-opacity:1;fill-rule:nonzero;stroke:none;font-family:Helvetica;-inkscape-font-specification:Helvetica"
         x="6.8663182 8.3528185"
         y="934.49274"
         sodipodi:role="line"
         id="tspan3777">IN</tspan>
    </text>
    <text
       style="font-size:14.9948082px"
       y="899.7417"
       x="18.401278"
       transform="scale(0.99965391,1.0003462)"
       id="text3779">
      <tspan
         style="font-size:6.3193121px;font-variant:normal;font-weight:normal;writing-mode:lr-tb;fill:#000000;fill-opacity:1;fill-rule:nonzero;stroke:none;font-family:Helvetica;-inkscape-font-specification:Helvetica"
         x="18.401278"
         y="899.7417"
         id="tspan3781">V</tspan>
    </text>
    <text
       style="font-size:14.99474144px"
       y="900.70911"
       x="22.616459"
       transform="scale(0.99964942,1.0003507)"
       id="text3783">
      <tspan
         style="font-size:5.34712505px;font-variant:normal;font-weight:normal;writing-mode:lr-tb;fill:#000000;fill-opacity:1;fill-rule:nonzero;stroke:none;font-family:Helvetica;-inkscape-font-specification:Helvetica"
         x="22.616459 26.476547 30.336639"
         y="900.70911"
         sodipodi:role="line"
         id="tspan3785">DD1</tspan>
    </text>
    <path
       inkscape:connector-curvature="0"
       d="m 146.11516,945.80709 c 4.31625,0 7.81625,-3.5025 7.81625,-7.8225 0,-4.32 -3.5,-7.8225 -7.81625,-7.8225 -4.31875,0 -7.8175,3.5025 -7.8175,7.8225 0,4.32 3.49875,7.8225 7.8175,7.8225 z"
       style="fill:#ffffff;fill-opacity:1;fill-rule:nonzero;stroke:#000000;stroke-width:0.97125;stroke-linecap:butt;stroke-linejoin:miter;stroke-miterlimit:4;stroke-opacity:1;stroke-dasharray:none"
       id="path3787" />
    <path
       inkscape:connector-curvature="0"
       d="m 146.00516,942.49959 1.5675,-4.8125 -1.4575,0.5825 -1.4225,-0.6925 1.3125,4.9225 z"
       style="fill:#000000;fill-opacity:1;fill-rule:nonzero;stroke:#000000;stroke-width:0.48624998;stroke-linecap:butt;stroke-linejoin:miter;stroke-miterlimit:10;stroke-opacity:1;stroke-dasharray:none"
       id="path3791" />
    <path
       inkscape:connector-curvature="0"
       d="m 146.11516,938.99959 0,-6.07875"
       style="fill:none;stroke:#000000;stroke-width:0.97125;stroke-linecap:butt;stroke-linejoin:miter;stroke-miterlimit:4;stroke-opacity:1;stroke-dasharray:none"
       id="path3793" />
    <path
       inkscape:connector-curvature="0"
       d="m 209.40141,973.66208 4.67875,3.5825 -4.65625,3.76625 -0.0225,-7.34875 z"
       style="fill:#000000;fill-opacity:1;fill-rule:nonzero;stroke:#000000;stroke-width:0.0875;stroke-linecap:butt;stroke-linejoin:miter;stroke-miterlimit:10;stroke-opacity:1;stroke-dasharray:none"
       id="path3795" />
    <path
       inkscape:connector-curvature="0"
       d="m 209.40141,977.16708 -3.0375,0"
       style="fill:none;stroke:#000000;stroke-width:0.68125004;stroke-linecap:butt;stroke-linejoin:miter;stroke-miterlimit:4;stroke-opacity:1;stroke-dasharray:none"
       id="path3797" />
    <path
       inkscape:connector-curvature="0"
       d="m 206.36391,980.32708 0,-12.6425"
       style="fill:none;stroke:#000000;stroke-width:0.97125;stroke-linecap:butt;stroke-linejoin:miter;stroke-miterlimit:4;stroke-opacity:1;stroke-dasharray:none"
       id="path3799" />
    <path
       inkscape:connector-curvature="0"
       d="m 206.36391,970.35958 7.89625,0 0,-4.49875 m 0,11.4275 0,19.36997"
       style="fill:none;stroke:#000000;stroke-width:0.68125004;stroke-linecap:butt;stroke-linejoin:miter;stroke-miterlimit:4;stroke-opacity:1;stroke-dasharray:none"
       id="path3801" />
    <path
       inkscape:connector-curvature="0"
       d="m 203.32641,970.35958 0,6.92875"
       style="fill:none;stroke:#000000;stroke-width:0.97125;stroke-linecap:butt;stroke-linejoin:miter;stroke-miterlimit:4;stroke-opacity:1;stroke-dasharray:none"
       id="path3803" />
    <path
       inkscape:connector-curvature="0"
       d="m 203.32641,973.64083 -3.5225,0 0,-26.5825 m 14.7475,-27.12874 -8.21625,0"
       style="fill:none;stroke:#000000;stroke-width:0.68125004;stroke-linecap:butt;stroke-linejoin:miter;stroke-miterlimit:4;stroke-opacity:1;stroke-dasharray:none"
       id="path3805" />
    <path
       inkscape:connector-curvature="0"
       d="m 206.33516,923.08959 0,-12.64375"
       style="fill:none;stroke:#000000;stroke-width:0.97125;stroke-linecap:butt;stroke-linejoin:miter;stroke-miterlimit:4;stroke-opacity:1;stroke-dasharray:none"
       id="path3807" />
    <path
       inkscape:connector-curvature="0"
       d="m 206.33516,913.12209 7.8975,0 0,-13.935 m 0,20.86375 0,44.18999"
       style="fill:none;stroke:#000000;stroke-width:0.68125004;stroke-linecap:butt;stroke-linejoin:miter;stroke-miterlimit:4;stroke-opacity:1;stroke-dasharray:none"
       id="path3809" />
    <path
       inkscape:connector-curvature="0"
       d="m 203.29766,913.12209 0,6.92875"
       style="fill:none;stroke:#000000;stroke-width:0.97125;stroke-linecap:butt;stroke-linejoin:miter;stroke-miterlimit:4;stroke-opacity:1;stroke-dasharray:none"
       id="path3811" />
    <path
       inkscape:connector-curvature="0"
       d="m 203.29766,916.40334 -3.52125,0 0,23.52375"
       style="fill:none;stroke:#000000;stroke-width:0.68125004;stroke-linecap:butt;stroke-linejoin:miter;stroke-miterlimit:4;stroke-opacity:1;stroke-dasharray:none"
       id="path3813" />
    <path
       inkscape:connector-curvature="0"
       d="m 211.92391,916.68709 -4.67875,-3.58375 4.65625,-3.76625 0.0225,7.35 z"
       style="fill:#000000;fill-opacity:1;fill-rule:nonzero;stroke:#000000;stroke-width:0.0875;stroke-linecap:butt;stroke-linejoin:miter;stroke-miterlimit:10;stroke-opacity:1;stroke-dasharray:none"
       id="path3815" />
    <path
       inkscape:connector-curvature="0"
       d="m 173.11891,963.26708 30.405,-19.61999 -30.405,-19.6225 0,39.24249 z"
       style="fill:#ffffff;fill-opacity:1;fill-rule:nonzero;stroke:#000000;stroke-width:1.45749998;stroke-linecap:butt;stroke-linejoin:miter;stroke-miterlimit:10;stroke-opacity:1;stroke-dasharray:none"
       id="path3817" />
    <path
       inkscape:connector-curvature="0"
       d="m 173.11891,942.82459 -7.775,0 0,53.83371 m 57.835,0.105 -66.95125,0"
       style="fill:none;stroke:#000000;stroke-width:0.68125004;stroke-linecap:butt;stroke-linejoin:miter;stroke-miterlimit:4;stroke-opacity:1;stroke-dasharray:none"
       id="path3819" />
    <path
       inkscape:connector-curvature="0"
       d="m 170.58266,978.50333 -5.4525,-6.73875 -4.97,6.73875 10.4225,0 z"
       style="fill:#ffffff;fill-opacity:1;fill-rule:nonzero;stroke:#000000;stroke-width:0.97125;stroke-linecap:butt;stroke-linejoin:miter;stroke-miterlimit:10;stroke-opacity:1;stroke-dasharray:none"
       id="path3821" />
    <path
       inkscape:connector-curvature="0"
       d="m 160.20141,971.84458 10.4225,0"
       style="fill:none;stroke:#000000;stroke-width:0.97125;stroke-linecap:butt;stroke-linejoin:miter;stroke-miterlimit:10;stroke-opacity:1;stroke-dasharray:none"
       id="path3823" />
    <path
       inkscape:connector-curvature="0"
       d="m 94.686412,931.82334 6.802498,0 m 30.44625,6.0075 6.3625,0 m -43.287498,-38.75 50.879998,0 0,31.08125 m -50.879998,66.82001 50.879998,0 0,-51.17501 m -29.17625,-46.72625 0,97.57746"
       style="fill:none;stroke:#000000;stroke-width:0.68125004;stroke-linecap:butt;stroke-linejoin:miter;stroke-miterlimit:10;stroke-opacity:1;stroke-dasharray:none"
       id="path3825" />
    <path
       inkscape:connector-curvature="0"
       d="m 101.53016,957.45208 30.405,-19.62124 -30.405,-19.62125 0,39.24249 z"
       style="fill:#ffffff;fill-opacity:1;fill-rule:nonzero;stroke:#000000;stroke-width:1.45749998;stroke-linecap:butt;stroke-linejoin:miter;stroke-miterlimit:10;stroke-opacity:1;stroke-dasharray:none"
       id="path3827" />
    <path
       inkscape:connector-curvature="0"
       d="m 181.50391,997.9546 c 0.9825,0 1.78,-0.7975 1.78,-1.7788 0,-0.98247 -0.7975,-1.77872 -1.78,-1.77872 -0.98125,0 -1.7775,0.79625 -1.7775,1.77872 0,0.9813 0.79625,1.7788 1.7775,1.7788"
       style="fill:#000000;fill-opacity:1;fill-rule:nonzero;stroke:none"
       id="path3829" />
    <path
       inkscape:connector-curvature="0"
       d="m 250.50641,997.9546 c 0.9825,0 1.77875,-0.7975 1.77875,-1.7788 0,-0.98247 -0.79625,-1.77872 -1.77875,-1.77872 -0.98125,0 -1.7775,0.79625 -1.7775,1.77872 0,0.9813 0.79625,1.7788 1.7775,1.7788"
       style="fill:#000000;fill-opacity:1;fill-rule:nonzero;stroke:none"
       id="path3831" />
    <path
       inkscape:connector-curvature="0"
       d="m 214.22391,900.70084 c 0.98125,0 1.77875,-0.79625 1.77875,-1.77875 0,-0.9825 -0.7975,-1.77875 -1.77875,-1.77875 -0.98125,0 -1.7775,0.79625 -1.7775,1.77875 0,0.9825 0.79625,1.77875 1.7775,1.77875"
       style="fill:#000000;fill-opacity:1;fill-rule:nonzero;stroke:none"
       id="path3833" />
    <path
       inkscape:connector-curvature="0"
       d="m 116.71391,901.02584 c 0.9825,0 1.77875,-0.79625 1.77875,-1.78 0,-0.98125 -0.79625,-1.77875 -1.77875,-1.77875 -0.98125,0 -1.7775,0.7975 -1.7775,1.77875 0,0.98375 0.79625,1.78 1.7775,1.78"
       style="fill:#000000;fill-opacity:1;fill-rule:nonzero;stroke:none"
       id="path3835" />
    <path
       inkscape:connector-curvature="0"
       d="m 116.39141,998.2783 c 0.98,0 1.7775,-0.7962 1.7775,-1.7787 0,-0.98252 -0.7975,-1.77877 -1.7775,-1.77877 -0.9825,0 -1.77875,0.79625 -1.77875,1.77877 0,0.9825 0.79625,1.7787 1.77875,1.7787"
       style="fill:#000000;fill-opacity:1;fill-rule:nonzero;stroke:none"
       id="path3837" />
    <path
       inkscape:connector-curvature="0"
       d="m 57.755161,901.02584 c 0.98125,0 1.77875,-0.79625 1.77875,-1.78 0,-0.98125 -0.7975,-1.77875 -1.77875,-1.77875 -0.98125,0 -1.7775,0.7975 -1.7775,1.77875 0,0.98375 0.79625,1.78 1.7775,1.78"
       style="fill:#000000;fill-opacity:1;fill-rule:nonzero;stroke:none"
       id="path3839" />
    <path
       inkscape:connector-curvature="0"
       d="m 57.755161,998.2783 c 0.98125,0 1.77875,-0.7962 1.77875,-1.7787 0,-0.98252 -0.7975,-1.77877 -1.77875,-1.77877 -0.98125,0 -1.7775,0.79625 -1.7775,1.77877 0,0.9825 0.79625,1.7787 1.7775,1.7787"
       style="fill:#000000;fill-opacity:1;fill-rule:nonzero;stroke:none"
       id="path3841" />
    <path
       inkscape:connector-curvature="0"
       d="m 237.22391,995.84708 25.26875,0 0,-95.79499"
       style="fill:none;stroke:#000000;stroke-width:0.68125004;stroke-linecap:butt;stroke-linejoin:miter;stroke-miterlimit:10;stroke-opacity:1;stroke-dasharray:none"
       id="path3843" />
    <path
       inkscape:connector-curvature="0"
       d="m 259.54266,934.12584 5.83125,0 0,-6.0775 -5.83125,0 0,6.0775 z"
       style="fill:#ffffff;fill-opacity:1;fill-rule:nonzero;stroke:none"
       id="path3845" />
    <path
       inkscape:connector-curvature="0"
       d="m 266.98766,929.53084 -9.0925,0"
       style="fill:none;stroke:#000000;stroke-width:0.97125;stroke-linecap:butt;stroke-linejoin:miter;stroke-miterlimit:10;stroke-opacity:1;stroke-dasharray:none"
       id="path3847" />
    <path
       inkscape:connector-curvature="0"
       d="m 262.56266,929.45084 0,-3.865"
       style="fill:none;stroke:#000000;stroke-width:0.68125004;stroke-linecap:butt;stroke-linejoin:miter;stroke-miterlimit:10;stroke-opacity:1;stroke-dasharray:none"
       id="path3849" />
    <path
       inkscape:connector-curvature="0"
       d="m 266.98766,932.26834 -9.0925,0"
       style="fill:none;stroke:#000000;stroke-width:0.97125;stroke-linecap:butt;stroke-linejoin:miter;stroke-miterlimit:10;stroke-opacity:1;stroke-dasharray:none"
       id="path3851" />
    <path
       inkscape:connector-curvature="0"
       d="m 262.56266,932.34834 0,3.86625"
       style="fill:none;stroke:#000000;stroke-width:0.68125004;stroke-linecap:butt;stroke-linejoin:miter;stroke-miterlimit:10;stroke-opacity:1;stroke-dasharray:none"
       id="path3853" />
    <path
       inkscape:connector-curvature="0"
       d="m 262.49266,901.67334 c 0.9825,0 1.7775,-0.795 1.7775,-1.77875 0,-0.9825 -0.795,-1.77875 -1.7775,-1.77875 -0.9825,0 -1.7775,0.79625 -1.7775,1.77875 0,0.98375 0.795,1.77875 1.7775,1.77875"
       style="fill:#000000;fill-opacity:1;fill-rule:nonzero;stroke:none"
       id="path3855" />
    <path
       inkscape:connector-curvature="0"
       d="m 80.431412,899.40459 -39.846251,0 m 17.17,-0.32375 0,130.96746 m 22.676251,-33.39 -23.000001,0"
       style="fill:none;stroke:#000000;stroke-width:0.68125004;stroke-linecap:butt;stroke-linejoin:miter;stroke-miterlimit:4;stroke-opacity:1;stroke-dasharray:none"
       id="path3857" />
    <text
       style="font-size:14.9948082px"
       y="915.7829"
       x="64.864235"
       transform="scale(0.99965391,1.0003462)"
       id="text3859">
      <tspan
         style="font-size:6.3193121px;font-variant:normal;font-weight:normal;writing-mode:lr-tb;fill:#000000;fill-opacity:1;fill-rule:nonzero;stroke:none;font-family:Helvetica;-inkscape-font-specification:Helvetica"
         x="64.864235"
         y="915.7829"
         id="tspan3861">C</tspan>
    </text>
    <text
       style="font-size:14.99474144px"
       y="916.75037"
       x="69.427124"
       transform="scale(0.99964942,1.0003507)"
       id="text3863">
      <tspan
         style="font-size:5.34712505px;font-variant:normal;font-weight:normal;writing-mode:lr-tb;fill:#000000;fill-opacity:1;fill-rule:nonzero;stroke:none;font-family:Helvetica;-inkscape-font-specification:Helvetica"
         x="69.427124"
         y="916.75037"
         id="tspan3865">1</tspan>
    </text>
    <path
       inkscape:connector-curvature="0"
       d="m 54.763911,916.88459 5.83125,0 0,-6.0775 -5.83125,0 0,6.0775 z"
       style="fill:#ffffff;fill-opacity:1;fill-rule:nonzero;stroke:none"
       id="path3867" />
    <path
       inkscape:connector-curvature="0"
       d="m 62.210161,912.28834 -9.0925,0"
       style="fill:none;stroke:#000000;stroke-width:0.97125;stroke-linecap:butt;stroke-linejoin:miter;stroke-miterlimit:10;stroke-opacity:1;stroke-dasharray:none"
       id="path3869" />
    <path
       inkscape:connector-curvature="0"
       d="m 57.783911,912.20834 0,-3.86625"
       style="fill:none;stroke:#000000;stroke-width:0.68125004;stroke-linecap:butt;stroke-linejoin:miter;stroke-miterlimit:10;stroke-opacity:1;stroke-dasharray:none"
       id="path3871" />
    <path
       inkscape:connector-curvature="0"
       d="m 62.210161,915.02584 -9.0925,0"
       style="fill:none;stroke:#000000;stroke-width:0.97125;stroke-linecap:butt;stroke-linejoin:miter;stroke-miterlimit:10;stroke-opacity:1;stroke-dasharray:none"
       id="path3873" />
    <path
       inkscape:connector-curvature="0"
       d="m 57.783911,915.10584 0,3.86625"
       style="fill:none;stroke:#000000;stroke-width:0.68125004;stroke-linecap:butt;stroke-linejoin:miter;stroke-miterlimit:10;stroke-opacity:1;stroke-dasharray:none"
       id="path3875" />
    <text
       style="font-size:14.9948082px"
       y="1047.8833"
       x="19.293589"
       transform="scale(0.99965391,1.0003462)"
       id="text3891">
      <tspan
         style="font-size:6.3193121px;font-variant:normal;font-weight:normal;writing-mode:lr-tb;fill:#000000;fill-opacity:1;fill-rule:nonzero;stroke:none;font-family:Helvetica;-inkscape-font-specification:Helvetica"
         x="19.293589"
         sodipodi:role="line"
         id="tspan3893"
         y="1047.8833" />
    </text>
    <path
       inkscape:connector-curvature="0"
       d="m 151.41766,972.06083 -5.4525,6.74 -4.97125,-6.74 10.42375,0 z"
       style="fill:#ffffff;fill-opacity:1;fill-rule:nonzero;stroke:#000000;stroke-width:0.97125;stroke-linecap:butt;stroke-linejoin:miter;stroke-miterlimit:10;stroke-opacity:1;stroke-dasharray:none"
       id="path3911" />
    <path
       inkscape:connector-curvature="0"
       d="m 141.03516,978.71958 10.4225,0"
       style="fill:none;stroke:#000000;stroke-width:0.97125;stroke-linecap:butt;stroke-linejoin:miter;stroke-miterlimit:10;stroke-opacity:1;stroke-dasharray:none"
       id="path3913" />
    <flowRoot
       xml:space="preserve"
       id="flowRoot5335"
       style="fill:black;stroke:none;stroke-opacity:1;stroke-width:1px;stroke-linejoin:miter;stroke-linecap:butt;fill-opacity:1;font-family:Sans;font-style:normal;font-weight:normal;font-size:40px;line-height:125%;letter-spacing:0px;word-spacing:0px"><flowRegion
         id="flowRegion5337"><rect
           id="rect5339"
           width="109.09647"
           height="63.63961"
           x="45.961941"
           y="241.81981" /></flowRegion><flowPara
         id="flowPara5341"></flowPara></flowRoot>  </g>
</svg>
