<?xml version="1.0" encoding="UTF-8" standalone="no"?>
<!-- Created with Inkscape (http://www.inkscape.org/) -->

<svg
   xmlns:ns0="http://www.iki.fi/pav/software/textext/"
   xmlns:dc="http://purl.org/dc/elements/1.1/"
   xmlns:cc="http://creativecommons.org/ns#"
   xmlns:rdf="http://www.w3.org/1999/02/22-rdf-syntax-ns#"
   xmlns:svg="http://www.w3.org/2000/svg"
   xmlns="http://www.w3.org/2000/svg"
   xmlns:sodipodi="http://sodipodi.sourceforge.net/DTD/sodipodi-0.dtd"
   xmlns:inkscape="http://www.inkscape.org/namespaces/inkscape"
   width="180"
   height="100"
   id="svg2"
   inkscape:label="Pozadí"
   version="1.1"
   inkscape:version="0.48.0 r9654"
   sodipodi:docname="patocka_trafo_rozptyl.svg">
  <sodipodi:namedview
     id="base"
     pagecolor="#ffffff"
     bordercolor="#666666"
     borderopacity="1.0"
     inkscape:pageopacity="0.0"
     inkscape:pageshadow="2"
     inkscape:zoom="2.8"
     inkscape:cx="5.2697935"
     inkscape:cy="2.2386178"
     inkscape:document-units="px"
     inkscape:current-layer="layer1"
     showgrid="false"
     inkscape:window-width="1920"
     inkscape:window-height="1125"
     inkscape:window-x="-9"
     inkscape:window-y="-9"
     inkscape:window-maximized="1" />
  <defs
     id="defs33741" />
  <metadata
     id="metadata33744">
    <rdf:RDF>
      <cc:Work
         rdf:about="">
        <dc:format>image/svg+xml</dc:format>
        <dc:type
           rdf:resource="http://purl.org/dc/dcmitype/StillImage" />
        <dc:title />
      </cc:Work>
    </rdf:RDF>
  </metadata>
  <g
     transform="translate(0,-952.36218)"
     id="layer1"
     inkscape:groupmode="layer"
     inkscape:label="Vrstva 1">
    <path
       sodipodi:nodetypes="cccccccccccccccccccccccccccccccccccc"
       inkscape:connector-curvature="0"
       id="path7451"
       style="fill:none;stroke:#000000;stroke-width:0.90000004;stroke-linecap:round;stroke-linejoin:round;stroke-miterlimit:10;stroke-opacity:1;stroke-dasharray:none"
       d="m 100.65552,984.17537 -15.750003,0 c -5.097509,0.29525 -7.769081,3.79545 -7.9,8.1125 l 0,0 c 0,4.3125 3.4875,7.80043 7.8,7.80043 l 0,0 c -4.3125,0 -7.8,3.5 -7.8,7.8 l 0,0 c 0,4.3125 3.4875,7.8 7.8,7.8 l 0,0 c -4.3125,0 -7.8,3.5 -7.8,7.8125 l 0,0 c 0,4.3 3.4875,7.8 7.8,7.8 l 0,0 c -4.3125,0 -7.8,3.4875 -7.8,7.8 l 0,0 c 0.08136,4.5596 4.486648,7.7034 7.9,8.075 l 15.750003,0 m -62.999999,-63.00043 15.75,0 c 4.780832,0.26818 7.913101,3.47094 7.9875,8.1125 l 0,0 c 0,4.3125 -3.4875,7.80043 -7.8,7.80043 l 0,0 c 4.3125,0 7.8,3.5 7.8,7.8 l 0,0 c 0,4.3125 -3.4875,7.8 -7.8,7.8 l 0,0 c 4.3125,0 7.8,3.5 7.8,7.8125 l 0,0 c 0,4.3 -3.4875,7.8 -7.8,7.8 l 0,0 c 4.3125,0 7.8,3.4875 7.8,7.8 l 0,0 c 0.0619,4.9795 -4.177904,8.0361 -7.9875,8.075 l -15.75,0" />
    <path
       inkscape:connector-curvature="0"
       id="path7453"
       style="fill:none;stroke:#000000;stroke-width:0.90000004;stroke-linecap:round;stroke-linejoin:round;stroke-miterlimit:10;stroke-opacity:1;stroke-dasharray:none"
       d="m 37.655521,984.17537 -32.2500001,0" />
    <path
       inkscape:connector-curvature="0"
       id="path7455"
       style="fill:none;stroke:#000000;stroke-width:0.90000004;stroke-linecap:round;stroke-linejoin:round;stroke-miterlimit:10;stroke-opacity:1;stroke-dasharray:none"
       d="m 37.655521,1047.1758 -36.0000001,0" />
    <path
       inkscape:connector-curvature="0"
       id="path7457"
       style="fill:none;stroke:#000000;stroke-width:0.93365717;stroke-linecap:round;stroke-linejoin:round;stroke-miterlimit:10;stroke-opacity:1;stroke-dasharray:none"
       d="m 100.65552,1047.1758 72.64297,0" />
    <path
       inkscape:connector-curvature="0"
       id="path7459"
       style="fill:#ffffff;fill-opacity:1;fill-rule:evenodd;stroke:none"
       d="m 6.7805209,984.48787 c 0,-1.4375 -1.1625,-2.6 -2.6,-2.6 -1.4375,0 -2.6,1.1625 -2.6,2.6 0,1.4375 1.1625,2.6 2.6,2.6 1.4375,0 2.6,-1.1625 2.6,-2.6 z" />
    <path
       inkscape:connector-curvature="0"
       id="path7461"
       style="fill:none;stroke:#000000;stroke-width:0.90000004;stroke-linecap:round;stroke-linejoin:round;stroke-miterlimit:10;stroke-opacity:1;stroke-dasharray:none"
       d="m 6.7805209,984.48787 c 0,-1.4375 -1.1625,-2.6 -2.6,-2.6 -1.4375,0 -2.6,1.1625 -2.6,2.6 0,1.4375 1.1625,2.6 2.6,2.6 1.4375,0 2.6,-1.1625 2.6,-2.6 z" />
    <path
       inkscape:connector-curvature="0"
       id="path7463"
       style="fill:#ffffff;fill-opacity:1;fill-rule:evenodd;stroke:none"
       d="m 6.7805209,1046.9008 c 0,-1.4375 -1.1625,-2.6 -2.6,-2.6 -1.4375,0 -2.6,1.1625 -2.6,2.6 0,1.4375 1.1625,2.6 2.6,2.6 1.4375,0 2.6,-1.1625 2.6,-2.6 z" />
    <path
       inkscape:connector-curvature="0"
       id="path7465"
       style="fill:none;stroke:#000000;stroke-width:0.90000004;stroke-linecap:round;stroke-linejoin:round;stroke-miterlimit:10;stroke-opacity:1;stroke-dasharray:none"
       d="m 6.7805209,1046.9008 c 0,-1.4375 -1.1625,-2.6 -2.6,-2.6 -1.4375,0 -2.6,1.1625 -2.6,2.6 0,1.4375 1.1625,2.6 2.6,2.6 1.4375,0 2.6,-1.1625 2.6,-2.6 z" />
    <text
       y="1020.1255"
       x="18.255476"
       id="text7467"
       style="font-size:15px">
      <tspan
         id="tspan7469"
         y="1020.1255"
         x="18.255476"
         style="font-size:15.00030041px;font-variant:normal;font-weight:normal;writing-mode:lr-tb;fill:#000000;fill-opacity:1;fill-rule:nonzero;stroke:none;font-family:ARIAL;-inkscape-font-specification:ARIAL">L</tspan>
    </text>
    <text
       y="1022.2003"
       x="26.592878"
       id="text7471"
       style="font-size:15px">
      <tspan
         id="tspan7473"
         y="1022.2003"
         x="26.592878"
         style="font-size:9.74790001px;font-variant:normal;font-weight:normal;writing-mode:lr-tb;fill:#000000;fill-opacity:1;fill-rule:nonzero;stroke:none;font-family:ARIAL;-inkscape-font-specification:ARIAL">1</tspan>
    </text>
    <text
       y="1020.1255"
       x="32.018291"
       id="text7475"
       style="font-size:15px">
      <tspan
         id="tspan7477"
         y="1020.1255"
         x="32.018291"
         style="font-size:15.00030041px;font-variant:normal;font-weight:normal;writing-mode:lr-tb;fill:#000000;fill-opacity:1;fill-rule:nonzero;stroke:none;font-family:ARIAL;-inkscape-font-specification:ARIAL">,</tspan>
    </text>
    <text
       y="1020.1255"
       x="36.180889"
       id="text7479"
       style="font-size:15px">
      <tspan
         id="tspan7481"
         y="1020.1255"
         x="36.180889"
         style="font-size:15.00030041px;font-variant:normal;font-weight:normal;writing-mode:lr-tb;fill:#000000;fill-opacity:1;fill-rule:nonzero;stroke:none;font-family:ARIAL;-inkscape-font-specification:ARIAL">N</tspan>
    </text>
    <text
       y="1022.2003"
       x="47.018291"
       id="text7483"
       style="font-size:15px">
      <tspan
         id="tspan7485"
         y="1022.2003"
         x="47.018291"
         style="font-size:9.74790001px;font-variant:normal;font-weight:normal;writing-mode:lr-tb;fill:#000000;fill-opacity:1;fill-rule:nonzero;stroke:none;font-family:ARIAL;-inkscape-font-specification:ARIAL">1</tspan>
    </text>
    <text
       y="1021.5504"
       x="90.980698"
       id="text7487"
       style="font-size:15px">
      <tspan
         id="tspan7489"
         y="1021.5504"
         x="90.980698"
         style="font-size:15.00030041px;font-variant:normal;font-weight:normal;writing-mode:lr-tb;fill:#000000;fill-opacity:1;fill-rule:nonzero;stroke:none;font-family:ARIAL;-inkscape-font-specification:ARIAL">L</tspan>
    </text>
    <text
       y="1023.6252"
       x="99.3181"
       id="text7491"
       style="font-size:15px">
      <tspan
         id="tspan7493"
         y="1023.6252"
         x="99.3181"
         style="font-size:9.74790001px;font-variant:normal;font-weight:normal;writing-mode:lr-tb;fill:#000000;fill-opacity:1;fill-rule:nonzero;stroke:none;font-family:ARIAL;-inkscape-font-specification:ARIAL">2</tspan>
    </text>
    <text
       y="1021.5504"
       x="104.74291"
       id="text7495"
       style="font-size:15px">
      <tspan
         id="tspan7497"
         y="1021.5504"
         x="104.74291"
         style="font-size:15.00030041px;font-variant:normal;font-weight:normal;writing-mode:lr-tb;fill:#000000;fill-opacity:1;fill-rule:nonzero;stroke:none;font-family:ARIAL;-inkscape-font-specification:ARIAL">,</tspan>
    </text>
    <text
       y="1021.5504"
       x="108.9055"
       id="text7499"
       style="font-size:15px">
      <tspan
         id="tspan7501"
         y="1021.5504"
         x="108.9055"
         style="font-size:15.00030041px;font-variant:normal;font-weight:normal;writing-mode:lr-tb;fill:#000000;fill-opacity:1;fill-rule:nonzero;stroke:none;font-family:ARIAL;-inkscape-font-specification:ARIAL">N</tspan>
    </text>
    <text
       y="1023.6252"
       x="119.74291"
       id="text7503"
       style="font-size:15px">
      <tspan
         id="tspan7505"
         y="1023.6252"
         x="119.74291"
         style="font-size:9.74790001px;font-variant:normal;font-weight:normal;writing-mode:lr-tb;fill:#000000;fill-opacity:1;fill-rule:nonzero;stroke:none;font-family:ARIAL;-inkscape-font-specification:ARIAL">2</tspan>
    </text>
    <text
       y="966.91266"
       x="110.61815"
       id="text7507"
       style="font-size:15px">
      <tspan
         id="tspan7509"
         y="966.91266"
         x="110.61815"
         style="font-size:15.00030041px;font-variant:normal;font-weight:normal;writing-mode:lr-tb;fill:#000000;fill-opacity:1;fill-rule:nonzero;stroke:none;font-family:ARIAL;-inkscape-font-specification:ARIAL">Δ</tspan>
    </text>
    <text
       y="966.91266"
       x="120.64318"
       id="text7511"
       style="font-size:15px">
      <tspan
         id="tspan7513"
         y="966.91266"
         x="120.64318"
         style="font-size:15.00030041px;font-variant:normal;font-weight:normal;writing-mode:lr-tb;fill:#000000;fill-opacity:1;fill-rule:nonzero;stroke:none;font-family:ARIAL;-inkscape-font-specification:ARIAL">u</tspan>
    </text>
    <text
       y="968.98785"
       x="128.98058"
       id="text7515"
       style="font-size:15px">
      <tspan
         id="tspan7517"
         y="968.98785"
         x="128.98058"
         style="font-size:9.74790001px;font-variant:normal;font-weight:normal;writing-mode:lr-tb;fill:#000000;fill-opacity:1;fill-rule:nonzero;stroke:none;font-family:ARIAL;-inkscape-font-specification:ARIAL">2</tspan>
    </text>
    <path
       inkscape:connector-curvature="0"
       id="path7519"
       style="fill:none;stroke:#000000;stroke-width:0.90000004;stroke-linecap:round;stroke-linejoin:round;stroke-miterlimit:10;stroke-opacity:1;stroke-dasharray:none"
       d="m 106.74302,984.31287 c -0.1,-2.7375 1.75,-5.05 4.125,-5.15 2.375,-0.1125 4.375,2.0125 4.4625,4.75 0.0125,0.1375 0.0125,0.2625 0,0.4 -0.0875,-2.7375 1.7625,-5.05 4.125,-5.15 2.375,-0.1125 4.375,2.0125 4.475,4.75 0,0.1375 0,0.2625 0,0.4 -0.1,-2.7375 1.75,-5.05 4.125,-5.15 2.375,-0.1125 4.375,2.0125 4.4625,4.75 0.0125,0.1375 0.0125,0.2625 0,0.4 -0.0875,-2.7375 1.75,-5.05 4.125,-5.15 2.375,-0.1125 4.375,2.0125 4.475,4.75 0,0.1375 0,0.2625 0,0.4 m -34.4625,-0.1375 0,0 m 34.5,0 0,0" />
    <path
       inkscape:connector-curvature="0"
       id="path7521"
       style="fill:none;stroke:#000000;stroke-width:0.90000004;stroke-linecap:round;stroke-linejoin:round;stroke-miterlimit:10;stroke-opacity:1;stroke-dasharray:none"
       d="m 106.65552,984.17537 -6,0" />
    <path
       inkscape:connector-curvature="0"
       id="path7523"
       style="fill:none;stroke:#9d3d35;stroke-width:0.90000004;stroke-linecap:round;stroke-linejoin:round;stroke-miterlimit:10;stroke-opacity:1;stroke-dasharray:none"
       d="m 104.40552,975.17537 27.75,0" />
    <path
       inkscape:connector-curvature="0"
       id="path7525"
       style="fill:#9d3d35;fill-opacity:1;fill-rule:evenodd;stroke:none"
       d="m 131.40552,972.17537 8.25,3 -8.25,2.25 0,-5.25 z" />
    <text
       y="998.8631"
       x="120.35571"
       id="text7527"
       style="font-size:15px">
      <tspan
         id="tspan7529"
         y="998.8631"
         x="120.35571"
         style="font-size:15.00030041px;font-variant:normal;font-weight:normal;writing-mode:lr-tb;fill:#000000;fill-opacity:1;fill-rule:nonzero;stroke:none;font-family:ARIAL;-inkscape-font-specification:ARIAL">L</tspan>
    </text>
    <path
       inkscape:connector-curvature="0"
       id="path7459-2"
       style="fill:#ffffff;fill-opacity:1;fill-rule:evenodd;stroke:none"
       d="m 15.226907,999.32948 c 0,-1.43774 -1.1625,-2.60033 -2.6,-2.60033 -1.4375,0 -2.6,1.16259 -2.6,2.60033 0,1.43762 1.1625,2.60012 2.6,2.60012 1.4375,0 2.6,-1.1625 2.6,-2.60012 z" />
    <path
       inkscape:connector-curvature="0"
       id="path7461-8"
       style="fill:none;stroke:#000000;stroke-width:0.90000004;stroke-linecap:round;stroke-linejoin:round;stroke-miterlimit:10;stroke-opacity:1;stroke-dasharray:none"
       d="m 178.74532,984.42947 c 0,-1.4375 -1.1625,-2.60005 -2.6,-2.60005 -1.4375,0 -2.6,1.16255 -2.6,2.60005 0,1.4375 1.1625,2.6 2.6,2.6 1.4375,0 2.6,-1.1625 2.6,-2.6 z" />
    <path
       inkscape:connector-curvature="0"
       id="path7453-9"
       style="fill:none;stroke:#000000;stroke-width:0.90000004;stroke-linecap:round;stroke-linejoin:round;stroke-miterlimit:10;stroke-opacity:1;stroke-dasharray:none"
       d="m 173.45631,984.55568 -32.25,0" />
    <path
       inkscape:connector-curvature="0"
       id="path7461-8-2"
       style="fill:none;stroke:#000000;stroke-width:0.90000004;stroke-linecap:round;stroke-linejoin:round;stroke-miterlimit:10;stroke-opacity:1;stroke-dasharray:none"
       d="m 179.12414,1046.9961 c 0,-1.4375 -1.1625,-2.6001 -2.6,-2.6001 -1.4375,0 -2.6,1.1626 -2.6,2.6001 0,1.4375 1.1625,2.6 2.6,2.6 1.4375,0 2.6,-1.1625 2.6,-2.6 z" />
    <g
       ns0:preamble=""
       ns0:text="$$\\sigma$$\n"
       word-spacing="normal"
       letter-spacing="normal"
       font-size-adjust="none"
       font-stretch="normal"
       font-weight="normal"
       font-variant="normal"
       font-style="normal"
       stroke-miterlimit="10.433"
       xml:space="preserve"
       transform="matrix(1.7938965,0,0,-1.7938965,-575.6153,2272.2282)"
       id="content"
       style="font-style:normal;font-variant:normal;font-weight:normal;font-stretch:normal;letter-spacing:normal;word-spacing:normal;text-anchor:start;fill:none;stroke:#000000;stroke-linecap:butt;stroke-linejoin:miter;stroke-miterlimit:10.43299961;stroke-opacity:1;stroke-dasharray:none;stroke-dashoffset:0">
<path
   id="path33943"
   d="m 397.43,710.84 0.01,0 0.01,0 0.02,0 0.02,0 0.01,0 0.02,0 0.02,0 0.02,0 0.02,0 0.02,0.01 0.02,0 0.02,0 0.02,0.01 0.02,0.01 0.02,0 0.02,0.01 0.02,0.01 0.02,0.01 0.02,0.01 0.01,0.01 0.02,0.01 0.02,0.02 0.01,0 0,0.01 0.01,0.01 0.01,0.01 0,0.01 0.01,0.01 0.01,0.01 0,0.01 0.01,0.01 0,0.01 0.01,0.01 0,0.01 0,0.02 0.01,0.01 0,0.01 0,0.02 0,0.01 0,0.02 0,0.01 0.01,0.02 c 0,0.23 -0.21,0.23 -0.39,0.23 h -2.28 c -1.5,0 -2.61,-1.64 -2.61,-2.82 0,-0.88 0.59,-1.57 1.5,-1.57 l 0.01,0.21 c -0.49,0 -0.89,0.36 -0.89,1.08 0,0.3 0.12,1.11 0.47,1.7 0.42,0.69 1.01,0.83 1.35,0.83 0.84,0 0.92,-0.66 0.92,-0.97 0,-0.47 -0.2,-1.28 -0.54,-1.79 -0.39,-0.59 -0.92,-0.85 -1.31,-0.85 h 0 l -0.01,-0.21 c 1.17,0 2.5,1.2 2.5,2.73 0,0.17 0,0.65 -0.31,1.09 z"
   inkscape:connector-curvature="0"
   style="fill:#000000;stroke-width:0" />
</g>  </g>
</svg>
