<?xml version="1.0" encoding="UTF-8" standalone="no"?>
<!-- Created with Inkscape (http://www.inkscape.org/) -->

<svg
   xmlns:dc="http://purl.org/dc/elements/1.1/"
   xmlns:cc="http://creativecommons.org/ns#"
   xmlns:rdf="http://www.w3.org/1999/02/22-rdf-syntax-ns#"
   xmlns:svg="http://www.w3.org/2000/svg"
   xmlns="http://www.w3.org/2000/svg"
   xmlns:sodipodi="http://sodipodi.sourceforge.net/DTD/sodipodi-0.dtd"
   xmlns:inkscape="http://www.inkscape.org/namespaces/inkscape"
   id="svg2984"
   version="1.1"
   inkscape:version="0.48.1 "
   width="460"
   height="230"
   xml:space="preserve"
   sodipodi:docname="patocka_BH_curve.pdf"><metadata
     id="metadata2990"><rdf:RDF><cc:Work
         rdf:about=""><dc:format>image/svg+xml</dc:format><dc:type
           rdf:resource="http://purl.org/dc/dcmitype/StillImage" /><dc:title></dc:title></cc:Work></rdf:RDF></metadata><defs
     id="defs2988" /><sodipodi:namedview
     pagecolor="#ffffff"
     bordercolor="#666666"
     borderopacity="1"
     objecttolerance="10"
     gridtolerance="10"
     guidetolerance="10"
     inkscape:pageopacity="0"
     inkscape:pageshadow="2"
     inkscape:window-width="1831"
     inkscape:window-height="1173"
     id="namedview2986"
     showgrid="false"
     inkscape:zoom="2.1434679"
     inkscape:cx="262.11896"
     inkscape:cy="100.64516"
     inkscape:window-x="80"
     inkscape:window-y="-9"
     inkscape:window-maximized="1"
     inkscape:current-layer="g2992" /><g
     id="g2992"
     inkscape:groupmode="layer"
     inkscape:label="VUT_BRNO_Napajeni_elektronickych_zarizeni_Novotny_Vorel_Patocka"
     transform="matrix(1.25,0,0,-1.25,0,230)"><path
       d="m 82.169509,148.59706 -0.42,1.08 -0.72,0.96 -1.26,0.36 -1.32,-0.36 -0.9,-0.96 -0.36,-1.08 0.36,-1.26 0.9,-0.96 1.32,-0.36 1.26,0.36 0.72,0.96 0.42,1.26"
       style="fill:none;stroke:#000000;stroke-width:0.89999998;stroke-linecap:round;stroke-linejoin:round;stroke-miterlimit:10;stroke-opacity:1;stroke-dasharray:none"
       id="path2998"
       inkscape:connector-curvature="0" /><text
       transform="matrix(0,1.0083918,0.99167804,0,0,0)"
       id="text3000"
       x="161.99762"
       y="77.708809"
       style="font-size:11.90013695px"><tspan
         style="font-size:10.76962376px;font-style:italic;font-variant:normal;writing-mode:lr-tb;fill:#000000;fill-opacity:1;fill-rule:nonzero;stroke:none;font-family:Arial;-inkscape-font-specification:Arial Italic"
         x="161.99762"
         y="77.708809"
         id="tspan3002">B</tspan></text>
<path
       d="m 3.6895082,90.577057 169.6200018,0 m -93.540001,82.740003 0,-154.800003"
       style="fill:none;stroke:#000000;stroke-width:0.54000002;stroke-linecap:round;stroke-linejoin:round;stroke-miterlimit:10;stroke-opacity:1;stroke-dasharray:none"
       id="path3004"
       inkscape:connector-curvature="0" /><path
       d="m 65.909508,145.83706 -5.7,-2.22 -5.58,-2.58 -5.16,-3.3 -4.8,-3.9 -4.44,-4.2 -4.02,-4.8 -3.36,-4.98 -2.94,-5.52 -2.22,-5.7 -1.86,-5.94 -0.9,-6.060003 -0.54,-6.06 m 55.380001,57.840003 -4.62,-0.36 -4.620001,-0.96 -4.62,-1.26 m 27.660001,-110.580003 5.94,2.04 5.520001,2.76 5.16,3.3 4.8,3.72 4.44,4.2 4.08,4.8 3.3,5.16 2.94,5.34 2.22,5.76 1.86,5.88 0.9,6.06 0.36,6.3 m -55.320001,-57.9 4.8,0.36 4.62,0.78 4.38,1.44 m 64.980001,115.740003 -78.780001,-2.58 m 0,-115.740003 -78.6600008,-2.58 m 23.2799998,60.48 0,-7.92 -0.9,-7.98 -1.32,-7.68 -2.04,-7.56 -2.58,-7.38 -3.12,-7.38 -3.9,-6.84 -2.0399998,-2.4 -2.58,-2.22 -2.76,-1.8 -2.94,-1.32 m 135.1200018,60.48 0,7.74 0.9,7.920003 1.26,7.74 2.04,7.56 2.58,7.5 3.18,7.2 3.84,7.02 2.04,2.4 2.58,2.22 2.76,1.62 2.94,1.5 m -91.680002,-36.3 -3.54,-3.12 -2.94,-3.54 -2.4,-4.02 -1.86,-4.440004 -1.08,-4.439999 -0.36,-4.56 m 24.180001,28.380003 -3.18,-0.42 -3.120001,-0.72 -2.94,-1.44 -2.76,-1.68 m 24.180001,-48.480003 3.48,3.12 2.94,3.72 2.400001,4.02 1.68,4.26 1.08,4.62 0.6,4.62 m -24.360001,-28.56 3.3,0.36 3.12,0.9 3,1.32 2.76,1.62 m 21.600001,53.640003 -33.780001,-0.9 m 0,-56.940003 -33.600001,-0.96 m 9.42,29.52 -0.18,-6.48 -0.96,-6.42 -1.62,-6.3 -2.4,-5.88 -4.26,-4.44 m 57.960002,29.52 0.18,6.42 0.9,6.300003 1.68,6.24 2.4,6.06 4.26,4.26"
       style="fill:none;stroke:#000000;stroke-width:0.89999998;stroke-linecap:round;stroke-linejoin:round;stroke-miterlimit:10;stroke-opacity:1;stroke-dasharray:none"
       id="path3006"
       inkscape:connector-curvature="0" /><path
       d="M 83.249509,118.95706 104.30951,96.997057 M 75.509509,118.17706 103.52951,88.537057 m -11.580001,30.420003 13.260001,-13.86 m -5.340001,13.86 7.560001,-7.92 m -38.040002,4.56 32.520002,-34.620003 M 64.229508,111.21706 99.329509,74.137057 M 60.749508,105.09706 95.609509,68.977057 M 57.389508,99.217056 89.549509,65.317057 m -33.960001,26.88 28.560001,-29.82 m -28.560001,20.46 20.100001,-21 m -21.780001,13.98 13.26,-14.22 m -15.12,7.38 7.02,-7.38 m -10.32,2.04 2.04,-2.58 m 57.540002,57.900003 2.04,-2.04 m -80.640002,-4.8 34.5,32.4 m -39.3,-49.380003 56.100001,53.280003 M 24.389508,83.377057 93.989509,148.41706 m -19.38,-29.88 8.1,7.38 m 14.4,2.94 22.680001,20.64 m -19.02,-29.82 32.34,30.6 m -20.16,-30.42 32.7,30.42 m -33.78,-44.64 33.78,31.74 m -27.54,-37.800004 19.98,18.060004 M 60.389508,32.317057 135.68951,103.65706 m -61.680001,-71.340003 60.540001,57.3 m -45.180001,-55.44 43.140001,40.74 m -109.620002,-4.62 35.46,33.540003 m -40.62,-50.700003 38.04,35.94 m -50.0399998,-58.62 47.6399998,44.46 m -33.06,-44.04 31.2,30.18 m -18.48,-30.42 32.52,30.96 m -19.2,-29.82 32.640001,30.24"
       style="fill:none;stroke:#000000;stroke-width:0.54000002;stroke-linecap:round;stroke-linejoin:round;stroke-miterlimit:10;stroke-opacity:1;stroke-dasharray:none"
       id="path3008"
       inkscape:connector-curvature="0" /><path
       d="m 73.289508,149.91706 0,12.48 m -2.94,-5.7 2.94,5.7 2.760001,-5.7 m 79.380001,-73.320003 12.54,0 m -5.7,2.76 5.7,-2.76 -5.7,-2.94"
       style="fill:none;stroke:#000000;stroke-width:0.89999998;stroke-linecap:round;stroke-linejoin:round;stroke-miterlimit:10;stroke-opacity:1;stroke-dasharray:none"
       id="path3010"
       inkscape:connector-curvature="0" /><text
       transform="scale(1.0083918,-0.99167804)"
       id="text3012"
       x="167.82121"
       y="-79.364922"
       style="font-size:11.90013695px"><tspan
         style="font-size:10.76962376px;font-style:italic;font-variant:normal;writing-mode:lr-tb;fill:#000000;fill-opacity:1;fill-rule:nonzero;stroke:none;font-family:Arial;-inkscape-font-specification:Arial Italic"
         x="167.82121"
         y="-79.364922"
         id="tspan3014">H</tspan></text>
<path
       d="m 82.529509,118.53706 -0.36,1.32 -0.96,0.9 -1.26,0.36 -1.14,-0.36 -0.9,-0.9 -0.36,-1.32 0.36,-1.26 0.9,-0.72 1.14,-0.36 1.26,0.36 0.96,0.72 0.36,1.26 m 24.000001,-27.600003 -0.36,1.26 -0.96,0.96 -1.26,0.36 -1.32,-0.36 -0.9,-0.96 -0.18,-1.26 0.18,-1.32 0.9,-0.72 1.32,-0.36 1.26,0.36 0.96,0.72 0.36,1.32 m 31.38,0 -0.42,1.26 -0.9,0.96 -1.26,0.36 -1.14,-0.36 -0.9,-0.96 -0.36,-1.26 0.36,-1.32 0.9,-0.72 1.14,-0.36 1.26,0.36 0.9,0.72 0.42,1.32"
       style="fill:none;stroke:#000000;stroke-width:0.89999998;stroke-linecap:round;stroke-linejoin:round;stroke-miterlimit:10;stroke-opacity:1;stroke-dasharray:none"
       id="path3016"
       inkscape:connector-curvature="0" /><text
       transform="scale(1.0083918,-0.99167804)"
       id="text3018"
       x="82.378212"
       y="-155.17589"
       style="font-size:11.90013695px"><tspan
         style="font-size:10.76962376px;font-style:italic;font-variant:normal;writing-mode:lr-tb;fill:#000000;fill-opacity:1;fill-rule:nonzero;stroke:none;font-family:Arial;-inkscape-font-specification:Arial Italic"
         x="82.378212"
         y="-155.17589"
         id="tspan3020">B</tspan></text>
<text
       transform="scale(0.99163163,-1.008439)"
       id="text3022"
       x="91.031281"
       y="-148.90077"
       style="font-size:11.89958px"><tspan
         style="font-size:7.13974762px;font-style:italic;font-variant:normal;writing-mode:lr-tb;fill:#000000;fill-opacity:1;fill-rule:nonzero;stroke:none;font-family:Arial;-inkscape-font-specification:Arial Italic"
         x="91.031281"
         y="-148.90077"
         id="tspan3024">R</tspan></text>
<text
       transform="scale(0.99163163,-1.008439)"
       id="text3026"
       x="96.234734"
       y="-148.90077"
       style="font-size:11.89958px"><tspan
         style="font-size:7.13974762px;font-variant:normal;font-weight:normal;writing-mode:lr-tb;fill:#000000;fill-opacity:1;fill-rule:nonzero;stroke:none;font-family:Arial;-inkscape-font-specification:Arial"
         x="96.234734"
         y="-148.90077"
         id="tspan3028">1</tspan></text>
<text
       transform="scale(1.0083918,-0.99167804)"
       id="text3030"
       x="83.092232"
       y="-125.22659"
       style="font-size:11.90013695px"><tspan
         style="font-size:10.76962376px;font-style:italic;font-variant:normal;writing-mode:lr-tb;fill:#000000;fill-opacity:1;fill-rule:nonzero;stroke:none;font-family:Arial;-inkscape-font-specification:Arial Italic"
         x="83.092232"
         y="-125.22659"
         id="tspan3032">B</tspan></text>
<text
       transform="scale(0.99163163,-1.008439)"
       id="text3034"
       x="91.757362"
       y="-119.50872"
       style="font-size:11.89958px"><tspan
         style="font-size:7.13974762px;font-style:italic;font-variant:normal;writing-mode:lr-tb;fill:#000000;fill-opacity:1;fill-rule:nonzero;stroke:none;font-family:Arial;-inkscape-font-specification:Arial Italic"
         x="91.757362"
         y="-119.50872"
         id="tspan3036">R</tspan></text>
<text
       transform="scale(0.99163163,-1.008439)"
       id="text3038"
       x="96.960808"
       y="-119.50872"
       style="font-size:11.89958px"><tspan
         style="font-size:7.13974762px;font-variant:normal;font-weight:normal;writing-mode:lr-tb;fill:#000000;fill-opacity:1;fill-rule:nonzero;stroke:none;font-family:Arial;-inkscape-font-specification:Arial"
         x="96.960808"
         y="-119.50872"
         id="tspan3040">2</tspan></text>
<path
       d="m 91.349509,134.97706 15.540001,13.98"
       style="fill:none;stroke:#000000;stroke-width:0.54000002;stroke-linecap:round;stroke-linejoin:round;stroke-miterlimit:10;stroke-opacity:1;stroke-dasharray:none"
       id="path3042"
       inkscape:connector-curvature="0" /><text
       transform="scale(1.0083918,-0.99167804)"
       id="text3044"
       x="104.86947"
       y="-96.063889"
       style="font-size:11.90013695px"><tspan
         style="font-size:10.76962376px;font-style:italic;font-variant:normal;writing-mode:lr-tb;fill:#000000;fill-opacity:1;fill-rule:nonzero;stroke:none;font-family:Arial;-inkscape-font-specification:Arial Italic"
         x="104.86947"
         y="-96.063889"
         id="tspan3046">H</tspan></text>
<text
       transform="scale(0.99163163,-1.008439)"
       id="text3048"
       x="114.50775"
       y="-91.009216"
       style="font-size:11.89958px"><tspan
         style="font-size:7.13974762px;font-style:italic;font-variant:normal;writing-mode:lr-tb;fill:#000000;fill-opacity:1;fill-rule:nonzero;stroke:none;font-family:Arial;-inkscape-font-specification:Arial Italic"
         x="114.50775"
         y="-91.009216"
         id="tspan3050">C</tspan></text>
<text
       transform="scale(0.99163163,-1.008439)"
       id="text3052"
       x="119.7112"
       y="-91.009216"
       style="font-size:11.89958px"><tspan
         style="font-size:7.13974762px;font-variant:normal;font-weight:normal;writing-mode:lr-tb;fill:#000000;fill-opacity:1;fill-rule:nonzero;stroke:none;font-family:Arial;-inkscape-font-specification:Arial"
         x="119.7112"
         y="-91.009216"
         id="tspan3054">2</tspan></text>
<text
       transform="scale(1.0083918,-0.99167804)"
       id="text3056"
       x="135.80981"
       y="-96.063889"
       style="font-size:11.90013695px"><tspan
         style="font-size:10.76962376px;font-style:italic;font-variant:normal;writing-mode:lr-tb;fill:#000000;fill-opacity:1;fill-rule:nonzero;stroke:none;font-family:Arial;-inkscape-font-specification:Arial Italic"
         x="135.80981"
         y="-96.063889"
         id="tspan3058">H</tspan></text>
<text
       transform="scale(0.99163163,-1.008439)"
       id="text3060"
       x="145.91054"
       y="-91.009216"
       style="font-size:11.89958px"><tspan
         style="font-size:7.13974762px;font-style:italic;font-variant:normal;writing-mode:lr-tb;fill:#000000;fill-opacity:1;fill-rule:nonzero;stroke:none;font-family:Arial;-inkscape-font-specification:Arial Italic"
         x="145.91054"
         y="-91.009216"
         id="tspan3062">C</tspan></text>
<text
       transform="scale(0.99163163,-1.008439)"
       id="text3064"
       x="151.17467"
       y="-91.009216"
       style="font-size:11.89958px"><tspan
         style="font-size:7.13974762px;font-variant:normal;font-weight:normal;writing-mode:lr-tb;fill:#000000;fill-opacity:1;fill-rule:nonzero;stroke:none;font-family:Arial;-inkscape-font-specification:Arial"
         x="151.17467"
         y="-91.009216"
         id="tspan3066">1</tspan></text>
<path
       d="m 109.46951,60.697057 1.86,0 0,0.36 -0.18,0.18 -0.24,0.6 -0.72,0.36 -0.18,0 -0.54,0.18 -0.36,0 -0.18,-0.18 -0.6,0 -0.18,-0.36 -0.18,-0.24 -0.36,-0.54 -0.18,-0.18 0,-0.54 0.18,-0.36 0.36,-0.18 0.18,-0.54 0.18,-0.24 0.6,-0.18 1.08,0 0.18,0.18 0.36,0.24 0.36,0.18 0.24,0.36 0.18,0.36 0,0.54 -1.86,0 z"
       style="fill:#000000;fill-opacity:1;fill-rule:evenodd;stroke:#000000;stroke-width:0.89999998;stroke-linecap:round;stroke-linejoin:round;stroke-miterlimit:10;stroke-opacity:1;stroke-dasharray:none"
       id="path3068"
       inkscape:connector-curvature="0" /><path
       d="m 98.369509,107.85706 1.860001,0 0,0.36 -0.18,0.24 -0.180001,0.54 -0.36,0.18 -0.36,0.18 -0.18,0 -0.6,0.18 -0.36,0 -0.18,-0.18 -0.54,0 -0.18,-0.36 -0.18,-0.18 -0.36,-0.6 -0.24,-0.18 0,-0.54 0.24,-0.36 0.36,-0.18 0.18,-0.54 0.18,-0.18 0.54,-0.18 1.14,0 0.18,0.18 0.72,0.36 0.360001,0.72 0,0.54 -1.860001,0 z"
       style="fill:#000000;fill-opacity:1;fill-rule:evenodd;stroke:#000000;stroke-width:0.89999998;stroke-linecap:round;stroke-linejoin:round;stroke-miterlimit:10;stroke-opacity:1;stroke-dasharray:none"
       id="path3070"
       inkscape:connector-curvature="0" /><path
       d="m 155.06951,121.35706 -56.880001,-13.14 m 36.900001,-59.100003 -25.8,11.58"
       style="fill:none;stroke:#000000;stroke-width:0.54000002;stroke-linecap:round;stroke-linejoin:round;stroke-miterlimit:10;stroke-opacity:1;stroke-dasharray:none"
       id="path3072"
       inkscape:connector-curvature="0" /><text
       transform="scale(1.0083918,-0.99167804)"
       id="text3074"
       x="155.56406"
       y="-117.60318"
       style="font-size:11.90013695px"><tspan
         style="font-size:10.76962376px;font-style:italic;font-variant:normal;writing-mode:lr-tb;fill:#000000;fill-opacity:1;fill-rule:nonzero;stroke:none;font-family:Arial;-inkscape-font-specification:Arial Italic"
         x="155.56406"
         y="-117.60318"
         id="tspan3076">W</tspan></text>
<text
       transform="scale(0.99163163,-1.008439)"
       id="text3078"
       x="168.66092"
       y="-112.19048"
       style="font-size:11.89958px"><tspan
         style="font-size:7.13974762px;font-style:italic;font-variant:normal;writing-mode:lr-tb;fill:#000000;fill-opacity:1;fill-rule:nonzero;stroke:none;font-family:Arial;-inkscape-font-specification:Arial Italic"
         x="168.66092"
         y="-112.19048"
         id="tspan3080">2</tspan></text>
<text
       transform="scale(1.0083918,-0.99167804)"
       id="text3082"
       x="169.84422"
       y="-117.60318"
       style="font-size:11.90013695px"><tspan
         style="font-size:10.76962376px;font-style:italic;font-variant:normal;writing-mode:lr-tb;fill:#000000;fill-opacity:1;fill-rule:nonzero;stroke:none;font-family:Arial;-inkscape-font-specification:Arial Italic"
         x="169.84422 176.09169"
         y="-117.60318"
         sodipodi:role="line"
         id="tspan3084">~S</tspan></text>
<text
       transform="scale(0.99163163,-1.008439)"
       id="text3086"
       x="186.32877"
       y="-112.19048"
       style="font-size:11.89958px"><tspan
         style="font-size:7.13974762px;font-style:italic;font-variant:normal;writing-mode:lr-tb;fill:#000000;fill-opacity:1;fill-rule:nonzero;stroke:none;font-family:Arial;-inkscape-font-specification:Arial Italic"
         x="186.32877"
         y="-112.19048"
         id="tspan3088">2</tspan></text>
<text
       transform="scale(1.0083918,-0.99167804)"
       id="text3090"
       x="135.98833"
       y="-44.212387"
       style="font-size:11.90013695px"><tspan
         style="font-size:10.76962376px;font-style:italic;font-variant:normal;writing-mode:lr-tb;fill:#000000;fill-opacity:1;fill-rule:nonzero;stroke:none;font-family:Arial;-inkscape-font-specification:Arial Italic"
         x="135.98833"
         y="-44.212387"
         id="tspan3092">W</tspan></text>
<text
       transform="scale(0.99163163,-1.008439)"
       id="text3094"
       x="148.75433"
       y="-39.84103"
       style="font-size:11.89958px"><tspan
         style="font-size:7.13974762px;font-style:italic;font-variant:normal;writing-mode:lr-tb;fill:#000000;fill-opacity:1;fill-rule:nonzero;stroke:none;font-family:Arial;-inkscape-font-specification:Arial Italic"
         x="148.75433"
         y="-39.84103"
         id="tspan3096">1</tspan></text>
<text
       transform="scale(1.0083918,-0.99167804)"
       id="text3098"
       x="150.26849"
       y="-44.212387"
       style="font-size:11.90013695px"><tspan
         style="font-size:10.76962376px;font-style:italic;font-variant:normal;writing-mode:lr-tb;fill:#000000;fill-opacity:1;fill-rule:nonzero;stroke:none;font-family:Arial;-inkscape-font-specification:Arial Italic"
         x="150.26849 156.51595"
         y="-44.212387"
         sodipodi:role="line"
         id="tspan3100">~S</tspan></text>
<text
       transform="scale(0.99163163,-1.008439)"
       id="text3102"
       x="166.42218"
       y="-39.84103"
       style="font-size:11.89958px"><tspan
         style="font-size:7.13974762px;font-style:italic;font-variant:normal;writing-mode:lr-tb;fill:#000000;fill-opacity:1;fill-rule:nonzero;stroke:none;font-family:Arial;-inkscape-font-specification:Arial Italic"
         x="166.42218"
         y="-39.84103"
         id="tspan3104">1</tspan></text>
<path
       d="m 281.12951,173.13706 0,-154.620003 m -74.4,72.06 151.32,0"
       style="fill:none;stroke:#000000;stroke-width:0.54000002;stroke-linecap:round;stroke-linejoin:round;stroke-miterlimit:10;stroke-opacity:1;stroke-dasharray:none"
       id="path3106"
       inkscape:connector-curvature="0" /><path
       d="m 289.40951,138.81706 -5.7,-5.7 -5.4,-6.24 -4.98,-6.48 -4.2,-7.02 -3.9,-7.14 -3.3,-7.560003 -2.58,-7.74 m 70.86,59.880003 -6.12,-0.18 -6.24,-0.72 -6.12,-1.32 -5.88,-1.68 -5.76,-2.16 -5.52,-2.82 -5.34,-3.3 m -18.84,-96.720003 5.7,5.7 5.4,6.24 4.98,6.66 4.2,6.84 3.9,7.32 3.12,7.38 2.76,7.74 m -71.04,-59.7 6.3,0 6.24,0.78 6.12,1.26 5.88,1.68 5.76,2.4 5.52,2.76 5.34,3.12 m 59.46,108.720003 -3.72,-2.22 -3.3,-2.76 -2.94,-3.3 -2.22,-3.72 m -11.28,-26.88 -5.88,-21.360003 m 16.56,48.240003 -4.02,-8.64 -3.72,-8.82 -2.94,-9.24 m -76.8,-81.480003 3.72,2.22 3.3,2.76 2.94,3.18 2.4,3.66 m 11.28,27.12 5.7,21.36 m -16.56,-48.48 4.2,8.64 3.54,9.06 3.12,9 m 31.92,54.720003 -3.84,-6.06 -3.18,-6.6 -2.76,-6.66 -2.22,-7.020003 -1.44,-6.96 m 33.36,43.080003 -3.84,-0.18 -3.72,-0.72 -3.66,-1.32 -3.36,-1.98 -2.94,-2.4 -2.4,-2.76 m -9.96,-67.620003 3.72,6.06 3.3,6.6 2.76,6.66 2.04,7.02 1.5,6.96 m 14.76,43.320003 -3,-2.76 -2.58,-3.3 -2.16,-3.54 -1.68,-3.66 m 0,0.18 -2.4,-9.78 -1.68,-9.96 -1.26,-9.900003 m -31.56,-42.78 3.12,2.94 2.58,3.12 2.22,3.54 1.68,3.66 m 0,-0.18 2.16,9.78 1.86,9.96 1.14,9.96 m -16.26,-43.5 3.9,0.18 3.66,0.72 3.54,1.5 3.3,1.8 2.94,2.4 2.58,3"
       style="fill:none;stroke:#000000;stroke-width:0.89999998;stroke-linecap:round;stroke-linejoin:round;stroke-miterlimit:10;stroke-opacity:1;stroke-dasharray:none"
       id="path3108"
       inkscape:connector-curvature="0" /><path
       d="m 304.16951,133.65706 18.84,17.52 m -30.84,-20.1 18.84,17.52 m -39.72,-31.32 26.76,26.16 m -33.72,-40.38 18.78,17.52 m -23.76,-29.460003 17.52,16.020003 m -19.74,-26.160003 15.84,14.94 m -18.84,-25.44 17.58,15.84 m -21.06,-27.3 18.84,17.52 m -26.94,-33.54 25.62,23.58 m -30.6,-36.48 18.78,17.52 m -6.78,-15.3 18.78,17.52 m 8.88,8.64 16.26,15.66 m -9.42,-1.08 14.22,13.62 m -10.02,-0.9 14.04,13.439999 m -12.9,-3.659999 16.26,15.240003 m -14.22,-4.92 18.78,17.46 m -17.34,-7.38 23.82,21.78 m -16.8,-7.74 -2.76,2.76 m -0.54,-5.88 -3.54,4.02 m 1.5,-8.1 -5.34,6.06 m 4.26,-10.68 -6.84,7.38 m 5.52,-11.94 -7.38,7.74 m 6.12,-12.72 -9.06,9.54 m 8.46,-14.88 -10.5,10.5 m 9.6,-15.660003 -11.46,12.300003 m 10.56,-17.880003 -12,13.320003 m 11.4,-18.480003 -13.44,14.040003 m 12.18,-18.240003 -13.14,13.44 m 11.82,-18.24 -13.44,13.8 m 11.58,-18.06 -12.18,12.54 m 10.38,-16.92 -11.28,11.22 m 9.24,-15.66 -9.42,10.14 m 7.02,-14.4 -7.92,7.92 m 5.52,-11.58 -6.84,7.2 m 4.26,-10.5 -5.52,6.24 m 2.16,-8.82 -4.74,4.92 m 0.36,-7.32 -2.76,2.94"
       style="fill:none;stroke:#000000;stroke-width:0.54000002;stroke-linecap:round;stroke-linejoin:round;stroke-miterlimit:10;stroke-opacity:1;stroke-dasharray:none"
       id="path3110"
       inkscape:connector-curvature="0" /><path
       d="m 283.46951,130.35706 -0.36,1.26 -0.9,0.96 -1.32,0.36 -1.08,-0.36 -0.9,-0.96 -0.42,-1.26 0.42,-1.08 0.9,-0.96 1.08,-0.36 1.32,0.36 0.9,0.96 0.36,1.08 m 0.24,-12.9 -0.24,1.32 -0.9,0.9 -1.26,0.18 -1.32,-0.18 -0.9,-0.9 -0.18,-1.32 0.18,-1.26 0.9,-0.96 1.32,-0.18 1.26,0.18 0.9,0.96 0.24,1.26 m 7.56,-26.700003 -0.36,1.08 -0.96,0.9 -1.08,0.42 -1.32,-0.42 -0.9,-0.9 -0.36,-1.08 0.36,-1.32 0.9,-0.9 1.32,-0.36 1.08,0.36 0.96,0.9 0.36,1.32 m 11.82,-0.36 -0.42,1.26 -0.9,0.9 -1.08,0.42 -1.32,-0.42 -0.9,-0.9 -0.42,-1.26 0.42,-1.32 0.9,-0.9 1.32,-0.18 1.08,0.18 0.9,0.9 0.42,1.32"
       style="fill:none;stroke:#000000;stroke-width:0.89999998;stroke-linecap:round;stroke-linejoin:round;stroke-miterlimit:10;stroke-opacity:1;stroke-dasharray:none"
       id="path3112"
       inkscape:connector-curvature="0" /><text
       transform="scale(1.0083918,-0.99167804)"
       id="text3114"
       x="259.57126"
       y="-132.66856"
       style="font-size:11.90013695px"><tspan
         style="font-size:10.76962376px;font-style:italic;font-variant:normal;writing-mode:lr-tb;fill:#000000;fill-opacity:1;fill-rule:nonzero;stroke:none;font-family:Arial;-inkscape-font-specification:Arial Italic"
         x="259.57126"
         y="-132.66856"
         id="tspan3116">B</tspan></text>
<text
       transform="scale(0.99163163,-1.008439)"
       id="text3118"
       x="271.15866"
       y="-127.00547"
       style="font-size:11.89958px"><tspan
         style="font-size:7.13974762px;font-style:italic;font-variant:normal;writing-mode:lr-tb;fill:#000000;fill-opacity:1;fill-rule:nonzero;stroke:none;font-family:Arial;-inkscape-font-specification:Arial Italic"
         x="271.15866"
         y="-127.00547"
         id="tspan3120">R</tspan></text>
<text
       transform="scale(0.99163163,-1.008439)"
       id="text3122"
       x="276.42279"
       y="-127.00547"
       style="font-size:11.89958px"><tspan
         style="font-size:7.13974762px;font-variant:normal;font-weight:normal;writing-mode:lr-tb;fill:#000000;fill-opacity:1;fill-rule:nonzero;stroke:none;font-family:Arial;-inkscape-font-specification:Arial"
         x="276.42279"
         y="-127.00547"
         id="tspan3124">1</tspan></text>
<text
       transform="scale(1.0083918,-0.99167804)"
       id="text3126"
       x="241.95906"
       y="-120.62835"
       style="font-size:11.90013695px"><tspan
         style="font-size:10.76962376px;font-style:italic;font-variant:normal;writing-mode:lr-tb;fill:#000000;fill-opacity:1;fill-rule:nonzero;stroke:none;font-family:Arial;-inkscape-font-specification:Arial Italic"
         x="241.95906"
         y="-120.62835"
         id="tspan3128">B</tspan></text>
<text
       transform="scale(0.99163163,-1.008439)"
       id="text3130"
       x="253.30928"
       y="-114.92738"
       style="font-size:11.89958px"><tspan
         style="font-size:7.13974762px;font-style:italic;font-variant:normal;writing-mode:lr-tb;fill:#000000;fill-opacity:1;fill-rule:nonzero;stroke:none;font-family:Arial;-inkscape-font-specification:Arial Italic"
         x="253.30928"
         y="-114.92738"
         id="tspan3132">R</tspan></text>
<text
       transform="scale(0.99163163,-1.008439)"
       id="text3134"
       x="258.51276"
       y="-114.92738"
       style="font-size:11.89958px"><tspan
         style="font-size:7.13974762px;font-variant:normal;font-weight:normal;writing-mode:lr-tb;fill:#000000;fill-opacity:1;fill-rule:nonzero;stroke:none;font-family:Arial;-inkscape-font-specification:Arial"
         x="258.51276"
         y="-114.92738"
         id="tspan3136">2</tspan></text>
<text
       transform="scale(1.0083918,-0.99167804)"
       id="text3138"
       x="301.63824"
       y="-96.42691"
       style="font-size:11.90013695px"><tspan
         style="font-size:10.76962376px;font-style:italic;font-variant:normal;writing-mode:lr-tb;fill:#000000;fill-opacity:1;fill-rule:nonzero;stroke:none;font-family:Arial;-inkscape-font-specification:Arial Italic"
         x="301.63824"
         y="-96.42691"
         id="tspan3140">H</tspan></text>
<text
       transform="scale(0.99163163,-1.008439)"
       id="text3142"
       x="314.54172"
       y="-91.187714"
       style="font-size:11.89958px"><tspan
         style="font-size:7.13974762px;font-style:italic;font-variant:normal;writing-mode:lr-tb;fill:#000000;fill-opacity:1;fill-rule:nonzero;stroke:none;font-family:Arial;-inkscape-font-specification:Arial Italic"
         x="314.54172"
         y="-91.187714"
         id="tspan3144">C</tspan></text>
<text
       transform="scale(0.99163163,-1.008439)"
       id="text3146"
       x="319.74515"
       y="-91.187714"
       style="font-size:11.89958px"><tspan
         style="font-size:7.13974762px;font-variant:normal;font-weight:normal;writing-mode:lr-tb;fill:#000000;fill-opacity:1;fill-rule:nonzero;stroke:none;font-family:Arial;-inkscape-font-specification:Arial"
         x="319.74515"
         y="-91.187714"
         id="tspan3148">1</tspan></text>
<text
       transform="scale(1.0083918,-0.99167804)"
       id="text3150"
       x="305.08926"
       y="-74.161621"
       style="font-size:11.90013695px"><tspan
         style="font-size:10.76962376px;font-style:italic;font-variant:normal;writing-mode:lr-tb;fill:#000000;fill-opacity:1;fill-rule:nonzero;stroke:none;font-family:Arial;-inkscape-font-specification:Arial Italic"
         x="305.08926"
         y="-74.161621"
         id="tspan3152">H</tspan></text>
<text
       transform="scale(0.99163163,-1.008439)"
       id="text3154"
       x="318.1116"
       y="-69.233009"
       style="font-size:11.89958px"><tspan
         style="font-size:7.13974762px;font-style:italic;font-variant:normal;writing-mode:lr-tb;fill:#000000;fill-opacity:1;fill-rule:nonzero;stroke:none;font-family:Arial;-inkscape-font-specification:Arial Italic"
         x="318.1116"
         y="-69.233009"
         id="tspan3156">C</tspan></text>
<text
       transform="scale(0.99163163,-1.008439)"
       id="text3158"
       x="323.31503"
       y="-69.233009"
       style="font-size:11.89958px"><tspan
         style="font-size:7.13974762px;font-variant:normal;font-weight:normal;writing-mode:lr-tb;fill:#000000;fill-opacity:1;fill-rule:nonzero;stroke:none;font-family:Arial;-inkscape-font-specification:Arial"
         x="323.31503"
         y="-69.233009"
         id="tspan3160">2</tspan></text>
<path
       d="m 306.74951,79.837057 -16.26,9.42 m -12.36,28.740003 -19.92,5.16 m 51.66,-73.680003 -25.8,11.58"
       style="fill:none;stroke:#000000;stroke-width:0.54000002;stroke-linecap:round;stroke-linejoin:round;stroke-miterlimit:10;stroke-opacity:1;stroke-dasharray:none"
       id="path3162"
       inkscape:connector-curvature="0" /><path
       d="m 283.46951,61.597057 1.86,0 0,0.42 -0.18,0.18 -0.18,0.54 -0.72,0.36 -0.18,0 -0.6,0.18 -0.36,0 -0.18,-0.18 -0.54,0 -0.18,-0.36 -0.18,-0.18 -0.36,-0.54 -0.18,-0.18 0,-0.6 0.18,-0.36 0.36,-0.18 0.18,-0.54 0.18,-0.18 0.54,-0.18 1.14,0 0.18,0.18 0.72,0.36 0.36,0.72 0,0.54 -1.86,0 z"
       style="fill:#000000;fill-opacity:1;fill-rule:evenodd;stroke:#000000;stroke-width:0.89999998;stroke-linecap:round;stroke-linejoin:round;stroke-miterlimit:10;stroke-opacity:1;stroke-dasharray:none"
       id="path3164"
       inkscape:connector-curvature="0" /><path
       d="m 288.26951,118.17706 1.86,0 0,0.36 -0.18,0.24 -0.18,0.54 -0.36,0.18 -0.36,0.18 -0.18,0 -0.6,0.18 -0.36,0 -0.18,-0.18 -0.54,0 -0.18,-0.36 -0.18,-0.18 -0.36,-0.6 -0.18,-0.18 0,-0.54 0.18,-0.36 0.36,-0.18 0.18,-0.54 0.18,-0.18 0.54,-0.18 1.14,0 0.18,0.18 0.36,0.18 0.36,0.18 0.36,0.72 0,0.54 -1.86,0 z"
       style="fill:#000000;fill-opacity:1;fill-rule:evenodd;stroke:#000000;stroke-width:0.89999998;stroke-linecap:round;stroke-linejoin:round;stroke-miterlimit:10;stroke-opacity:1;stroke-dasharray:none"
       id="path3166"
       inkscape:connector-curvature="0" /><path
       d="m 318.20951,125.55706 -30.12,-7.2"
       style="fill:none;stroke:#000000;stroke-width:0.54000002;stroke-linecap:round;stroke-linejoin:round;stroke-miterlimit:10;stroke-opacity:1;stroke-dasharray:none"
       id="path3168"
       inkscape:connector-curvature="0" /><text
       transform="scale(1.0083918,-0.99167804)"
       id="text3170"
       x="316.81091"
       y="-121.7174"
       style="font-size:11.90013695px"><tspan
         style="font-size:10.76962376px;font-style:italic;font-variant:normal;writing-mode:lr-tb;fill:#000000;fill-opacity:1;fill-rule:nonzero;stroke:none;font-family:Arial;-inkscape-font-specification:Arial Italic"
         x="316.81091"
         y="-121.7174"
         id="tspan3172">W</tspan></text>
<text
       transform="scale(0.99163163,-1.008439)"
       id="text3174"
       x="332.63312"
       y="-115.99844"
       style="font-size:11.89958px"><tspan
         style="font-size:7.13974762px;font-style:italic;font-variant:normal;writing-mode:lr-tb;fill:#000000;fill-opacity:1;fill-rule:nonzero;stroke:none;font-family:Arial;-inkscape-font-specification:Arial Italic"
         x="332.63312"
         y="-115.99844"
         id="tspan3176">2</tspan></text>
<text
       transform="scale(1.0083918,-0.99167804)"
       id="text3178"
       x="331.09106"
       y="-121.7174"
       style="font-size:11.90013695px"><tspan
         style="font-size:10.76962376px;font-style:italic;font-variant:normal;writing-mode:lr-tb;fill:#000000;fill-opacity:1;fill-rule:nonzero;stroke:none;font-family:Arial;-inkscape-font-specification:Arial Italic"
         x="331.09106 337.33853"
         y="-121.7174"
         sodipodi:role="line"
         id="tspan3180">~S</tspan></text>
<text
       transform="scale(0.99163163,-1.008439)"
       id="text3182"
       x="350.30096"
       y="-115.99844"
       style="font-size:11.89958px"><tspan
         style="font-size:7.13974762px;font-style:italic;font-variant:normal;writing-mode:lr-tb;fill:#000000;fill-opacity:1;fill-rule:nonzero;stroke:none;font-family:Arial;-inkscape-font-specification:Arial Italic"
         x="350.30096"
         y="-115.99844"
         id="tspan3184">2</tspan></text>
<text
       transform="scale(1.0083918,-0.99167804)"
       id="text3186"
       x="308.59982"
       y="-44.817421"
       style="font-size:11.90013695px"><tspan
         style="font-size:10.76962376px;font-style:italic;font-variant:normal;writing-mode:lr-tb;fill:#000000;fill-opacity:1;fill-rule:nonzero;stroke:none;font-family:Arial;-inkscape-font-specification:Arial Italic"
         x="308.59982"
         y="-44.817421"
         id="tspan3188">W</tspan></text>
<text
       transform="scale(0.99163163,-1.008439)"
       id="text3190"
       x="324.22272"
       y="-40.376514"
       style="font-size:11.89958px"><tspan
         style="font-size:7.13974762px;font-style:italic;font-variant:normal;writing-mode:lr-tb;fill:#000000;fill-opacity:1;fill-rule:nonzero;stroke:none;font-family:Arial;-inkscape-font-specification:Arial Italic"
         x="324.22272"
         y="-40.376514"
         id="tspan3192">1</tspan></text>
<text
       transform="scale(1.0083918,-0.99167804)"
       id="text3194"
       x="322.87997"
       y="-44.817421"
       style="font-size:11.90013695px"><tspan
         style="font-size:10.76962376px;font-style:italic;font-variant:normal;writing-mode:lr-tb;fill:#000000;fill-opacity:1;fill-rule:nonzero;stroke:none;font-family:Arial;-inkscape-font-specification:Arial Italic"
         x="322.87997 329.12744"
         y="-44.817421"
         sodipodi:role="line"
         id="tspan3196">~S</tspan></text>
<text
       transform="scale(0.99163163,-1.008439)"
       id="text3198"
       x="341.89059"
       y="-40.376514"
       style="font-size:11.89958px"><tspan
         style="font-size:7.13974762px;font-style:italic;font-variant:normal;writing-mode:lr-tb;fill:#000000;fill-opacity:1;fill-rule:nonzero;stroke:none;font-family:Arial;-inkscape-font-specification:Arial Italic"
         x="341.89059"
         y="-40.376514"
         id="tspan3200">1</tspan></text>
<path
       d="m 330.74951,83.377057 12.54,0 m -5.7,2.76 5.7,-2.76 -5.7,-2.94"
       style="fill:none;stroke:#000000;stroke-width:0.89999998;stroke-linecap:round;stroke-linejoin:round;stroke-miterlimit:10;stroke-opacity:1;stroke-dasharray:none"
       id="path3202"
       inkscape:connector-curvature="0" /><text
       transform="scale(1.0083918,-0.99167804)"
       id="text3204"
       x="341.7417"
       y="-79.364922"
       style="font-size:11.90013695px"><tspan
         style="font-size:10.76962376px;font-style:italic;font-variant:normal;writing-mode:lr-tb;fill:#000000;fill-opacity:1;fill-rule:nonzero;stroke:none;font-family:Arial;-inkscape-font-specification:Arial Italic"
         x="341.7417"
         y="-79.364922"
         id="tspan3206">H</tspan></text>
<text
       transform="matrix(0,1.0083918,0.99167804,0,0,0)"
       id="text3208"
       x="161.64063"
       y="279.79053"
       style="font-size:11.90013695px"><tspan
         style="font-size:10.76962376px;font-style:italic;font-variant:normal;writing-mode:lr-tb;fill:#000000;fill-opacity:1;fill-rule:nonzero;stroke:none;font-family:Arial;-inkscape-font-specification:Arial Italic"
         x="161.64063"
         y="279.79053"
         id="tspan3210">B</tspan></text>
<path
       d="m 273.50951,149.49706 0,12.54 m -2.76,-5.7 2.76,5.7 3,-5.7"
       style="fill:none;stroke:#000000;stroke-width:0.89999998;stroke-linecap:round;stroke-linejoin:round;stroke-miterlimit:10;stroke-opacity:1;stroke-dasharray:none"
       id="path3212"
       inkscape:connector-curvature="0" /><text
       xml:space="preserve"
       style="font-size:32px;font-style:normal;font-variant:normal;font-weight:normal;font-stretch:normal;text-align:start;line-height:125%;letter-spacing:0px;word-spacing:0px;writing-mode:lr-tb;text-anchor:start;fill:#000000;fill-opacity:1;stroke:none;font-family:Freestyle Script;-inkscape-font-specification:Freestyle Script"
       x="75.214722"
       y="-3.86008"
       id="text4794"
       sodipodi:linespacing="125%"
       transform="scale(1,-1)"><tspan
         sodipodi:role="line"
         id="tspan4796"
         x="75.214722"
         y="-3.86008"
         style="font-size:19.20000076px">a)</tspan></text>
<text
       xml:space="preserve"
       style="font-size:32px;font-style:normal;font-variant:normal;font-weight:normal;font-stretch:normal;text-align:start;line-height:125%;letter-spacing:0px;word-spacing:0px;writing-mode:lr-tb;text-anchor:start;fill:#000000;fill-opacity:1;stroke:none;font-family:Freestyle Script;-inkscape-font-specification:Freestyle Script"
       x="276.31512"
       y="-4.1239915"
       id="text4798"
       sodipodi:linespacing="125%"
       transform="scale(1,-1)"><tspan
         sodipodi:role="line"
         id="tspan4800"
         x="276.31512"
         y="-4.1239915"
         style="font-size:16px">b)</tspan></text>
</g></svg>