<?xml version="1.0" encoding="UTF-8" standalone="no"?>
<!-- Created with Inkscape (http://www.inkscape.org/) -->

<svg
   xmlns:ns0="http://www.iki.fi/pav/software/textext/"
   xmlns:dc="http://purl.org/dc/elements/1.1/"
   xmlns:cc="http://creativecommons.org/ns#"
   xmlns:rdf="http://www.w3.org/1999/02/22-rdf-syntax-ns#"
   xmlns:svg="http://www.w3.org/2000/svg"
   xmlns="http://www.w3.org/2000/svg"
   xmlns:sodipodi="http://sodipodi.sourceforge.net/DTD/sodipodi-0.dtd"
   xmlns:inkscape="http://www.inkscape.org/namespaces/inkscape"
   id="svg2984"
   version="1.1"
   inkscape:version="0.48.1 "
   width="972"
   height="400"
   xml:space="preserve"
   sodipodi:docname="response_ex10_8_RLC_cir.svg"><sodipodi:namedview
     pagecolor="#ffffff"
     bordercolor="#666666"
     borderopacity="1"
     objecttolerance="10"
     gridtolerance="10"
     guidetolerance="10"
     inkscape:pageopacity="0"
     inkscape:pageshadow="2"
     inkscape:window-width="1920"
     inkscape:window-height="1125"
     id="namedview2986"
     showgrid="false"
     inkscape:zoom="0.84284135"
     inkscape:cx="372.3969"
     inkscape:cy="192.83749"
     inkscape:window-x="0"
     inkscape:window-y="0"
     inkscape:window-maximized="1"
     inkscape:current-layer="g2992" /><metadata
     id="metadata2990"><rdf:RDF><cc:Work
         rdf:about=""><dc:format>image/svg+xml</dc:format><dc:type
           rdf:resource="http://purl.org/dc/dcmitype/StillImage" /><dc:title /></cc:Work></rdf:RDF></metadata><defs
     id="defs2988"><inkscape:path-effect
       is_visible="true"
       id="path-effect4302"
       effect="spiro" /><inkscape:path-effect
       is_visible="true"
       id="path-effect4298"
       effect="spiro" /></defs><g
     transform="matrix(1.25,0,0,-1.25,0,400)"
     inkscape:label="skici"
     inkscape:groupmode="layer"
     id="g2992"><path
   inkscape:connector-curvature="0"
   id="path2994"
   style="fill:none;stroke:#000000;stroke-width:2.25;stroke-linecap:round;stroke-linejoin:round;stroke-miterlimit:10;stroke-opacity:1;stroke-dasharray:none"
   d="m 285.57589,274.32191 67.2,0" /><path
   inkscape:connector-curvature="0"
   id="path2996"
   style="fill:none;stroke:#000000;stroke-width:2.25;stroke-linecap:round;stroke-linejoin:round;stroke-miterlimit:10;stroke-opacity:1;stroke-dasharray:none"
   d="m 220.77589,15.121914 0,259.199996 70.8,0" /><path
   inkscape:connector-curvature="0"
   id="path2998"
   style="fill:#ffffff;fill-opacity:1;fill-rule:evenodd;stroke:none"
   d="m 247.44589,141.96191 c 0,15.26 -12.37,27.63 -27.63,27.63 -15.27,0 -27.64,-12.37 -27.64,-27.63 0,-15.27 12.37,-27.64 27.64,-27.64 15.26,0 27.63,12.37 27.63,27.64 z" /><path
   inkscape:connector-curvature="0"
   id="path3000"
   style="fill:none;stroke:#000000;stroke-width:2.25;stroke-linecap:round;stroke-linejoin:round;stroke-miterlimit:10;stroke-opacity:1;stroke-dasharray:none"
   d="m 247.44589,141.96191 c 0,15.26 -12.37,27.63 -27.63,27.63 -15.27,0 -27.64,-12.37 -27.64,-27.63 0,-15.27 12.37,-27.64 27.64,-27.64 15.26,0 27.63,12.37 27.63,27.64 z" /><path
   inkscape:connector-curvature="0"
   id="path3002"
   style="fill:none;stroke:#000000;stroke-width:2.25;stroke-linecap:round;stroke-linejoin:round;stroke-miterlimit:10;stroke-opacity:1;stroke-dasharray:none"
   d="m 413.37589,259.32191 232.2,0" /><path
   inkscape:connector-curvature="0"
   id="path3004"
   style="fill:none;stroke:#000000;stroke-width:2.25;stroke-linecap:round;stroke-linejoin:round;stroke-miterlimit:10;stroke-opacity:1;stroke-dasharray:none"
   d="m 352.77589,244.32191 0,-229.199996" /><path
   inkscape:connector-curvature="0"
   id="path3006"
   style="fill:#000000;fill-opacity:1;fill-rule:evenodd;stroke:none"
   d="m 353.00589,18.681914 c -1.98,0 -3.58,-1.6 -3.58,-3.57 0,-1.98 1.6,-3.58 3.58,-3.58 0,0 0,0 0,0 1.97,0 3.58,1.6 3.58,3.58 0,1.97 -1.61,3.57 -3.58,3.57 z" /><path
   inkscape:connector-curvature="0"
   id="path3008"
   style="fill:none;stroke:#000000;stroke-width:2.25;stroke-linecap:round;stroke-linejoin:round;stroke-miterlimit:10;stroke-opacity:1;stroke-dasharray:none"
   d="m 352.77589,244.32191 60.6,15" /><path
   inkscape:connector-curvature="0"
   id="path3010"
   style="fill:#ffffff;fill-opacity:1;fill-rule:evenodd;stroke:none"
   d="m 417.04589,259.41191 c 0,2.08 -1.69,3.76 -3.77,3.76 -2.08,0 -3.76,-1.68 -3.76,-3.76 0,0 0,0 0,0 0,-2.08 1.68,-3.77 3.76,-3.77 2.08,0 3.77,1.69 3.77,3.77 z m -60.27,-15.07 c 0,2.08 -1.69,3.77 -3.77,3.77 -2.08,0 -3.77,-1.69 -3.77,-3.77 0,0 0,0 0,0 0,-2.08 1.69,-3.77 3.77,-3.77 2.08,0 3.77,1.69 3.77,3.77 z m 0,30.14 c 0,2.08 -1.69,3.76 -3.77,3.76 -2.08,0 -3.77,-1.68 -3.77,-3.76 0,0 0,0 0,0 0,-2.09 1.69,-3.77 3.77,-3.77 2.08,0 3.77,1.68 3.77,3.77 z" /><path
   inkscape:connector-curvature="0"
   id="path3012"
   style="fill:none;stroke:#000000;stroke-width:2.25;stroke-linecap:round;stroke-linejoin:round;stroke-miterlimit:10;stroke-opacity:1;stroke-dasharray:none"
   d="m 417.04589,259.41191 c 0,2.08 -1.69,3.76 -3.77,3.76 -2.08,0 -3.76,-1.68 -3.76,-3.76 0,0 0,0 0,0 0,-2.08 1.68,-3.77 3.76,-3.77 2.08,0 3.77,1.69 3.77,3.77 z m -60.27,-15.07 c 0,2.08 -1.69,3.77 -3.77,3.77 -2.08,0 -3.77,-1.69 -3.77,-3.77 0,0 0,0 0,0 0,-2.08 1.69,-3.77 3.77,-3.77 2.08,0 3.77,1.69 3.77,3.77 z m 0,30.14 c 0,2.08 -1.69,3.76 -3.77,3.76 -2.08,0 -3.77,-1.68 -3.77,-3.76 0,0 0,0 0,0 0,-2.09 1.69,-3.77 3.77,-3.77 2.08,0 3.77,1.68 3.77,3.77 z" /><path
   inkscape:connector-curvature="0"
   id="path3014"
   style="fill:#ffffff;fill-opacity:1;fill-rule:evenodd;stroke:none"
   d="m 449.97589,249.72191 57,0 0,19.8 -57,0 0,-19.8 z" /><path
   inkscape:connector-curvature="0"
   id="path3016"
   style="fill:none;stroke:#000000;stroke-width:2.25;stroke-linecap:round;stroke-linejoin:round;stroke-miterlimit:10;stroke-opacity:1;stroke-dasharray:none"
   d="m 449.97589,249.72191 57,0 0,19.8 -57,0 0,-19.8 z" /><path
   inkscape:connector-curvature="0"
   id="path3018"
   style="fill:none;stroke:#000000;stroke-width:2.25;stroke-linecap:round;stroke-linejoin:round;stroke-miterlimit:10;stroke-opacity:1;stroke-dasharray:none"
   d="m 546.57589,144.12191 0,-128.999996" /><path
   inkscape:connector-curvature="0"
   id="path3020"
   style="fill:#000000;fill-opacity:1;fill-rule:evenodd;stroke:none"
   d="m 546.50589,18.681914 c -1.98,0 -3.58,-1.6 -3.58,-3.57 0,-1.98 1.6,-3.58 3.58,-3.58 0,0 0,0 0,0 1.97,0 3.58,1.6 3.58,3.58 0,1.97 -1.61,3.57 -3.58,3.57 z" /><path
   inkscape:connector-curvature="0"
   id="path3022"
   style="fill:#ffffff;fill-opacity:1;fill-rule:evenodd;stroke:none"
   d="m 536.37589,53.521914 19.2,0 0,56.399996 -19.2,0 0,-56.399996 z" /><path
   inkscape:connector-curvature="0"
   id="path3024"
   style="fill:none;stroke:#000000;stroke-width:2.25;stroke-linecap:round;stroke-linejoin:round;stroke-miterlimit:10;stroke-opacity:1;stroke-dasharray:none"
   d="m 536.37589,53.521914 19.2,0 0,56.399996 -19.2,0 0,-56.399996 z" /><path
   inkscape:connector-curvature="0"
   id="path3026"
   style="fill:none;stroke:#000000;stroke-width:2.25;stroke-linecap:round;stroke-linejoin:round;stroke-miterlimit:10;stroke-opacity:1;stroke-dasharray:none"
   d="m 662.97589,132.72191 -34.2,0 m 34.2,8.4 -34.2,0" /><path
   inkscape:connector-curvature="0"
   id="path3028"
   style="fill:none;stroke:#000000;stroke-width:2.25;stroke-linecap:round;stroke-linejoin:round;stroke-miterlimit:10;stroke-opacity:1;stroke-dasharray:none"
   d="m 645.57589,94.321914 0,38.399996 m 0,8.4 0,38.4" /><path
   inkscape:connector-curvature="0"
   id="path3030"
   style="fill:none;stroke:#000000;stroke-width:2.25;stroke-linecap:round;stroke-linejoin:round;stroke-miterlimit:10;stroke-opacity:1;stroke-dasharray:none"
   d="m 546.40589,144.08191 c -5.87,-0.2 -10.82,3.76 -11.05,8.85 -0.23,5.08 4.33,9.37 10.2,9.58 0.28,0.01 0.56,0.01 0.85,0 -5.87,-0.21 -10.82,3.75 -11.05,8.84 -0.23,5.09 4.33,9.38 10.2,9.58 0.28,0.01 0.56,0.01 0.85,0 -5.87,-0.2 -10.82,3.76 -11.05,8.85 -0.23,5.09 4.33,9.37 10.2,9.58 0.28,0.01 0.56,0.01 0.85,0 l 0,0 c -5.87,-0.21 -10.82,3.75 -11.05,8.84 -0.23,5.09 4.33,9.38 10.2,9.58 0.28,0.01 0.56,0.01 0.85,0 m 0.17,-73.66 0,0 m 0,73.8 0,0" /><path
   inkscape:connector-curvature="0"
   id="path3032"
   style="fill:none;stroke:#000000;stroke-width:2.25;stroke-linecap:round;stroke-linejoin:round;stroke-miterlimit:10;stroke-opacity:1;stroke-dasharray:none"
   d="m 546.57589,217.92191 0,41.4" /><path
   inkscape:connector-curvature="0"
   id="path3034"
   style="fill:#000000;fill-opacity:1;fill-rule:evenodd;stroke:none"
   d="m 546.50589,255.83191 c 1.97,0 3.58,1.6 3.58,3.58 0,1.97 -1.61,3.58 -3.58,3.58 0,0 0,0 0,0 -1.98,0 -3.58,-1.61 -3.58,-3.58 0,-1.98 1.6,-3.58 3.58,-3.58 z" /><path
   inkscape:connector-curvature="0"
   id="path3036"
   style="fill:none;stroke:#000000;stroke-width:2.25;stroke-linecap:round;stroke-linejoin:round;stroke-miterlimit:10;stroke-opacity:1;stroke-dasharray:none"
   d="m 220.77589,15.121914 424.8,0" /><path
   inkscape:connector-curvature="0"
   id="path3038"
   style="fill:none;stroke:#000000;stroke-width:2.25;stroke-linecap:round;stroke-linejoin:round;stroke-miterlimit:10;stroke-opacity:1;stroke-dasharray:none"
   d="m 645.57589,94.321914 0,-79.2" /><path
   inkscape:connector-curvature="0"
   id="path3040"
   style="fill:none;stroke:#000000;stroke-width:2.25;stroke-linecap:round;stroke-linejoin:round;stroke-miterlimit:10;stroke-opacity:1;stroke-dasharray:none"
   d="m 645.57589,179.52191 0,79.8" /><path
   inkscape:connector-curvature="0"
   id="path3042"
   style="fill:#ffffff;fill-opacity:1;fill-rule:evenodd;stroke:none"
   d="m 380.67589,142.66191 c 0,15.27 -12.37,27.64 -27.64,27.64 -15.26,0 -27.63,-12.37 -27.63,-27.64 0,-15.26 12.37,-27.63 27.63,-27.63 15.27,0 27.64,12.37 27.64,27.63 z" /><path
   inkscape:connector-curvature="0"
   id="path3044"
   style="fill:none;stroke:#000000;stroke-width:2.25;stroke-linecap:round;stroke-linejoin:round;stroke-miterlimit:10;stroke-opacity:1;stroke-dasharray:none"
   d="m 380.67589,142.66191 c 0,15.27 -12.37,27.64 -27.64,27.64 -15.26,0 -27.63,-12.37 -27.63,-27.64 0,-15.26 12.37,-27.63 27.63,-27.63 15.27,0 27.64,12.37 27.64,27.63 z" /><path
   inkscape:connector-curvature="0"
   id="path3046"
   style="fill:none;stroke:#0070c0;stroke-width:2.25;stroke-linecap:round;stroke-linejoin:round;stroke-miterlimit:10;stroke-opacity:1;stroke-dasharray:none"
   d="m 388.29589,278.07191 c -17.89,-20.19 -15.21,-39.13 21.48,-52.95" /><path
   inkscape:connector-curvature="0"
   id="path3048"
   style="fill:#0070c0;fill-opacity:1;fill-rule:evenodd;stroke:none"
   d="m 390.57589,273.72191 7.2,13.8 -13.8,-6.6 6.6,-7.2 z" /><g
   ns0:preamble=""
   ns0:text="$$t=0$$\n"
   word-spacing="normal"
   letter-spacing="normal"
   font-size-adjust="none"
   font-stretch="normal"
   font-weight="normal"
   font-variant="normal"
   font-style="normal"
   stroke-miterlimit="10.433"
   xml:space="preserve"
   transform="matrix(2.6123241,0,0,2.6123241,-630.35132,-1553.6075)"
   id="content"
   style="font-style:normal;font-variant:normal;font-weight:normal;font-stretch:normal;letter-spacing:normal;word-spacing:normal;text-anchor:start;fill:none;stroke:#000000;stroke-width:1;stroke-linecap:butt;stroke-linejoin:miter;stroke-miterlimit:10.43299961;stroke-opacity:1;stroke-dasharray:none;stroke-dashoffset:0">
<path
   id="path3084"
   d="m 386.41,711.11 h 0.94 c 0.2,0 0.3,0 0.3,0.19 0,0.11 -0.1,0.11 -0.28,0.11 h -0.88 c 0.36,1.42 0.41,1.62 0.41,1.68 0,0.17 -0.12,0.26 -0.29,0.26 -0.03,0 -0.31,-0.01 -0.4,-0.35 l -0.39,-1.59 h -0.94 c -0.2,0 -0.3,0 -0.3,-0.19 0,-0.11 0.09,-0.11 0.28,-0.11 h 0.88 c -0.72,-2.83 -0.76,-3 -0.76,-3.18 0,-0.54 0.38,-0.91 0.92,-0.91 1.02,0 1.59,1.45 1.59,1.53 0,0.1 -0.08,0.1 -0.12,0.1 -0.09,0 -0.1,-0.03 -0.15,-0.14 -0.43,-1.04 -0.96,-1.28 -1.3,-1.28 -0.21,0 -0.31,0.13 -0.31,0.46 0,0.24 0.02,0.31 0.06,0.48 z"
   inkscape:connector-curvature="0"
   style="fill:#000000;stroke-width:0" />
<path
   id="path3086"
   d="m 397.57,710.38 0.03,0 0.03,0 0.03,0 0.01,0 0.02,0 0.01,0 0.01,0.01 0.02,0 0.01,0 0.02,0 0.01,0.01 0.01,0 0.01,0 0.02,0.01 0.01,0 0.01,0.01 0.01,0.01 0.01,0.01 0.01,0 0.01,0.01 0.01,0.01 0,0.01 0,0 0.01,0.01 0,0.01 0,0 0.01,0.01 0,0.01 0,0 0,0.01 0,0.01 0,0 0.01,0.01 0,0.01 0,0.01 0,0.01 0,0.01 c 0,0.2 -0.19,0.2 -0.33,0.2 h -5.97 c -0.14,0 -0.33,0 -0.33,-0.2 0,-0.2 0.19,-0.2 0.34,-0.2 z"
   inkscape:connector-curvature="0"
   style="fill:#000000;stroke-width:0" />
<path
   id="path3088"
   d="m 397.58,708.45 0.03,0 0.02,0 0.03,0 0.02,0 0.01,0 0.01,0 0.02,0.01 0.01,0 0.01,0 0.02,0 0.01,0.01 0.01,0 0.02,0 0.01,0.01 0.01,0 0.01,0.01 0.01,0.01 0.01,0.01 0.01,0 0.01,0.01 0,0.01 0.01,0 0,0.01 0,0 0.01,0.01 0,0.01 0,0 0.01,0.01 0,0.01 0,0 0,0.01 0,0.01 0,0 0.01,0.01 0,0.01 0,0.01 0,0.01 0,0.01 c 0,0.2 -0.19,0.2 -0.34,0.2 h -5.95 c -0.15,0 -0.34,0 -0.34,-0.2 0,-0.2 0.19,-0.2 0.33,-0.2 z"
   inkscape:connector-curvature="0"
   style="fill:#000000;stroke-width:0" />
<path
   id="path3090"
   d="m 405.83,710.31 -0.01,0.15 0,0.15 0,0.15 -0.01,0.15 -0.01,0.14 -0.01,0.15 -0.01,0.15 -0.02,0.15 -0.03,0.14 -0.02,0.15 -0.04,0.14 -0.03,0.15 -0.05,0.14 -0.05,0.14 -0.05,0.14 -0.03,0.07 -0.03,0.07 c -0.46,0.95 -1.28,1.11 -1.7,1.11 -0.6,0 -1.32,-0.26 -1.73,-1.18 -0.32,-0.69 -0.37,-1.46 -0.37,-2.26 0,-0.75 0.04,-1.64 0.45,-2.4 0.43,-0.81 1.15,-1 1.64,-1 v 0.22 c -0.39,0 -0.98,0.24 -1.15,1.2 -0.11,0.6 -0.11,1.51 -0.11,2.1 0,0.64 0,1.29 0.08,1.83 0.19,1.19 0.93,1.27 1.18,1.27 0.33,0 0.99,-0.18 1.18,-1.16 0.1,-0.56 0.1,-1.31 0.1,-1.94 0,-0.75 0,-1.42 -0.11,-2.06 -0.15,-0.95 -0.72,-1.24 -1.17,-1.24 h 0 v -0.22 c 0.54,0 1.3,0.2 1.74,1.15 0.31,0.69 0.37,1.46 0.37,2.25 z"
   inkscape:connector-curvature="0"
   style="fill:#000000;stroke-width:0" />
</g>
<g
   style="font-style:normal;font-variant:normal;font-weight:normal;font-stretch:normal;letter-spacing:normal;word-spacing:normal;text-anchor:start;fill:none;stroke:#000000;stroke-linecap:butt;stroke-linejoin:miter;stroke-miterlimit:10.43299961;stroke-opacity:1;stroke-dasharray:none;stroke-dashoffset:0"
   id="g3166"
   transform="matrix(3.4197212,0,0,3.4197212,-881.0666,-2140.9145)"
   xml:space="preserve"
   stroke-miterlimit="10.433"
   font-style="normal"
   font-variant="normal"
   font-weight="normal"
   font-stretch="normal"
   font-size-adjust="none"
   letter-spacing="normal"
   word-spacing="normal"
   ns0:text="$$4\\Omega$$\n"
   ns0:preamble="">
<path
   style="fill:#000000;stroke-width:0"
   inkscape:connector-curvature="0"
   d="m 392.13,708.77 v -0.87 c 0,-0.36 -0.02,-0.47 -0.76,-0.47 h -0.21 v -0.3 c 0.41,0.03 0.93,0.03 1.35,0.03 0.42,0 0.95,0 1.35,-0.03 v 0.3 h -0.21 c -0.73,0 -0.75,0.11 -0.75,0.47 v 0.87 h 0.99 v 0.31 h -0.99 v 4.52 c 0,0.2 0,0.26 -0.16,0.26 -0.09,0 -0.12,0 -0.2,-0.12 l -3.06,-4.66 h 0.28 l 2.43,3.71 v -3.71 h -2.43 -0.28 v -0.31 z"
   id="path3168" />
<path
   style="fill:#000000;stroke-width:0"
   inkscape:connector-curvature="0"
   d="m 400.93,708.74 h -0.25 c -0.05,-0.26 -0.09,-0.49 -0.18,-0.73 -0.05,-0.16 -0.08,-0.24 -0.66,-0.24 h -0.79 c 0.12,0.56 0.43,1.04 0.88,1.69 0.47,0.71 0.88,1.4 0.88,2.18 0,1.39 -1.35,2.5 -3.03,2.5 -1.72,0 -3.04,-1.13 -3.04,-2.5 0,-0.78 0.41,-1.47 0.88,-2.18 0.43,-0.65 0.75,-1.13 0.88,-1.69 h -0.79 c -0.58,0 -0.61,0.08 -0.66,0.23 -0.08,0.23 -0.13,0.49 -0.18,0.74 h -0.25 l 0.33,-1.61 h 1.59 c 0.22,0 0.25,0 0.25,0.2 0,0.7 -0.31,1.58 -0.54,2.21 -0.21,0.58 -0.48,1.37 -0.48,2.11 0,1.6 1.09,2.27 2,2.27 0.96,0 2.01,-0.71 2.01,-2.27 0,-0.74 -0.27,-1.5 -0.56,-2.32 -0.14,-0.41 -0.46,-1.31 -0.46,-2 0,-0.2 0.03,-0.2 0.26,-0.2 h 1.58 z"
   id="path3170" />
</g>
<g
   style="font-style:normal;font-variant:normal;font-weight:normal;font-stretch:normal;letter-spacing:normal;word-spacing:normal;text-anchor:start;fill:none;stroke:#000000;stroke-linecap:butt;stroke-linejoin:miter;stroke-miterlimit:10.43299961;stroke-opacity:1;stroke-dasharray:none;stroke-dashoffset:0"
   ns0:preamble=""
   ns0:text="$$\\frac{1}{4} F$$\n\n"
   word-spacing="normal"
   letter-spacing="normal"
   font-size-adjust="none"
   font-stretch="normal"
   font-weight="normal"
   font-variant="normal"
   font-style="normal"
   stroke-miterlimit="10.433"
   xml:space="preserve"
   transform="matrix(3.4197212,0,0,3.4197212,-658.13889,-2290.6455)"
   id="g3698">
<path
   id="path3700"
   d="m 391.83,717.04 0,0.01 0,0.01 0,0.01 0,0.01 0,0.01 0,0.01 0,0.01 0,0.01 0,0.01 0,0 0,0.01 0,0.01 0,0.01 0,0 0,0.01 0,0.01 0,0 0,0.01 0,0.01 -0.01,0.01 0,0.01 0,0.01 -0.01,0.01 0,0.01 -0.01,0.01 0,0 -0.01,0.01 -0.01,0 0,0.01 -0.01,0 -0.01,0 0,0 -0.01,0 0,0.01 -0.01,0 0,0 -0.01,0 -0.01,0 0,0 -0.01,0 -0.01,0 -0.01,0 0,0 -0.01,0 -0.01,0 -0.01,0 -0.01,0 -0.01,0 -0.01,0 -0.01,0 -0.01,0 -0.01,0 c -0.62,-0.63 -1.49,-0.63 -1.81,-0.63 v -0.31 c 0.2,0 0.79,0 1.31,0.26 v -5.16 c 0,-0.36 -0.03,-0.47 -0.93,-0.47 h -0.32 v -0.31 c 0.35,0.03 1.22,0.03 1.61,0.03 0.4,0 1.27,0 1.62,-0.03 v 0.31 h -0.32 c -0.9,0 -0.93,0.11 -0.93,0.47 z"
   inkscape:connector-curvature="0"
   style="fill:#000000;stroke-width:0" />
<line
   id="line3702"
   y2="706.41998"
   x2="393.88"
   y1="706.41998"
   x1="388.89999"
   style="stroke-width:0.398" />
<path
   id="path3704"
   d="m 391.83,698.74 v -0.87 c 0,-0.36 -0.02,-0.47 -0.75,-0.47 h -0.21 v -0.31 c 0.4,0.03 0.92,0.03 1.34,0.03 0.42,0 0.95,0 1.36,-0.03 v 0.31 h -0.21 c -0.74,0 -0.76,0.11 -0.76,0.47 v 0.87 h 1 v 0.3 h -1 v 4.53 c 0,0.2 0,0.26 -0.16,0.26 -0.09,0 -0.12,0 -0.2,-0.12 l -3.06,-4.67 h 0.28 l 2.43,3.72 v -3.72 h -2.43 -0.28 v -0.3 z"
   inkscape:connector-curvature="0"
   style="fill:#000000;stroke-width:0" />
<path
   id="path3706"
   d="m 398.1,707.16 h 0.97 c 0.74,0 0.82,-0.16 0.82,-0.44 0,-0.07 0,-0.19 -0.07,-0.49 -0.02,-0.05 -0.03,-0.09 -0.03,-0.11 0,-0.08 0.06,-0.12 0.12,-0.12 0.1,0 0.1,0.03 0.15,0.21 l 0.55,2.16 c 0.03,0.11 0.03,0.13 0.03,0.16 0,0.02 -0.02,0.11 -0.12,0.11 -0.1,0 -0.11,-0.05 -0.15,-0.21 -0.21,-0.78 -0.44,-0.96 -1.28,-0.96 h -0.91 l 0.64,2.53 c 0.09,0.35 0.1,0.39 0.54,0.39 h 1.31 c 1.23,0 1.46,-0.33 1.46,-1.1 0,-0.23 0,-0.27 -0.03,-0.53 -0.02,-0.13 -0.02,-0.15 -0.02,-0.18 0,-0.05 0.03,-0.12 0.12,-0.12 0.11,0 0.12,0.06 0.14,0.25 l 0.2,1.72 c 0.03,0.27 -0.02,0.27 -0.27,0.27 h -4.89 c -0.2,0 -0.3,0 -0.3,-0.2 0,-0.11 0.09,-0.11 0.28,-0.11 0.37,0 0.65,0 0.65,-0.18 0,-0.04 0,-0.06 -0.05,-0.24 l -1.32,-5.27 c -0.1,-0.38 -0.12,-0.46 -0.9,-0.46 -0.17,0 -0.28,0 -0.28,-0.19 0,-0.12 0.12,-0.12 0.15,-0.12 0.29,0 1.02,0.03 1.31,0.03 0.33,0 1.16,-0.03 1.49,-0.03 0.09,0 0.21,0 0.21,0.19 0,0.08 -0.06,0.1 -0.06,0.11 -0.03,0.01 -0.05,0.01 -0.28,0.01 -0.22,0 -0.27,0 -0.52,0.02 -0.29,0.03 -0.32,0.07 -0.32,0.2 0,0.01 0,0.07 0.04,0.22 z"
   inkscape:connector-curvature="0"
   style="fill:#000000;stroke-width:0" />
</g>
<g
   id="g3845"
   transform="matrix(3.4197212,0,0,3.4197212,-846.0747,-2350.4433)"
   xml:space="preserve"
   stroke-miterlimit="10.433"
   font-style="normal"
   font-variant="normal"
   font-weight="normal"
   font-stretch="normal"
   font-size-adjust="none"
   letter-spacing="normal"
   word-spacing="normal"
   ns0:text="$$6\\Omega$$\n\n"
   ns0:preamble=""
   style="font-style:normal;font-variant:normal;font-weight:normal;font-stretch:normal;letter-spacing:normal;word-spacing:normal;text-anchor:start;fill:none;stroke:#000000;stroke-linecap:butt;stroke-linejoin:miter;stroke-miterlimit:10.43299961;stroke-opacity:1;stroke-dasharray:none;stroke-dashoffset:0">
<path
   d="m 390.52,710.39 v 0.24 c 0,2.52 1.23,2.88 1.74,2.88 0.24,0 0.66,-0.06 0.88,-0.4 -0.15,0 -0.55,0 -0.55,-0.45 0,-0.31 0.24,-0.46 0.46,-0.46 0.16,0 0.46,0.09 0.46,0.48 0,0.6 -0.44,1.07 -1.27,1.07 -1.28,0 -2.62,-1.28 -2.62,-3.48 0,-2.66 1.15,-3.36 2.08,-3.36 1.11,0 2.06,0.93 2.06,2.25 0,1.26 -0.89,2.22 -2,2.22 l -0.01,-0.23 c 0.16,0 0.62,0 0.93,-0.62 0.18,-0.37 0.18,-0.88 0.18,-1.37 0,-0.47 0,-0.97 -0.17,-1.33 -0.3,-0.6 -0.76,-0.65 -0.99,-0.65 h 0 c -0.63,0 -0.93,0.6 -0.99,0.75 -0.17,0.47 -0.17,1.27 -0.17,1.44 0,0.78 0.31,1.78 1.21,1.78 l 0.01,0.23 c -0.68,0 -1.05,-0.51 -1.24,-0.99 z"
   id="path3847"
   inkscape:connector-curvature="0"
   style="fill:#000000;stroke-width:0" />
<path
   d="m 400.93,708.74 h -0.25 c -0.05,-0.26 -0.09,-0.49 -0.18,-0.73 -0.05,-0.16 -0.08,-0.24 -0.66,-0.24 h -0.79 c 0.12,0.56 0.43,1.04 0.88,1.69 0.47,0.71 0.88,1.4 0.88,2.18 0,1.39 -1.35,2.5 -3.03,2.5 -1.72,0 -3.04,-1.13 -3.04,-2.5 0,-0.78 0.41,-1.47 0.88,-2.18 0.43,-0.65 0.75,-1.13 0.88,-1.69 h -0.79 c -0.58,0 -0.61,0.08 -0.66,0.23 -0.08,0.23 -0.13,0.49 -0.18,0.74 h -0.25 l 0.33,-1.61 h 1.59 c 0.22,0 0.25,0 0.25,0.2 0,0.7 -0.31,1.58 -0.54,2.21 -0.21,0.58 -0.48,1.37 -0.48,2.11 0,1.6 1.09,2.27 2,2.27 0.96,0 2.01,-0.71 2.01,-2.27 0,-0.74 -0.27,-1.5 -0.56,-2.32 -0.14,-0.41 -0.46,-1.31 -0.46,-2 0,-0.2 0.03,-0.2 0.26,-0.2 h 1.58 z"
   id="path3849"
   inkscape:connector-curvature="0"
   style="fill:#000000;stroke-width:0" />
</g>
<g
   style="font-style:normal;font-variant:normal;font-weight:normal;font-stretch:normal;letter-spacing:normal;word-spacing:normal;text-anchor:start;fill:none;stroke:#000000;stroke-linecap:butt;stroke-linejoin:miter;stroke-miterlimit:10.43299961;stroke-opacity:1;stroke-dasharray:none;stroke-dashoffset:0"
   ns0:preamble=""
   ns0:text="$$1H$$\n\n"
   word-spacing="normal"
   letter-spacing="normal"
   font-size-adjust="none"
   font-stretch="normal"
   font-weight="normal"
   font-variant="normal"
   font-style="normal"
   stroke-miterlimit="10.433"
   xml:space="preserve"
   transform="matrix(3.4197212,0,0,3.4197212,-858.4139,-2244.1362)"
   id="g3988">
<path
   id="path3990"
   d="m 391.18,713.49 0,0.02 0,0.01 0,0.01 0,0.01 0,0.01 0,0.01 0,0.01 0,0 0,0.01 0,0.01 0,0.01 0,0.01 0,0 0,0.01 0,0.01 0,0.01 0,0 0,0.01 0,0.01 -0.01,0.01 0,0.01 0,0.01 -0.01,0.01 0,0.01 -0.01,0 0,0.01 -0.01,0 -0.01,0.01 0,0 -0.01,0.01 -0.01,0 0,0 -0.01,0 0,0 -0.01,0.01 0,0 -0.01,0 -0.01,0 0,0 -0.01,0 -0.01,0 -0.01,0 0,0 -0.01,0 -0.01,0 -0.01,0 -0.01,0 -0.01,0 -0.01,0 -0.01,0 -0.01,0 -0.01,0 c -0.62,-0.63 -1.49,-0.63 -1.81,-0.63 v -0.31 c 0.2,0 0.79,0 1.31,0.26 v -5.16 c 0,-0.36 -0.03,-0.48 -0.93,-0.48 h -0.32 v -0.3 c 0.35,0.03 1.22,0.03 1.61,0.03 0.4,0 1.27,0 1.62,-0.03 v 0.3 h -0.32 c -0.9,0 -0.93,0.11 -0.93,0.48 z"
   inkscape:connector-curvature="0"
   style="fill:#000000;stroke-width:0" />
<path
   id="path3992"
   d="m 400.84,713.16 0.01,0.03 0.01,0.03 0,0.03 0.01,0.03 0.01,0.03 0.01,0.02 0.01,0.03 0.01,0.02 0.01,0.02 0.01,0.02 0.01,0.02 0.01,0.02 0.02,0.02 0.01,0.01 0.02,0.02 0.02,0.01 0.02,0.01 0.02,0.01 0.03,0.01 0.03,0.01 0.03,0.01 0.03,0.01 0.02,0 0.01,0.01 0.02,0 0.02,0 0.02,0.01 0.02,0 0.02,0 0.03,0 0.02,0 0.02,0.01 0.03,0 0.02,0 0.03,0 0.03,0 0.03,0 0.03,0 0.03,0 0.03,0 0.03,0 0.04,0 c 0.25,0 0.34,0 0.34,0.2 0,0.11 -0.12,0.11 -0.14,0.11 -0.28,0 -1,-0.03 -1.28,-0.03 -0.29,0 -1,0.03 -1.29,0.03 -0.08,0 -0.19,0 -0.19,-0.2 0,-0.11 0.09,-0.11 0.28,-0.11 0.02,0 0.21,0 0.38,-0.02 0.18,-0.02 0.27,-0.03 0.27,-0.16 0,-0.03 -0.01,-0.05 -0.04,-0.18 l -0.6,-2.43 h -3.04 l 0.59,2.34 c 0.09,0.36 0.12,0.45 0.84,0.45 0.26,0 0.34,0 0.34,0.2 0,0.11 -0.11,0.11 -0.14,0.11 -0.28,0 -1,-0.03 -1.28,-0.03 -0.29,0 -0.99,0.03 -1.28,0.03 -0.08,0 -0.19,0 -0.19,-0.2 0,-0.11 0.09,-0.11 0.28,-0.11 0.02,0 0.2,0 0.37,-0.02 0.18,-0.02 0.27,-0.03 0.27,-0.16 0,-0.03 -0.01,-0.07 -0.04,-0.18 l -1.33,-5.35 c -0.1,-0.39 -0.12,-0.47 -0.91,-0.47 -0.18,0 -0.27,0 -0.27,-0.2 0,-0.1 0.12,-0.1 0.14,-0.1 0.28,0 0.99,0.03 1.27,0.03 0.21,0 0.43,-0.01 0.64,-0.01 0.22,0 0.43,-0.02 0.64,-0.02 0.08,0 0.2,0 0.2,0.19 0,0.11 -0.09,0.11 -0.28,0.11 -0.37,0 -0.64,0 -0.64,0.18 0,0.06 0.02,0.11 0.02,0.17 l 0.68,2.73 h 3.04 c -0.41,-1.65 -0.64,-2.6 -0.68,-2.75 -0.1,-0.32 -0.29,-0.33 -0.91,-0.33 -0.15,0 -0.24,0 -0.24,-0.2 0,-0.1 0.12,-0.1 0.14,-0.1 0.28,0 0.99,0.03 1.26,0.03 0.21,0 0.43,-0.01 0.64,-0.01 0.22,0 0.44,-0.02 0.65,-0.02 0.08,0 0.2,0 0.2,0.19 0,0.11 -0.09,0.11 -0.28,0.11 -0.37,0 -0.65,0 -0.65,0.18 0,0.06 0.02,0.11 0.03,0.17 z"
   inkscape:connector-curvature="0"
   style="fill:#000000;stroke-width:0" />
</g>
<g
   id="g4131"
   transform="matrix(3.4197212,0,0,3.4197212,-937.19505,-2282.103)"
   xml:space="preserve"
   stroke-miterlimit="10.433"
   font-style="normal"
   font-variant="normal"
   font-weight="normal"
   font-stretch="normal"
   font-size-adjust="none"
   letter-spacing="normal"
   word-spacing="normal"
   ns0:text="$$10V$$\n\n"
   ns0:preamble=""
   style="font-style:normal;font-variant:normal;font-weight:normal;font-stretch:normal;letter-spacing:normal;word-spacing:normal;text-anchor:start;fill:none;stroke:#000000;stroke-linecap:butt;stroke-linejoin:miter;stroke-miterlimit:10.43299961;stroke-opacity:1;stroke-dasharray:none;stroke-dashoffset:0">
<path
   style="fill:#000000;stroke-width:0"
   inkscape:connector-curvature="0"
   d="m 389.23,713.49 0,0.02 -0.01,0.01 0,0.01 0,0.01 0,0.01 0,0.01 0,0.01 0,0 0,0.01 0,0.01 0,0.01 0,0.01 0,0 0,0.01 0,0.01 0,0.01 0,0 0,0.01 0,0.01 0,0.01 -0.01,0.01 0,0.01 0,0.01 -0.01,0.01 0,0 -0.01,0.01 -0.01,0 0,0.01 -0.01,0 -0.01,0.01 0,0 -0.01,0 0,0 -0.01,0 -0.01,0.01 0,0 -0.01,0 0,0 -0.01,0 -0.01,0 -0.01,0 0,0 -0.01,0 -0.01,0 -0.01,0 -0.01,0 -0.01,0 0,0 -0.01,0 -0.01,0 -0.01,0 -0.02,0 c -0.61,-0.63 -1.49,-0.63 -1.81,-0.63 v -0.31 c 0.2,0 0.79,0 1.31,0.26 v -5.16 c 0,-0.36 -0.03,-0.48 -0.93,-0.48 h -0.32 v -0.3 c 0.35,0.03 1.22,0.03 1.62,0.03 0.4,0 1.26,0 1.61,-0.03 v 0.3 h -0.32 c -0.89,0 -0.92,0.11 -0.92,0.48 z"
   id="path4133" />
<path
   style="fill:#000000;stroke-width:0"
   inkscape:connector-curvature="0"
   d="m 395.86,710.31 0,0.15 0,0.15 -0.01,0.15 0,0.15 -0.01,0.14 -0.01,0.15 -0.02,0.15 -0.02,0.15 -0.02,0.14 -0.03,0.15 -0.03,0.14 -0.04,0.15 -0.04,0.14 -0.05,0.14 -0.06,0.14 -0.03,0.07 -0.03,0.07 c -0.46,0.95 -1.27,1.11 -1.69,1.11 -0.6,0 -1.33,-0.26 -1.74,-1.18 -0.32,-0.69 -0.37,-1.46 -0.37,-2.26 0,-0.75 0.04,-1.64 0.45,-2.4 0.43,-0.81 1.16,-1 1.65,-1 v 0.22 c -0.39,0 -0.98,0.24 -1.16,1.2 -0.11,0.6 -0.11,1.51 -0.11,2.1 0,0.64 0,1.29 0.08,1.83 0.19,1.19 0.94,1.27 1.19,1.27 0.33,0 0.98,-0.18 1.17,-1.16 0.1,-0.56 0.1,-1.31 0.1,-1.94 0,-0.75 0,-1.42 -0.11,-2.06 -0.15,-0.95 -0.71,-1.24 -1.16,-1.24 h 0 v -0.22 c 0.54,0 1.29,0.2 1.73,1.15 0.32,0.69 0.37,1.46 0.37,2.25 z"
   id="path4135" />
<path
   style="fill:#000000;stroke-width:0"
   inkscape:connector-curvature="0"
   d="m 402.52,712.79 0.04,0.07 0.05,0.06 0.04,0.07 0.05,0.06 0.04,0.05 0.04,0.05 0.05,0.05 0.04,0.04 0.04,0.04 0.04,0.04 0.05,0.03 0.04,0.04 0.04,0.02 0.04,0.03 0.04,0.02 0.04,0.02 0.04,0.02 0.04,0.02 0.04,0.02 0.04,0.01 0.03,0.01 0.04,0.01 0.04,0.01 0.04,0.01 0.03,0 0.04,0.01 0.07,0 0.07,0.01 0.07,0 c 0.12,0.01 0.13,0.18 0.13,0.19 0,0.08 -0.05,0.12 -0.13,0.12 -0.26,0 -0.55,-0.03 -0.81,-0.03 -0.33,0 -0.67,0.03 -0.99,0.03 -0.06,0 -0.19,0 -0.19,-0.19 0,-0.11 0.09,-0.12 0.16,-0.12 0.27,-0.02 0.46,-0.12 0.46,-0.32 0,-0.15 -0.15,-0.37 -0.15,-0.38 l -3.06,-4.86 -0.68,5.27 c 0,0.16 0.23,0.29 0.69,0.29 0.14,0 0.25,0 0.25,0.2 0,0.09 -0.08,0.11 -0.14,0.11 -0.4,0 -0.83,-0.03 -1.24,-0.03 -0.18,0 -0.37,0.01 -0.55,0.01 -0.18,0 -0.37,0.02 -0.54,0.02 -0.07,0 -0.19,0 -0.19,-0.19 0,-0.12 0.09,-0.12 0.25,-0.12 0.56,0 0.57,-0.09 0.6,-0.33 l 0.79,-6.14 c 0.03,-0.2 0.07,-0.23 0.2,-0.23 0.16,0 0.2,0.05 0.28,0.18 z"
   id="path4137" />
</g>
<text
   transform="scale(1,-1)"
   sodipodi:linespacing="125%"
   id="text4209"
   y="-268.6152"
   x="537.74884"
   style="font-size:32px;font-style:normal;font-weight:normal;line-height:125%;letter-spacing:0px;word-spacing:0px;fill:#000000;fill-opacity:1;stroke:none;font-family:Sans"
   xml:space="preserve"><tspan
     y="-268.6152"
     x="537.74884"
     id="tspan4211"
     sodipodi:role="line">a</tspan></text>



<text
   transform="scale(1,-1)"
   sodipodi:linespacing="125%"
   id="text4213"
   y="-132.88385"
   x="343.16718"
   style="font-size:32px;font-style:normal;font-weight:normal;line-height:125%;letter-spacing:0px;word-spacing:0px;fill:#000000;fill-opacity:1;stroke:none;font-family:Sans"
   xml:space="preserve"><tspan
     y="-132.88385"
     x="343.16718"
     id="tspan4215"
     sodipodi:role="line">=</tspan></text>



<text
   transform="scale(1,-1)"
   sodipodi:linespacing="125%"
   id="text4217"
   y="-171.34541"
   x="359.60199"
   style="font-size:32px;font-style:normal;font-weight:normal;line-height:125%;letter-spacing:0px;word-spacing:0px;fill:#000000;fill-opacity:1;stroke:none;font-family:Sans"
   xml:space="preserve"><tspan
     y="-171.34541"
     x="359.60199"
     id="tspan4219"
     sodipodi:role="line">+</tspan></text>



<text
   transform="scale(1,-1)"
   sodipodi:linespacing="125%"
   id="text4217-1"
   y="-144.4368"
   x="624.4715"
   style="font-size:32px;font-style:normal;font-weight:normal;line-height:125%;letter-spacing:0px;word-spacing:0px;fill:#000000;fill-opacity:1;stroke:none;font-family:Sans"
   xml:space="preserve"><tspan
     y="-144.4368"
     x="624.4715"
     id="tspan4219-9"
     sodipodi:role="line">+</tspan></text>



<text
   transform="scale(1.0293999,-0.97143976)"
   sodipodi:linespacing="125%"
   id="text4217-1-2"
   y="-108.37222"
   x="607.03381"
   style="font-size:46.9164238px;font-style:normal;font-weight:normal;line-height:125%;letter-spacing:0px;word-spacing:0px;fill:#000000;fill-opacity:1;stroke:none;font-family:Sans"
   xml:space="preserve"><tspan
     y="-108.37222"
     x="607.03381"
     id="tspan4219-9-5"
     sodipodi:role="line">-</tspan></text>



<text
   transform="scale(1.0293999,-0.97143976)"
   sodipodi:linespacing="125%"
   id="text4217-1-2-0"
   y="-97.00882"
   x="349.69897"
   style="font-size:46.9164238px;font-style:normal;font-weight:normal;line-height:125%;letter-spacing:0px;word-spacing:0px;fill:#000000;fill-opacity:1;stroke:none;font-family:Sans"
   xml:space="preserve"><tspan
     y="-97.00882"
     x="349.69897"
     id="tspan4219-9-5-8"
     sodipodi:role="line">-</tspan></text>



<path
   inkscape:connector-curvature="0"
   inkscape:original-d="m 200.5804,126.18245 c 8.49639,5.54055 9.98325,12.86786 14.41598,18.07015 2.17367,-7.83978 2.57854,-6.63456 4.43562,-11.41271 8.02678,12.54348 9.44921,14.6128 19.96063,20.92334"
   inkscape:path-effect="#path-effect4302"
   id="path4300"
   d="m 200.5804,126.18245 14.41598,18.07015 4.43562,-11.41271 19.96063,20.92334"
   style="fill:none;stroke:#000000;stroke-width:2.4000001;stroke-linecap:butt;stroke-linejoin:miter;stroke-miterlimit:4;stroke-opacity:1;stroke-dasharray:none" /><g
   style="font-style:normal;font-variant:normal;font-weight:normal;font-stretch:normal;letter-spacing:normal;word-spacing:normal;text-anchor:start;fill:none;stroke:#000000;stroke-linecap:butt;stroke-linejoin:miter;stroke-miterlimit:10.43299961;stroke-opacity:1;stroke-dasharray:none;stroke-dashoffset:0"
   ns0:preamble=""
   ns0:text="$$u_s=6e^{-3t}V$$\n\n\n\n\n\n"
   text-anchor="start"
   word-spacing="normal"
   letter-spacing="normal"
   font-size-adjust="none"
   font-stretch="normal"
   font-weight="normal"
   font-variant="normal"
   font-style="normal"
   fill-opacity="1"
   fill-rule="evenodd"
   fill="none"
   stroke-opacity="1"
   stroke-dashoffset="0"
   stroke-dasharray="none"
   stroke-miterlimit="10.433"
   stroke-linejoin="miter"
   stroke-linecap="butt"
   stroke="black"
   xml:space="preserve"
   transform="matrix(3.4197212,0,0,3.4197212,-1253.8124,-2282.1031)"
   id="g5501">
<path
   id="path5503"
   fill="black"
   stroke-width="0"
   d="M371.48,707.68 L371.49,707.64 L371.5,707.61 L371.52,707.57 L371.53,707.54 L371.55,707.5 L371.56,707.47 L371.58,707.44 L371.6,707.41 L371.62,707.38 L371.65,707.35 L371.67,707.32 L371.69,707.29 L371.72,707.27 L371.75,707.24 L371.77,707.22 L371.8,707.2 L371.83,707.17 L371.86,707.16 L371.89,707.14 L371.93,707.12 L371.96,707.1 L371.99,707.09 L372.03,707.07 L372.06,707.06 L372.1,707.05 L372.13,707.04 L372.17,707.03 L372.21,707.03 L372.25,707.02 L372.29,707.02 L372.33,707.02 L372.37,707.02 C372.71,707.02,372.94,707.24,373.1,707.56 C373.27,707.92,373.4,708.53,373.4,708.55 C373.4,708.65,373.31,708.65,373.28,708.65 C373.18,708.65,373.17,708.61,373.14,708.47 C373,707.91,372.82,707.23,372.4,707.23 C372.19,707.23,372.09,707.36,372.09,707.69 C372.09,707.91,372.21,708.38,372.29,708.73 L372.57,709.8 C372.6,709.95,372.7,710.33,372.73,710.48 C372.79,710.71,372.88,711.09,372.88,711.15 C372.88,711.33,372.74,711.41,372.6,711.41 C372.55,711.41,372.29,711.41,372.21,711.07 C372.02,710.34,371.58,708.6,371.46,708.07 C371.45,708.03,371.05,707.23,370.32,707.23 C369.8,707.23,369.7,707.68,369.7,708.05 C369.7,708.61,369.98,709.39,370.24,710.08 C370.36,710.38,370.41,710.52,370.41,710.71 C370.41,711.16,370.09,711.52,369.6,711.52 C368.65,711.52,368.28,710.08,368.28,709.99 C368.28,709.89,368.38,709.89,368.4,709.89 C368.5,709.89,368.51,709.91,368.56,710.07 C368.81,710.94,369.19,711.3,369.57,711.3 C369.65,711.3,369.81,711.29,369.81,710.98 C369.81,710.74,369.7,710.45,369.64,710.3 C369.28,709.32,369.07,708.7,369.07,708.21 C369.07,707.26,369.75,707.02,370.29,707.02 C370.95,707.02,371.31,707.46,371.48,707.68 Z " />
<path
   id="path5505"
   fill="black"
   stroke-width="0"
   d="M376.7,708.24 L376.68,708.24 L376.66,708.24 L376.65,708.23 L376.63,708.22 L376.62,708.22 L376.6,708.21 L376.59,708.2 L376.57,708.2 L376.56,708.19 L376.55,708.18 L376.53,708.17 L376.52,708.16 L376.51,708.15 L376.5,708.14 L376.49,708.13 L376.48,708.12 L376.47,708.11 L376.46,708.1 L376.45,708.08 L376.45,708.07 L376.44,708.06 L376.43,708.05 L376.43,708.04 L376.42,708.02 L376.42,708.01 L376.41,708 L376.41,707.98 L376.41,707.97 L376.4,707.96 L376.4,707.95 L376.4,707.93 L376.4,707.92 C376.4,707.76,376.54,707.7,376.63,707.7 C376.7,707.7,376.97,707.74,376.97,708.09 C376.97,708.54,376.46,708.7,376.04,708.7 C374.95,708.7,374.76,707.9,374.76,707.68 C374.76,707.42,374.9,707.26,375,707.17 C375.18,707.04,375.31,707.01,375.79,706.92 C375.93,706.9,376.38,706.81,376.38,706.47 C376.38,706.35,376.3,706.08,376.01,705.91 C375.74,705.76,375.4,705.76,375.32,705.76 C375.04,705.76,374.64,705.82,374.48,706.05 C374.71,706.08,374.86,706.25,374.86,706.44 C374.86,706.62,374.74,706.7,374.59,706.7 C374.39,706.7,374.19,706.54,374.19,706.24 C374.19,705.82,374.63,705.56,375.31,705.56 C376.59,705.56,376.83,706.44,376.83,706.71 C376.83,707.35,376.12,707.47,375.87,707.52 C375.8,707.54,375.63,707.56,375.59,707.58 C375.33,707.63,375.2,707.77,375.2,707.93 C375.2,708.09,375.33,708.27,375.48,708.37 C375.67,708.49,375.92,708.5,376.03,708.5 C376.18,708.5,376.54,708.48,376.7,708.24 Z " />
<path
   id="path5507"
   fill="black"
   stroke-width="0"
   d="M387.57,710.38 L387.59,710.38 L387.62,710.38 L387.65,710.38 L387.67,710.38 L387.68,710.38 L387.7,710.38 L387.71,710.39 L387.73,710.39 L387.74,710.39 L387.75,710.39 L387.77,710.4 L387.78,710.4 L387.79,710.4 L387.8,710.41 L387.82,710.41 L387.83,710.42 L387.84,710.43 L387.85,710.44 L387.86,710.44 L387.87,710.45 L387.87,710.46 L387.88,710.47 L387.88,710.47 L387.88,710.48 L387.89,710.49 L387.89,710.49 L387.89,710.5 L387.89,710.51 L387.9,710.51 L387.9,710.52 L387.9,710.53 L387.9,710.53 L387.9,710.54 L387.9,710.55 L387.9,710.56 L387.9,710.57 L387.9,710.58 C387.9,710.78,387.72,710.78,387.58,710.78 H381.61 C381.47,710.78,381.28,710.78,381.28,710.58 C381.28,710.38,381.47,710.38,381.61,710.38 Z " />
<path
   id="path5509"
   fill="black"
   stroke-width="0"
   d="M387.58,708.45 L387.6,708.45 L387.63,708.45 L387.66,708.45 L387.67,708.45 L387.69,708.45 L387.7,708.45 L387.71,708.46 L387.73,708.46 L387.74,708.46 L387.75,708.46 L387.77,708.47 L387.78,708.47 L387.79,708.47 L387.8,708.48 L387.82,708.48 L387.83,708.49 L387.84,708.5 L387.85,708.51 L387.86,708.51 L387.87,708.52 L387.87,708.53 L387.87,708.53 L387.88,708.54 L387.88,708.54 L387.88,708.55 L387.89,708.56 L387.89,708.56 L387.89,708.57 L387.89,708.58 L387.9,708.58 L387.9,708.59 L387.9,708.6 L387.9,708.6 L387.9,708.61 L387.9,708.62 L387.9,708.63 L387.9,708.64 L387.9,708.65 C387.9,708.85,387.72,708.85,387.57,708.85 H381.61 C381.47,708.85,381.28,708.85,381.28,708.65 C381.28,708.45,381.47,708.45,381.61,708.45 Z " />
<path
   id="path5511"
   fill="black"
   stroke-width="0"
   d="M392.55,710.39 V710.63 C392.55,713.15,393.79,713.51,394.3,713.51 C394.54,713.51,394.95,713.45,395.17,713.11 C395.02,713.11,394.63,713.11,394.63,712.66 C394.63,712.35,394.86,712.2,395.08,712.2 C395.24,712.2,395.54,712.29,395.54,712.68 C395.54,713.28,395.1,713.75,394.28,713.75 C393,713.75,391.65,712.47,391.65,710.27 C391.65,707.61,392.81,706.91,393.74,706.91 C394.85,706.91,395.79,707.84,395.79,709.16 C395.79,710.42,394.9,711.38,393.8,711.38 L393.79,711.15 C393.95,711.15,394.41,711.15,394.71,710.53 C394.89,710.16,394.89,709.65,394.89,709.16 C394.89,708.69,394.89,708.19,394.73,707.83 C394.43,707.23,393.97,707.18,393.74,707.18 H393.74 C393.11,707.18,392.81,707.78,392.75,707.93 C392.57,708.4,392.57,709.2,392.57,709.37 C392.57,710.15,392.89,711.15,393.79,711.15 L393.8,711.38 C393.12,711.38,392.75,710.87,392.55,710.39 Z " />
<path
   id="path5513"
   fill="black"
   stroke-width="0"
   d="M398.08,709.42 L398.11,709.42 L398.14,709.42 L398.17,709.42 L398.21,709.43 L398.25,709.43 L398.29,709.43 L398.33,709.43 L398.37,709.43 L398.42,709.43 L398.46,709.44 L398.51,709.44 L398.56,709.44 L398.61,709.45 L398.66,709.45 L398.76,709.46 L398.87,709.47 L398.98,709.49 L399.09,709.51 L399.2,709.53 L399.3,709.55 L399.36,709.57 L399.41,709.58 L399.46,709.6 L399.51,709.62 L399.56,709.63 L399.61,709.65 C400.3,709.95,400.35,710.54,400.35,710.68 C400.35,711.12,399.97,711.52,399.29,711.52 V711.3 C399.76,711.3,400.02,711.02,400.02,710.68 C400.02,709.64,398.43,709.64,398.02,709.64 H397.61 C398,711.16,399.03,711.3,399.29,711.3 V711.52 C398.18,711.52,396.67,710.56,396.67,708.82 C396.67,707.8,397.26,707.02,398.24,707.02 C399.67,707.02,400.5,708.07,400.5,708.19 C400.5,708.25,400.44,708.32,400.38,708.32 C400.33,708.32,400.31,708.3,400.25,708.22 C399.47,707.23,398.38,707.23,398.26,707.23 C397.48,707.23,397.39,708.07,397.39,708.39 C397.39,708.51,397.4,708.82,397.55,709.42 Z " />
<path
   id="path5515"
   fill="black"
   stroke-width="0"
   d="M406.04,712.81 L406.05,712.81 L406.06,712.81 L406.07,712.81 L406.08,712.81 L406.1,712.81 L406.12,712.81 L406.13,712.81 L406.14,712.81 L406.15,712.82 L406.16,712.82 L406.17,712.82 L406.19,712.82 L406.2,712.82 L406.21,712.83 L406.22,712.83 L406.23,712.84 L406.24,712.84 L406.25,712.84 L406.26,712.85 L406.26,712.86 L406.27,712.86 L406.28,712.87 L406.28,712.88 L406.29,712.88 L406.29,712.88 L406.29,712.89 L406.3,712.89 L406.3,712.9 L406.3,712.9 L406.3,712.91 L406.31,712.92 L406.31,712.92 L406.31,712.93 L406.31,712.93 L406.31,712.94 L406.31,712.95 L406.31,712.95 L406.31,712.96 L406.31,712.97 L406.32,712.98 C406.32,713.15,406.15,713.15,406.04,713.15 H401.89 C401.77,713.15,401.61,713.15,401.61,712.98 C401.61,712.81,401.77,712.81,401.89,712.81 Z " />
<path
   id="path5517"
   fill="black"
   stroke-width="0"
   d="M408.98,713.56 L409.03,713.56 L409.08,713.56 L409.13,713.55 L409.18,713.54 L409.22,713.53 L409.27,713.52 L409.31,713.51 L409.36,713.49 L409.4,713.47 L409.44,713.45 L409.48,713.43 L409.52,713.4 L409.55,713.38 L409.59,713.35 L409.62,713.31 L409.65,713.28 L409.68,713.24 L409.71,713.21 L409.74,713.17 L409.76,713.12 L409.79,713.08 L409.81,713.03 L409.83,712.98 L409.85,712.93 L409.86,712.88 L409.88,712.82 L409.89,712.76 L409.9,712.7 L409.91,712.64 L409.91,712.58 L409.91,712.51 L409.92,712.44 C409.92,711.58,409.41,711.32,409.01,711.32 C408.73,711.32,408.12,711.4,407.83,711.81 C408.15,711.82,408.23,712.05,408.23,712.2 C408.23,712.42,408.06,712.58,407.85,712.58 C407.65,712.58,407.46,712.46,407.46,712.18 C407.46,711.52,408.18,711.1,409.02,711.1 C409.99,711.1,410.66,711.75,410.66,712.44 C410.66,712.98,410.21,713.53,409.45,713.69 C410.18,713.95,410.45,714.47,410.45,714.9 C410.45,715.45,409.81,715.86,409.04,715.86 C408.27,715.86,407.67,715.48,407.67,714.92 C407.67,714.69,407.83,714.56,408.04,714.56 C408.25,714.56,408.39,714.72,408.39,714.91 C408.39,715.11,408.25,715.26,408.04,715.27 C408.28,715.58,408.76,715.65,409.02,715.65 C409.33,715.65,409.77,715.5,409.77,714.9 C409.77,714.6,409.67,714.28,409.49,714.07 C409.26,713.8,409.07,713.79,408.72,713.77 C408.54,713.76,408.53,713.76,408.49,713.75 C408.48,713.75,408.42,713.73,408.42,713.66 C408.42,713.56,408.49,713.56,408.61,713.56 Z " />
<path
   id="path5519"
   fill="black"
   stroke-width="0"
   d="M412.77,713.99 H413.48 C413.61,713.99,413.7,713.99,413.7,714.14 C413.7,714.24,413.61,714.24,413.49,714.24 H412.83 L413.09,715.27 C413.09,715.3,413.11,715.34,413.11,715.36 C413.11,715.49,413.01,715.59,412.87,715.59 C412.7,715.59,412.59,715.47,412.54,715.29 C412.49,715.11,412.58,715.45,412.28,714.24 H411.57 C411.44,714.24,411.35,714.24,411.35,714.08 C411.35,713.99,411.43,713.99,411.55,713.99 H412.22 L411.8,712.34 C411.76,712.17,411.7,711.92,411.7,711.83 C411.7,711.42,412.05,711.17,412.45,711.17 C413.22,711.17,413.66,712.14,413.66,712.23 C413.66,712.32,413.57,712.32,413.55,712.32 C413.46,712.32,413.46,712.31,413.4,712.19 C413.2,711.75,412.85,711.36,412.47,711.36 C412.32,711.36,412.22,711.46,412.22,711.71 C412.22,711.77,412.25,711.92,412.27,711.99 Z " />
<path
   id="path5521"
   fill="black"
   stroke-width="0"
   d="M420.82,712.79 L420.87,712.86 L420.91,712.92 L420.96,712.99 L421,713.05 L421.04,713.1 L421.09,713.15 L421.13,713.2 L421.17,713.24 L421.22,713.28 L421.26,713.32 L421.3,713.35 L421.34,713.39 L421.38,713.41 L421.42,713.44 L421.46,713.46 L421.5,713.48 L421.54,713.5 L421.58,713.52 L421.62,713.54 L421.66,713.55 L421.7,713.56 L421.74,713.57 L421.77,713.58 L421.81,713.59 L421.85,713.59 L421.88,713.6 L421.96,713.6 L422.03,713.61 L422.1,713.61 C422.22,713.62,422.23,713.79,422.23,713.8 C422.23,713.88,422.18,713.92,422.1,713.92 C421.84,713.92,421.55,713.89,421.28,713.89 C420.95,713.89,420.61,713.92,420.29,713.92 C420.23,713.92,420.1,713.92,420.1,713.73 C420.1,713.62,420.19,713.61,420.26,713.61 C420.53,713.59,420.72,713.49,420.72,713.29 C420.72,713.14,420.57,712.92,420.57,712.91 L417.51,708.05 L416.83,713.32 C416.83,713.48,417.06,713.61,417.52,713.61 C417.66,713.61,417.77,713.61,417.77,713.81 C417.77,713.9,417.69,713.92,417.63,713.92 C417.23,713.92,416.8,713.89,416.39,713.89 C416.21,713.89,416.02,713.9,415.85,713.9 C415.67,713.9,415.48,713.92,415.31,713.92 C415.24,713.92,415.12,713.92,415.12,713.73 C415.12,713.61,415.21,713.61,415.37,713.61 C415.93,713.61,415.94,713.52,415.97,713.28 L416.75,707.14 C416.78,706.94,416.82,706.91,416.95,706.91 C417.11,706.91,417.15,706.96,417.23,707.09 Z " />
</g>
</g></svg>