<?xml version="1.0" encoding="UTF-8" standalone="no"?>
<!-- Created with Inkscape (http://www.inkscape.org/) -->

<svg
   xmlns:ns0="http://www.iki.fi/pav/software/textext/"
   xmlns:dc="http://purl.org/dc/elements/1.1/"
   xmlns:cc="http://creativecommons.org/ns#"
   xmlns:rdf="http://www.w3.org/1999/02/22-rdf-syntax-ns#"
   xmlns:svg="http://www.w3.org/2000/svg"
   xmlns="http://www.w3.org/2000/svg"
   xmlns:sodipodi="http://sodipodi.sourceforge.net/DTD/sodipodi-0.dtd"
   xmlns:inkscape="http://www.inkscape.org/namespaces/inkscape"
   id="svg2984"
   version="1.1"
   inkscape:version="0.48.1 "
   width="440"
   height="400"
   xml:space="preserve"
   sodipodi:docname="response_ex10_8_steady.svg"><sodipodi:namedview
     pagecolor="#ffffff"
     bordercolor="#666666"
     borderopacity="1"
     objecttolerance="10"
     gridtolerance="10"
     guidetolerance="10"
     inkscape:pageopacity="0"
     inkscape:pageshadow="2"
     inkscape:window-width="1920"
     inkscape:window-height="1125"
     id="namedview2986"
     showgrid="false"
     inkscape:zoom="0.84284135"
     inkscape:cx="82.759641"
     inkscape:cy="153.92416"
     inkscape:window-x="0"
     inkscape:window-y="0"
     inkscape:window-maximized="1"
     inkscape:current-layer="g2992" /><metadata
     id="metadata2990"><rdf:RDF><cc:Work
         rdf:about=""><dc:format>image/svg+xml</dc:format><dc:type
           rdf:resource="http://purl.org/dc/dcmitype/StillImage" /><dc:title /></cc:Work></rdf:RDF></metadata><defs
     id="defs2988"><inkscape:path-effect
       effect="spiro"
       id="path-effect4302"
       is_visible="true" /><inkscape:path-effect
       effect="spiro"
       id="path-effect4298"
       is_visible="true" /></defs><g
     id="g2992"
     inkscape:groupmode="layer"
     inkscape:label="skici"
     transform="matrix(1.25,0,0,-1.25,0,400)"><path
   inkscape:connector-curvature="0"
   id="path5721"
   style="fill:none;stroke:#000000;stroke-width:2.25;stroke-linecap:round;stroke-linejoin:round;stroke-miterlimit:10;stroke-opacity:1;stroke-dasharray:none"
   d="m 224.80715,122.95309 0,141.11467" /><path
   d="m 31.156899,264.06776 292.650241,0"
   style="fill:none;stroke:#000000;stroke-width:2.25;stroke-linecap:round;stroke-linejoin:round;stroke-miterlimit:10;stroke-opacity:1;stroke-dasharray:none"
   id="path3002"
   inkscape:connector-curvature="0" /><path
   d="m 31.007149,263.42767 0,-243.559904"
   style="fill:none;stroke:#000000;stroke-width:2.25;stroke-linecap:round;stroke-linejoin:round;stroke-miterlimit:10;stroke-opacity:1;stroke-dasharray:none"
   id="path3004"
   inkscape:connector-curvature="0" /><path
   d="m 128.20715,254.46776 57,0 0,19.8 -57,0 0,-19.8 z"
   style="fill:#ffffff;fill-opacity:1;fill-rule:evenodd;stroke:none"
   id="path3014"
   inkscape:connector-curvature="0" /><path
   d="m 128.20715,254.46776 57,0 0,19.8 -57,0 0,-19.8 z"
   style="fill:none;stroke:#000000;stroke-width:2.25;stroke-linecap:round;stroke-linejoin:round;stroke-miterlimit:10;stroke-opacity:1;stroke-dasharray:none"
   id="path3016"
   inkscape:connector-curvature="0" /><path
   d="m 224.80715,148.86776 0,-128.999994"
   style="fill:none;stroke:#000000;stroke-width:2.25;stroke-linecap:round;stroke-linejoin:round;stroke-miterlimit:10;stroke-opacity:1;stroke-dasharray:none"
   id="path3018"
   inkscape:connector-curvature="0" /><path
   d="m 224.73715,23.427766 c -1.98,0 -3.58,-1.6 -3.58,-3.57 0,-1.98 1.6,-3.58 3.58,-3.58 0,0 0,0 0,0 1.97,0 3.58,1.6 3.58,3.58 0,1.97 -1.61,3.57 -3.58,3.57 z"
   style="fill:#000000;fill-opacity:1;fill-rule:evenodd;stroke:none"
   id="path3020"
   inkscape:connector-curvature="0" /><path
   d="m 214.60715,123.86777 19.2,0 0,56.39999 -19.2,0 0,-56.39999 z"
   style="fill:#ffffff;fill-opacity:1;fill-rule:evenodd;stroke:none"
   id="path3022"
   inkscape:connector-curvature="0" /><path
   d="m 224.80715,122.95309 0,141.11467"
   style="fill:none;stroke:#000000;stroke-width:2.25;stroke-linecap:round;stroke-linejoin:round;stroke-miterlimit:10;stroke-opacity:1;stroke-dasharray:none"
   id="path3032"
   inkscape:connector-curvature="0" /><path
   d="m 224.73715,260.57776 c 1.97,0 3.58,1.6 3.58,3.58 0,1.97 -1.61,3.58 -3.58,3.58 0,0 0,0 0,0 -1.98,0 -3.58,-1.61 -3.58,-3.58 0,-1.98 1.6,-3.58 3.58,-3.58 z"
   style="fill:#000000;fill-opacity:1;fill-rule:evenodd;stroke:none"
   id="path3034"
   inkscape:connector-curvature="0" /><path
   d="m 31.372346,19.867766 292.434794,0"
   style="fill:none;stroke:#000000;stroke-width:2.25;stroke-linecap:round;stroke-linejoin:round;stroke-miterlimit:10;stroke-opacity:1;stroke-dasharray:none"
   id="path3036"
   inkscape:connector-curvature="0" /><path
   d="m 323.80715,99.067766 0,-79.2"
   style="fill:none;stroke:#000000;stroke-width:2.25;stroke-linecap:round;stroke-linejoin:round;stroke-miterlimit:10;stroke-opacity:1;stroke-dasharray:none"
   id="path3038"
   inkscape:connector-curvature="0" /><path
   d="m 323.80715,184.26776 0,79.8"
   style="fill:none;stroke:#000000;stroke-width:2.25;stroke-linecap:round;stroke-linejoin:round;stroke-miterlimit:10;stroke-opacity:1;stroke-dasharray:none"
   id="path3040"
   inkscape:connector-curvature="0" /><path
   d="m 58.907149,147.40776 c 0,15.27 -12.37,27.64 -27.64,27.64 -15.26,0 -27.6299997,-12.37 -27.6299997,-27.64 0,-15.26 12.3699997,-27.63 27.6299997,-27.63 15.27,0 27.64,12.37 27.64,27.63 z"
   style="fill:#ffffff;fill-opacity:1;fill-rule:evenodd;stroke:none"
   id="path3042"
   inkscape:connector-curvature="0" /><path
   d="m 58.907149,147.40776 c 0,15.27 -12.37,27.64 -27.64,27.64 -15.26,0 -27.6299997,-12.37 -27.6299997,-27.64 0,-15.26 12.3699997,-27.63 27.6299997,-27.63 15.27,0 27.64,12.37 27.64,27.63 z"
   style="fill:none;stroke:#000000;stroke-width:2.25;stroke-linecap:round;stroke-linejoin:round;stroke-miterlimit:10;stroke-opacity:1;stroke-dasharray:none"
   id="path3044"
   inkscape:connector-curvature="0" />
<g
   ns0:preamble=""
   ns0:text="$$4\\Omega$$\n"
   word-spacing="normal"
   letter-spacing="normal"
   font-size-adjust="none"
   font-stretch="normal"
   font-weight="normal"
   font-variant="normal"
   font-style="normal"
   stroke-miterlimit="10.433"
   xml:space="preserve"
   transform="matrix(3.4197212,0,0,3.4197212,-1202.8353,-2136.1686)"
   id="g3166"
   style="font-style:normal;font-variant:normal;font-weight:normal;font-stretch:normal;letter-spacing:normal;word-spacing:normal;text-anchor:start;fill:none;stroke:#000000;stroke-linecap:butt;stroke-linejoin:miter;stroke-miterlimit:10.43299961;stroke-opacity:1;stroke-dasharray:none;stroke-dashoffset:0">
<path
   id="path3168"
   d="m 392.13,708.77 v -0.87 c 0,-0.36 -0.02,-0.47 -0.76,-0.47 h -0.21 v -0.3 c 0.41,0.03 0.93,0.03 1.35,0.03 0.42,0 0.95,0 1.35,-0.03 v 0.3 h -0.21 c -0.73,0 -0.75,0.11 -0.75,0.47 v 0.87 h 0.99 v 0.31 h -0.99 v 4.52 c 0,0.2 0,0.26 -0.16,0.26 -0.09,0 -0.12,0 -0.2,-0.12 l -3.06,-4.66 h 0.28 l 2.43,3.71 v -3.71 h -2.43 -0.28 v -0.31 z"
   inkscape:connector-curvature="0"
   style="fill:#000000;stroke-width:0" />
<path
   id="path3170"
   d="m 400.93,708.74 h -0.25 c -0.05,-0.26 -0.09,-0.49 -0.18,-0.73 -0.05,-0.16 -0.08,-0.24 -0.66,-0.24 h -0.79 c 0.12,0.56 0.43,1.04 0.88,1.69 0.47,0.71 0.88,1.4 0.88,2.18 0,1.39 -1.35,2.5 -3.03,2.5 -1.72,0 -3.04,-1.13 -3.04,-2.5 0,-0.78 0.41,-1.47 0.88,-2.18 0.43,-0.65 0.75,-1.13 0.88,-1.69 h -0.79 c -0.58,0 -0.61,0.08 -0.66,0.23 -0.08,0.23 -0.13,0.49 -0.18,0.74 h -0.25 l 0.33,-1.61 h 1.59 c 0.22,0 0.25,0 0.25,0.2 0,0.7 -0.31,1.58 -0.54,2.21 -0.21,0.58 -0.48,1.37 -0.48,2.11 0,1.6 1.09,2.27 2,2.27 0.96,0 2.01,-0.71 2.01,-2.27 0,-0.74 -0.27,-1.5 -0.56,-2.32 -0.14,-0.41 -0.46,-1.31 -0.46,-2 0,-0.2 0.03,-0.2 0.26,-0.2 h 1.58 z"
   inkscape:connector-curvature="0"
   style="fill:#000000;stroke-width:0" />
</g>

<g
   style="font-style:normal;font-variant:normal;font-weight:normal;font-stretch:normal;letter-spacing:normal;word-spacing:normal;text-anchor:start;fill:none;stroke:#000000;stroke-linecap:butt;stroke-linejoin:miter;stroke-miterlimit:10.43299961;stroke-opacity:1;stroke-dasharray:none;stroke-dashoffset:0"
   ns0:preamble=""
   ns0:text="$$6\\Omega$$\n\n"
   word-spacing="normal"
   letter-spacing="normal"
   font-size-adjust="none"
   font-stretch="normal"
   font-weight="normal"
   font-variant="normal"
   font-style="normal"
   stroke-miterlimit="10.433"
   xml:space="preserve"
   transform="matrix(3.4197212,0,0,3.4197212,-1167.8434,-2280.0974)"
   id="g3845">
<path
   style="fill:#000000;stroke-width:0"
   inkscape:connector-curvature="0"
   id="path3847"
   d="m 390.52,710.39 v 0.24 c 0,2.52 1.23,2.88 1.74,2.88 0.24,0 0.66,-0.06 0.88,-0.4 -0.15,0 -0.55,0 -0.55,-0.45 0,-0.31 0.24,-0.46 0.46,-0.46 0.16,0 0.46,0.09 0.46,0.48 0,0.6 -0.44,1.07 -1.27,1.07 -1.28,0 -2.62,-1.28 -2.62,-3.48 0,-2.66 1.15,-3.36 2.08,-3.36 1.11,0 2.06,0.93 2.06,2.25 0,1.26 -0.89,2.22 -2,2.22 l -0.01,-0.23 c 0.16,0 0.62,0 0.93,-0.62 0.18,-0.37 0.18,-0.88 0.18,-1.37 0,-0.47 0,-0.97 -0.17,-1.33 -0.3,-0.6 -0.76,-0.65 -0.99,-0.65 h 0 c -0.63,0 -0.93,0.6 -0.99,0.75 -0.17,0.47 -0.17,1.27 -0.17,1.44 0,0.78 0.31,1.78 1.21,1.78 l 0.01,0.23 c -0.68,0 -1.05,-0.51 -1.24,-0.99 z" />
<path
   style="fill:#000000;stroke-width:0"
   inkscape:connector-curvature="0"
   id="path3849"
   d="m 400.93,708.74 h -0.25 c -0.05,-0.26 -0.09,-0.49 -0.18,-0.73 -0.05,-0.16 -0.08,-0.24 -0.66,-0.24 h -0.79 c 0.12,0.56 0.43,1.04 0.88,1.69 0.47,0.71 0.88,1.4 0.88,2.18 0,1.39 -1.35,2.5 -3.03,2.5 -1.72,0 -3.04,-1.13 -3.04,-2.5 0,-0.78 0.41,-1.47 0.88,-2.18 0.43,-0.65 0.75,-1.13 0.88,-1.69 h -0.79 c -0.58,0 -0.61,0.08 -0.66,0.23 -0.08,0.23 -0.13,0.49 -0.18,0.74 h -0.25 l 0.33,-1.61 h 1.59 c 0.22,0 0.25,0 0.25,0.2 0,0.7 -0.31,1.58 -0.54,2.21 -0.21,0.58 -0.48,1.37 -0.48,2.11 0,1.6 1.09,2.27 2,2.27 0.96,0 2.01,-0.71 2.01,-2.27 0,-0.74 -0.27,-1.5 -0.56,-2.32 -0.14,-0.41 -0.46,-1.31 -0.46,-2 0,-0.2 0.03,-0.2 0.26,-0.2 h 1.58 z" />
</g>

<g
   style="font-style:normal;font-variant:normal;font-weight:normal;font-stretch:normal;letter-spacing:normal;word-spacing:normal;text-anchor:start;fill:none;stroke:#000000;stroke-linecap:butt;stroke-linejoin:miter;stroke-miterlimit:10.43299961;stroke-opacity:1;stroke-dasharray:none;stroke-dashoffset:0"
   ns0:preamble=""
   ns0:text="$$10V$$\n\n"
   word-spacing="normal"
   letter-spacing="normal"
   font-size-adjust="none"
   font-stretch="normal"
   font-weight="normal"
   font-variant="normal"
   font-style="normal"
   stroke-miterlimit="10.433"
   xml:space="preserve"
   transform="matrix(3.4197212,0,0,3.4197212,-1258.9638,-2277.3571)"
   id="g4131">
<path
   id="path4133"
   d="m 389.23,713.49 0,0.02 -0.01,0.01 0,0.01 0,0.01 0,0.01 0,0.01 0,0.01 0,0 0,0.01 0,0.01 0,0.01 0,0.01 0,0 0,0.01 0,0.01 0,0.01 0,0 0,0.01 0,0.01 0,0.01 -0.01,0.01 0,0.01 0,0.01 -0.01,0.01 0,0 -0.01,0.01 -0.01,0 0,0.01 -0.01,0 -0.01,0.01 0,0 -0.01,0 0,0 -0.01,0 -0.01,0.01 0,0 -0.01,0 0,0 -0.01,0 -0.01,0 -0.01,0 0,0 -0.01,0 -0.01,0 -0.01,0 -0.01,0 -0.01,0 0,0 -0.01,0 -0.01,0 -0.01,0 -0.02,0 c -0.61,-0.63 -1.49,-0.63 -1.81,-0.63 v -0.31 c 0.2,0 0.79,0 1.31,0.26 v -5.16 c 0,-0.36 -0.03,-0.48 -0.93,-0.48 h -0.32 v -0.3 c 0.35,0.03 1.22,0.03 1.62,0.03 0.4,0 1.26,0 1.61,-0.03 v 0.3 h -0.32 c -0.89,0 -0.92,0.11 -0.92,0.48 z"
   inkscape:connector-curvature="0"
   style="fill:#000000;stroke-width:0" />
<path
   id="path4135"
   d="m 395.86,710.31 0,0.15 0,0.15 -0.01,0.15 0,0.15 -0.01,0.14 -0.01,0.15 -0.02,0.15 -0.02,0.15 -0.02,0.14 -0.03,0.15 -0.03,0.14 -0.04,0.15 -0.04,0.14 -0.05,0.14 -0.06,0.14 -0.03,0.07 -0.03,0.07 c -0.46,0.95 -1.27,1.11 -1.69,1.11 -0.6,0 -1.33,-0.26 -1.74,-1.18 -0.32,-0.69 -0.37,-1.46 -0.37,-2.26 0,-0.75 0.04,-1.64 0.45,-2.4 0.43,-0.81 1.16,-1 1.65,-1 v 0.22 c -0.39,0 -0.98,0.24 -1.16,1.2 -0.11,0.6 -0.11,1.51 -0.11,2.1 0,0.64 0,1.29 0.08,1.83 0.19,1.19 0.94,1.27 1.19,1.27 0.33,0 0.98,-0.18 1.17,-1.16 0.1,-0.56 0.1,-1.31 0.1,-1.94 0,-0.75 0,-1.42 -0.11,-2.06 -0.15,-0.95 -0.71,-1.24 -1.16,-1.24 h 0 v -0.22 c 0.54,0 1.29,0.2 1.73,1.15 0.32,0.69 0.37,1.46 0.37,2.25 z"
   inkscape:connector-curvature="0"
   style="fill:#000000;stroke-width:0" />
<path
   id="path4137"
   d="m 402.52,712.79 0.04,0.07 0.05,0.06 0.04,0.07 0.05,0.06 0.04,0.05 0.04,0.05 0.05,0.05 0.04,0.04 0.04,0.04 0.04,0.04 0.05,0.03 0.04,0.04 0.04,0.02 0.04,0.03 0.04,0.02 0.04,0.02 0.04,0.02 0.04,0.02 0.04,0.02 0.04,0.01 0.03,0.01 0.04,0.01 0.04,0.01 0.04,0.01 0.03,0 0.04,0.01 0.07,0 0.07,0.01 0.07,0 c 0.12,0.01 0.13,0.18 0.13,0.19 0,0.08 -0.05,0.12 -0.13,0.12 -0.26,0 -0.55,-0.03 -0.81,-0.03 -0.33,0 -0.67,0.03 -0.99,0.03 -0.06,0 -0.19,0 -0.19,-0.19 0,-0.11 0.09,-0.12 0.16,-0.12 0.27,-0.02 0.46,-0.12 0.46,-0.32 0,-0.15 -0.15,-0.37 -0.15,-0.38 l -3.06,-4.86 -0.68,5.27 c 0,0.16 0.23,0.29 0.69,0.29 0.14,0 0.25,0 0.25,0.2 0,0.09 -0.08,0.11 -0.14,0.11 -0.4,0 -0.83,-0.03 -1.24,-0.03 -0.18,0 -0.37,0.01 -0.55,0.01 -0.18,0 -0.37,0.02 -0.54,0.02 -0.07,0 -0.19,0 -0.19,-0.19 0,-0.12 0.09,-0.12 0.25,-0.12 0.56,0 0.57,-0.09 0.6,-0.33 l 0.79,-6.14 c 0.03,-0.2 0.07,-0.23 0.2,-0.23 0.16,0 0.2,0.05 0.28,0.18 z"
   inkscape:connector-curvature="0"
   style="fill:#000000;stroke-width:0" />
</g>




<text
   xml:space="preserve"
   style="font-size:32px;font-style:normal;font-weight:normal;line-height:125%;letter-spacing:0px;word-spacing:0px;fill:#000000;fill-opacity:1;stroke:none;font-family:Sans"
   x="21.398434"
   y="-137.6297"
   id="text4213"
   sodipodi:linespacing="125%"
   transform="scale(1,-1)"><tspan
     sodipodi:role="line"
     id="tspan4215"
     x="21.398434"
     y="-137.6297">=</tspan></text>




<text
   xml:space="preserve"
   style="font-size:32px;font-style:normal;font-weight:normal;line-height:125%;letter-spacing:0px;word-spacing:0px;fill:#000000;fill-opacity:1;stroke:none;font-family:Sans"
   x="37.833248"
   y="-176.09126"
   id="text4217"
   sodipodi:linespacing="125%"
   transform="scale(1,-1)"><tspan
     sodipodi:role="line"
     id="tspan4219"
     x="37.833248"
     y="-176.09126">+</tspan></text>




<text
   xml:space="preserve"
   style="font-size:32px;font-style:normal;font-weight:normal;line-height:125%;letter-spacing:0px;word-spacing:0px;fill:#000000;fill-opacity:1;stroke:none;font-family:Sans"
   x="302.36719"
   y="-165.96176"
   id="text4217-1"
   sodipodi:linespacing="125%"
   transform="scale(1,-1)"><tspan
     sodipodi:role="line"
     id="tspan4219-9"
     x="302.36719"
     y="-165.96176">+</tspan></text>




<text
   xml:space="preserve"
   style="font-size:46.9164238px;font-style:normal;font-weight:normal;line-height:125%;letter-spacing:0px;word-spacing:0px;fill:#000000;fill-opacity:1;stroke:none;font-family:Sans"
   x="292.49887"
   y="-89.421654"
   id="text4217-1-2"
   sodipodi:linespacing="125%"
   transform="scale(1.0293999,-0.97143976)"><tspan
     sodipodi:role="line"
     id="tspan4219-9-5"
     x="292.49887"
     y="-89.421654">-</tspan></text>




<text
   xml:space="preserve"
   style="font-size:46.9164238px;font-style:normal;font-weight:normal;line-height:125%;letter-spacing:0px;word-spacing:0px;fill:#000000;fill-opacity:1;stroke:none;font-family:Sans"
   x="37.120022"
   y="-101.8942"
   id="text4217-1-2-0"
   sodipodi:linespacing="125%"
   transform="scale(1.0293999,-0.97143976)"><tspan
     sodipodi:role="line"
     id="tspan4219-9-5-8"
     x="37.120022"
     y="-101.8942">-</tspan></text>





<g
   style="font-style:normal;font-variant:normal;font-weight:normal;font-stretch:normal;letter-spacing:normal;word-spacing:normal;text-anchor:start;fill:none;stroke:#000000;stroke-linecap:butt;stroke-linejoin:miter;stroke-miterlimit:10.43299961;stroke-opacity:1;stroke-dasharray:none;stroke-dashoffset:0"
   ns0:preamble=""
   ns0:text="$$u_c$$\n\n\n"
   text-anchor="start"
   word-spacing="normal"
   letter-spacing="normal"
   font-size-adjust="none"
   font-stretch="normal"
   font-weight="normal"
   font-variant="normal"
   font-style="normal"
   fill-opacity="1"
   fill-rule="evenodd"
   fill="none"
   stroke-opacity="1"
   stroke-dashoffset="0"
   stroke-dasharray="none"
   stroke-miterlimit="10.433"
   stroke-linejoin="miter"
   stroke-linecap="butt"
   stroke="black"
   xml:space="preserve"
   transform="matrix(3.4197212,0,0,3.4197212,-1034.6049,-2290.5307)"
   id="content">
<path
   id="path5672"
   fill="black"
   stroke-width="0"
   d="M393.9,707.68 L393.91,707.64 L393.92,707.61 L393.93,707.57 L393.95,707.54 L393.96,707.5 L393.98,707.47 L394,707.44 L394.02,707.41 L394.04,707.38 L394.06,707.35 L394.09,707.32 L394.11,707.29 L394.14,707.27 L394.16,707.24 L394.19,707.22 L394.22,707.2 L394.25,707.17 L394.28,707.16 L394.31,707.14 L394.34,707.12 L394.38,707.1 L394.41,707.09 L394.44,707.07 L394.48,707.06 L394.51,707.05 L394.55,707.04 L394.59,707.03 L394.63,707.03 L394.66,707.02 L394.7,707.02 L394.74,707.02 L394.78,707.02 C395.13,707.02,395.36,707.24,395.52,707.56 C395.69,707.92,395.82,708.53,395.82,708.55 C395.82,708.65,395.73,708.65,395.7,708.65 C395.6,708.65,395.59,708.61,395.56,708.47 C395.42,707.91,395.23,707.23,394.81,707.23 C394.6,707.23,394.5,707.36,394.5,707.69 C394.5,707.91,394.62,708.38,394.7,708.73 L394.98,709.8 C395.01,709.95,395.11,710.33,395.15,710.48 C395.2,710.71,395.3,711.09,395.3,711.15 C395.3,711.33,395.16,711.41,395.01,711.41 C394.96,711.41,394.7,711.41,394.62,711.07 C394.43,710.34,394,708.6,393.88,708.07 C393.87,708.03,393.47,707.23,392.74,707.23 C392.22,707.23,392.12,707.68,392.12,708.05 C392.12,708.61,392.4,709.39,392.66,710.08 C392.78,710.38,392.83,710.52,392.83,710.71 C392.83,711.16,392.51,711.52,392.01,711.52 C391.07,711.52,390.7,710.08,390.7,709.99 C390.7,709.89,390.8,709.89,390.82,709.89 C390.92,709.89,390.92,709.91,390.98,710.07 C391.22,710.94,391.6,711.3,391.98,711.3 C392.07,711.3,392.23,711.29,392.23,710.98 C392.23,710.74,392.12,710.45,392.06,710.3 C391.69,709.32,391.48,708.7,391.48,708.21 C391.48,707.26,392.17,707.02,392.71,707.02 C393.37,707.02,393.73,707.46,393.9,707.68 Z " />
<path
   id="path5674"
   fill="black"
   stroke-width="0"
   d="M399.16,708.29 L399.14,708.29 L399.11,708.28 L399.09,708.28 L399.07,708.27 L399.05,708.26 L399.03,708.26 L399.02,708.25 L399,708.24 L398.98,708.23 L398.97,708.22 L398.95,708.2 L398.94,708.19 L398.92,708.18 L398.91,708.17 L398.9,708.15 L398.89,708.14 L398.88,708.13 L398.87,708.11 L398.86,708.1 L398.85,708.08 L398.84,708.07 L398.84,708.05 L398.83,708.04 L398.83,708.02 L398.82,708.01 L398.82,707.99 L398.81,707.98 L398.81,707.96 L398.81,707.95 L398.81,707.93 L398.81,707.92 L398.8,707.91 C398.8,707.72,398.95,707.65,399.08,707.65 C399.23,707.65,399.47,707.76,399.47,708.09 C399.47,708.57,398.93,708.7,398.55,708.7 C397.51,708.7,396.54,707.74,396.54,706.77 C396.54,706.17,396.96,705.56,397.83,705.56 C399.01,705.56,399.56,706.25,399.56,706.35 C399.56,706.39,399.49,706.47,399.44,706.47 C399.4,706.47,399.38,706.45,399.33,706.4 C398.78,705.76,397.97,705.76,397.84,705.76 C397.34,705.76,397.12,706.1,397.12,706.53 C397.12,706.73,397.22,707.49,397.58,707.97 C397.84,708.31,398.21,708.5,398.55,708.5 C398.65,708.5,398.99,708.49,399.16,708.29 Z " />
</g>
<path
   d="m 215.27831,123.86777 19.2,0 0,56.39999 -19.2,0 0,-56.39999 z"
   style="fill:#ffffff;fill-opacity:1;stroke:#000000;stroke-width:2.25;stroke-linecap:round;stroke-linejoin:round;stroke-miterlimit:10;stroke-opacity:1;stroke-dasharray:none"
   id="path3024"
   inkscape:connector-curvature="0" /></g></svg>