<?xml version="1.0" encoding="UTF-8" standalone="no"?>
<!-- Created with Inkscape (http://www.inkscape.org/) -->

<svg
   xmlns:ns0="http://www.iki.fi/pav/software/textext/"
   xmlns:dc="http://purl.org/dc/elements/1.1/"
   xmlns:cc="http://creativecommons.org/ns#"
   xmlns:rdf="http://www.w3.org/1999/02/22-rdf-syntax-ns#"
   xmlns:svg="http://www.w3.org/2000/svg"
   xmlns="http://www.w3.org/2000/svg"
   xmlns:sodipodi="http://sodipodi.sourceforge.net/DTD/sodipodi-0.dtd"
   xmlns:inkscape="http://www.inkscape.org/namespaces/inkscape"
   width="225"
   height="250"
   id="svg2"
   inkscape:label="Pozadí"
   version="1.1"
   inkscape:version="0.48.1 "
   sodipodi:docname="rotH_dxdy.svg">
  <sodipodi:namedview
     id="base"
     pagecolor="#ffffff"
     bordercolor="#666666"
     borderopacity="1.0"
     inkscape:pageopacity="0.0"
     inkscape:pageshadow="2"
     inkscape:zoom="3.4471456"
     inkscape:cx="55.486236"
     inkscape:cy="132.74808"
     inkscape:document-units="px"
     inkscape:current-layer="layer1"
     showgrid="false"
     inkscape:window-width="1831"
     inkscape:window-height="1173"
     inkscape:window-x="2000"
     inkscape:window-y="-9"
     inkscape:window-maximized="1" />
  <defs
     id="defs3">
    <marker
       style="overflow:visible"
       id="Arrow2Mend"
       refX="0"
       refY="0"
       orient="auto"
       inkscape:stockid="Arrow2Mend">
      <path
         inkscape:connector-curvature="0"
         transform="scale(-0.6,-0.6)"
         d="M 8.7185878,4.0337352 -2.2072895,0.01601326 8.7185884,-4.0017078 c -1.7454984,2.3720609 -1.7354408,5.6174519 -6e-7,8.035443 z"
         style="font-size:12px;fill-rule:evenodd;stroke-width:0.625;stroke-linejoin:round"
         id="path3822" />
    </marker>
    <marker
       style="overflow:visible"
       id="Arrow2Lend"
       refX="0"
       refY="0"
       orient="auto"
       inkscape:stockid="Arrow2Lend">
      <path
         inkscape:connector-curvature="0"
         transform="matrix(-1.1,0,0,-1.1,-1.1,0)"
         d="M 8.7185878,4.0337352 -2.2072895,0.01601326 8.7185884,-4.0017078 c -1.7454984,2.3720609 -1.7354408,5.6174519 -6e-7,8.035443 z"
         style="font-size:12px;fill-rule:evenodd;stroke-width:0.625;stroke-linejoin:round"
         id="path3816" />
    </marker>
    <marker
       style="overflow:visible"
       id="Arrow2Mstart"
       refX="0"
       refY="0"
       orient="auto"
       inkscape:stockid="Arrow2Mstart">
      <path
         inkscape:connector-curvature="0"
         transform="scale(0.6,0.6)"
         d="M 8.7185878,4.0337352 -2.2072895,0.01601326 8.7185884,-4.0017078 c -1.7454984,2.3720609 -1.7354408,5.6174519 -6e-7,8.035443 z"
         style="font-size:12px;fill-rule:evenodd;stroke-width:0.625;stroke-linejoin:round"
         id="path3819" />
    </marker>
    <marker
       style="overflow:visible"
       id="Arrow1Sstart"
       refX="0"
       refY="0"
       orient="auto"
       inkscape:stockid="Arrow1Sstart">
      <path
         inkscape:connector-curvature="0"
         transform="matrix(0.2,0,0,0.2,1.2,0)"
         style="fill-rule:evenodd;stroke:#000000;stroke-width:1pt;marker-start:none"
         d="M 0,0 5,-5 -12.5,0 5,5 0,0 z"
         id="path3807" />
    </marker>
    <marker
       style="overflow:visible"
       id="Arrow1Mstart"
       refX="0"
       refY="0"
       orient="auto"
       inkscape:stockid="Arrow1Mstart">
      <path
         inkscape:connector-curvature="0"
         transform="matrix(0.4,0,0,0.4,4,0)"
         style="fill-rule:evenodd;stroke:#000000;stroke-width:1pt;marker-start:none"
         d="M 0,0 5,-5 -12.5,0 5,5 0,0 z"
         id="path3801" />
    </marker>
    <marker
       style="overflow:visible"
       id="Arrow1Mend"
       refX="0"
       refY="0"
       orient="auto"
       inkscape:stockid="Arrow1Mend">
      <path
         inkscape:connector-curvature="0"
         transform="matrix(-0.4,0,0,-0.4,-4,0)"
         style="fill-rule:evenodd;stroke:#000000;stroke-width:1pt;marker-start:none"
         d="M 0,0 5,-5 -12.5,0 5,5 0,0 z"
         id="path3804" />
    </marker>
    <marker
       style="overflow:visible"
       id="Arrow2Mstart-9"
       refX="0"
       refY="0"
       orient="auto"
       inkscape:stockid="Arrow2Mstart">
      <path
         transform="scale(0.6,0.6)"
         d="M 8.7185878,4.0337352 -2.2072895,0.01601326 8.7185884,-4.0017078 c -1.7454984,2.3720609 -1.7354408,5.6174519 -6e-7,8.035443 z"
         style="font-size:12px;fill-rule:evenodd;stroke-width:0.625;stroke-linejoin:round"
         id="path3819-5"
         inkscape:connector-curvature="0" />
    </marker>
    <marker
       style="overflow:visible"
       id="Arrow2Mend-6"
       refX="0"
       refY="0"
       orient="auto"
       inkscape:stockid="Arrow2Mend">
      <path
         transform="scale(-0.6,-0.6)"
         d="M 8.7185878,4.0337352 -2.2072895,0.01601326 8.7185884,-4.0017078 c -1.7454984,2.3720609 -1.7354408,5.6174519 -6e-7,8.035443 z"
         style="font-size:12px;fill-rule:evenodd;stroke-width:0.625;stroke-linejoin:round"
         id="path3822-8"
         inkscape:connector-curvature="0" />
    </marker>
    <marker
       style="overflow:visible"
       id="Arrow2Mend-6-4"
       refX="0"
       refY="0"
       orient="auto"
       inkscape:stockid="Arrow2Mend">
      <path
         transform="scale(-0.6,-0.6)"
         d="M 8.7185878,4.0337352 -2.2072895,0.01601326 8.7185884,-4.0017078 c -1.7454984,2.3720609 -1.7354408,5.6174519 -6e-7,8.035443 z"
         style="font-size:12px;fill-rule:evenodd;stroke-width:0.625;stroke-linejoin:round"
         id="path3822-8-9"
         inkscape:connector-curvature="0" />
    </marker>
    <marker
       style="overflow:visible"
       id="Arrow2Mend-6-8"
       refX="0"
       refY="0"
       orient="auto"
       inkscape:stockid="Arrow2Mend">
      <path
         transform="scale(-0.6,-0.6)"
         d="M 8.7185878,4.0337352 -2.2072895,0.01601326 8.7185884,-4.0017078 c -1.7454984,2.3720609 -1.7354408,5.6174519 -6e-7,8.035443 z"
         style="font-size:12px;fill-rule:evenodd;stroke-width:0.625;stroke-linejoin:round"
         id="path3822-8-0"
         inkscape:connector-curvature="0" />
    </marker>
    <marker
       style="overflow:visible"
       id="Arrow2Mend-6-81"
       refX="0"
       refY="0"
       orient="auto"
       inkscape:stockid="Arrow2Mend">
      <path
         transform="scale(-0.6,-0.6)"
         d="M 8.7185878,4.0337352 -2.2072895,0.01601326 8.7185884,-4.0017078 c -1.7454984,2.3720609 -1.7354408,5.6174519 -6e-7,8.035443 z"
         style="font-size:12px;fill-rule:evenodd;stroke-width:0.625;stroke-linejoin:round"
         id="path3822-8-4"
         inkscape:connector-curvature="0" />
    </marker>
  </defs>
  <metadata
     id="metadata6">
    <rdf:RDF>
      <cc:Work
         rdf:about="">
        <dc:format>image/svg+xml</dc:format>
        <dc:type
           rdf:resource="http://purl.org/dc/dcmitype/StillImage" />
        <dc:title />
      </cc:Work>
    </rdf:RDF>
  </metadata>
  <g
     transform="translate(0,-802.36218)"
     id="layer1"
     inkscape:groupmode="layer"
     inkscape:label="Vrstva 1">
    <path
       inkscape:connector-curvature="0"
       id="path3752"
       d="m 42.666667,985.26452 124.307693,-0.01"
       style="fill:none;stroke:#000000;stroke-width:1px;stroke-linecap:butt;stroke-linejoin:miter;stroke-opacity:1;marker-end:url(#Arrow1Mend)" />
    <path
       inkscape:connector-curvature="0"
       id="path3752-1"
       d="m 43.084124,984.98854 -0.01,-124.30765"
       style="fill:none;stroke:#000000;stroke-width:1px;stroke-linecap:butt;stroke-linejoin:miter;stroke-opacity:1;marker-end:url(#Arrow1Mend)" />
    <path
       sodipodi:nodetypes="cc"
       inkscape:connector-curvature="0"
       id="path3752-1-9"
       d="M 7.6447915,1042.1936 43.074121,984.84159"
       style="fill:none;stroke:#000000;stroke-width:1px;stroke-linecap:butt;stroke-linejoin:miter;stroke-opacity:1;marker-start:url(#Arrow1Mstart)" />
    <rect
       transform="translate(0,852.36218)"
       y="42.871796"
       x="83.487183"
       height="44.307693"
       width="50.871796"
       id="rect3790"
       style="fill:none;stroke:#bc0000;stroke-opacity:1" />
    <path
       inkscape:connector-curvature="0"
       id="path4786"
       d="m 134.2415,939.53087 0,54.02232"
       style="fill:none;stroke:#000000;stroke-width:0.99999994;stroke-linecap:butt;stroke-linejoin:miter;stroke-miterlimit:4;stroke-opacity:1;stroke-dasharray:2.99999999, 1;stroke-dashoffset:0" />
    <path
       inkscape:connector-curvature="0"
       id="path4786-0"
       d="m 83.589745,939.00439 0,54.88481"
       style="fill:none;stroke:#000000;stroke-width:1;stroke-linecap:butt;stroke-linejoin:miter;stroke-miterlimit:4;stroke-opacity:1;stroke-dasharray:3, 1;stroke-dashoffset:0" />
    <path
       inkscape:connector-curvature="0"
       id="path4786-3"
       d="m 32.362756,939.52766 51.093902,0"
       style="fill:none;stroke:#000000;stroke-width:0.99999994;stroke-linecap:butt;stroke-linejoin:miter;stroke-miterlimit:4;stroke-opacity:1;stroke-dasharray:2.99999993, 0.99999998;stroke-dashoffset:0" />
    <path
       inkscape:connector-curvature="0"
       id="path4786-0-7"
       d="m 32.641174,895.11537 50.912327,0"
       style="fill:none;stroke:#000000;stroke-width:0.99999988;stroke-linecap:butt;stroke-linejoin:miter;stroke-miterlimit:4;stroke-opacity:1;stroke-dasharray:2.99999993, 0.99999998;stroke-dashoffset:0" />
    <path
       inkscape:connector-curvature="0"
       id="path4827"
       d="m 32.780745,895.8403 0.290095,42.96024"
       style="fill:none;stroke:#000000;stroke-width:1px;stroke-linecap:butt;stroke-linejoin:miter;stroke-opacity:1;marker-start:url(#Arrow2Mstart);marker-end:url(#Arrow2Mend)" />
    <path
       inkscape:connector-curvature="0"
       id="path4827-0"
       d="m 132.64582,993.03774 -47.515992,0.2901"
       style="fill:none;stroke:#000000;stroke-width:1px;stroke-linecap:butt;stroke-linejoin:miter;stroke-opacity:1;marker-start:url(#Arrow2Mstart);marker-end:url(#Arrow2Mend)" />
    <g
       ns0:preamble=""
       ns0:text="$$dy$$\n"
       word-spacing="normal"
       letter-spacing="normal"
       font-size-adjust="none"
       font-stretch="normal"
       font-weight="normal"
       font-variant="normal"
       font-style="normal"
       stroke-miterlimit="10.433"
       xml:space="preserve"
       transform="matrix(1.3291323,0,0,-1.3005534,-501.89353,1840.9581)"
       id="content"
       style="font-style:normal;font-variant:normal;font-weight:normal;font-stretch:normal;letter-spacing:normal;word-spacing:normal;text-anchor:start;fill:none;stroke:#000000;stroke-width:3.04236841;stroke-linecap:butt;stroke-linejoin:miter;stroke-miterlimit:10.43299961;stroke-opacity:1;stroke-dasharray:none;stroke-dashoffset:0">
<path
   id="path6215"
   d="m 395.22,713.92 0,0 0,0 0,0.01 0,0 0,0 0,0 0,0.01 0,0 0,0 0,0.01 -0.01,0 0,0.01 0,0 0,0.01 0,0 -0.01,0.01 0,0 0,0.01 -0.01,0 0,0.01 0,0 -0.01,0 0,0 0,0.01 0,0 -0.01,0 0,0 0,0 -0.01,0.01 0,0 0,0 -0.01,0 0,0 -0.01,0 0,0.01 0,0 -0.01,0 0,0 -0.01,0 0,0 -0.01,0 0,0 -0.01,0 -0.01,0 0,0 c -0.15,0 -1.1,-0.09 -1.27,-0.11 -0.08,-0.01 -0.14,-0.06 -0.14,-0.19 0,-0.12 0.09,-0.12 0.24,-0.12 0.48,0 0.5,-0.07 0.5,-0.16 l -0.03,-0.2 -0.6,-2.36 c -0.18,0.37 -0.47,0.63 -0.91,0.63 -1.17,0 -2.41,-1.46 -2.41,-2.91 0,-0.94 0.55,-1.59 1.33,-1.59 l 0.02,0.21 c -0.5,0 -0.64,0.55 -0.64,0.94 0,0.5 0.32,1.72 0.55,2.18 0.31,0.59 0.76,0.95 1.16,0.95 0.64,0 0.78,-0.81 0.78,-0.87 0,-0.06 -0.02,-0.12 -0.03,-0.17 l -0.5,-1.95 c -0.05,-0.18 -0.05,-0.2 -0.19,-0.37 -0.44,-0.55 -0.85,-0.71 -1.13,-0.71 l -0.02,-0.21 c 0.2,0 0.7,0.03 1.29,0.74 0.08,-0.42 0.43,-0.74 0.91,-0.74 0.35,0 0.58,0.22 0.74,0.54 0.17,0.36 0.3,0.97 0.3,0.99 0,0.1 -0.09,0.1 -0.12,0.1 -0.1,0 -0.11,-0.04 -0.14,-0.18 -0.17,-0.65 -0.35,-1.24 -0.76,-1.24 -0.27,0 -0.3,0.26 -0.3,0.46 0,0.24 0.02,0.31 0.06,0.48 z"
   inkscape:connector-curvature="0"
   style="fill:#000000;stroke-width:0" />
<path
   id="path6217"
   d="m 400.1,710.92 0.01,0 0,0.01 0,0.01 0,0 0,0.01 0.01,0.01 0,0.01 0,0.01 0,0.01 0.01,0.01 0,0.01 0,0.01 0,0.01 0,0 0.01,0.01 0,0.01 0,0 0,0.01 0,0 0,0.01 0,0.01 0,0.01 0,0.01 0,0.01 0,0.01 0,0.01 0,0 0,0.01 0,0.01 c 0,0.18 -0.14,0.26 -0.28,0.26 -0.1,0 -0.26,-0.06 -0.35,-0.2 -0.02,-0.05 -0.1,-0.36 -0.14,-0.54 -0.07,-0.26 -0.14,-0.53 -0.2,-0.8 l -0.45,-1.79 c -0.04,-0.15 -0.47,-0.85 -1.13,-0.85 -0.51,0 -0.62,0.44 -0.62,0.81 0,0.46 0.17,1.08 0.51,1.95 0.16,0.41 0.2,0.52 0.2,0.72 0,0.45 -0.32,0.81 -0.82,0.81 -0.94,0 -1.31,-1.44 -1.31,-1.53 0,-0.1 0.1,-0.1 0.12,-0.1 0.1,0 0.11,0.02 0.16,0.18 0.27,0.94 0.67,1.23 1,1.23 0.08,0 0.25,0 0.25,-0.31 0,-0.25 -0.1,-0.51 -0.17,-0.7 -0.39,-1.06 -0.57,-1.62 -0.57,-2.09 0,-0.89 0.62,-1.18 1.21,-1.18 0.39,0 0.73,0.16 1.01,0.44 -0.13,-0.51 -0.25,-1 -0.65,-1.53 -0.26,-0.34 -0.64,-0.63 -1.09,-0.63 -0.15,0 -0.59,0.03 -0.76,0.42 0.16,0 0.29,0 0.43,0.12 0.09,0.09 0.19,0.22 0.19,0.41 0,0.31 -0.26,0.35 -0.36,0.35 -0.23,0 -0.56,-0.16 -0.56,-0.65 0,-0.5 0.44,-0.86 1.06,-0.86 1.02,0 2.05,0.9 2.33,2.02 z"
   inkscape:connector-curvature="0"
   style="fill:#000000;stroke-width:0" />
</g>    <g
       id="g6309"
       transform="matrix(1.3291323,0,0,-1.3005534,-416.94519,1923.0119)"
       xml:space="preserve"
       stroke-miterlimit="10.433"
       font-style="normal"
       font-variant="normal"
       font-weight="normal"
       font-stretch="normal"
       font-size-adjust="none"
       letter-spacing="normal"
       word-spacing="normal"
       ns0:text="$$dx$$\n\n"
       ns0:preamble=""
       style="font-style:normal;font-variant:normal;font-weight:normal;font-stretch:normal;letter-spacing:normal;word-spacing:normal;text-anchor:start;fill:none;stroke:#000000;stroke-width:3.04236841;stroke-linecap:butt;stroke-linejoin:miter;stroke-miterlimit:10.43299961;stroke-opacity:1;stroke-dasharray:none;stroke-dashoffset:0">
<path
   style="fill:#000000;stroke-width:0"
   inkscape:connector-curvature="0"
   d="m 394.99,713.92 0,0 0,0 0,0.01 0,0 0,0 0,0 0,0.01 0,0 0,0 0,0.01 0,0 0,0.01 0,0 -0.01,0.01 0,0 0,0.01 0,0 -0.01,0.01 0,0 -0.01,0.01 0,0 0,0 0,0 -0.01,0.01 0,0 0,0 -0.01,0 0,0 0,0.01 -0.01,0 0,0 0,0 -0.01,0 0,0 -0.01,0.01 0,0 -0.01,0 0,0 0,0 -0.01,0 -0.01,0 0,0 -0.01,0 0,0 -0.01,0 c -0.15,0 -1.09,-0.09 -1.26,-0.11 -0.08,-0.01 -0.14,-0.06 -0.14,-0.19 0,-0.12 0.09,-0.12 0.24,-0.12 0.47,0 0.49,-0.07 0.49,-0.16 l -0.03,-0.2 -0.59,-2.36 c -0.18,0.37 -0.47,0.63 -0.92,0.63 -1.17,0 -2.4,-1.46 -2.4,-2.91 0,-0.94 0.55,-1.59 1.32,-1.59 l 0.02,0.21 c -0.5,0 -0.64,0.55 -0.64,0.94 0,0.5 0.32,1.72 0.55,2.18 0.31,0.59 0.76,0.95 1.16,0.95 0.65,0 0.79,-0.81 0.79,-0.87 0,-0.06 -0.02,-0.12 -0.03,-0.17 l -0.5,-1.95 c -0.05,-0.18 -0.05,-0.2 -0.2,-0.37 -0.44,-0.55 -0.85,-0.71 -1.13,-0.71 l -0.02,-0.21 c 0.2,0 0.7,0.03 1.3,0.74 0.08,-0.42 0.43,-0.74 0.91,-0.74 0.34,0 0.57,0.22 0.73,0.54 0.17,0.36 0.3,0.97 0.3,0.99 0,0.1 -0.09,0.1 -0.12,0.1 -0.1,0 -0.11,-0.04 -0.14,-0.18 -0.17,-0.65 -0.35,-1.24 -0.75,-1.24 -0.27,0 -0.3,0.26 -0.3,0.46 0,0.24 0.02,0.31 0.06,0.48 z"
   id="path6311" />
<path
   style="fill:#000000;stroke-width:0"
   inkscape:connector-curvature="0"
   d="m 398.36,710.13 0.01,0.03 0.01,0.03 0,0.03 0.01,0.04 0.01,0.03 0.02,0.05 0.01,0.04 0.01,0.04 0.02,0.05 0.02,0.05 0.02,0.05 0.02,0.05 0.02,0.05 0.02,0.05 0.03,0.05 0.03,0.04 0.03,0.05 0.03,0.05 0.03,0.05 0.04,0.04 0.03,0.04 0.04,0.04 0.05,0.04 0.04,0.04 0.05,0.03 0.04,0.03 0.03,0.01 0.03,0.01 0.02,0.02 0.03,0.01 0.03,0 0.03,0.01 0.02,0.01 0.03,0 0.03,0.01 0.04,0 0.03,0 0.03,0 c 0.05,0 0.29,0 0.5,-0.12 -0.28,-0.05 -0.48,-0.3 -0.48,-0.54 0,-0.16 0.11,-0.35 0.38,-0.35 0.22,0 0.54,0.18 0.54,0.58 0,0.52 -0.59,0.65 -0.93,0.65 -0.58,0 -0.93,-0.52 -1.05,-0.75 -0.25,0.65 -0.78,0.75 -1.07,0.75 -1.04,0 -1.61,-1.28 -1.61,-1.53 0,-0.1 0.1,-0.1 0.12,-0.1 0.08,0 0.11,0.02 0.13,0.11 0.34,1.06 1,1.3 1.34,1.3 0.19,0 0.54,-0.08 0.54,-0.66 0,-0.31 -0.18,-0.98 -0.54,-2.37 -0.16,-0.62 -0.51,-1.04 -0.95,-1.04 -0.06,0 -0.29,0 -0.5,0.13 0.25,0.05 0.47,0.26 0.47,0.54 0,0.27 -0.22,0.35 -0.37,0.35 -0.3,0 -0.55,-0.26 -0.55,-0.58 0,-0.45 0.5,-0.65 0.94,-0.65 0.66,0 1.02,0.69 1.05,0.75 0.12,-0.37 0.48,-0.75 1.07,-0.75 1.03,0 1.6,1.28 1.6,1.53 0,0.1 -0.09,0.1 -0.12,0.1 -0.09,0 -0.11,-0.04 -0.13,-0.11 -0.33,-1.07 -1.01,-1.31 -1.33,-1.31 -0.39,0 -0.54,0.32 -0.54,0.66 0,0.22 0.05,0.44 0.16,0.88 z"
   id="path6313" />
</g>    <g
       style="font-style:normal;font-variant:normal;font-weight:normal;font-stretch:normal;letter-spacing:normal;word-spacing:normal;text-anchor:start;fill:none;stroke:#000000;stroke-width:3.04236841;stroke-linecap:butt;stroke-linejoin:miter;stroke-miterlimit:10.43299961;stroke-opacity:1;stroke-dasharray:none;stroke-dashoffset:0"
       ns0:preamble=""
       ns0:text="$$z$$\n\n\n"
       word-spacing="normal"
       letter-spacing="normal"
       font-size-adjust="none"
       font-stretch="normal"
       font-weight="normal"
       font-variant="normal"
       font-style="normal"
       stroke-miterlimit="10.433"
       xml:space="preserve"
       transform="matrix(1.3291323,0,0,-1.3005534,-521.53907,1969.9503)"
       id="g6439">
<path
   id="path6441"
   d="m 394.08,707.95 0.05,0.05 0.05,0.06 0.04,0.04 0.05,0.05 0.04,0.05 0.05,0.04 0.04,0.05 0.04,0.04 0.04,0.04 0.04,0.04 0.04,0.04 0.04,0.03 0.03,0.04 0.04,0.03 0.07,0.07 0.07,0.06 0.06,0.06 0.07,0.06 0.06,0.06 0.13,0.11 0.07,0.06 0.06,0.06 c 0,0.01 0.62,0.53 0.98,0.89 0.95,0.93 1.17,1.41 1.17,1.44 0,0.1 -0.09,0.1 -0.11,0.1 -0.07,0 -0.1,-0.02 -0.15,-0.11 -0.3,-0.47 -0.51,-0.63 -0.75,-0.63 -0.24,0 -0.36,0.15 -0.51,0.32 -0.19,0.23 -0.36,0.42 -0.69,0.42 -0.74,0 -1.2,-0.92 -1.2,-1.13 0,-0.05 0.03,-0.11 0.12,-0.11 0.09,0 0.11,0.05 0.13,0.11 0.19,0.46 0.77,0.47 0.85,0.47 0.2,0 0.39,-0.07 0.62,-0.15 0.4,-0.15 0.51,-0.15 0.77,-0.15 -0.36,-0.43 -1.2,-1.15 -1.38,-1.3 l -0.9,-0.84 c -0.68,-0.67 -1.03,-1.24 -1.03,-1.31 0,-0.09 0.1,-0.09 0.12,-0.09 0.08,0 0.1,0.01 0.16,0.13 0.23,0.34 0.53,0.61 0.85,0.61 0.23,0 0.33,-0.09 0.58,-0.38 0.16,-0.21 0.34,-0.36 0.63,-0.36 0.99,0 1.57,1.26 1.57,1.53 0,0.05 -0.04,0.1 -0.12,0.1 -0.09,0 -0.11,-0.06 -0.14,-0.13 -0.23,-0.65 -0.87,-0.84 -1.2,-0.84 -0.2,0 -0.38,0.06 -0.58,0.13 -0.34,0.13 -0.49,0.17 -0.7,0.17 -0.02,0 -0.18,0 -0.27,-0.03 z"
   inkscape:connector-curvature="0"
   style="fill:#000000;stroke-width:0" />
</g>    <g
       id="g6528"
       transform="matrix(1.3291323,0,0,-1.3005534,-481.97628,1773.2697)"
       xml:space="preserve"
       stroke-miterlimit="10.433"
       font-style="normal"
       font-variant="normal"
       font-weight="normal"
       font-stretch="normal"
       font-size-adjust="none"
       letter-spacing="normal"
       word-spacing="normal"
       ns0:text="$$y$$\n\n\n"
       ns0:preamble=""
       style="font-style:normal;font-variant:normal;font-weight:normal;font-stretch:normal;letter-spacing:normal;word-spacing:normal;text-anchor:start;fill:none;stroke:#000000;stroke-width:3.04236841;stroke-linecap:butt;stroke-linejoin:miter;stroke-miterlimit:10.43299961;stroke-opacity:1;stroke-dasharray:none;stroke-dashoffset:0">
<path
   style="fill:#000000;stroke-width:0"
   inkscape:connector-curvature="0"
   d="m 397.51,710.92 0,0 0.01,0.01 0,0.01 0,0 0,0.01 0,0.01 0.01,0.01 0,0.01 0,0.01 0,0.01 0.01,0.01 0,0.01 0,0.01 0,0 0,0.01 0,0.01 0.01,0 0,0.01 0,0 0,0.01 0,0.01 0,0.01 0,0.01 0,0.01 0,0.01 0,0.01 0,0 0,0.01 0,0.01 c 0,0.18 -0.14,0.26 -0.29,0.26 -0.1,0 -0.26,-0.06 -0.35,-0.2 -0.02,-0.05 -0.1,-0.36 -0.14,-0.54 -0.07,-0.26 -0.14,-0.53 -0.19,-0.8 l -0.45,-1.79 c -0.04,-0.15 -0.47,-0.85 -1.13,-0.85 -0.51,0 -0.62,0.44 -0.62,0.81 0,0.46 0.17,1.08 0.51,1.95 0.16,0.41 0.2,0.52 0.2,0.72 0,0.45 -0.32,0.81 -0.82,0.81 -0.94,0 -1.31,-1.44 -1.31,-1.53 0,-0.1 0.1,-0.1 0.12,-0.1 0.09,0 0.1,0.02 0.15,0.18 0.27,0.94 0.67,1.23 1.01,1.23 0.08,0 0.25,0 0.25,-0.31 0,-0.25 -0.1,-0.51 -0.17,-0.7 -0.4,-1.06 -0.58,-1.62 -0.58,-2.09 0,-0.89 0.63,-1.18 1.22,-1.18 0.39,0 0.73,0.16 1.01,0.44 -0.13,-0.51 -0.25,-1 -0.65,-1.53 -0.26,-0.34 -0.64,-0.63 -1.1,-0.63 -0.14,0 -0.59,0.03 -0.76,0.42 0.16,0 0.29,0 0.43,0.12 0.1,0.09 0.2,0.22 0.2,0.41 0,0.31 -0.27,0.35 -0.37,0.35 -0.23,0 -0.55,-0.16 -0.55,-0.65 0,-0.5 0.43,-0.86 1.05,-0.86 1.03,0 2.06,0.9 2.33,2.02 z"
   id="path6530" />
</g>    <g
       id="g6701"
       transform="matrix(1.3291323,0,0,-1.3005534,-350.97718,1908.6347)"
       xml:space="preserve"
       stroke-miterlimit="10.433"
       font-style="normal"
       font-variant="normal"
       font-weight="normal"
       font-stretch="normal"
       font-size-adjust="none"
       letter-spacing="normal"
       word-spacing="normal"
       ns0:text="$$x$$\n\n\n\n"
       ns0:preamble=""
       style="font-style:normal;font-variant:normal;font-weight:normal;font-stretch:normal;letter-spacing:normal;word-spacing:normal;text-anchor:start;fill:none;stroke:#000000;stroke-width:3.04236841;stroke-linecap:butt;stroke-linejoin:miter;stroke-miterlimit:10.43299961;stroke-opacity:1;stroke-dasharray:none;stroke-dashoffset:0">
<path
   style="fill:#000000;stroke-width:0"
   inkscape:connector-curvature="0"
   d="m 395.77,710.13 0.01,0.03 0,0.03 0.01,0.03 0.01,0.04 0.01,0.03 0.01,0.05 0.02,0.04 0.01,0.04 0.02,0.05 0.02,0.05 0.01,0.05 0.02,0.05 0.03,0.05 0.02,0.05 0.03,0.05 0.02,0.04 0.03,0.05 0.04,0.05 0.03,0.05 0.03,0.04 0.04,0.04 0.04,0.04 0.04,0.04 0.05,0.04 0.04,0.03 0.05,0.03 0.03,0.01 0.02,0.01 0.03,0.02 0.03,0.01 0.02,0 0.03,0.01 0.03,0.01 0.03,0 0.03,0.01 0.03,0 0.03,0 0.04,0 c 0.05,0 0.29,0 0.5,-0.12 -0.28,-0.05 -0.48,-0.3 -0.48,-0.54 0,-0.16 0.11,-0.35 0.38,-0.35 0.22,0 0.53,0.18 0.53,0.58 0,0.52 -0.58,0.65 -0.92,0.65 -0.58,0 -0.93,-0.52 -1.05,-0.75 -0.25,0.65 -0.79,0.75 -1.08,0.75 -1.03,0 -1.6,-1.28 -1.6,-1.53 0,-0.1 0.1,-0.1 0.12,-0.1 0.08,0 0.11,0.02 0.13,0.11 0.34,1.06 1,1.3 1.33,1.3 0.19,0 0.54,-0.08 0.54,-0.66 0,-0.31 -0.17,-0.98 -0.54,-2.37 -0.16,-0.62 -0.5,-1.04 -0.94,-1.04 -0.06,0 -0.29,0 -0.5,0.13 0.25,0.05 0.47,0.26 0.47,0.54 0,0.27 -0.22,0.35 -0.37,0.35 -0.3,0 -0.55,-0.26 -0.55,-0.58 0,-0.45 0.5,-0.65 0.94,-0.65 0.66,0 1.01,0.69 1.04,0.75 0.12,-0.37 0.48,-0.75 1.08,-0.75 1.03,0 1.6,1.28 1.6,1.53 0,0.1 -0.09,0.1 -0.12,0.1 -0.09,0 -0.11,-0.04 -0.13,-0.11 -0.33,-1.07 -1.01,-1.31 -1.33,-1.31 -0.39,0 -0.55,0.32 -0.55,0.66 0,0.22 0.06,0.44 0.17,0.88 z"
   id="path6703" />
</g>    <path
       sodipodi:nodetypes="csc"
       inkscape:connector-curvature="0"
       id="path6746"
       d="m 116.1086,926.90015 c 6.80553,-3.79306 7.55883,-14.25243 1.73406,-19.25022 -6.56104,-5.62952 -17.72561,-2.33377 -20.257445,6.47042"
       style="fill:none;stroke:#000000;stroke-width:1px;stroke-linecap:butt;stroke-linejoin:miter;stroke-opacity:1;marker-start:none" />
    <path
       transform="translate(0,852.36218)"
       inkscape:connector-curvature="0"
       id="path7730"
       d="M 97.635129,61.697166 97.345034,56.40293"
       style="fill:none;stroke:#000000;stroke-width:1px;stroke-linecap:butt;stroke-linejoin:miter;stroke-opacity:1" />
    <path
       transform="translate(0,852.36218)"
       inkscape:connector-curvature="0"
       id="path7732"
       d="m 97.562605,61.624642 4.206375,-3.444879"
       style="fill:none;stroke:#000000;stroke-width:1px;stroke-linecap:butt;stroke-linejoin:miter;stroke-opacity:1" />
    <path
       inkscape:connector-curvature="0"
       id="path7734"
       d="M 109.53846,916.66987 77.333333,951.33654"
       style="fill:none;stroke:#000000;stroke-width:1px;stroke-linecap:butt;stroke-linejoin:miter;stroke-opacity:1;marker-end:url(#Arrow2Mend-6)" />
    <path
       transform="matrix(0.71428573,0,0,0.71428573,31.663003,870.27427)"
       d="m 111.17949,65.025642 c 0,1.189537 -0.96431,2.153847 -2.15385,2.153847 -1.18953,0 -2.15384,-0.96431 -2.15384,-2.153847 0,-1.189536 0.96431,-2.153846 2.15384,-2.153846 1.18954,0 2.15385,0.96431 2.15385,2.153846 z"
       sodipodi:ry="2.1538463"
       sodipodi:rx="2.1538463"
       sodipodi:cy="65.025642"
       sodipodi:cx="109.02564"
       id="path7736"
       style="fill:#000000;fill-opacity:1;stroke:none"
       sodipodi:type="arc" />
    <g
       style="font-style:normal;font-variant:normal;font-weight:normal;font-stretch:normal;letter-spacing:normal;word-spacing:normal;text-anchor:start;fill:none;stroke:#000000;stroke-width:3.04236841;stroke-linecap:butt;stroke-linejoin:miter;stroke-miterlimit:10.43299961;stroke-opacity:1;stroke-dasharray:none;stroke-dashoffset:0"
       ns0:preamble=""
       ns0:text="$$H_x$$\n\n"
       word-spacing="normal"
       letter-spacing="normal"
       font-size-adjust="none"
       font-stretch="normal"
       font-weight="normal"
       font-variant="normal"
       font-style="normal"
       stroke-miterlimit="10.433"
       xml:space="preserve"
       transform="matrix(1.3291323,0,0,-1.3005534,-366.02818,1863.0113)"
       id="g8826">
<path
   style="fill:#000000;stroke-width:0"
   inkscape:connector-curvature="0"
   id="path8828"
   d="m 396.24,713.16 0.01,0.03 0.01,0.03 0.01,0.03 0.01,0.03 0,0.03 0.01,0.02 0.01,0.03 0.01,0.02 0.01,0.02 0.01,0.02 0.01,0.02 0.02,0.02 0.01,0.02 0.02,0.01 0.02,0.02 0.01,0.01 0.03,0.01 0.02,0.01 0.02,0.01 0.03,0.01 0.03,0.01 0.02,0.01 0.01,0 0.02,0 0.02,0.01 0.02,0 0.02,0 0.02,0.01 0.02,0 0.02,0 0.02,0 0.03,0 0.02,0.01 0.02,0 0.03,0 0.03,0 0.03,0 0.02,0 0.03,0 0.03,0 0.04,0 0.03,0 0.03,0 c 0.26,0 0.34,0 0.34,0.2 0,0.11 -0.11,0.11 -0.14,0.11 -0.28,0 -0.99,-0.03 -1.27,-0.03 -0.29,0 -1,0.03 -1.29,0.03 -0.08,0 -0.19,0 -0.19,-0.2 0,-0.11 0.09,-0.11 0.28,-0.11 0.02,0 0.21,0 0.38,-0.02 0.18,-0.02 0.27,-0.03 0.27,-0.16 0,-0.03 -0.01,-0.05 -0.04,-0.18 l -0.6,-2.43 h -3.04 l 0.59,2.34 c 0.09,0.36 0.12,0.45 0.83,0.45 0.26,0 0.34,0 0.34,0.2 0,0.11 -0.11,0.11 -0.14,0.11 -0.27,0 -0.99,-0.03 -1.27,-0.03 -0.29,0 -1,0.03 -1.29,0.03 -0.08,0 -0.19,0 -0.19,-0.2 0,-0.11 0.09,-0.11 0.28,-0.11 0.02,0 0.21,0 0.38,-0.02 0.18,-0.02 0.27,-0.03 0.27,-0.16 0,-0.03 -0.01,-0.07 -0.04,-0.18 l -1.34,-5.35 c -0.1,-0.39 -0.12,-0.47 -0.9,-0.47 -0.18,0 -0.27,0 -0.27,-0.2 0,-0.1 0.12,-0.1 0.14,-0.1 0.28,0 0.98,0.03 1.26,0.03 0.21,0 0.43,-0.01 0.64,-0.01 0.22,0 0.44,-0.02 0.65,-0.02 0.08,0 0.2,0 0.2,0.19 0,0.11 -0.09,0.11 -0.28,0.11 -0.37,0 -0.65,0 -0.65,0.18 0,0.06 0.02,0.11 0.03,0.17 l 0.68,2.73 h 3.04 c -0.42,-1.65 -0.65,-2.6 -0.69,-2.75 -0.1,-0.32 -0.29,-0.33 -0.91,-0.33 -0.15,0 -0.24,0 -0.24,-0.2 0,-0.1 0.12,-0.1 0.15,-0.1 0.27,0 0.98,0.03 1.26,0.03 0.21,0 0.43,-0.01 0.64,-0.01 0.22,0 0.44,-0.02 0.65,-0.02 0.08,0 0.2,0 0.2,0.19 0,0.11 -0.09,0.11 -0.28,0.11 -0.37,0 -0.65,0 -0.65,0.18 0,0.06 0.02,0.11 0.03,0.17 z" />
<path
   style="fill:#000000;stroke-width:0"
   inkscape:connector-curvature="0"
   id="path8830"
   d="m 398.65,706.37 0,-0.02 -0.01,-0.03 -0.01,-0.02 -0.01,-0.03 -0.01,-0.02 -0.01,-0.03 -0.01,-0.02 -0.02,-0.03 -0.01,-0.02 -0.02,-0.03 -0.01,-0.02 -0.02,-0.03 -0.02,-0.02 -0.02,-0.03 -0.02,-0.02 -0.02,-0.03 -0.02,-0.02 -0.02,-0.02 -0.02,-0.02 -0.03,-0.02 -0.02,-0.02 -0.02,-0.02 -0.03,-0.02 -0.03,-0.01 -0.03,-0.02 -0.02,-0.01 -0.03,-0.01 -0.03,-0.01 -0.03,0 -0.03,-0.01 -0.04,0 -0.03,0 c -0.02,0 -0.23,0 -0.38,0.09 0.29,0.09 0.31,0.34 0.31,0.39 0,0.15 -0.12,0.25 -0.28,0.25 -0.19,0 -0.4,-0.16 -0.4,-0.42 0,-0.35 0.39,-0.51 0.74,-0.51 0.32,0 0.6,0.2 0.78,0.49 0.16,-0.36 0.55,-0.49 0.82,-0.49 0.8,0 1.23,0.87 1.23,1.07 0,0.09 -0.09,0.09 -0.11,0.09 -0.1,0 -0.11,-0.04 -0.13,-0.12 -0.15,-0.48 -0.57,-0.84 -0.96,-0.84 -0.28,0 -0.42,0.18 -0.42,0.45 0,0.18 0.16,0.81 0.36,1.58 0.14,0.54 0.45,0.71 0.68,0.71 0.02,0 0.23,0 0.38,-0.09 -0.23,-0.07 -0.31,-0.26 -0.31,-0.39 0,-0.15 0.12,-0.25 0.28,-0.25 0.16,0 0.39,0.13 0.39,0.42 0,0.39 -0.44,0.51 -0.72,0.51 -0.35,0 -0.63,-0.23 -0.78,-0.5 -0.13,0.29 -0.45,0.5 -0.84,0.5 -0.78,0 -1.22,-0.86 -1.22,-1.07 0,-0.09 0.09,-0.09 0.11,-0.09 0.09,0 0.1,0.03 0.14,0.12 0.17,0.54 0.61,0.84 0.95,0.84 0.23,0 0.42,-0.12 0.42,-0.46 0,-0.13 -0.09,-0.48 -0.15,-0.72 z" />
</g>    <g
       id="g9213"
       transform="matrix(1.3291323,0,0,-1.3005534,-339.01017,1814.1201)"
       xml:space="preserve"
       stroke-miterlimit="10.433"
       font-style="normal"
       font-variant="normal"
       font-weight="normal"
       font-stretch="normal"
       font-size-adjust="none"
       letter-spacing="normal"
       word-spacing="normal"
       ns0:text="$$H_x+\\frac{\\partial H_x}{\\partial y}dy$$\n\n\n\n"
       ns0:preamble=""
       style="font-style:normal;font-variant:normal;font-weight:normal;font-stretch:normal;letter-spacing:normal;word-spacing:normal;text-anchor:start;fill:none;stroke:#000000;stroke-width:3.04236841;stroke-linecap:butt;stroke-linejoin:miter;stroke-miterlimit:10.43299961;stroke-opacity:1;stroke-dasharray:none;stroke-dashoffset:0">
<path
   style="fill:#000000;stroke-width:0"
   inkscape:connector-curvature="0"
   d="m 374.18,709.46 0.01,0.03 0,0.03 0.01,0.03 0.01,0.03 0.01,0.03 0.01,0.03 0.01,0.02 0,0.02 0.01,0.02 0.02,0.03 0.01,0.01 0.01,0.02 0.01,0.02 0.02,0.02 0.02,0.01 0.02,0.01 0.02,0.02 0.02,0.01 0.03,0.01 0.02,0.01 0.03,0.01 0.02,0 0.02,0 0.01,0.01 0.02,0 0.02,0 0.02,0.01 0.02,0 0.02,0 0.02,0 0.03,0.01 0.02,0 0.02,0 0.03,0 0.02,0 0.03,0 0.03,0.01 0.03,0 0.03,0 0.03,0 0.03,0 0.03,0 0.04,0 c 0.25,0 0.33,0 0.33,0.2 0,0.11 -0.11,0.11 -0.14,0.11 -0.28,0 -0.99,-0.03 -1.27,-0.03 -0.29,0 -1,0.03 -1.29,0.03 -0.08,0 -0.19,0 -0.19,-0.2 0,-0.11 0.09,-0.11 0.28,-0.11 0.02,0 0.21,0 0.38,-0.02 0.18,-0.02 0.27,-0.03 0.27,-0.16 0,-0.04 -0.01,-0.06 -0.04,-0.19 l -0.6,-2.43 h -3.04 l 0.59,2.34 c 0.09,0.36 0.12,0.46 0.84,0.46 0.26,0 0.34,0 0.34,0.2 0,0.11 -0.11,0.11 -0.14,0.11 -0.28,0 -1,-0.03 -1.28,-0.03 -0.29,0 -1,0.03 -1.29,0.03 -0.07,0 -0.18,0 -0.18,-0.2 0,-0.11 0.08,-0.11 0.27,-0.11 0.03,0 0.21,0 0.38,-0.02 0.18,-0.02 0.27,-0.03 0.27,-0.16 0,-0.04 -0.01,-0.07 -0.04,-0.19 l -1.33,-5.34 c -0.1,-0.39 -0.12,-0.47 -0.91,-0.47 -0.18,0 -0.27,0 -0.27,-0.2 0,-0.11 0.12,-0.11 0.14,-0.11 0.28,0 0.99,0.03 1.27,0.03 0.21,0 0.43,-0.01 0.63,-0.01 0.22,0 0.44,-0.02 0.65,-0.02 0.08,0 0.2,0 0.2,0.2 0,0.11 -0.09,0.11 -0.28,0.11 -0.37,0 -0.65,0 -0.65,0.18 0,0.06 0.02,0.11 0.03,0.17 l 0.68,2.72 h 3.04 c -0.42,-1.65 -0.65,-2.59 -0.69,-2.74 -0.09,-0.32 -0.28,-0.33 -0.9,-0.33 -0.15,0 -0.24,0 -0.24,-0.2 0,-0.11 0.12,-0.11 0.14,-0.11 0.28,0 0.98,0.03 1.26,0.03 0.21,0 0.43,-0.01 0.64,-0.01 0.22,0 0.44,-0.02 0.65,-0.02 0.08,0 0.2,0 0.2,0.2 0,0.11 -0.09,0.11 -0.28,0.11 -0.37,0 -0.65,0 -0.65,0.18 0,0.06 0.02,0.11 0.03,0.17 z"
   id="path9215" />
<path
   style="fill:#000000;stroke-width:0"
   inkscape:connector-curvature="0"
   d="m 376.59,702.67 -0.01,-0.02 -0.01,-0.02 -0.01,-0.03 -0.01,-0.02 -0.01,-0.03 -0.01,-0.02 -0.01,-0.03 -0.01,-0.02 -0.02,-0.03 -0.01,-0.02 -0.02,-0.03 -0.02,-0.03 -0.01,-0.02 -0.02,-0.02 -0.02,-0.03 -0.02,-0.02 -0.02,-0.03 -0.03,-0.02 -0.02,-0.02 -0.02,-0.02 -0.03,-0.02 -0.02,-0.02 -0.03,-0.01 -0.02,-0.02 -0.03,-0.01 -0.03,-0.01 -0.03,-0.01 -0.03,-0.01 -0.03,-0.01 -0.03,-0.01 -0.03,0 -0.04,0 c -0.02,0 -0.23,0 -0.37,0.1 0.28,0.09 0.3,0.34 0.3,0.38 0,0.15 -0.12,0.26 -0.28,0.26 -0.19,0 -0.39,-0.17 -0.39,-0.43 0,-0.34 0.39,-0.51 0.73,-0.51 0.32,0 0.6,0.21 0.78,0.5 0.17,-0.37 0.55,-0.5 0.83,-0.5 0.8,0 1.22,0.87 1.22,1.07 0,0.09 -0.09,0.09 -0.11,0.09 -0.1,0 -0.1,-0.04 -0.13,-0.12 -0.15,-0.48 -0.56,-0.84 -0.96,-0.84 -0.27,0 -0.42,0.19 -0.42,0.45 0,0.18 0.17,0.82 0.36,1.59 0.14,0.53 0.46,0.71 0.68,0.71 0.02,0 0.23,0 0.38,-0.1 -0.22,-0.06 -0.31,-0.26 -0.31,-0.38 0,-0.16 0.12,-0.26 0.28,-0.26 0.16,0 0.39,0.13 0.39,0.42 0,0.39 -0.44,0.51 -0.72,0.51 -0.35,0 -0.63,-0.23 -0.78,-0.49 -0.13,0.28 -0.45,0.49 -0.84,0.49 -0.78,0 -1.22,-0.85 -1.22,-1.06 0,-0.09 0.1,-0.09 0.12,-0.09 0.09,0 0.09,0.03 0.13,0.12 0.17,0.54 0.61,0.84 0.95,0.84 0.23,0 0.42,-0.13 0.42,-0.46 0,-0.14 -0.08,-0.49 -0.15,-0.72 z"
   id="path9217" />
<path
   style="fill:#000000;stroke-width:0"
   inkscape:connector-curvature="0"
   d="m 386.16,705.72 h 2.78 c 0.14,0 0.33,0 0.33,0.2 0,0.2 -0.19,0.2 -0.33,0.2 h -2.78 v 2.78 c 0,0.14 0,0.33 -0.2,0.33 -0.2,0 -0.2,-0.19 -0.2,-0.33 v -2.78 h -2.79 c -0.14,0 -0.33,0 -0.33,-0.2 0,-0.2 0.19,-0.2 0.33,-0.2 h 2.79 v -2.79 c 0,-0.14 0,-0.33 0.2,-0.33 0.2,0 0.2,0.19 0.2,0.33 z"
   id="path9219" />
<path
   style="fill:#000000;stroke-width:0"
   inkscape:connector-curvature="0"
   d="m 397.86,713.54 -0.01,0.06 -0.02,0.06 -0.01,0.05 -0.02,0.06 -0.01,0.06 -0.02,0.05 -0.02,0.05 -0.03,0.06 -0.02,0.05 -0.03,0.05 -0.03,0.05 -0.03,0.05 -0.03,0.04 -0.04,0.05 -0.03,0.04 -0.04,0.04 -0.04,0.04 -0.05,0.04 -0.04,0.03 -0.05,0.04 -0.05,0.03 -0.05,0.03 -0.05,0.03 -0.05,0.02 -0.06,0.02 -0.06,0.02 -0.06,0.02 -0.07,0.01 -0.06,0.01 -0.07,0.01 -0.07,0.01 -0.07,0 v -0.22 c 1.09,0 1.11,-1.12 1.11,-1.32 0,-0.71 -0.64,-2.95 -2.18,-2.95 h 0 c -1.09,0 -1.09,1.02 -1.09,1.12 0,0.27 0.25,1.67 0.66,2.26 0.39,0.57 0.88,0.89 1.5,0.89 v 0.22 c -0.61,0 -1.26,-0.16 -2.03,-0.94 -0.83,-0.82 -0.9,-1.75 -0.9,-2.06 0,-0.62 0.44,-1.77 1.83,-1.77 2.38,0 3.41,3.34 3.41,4.77 0,1.58 -0.92,2.57 -2.15,2.57 -1.44,0 -1.9,-1.29 -1.9,-1.57 0,-0.14 0.08,-0.35 0.37,-0.35 0.33,0 0.54,0.3 0.54,0.53 0,0.35 -0.31,0.35 -0.47,0.35 0.44,0.74 1.15,0.8 1.44,0.8 0.73,0 1.43,-0.52 1.43,-1.81 0,-0.38 -0.06,-0.89 -0.27,-1.7 z"
   id="path9221" />
<path
   style="fill:#000000;stroke-width:0"
   inkscape:connector-curvature="0"
   d="m 406.69,716.2 0.01,0.03 0.01,0.03 0.01,0.03 0.01,0.03 0,0.03 0.01,0.03 0.01,0.02 0.01,0.02 0.01,0.02 0.01,0.03 0.01,0.01 0.02,0.02 0.01,0.02 0.02,0.02 0.01,0.01 0.02,0.01 0.02,0.02 0.03,0.01 0.02,0.01 0.03,0.01 0.03,0.01 0.03,0 0.02,0.01 0.02,0 0.02,0 0.02,0.01 0.02,0 0.02,0 0.02,0 0.02,0.01 0.02,0 0.03,0 0.02,0 0.03,0 0.03,0 0.02,0.01 0.03,0 0.03,0 0.03,0 0.03,0 0.04,0 0.03,0 c 0.26,0 0.34,0 0.34,0.2 0,0.11 -0.11,0.11 -0.14,0.11 -0.28,0 -1,-0.03 -1.28,-0.03 -0.28,0 -0.99,0.03 -1.28,0.03 -0.08,0 -0.19,0 -0.19,-0.2 0,-0.11 0.09,-0.11 0.28,-0.11 0.02,0 0.21,0 0.38,-0.02 0.18,-0.02 0.27,-0.03 0.27,-0.16 0,-0.04 -0.01,-0.06 -0.04,-0.19 l -0.6,-2.43 h -3.04 l 0.59,2.34 c 0.09,0.36 0.12,0.46 0.83,0.46 0.26,0 0.34,0 0.34,0.2 0,0.11 -0.11,0.11 -0.14,0.11 -0.28,0 -0.99,-0.03 -1.27,-0.03 -0.29,0 -1,0.03 -1.29,0.03 -0.08,0 -0.19,0 -0.19,-0.2 0,-0.11 0.09,-0.11 0.28,-0.11 0.02,0 0.21,0 0.38,-0.02 0.18,-0.02 0.27,-0.03 0.27,-0.16 0,-0.04 -0.01,-0.07 -0.04,-0.19 l -1.34,-5.34 c -0.1,-0.39 -0.12,-0.47 -0.9,-0.47 -0.18,0 -0.27,0 -0.27,-0.2 0,-0.11 0.12,-0.11 0.14,-0.11 0.27,0 0.98,0.03 1.26,0.03 0.21,0 0.43,-0.01 0.64,-0.01 0.22,0 0.44,-0.02 0.65,-0.02 0.08,0 0.2,0 0.2,0.2 0,0.11 -0.09,0.11 -0.28,0.11 -0.37,0 -0.65,0 -0.65,0.18 0,0.06 0.02,0.11 0.03,0.17 l 0.68,2.72 h 3.04 c -0.42,-1.65 -0.65,-2.59 -0.69,-2.74 -0.1,-0.32 -0.29,-0.33 -0.91,-0.33 -0.15,0 -0.24,0 -0.24,-0.2 0,-0.11 0.12,-0.11 0.14,-0.11 0.28,0 0.99,0.03 1.27,0.03 0.21,0 0.43,-0.01 0.64,-0.01 0.22,0 0.44,-0.02 0.65,-0.02 0.08,0 0.19,0 0.19,0.2 0,0.11 -0.08,0.11 -0.27,0.11 -0.37,0 -0.65,0 -0.65,0.18 0,0.06 0.02,0.11 0.03,0.17 z"
   id="path9223" />
<path
   style="fill:#000000;stroke-width:0"
   inkscape:connector-curvature="0"
   d="m 409.1,709.41 -0.01,-0.02 -0.01,-0.02 0,-0.03 -0.01,-0.02 -0.02,-0.03 -0.01,-0.02 -0.01,-0.03 -0.01,-0.02 -0.02,-0.03 -0.01,-0.02 -0.02,-0.03 -0.01,-0.03 -0.02,-0.02 -0.02,-0.02 -0.02,-0.03 -0.02,-0.02 -0.02,-0.03 -0.02,-0.02 -0.03,-0.02 -0.02,-0.02 -0.02,-0.02 -0.03,-0.02 -0.03,-0.01 -0.02,-0.02 -0.03,-0.01 -0.03,-0.01 -0.03,-0.01 -0.03,-0.01 -0.03,-0.01 -0.03,-0.01 -0.03,0 -0.03,0 c -0.03,0 -0.24,0 -0.38,0.1 0.28,0.09 0.31,0.34 0.31,0.38 0,0.15 -0.12,0.26 -0.28,0.26 -0.2,0 -0.4,-0.17 -0.4,-0.43 0,-0.34 0.39,-0.51 0.73,-0.51 0.32,0 0.61,0.21 0.78,0.5 0.17,-0.37 0.55,-0.5 0.83,-0.5 0.8,0 1.23,0.87 1.23,1.07 0,0.09 -0.1,0.09 -0.12,0.09 -0.09,0 -0.1,-0.04 -0.13,-0.12 -0.14,-0.48 -0.56,-0.84 -0.95,-0.84 -0.28,0 -0.43,0.19 -0.43,0.45 0,0.18 0.17,0.82 0.37,1.59 0.13,0.53 0.45,0.71 0.68,0.71 0.01,0 0.23,0 0.37,-0.1 -0.22,-0.06 -0.3,-0.26 -0.3,-0.38 0,-0.16 0.12,-0.26 0.28,-0.26 0.16,0 0.38,0.13 0.38,0.42 0,0.39 -0.44,0.51 -0.72,0.51 -0.35,0 -0.63,-0.23 -0.78,-0.49 -0.12,0.28 -0.44,0.49 -0.84,0.49 -0.78,0 -1.22,-0.85 -1.22,-1.06 0,-0.09 0.1,-0.09 0.12,-0.09 0.09,0 0.1,0.02 0.13,0.12 0.17,0.54 0.61,0.84 0.95,0.84 0.23,0 0.42,-0.13 0.42,-0.46 0,-0.14 -0.08,-0.49 -0.14,-0.73 z"
   id="path9225" />
<line
   style="stroke-width:0.398"
   x1="393.23999"
   y1="705.91998"
   x2="412.38"
   y2="705.91998"
   id="line9227" />
<path
   style="fill:#000000;stroke-width:0"
   inkscape:connector-curvature="0"
   d="m 401.88,699.97 -0.01,0.06 -0.01,0.05 -0.01,0.06 -0.02,0.06 -0.02,0.05 -0.01,0.06 -0.03,0.05 -0.02,0.05 -0.02,0.06 -0.03,0.05 -0.03,0.04 -0.03,0.05 -0.03,0.05 -0.04,0.04 -0.04,0.05 -0.03,0.04 -0.05,0.04 -0.04,0.04 -0.04,0.03 -0.05,0.04 -0.05,0.03 -0.05,0.03 -0.05,0.02 -0.06,0.03 -0.05,0.02 -0.06,0.02 -0.06,0.02 -0.07,0.01 -0.06,0.01 -0.07,0.01 -0.07,0 -0.07,0 v -0.22 c 1.08,0 1.1,-1.11 1.1,-1.31 0,-0.71 -0.63,-2.95 -2.17,-2.95 h 0 c -1.1,0 -1.1,1.02 -1.1,1.12 0,0.27 0.25,1.66 0.66,2.26 0.4,0.57 0.89,0.88 1.51,0.88 v 0.22 c -0.61,0 -1.26,-0.16 -2.03,-0.93 -0.83,-0.83 -0.9,-1.75 -0.9,-2.06 0,-0.62 0.44,-1.77 1.83,-1.77 2.37,0 3.41,3.34 3.41,4.76 0,1.59 -0.93,2.58 -2.15,2.58 -1.45,0 -1.91,-1.29 -1.91,-1.57 0,-0.14 0.08,-0.35 0.38,-0.35 0.33,0 0.54,0.3 0.54,0.53 0,0.35 -0.31,0.35 -0.47,0.35 0.44,0.73 1.15,0.79 1.44,0.79 0.73,0 1.42,-0.51 1.42,-1.8 0,-0.39 -0.06,-0.89 -0.27,-1.7 z"
   id="path9229" />
<path
   style="fill:#000000;stroke-width:0"
   inkscape:connector-curvature="0"
   d="m 407.96,700.39 0,0 0,0.01 0.01,0.01 0,0 0,0.01 0,0.01 0.01,0.02 0,0 0,0.01 0,0.01 0.01,0.01 0,0.01 0,0.01 0,0 0,0.01 0,0.01 0.01,0 0,0.01 0,0 0,0.01 0,0.01 0,0.01 0,0.01 0,0.01 0,0.01 0,0.01 0,0 0,0.01 0,0.01 c 0,0.18 -0.14,0.27 -0.29,0.27 -0.1,0 -0.26,-0.06 -0.35,-0.21 -0.02,-0.05 -0.1,-0.36 -0.14,-0.54 -0.07,-0.26 -0.14,-0.53 -0.2,-0.8 l -0.44,-1.79 c -0.04,-0.15 -0.47,-0.84 -1.13,-0.84 -0.51,0 -0.62,0.43 -0.62,0.8 0,0.46 0.17,1.08 0.51,1.95 0.16,0.41 0.2,0.52 0.2,0.72 0,0.45 -0.32,0.81 -0.82,0.81 -0.95,0 -1.32,-1.44 -1.32,-1.53 0,-0.1 0.11,-0.1 0.12,-0.1 0.1,0 0.11,0.02 0.16,0.18 0.27,0.94 0.67,1.24 1.01,1.24 0.08,0 0.25,0 0.25,-0.32 0,-0.25 -0.1,-0.51 -0.17,-0.7 -0.4,-1.05 -0.58,-1.62 -0.58,-2.09 0,-0.89 0.63,-1.18 1.22,-1.18 0.39,0 0.73,0.17 1.01,0.44 -0.13,-0.51 -0.25,-1 -0.65,-1.53 -0.26,-0.34 -0.64,-0.62 -1.1,-0.62 -0.14,0 -0.59,0.02 -0.76,0.41 0.16,0 0.29,0 0.43,0.12 0.1,0.09 0.2,0.22 0.2,0.41 0,0.31 -0.27,0.35 -0.37,0.35 -0.23,0 -0.56,-0.16 -0.56,-0.65 0,-0.5 0.44,-0.86 1.06,-0.86 1.03,0 2.06,0.9 2.33,2.03 z"
   id="path9231" />
<path
   style="fill:#000000;stroke-width:0"
   inkscape:connector-curvature="0"
   d="m 418.72,710.23 0,0 0,0 0,0 0,0 0,0 0,0.01 0,0 0,0 0,0.01 0,0 0,0.01 -0.01,0 0,0.01 0,0 0,0.01 0,0 -0.01,0.01 0,0 0,0 -0.01,0.01 0,0 0,0.01 -0.01,0 0,0 0,0 -0.01,0 0,0.01 0,0 0,0 -0.01,0 0,0 -0.01,0.01 0,0 0,0 -0.01,0 0,0 -0.01,0 0,0 -0.01,0 0,0 -0.01,0 0,0.01 -0.01,0 0,0 -0.01,0 c -0.15,0 -1.1,-0.09 -1.27,-0.11 -0.08,-0.01 -0.14,-0.06 -0.14,-0.19 0,-0.12 0.09,-0.12 0.24,-0.12 0.48,0 0.5,-0.07 0.5,-0.17 l -0.03,-0.2 -0.6,-2.36 c -0.18,0.37 -0.46,0.64 -0.91,0.64 -1.17,0 -2.4,-1.47 -2.4,-2.92 0,-0.93 0.54,-1.59 1.32,-1.59 l 0.02,0.22 c -0.5,0 -0.64,0.55 -0.64,0.93 0,0.5 0.32,1.73 0.55,2.18 0.31,0.59 0.76,0.96 1.16,0.96 0.65,0 0.78,-0.82 0.78,-0.88 0,-0.06 -0.02,-0.12 -0.03,-0.17 l -0.49,-1.95 c -0.05,-0.18 -0.05,-0.2 -0.2,-0.37 -0.44,-0.54 -0.85,-0.7 -1.13,-0.7 l -0.02,-0.22 c 0.2,0 0.7,0.04 1.3,0.75 0.08,-0.42 0.42,-0.75 0.9,-0.75 0.35,0 0.58,0.23 0.74,0.55 0.17,0.35 0.3,0.96 0.3,0.98 0,0.1 -0.09,0.1 -0.12,0.1 -0.1,0 -0.11,-0.04 -0.14,-0.18 -0.17,-0.64 -0.35,-1.23 -0.76,-1.23 -0.27,0 -0.3,0.26 -0.3,0.46 0,0.23 0.02,0.3 0.06,0.47 z"
   id="path9233" />
<path
   style="fill:#000000;stroke-width:0"
   inkscape:connector-curvature="0"
   d="m 423.61,707.22 0,0.01 0,0 0,0.01 0,0.01 0.01,0.01 0,0.01 0,0.01 0,0.01 0.01,0.01 0,0.01 0,0 0,0.01 0,0.01 0.01,0.01 0,0 0,0.01 0,0.01 0,0 0,0.01 0,0 0,0.01 0,0.01 0.01,0.01 0,0.01 0,0.02 0,0 0,0.01 0,0 0,0.01 c 0,0.18 -0.14,0.27 -0.29,0.27 -0.1,0 -0.26,-0.06 -0.35,-0.21 -0.02,-0.05 -0.1,-0.36 -0.14,-0.54 -0.07,-0.26 -0.14,-0.52 -0.2,-0.79 l -0.45,-1.8 c -0.04,-0.15 -0.47,-0.84 -1.13,-0.84 -0.5,0 -0.61,0.44 -0.61,0.8 0,0.46 0.17,1.08 0.5,1.95 0.16,0.41 0.2,0.52 0.2,0.72 0,0.45 -0.32,0.82 -0.81,0.82 -0.95,0 -1.32,-1.44 -1.32,-1.54 0,-0.09 0.1,-0.09 0.12,-0.09 0.1,0 0.11,0.02 0.16,0.18 0.27,0.93 0.67,1.23 1.01,1.23 0.08,0 0.25,0 0.25,-0.32 0,-0.25 -0.1,-0.51 -0.17,-0.7 -0.4,-1.05 -0.58,-1.62 -0.58,-2.09 0,-0.88 0.63,-1.18 1.21,-1.18 0.39,0 0.73,0.17 1.01,0.45 -0.13,-0.52 -0.25,-1.01 -0.65,-1.54 -0.26,-0.33 -0.64,-0.62 -1.09,-0.62 -0.14,0 -0.59,0.03 -0.76,0.42 0.16,0 0.29,0 0.43,0.12 0.1,0.08 0.2,0.21 0.2,0.4 0,0.31 -0.27,0.35 -0.37,0.35 -0.23,0 -0.56,-0.16 -0.56,-0.64 0,-0.5 0.44,-0.87 1.06,-0.87 1.02,0 2.05,0.9 2.33,2.03 z"
   id="path9235" />
</g>    <path
       inkscape:connector-curvature="0"
       id="path8718-6-2-9"
       d="m 134.24001,895.83103 0.0328,-13.91176"
       style="fill:none;stroke:#000000;stroke-width:1px;stroke-linecap:butt;stroke-linejoin:miter;stroke-opacity:1;marker-end:url(#Arrow2Mend-6)" />
    <g
       style="font-style:normal;font-variant:normal;font-weight:normal;font-stretch:normal;letter-spacing:normal;word-spacing:normal;text-anchor:start;fill:none;stroke:#000000;stroke-width:3.04236841;stroke-linecap:butt;stroke-linejoin:miter;stroke-miterlimit:10.43299961;stroke-opacity:1;stroke-dasharray:none;stroke-dashoffset:0"
       ns0:preamble=""
       ns0:text="$$H_y$$\n\n\n"
       word-spacing="normal"
       letter-spacing="normal"
       font-size-adjust="none"
       font-stretch="normal"
       font-weight="normal"
       font-variant="normal"
       font-style="normal"
       stroke-miterlimit="10.433"
       xml:space="preserve"
       transform="matrix(0,-1.3291323,-1.3005534,0,1006.9068,1395.6176)"
       id="g9490">
<path
   style="fill:#000000;stroke-width:0"
   inkscape:connector-curvature="0"
   id="path9492"
   d="m 396.36,713.16 0.01,0.03 0.01,0.03 0,0.03 0.01,0.03 0.01,0.03 0.01,0.02 0.01,0.03 0.01,0.02 0.01,0.02 0.01,0.02 0.01,0.02 0.01,0.02 0.02,0.02 0.01,0.01 0.02,0.02 0.02,0.01 0.02,0.01 0.02,0.01 0.03,0.01 0.03,0.01 0.03,0.01 0.03,0.01 0.02,0 0.01,0.01 0.02,0 0.02,0 0.02,0.01 0.02,0 0.02,0 0.03,0 0.02,0 0.02,0.01 0.03,0 0.03,0 0.02,0 0.03,0 0.03,0 0.03,0 0.03,0 0.03,0 0.03,0 0.04,0 c 0.25,0 0.34,0 0.34,0.2 0,0.11 -0.12,0.11 -0.14,0.11 -0.28,0 -1,-0.03 -1.28,-0.03 -0.29,0 -1,0.03 -1.29,0.03 -0.08,0 -0.19,0 -0.19,-0.2 0,-0.11 0.09,-0.11 0.28,-0.11 0.02,0 0.21,0 0.38,-0.02 0.18,-0.02 0.27,-0.03 0.27,-0.16 0,-0.03 -0.01,-0.05 -0.04,-0.18 l -0.6,-2.43 h -3.04 l 0.59,2.34 c 0.09,0.36 0.12,0.45 0.84,0.45 0.26,0 0.34,0 0.34,0.2 0,0.11 -0.11,0.11 -0.14,0.11 -0.28,0 -1,-0.03 -1.28,-0.03 -0.29,0 -1,0.03 -1.28,0.03 -0.08,0 -0.19,0 -0.19,-0.2 0,-0.11 0.09,-0.11 0.28,-0.11 0.02,0 0.21,0 0.37,-0.02 0.18,-0.02 0.27,-0.03 0.27,-0.16 0,-0.03 -0.01,-0.07 -0.04,-0.18 l -1.33,-5.35 c -0.1,-0.39 -0.12,-0.47 -0.91,-0.47 -0.18,0 -0.27,0 -0.27,-0.2 0,-0.1 0.12,-0.1 0.14,-0.1 0.28,0 0.99,0.03 1.27,0.03 0.21,0 0.43,-0.01 0.63,-0.01 0.22,0 0.44,-0.02 0.65,-0.02 0.08,0 0.2,0 0.2,0.19 0,0.11 -0.09,0.11 -0.28,0.11 -0.36,0 -0.64,0 -0.64,0.18 0,0.06 0.02,0.11 0.03,0.17 l 0.67,2.73 h 3.04 c -0.42,-1.65 -0.64,-2.6 -0.68,-2.75 -0.1,-0.32 -0.29,-0.33 -0.91,-0.33 -0.15,0 -0.24,0 -0.24,-0.2 0,-0.1 0.12,-0.1 0.14,-0.1 0.28,0 0.99,0.03 1.26,0.03 0.21,0 0.43,-0.01 0.64,-0.01 0.22,0 0.44,-0.02 0.65,-0.02 0.08,0 0.2,0 0.2,0.19 0,0.11 -0.09,0.11 -0.28,0.11 -0.37,0 -0.65,0 -0.65,0.18 0,0.06 0.02,0.11 0.03,0.17 z" />
<path
   style="fill:#000000;stroke-width:0"
   inkscape:connector-curvature="0"
   id="path9494"
   d="m 400.91,708.25 0,0.01 0,0 0,0.01 0,0 0,0 0,0.01 0.01,0.01 0,0 0,0.01 0,0.01 0,0 0,0.01 0,0 0.01,0.01 0,0 0,0.01 0,0 0,0.01 0,0 0,0 0,0.01 0,0 0,0 0,0.01 0,0.01 0,0 0,0.01 0,0 0,0.01 0,0 0,0.01 c 0,0.13 -0.11,0.22 -0.23,0.22 -0.07,0 -0.21,-0.04 -0.28,-0.17 -0.02,-0.04 -0.08,-0.26 -0.11,-0.4 l -0.15,-0.58 c -0.04,-0.17 -0.26,-1.04 -0.28,-1.12 0,0 -0.31,-0.6 -0.85,-0.6 -0.48,0 -0.48,0.45 -0.48,0.57 0,0.38 0.16,0.82 0.37,1.35 0.09,0.23 0.12,0.31 0.12,0.43 0,0.33 -0.29,0.59 -0.66,0.59 -0.71,0 -1.02,-0.95 -1.02,-1.07 0,-0.09 0.1,-0.09 0.12,-0.09 0.1,0 0.1,0.04 0.13,0.11 0.17,0.58 0.47,0.85 0.75,0.85 0.12,0 0.17,-0.07 0.17,-0.24 0,-0.16 -0.06,-0.31 -0.1,-0.4 -0.33,-0.85 -0.4,-1.11 -0.4,-1.42 0,-0.11 0,-0.44 0.27,-0.66 0.22,-0.18 0.51,-0.22 0.7,-0.22 0.28,0 0.53,0.11 0.76,0.31 -0.09,-0.38 -0.17,-0.67 -0.46,-1.02 -0.19,-0.21 -0.47,-0.44 -0.84,-0.44 -0.05,0 -0.37,0 -0.52,0.23 0.38,0.04 0.38,0.37 0.38,0.38 0,0.22 -0.21,0.26 -0.28,0.26 -0.17,0 -0.4,-0.14 -0.4,-0.46 0,-0.35 0.33,-0.61 0.83,-0.61 0.7,0 1.56,0.55 1.77,1.41 z" />
</g>    <g
       id="g9646"
       transform="matrix(0,-1.3291323,-1.3005534,0,1053.3915,1368.2778)"
       xml:space="preserve"
       stroke-miterlimit="10.433"
       font-style="normal"
       font-variant="normal"
       font-weight="normal"
       font-stretch="normal"
       font-size-adjust="none"
       letter-spacing="normal"
       word-spacing="normal"
       ns0:text="$$H_y+\\frac{\\partial H_y}{\\partial x}dx$$\n\n\n\n\n"
       ns0:preamble=""
       style="font-style:normal;font-variant:normal;font-weight:normal;font-stretch:normal;letter-spacing:normal;word-spacing:normal;text-anchor:start;fill:none;stroke:#000000;stroke-width:3.04236841;stroke-linecap:butt;stroke-linejoin:miter;stroke-miterlimit:10.43299961;stroke-opacity:1;stroke-dasharray:none;stroke-dashoffset:0">
<path
   style="fill:#000000;stroke-width:0"
   inkscape:connector-curvature="0"
   d="m 374.18,709.46 0.01,0.03 0.01,0.03 0,0.03 0.01,0.03 0.01,0.03 0.01,0.03 0.01,0.02 0.01,0.02 0.01,0.02 0.01,0.03 0.01,0.01 0.01,0.02 0.02,0.02 0.01,0.02 0.02,0.01 0.02,0.01 0.02,0.02 0.02,0.01 0.03,0.01 0.03,0.01 0.03,0.01 0.03,0 0.02,0.01 0.01,0 0.02,0 0.02,0.01 0.02,0 0.02,0 0.02,0 0.03,0.01 0.02,0 0.02,0 0.03,0 0.02,0 0.03,0 0.03,0.01 0.03,0 0.03,0 0.03,0 0.03,0 0.03,0 0.04,0 c 0.25,0 0.34,0 0.34,0.2 0,0.11 -0.12,0.11 -0.14,0.11 -0.28,0 -1,-0.03 -1.28,-0.03 -0.29,0 -1,0.03 -1.29,0.03 -0.08,0 -0.19,0 -0.19,-0.2 0,-0.11 0.09,-0.11 0.28,-0.11 0.02,0 0.21,0 0.38,-0.02 0.18,-0.02 0.27,-0.03 0.27,-0.16 0,-0.04 -0.01,-0.06 -0.04,-0.19 l -0.6,-2.43 h -3.04 l 0.59,2.34 c 0.09,0.36 0.12,0.46 0.84,0.46 0.26,0 0.34,0 0.34,0.2 0,0.11 -0.11,0.11 -0.14,0.11 -0.28,0 -1,-0.03 -1.28,-0.03 -0.29,0 -0.99,0.03 -1.28,0.03 -0.08,0 -0.19,0 -0.19,-0.2 0,-0.11 0.09,-0.11 0.28,-0.11 0.02,0 0.21,0 0.37,-0.02 0.18,-0.02 0.27,-0.03 0.27,-0.16 0,-0.04 -0.01,-0.07 -0.04,-0.19 l -1.33,-5.34 c -0.1,-0.39 -0.12,-0.47 -0.91,-0.47 -0.18,0 -0.27,0 -0.27,-0.2 0,-0.11 0.12,-0.11 0.14,-0.11 0.28,0 0.99,0.03 1.27,0.03 0.21,0 0.43,-0.01 0.64,-0.01 0.22,0 0.43,-0.02 0.64,-0.02 0.08,0 0.2,0 0.2,0.2 0,0.11 -0.09,0.11 -0.28,0.11 -0.37,0 -0.64,0 -0.64,0.18 0,0.06 0.02,0.11 0.02,0.17 l 0.68,2.72 h 3.04 c -0.41,-1.65 -0.64,-2.59 -0.68,-2.74 -0.1,-0.32 -0.29,-0.33 -0.91,-0.33 -0.15,0 -0.24,0 -0.24,-0.2 0,-0.11 0.12,-0.11 0.14,-0.11 0.28,0 0.99,0.03 1.26,0.03 0.21,0 0.43,-0.01 0.64,-0.01 0.22,0 0.44,-0.02 0.65,-0.02 0.08,0 0.2,0 0.2,0.2 0,0.11 -0.09,0.11 -0.28,0.11 -0.37,0 -0.65,0 -0.65,0.18 0,0.06 0.02,0.11 0.03,0.17 z"
   id="path9648" />
<path
   style="fill:#000000;stroke-width:0"
   inkscape:connector-curvature="0"
   d="m 378.73,704.56 0,0 0,0 0,0.01 0,0 0,0.01 0,0 0.01,0.01 0,0.01 0,0 0,0.01 0,0.01 0,0 0,0.01 0.01,0 0,0.01 0,0 0,0.01 0,0 0,0 0,0.01 0,0 0,0 0,0.01 0,0.01 0,0 0,0.01 0,0 0,0.01 0,0 0,0.01 0,0 c 0,0.14 -0.11,0.22 -0.23,0.22 -0.07,0 -0.2,-0.03 -0.28,-0.16 -0.02,-0.05 -0.08,-0.27 -0.11,-0.41 l -0.15,-0.58 c -0.04,-0.16 -0.26,-1.04 -0.28,-1.12 0,0 -0.31,-0.6 -0.85,-0.6 -0.48,0 -0.48,0.45 -0.48,0.58 0,0.37 0.16,0.81 0.37,1.35 0.09,0.22 0.12,0.3 0.12,0.42 0,0.33 -0.29,0.59 -0.66,0.59 -0.71,0 -1.02,-0.94 -1.02,-1.06 0,-0.09 0.1,-0.09 0.12,-0.09 0.1,0 0.1,0.03 0.12,0.11 0.18,0.58 0.48,0.85 0.76,0.85 0.12,0 0.17,-0.08 0.17,-0.25 0,-0.16 -0.06,-0.31 -0.1,-0.4 -0.33,-0.85 -0.4,-1.11 -0.4,-1.41 0,-0.12 0,-0.45 0.27,-0.67 0.22,-0.18 0.51,-0.22 0.7,-0.22 0.28,0 0.53,0.11 0.76,0.32 -0.09,-0.38 -0.17,-0.68 -0.46,-1.02 -0.19,-0.22 -0.47,-0.45 -0.84,-0.45 -0.05,0 -0.37,0 -0.52,0.23 0.38,0.04 0.38,0.38 0.38,0.38 0,0.23 -0.21,0.27 -0.28,0.27 -0.17,0 -0.4,-0.14 -0.4,-0.46 0,-0.36 0.33,-0.61 0.83,-0.61 0.7,0 1.56,0.54 1.78,1.41 z"
   id="path9650" />
<path
   style="fill:#000000;stroke-width:0"
   inkscape:connector-curvature="0"
   d="m 385.93,705.72 h 2.78 c 0.15,0 0.33,0 0.33,0.2 0,0.2 -0.18,0.2 -0.33,0.2 h -2.78 v 2.78 c 0,0.14 0,0.33 -0.2,0.33 -0.19,0 -0.19,-0.19 -0.19,-0.33 v -2.78 h -2.8 c -0.13,0 -0.32,0 -0.32,-0.2 0,-0.2 0.19,-0.2 0.32,-0.2 h 2.8 v -2.79 c 0,-0.14 0,-0.33 0.19,-0.33 0.2,0 0.2,0.19 0.2,0.33 z"
   id="path9652" />
<path
   style="fill:#000000;stroke-width:0"
   inkscape:connector-curvature="0"
   d="m 397.63,713.54 -0.01,0.06 -0.01,0.06 -0.02,0.05 -0.01,0.06 -0.02,0.06 -0.02,0.05 -0.02,0.05 -0.02,0.06 -0.03,0.05 -0.03,0.05 -0.02,0.05 -0.04,0.05 -0.03,0.04 -0.03,0.05 -0.04,0.04 -0.04,0.04 -0.04,0.04 -0.04,0.04 -0.05,0.03 -0.04,0.04 -0.05,0.03 -0.05,0.03 -0.06,0.03 -0.05,0.02 -0.06,0.02 -0.06,0.02 -0.06,0.02 -0.06,0.01 -0.07,0.01 -0.06,0.01 -0.07,0.01 -0.08,0 v -0.22 c 1.09,0 1.11,-1.12 1.11,-1.32 0,-0.71 -0.64,-2.95 -2.17,-2.95 h 0 c -1.1,0 -1.1,1.02 -1.1,1.12 0,0.27 0.25,1.67 0.66,2.26 0.4,0.57 0.89,0.89 1.5,0.89 v 0.22 c -0.6,0 -1.25,-0.16 -2.03,-0.94 -0.83,-0.82 -0.9,-1.75 -0.9,-2.06 0,-0.62 0.44,-1.77 1.84,-1.77 2.37,0 3.41,3.34 3.41,4.77 0,1.58 -0.93,2.57 -2.16,2.57 -1.44,0 -1.9,-1.29 -1.9,-1.57 0,-0.14 0.08,-0.35 0.38,-0.35 0.33,0 0.54,0.3 0.54,0.53 0,0.35 -0.31,0.35 -0.47,0.35 0.44,0.74 1.15,0.8 1.43,0.8 0.73,0 1.43,-0.52 1.43,-1.81 0,-0.38 -0.06,-0.89 -0.27,-1.7 z"
   id="path9654" />
<path
   style="fill:#000000;stroke-width:0"
   inkscape:connector-curvature="0"
   d="m 406.47,716.2 0.01,0.03 0,0.03 0.01,0.03 0.01,0.03 0.01,0.03 0.01,0.03 0.01,0.02 0,0.02 0.01,0.02 0.02,0.03 0.01,0.01 0.01,0.02 0.02,0.02 0.01,0.02 0.02,0.01 0.02,0.01 0.02,0.02 0.02,0.01 0.03,0.01 0.02,0.01 0.03,0.01 0.04,0 0.01,0.01 0.02,0 0.02,0 0.02,0.01 0.02,0 0.02,0 0.02,0 0.03,0.01 0.02,0 0.02,0 0.03,0 0.02,0 0.03,0 0.03,0.01 0.03,0 0.03,0 0.03,0 0.03,0 0.03,0 0.03,0 c 0.26,0 0.34,0 0.34,0.2 0,0.11 -0.11,0.11 -0.13,0.11 -0.28,0 -1,-0.03 -1.28,-0.03 -0.29,0 -1,0.03 -1.29,0.03 -0.08,0 -0.19,0 -0.19,-0.2 0,-0.11 0.09,-0.11 0.28,-0.11 0.02,0 0.21,0 0.38,-0.02 0.18,-0.02 0.27,-0.03 0.27,-0.16 0,-0.04 -0.01,-0.06 -0.04,-0.19 l -0.6,-2.43 H 402 l 0.59,2.34 c 0.09,0.36 0.12,0.46 0.84,0.46 0.26,0 0.34,0 0.34,0.2 0,0.11 -0.11,0.11 -0.14,0.11 -0.28,0 -1,-0.03 -1.28,-0.03 -0.29,0 -1,0.03 -1.28,0.03 -0.09,0 -0.19,0 -0.19,-0.2 0,-0.11 0.08,-0.11 0.27,-0.11 0.02,0 0.21,0 0.38,-0.02 0.18,-0.02 0.27,-0.03 0.27,-0.16 0,-0.04 -0.01,-0.07 -0.04,-0.19 l -1.33,-5.34 c -0.1,-0.39 -0.12,-0.47 -0.91,-0.47 -0.18,0 -0.27,0 -0.27,-0.2 0,-0.11 0.12,-0.11 0.14,-0.11 0.28,0 0.99,0.03 1.27,0.03 0.21,0 0.42,-0.01 0.63,-0.01 0.22,0 0.44,-0.02 0.65,-0.02 0.08,0 0.2,0 0.2,0.2 0,0.11 -0.09,0.11 -0.28,0.11 -0.37,0 -0.65,0 -0.65,0.18 0,0.06 0.02,0.11 0.03,0.17 l 0.68,2.72 h 3.04 c -0.42,-1.65 -0.64,-2.59 -0.69,-2.74 -0.1,-0.32 -0.28,-0.33 -0.9,-0.33 -0.15,0 -0.24,0 -0.24,-0.2 0,-0.11 0.12,-0.11 0.14,-0.11 0.28,0 0.99,0.03 1.26,0.03 0.21,0 0.43,-0.01 0.64,-0.01 0.22,0 0.44,-0.02 0.65,-0.02 0.08,0 0.2,0 0.2,0.2 0,0.11 -0.09,0.11 -0.28,0.11 -0.37,0 -0.65,0 -0.65,0.18 0,0.06 0.02,0.11 0.03,0.17 z"
   id="path9656" />
<path
   style="fill:#000000;stroke-width:0"
   inkscape:connector-curvature="0"
   d="m 411.01,711.3 0,0 0,0 0,0.01 0.01,0 0,0.01 0,0 0,0.01 0,0.01 0,0 0.01,0.01 0,0.01 0,0 0,0.01 0,0 0,0.01 0,0 0,0.01 0,0 0.01,0 0,0.01 0,0 0,0 0,0.01 0,0.01 0,0 0,0.01 0,0 0,0.01 0,0 0,0.01 0,0 c 0,0.14 -0.11,0.22 -0.23,0.22 -0.08,0 -0.21,-0.03 -0.29,-0.16 -0.02,-0.05 -0.07,-0.27 -0.11,-0.41 l -0.14,-0.57 c -0.05,-0.17 -0.26,-1.05 -0.28,-1.12 -0.01,0 -0.32,-0.61 -0.86,-0.61 -0.47,0 -0.47,0.45 -0.47,0.58 0,0.37 0.16,0.81 0.37,1.35 0.08,0.22 0.11,0.3 0.11,0.42 0,0.33 -0.28,0.59 -0.66,0.59 -0.7,0 -1.01,-0.94 -1.01,-1.06 0,-0.09 0.09,-0.09 0.11,-0.09 0.1,0 0.11,0.03 0.13,0.11 0.17,0.58 0.47,0.85 0.75,0.85 0.12,0 0.18,-0.08 0.18,-0.25 0,-0.16 -0.07,-0.31 -0.1,-0.4 -0.34,-0.85 -0.4,-1.11 -0.4,-1.41 0,-0.12 0,-0.45 0.27,-0.67 0.21,-0.18 0.51,-0.22 0.69,-0.22 0.28,0 0.53,0.11 0.76,0.32 -0.09,-0.38 -0.16,-0.68 -0.46,-1.02 -0.19,-0.22 -0.46,-0.45 -0.83,-0.45 -0.05,0 -0.38,0 -0.53,0.23 0.38,0.04 0.38,0.38 0.38,0.38 0,0.23 -0.2,0.27 -0.27,0.27 -0.17,0 -0.41,-0.14 -0.41,-0.46 0,-0.36 0.34,-0.61 0.83,-0.61 0.71,0 1.56,0.54 1.78,1.41 z"
   id="path9658" />
<line
   style="stroke-width:0.398"
   x1="393.01999"
   y1="705.91998"
   x2="411.92999"
   y2="705.91998"
   id="line9660" />
<path
   style="fill:#000000;stroke-width:0"
   inkscape:connector-curvature="0"
   d="m 401.32,699.97 -0.01,0.06 -0.01,0.05 -0.02,0.06 -0.01,0.06 -0.02,0.05 -0.02,0.06 -0.02,0.05 -0.03,0.05 -0.02,0.06 -0.03,0.05 -0.03,0.04 -0.03,0.05 -0.03,0.05 -0.03,0.04 -0.04,0.05 -0.04,0.04 -0.04,0.04 -0.04,0.04 -0.05,0.03 -0.05,0.04 -0.04,0.03 -0.05,0.03 -0.06,0.02 -0.05,0.03 -0.06,0.02 -0.06,0.02 -0.06,0.02 -0.06,0.01 -0.07,0.01 -0.07,0.01 -0.07,0 -0.07,0 v -0.22 c 1.09,0 1.11,-1.11 1.11,-1.31 0,-0.71 -0.64,-2.95 -2.17,-2.95 h 0 c -1.1,0 -1.1,1.02 -1.1,1.12 0,0.27 0.25,1.66 0.66,2.26 0.4,0.57 0.88,0.88 1.5,0.88 v 0.22 c -0.61,0 -1.25,-0.16 -2.03,-0.93 -0.83,-0.83 -0.9,-1.75 -0.9,-2.06 0,-0.62 0.44,-1.77 1.84,-1.77 2.37,0 3.41,3.34 3.41,4.76 0,1.59 -0.93,2.58 -2.16,2.58 -1.44,0 -1.9,-1.29 -1.9,-1.57 0,-0.14 0.08,-0.35 0.38,-0.35 0.33,0 0.53,0.3 0.53,0.53 0,0.35 -0.3,0.35 -0.46,0.35 0.43,0.73 1.14,0.79 1.43,0.79 0.73,0 1.43,-0.51 1.43,-1.8 0,-0.39 -0.06,-0.89 -0.27,-1.7 z"
   id="path9662" />
<path
   style="fill:#000000;stroke-width:0"
   inkscape:connector-curvature="0"
   d="m 405.88,699.6 0.01,0.03 0,0.03 0.01,0.03 0.01,0.04 0.01,0.04 0.01,0.04 0.02,0.04 0.01,0.04 0.02,0.05 0.01,0.05 0.02,0.05 0.02,0.05 0.03,0.05 0.02,0.05 0.03,0.05 0.02,0.05 0.03,0.04 0.03,0.05 0.04,0.05 0.03,0.04 0.04,0.05 0.04,0.04 0.04,0.03 0.05,0.04 0.04,0.03 0.05,0.03 0.03,0.01 0.02,0.01 0.03,0.02 0.03,0.01 0.02,0.01 0.03,0 0.03,0.01 0.03,0.01 0.03,0 0.03,0 0.03,0.01 0.04,0 c 0.05,0 0.28,0 0.49,-0.13 -0.27,-0.05 -0.47,-0.3 -0.47,-0.54 0,-0.16 0.11,-0.35 0.38,-0.35 0.21,0 0.53,0.18 0.53,0.58 0,0.52 -0.59,0.65 -0.92,0.65 -0.58,0 -0.93,-0.52 -1.05,-0.75 -0.25,0.66 -0.79,0.75 -1.08,0.75 -1.03,0 -1.6,-1.28 -1.6,-1.53 0,-0.1 0.1,-0.1 0.12,-0.1 0.08,0 0.11,0.02 0.13,0.11 0.34,1.06 0.99,1.31 1.33,1.31 0.19,0 0.54,-0.09 0.54,-0.67 0,-0.31 -0.17,-0.98 -0.54,-2.37 -0.16,-0.62 -0.5,-1.03 -0.94,-1.03 -0.06,0 -0.29,0 -0.5,0.13 0.25,0.05 0.47,0.25 0.47,0.53 0,0.27 -0.22,0.35 -0.37,0.35 -0.3,0 -0.55,-0.26 -0.55,-0.58 0,-0.45 0.5,-0.65 0.94,-0.65 0.65,0 1.01,0.69 1.04,0.75 0.12,-0.36 0.48,-0.75 1.08,-0.75 1.03,0 1.59,1.28 1.59,1.53 0,0.1 -0.09,0.1 -0.11,0.1 -0.09,0 -0.11,-0.04 -0.14,-0.11 -0.32,-1.07 -1,-1.3 -1.32,-1.3 -0.39,0 -0.55,0.31 -0.55,0.65 0,0.22 0.06,0.44 0.17,0.88 z"
   id="path9664" />
<path
   style="fill:#000000;stroke-width:0"
   inkscape:connector-curvature="0"
   d="m 418.27,710.23 0,0 0,0 0,0 0,0 0,0 0,0.01 0,0 0,0 -0.01,0.01 0,0 0,0.01 0,0 0,0.01 0,0 0,0.01 -0.01,0 0,0.01 0,0 -0.01,0 0,0.01 0,0 -0.01,0.01 0,0 0,0 -0.01,0 0,0 0,0.01 0,0 -0.01,0 0,0 0,0 -0.01,0.01 0,0 -0.01,0 0,0 -0.01,0 0,0 0,0 -0.01,0 0,0 -0.01,0 -0.01,0.01 0,0 -0.01,0 0,0 c -0.15,0 -1.1,-0.09 -1.27,-0.11 -0.08,-0.01 -0.14,-0.06 -0.14,-0.19 0,-0.12 0.09,-0.12 0.24,-0.12 0.48,0 0.5,-0.07 0.5,-0.17 l -0.03,-0.2 -0.6,-2.36 c -0.18,0.37 -0.47,0.64 -0.92,0.64 -1.16,0 -2.4,-1.47 -2.4,-2.92 0,-0.93 0.55,-1.59 1.33,-1.59 l 0.02,0.22 c -0.5,0 -0.64,0.55 -0.64,0.93 0,0.5 0.32,1.73 0.55,2.18 0.31,0.59 0.76,0.96 1.15,0.96 0.65,0 0.79,-0.82 0.79,-0.88 0,-0.06 -0.02,-0.12 -0.03,-0.17 l -0.5,-1.95 c -0.05,-0.18 -0.05,-0.2 -0.2,-0.37 -0.44,-0.54 -0.84,-0.7 -1.12,-0.7 l -0.02,-0.22 c 0.2,0 0.7,0.04 1.29,0.75 0.08,-0.42 0.43,-0.75 0.91,-0.75 0.35,0 0.58,0.23 0.74,0.55 0.17,0.35 0.3,0.96 0.3,0.98 0,0.1 -0.09,0.1 -0.12,0.1 -0.1,0 -0.11,-0.04 -0.14,-0.18 -0.17,-0.64 -0.35,-1.23 -0.76,-1.23 -0.27,0 -0.3,0.26 -0.3,0.46 0,0.23 0.02,0.3 0.06,0.47 z"
   id="path9666" />
<path
   style="fill:#000000;stroke-width:0"
   inkscape:connector-curvature="0"
   d="m 421.64,706.43 0,0.03 0.01,0.03 0.01,0.03 0.01,0.04 0.01,0.04 0.01,0.04 0.01,0.04 0.02,0.05 0.02,0.04 0.01,0.05 0.02,0.05 0.02,0.05 0.02,0.05 0.03,0.05 0.02,0.05 0.03,0.05 0.03,0.05 0.03,0.04 0.04,0.05 0.03,0.05 0.04,0.04 0.04,0.04 0.04,0.04 0.04,0.03 0.05,0.03 0.05,0.03 0.03,0.02 0.02,0.01 0.03,0.01 0.02,0.01 0.03,0.01 0.03,0.01 0.03,0 0.03,0.01 0.03,0 0.03,0.01 0.03,0 0.04,0 c 0.04,0 0.28,0 0.49,-0.13 -0.28,-0.05 -0.48,-0.3 -0.48,-0.54 0,-0.16 0.11,-0.35 0.38,-0.35 0.22,0 0.54,0.18 0.54,0.58 0,0.52 -0.59,0.66 -0.92,0.66 -0.58,0 -0.93,-0.53 -1.05,-0.76 -0.25,0.66 -0.79,0.76 -1.08,0.76 -1.03,0 -1.6,-1.29 -1.6,-1.54 0,-0.09 0.1,-0.09 0.12,-0.09 0.08,0 0.11,0.02 0.13,0.1 0.33,1.06 0.99,1.31 1.33,1.31 0.19,0 0.54,-0.09 0.54,-0.67 0,-0.31 -0.17,-0.97 -0.54,-2.37 -0.16,-0.61 -0.51,-1.03 -0.94,-1.03 -0.07,0 -0.29,0 -0.5,0.13 0.25,0.05 0.47,0.26 0.47,0.54 0,0.26 -0.22,0.34 -0.37,0.34 -0.3,0 -0.55,-0.26 -0.55,-0.57 0,-0.46 0.5,-0.66 0.94,-0.66 0.65,0 1.01,0.7 1.04,0.76 0.12,-0.37 0.48,-0.76 1.08,-0.76 1.02,0 1.59,1.28 1.59,1.53 0,0.1 -0.09,0.1 -0.12,0.1 -0.09,0 -0.11,-0.04 -0.13,-0.11 -0.33,-1.06 -1,-1.3 -1.32,-1.3 -0.39,0 -0.55,0.32 -0.55,0.66 0,0.21 0.06,0.43 0.17,0.87 z"
   id="path9668" />
</g>    <g
       style="font-style:normal;font-variant:normal;font-weight:normal;font-stretch:normal;letter-spacing:normal;word-spacing:normal;text-anchor:start;fill:none;stroke:#000000;stroke-width:3.04236841;stroke-linecap:butt;stroke-linejoin:miter;stroke-miterlimit:10.43299961;stroke-opacity:1;stroke-dasharray:none;stroke-dashoffset:0"
       ns0:preamble=""
       ns0:text="$$J_z$$\n\n\n"
       word-spacing="normal"
       letter-spacing="normal"
       font-size-adjust="none"
       font-stretch="normal"
       font-weight="normal"
       font-variant="normal"
       font-style="normal"
       stroke-miterlimit="10.433"
       xml:space="preserve"
       transform="matrix(1.3291323,0,0,-1.3005534,-457.93698,1877.1605)"
       id="g9856">
<path
   id="path9858"
   d="m 395.62,713.2 0.01,0.03 0.01,0.02 0,0.03 0.01,0.03 0.01,0.02 0.01,0.03 0,0.02 0.01,0.02 0.01,0.02 0.01,0.02 0.01,0.02 0.01,0.01 0.01,0.02 0.01,0.01 0.02,0.02 0.01,0.01 0.02,0.01 0.02,0.01 0.02,0.01 0.02,0.01 0.02,0.01 0.02,0 0.03,0.01 0.02,0 0.01,0 0.02,0.01 0.01,0 0.02,0 0.01,0 0.02,0.01 0.02,0 0.02,0 0.02,0 0.02,0 0.02,0 0.02,0 0.02,0 0.03,0 0.02,0 0.03,0 0.02,0 c 0.16,0 0.27,0 0.27,0.19 0,0.09 -0.06,0.12 -0.14,0.12 -0.25,0 -0.86,-0.03 -1.11,-0.03 -0.33,0 -1.13,0.03 -1.46,0.03 -0.09,0 -0.21,0 -0.21,-0.2 0,-0.11 0.08,-0.11 0.34,-0.11 0.23,0 0.33,0 0.58,-0.02 0.24,-0.03 0.31,-0.06 0.31,-0.19 0,-0.06 -0.02,-0.13 -0.05,-0.21 l -1.14,-4.57 c -0.24,-0.97 -0.92,-1.49 -1.44,-1.49 -0.26,0 -0.78,0.09 -0.94,0.61 0.03,-0.01 0.1,-0.01 0.12,-0.01 0.39,0 0.64,0.34 0.64,0.64 0,0.32 -0.27,0.42 -0.43,0.42 -0.18,0 -0.67,-0.12 -0.67,-0.8 0,-0.62 0.53,-1.08 1.31,-1.08 0.92,0 1.96,0.65 2.21,1.64 z"
   inkscape:connector-curvature="0"
   style="fill:#000000;stroke-width:0" />
<path
   id="path9860"
   d="m 396.92,706.24 0.04,0.04 0.03,0.03 0.03,0.03 0.04,0.04 0.03,0.03 0.02,0.02 0.02,0.02 0.02,0.02 0.02,0.02 0.03,0.02 0.02,0.02 0.02,0.02 0.03,0.02 0.03,0.03 0.03,0.02 0.03,0.03 0.03,0.02 0.03,0.03 0.04,0.03 0.04,0.03 0.04,0.04 0.04,0.03 0.04,0.04 0.05,0.03 0.05,0.04 0.05,0.05 0.05,0.04 c 0.15,0.12 0.67,0.53 0.87,0.73 0.43,0.42 0.69,0.77 0.69,0.85 0,0.09 -0.09,0.09 -0.11,0.09 -0.07,0 -0.09,-0.02 -0.12,-0.07 -0.22,-0.32 -0.36,-0.43 -0.53,-0.43 -0.09,0 -0.19,0.01 -0.4,0.21 -0.24,0.24 -0.39,0.29 -0.55,0.29 -0.56,0 -0.93,-0.61 -0.93,-0.82 0,-0.06 0.07,-0.08 0.12,-0.08 0.08,0 0.09,0.02 0.12,0.1 0.1,0.24 0.5,0.26 0.61,0.26 0.16,0 0.34,-0.05 0.43,-0.07 0.39,-0.08 0.44,-0.08 0.61,-0.08 -0.18,-0.19 -0.3,-0.31 -0.97,-0.84 -0.54,-0.43 -0.73,-0.61 -0.86,-0.75 -0.42,-0.41 -0.62,-0.71 -0.62,-0.77 0,-0.09 0.09,-0.09 0.12,-0.09 0.07,0 0.08,0.02 0.12,0.07 0.19,0.27 0.4,0.42 0.64,0.42 0.08,0 0.18,0 0.37,-0.18 0.22,-0.2 0.36,-0.31 0.58,-0.31 0.75,0 1.21,0.84 1.21,1.08 0,0.08 -0.07,0.09 -0.11,0.09 -0.09,0 -0.1,-0.03 -0.13,-0.11 -0.13,-0.35 -0.54,-0.52 -0.88,-0.52 -0.17,0 -0.34,0.04 -0.51,0.08 -0.32,0.07 -0.38,0.07 -0.51,0.07 -0.01,0 -0.11,0 -0.16,-0.01 z"
   inkscape:connector-curvature="0"
   style="fill:#000000;stroke-width:0" />
</g>    <path
       inkscape:connector-curvature="0"
       id="path8718-6-2-9-2"
       d="m 83.373757,895.52512 0.0328,-13.91176"
       style="fill:none;stroke:#000000;stroke-width:1px;stroke-linecap:butt;stroke-linejoin:miter;stroke-opacity:1;marker-end:url(#Arrow2Mend-6)" />
    <path
       inkscape:connector-curvature="0"
       id="path8718-6-2-9-9"
       d="m 134.27295,895.32568 13.91176,0.0328"
       style="fill:none;stroke:#000000;stroke-width:1px;stroke-linecap:butt;stroke-linejoin:miter;stroke-opacity:1;marker-end:url(#Arrow2Mend-6)" />
    <path
       inkscape:connector-curvature="0"
       id="path8718-6-2-9-9-1"
       d="m 133.86268,939.42824 13.91176,0.0328"
       style="fill:none;stroke:#000000;stroke-width:1px;stroke-linecap:butt;stroke-linejoin:miter;stroke-opacity:1;marker-end:url(#Arrow2Mend-6)" />
  </g>
</svg>
