<?xml version="1.0" encoding="UTF-8" standalone="no"?>
<!-- Created with Inkscape (http://www.inkscape.org/) -->

<svg
   xmlns:dc="http://purl.org/dc/elements/1.1/"
   xmlns:cc="http://creativecommons.org/ns#"
   xmlns:rdf="http://www.w3.org/1999/02/22-rdf-syntax-ns#"
   xmlns:svg="http://www.w3.org/2000/svg"
   xmlns="http://www.w3.org/2000/svg"
   xmlns:sodipodi="http://sodipodi.sourceforge.net/DTD/sodipodi-0.dtd"
   xmlns:inkscape="http://www.inkscape.org/namespaces/inkscape"
   id="svg2"
   version="1.1"
   inkscape:version="0.48.0 r9654"
   width="1500"
   height="550"
   xml:space="preserve"
   sodipodi:docname="Ideal_Trf_step_response_LTspice.pdf"><metadata
     id="metadata8"><rdf:RDF><cc:Work
         rdf:about=""><dc:format>image/svg+xml</dc:format><dc:type
           rdf:resource="http://purl.org/dc/dcmitype/StillImage" /><dc:title></dc:title></cc:Work></rdf:RDF></metadata><defs
     id="defs6"><clipPath
       clipPathUnits="userSpaceOnUse"
       id="clipPath994"><path
         d="m 430.32,18 363.36,0 0,13.2 -363.36,0 0,-13.2 z"
         id="path996"
         inkscape:connector-curvature="0" /></clipPath></defs><sodipodi:namedview
     pagecolor="#ffffff"
     bordercolor="#666666"
     borderopacity="1"
     objecttolerance="10"
     gridtolerance="10"
     guidetolerance="10"
     inkscape:pageopacity="0"
     inkscape:pageshadow="2"
     inkscape:window-width="1920"
     inkscape:window-height="1125"
     id="namedview4"
     showgrid="false"
     inkscape:zoom="0.6913933"
     inkscape:cx="735.63832"
     inkscape:cy="-17.091392"
     inkscape:window-x="1911"
     inkscape:window-y="-9"
     inkscape:window-maximized="1"
     inkscape:current-layer="g10" /><g
     id="g10"
     inkscape:groupmode="layer"
     inkscape:label="text"
     transform="matrix(1.25,0,0,-1.25,0,550)"
     style="display:inline"><text
       transform="scale(1,-1)"
       id="text12"
       x="592.64728"
       y="-209.20364"><tspan
         style="font-size:39.36000061px;font-variant:normal;font-weight:bold;writing-mode:lr-tb;fill:#000000;fill-opacity:1;fill-rule:nonzero;stroke:none;font-family:Arial;-inkscape-font-specification:Arial Bold"
         x="592.64728 616.64728"
         y="-209.20364"
         sodipodi:role="line"
         id="tspan14">L1</tspan><tspan
         style="font-size:39.36000061px;font-variant:normal;font-weight:bold;writing-mode:lr-tb;fill:#000000;fill-opacity:1;fill-rule:nonzero;stroke:none;font-family:Arial;-inkscape-font-specification:Arial Bold"
         x="562.88727 584.72247 606.55768 628.39288"
         y="-149.56364"
         sodipodi:role="line"
         id="tspan16">100µ</tspan></text>
<text
       transform="scale(1,-1)"
       id="text404"
       x="793.52728"
       y="-210.76364"><tspan
         style="font-size:39.36000061px;font-variant:normal;font-weight:bold;writing-mode:lr-tb;fill:#000000;fill-opacity:1;fill-rule:nonzero;stroke:none;font-family:Arial;-inkscape-font-specification:Arial Bold"
         x="793.52728 817.52728"
         y="-210.76364"
         sodipodi:role="line"
         id="tspan406">L2</tspan><tspan
         style="font-size:39.36000061px;font-variant:normal;font-weight:bold;writing-mode:lr-tb;fill:#000000;fill-opacity:1;fill-rule:nonzero;stroke:none;font-family:Arial;-inkscape-font-specification:Arial Bold"
         x="784.1673 806.0025 827.83765 849.67285"
         y="-148.00363"
         sodipodi:role="line"
         id="tspan408">900µ</tspan></text>
<text
       transform="scale(1,-1)"
       id="text812"
       x="348.08728"
       y="-306.52365"><tspan
         style="font-size:39.36000061px;font-variant:normal;font-weight:bold;writing-mode:lr-tb;fill:#000000;fill-opacity:1;fill-rule:nonzero;stroke:none;font-family:Arial;-inkscape-font-specification:Arial Bold"
         x="348.08728 376.52728"
         y="-306.52365"
         sodipodi:role="line"
         id="tspan814">R1</tspan><tspan
         style="font-size:39.36000061px;font-variant:normal;font-weight:bold;writing-mode:lr-tb;fill:#000000;fill-opacity:1;fill-rule:nonzero;stroke:none;font-family:Arial;-inkscape-font-specification:Arial Bold"
         x="362.36728"
         y="-212.32364"
         id="tspan816">1</tspan></text>
<text
       transform="scale(1,-1)"
       id="text842"
       x="1095.2073"
       y="-196.60364"><tspan
         style="font-size:39.36000061px;font-variant:normal;font-weight:bold;writing-mode:lr-tb;fill:#000000;fill-opacity:1;fill-rule:nonzero;stroke:none;font-family:Arial;-inkscape-font-specification:Arial Bold"
         x="1095.2073 1123.6472"
         y="-196.60364"
         sodipodi:role="line"
         id="tspan844">R2</tspan><tspan
         style="font-size:39.36000061px;font-variant:normal;font-weight:bold;writing-mode:lr-tb;fill:#000000;fill-opacity:1;fill-rule:nonzero;stroke:none;font-family:Arial;-inkscape-font-specification:Arial Bold"
         x="1095.2073"
         y="-140.20363"
         id="tspan846">4</tspan></text>
<text
       transform="scale(1,-1)"
       id="text856"
       x="116.00727"
       y="-188.80363"><tspan
         style="font-size:39.36000061px;font-variant:normal;font-weight:bold;writing-mode:lr-tb;fill:#000000;fill-opacity:1;fill-rule:nonzero;stroke:none;font-family:Arial;-inkscape-font-specification:Arial Bold"
         x="116.00727 142.28247"
         y="-188.80363"
         sodipodi:role="line"
         id="tspan858">V1</tspan><tspan
         style="font-size:39.36000061px;font-variant:normal;font-weight:bold;writing-mode:lr-tb;fill:#000000;fill-opacity:1;fill-rule:nonzero;stroke:none;font-family:Arial;-inkscape-font-specification:Arial Bold"
         x="116.00727 142.28247 170.72247 194.72247 221.00247 247.28249 260.36246 282.21976 293.13495 314.99222 325.90744 347.76471 369.62198 393.62198"
         y="-144.88364"
         sodipodi:role="line"
         id="tspan860">PULSE(0 1 10u)</tspan></text>
<text
       transform="scale(1,-1)"
       id="text932"
       x="28.887272"
       y="-281.32364"><tspan
         style="font-size:39.36000061px;font-variant:normal;font-weight:bold;writing-mode:lr-tb;fill:#000000;fill-opacity:1;fill-rule:nonzero;stroke:none;font-family:Arial;-inkscape-font-specification:Arial Bold"
         x="28.887272 55.167274 66.087273 1022.2473 1044.0873 1068.0922 1092.0969 502.64728 524.4873 548.49207"
         y="-281.32364"
         sodipodi:role="line"
         id="tspan934">VinvoutvL1</tspan><tspan
         style="font-size:39.36000061px;font-variant:normal;font-weight:bold;writing-mode:lr-tb;fill:#000000;fill-opacity:1;fill-rule:nonzero;stroke:none;font-family:Arial;-inkscape-font-specification:Arial Bold"
         x="611.84729 640.28729 662.12726 673.04724 697.04724 718.88245 729.80249 753.80249 775.6377 786.55768 808.39764 819.31769"
         y="-297.04364"
         sodipodi:role="line"
         id="tspan936">K1 L1 L2 0.5</tspan><tspan
         style="font-size:39.36000061px;font-variant:normal;font-weight:bold;writing-mode:lr-tb;fill:#000000;fill-opacity:1;fill-rule:nonzero;stroke:none;font-family:Arial;-inkscape-font-specification:Arial Bold"
         x="9.3272734 20.247272 33.332073 48.692074 70.532074 94.536873 105.45688 127.29688 162.33687"
         y="-8.3236361"
         sodipodi:role="line"
         id="tspan938">.tran 1ms</tspan><tspan
         style="font-size:39.36000061px;font-variant:normal;font-weight:bold;writing-mode:lr-tb;fill:#0000c8;fill-opacity:1;fill-rule:nonzero;stroke:none;font-family:Arial;-inkscape-font-specification:Arial Bold"
         x="59.487274 87.927277 98.847275 111.93208 127.29208 149.13206 173.13687 194.97687 208.03958 232.04439 247.40439 282.4444 304.28439 319.64438 330.56439 361.1644 372.08438 385.16919 409.16919 420.0892 433.17398 463.77399 487.77399 498.694 529.29401 540.21399 564.21399 588.21399 599.13397 623.13397 647.13397 668.96918 679.88916 690.8092 712.64917 723.56921 736.65399 760.65399 771.57397 793.414 804.33398 817.41876 841.41876 856.77881 880.77881 902.61401 913.534 944.13397 955.05402 979.05402 1003.054 1013.974 1037.974 1061.974 1072.894 1088.254 1110.094 1123.1567 1134.0768"
         y="-372.40363"
         sodipodi:role="line"
         id="tspan940">A transformer with two windings, 1 to 3 turns winding ratio</tspan></text>
<path
       d="m 536.48727,272.92364 0.12,0 0,0.12 -0.12,0 0,-0.12 z"
       style="fill:#0000ff;fill-opacity:1;fill-rule:nonzero;stroke:none"
       id="path952"
       inkscape:connector-curvature="0" /><path
       d="m 687.20727,272.92364 0.12,0 0,0.12 -0.12,0 0,-0.12 z"
       style="fill:#0000ff;fill-opacity:1;fill-rule:nonzero;stroke:none"
       id="path964"
       inkscape:connector-curvature="0" /></g><g
     inkscape:groupmode="layer"
     id="layer1"
     inkscape:label="trafo"
     style="display:inline"><path
       style="fill:#000000;fill-opacity:0;stroke:#0000ff;stroke-width:3;stroke-linecap:butt;stroke-linejoin:miter;stroke-miterlimit:4;stroke-opacity:1;stroke-dasharray:none"
       d="m 859.09091,239.60227 c 26.99778,0.81252 43.39943,34.97397 20.50328,55.09347 -7.30127,5.80022 -14.68764,7.93921 -21.0888,7.78647 -7.48824,-0.17868 -19.47871,-3.4589 -19.61253,-7.68573 -0.073,-2.30513 8.3451,-7.93061 19.35533,-7.40033 6.43319,0.30985 13.28379,1.45375 21.54276,7.44143 0.92993,0.92993 9.26278,9.58385 10.50958,19.26346 2.49884,25.83983 -16.56649,35.153 -32.23247,35.53505 -10.41521,0.254 -19.43791,-5.63419 -19.43169,-7.50536 0.1114,-2.39689 8.47151,-7.62274 18.40908,-7.7983 17.29686,-0.30557 29.45643,8.30328 33.33348,27.91166 2.98565,15.10016 -10.19222,32.25482 -31.07886,34.6801"
       id="path4746"
       inkscape:connector-curvature="0"
       sodipodi:nodetypes="ccsssccscssc" /><path
       style="fill:#000000;fill-opacity:0;stroke:#0000ff;stroke-width:3;stroke-linecap:butt;stroke-linejoin:miter;stroke-miterlimit:4;stroke-opacity:1;stroke-dasharray:none"
       d="m 953.35098,396.88261 c -26.99778,-0.81252 -43.39943,-34.97397 -20.50328,-55.09347 7.30127,-5.80022 14.68764,-7.93921 21.0888,-7.78647 7.48824,0.17868 19.47871,3.4589 19.61253,7.68573 0.073,2.30513 -8.3451,7.93061 -19.35533,7.40033 -6.43319,-0.30985 -13.28379,-1.45375 -21.54276,-7.44143 -0.92993,-0.92993 -9.26278,-9.58385 -10.50958,-19.26346 -2.49884,-25.83983 16.56649,-35.153 32.23247,-35.53505 10.41521,-0.254 19.43791,5.63419 19.43169,7.50536 -0.1114,2.39689 -8.47151,7.62274 -18.40908,7.7983 -17.29686,0.30557 -29.45643,-8.30328 -33.33348,-27.91166 -2.98565,-15.10016 10.19222,-32.25482 31.07886,-34.6801"
       id="path4746-8"
       inkscape:connector-curvature="0"
       sodipodi:nodetypes="ccsssccscssc" /><path
       d="m 851.54061,263.44052 c 0,-4.35 -3.6,-7.8 -7.8,-7.8 -4.35,0 -7.8,3.45 -7.8,7.8 0,4.2 3.45,7.8 7.8,7.8 4.2,0 7.8,-3.6 7.8,-7.8 z"
       style="fill:none;stroke:#00007f;stroke-width:3;stroke-linecap:butt;stroke-linejoin:miter;stroke-miterlimit:10;stroke-opacity:1;stroke-dasharray:none;display:inline"
       id="path18-4"
       inkscape:connector-curvature="0" /><path
       d="m 976.94061,263.44052 c 0,-4.35 -3.45,-7.8 -7.8,-7.8 -4.2,0 -7.65,3.45 -7.65,7.8 0,4.2 3.45,7.8 7.65,7.8 4.35,0 7.8,-3.6 7.8,-7.8 z"
       style="fill:none;stroke:#00007f;stroke-width:3;stroke-linecap:butt;stroke-linejoin:miter;stroke-miterlimit:10;stroke-opacity:1;stroke-dasharray:none;display:inline"
       id="path410-4"
       inkscape:connector-curvature="0" /><path
       d="m 404.39059,185.14052 125.55,0"
       style="fill:none;stroke:#00007f;stroke-width:3;stroke-linecap:butt;stroke-linejoin:miter;stroke-miterlimit:10;stroke-opacity:1;stroke-dasharray:none;display:inline"
       id="path796-2"
       inkscape:connector-curvature="0" /><path
       d="m 529.94059,185.29052 0.15,0 0,-0.15 -0.15,0 0,0.15 z"
       style="fill:#00007f;fill-opacity:1;fill-rule:nonzero;stroke:none;display:inline"
       id="path798-4"
       inkscape:connector-curvature="0" /><path
       d="m 529.94059,185.14052 0,47.1"
       style="fill:none;stroke:#00007f;stroke-width:3;stroke-linecap:butt;stroke-linejoin:miter;stroke-miterlimit:10;stroke-opacity:1;stroke-dasharray:none;display:inline"
       id="path800-7"
       inkscape:connector-curvature="0" /><path
       d="m 529.94059,232.39052 0.15,0 0,-0.15 -0.15,0 0,0.15 z"
       style="fill:#00007f;fill-opacity:1;fill-rule:nonzero;stroke:none;display:inline"
       id="path802-0"
       inkscape:connector-curvature="0" /><path
       d="m 529.94059,232.24052 -125.55,0"
       style="fill:none;stroke:#00007f;stroke-width:3;stroke-linecap:butt;stroke-linejoin:miter;stroke-miterlimit:10;stroke-opacity:1;stroke-dasharray:none;display:inline"
       id="path804-2"
       inkscape:connector-curvature="0" /><path
       d="m 404.39059,232.39052 0.15,0 0,-0.15 -0.15,0 0,0.15 z"
       style="fill:#00007f;fill-opacity:1;fill-rule:nonzero;stroke:none;display:inline"
       id="path806-4"
       inkscape:connector-curvature="0" /><path
       d="m 404.39059,232.24052 0,-47.1"
       style="fill:none;stroke:#00007f;stroke-width:3;stroke-linecap:butt;stroke-linejoin:miter;stroke-miterlimit:10;stroke-opacity:1;stroke-dasharray:none;display:inline"
       id="path808-9"
       inkscape:connector-curvature="0" /><path
       d="m 404.39059,185.29052 0.15,0 0,-0.15 -0.15,0 0,0.15 z"
       style="fill:#00007f;fill-opacity:1;fill-rule:nonzero;stroke:none;display:inline"
       id="path810-8"
       inkscape:connector-curvature="0" /><path
       d="m 404.39059,208.69052 -15.75,0"
       style="fill:none;stroke:#00007f;stroke-width:3;stroke-linecap:butt;stroke-linejoin:miter;stroke-miterlimit:10;stroke-opacity:1;stroke-dasharray:none;display:inline"
       id="path818-7"
       inkscape:connector-curvature="0" /><path
       d="m 388.64059,208.84052 0.15,0 0,-0.15 -0.15,0 0,0.15 z"
       style="fill:#00007f;fill-opacity:1;fill-rule:nonzero;stroke:none;display:inline"
       id="path820-0"
       inkscape:connector-curvature="0" /><path
       d="m 545.69059,208.69052 -15.75,0"
       style="fill:none;stroke:#00007f;stroke-width:3;stroke-linecap:butt;stroke-linejoin:miter;stroke-miterlimit:10;stroke-opacity:1;stroke-dasharray:none;display:inline"
       id="path822-6"
       inkscape:connector-curvature="0" /><path
       d="m 529.94059,208.84052 0.15,0 0,-0.15 -0.15,0 0,0.15 z"
       style="fill:#00007f;fill-opacity:1;fill-rule:nonzero;stroke:none;display:inline"
       id="path824-3"
       inkscape:connector-curvature="0" /><path
       d="m 1306.6406,381.19052 47.1,0"
       style="fill:none;stroke:#00007f;stroke-width:3;stroke-linecap:butt;stroke-linejoin:miter;stroke-miterlimit:10;stroke-opacity:1;stroke-dasharray:none;display:inline"
       id="path826-8"
       inkscape:connector-curvature="0" /><path
       d="m 1353.7406,381.34052 0.15,0 0,-0.15 -0.15,0 0,0.15 z"
       style="fill:#00007f;fill-opacity:1;fill-rule:nonzero;stroke:none;display:inline"
       id="path828-8"
       inkscape:connector-curvature="0" /><path
       d="m 1353.7406,381.19052 0,-125.55"
       style="fill:none;stroke:#00007f;stroke-width:3;stroke-linecap:butt;stroke-linejoin:miter;stroke-miterlimit:10;stroke-opacity:1;stroke-dasharray:none;display:inline"
       id="path830-0"
       inkscape:connector-curvature="0" /><path
       d="m 1353.7406,255.79052 0.15,0 0,-0.15 -0.15,0 0,0.15 z"
       style="fill:#00007f;fill-opacity:1;fill-rule:nonzero;stroke:none;display:inline"
       id="path832-2"
       inkscape:connector-curvature="0" /><path
       d="m 1353.7406,255.64052 -47.1,0"
       style="fill:none;stroke:#00007f;stroke-width:3;stroke-linecap:butt;stroke-linejoin:miter;stroke-miterlimit:10;stroke-opacity:1;stroke-dasharray:none;display:inline"
       id="path834-7"
       inkscape:connector-curvature="0" /><path
       d="m 1306.6406,255.79052 0.15,0 0,-0.15 -0.15,0 0,0.15 z"
       style="fill:#00007f;fill-opacity:1;fill-rule:nonzero;stroke:none;display:inline"
       id="path836-5"
       inkscape:connector-curvature="0" /><path
       d="m 1306.6406,255.64052 0,125.55"
       style="fill:none;stroke:#00007f;stroke-width:3;stroke-linecap:butt;stroke-linejoin:miter;stroke-miterlimit:10;stroke-opacity:1;stroke-dasharray:none;display:inline"
       id="path838-6"
       inkscape:connector-curvature="0" /><path
       d="m 1306.6406,381.34052 0.15,0 0,-0.15 -0.15,0 0,0.15 z"
       style="fill:#00007f;fill-opacity:1;fill-rule:nonzero;stroke:none;display:inline"
       id="path840-9"
       inkscape:connector-curvature="0" /><path
       d="m 1330.1906,381.19052 0,15.75"
       style="fill:none;stroke:#00007f;stroke-width:3;stroke-linecap:butt;stroke-linejoin:miter;stroke-miterlimit:10;stroke-opacity:1;stroke-dasharray:none;display:inline"
       id="path848-0"
       inkscape:connector-curvature="0" /><path
       d="m 1330.1906,397.09052 0.15,0 0,-0.15 -0.15,0 0,0.15 z"
       style="fill:#00007f;fill-opacity:1;fill-rule:nonzero;stroke:none;display:inline"
       id="path850-7"
       inkscape:connector-curvature="0" /><path
       d="m 1330.1906,240.04052 0,15.6"
       style="fill:none;stroke:#00007f;stroke-width:3;stroke-linecap:butt;stroke-linejoin:miter;stroke-miterlimit:10;stroke-opacity:1;stroke-dasharray:none;display:inline"
       id="path852-2"
       inkscape:connector-curvature="0" /><path
       d="m 1330.1906,255.79052 0.15,0 0,-0.15 -0.15,0 0,0.15 z"
       style="fill:#00007f;fill-opacity:1;fill-rule:nonzero;stroke:none;display:inline"
       id="path854-7"
       inkscape:connector-curvature="0" /><path
       d="m 59.090591,279.19052 31.5,0"
       style="fill:none;stroke:#00007f;stroke-width:3;stroke-linecap:butt;stroke-linejoin:miter;stroke-miterlimit:10;stroke-opacity:1;stroke-dasharray:none;display:inline"
       id="path862-2"
       inkscape:connector-curvature="0" /><path
       d="m 90.590591,279.34052 0.15,0 0,-0.15 -0.15,0 0,0.15 z"
       style="fill:#00007f;fill-opacity:1;fill-rule:nonzero;stroke:none;display:inline"
       id="path864-9"
       inkscape:connector-curvature="0" /><path
       d="m 59.090591,357.64052 31.5,0"
       style="fill:none;stroke:#00007f;stroke-width:3;stroke-linecap:butt;stroke-linejoin:miter;stroke-miterlimit:10;stroke-opacity:1;stroke-dasharray:none;display:inline"
       id="path866-7"
       inkscape:connector-curvature="0" /><path
       d="m 90.590591,357.79052 0.15,0 0,-0.15 -0.15,0 0,0.15 z"
       style="fill:#00007f;fill-opacity:1;fill-rule:nonzero;stroke:none;display:inline"
       id="path868-4"
       inkscape:connector-curvature="0" /><path
       d="m 74.840591,263.59052 0,31.35"
       style="fill:none;stroke:#00007f;stroke-width:3;stroke-linecap:butt;stroke-linejoin:miter;stroke-miterlimit:10;stroke-opacity:1;stroke-dasharray:none;display:inline"
       id="path870-8"
       inkscape:connector-curvature="0" /><path
       d="m 74.840591,295.09052 0.15,0 0,-0.15 -0.15,0 0,0.15 z"
       style="fill:#00007f;fill-opacity:1;fill-rule:nonzero;stroke:none;display:inline"
       id="path872-4"
       inkscape:connector-curvature="0" /><path
       d="m 74.840591,396.94052 0,-15.75"
       style="fill:none;stroke:#00007f;stroke-width:3;stroke-linecap:butt;stroke-linejoin:miter;stroke-miterlimit:10;stroke-opacity:1;stroke-dasharray:none;display:inline"
       id="path874-3"
       inkscape:connector-curvature="0" /><path
       d="m 74.840591,381.34052 0.15,0 0,-0.15 -0.15,0 0,0.15 z"
       style="fill:#00007f;fill-opacity:1;fill-rule:nonzero;stroke:none;display:inline"
       id="path876-1"
       inkscape:connector-curvature="0" /><path
       d="m 74.840591,240.04052 0,15.6"
       style="fill:none;stroke:#00007f;stroke-width:3;stroke-linecap:butt;stroke-linejoin:miter;stroke-miterlimit:10;stroke-opacity:1;stroke-dasharray:none;display:inline"
       id="path878-3"
       inkscape:connector-curvature="0" /><path
       d="m 74.840591,255.79052 0.15,0 0,-0.15 -0.15,0 0,0.15 z"
       style="fill:#00007f;fill-opacity:1;fill-rule:nonzero;stroke:none;display:inline"
       id="path880-4"
       inkscape:connector-curvature="0" /><path
       d="m 137.54059,318.34052 c 0,-34.65 -28.2,-62.7 -62.699999,-62.7 -34.65,0 -62.7,28.05 -62.7,62.7 0,34.5 28.05,62.7 62.7,62.7 34.499999,0 62.699999,-28.2 62.699999,-62.7 z"
       style="fill:none;stroke:#00007f;stroke-width:3;stroke-linecap:butt;stroke-linejoin:miter;stroke-miterlimit:10;stroke-opacity:1;stroke-dasharray:none;display:inline"
       id="path882-4"
       inkscape:connector-curvature="0" /><path
       d="m 39.590591,428.29053 70.499999,0"
       style="fill:none;stroke:#0000ff;stroke-width:3;stroke-linecap:butt;stroke-linejoin:miter;stroke-miterlimit:10;stroke-opacity:1;stroke-dasharray:none;display:inline"
       id="path884-8"
       inkscape:connector-curvature="0" /><path
       d="m 110.09059,428.44053 0.15,0 0,-0.15 -0.15,0 0,0.15 z"
       style="fill:#000000;fill-opacity:1;fill-rule:nonzero;stroke:none;display:inline"
       id="path886-0"
       inkscape:connector-curvature="0" /><path
       d="m 110.09059,428.29053 -35.249999,35.4"
       style="fill:none;stroke:#0000ff;stroke-width:3;stroke-linecap:butt;stroke-linejoin:miter;stroke-miterlimit:10;stroke-opacity:1;stroke-dasharray:none;display:inline"
       id="path888-0"
       inkscape:connector-curvature="0" /><path
       d="m 74.840591,463.84053 0.15,0 0,-0.15 -0.15,0 0,0.15 z"
       style="fill:#000000;fill-opacity:1;fill-rule:nonzero;stroke:none;display:inline"
       id="path890-8"
       inkscape:connector-curvature="0" /><path
       d="m 74.840591,463.69053 -35.25,-35.4"
       style="fill:none;stroke:#0000ff;stroke-width:3;stroke-linecap:butt;stroke-linejoin:miter;stroke-miterlimit:10;stroke-opacity:1;stroke-dasharray:none;display:inline"
       id="path892-6"
       inkscape:connector-curvature="0" /><path
       d="m 39.590591,428.44053 0.15,0 0,-0.15 -0.15,0 0,0.15 z"
       style="fill:#000000;fill-opacity:1;fill-rule:nonzero;stroke:none;display:inline"
       id="path894-4"
       inkscape:connector-curvature="0" /><path
       d="m 918.29061,428.29053 70.65,0"
       style="fill:none;stroke:#0000ff;stroke-width:3;stroke-linecap:butt;stroke-linejoin:miter;stroke-miterlimit:10;stroke-opacity:1;stroke-dasharray:none;display:inline"
       id="path896-1"
       inkscape:connector-curvature="0" /><path
       d="m 988.94061,428.44053 0.15,0 0,-0.15 -0.15,0 0,0.15 z"
       style="fill:#000000;fill-opacity:1;fill-rule:nonzero;stroke:none;display:inline"
       id="path898-8"
       inkscape:connector-curvature="0" /><path
       d="m 988.94061,428.29053 -35.25,35.4"
       style="fill:none;stroke:#0000ff;stroke-width:3;stroke-linecap:butt;stroke-linejoin:miter;stroke-miterlimit:10;stroke-opacity:1;stroke-dasharray:none;display:inline"
       id="path900-5"
       inkscape:connector-curvature="0" /><path
       d="m 953.69061,463.84053 0.15,0 0,-0.15 -0.15,0 0,0.15 z"
       style="fill:#000000;fill-opacity:1;fill-rule:nonzero;stroke:none;display:inline"
       id="path902-8"
       inkscape:connector-curvature="0" /><path
       d="m 953.69061,463.69053 -35.4,-35.4"
       style="fill:none;stroke:#0000ff;stroke-width:3;stroke-linecap:butt;stroke-linejoin:miter;stroke-miterlimit:10;stroke-opacity:1;stroke-dasharray:none;display:inline"
       id="path904-0"
       inkscape:connector-curvature="0" /><path
       d="m 918.29061,428.44053 0.15,0 0,-0.15 -0.15,0 0,0.15 z"
       style="fill:#000000;fill-opacity:1;fill-rule:nonzero;stroke:none;display:inline"
       id="path906-7"
       inkscape:connector-curvature="0" /><path
       d="m 824.09061,428.29053 70.65,0"
       style="fill:none;stroke:#0000ff;stroke-width:3;stroke-linecap:butt;stroke-linejoin:miter;stroke-miterlimit:10;stroke-opacity:1;stroke-dasharray:none;display:inline"
       id="path908-5"
       inkscape:connector-curvature="0" /><path
       d="m 894.74061,428.44053 0.15,0 0,-0.15 -0.15,0 0,0.15 z"
       style="fill:#000000;fill-opacity:1;fill-rule:nonzero;stroke:none;display:inline"
       id="path910-8"
       inkscape:connector-curvature="0" /><path
       d="m 894.74061,428.29053 -35.25,35.4"
       style="fill:none;stroke:#0000ff;stroke-width:3;stroke-linecap:butt;stroke-linejoin:miter;stroke-miterlimit:10;stroke-opacity:1;stroke-dasharray:none;display:inline"
       id="path912-5"
       inkscape:connector-curvature="0" /><path
       d="m 859.49061,463.84053 0.15,0 0,-0.15 -0.15,0 0,0.15 z"
       style="fill:#000000;fill-opacity:1;fill-rule:nonzero;stroke:none;display:inline"
       id="path914-5"
       inkscape:connector-curvature="0" /><path
       d="m 859.49061,463.69053 -35.4,-35.4"
       style="fill:none;stroke:#0000ff;stroke-width:3;stroke-linecap:butt;stroke-linejoin:miter;stroke-miterlimit:10;stroke-opacity:1;stroke-dasharray:none;display:inline"
       id="path916-5"
       inkscape:connector-curvature="0" /><path
       d="m 824.09061,428.44053 0.15,0 0,-0.15 -0.15,0 0,0.15 z"
       style="fill:#000000;fill-opacity:1;fill-rule:nonzero;stroke:none;display:inline"
       id="path918-0"
       inkscape:connector-curvature="0" /><path
       d="m 1294.9406,428.29053 70.65,0"
       style="fill:none;stroke:#0000ff;stroke-width:3;stroke-linecap:butt;stroke-linejoin:miter;stroke-miterlimit:10;stroke-opacity:1;stroke-dasharray:none;display:inline"
       id="path920-9"
       inkscape:connector-curvature="0" /><path
       d="m 1365.5906,428.44053 0.15,0 0,-0.15 -0.15,0 0,0.15 z"
       style="fill:#000000;fill-opacity:1;fill-rule:nonzero;stroke:none;display:inline"
       id="path922-4"
       inkscape:connector-curvature="0" /><path
       d="m 1365.5906,428.29053 -35.4,35.4"
       style="fill:none;stroke:#0000ff;stroke-width:3;stroke-linecap:butt;stroke-linejoin:miter;stroke-miterlimit:10;stroke-opacity:1;stroke-dasharray:none;display:inline"
       id="path924-1"
       inkscape:connector-curvature="0" /><path
       d="m 1330.1906,463.84053 0.15,0 0,-0.15 -0.15,0 0,0.15 z"
       style="fill:#000000;fill-opacity:1;fill-rule:nonzero;stroke:none;display:inline"
       id="path926-5"
       inkscape:connector-curvature="0" /><path
       d="m 1330.1906,463.69053 -35.25,-35.4"
       style="fill:none;stroke:#0000ff;stroke-width:3;stroke-linecap:butt;stroke-linejoin:miter;stroke-miterlimit:10;stroke-opacity:1;stroke-dasharray:none;display:inline"
       id="path928-5"
       inkscape:connector-curvature="0" /><path
       d="m 1294.9406,428.44053 0.15,0 0,-0.15 -0.15,0 0,0.15 z"
       style="fill:#000000;fill-opacity:1;fill-rule:nonzero;stroke:none;display:inline"
       id="path930-7"
       inkscape:connector-curvature="0" /><path
       d="m 388.64059,208.69052 -313.799999,0"
       style="fill:none;stroke:#0000ff;stroke-width:3;stroke-linecap:butt;stroke-linejoin:miter;stroke-miterlimit:10;stroke-opacity:1;stroke-dasharray:none;display:inline"
       id="path942-1"
       inkscape:connector-curvature="0" /><path
       d="m 74.840591,208.84052 0.15,0 0,-0.15 -0.15,0 0,0.15 z"
       style="fill:#0000ff;fill-opacity:1;fill-rule:nonzero;stroke:none;display:inline"
       id="path944-1"
       inkscape:connector-curvature="0" /><path
       d="m 671.09061,208.69052 -125.40002,0"
       style="fill:none;stroke:#0000ff;stroke-width:3;stroke-linecap:butt;stroke-linejoin:miter;stroke-miterlimit:10;stroke-opacity:1;stroke-dasharray:none;display:inline"
       id="path946-0"
       inkscape:connector-curvature="0" /><path
       d="m 545.69059,208.84052 0.15,0 0,-0.15 -0.15,0 0,0.15 z"
       style="fill:#0000ff;fill-opacity:1;fill-rule:nonzero;stroke:none;display:inline"
       id="path948-7"
       inkscape:connector-curvature="0" /><path
       d="m 859.49061,208.69052 -188.4,0"
       style="fill:none;stroke:#0000ff;stroke-width:3;stroke-linecap:butt;stroke-linejoin:miter;stroke-miterlimit:10;stroke-opacity:1;stroke-dasharray:none;display:inline"
       id="path950-1"
       inkscape:connector-curvature="0" /><path
       d="m 671.09061,208.84052 0.15,0 0,-0.15 -0.15,0 0,0.15 z"
       style="fill:#0000ff;fill-opacity:1;fill-rule:nonzero;stroke:none;display:inline"
       id="path952-5"
       inkscape:connector-curvature="0" /><path
       d="m 1330.1906,208.69052 -376.49999,0"
       style="fill:none;stroke:#0000ff;stroke-width:3;stroke-linecap:butt;stroke-linejoin:miter;stroke-miterlimit:10;stroke-opacity:1;stroke-dasharray:none;display:inline"
       id="path954-4"
       inkscape:connector-curvature="0" /><path
       d="m 953.69061,208.84052 0.15,0 0,-0.15 -0.15,0 0,0.15 z"
       style="fill:#0000ff;fill-opacity:1;fill-rule:nonzero;stroke:none;display:inline"
       id="path956-8"
       inkscape:connector-curvature="0" /><path
       d="m 74.840591,240.04052 0,-31.35"
       style="fill:none;stroke:#0000ff;stroke-width:3;stroke-linecap:butt;stroke-linejoin:miter;stroke-miterlimit:10;stroke-opacity:1;stroke-dasharray:none;display:inline"
       id="path958-8"
       inkscape:connector-curvature="0" /><path
       d="m 74.840591,208.84052 0.15,0 0,-0.15 -0.15,0 0,0.15 z"
       style="fill:#0000ff;fill-opacity:1;fill-rule:nonzero;stroke:none;display:inline"
       id="path960-1"
       inkscape:connector-curvature="0" /><path
       d="m 859.49061,240.04052 0,-31.35"
       style="fill:none;stroke:#0000ff;stroke-width:3;stroke-linecap:butt;stroke-linejoin:miter;stroke-miterlimit:10;stroke-opacity:1;stroke-dasharray:none;display:inline"
       id="path962-1"
       inkscape:connector-curvature="0" /><path
       d="m 859.49061,208.84052 0.15,0 0,-0.15 -0.15,0 0,0.15 z"
       style="fill:#0000ff;fill-opacity:1;fill-rule:nonzero;stroke:none;display:inline"
       id="path964-6"
       inkscape:connector-curvature="0" /><path
       d="m 953.69061,240.04052 0,-31.35"
       style="fill:none;stroke:#0000ff;stroke-width:3;stroke-linecap:butt;stroke-linejoin:miter;stroke-miterlimit:10;stroke-opacity:1;stroke-dasharray:none;display:inline"
       id="path966-5"
       inkscape:connector-curvature="0" /><path
       d="m 953.69061,208.84052 0.15,0 0,-0.15 -0.15,0 0,0.15 z"
       style="fill:#0000ff;fill-opacity:1;fill-rule:nonzero;stroke:none;display:inline"
       id="path968-2"
       inkscape:connector-curvature="0" /><path
       d="m 1330.1906,240.04052 0,-31.35"
       style="fill:none;stroke:#0000ff;stroke-width:3;stroke-linecap:butt;stroke-linejoin:miter;stroke-miterlimit:10;stroke-opacity:1;stroke-dasharray:none;display:inline"
       id="path970-7"
       inkscape:connector-curvature="0" /><path
       d="m 1330.1906,208.84052 0.15,0 0,-0.15 -0.15,0 0,0.15 z"
       style="fill:#0000ff;fill-opacity:1;fill-rule:nonzero;stroke:none;display:inline"
       id="path972-1"
       inkscape:connector-curvature="0" /><path
       d="m 74.840591,428.29053 0,-31.35001"
       style="fill:none;stroke:#0000ff;stroke-width:3;stroke-linecap:butt;stroke-linejoin:miter;stroke-miterlimit:10;stroke-opacity:1;stroke-dasharray:none;display:inline"
       id="path974-3"
       inkscape:connector-curvature="0" /><path
       d="m 74.840591,397.09052 0.15,0 0,-0.15 -0.15,0 0,0.15 z"
       style="fill:#0000ff;fill-opacity:1;fill-rule:nonzero;stroke:none;display:inline"
       id="path976-8"
       inkscape:connector-curvature="0" /><path
       d="m 859.49061,428.29053 0,-31.35001"
       style="fill:none;stroke:#0000ff;stroke-width:3;stroke-linecap:butt;stroke-linejoin:miter;stroke-miterlimit:10;stroke-opacity:1;stroke-dasharray:none;display:inline"
       id="path978-4"
       inkscape:connector-curvature="0" /><path
       d="m 953.69061,428.29053 0,-31.35001"
       style="fill:none;stroke:#0000ff;stroke-width:3;stroke-linecap:butt;stroke-linejoin:miter;stroke-miterlimit:10;stroke-opacity:1;stroke-dasharray:none;display:inline"
       id="path982-9"
       inkscape:connector-curvature="0" /><path
       d="m 1330.1906,428.29053 0,-31.35001"
       style="fill:none;stroke:#0000ff;stroke-width:3;stroke-linecap:butt;stroke-linejoin:miter;stroke-miterlimit:10;stroke-opacity:1;stroke-dasharray:none;display:inline"
       id="path986-2"
       inkscape:connector-curvature="0" /><path
       d="m 1330.1906,397.09052 0.15,0 0,-0.15 -0.15,0 0,0.15 z"
       style="fill:#0000ff;fill-opacity:1;fill-rule:nonzero;stroke:none;display:inline"
       id="path988-6"
       inkscape:connector-curvature="0" /><path
       style="fill:#000000;fill-opacity:0;stroke:#0000ff;stroke-width:3;stroke-linecap:butt;stroke-linejoin:miter;stroke-miterlimit:4;stroke-opacity:1;stroke-dasharray:none;display:inline"
       d="m 859.57241,239.59734 c 26.9978,0.81252 43.3994,34.97397 20.5033,55.09347 -7.3013,5.80022 -14.6877,7.93921 -21.0888,7.78647 -7.4883,-0.17868 -19.4787,-3.4589 -19.6126,-7.68573 -0.073,-2.30513 8.3451,-7.93061 19.3554,-7.40033 6.4332,0.30985 13.2838,1.45375 21.5427,7.44143 0.93,0.92993 9.2628,9.58385 10.5096,19.26346 2.4989,25.83983 -16.5665,35.153 -32.2325,35.53505 -10.4152,0.254 -19.4379,-5.63419 -19.4316,-7.50536 0.1114,-2.39689 8.4715,-7.62274 18.409,-7.7983 17.2969,-0.30557 29.4565,8.30328 33.3335,27.91166 2.9857,15.10016 -10.1922,32.25482 -31.0788,34.6801"
       id="path4746-4"
       inkscape:connector-curvature="0"
       sodipodi:nodetypes="ccsssccscssc" /><path
       style="fill:#000000;fill-opacity:0;stroke:#0000ff;stroke-width:3;stroke-linecap:butt;stroke-linejoin:miter;stroke-miterlimit:4;stroke-opacity:1;stroke-dasharray:none;display:inline"
       d="m 953.83251,396.87768 c -26.9978,-0.81252 -43.3995,-34.97397 -20.5033,-55.09347 7.3013,-5.80022 14.6876,-7.93921 21.0888,-7.78647 7.4882,0.17868 19.4787,3.4589 19.6125,7.68573 0.073,2.30513 -8.3451,7.93061 -19.3553,7.40033 -6.4332,-0.30985 -13.2838,-1.45375 -21.5428,-7.44143 -0.9299,-0.92993 -9.2628,-9.58385 -10.5096,-19.26346 -2.4988,-25.83983 16.5665,-35.153 32.2325,-35.53505 10.4152,-0.254 19.4379,5.63419 19.4317,7.50536 -0.1114,2.39689 -8.4715,7.62274 -18.4091,7.7983 -17.2968,0.30557 -29.4564,-8.30328 -33.3335,-27.91166 -2.9856,-15.10016 10.1923,-32.25482 31.0789,-34.6801"
       id="path4746-8-9"
       inkscape:connector-curvature="0"
       sodipodi:nodetypes="ccsssccscssc" /></g></svg>