<?xml version="1.0" encoding="UTF-8" standalone="no"?>
<!-- Created with Inkscape (http://www.inkscape.org/) -->

<svg
   xmlns:dc="http://purl.org/dc/elements/1.1/"
   xmlns:cc="http://creativecommons.org/ns#"
   xmlns:rdf="http://www.w3.org/1999/02/22-rdf-syntax-ns#"
   xmlns:svg="http://www.w3.org/2000/svg"
   xmlns="http://www.w3.org/2000/svg"
   xmlns:sodipodi="http://sodipodi.sourceforge.net/DTD/sodipodi-0.dtd"
   xmlns:inkscape="http://www.inkscape.org/namespaces/inkscape"
   version="1.1"
   id="svg6487"
   xml:space="preserve"
   width="188.97638"
   height="340.15747"
   viewBox="0 0 188.97638 340.15747"
   sodipodi:docname="teo_fig053d.svg"
   inkscape:version="0.92.4 (5da689c313, 2019-01-14)"><metadata
     id="metadata6493"><rdf:RDF><cc:Work
         rdf:about=""><dc:format>image/svg+xml</dc:format><dc:type
           rdf:resource="http://purl.org/dc/dcmitype/StillImage" /></cc:Work></rdf:RDF></metadata><defs
     id="defs6491"><clipPath
       clipPathUnits="userSpaceOnUse"
       id="clipPath6507"><path
         d="M 9.973,26.504 H 113.114 V 237.422 H 9.973 Z"
         id="path6505"
         inkscape:connector-curvature="0" /></clipPath><clipPath
       clipPathUnits="userSpaceOnUse"
       id="clipPath6517"><path
         d="M 0,0 H 142 V 256 H 0 Z"
         id="path6515"
         inkscape:connector-curvature="0" /></clipPath><clipPath
       clipPathUnits="userSpaceOnUse"
       id="clipPath6545"><path
         d="M 0,0 H 142 V 256 H 0 Z"
         id="path6543"
         inkscape:connector-curvature="0" /></clipPath><clipPath
       clipPathUnits="userSpaceOnUse"
       id="clipPath6565"><path
         d="M 0,0 H 142 V 256 H 0 Z"
         id="path6563"
         inkscape:connector-curvature="0" /></clipPath><clipPath
       clipPathUnits="userSpaceOnUse"
       id="clipPath6585"><path
         d="M 0,0 H 142 V 256 H 0 Z"
         id="path6583"
         inkscape:connector-curvature="0" /></clipPath></defs><sodipodi:namedview
     pagecolor="#ffffff"
     bordercolor="#666666"
     borderopacity="1"
     objecttolerance="10"
     gridtolerance="10"
     guidetolerance="10"
     inkscape:pageopacity="0"
     inkscape:pageshadow="2"
     inkscape:window-width="1242"
     inkscape:window-height="1408"
     id="namedview6489"
     showgrid="false"
     inkscape:zoom="1.9623523"
     inkscape:cx="137.28292"
     inkscape:cy="134.87103"
     inkscape:window-x="1309"
     inkscape:window-y="0"
     inkscape:window-maximized="0"
     inkscape:current-layer="g6495" /><g
     id="g6495"
     inkscape:groupmode="layer"
     inkscape:label="teo_fig053c"
     transform="matrix(1.3333333,0,0,1.3333333,0,7.8372701e-6)"><g
       id="g6497"><path
         d="m 59.848,68.613 h 51.203 V 193.578 H 59.848 Z"
         style="fill:#4672c4;fill-opacity:1;fill-rule:evenodd;stroke:none"
         id="path6499"
         inkscape:connector-curvature="0" /></g><g
       id="g6501"><g
         id="g6503"
         clip-path="url(#clipPath6507)"><g
           id="g6509"><g
             id="g6511"><g
               id="g6513"
               clip-path="url(#clipPath6517)"><g
                 id="g6519"><g
                   id="g6521"><path
                     d="m 59.848,68.613 h 51.203 V 193.578 H 59.848 Z"
                     style="fill:none;stroke:#000000;stroke-width:1.98354304;stroke-linecap:square;stroke-linejoin:miter;stroke-miterlimit:2;stroke-dasharray:none;stroke-opacity:1"
                     id="path6523"
                     inkscape:connector-curvature="0" /></g></g></g></g></g><path
           d="m 54.602,121.094 h 4.461 v 20.004 h -4.461 z"
           style="fill:#000000;fill-opacity:1;fill-rule:evenodd;stroke:none"
           id="path6527"
           inkscape:connector-curvature="0" /><path
           d="m 59.848,68.613 h 51.203 v 4.504 H 59.848 Z"
           style="fill:#000000;fill-opacity:1;fill-rule:evenodd;stroke:none"
           id="path6529"
           inkscape:connector-curvature="0" /><path
           d="m 59.313,189.074 h 51.242 v 4.504 H 59.313 Z"
           style="fill:#000000;fill-opacity:1;fill-rule:evenodd;stroke:none"
           id="path6531"
           inkscape:connector-curvature="0" /><g
           id="g6533"><path
             d="M 54.602,131.098 H 20.219"
             style="fill:none;stroke:#000000;stroke-width:2.64472389;stroke-linecap:round;stroke-linejoin:round;stroke-miterlimit:10;stroke-dasharray:none;stroke-opacity:1"
             id="path6535"
             inkscape:connector-curvature="0" /></g><g
           id="g6537"><g
             id="g6539"><g
               id="g6541"
               clip-path="url(#clipPath6545)"><g
                 id="g6547"><g
                   id="g6549"><path
                     d="m 20.219,131.098 c 0,-2.274 -1.86,-4.133 -4.133,-4.133 -2.273,0 -4.133,1.859 -4.133,4.133 0,2.269 1.86,4.129 4.133,4.129 2.273,0 4.133,-1.86 4.133,-4.129"
                     style="fill:none;stroke:#000000;stroke-width:2.64472389;stroke-linecap:round;stroke-linejoin:round;stroke-miterlimit:10;stroke-dasharray:none;stroke-opacity:1"
                     id="path6551"
                     inkscape:connector-curvature="0" /></g></g></g></g></g><g
           id="g6553"><path
             d="m 85.400679,192.586 v 34.34"
             style="fill:none;stroke:#000000;stroke-width:2.64472389;stroke-linecap:round;stroke-linejoin:round;stroke-miterlimit:10;stroke-dasharray:none;stroke-opacity:1"
             id="path6555"
             inkscape:connector-curvature="0" /></g><g
           id="g6557"><g
             id="g6559"><g
               id="g6561"
               clip-path="url(#clipPath6565)"><g
                 id="g6567"><g
                   id="g6569"><path
                     d="m 85.400679,226.926 c -2.27,0 -4.129,1.859 -4.129,4.133 0,2.273 1.859,4.132 4.129,4.132 2.273,0 4.132,-1.859 4.132,-4.132 0,-2.274 -1.859,-4.133 -4.132,-4.133"
                     style="fill:none;stroke:#000000;stroke-width:2.64472389;stroke-linecap:round;stroke-linejoin:round;stroke-miterlimit:10;stroke-dasharray:none;stroke-opacity:1"
                     id="path6571"
                     inkscape:connector-curvature="0" /></g></g></g></g></g><g
           id="g6573"><path
             d="M 85.400679,71.137 V 36.754"
             style="fill:none;stroke:#000000;stroke-width:2.64472389;stroke-linecap:round;stroke-linejoin:round;stroke-miterlimit:10;stroke-dasharray:none;stroke-opacity:1"
             id="path6575"
             inkscape:connector-curvature="0" /></g><g
           id="g6577"><g
             id="g6579"><g
               id="g6581"
               clip-path="url(#clipPath6585)"><g
                 id="g6587"><g
                   id="g6589"><path
                     d="m 85.400679,36.754 c -2.27,0 -4.129,-1.859 -4.129,-4.133 0,-2.273 1.859,-4.133 4.129,-4.133 2.273,0 4.132,1.86 4.132,4.133 0,2.274 -1.859,4.133 -4.132,4.133"
                     style="fill:none;stroke:#000000;stroke-width:2.64472389;stroke-linecap:round;stroke-linejoin:round;stroke-miterlimit:10;stroke-dasharray:none;stroke-opacity:1"
                     id="path6591"
                     inkscape:connector-curvature="0" /></g></g></g></g></g></g></g><path
       d="M 60.861445,73.116998 H 110.08041 V 118.61317 H 60.861445 Z"
       style="fill:#7f7f7f;fill-opacity:1;fill-rule:evenodd;stroke:none;stroke-width:1"
       id="path6525-9"
       inkscape:connector-curvature="0" /><g
       id="g6593"><path
         d="m 48.493679,24.109 c 0,1.039 -0.258,1.039 -1.859,1.039 v 0.747 c 0.781,-0.04 1.898,-0.075 2.566,-0.075 0.742,0 1.672,0.035 2.641,0.075 v -0.747 c -1.602,0 -1.859,0 -1.859,-1.039 v -2.453 l 1.523,-1.301 c 1.82,2.489 2.824,3.829 2.824,4.274 0,0.445 -0.406,0.519 -0.855,0.519 v 0.747 c 0.633,-0.04 2.047,-0.075 2.566,-0.075 0.668,0 1.375,0.035 2.043,0.075 v -0.747 c -0.891,0 -1.41,0 -2.305,-1.261 l -3.007,-4.239 c -0.039,-0.039 -0.153,-0.187 -0.153,-0.261 0,-0.074 1.711,-1.524 1.934,-1.707 1.488,-1.192 2.492,-1.266 2.976,-1.266 v -0.742 c -0.671,0.074 -0.968,0.074 -1.636,0.074 -0.856,0 -2.344,-0.039 -2.676,-0.074 v 0.742 c 0.445,0 0.707,0.262 0.707,0.594 0,0.484 -0.336,0.746 -0.523,0.93 l -3.344,2.863 V 9.426 l -3.422,0.262 v 0.742 c 1.676,0 1.859,0.148 1.859,1.34 z"
         style="fill:#000000;fill-opacity:1;fill-rule:nonzero;stroke:none"
         id="path6595"
         inkscape:connector-curvature="0" /><path
         d="m 68.962679,20.801 c 0,-3.012 -2.34,-5.539 -5.203,-5.539 -2.973,0 -5.277,2.601 -5.277,5.539 0,3.086 2.453,5.351 5.242,5.351 2.859,0 5.238,-2.339 5.238,-5.351 z m -5.203,4.758 c -1.039,0 -2.082,-0.485 -2.715,-1.598 -0.594,-1.043 -0.594,-2.492 -0.594,-3.348 0,-0.929 0,-2.191 0.559,-3.234 0.633,-1.074 1.746,-1.598 2.715,-1.598 1.039,0 2.043,0.524 2.676,1.563 0.632,1.004 0.632,2.379 0.632,3.269 0,0.856 0,2.157 -0.523,3.2 -0.555,1.078 -1.598,1.746 -2.75,1.746 z"
         style="fill:#000000;fill-opacity:1;fill-rule:nonzero;stroke:none"
         id="path6597"
         inkscape:connector-curvature="0" /><path
         d="m 73.864679,9.426 -3.422,0.262 v 0.742 c 1.672,0 1.86,0.148 1.86,1.34 v 12.339 c 0,1.039 -0.262,1.039 -1.86,1.039 v 0.747 c 0.782,-0.04 2.043,-0.075 2.641,-0.075 0.594,0 1.746,0.035 2.637,0.075 v -0.747 c -1.598,0 -1.856,0 -1.856,-1.039 z"
         style="fill:#000000;fill-opacity:1;fill-rule:nonzero;stroke:none"
         id="path6599"
         inkscape:connector-curvature="0" /><path
         d="m 78.884679,19.91 c 0.148,-3.531 2.156,-4.129 2.976,-4.129 2.415,0 2.676,3.199 2.676,4.129 z m 0,0.52 h 6.617 c 0.52,0 0.594,0 0.594,-0.52 0,-2.344 -1.301,-4.648 -4.235,-4.648 -2.753,0 -4.945,2.453 -4.945,5.426 0,3.16 2.492,5.464 5.203,5.464 2.899,0 3.977,-2.636 3.977,-3.086 0,-0.222 -0.184,-0.296 -0.332,-0.296 -0.188,0 -0.262,0.148 -0.297,0.335 -0.82,2.454 -2.977,2.454 -3.199,2.454 -1.188,0 -2.117,-0.707 -2.676,-1.598 -0.707,-1.117 -0.707,-2.676 -0.707,-3.531 z"
         style="fill:#000000;fill-opacity:1;fill-rule:nonzero;stroke:none"
         id="path6601"
         inkscape:connector-curvature="0" /><path
         d="m 89.306679,24.109 c 0,1.039 -0.258,1.039 -1.86,1.039 v 0.747 c 0.782,-0.04 1.899,-0.075 2.567,-0.075 0.742,0 1.672,0.035 2.64,0.075 v -0.747 c -1.601,0 -1.859,0 -1.859,-1.039 v -2.453 l 1.523,-1.301 c 1.821,2.489 2.825,3.829 2.825,4.274 0,0.445 -0.41,0.519 -0.856,0.519 v 0.747 c 0.633,-0.04 2.047,-0.075 2.567,-0.075 0.668,0 1.375,0.035 2.043,0.075 v -0.747 c -0.891,0 -1.411,0 -2.305,-1.261 l -3.012,-4.239 c -0.035,-0.039 -0.148,-0.187 -0.148,-0.261 0,-0.074 1.711,-1.524 1.933,-1.707 1.489,-1.192 2.493,-1.266 2.973,-1.266 v -0.742 c -0.668,0.074 -0.965,0.074 -1.633,0.074 -0.855,0 -2.344,-0.039 -2.676,-0.074 v 0.742 c 0.446,0 0.704,0.262 0.704,0.594 0,0.484 -0.332,0.746 -0.52,0.93 l -3.344,2.863 V 9.426 l -3.422,0.262 v 0.742 c 1.676,0 1.86,0.148 1.86,1.34 z"
         style="fill:#000000;fill-opacity:1;fill-rule:nonzero;stroke:none"
         id="path6603"
         inkscape:connector-curvature="0" /><path
         d="m 103.3767,16.414 h 3.422 v -0.742 h -3.422 V 11.32 h -0.594 c 0,1.934 -0.707,4.461 -3.047021,4.575 v 0.519 h 2.004021 v 6.543 c 0,2.898 2.231,3.195 3.086,3.195 1.672,0 2.344,-1.672 2.344,-3.195 v -1.34 h -0.598 v 1.301 c 0,1.75 -0.703,2.641 -1.597,2.641 -1.598,0 -1.598,-2.157 -1.598,-2.567 z"
         style="fill:#000000;fill-opacity:1;fill-rule:nonzero;stroke:none"
         id="path6605"
         inkscape:connector-curvature="0" /><path
         d="m 119.6577,20.801 c 0,-3.012 -2.343,-5.539 -5.207,-5.539 -2.972,0 -5.277,2.601 -5.277,5.539 0,3.086 2.453,5.351 5.242,5.351 2.863,0 5.242,-2.339 5.242,-5.351 z m -5.207,4.758 c -1.039,0 -2.078,-0.485 -2.711,-1.598 -0.593,-1.043 -0.593,-2.492 -0.593,-3.348 0,-0.929 0,-2.191 0.554,-3.234 0.633,-1.074 1.75,-1.598 2.715,-1.598 1.039,0 2.043,0.524 2.676,1.563 0.633,1.004 0.633,2.379 0.633,3.269 0,0.856 0,2.157 -0.52,3.2 -0.558,1.078 -1.601,1.746 -2.754,1.746 z"
         style="fill:#000000;fill-opacity:1;fill-rule:nonzero;stroke:none"
         id="path6607"
         inkscape:connector-curvature="0" /><path
         d="M 124.3337,18.012 V 15.41 l -3.308,0.262 v 0.742 c 1.671,0 1.859,0.149 1.859,1.34 v 6.355 c 0,1.039 -0.262,1.039 -1.859,1.039 v 0.747 c 0.929,-0.04 2.042,-0.075 2.714,-0.075 0.926,0 2.043,0 3.008,0.075 v -0.747 h -0.519 c -1.746,0 -1.786,-0.257 -1.786,-1.113 v -3.644 c 0,-2.34 1.004,-4.461 2.79,-4.461 0.148,0 0.222,0 0.261,0.039 -0.074,0 -0.558,0.297 -0.558,0.929 0,0.633 0.519,1.004 1.039,1.004 0.41,0 1.004,-0.297 1.004,-1.043 0,-0.742 -0.743,-1.449 -1.746,-1.449 -1.747,0 -2.602,1.598 -2.899,2.602 z"
         style="fill:#000000;fill-opacity:1;fill-rule:nonzero;stroke:none"
         id="path6609"
         inkscape:connector-curvature="0" /><path
         d="m 55.181679,247.223 c 0.148,-3.532 2.156,-4.125 2.972,-4.125 2.418,0 2.676,3.195 2.676,4.125 z m 0,0.519 h 6.617 c 0.519,0 0.594,0 0.594,-0.519 0,-2.34 -1.301,-4.645 -4.239,-4.645 -2.75,0 -4.941,2.453 -4.941,5.426 0,3.16 2.488,5.465 5.203,5.465 2.899,0 3.977,-2.641 3.977,-3.086 0,-0.223 -0.188,-0.297 -0.336,-0.297 -0.184,0 -0.258,0.148 -0.297,0.332 -0.817,2.453 -2.973,2.453 -3.195,2.453 -1.192,0 -2.118,-0.703 -2.676,-1.598 -0.707,-1.113 -0.707,-2.675 -0.707,-3.531 z"
         style="fill:#000000;fill-opacity:1;fill-rule:nonzero;stroke:none"
         id="path6611"
         inkscape:connector-curvature="0" /><path
         d="m 65.677679,245.066 v 6.356 c 0,1.043 -0.262,1.043 -1.86,1.043 v 0.742 c 0.856,-0.035 2.043,-0.074 2.715,-0.074 0.594,0 1.821,0.039 2.637,0.074 v -0.742 c -1.598,0 -1.859,0 -1.859,-1.043 v -4.383 c 0,-2.457 1.711,-3.793 3.199,-3.793 1.523,0 1.785,1.262 1.785,2.641 v 5.535 c 0,1.043 -0.262,1.043 -1.859,1.043 v 0.742 c 0.816,-0.035 2.043,-0.074 2.675,-0.074 0.594,0 1.86,0.039 2.641,0.074 v -0.742 c -1.562,0 -1.824,0 -1.824,-1.043 v -4.383 c 0,-2.457 1.672,-3.793 3.199,-3.793 1.484,0 1.746,1.262 1.746,2.641 v 5.535 c 0,1.043 -0.262,1.043 -1.859,1.043 v 0.742 c 0.816,-0.035 2.043,-0.074 2.676,-0.074 0.632,0 1.859,0.039 2.675,0.074 v -0.742 c -1.226,0 -1.82,0 -1.855,-0.707 v -4.535 c 0,-2.043 0,-2.75 -0.746,-3.606 -0.332,-0.41 -1.113,-0.89 -2.488,-0.89 -1.973,0 -3.051,1.41 -3.422,2.339 -0.332,-2.082 -2.082,-2.339 -3.161,-2.339 -1.746,0 -2.859,1.003 -3.531,2.488 v -2.488 l -3.344,0.257 v 0.746 c 1.672,0 1.86,0.149 1.86,1.336 z"
         style="fill:#000000;fill-opacity:1;fill-rule:nonzero;stroke:none"
         id="path6613"
         inkscape:connector-curvature="0" /><path
         d="m 87.025679,242.727 -3.309,0.257 v 0.746 c 1.523,0 1.746,0.149 1.746,1.301 v 6.391 c 0,1.043 -0.258,1.043 -1.859,1.043 v 0.742 c 0.746,-0.035 2.047,-0.074 2.601,-0.074 0.856,0 1.676,0.039 2.492,0.074 v -0.742 c -1.597,0 -1.671,-0.113 -1.671,-1.043 z m 0.074,-4.129 c 0,-0.743 -0.559,-1.262 -1.227,-1.262 -0.742,0 -1.265,0.633 -1.265,1.262 0,0.632 0.523,1.265 1.265,1.265 0.668,0 1.227,-0.519 1.227,-1.265 z"
         style="fill:#000000;fill-opacity:1;fill-rule:nonzero;stroke:none"
         id="path6615"
         inkscape:connector-curvature="0" /><path
         d="m 93.497679,243.73 h 3.418 v -0.746 h -3.418 v -4.347 h -0.594 c 0,1.933 -0.707,4.461 -3.05,4.57 v 0.523 h 2.007 v 6.54 c 0,2.902 2.231,3.199 3.086,3.199 1.672,0 2.34,-1.672 2.34,-3.199 v -1.336 h -0.594 v 1.3 c 0,1.746 -0.707,2.637 -1.597,2.637 -1.598,0 -1.598,-2.152 -1.598,-2.562 z"
         style="fill:#000000;fill-opacity:1;fill-rule:nonzero;stroke:none"
         id="path6617"
         inkscape:connector-curvature="0" /><path
         d="m 109.7757,248.113 c 0,-3.008 -2.34,-5.535 -5.204,-5.535 -2.972,0 -5.277021,2.602 -5.277021,5.535 0,3.086 2.453021,5.356 5.242021,5.356 2.86,0 5.239,-2.344 5.239,-5.356 z m -5.204,4.758 c -1.039,0 -2.082,-0.48 -2.714,-1.598 -0.594,-1.039 -0.594,-2.488 -0.594,-3.343 0,-0.93 0,-2.196 0.558,-3.235 0.633,-1.078 1.746,-1.597 2.715,-1.597 1.039,0 2.043,0.519 2.676,1.562 0.633,1 0.633,2.379 0.633,3.27 0,0.855 0,2.156 -0.524,3.195 -0.554,1.078 -1.597,1.746 -2.75,1.746 z"
         style="fill:#000000;fill-opacity:1;fill-rule:nonzero;stroke:none"
         id="path6619"
         inkscape:connector-curvature="0" /><path
         d="m 114.4507,245.328 v -2.601 l -3.304,0.257 v 0.746 c 1.671,0 1.855,0.149 1.855,1.336 v 6.356 c 0,1.043 -0.258,1.043 -1.855,1.043 v 0.742 c 0.925,-0.035 2.043,-0.074 2.711,-0.074 0.929,0 2.046,0 3.011,0.074 v -0.742 h -0.519 c -1.746,0 -1.785,-0.262 -1.785,-1.117 v -3.641 c 0,-2.344 1.003,-4.461 2.789,-4.461 0.148,0 0.222,0 0.257,0.035 -0.074,0 -0.554,0.301 -0.554,0.93 0,0.633 0.519,1.004 1.039,1.004 0.41,0 1.004,-0.297 1.004,-1.039 0,-0.746 -0.742,-1.449 -1.746,-1.449 -1.75,0 -2.602,1.597 -2.903,2.601 z"
         style="fill:#000000;fill-opacity:1;fill-rule:nonzero;stroke:none"
         id="path6621"
         inkscape:connector-curvature="0" /><path
         d="m 5.348,114.391 v -7.508 l -3.418,0.258 v 0.742 c 1.672,0 1.859,0.152 1.859,1.34 v 14.125 h 0.594 c 0,-0.035 0.187,-0.371 0.855,-1.489 0.332,0.559 1.336,1.75 3.086,1.75 2.824,0 5.278,-2.343 5.278,-5.39 0,-3.012 -2.305,-5.352 -5.02,-5.352 -1.859,0 -2.859,1.113 -3.234,1.524 z m 0.074,6.242 v -4.867 c 0,-0.446 0,-0.485 0.262,-0.856 0.929,-1.34 2.23,-1.523 2.789,-1.523 1.078,0 1.929,0.633 2.488,1.523 0.633,0.965 0.672,2.305 0.672,3.309 0,0.855 -0.039,2.265 -0.707,3.344 -0.524,0.746 -1.414,1.523 -2.676,1.523 -1.078,0 -1.934,-0.555 -2.492,-1.449 -0.336,-0.481 -0.336,-0.555 -0.336,-1.004 z"
         style="fill:#000000;fill-opacity:1;fill-rule:nonzero;stroke:none"
         id="path6623"
         inkscape:connector-curvature="0" /><path
         d="m 23.313,108.367 c 0.222,-0.183 0.41,-0.445 0.41,-0.707 0,-0.445 -0.41,-0.851 -0.856,-0.851 -0.336,0 -0.597,0.257 -0.707,0.406 l -2.863,3.605 0.41,0.446 z"
         style="fill:#000000;fill-opacity:1;fill-rule:nonzero;stroke:none"
         id="path6625"
         inkscape:connector-curvature="0" /><path
         d="m 22.309,121.563 c 0.109,0.929 0.742,1.933 1.859,1.933 0.52,0 1.969,-0.336 1.969,-2.266 v -1.339 h -0.594 v 1.339 c 0,1.375 -0.594,1.524 -0.855,1.524 -0.782,0 -0.891,-1.078 -0.891,-1.191 v -4.719 c 0,-1.004 0,-1.934 -0.856,-2.824 -0.929,-0.93 -2.121,-1.301 -3.234,-1.301 -1.969,0 -3.605,1.113 -3.605,2.676 0,0.703 0.484,1.113 1.113,1.113 0.672,0 1.078,-0.485 1.078,-1.078 0,-0.297 -0.109,-1.078 -1.227,-1.078 0.672,-0.856 1.821,-1.114 2.567,-1.114 1.187,0 2.527,0.93 2.527,3.047 v 0.856 c -1.226,0.074 -2.863,0.148 -4.347,0.855 -1.786,0.817 -2.379,2.043 -2.379,3.086 0,1.93 2.304,2.527 3.789,2.527 1.562,0 2.64,-0.968 3.086,-2.046 z M 22.16,117.66 v 2.379 c 0,2.231 -1.711,3.047 -2.789,3.047 -1.152,0 -2.117,-0.816 -2.117,-2.004 0,-1.301 1.004,-3.273 4.906,-3.422 z"
         style="fill:#000000;fill-opacity:1;fill-rule:nonzero;stroke:none"
         id="path6627"
         inkscape:connector-curvature="0" /><path
         d="m 35.535,113.832 c 0.223,-0.262 0.223,-0.297 0.223,-0.41 0,-0.297 -0.223,-0.297 -0.633,-0.297 h -7.582 l -0.262,3.828 h 0.594 c 0.148,-2.414 0.598,-3.308 3.199,-3.308 h 2.711 l -6.613,8.96 c -0.223,0.258 -0.223,0.297 -0.223,0.407 0,0.336 0.149,0.336 0.594,0.336 h 7.844 l 0.406,-4.422 h -0.594 c -0.222,2.785 -0.707,3.828 -3.457,3.828 h -2.824 z"
         style="fill:#000000;fill-opacity:1;fill-rule:nonzero;stroke:none"
         id="path6629"
         inkscape:connector-curvature="0" /><path
         d="m 39.449,117.363 c 0.149,-3.531 2.156,-4.125 2.973,-4.125 2.418,0 2.68,3.196 2.68,4.125 z m 0,0.52 h 6.617 c 0.52,0 0.594,0 0.594,-0.52 0,-2.34 -1.301,-4.644 -4.238,-4.644 -2.75,0 -4.942,2.453 -4.942,5.426 0,3.16 2.489,5.464 5.204,5.464 2.898,0 3.976,-2.64 3.976,-3.086 0,-0.222 -0.183,-0.296 -0.332,-0.296 -0.187,0 -0.262,0.148 -0.301,0.332 -0.816,2.453 -2.972,2.453 -3.195,2.453 -1.187,0 -2.117,-0.703 -2.676,-1.598 -0.707,-1.113 -0.707,-2.676 -0.707,-3.531 z"
         style="fill:#000000;fill-opacity:1;fill-rule:nonzero;stroke:none"
         id="path6631"
         inkscape:connector-curvature="0" /><path
         d="m 82.932715,132.2268 h 4.008 c 2.824,0 5.383,-1.894 5.383,-4.269 0,-2.34 -2.336,-4.418 -5.566,-4.418 h -8.391 v 0.742 h 0.594 c 1.82,0 1.855,0.262 1.855,1.113 v 12.473 c 0,0.855 -0.035,1.113 -1.855,1.113 h -0.594 v 0.742 c 0.855,-0.074 2.598,-0.074 3.488,-0.074 0.891,0 2.676,0 3.528,0.074 v -0.742 h -0.594 c -1.82,0 -1.856,-0.258 -1.856,-1.113 z m -0.074,-0.593 v -6.387 c 0,-0.816 0.035,-0.965 1.152,-0.965 h 2.114 c 3.75,0 3.75,2.524 3.75,3.676 0,1.113 0,3.676 -3.75,3.676 z"
         style="fill:#000000;fill-opacity:1;fill-rule:nonzero;stroke:none"
         id="path6633"
         inkscape:connector-curvature="0" /><path
         d="m 22.204347,149.90482 h 6.613 c 0.336,0 0.781,0 0.781,-0.48 0,-0.446 -0.445,-0.446 -0.781,-0.446 h -6.613 v -6.656 c 0,-0.332 0,-0.781 -0.484,-0.781 -0.485,0 -0.485,0.449 -0.485,0.781 v 6.656 h -6.617 c -0.332,0 -0.781,0 -0.781,0.446 0,0.48 0.449,0.48 0.781,0.48 h 6.617 v 6.656 c 0,0.332 0,0.782 0.485,0.782 0.484,0 0.484,-0.45 0.484,-0.782 z"
         style="fill:#000000;fill-opacity:1;fill-rule:nonzero;stroke:none"
         id="path6639"
         inkscape:connector-curvature="0" /><path
         d="m 92.75,224 h 6.285 v 1.379 H 92.75 Z"
         style="fill:#000000;fill-opacity:1;fill-rule:nonzero;stroke:none"
         id="path6641"
         inkscape:connector-curvature="0" /><path
         d="m 81.968715,87.096799 c -0.223,-0.297 -0.223,-0.336 -0.668,-0.336 h -4.047 v 0.742 h 0.707 c 0.332,0 0.816,0.039 1.148,0.039 0.559,0.074 0.594,0.11 0.594,0.555 V 100.4598 c 0,0.629 0,1.742 -2.449,1.742 v 0.743 c 0.816,-0.036 2.004,-0.075 2.785,-0.075 0.777,0 1.93,0.039 2.746,0.075 v -0.743 c -2.414,0 -2.414,-1.113 -2.414,-1.742 V 88.135799 c 0.113,0.109 0.113,0.148 0.223,0.297 l 9.652,14.215001 c 0.223,0.261 0.262,0.297 0.41,0.297 0.332,0 0.332,-0.149 0.332,-0.629 V 89.248799 c 0,-0.633 0,-1.746 2.449,-1.746 v -0.742 c -0.851,0.039 -2.004,0.074 -2.781,0.074 -0.781,0 -1.934,-0.035 -2.75,-0.074 v 0.742 c 2.414,0 2.414,1.113 2.414,1.746 v 10.133 z"
         style="fill:#000000;fill-opacity:1;fill-rule:nonzero;stroke:none"
         id="path6635"
         inkscape:connector-curvature="0" /></g><path
       d="m 106.99553,41.933948 h 6.613 c 0.336,0 0.781,0 0.781,-0.48 0,-0.446 -0.445,-0.446 -0.781,-0.446 h -6.613 v -6.656 c 0,-0.332 0,-0.781 -0.484,-0.781 -0.485,0 -0.485,0.449 -0.485,0.781 v 6.656 h -6.617 c -0.332,0 -0.781,0 -0.781,0.446 0,0.48 0.449,0.48 0.781,0.48 h 6.617 v 6.656 c 0,0.332 0,0.782 0.485,0.782 0.484,0 0.484,-0.45 0.484,-0.782 z"
       style="fill:#000000;fill-opacity:1;fill-rule:nonzero;stroke:none;stroke-width:0.99999994"
       id="path6639-2"
       inkscape:connector-curvature="0" /><path
       d="m 60.838503,143.64106 h 49.218947 v 45.49617 H 60.838503 Z"
       style="fill:#7f7f7f;fill-opacity:1;fill-rule:evenodd;stroke:none;stroke-width:0.99999994"
       id="path6525-9-6"
       inkscape:connector-curvature="0" /><path
       d="m 81.968716,156.78204 c -0.223,-0.297 -0.223,-0.336 -0.668,-0.336 h -4.047 v 0.742 h 0.707 c 0.331999,0 0.816,0.039 1.148,0.039 0.558999,0.074 0.593999,0.11 0.593999,0.555 v 12.363 c 0,0.629 0,1.742 -2.449,1.742 v 0.743 c 0.816,-0.036 2.004001,-0.075 2.785,-0.075 0.777,0 1.930001,0.039 2.746,0.075 v -0.743 c -2.414,0 -2.414,-1.113 -2.414,-1.742 v -12.324 c 0.113,0.109 0.113,0.148 0.223,0.297 l 9.652,14.215 c 0.223,0.261 0.262,0.297 0.41,0.297 0.332,0 0.332,-0.149 0.332,-0.629 v -13.067 c 0,-0.633 0,-1.746 2.449,-1.746 v -0.742 c -0.851,0.039 -2.004,0.074 -2.781,0.074 -0.781,0 -1.934,-0.035 -2.75,-0.074 v 0.742 c 2.414,0 2.414,1.113 2.414,1.746 v 10.133 z"
       style="fill:#000000;fill-opacity:1;fill-rule:nonzero;stroke:none;stroke-width:0.99999994"
       id="path6635-0"
       inkscape:connector-curvature="0" /></g></svg>