<?xml version="1.0" encoding="UTF-8" standalone="no"?>
<!-- Created with Inkscape (http://www.inkscape.org/) -->

<svg
   xmlns:ns0="http://www.iki.fi/pav/software/textext/"
   xmlns:dc="http://purl.org/dc/elements/1.1/"
   xmlns:cc="http://creativecommons.org/ns#"
   xmlns:rdf="http://www.w3.org/1999/02/22-rdf-syntax-ns#"
   xmlns:svg="http://www.w3.org/2000/svg"
   xmlns="http://www.w3.org/2000/svg"
   xmlns:sodipodi="http://sodipodi.sourceforge.net/DTD/sodipodi-0.dtd"
   xmlns:inkscape="http://www.inkscape.org/namespaces/inkscape"
   width="200"
   height="128"
   id="svg2"
   inkscape:label="Pozadí"
   version="1.1"
   inkscape:version="0.48.0 r9654"
   sodipodi:docname="trafo_zatizeny.svg">
  <sodipodi:namedview
     id="base"
     pagecolor="#ffffff"
     bordercolor="#666666"
     borderopacity="1.0"
     inkscape:pageopacity="0.0"
     inkscape:pageshadow="2"
     inkscape:zoom="5.6"
     inkscape:cx="111.15992"
     inkscape:cy="84.588731"
     inkscape:document-units="px"
     inkscape:current-layer="content"
     showgrid="false"
     inkscape:window-width="1920"
     inkscape:window-height="1138"
     inkscape:window-x="-8"
     inkscape:window-y="-8"
     inkscape:window-maximized="1" />
  <defs
     id="defs25846">
    <clipPath
       clipPathUnits="userSpaceOnUse"
       id="clipPath4042">
      <path
         inkscape:connector-curvature="0"
         d="m 0,0 465.43,0 0,286.08 L 0,286.08 0,0 z"
         id="path4044" />
    </clipPath>
    <clipPath
       clipPathUnits="userSpaceOnUse"
       id="clipPath4050">
      <path
         inkscape:connector-curvature="0"
         d="m 0,0.6044 466.12,0 0,285.48 -466.12,0 0,-285.48 z"
         clip-rule="evenodd"
         id="path4052" />
    </clipPath>
    <clipPath
       clipPathUnits="userSpaceOnUse"
       id="clipPath4062">
      <path
         inkscape:connector-curvature="0"
         d="m 0,0.6044 466.12,0 0,285.48 -466.12,0 0,-285.48 z"
         clip-rule="evenodd"
         id="path4064" />
    </clipPath>
    <clipPath
       clipPathUnits="userSpaceOnUse"
       id="clipPath4074">
      <path
         inkscape:connector-curvature="0"
         d="m 0,0.6044 466.12,0 0,285.48 -466.12,0 0,-285.48 z"
         clip-rule="evenodd"
         id="path4076" />
    </clipPath>
    <clipPath
       clipPathUnits="userSpaceOnUse"
       id="clipPath4086">
      <path
         inkscape:connector-curvature="0"
         d="m 0,0.6044 466.12,0 0,285.48 -466.12,0 0,-285.48 z"
         clip-rule="evenodd"
         id="path4088" />
    </clipPath>
    <clipPath
       clipPathUnits="userSpaceOnUse"
       id="clipPath4098">
      <path
         inkscape:connector-curvature="0"
         d="m 0,0.6044 466.12,0 0,285.48 -466.12,0 0,-285.48 z"
         clip-rule="evenodd"
         id="path4100" />
    </clipPath>
  </defs>
  <metadata
     id="metadata25849">
    <rdf:RDF>
      <cc:Work
         rdf:about="">
        <dc:format>image/svg+xml</dc:format>
        <dc:type
           rdf:resource="http://purl.org/dc/dcmitype/StillImage" />
        <dc:title />
      </cc:Work>
    </rdf:RDF>
  </metadata>
  <g
     inkscape:label="Vrstva 1"
     inkscape:groupmode="layer"
     id="layer1"
     transform="translate(0,-924.36218)">
    <path
       sodipodi:nodetypes="cccccccccccccccccccccccccccccccccccccccc"
       inkscape:connector-curvature="0"
       d="m 123.76423,965.23257 -15,0 c -5.30126,0.31119 -7.88876,3.73201 -8.025,8.2125 l 0,0 c 0,4.3125 3.4875,7.8125 7.8,7.8125 l 0,0 c -4.3125,0 -7.8,3.4875 -7.8,7.8 l 0,0 c 0,4.3 3.4875,7.8 7.8,7.8 l 0,0 c -4.3125,0 -7.8,3.48753 -7.8,7.80003 l 0,0 c 0,4.3125 3.4875,7.8 7.8,7.8 l 0,0 c -4.3125,0 -7.8,3.5 -7.8,7.8 l 0,0 c 0,4.3125 3.4875,7.8 7.8,7.8 l 0,0 0.225,-0.013 15,0 m -61.875004,-62.81253 15,0 c 5.469162,0.4853 8.115247,3.79621 8.25,8.2125 l 0,0 c 0,4.3125 -3.5,7.8125 -7.8125,7.8125 l 0,0 c 4.3125,0 7.8125,3.4875 7.8125,7.8 l 0,0 c 0,4.3 -3.5,7.8 -7.8125,7.8 l 0,0 c 4.3125,0 7.8125,3.48753 7.8125,7.80003 l 0,0 c 0,4.3125 -3.5,7.8 -7.8125,7.8 l 0,0 c 4.3125,0 7.8125,3.5 7.8125,7.8 l 0,0 c 0,4.3125 -3.5,7.8 -7.8125,7.8 l 0,0 -0.4375,-0.013 -15,0"
       style="fill:none;stroke:#000000;stroke-width:0.90000004;stroke-linecap:round;stroke-linejoin:round;stroke-miterlimit:10;stroke-opacity:1;stroke-dasharray:none"
       id="path3370" />
    <path
       inkscape:connector-curvature="0"
       d="m 23.764226,998.67007 c 0,-5.3125 -4.3125,-9.6125 -9.625,-9.6125 -5.3125004,0 -9.6250004,4.3 -9.6250004,9.6125 0,5.32503 4.3125,9.62503 9.6250004,9.62503 5.3125,0 9.625,-4.3 9.625,-9.62503 z"
       style="fill:#ffffff;fill-opacity:1;fill-rule:evenodd;stroke:none"
       id="path3372" />
    <path
       inkscape:connector-curvature="0"
       d="m 22.603512,998.58078 c 0,-5.3125 -4.3125,-9.6125 -9.625,-9.6125 -5.3125007,0 -9.6250007,4.3 -9.6250007,9.6125 0,5.32502 4.3125,9.62502 9.6250007,9.62502 5.3125,0 9.625,-4.3 9.625,-9.62502 z"
       style="fill:none;stroke:#000000;stroke-width:0.90000004;stroke-linecap:round;stroke-linejoin:round;stroke-miterlimit:10;stroke-opacity:1;stroke-dasharray:none"
       id="path3374" />
    <path
       inkscape:connector-curvature="0"
       d="m 61.889226,965.23257 -48.75,0"
       style="fill:none;stroke:#000000;stroke-width:0.90000004;stroke-linecap:round;stroke-linejoin:round;stroke-miterlimit:10;stroke-opacity:1;stroke-dasharray:none"
       id="path3376" />
    <path
       inkscape:connector-curvature="0"
       d="m 13.139226,988.67007 0,-23.4375"
       style="fill:none;stroke:#000000;stroke-width:0.90000004;stroke-linecap:round;stroke-linejoin:round;stroke-miterlimit:10;stroke-opacity:1;stroke-dasharray:none"
       id="path3378" />
    <path
       inkscape:connector-curvature="0"
       d="m 13.139226,1008.3576 0,19.6875"
       style="fill:none;stroke:#000000;stroke-width:0.90000004;stroke-linecap:round;stroke-linejoin:round;stroke-miterlimit:10;stroke-opacity:1;stroke-dasharray:none"
       id="path3380" />
    <path
       inkscape:connector-curvature="0"
       d="m 61.889226,1028.0451 -48.75,0"
       style="fill:none;stroke:#000000;stroke-width:0.90000004;stroke-linecap:round;stroke-linejoin:round;stroke-miterlimit:10;stroke-opacity:1;stroke-dasharray:none"
       id="path3382" />
    <path
       inkscape:connector-curvature="0"
       d="m 123.76423,965.23257 45,0"
       style="fill:none;stroke:#000000;stroke-width:0.90000004;stroke-linecap:round;stroke-linejoin:round;stroke-miterlimit:10;stroke-opacity:1;stroke-dasharray:none"
       id="path3384" />
    <path
       inkscape:connector-curvature="0"
       d="m 123.76423,1028.0451 45,0"
       style="fill:none;stroke:#000000;stroke-width:0.90000004;stroke-linecap:round;stroke-linejoin:round;stroke-miterlimit:10;stroke-opacity:1;stroke-dasharray:none"
       id="path3386" />
    <path
       inkscape:connector-curvature="0"
       d="m 173.65173,965.64507 c 0,-1.4375 -1.1625,-2.6 -2.6,-2.6 -1.4375,0 -2.6,1.1625 -2.6,2.6 0,1.4375 1.1625,2.6 2.6,2.6 1.4375,0 2.6,-1.1625 2.6,-2.6 z"
       style="fill:#ffffff;fill-opacity:1;fill-rule:evenodd;stroke:none"
       id="path3388" />
    <path
       inkscape:connector-curvature="0"
       d="m 174.07673,1028.1451 c 0,-1.575 -1.2875,-2.8625 -2.8625,-2.8625 -1.575,0 -2.8625,1.2875 -2.8625,2.8625 0,1.5875 1.2875,2.8625 2.8625,2.8625 1.575,0 2.8625,-1.275 2.8625,-2.8625 z"
       style="fill:#ffffff;fill-opacity:1;fill-rule:evenodd;stroke:none"
       id="path3392" />
    <path
       inkscape:connector-curvature="0"
       d="m 30.526726,965.64507 c 0,-1.4375 -1.175,-2.6 -2.6,-2.6 -1.4375,0 -2.6,1.1625 -2.6,2.6 0,1.4375 1.1625,2.6 2.6,2.6 1.425,0 2.6,-1.1625 2.6,-2.6 z"
       style="fill:#ffffff;fill-opacity:1;fill-rule:evenodd;stroke:none"
       id="path3396" />
    <path
       inkscape:connector-curvature="0"
       d="m 30.526726,965.64507 c 0,-1.4375 -1.175,-2.6 -2.6,-2.6 -1.4375,0 -2.6,1.1625 -2.6,2.6 0,1.4375 1.1625,2.6 2.6,2.6 1.425,0 2.6,-1.1625 2.6,-2.6 z"
       style="fill:none;stroke:#000000;stroke-width:0.90000004;stroke-linecap:round;stroke-linejoin:round;stroke-miterlimit:10;stroke-opacity:1;stroke-dasharray:none"
       id="path3398" />
    <path
       inkscape:connector-curvature="0"
       d="m 30.526726,1028.0576 c 0,-1.4375 -1.175,-2.6 -2.6,-2.6 -1.4375,0 -2.6,1.1625 -2.6,2.6 0,1.4375 1.1625,2.6 2.6,2.6 1.425,0 2.6,-1.1625 2.6,-2.6 z"
       style="fill:#ffffff;fill-opacity:1;fill-rule:evenodd;stroke:none"
       id="path3400" />
    <path
       inkscape:connector-curvature="0"
       d="m 30.526726,1028.0576 c 0,-1.4375 -1.175,-2.6 -2.6,-2.6 -1.4375,0 -2.6,1.1625 -2.6,2.6 0,1.4375 1.1625,2.6 2.6,2.6 1.425,0 2.6,-1.1625 2.6,-2.6 z"
       style="fill:none;stroke:#000000;stroke-width:0.90000004;stroke-linecap:round;stroke-linejoin:round;stroke-miterlimit:10;stroke-opacity:1;stroke-dasharray:none"
       id="path3402" />
    <text
       style="font-size:15px"
       y="1045.87"
       x="56.601723"
       id="text3404">
      <tspan
         style="font-size:15.00030041px;font-variant:normal;font-weight:normal;writing-mode:lr-tb;fill:#000000;fill-opacity:1;fill-rule:nonzero;stroke:none;font-family:ARIAL;-inkscape-font-specification:ARIAL"
         x="56.601723"
         y="1045.87"
         id="tspan3406">L</tspan>
    </text>
    <text
       style="font-size:15px"
       y="1047.9451"
       x="64.951729"
       id="text3408">
      <tspan
         style="font-size:9.74790001px;font-variant:normal;font-weight:normal;writing-mode:lr-tb;fill:#000000;fill-opacity:1;fill-rule:nonzero;stroke:none;font-family:ARIAL;-inkscape-font-specification:ARIAL"
         x="64.951729"
         y="1047.9451"
         id="tspan3410">1</tspan>
    </text>
    <text
       style="font-size:15px"
       y="1045.87"
       x="70.36422"
       id="text3412">
      <tspan
         style="font-size:15.00030041px;font-variant:normal;font-weight:normal;writing-mode:lr-tb;fill:#000000;fill-opacity:1;fill-rule:nonzero;stroke:none;font-family:ARIAL;-inkscape-font-specification:ARIAL"
         x="70.36422"
         y="1045.87"
         id="tspan3414">,</tspan>
    </text>
    <text
       style="font-size:15px"
       y="1045.87"
       x="74.539223"
       id="text3416">
      <tspan
         style="font-size:15.00030041px;font-variant:normal;font-weight:normal;writing-mode:lr-tb;fill:#000000;fill-opacity:1;fill-rule:nonzero;stroke:none;font-family:ARIAL;-inkscape-font-specification:ARIAL"
         x="74.539223"
         y="1045.87"
         id="tspan3418">N</tspan>
    </text>
    <text
       style="font-size:15px"
       y="1047.9451"
       x="85.36422"
       id="text3420">
      <tspan
         style="font-size:9.74790001px;font-variant:normal;font-weight:normal;writing-mode:lr-tb;fill:#000000;fill-opacity:1;fill-rule:nonzero;stroke:none;font-family:ARIAL;-inkscape-font-specification:ARIAL"
         x="85.36422"
         y="1047.9451"
         id="tspan3422">1</tspan>
    </text>
    <text
       style="font-size:15px"
       y="1045.87"
       x="100.81422"
       id="text3424">
      <tspan
         style="font-size:15.00030041px;font-variant:normal;font-weight:normal;writing-mode:lr-tb;fill:#000000;fill-opacity:1;fill-rule:nonzero;stroke:none;font-family:ARIAL;-inkscape-font-specification:ARIAL"
         x="100.81422"
         y="1045.87"
         id="tspan3426">L</tspan>
    </text>
    <text
       style="font-size:15px"
       y="1047.9451"
       x="109.15173"
       id="text3428">
      <tspan
         style="font-size:9.74790001px;font-variant:normal;font-weight:normal;writing-mode:lr-tb;fill:#000000;fill-opacity:1;fill-rule:nonzero;stroke:none;font-family:ARIAL;-inkscape-font-specification:ARIAL"
         x="109.15173"
         y="1047.9451"
         id="tspan3430">2</tspan>
    </text>
    <text
       style="font-size:15px"
       y="1045.87"
       x="114.57671"
       id="text3432">
      <tspan
         style="font-size:15.00030041px;font-variant:normal;font-weight:normal;writing-mode:lr-tb;fill:#000000;fill-opacity:1;fill-rule:nonzero;stroke:none;font-family:ARIAL;-inkscape-font-specification:ARIAL"
         x="114.57671"
         y="1045.87"
         id="tspan3434">,</tspan>
    </text>
    <text
       style="font-size:15px"
       y="1045.87"
       x="118.73922"
       id="text3436">
      <tspan
         style="font-size:15.00030041px;font-variant:normal;font-weight:normal;writing-mode:lr-tb;fill:#000000;fill-opacity:1;fill-rule:nonzero;stroke:none;font-family:ARIAL;-inkscape-font-specification:ARIAL"
         x="118.73922"
         y="1045.87"
         id="tspan3438">N</tspan>
    </text>
    <text
       style="font-size:15px"
       y="1047.9451"
       x="129.57671"
       id="text3440">
      <tspan
         style="font-size:9.74790001px;font-variant:normal;font-weight:normal;writing-mode:lr-tb;fill:#000000;fill-opacity:1;fill-rule:nonzero;stroke:none;font-family:ARIAL;-inkscape-font-specification:ARIAL"
         x="129.57671"
         y="1047.9451"
         id="tspan3442">2</tspan>
    </text>
    <path
       inkscape:connector-curvature="0"
       d="m 180.23745,972.06293 0,41.24997"
       style="fill:none;stroke:#285ea6;stroke-width:0.90000004;stroke-linecap:round;stroke-linejoin:round;stroke-miterlimit:10;stroke-opacity:1;stroke-dasharray:none"
       id="path3444" />
    <path
       inkscape:connector-curvature="0"
       d="m 183.04995,1012.2861 -2.8125,8.4375 -2.8125,-8.4375 5.625,0 z"
       style="fill:#285ea6;fill-opacity:1;fill-rule:evenodd;stroke:none"
       id="path3446" />
    <path
       inkscape:connector-curvature="0"
       d="m 22.608011,956.79507 47.318823,0"
       style="fill:none;stroke:#688037;stroke-width:1.50708449;stroke-linecap:round;stroke-linejoin:round;stroke-miterlimit:10;stroke-opacity:1;stroke-dasharray:none"
       id="path3448" />
    <path
       inkscape:connector-curvature="0"
       d="m 28.139226,971.79507 0,41.25003"
       style="fill:none;stroke:#285ea6;stroke-width:0.90000004;stroke-linecap:round;stroke-linejoin:round;stroke-miterlimit:10;stroke-opacity:1;stroke-dasharray:none"
       id="path3452" />
    <path
       inkscape:connector-curvature="0"
       d="m 30.951726,1012.1076 -2.8125,8.4375 -2.8125,-8.4375 5.625,0 z"
       style="fill:#285ea6;fill-opacity:1;fill-rule:evenodd;stroke:none"
       id="path3454" />
    <text
       style="font-size:15px"
       y="1010.5076"
       x="31.689215"
       id="text3456">
      <tspan
         style="font-size:15.00030041px;font-variant:normal;font-weight:normal;writing-mode:lr-tb;fill:#000000;fill-opacity:1;fill-rule:nonzero;stroke:none;font-family:ARIAL;-inkscape-font-specification:ARIAL"
         x="31.689215"
         y="1010.5076"
         id="tspan3458">u</tspan>
    </text>
    <text
       style="font-size:15px"
       y="1012.5826"
       x="40.039223"
       id="text3460">
      <tspan
         style="font-size:9.74790001px;font-variant:normal;font-weight:normal;writing-mode:lr-tb;fill:#000000;fill-opacity:1;fill-rule:nonzero;stroke:none;font-family:ARIAL;-inkscape-font-specification:ARIAL"
         x="40.039223"
         y="1012.5826"
         id="tspan3462">1</tspan>
    </text>
    <text
       style="font-size:15px"
       y="1010.7861"
       x="182.0535"
       id="text3464">
      <tspan
         style="font-size:15.00030041px;font-variant:normal;font-weight:normal;writing-mode:lr-tb;fill:#000000;fill-opacity:1;fill-rule:nonzero;stroke:none;font-family:ARIAL;-inkscape-font-specification:ARIAL"
         x="182.0535"
         y="1010.7861"
         id="tspan3466">u</tspan>
    </text>
    <text
       style="font-size:15px"
       y="1013.7415"
       x="190.04636"
       id="text3468">
      <tspan
         style="font-size:9.74790001px;font-variant:normal;font-weight:normal;writing-mode:lr-tb;fill:#000000;fill-opacity:1;fill-rule:nonzero;stroke:none;font-family:ARIAL;-inkscape-font-specification:ARIAL"
         x="190.04636"
         y="1013.7415"
         id="tspan3470">2</tspan>
    </text>
    <g
       ns0:preamble=""
       ns0:text="$i_1=i_{\\mu}$\n"
       word-spacing="normal"
       letter-spacing="normal"
       font-size-adjust="none"
       font-stretch="normal"
       font-weight="normal"
       font-variant="normal"
       font-style="normal"
       stroke-miterlimit="10.433"
       xml:space="preserve"
       transform="matrix(1.7017973,0,0,-1.7017973,-358.072,2151.2272)"
       id="g26307"
       style="font-style:normal;font-variant:normal;font-weight:normal;font-stretch:normal;letter-spacing:normal;word-spacing:normal;text-anchor:start;fill:none;stroke:#000000;stroke-linecap:butt;stroke-linejoin:miter;stroke-miterlimit:10.43299961;stroke-opacity:1;stroke-dasharray:none;stroke-dashoffset:0">








<g
   style="font-style:normal;font-variant:normal;font-weight:normal;font-stretch:normal;letter-spacing:normal;word-spacing:normal;text-anchor:start;fill:none;stroke:#000000;stroke-linecap:butt;stroke-linejoin:miter;stroke-miterlimit:10.43299961;stroke-opacity:1;stroke-dasharray:none;stroke-dashoffset:0"
   id="content"
   transform="matrix(0.85906967,0,0,0.85906967,26.92733,99.424975)"
   xml:space="preserve"
   stroke-miterlimit="10.433"
   font-style="normal"
   font-variant="normal"
   font-weight="normal"
   font-stretch="normal"
   font-size-adjust="none"
   letter-spacing="normal"
   word-spacing="normal"
   ns0:text="$i_1=i_{\\mu}+i\'$\n"
   ns0:preamble="">
<path
   style="fill:#000000;stroke-width:0"
   inkscape:connector-curvature="0"
   d="m 226.26,713.34 0,0.02 0,0.02 0,0.02 0,0.02 -0.01,0.01 0,0.02 -0.01,0.02 0,0.02 -0.01,0.01 -0.01,0.02 0,0.01 -0.01,0.02 -0.01,0.01 -0.01,0.01 -0.01,0.02 -0.02,0.01 -0.01,0.01 -0.01,0.01 -0.01,0.01 -0.02,0.01 -0.01,0.01 -0.02,0.01 -0.02,0.01 -0.01,0.01 -0.02,0 -0.02,0.01 -0.02,0 -0.01,0.01 -0.02,0 -0.02,0 -0.02,0 -0.03,0 c -0.26,0 -0.53,-0.25 -0.53,-0.52 0,-0.19 0.13,-0.36 0.38,-0.36 0.22,0 0.52,0.23 0.52,0.52 z"
   id="path26535" />
<path
   style="fill:#000000;stroke-width:0"
   inkscape:connector-curvature="0"
   d="m 225.51,709.6 0.01,0.03 0.01,0.02 0.01,0.03 0,0.02 0.01,0.02 0.01,0.02 0.01,0.02 0.01,0.02 0,0.01 0.01,0.02 0.01,0.02 0,0.01 0.01,0.02 0,0.01 0.01,0.03 0.01,0.03 0.01,0.03 0.01,0.01 0,0.02 0.01,0.01 0.01,0.02 0,0.01 0.01,0.02 0,0.02 0.01,0.02 0.01,0.02 0.01,0.02 0.01,0.03 0.01,0.02 c 0.07,0.2 0.12,0.34 0.12,0.53 0,0.45 -0.31,0.81 -0.81,0.81 -0.94,0 -1.32,-1.44 -1.32,-1.53 0,-0.1 0.1,-0.1 0.12,-0.1 0.1,0 0.11,0.02 0.16,0.18 0.27,0.94 0.67,1.23 1.01,1.23 0.08,0 0.25,0 0.25,-0.31 0,-0.21 -0.07,-0.42 -0.11,-0.52 -0.08,-0.26 -0.53,-1.41 -0.69,-1.84 -0.1,-0.26 -0.23,-0.59 -0.23,-0.8 0,-0.47 0.34,-0.81 0.82,-0.81 0.93,0 1.3,1.44 1.3,1.53 0,0.1 -0.09,0.1 -0.12,0.1 -0.1,0 -0.1,-0.03 -0.15,-0.18 -0.18,-0.63 -0.51,-1.24 -1.01,-1.24 -0.17,0 -0.24,0.1 -0.24,0.33 0,0.25 0.06,0.39 0.29,1 z"
   id="path26537" />
<path
   style="fill:#000000;stroke-width:0"
   inkscape:connector-curvature="0"
   d="m 229.2,710.05 0,0.01 0,0.01 0,0.01 0,0.01 0,0 0,0.01 0,0.01 0,0.01 0,0 0,0.01 -0.01,0 0,0.01 0,0.01 0,0 0,0.01 0,0 0,0.01 0,0 0,0.01 0,0.01 -0.01,0.01 0,0 -0.01,0.01 0,0.01 0,0 -0.01,0.01 -0.01,0 0,0 -0.01,0.01 -0.01,0 -0.01,0 -0.01,0 0,0 -0.01,0 0,0 -0.01,0.01 0,0 -0.01,0 -0.01,0 0,0 -0.01,0 -0.01,0 0,0 -0.01,0 -0.01,0 -0.01,0 -0.01,0 0,0 -0.01,0 -0.01,0 c -0.45,-0.44 -1.08,-0.45 -1.37,-0.45 v -0.25 c 0.17,0 0.63,0 1.01,0.2 v -3.55 c 0,-0.23 0,-0.32 -0.69,-0.32 h -0.27 v -0.25 c 0.13,0.01 0.98,0.03 1.24,0.03 0.22,0 1.1,-0.02 1.25,-0.03 v 0.25 h -0.27 c -0.69,0 -0.69,0.09 -0.69,0.32 z"
   id="path26539" />
<path
   style="fill:#000000;stroke-width:0"
   inkscape:connector-curvature="0"
   d="m 240.95,710.38 0.03,0 0.03,0 0.03,0 0.01,0 0.02,0 0.01,0 0.01,0.01 0.02,0 0.01,0 0.02,0 0.01,0.01 0.01,0 0.01,0 0.02,0.01 0.01,0 0.01,0.01 0.01,0.01 0.01,0.01 0.01,0 0.01,0.01 0.01,0.01 0,0.01 0,0 0.01,0.01 0,0.01 0,0 0.01,0.01 0,0.01 0,0 0,0.01 0,0.01 0,0 0.01,0.01 0,0.01 0,0.01 0,0.01 0,0.01 c 0,0.2 -0.19,0.2 -0.33,0.2 h -5.97 c -0.14,0 -0.33,0 -0.33,-0.2 0,-0.2 0.19,-0.2 0.34,-0.2 z"
   id="path26541" />
<path
   style="fill:#000000;stroke-width:0"
   inkscape:connector-curvature="0"
   d="m 240.96,708.45 0.03,0 0.02,0 0.03,0 0.02,0 0.01,0 0.01,0 0.02,0.01 0.01,0 0.01,0 0.02,0 0.01,0.01 0.01,0 0.02,0 0.01,0.01 0.01,0 0.01,0.01 0.01,0.01 0.01,0.01 0.01,0 0.01,0.01 0,0.01 0.01,0 0,0.01 0,0 0.01,0.01 0,0.01 0,0 0.01,0.01 0,0.01 0,0 0,0.01 0,0.01 0,0 0.01,0.01 0,0.01 0,0.01 0,0.01 0,0.01 c 0,0.2 -0.19,0.2 -0.34,0.2 H 235 c -0.15,0 -0.34,0 -0.34,-0.2 0,-0.2 0.19,-0.2 0.33,-0.2 z"
   id="path26543" />
<path
   style="fill:#000000;stroke-width:0"
   inkscape:connector-curvature="0"
   d="m 247.45,713.34 0,0.02 0,0.02 -0.01,0.02 0,0.02 0,0.01 -0.01,0.02 0,0.02 -0.01,0.02 0,0.01 -0.01,0.02 -0.01,0.01 -0.01,0.02 -0.01,0.01 -0.01,0.01 -0.01,0.02 -0.01,0.01 -0.01,0.01 -0.02,0.01 -0.01,0.01 -0.01,0.01 -0.02,0.01 -0.01,0.01 -0.02,0.01 -0.02,0.01 -0.01,0 -0.02,0.01 -0.02,0 -0.02,0.01 -0.02,0 -0.02,0 -0.02,0 -0.02,0 c -0.27,0 -0.54,-0.25 -0.54,-0.52 0,-0.19 0.14,-0.36 0.38,-0.36 0.23,0 0.53,0.23 0.53,0.52 z"
   id="path26545" />
<path
   style="fill:#000000;stroke-width:0"
   inkscape:connector-curvature="0"
   d="m 246.69,709.6 0.01,0.03 0.01,0.02 0.01,0.03 0.01,0.02 0.01,0.02 0.01,0.02 0,0.02 0.01,0.02 0.01,0.01 0,0.02 0.01,0.02 0.01,0.01 0,0.02 0.01,0.01 0.01,0.03 0.01,0.03 0.01,0.03 0,0.01 0.01,0.02 0,0.01 0.01,0.02 0.01,0.01 0,0.02 0.01,0.02 0.01,0.02 0,0.02 0.01,0.02 0.01,0.03 0.01,0.02 c 0.08,0.2 0.13,0.34 0.13,0.53 0,0.45 -0.32,0.81 -0.82,0.81 -0.93,0 -1.31,-1.44 -1.31,-1.53 0,-0.1 0.1,-0.1 0.12,-0.1 0.1,0 0.1,0.02 0.15,0.18 0.27,0.94 0.67,1.23 1.01,1.23 0.08,0 0.25,0 0.25,-0.31 0,-0.21 -0.07,-0.42 -0.11,-0.52 -0.08,-0.26 -0.53,-1.41 -0.69,-1.84 -0.1,-0.26 -0.23,-0.59 -0.23,-0.8 0,-0.47 0.34,-0.81 0.82,-0.81 0.94,0 1.31,1.44 1.31,1.53 0,0.1 -0.09,0.1 -0.12,0.1 -0.1,0 -0.1,-0.03 -0.15,-0.18 -0.18,-0.63 -0.51,-1.24 -1.02,-1.24 -0.17,0 -0.24,0.1 -0.24,0.33 0,0.25 0.06,0.39 0.29,1 z"
   id="path26547" />
<path
   style="fill:#000000;stroke-width:0"
   inkscape:connector-curvature="0"
   d="m 248.43,704.51 -0.01,-0.01 0,-0.01 0,-0.01 0,0 -0.01,-0.01 0,-0.01 0,-0.01 0,0 0,-0.01 0,-0.01 -0.01,0 0,-0.01 0,0 0,-0.01 0,0 0,-0.01 0,0 0,-0.01 0,0 0,0 0,-0.01 0,0 0,0 0,0 0,-0.01 0,0 0,0 0,0 0,0 0,0 0,0 0,-0.01 c 0,-0.15 0.12,-0.22 0.23,-0.22 0.25,0 0.31,0.23 0.34,0.35 0.01,0.04 0.15,0.59 0.32,1.27 0.22,-0.14 0.49,-0.2 0.74,-0.2 0.6,0 0.99,0.49 1.01,0.5 0.13,-0.48 0.61,-0.5 0.71,-0.5 0.26,0 0.43,0.15 0.55,0.37 0.16,0.27 0.25,0.67 0.25,0.7 0,0.09 -0.09,0.09 -0.11,0.09 -0.1,0 -0.11,-0.03 -0.16,-0.22 -0.08,-0.33 -0.21,-0.74 -0.51,-0.74 -0.18,0 -0.23,0.15 -0.23,0.34 0,0.12 0.06,0.37 0.11,0.55 0.05,0.18 0.12,0.47 0.15,0.62 l 0.16,0.62 c 0.05,0.18 0.12,0.48 0.12,0.52 0,0.13 -0.11,0.22 -0.23,0.22 -0.08,0 -0.21,-0.04 -0.28,-0.17 -0.03,-0.04 -0.08,-0.26 -0.11,-0.4 l -0.15,-0.58 -0.22,-0.87 c -0.05,-0.17 -0.05,-0.19 -0.11,-0.28 -0.22,-0.3 -0.52,-0.57 -0.92,-0.57 -0.57,0 -0.57,0.49 -0.57,0.62 0,0.18 0.02,0.27 0.12,0.64 0.07,0.31 0.08,0.36 0.15,0.63 l 0.1,0.39 c 0.04,0.14 0.1,0.41 0.1,0.43 0,0.13 -0.09,0.23 -0.23,0.23 -0.25,0 -0.32,-0.25 -0.34,-0.33 z"
   id="path26549" />
<path
   style="fill:#000000;stroke-width:0"
   inkscape:connector-curvature="0"
   d="m 259.68,709.41 h 2.78 c 0.14,0 0.33,0 0.33,0.2 0,0.2 -0.19,0.2 -0.33,0.2 h -2.78 v 2.79 c 0,0.14 0,0.33 -0.2,0.33 -0.2,0 -0.2,-0.19 -0.2,-0.33 v -2.79 h -2.79 c -0.14,0 -0.33,0 -0.33,-0.2 0,-0.2 0.19,-0.2 0.33,-0.2 h 2.79 v -2.78 c 0,-0.14 0,-0.33 0.2,-0.33 0.2,0 0.2,0.19 0.2,0.33 z"
   id="path26551" />
<path
   style="fill:#000000;stroke-width:0"
   inkscape:connector-curvature="0"
   d="m 268.4,713.34 0,0.02 0,0.02 0,0.02 -0.01,0.02 0,0.01 -0.01,0.02 0,0.02 -0.01,0.02 0,0.01 -0.01,0.02 -0.01,0.01 -0.01,0.02 -0.01,0.01 -0.01,0.01 -0.01,0.02 -0.01,0.01 -0.01,0.01 -0.01,0.01 -0.02,0.01 -0.01,0.01 -0.02,0.01 -0.01,0.01 -0.02,0.01 -0.02,0.01 -0.01,0 -0.02,0.01 -0.02,0 -0.02,0.01 -0.02,0 -0.02,0 -0.02,0 -0.02,0 c -0.27,0 -0.54,-0.25 -0.54,-0.52 0,-0.19 0.14,-0.36 0.38,-0.36 0.23,0 0.53,0.23 0.53,0.52 z"
   id="path26553" />
<path
   style="fill:#000000;stroke-width:0"
   inkscape:connector-curvature="0"
   d="m 267.64,709.6 0.01,0.03 0.01,0.02 0.01,0.03 0.01,0.02 0.01,0.02 0.01,0.02 0,0.02 0.01,0.02 0.01,0.01 0.01,0.02 0,0.02 0.01,0.01 0,0.02 0.01,0.01 0.01,0.03 0.01,0.03 0.01,0.03 0,0.01 0.01,0.02 0.01,0.01 0,0.02 0.01,0.01 0,0.02 0.01,0.02 0.01,0.02 0.01,0.02 0,0.02 0.01,0.03 0.01,0.02 c 0.08,0.2 0.13,0.34 0.13,0.53 0,0.45 -0.32,0.81 -0.82,0.81 -0.93,0 -1.31,-1.44 -1.31,-1.53 0,-0.1 0.1,-0.1 0.12,-0.1 0.1,0 0.11,0.02 0.16,0.18 0.26,0.94 0.66,1.23 1,1.23 0.08,0 0.25,0 0.25,-0.31 0,-0.21 -0.07,-0.42 -0.11,-0.52 -0.08,-0.26 -0.53,-1.41 -0.68,-1.84 -0.11,-0.26 -0.23,-0.59 -0.23,-0.8 0,-0.47 0.33,-0.81 0.81,-0.81 0.94,0 1.31,1.44 1.31,1.53 0,0.1 -0.09,0.1 -0.12,0.1 -0.1,0 -0.1,-0.03 -0.15,-0.18 -0.18,-0.63 -0.51,-1.24 -1.02,-1.24 -0.17,0 -0.24,0.1 -0.24,0.33 0,0.25 0.06,0.39 0.29,1 z"
   id="path26555" />
<path
   style="fill:#000000;stroke-width:0"
   inkscape:connector-curvature="0"
   d="m 271.02,714.02 0.01,0.01 0,0.01 0,0.01 0.01,0.01 0,0.01 0.01,0.01 0,0.01 0,0.01 0.01,0.01 0,0.01 0,0 0,0.01 0.01,0.01 0,0.01 0,0 0,0.01 0,0.01 0,0 0.01,0.01 0,0 0,0.01 0,0.01 0,0 0,0.01 0,0.01 0,0.01 0,0.01 0,0 c 0,0.22 -0.19,0.39 -0.41,0.39 -0.26,0 -0.35,-0.22 -0.38,-0.33 l -0.92,-3.01 c -0.01,-0.01 -0.04,-0.11 -0.04,-0.11 0,-0.09 0.22,-0.15 0.28,-0.15 0.04,0 0.05,0.01 0.1,0.11 z"
   id="path26557" />
<path
   style="font-style:normal;font-variant:normal;font-weight:normal;font-stretch:normal;letter-spacing:normal;word-spacing:normal;text-anchor:start;fill:#000000;stroke:#000000;stroke-width:0;stroke-linecap:butt;stroke-linejoin:miter;stroke-miterlimit:10.43299961;stroke-opacity:1;stroke-dasharray:none;stroke-dashoffset:0"
   inkscape:connector-curvature="0"
   d="m 270.93254,710.07689 0,0.01 0,0.01 0,0.01 0,0.01 0,0 0,0.01 0,0.01 0,0.01 0,0 0,0.01 -0.01,0 0,0.01 0,0.01 0,0 0,0.01 0,0 0,0.01 0,0 0,0.01 0,0.01 -0.01,0.01 0,0 -0.01,0.01 0,0.01 0,0 -0.01,0.01 -0.01,0 0,0 -0.01,0.01 -0.01,0 -0.01,0 -0.01,0 0,0 -0.01,0 0,0 -0.01,0.01 0,0 -0.01,0 -0.01,0 0,0 -0.01,0 -0.01,0 0,0 -0.01,0 -0.01,0 -0.01,0 -0.01,0 0,0 -0.01,0 -0.01,0 c -0.45,-0.44 -1.08,-0.45 -1.37,-0.45 v -0.25 c 0.17,0 0.63,0 1.01,0.2 v -3.55 c 0,-0.23 0,-0.32 -0.69,-0.32 h -0.27 v -0.25 c 0.13,0.01 0.98,0.03 1.24,0.03 0.22,0 1.1,-0.02 1.25,-0.03 v 0.25 h -0.27 c -0.69,0 -0.69,0.09 -0.69,0.32 z"
   id="path26539-5" /></g>
<g
   ns0:preamble=""
   ns0:text="$i_2$\n"
   word-spacing="normal"
   letter-spacing="normal"
   font-size-adjust="none"
   font-stretch="normal"
   font-weight="normal"
   font-variant="normal"
   font-style="normal"
   stroke-miterlimit="10.433"
   xml:space="preserve"
   transform="matrix(0.79732504,0,0,0.87319128,107.93283,89.301047)"
   id="g26735"
   style="font-style:normal;font-variant:normal;font-weight:normal;font-stretch:normal;letter-spacing:normal;word-spacing:normal;text-anchor:start;fill:none;stroke:#000000;stroke-linecap:butt;stroke-linejoin:miter;stroke-miterlimit:10.43299961;stroke-opacity:1;stroke-dasharray:none;stroke-dashoffset:0">
<path
   id="path26737"
   d="m 226.26,713.34 0,0.02 0,0.02 0,0.02 0,0.02 -0.01,0.01 0,0.02 -0.01,0.02 0,0.02 -0.01,0.01 -0.01,0.02 0,0.01 -0.01,0.02 -0.01,0.01 -0.01,0.01 -0.01,0.02 -0.02,0.01 -0.01,0.01 -0.01,0.01 -0.01,0.01 -0.02,0.01 -0.01,0.01 -0.02,0.01 -0.02,0.01 -0.01,0.01 -0.02,0 -0.02,0.01 -0.02,0 -0.01,0.01 -0.02,0 -0.02,0 -0.02,0 -0.03,0 c -0.26,0 -0.53,-0.25 -0.53,-0.52 0,-0.19 0.13,-0.36 0.38,-0.36 0.22,0 0.52,0.23 0.52,0.52 z"
   inkscape:connector-curvature="0"
   style="fill:#000000;stroke-width:0" />
<path
   id="path26739"
   d="m 225.51,709.6 0.01,0.03 0.01,0.02 0.01,0.03 0,0.02 0.01,0.02 0.01,0.02 0.01,0.02 0.01,0.02 0,0.01 0.01,0.02 0.01,0.02 0,0.01 0.01,0.02 0,0.01 0.01,0.03 0.01,0.03 0.01,0.03 0.01,0.01 0,0.02 0.01,0.01 0.01,0.02 0,0.01 0.01,0.02 0,0.02 0.01,0.02 0.01,0.02 0.01,0.02 0.01,0.03 0.01,0.02 c 0.07,0.2 0.12,0.34 0.12,0.53 0,0.45 -0.31,0.81 -0.81,0.81 -0.94,0 -1.32,-1.44 -1.32,-1.53 0,-0.1 0.1,-0.1 0.12,-0.1 0.1,0 0.11,0.02 0.16,0.18 0.27,0.94 0.67,1.23 1.01,1.23 0.08,0 0.25,0 0.25,-0.31 0,-0.21 -0.07,-0.42 -0.11,-0.52 -0.08,-0.26 -0.53,-1.41 -0.69,-1.84 -0.1,-0.26 -0.23,-0.59 -0.23,-0.8 0,-0.47 0.34,-0.81 0.82,-0.81 0.93,0 1.3,1.44 1.3,1.53 0,0.1 -0.09,0.1 -0.12,0.1 -0.1,0 -0.1,-0.03 -0.15,-0.18 -0.18,-0.63 -0.51,-1.24 -1.01,-1.24 -0.17,0 -0.24,0.1 -0.24,0.33 0,0.25 0.06,0.39 0.29,1 z"
   inkscape:connector-curvature="0"
   style="fill:#000000;stroke-width:0" />
<path
   id="path26741"
   d="m 230.38,706.9 h -0.24 c -0.02,-0.16 -0.09,-0.57 -0.18,-0.64 -0.05,-0.04 -0.59,-0.04 -0.69,-0.04 h -1.28 c 0.73,0.65 0.98,0.84 1.39,1.17 0.52,0.41 1,0.84 1,1.5 0,0.84 -0.74,1.36 -1.63,1.36 -0.86,0 -1.45,-0.61 -1.45,-1.25 0,-0.35 0.3,-0.39 0.37,-0.39 0.17,0 0.37,0.12 0.37,0.37 0,0.13 -0.05,0.37 -0.41,0.37 0.22,0.49 0.69,0.65 1.02,0.65 0.69,0 1.06,-0.54 1.06,-1.11 0,-0.6 -0.44,-1.08 -0.66,-1.33 l -1.68,-1.66 c -0.07,-0.06 -0.07,-0.07 -0.07,-0.27 h 2.87 z"
   inkscape:connector-curvature="0"
   style="fill:#000000;stroke-width:0" />
</g>
<path
   inkscape:connector-curvature="0"
   d="m 282.9185,702.76639 9.91599,0"
   style="fill:none;stroke:#688037;stroke-width:0.52885264;stroke-linecap:round;stroke-linejoin:round;stroke-miterlimit:10;stroke-opacity:1;stroke-dasharray:none"
   id="path3880" /><path
   inkscape:connector-curvature="0"
   d="m 292.2836,704.41905 4.958,-1.65266 -4.958,-1.65267 0,3.30533 z"
   style="fill:#688037;fill-opacity:1;fill-rule:evenodd;stroke:none"
   id="path3882" /></g>    <path
       inkscape:connector-curvature="0"
       d="m 172.84711,964.66492 c 0,-1.4375 -1.175,-2.6 -2.6,-2.6 -1.4375,0 -2.6,1.1625 -2.6,2.6 0,1.4375 1.1625,2.6 2.6,2.6 1.425,0 2.6,-1.1625 2.6,-2.6 z"
       style="fill:#ffffff;fill-opacity:1;fill-rule:evenodd;stroke:none"
       id="path3786" />
    <path
       inkscape:connector-curvature="0"
       d="m 172.75782,964.97742 c 0,-1.4375 -1.175,-2.6 -2.6,-2.6 -1.4375,0 -2.6,1.1625 -2.6,2.6 0,1.4375 1.1625,2.6 2.6,2.6 1.425,0 2.6,-1.1625 2.6,-2.6 z"
       style="fill:none;stroke:#000000;stroke-width:0.90000004;stroke-linecap:round;stroke-linejoin:round;stroke-miterlimit:10;stroke-opacity:1;stroke-dasharray:none"
       id="path3788" />
    <path
       inkscape:connector-curvature="0"
       d="m 172.94711,1026.8524 c 0,-1.575 -1.275,-2.8625 -2.85,-2.8625 -1.5875,0 -2.8625,1.2875 -2.8625,2.8625 0,1.5875 1.275,2.8625 2.8625,2.8625 1.575,0 2.85,-1.275 2.85,-2.8625 z"
       style="fill:#ffffff;fill-opacity:1;fill-rule:evenodd;stroke:none"
       id="path3790" />
    <path
       inkscape:connector-curvature="0"
       d="m 173.08104,1027.656 c 0,-1.575 -1.275,-2.8625 -2.85,-2.8625 -1.5875,0 -2.8625,1.2875 -2.8625,2.8625 0,1.5875 1.275,2.8625 2.8625,2.8625 1.575,0 2.85,-1.275 2.85,-2.8625 z"
       style="fill:none;stroke:#000000;stroke-width:0.90000004;stroke-linecap:round;stroke-linejoin:round;stroke-miterlimit:10;stroke-opacity:1;stroke-dasharray:none"
       id="path3792" />
    <path
       inkscape:connector-curvature="0"
       d="m 170.14711,967.643 0,57.0103"
       style="fill:none;stroke:#000000;stroke-width:0.89860445;stroke-linecap:round;stroke-linejoin:round;stroke-miterlimit:10;stroke-opacity:1;stroke-dasharray:none"
       id="path3870" />
    <path
       inkscape:connector-curvature="0"
       d="m 165.45961,1010.0149 9.375,0 0,-28.12498 -9.375,0 0,28.12498 z"
       style="fill:#ffffff;fill-opacity:1;fill-rule:evenodd;stroke:none"
       id="path3872" />
    <path
       inkscape:connector-curvature="0"
       d="m 165.45961,1010.0149 9.375,0 0,-28.12498 -9.375,0 0,28.12498 z"
       style="fill:none;stroke:#000000;stroke-width:0.90000004;stroke-linecap:round;stroke-linejoin:round;stroke-miterlimit:10;stroke-opacity:1;stroke-dasharray:none"
       id="path3874" />
    <text
       style="font-size:15px"
       y="1000.9312"
       x="153.12956"
       id="text3876">
      <tspan
         style="font-size:15.00030041px;font-variant:normal;font-weight:normal;writing-mode:lr-tb;fill:#000000;fill-opacity:1;fill-rule:nonzero;stroke:none;font-family:ARIAL;-inkscape-font-specification:ARIAL"
         x="153.12956"
         y="1000.9312"
         id="tspan3878">Z</tspan>
    </text>
    <path
       inkscape:connector-curvature="0"
       d="m 69.901188,954.01136 8.437511,2.81249 -8.437511,2.81251 0,-5.625 z"
       style="font-style:normal;font-variant:normal;font-weight:normal;font-stretch:normal;letter-spacing:normal;word-spacing:normal;text-anchor:start;fill:#688037;fill-opacity:1;fill-rule:evenodd;stroke:none"
       id="path3882-2" />
    <text
       xml:space="preserve"
       style="font-size:10.44227028px;font-style:oblique;font-weight:normal;line-height:125%;letter-spacing:0px;word-spacing:0px;fill:#000000;fill-opacity:1;stroke:none;font-family:Times New Roman;-inkscape-font-specification:Times New Roman"
       x="24.661203"
       y="950.57648"
       id="text4259"
       sodipodi:linespacing="125%"><tspan
         sodipodi:role="line"
         id="tspan4261"
         x="24.661203"
         y="950.57648"
         style="font-style:oblique;font-family:Times New Roman;-inkscape-font-specification:Times New Roman" /></text>
  </g>
</svg>
