<?xml version="1.0" encoding="UTF-8" standalone="no"?>
<!-- Created with Inkscape (http://www.inkscape.org/) -->

<svg
   xmlns:ns0="http://www.iki.fi/pav/software/textext/"
   xmlns:dc="http://purl.org/dc/elements/1.1/"
   xmlns:cc="http://creativecommons.org/ns#"
   xmlns:rdf="http://www.w3.org/1999/02/22-rdf-syntax-ns#"
   xmlns:svg="http://www.w3.org/2000/svg"
   xmlns="http://www.w3.org/2000/svg"
   xmlns:sodipodi="http://sodipodi.sourceforge.net/DTD/sodipodi-0.dtd"
   xmlns:inkscape="http://www.inkscape.org/namespaces/inkscape"
   id="svg2984"
   version="1.1"
   inkscape:version="0.48.1 "
   width="235"
   height="230"
   xml:space="preserve"
   sodipodi:docname="voltage_divider.svg"><sodipodi:namedview
     pagecolor="#ffffff"
     bordercolor="#666666"
     borderopacity="1"
     objecttolerance="10"
     gridtolerance="10"
     guidetolerance="10"
     inkscape:pageopacity="0"
     inkscape:pageshadow="2"
     inkscape:window-width="1920"
     inkscape:window-height="1125"
     id="namedview2986"
     showgrid="false"
     inkscape:zoom="1.976087"
     inkscape:cx="150.5609"
     inkscape:cy="141.51378"
     inkscape:window-x="0"
     inkscape:window-y="0"
     inkscape:window-maximized="1"
     inkscape:current-layer="g2992" /><metadata
     id="metadata2990"><rdf:RDF><cc:Work
         rdf:about=""><dc:format>image/svg+xml</dc:format><dc:type
           rdf:resource="http://purl.org/dc/dcmitype/StillImage" /><dc:title /></cc:Work></rdf:RDF></metadata><defs
     id="defs2988"><marker
       inkscape:stockid="Arrow2Mend"
       orient="auto"
       refY="0.0"
       refX="0.0"
       id="Arrow2Mend"
       style="overflow:visible;"><path
         id="path4312"
         style="font-size:12.0;fill-rule:evenodd;stroke-width:0.62500000;stroke-linejoin:round;"
         d="M 8.7185878,4.0337352 L -2.2072895,0.016013256 L 8.7185884,-4.0017078 C 6.9730900,-1.6296469 6.9831476,1.6157441 8.7185878,4.0337352 z "
         transform="scale(0.6) rotate(180) translate(0,0)" /></marker><marker
       inkscape:stockid="Arrow1Mend"
       orient="auto"
       refY="0.0"
       refX="0.0"
       id="Arrow1Mend"
       style="overflow:visible;"><path
         id="path4294"
         d="M 0.0,0.0 L 5.0,-5.0 L -12.5,0.0 L 5.0,5.0 L 0.0,0.0 z "
         style="fill-rule:evenodd;stroke:#000000;stroke-width:1.0pt;marker-start:none;"
         transform="scale(0.4) rotate(180) translate(10,0)" /></marker><marker
       inkscape:stockid="Arrow2Lend"
       orient="auto"
       refY="0.0"
       refX="0.0"
       id="Arrow2Lend"
       style="overflow:visible;"><path
         id="path4306"
         style="font-size:12.0;fill-rule:evenodd;stroke-width:0.62500000;stroke-linejoin:round;"
         d="M 8.7185878,4.0337352 L -2.2072895,0.016013256 L 8.7185884,-4.0017078 C 6.9730900,-1.6296469 6.9831476,1.6157441 8.7185878,4.0337352 z "
         transform="scale(1.1) rotate(180) translate(1,0)" /></marker><inkscape:path-effect
       effect="spiro"
       id="path-effect4280"
       is_visible="true" /></defs><g
     transform="matrix(1.25,0,0,-1.25,0,230)"
     inkscape:label="skici"
     inkscape:groupmode="layer"
     id="g2992"><path
   inkscape:connector-curvature="0"
   id="path2994"
   style="fill:none;stroke:#000000;stroke-width:2.16000009;stroke-linecap:round;stroke-linejoin:round;stroke-miterlimit:10;stroke-opacity:1;stroke-dasharray:none"
   d="m 20.435629,6.3039886 130.800001,0" /><path
   inkscape:connector-curvature="0"
   id="path2996"
   style="fill:none;stroke:#000000;stroke-width:2.16000009;stroke-linecap:round;stroke-linejoin:round;stroke-miterlimit:10;stroke-opacity:1;stroke-dasharray:none"
   d="m 21.035629,177.90399 84.000001,0" /><path
   inkscape:connector-curvature="0"
   id="path2998"
   style="fill:#ffffff;fill-opacity:1;fill-rule:evenodd;stroke:none"
   d="m 151.30563,92.733989 c 0,1.96 -1.59,3.55 -3.54,3.55 -1.96,0 -3.55,-1.59 -3.55,-3.55 0,-1.95 1.59,-3.54 3.55,-3.54 1.95,0 3.54,1.59 3.54,3.54 z" /><path
   inkscape:connector-curvature="0"
   id="path3000"
   style="fill:none;stroke:#000000;stroke-width:2.16000009;stroke-linecap:round;stroke-linejoin:round;stroke-miterlimit:10;stroke-opacity:1;stroke-dasharray:none"
   d="m 151.30563,92.733989 c 0,1.96 -1.59,3.55 -3.54,3.55 -1.96,0 -3.55,-1.59 -3.55,-3.55 0,-1.95 1.59,-3.54 3.55,-3.54 1.95,0 3.54,1.59 3.54,3.54 z" /><path
   inkscape:connector-curvature="0"
   id="path3002"
   style="fill:#ffffff;fill-opacity:1;fill-rule:evenodd;stroke:none"
   d="m 151.30563,6.0739886 c 0,1.96 -1.59,3.55 -3.54,3.55 -1.96,0 -3.55,-1.59 -3.55,-3.55 0,-1.95 1.59,-3.54 3.55,-3.54 1.95,0 3.54,1.59 3.54,3.54 z" /><path
   inkscape:connector-curvature="0"
   id="path3004"
   style="fill:none;stroke:#000000;stroke-width:2.16000009;stroke-linecap:round;stroke-linejoin:round;stroke-miterlimit:10;stroke-opacity:1;stroke-dasharray:none"
   d="m 151.30563,6.0739886 c 0,1.96 -1.59,3.55 -3.54,3.55 -1.96,0 -3.55,-1.59 -3.55,-3.55 0,-1.95 1.59,-3.54 3.55,-3.54 1.95,0 3.54,1.59 3.54,3.54 z" /><path
   inkscape:connector-curvature="0"
   id="path3006"
   style="fill:none;stroke:#000000;stroke-width:2.16000009;stroke-linecap:round;stroke-linejoin:round;stroke-miterlimit:10;stroke-opacity:1;stroke-dasharray:none"
   d="m 105.03563,6.3039886 0,171.6000014" /><path
   inkscape:connector-curvature="0"
   id="path3008"
   style="fill:#000000;fill-opacity:1;fill-rule:evenodd;stroke:none"
   d="m 105.24563,9.7939886 c -1.94,0 -3.51,-1.58 -3.51,-3.51 0,-1.94 1.57,-3.51 3.51,-3.51 0,0 0,0 0,0 1.94,0 3.51,1.57 3.51,3.51 0,1.93 -1.57,3.51 -3.51,3.51 z" /><path
   inkscape:connector-curvature="0"
   id="path3010"
   style="fill:#ffffff;fill-opacity:1;fill-rule:evenodd;stroke:none"
   d="m 98.435629,35.103989 13.800001,0 0,35.4 -13.800001,0 0,-35.4 z" /><path
   inkscape:connector-curvature="0"
   id="path3012"
   style="fill:#38ffff;stroke:#000000;stroke-width:2.16000009000000000;stroke-linecap:round;stroke-linejoin:round;stroke-miterlimit:10;stroke-opacity:1;stroke-dasharray:none;fill-opacity:1"
   d="m 98.435629,35.103989 13.800001,0 0,35.4 -13.800001,0 0,-35.4 z" /><path
   inkscape:connector-curvature="0"
   id="path3014"
   style="fill:#38ffff;fill-opacity:1;fill-rule:evenodd;stroke:none"
   d="m 98.435629,114.90399 13.800001,0 0,35.4 -13.800001,0 0,-35.4 z" /><path
   inkscape:connector-curvature="0"
   id="path3016"
   style="fill:none;stroke:#000000;stroke-width:2.16000009;stroke-linecap:round;stroke-linejoin:round;stroke-miterlimit:10;stroke-opacity:1;stroke-dasharray:none"
   d="m 98.435629,114.90399 13.800001,0 0,35.4 -13.800001,0 0,-35.4 z" /><path
   inkscape:connector-curvature="0"
   id="path3018"
   style="fill:none;stroke:#000000;stroke-width:2.16000009;stroke-linecap:round;stroke-linejoin:round;stroke-miterlimit:10;stroke-opacity:1;stroke-dasharray:none"
   d="m 105.03563,92.703989 39,0" /><path
   inkscape:connector-curvature="0"
   id="path3020"
   style="fill:#000000;fill-opacity:1;fill-rule:evenodd;stroke:none"
   d="m 108.75563,92.733989 c 0,1.94 -1.57,3.51 -3.51,3.51 -1.94,0 -3.51,-1.57 -3.51,-3.51 0,0 0,0 0,0 0,-1.94 1.57,-3.51 3.51,-3.51 1.94,0 3.51,1.57 3.51,3.51 z" /><path
   inkscape:connector-curvature="0"
   id="path3022"
   style="fill:none;stroke:#000000;stroke-width:2.16000009;stroke-linecap:round;stroke-linejoin:round;stroke-miterlimit:10;stroke-opacity:1;stroke-dasharray:none"
   d="m 20.435629,6.3039886 0,171.6000014" /><path
   inkscape:connector-curvature="0"
   id="path3024"
   style="fill:#ffffff;fill-opacity:1;fill-rule:evenodd;stroke:none"
   d="m 37.915629,92.733989 c 0,9.790001 -7.93,17.720001 -17.71,17.720001 -9.79,0 -17.7199995,-7.93 -17.7199995,-17.720001 0,-9.78 7.9299995,-17.71 17.7199995,-17.71 9.78,0 17.71,7.93 17.71,17.71 z" /><path
   inkscape:connector-curvature="0"
   id="path3026"
   style="fill:none;stroke:#000000;stroke-width:2.25;stroke-linecap:round;stroke-linejoin:round;stroke-miterlimit:10;stroke-opacity:1;stroke-dasharray:none"
   d="m 37.915629,92.733989 c 0,9.790001 -7.93,17.720001 -17.71,17.720001 -9.79,0 -17.7199995,-7.93 -17.7199995,-17.720001 0,-9.78 7.9299995,-17.71 17.7199995,-17.71 9.78,0 17.71,7.93 17.71,17.71 z" /><g
   ns0:preamble=""
   ns0:text="$$R_1\\pm\\Delta_1$$\n"
   word-spacing="normal"
   letter-spacing="normal"
   font-size-adjust="none"
   font-stretch="normal"
   font-weight="normal"
   font-variant="normal"
   font-style="normal"
   stroke-miterlimit="10.433"
   xml:space="preserve"
   transform="matrix(0,1.960598,-1.758149,0,1372.6433,-639.44801)"
   id="content"
   style="font-style:normal;font-variant:normal;font-weight:normal;font-stretch:normal;letter-spacing:normal;word-spacing:normal;text-anchor:start;fill:none;stroke:#000000;stroke-width:2.15445733;stroke-linecap:butt;stroke-linejoin:miter;stroke-miterlimit:10.43299961;stroke-opacity:1;stroke-dasharray:none;stroke-dashoffset:0">
<path
   id="path3051"
   d="m 381.97,710.51 0.1,0.02 0.09,0.03 0.1,0.02 0.09,0.03 0.1,0.04 0.1,0.03 0.09,0.04 0.1,0.04 0.09,0.04 0.1,0.05 0.09,0.05 0.09,0.05 0.08,0.05 0.09,0.06 0.08,0.05 0.08,0.06 0.08,0.07 0.08,0.06 0.07,0.07 0.07,0.07 0.06,0.07 0.06,0.07 0.05,0.08 0.05,0.08 0.05,0.08 0.04,0.08 0.03,0.08 0.03,0.09 0.02,0.09 0.02,0.09 0.01,0.09 0,0.09 c 0,0.86 -0.89,1.49 -2.2,1.49 h -2.84 c -0.2,0 -0.29,0 -0.29,-0.2 0,-0.11 0.09,-0.11 0.28,-0.11 0.02,0 0.21,0 0.38,-0.02 0.18,-0.02 0.27,-0.03 0.27,-0.16 0,-0.03 -0.01,-0.07 -0.04,-0.18 l -1.34,-5.35 c -0.1,-0.39 -0.12,-0.47 -0.9,-0.47 -0.18,0 -0.27,0 -0.27,-0.2 0,-0.1 0.12,-0.1 0.14,-0.1 0.27,0 0.97,0.03 1.25,0.03 0.28,0 0.99,-0.03 1.27,-0.03 0.08,0 0.2,0 0.2,0.19 0,0.11 -0.09,0.11 -0.28,0.11 -0.37,0 -0.65,0 -0.65,0.18 0,0.06 0.02,0.11 0.03,0.17 l 0.66,2.64 h 1.18 l -0.01,0.22 h -1.11 l 0.65,2.6 c 0.06,0.23 0.09,0.33 0.27,0.36 0.09,0.01 0.41,0.01 0.61,0.01 0.71,0 1.82,0 1.82,-0.98 0,-0.34 -0.16,-1.03 -0.55,-1.41 -0.26,-0.26 -0.79,-0.58 -1.69,-0.58 l 0.01,-0.22 c 0.91,0 1.09,-0.56 1.09,-0.91 0,-0.15 -0.08,-0.45 -0.14,-0.68 -0.07,-0.28 -0.16,-0.65 -0.16,-0.85 0,-1.07 1.2,-1.07 1.33,-1.07 0.84,0 1.19,1 1.19,1.14 0,0.12 -0.11,0.12 -0.12,0.12 -0.09,0 -0.11,-0.07 -0.13,-0.14 -0.24,-0.74 -0.67,-0.9 -0.9,-0.9 -0.33,0 -0.4,0.21 -0.4,0.6 0,0.31 0.06,0.82 0.1,1.14 0.02,0.14 0.04,0.33 0.04,0.46 0,0.77 -0.67,1.08 -0.94,1.18 z"
   inkscape:connector-curvature="0"
   style="fill:#000000;stroke-width:0" />
<path
   id="path3053"
   d="m 386.69,710.05 0,0.01 0,0.01 0,0.01 0,0.01 0,0 0,0.01 0,0.01 0,0.01 0,0 0,0.01 0,0 0,0.01 0,0.01 0,0 0,0.01 0,0 0,0.01 0,0 -0.01,0.01 0,0.01 0,0.01 0,0 -0.01,0.01 0,0.01 -0.01,0 0,0.01 -0.01,0 -0.01,0 0,0.01 -0.01,0 -0.01,0 -0.01,0 0,0 -0.01,0 -0.01,0 0,0.01 -0.01,0 0,0 -0.01,0 -0.01,0 0,0 -0.01,0 -0.01,0 0,0 -0.01,0 -0.01,0 -0.01,0 -0.01,0 -0.01,0 -0.01,0 c -0.44,-0.44 -1.07,-0.45 -1.36,-0.45 v -0.25 c 0.17,0 0.63,0 1.01,0.2 v -3.55 c 0,-0.23 0,-0.32 -0.7,-0.32 h -0.26 v -0.25 c 0.12,0.01 0.98,0.03 1.24,0.03 0.21,0 1.09,-0.02 1.24,-0.03 v 0.25 h -0.26 c -0.7,0 -0.7,0.09 -0.7,0.32 z"
   inkscape:connector-curvature="0"
   style="fill:#000000;stroke-width:0" />
<path
   id="path3055"
   d="m 395.12,710.24 h 2.77 c 0.17,0 0.35,0 0.35,0.2 0,0.2 -0.18,0.2 -0.35,0.2 h -2.77 v 2.75 c 0,0.15 0,0.36 -0.2,0.36 -0.2,0 -0.2,-0.18 -0.2,-0.34 v -2.77 h -2.78 c -0.17,0 -0.35,0 -0.35,-0.2 0,-0.2 0.18,-0.2 0.35,-0.2 h 2.78 v -2.72 h -2.78 c -0.17,0 -0.35,0 -0.35,-0.2 0,-0.19 0.18,-0.19 0.35,-0.19 h 5.95 c 0.17,0 0.35,0 0.35,0.19 0,0.2 -0.18,0.2 -0.35,0.2 h -2.77 z"
   inkscape:connector-curvature="0"
   style="fill:#000000;stroke-width:0" />
<path
   id="path3057"
   d="m 405.41,714.07 0,0.01 -0.01,0.02 -0.01,0.01 0,0.01 -0.01,0.01 0,0.01 -0.01,0.01 0,0 -0.01,0.01 0,0.01 -0.01,0.01 -0.01,0.01 0,0 -0.01,0.01 0,0 -0.01,0.01 -0.01,0.01 0,0 -0.01,0 -0.01,0.01 -0.01,0 -0.01,0.01 0,0 -0.01,0 -0.01,0 -0.02,0.01 -0.01,0 -0.01,0 -0.01,0 -0.02,0 -0.01,0 -0.02,0 c -0.17,0 -0.19,-0.05 -0.26,-0.18 l -0.06,-0.81 2.69,-5.38 h -5.38 l 2.69,5.38 0.06,0.81 -3.37,-6.75 c -0.04,-0.09 -0.04,-0.1 -0.04,-0.11 0,-0.08 0.06,-0.08 0.22,-0.08 h 6.91 c 0.16,0 0.22,0 0.22,0.08 0,0.01 0,0.02 -0.05,0.11 z"
   inkscape:connector-curvature="0"
   style="fill:#000000;stroke-width:0" />
<path
   id="path3059"
   d="m 411.64,710.05 0,0.01 0,0.01 0,0.01 0,0.01 0,0 0,0.01 0,0.01 0,0.01 0,0 0,0.01 0,0 0,0.01 0,0.01 0,0 0,0.01 0,0 0,0.01 -0.01,0 0,0.01 0,0.01 0,0.01 -0.01,0 0,0.01 0,0.01 -0.01,0 0,0.01 -0.01,0 -0.01,0 -0.01,0.01 0,0 -0.01,0 -0.01,0 -0.01,0 0,0 -0.01,0 0,0.01 -0.01,0 -0.01,0 0,0 -0.01,0 -0.01,0 0,0 -0.01,0 -0.01,0 0,0 -0.01,0 -0.01,0 -0.01,0 -0.01,0 -0.01,0 c -0.44,-0.44 -1.08,-0.45 -1.36,-0.45 v -0.25 c 0.16,0 0.63,0 1.01,0.2 v -3.55 c 0,-0.23 0,-0.32 -0.7,-0.32 h -0.26 v -0.25 c 0.12,0.01 0.98,0.03 1.24,0.03 0.21,0 1.09,-0.02 1.24,-0.03 v 0.25 h -0.26 c -0.7,0 -0.7,0.09 -0.7,0.32 z"
   inkscape:connector-curvature="0"
   style="fill:#000000;stroke-width:0" />
</g>
<g
   id="g3148"
   transform="matrix(0,1.960598,-1.758149,0,1372.6887,-722.82908)"
   xml:space="preserve"
   stroke-miterlimit="10.433"
   font-style="normal"
   font-variant="normal"
   font-weight="normal"
   font-stretch="normal"
   font-size-adjust="none"
   letter-spacing="normal"
   word-spacing="normal"
   ns0:text="$$R_2\\pm\\Delta_2$$\n\n"
   ns0:preamble=""
   style="font-style:normal;font-variant:normal;font-weight:normal;font-stretch:normal;letter-spacing:normal;word-spacing:normal;text-anchor:start;fill:none;stroke:#000000;stroke-width:2.15445733;stroke-linecap:butt;stroke-linejoin:miter;stroke-miterlimit:10.43299961;stroke-opacity:1;stroke-dasharray:none;stroke-dashoffset:0">
<path
   style="fill:#000000;stroke-width:0"
   inkscape:connector-curvature="0"
   d="m 381.97,710.51 0.1,0.02 0.09,0.03 0.1,0.02 0.09,0.03 0.1,0.04 0.1,0.03 0.09,0.04 0.1,0.04 0.09,0.04 0.1,0.05 0.09,0.05 0.09,0.05 0.08,0.05 0.09,0.06 0.08,0.05 0.08,0.06 0.08,0.07 0.08,0.06 0.07,0.07 0.07,0.07 0.06,0.07 0.06,0.07 0.05,0.08 0.05,0.08 0.05,0.08 0.04,0.08 0.03,0.08 0.03,0.09 0.02,0.09 0.02,0.09 0.01,0.09 0,0.09 c 0,0.86 -0.89,1.49 -2.2,1.49 h -2.84 c -0.2,0 -0.29,0 -0.29,-0.2 0,-0.11 0.09,-0.11 0.28,-0.11 0.02,0 0.21,0 0.38,-0.02 0.18,-0.02 0.27,-0.03 0.27,-0.16 0,-0.03 -0.01,-0.07 -0.04,-0.18 l -1.34,-5.35 c -0.1,-0.39 -0.12,-0.47 -0.9,-0.47 -0.18,0 -0.27,0 -0.27,-0.2 0,-0.1 0.12,-0.1 0.14,-0.1 0.27,0 0.97,0.03 1.25,0.03 0.28,0 0.99,-0.03 1.27,-0.03 0.08,0 0.2,0 0.2,0.19 0,0.11 -0.09,0.11 -0.28,0.11 -0.37,0 -0.65,0 -0.65,0.18 0,0.06 0.02,0.11 0.03,0.17 l 0.66,2.64 h 1.18 l -0.01,0.22 h -1.11 l 0.65,2.6 c 0.06,0.23 0.09,0.33 0.27,0.36 0.09,0.01 0.41,0.01 0.61,0.01 0.71,0 1.82,0 1.82,-0.98 0,-0.34 -0.16,-1.03 -0.55,-1.41 -0.26,-0.26 -0.79,-0.58 -1.69,-0.58 l 0.01,-0.22 c 0.91,0 1.09,-0.56 1.09,-0.91 0,-0.15 -0.08,-0.45 -0.14,-0.68 -0.07,-0.28 -0.16,-0.65 -0.16,-0.85 0,-1.07 1.2,-1.07 1.33,-1.07 0.84,0 1.19,1 1.19,1.14 0,0.12 -0.11,0.12 -0.12,0.12 -0.09,0 -0.11,-0.07 -0.13,-0.14 -0.24,-0.74 -0.67,-0.9 -0.9,-0.9 -0.33,0 -0.4,0.21 -0.4,0.6 0,0.31 0.06,0.82 0.1,1.14 0.02,0.14 0.04,0.33 0.04,0.46 0,0.77 -0.67,1.08 -0.94,1.18 z"
   id="path3150" />
<path
   style="fill:#000000;stroke-width:0"
   inkscape:connector-curvature="0"
   d="m 387.88,706.9 h -0.24 c -0.02,-0.16 -0.09,-0.57 -0.18,-0.64 -0.06,-0.04 -0.59,-0.04 -0.69,-0.04 h -1.28 c 0.73,0.65 0.97,0.84 1.39,1.17 0.52,0.41 1,0.84 1,1.5 0,0.84 -0.74,1.36 -1.63,1.36 -0.86,0 -1.45,-0.61 -1.45,-1.25 0,-0.35 0.3,-0.39 0.37,-0.39 0.17,0 0.37,0.12 0.37,0.37 0,0.13 -0.05,0.37 -0.41,0.37 0.21,0.49 0.69,0.65 1.01,0.65 0.7,0 1.06,-0.54 1.06,-1.11 0,-0.6 -0.43,-1.08 -0.65,-1.33 l -1.68,-1.66 c -0.07,-0.06 -0.07,-0.07 -0.07,-0.27 h 2.87 z"
   id="path3152" />
<path
   style="fill:#000000;stroke-width:0"
   inkscape:connector-curvature="0"
   d="m 395.12,710.24 h 2.77 c 0.17,0 0.35,0 0.35,0.2 0,0.2 -0.18,0.2 -0.35,0.2 h -2.77 v 2.75 c 0,0.15 0,0.36 -0.2,0.36 -0.2,0 -0.2,-0.18 -0.2,-0.34 v -2.77 h -2.78 c -0.17,0 -0.35,0 -0.35,-0.2 0,-0.2 0.18,-0.2 0.35,-0.2 h 2.78 v -2.72 h -2.78 c -0.17,0 -0.35,0 -0.35,-0.2 0,-0.19 0.18,-0.19 0.35,-0.19 h 5.95 c 0.17,0 0.35,0 0.35,0.19 0,0.2 -0.18,0.2 -0.35,0.2 h -2.77 z"
   id="path3154" />
<path
   style="fill:#000000;stroke-width:0"
   inkscape:connector-curvature="0"
   d="m 405.41,714.07 0,0.01 -0.01,0.02 -0.01,0.01 0,0.01 -0.01,0.01 0,0.01 -0.01,0.01 0,0 -0.01,0.01 0,0.01 -0.01,0.01 -0.01,0.01 0,0 -0.01,0.01 0,0 -0.01,0.01 -0.01,0.01 0,0 -0.01,0 -0.01,0.01 -0.01,0 -0.01,0.01 0,0 -0.01,0 -0.01,0 -0.02,0.01 -0.01,0 -0.01,0 -0.01,0 -0.02,0 -0.01,0 -0.02,0 c -0.17,0 -0.19,-0.05 -0.26,-0.18 l -0.06,-0.81 2.69,-5.38 h -5.38 l 2.69,5.38 0.06,0.81 -3.37,-6.75 c -0.04,-0.09 -0.04,-0.1 -0.04,-0.11 0,-0.08 0.06,-0.08 0.22,-0.08 h 6.91 c 0.16,0 0.22,0 0.22,0.08 0,0.01 0,0.02 -0.05,0.11 z"
   id="path3156" />
<path
   style="fill:#000000;stroke-width:0"
   inkscape:connector-curvature="0"
   d="m 412.83,706.9 h -0.24 c -0.02,-0.16 -0.09,-0.57 -0.18,-0.64 -0.06,-0.04 -0.59,-0.04 -0.69,-0.04 h -1.28 c 0.73,0.65 0.97,0.84 1.39,1.17 0.52,0.41 1,0.84 1,1.5 0,0.84 -0.74,1.36 -1.63,1.36 -0.87,0 -1.45,-0.61 -1.45,-1.25 0,-0.35 0.3,-0.39 0.37,-0.39 0.16,0 0.37,0.12 0.37,0.37 0,0.13 -0.05,0.37 -0.41,0.37 0.21,0.49 0.69,0.65 1.01,0.65 0.7,0 1.06,-0.54 1.06,-1.11 0,-0.6 -0.43,-1.08 -0.65,-1.33 l -1.68,-1.66 c -0.07,-0.06 -0.07,-0.07 -0.07,-0.27 h 2.87 z"
   id="path3158" />
</g>
<g
   id="g4108"
   transform="matrix(2.1665208,0,0,1.9509568,-835.98182,-1293.5417)"
   xml:space="preserve"
   stroke-miterlimit="10.433"
   font-style="normal"
   font-variant="normal"
   font-weight="normal"
   font-stretch="normal"
   font-size-adjust="none"
   letter-spacing="normal"
   word-spacing="normal"
   ns0:text="$$U_I$$\n\n\n\n"
   ns0:preamble=""
   style="font-style:normal;font-variant:normal;font-weight:normal;font-stretch:normal;letter-spacing:normal;word-spacing:normal;text-anchor:start;fill:none;stroke:#000000;stroke-width:1.94560528;stroke-linecap:butt;stroke-linejoin:miter;stroke-miterlimit:10.43299961;stroke-opacity:1;stroke-dasharray:none;stroke-dashoffset:0">
<path
   style="fill:#000000;stroke-width:0"
   inkscape:connector-curvature="0"
   d="m 395.93,712.88 0.02,0.07 0.01,0.04 0.01,0.04 0.02,0.03 0.01,0.03 0.01,0.04 0.02,0.03 0.02,0.03 0.01,0.03 0.02,0.03 0.03,0.03 0.02,0.03 0.02,0.03 0.03,0.02 0.03,0.03 0.03,0.02 0.03,0.02 0.04,0.03 0.03,0.02 0.04,0.01 0.04,0.02 0.05,0.02 0.05,0.01 0.05,0.02 0.05,0.01 0.06,0.01 0.06,0.01 0.06,0.01 0.07,0.01 0.06,0 0.04,0 0.04,0 c 0.05,0 0.17,0.01 0.17,0.2 0,0.01 0,0.11 -0.13,0.11 -0.33,0 -0.68,-0.03 -1.02,-0.03 -0.34,0 -0.71,0.03 -1.04,0.03 -0.06,0 -0.18,0 -0.18,-0.2 0,-0.11 0.1,-0.11 0.18,-0.11 0.57,-0.01 0.68,-0.21 0.68,-0.43 0,-0.03 -0.02,-0.18 -0.03,-0.21 l -0.9,-3.56 c -0.33,-1.33 -1.48,-2.19 -2.48,-2.19 -0.68,0 -1.21,0.43 -1.21,1.29 0,0.02 0,0.34 0.11,0.77 l 0.96,3.88 c 0.09,0.36 0.11,0.45 0.84,0.45 0.26,0 0.34,0 0.34,0.2 0,0.11 -0.11,0.11 -0.14,0.11 -0.28,0 -1,-0.03 -1.28,-0.03 -0.28,0 -0.99,0.03 -1.28,0.03 -0.08,0 -0.19,0 -0.19,-0.2 0,-0.11 0.09,-0.11 0.28,-0.11 0.02,0 0.21,0 0.38,-0.02 0.18,-0.02 0.27,-0.03 0.27,-0.16 0,-0.05 -0.11,-0.47 -0.17,-0.7 l -0.22,-0.88 c -0.09,-0.39 -0.57,-2.27 -0.61,-2.46 -0.07,-0.27 -0.07,-0.42 -0.07,-0.57 0,-1.22 0.91,-1.91 1.95,-1.91 1.26,0 2.49,1.12 2.82,2.43 z"
   id="path4110" />
<path
   style="fill:#000000;stroke-width:0"
   inkscape:connector-curvature="0"
   d="m 399.28,709.83 0,0.02 0.01,0.02 0.01,0.02 0,0.02 0.01,0.02 0,0.02 0.01,0.01 0.01,0.02 0,0.01 0.01,0.01 0.01,0.02 0.01,0.01 0.01,0.01 0.01,0.01 0.01,0.01 0.02,0.01 0.01,0.01 0.02,0 0.02,0.01 0.02,0.01 0.02,0 0.01,0.01 0.01,0 0.01,0 0.02,0 0.01,0 0.01,0.01 0.02,0 0.01,0 0.02,0 0.01,0 0.02,0 0.02,0 0.02,0.01 0.01,0 0.02,0 0.02,0 0.02,0 0.03,0 0.02,0 0.02,0 0.02,0 0.03,0 c 0.17,0 0.26,0 0.26,0.15 0,0.06 -0.05,0.1 -0.12,0.1 -0.14,0 -0.32,-0.02 -0.46,-0.02 -0.16,0 -0.32,-0.01 -0.48,-0.01 0,0 -0.48,0.01 -0.48,0.01 -0.15,0 -0.32,0.02 -0.48,0.02 -0.04,0 -0.14,0 -0.14,-0.15 0,-0.1 0.07,-0.1 0.23,-0.1 0,0 0.14,0 0.26,-0.01 0.14,-0.02 0.19,-0.03 0.19,-0.1 0,-0.04 -0.01,-0.09 -0.03,-0.15 l -0.93,-3.69 c -0.05,-0.23 -0.07,-0.3 -0.59,-0.3 -0.19,0 -0.26,0 -0.26,-0.15 0,-0.01 0,-0.1 0.11,-0.1 0.21,0 0.73,0.03 0.94,0.03 l 0.48,-0.01 c 0.15,0 0.33,-0.02 0.48,-0.02 0.04,0 0.15,0 0.15,0.15 0,0.1 -0.09,0.1 -0.22,0.1 -0.02,0 -0.16,0 -0.31,0.02 -0.15,0.01 -0.15,0.04 -0.15,0.1 0,0.01 0,0.05 0.02,0.15 z"
   id="path4112" />
</g>
<g
   style="font-style:normal;font-variant:normal;font-weight:normal;font-stretch:normal;letter-spacing:normal;word-spacing:normal;text-anchor:start;fill:none;stroke:#000000;stroke-width:1.94560528;stroke-linecap:butt;stroke-linejoin:miter;stroke-miterlimit:10.43299961;stroke-opacity:1;stroke-dasharray:none;stroke-dashoffset:0"
   ns0:preamble=""
   ns0:text="$$U_O$$\n\n\n\n\n"
   word-spacing="normal"
   letter-spacing="normal"
   font-size-adjust="none"
   font-stretch="normal"
   font-weight="normal"
   font-variant="normal"
   font-style="normal"
   stroke-miterlimit="10.433"
   xml:space="preserve"
   transform="matrix(2.1665208,0,0,1.9509568,-687.60951,-1334.9302)"
   id="g4234">
<path
   id="path4236"
   d="m 394.83,712.88 0.02,0.07 0.01,0.04 0.01,0.04 0.01,0.03 0.02,0.03 0.01,0.04 0.02,0.03 0.02,0.03 0.01,0.03 0.02,0.03 0.02,0.03 0.03,0.03 0.02,0.03 0.03,0.02 0.03,0.03 0.03,0.02 0.03,0.02 0.03,0.03 0.04,0.02 0.04,0.01 0.04,0.02 0.05,0.02 0.05,0.01 0.05,0.02 0.05,0.01 0.06,0.01 0.06,0.01 0.06,0.01 0.06,0.01 0.07,0 0.04,0 0.04,0 c 0.05,0 0.17,0.01 0.17,0.2 0,0.01 0,0.11 -0.13,0.11 -0.33,0 -0.68,-0.03 -1.02,-0.03 -0.34,0 -0.71,0.03 -1.04,0.03 -0.06,0 -0.18,0 -0.18,-0.2 0,-0.11 0.1,-0.11 0.18,-0.11 0.57,-0.01 0.68,-0.21 0.68,-0.43 0,-0.03 -0.02,-0.18 -0.03,-0.21 l -0.9,-3.56 c -0.34,-1.33 -1.48,-2.19 -2.48,-2.19 -0.68,0 -1.21,0.43 -1.21,1.29 0,0.02 0,0.34 0.1,0.77 l 0.97,3.88 c 0.09,0.36 0.11,0.45 0.84,0.45 0.26,0 0.34,0 0.34,0.2 0,0.11 -0.11,0.11 -0.14,0.11 -0.28,0 -1,-0.03 -1.28,-0.03 -0.29,0 -0.99,0.03 -1.28,0.03 -0.08,0 -0.19,0 -0.19,-0.2 0,-0.11 0.09,-0.11 0.28,-0.11 0.02,0 0.21,0 0.37,-0.02 0.18,-0.02 0.27,-0.03 0.27,-0.16 0,-0.05 -0.1,-0.47 -0.16,-0.7 l -0.22,-0.88 c -0.09,-0.39 -0.57,-2.27 -0.61,-2.46 -0.07,-0.27 -0.07,-0.42 -0.07,-0.57 0,-1.22 0.91,-1.91 1.95,-1.91 1.26,0 2.49,1.12 2.82,2.43 z"
   inkscape:connector-curvature="0"
   style="fill:#000000;stroke-width:0" />
<path
   id="path4238"
   d="m 401.08,708.59 -0.01,0.1 0,0.1 -0.01,0.1 -0.02,0.09 -0.02,0.1 -0.02,0.09 -0.03,0.09 -0.04,0.09 -0.03,0.08 -0.04,0.09 -0.05,0.08 -0.05,0.08 -0.05,0.07 -0.06,0.08 -0.06,0.07 -0.06,0.06 -0.07,0.07 -0.07,0.06 -0.07,0.05 -0.08,0.06 -0.08,0.04 -0.09,0.05 -0.09,0.04 -0.09,0.04 -0.09,0.03 -0.1,0.03 -0.1,0.03 -0.1,0.02 -0.11,0.02 -0.11,0.01 -0.11,0.01 -0.11,0 -0.06,-0.22 c 0.73,0 1.39,-0.46 1.39,-1.47 0,-0.51 -0.21,-1.52 -0.86,-2.27 -0.49,-0.55 -1.12,-0.84 -1.66,-0.84 h 0 c -0.74,0 -1.37,0.5 -1.37,1.53 0,0.36 0.1,1.34 0.74,2.14 0.47,0.57 1.14,0.91 1.76,0.91 l 0.06,0.22 c -1.67,0 -3.28,-1.56 -3.28,-3.12 0,-1.12 0.83,-1.91 2.03,-1.91 1.66,0 3.27,1.52 3.27,3.1 z"
   inkscape:connector-curvature="0"
   style="fill:#000000;stroke-width:0" />
</g>
<path
   style="fill:none;stroke:#000000;stroke-width:1.6;stroke-linecap:butt;stroke-linejoin:miter;stroke-opacity:1;stroke-miterlimit:4;stroke-dasharray:none;marker-end:url(#Arrow2Mend)"
   d="M 146.99037,84.734576 147.00425,15.7446"
   id="path4278"
   inkscape:path-effect="#path-effect4280"
   inkscape:original-d="M 146.99037,84.734576 147.00425,15.7446"
   inkscape:connector-curvature="0" /></g></svg>