<?xml version="1.0" encoding="UTF-8" standalone="no"?>
<!-- Created with Inkscape (http://www.inkscape.org/) -->

<svg
   xmlns:dc="http://purl.org/dc/elements/1.1/"
   xmlns:cc="http://creativecommons.org/ns#"
   xmlns:rdf="http://www.w3.org/1999/02/22-rdf-syntax-ns#"
   xmlns:svg="http://www.w3.org/2000/svg"
   xmlns="http://www.w3.org/2000/svg"
   xmlns:sodipodi="http://sodipodi.sourceforge.net/DTD/sodipodi-0.dtd"
   xmlns:inkscape="http://www.inkscape.org/namespaces/inkscape"
   width="470"
   height="180"
   id="svg2"
   inkscape:label="Pozadí"
   version="1.1"
   inkscape:version="0.48.1 "
   sodipodi:docname="cir_RLC.svg">
  <title
     id="title27855">RLC obvod</title>
  <defs
     id="defs26466" />
  <sodipodi:namedview
     id="base"
     pagecolor="#ffffff"
     bordercolor="#666666"
     borderopacity="1.0"
     inkscape:pageopacity="0.0"
     inkscape:pageshadow="2"
     inkscape:zoom="0.98994949"
     inkscape:cx="504.74556"
     inkscape:cy="109.599"
     inkscape:document-units="px"
     inkscape:current-layer="layer1"
     showgrid="false"
     inkscape:window-width="1920"
     inkscape:window-height="1125"
     inkscape:window-x="-9"
     inkscape:window-y="-9"
     inkscape:window-maximized="1" />
  <metadata
     id="metadata26469">
    <rdf:RDF>
      <cc:Work
         rdf:about="">
        <dc:format>image/svg+xml</dc:format>
        <dc:type
           rdf:resource="http://purl.org/dc/dcmitype/StillImage" />
        <dc:title>RLC obvod</dc:title>
      </cc:Work>
    </rdf:RDF>
  </metadata>
  <g
     inkscape:label="Vrstva 1"
     inkscape:groupmode="layer"
     id="layer1"
     transform="translate(0,-872.36218)">
    <path
       inkscape:connector-curvature="0"
       d="m 47.459041,988.9494 c 0,-12.72614 -10.315864,-23.04607 -23.042014,-23.04607 -12.72615,0 -23.0460792,10.31993 -23.0460792,23.04607 0,12.7262 10.3199292,23.042 23.0460792,23.042 12.72615,0 23.042014,-10.3158 23.042014,-23.042 z"
       style="fill:#ffffff;fill-opacity:1;fill-rule:evenodd;stroke:none"
       id="path20960" />
    <path
       inkscape:connector-curvature="0"
       d="m 47.459041,988.9494 c 0,-12.72614 -10.315864,-23.04607 -23.042014,-23.04607 -12.72615,0 -23.0460792,10.31993 -23.0460792,23.04607 0,12.7262 10.3199292,23.042 23.0460792,23.042 12.72615,0 23.042014,-10.3158 23.042014,-23.042 z"
       style="fill:none;stroke:#000000;stroke-width:2.02860117;stroke-linecap:round;stroke-linejoin:round;stroke-miterlimit:10;stroke-opacity:1;stroke-dasharray:none"
       id="path20962" />
    <path
       inkscape:connector-curvature="0"
       d="m 24.421092,965.96835 0,-34.63007"
       style="fill:none;stroke:#000000;stroke-width:2.02860117;stroke-linecap:round;stroke-linejoin:round;stroke-miterlimit:10;stroke-opacity:1;stroke-dasharray:none"
       id="path20964" />
    <path
       inkscape:connector-curvature="0"
       d="m 23.933344,1012.0605 0,34.3863"
       style="fill:none;stroke:#000000;stroke-width:2.02860117;stroke-linecap:round;stroke-linejoin:round;stroke-miterlimit:10;stroke-opacity:1;stroke-dasharray:none"
       id="path20966" />
    <path
       inkscape:connector-curvature="0"
       d="m 24.421092,931.33828 80.722258,0"
       style="fill:none;stroke:#000000;stroke-width:2.02860117;stroke-linecap:round;stroke-linejoin:round;stroke-miterlimit:10;stroke-opacity:1;stroke-dasharray:none"
       id="path20968" />
    <path
       inkscape:connector-curvature="0"
       d="m 105.14335,942.80034 57.55422,0 0,-22.92414 -57.55422,0 0,22.92414 z"
       style="fill:#ffffff;fill-opacity:1;fill-rule:evenodd;stroke:none"
       id="path20970" />
    <path
       inkscape:connector-curvature="0"
       d="m 105.14335,942.80034 57.55422,0 0,-22.92414 -57.55422,0 0,22.92414 z"
       style="fill:none;stroke:#000000;stroke-width:2.02860117;stroke-linecap:round;stroke-linejoin:round;stroke-miterlimit:10;stroke-opacity:1;stroke-dasharray:none"
       id="path20972" />
    <path
       inkscape:connector-curvature="0"
       d="m 162.69757,931.33828 57.55424,0"
       style="fill:none;stroke:#000000;stroke-width:2.02860117;stroke-linecap:round;stroke-linejoin:round;stroke-miterlimit:10;stroke-opacity:1;stroke-dasharray:none"
       id="path20974" />
    <path
       inkscape:connector-curvature="0"
       d="m 220.28433,931.34233 c -0.3211,-9.17372 5.86923,-16.90452 13.82358,-17.27033 7.95435,-0.36581 14.66089,6.77156 14.97792,15.94122 0.0163,0.44304 0.0163,0.88608 0,1.32911 -0.31703,-9.17372 5.87329,-16.90452 13.82764,-17.27033 7.95436,-0.36581 14.66089,6.77156 14.97793,15.94122 0.0163,0.44304 0.0163,0.88608 0,1.32911 -0.3211,-9.17372 5.86923,-16.90452 13.82358,-17.27033 7.95435,-0.36581 14.66089,6.77156 14.97792,15.94122 0.0163,0.44304 0.0163,0.88608 0,1.32911 -0.31703,-9.17372 5.8733,-16.90452 13.82765,-17.27033 7.95437,-0.36581 14.66089,6.77156 14.97793,15.94122 0.0163,0.44304 0.0163,0.88608 0,1.32911"
       style="fill:none;stroke:#000000;stroke-width:2.02860117;stroke-linecap:round;stroke-linejoin:round;stroke-miterlimit:10;stroke-opacity:1;stroke-dasharray:none"
       id="path20976" />
    <path
       inkscape:connector-curvature="0"
       d="m 388.52476,993.52611 -36.82496,0 m 36.82496,-9.26721 -36.82496,0"
       style="fill:none;stroke:#000000;stroke-width:2.02860117;stroke-linecap:round;stroke-linejoin:round;stroke-miterlimit:10;stroke-opacity:1;stroke-dasharray:none"
       id="path20978" />
    <path
       inkscape:connector-curvature="0"
       d="m 369.99034,1034.9847 0,-41.45859 m 0,-9.26721 0,-41.45856"
       style="fill:none;stroke:#000000;stroke-width:2.02860117;stroke-linecap:round;stroke-linejoin:round;stroke-miterlimit:10;stroke-opacity:1;stroke-dasharray:none"
       id="path20980" />
    <path
       inkscape:connector-curvature="0"
       d="m 335.60412,931.33828 34.38622,0 0,11.46206"
       style="fill:none;stroke:#000000;stroke-width:2.02860117;stroke-linecap:round;stroke-linejoin:round;stroke-miterlimit:10;stroke-opacity:1;stroke-dasharray:none"
       id="path20982" />
    <path
       inkscape:connector-curvature="0"
       d="m 369.99034,1034.9847 0,11.4621 -346.056996,0"
       style="fill:none;stroke:#000000;stroke-width:2.02860117;stroke-linecap:round;stroke-linejoin:round;stroke-miterlimit:10;stroke-opacity:1;stroke-dasharray:none"
       id="path20984" />
    <path
       inkscape:connector-curvature="0"
       d="m 194.36054,930.04574 c 0.71535,1.58925 0.004,3.45894 -1.58519,4.17431 -1.5933,0.71536 -3.46301,0.008 -4.17837,-1.58518 0,0 0,0 0,0 -0.71536,-1.58925 -0.004,-3.45895 1.58518,-4.17431 1.58924,-0.71536 3.45895,-0.008 4.17838,1.58518 z"
       style="fill:#ffffff;fill-opacity:1;fill-rule:evenodd;stroke:none"
       id="path20986" />
    <path
       inkscape:connector-curvature="0"
       d="m 194.36054,930.04574 c 0.71535,1.58925 0.004,3.45894 -1.58519,4.17431 -1.5933,0.71536 -3.46301,0.008 -4.17837,-1.58518 0,0 0,0 0,0 -0.71536,-1.58925 -0.004,-3.45895 1.58518,-4.17431 1.58924,-0.71536 3.45895,-0.008 4.17838,1.58518 z"
       style="fill:none;stroke:#000000;stroke-width:2.02860117;stroke-linecap:round;stroke-linejoin:round;stroke-miterlimit:10;stroke-opacity:1;stroke-dasharray:none"
       id="path20988" />
    <path
       inkscape:connector-curvature="0"
       d="m 194.36054,1045.2599 c 0.71535,1.5893 0.004,3.463 -1.58519,4.1784 -1.5933,0.7153 -3.46301,0.01 -4.17837,-1.5852 0,0 0,0 0,0 -0.71536,-1.5893 -0.004,-3.463 1.58518,-4.1784 1.58924,-0.7154 3.45895,-0.01 4.17838,1.5852 z"
       style="fill:#ffffff;fill-opacity:1;fill-rule:evenodd;stroke:none"
       id="path20990" />
    <path
       inkscape:connector-curvature="0"
       d="m 194.36054,1045.2599 c 0.71535,1.5893 0.004,3.463 -1.58519,4.1784 -1.5933,0.7153 -3.46301,0.01 -4.17837,-1.5852 0,0 0,0 0,0 -0.71536,-1.5893 -0.004,-3.463 1.58518,-4.1784 1.58924,-0.7154 3.45895,-0.01 4.17838,1.5852 z"
       style="fill:none;stroke:#000000;stroke-width:2.02860117;stroke-linecap:round;stroke-linejoin:round;stroke-miterlimit:10;stroke-opacity:1;stroke-dasharray:none"
       id="path20992" />
    <path
       inkscape:connector-curvature="0"
       d="m 372.94528,1045.2599 c 0.71539,1.5893 0.004,3.463 -1.58519,4.1784 -1.5933,0.7153 -3.463,0.01 -4.17837,-1.5852 0,0 0,0 0,0 -0.71536,-1.5893 -0.004,-3.463 1.58519,-4.1784 1.58924,-0.7154 3.45894,-0.01 4.17837,1.5852 z"
       style="fill:#000000;fill-opacity:1;fill-rule:evenodd;stroke:none"
       id="path20994" />
    <path
       inkscape:connector-curvature="0"
       d="m 372.94528,1045.2599 c 0.71539,1.5893 0.004,3.463 -1.58519,4.1784 -1.5933,0.7153 -3.463,0.01 -4.17837,-1.5852 0,0 0,0 0,0 -0.71536,-1.5893 -0.004,-3.463 1.58519,-4.1784 1.58924,-0.7154 3.45894,-0.01 4.17837,1.5852 z"
       style="fill:none;stroke:#000000;stroke-width:2.02860117;stroke-linecap:round;stroke-linejoin:round;stroke-miterlimit:10;stroke-opacity:1;stroke-dasharray:none"
       id="path20996" />
    <path
       inkscape:connector-curvature="0"
       d="m 372.94528,930.34246 c 0.71539,1.58923 0.004,3.45893 -1.58519,4.17837 -1.5933,0.71536 -3.463,0.004 -4.17837,-1.58518 0,0 0,0 0,0 -0.71536,-1.59332 -0.004,-3.46302 1.58519,-4.17838 1.58924,-0.71536 3.45894,-0.004 4.17837,1.58519 z"
       style="fill:#000000;fill-opacity:1;fill-rule:evenodd;stroke:none"
       id="path20998" />
    <path
       inkscape:connector-curvature="0"
       d="m 372.94528,930.34246 c 0.71539,1.58923 0.004,3.45893 -1.58519,4.17837 -1.5933,0.71536 -3.463,0.004 -4.17837,-1.58518 0,0 0,0 0,0 -0.71536,-1.59332 -0.004,-3.46302 1.58519,-4.17838 1.58924,-0.71536 3.45894,-0.004 4.17837,1.58519 z"
       style="fill:none;stroke:#000000;stroke-width:2.02860117;stroke-linecap:round;stroke-linejoin:round;stroke-miterlimit:10;stroke-opacity:1;stroke-dasharray:none"
       id="path21000" />
    <path
       inkscape:connector-curvature="0"
       d="m 366.31024,1046.3639 48.09338,0.1178"
       style="fill:none;stroke:#000000;stroke-width:2.02860117;stroke-linecap:round;stroke-linejoin:round;stroke-miterlimit:10;stroke-opacity:1;stroke-dasharray:none"
       id="path21002" />
    <path
       inkscape:connector-curvature="0"
       d="m 414.3064,931.33828 -46.51092,0"
       style="fill:none;stroke:#000000;stroke-width:2.02860117;stroke-linecap:round;stroke-linejoin:round;stroke-miterlimit:10;stroke-opacity:1;stroke-dasharray:none"
       id="path21004" />
    <path
       inkscape:connector-curvature="0"
       d="m 416.68416,929.61083 c 0.71537,1.59331 0.004,3.46302 -1.58521,4.17837 -1.59331,0.71537 -3.46298,0.008 -4.17837,-1.58518 0,0 0,0 0,0 -0.71536,-1.58924 -0.004,-3.45893 1.58521,-4.1743 1.58922,-0.71943 3.45894,-0.008 4.17837,1.58111 z"
       style="fill:#ffffff;fill-opacity:1;fill-rule:evenodd;stroke:none"
       id="path21006" />
    <path
       inkscape:connector-curvature="0"
       d="m 416.70032,929.99861 c 0.71537,1.5933 0.004,3.463 -1.58521,4.17837 -1.59331,0.71537 -3.46298,0.008 -4.17837,-1.58518 0,0 0,0 0,0 -0.71537,-1.58925 -0.004,-3.45895 1.58521,-4.17431 1.58922,-0.71944 3.45894,-0.008 4.17837,1.58112 z"
       style="fill:none;stroke:#000000;stroke-width:2.02860117;stroke-linecap:round;stroke-linejoin:round;stroke-miterlimit:10;stroke-opacity:1;stroke-dasharray:none"
       id="path21008" />
    <path
       inkscape:connector-curvature="0"
       d="m 416.68416,1044.8291 c 0.71537,1.5892 0.004,3.4589 -1.58521,4.1743 -1.59331,0.7153 -3.46298,0.01 -4.17837,-1.5812 0,0 0,0 0,0 -0.71536,-1.5932 -0.004,-3.463 1.58521,-4.1783 1.58922,-0.7154 3.45894,-0.01 4.17837,1.5852 z"
       style="fill:#ffffff;fill-opacity:1;fill-rule:evenodd;stroke:none"
       id="path21010" />
    <path
       inkscape:connector-curvature="0"
       d="m 416.68416,1044.8291 c 0.71537,1.5892 0.004,3.4589 -1.58521,4.1743 -1.59331,0.7153 -3.46298,0.01 -4.17837,-1.5812 0,0 0,0 0,0 -0.71536,-1.5932 -0.004,-3.463 1.58521,-4.1783 1.58922,-0.7154 3.45894,-0.01 4.17837,1.5852 z"
       style="fill:none;stroke:#000000;stroke-width:2.02860117;stroke-linecap:round;stroke-linejoin:round;stroke-miterlimit:10;stroke-opacity:1;stroke-dasharray:none"
       id="path21012" />
    <path
       inkscape:connector-curvature="0"
       d="m 191.47469,937.19125 0,103.64645 m -5.85297,-5.853 5.85297,5.853 5.85297,-5.853"
       style="fill:none;stroke:#923931;stroke-width:1.01430058;stroke-linecap:round;stroke-linejoin:round;stroke-miterlimit:10;stroke-opacity:1;stroke-dasharray:none"
       id="path21014" />
    <text
       style="font-size:9.34132862px"
       y="1000.8651"
       x="199.44649"
       id="text21016">
      <tspan
         style="font-size:28.02398682px;font-variant:normal;font-weight:normal;writing-mode:lr-tb;fill:#ea700d;fill-opacity:1;fill-rule:nonzero;stroke:none;font-family:FREESTYLE SCRIPT;-inkscape-font-specification:FREESTYLE SCRIPT"
         x="199.44649"
         y="1000.8651"
         id="tspan21018">U</tspan>
    </text>
    <text
       style="font-size:9.34132862px"
       y="1000.8651"
       x="214.019"
       id="text21020">
      <tspan
         style="font-size:28.02398682px;font-variant:normal;font-weight:normal;writing-mode:lr-tb;fill:#ea700d;fill-opacity:1;fill-rule:nonzero;stroke:none;font-family:FREESTYLE SCRIPT;-inkscape-font-specification:FREESTYLE SCRIPT"
         x="214.019"
         y="1000.8651"
         id="tspan21022">2</tspan>
    </text>
    <text
       style="font-size:9.34132862px"
       y="1000.8651"
       x="223.60168"
       id="text21024">
      <tspan
         style="font-size:28.02398682px;font-variant:normal;font-weight:normal;writing-mode:lr-tb;fill:#ea700d;fill-opacity:1;fill-rule:nonzero;stroke:none;font-family:FREESTYLE SCRIPT;-inkscape-font-specification:FREESTYLE SCRIPT"
         x="223.60168"
         y="1000.8651"
         id="tspan21026">(</tspan>
    </text>
    <text
       style="font-size:9.34132862px"
       y="1000.8651"
       x="233.61243"
       id="text21028">
      <tspan
         style="font-size:28.02398682px;font-variant:normal;font-weight:normal;writing-mode:lr-tb;fill:#ea700d;fill-opacity:1;fill-rule:nonzero;stroke:none;font-family:FREESTYLE SCRIPT;-inkscape-font-specification:FREESTYLE SCRIPT"
         x="233.61243"
         y="1000.8651"
         id="tspan21030">t</tspan>
    </text>
    <text
       style="font-size:9.34132862px"
       y="1000.8651"
       x="240.45499"
       id="text21032">
      <tspan
         style="font-size:28.02398682px;font-variant:normal;font-weight:normal;writing-mode:lr-tb;fill:#ea700d;fill-opacity:1;fill-rule:nonzero;stroke:none;font-family:FREESTYLE SCRIPT;-inkscape-font-specification:FREESTYLE SCRIPT"
         x="240.45499"
         y="1000.8651"
         id="tspan21034">)</tspan>
    </text>
    <text
       style="font-size:8.18682289px"
       y="994.9408"
       x="57.069977"
       id="text21036">
      <tspan
         style="font-size:24.56047058px;font-variant:normal;font-weight:normal;writing-mode:lr-tb;fill:#ea700d;fill-opacity:1;fill-rule:nonzero;stroke:none;font-family:FREESTYLE SCRIPT;-inkscape-font-specification:FREESTYLE SCRIPT"
         x="57.069977"
         y="994.9408"
         id="tspan21038">U</tspan>
    </text>
    <text
       style="font-size:8.18682289px"
       y="994.9408"
       x="69.841454"
       id="text21040">
      <tspan
         style="font-size:24.56047058px;font-variant:normal;font-weight:normal;writing-mode:lr-tb;fill:#ea700d;fill-opacity:1;fill-rule:nonzero;stroke:none;font-family:FREESTYLE SCRIPT;-inkscape-font-specification:FREESTYLE SCRIPT"
         x="69.841454"
         y="994.9408"
         id="tspan21042">1</tspan>
    </text>
    <text
       style="font-size:8.18682289px"
       y="994.9408"
       x="78.232948"
       id="text21044">
      <tspan
         style="font-size:24.56047058px;font-variant:normal;font-weight:normal;writing-mode:lr-tb;fill:#ea700d;fill-opacity:1;fill-rule:nonzero;stroke:none;font-family:FREESTYLE SCRIPT;-inkscape-font-specification:FREESTYLE SCRIPT"
         x="78.232948"
         y="994.9408"
         id="tspan21046">(</tspan>
    </text>
    <text
       style="font-size:8.18682289px"
       y="994.9408"
       x="87.013306"
       id="text21048">
      <tspan
         style="font-size:24.56047058px;font-variant:normal;font-weight:normal;writing-mode:lr-tb;fill:#ea700d;fill-opacity:1;fill-rule:nonzero;stroke:none;font-family:FREESTYLE SCRIPT;-inkscape-font-specification:FREESTYLE SCRIPT"
         x="87.013306"
         y="994.9408"
         id="tspan21050">t</tspan>
    </text>
    <text
       style="font-size:8.18682289px"
       y="994.9408"
       x="93.010147"
       id="text21052">
      <tspan
         style="font-size:24.56047058px;font-variant:normal;font-weight:normal;writing-mode:lr-tb;fill:#ea700d;fill-opacity:1;fill-rule:nonzero;stroke:none;font-family:FREESTYLE SCRIPT;-inkscape-font-specification:FREESTYLE SCRIPT"
         x="93.010147"
         y="994.9408"
         id="tspan21054">)</tspan>
    </text>
    <text
       style="font-size:8.86195183px"
       y="998.09595"
       x="418.54135"
       id="text21056">
      <tspan
         style="font-size:26.58585548px;font-variant:normal;font-weight:normal;writing-mode:lr-tb;fill:#ea700d;fill-opacity:1;fill-rule:nonzero;stroke:none;font-family:FREESTYLE SCRIPT;-inkscape-font-specification:FREESTYLE SCRIPT"
         x="418.54135"
         y="998.09595"
         id="tspan21058">U</tspan>
    </text>
    <text
       style="font-size:8.86195183px"
       y="998.09595"
       x="432.36603"
       id="text21060">
      <tspan
         style="font-size:26.58585548px;font-variant:normal;font-weight:normal;writing-mode:lr-tb;fill:#ea700d;fill-opacity:1;fill-rule:nonzero;stroke:none;font-family:FREESTYLE SCRIPT;-inkscape-font-specification:FREESTYLE SCRIPT"
         x="432.36603"
         y="998.09595"
         id="tspan21062">3</tspan>
    </text>
    <text
       style="font-size:8.86195183px"
       y="998.09595"
       x="441.44958"
       id="text21064">
      <tspan
         style="font-size:26.58585548px;font-variant:normal;font-weight:normal;writing-mode:lr-tb;fill:#ea700d;fill-opacity:1;fill-rule:nonzero;stroke:none;font-family:FREESTYLE SCRIPT;-inkscape-font-specification:FREESTYLE SCRIPT"
         x="441.44958"
         y="998.09595"
         id="tspan21066">(</tspan>
    </text>
    <text
       style="font-size:8.86195183px"
       y="998.09595"
       x="450.95401"
       id="text21068">
      <tspan
         style="font-size:26.58585548px;font-variant:normal;font-weight:normal;writing-mode:lr-tb;fill:#ea700d;fill-opacity:1;fill-rule:nonzero;stroke:none;font-family:FREESTYLE SCRIPT;-inkscape-font-specification:FREESTYLE SCRIPT"
         x="450.95401"
         y="998.09595"
         id="tspan21070">t</tspan>
    </text>
    <text
       style="font-size:8.86195183px"
       y="998.09595"
       x="457.44531"
       id="text21072">
      <tspan
         style="font-size:26.58585548px;font-variant:normal;font-weight:normal;writing-mode:lr-tb;fill:#ea700d;fill-opacity:1;fill-rule:nonzero;stroke:none;font-family:FREESTYLE SCRIPT;-inkscape-font-specification:FREESTYLE SCRIPT"
         x="457.44531"
         y="998.09595"
         id="tspan21074">)</tspan>
    </text>
    <path
       inkscape:connector-curvature="0"
       d="m 413.51377,935.97188 0,103.64642 m -5.85297,-5.853 5.85297,5.853 5.85297,-5.853"
       style="fill:none;stroke:#923931;stroke-width:1.01430058;stroke-linecap:round;stroke-linejoin:round;stroke-miterlimit:10;stroke-opacity:1;stroke-dasharray:none"
       id="path21076" />
    <path
       inkscape:connector-curvature="0"
       d="m 24.421092,971.57746 0,34.63014 m -5.852973,-5.8531 5.852973,5.8531 5.852973,-5.8531"
       style="fill:none;stroke:#000000;stroke-width:2.02860117;stroke-linecap:round;stroke-linejoin:round;stroke-miterlimit:10;stroke-opacity:1;stroke-dasharray:none"
       id="path21078" />
    <g
       transform="matrix(0.64908226,0,0,-0.64908226,-1506.8367,3731.2868)"
       id="g21080">
      <text
         transform="scale(1,-1)"
         id="text21082"
         x="2518.5542"
         y="-4343.5693"
         style="font-size:14.8180027px">
        <tspan
           style="font-size:44.45401001px;font-variant:normal;font-weight:normal;writing-mode:lr-tb;fill:#000000;fill-opacity:1;fill-rule:nonzero;stroke:#000000;stroke-width:0.01764083;stroke-linecap:round;stroke-linejoin:round;stroke-miterlimit:10;stroke-opacity:1;stroke-dasharray:none;font-family:Segoe UI;-inkscape-font-specification:Segoe UI"
           x="2518.5542"
           y="-4343.5693"
           id="tspan21084">R</tspan>
      </text>
    </g>
    <g
       transform="matrix(0.89256543,0,0,-0.89256543,-2305.5489,4793.4805)"
       id="g21086">
      <text
         transform="matrix(1,0,0,-1,2885.72,4348.86)"
         id="text21088">
        <tspan
           style="font-size:36px;font-style:normal;font-variant:normal;font-weight:normal;writing-mode:lr-tb;fill:#000000;fill-opacity:1;fill-rule:nonzero;stroke:#000000;stroke-width:0.014286;stroke-linecap:round;stroke-linejoin:round;stroke-miterlimit:10;stroke-opacity:1;stroke-dasharray:none;font-family:Segoe UI;-inkscape-font-specification:Segoe UI"
           x="0"
           y="0"
           id="tspan21090">L</tspan>
      </text>
    </g>
    <g
       transform="matrix(0.99228748,0,0,-0.99228748,-2705.0949,5142.4193)"
       id="g21092">
      <text
         transform="matrix(1,0,0,-1,3051.74,4178.6)"
         id="text21094">
        <tspan
           style="font-size:36px;font-variant:normal;font-weight:normal;writing-mode:lr-tb;fill:#000000;fill-opacity:1;fill-rule:nonzero;stroke:#000000;stroke-width:0.014286;stroke-linecap:round;stroke-linejoin:round;stroke-miterlimit:10;stroke-opacity:1;stroke-dasharray:none;font-family:Segoe UI;-inkscape-font-specification:Segoe UI"
           x="0"
           y="0"
           id="tspan21096">C</tspan>
      </text>
    </g>
    <path
       inkscape:connector-curvature="0"
       d="m 248.51188,941.41484 50.23803,0"
       style="fill:none;stroke:#548bd4;stroke-width:1.01430058;stroke-linecap:round;stroke-linejoin:round;stroke-miterlimit:10;stroke-opacity:1;stroke-dasharray:none"
       id="path21098" />
    <path
       inkscape:connector-curvature="0"
       d="m 297.53054,937.02511 8.53558,4.38973 -8.53558,4.14586 0,-8.53559 z"
       style="fill:#548bd4;fill-opacity:1;fill-rule:evenodd;stroke:none"
       id="path21100" />
    <text
       style="font-size:9.06856537px"
       y="966.29535"
       x="248.30482"
       id="text21102">
      <tspan
         style="font-size:27.20569611px;font-variant:normal;font-weight:normal;writing-mode:lr-tb;fill:#548bd4;fill-opacity:1;fill-rule:nonzero;stroke:none;font-family:FREESTYLE SCRIPT;-inkscape-font-specification:FREESTYLE SCRIPT"
         x="248.30482"
         y="966.29535"
         id="tspan21104">i</tspan>
    </text>
    <text
       style="font-size:9.06856537px"
       y="970.18719"
       x="251.89438"
       id="text21106">
      <tspan
         style="font-size:17.68098068px;font-variant:normal;font-weight:normal;writing-mode:lr-tb;fill:#548bd4;fill-opacity:1;fill-rule:nonzero;stroke:none;font-family:FREESTYLE SCRIPT;-inkscape-font-specification:FREESTYLE SCRIPT"
         x="251.89438"
         y="970.18719"
         id="tspan21108">L</tspan>
    </text>
    <text
       style="font-size:9.06856537px"
       y="966.29535"
       x="257.35818"
       id="text21110">
      <tspan
         style="font-size:27.20569611px;font-variant:normal;font-weight:normal;writing-mode:lr-tb;fill:#548bd4;fill-opacity:1;fill-rule:nonzero;stroke:none;font-family:FREESTYLE SCRIPT;-inkscape-font-specification:FREESTYLE SCRIPT"
         x="257.35818"
         y="966.29535"
         id="tspan21112">(</tspan>
    </text>
    <text
       style="font-size:9.06856537px"
       y="966.29535"
       x="267.08432"
       id="text21114">
      <tspan
         style="font-size:27.20569611px;font-variant:normal;font-weight:normal;writing-mode:lr-tb;fill:#548bd4;fill-opacity:1;fill-rule:nonzero;stroke:none;font-family:FREESTYLE SCRIPT;-inkscape-font-specification:FREESTYLE SCRIPT"
         x="267.08432"
         y="966.29535"
         id="tspan21116">0</tspan>
    </text>
    <text
       style="font-size:9.06856537px"
       y="970.18719"
       x="276.37952"
       id="text21118">
      <tspan
         style="font-size:17.68098068px;font-variant:normal;font-weight:normal;writing-mode:lr-tb;fill:#548bd4;fill-opacity:1;fill-rule:nonzero;stroke:none;font-family:FREESTYLE SCRIPT;-inkscape-font-specification:FREESTYLE SCRIPT"
         x="276.37952"
         y="970.18719"
         id="tspan21120">+</tspan>
    </text>
    <text
       style="font-size:9.06856537px"
       y="966.29535"
       x="282.42523"
       id="text21122">
      <tspan
         style="font-size:27.20569611px;font-variant:normal;font-weight:normal;writing-mode:lr-tb;fill:#548bd4;fill-opacity:1;fill-rule:nonzero;stroke:none;font-family:FREESTYLE SCRIPT;-inkscape-font-specification:FREESTYLE SCRIPT"
         x="282.42523"
         y="966.29535"
         id="tspan21124">)</tspan>
    </text>
    <text
       style="font-size:8.51055813px"
       y="923.24567"
       x="186.33958"
       id="text21036-1">
      <tspan
         style="font-size:35.48746109px;font-variant:normal;font-weight:normal;writing-mode:lr-tb;fill:#ea700d;fill-opacity:1;fill-rule:nonzero;stroke:none;font-family:FREESTYLE SCRIPT;-inkscape-font-specification:FREESTYLE SCRIPT"
         x="186.33958"
         y="923.24567"
         id="tspan21038-7">A</tspan>
    </text>
    <text
       xml:space="preserve"
       style="font-size:40px;font-style:normal;font-weight:normal;line-height:125%;letter-spacing:0px;word-spacing:0px;fill:#000000;fill-opacity:1;stroke:none;font-family:Sans"
       x="239.64285"
       y="-49.642857"
       id="text3087"
       sodipodi:linespacing="125%"
       transform="translate(0,892.36218)"><tspan
         sodipodi:role="line"
         id="tspan3089"
         x="239.64285"
         y="-49.642857" /></text>
    <text
       style="font-size:8.51055813px"
       y="924.27057"
       x="364.65524"
       id="text21036-1-4">
      <tspan
         style="font-size:35.48746109px;font-variant:normal;font-weight:normal;writing-mode:lr-tb;fill:#ea700d;fill-opacity:1;fill-rule:nonzero;stroke:none;font-family:FREESTYLE SCRIPT;-inkscape-font-specification:FREESTYLE SCRIPT"
         x="364.65524"
         y="924.27057"
         id="tspan21038-7-0">B</tspan>
    </text>
  </g>
</svg>
