<?xml version="1.0" encoding="UTF-8" standalone="no"?>
<!-- Created with Inkscape (http://www.inkscape.org/) -->

<svg
   xmlns:ns0="http://www.iki.fi/pav/software/textext/"
   xmlns:dc="http://purl.org/dc/elements/1.1/"
   xmlns:cc="http://creativecommons.org/ns#"
   xmlns:rdf="http://www.w3.org/1999/02/22-rdf-syntax-ns#"
   xmlns:svg="http://www.w3.org/2000/svg"
   xmlns="http://www.w3.org/2000/svg"
   xmlns:sodipodi="http://sodipodi.sourceforge.net/DTD/sodipodi-0.dtd"
   xmlns:inkscape="http://www.inkscape.org/namespaces/inkscape"
   width="230"
   height="140"
   id="svg2"
   inkscape:label="Pozadí"
   version="1.1"
   inkscape:version="0.48.1 "
   sodipodi:docname="bicak_aprox_spoj_sig_dirac.svg">
  <sodipodi:namedview
     id="base"
     pagecolor="#ffffff"
     bordercolor="#666666"
     borderopacity="1.0"
     inkscape:pageopacity="0.0"
     inkscape:pageshadow="2"
     inkscape:zoom="4.2487894"
     inkscape:cx="69.945233"
     inkscape:cy="37.254476"
     inkscape:document-units="px"
     inkscape:current-layer="layer2"
     showgrid="false"
     inkscape:window-width="1920"
     inkscape:window-height="1200"
     inkscape:window-x="0"
     inkscape:window-y="0"
     inkscape:window-maximized="1"
     showguides="true"
     inkscape:guide-bbox="true" />
  <defs
     id="defs3">
    <marker
       inkscape:stockid="Arrow2Mstart"
       orient="auto"
       refY="0"
       refX="0"
       id="Arrow2Mstart"
       style="overflow:visible">
      <path
         id="path4996"
         style="font-size:12px;fill-rule:evenodd;stroke-width:0.625;stroke-linejoin:round"
         d="M 8.7185878,4.0337352 -2.2072895,0.01601326 8.7185884,-4.0017078 c -1.7454984,2.3720609 -1.7354408,5.6174519 -6e-7,8.035443 z"
         transform="scale(0.6,0.6)"
         inkscape:connector-curvature="0" />
    </marker>
    <marker
       inkscape:stockid="Arrow2Lstart"
       orient="auto"
       refY="0"
       refX="0"
       id="Arrow2Lstart"
       style="overflow:visible">
      <path
         id="path4990"
         style="font-size:12px;fill-rule:evenodd;stroke-width:0.625;stroke-linejoin:round"
         d="M 8.7185878,4.0337352 -2.2072895,0.01601326 8.7185884,-4.0017078 c -1.7454984,2.3720609 -1.7354408,5.6174519 -6e-7,8.035443 z"
         transform="matrix(1.1,0,0,1.1,1.1,0)"
         inkscape:connector-curvature="0" />
    </marker>
    <marker
       inkscape:stockid="Arrow1Lend"
       orient="auto"
       refY="0"
       refX="0"
       id="Arrow1Lend"
       style="overflow:visible">
      <path
         id="path4975"
         d="M 0,0 5,-5 -12.5,0 5,5 0,0 z"
         style="fill-rule:evenodd;stroke:#000000;stroke-width:1pt;marker-start:none"
         transform="matrix(-0.8,0,0,-0.8,-10,0)"
         inkscape:connector-curvature="0" />
    </marker>
    <inkscape:path-effect
       effect="spiro"
       id="path-effect2990"
       is_visible="true" />
    <inkscape:path-effect
       effect="spiro"
       id="path-effect2986"
       is_visible="true" />
    <inkscape:path-effect
       effect="spiro"
       id="path-effect2990-1"
       is_visible="true" />
    <inkscape:path-effect
       effect="spiro"
       id="path-effect2986-7"
       is_visible="true" />
    <marker
       inkscape:stockid="Arrow2Mstart"
       orient="auto"
       refY="0"
       refX="0"
       id="Arrow2Mstart-9"
       style="overflow:visible">
      <path
         inkscape:connector-curvature="0"
         id="path4996-1"
         style="font-size:12px;fill-rule:evenodd;stroke-width:0.625;stroke-linejoin:round"
         d="M 8.7185878,4.0337352 -2.2072895,0.01601326 8.7185884,-4.0017078 c -1.7454984,2.3720609 -1.7354408,5.6174519 -6e-7,8.035443 z"
         transform="scale(0.6,0.6)" />
    </marker>
    <marker
       inkscape:stockid="Arrow2Mstart"
       orient="auto"
       refY="0"
       refX="0"
       id="Arrow2Mstart-2"
       style="overflow:visible">
      <path
         inkscape:connector-curvature="0"
         id="path4996-2"
         style="font-size:12px;fill-rule:evenodd;stroke-width:0.625;stroke-linejoin:round"
         d="M 8.7185878,4.0337352 -2.2072895,0.01601326 8.7185884,-4.0017078 c -1.7454984,2.3720609 -1.7354408,5.6174519 -6e-7,8.035443 z"
         transform="scale(0.6,0.6)" />
    </marker>
    <marker
       inkscape:stockid="Arrow2Mstart"
       orient="auto"
       refY="0"
       refX="0"
       id="Arrow2Mstart-0"
       style="overflow:visible">
      <path
         inkscape:connector-curvature="0"
         id="path4996-0"
         style="font-size:12px;fill-rule:evenodd;stroke-width:0.625;stroke-linejoin:round"
         d="M 8.7185878,4.0337352 -2.2072895,0.01601326 8.7185884,-4.0017078 c -1.7454984,2.3720609 -1.7354408,5.6174519 -6e-7,8.035443 z"
         transform="scale(0.6,0.6)" />
    </marker>
    <marker
       inkscape:stockid="Arrow2Mstart"
       orient="auto"
       refY="0"
       refX="0"
       id="Arrow2Mstart-4"
       style="overflow:visible">
      <path
         inkscape:connector-curvature="0"
         id="path4996-11"
         style="font-size:12px;fill-rule:evenodd;stroke-width:0.625;stroke-linejoin:round"
         d="M 8.7185878,4.0337352 -2.2072895,0.01601326 8.7185884,-4.0017078 c -1.7454984,2.3720609 -1.7354408,5.6174519 -6e-7,8.035443 z"
         transform="scale(0.6,0.6)" />
    </marker>
    <marker
       inkscape:stockid="Arrow2Mstart"
       orient="auto"
       refY="0"
       refX="0"
       id="marker6117"
       style="overflow:visible">
      <path
         inkscape:connector-curvature="0"
         id="path6119"
         style="font-size:12px;fill-rule:evenodd;stroke-width:0.625;stroke-linejoin:round"
         d="M 8.7185878,4.0337352 -2.2072895,0.01601326 8.7185884,-4.0017078 c -1.7454984,2.3720609 -1.7354408,5.6174519 -6e-7,8.035443 z"
         transform="scale(0.6,0.6)" />
    </marker>
    <inkscape:path-effect
       effect="spiro"
       id="path-effect2990-4"
       is_visible="true" />
    <inkscape:path-effect
       effect="spiro"
       id="path-effect2986-9"
       is_visible="true" />
  </defs>
  <metadata
     id="metadata6">
    <rdf:RDF>
      <cc:Work
         rdf:about="">
        <dc:format>image/svg+xml</dc:format>
        <dc:type
           rdf:resource="http://purl.org/dc/dcmitype/StillImage" />
        <dc:title></dc:title>
      </cc:Work>
    </rdf:RDF>
  </metadata>
  <g
     inkscape:groupmode="layer"
     id="layer3"
     inkscape:label="axes"
     style="display:inline"
     transform="translate(0,20)">
    <path
       style="fill:none;stroke:#000000;stroke-width:1px;stroke-linecap:butt;stroke-linejoin:miter;stroke-opacity:1;display:inline"
       d="m 20.560336,58.283755 122.887694,-0.062"
       id="path2984"
       inkscape:path-effect="#path-effect2986-9"
       inkscape:original-d="m 20.560336,58.283755 122.887694,-0.062"
       inkscape:connector-curvature="0" />
    <path
       style="fill:none;stroke:#000000;stroke-width:1px;stroke-linecap:butt;stroke-linejoin:miter;stroke-opacity:1;display:inline"
       d="m 20.314347,2.7505696 0,96.5775094"
       id="path2988"
       inkscape:path-effect="#path-effect2990-4"
       inkscape:original-d="m 20.314347,2.7505696 0,96.5775094"
       inkscape:connector-curvature="0" />
    <path
       style="fill:none;stroke:#000000;stroke-width:1.00010002;stroke-linecap:butt;stroke-linejoin:miter;stroke-miterlimit:4;stroke-opacity:1;stroke-dasharray:none;marker-start:url(#Arrow2Mstart);display:inline"
       d="m 15.301887,-5.3567504 0,21.9681604"
       id="path4967"
       inkscape:connector-curvature="0" />
    <path
       style="fill:none;stroke:#000000;stroke-width:1.00010002;stroke-linecap:butt;stroke-linejoin:miter;stroke-miterlimit:4;stroke-opacity:1;stroke-dasharray:none;marker-start:url(#Arrow2Mstart);display:inline"
       d="m 149.70297,63.88998 -21.96816,0"
       id="path4967-8"
       inkscape:connector-curvature="0" />
  </g>
  <g
     inkscape:groupmode="layer"
     id="layer2"
     inkscape:label="curve"
     style="display:inline"
     transform="translate(0,20)">
    <path
       style="fill:none;stroke:#1d20a5;stroke-width:1.5;stroke-linecap:butt;stroke-linejoin:miter;stroke-miterlimit:4;stroke-opacity:1;stroke-dasharray:none"
       d="m 20.677494,58.327211 c 23.77097,-125.736502 30.46966,32.203198 46.20321,32.566798 11.73836,0.2713 20.65321,-51.684959 32.246001,-51.657739 12.484065,0.0293 5.095225,16.268641 36.417105,18.128341"
       id="path3789-3"
       inkscape:connector-curvature="0"
       sodipodi:nodetypes="cssc" />
    <g
       style="font-style:normal;font-variant:normal;font-weight:normal;font-stretch:normal;letter-spacing:normal;word-spacing:normal;text-anchor:start;fill:none;stroke:#000000;stroke-width:2.04966092;stroke-linecap:butt;stroke-linejoin:miter;stroke-miterlimit:10.43299961;stroke-opacity:1;stroke-dasharray:none;stroke-dashoffset:0"
       id="content"
       transform="matrix(1.7379062,0,0,-2.1914401,-253.92838,1629.752)"
       xml:space="preserve"
       stroke-miterlimit="10.433"
       font-style="normal"
       font-variant="normal"
       font-weight="normal"
       font-stretch="normal"
       font-size-adjust="none"
       letter-spacing="normal"
       word-spacing="normal"
       ns0:text="$t$\n"
       ns0:preamble="">
<path
   style="fill:#000000;stroke-width:0"
   inkscape:connector-curvature="0"
   d="m 225.49,711.11 h 0.93 c 0.2,0 0.3,0 0.3,0.19 0,0.11 -0.1,0.11 -0.28,0.11 h -0.87 c 0.35,1.42 0.4,1.62 0.4,1.68 0,0.17 -0.12,0.26 -0.29,0.26 -0.03,0 -0.3,-0.01 -0.39,-0.35 l -0.39,-1.59 h -0.94 c -0.2,0 -0.3,0 -0.3,-0.19 0,-0.11 0.08,-0.11 0.28,-0.11 h 0.88 c -0.72,-2.83 -0.76,-3 -0.76,-3.18 0,-0.54 0.38,-0.91 0.92,-0.91 1.01,0 1.58,1.45 1.58,1.53 0,0.1 -0.08,0.1 -0.12,0.1 -0.09,0 -0.1,-0.03 -0.15,-0.14 -0.43,-1.04 -0.95,-1.28 -1.29,-1.28 -0.21,0 -0.31,0.13 -0.31,0.46 0,0.24 0.02,0.31 0.06,0.48 z"
   id="path6186" />
</g>    <g
       style="font-style:normal;font-variant:normal;font-weight:normal;font-stretch:normal;letter-spacing:normal;word-spacing:normal;text-anchor:start;fill:none;stroke:#000000;stroke-width:2.04966092;stroke-linecap:butt;stroke-linejoin:miter;stroke-miterlimit:10.43299961;stroke-opacity:1;stroke-dasharray:none;stroke-dashoffset:0;display:inline"
       ns0:preamble=""
       ns0:text="$x$\n\n"
       word-spacing="normal"
       letter-spacing="normal"
       font-size-adjust="none"
       font-stretch="normal"
       font-weight="normal"
       font-variant="normal"
       font-style="normal"
       stroke-miterlimit="10.433"
       xml:space="preserve"
       transform="matrix(1.7379062,0,0,-2.1914401,-385.97637,1549.7243)"
       id="g6423">
<path
   id="path6425"
   d="m 226.76,710.13 0.01,0.03 0,0.03 0.01,0.03 0.01,0.04 0.01,0.03 0.01,0.05 0.02,0.04 0.01,0.04 0.02,0.05 0.02,0.05 0.02,0.05 0.02,0.05 0.02,0.05 0.02,0.05 0.03,0.05 0.03,0.04 0.03,0.05 0.03,0.05 0.03,0.05 0.04,0.04 0.03,0.04 0.04,0.04 0.04,0.04 0.05,0.04 0.04,0.03 0.05,0.03 0.03,0.01 0.02,0.01 0.03,0.02 0.03,0.01 0.03,0 0.02,0.01 0.03,0.01 0.03,0 0.03,0.01 0.03,0 0.04,0 0.03,0 c 0.05,0 0.29,0 0.5,-0.12 -0.28,-0.05 -0.48,-0.3 -0.48,-0.54 0,-0.16 0.11,-0.35 0.38,-0.35 0.22,0 0.53,0.18 0.53,0.58 0,0.52 -0.58,0.65 -0.92,0.65 -0.58,0 -0.93,-0.52 -1.05,-0.75 -0.25,0.65 -0.79,0.75 -1.08,0.75 -1.03,0 -1.6,-1.28 -1.6,-1.53 0,-0.1 0.1,-0.1 0.12,-0.1 0.08,0 0.11,0.02 0.13,0.11 0.34,1.06 1,1.3 1.34,1.3 0.18,0 0.53,-0.08 0.53,-0.66 0,-0.31 -0.17,-0.98 -0.53,-2.37 -0.16,-0.62 -0.51,-1.04 -0.95,-1.04 -0.06,0 -0.29,0 -0.5,0.13 0.25,0.05 0.47,0.26 0.47,0.54 0,0.27 -0.22,0.35 -0.37,0.35 -0.3,0 -0.55,-0.26 -0.55,-0.58 0,-0.45 0.5,-0.65 0.94,-0.65 0.66,0 1.02,0.69 1.05,0.75 0.11,-0.37 0.47,-0.75 1.07,-0.75 1.03,0 1.6,1.28 1.6,1.53 0,0.1 -0.09,0.1 -0.12,0.1 -0.09,0 -0.11,-0.04 -0.13,-0.11 -0.33,-1.07 -1.01,-1.31 -1.33,-1.31 -0.39,0 -0.55,0.32 -0.55,0.66 0,0.22 0.06,0.44 0.17,0.88 z"
   inkscape:connector-curvature="0"
   style="fill:#000000;stroke-width:0" />
</g>    <g
       id="g6666"
       transform="matrix(1.7379062,0,0,-2.1914401,-219.64772,1549.5498)"
       xml:space="preserve"
       stroke-miterlimit="10.433"
       font-style="normal"
       font-variant="normal"
       font-weight="normal"
       font-stretch="normal"
       font-size-adjust="none"
       letter-spacing="normal"
       word-spacing="normal"
       ns0:text="$\\delta_\\epsilon$\n\n\n"
       ns0:preamble=""
       style="font-style:normal;font-variant:normal;font-weight:normal;font-stretch:normal;letter-spacing:normal;word-spacing:normal;text-anchor:start;fill:none;stroke:#000000;stroke-width:2.04966092;stroke-linecap:butt;stroke-linejoin:miter;stroke-miterlimit:10.43299961;stroke-opacity:1;stroke-dasharray:none;stroke-dashoffset:0;display:inline">
<path
   d="m 226.06,711.47 -0.11,-0.03 -0.12,-0.03 -0.11,-0.05 -0.11,-0.04 -0.11,-0.05 -0.1,-0.06 -0.11,-0.06 -0.1,-0.07 -0.1,-0.07 -0.09,-0.07 -0.09,-0.08 -0.09,-0.08 -0.09,-0.09 -0.08,-0.09 -0.08,-0.09 -0.08,-0.09 -0.07,-0.1 -0.07,-0.1 -0.07,-0.1 -0.06,-0.11 -0.05,-0.1 -0.06,-0.11 -0.04,-0.11 -0.05,-0.11 -0.04,-0.11 -0.03,-0.11 -0.03,-0.12 -0.03,-0.11 -0.01,-0.11 -0.02,-0.12 -0.01,-0.11 0,-0.11 c 0,-0.96 0.64,-1.67 1.58,-1.67 v 0.21 c -0.55,0 -0.96,0.42 -0.96,1.18 0,0.63 0.37,2.5 1.71,2.86 h 0 c 0.25,-0.46 0.55,-1 0.55,-1.72 0,-0.65 -0.38,-2.32 -1.3,-2.32 v -0.21 c 1.16,0 1.99,1.56 1.99,2.93 0,0.91 -0.4,1.4 -0.74,1.85 -0.36,0.45 -0.94,1.2 -0.94,1.63 0,0.22 0.19,0.46 0.54,0.46 0.3,0 0.5,-0.13 0.71,-0.27 0.2,-0.12 0.4,-0.25 0.55,-0.25 0.25,0 0.4,0.24 0.4,0.4 0,0.22 -0.16,0.25 -0.52,0.33 -0.52,0.11 -0.66,0.11 -0.82,0.11 -0.78,0 -1.13,-0.43 -1.13,-1.02 0,-0.54 0.29,-1.1 0.59,-1.71 z"
   id="path6668"
   inkscape:connector-curvature="0"
   style="fill:#000000;stroke-width:0" />
<path
   d="m 230.29,707.19 0.02,0 0.02,0 0.02,0 0.01,0 0.01,0 0.01,0 0.01,0 0.01,0 0.01,0.01 0.01,0 0.01,0 0.01,0 0.01,0 0.01,0.01 0,0 0.01,0.01 0.01,0 0.01,0.01 0,0 0.01,0.01 0,0 0.01,0.01 0,0 0,0.01 0,0 0.01,0 0,0.01 0,0 0,0.01 0,0 0,0.01 0,0 0.01,0.01 0,0 0,0.01 0,0 0,0.01 c 0,0.12 -0.11,0.12 -0.24,0.12 h -1.25 c 0.21,0.63 0.67,0.94 1.28,0.94 h 0.26 c 0.12,0 0.25,0 0.25,0.13 0,0.12 -0.1,0.12 -0.23,0.12 h -0.3 c -0.93,0 -1.97,-0.65 -1.97,-1.71 0,-0.81 0.62,-1.36 1.43,-1.36 0.21,0 0.5,0.04 0.87,0.24 0.14,0.08 0.16,0.1 0.16,0.14 0,0.03 0,0.14 -0.11,0.14 -0.03,0 -0.04,0 -0.08,-0.03 -0.25,-0.16 -0.54,-0.29 -0.83,-0.29 -0.27,0 -0.85,0.14 -0.85,0.93 0,0.09 0,0.23 0.06,0.5 z"
   id="path6670"
   inkscape:connector-curvature="0"
   style="fill:#000000;stroke-width:0" />
</g>    <g
       style="font-style:normal;font-variant:normal;font-weight:normal;font-stretch:normal;letter-spacing:normal;word-spacing:normal;text-anchor:start;fill:none;stroke:#000000;stroke-width:2.04966092;stroke-linecap:butt;stroke-linejoin:miter;stroke-miterlimit:10.43299961;stroke-opacity:1;stroke-dasharray:none;stroke-dashoffset:0;display:inline"
       ns0:preamble=""
       ns0:text="$\\frac{1}{\\epsilon}$\n\n\n\n"
       word-spacing="normal"
       letter-spacing="normal"
       font-size-adjust="none"
       font-stretch="normal"
       font-weight="normal"
       font-variant="normal"
       font-style="normal"
       stroke-miterlimit="10.433"
       xml:space="preserve"
       transform="matrix(1.7379062,0,0,-2.1914401,-194.14993,1563.0148)"
       id="g6920">
<path
   id="path6922"
   d="m 226.96,715.47 0,0.01 0,0.01 0,0.01 0,0 0,0.01 0,0.01 0,0.01 0,0 0,0.01 0,0.01 0,0 0,0.01 0,0 0,0.01 0,0 0,0.01 -0.01,0 0,0.01 0,0.01 0,0.01 0,0 -0.01,0.01 0,0.01 -0.01,0 0,0.01 -0.01,0 0,0.01 -0.01,0 -0.01,0 0,0.01 -0.01,0 -0.01,0 -0.01,0 0,0 -0.01,0 0,0 -0.01,0 -0.01,0 0,0 -0.01,0 -0.01,0 0,0 -0.01,0 -0.01,0 -0.01,0 0,0 -0.01,0 -0.01,0 -0.01,0 -0.01,0 c -0.44,-0.43 -1.08,-0.44 -1.36,-0.44 v -0.25 c 0.16,0 0.62,0 1.01,0.19 v -3.54 c 0,-0.23 0,-0.32 -0.7,-0.32 h -0.26 v -0.25 c 0.12,0 0.98,0.03 1.24,0.03 0.21,0 1.09,-0.03 1.24,-0.03 v 0.25 h -0.26 c -0.7,0 -0.7,0.09 -0.7,0.32 z"
   inkscape:connector-curvature="0"
   style="fill:#000000;stroke-width:0" />
<line
   id="line6924"
   y2="709.62"
   x2="228.60001"
   y1="709.62"
   x1="224.63"
   style="stroke-width:0.398" />
<path
   id="path6926"
   d="m 227.38,705.25 0.02,0 0.02,0 0.02,0 0.01,0 0.01,0 0.01,0 0.01,0 0.01,0 0.01,0 0.01,0.01 0.01,0 0.01,0 0.01,0 0.01,0.01 0.01,0 0.01,0 0,0.01 0.01,0 0.01,0.01 0,0.01 0.01,0 0,0.01 0,0 0,0 0.01,0.01 0,0 0,0.01 0,0 0,0.01 0.01,0 0,0.01 0,0 0,0.01 0,0 0,0.01 0,0 0,0.01 c 0,0.12 -0.1,0.12 -0.24,0.12 h -1.24 c 0.21,0.63 0.66,0.94 1.27,0.94 h 0.27 c 0.11,0 0.24,0 0.24,0.13 0,0.12 -0.1,0.12 -0.23,0.12 h -0.3 c -0.93,0 -1.96,-0.65 -1.96,-1.71 0,-0.81 0.62,-1.36 1.42,-1.36 0.21,0 0.51,0.04 0.88,0.24 0.13,0.08 0.15,0.1 0.15,0.14 0,0.02 0,0.14 -0.11,0.14 -0.02,0 -0.04,0 -0.08,-0.03 -0.24,-0.16 -0.54,-0.29 -0.82,-0.29 -0.28,0 -0.86,0.13 -0.86,0.93 0,0.09 0,0.23 0.06,0.5 z"
   inkscape:connector-curvature="0"
   style="fill:#000000;stroke-width:0" />
</g>    <g
       id="g7187"
       transform="matrix(1.7379062,0,0,-2.1914401,-226.52091,1627.582)"
       xml:space="preserve"
       stroke-miterlimit="10.433"
       font-style="normal"
       font-variant="normal"
       font-weight="normal"
       font-stretch="normal"
       font-size-adjust="none"
       letter-spacing="normal"
       word-spacing="normal"
       ns0:text="$-\\frac{\\epsilon}{2}$\n\n\n\n\n"
       ns0:preamble=""
       style="font-style:normal;font-variant:normal;font-weight:normal;font-stretch:normal;letter-spacing:normal;word-spacing:normal;text-anchor:start;fill:none;stroke:#000000;stroke-width:2.04966092;stroke-linecap:butt;stroke-linejoin:miter;stroke-miterlimit:10.43299961;stroke-opacity:1;stroke-dasharray:none;stroke-dashoffset:0;display:inline">
<path
   style="fill:#000000;stroke-width:0"
   inkscape:connector-curvature="0"
   d="m 230,709.41 0.03,0 0.03,0 0.04,0.01 0.01,0 0.02,0 0.01,0 0.02,0 0.01,0 0.02,0 0.01,0.01 0.01,0 0.02,0 0.01,0.01 0.01,0 0.01,0.01 0.01,0.01 0.01,0 0.01,0.01 0.01,0.01 0.01,0.01 0.01,0.01 0,0 0.01,0.01 0,0 0,0.01 0.01,0.01 0,0 0,0.01 0,0.01 0,0 0.01,0.01 0,0.01 0,0.01 0,0.01 0,0 0,0.01 0,0.01 c 0,0.2 -0.18,0.2 -0.35,0.2 h -5.39 c -0.17,0 -0.35,0 -0.35,-0.2 0,-0.2 0.18,-0.2 0.35,-0.2 z"
   id="path7189" />
<path
   style="fill:#000000;stroke-width:0"
   inkscape:connector-curvature="0"
   d="m 235.13,712.6 0.02,0.01 0.02,0 0.02,0 0.01,0 0.01,0 0.01,0 0.01,0 0.01,0 0.01,0 0.01,0 0.01,0.01 0.01,0 0.01,0 0.01,0 0.01,0.01 0,0 0.01,0.01 0.01,0 0.01,0.01 0,0 0.01,0.01 0,0 0,0.01 0,0 0.01,0.01 0,0 0,0 0,0.01 0,0 0,0.01 0.01,0 0,0.01 0,0 0,0.01 0,0.01 0,0 0,0.01 c 0,0.12 -0.11,0.12 -0.24,0.12 h -1.24 c 0.21,0.63 0.66,0.93 1.27,0.93 h 0.27 c 0.11,0 0.24,0 0.24,0.14 0,0.11 -0.1,0.11 -0.23,0.11 h -0.3 c -0.93,0 -1.96,-0.64 -1.96,-1.7 0,-0.81 0.61,-1.36 1.42,-1.36 0.21,0 0.5,0.03 0.87,0.24 0.14,0.08 0.16,0.1 0.16,0.14 0,0.02 0,0.14 -0.11,0.14 -0.03,0 -0.04,-0.01 -0.08,-0.03 -0.24,-0.17 -0.54,-0.3 -0.82,-0.3 -0.28,0 -0.86,0.14 -0.86,0.93 0,0.1 0,0.24 0.06,0.5 z"
   id="path7191" />
<line
   style="stroke-width:0.398"
   x1="232.38"
   y1="709.62"
   x2="236.35001"
   y2="709.62"
   id="line7193" />
<path
   style="fill:#000000;stroke-width:0"
   inkscape:connector-curvature="0"
   d="m 235.89,704.96 h -0.23 c -0.03,-0.16 -0.09,-0.57 -0.18,-0.64 -0.06,-0.04 -0.6,-0.04 -0.69,-0.04 h -1.29 c 0.74,0.65 0.98,0.84 1.4,1.17 0.51,0.41 0.99,0.84 0.99,1.5 0,0.84 -0.74,1.36 -1.63,1.36 -0.86,0 -1.44,-0.61 -1.44,-1.25 0,-0.35 0.29,-0.39 0.36,-0.39 0.17,0 0.37,0.12 0.37,0.37 0,0.13 -0.05,0.37 -0.41,0.37 0.22,0.49 0.69,0.65 1.02,0.65 0.69,0 1.06,-0.55 1.06,-1.11 0,-0.6 -0.43,-1.08 -0.66,-1.33 l -1.68,-1.66 c -0.06,-0.06 -0.06,-0.07 -0.06,-0.27 h 2.86 z"
   id="path7195" />
</g>    <g
       style="font-style:normal;font-variant:normal;font-weight:normal;font-stretch:normal;letter-spacing:normal;word-spacing:normal;text-anchor:start;fill:none;stroke:#000000;stroke-width:2.04966092;stroke-linecap:butt;stroke-linejoin:miter;stroke-miterlimit:10.43299961;stroke-opacity:1;stroke-dasharray:none;stroke-dashoffset:0;display:inline"
       ns0:preamble=""
       ns0:text="$\\frac{\\epsilon}{2}$\n\n\n\n\n\n"
       word-spacing="normal"
       letter-spacing="normal"
       font-size-adjust="none"
       font-stretch="normal"
       font-weight="normal"
       font-variant="normal"
       font-style="normal"
       stroke-miterlimit="10.433"
       xml:space="preserve"
       transform="matrix(1.7379062,0,0,-2.1914401,-199.48976,1627.7143)"
       id="g7469">
<path
   id="path7471"
   d="m 227.38,712.6 0.02,0.01 0.02,0 0.02,0 0.01,0 0.01,0 0.01,0 0.01,0 0.01,0 0.01,0 0.01,0 0.01,0.01 0.01,0 0.01,0 0.01,0 0.01,0.01 0.01,0 0,0.01 0.01,0 0.01,0.01 0,0 0.01,0.01 0,0 0,0.01 0,0 0.01,0.01 0,0 0,0 0,0.01 0,0 0.01,0.01 0,0 0,0.01 0,0 0,0.01 0,0.01 0,0 0,0.01 c 0,0.12 -0.1,0.12 -0.24,0.12 h -1.24 c 0.21,0.63 0.66,0.93 1.27,0.93 h 0.27 c 0.11,0 0.24,0 0.24,0.14 0,0.11 -0.1,0.11 -0.23,0.11 h -0.3 c -0.93,0 -1.96,-0.64 -1.96,-1.7 0,-0.81 0.62,-1.36 1.42,-1.36 0.21,0 0.51,0.03 0.88,0.24 0.13,0.08 0.15,0.1 0.15,0.14 0,0.02 0,0.14 -0.11,0.14 -0.02,0 -0.04,-0.01 -0.08,-0.03 -0.24,-0.17 -0.54,-0.3 -0.82,-0.3 -0.28,0 -0.86,0.14 -0.86,0.93 0,0.1 0,0.24 0.06,0.5 z"
   inkscape:connector-curvature="0"
   style="fill:#000000;stroke-width:0" />
<line
   id="line7473"
   y2="709.62"
   x2="228.60001"
   y1="709.62"
   x1="224.63"
   style="stroke-width:0.398" />
<path
   id="path7475"
   d="m 228.15,704.96 h -0.24 c -0.02,-0.16 -0.09,-0.57 -0.18,-0.64 -0.06,-0.04 -0.6,-0.04 -0.69,-0.04 h -1.28 c 0.73,0.65 0.97,0.84 1.39,1.17 0.51,0.41 1,0.84 1,1.5 0,0.84 -0.74,1.36 -1.64,1.36 -0.86,0 -1.44,-0.61 -1.44,-1.25 0,-0.35 0.3,-0.39 0.37,-0.39 0.16,0 0.36,0.12 0.36,0.37 0,0.13 -0.04,0.37 -0.41,0.37 0.22,0.49 0.69,0.65 1.02,0.65 0.7,0 1.06,-0.55 1.06,-1.11 0,-0.6 -0.43,-1.08 -0.65,-1.33 l -1.68,-1.66 c -0.07,-0.06 -0.07,-0.07 -0.07,-0.27 h 2.87 z"
   inkscape:connector-curvature="0"
   style="fill:#000000;stroke-width:0" />
</g>    <g
       style="font-style:normal;font-variant:normal;font-weight:normal;font-stretch:normal;letter-spacing:normal;word-spacing:normal;text-anchor:start;fill:none;stroke:#000000;stroke-width:2.04966092;stroke-linecap:butt;stroke-linejoin:miter;stroke-miterlimit:10.43299961;stroke-opacity:1;stroke-dasharray:none;stroke-dashoffset:0;display:inline"
       id="content-3"
       transform="matrix(1.7379062,0,0,-2.1914401,-170.95466,1629.1092)"
       xml:space="preserve"
       stroke-miterlimit="10.433"
       font-style="normal"
       font-variant="normal"
       font-weight="normal"
       font-stretch="normal"
       font-size-adjust="none"
       letter-spacing="normal"
       word-spacing="normal"
       ns0:text="$t$\n"
       ns0:preamble="">
<path
   style="fill:#000000;stroke-width:0"
   inkscape:connector-curvature="0"
   d="m 225.49,711.11 h 0.93 c 0.2,0 0.3,0 0.3,0.19 0,0.11 -0.1,0.11 -0.28,0.11 h -0.87 c 0.35,1.42 0.4,1.62 0.4,1.68 0,0.17 -0.12,0.26 -0.29,0.26 -0.03,0 -0.3,-0.01 -0.39,-0.35 l -0.39,-1.59 h -0.94 c -0.2,0 -0.3,0 -0.3,-0.19 0,-0.11 0.08,-0.11 0.28,-0.11 h 0.88 c -0.72,-2.83 -0.76,-3 -0.76,-3.18 0,-0.54 0.38,-0.91 0.92,-0.91 1.01,0 1.58,1.45 1.58,1.53 0,0.1 -0.08,0.1 -0.12,0.1 -0.09,0 -0.1,-0.03 -0.15,-0.14 -0.43,-1.04 -0.95,-1.28 -1.29,-1.28 -0.21,0 -0.31,0.13 -0.31,0.46 0,0.24 0.02,0.31 0.06,0.48 z"
   id="path6186-4" />
</g>    <text
       xml:space="preserve"
       style="font-size:40px;font-style:normal;font-variant:normal;font-weight:normal;font-stretch:normal;text-align:start;line-height:125%;letter-spacing:0px;word-spacing:0px;writing-mode:lr-tb;text-anchor:start;fill:#000000;fill-opacity:1;stroke:none;font-family:Freestyle Script;-inkscape-font-specification:Freestyle Script"
       x="60.017097"
       y="114.82204"
       id="text7695"
       sodipodi:linespacing="125%"><tspan
         sodipodi:role="line"
         id="tspan7697"
         x="60.017097"
         y="114.82204"
         style="font-size:20px">a)</tspan></text>
    <text
       xml:space="preserve"
       style="font-size:40px;font-style:normal;font-variant:normal;font-weight:normal;font-stretch:normal;text-align:start;line-height:125%;letter-spacing:0px;word-spacing:0px;writing-mode:lr-tb;text-anchor:start;fill:#000000;fill-opacity:1;stroke:none;font-family:Freestyle Script;-inkscape-font-specification:Freestyle Script"
       x="180.522"
       y="115.29278"
       id="text7699"
       sodipodi:linespacing="125%"><tspan
         sodipodi:role="line"
         id="tspan7701"
         x="180.522"
         y="115.29278"
         style="font-size:20px;font-weight:normal;-inkscape-font-specification:Freestyle Script">b)</tspan></text>
  </g>
  <g
     inkscape:label="Vrstva 1"
     inkscape:groupmode="layer"
     id="layer1"
     transform="translate(0,-912.36218)"
     style="display:inline">
    <path
       style="fill:none;stroke:#000000;stroke-width:1px;stroke-linecap:butt;stroke-linejoin:miter;stroke-opacity:1"
       d="m 158.01043,991.01517 58.07486,-0.062"
       id="path2984-4"
       inkscape:path-effect="#path-effect2986-7"
       inkscape:original-d="m 158.01043,991.01517 58.07486,-0.062"
       inkscape:connector-curvature="0" />
    <path
       style="fill:none;stroke:#000000;stroke-width:1px;stroke-linecap:butt;stroke-linejoin:miter;stroke-opacity:1"
       d="m 187.76444,935.31556 0,96.57754"
       id="path2988-0"
       inkscape:path-effect="#path-effect2990-1"
       inkscape:original-d="m 187.76444,935.31556 0,96.57754"
       inkscape:connector-curvature="0" />
    <path
       style="fill:none;stroke:#00b200;stroke-width:1px;stroke-linecap:butt;stroke-linejoin:miter;stroke-opacity:1"
       d="m 23.236748,976.53802 3.247417,0"
       id="path3793"
       inkscape:connector-curvature="0" />
    <path
       style="fill:none;stroke:#00b200;stroke-width:1px;stroke-linecap:butt;stroke-linejoin:miter;stroke-opacity:1"
       d="m 23.774441,976.83846 0.02066,14.01951"
       id="path3795"
       inkscape:connector-curvature="0" />
    <path
       style="fill:none;stroke:#00b200;stroke-width:1px;stroke-linecap:butt;stroke-linejoin:miter;stroke-opacity:1"
       d="m 26.917428,964.24743 0.02066,12.82623"
       id="path3795-6"
       inkscape:connector-curvature="0" />
    <path
       style="fill:none;stroke:#00b200;stroke-width:1px;stroke-linecap:butt;stroke-linejoin:miter;stroke-opacity:1"
       d="m 26.408903,963.85506 3.247417,0"
       id="path3793-6"
       inkscape:connector-curvature="0" />
    <path
       style="fill:none;stroke:#00b200;stroke-width:1px;stroke-linecap:butt;stroke-linejoin:miter;stroke-opacity:1"
       d="m 30.143604,953.50867 0.02066,10.8375"
       id="path3795-6-5"
       inkscape:connector-curvature="0" />
    <path
       style="fill:none;stroke:#00b200;stroke-width:1px;stroke-linecap:butt;stroke-linejoin:miter;stroke-opacity:1"
       d="m 29.590884,953.07168 3.247417,0"
       id="path3793-6-7"
       inkscape:connector-curvature="0" />
    <path
       style="fill:none;stroke:#00b200;stroke-width:1px;stroke-linecap:butt;stroke-linejoin:miter;stroke-opacity:1"
       d="m 33.325583,946.24899 0.02066,7.34616"
       id="path3795-6-5-8"
       inkscape:connector-curvature="0" />
    <path
       style="fill:none;stroke:#00b200;stroke-width:1px;stroke-linecap:butt;stroke-linejoin:miter;stroke-opacity:1"
       d="m 32.817059,945.86803 3.247417,0"
       id="path3793-6-7-2"
       inkscape:connector-curvature="0" />
    <path
       style="fill:none;stroke:#00b200;stroke-width:1px;stroke-linecap:butt;stroke-linejoin:miter;stroke-opacity:1"
       d="m 36.507564,943.12303 0.02066,3.2361"
       id="path3795-6-5-8-7"
       inkscape:connector-curvature="0" />
    <path
       style="fill:none;stroke:#00b200;stroke-width:1px;stroke-linecap:butt;stroke-linejoin:miter;stroke-opacity:1"
       d="m 36.927117,943.61413 3.247417,0"
       id="path3793-6-7-2-1"
       inkscape:connector-curvature="0" />
    <path
       style="fill:none;stroke:#00b200;stroke-width:1px;stroke-linecap:butt;stroke-linejoin:miter;stroke-opacity:1"
       d="m 40.174959,944.5095 3.247417,0"
       id="path3793-6-7-2-4"
       inkscape:connector-curvature="0" />
    <path
       style="fill:none;stroke:#00b200;stroke-width:1px;stroke-linecap:butt;stroke-linejoin:miter;stroke-opacity:1"
       d="m 43.887991,944.00697 0.02066,6.32969"
       id="path3795-6-5-8-5"
       inkscape:connector-curvature="0" />
    <path
       style="fill:none;stroke:#00b200;stroke-width:1px;stroke-linecap:butt;stroke-linejoin:miter;stroke-opacity:1"
       d="m 43.423661,950.6852 3.247417,0"
       id="path3793-6-7-2-4-0"
       inkscape:connector-curvature="0" />
    <path
       style="fill:none;stroke:#00b200;stroke-width:1px;stroke-linecap:butt;stroke-linejoin:miter;stroke-opacity:1"
       d="m 46.981583,950.17195 0.02066,9.55586"
       id="path3795-6-5-8-5-1"
       inkscape:connector-curvature="0" />
    <path
       style="fill:none;stroke:#00b200;stroke-width:1px;stroke-linecap:butt;stroke-linejoin:miter;stroke-opacity:1"
       d="m 46.517253,960.09855 3.247417,0"
       id="path3793-6-7-2-4-0-8"
       inkscape:connector-curvature="0" />
    <path
       style="fill:none;stroke:#00b200;stroke-width:1px;stroke-linecap:butt;stroke-linejoin:miter;stroke-opacity:1"
       d="m 50.163563,959.60752 0.02066,13.09139"
       id="path3795-6-5-8-5-1-2"
       inkscape:connector-curvature="0" />
    <path
       style="fill:none;stroke:#00b200;stroke-width:1px;stroke-linecap:butt;stroke-linejoin:miter;stroke-opacity:1"
       d="m 49.699234,973.00325 3.247417,0"
       id="path3793-6-7-2-4-0-8-3"
       inkscape:connector-curvature="0" />
    <path
       style="fill:none;stroke:#00b200;stroke-width:1px;stroke-linecap:butt;stroke-linejoin:miter;stroke-opacity:1"
       d="m 53.433932,972.46796 0.02066,14.41721"
       id="path3795-6-5-8-5-1-2-0"
       inkscape:connector-curvature="0" />
    <path
       style="fill:none;stroke:#00b200;stroke-width:1px;stroke-linecap:butt;stroke-linejoin:miter;stroke-opacity:1"
       d="m 52.969603,987.14537 3.247417,0"
       id="path3793-6-7-2-4-0-8-3-8"
       inkscape:connector-curvature="0" />
    <path
       style="fill:none;stroke:#00b200;stroke-width:1px;stroke-linecap:butt;stroke-linejoin:miter;stroke-opacity:1"
       d="m 56.704302,986.65427 0.02066,14.41723"
       id="path3795-6-5-8-5-1-2-0-9"
       inkscape:connector-curvature="0" />
    <path
       style="fill:none;stroke:#00b200;stroke-width:1px;stroke-linecap:butt;stroke-linejoin:miter;stroke-opacity:1"
       d="m 56.239971,1001.4643 3.247417,0"
       id="path3793-6-7-2-4-0-8-3-8-3"
       inkscape:connector-curvature="0" />
    <path
       style="fill:none;stroke:#00b200;stroke-width:1px;stroke-linecap:butt;stroke-linejoin:miter;stroke-opacity:1"
       d="m 59.930476,1000.9733 0.02066,11.8097"
       id="path3795-6-5-8-5-1-2-0-9-9"
       inkscape:connector-curvature="0" />
    <path
       style="fill:none;stroke:#00b200;stroke-width:1px;stroke-linecap:butt;stroke-linejoin:miter;stroke-opacity:1"
       d="m 59.466146,1013.2642 3.247417,0"
       id="path3793-6-7-2-4-0-8-3-8-3-1"
       inkscape:connector-curvature="0" />
    <path
       style="fill:none;stroke:#00b200;stroke-width:0.99999994px;stroke-linecap:butt;stroke-linejoin:miter;stroke-opacity:1"
       d="m 63.112457,1012.751 0.02066,7.4787"
       id="path3795-6-5-8-5-1-2-0-9-9-7"
       inkscape:connector-curvature="0" />
    <path
       style="fill:none;stroke:#00b200;stroke-width:1px;stroke-linecap:butt;stroke-linejoin:miter;stroke-opacity:1"
       d="m 62.648127,1020.6004 3.247417,0"
       id="path3793-6-7-2-4-0-8-3-8-3-1-5"
       inkscape:connector-curvature="0" />
    <path
       style="fill:none;stroke:#00b200;stroke-width:0.99999988px;stroke-linecap:butt;stroke-linejoin:miter;stroke-opacity:1"
       d="m 66.382826,1020.0872 0.02066,3.1477"
       id="path3795-6-5-8-5-1-2-0-9-9-7-1"
       inkscape:connector-curvature="0" />
    <path
       style="fill:none;stroke:#00b200;stroke-width:1px;stroke-linecap:butt;stroke-linejoin:miter;stroke-opacity:1"
       d="m 66.802379,1022.6775 3.247417,0"
       id="path3793-6-7-2-4-0-8-3-8-3-1-5-6"
       inkscape:connector-curvature="0" />
    <path
       style="fill:none;stroke:#00b200;stroke-width:1px;stroke-linecap:butt;stroke-linejoin:miter;stroke-opacity:1"
       d="m 70.028553,1022.0588 3.247417,0"
       id="path3793-6-7-2-4-0-8-3-8-3-1-5-6-2"
       inkscape:connector-curvature="0" />
    <path
       style="fill:none;stroke:#00b200;stroke-width:0.99999988px;stroke-linecap:butt;stroke-linejoin:miter;stroke-opacity:1"
       d="m 73.763253,1018.7172 0.02066,3.8548"
       id="path3795-6-5-8-5-1-2-0-9-9-7-1-2"
       inkscape:connector-curvature="0" />
    <path
       style="fill:none;stroke:#00b200;stroke-width:1px;stroke-linecap:butt;stroke-linejoin:miter;stroke-opacity:1"
       d="m 73.254729,1018.2139 3.247417,0"
       id="path3793-6-7-2-4-0-8-3-8-3-1-5-6-2-7"
       inkscape:connector-curvature="0" />
    <path
       style="fill:none;stroke:#00b200;stroke-width:0.99999988px;stroke-linecap:butt;stroke-linejoin:miter;stroke-opacity:1"
       d="m 76.945233,1013.0161 0.02066,5.711"
       id="path3795-6-5-8-5-1-2-0-9-9-7-4"
       inkscape:connector-curvature="0" />
    <path
       style="fill:none;stroke:#00b200;stroke-width:1px;stroke-linecap:butt;stroke-linejoin:miter;stroke-opacity:1"
       d="m 76.436708,1012.5571 3.247417,0"
       id="path3793-6-7-2-4-0-8-3-8-3-1-5-2"
       inkscape:connector-curvature="0" />
    <path
       style="fill:none;stroke:#00b200;stroke-width:0.99999994px;stroke-linecap:butt;stroke-linejoin:miter;stroke-opacity:1"
       d="m 80.127214,1005.5915 0.02066,7.4788"
       id="path3795-6-5-8-5-1-2-0-9-9-7-2"
       inkscape:connector-curvature="0" />
    <path
       style="fill:none;stroke:#00b200;stroke-width:1px;stroke-linecap:butt;stroke-linejoin:miter;stroke-opacity:1"
       d="m 79.61869,1005.1325 3.247417,0"
       id="path3793-6-7-2-4-0-8-3-8-3-1-5-2-1"
       inkscape:connector-curvature="0" />
    <path
       style="fill:none;stroke:#00b200;stroke-width:0.99999994px;stroke-linecap:butt;stroke-linejoin:miter;stroke-opacity:1"
       d="m 83.265,998.12267 0.02066,7.47883"
       id="path3795-6-5-8-5-1-2-0-9-9-7-2-2"
       inkscape:connector-curvature="0" />
    <path
       style="fill:none;stroke:#00b200;stroke-width:1px;stroke-linecap:butt;stroke-linejoin:miter;stroke-opacity:1"
       d="m 82.80067,997.66357 3.247417,0"
       id="path3793-6-7-2-4-0-8-3-8-3-1-5-2-1-3"
       inkscape:connector-curvature="0" />
    <path
       style="fill:none;stroke:#00b200;stroke-width:0.99999994px;stroke-linecap:butt;stroke-linejoin:miter;stroke-opacity:1"
       d="m 86.491175,989.85837 0.02066,8.3184"
       id="path3795-6-5-8-5-1-2-0-9-9-7-2-2-7"
       inkscape:connector-curvature="0" />
    <path
       style="fill:none;stroke:#00b200;stroke-width:1px;stroke-linecap:butt;stroke-linejoin:miter;stroke-opacity:1"
       d="m 86.026845,989.48767 3.247417,0"
       id="path3793-6-7-2-4-0-8-3-8-3-1-5-2-1-3-8"
       inkscape:connector-curvature="0" />
    <path
       style="fill:none;stroke:#00b200;stroke-width:1px;stroke-linecap:butt;stroke-linejoin:miter;stroke-opacity:1"
       d="m 89.717349,982.89777 0.02066,7.081"
       id="path3795-6-5-8-5-1-2-0-9-9-7-2-2-7-1"
       inkscape:connector-curvature="0" />
    <path
       style="fill:none;stroke:#00b200;stroke-width:1px;stroke-linecap:butt;stroke-linejoin:miter;stroke-opacity:1"
       d="m 89.208825,982.41657 3.24742,0"
       id="path3793-6-7-2-4-0-8-3-8-3-1-5-2-1-3-8-6"
       inkscape:connector-curvature="0" />
    <path
       style="fill:none;stroke:#00b200;stroke-width:0.99999994px;stroke-linecap:butt;stroke-linejoin:miter;stroke-opacity:1"
       d="m 92.899335,977.01996 0.0207,5.93191"
       id="path3795-6-5-8-5-1-2-0-9-9-7-2-2-7-1-5"
       inkscape:connector-curvature="0" />
    <path
       style="fill:none;stroke:#00b200;stroke-width:1px;stroke-linecap:butt;stroke-linejoin:miter;stroke-opacity:1"
       d="m 92.346605,976.67136 3.24742,0"
       id="path3793-6-7-2-4-0-8-3-8-3-1-5-2-1-3-8-6-9"
       inkscape:connector-curvature="0" />
    <path
       style="fill:none;stroke:#00b200;stroke-width:0.99999994px;stroke-linecap:butt;stroke-linejoin:miter;stroke-opacity:1"
       d="m 95.992895,973.66119 0.0207,3.50127"
       id="path3795-6-5-8-5-1-2-0-9-9-7-2-2-7-1-5-2"
       inkscape:connector-curvature="0" />
    <path
       style="fill:none;stroke:#00b200;stroke-width:1px;stroke-linecap:butt;stroke-linejoin:miter;stroke-opacity:1"
       d="m 95.484395,973.22422 3.24742,0"
       id="path3793-6-7-2-4-0-8-3-8-3-1-5-2-1-3-8-6-9-1"
       inkscape:connector-curvature="0" />
    <path
       style="fill:none;stroke:#00b200;stroke-width:1px;stroke-linecap:butt;stroke-linejoin:miter;stroke-opacity:1"
       d="m 99.219085,972.49007 0.0207,1.24736"
       id="path3795-6-5-8-5-1-2-0-9-9-7-2-2-7-1-5-2-3"
       inkscape:connector-curvature="0" />
    <path
       style="fill:none;stroke:#00b200;stroke-width:1px;stroke-linecap:butt;stroke-linejoin:miter;stroke-opacity:1"
       d="m 98.754755,972.03098 3.247425,0"
       id="path3793-6-7-2-4-0-8-3-8-3-1-5-2-1-3-8-6-9-1-0"
       inkscape:connector-curvature="0" />
    <path
       style="fill:none;stroke:#00b200;stroke-width:1px;stroke-linecap:butt;stroke-linejoin:miter;stroke-opacity:1"
       d="m 102.02513,972.91487 3.24742,0"
       id="path3793-6-7-2-4-0-8-3-8-3-1-5-2-1-3-8-6-9-1-0-1"
       inkscape:connector-curvature="0" />
    <path
       style="fill:none;stroke:#00b200;stroke-width:1px;stroke-linecap:butt;stroke-linejoin:miter;stroke-opacity:1"
       d="m 102.48946,971.53988 0.0207,1.24736"
       id="path3795-6-5-8-5-1-2-0-9-9-7-2-2-7-1-5-2-3-3"
       inkscape:connector-curvature="0" />
    <path
       style="fill:none;stroke:#00b200;stroke-width:1px;stroke-linecap:butt;stroke-linejoin:miter;stroke-opacity:1"
       d="m 105.67143,972.39247 0.0207,1.7335"
       id="path3795-6-5-8-5-1-2-0-9-9-7-2-2-7-1-5-2-3-8"
       inkscape:connector-curvature="0" />
    <path
       style="fill:none;stroke:#00b200;stroke-width:1px;stroke-linecap:butt;stroke-linejoin:miter;stroke-opacity:1"
       d="m 105.20712,974.47461 3.24742,0"
       id="path3793-6-7-2-4-0-8-3-8-3-1-5-2-1-3-8-6-9-1-0-3"
       inkscape:connector-curvature="0" />
    <path
       style="fill:none;stroke:#00b200;stroke-width:0.99999994px;stroke-linecap:butt;stroke-linejoin:miter;stroke-opacity:1"
       d="m 108.67663,973.97975 0.0207,3.94321"
       id="path3795-6-5-8-5-1-2-0-9-9-7-2-2-7-1-5-2-6"
       inkscape:connector-curvature="0" />
    <path
       style="fill:none;stroke:#00b200;stroke-width:1px;stroke-linecap:butt;stroke-linejoin:miter;stroke-opacity:1"
       d="m 108.21232,978.26237 3.24742,0"
       id="path3793-6-7-2-4-0-8-3-8-3-1-5-2-1-3-8-6-9-8"
       inkscape:connector-curvature="0" />
    <path
       style="fill:none;stroke:#00b200;stroke-width:0.99999988px;stroke-linecap:butt;stroke-linejoin:miter;stroke-opacity:1"
       d="m 111.85862,977.76741 0.0207,4.07576"
       id="path3795-6-5-8-5-1-2-0-9-9-7-2-2-7-1-5-2-5"
       inkscape:connector-curvature="0" />
    <path
       style="fill:none;stroke:#00b200;stroke-width:1px;stroke-linecap:butt;stroke-linejoin:miter;stroke-opacity:1"
       d="m 111.4036,981.98737 3.24742,0"
       id="path3793-6-7-2-4-0-8-3-8-3-1-5-2-1-3-8-6-9-8-2"
       inkscape:connector-curvature="0" />
    <path
       style="fill:none;stroke:#00b200;stroke-width:0.99999988px;stroke-linecap:butt;stroke-linejoin:miter;stroke-opacity:1"
       d="m 115.07946,981.48077 0.0207,2.9508"
       id="path3795-6-5-8-5-1-2-0-9-9-7-2-2-7-1-5-2-5-9"
       inkscape:connector-curvature="0" />
    <path
       style="fill:none;stroke:#00b200;stroke-width:1px;stroke-linecap:butt;stroke-linejoin:miter;stroke-opacity:1"
       d="m 114.5911,984.70617 3.24742,0"
       id="path3793-6-7-2-4-0-8-3-8-3-1-5-2-1-3-8-6-9-8-2-0"
       inkscape:connector-curvature="0" />
    <path
       style="fill:none;stroke:#00b200;stroke-width:0.99999982px;stroke-linecap:butt;stroke-linejoin:miter;stroke-opacity:1"
       d="m 118.23571,984.19947 0.0207,1.8883"
       id="path3795-6-5-8-5-1-2-0-9-9-7-2-2-7-1-5-2-5-9-9"
       inkscape:connector-curvature="0" />
    <path
       style="fill:none;stroke:#00b200;stroke-width:1px;stroke-linecap:butt;stroke-linejoin:miter;stroke-opacity:1"
       d="m 117.7786,986.26867 3.24742,0"
       id="path3793-6-7-2-4-0-8-3-8-3-1-5-2-1-3-8-6-9-8-2-0-0"
       inkscape:connector-curvature="0" />
    <path
       style="fill:none;stroke:#00b200;stroke-width:0.99999982px;stroke-linecap:butt;stroke-linejoin:miter;stroke-opacity:1"
       d="m 121.39196,985.76197 0.0207,1.8883"
       id="path3795-6-5-8-5-1-2-0-9-9-7-2-2-7-1-5-2-5-9-9-5"
       inkscape:connector-curvature="0" />
    <path
       style="fill:none;stroke:#00b200;stroke-width:1px;stroke-linecap:butt;stroke-linejoin:miter;stroke-opacity:1"
       d="m 120.9036,987.58117 3.24742,0"
       id="path3793-6-7-2-4-0-8-3-8-3-1-5-2-1-3-8-6-9-8-2-0-0-4"
       inkscape:connector-curvature="0" />
    <path
       style="fill:none;stroke:#00b200;stroke-width:0.99999982px;stroke-linecap:butt;stroke-linejoin:miter;stroke-opacity:1"
       d="m 124.48571,987.07447 0.0207,1.2008"
       id="path3795-6-5-8-5-1-2-0-9-9-7-2-2-7-1-5-2-5-9-9-5-6"
       inkscape:connector-curvature="0" />
    <path
       style="fill:none;stroke:#00b200;stroke-width:1px;stroke-linecap:butt;stroke-linejoin:miter;stroke-opacity:1"
       d="m 124.0286,988.45617 3.24742,0"
       id="path3793-6-7-2-4-0-8-3-8-3-1-5-2-1-3-8-6-9-8-2-0-0-4-8"
       inkscape:connector-curvature="0" />
    <path
       style="fill:none;stroke:#00b200;stroke-width:1px;stroke-linecap:butt;stroke-linejoin:miter;stroke-opacity:1"
       d="m 127.12235,988.95617 3.24742,0"
       id="path3793-6-7-2-4-0-8-3-8-3-1-5-2-1-3-8-6-9-8-2-0-0-4-4"
       inkscape:connector-curvature="0" />
    <path
       style="fill:none;stroke:#00b200;stroke-width:0.99999982px;stroke-linecap:butt;stroke-linejoin:miter;stroke-opacity:1"
       d="m 127.61071,987.94947 0.0207,1.2008"
       id="path3795-6-5-8-5-1-2-0-9-9-7-2-2-7-1-5-2-5-9-9-5-6-7"
       inkscape:connector-curvature="0" />
    <path
       style="fill:none;stroke:#00b200;stroke-width:1px;stroke-linecap:butt;stroke-linejoin:miter;stroke-opacity:1"
       d="m 130.37235,989.36237 3.24742,0"
       id="path3793-6-7-2-4-0-8-3-8-3-1-5-2-1-3-8-6-9-8-2-0-0-4-4-8"
       inkscape:connector-curvature="0" />
    <path
       style="fill:none;stroke:#000000;stroke-width:1.00010002;stroke-linecap:butt;stroke-linejoin:miter;stroke-miterlimit:4;stroke-opacity:1;stroke-dasharray:none;marker-start:url(#Arrow2Mstart)"
       d="m 187.79465,928.83355 0,21.96816"
       id="path4967-9"
       inkscape:connector-curvature="0" />
    <path
       style="fill:none;stroke:#000000;stroke-width:1.00010002;stroke-linecap:butt;stroke-linejoin:miter;stroke-miterlimit:4;stroke-opacity:1;stroke-dasharray:none;marker-start:url(#Arrow2Mstart)"
       d="m 224.48569,994.50187 -21.96816,0"
       id="path4967-8-2"
       inkscape:connector-curvature="0" />
    <path
       style="fill:none;stroke:#00b800;stroke-width:1px;stroke-linecap:butt;stroke-linejoin:miter;stroke-opacity:1"
       d="m 183.29156,990.58117 -0.16643,-49.76116"
       id="path6041"
       inkscape:connector-curvature="0" />
    <path
       style="fill:none;stroke:#00b800;stroke-width:1px;stroke-linecap:butt;stroke-linejoin:miter;stroke-opacity:1"
       d="m 192.52817,990.41487 -0.16643,-49.76124"
       id="path6041-7"
       inkscape:connector-curvature="0" />
    <path
       style="fill:none;stroke:#00bd00;stroke-width:0.99999994px;stroke-linecap:butt;stroke-linejoin:miter;stroke-opacity:1"
       d="m 182.62584,940.34746 10.23516,0.0298"
       id="path6061"
       inkscape:connector-curvature="0" />
  </g>
</svg>
