<?xml version="1.0" encoding="UTF-8" standalone="no"?>
<!-- Created with Inkscape (http://www.inkscape.org/) -->

<svg
   xmlns:ns0="http://www.iki.fi/pav/software/textext/"
   xmlns:dc="http://purl.org/dc/elements/1.1/"
   xmlns:cc="http://creativecommons.org/ns#"
   xmlns:rdf="http://www.w3.org/1999/02/22-rdf-syntax-ns#"
   xmlns:svg="http://www.w3.org/2000/svg"
   xmlns="http://www.w3.org/2000/svg"
   xmlns:sodipodi="http://sodipodi.sourceforge.net/DTD/sodipodi-0.dtd"
   xmlns:inkscape="http://www.inkscape.org/namespaces/inkscape"
   id="svg2984"
   version="1.1"
   inkscape:version="0.48.1 "
   width="1000"
   height="1070"
   xml:space="preserve"
   sodipodi:docname="AD_kvantizacni_chyba.svg"><sodipodi:namedview
     pagecolor="#ffffff"
     bordercolor="#666666"
     borderopacity="1"
     objecttolerance="10"
     gridtolerance="10"
     guidetolerance="10"
     inkscape:pageopacity="0"
     inkscape:pageshadow="2"
     inkscape:window-width="1920"
     inkscape:window-height="1125"
     id="namedview2986"
     showgrid="false"
     inkscape:zoom="0.84284134"
     inkscape:cx="230.2839"
     inkscape:cy="356.47605"
     inkscape:window-x="-9"
     inkscape:window-y="-9"
     inkscape:window-maximized="1"
     inkscape:current-layer="g2992" /><metadata
     id="metadata2990"><rdf:RDF><cc:Work
         rdf:about=""><dc:format>image/svg+xml</dc:format><dc:type
           rdf:resource="http://purl.org/dc/dcmitype/StillImage" /><dc:title /></cc:Work></rdf:RDF></metadata><defs
     id="defs2988"><inkscape:path-effect
       effect="spiro"
       id="path-effect4620"
       is_visible="true" /></defs><g
     transform="matrix(1.25,0,0,-1.25,0,1070)"
     inkscape:label="skici"
     inkscape:groupmode="layer"
     id="g2992"><text
   style="font-size:15.43900108px"
   y="50.647068"
   x="410.2413"
   id="text2994"
   transform="matrix(0,1,1,0,0,0)"><tspan
     id="tspan2996"
     sodipodi:role="line"
     y="50.647068"
     x="410.2413 435.87216 456.70831 472.4194 487.49667 503.53909 519.82227 535.71362 543.85529 559.29462 581.24701 595.57007"
     style="font-size:61.75631332px;font-variant:normal;font-weight:normal;writing-mode:lr-tb;fill:#000000;fill-opacity:1;fill-rule:nonzero;stroke:none;font-family:FREESTYLE SCRIPT;-inkscape-font-specification:FREESTYLE SCRIPT">Výstupní kód</tspan></text>








<path
   inkscape:connector-curvature="0"
   id="path2998"
   style="fill:none;stroke:#000000;stroke-width:4.5;stroke-linecap:round;stroke-linejoin:round;stroke-miterlimit:10;stroke-opacity:1;stroke-dasharray:none"
   d="m 175.60576,784.59083 0,-490.8 567.85641,0" /><path
   inkscape:connector-curvature="0"
   id="path3000"
   style="fill:#000000;fill-opacity:1;fill-rule:evenodd;stroke:none"
   d="m 168.40576,783.39083 7.2,21 7.2,-21 -14.4,0 z" /><path
   inkscape:connector-curvature="0"
   id="path3002"
   style="fill:#000000;fill-opacity:1;fill-rule:evenodd;stroke:none"
   d="m 744.16052,300.99085 21,-7.2 -21,-6.6 0,13.8 z" /><path
   inkscape:connector-curvature="0"
   id="path3004"
   style="fill:none;stroke:#0070c0;stroke-width:3;stroke-linecap:round;stroke-linejoin:round;stroke-miterlimit:10;stroke-opacity:1;stroke-dasharray:none"
   d="m 147.40576,293.79083 56.4,0 0,57 57,0 0,56.4 56.4,0 0,57 57,0 0,56.4 56.4,0 0,57 57,0 0,56.4 56.4,0 0,57 57,0" /><g
   transform="translate(-235.39424,-4128.8092)"
   id="g3006"><path
     inkscape:connector-curvature="0"
     id="path3008"
     style="fill:none;stroke:#000000;stroke-width:3;stroke-linecap:round;stroke-linejoin:round;stroke-miterlimit:10;stroke-opacity:1;stroke-dasharray:3, 6;stroke-dashoffset:0"
     d="m 836.4,4819.8 0,56.4 56.4,0" /></g><text
   y="-279.55075"
   x="87.235756"
   id="text3010"
   transform="scale(1,-1)"><tspan
     id="tspan3012"
     sodipodi:role="line"
     y="-279.55075"
     x="87.235756 103.64168 120.0476"
     style="font-size:48.00024033px;font-variant:normal;font-weight:normal;writing-mode:lr-tb;fill:#000000;fill-opacity:1;fill-rule:nonzero;stroke:none;font-family:FREESTYLE SCRIPT;-inkscape-font-specification:FREESTYLE SCRIPT">000</tspan></text>








<text
   y="-334.72076"
   x="87.235756"
   id="text3014"
   transform="scale(1,-1)"><tspan
     id="tspan3016"
     sodipodi:role="line"
     y="-334.72076"
     x="87.235756 103.64168 120.0476"
     style="font-size:48.00024033px;font-variant:normal;font-weight:normal;writing-mode:lr-tb;fill:#000000;fill-opacity:1;fill-rule:nonzero;stroke:none;font-family:FREESTYLE SCRIPT;-inkscape-font-specification:FREESTYLE SCRIPT">001</tspan></text>








<text
   y="-392.93076"
   x="87.235756"
   id="text3018"
   transform="scale(1,-1)"><tspan
     id="tspan3020"
     sodipodi:role="line"
     y="-392.93076"
     x="87.235756 103.64168 120.0476"
     style="font-size:48.00024033px;font-variant:normal;font-weight:normal;writing-mode:lr-tb;fill:#000000;fill-opacity:1;fill-rule:nonzero;stroke:none;font-family:FREESTYLE SCRIPT;-inkscape-font-specification:FREESTYLE SCRIPT">010</tspan></text>








<text
   y="-446.98074"
   x="87.235756"
   id="text3022"
   transform="scale(1,-1)"><tspan
     id="tspan3024"
     sodipodi:role="line"
     y="-446.98074"
     x="87.235756 103.64168 120.0476"
     style="font-size:48.00024033px;font-variant:normal;font-weight:normal;writing-mode:lr-tb;fill:#000000;fill-opacity:1;fill-rule:nonzero;stroke:none;font-family:FREESTYLE SCRIPT;-inkscape-font-specification:FREESTYLE SCRIPT">011</tspan></text>








<text
   y="-503.86096"
   x="87.235756"
   id="text3026"
   transform="scale(1,-1)"><tspan
     id="tspan3028"
     sodipodi:role="line"
     y="-503.86096"
     x="87.235756 103.64168 120.0476"
     style="font-size:48.00024033px;font-variant:normal;font-weight:normal;writing-mode:lr-tb;fill:#000000;fill-opacity:1;fill-rule:nonzero;stroke:none;font-family:FREESTYLE SCRIPT;-inkscape-font-specification:FREESTYLE SCRIPT">100</tspan></text>








<text
   y="-560.56116"
   x="87.235756"
   id="text3030"
   transform="scale(1,-1)"><tspan
     id="tspan3032"
     sodipodi:role="line"
     y="-560.56116"
     x="87.235756 103.64168 120.0476"
     style="font-size:48.00024033px;font-variant:normal;font-weight:normal;writing-mode:lr-tb;fill:#000000;fill-opacity:1;fill-rule:nonzero;stroke:none;font-family:FREESTYLE SCRIPT;-inkscape-font-specification:FREESTYLE SCRIPT">101</tspan></text>








<text
   y="-616.30115"
   x="87.235756"
   id="text3034"
   transform="scale(1,-1)"><tspan
     id="tspan3036"
     sodipodi:role="line"
     y="-616.30115"
     x="87.235756 103.64168 120.0476"
     style="font-size:48.00024033px;font-variant:normal;font-weight:normal;writing-mode:lr-tb;fill:#000000;fill-opacity:1;fill-rule:nonzero;stroke:none;font-family:FREESTYLE SCRIPT;-inkscape-font-specification:FREESTYLE SCRIPT">110</tspan></text>








<text
   y="-673.94116"
   x="87.235756"
   id="text3038"
   transform="scale(1,-1)"><tspan
     id="tspan3040"
     sodipodi:role="line"
     y="-673.94116"
     x="87.235756 103.64168 120.0476"
     style="font-size:48.00024033px;font-variant:normal;font-weight:normal;writing-mode:lr-tb;fill:#000000;fill-opacity:1;fill-rule:nonzero;stroke:none;font-family:FREESTYLE SCRIPT;-inkscape-font-specification:FREESTYLE SCRIPT">111</tspan></text>








<text
   y="-735.98114"
   x="54.795761"
   id="text3042"
   transform="scale(1,-1)"><tspan
     id="tspan3044"
     y="-735.98114"
     x="54.795761"
     style="font-size:48.00024033px;font-variant:normal;font-weight:normal;writing-mode:lr-tb;fill:#000000;fill-opacity:1;fill-rule:nonzero;stroke:none;font-family:FREESTYLE SCRIPT;-inkscape-font-specification:FREESTYLE SCRIPT">(</tspan></text>








<text
   y="-735.98114"
   x="71.955757"
   id="text3046"
   transform="scale(1,-1)"><tspan
     id="tspan3048"
     sodipodi:role="line"
     y="-735.98114"
     x="71.955757 88.361679 104.7676 121.17352"
     style="font-size:48.00024033px;font-variant:normal;font-weight:normal;writing-mode:lr-tb;fill:#000000;fill-opacity:1;fill-rule:nonzero;stroke:none;font-family:FREESTYLE SCRIPT;-inkscape-font-specification:FREESTYLE SCRIPT">1000</tspan></text>








<text
   y="-735.98114"
   x="137.57576"
   id="text3050"
   transform="scale(1,-1)"><tspan
     id="tspan3052"
     y="-735.98114"
     x="137.57576"
     style="font-size:48.00024033px;font-variant:normal;font-weight:normal;writing-mode:lr-tb;fill:#000000;fill-opacity:1;fill-rule:nonzero;stroke:none;font-family:FREESTYLE SCRIPT;-inkscape-font-specification:FREESTYLE SCRIPT">)</tspan></text>








<path
   inkscape:connector-curvature="0"
   id="path3054"
   style="fill:none;stroke:#789440;stroke-width:2.25;stroke-linecap:round;stroke-linejoin:round;stroke-miterlimit:10;stroke-opacity:1;stroke-dasharray:none"
   d="m 629.20576,747.39083 0,-467.4" /><path
   inkscape:connector-curvature="0"
   id="path3058"
   style="fill:none;stroke:#789440;stroke-width:2.25;stroke-linecap:round;stroke-linejoin:round;stroke-miterlimit:10;stroke-opacity:1;stroke-dasharray:none"
   d="m 402.40576,520.59083 0,-240.6" /><path
   inkscape:connector-curvature="0"
   id="path3060"
   style="fill:#789440;fill-opacity:1;fill-rule:evenodd;stroke:none"
   d="m 402.59456,512.99165 c 4.19291,0 7.59833,3.40541 7.59833,7.61962 0,4.19291 -3.40542,7.59833 -7.59833,7.59833 0,0 0,0 0,0 -4.21421,0 -7.61962,-3.40542 -7.61962,-7.59833 0,-4.21421 3.40541,-7.61962 7.61962,-7.61962 z" /><path
   inkscape:connector-curvature="0"
   id="path3062"
   style="fill:none;stroke:#789440;stroke-width:2.25;stroke-linecap:round;stroke-linejoin:round;stroke-miterlimit:10;stroke-opacity:1;stroke-dasharray:none"
   d="m 515.80576,633.99083 0,-354" /><path
   inkscape:connector-curvature="0"
   id="path3066"
   style="fill:none;stroke:#789440;stroke-width:2.25;stroke-linecap:round;stroke-linejoin:round;stroke-miterlimit:10;stroke-opacity:1;stroke-dasharray:none"
   d="m 289.00576,407.19083 0,-127.2" /><text
   style="font-size:12.99983692px"
   y="-253.23061"
   x="613.86169"
   id="text3070"
   transform="scale(1,-1)"><tspan
     id="tspan3072"
     sodipodi:role="line"
     y="-253.23061"
     x="613.86169 629.21033 644.55896"
     style="font-size:38.99951172px;font-variant:normal;font-weight:normal;writing-mode:lr-tb;fill:#000000;fill-opacity:1;fill-rule:nonzero;stroke:none;font-family:FREESTYLE SCRIPT;-inkscape-font-specification:FREESTYLE SCRIPT">FS </tspan></text>










<g
   id="g3443"
   transform="matrix(0.73786365,0,0,0.73786365,139.03139,69.83406)"><text
   transform="scale(1,-1)"
   id="text3074"
   x="604.97571"
   y="-218.34076"><tspan
     style="font-size:36px;font-variant:normal;font-weight:normal;writing-mode:lr-tb;fill:#000000;fill-opacity:1;fill-rule:nonzero;stroke:none;font-family:FREESTYLE SCRIPT;-inkscape-font-specification:FREESTYLE SCRIPT"
     x="604.97571"
     y="-218.34076"
     id="tspan3076">(</tspan></text>







<text
   transform="scale(1,-1)"
   id="text3078"
   x="618.79944"
   y="-211.93149"
   style="font-size:15.25549889px"><tspan
     style="font-size:45.76649857px;font-variant:normal;font-weight:normal;writing-mode:lr-tb;fill:#000000;fill-opacity:1;fill-rule:nonzero;stroke:none;font-family:FREESTYLE SCRIPT;-inkscape-font-specification:FREESTYLE SCRIPT"
     x="618.79944 630.4873 642.37561 652.20801 662.04053 673.48218 685.12512 697.63959 709.48303 719.31543"
     y="-211.93149"
     sodipodi:role="line"
     id="tspan3080">full scale</tspan></text>







<text
   style="font-size:13.36127472px"
   transform="scale(1,-1)"
   id="text3082"
   x="731.0155"
   y="-215.41748"><tspan
     style="font-size:40.08382797px;font-variant:normal;font-weight:normal;writing-mode:lr-tb;fill:#000000;fill-opacity:1;fill-rule:nonzero;stroke:none;font-family:FREESTYLE SCRIPT;-inkscape-font-specification:FREESTYLE SCRIPT"
     x="731.0155"
     y="-215.41748"
     id="tspan3084">)</tspan></text>







</g>
<path
   inkscape:connector-curvature="0"
   id="path3086"
   style="fill:none;stroke:#000000;stroke-width:4.5;stroke-linecap:round;stroke-linejoin:round;stroke-miterlimit:10;stroke-opacity:1;stroke-dasharray:none"
   d="m 147.40577,95.79083 602.89311,0" /><path
   inkscape:connector-curvature="0"
   id="path3088"
   style="fill:#000000;fill-opacity:1;fill-rule:evenodd;stroke:none"
   d="m 744.16052,102.82822 21,-6.6 -21,-7.2 0,13.8 z" /><path
   inkscape:connector-curvature="0"
   id="path3090"
   style="fill:none;stroke:#c00000;stroke-width:3;stroke-linecap:round;stroke-linejoin:round;stroke-miterlimit:10;stroke-opacity:1;stroke-dasharray:none"
   d="m 175.60576,95.190834 28.2,56.999996 0,-113.399996 57,113.399996" /><path
   inkscape:connector-curvature="0"
   id="path3092"
   style="fill:none;stroke:#c00000;stroke-width:3;stroke-linecap:round;stroke-linejoin:round;stroke-miterlimit:10;stroke-opacity:1;stroke-dasharray:none"
   d="m 260.80576,152.19083 0,-113.399996 56.4,113.399996" /><path
   inkscape:connector-curvature="0"
   id="path3094"
   style="fill:none;stroke:#c00000;stroke-width:3;stroke-linecap:round;stroke-linejoin:round;stroke-miterlimit:10;stroke-opacity:1;stroke-dasharray:none"
   d="m 317.20576,152.19083 0,-113.399996 57,113.399996" /><path
   inkscape:connector-curvature="0"
   id="path3096"
   style="fill:none;stroke:#c00000;stroke-width:3;stroke-linecap:round;stroke-linejoin:round;stroke-miterlimit:10;stroke-opacity:1;stroke-dasharray:none"
   d="m 374.20576,152.19083 0,-113.399996 56.4,113.399996" /><path
   inkscape:connector-curvature="0"
   id="path3098"
   style="fill:none;stroke:#c00000;stroke-width:3;stroke-linecap:round;stroke-linejoin:round;stroke-miterlimit:10;stroke-opacity:1;stroke-dasharray:none"
   d="m 430.60576,152.19083 0,-113.399996 57,113.399996" /><path
   inkscape:connector-curvature="0"
   id="path3100"
   style="fill:none;stroke:#c00000;stroke-width:3;stroke-linecap:round;stroke-linejoin:round;stroke-miterlimit:10;stroke-opacity:1;stroke-dasharray:none"
   d="m 487.60576,152.19083 0,-113.399996 56.4,113.399996" /><path
   inkscape:connector-curvature="0"
   id="path3102"
   style="fill:none;stroke:#c00000;stroke-width:3;stroke-linecap:round;stroke-linejoin:round;stroke-miterlimit:10;stroke-opacity:1;stroke-dasharray:none"
   d="m 544.00576,152.19083 0,-113.399996 57,113.399996" /><path
   inkscape:connector-curvature="0"
   id="path3104"
   style="fill:none;stroke:#c00000;stroke-width:3;stroke-linecap:round;stroke-linejoin:round;stroke-miterlimit:10;stroke-opacity:1;stroke-dasharray:none"
   d="m 601.00576,38.790834 0,113.399996" /><path
   inkscape:connector-curvature="0"
   id="path3106"
   style="fill:none;stroke:#000000;stroke-width:4.5;stroke-linecap:round;stroke-linejoin:round;stroke-miterlimit:10;stroke-opacity:1;stroke-dasharray:none"
   d="m 175.60576,10.590834 0,178.799996" /><path
   inkscape:connector-curvature="0"
   id="path3108"
   style="fill:#000000;fill-opacity:1;fill-rule:evenodd;stroke:none"
   d="m 168.40576,187.59083 7.2,21.6 7.2,-21.6 -14.4,0 z" /><g
   transform="translate(-235.39424,-4128.8092)"
   id="g3110"><path
     inkscape:connector-curvature="0"
     id="path3112"
     style="fill:none;stroke:#000000;stroke-width:1.5;stroke-linecap:round;stroke-linejoin:round;stroke-miterlimit:10;stroke-opacity:1;stroke-dasharray:1.5, 3;stroke-dashoffset:0"
     d="m 411,4281 453.6,0" /></g><g
   transform="translate(-235.39424,-4128.8092)"
   id="g3114"><path
     inkscape:connector-curvature="0"
     id="path3116"
     style="fill:none;stroke:#000000;stroke-width:1.5;stroke-linecap:round;stroke-linejoin:round;stroke-miterlimit:10;stroke-opacity:1;stroke-dasharray:1.5, 3;stroke-dashoffset:0"
     d="m 411,4167.6 453.6,0" /></g><g
   transform="translate(-235.39424,-4128.8092)"
   id="g3118"><path
     inkscape:connector-curvature="0"
     id="path3120"
     style="fill:none;stroke:#000000;stroke-width:0.75;stroke-linecap:round;stroke-linejoin:round;stroke-miterlimit:10;stroke-opacity:1;stroke-dasharray:5.25, 3.75;stroke-dashoffset:0"
     d="m 439.2,4281 0,141.6" /></g><g
   transform="translate(-235.39424,-4128.8092)"
   id="g3122"><path
     inkscape:connector-curvature="0"
     id="path3124"
     style="fill:none;stroke:#000000;stroke-width:0.75;stroke-linecap:round;stroke-linejoin:round;stroke-miterlimit:10;stroke-opacity:1;stroke-dasharray:5.25, 3.75;stroke-dashoffset:0"
     d="m 496.2,4281 0,198.6" /></g><g
   transform="translate(-235.39424,-4128.8092)"
   id="g3126"><path
     inkscape:connector-curvature="0"
     id="path3128"
     style="fill:none;stroke:#000000;stroke-width:0.75;stroke-linecap:round;stroke-linejoin:round;stroke-miterlimit:10;stroke-opacity:1;stroke-dasharray:5.25, 3.75;stroke-dashoffset:0"
     d="m 552.6,4281 0,255" /></g><g
   transform="translate(-235.39424,-4128.8092)"
   id="g3130"><path
     inkscape:connector-curvature="0"
     id="path3132"
     style="fill:none;stroke:#000000;stroke-width:0.75;stroke-linecap:round;stroke-linejoin:round;stroke-miterlimit:10;stroke-opacity:1;stroke-dasharray:5.25, 3.75;stroke-dashoffset:0"
     d="m 609.6,4266.6 0,326.4" /></g><g
   transform="translate(-235.39424,-4128.8092)"
   id="g3134"><path
     inkscape:connector-curvature="0"
     id="path3136"
     style="fill:none;stroke:#000000;stroke-width:0.75;stroke-linecap:round;stroke-linejoin:round;stroke-miterlimit:10;stroke-opacity:1;stroke-dasharray:5.25, 3.75;stroke-dashoffset:0"
     d="m 666,4281 0,368.4" /></g><g
   transform="translate(-235.39424,-4128.8092)"
   id="g3138"><path
     inkscape:connector-curvature="0"
     id="path3140"
     style="fill:none;stroke:#000000;stroke-width:0.75;stroke-linecap:round;stroke-linejoin:round;stroke-miterlimit:10;stroke-opacity:1;stroke-dasharray:5.25, 3.75;stroke-dashoffset:0"
     d="M 723,4706.4 723,4281" /></g><g
   transform="translate(-235.39424,-4128.8092)"
   id="g3142"><path
     inkscape:connector-curvature="0"
     id="path3144"
     style="fill:none;stroke:#000000;stroke-width:0.75;stroke-linecap:round;stroke-linejoin:round;stroke-miterlimit:10;stroke-opacity:1;stroke-dasharray:5.25, 3.75;stroke-dashoffset:0"
     d="m 779.4,4762.8 0,-481.8" /></g><g
   transform="translate(-235.39424,-4128.8092)"
   id="g3146"><path
     inkscape:connector-curvature="0"
     id="path3148"
     style="fill:none;stroke:#000000;stroke-width:0.75;stroke-linecap:round;stroke-linejoin:round;stroke-miterlimit:10;stroke-opacity:1;stroke-dasharray:5.25, 3.75;stroke-dashoffset:0"
     d="m 836.4,4819.8 0,-538.8" /></g><path
   inkscape:connector-curvature="0"
   id="path3150"
   style="fill:none;stroke:#000000;stroke-width:2.25;stroke-linecap:round;stroke-linejoin:round;stroke-miterlimit:10;stroke-opacity:1;stroke-dasharray:none"
   d="m 373.00576,607.59083 0,-142.8 0,142.8 m -55.8,0 0,-142.8 0,142.8" /><path
   inkscape:connector-curvature="0"
   id="path3152"
   style="fill:none;stroke:#000000;stroke-width:2.25;stroke-linecap:round;stroke-linejoin:round;stroke-miterlimit:10;stroke-opacity:1;stroke-dasharray:none"
   d="m 345.40576,577.59083 20.4,0 m -20.4,0 -21,0" /><path
   inkscape:connector-curvature="0"
   id="path3154"
   style="fill:#000000;fill-opacity:1;fill-rule:evenodd;stroke:none"
   d="m 364.60576,581.19083 8.4,-3.6 -8.4,-4.2 0,7.8 z" /><path
   inkscape:connector-curvature="0"
   id="path3156"
   style="fill:#000000;fill-opacity:1;fill-rule:evenodd;stroke:none"
   d="m 325.60576,573.39083 -8.4,4.2 8.4,3.6 0,-7.8 z" /><path
   inkscape:connector-curvature="0"
   id="path3158"
   style="fill:#ffffff;fill-opacity:1;fill-rule:evenodd;stroke:none"
   d="m 338.20576,558.99083 13.8,0 0,36.6 -13.8,0 0,-36.6 z" /><text
   style="font-size:15.10906601px"
   y="-571.31488"
   x="339.31549"
   id="text3160"
   transform="scale(1,-1)"><tspan
     id="tspan3162"
     y="-571.31488"
     x="339.31549"
     style="font-size:37.77296829px;font-variant:normal;font-weight:normal;writing-mode:lr-tb;fill:#000000;fill-opacity:1;fill-rule:nonzero;stroke:none;font-family:FREESTYLE SCRIPT;-inkscape-font-specification:FREESTYLE SCRIPT">Q</tspan></text>















<text
   style="font-size:17.00361443px"
   y="-809.59027"
   x="134.64902"
   id="text3168"
   transform="scale(1,-1)"><tspan
     id="tspan3170"
     sodipodi:role="line"
     y="-809.59027"
     x="134.64902 158.16194 164.88702 180.45451 187.17958 199.63335 212.83394"
     style="font-size:51.01084137px;font-variant:normal;font-weight:normal;writing-mode:lr-tb;fill:#000000;fill-opacity:1;fill-rule:nonzero;stroke:none;font-family:FREESTYLE SCRIPT;-inkscape-font-specification:FREESTYLE SCRIPT">Digital</tspan></text>








<text
   y="-160.05075"
   x="135.90576"
   id="text3172"
   transform="scale(1,-1)"><tspan
     id="tspan3174"
     y="-160.05075"
     x="135.90576"
     style="font-size:36px;font-variant:normal;font-weight:normal;writing-mode:lr-tb;fill:#000000;fill-opacity:1;fill-rule:nonzero;stroke:none;font-family:FREESTYLE SCRIPT;-inkscape-font-specification:FREESTYLE SCRIPT">Q</tspan></text>








<path
   inkscape:connector-curvature="0"
   id="path3176"
   style="fill:none;stroke:#000000;stroke-width:3;stroke-linecap:round;stroke-linejoin:round;stroke-miterlimit:10;stroke-opacity:1;stroke-dasharray:none"
   d="m 124.60576,153.39083 28.2,0" /><text
   y="-125.80076"
   x="131.28577"
   id="text3178"
   transform="scale(1,-1)"><tspan
     id="tspan3180"
     y="-125.80076"
     x="131.28577"
     style="font-size:48.00024033px;font-variant:normal;font-weight:normal;writing-mode:lr-tb;fill:#000000;fill-opacity:1;fill-rule:nonzero;stroke:none;font-family:FREESTYLE SCRIPT;-inkscape-font-specification:FREESTYLE SCRIPT">2</tspan></text>








<path
   inkscape:connector-curvature="0"
   id="path3182"
   style="fill:none;stroke:#000000;stroke-width:2.25;stroke-linecap:round;stroke-linejoin:round;stroke-miterlimit:10;stroke-opacity:1;stroke-dasharray:none"
   d="m 116.20576,153.39083 -11.4,0" /><text
   y="-43.330856"
   x="135.90576"
   id="text3184"
   transform="scale(1,-1)"><tspan
     id="tspan3186"
     y="-43.330856"
     x="135.90576"
     style="font-size:36px;font-variant:normal;font-weight:normal;writing-mode:lr-tb;fill:#000000;fill-opacity:1;fill-rule:nonzero;stroke:none;font-family:FREESTYLE SCRIPT;-inkscape-font-specification:FREESTYLE SCRIPT">Q</tspan></text>








<path
   inkscape:connector-curvature="0"
   id="path3188"
   style="fill:none;stroke:#000000;stroke-width:3;stroke-linecap:round;stroke-linejoin:round;stroke-miterlimit:10;stroke-opacity:1;stroke-dasharray:none"
   d="m 124.60576,36.390834 28.2,0" /><text
   y="-9.0808296"
   x="131.28577"
   id="text3190"
   transform="scale(1,-1)"><tspan
     id="tspan3192"
     y="-9.0808296"
     x="131.28577"
     style="font-size:48.00024033px;font-variant:normal;font-weight:normal;writing-mode:lr-tb;fill:#000000;fill-opacity:1;fill-rule:nonzero;stroke:none;font-family:FREESTYLE SCRIPT;-inkscape-font-specification:FREESTYLE SCRIPT">2</tspan></text>








<path
   inkscape:connector-curvature="0"
   id="path3194"
   style="fill:none;stroke:#000000;stroke-width:2.25;stroke-linecap:round;stroke-linejoin:round;stroke-miterlimit:10;stroke-opacity:1;stroke-dasharray:none"
   d="m 116.20576,36.390834 -11.4,0" /><path
   inkscape:connector-curvature="0"
   id="path3196"
   style="fill:none;stroke:#000000;stroke-width:2.25;stroke-linecap:round;stroke-linejoin:round;stroke-miterlimit:10;stroke-opacity:1;stroke-dasharray:none"
   d="m 110.20576,158.79083 0,-11.4" /><text
   y="-83.570847"
   x="119.23576"
   id="text3198"
   transform="scale(1,-1)"><tspan
     id="tspan3200"
     y="-83.570847"
     x="119.23576"
     style="font-size:48.00024033px;font-variant:normal;font-weight:normal;writing-mode:lr-tb;fill:#000000;fill-opacity:1;fill-rule:nonzero;stroke:none;font-family:FREESTYLE SCRIPT;-inkscape-font-specification:FREESTYLE SCRIPT">0</tspan></text>















<g
   ns0:preamble=""
   ns0:text="$$\\frac{1}{4}FS$$\n"
   word-spacing="normal"
   letter-spacing="normal"
   font-size-adjust="none"
   font-stretch="normal"
   font-weight="normal"
   font-variant="normal"
   font-style="normal"
   stroke-miterlimit="10.433"
   xml:space="preserve"
   transform="matrix(2.4019804,0,0,2.5912286,-660.87498,-1572.2648)"
   id="content"
   style="font-style:normal;font-variant:normal;font-weight:normal;font-stretch:normal;letter-spacing:normal;word-spacing:normal;text-anchor:start;fill:none;stroke:#000000;stroke-width:1.60332799;stroke-linecap:butt;stroke-linejoin:miter;stroke-miterlimit:10.43299961;stroke-opacity:1;stroke-dasharray:none;stroke-dashoffset:0">
<path
   id="path3318"
   d="m 388.49,717.04 0,0.01 0,0.01 0,0.01 0,0.01 0,0.01 0,0.01 0,0.01 0,0.01 0,0.01 0,0 0,0.01 0,0.01 0,0.01 0,0 0,0.01 0,0.01 0,0 0,0.01 -0.01,0.01 0,0.01 0,0.01 0,0.01 -0.01,0.01 0,0.01 -0.01,0.01 0,0 -0.01,0.01 -0.01,0 -0.01,0.01 0,0 -0.01,0 0,0 -0.01,0 0,0.01 -0.01,0 -0.01,0 0,0 -0.01,0 -0.01,0 0,0 -0.01,0 -0.01,0 0,0 -0.01,0 -0.01,0 -0.01,0 -0.01,0 -0.01,0 -0.01,0 -0.01,0 -0.01,0 -0.01,0 c -0.62,-0.63 -1.49,-0.63 -1.81,-0.63 v -0.31 c 0.2,0 0.78,0 1.3,0.26 v -5.16 c 0,-0.36 -0.03,-0.47 -0.92,-0.47 h -0.32 v -0.31 c 0.35,0.03 1.21,0.03 1.61,0.03 0.4,0 1.27,0 1.62,-0.03 v 0.31 h -0.32 c -0.9,0 -0.93,0.11 -0.93,0.47 z"
   inkscape:connector-curvature="0"
   style="fill:#000000;stroke-width:0" />
<line
   id="line3320"
   y2="706.41998"
   x2="390.54001"
   y1="706.41998"
   x1="385.56"
   style="stroke-width:0.63812453" />
<path
   id="path3322"
   d="m 388.49,698.74 v -0.87 c 0,-0.36 -0.02,-0.47 -0.76,-0.47 h -0.21 v -0.31 c 0.41,0.03 0.93,0.03 1.35,0.03 0.42,0 0.95,0 1.36,-0.03 v 0.31 h -0.21 c -0.74,0 -0.76,0.11 -0.76,0.47 v 0.87 h 1 v 0.3 h -1 v 4.53 c 0,0.2 0,0.26 -0.16,0.26 -0.09,0 -0.12,0 -0.2,-0.12 l -3.06,-4.67 h 0.28 l 2.43,3.72 v -3.72 h -2.43 -0.28 v -0.3 z"
   inkscape:connector-curvature="0"
   style="fill:#000000;stroke-width:0" />
<path
   id="path3324"
   d="m 394.76,707.16 h 0.96 c 0.75,0 0.83,-0.16 0.83,-0.44 0,-0.07 0,-0.19 -0.07,-0.49 -0.02,-0.05 -0.03,-0.09 -0.03,-0.11 0,-0.08 0.06,-0.12 0.12,-0.12 0.1,0 0.1,0.03 0.15,0.21 l 0.55,2.16 c 0.03,0.11 0.03,0.13 0.03,0.16 0,0.02 -0.02,0.11 -0.12,0.11 -0.1,0 -0.11,-0.05 -0.15,-0.21 -0.21,-0.78 -0.44,-0.96 -1.29,-0.96 h -0.9 l 0.64,2.53 c 0.09,0.35 0.1,0.39 0.53,0.39 h 1.32 c 1.22,0 1.46,-0.33 1.46,-1.1 0,-0.23 0,-0.27 -0.03,-0.53 -0.03,-0.13 -0.03,-0.15 -0.03,-0.18 0,-0.05 0.04,-0.12 0.12,-0.12 0.11,0 0.12,0.06 0.14,0.25 l 0.2,1.72 c 0.03,0.27 -0.02,0.27 -0.27,0.27 h -4.88 c -0.2,0 -0.3,0 -0.3,-0.2 0,-0.11 0.09,-0.11 0.28,-0.11 0.37,0 0.65,0 0.65,-0.18 0,-0.04 0,-0.06 -0.05,-0.24 l -1.32,-5.27 c -0.1,-0.38 -0.12,-0.46 -0.91,-0.46 -0.16,0 -0.27,0 -0.27,-0.19 0,-0.12 0.11,-0.12 0.15,-0.12 0.28,0 1.02,0.03 1.31,0.03 0.33,0 1.16,-0.03 1.49,-0.03 0.09,0 0.21,0 0.21,0.19 0,0.08 -0.06,0.1 -0.06,0.11 -0.03,0.01 -0.05,0.01 -0.28,0.01 -0.22,0 -0.27,0 -0.52,0.02 -0.29,0.03 -0.32,0.07 -0.32,0.2 0,0.01 0,0.07 0.04,0.22 z"
   inkscape:connector-curvature="0"
   style="fill:#000000;stroke-width:0" />
<path
   id="path3326"
   d="m 405.96,710.84 0,0.01 0,0 0,0 0,0.01 0,0 0,0.01 -0.01,0 0,0 0,0.01 0,0 0,0.01 0,0 -0.01,0 0,0.01 0,0 0,0.01 -0.01,0 0,0 0,0.01 -0.01,0 0,0 -0.01,0.01 0,0 -0.01,0 0,0.01 0,0 -0.01,0 0,0 0,0 -0.01,0 0,0 0,0 -0.01,0 0,0 -0.01,0 0,0 0,0 -0.01,0 0,0 c -0.05,0 -0.06,-0.01 -0.18,-0.15 l -0.48,-0.56 c -0.26,0.47 -0.78,0.71 -1.42,0.71 -1.27,0 -2.47,-1.14 -2.47,-2.34 0,-0.81 0.53,-1.27 1.04,-1.42 l 1.07,-0.28 c 0.36,-0.09 0.91,-0.24 0.91,-1.05 0,-0.9 -0.81,-1.83 -1.79,-1.83 -0.64,0 -1.74,0.22 -1.74,1.45 0,0.24 0.04,0.48 0.06,0.54 0,0.04 0.01,0.05 0.01,0.07 0,0.1 -0.06,0.11 -0.12,0.11 -0.04,0 -0.07,-0.01 -0.1,-0.04 -0.03,-0.04 -0.59,-2.31 -0.59,-2.34 0,-0.06 0.05,-0.1 0.11,-0.1 0.05,0 0.06,0.01 0.18,0.15 l 0.49,0.57 c 0.42,-0.58 1.1,-0.72 1.68,-0.72 1.35,0 2.53,1.32 2.53,2.56 0,0.68 -0.34,1.02 -0.49,1.16 -0.23,0.23 -0.38,0.27 -1.26,0.5 -0.22,0.06 -0.58,0.16 -0.67,0.18 -0.27,0.09 -0.61,0.38 -0.61,0.9 0,0.81 0.8,1.66 1.75,1.66 0.82,0 1.43,-0.43 1.43,-1.55 0,-0.32 -0.04,-0.49 -0.04,-0.55 0,-0.01 0,-0.1 0.12,-0.1 0.1,0 0.11,0.03 0.15,0.19 z"
   inkscape:connector-curvature="0"
   style="fill:#000000;stroke-width:0" />
</g>
<g
   id="g3641"
   transform="matrix(2.4019804,0,0,2.5912286,-548.71071,-1571.4691)"
   xml:space="preserve"
   stroke-miterlimit="10.433"
   font-style="normal"
   font-variant="normal"
   font-weight="normal"
   font-stretch="normal"
   font-size-adjust="none"
   letter-spacing="normal"
   word-spacing="normal"
   ns0:text="$$\\frac{1}{2}FS$$\n\n"
   ns0:preamble=""
   style="font-style:normal;font-variant:normal;font-weight:normal;font-stretch:normal;letter-spacing:normal;word-spacing:normal;text-anchor:start;fill:none;stroke:#000000;stroke-width:1.60332799;stroke-linecap:butt;stroke-linejoin:miter;stroke-miterlimit:10.43299961;stroke-opacity:1;stroke-dasharray:none;stroke-dashoffset:0">
<path
   d="m 388.49,717.04 0,0.01 0,0.01 0,0.01 0,0.01 0,0.01 0,0.01 0,0.01 0,0.01 0,0.01 0,0 0,0.01 0,0.01 0,0.01 0,0 0,0.01 0,0.01 0,0 0,0.01 -0.01,0.01 0,0.01 0,0.01 0,0.01 -0.01,0.01 0,0.01 -0.01,0.01 0,0 -0.01,0.01 -0.01,0 -0.01,0.01 0,0 -0.01,0 0,0 -0.01,0 0,0.01 -0.01,0 -0.01,0 0,0 -0.01,0 -0.01,0 0,0 -0.01,0 -0.01,0 0,0 -0.01,0 -0.01,0 -0.01,0 -0.01,0 -0.01,0 -0.01,0 -0.01,0 -0.01,0 -0.01,0 c -0.62,-0.63 -1.49,-0.63 -1.81,-0.63 v -0.31 c 0.2,0 0.78,0 1.3,0.26 v -5.16 c 0,-0.36 -0.03,-0.47 -0.92,-0.47 h -0.32 v -0.31 c 0.35,0.03 1.21,0.03 1.61,0.03 0.4,0 1.27,0 1.62,-0.03 v 0.31 h -0.32 c -0.9,0 -0.93,0.11 -0.93,0.47 z"
   id="path3643"
   inkscape:connector-curvature="0"
   style="fill:#000000;stroke-width:0" />
<line
   x1="385.56"
   y1="706.41998"
   x2="390.54001"
   y2="706.41998"
   id="line3645"
   style="stroke-width:0.398" />
<path
   d="m 386.83,697.86 1.05,1.03 c 1.56,1.37 2.16,1.91 2.16,2.9 0,1.14 -0.9,1.93 -2.12,1.93 -1.12,0 -1.86,-0.91 -1.86,-1.8 0,-0.56 0.5,-0.56 0.53,-0.56 0.17,0 0.52,0.12 0.52,0.53 0,0.26 -0.18,0.52 -0.53,0.52 -0.08,0 -0.1,0 -0.13,-0.01 0.23,0.65 0.76,1.01 1.34,1.01 0.91,0 1.34,-0.8 1.34,-1.62 0,-0.8 -0.5,-1.58 -1.05,-2.2 l -1.91,-2.13 c -0.11,-0.11 -0.11,-0.13 -0.11,-0.37 h 3.7 l 0.28,1.74 h -0.25 c -0.05,-0.3 -0.12,-0.74 -0.22,-0.89 -0.07,-0.08 -0.73,-0.08 -0.95,-0.08 z"
   id="path3647"
   inkscape:connector-curvature="0"
   style="fill:#000000;stroke-width:0" />
<path
   d="m 394.76,707.16 h 0.96 c 0.75,0 0.83,-0.16 0.83,-0.44 0,-0.07 0,-0.19 -0.07,-0.49 -0.02,-0.05 -0.03,-0.09 -0.03,-0.11 0,-0.08 0.06,-0.12 0.12,-0.12 0.1,0 0.1,0.03 0.15,0.21 l 0.55,2.16 c 0.03,0.11 0.03,0.13 0.03,0.16 0,0.02 -0.02,0.11 -0.12,0.11 -0.1,0 -0.11,-0.05 -0.15,-0.21 -0.21,-0.78 -0.44,-0.96 -1.29,-0.96 h -0.9 l 0.64,2.53 c 0.09,0.35 0.1,0.39 0.53,0.39 h 1.32 c 1.22,0 1.46,-0.33 1.46,-1.1 0,-0.23 0,-0.27 -0.03,-0.53 -0.03,-0.13 -0.03,-0.15 -0.03,-0.18 0,-0.05 0.04,-0.12 0.12,-0.12 0.11,0 0.12,0.06 0.14,0.25 l 0.2,1.72 c 0.03,0.27 -0.02,0.27 -0.27,0.27 h -4.88 c -0.2,0 -0.3,0 -0.3,-0.2 0,-0.11 0.09,-0.11 0.28,-0.11 0.37,0 0.65,0 0.65,-0.18 0,-0.04 0,-0.06 -0.05,-0.24 l -1.32,-5.27 c -0.1,-0.38 -0.12,-0.46 -0.91,-0.46 -0.16,0 -0.27,0 -0.27,-0.19 0,-0.12 0.11,-0.12 0.15,-0.12 0.28,0 1.02,0.03 1.31,0.03 0.33,0 1.16,-0.03 1.49,-0.03 0.09,0 0.21,0 0.21,0.19 0,0.08 -0.06,0.1 -0.06,0.11 -0.03,0.01 -0.05,0.01 -0.28,0.01 -0.22,0 -0.27,0 -0.52,0.02 -0.29,0.03 -0.32,0.07 -0.32,0.2 0,0.01 0,0.07 0.04,0.22 z"
   id="path3649"
   inkscape:connector-curvature="0"
   style="fill:#000000;stroke-width:0" />
<path
   d="m 405.96,710.84 0,0.01 0,0 0,0 0,0.01 0,0 0,0.01 -0.01,0 0,0 0,0.01 0,0 0,0.01 0,0 -0.01,0 0,0.01 0,0 0,0.01 -0.01,0 0,0 0,0.01 -0.01,0 0,0 -0.01,0.01 0,0 -0.01,0 0,0.01 0,0 -0.01,0 0,0 0,0 -0.01,0 0,0 0,0 -0.01,0 0,0 -0.01,0 0,0 0,0 -0.01,0 0,0 c -0.05,0 -0.06,-0.01 -0.18,-0.15 l -0.48,-0.56 c -0.26,0.47 -0.78,0.71 -1.42,0.71 -1.27,0 -2.47,-1.14 -2.47,-2.34 0,-0.81 0.53,-1.27 1.04,-1.42 l 1.07,-0.28 c 0.36,-0.09 0.91,-0.24 0.91,-1.05 0,-0.9 -0.81,-1.83 -1.79,-1.83 -0.64,0 -1.74,0.22 -1.74,1.45 0,0.24 0.04,0.48 0.06,0.54 0,0.04 0.01,0.05 0.01,0.07 0,0.1 -0.06,0.11 -0.12,0.11 -0.04,0 -0.07,-0.01 -0.1,-0.04 -0.03,-0.04 -0.59,-2.31 -0.59,-2.34 0,-0.06 0.05,-0.1 0.11,-0.1 0.05,0 0.06,0.01 0.18,0.15 l 0.49,0.57 c 0.42,-0.58 1.1,-0.72 1.68,-0.72 1.35,0 2.53,1.32 2.53,2.56 0,0.68 -0.34,1.02 -0.49,1.16 -0.23,0.23 -0.38,0.27 -1.26,0.5 -0.22,0.06 -0.58,0.16 -0.67,0.18 -0.27,0.09 -0.61,0.38 -0.61,0.9 0,0.81 0.8,1.66 1.75,1.66 0.82,0 1.43,-0.43 1.43,-1.55 0,-0.32 -0.04,-0.49 -0.04,-0.55 0,-0.01 0,-0.1 0.12,-0.1 0.1,0 0.11,0.03 0.15,0.19 z"
   id="path3651"
   inkscape:connector-curvature="0"
   style="fill:#000000;stroke-width:0" />
</g>
<g
   style="font-style:normal;font-variant:normal;font-weight:normal;font-stretch:normal;letter-spacing:normal;word-spacing:normal;text-anchor:start;fill:none;stroke:#000000;stroke-width:1.60332799;stroke-linecap:butt;stroke-linejoin:miter;stroke-miterlimit:10.43299961;stroke-opacity:1;stroke-dasharray:none;stroke-dashoffset:0"
   ns0:preamble=""
   ns0:text="$$\\frac{3}{4}FS$$\n\n"
   word-spacing="normal"
   letter-spacing="normal"
   font-size-adjust="none"
   font-stretch="normal"
   font-weight="normal"
   font-variant="normal"
   font-style="normal"
   stroke-miterlimit="10.433"
   xml:space="preserve"
   transform="matrix(2.4019804,0,0,2.5912286,-435.75944,-1570.5199)"
   id="g3905">
<path
   id="path3907"
   d="m 388.45,714.17 0.08,0.03 0.07,0.03 0.07,0.03 0.08,0.03 0.07,0.04 0.06,0.03 0.07,0.04 0.06,0.05 0.07,0.04 0.06,0.05 0.06,0.05 0.05,0.05 0.06,0.05 0.05,0.05 0.05,0.06 0.04,0.05 0.05,0.06 0.04,0.06 0.04,0.06 0.04,0.06 0.03,0.07 0.04,0.06 0.03,0.07 0.02,0.06 0.03,0.07 0.02,0.07 0.01,0.07 0.02,0.07 0.01,0.07 0.01,0.08 0,0.07 0.01,0.07 c 0,0.82 -0.88,1.37 -1.84,1.37 -1,0 -1.76,-0.59 -1.76,-1.35 0,-0.33 0.22,-0.52 0.51,-0.52 0.31,0 0.51,0.22 0.51,0.51 0,0.5 -0.47,0.5 -0.62,0.5 0.31,0.49 0.96,0.62 1.32,0.62 0.41,0 0.96,-0.22 0.96,-1.12 0,-0.12 -0.02,-0.7 -0.28,-1.13 -0.3,-0.48 -0.64,-0.51 -0.89,-0.52 -0.08,-0.01 -0.32,-0.03 -0.39,-0.03 -0.08,-0.01 -0.14,-0.02 -0.14,-0.12 0,-0.11 0.06,-0.11 0.23,-0.11 h 0.44 c 0.82,0 1.19,-0.68 1.19,-1.65 0,-1.35 -0.69,-1.64 -1.13,-1.64 -0.43,0 -1.17,0.17 -1.52,0.75 0.35,-0.05 0.66,0.17 0.66,0.55 0,0.36 -0.27,0.56 -0.56,0.56 -0.24,0 -0.56,-0.14 -0.56,-0.58 0,-0.91 0.93,-1.56 2.01,-1.56 1.22,0 2.13,0.9 2.13,1.92 0,0.81 -0.63,1.59 -1.67,1.8 z"
   inkscape:connector-curvature="0"
   style="fill:#000000;stroke-width:0" />
<line
   id="line3909"
   y2="706.41998"
   x2="390.54001"
   y1="706.41998"
   x1="385.56"
   style="stroke-width:0.398" />
<path
   id="path3911"
   d="m 388.49,698.74 v -0.87 c 0,-0.36 -0.02,-0.47 -0.76,-0.47 h -0.21 v -0.31 c 0.41,0.03 0.93,0.03 1.35,0.03 0.42,0 0.95,0 1.36,-0.03 v 0.31 h -0.21 c -0.74,0 -0.76,0.11 -0.76,0.47 v 0.87 h 1 v 0.3 h -1 v 4.53 c 0,0.2 0,0.26 -0.16,0.26 -0.09,0 -0.12,0 -0.2,-0.12 l -3.06,-4.67 h 0.28 l 2.43,3.72 v -3.72 h -2.43 -0.28 v -0.3 z"
   inkscape:connector-curvature="0"
   style="fill:#000000;stroke-width:0" />
<path
   id="path3913"
   d="m 394.76,707.16 h 0.96 c 0.75,0 0.83,-0.16 0.83,-0.44 0,-0.07 0,-0.19 -0.07,-0.49 -0.02,-0.05 -0.03,-0.09 -0.03,-0.11 0,-0.08 0.06,-0.12 0.12,-0.12 0.1,0 0.1,0.03 0.15,0.21 l 0.55,2.16 c 0.03,0.11 0.03,0.13 0.03,0.16 0,0.02 -0.02,0.11 -0.12,0.11 -0.1,0 -0.11,-0.05 -0.15,-0.21 -0.21,-0.78 -0.44,-0.96 -1.29,-0.96 h -0.9 l 0.64,2.53 c 0.09,0.35 0.1,0.39 0.53,0.39 h 1.32 c 1.22,0 1.46,-0.33 1.46,-1.1 0,-0.23 0,-0.27 -0.03,-0.53 -0.03,-0.13 -0.03,-0.15 -0.03,-0.18 0,-0.05 0.04,-0.12 0.12,-0.12 0.11,0 0.12,0.06 0.14,0.25 l 0.2,1.72 c 0.03,0.27 -0.02,0.27 -0.27,0.27 h -4.88 c -0.2,0 -0.3,0 -0.3,-0.2 0,-0.11 0.09,-0.11 0.28,-0.11 0.37,0 0.65,0 0.65,-0.18 0,-0.04 0,-0.06 -0.05,-0.24 l -1.32,-5.27 c -0.1,-0.38 -0.12,-0.46 -0.91,-0.46 -0.16,0 -0.27,0 -0.27,-0.19 0,-0.12 0.11,-0.12 0.15,-0.12 0.28,0 1.02,0.03 1.31,0.03 0.33,0 1.16,-0.03 1.49,-0.03 0.09,0 0.21,0 0.21,0.19 0,0.08 -0.06,0.1 -0.06,0.11 -0.03,0.01 -0.05,0.01 -0.28,0.01 -0.22,0 -0.27,0 -0.52,0.02 -0.29,0.03 -0.32,0.07 -0.32,0.2 0,0.01 0,0.07 0.04,0.22 z"
   inkscape:connector-curvature="0"
   style="fill:#000000;stroke-width:0" />
<path
   id="path3915"
   d="m 405.96,710.84 0,0.01 0,0 0,0 0,0.01 0,0 0,0.01 -0.01,0 0,0 0,0.01 0,0 0,0.01 0,0 -0.01,0 0,0.01 0,0 0,0.01 -0.01,0 0,0 0,0.01 -0.01,0 0,0 -0.01,0.01 0,0 -0.01,0 0,0.01 0,0 -0.01,0 0,0 0,0 -0.01,0 0,0 0,0 -0.01,0 0,0 -0.01,0 0,0 0,0 -0.01,0 0,0 c -0.05,0 -0.06,-0.01 -0.18,-0.15 l -0.48,-0.56 c -0.26,0.47 -0.78,0.71 -1.42,0.71 -1.27,0 -2.47,-1.14 -2.47,-2.34 0,-0.81 0.53,-1.27 1.04,-1.42 l 1.07,-0.28 c 0.36,-0.09 0.91,-0.24 0.91,-1.05 0,-0.9 -0.81,-1.83 -1.79,-1.83 -0.64,0 -1.74,0.22 -1.74,1.45 0,0.24 0.04,0.48 0.06,0.54 0,0.04 0.01,0.05 0.01,0.07 0,0.1 -0.06,0.11 -0.12,0.11 -0.04,0 -0.07,-0.01 -0.1,-0.04 -0.03,-0.04 -0.59,-2.31 -0.59,-2.34 0,-0.06 0.05,-0.1 0.11,-0.1 0.05,0 0.06,0.01 0.18,0.15 l 0.49,0.57 c 0.42,-0.58 1.1,-0.72 1.68,-0.72 1.35,0 2.53,1.32 2.53,2.56 0,0.68 -0.34,1.02 -0.49,1.16 -0.23,0.23 -0.38,0.27 -1.26,0.5 -0.22,0.06 -0.58,0.16 -0.67,0.18 -0.27,0.09 -0.61,0.38 -0.61,0.9 0,0.81 0.8,1.66 1.75,1.66 0.82,0 1.43,-0.43 1.43,-1.55 0,-0.32 -0.04,-0.49 -0.04,-0.55 0,-0.01 0,-0.1 0.12,-0.1 0.1,0 0.11,0.03 0.15,0.19 z"
   inkscape:connector-curvature="0"
   style="fill:#000000;stroke-width:0" />
</g>

<path
   inkscape:connector-curvature="0"
   id="path3060-1"
   style="fill:#789440;fill-opacity:1;fill-rule:evenodd;stroke:none"
   d="m 515.88473,626.91142 c 4.19291,0 7.59833,3.40541 7.59833,7.61962 0,4.19291 -3.40542,7.59833 -7.59833,7.59833 0,0 0,0 0,0 -4.21421,0 -7.61962,-3.40542 -7.61962,-7.59833 0,-4.21421 3.40541,-7.61962 7.61962,-7.61962 z" /><path
   inkscape:connector-curvature="0"
   id="path3060-7"
   style="fill:#789440;fill-opacity:1;fill-rule:evenodd;stroke:none"
   d="m 628.83599,739.38808 c 4.19291,0 7.59833,3.40541 7.59833,7.61962 0,4.19291 -3.40542,7.59833 -7.59833,7.59833 0,0 0,0 0,0 -4.21421,0 -7.61962,-3.40542 -7.61962,-7.59833 0,-4.21421 3.40541,-7.61962 7.61962,-7.61962 z" /><path
   inkscape:connector-curvature="0"
   id="path3060-4"
   style="fill:#789440;fill-opacity:1;fill-rule:evenodd;stroke:none"
   d="m 288.55843,400.05968 c 4.19291,0 7.59833,3.40541 7.59833,7.61962 0,4.19291 -3.40542,7.59833 -7.59833,7.59833 0,0 0,0 0,0 -4.21421,0 -7.61962,-3.40542 -7.61962,-7.59833 0,-4.21421 3.40541,-7.61962 7.61962,-7.61962 z" /><text
   style="font-size:17.00361443px"
   y="-317.81473"
   x="678.93054"
   id="text3168-8"
   transform="scale(1,-1)"><tspan
     id="tspan3170-3"
     sodipodi:role="line"
     style="font-size:51.01084137px;font-variant:normal;font-weight:normal;writing-mode:lr-tb;fill:#000000;fill-opacity:1;fill-rule:nonzero;stroke:none;font-family:FREESTYLE SCRIPT;-inkscape-font-specification:FREESTYLE SCRIPT"
     x="678.93054"
     y="-317.81473">Analog</tspan></text>
<path
   style="fill:none;stroke:#000000;stroke-width:4;stroke-linecap:butt;stroke-linejoin:miter;stroke-opacity:1;stroke-miterlimit:4;stroke-dasharray:4,8;stroke-dashoffset:0"
   d="M 219.49564,701.01003 826.96465,98.286871"
   id="path4285"
   inkscape:connector-curvature="0"
   transform="matrix(0.8,0,0,-0.8,0,856)" /><text
   style="font-size:23.87859917px"
   transform="scale(0.99883766,-1.0011637)"
   id="text3172-9-1"
   x="106.70836"
   y="-202.7272"><tspan
     style="font-size:48.42515182px;font-variant:normal;font-weight:normal;writing-mode:lr-tb;fill:#000000;fill-opacity:1;fill-rule:nonzero;stroke:none;font-family:FREESTYLE SCRIPT;-inkscape-font-specification:FREESTYLE SCRIPT"
     x="106.70836"
     y="-202.7272"
     id="tspan3174-1-7"><tspan
       style="font-size:98.71251678px"
       id="tspan3267">e</tspan></tspan></text>
<text
   xml:space="preserve"
   style="font-size:49.35625839px;font-style:normal;font-variant:normal;font-weight:normal;font-stretch:normal;text-align:start;line-height:125%;letter-spacing:0px;word-spacing:0px;writing-mode:lr-tb;text-anchor:start;fill:#000000;fill-opacity:1;stroke:none;font-family:Freestyle Script;-inkscape-font-specification:Freestyle Script"
   x="124.09829"
   y="-207.34567"
   id="text3273"
   sodipodi:linespacing="125%"
   transform="scale(1,-1)"><tspan
     sodipodi:role="line"
     id="tspan3275"
     x="124.09829"
     y="-207.34567">(t)</tspan></text>
<text
   style="font-size:38.07998657px"
   transform="scale(0.99883766,-1.0011637)"
   id="text3172-9"
   x="751.55109"
   y="-41.978443"><tspan
     style="font-size:77.22517395px;font-variant:normal;font-weight:normal;writing-mode:lr-tb;fill:#000000;fill-opacity:1;fill-rule:nonzero;stroke:none;font-family:FREESTYLE SCRIPT;-inkscape-font-specification:FREESTYLE SCRIPT"
     x="751.55109"
     y="-41.978443"
     id="tspan3174-1">t</tspan></text>
</g></svg>