<?xml version="1.0" encoding="UTF-8" standalone="no"?>
<!-- Created with Inkscape (http://www.inkscape.org/) -->

<svg
   xmlns:ns0="http://www.iki.fi/pav/software/textext/"
   xmlns:dc="http://purl.org/dc/elements/1.1/"
   xmlns:cc="http://creativecommons.org/ns#"
   xmlns:rdf="http://www.w3.org/1999/02/22-rdf-syntax-ns#"
   xmlns:svg="http://www.w3.org/2000/svg"
   xmlns="http://www.w3.org/2000/svg"
   xmlns:sodipodi="http://sodipodi.sourceforge.net/DTD/sodipodi-0.dtd"
   xmlns:inkscape="http://www.inkscape.org/namespaces/inkscape"
   id="svg2984"
   version="1.1"
   inkscape:version="0.48.1 "
   width="280"
   height="150"
   xml:space="preserve"
   sodipodi:docname="AD_SNR.svg"><sodipodi:namedview
     pagecolor="#ffffff"
     bordercolor="#666666"
     borderopacity="1"
     objecttolerance="10"
     gridtolerance="10"
     guidetolerance="10"
     inkscape:pageopacity="0"
     inkscape:pageshadow="2"
     inkscape:window-width="1920"
     inkscape:window-height="1125"
     id="namedview2986"
     showgrid="false"
     showguides="true"
     inkscape:guide-bbox="true"
     inkscape:zoom="2.2725"
     inkscape:cx="218.7288"
     inkscape:cy="123.83854"
     inkscape:window-x="-9"
     inkscape:window-y="-9"
     inkscape:window-maximized="1"
     inkscape:current-layer="g2992" /><metadata
     id="metadata2990"><rdf:RDF><cc:Work
         rdf:about=""><dc:format>image/svg+xml</dc:format><dc:type
           rdf:resource="http://purl.org/dc/dcmitype/StillImage" /><dc:title></dc:title></cc:Work></rdf:RDF></metadata><defs
     id="defs2988"><marker
       inkscape:stockid="Arrow1Mend"
       orient="auto"
       refY="0"
       refX="0"
       id="Arrow1Mend"
       style="overflow:visible"><path
         inkscape:connector-curvature="0"
         id="path3790"
         d="M 0,0 5,-5 -12.5,0 5,5 0,0 z"
         style="fill-rule:evenodd;stroke:#000000;stroke-width:1pt;marker-start:none"
         transform="matrix(-0.4,0,0,-0.4,-4,0)" /></marker><marker
       inkscape:stockid="Arrow1Mstart"
       orient="auto"
       refY="0"
       refX="0"
       id="Arrow1Mstart"
       style="overflow:visible"><path
         inkscape:connector-curvature="0"
         id="path3787"
         d="M 0,0 5,-5 -12.5,0 5,5 0,0 z"
         style="fill-rule:evenodd;stroke:#000000;stroke-width:1pt;marker-start:none"
         transform="matrix(0.4,0,0,0.4,4,0)" /></marker></defs><g
     id="g2992"
     inkscape:groupmode="layer"
     inkscape:label="skici"
     transform="matrix(1.25,0,0,-1.25,0,150)"><rect
   style="fill:#e8ffb2;fill-opacity:1;stroke:#000000;stroke-width:1.36000013;stroke-linecap:round;stroke-linejoin:round;stroke-miterlimit:4;stroke-opacity:1;stroke-dasharray:none;stroke-dashoffset:0"
   id="rect3004"
   width="156.65565"
   height="116.87569"
   x="1.3130926"
   y="-118.06028"
   transform="scale(1,-1)" /><path
   d="m 3.617697,59.478614 c 9.7,33.26 22.589912,56.662296 38.27,56.699996 15.50407,-0.38974 28.57,-23.439996 38.27,-56.689996 9.69,-33.26 22.061863,-56.1342464 38.270003,-56.6999996 16.19814,0.3897356 28.57,23.4299996 38.26,56.6899996"
   style="fill:none;stroke:#0000ff;stroke-width:2.16000009;stroke-linecap:round;stroke-linejoin:round;stroke-miterlimit:10;stroke-opacity:1;stroke-dasharray:none"
   id="path3002"
   inkscape:connector-curvature="0"
   sodipodi:nodetypes="ccccc" /><path
   style="fill:none;stroke:#000000;stroke-width:0.80000001px;stroke-linecap:butt;stroke-linejoin:miter;stroke-opacity:1"
   d="M 1.665126,58.566336 157.61672,59.62244"
   id="path3774"
   inkscape:connector-curvature="0" /><path
   style="fill:none;stroke:#000000;stroke-width:0.79999995px;stroke-linecap:butt;stroke-linejoin:miter;stroke-opacity:1;marker-start:url(#Arrow1Mstart);marker-end:url(#Arrow1Mend)"
   d="M 118.89285,1.5366317 118.18878,116.80252"
   id="path3776"
   inkscape:connector-curvature="0" /><path
   style="fill:none;stroke:#000000;stroke-width:0.80000001px;stroke-linecap:butt;stroke-linejoin:miter;stroke-opacity:1;marker-start:url(#Arrow1Mstart);marker-end:url(#Arrow1Mend)"
   d="m 41.506491,117.00418 0.05325,-57.223386"
   id="path4408"
   inkscape:connector-curvature="0" /><text
   xml:space="preserve"
   style="font-size:19.72593117px;font-style:normal;font-variant:normal;font-weight:normal;font-stretch:normal;text-align:start;line-height:125%;letter-spacing:0px;word-spacing:0px;writing-mode:lr-tb;text-anchor:start;fill:#000000;fill-opacity:1;stroke:none;font-family:Freestyle Script;-inkscape-font-specification:Freestyle Script"
   x="121.94128"
   y="-68.797119"
   id="text4778"
   sodipodi:linespacing="125%"
   transform="scale(1,-1)"><tspan
     sodipodi:role="line"
     id="tspan4780"
     x="121.94128"
     y="-68.797119">FS</tspan></text>




<text
   xml:space="preserve"
   style="font-size:19.72593117px;font-style:normal;font-variant:normal;font-weight:normal;font-stretch:normal;text-align:start;line-height:125%;letter-spacing:0px;word-spacing:0px;writing-mode:lr-tb;text-anchor:start;fill:#000000;fill-opacity:1;stroke:none;font-family:Freestyle Script;-inkscape-font-specification:Freestyle Script"
   x="44.439648"
   y="-72.336266"
   id="text4778-3"
   sodipodi:linespacing="125%"
   transform="scale(1,-1)"><tspan
     sodipodi:role="line"
     id="tspan4780-9"
     x="44.439648"
     y="-72.336266">Um<tspan
   style="font-size:10.39999962px;baseline-shift:sub"
   id="tspan4803" /></tspan></text>




<g
   style="font-style:normal;font-variant:normal;font-weight:normal;font-stretch:normal;letter-spacing:normal;word-spacing:normal;text-anchor:start;fill:none;stroke:#000000;stroke-width:3.10254216;stroke-linecap:butt;stroke-linejoin:miter;stroke-miterlimit:10.43299961;stroke-opacity:1;stroke-dasharray:none;stroke-dashoffset:0"
   id="content"
   transform="matrix(1.3187917,0,0,1.2604,-327.23088,-800.13999)"
   xml:space="preserve"
   stroke-miterlimit="10.433"
   font-style="normal"
   font-variant="normal"
   font-weight="normal"
   font-stretch="normal"
   font-size-adjust="none"
   letter-spacing="normal"
   word-spacing="normal"
   ns0:text="$$u_{ef}=\\frac{U_m}{\\sqrt{2}}$$\n"
   ns0:preamble="">
<path
   style="fill:#000000;stroke-width:0"
   inkscape:connector-curvature="0"
   d="m 376.43,704.1 0.01,-0.04 0.01,-0.04 0.02,-0.03 0.01,-0.04 0.02,-0.03 0.02,-0.04 0.02,-0.03 0.02,-0.03 0.02,-0.03 0.02,-0.03 0.02,-0.03 0.03,-0.02 0.02,-0.03 0.03,-0.02 0.03,-0.03 0.02,-0.02 0.03,-0.02 0.03,-0.02 0.04,-0.02 0.03,-0.02 0.03,-0.01 0.03,-0.02 0.04,-0.01 0.03,-0.01 0.04,-0.01 0.04,-0.01 0.03,-0.01 0.04,-0.01 0.04,0 0.04,-0.01 0.04,0 0.04,0 c 0.35,0 0.58,0.23 0.74,0.55 0.17,0.36 0.3,0.96 0.3,0.98 0,0.1 -0.09,0.1 -0.13,0.1 -0.09,0 -0.1,-0.04 -0.13,-0.18 -0.14,-0.55 -0.33,-1.23 -0.75,-1.23 -0.21,0 -0.31,0.13 -0.31,0.46 0,0.22 0.12,0.68 0.2,1.03 l 0.28,1.08 c 0.03,0.15 0.13,0.52 0.17,0.67 0.05,0.23 0.15,0.61 0.15,0.67 0,0.18 -0.14,0.27 -0.29,0.27 -0.05,0 -0.31,-0.01 -0.39,-0.35 -0.19,-0.72 -0.63,-2.47 -0.75,-3 -0.01,-0.03 -0.41,-0.83 -1.14,-0.83 -0.51,0 -0.61,0.45 -0.61,0.82 0,0.55 0.28,1.34 0.54,2.03 0.11,0.29 0.16,0.43 0.16,0.62 0,0.45 -0.31,0.82 -0.81,0.82 -0.95,0 -1.32,-1.44 -1.32,-1.53 0,-0.1 0.1,-0.1 0.12,-0.1 0.1,0 0.11,0.02 0.16,0.18 0.25,0.86 0.63,1.23 1.01,1.23 0.09,0 0.25,-0.01 0.25,-0.33 0,-0.24 -0.11,-0.53 -0.17,-0.67 -0.37,-0.99 -0.58,-1.61 -0.58,-2.09 0,-0.95 0.69,-1.2 1.22,-1.2 0.66,0 1.02,0.45 1.19,0.67 z"
   id="path4825" />
<path
   style="fill:#000000;stroke-width:0"
   inkscape:connector-curvature="0"
   d="m 380.2,703.63 0.02,0 0.03,0 0.02,0 0.02,0 0.03,0 0.03,0 0.03,0 0.03,0.01 0.03,0 0.04,0 0.03,0 0.04,0 0.03,0 0.04,0.01 0.08,0 0.08,0.01 0.08,0.01 0.08,0.01 0.08,0.02 0.08,0.01 0.04,0.01 0.04,0.01 0.04,0.01 0.03,0.01 0.04,0.01 0.04,0.02 c 0.51,0.18 0.61,0.51 0.61,0.72 0,0.38 -0.38,0.61 -0.86,0.61 v -0.19 c 0.3,0 0.56,-0.15 0.56,-0.42 0,-0.67 -1.18,-0.67 -1.48,-0.67 h -0.34 c 0.29,1 1.06,1.09 1.26,1.09 v 0.19 c -0.84,0 -1.97,-0.64 -1.97,-1.83 0,-0.7 0.44,-1.3 1.25,-1.3 1.18,0 1.73,0.68 1.73,0.78 0,0.04 -0.06,0.12 -0.12,0.12 -0.04,0 -0.05,-0.01 -0.11,-0.07 -0.54,-0.64 -1.35,-0.64 -1.48,-0.64 -0.42,0 -0.7,0.28 -0.7,0.84 0,0.1 0,0.24 0.09,0.62 z"
   id="path4827" />
<path
   style="fill:#000000;stroke-width:0"
   inkscape:connector-curvature="0"
   d="m 385.26,704.79 h 0.68 c 0.14,0 0.23,0 0.23,0.16 0,0.09 -0.09,0.09 -0.21,0.09 h -0.65 c 0.16,0.89 0.21,1.21 0.27,1.41 0.03,0.15 0.19,0.3 0.35,0.3 0.01,0 0.2,0 0.33,-0.09 -0.28,-0.09 -0.3,-0.34 -0.3,-0.38 0,-0.15 0.11,-0.26 0.27,-0.26 0.19,0 0.4,0.16 0.4,0.43 0,0.32 -0.34,0.49 -0.7,0.49 -0.3,0 -0.64,-0.17 -0.83,-0.52 -0.14,-0.26 -0.2,-0.57 -0.34,-1.38 h -0.55 c -0.14,0 -0.23,0 -0.23,-0.15 0,-0.1 0.09,-0.1 0.21,-0.1 h 0.52 c -0.01,-0.04 -0.45,-2.54 -0.61,-3.29 -0.04,-0.15 -0.16,-0.68 -0.49,-0.68 -0.01,0 -0.18,0 -0.31,0.09 0.29,0.09 0.31,0.34 0.31,0.38 0,0.15 -0.12,0.25 -0.28,0.25 -0.19,0 -0.4,-0.15 -0.4,-0.42 0,-0.31 0.33,-0.49 0.68,-0.49 0.44,0 0.75,0.46 0.84,0.61 0.25,0.47 0.41,1.32 0.42,1.4 z"
   id="path4829" />
<path
   style="fill:#000000;stroke-width:0"
   inkscape:connector-curvature="0"
   d="m 397.2,706.79 0.03,0 0.03,0 0.03,0.01 0.02,0 0.01,0 0.02,0 0.01,0 0.01,0 0.02,0 0.01,0.01 0.02,0 0.01,0 0.01,0.01 0.01,0 0.01,0.01 0.02,0.01 0.01,0 0.01,0.01 0.01,0.01 0,0.01 0.01,0.01 0.01,0 0,0.01 0,0 0.01,0.01 0,0.01 0,0 0,0.01 0.01,0.01 0,0 0,0.01 0,0.01 0,0.01 0,0.01 0,0 0,0.01 0,0.01 c 0,0.2 -0.18,0.2 -0.33,0.2 h -5.97 c -0.13,0 -0.32,0 -0.32,-0.2 0,-0.2 0.19,-0.2 0.33,-0.2 z"
   id="path4831" />
<path
   style="fill:#000000;stroke-width:0"
   inkscape:connector-curvature="0"
   d="m 397.21,704.86 0.03,0 0.03,0 0.03,0.01 0.01,0 0.02,0 0.01,0 0.01,0 0.02,0 0.01,0 0.01,0.01 0.02,0 0.01,0 0.01,0.01 0.01,0 0.02,0.01 0.01,0.01 0.01,0 0.01,0.01 0.01,0.01 0,0.01 0.01,0 0,0.01 0.01,0 0,0.01 0,0 0.01,0.01 0,0.01 0,0 0,0.01 0.01,0.01 0,0 0,0.01 0,0.01 0,0.01 0,0.01 0,0 0,0.01 0,0.01 c 0,0.2 -0.18,0.2 -0.34,0.2 h -5.95 c -0.14,0 -0.33,0 -0.33,-0.2 0,-0.2 0.19,-0.2 0.32,-0.2 z"
   id="path4833" />
<path
   style="fill:#000000;stroke-width:0"
   inkscape:connector-curvature="0"
   d="m 408.4,716.03 0.02,0.08 0.01,0.03 0.01,0.04 0.01,0.03 0.02,0.04 0.01,0.03 0.02,0.04 0.01,0.03 0.02,0.03 0.02,0.03 0.02,0.03 0.03,0.02 0.02,0.03 0.03,0.03 0.02,0.02 0.04,0.03 0.03,0.02 0.03,0.02 0.04,0.02 0.04,0.02 0.04,0.02 0.05,0.01 0.04,0.02 0.05,0.01 0.06,0.01 0.05,0.02 0.06,0.01 0.07,0 0.06,0.01 0.07,0.01 0.04,0 0.03,0 c 0.05,0 0.17,0.01 0.17,0.2 0,0.01 0,0.11 -0.13,0.11 -0.33,0 -0.67,-0.03 -1.01,-0.03 -0.34,0 -0.71,0.03 -1.04,0.03 -0.06,0 -0.18,0 -0.18,-0.2 0,-0.11 0.1,-0.11 0.18,-0.11 0.57,-0.01 0.68,-0.22 0.68,-0.44 0,-0.03 -0.02,-0.18 -0.03,-0.21 l -0.9,-3.55 c -0.34,-1.34 -1.48,-2.2 -2.48,-2.2 -0.68,0 -1.22,0.44 -1.22,1.29 0,0.02 0,0.34 0.11,0.78 l 0.97,3.87 c 0.09,0.36 0.11,0.46 0.84,0.46 0.26,0 0.34,0 0.34,0.2 0,0.11 -0.11,0.11 -0.14,0.11 -0.28,0 -1,-0.03 -1.28,-0.03 -0.29,0 -1,0.03 -1.28,0.03 -0.09,0 -0.19,0 -0.19,-0.2 0,-0.11 0.08,-0.11 0.27,-0.11 0.02,0 0.21,0 0.38,-0.02 0.18,-0.02 0.27,-0.03 0.27,-0.16 0,-0.06 -0.11,-0.48 -0.17,-0.71 l -0.22,-0.87 c -0.09,-0.39 -0.56,-2.27 -0.6,-2.46 -0.07,-0.28 -0.07,-0.43 -0.07,-0.58 0,-1.21 0.9,-1.91 1.95,-1.91 1.26,0 2.49,1.13 2.82,2.44 z"
   id="path4835" />
<path
   style="fill:#000000;stroke-width:0"
   inkscape:connector-curvature="0"
   d="m 411.89,709.35 0,-0.01 0,-0.02 -0.01,-0.01 0,-0.02 0,-0.01 -0.01,-0.02 -0.01,-0.03 0,-0.03 -0.01,-0.03 -0.01,-0.03 0,-0.02 -0.01,-0.01 0,-0.02 -0.01,-0.01 0,-0.02 0,-0.01 -0.01,-0.02 0,-0.01 0,-0.01 0,-0.01 -0.01,-0.01 0,-0.01 0,-0.01 0,-0.01 0,-0.01 0,0 0,-0.01 0,0 c 0,-0.15 0.12,-0.22 0.23,-0.22 0.13,0 0.24,0.09 0.27,0.15 0.04,0.06 0.09,0.28 0.13,0.43 0.03,0.13 0.11,0.45 0.15,0.63 0.05,0.15 0.09,0.3 0.12,0.46 0.08,0.3 0.08,0.32 0.22,0.53 0.22,0.34 0.57,0.74 1.11,0.74 0.39,0 0.41,-0.32 0.41,-0.49 0,-0.42 -0.3,-1.19 -0.41,-1.48 -0.08,-0.2 -0.1,-0.26 -0.1,-0.38 0,-0.36 0.3,-0.59 0.66,-0.59 0.7,0 1,0.96 1,1.06 0,0.09 -0.09,0.09 -0.11,0.09 -0.1,0 -0.1,-0.04 -0.13,-0.12 -0.16,-0.55 -0.46,-0.84 -0.74,-0.84 -0.15,0 -0.17,0.1 -0.17,0.24 0,0.16 0.03,0.26 0.16,0.57 0.08,0.21 0.36,0.95 0.36,1.34 0,0.11 0,0.4 -0.25,0.6 -0.12,0.1 -0.32,0.19 -0.65,0.19 -0.63,0 -1.01,-0.41 -1.23,-0.7 -0.06,0.59 -0.55,0.7 -0.91,0.7 -0.58,0 -0.97,-0.35 -1.18,-0.63 -0.04,0.48 -0.45,0.63 -0.74,0.63 -0.3,0 -0.46,-0.21 -0.55,-0.37 -0.15,-0.26 -0.25,-0.66 -0.25,-0.69 0,-0.09 0.1,-0.09 0.12,-0.09 0.09,0 0.1,0.02 0.15,0.21 0.1,0.41 0.24,0.75 0.51,0.75 0.18,0 0.23,-0.15 0.23,-0.34 0,-0.14 -0.06,-0.39 -0.11,-0.58 -0.05,-0.19 -0.12,-0.47 -0.16,-0.63 l -0.22,-0.89 c -0.03,-0.09 -0.07,-0.26 -0.07,-0.28 0,-0.15 0.13,-0.22 0.24,-0.22 0.12,0 0.24,0.09 0.27,0.15 0.03,0.06 0.09,0.28 0.13,0.43 0.03,0.13 0.11,0.45 0.15,0.63 0.04,0.15 0.08,0.3 0.12,0.46 0.07,0.29 0.09,0.34 0.29,0.63 0.19,0.28 0.52,0.64 1.04,0.64 0.41,0 0.41,-0.36 0.41,-0.49 0,-0.17 -0.02,-0.26 -0.11,-0.65 z"
   id="path4837" />
<line
   style="stroke-width:1.23481178"
   x1="402.07001"
   y1="706.03003"
   x2="416.44"
   y2="706.03003"
   id="line4839" />
<path
   style="fill:#000000;stroke-width:0"
   inkscape:connector-curvature="0"
   d="m 406.49,695.33 -1.76,3.87 c -0.06,0.16 -0.11,0.16 -0.14,0.16 -0.01,0 -0.06,0 -0.17,-0.08 l -0.95,-0.72 c -0.13,-0.09 -0.13,-0.13 -0.13,-0.15 0,-0.06 0.03,-0.12 0.1,-0.12 0.06,0 0.23,0.14 0.34,0.22 0.06,0.05 0.21,0.16 0.32,0.24 l 1.96,-4.31 c 0.07,-0.16 0.12,-0.16 0.21,-0.16 0.15,0 0.18,0.06 0.25,0.2 l 4.53,9.36 c 0.06,0.14 0.06,0.18 0.06,0.2 0,0.1 -0.07,0.2 -0.19,0.2 -0.08,0 -0.15,-0.05 -0.23,-0.21 z"
   id="path4841" />
<line
   style="stroke-width:1.23481178"
   x1="410.91"
   y1="704.03998"
   x2="415.89001"
   y2="704.03998"
   id="line4843" />
<path
   style="fill:#000000;stroke-width:0"
   inkscape:connector-curvature="0"
   d="m 412.18,696.36 1.06,1.03 c 1.55,1.37 2.15,1.91 2.15,2.91 0,1.13 -0.9,1.93 -2.11,1.93 -1.13,0 -1.87,-0.92 -1.87,-1.81 0,-0.55 0.5,-0.55 0.53,-0.55 0.17,0 0.52,0.12 0.52,0.53 0,0.25 -0.18,0.51 -0.53,0.51 -0.08,0 -0.1,0 -0.13,-0.01 0.23,0.65 0.77,1.02 1.35,1.02 0.9,0 1.33,-0.81 1.33,-1.62 0,-0.8 -0.5,-1.59 -1.04,-2.2 l -1.92,-2.13 c -0.11,-0.11 -0.11,-0.13 -0.11,-0.37 h 3.7 l 0.28,1.73 h -0.25 c -0.05,-0.3 -0.12,-0.74 -0.22,-0.89 -0.07,-0.08 -0.73,-0.08 -0.95,-0.08 z"
   id="path4845" />
</g>
<g
   style="font-style:normal;font-variant:normal;font-weight:normal;font-stretch:normal;letter-spacing:normal;word-spacing:normal;text-anchor:start;fill:none;stroke:#000000;stroke-width:3.10254216;stroke-linecap:butt;stroke-linejoin:miter;stroke-miterlimit:10.43299961;stroke-opacity:1;stroke-dasharray:none;stroke-dashoffset:0"
   ns0:preamble=""
   ns0:text="$$Q = \\frac{FS}{2^N}$$\n\n"
   word-spacing="normal"
   letter-spacing="normal"
   font-size-adjust="none"
   font-stretch="normal"
   font-weight="normal"
   font-variant="normal"
   font-style="normal"
   stroke-miterlimit="10.433"
   xml:space="preserve"
   transform="matrix(1.3187917,0,0,1.2604,-322.84217,-866.4283)"
   id="g4958">
<path
   style="fill:#000000;stroke-width:0"
   inkscape:connector-curvature="0"
   id="path4960"
   d="m 380.64,703.6 0.15,0.06 0.14,0.06 0.14,0.08 0.14,0.07 0.15,0.09 0.13,0.09 0.14,0.09 0.13,0.11 0.14,0.1 0.12,0.12 0.13,0.11 0.12,0.13 0.12,0.12 0.12,0.13 0.11,0.14 0.11,0.14 0.1,0.14 0.1,0.15 0.09,0.15 0.09,0.16 0.08,0.15 0.08,0.16 0.07,0.17 0.06,0.16 0.06,0.17 0.05,0.17 0.04,0.17 0.04,0.18 0.03,0.17 0.02,0.18 0.01,0.18 0,0.18 c 0,1.6 -1.05,2.68 -2.54,2.68 l -0.06,-0.25 c 1,0 1.72,-0.78 1.72,-2.11 0,-1 -0.5,-3.33 -2.18,-4.26 -0.05,0.35 -0.15,1.07 -0.88,1.07 v -0.22 c 0.42,0 0.61,-0.24 0.61,-0.84 0,-0.15 -0.01,-0.16 -0.11,-0.2 -0.26,-0.11 -0.56,-0.18 -0.83,-0.18 h 0 c -0.14,0 -0.46,0 -0.46,0.43 0,0.4 0.38,0.79 0.79,0.79 v 0.22 c -0.52,0 -1.01,-0.49 -1.01,-1.01 0,-0.2 0.06,-0.31 0.06,-0.32 h 0 c -0.78,0.31 -1.12,1.08 -1.12,1.98 0,0.69 0.26,2.1 1.02,3.18 0.73,1.01 1.66,1.47 2.39,1.47 l 0.06,0.25 c -2.15,0 -4.35,-2.26 -4.35,-4.58 0,-1.65 1.12,-2.66 2.56,-2.66 0.25,0 0.58,0.04 0.97,0.15 -0.04,-0.62 -0.04,-0.64 -0.04,-0.77 0,-0.31 0,-1.09 0.83,-1.09 1.19,0 1.66,1.82 1.66,1.93 0,0.07 -0.06,0.1 -0.1,0.1 -0.08,0 -0.1,-0.05 -0.12,-0.11 -0.24,-0.71 -0.82,-0.95 -1.17,-0.95 -0.46,0 -0.61,0.26 -0.71,1.02 z" />
<path
   style="fill:#000000;stroke-width:0"
   inkscape:connector-curvature="0"
   id="path4962"
   d="m 393.77,706.79 0.03,0 0.02,0 0.03,0.01 0.02,0 0.01,0 0.02,0 0.01,0 0.02,0 0.01,0 0.01,0.01 0.02,0 0.01,0 0.01,0.01 0.01,0 0.02,0.01 0.01,0.01 0.01,0 0.01,0.01 0.01,0.01 0.01,0.01 0,0.01 0.01,0 0,0.01 0,0 0.01,0.01 0,0.01 0,0 0.01,0.01 0,0.01 0,0 0,0.01 0,0.01 0,0.01 0,0.01 0.01,0 0,0.01 0,0.01 c 0,0.2 -0.19,0.2 -0.33,0.2 h -5.97 c -0.14,0 -0.33,0 -0.33,-0.2 0,-0.2 0.19,-0.2 0.34,-0.2 z" />
<path
   style="fill:#000000;stroke-width:0"
   inkscape:connector-curvature="0"
   id="path4964"
   d="m 393.78,704.86 0.02,0 0.03,0 0.03,0.01 0.01,0 0.02,0 0.01,0 0.02,0 0.01,0 0.01,0 0.02,0.01 0.01,0 0.01,0 0.01,0.01 0.02,0 0.01,0.01 0.01,0.01 0.01,0 0.01,0.01 0.01,0.01 0.01,0.01 0,0 0,0.01 0.01,0 0,0.01 0,0 0.01,0.01 0,0.01 0,0 0.01,0.01 0,0.01 0,0 0,0.01 0,0.01 0,0.01 0,0.01 0.01,0 0,0.01 0,0.01 c 0,0.2 -0.19,0.2 -0.34,0.2 h -5.95 c -0.15,0 -0.34,0 -0.34,-0.2 0,-0.2 0.19,-0.2 0.33,-0.2 z" />
<path
   style="fill:#000000;stroke-width:0"
   inkscape:connector-curvature="0"
   id="path4966"
   d="m 401.65,713.52 h 0.97 c 0.75,0 0.83,-0.17 0.83,-0.45 0,-0.07 0,-0.19 -0.07,-0.49 -0.02,-0.05 -0.03,-0.09 -0.03,-0.11 0,-0.08 0.06,-0.12 0.12,-0.12 0.1,0 0.1,0.03 0.14,0.21 l 0.55,2.16 c 0.03,0.11 0.03,0.13 0.03,0.16 0,0.02 -0.02,0.11 -0.12,0.11 -0.1,0 -0.11,-0.05 -0.15,-0.21 -0.21,-0.78 -0.43,-0.96 -1.28,-0.96 h -0.91 l 0.64,2.53 c 0.09,0.35 0.1,0.39 0.54,0.39 h 1.31 c 1.23,0 1.46,-0.33 1.46,-1.1 0,-0.23 0,-0.26 -0.03,-0.53 -0.02,-0.13 -0.02,-0.15 -0.02,-0.18 0,-0.05 0.03,-0.12 0.12,-0.12 0.11,0 0.12,0.06 0.14,0.25 l 0.2,1.72 c 0.03,0.27 -0.02,0.27 -0.27,0.27 h -4.89 c -0.2,0 -0.29,0 -0.29,-0.2 0,-0.11 0.08,-0.11 0.27,-0.11 0.37,0 0.65,0 0.65,-0.18 0,-0.04 0,-0.06 -0.05,-0.24 l -1.31,-5.26 c -0.1,-0.39 -0.12,-0.47 -0.91,-0.47 -0.17,0 -0.28,0 -0.28,-0.19 0,-0.12 0.12,-0.12 0.15,-0.12 0.29,0 1.03,0.03 1.32,0.03 0.32,0 1.15,-0.03 1.48,-0.03 0.09,0 0.21,0 0.21,0.19 0,0.08 -0.06,0.1 -0.06,0.11 -0.03,0.01 -0.05,0.01 -0.28,0.01 -0.22,0 -0.27,0 -0.52,0.02 -0.29,0.03 -0.32,0.07 -0.32,0.2 0,0.02 0,0.08 0.04,0.23 z" />
<path
   style="fill:#000000;stroke-width:0"
   inkscape:connector-curvature="0"
   id="path4968"
   d="m 412.85,717.2 0,0 0,0 0,0.01 0,0 0,0 0,0.01 0,0 0,0.01 0,0 -0.01,0 0,0.01 0,0 0,0.01 0,0 -0.01,0 0,0.01 0,0 -0.01,0.01 0,0 0,0 -0.01,0.01 0,0 -0.01,0 0,0 -0.01,0.01 0,0 0,0 -0.01,0 0,0 0,0 -0.01,0 0,0 0,0 -0.01,0 0,0.01 0,0 -0.01,0 0,0 -0.01,0 c -0.05,0 -0.06,-0.01 -0.18,-0.15 l -0.48,-0.57 c -0.25,0.47 -0.77,0.72 -1.42,0.72 -1.27,0 -2.46,-1.15 -2.46,-2.35 0,-0.81 0.53,-1.27 1.03,-1.42 l 1.07,-0.27 c 0.37,-0.09 0.92,-0.24 0.92,-1.06 0,-0.9 -0.82,-1.83 -1.8,-1.83 -0.63,0 -1.74,0.22 -1.74,1.45 0,0.24 0.05,0.48 0.06,0.54 0.01,0.04 0.02,0.05 0.02,0.07 0,0.1 -0.07,0.11 -0.12,0.11 -0.05,0 -0.07,-0.01 -0.1,-0.04 -0.04,-0.04 -0.6,-2.31 -0.6,-2.34 0,-0.06 0.05,-0.1 0.11,-0.1 0.05,0 0.06,0.01 0.18,0.15 l 0.49,0.57 c 0.43,-0.58 1.11,-0.72 1.68,-0.72 1.36,0 2.53,1.33 2.53,2.56 0,0.69 -0.33,1.02 -0.48,1.16 -0.23,0.23 -0.38,0.27 -1.27,0.5 -0.22,0.06 -0.58,0.16 -0.67,0.18 -0.27,0.09 -0.61,0.38 -0.61,0.91 0,0.8 0.8,1.65 1.75,1.65 0.83,0 1.43,-0.43 1.43,-1.55 0,-0.31 -0.03,-0.49 -0.03,-0.55 0,-0.01 0,-0.1 0.11,-0.1 0.1,0 0.11,0.03 0.15,0.2 z" />
<line
   style="stroke-width:0.398"
   id="line4970"
   y2="706.03003"
   x2="413.10001"
   y1="706.03003"
   x1="398.63" />
<path
   style="fill:#000000;stroke-width:0"
   inkscape:connector-curvature="0"
   id="path4972"
   d="m 400.86,697.47 1.06,1.03 c 1.56,1.37 2.16,1.91 2.16,2.9 0,1.14 -0.9,1.93 -2.12,1.93 -1.13,0 -1.86,-0.91 -1.86,-1.8 0,-0.55 0.5,-0.55 0.53,-0.55 0.17,0 0.51,0.11 0.51,0.52 0,0.26 -0.18,0.52 -0.52,0.52 -0.08,0 -0.1,0 -0.13,-0.01 0.22,0.65 0.76,1.02 1.34,1.02 0.91,0 1.34,-0.81 1.34,-1.63 0,-0.79 -0.5,-1.58 -1.05,-2.2 l -1.91,-2.13 c -0.11,-0.1 -0.11,-0.12 -0.11,-0.36 h 3.7 l 0.28,1.73 h -0.25 c -0.05,-0.3 -0.12,-0.74 -0.22,-0.89 -0.07,-0.08 -0.73,-0.08 -0.95,-0.08 z" />
<path
   style="fill:#000000;stroke-width:0"
   inkscape:connector-curvature="0"
   id="path4974"
   d="m 410.39,703.58 0.01,0.04 0.02,0.05 0.01,0.03 0,0.02 0.01,0.02 0.01,0.02 0.02,0.03 0.01,0.02 0.01,0.02 0.02,0.02 0.01,0.02 0.02,0.02 0.02,0.02 0.01,0.01 0.03,0.02 0.02,0.02 0.02,0.01 0.03,0.02 0.02,0.01 0.03,0.01 0.03,0.01 0.04,0.01 0.03,0.01 0.04,0.01 0.04,0.01 0.04,0.01 0.04,0 0.02,0.01 0.03,0 0.02,0 0.03,0 0.02,0 0.03,0 c 0.03,0 0.14,0.01 0.14,0.16 0,0.04 -0.04,0.09 -0.11,0.09 -0.23,0 -0.49,-0.03 -0.72,-0.03 -0.17,0 -0.57,0.03 -0.74,0.03 -0.04,0 -0.14,0 -0.14,-0.15 0,-0.09 0.09,-0.1 0.15,-0.1 0.33,0 0.45,-0.11 0.45,-0.28 0,-0.06 -0.01,-0.09 -0.03,-0.17 l -0.76,-3.03 -1.77,3.62 c -0.05,0.11 -0.07,0.11 -0.23,0.11 h -0.96 c -0.13,0 -0.22,0 -0.22,-0.15 0,-0.1 0.08,-0.1 0.23,-0.1 0.15,0 0.3,0 0.44,-0.03 l -0.93,-3.72 c -0.06,-0.27 -0.18,-0.48 -0.72,-0.5 -0.05,0 -0.15,0 -0.15,-0.14 0,-0.08 0.06,-0.11 0.11,-0.11 0.22,0 0.48,0.03 0.72,0.03 0.17,0 0.57,-0.03 0.74,-0.03 0.07,0 0.14,0.04 0.14,0.15 0,0.1 -0.09,0.1 -0.16,0.1 -0.44,0.02 -0.44,0.2 -0.44,0.3 0,0.02 0,0.06 0.03,0.17 l 0.89,3.56 2.03,-4.16 c 0.06,-0.11 0.08,-0.12 0.15,-0.12 0.12,0 0.12,0.02 0.15,0.15 z" />
</g>
<g
   id="g5105"
   transform="matrix(1.3187917,0,0,1.2604,-476.4897,-866.78032)"
   xml:space="preserve"
   stroke-miterlimit="10.433"
   font-style="normal"
   font-variant="normal"
   font-weight="normal"
   font-stretch="normal"
   font-size-adjust="none"
   letter-spacing="normal"
   word-spacing="normal"
   ns0:text="$$u_{ef} = \\frac{2^N}{2\\cdot\\sqrt{2}}Q$$\n\n"
   ns0:preamble=""
   style="font-style:normal;font-variant:normal;font-weight:normal;font-stretch:normal;letter-spacing:normal;word-spacing:normal;text-anchor:start;fill:none;stroke:#000000;stroke-width:3.10254216;stroke-linecap:butt;stroke-linejoin:miter;stroke-miterlimit:10.43299961;stroke-opacity:1;stroke-dasharray:none;stroke-dashoffset:0">
<path
   style="fill:#000000;stroke-width:0"
   inkscape:connector-curvature="0"
   d="m 366.95,702.52 0.01,-0.03 0.01,-0.04 0.02,-0.04 0.01,-0.03 0.02,-0.04 0.01,-0.03 0.02,-0.03 0.02,-0.03 0.02,-0.03 0.03,-0.03 0.02,-0.03 0.02,-0.03 0.03,-0.02 0.03,-0.03 0.02,-0.02 0.03,-0.02 0.03,-0.02 0.03,-0.02 0.03,-0.02 0.03,-0.02 0.04,-0.01 0.03,-0.02 0.04,-0.01 0.03,-0.02 0.04,-0.01 0.03,-0.01 0.04,0 0.04,-0.01 0.04,-0.01 0.04,0 0.04,0 0.03,0 c 0.35,0 0.58,0.23 0.74,0.55 0.17,0.35 0.3,0.96 0.3,0.98 0,0.1 -0.09,0.1 -0.12,0.1 -0.1,0 -0.11,-0.04 -0.14,-0.18 -0.14,-0.56 -0.33,-1.23 -0.75,-1.23 -0.2,0 -0.3,0.13 -0.3,0.45 0,0.22 0.12,0.69 0.2,1.04 l 0.27,1.07 c 0.03,0.15 0.13,0.53 0.17,0.68 0.05,0.23 0.15,0.61 0.15,0.67 0,0.18 -0.14,0.27 -0.29,0.27 -0.04,0 -0.3,-0.01 -0.38,-0.35 -0.19,-0.73 -0.63,-2.47 -0.75,-3 -0.01,-0.04 -0.41,-0.83 -1.14,-0.83 -0.52,0 -0.62,0.44 -0.62,0.81 0,0.56 0.28,1.35 0.54,2.03 0.12,0.3 0.17,0.44 0.17,0.63 0,0.45 -0.32,0.82 -0.82,0.82 -0.94,0 -1.31,-1.45 -1.31,-1.54 0,-0.1 0.1,-0.1 0.12,-0.1 0.1,0 0.11,0.02 0.16,0.18 0.25,0.87 0.62,1.24 1,1.24 0.09,0 0.25,-0.01 0.25,-0.33 0,-0.24 -0.11,-0.53 -0.17,-0.68 -0.37,-0.98 -0.57,-1.6 -0.57,-2.09 0,-0.94 0.68,-1.19 1.22,-1.19 0.66,0 1.02,0.44 1.19,0.66 z"
   id="path5107" />
<path
   style="fill:#000000;stroke-width:0"
   inkscape:connector-curvature="0"
   d="m 370.72,702.06 0.02,0 0.02,0 0.03,0 0.02,0 0.03,0 0.03,0 0.03,0 0.03,0 0.03,0 0.03,0.01 0.04,0 0.03,0 0.04,0 0.04,0 0.07,0.01 0.08,0.01 0.08,0.01 0.09,0.01 0.08,0.02 0.08,0.01 0.04,0.01 0.03,0.01 0.04,0.01 0.04,0.01 0.04,0.01 0.03,0.01 c 0.52,0.19 0.62,0.52 0.62,0.73 0,0.38 -0.39,0.61 -0.87,0.61 v -0.2 c 0.31,0 0.57,-0.15 0.57,-0.41 0,-0.68 -1.18,-0.68 -1.48,-0.68 h -0.34 c 0.29,1.01 1.06,1.09 1.25,1.09 v 0.2 c -0.83,0 -1.96,-0.64 -1.96,-1.83 0,-0.7 0.44,-1.31 1.25,-1.31 1.18,0 1.73,0.69 1.73,0.79 0,0.04 -0.06,0.12 -0.12,0.12 -0.04,0 -0.06,-0.02 -0.11,-0.07 -0.54,-0.64 -1.36,-0.64 -1.48,-0.64 -0.42,0 -0.7,0.28 -0.7,0.84 0,0.1 0,0.24 0.08,0.62 z"
   id="path5109" />
<path
   style="fill:#000000;stroke-width:0"
   inkscape:connector-curvature="0"
   d="m 375.78,703.22 h 0.68 c 0.14,0 0.23,0 0.23,0.15 0,0.1 -0.09,0.1 -0.22,0.1 h -0.64 c 0.15,0.88 0.21,1.2 0.27,1.4 0.03,0.16 0.19,0.3 0.35,0.3 0.01,0 0.2,0 0.33,-0.08 -0.29,-0.09 -0.31,-0.34 -0.31,-0.38 0,-0.16 0.12,-0.26 0.28,-0.26 0.19,0 0.4,0.16 0.4,0.42 0,0.32 -0.34,0.5 -0.7,0.5 -0.3,0 -0.65,-0.18 -0.83,-0.52 -0.14,-0.26 -0.2,-0.57 -0.35,-1.38 h -0.54 c -0.15,0 -0.24,0 -0.24,-0.15 0,-0.1 0.09,-0.1 0.22,-0.1 h 0.52 c -0.01,-0.04 -0.45,-2.55 -0.62,-3.29 -0.03,-0.15 -0.15,-0.68 -0.48,-0.68 -0.01,0 -0.18,0 -0.31,0.08 0.29,0.09 0.31,0.34 0.31,0.39 0,0.15 -0.12,0.25 -0.28,0.25 -0.19,0 -0.4,-0.16 -0.4,-0.42 0,-0.32 0.33,-0.5 0.68,-0.5 0.44,0 0.75,0.46 0.83,0.62 0.25,0.46 0.41,1.32 0.43,1.4 z"
   id="path5111" />
<path
   style="fill:#000000;stroke-width:0"
   inkscape:connector-curvature="0"
   d="m 387.72,705.22 0.03,0 0.03,0 0.03,0 0.01,0 0.02,0 0.01,0.01 0.02,0 0.01,0 0.02,0 0.01,0 0.01,0.01 0.02,0 0.01,0.01 0.01,0 0.01,0.01 0.01,0 0.01,0.01 0.01,0.01 0.01,0.01 0.01,0 0.01,0.01 0,0.01 0.01,0.01 0,0 0,0.01 0.01,0 0,0.01 0,0.01 0,0 0,0.01 0.01,0.01 0,0.01 0,0 0,0.01 0,0.01 0,0.01 0,0.01 c 0,0.2 -0.19,0.2 -0.33,0.2 h -5.97 c -0.14,0 -0.33,0 -0.33,-0.2 0,-0.2 0.19,-0.2 0.34,-0.2 z"
   id="path5113" />
<path
   style="fill:#000000;stroke-width:0"
   inkscape:connector-curvature="0"
   d="m 387.73,703.29 0.03,0 0.03,0 0.02,0 0.02,0 0.01,0 0.02,0.01 0.01,0 0.01,0 0.02,0 0.01,0 0.01,0.01 0.02,0 0.01,0.01 0.01,0 0.01,0.01 0.01,0 0.01,0.01 0.01,0.01 0.01,0.01 0.01,0 0.01,0.01 0,0 0,0.01 0.01,0.01 0,0 0,0.01 0.01,0 0,0.01 0,0.01 0,0 0,0.01 0.01,0.01 0,0.01 0,0 0,0.01 0,0.01 0,0.01 0,0.01 c 0,0.2 -0.19,0.2 -0.34,0.2 h -5.95 c -0.15,0 -0.34,0 -0.34,-0.2 0,-0.2 0.19,-0.2 0.33,-0.2 z"
   id="path5115" />
<path
   style="fill:#000000;stroke-width:0"
   inkscape:connector-curvature="0"
   d="m 400.31,709.47 1.06,1.03 c 1.55,1.37 2.15,1.91 2.15,2.91 0,1.13 -0.89,1.93 -2.11,1.93 -1.13,0 -1.87,-0.92 -1.87,-1.81 0,-0.55 0.5,-0.55 0.53,-0.55 0.17,0 0.52,0.12 0.52,0.52 0,0.26 -0.18,0.52 -0.53,0.52 -0.08,0 -0.1,0 -0.13,-0.01 0.23,0.65 0.77,1.02 1.35,1.02 0.91,0 1.33,-0.81 1.33,-1.62 0,-0.8 -0.49,-1.59 -1.04,-2.2 l -1.92,-2.13 c -0.11,-0.11 -0.11,-0.13 -0.11,-0.37 h 3.7 l 0.28,1.73 h -0.25 c -0.05,-0.3 -0.12,-0.74 -0.22,-0.89 -0.07,-0.08 -0.72,-0.08 -0.94,-0.08 z"
   id="path5117" />
<path
   style="fill:#000000;stroke-width:0"
   inkscape:connector-curvature="0"
   d="m 409.84,716.31 0.01,0.05 0.01,0.05 0.01,0.02 0.01,0.03 0.01,0.02 0.01,0.02 0.01,0.02 0.02,0.02 0.01,0.03 0.01,0.02 0.02,0.02 0.02,0.01 0.01,0.02 0.02,0.02 0.02,0.02 0.03,0.01 0.02,0.02 0.02,0.01 0.03,0.02 0.03,0.01 0.03,0.01 0.03,0.01 0.04,0.01 0.04,0.01 0.03,0.01 0.05,0.01 0.04,0 0.02,0 0.03,0.01 0.02,0 0.02,0 0.03,0 0.03,0 c 0.03,0 0.13,0.01 0.13,0.15 0,0.05 -0.03,0.1 -0.1,0.1 -0.23,0 -0.49,-0.03 -0.72,-0.03 -0.17,0 -0.58,0.03 -0.74,0.03 -0.04,0 -0.14,0 -0.14,-0.15 0,-0.09 0.09,-0.1 0.15,-0.1 0.33,-0.01 0.45,-0.11 0.45,-0.28 0,-0.06 -0.01,-0.09 -0.03,-0.17 l -0.76,-3.03 -1.77,3.61 c -0.06,0.12 -0.07,0.12 -0.24,0.12 h -0.95 c -0.13,0 -0.22,0 -0.22,-0.15 0,-0.1 0.08,-0.1 0.23,-0.1 0.14,0 0.3,-0.01 0.44,-0.03 l -0.93,-3.72 c -0.06,-0.27 -0.18,-0.48 -0.73,-0.5 -0.04,0 -0.14,0 -0.14,-0.14 0,-0.08 0.05,-0.11 0.1,-0.11 0.23,0 0.49,0.03 0.73,0.03 0.16,0 0.57,-0.03 0.74,-0.03 0.06,0 0.13,0.04 0.13,0.15 0,0.1 -0.08,0.1 -0.16,0.1 -0.43,0.02 -0.43,0.2 -0.43,0.29 0,0.03 0,0.07 0.02,0.18 l 0.9,3.56 2.03,-4.16 c 0.06,-0.11 0.08,-0.12 0.15,-0.12 0.11,0 0.11,0.02 0.15,0.15 z"
   id="path5119" />
<line
   style="stroke-width:0.398"
   x1="392.57999"
   y1="704.46002"
   x2="418.04999"
   y2="704.46002"
   id="line5121" />
<path
   style="fill:#000000;stroke-width:0"
   inkscape:connector-curvature="0"
   d="m 393.85,694.79 1.06,1.03 c 1.55,1.37 2.15,1.91 2.15,2.9 0,1.14 -0.9,1.93 -2.11,1.93 -1.13,0 -1.87,-0.91 -1.87,-1.8 0,-0.56 0.5,-0.56 0.53,-0.56 0.17,0 0.52,0.12 0.52,0.53 0,0.26 -0.18,0.52 -0.53,0.52 -0.08,0 -0.1,0 -0.13,-0.01 0.23,0.65 0.77,1.01 1.35,1.01 0.91,0 1.33,-0.8 1.33,-1.62 0,-0.79 -0.5,-1.58 -1.04,-2.2 l -1.92,-2.13 c -0.11,-0.11 -0.11,-0.13 -0.11,-0.36 h 3.7 l 0.28,1.73 h -0.25 c -0.05,-0.3 -0.12,-0.74 -0.22,-0.89 -0.07,-0.08 -0.73,-0.08 -0.95,-0.08 z"
   id="path5123" />
<path
   style="fill:#000000;stroke-width:0"
   inkscape:connector-curvature="0"
   d="m 401.69,696.51 0,0.03 0,0.03 0,0.02 -0.01,0.03 0,0.02 -0.01,0.03 -0.01,0.02 -0.01,0.03 -0.01,0.02 -0.01,0.02 -0.01,0.03 -0.02,0.02 -0.01,0.02 -0.02,0.02 -0.01,0.02 -0.02,0.02 -0.02,0.01 -0.02,0.02 -0.02,0.02 -0.02,0.01 -0.02,0.01 -0.02,0.02 -0.03,0.01 -0.02,0.01 -0.02,0.01 -0.03,0.01 -0.02,0 -0.03,0.01 -0.02,0 -0.03,0.01 -0.03,0 -0.02,0 c -0.29,0 -0.53,-0.24 -0.53,-0.53 0,-0.29 0.24,-0.52 0.53,-0.52 0.28,0 0.52,0.23 0.52,0.52 z"
   id="path5125" />
<path
   style="fill:#000000;stroke-width:0"
   inkscape:connector-curvature="0"
   d="m 408.64,693.76 -1.75,3.87 c -0.07,0.16 -0.12,0.16 -0.15,0.16 -0.01,0 -0.06,0 -0.17,-0.08 l -0.95,-0.72 c -0.13,-0.1 -0.13,-0.13 -0.13,-0.16 0,-0.05 0.03,-0.11 0.1,-0.11 0.06,0 0.23,0.14 0.34,0.22 0.06,0.05 0.21,0.16 0.32,0.24 l 1.96,-4.31 c 0.07,-0.16 0.12,-0.16 0.21,-0.16 0.15,0 0.18,0.06 0.25,0.2 l 4.53,9.36 c 0.07,0.14 0.07,0.18 0.07,0.2 0,0.1 -0.09,0.19 -0.2,0.19 -0.08,0 -0.15,-0.05 -0.23,-0.2 z"
   id="path5127" />
<line
   style="stroke-width:0.398"
   x1="413.06"
   y1="702.46997"
   x2="418.04999"
   y2="702.46997"
   id="line5129" />
<path
   style="fill:#000000;stroke-width:0"
   inkscape:connector-curvature="0"
   d="m 414.33,694.79 1.06,1.03 c 1.55,1.37 2.15,1.91 2.15,2.9 0,1.14 -0.9,1.93 -2.11,1.93 -1.13,0 -1.87,-0.91 -1.87,-1.8 0,-0.56 0.5,-0.56 0.53,-0.56 0.17,0 0.52,0.12 0.52,0.53 0,0.26 -0.18,0.52 -0.53,0.52 -0.08,0 -0.1,0 -0.13,-0.01 0.23,0.65 0.77,1.01 1.35,1.01 0.9,0 1.33,-0.8 1.33,-1.62 0,-0.79 -0.5,-1.58 -1.04,-2.2 l -1.92,-2.13 c -0.11,-0.11 -0.11,-0.13 -0.11,-0.36 h 3.7 l 0.28,1.73 h -0.25 c -0.05,-0.3 -0.12,-0.74 -0.22,-0.89 -0.07,-0.08 -0.73,-0.08 -0.95,-0.08 z"
   id="path5131" />
<path
   style="fill:#000000;stroke-width:0"
   inkscape:connector-curvature="0"
   d="m 423.61,702.03 0.14,0.06 0.15,0.06 0.14,0.07 0.14,0.08 0.14,0.08 0.14,0.1 0.14,0.09 0.13,0.1 0.13,0.11 0.13,0.11 0.13,0.12 0.12,0.12 0.12,0.13 0.11,0.13 0.11,0.14 0.11,0.14 0.1,0.14 0.1,0.15 0.1,0.15 0.08,0.15 0.08,0.16 0.08,0.16 0.07,0.16 0.06,0.17 0.06,0.17 0.05,0.17 0.05,0.17 0.03,0.17 0.03,0.18 0.02,0.18 0.01,0.18 0.01,0.18 c 0,1.6 -1.06,2.67 -2.54,2.67 l -0.06,-0.25 c 0.99,0 1.72,-0.77 1.72,-2.1 0,-1 -0.51,-3.33 -2.18,-4.27 -0.05,0.35 -0.15,1.08 -0.88,1.08 v -0.22 c 0.42,0 0.61,-0.24 0.61,-0.84 0,-0.15 -0.01,-0.16 -0.11,-0.2 -0.26,-0.11 -0.56,-0.18 -0.84,-0.18 h 0 c -0.14,0 -0.46,0 -0.46,0.42 0,0.4 0.38,0.8 0.8,0.8 v 0.22 c -0.53,0 -1.02,-0.5 -1.02,-1.02 0,-0.19 0.06,-0.3 0.06,-0.31 h 0 c -0.77,0.3 -1.11,1.08 -1.11,1.98 0,0.68 0.26,2.1 1.01,3.17 0.73,1.02 1.67,1.47 2.4,1.47 l 0.06,0.25 c -2.16,0 -4.35,-2.26 -4.35,-4.57 0,-1.66 1.12,-2.66 2.55,-2.66 0.25,0 0.59,0.04 0.98,0.15 -0.04,-0.62 -0.04,-0.64 -0.04,-0.77 0,-0.32 0,-1.09 0.83,-1.09 1.18,0 1.66,1.82 1.66,1.93 0,0.07 -0.07,0.1 -0.11,0.1 -0.08,0 -0.1,-0.05 -0.12,-0.11 -0.24,-0.71 -0.82,-0.96 -1.16,-0.96 -0.46,0 -0.61,0.27 -0.71,1.03 z"
   id="path5133" />
</g>
<g
   style="font-style:normal;font-variant:normal;font-weight:normal;font-stretch:normal;letter-spacing:normal;word-spacing:normal;text-anchor:start;fill:none;stroke:#000000;stroke-width:3.10254216;stroke-linecap:butt;stroke-linejoin:miter;stroke-miterlimit:10.43299961;stroke-opacity:1;stroke-dasharray:none;stroke-dashoffset:0"
   ns0:preamble=""
   ns0:text="$$U_m = \\frac{FS}{2}$$\n"
   word-spacing="normal"
   letter-spacing="normal"
   font-size-adjust="none"
   font-stretch="normal"
   font-weight="normal"
   font-variant="normal"
   font-style="normal"
   stroke-miterlimit="10.433"
   xml:space="preserve"
   transform="matrix(1.3187917,0,0,1.2604,-326.87474,-834.04106)"
   id="g5294">
<path
   id="path5296"
   d="m 379.36,709.29 0.02,0.08 0.01,0.03 0.01,0.04 0.01,0.03 0.02,0.04 0.01,0.03 0.02,0.04 0.01,0.03 0.02,0.03 0.02,0.03 0.02,0.03 0.03,0.02 0.02,0.03 0.03,0.03 0.03,0.02 0.03,0.03 0.03,0.02 0.03,0.02 0.04,0.02 0.04,0.02 0.04,0.02 0.05,0.01 0.04,0.02 0.06,0.01 0.05,0.01 0.05,0.02 0.06,0.01 0.07,0 0.06,0.01 0.07,0.01 0.04,0 0.03,0 c 0.05,0 0.18,0.01 0.18,0.2 0,0.01 0,0.11 -0.13,0.11 -0.33,0 -0.68,-0.03 -1.02,-0.03 -0.34,0 -0.71,0.03 -1.04,0.03 -0.06,0 -0.18,0 -0.18,-0.2 0,-0.11 0.1,-0.11 0.18,-0.11 0.57,-0.01 0.68,-0.22 0.68,-0.44 0,-0.03 -0.02,-0.18 -0.03,-0.21 l -0.9,-3.55 c -0.34,-1.34 -1.48,-2.2 -2.48,-2.2 -0.68,0 -1.22,0.44 -1.22,1.29 0,0.02 0,0.34 0.11,0.78 l 0.97,3.87 c 0.09,0.36 0.11,0.46 0.84,0.46 0.26,0 0.34,0 0.34,0.2 0,0.11 -0.11,0.11 -0.14,0.11 -0.28,0 -1,-0.03 -1.28,-0.03 -0.29,0 -0.99,0.03 -1.28,0.03 -0.08,0 -0.19,0 -0.19,-0.2 0,-0.11 0.09,-0.11 0.28,-0.11 0.02,0 0.21,0 0.37,-0.02 0.18,-0.02 0.27,-0.03 0.27,-0.16 0,-0.06 -0.11,-0.48 -0.17,-0.71 l -0.21,-0.87 c -0.09,-0.39 -0.57,-2.27 -0.61,-2.46 -0.07,-0.28 -0.07,-0.43 -0.07,-0.58 0,-1.21 0.9,-1.91 1.95,-1.91 1.26,0 2.49,1.13 2.82,2.44 z"
   inkscape:connector-curvature="0"
   style="fill:#000000;stroke-width:0" />
<path
   id="path5298"
   d="m 382.85,702.61 0,-0.01 0,-0.02 -0.01,-0.01 0,-0.02 0,-0.01 -0.01,-0.02 -0.01,-0.03 0,-0.03 -0.01,-0.03 -0.01,-0.03 0,-0.02 -0.01,-0.02 0,-0.01 -0.01,-0.01 0,-0.02 0,-0.01 -0.01,-0.02 0,-0.01 0,-0.01 0,-0.01 -0.01,-0.01 0,-0.01 0,-0.01 0,-0.01 0,-0.01 0,0 0,-0.01 0,0 c 0,-0.15 0.12,-0.22 0.23,-0.22 0.13,0 0.24,0.09 0.27,0.15 0.04,0.06 0.1,0.28 0.13,0.43 0.03,0.13 0.11,0.45 0.15,0.63 0.04,0.15 0.09,0.3 0.12,0.46 0.08,0.3 0.08,0.32 0.22,0.53 0.22,0.34 0.57,0.74 1.11,0.74 0.39,0 0.41,-0.32 0.41,-0.49 0,-0.42 -0.3,-1.19 -0.41,-1.48 -0.07,-0.19 -0.1,-0.26 -0.1,-0.38 0,-0.36 0.3,-0.59 0.66,-0.59 0.69,0 1,0.96 1,1.06 0,0.09 -0.09,0.09 -0.11,0.09 -0.1,0 -0.1,-0.04 -0.13,-0.12 -0.16,-0.55 -0.46,-0.84 -0.74,-0.84 -0.15,0 -0.17,0.1 -0.17,0.24 0,0.16 0.03,0.25 0.16,0.57 0.08,0.21 0.36,0.95 0.36,1.34 0,0.11 0,0.4 -0.25,0.6 -0.12,0.1 -0.32,0.19 -0.65,0.19 -0.63,0 -1.01,-0.41 -1.23,-0.7 -0.06,0.59 -0.55,0.7 -0.91,0.7 -0.58,0 -0.97,-0.35 -1.18,-0.63 -0.04,0.48 -0.46,0.63 -0.74,0.63 -0.3,0 -0.46,-0.21 -0.55,-0.37 -0.15,-0.26 -0.25,-0.66 -0.25,-0.69 0,-0.09 0.1,-0.09 0.12,-0.09 0.09,0 0.1,0.02 0.15,0.21 0.1,0.41 0.24,0.75 0.51,0.75 0.18,0 0.23,-0.15 0.23,-0.34 0,-0.13 -0.06,-0.39 -0.11,-0.58 -0.05,-0.19 -0.12,-0.47 -0.16,-0.63 l -0.22,-0.89 c -0.03,-0.09 -0.07,-0.26 -0.07,-0.28 0,-0.15 0.13,-0.22 0.24,-0.22 0.12,0 0.23,0.09 0.27,0.15 0.03,0.06 0.09,0.28 0.12,0.43 0.04,0.13 0.12,0.45 0.16,0.63 0.04,0.15 0.08,0.3 0.12,0.46 0.07,0.29 0.09,0.34 0.29,0.63 0.19,0.28 0.52,0.64 1.04,0.64 0.41,0 0.41,-0.36 0.41,-0.49 0,-0.17 -0.02,-0.26 -0.11,-0.65 z"
   inkscape:connector-curvature="0"
   style="fill:#000000;stroke-width:0" />
<path
   id="path5300"
   d="m 397.01,706.79 0.03,0 0.03,0 0.03,0.01 0.02,0 0.01,0 0.01,0 0.02,0 0.01,0 0.02,0 0.01,0.01 0.01,0 0.02,0 0.01,0.01 0.01,0 0.01,0.01 0.01,0.01 0.02,0 0.01,0.01 0,0.01 0.01,0.01 0.01,0.01 0,0 0.01,0.01 0,0 0,0.01 0.01,0.01 0,0 0,0.01 0,0.01 0.01,0 0,0.01 0,0.01 0,0.01 0,0.01 0,0 0,0.01 0,0.01 c 0,0.2 -0.19,0.2 -0.33,0.2 h -5.97 c -0.14,0 -0.33,0 -0.33,-0.2 0,-0.2 0.19,-0.2 0.34,-0.2 z"
   inkscape:connector-curvature="0"
   style="fill:#000000;stroke-width:0" />
<path
   id="path5302"
   d="m 397.02,704.86 0.03,0 0.03,0 0.03,0.01 0.01,0 0.01,0 0.02,0 0.01,0 0.02,0 0.01,0 0.01,0.01 0.02,0 0.01,0 0.01,0.01 0.01,0 0.01,0.01 0.02,0.01 0.01,0 0.01,0.01 0,0.01 0.01,0.01 0.01,0 0,0.01 0,0 0.01,0.01 0,0 0,0.01 0.01,0.01 0,0 0,0.01 0,0.01 0.01,0 0,0.01 0,0.01 0,0.01 0,0.01 0,0 0,0.01 0,0.01 c 0,0.2 -0.19,0.2 -0.34,0.2 h -5.95 c -0.15,0 -0.34,0 -0.34,-0.2 0,-0.2 0.19,-0.2 0.33,-0.2 z"
   inkscape:connector-curvature="0"
   style="fill:#000000;stroke-width:0" />
<path
   id="path5304"
   d="m 404.9,713.52 h 0.96 c 0.75,0 0.83,-0.17 0.83,-0.45 0,-0.07 0,-0.19 -0.07,-0.49 -0.02,-0.05 -0.03,-0.09 -0.03,-0.11 0,-0.08 0.06,-0.12 0.12,-0.12 0.1,0 0.1,0.03 0.15,0.21 l 0.55,2.16 c 0.03,0.11 0.03,0.13 0.03,0.16 0,0.02 -0.02,0.11 -0.12,0.11 -0.1,0 -0.11,-0.05 -0.15,-0.21 -0.21,-0.78 -0.44,-0.96 -1.28,-0.96 h -0.91 l 0.64,2.53 c 0.09,0.35 0.1,0.39 0.53,0.39 h 1.32 c 1.23,0 1.46,-0.33 1.46,-1.1 0,-0.23 0,-0.26 -0.03,-0.53 -0.02,-0.13 -0.02,-0.15 -0.02,-0.18 0,-0.05 0.03,-0.12 0.11,-0.12 0.12,0 0.12,0.06 0.15,0.25 l 0.19,1.72 c 0.03,0.27 -0.02,0.27 -0.26,0.27 h -4.89 c -0.2,0 -0.3,0 -0.3,-0.2 0,-0.11 0.09,-0.11 0.28,-0.11 0.37,0 0.65,0 0.65,-0.18 0,-0.04 0,-0.06 -0.05,-0.24 l -1.32,-5.26 c -0.1,-0.39 -0.12,-0.47 -0.9,-0.47 -0.17,0 -0.28,0 -0.28,-0.19 0,-0.12 0.12,-0.12 0.15,-0.12 0.29,0 1.02,0.03 1.31,0.03 0.33,0 1.16,-0.03 1.49,-0.03 0.09,0 0.21,0 0.21,0.19 0,0.08 -0.06,0.1 -0.06,0.11 -0.03,0.01 -0.05,0.01 -0.28,0.01 -0.22,0 -0.27,0 -0.52,0.02 -0.29,0.03 -0.32,0.07 -0.32,0.2 0,0.02 0,0.08 0.04,0.23 z"
   inkscape:connector-curvature="0"
   style="fill:#000000;stroke-width:0" />
<path
   id="path5306"
   d="m 416.1,717.2 0,0 0,0 0,0.01 0,0 0,0 0,0.01 0,0 -0.01,0.01 0,0 0,0 0,0.01 0,0 0,0.01 -0.01,0 0,0 0,0.01 -0.01,0 0,0.01 0,0 -0.01,0 0,0.01 -0.01,0 0,0 -0.01,0 0,0.01 0,0 -0.01,0 0,0 0,0 -0.01,0 0,0 0,0 -0.01,0 0,0 0,0.01 -0.01,0 0,0 -0.01,0 0,0 c -0.05,0 -0.06,-0.01 -0.18,-0.15 l -0.48,-0.57 c -0.26,0.47 -0.78,0.72 -1.42,0.72 -1.27,0 -2.47,-1.15 -2.47,-2.35 0,-0.81 0.53,-1.27 1.04,-1.42 l 1.07,-0.27 c 0.37,-0.09 0.91,-0.24 0.91,-1.06 0,-0.9 -0.81,-1.83 -1.79,-1.83 -0.64,0 -1.74,0.22 -1.74,1.45 0,0.24 0.05,0.48 0.06,0.54 0,0.04 0.02,0.05 0.02,0.07 0,0.1 -0.07,0.11 -0.12,0.11 -0.05,0 -0.07,-0.01 -0.1,-0.04 -0.04,-0.04 -0.6,-2.31 -0.6,-2.34 0,-0.06 0.05,-0.1 0.11,-0.1 0.05,0 0.06,0.01 0.18,0.15 l 0.49,0.57 c 0.42,-0.58 1.1,-0.72 1.68,-0.72 1.36,0 2.53,1.33 2.53,2.56 0,0.69 -0.34,1.02 -0.49,1.16 -0.23,0.23 -0.37,0.27 -1.26,0.5 -0.22,0.06 -0.58,0.16 -0.67,0.18 -0.27,0.09 -0.61,0.38 -0.61,0.91 0,0.8 0.8,1.65 1.75,1.65 0.82,0 1.43,-0.43 1.43,-1.55 0,-0.31 -0.04,-0.49 -0.04,-0.55 0,-0.01 0,-0.1 0.12,-0.1 0.1,0 0.11,0.03 0.15,0.2 z"
   inkscape:connector-curvature="0"
   style="fill:#000000;stroke-width:0" />
<line
   id="line5308"
   y2="706.03003"
   x2="416.35001"
   y1="706.03003"
   x1="401.88"
   style="stroke-width:0.398" />
<path
   id="path5310"
   d="m 407.89,697.47 1.06,1.03 c 1.55,1.37 2.15,1.91 2.15,2.9 0,1.14 -0.9,1.93 -2.11,1.93 -1.13,0 -1.87,-0.91 -1.87,-1.8 0,-0.55 0.5,-0.55 0.53,-0.55 0.17,0 0.52,0.11 0.52,0.52 0,0.26 -0.18,0.52 -0.53,0.52 -0.08,0 -0.1,0 -0.13,-0.01 0.23,0.65 0.77,1.02 1.35,1.02 0.9,0 1.33,-0.81 1.33,-1.63 0,-0.79 -0.5,-1.58 -1.04,-2.2 l -1.92,-2.13 c -0.11,-0.1 -0.11,-0.12 -0.11,-0.36 h 3.7 l 0.28,1.73 h -0.25 c -0.05,-0.3 -0.12,-0.74 -0.22,-0.89 -0.07,-0.08 -0.73,-0.08 -0.95,-0.08 z"
   inkscape:connector-curvature="0"
   style="fill:#000000;stroke-width:0" />
</g>
</g></svg>