<?xml version="1.0" encoding="UTF-8" standalone="no"?>
<!-- Created with Inkscape (http://www.inkscape.org/) -->

<svg
   xmlns:dc="http://purl.org/dc/elements/1.1/"
   xmlns:cc="http://creativecommons.org/ns#"
   xmlns:rdf="http://www.w3.org/1999/02/22-rdf-syntax-ns#"
   xmlns:svg="http://www.w3.org/2000/svg"
   xmlns="http://www.w3.org/2000/svg"
   xmlns:sodipodi="http://sodipodi.sourceforge.net/DTD/sodipodi-0.dtd"
   xmlns:inkscape="http://www.inkscape.org/namespaces/inkscape"
   id="svg4907"
   version="1.1"
   inkscape:version="0.48.1 "
   width="510"
   height="300"
   xml:space="preserve"
   sodipodi:docname="ADC_DAC_block.svg"><metadata
     id="metadata4913"><rdf:RDF><cc:Work
         rdf:about=""><dc:format>image/svg+xml</dc:format><dc:type
           rdf:resource="http://purl.org/dc/dcmitype/StillImage" /><dc:title></dc:title></cc:Work></rdf:RDF></metadata><defs
     id="defs4911"><clipPath
       clipPathUnits="userSpaceOnUse"
       id="clipPath5135"><path
         d="m 108,352.32 0.96,0 0,15.48 -0.96,0 0,-15.48 z"
         id="path5137"
         inkscape:connector-curvature="0" /></clipPath></defs><sodipodi:namedview
     pagecolor="#ffffff"
     bordercolor="#666666"
     borderopacity="1"
     objecttolerance="10"
     gridtolerance="10"
     guidetolerance="10"
     inkscape:pageopacity="0"
     inkscape:pageshadow="2"
     inkscape:window-width="1920"
     inkscape:window-height="1125"
     id="namedview4909"
     showgrid="false"
     inkscape:zoom="2.1425335"
     inkscape:cx="275.34822"
     inkscape:cy="107.63992"
     inkscape:window-x="1911"
     inkscape:window-y="-9"
     inkscape:window-maximized="1"
     inkscape:current-layer="g4915" /><g
     id="g4915"
     inkscape:groupmode="layer"
     inkscape:label="Chapter 2 Sampled Data Systems F"
     transform="matrix(1.25,0,0,-1.25,0,300)"><path
       d="m 158.58408,200.61391 -25.08,0 m 25.08,-10.8 -25.08,0 m 25.08,-10.8 -25.08,0 m 25.08,-39.36 -25.08,0 m 125.64,-57.480003 -25.2,0 m 25.2,-10.8 -25.2,0 m 25.2,-10.68 -25.2,0 m 25.2,-39.48 -25.2,0 m 0,147.120003 25.2,0 m -125.64,32.28 c 0,2.04 -1.68,3.6 -3.6,3.6 -2.04,0 -3.6,-1.56 -3.6,-3.6 0,-1.92 1.56,-3.6 3.6,-3.6 1.92,0 3.6,1.68 3.6,3.6 z m 0,-10.68 c 0,1.92 -1.68,3.48 -3.6,3.48 -2.04,0 -3.6,-1.56 -3.6,-3.48 0,-1.92 1.56,-3.6 3.6,-3.6 1.92,0 3.6,1.68 3.6,3.6 z m 0,-10.8 c 0,1.92 -1.68,3.48 -3.6,3.48 -2.04,0 -3.6,-1.56 -3.6,-3.48 0,-1.92 1.56,-3.6 3.6,-3.6 1.92,0 3.6,1.68 3.6,3.6 z m 0,-39.48 c 0,1.92 -1.68,3.48 -3.6,3.48 -2.04,0 -3.6,-1.56 -3.6,-3.48 0,-1.92 1.56,-3.6 3.6,-3.6 1.92,0 3.6,1.68 3.6,3.6 z m 132.72,-57.360003 c 0,1.92 -1.68,3.48 -3.6,3.48 -1.92,0 -3.48,-1.56 -3.48,-3.48 0,-1.92 1.56,-3.6 3.48,-3.6 1.92,0 3.6,1.68 3.6,3.6 z m 0,-10.8 c 0,1.92 -1.68,3.48 -3.6,3.48 -1.92,0 -3.48,-1.56 -3.48,-3.48 0,-1.92 1.56,-3.6 3.48,-3.6 1.92,0 3.6,1.68 3.6,3.6 z m 0,-10.8 c 0,2.04 -1.68,3.6 -3.6,3.6 -1.92,0 -3.48,-1.56 -3.48,-3.6 0,-1.92 1.56,-3.6 3.48,-3.6 1.92,0 3.6,1.68 3.6,3.6 z m 0,-39.48 c 0,2.04 -1.68,3.6 -3.6,3.6 -1.92,0 -3.48,-1.56 -3.48,-3.6 0,-1.92 1.56,-3.6 3.48,-3.6 1.92,0 3.6,1.68 3.6,3.6 z m 0,147.120003 c 0,2.04 -1.68,3.6 -3.6,3.6 -1.92,0 -3.48,-1.56 -3.48,-3.6 0,-1.92 1.56,-3.6 3.48,-3.6 1.92,0 3.6,1.68 3.6,3.6 z m -132.72,-118.320003 c 0,1.92 -1.68,3.48 -3.6,3.48 -2.04,0 -3.6,-1.56 -3.6,-3.48 0,-1.92 1.56,-3.6 3.6,-3.6 1.92,0 3.6,1.68 3.6,3.6 z m 0,-0.12 25.08,0"
       style="fill:#7ae100;stroke:#000000;stroke-width:0.59600001999999996;stroke-linecap:round;stroke-linejoin:round;stroke-miterlimit:10;stroke-opacity:1;stroke-dasharray:none;fill-opacity:1"
       id="path5027"
       inkscape:connector-curvature="0" /><text
       transform="scale(1,-1)"
       id="text5029"
       x="94.74408"
       y="-195.0939"><tspan
         style="font-size:10.7638998px;font-variant:normal;font-weight:bold;writing-mode:lr-tb;fill:#000000;fill-opacity:1;fill-rule:nonzero;stroke:none;font-family:Arial;-inkscape-font-specification:Arial Bold"
         x="94.74408 103.73732 110.94375"
         y="-195.0939"
         sodipodi:role="line"
         id="tspan5031">MSB</tspan><tspan
         style="font-size:10.7638998px;font-variant:normal;font-weight:bold;writing-mode:lr-tb;fill:#000000;fill-opacity:1;fill-rule:nonzero;stroke:none;font-family:Arial;-inkscape-font-specification:Arial Bold"
         x="274.14493 283.13818 290.3446"
         y="-80.373337"
         sodipodi:role="line"
         id="tspan5033">MSB</tspan><tspan
         style="font-size:10.7638998px;font-variant:normal;font-weight:bold;writing-mode:lr-tb;fill:#000000;fill-opacity:1;fill-rule:nonzero;stroke:none;font-family:Arial;-inkscape-font-specification:Arial Bold"
         x="96.784912 103.26694 110.46691"
         y="-134.49315"
         sodipodi:role="line"
         id="tspan5035">LSB</tspan><tspan
         style="font-size:10.7638998px;font-variant:normal;font-weight:bold;writing-mode:lr-tb;fill:#000000;fill-opacity:1;fill-rule:nonzero;stroke:none;font-family:Arial;-inkscape-font-specification:Arial Bold"
         x="274.74554 281.34491 288.54703"
         y="-17.133259"
         sodipodi:role="line"
         id="tspan5037">LSB</tspan></text>
<path
       d="m 144.06408,170.25391 c 0,0.96 -0.84,1.8 -1.68,1.8 -0.96,0 -1.8,-0.84 -1.8,-1.8 0,-0.96 0.84,-1.8 1.8,-1.8 0.84,0 1.68,0.84 1.68,1.8"
       style="fill:#000000;fill-opacity:1;fill-rule:evenodd;stroke:none"
       id="path5039"
       inkscape:connector-curvature="0" /><path
       d="m 144.06408,159.45391 c 0,0.96 -0.84,1.8 -1.68,1.8 -0.96,0 -1.8,-0.84 -1.8,-1.8 0,-0.96 0.84,-1.8 1.8,-1.8 0.84,0 1.68,0.84 1.68,1.8"
       style="fill:#000000;fill-opacity:1;fill-rule:evenodd;stroke:none"
       id="path5041"
       inkscape:connector-curvature="0" /><path
       d="m 144.06408,148.65391 c 0,0.96 -0.84,1.8 -1.68,1.8 -0.96,0 -1.8,-0.84 -1.8,-1.8 0,-0.84 0.84,-1.68 1.8,-1.68 0.84,0 1.68,0.84 1.68,1.68"
       style="fill:#000000;fill-opacity:1;fill-rule:evenodd;stroke:none"
       id="path5043"
       inkscape:connector-curvature="0" /><path
       d="m 251.70408,51.813907 c 0,0.96 -0.84,1.8 -1.68,1.8 -0.96,0 -1.8,-0.84 -1.8,-1.8 0,-0.96 0.84,-1.8 1.8,-1.8 0.84,0 1.68,0.84 1.68,1.8"
       style="fill:#000000;fill-opacity:1;fill-rule:evenodd;stroke:none"
       id="path5045"
       inkscape:connector-curvature="0" /><path
       d="m 251.70408,41.013907 c 0,0.96 -0.84,1.8 -1.68,1.8 -0.96,0 -1.8,-0.84 -1.8,-1.8 0,-0.84 0.84,-1.68 1.8,-1.68 0.84,0 1.68,0.84 1.68,1.68"
       style="fill:#000000;fill-opacity:1;fill-rule:evenodd;stroke:none"
       id="path5047"
       inkscape:connector-curvature="0" /><path
       d="m 251.70408,30.333907 c 0,0.96 -0.84,1.8 -1.68,1.8 -0.96,0 -1.8,-0.84 -1.8,-1.8 0,-0.96 0.84,-1.8 1.8,-1.8 0.84,0 1.68,0.84 1.68,1.8"
       style="fill:#000000;fill-opacity:1;fill-rule:evenodd;stroke:none"
       id="path5049"
       inkscape:connector-curvature="0" /><path
       d="m 194.46408,207.93391 0,14.16 m 3.48,3.72 c 0,2.04 -1.68,3.6 -3.6,3.6 -1.92,0 -3.48,-1.56 -3.48,-3.6 0,-1.92 1.56,-3.6 3.48,-3.6 1.92,0 3.6,1.68 3.6,3.6 z m -3.48,-136.320003 0,14.280003 m 3.48,3.72 c 0,1.92 -1.68,3.48 -3.6,3.48 -1.92,0 -3.48,-1.56 -3.48,-3.48 0,-1.92 1.56,-3.6 3.48,-3.6 1.92,0 3.6,1.68 3.6,3.6 z"
       style="fill:none;stroke:#000000;stroke-width:0.59600002;stroke-linecap:round;stroke-linejoin:round;stroke-miterlimit:10;stroke-opacity:1;stroke-dasharray:none"
       id="path5051"
       inkscape:connector-curvature="0" /><text
       transform="scale(1,-1)"
       id="text5053"
       x="205.98409"
       y="-220.2939"><tspan
         style="font-size:10.7638998px;font-variant:normal;font-weight:bold;writing-mode:lr-tb;fill:#000000;fill-opacity:1;fill-rule:nonzero;stroke:none;font-family:Arial;-inkscape-font-specification:Arial Bold"
         x="205.98409"
         y="-220.2939"
         id="tspan5055">V</tspan></text>
<text
       transform="scale(1,-1)"
       id="text5057"
       x="213.18408"
       y="-217.2939"><tspan
         style="font-size:7.17560005px;font-variant:normal;font-weight:bold;writing-mode:lr-tb;fill:#000000;fill-opacity:1;fill-rule:nonzero;stroke:none;font-family:Arial;-inkscape-font-specification:Arial Bold"
         x="213.18408 218.36057 223.14238"
         y="-217.2939"
         sodipodi:role="line"
         id="tspan5059">REF</tspan></text>
<text
       transform="scale(1,-1)"
       id="text5061"
       x="205.98409"
       y="-101.8539"><tspan
         style="font-size:10.7638998px;font-variant:normal;font-weight:bold;writing-mode:lr-tb;fill:#000000;fill-opacity:1;fill-rule:nonzero;stroke:none;font-family:Arial;-inkscape-font-specification:Arial Bold"
         x="205.98409"
         y="-101.8539"
         id="tspan5063">V</tspan></text>
<text
       transform="scale(1,-1)"
       id="text5065"
       x="213.18408"
       y="-98.853905"><tspan
         style="font-size:7.17560005px;font-variant:normal;font-weight:bold;writing-mode:lr-tb;fill:#000000;fill-opacity:1;fill-rule:nonzero;stroke:none;font-family:Arial;-inkscape-font-specification:Arial Bold"
         x="213.18408 218.36057 223.14238"
         y="-98.853905"
         sodipodi:role="line"
         id="tspan5067">REF</tspan></text>
<text
       transform="scale(1,-1)"
       id="text5069"
       x="37.384079"
       y="-170.0139"><tspan
         style="font-size:10.7638998px;font-variant:normal;font-weight:bold;writing-mode:lr-tb;fill:#000000;fill-opacity:1;fill-rule:nonzero;stroke:none;font-family:Arial;-inkscape-font-specification:Arial Bold"
         x="37.384079 45.179298 48.195343 56.593334 59.474831 66.196884 73.755302"
         y="-170.0139"
         sodipodi:role="line"
         id="tspan5071">DIGITAL</tspan><tspan
         style="font-size:10.7638998px;font-variant:normal;font-weight:bold;writing-mode:lr-tb;fill:#000000;fill-opacity:1;fill-rule:nonzero;stroke:none;font-family:Arial;-inkscape-font-specification:Arial Bold"
         x="42.784328 45.794991 53.584827 60.665318 68.463768"
         y="-157.05417"
         sodipodi:role="line"
         id="tspan5073">INPUT</tspan><tspan
         style="font-size:10.7638998px;font-variant:normal;font-weight:bold;writing-mode:lr-tb;fill:#000000;fill-opacity:1;fill-rule:nonzero;stroke:none;font-family:Arial;-inkscape-font-specification:Arial Bold"
         x="40.984604 48.778744 52.385727 60.063618 63.06567 69.665016"
         y="-144.21391"
         sodipodi:role="line"
         id="tspan5075">N-BITS</tspan><tspan
         style="font-size:10.7638998px;font-variant:normal;font-weight:bold;writing-mode:lr-tb;fill:#000000;fill-opacity:1;fill-rule:nonzero;stroke:none;font-family:Arial;-inkscape-font-specification:Arial Bold"
         x="314.22516 322.01498 325.02563 333.41824 336.42892 343.15097 350.70938"
         y="-55.173859"
         sodipodi:role="line"
         id="tspan5077">DIGITAL</tspan><tspan
         style="font-size:10.7638998px;font-variant:normal;font-weight:bold;writing-mode:lr-tb;fill:#000000;fill-opacity:1;fill-rule:nonzero;stroke:none;font-family:Arial;-inkscape-font-specification:Arial Bold"
         x="313.62558 322.02466 329.82095 336.42245 343.62674 351.30463"
         y="-42.333595"
         sodipodi:role="line"
         id="tspan5079">OUTPUT</tspan><tspan
         style="font-size:10.7638998px;font-variant:normal;font-weight:bold;writing-mode:lr-tb;fill:#000000;fill-opacity:1;fill-rule:nonzero;stroke:none;font-family:Arial;-inkscape-font-specification:Arial Bold"
         x="317.82568 325.61658 329.22034 337.01123 340.02298 346.505"
         y="-29.373861"
         sodipodi:role="line"
         id="tspan5081">N-BITS</tspan><tspan
         style="font-size:10.7638998px;font-variant:normal;font-weight:bold;writing-mode:lr-tb;fill:#000000;fill-opacity:1;fill-rule:nonzero;stroke:none;font-family:Arial;-inkscape-font-specification:Arial Bold"
         x="277.74521 285.4231 293.46158 301.01999 307.62149 316.0238"
         y="-170.0139"
         sodipodi:role="line"
         id="tspan5083">ANALOG</tspan><tspan
         style="font-size:10.7638998px;font-variant:normal;font-weight:bold;writing-mode:lr-tb;fill:#000000;fill-opacity:1;fill-rule:nonzero;stroke:none;font-family:Arial;-inkscape-font-specification:Arial Bold"
         x="278.94537 287.34445 295.14075 301.74225 308.94653 316.62442"
         y="-157.05417"
         sodipodi:role="line"
         id="tspan5085">OUTPUT</tspan><tspan
         style="font-size:10.7638998px;font-variant:normal;font-weight:bold;writing-mode:lr-tb;fill:#000000;fill-opacity:1;fill-rule:nonzero;stroke:none;font-family:Arial;-inkscape-font-specification:Arial Bold"
         x="76.86499 84.423401 92.461884 100.02029 106.62179 115.02409"
         y="-51.574409"
         sodipodi:role="line"
         id="tspan5087">ANALOG</tspan><tspan
         style="font-size:10.7638998px;font-variant:normal;font-weight:bold;writing-mode:lr-tb;fill:#000000;fill-opacity:1;fill-rule:nonzero;stroke:none;font-family:Arial;-inkscape-font-specification:Arial Bold"
         x="84.064964 87.074547 94.752441 101.94918 109.73794"
         y="-38.734154"
         sodipodi:role="line"
         id="tspan5089">INPUT</tspan></text>
<path
       d="m 86.82408,207.81391 0,-75.36 m 0,75.36 10.8,7.08 m -10.8,-82.44 10.8,-7.2 m -10.8,82.56 0,-75.36 m 0,75.36 10.8,7.08 m -10.8,-82.44 10.8,-7.2 m 208.08,-35.880003 0,-75.36 m 0,75.36 -10.68,7.2 m 10.68,-82.56 -10.68,-7.2 m 10.68,82.56 0,-75.36 m 0,75.36 -10.68,7.2 m 10.68,-82.56 -10.68,-7.2"
       style="fill:none;stroke:#000000;stroke-width:0.59600002;stroke-linecap:round;stroke-linejoin:round;stroke-miterlimit:10;stroke-opacity:1;stroke-dasharray:none"
       id="path5091"
       inkscape:connector-curvature="0" /><text
       transform="scale(1,-1)"
       id="text5093"
       x="356.70407"
       y="-195.0939"><tspan
         style="font-size:10.7638998px;font-variant:normal;font-weight:bold;writing-mode:lr-tb;fill:#000000;fill-opacity:1;fill-rule:nonzero;stroke:none;font-family:Arial;-inkscape-font-specification:Arial Bold"
         x="356.70407 363.06448 369.54648"
         y="-195.0939"
         sodipodi:role="line"
         id="tspan5095">+FS</tspan><tspan
         style="font-size:10.7638998px;font-variant:normal;font-weight:bold;writing-mode:lr-tb;fill:#000000;fill-opacity:1;fill-rule:nonzero;stroke:none;font-family:Arial;-inkscape-font-specification:Arial Bold"
         x="353.10355 359.1066 362.10864 370.50125 378.29108 381.29312 387.1713 393.7728"
         y="-134.13364"
         sodipodi:role="line"
         id="tspan5097">0 OR –FS</tspan><tspan
         style="font-size:10.7638998px;font-variant:normal;font-weight:bold;writing-mode:lr-tb;fill:#000000;fill-opacity:1;fill-rule:nonzero;stroke:none;font-family:Arial;-inkscape-font-specification:Arial Bold"
         x="19.382822 25.718454 32.344704"
         y="-65.973396"
         sodipodi:role="line"
         id="tspan5099">+FS</tspan><tspan
         style="font-size:10.7638998px;font-variant:normal;font-weight:bold;writing-mode:lr-tb;fill:#000000;fill-opacity:1;fill-rule:nonzero;stroke:none;font-family:Arial;-inkscape-font-specification:Arial Bold"
         x="5.102365 11.102152 14.104227 22.385965 30.184397 33.18644 39.186256 45.778053"
         y="-8.6136522"
         sodipodi:role="line"
         id="tspan5101">0 OR –FS</tspan><tspan
         style="font-size:10.7638998px;font-variant:normal;font-weight:bold;writing-mode:lr-tb;fill:#000000;fill-opacity:1;fill-rule:nonzero;stroke:none;font-family:Arial;-inkscape-font-specification:Arial Bold"
         x="348.90347 356.94196 364.37982 372.17825 380.58057"
         y="-171.45422"
         sodipodi:role="line"
         id="tspan5103">RANGE</tspan><tspan
         style="font-size:10.7638998px;font-variant:normal;font-weight:bold;writing-mode:lr-tb;fill:#000000;fill-opacity:1;fill-rule:nonzero;stroke:none;font-family:Arial;-inkscape-font-specification:Arial Bold"
         x="349.86362 353.46631 360.66412 367.98465 375.54306 383.22095"
         y="-158.49449"
         sodipodi:role="line"
         id="tspan5105">(SPAN)</tspan></text>
<path
       d="m 366.78408,182.61391 0,6"
       style="fill:none;stroke:#000000;stroke-width:0.59600002;stroke-linecap:round;stroke-linejoin:round;stroke-miterlimit:10;stroke-opacity:1;stroke-dasharray:none"
       id="path5107"
       inkscape:connector-curvature="0" /><path
       d="m 369.30408,188.37391 -2.52,5.04 -2.52,-5.04"
       style="fill:#000000;fill-opacity:1;fill-rule:evenodd;stroke:none"
       id="path5109"
       inkscape:connector-curvature="0" /><path
       d="m 366.78408,156.45391 0,-5.88"
       style="fill:none;stroke:#000000;stroke-width:0.59600002;stroke-linecap:round;stroke-linejoin:round;stroke-miterlimit:10;stroke-opacity:1;stroke-dasharray:none"
       id="path5111"
       inkscape:connector-curvature="0" /><path
       d="m 364.26408,150.69391 2.52,-4.92 2.52,4.92"
       style="fill:#000000;fill-opacity:1;fill-rule:evenodd;stroke:none"
       id="path5113"
       inkscape:connector-curvature="0" /><text
       transform="scale(1,-1)"
       id="text5115"
       x="10.26408"
       y="-42.693909"><tspan
         style="font-size:10.7638998px;font-variant:normal;font-weight:bold;writing-mode:lr-tb;fill:#000000;fill-opacity:1;fill-rule:nonzero;stroke:none;font-family:Arial;-inkscape-font-specification:Arial Bold"
         x="10.26408 18.302561 25.740416 33.53886 41.941162"
         y="-42.693909"
         sodipodi:role="line"
         id="tspan5117">RANGE</tspan><tspan
         style="font-size:10.7638998px;font-variant:normal;font-weight:bold;writing-mode:lr-tb;fill:#000000;fill-opacity:1;fill-rule:nonzero;stroke:none;font-family:Arial;-inkscape-font-specification:Arial Bold"
         x="11.22422 14.826898 22.024717 29.345245 36.903656 44.581547"
         y="-29.734171"
         sodipodi:role="line"
         id="tspan5119">(SPAN)</tspan></text>
<path
       d="m 29.46408,53.493907 0,5.88"
       style="fill:none;stroke:#000000;stroke-width:0.59600002;stroke-linecap:round;stroke-linejoin:round;stroke-miterlimit:10;stroke-opacity:1;stroke-dasharray:none"
       id="path5121"
       inkscape:connector-curvature="0" /><path
       d="m 31.98408,59.133907 -2.52,5.16 -2.52,-5.16"
       style="fill:#000000;fill-opacity:1;fill-rule:evenodd;stroke:none"
       id="path5123"
       inkscape:connector-curvature="0" /><path
       d="m 29.46408,28.413907 0,-6"
       style="fill:none;stroke:#000000;stroke-width:0.59600002;stroke-linecap:round;stroke-linejoin:round;stroke-miterlimit:10;stroke-opacity:1;stroke-dasharray:none"
       id="path5125"
       inkscape:connector-curvature="0" /><path
       d="m 26.94408,22.653907 2.52,-5.04 2.52,5.04"
       style="fill:#000000;fill-opacity:1;fill-rule:evenodd;stroke:none"
       id="path5127"
       inkscape:connector-curvature="0" /><path
       d="m 345.18408,204.21391 -1.44,-0.12 -1.32,-0.36 -1.2,-0.6 -1.08,-0.72 -0.96,-0.84 -0.6,-1.08 -0.36,-1.08 -0.24,-1.2 0,-24.48 -0.12,-0.6 -0.36,-1.2 -0.6,-0.96 -0.96,-0.96 -1.08,-0.72 -1.2,-0.48 -1.32,-0.36 -1.44,-0.12 1.44,-0.12 1.32,-0.36 1.2,-0.6 1.08,-0.72 0.96,-0.84 0.6,-1.08 0.36,-1.08 0.12,-0.6 0,-24.48 0.24,-1.2 0.36,-1.2 0.6,-0.96 0.96,-0.96 1.08,-0.72 1.2,-0.48 1.32,-0.36 1.44,-0.12 m -287.04,-53.880003 1.44,-0.12 1.32,-0.24 1.32,-0.6 1.08,-0.84 0.84,-0.84 0.6,-0.96 0.48,-1.2 0.12,-0.6 0,-24.48 0.12,-0.6 0,-0.6 0.48,-1.08 0.6,-1.08 0.84,-0.84 1.08,-0.72 1.32,-0.6 1.32,-0.24 1.44,-0.24 -1.44,-0.12 -1.32,-0.24 -1.32,-0.6 -1.08,-0.84 -0.84,-0.84 -0.6,-0.96 -0.48,-1.2 0,-0.6 -0.12,-0.6 0,-24.48 -0.12,-0.6 -0.48,-1.08 -0.6,-1.08 -0.84,-0.84 -1.08,-0.72 -1.32,-0.6 -1.32,-0.36 -1.44,-0.12"
       style="fill:none;stroke:#000000;stroke-width:0.59600002;stroke-linecap:round;stroke-linejoin:round;stroke-miterlimit:10;stroke-opacity:1;stroke-dasharray:none"
       id="path5129"
       inkscape:connector-curvature="0" /><g
       id="g5131"
       transform="translate(-121.97592,-202.58609)"><g
         id="g5133"
         clip-path="url(#clipPath5135)"><path
           d="m 108.36,367.32 0,-14.4"
           style="fill:none;stroke:#ffffff;stroke-width:0.59600002;stroke-linecap:round;stroke-linejoin:round;stroke-miterlimit:10;stroke-opacity:1;stroke-dasharray:none"
           id="path5139"
           inkscape:connector-curvature="0" /></g></g><path
       d="m 416.94408,164.73391 0,-14.4"
       style="fill:none;stroke:#ffffff;stroke-width:0.59600002;stroke-linecap:round;stroke-linejoin:round;stroke-miterlimit:10;stroke-opacity:1;stroke-dasharray:none"
       id="path5141"
       inkscape:connector-curvature="0" /><path
       d="m 215.10408,207.81391 -56.52,0 0,-78.96 56.52,0 18.84,39.48 -18.84,39.48 z"
       style="fill:#e7e100;stroke:#000000;stroke-width:0.59600001999999996;stroke-linecap:round;stroke-linejoin:round;stroke-miterlimit:10;stroke-opacity:1;stroke-dasharray:none;fill-opacity:1"
       id="path5143"
       inkscape:connector-curvature="0" /><text
       transform="scale(1,-1)"
       id="text5145"
       x="172.98409"
       y="-171.57391"><tspan
         style="font-size:14.35179996px;font-variant:normal;font-weight:bold;writing-mode:lr-tb;fill:#000000;fill-opacity:1;fill-rule:nonzero;stroke:none;font-family:Arial;-inkscape-font-specification:Arial Bold"
         x="172.98409 183.42215 188.10226 198.54033 202.50287"
         y="-171.57391"
         sodipodi:role="line"
         id="tspan5147">N-BIT</tspan><tspan
         style="font-size:14.35179996px;font-variant:normal;font-weight:bold;writing-mode:lr-tb;fill:#000000;fill-opacity:1;fill-rule:nonzero;stroke:none;font-family:Arial;-inkscape-font-specification:Arial Bold"
         x="176.58351 186.90102 197.33908"
         y="-154.41347"
         sodipodi:role="line"
         id="tspan5149">DAC</tspan></text>
<path
       d="m 177.42408,89.373907 56.52,0 0,-78.96 -56.52,0 -18.84,39.48 18.84,39.48 z"
       style="fill:#e7e100;stroke:#000000;stroke-width:0.59600001999999996;stroke-linecap:round;stroke-linejoin:round;stroke-miterlimit:10;stroke-opacity:1;stroke-dasharray:none;fill-opacity:1"
       id="path5151"
       inkscape:connector-curvature="0" /><text
       transform="scale(1,-1)"
       id="text5153"
       x="181.26408"
       y="-53.133907"><tspan
         style="font-size:14.35179996px;font-variant:normal;font-weight:bold;writing-mode:lr-tb;fill:#000000;fill-opacity:1;fill-rule:nonzero;stroke:none;font-family:Arial;-inkscape-font-specification:Arial Bold"
         x="181.26408 191.67488 196.50282 206.82033 210.78287"
         y="-53.133907"
         sodipodi:role="line"
         id="tspan5155">N-BIT</tspan><tspan
         style="font-size:14.35179996px;font-variant:normal;font-weight:bold;writing-mode:lr-tb;fill:#000000;fill-opacity:1;fill-rule:nonzero;stroke:none;font-family:Arial;-inkscape-font-specification:Arial Bold"
         x="184.86351 195.30157 205.61908"
         y="-35.973461"
         sodipodi:role="line"
         id="tspan5157">ADC</tspan></text>
</g></svg>