<?xml version="1.0" encoding="UTF-8" standalone="no"?>
<!-- Created with Inkscape (http://www.inkscape.org/) -->

<svg
   xmlns:dc="http://purl.org/dc/elements/1.1/"
   xmlns:cc="http://creativecommons.org/ns#"
   xmlns:rdf="http://www.w3.org/1999/02/22-rdf-syntax-ns#"
   xmlns:svg="http://www.w3.org/2000/svg"
   xmlns="http://www.w3.org/2000/svg"
   xmlns:sodipodi="http://sodipodi.sourceforge.net/DTD/sodipodi-0.dtd"
   xmlns:inkscape="http://www.inkscape.org/namespaces/inkscape"
   id="svg2984"
   version="1.1"
   inkscape:version="0.48.1 "
   width="400"
   height="220"
   xml:space="preserve"
   sodipodi:docname="ADC_DAC_3bit.svg"><metadata
     id="metadata2990"><rdf:RDF><cc:Work
         rdf:about=""><dc:format>image/svg+xml</dc:format><dc:type
           rdf:resource="http://purl.org/dc/dcmitype/StillImage" /><dc:title></dc:title></cc:Work></rdf:RDF></metadata><defs
     id="defs2988"><inkscape:path-effect
       effect="spiro"
       id="path-effect4138"
       is_visible="true" /><inkscape:path-effect
       effect="spiro"
       id="path-effect4138-4"
       is_visible="true" /></defs><sodipodi:namedview
     pagecolor="#ffffff"
     bordercolor="#666666"
     borderopacity="1"
     objecttolerance="10"
     gridtolerance="10"
     guidetolerance="10"
     inkscape:pageopacity="0"
     inkscape:pageshadow="2"
     inkscape:window-width="1920"
     inkscape:window-height="1173"
     id="namedview2986"
     showgrid="false"
     inkscape:zoom="1.625"
     inkscape:cx="73.200113"
     inkscape:cy="78.640078"
     inkscape:window-x="-9"
     inkscape:window-y="-9"
     inkscape:window-maximized="1"
     inkscape:current-layer="g2992" /><g
     id="g2992"
     inkscape:groupmode="layer"
     inkscape:label="skici"
     transform="matrix(1.25,0,0,-1.25,0,220)"><path
       inkscape:connector-curvature="0"
       d="m 17.774629,26.459351 129.377881,0 0,129.415549 -129.377881,0 0,-129.415549"
       style="fill:none;stroke:#000000;stroke-width:0.72000003;stroke-linecap:round;stroke-linejoin:round;stroke-miterlimit:10;stroke-opacity:1;stroke-dasharray:none"
       id="path3276" /><g
       transform="matrix(1.1408985,0,0,1.1412306,-1825.6891,-3500.628)"
       id="g3278"><path
         inkscape:connector-curvature="0"
         d="m 1615.8,3090.6 99,99"
         style="fill:none;stroke:#c0cfe2;stroke-width:1.31456196;stroke-linecap:round;stroke-linejoin:round;stroke-miterlimit:10;stroke-opacity:1;stroke-dasharray:1.31456191, 2.62912383;stroke-dashoffset:0"
         id="path3280" /></g><g
       transform="matrix(1.1408985,0,0,1.1412306,-1825.6891,-3500.628)"
       id="g3282"><path
         inkscape:connector-curvature="0"
         d="m 1630.2,3090.6 0,113.4"
         style="fill:none;stroke:#000000;stroke-width:0.63098973;stroke-linecap:round;stroke-linejoin:round;stroke-miterlimit:10;stroke-opacity:1;stroke-dasharray:0.63098972, 1.26197944;stroke-dashoffset:0"
         id="path3284" /></g><g
       transform="matrix(1.1408985,0,0,1.1412306,-1825.6891,-3500.628)"
       id="g3286"><path
         inkscape:connector-curvature="0"
         d="m 1644,3090.6 0,113.4"
         style="fill:none;stroke:#000000;stroke-width:0.63098973;stroke-linecap:round;stroke-linejoin:round;stroke-miterlimit:10;stroke-opacity:1;stroke-dasharray:0.63098972, 1.26197944;stroke-dashoffset:0"
         id="path3288" /></g><g
       transform="matrix(1.1408985,0,0,1.1412306,-1825.6891,-3500.628)"
       id="g3290"><path
         inkscape:connector-curvature="0"
         d="m 1658.4,3090.6 0,113.4"
         style="fill:none;stroke:#000000;stroke-width:0.63098973;stroke-linecap:round;stroke-linejoin:round;stroke-miterlimit:10;stroke-opacity:1;stroke-dasharray:0.63098972, 1.26197944;stroke-dashoffset:0"
         id="path3292" /></g><g
       transform="matrix(1.1408985,0,0,1.1412306,-1825.6891,-3500.628)"
       id="g3294"><path
         inkscape:connector-curvature="0"
         d="m 1672.2,3090.6 0,113.4"
         style="fill:none;stroke:#000000;stroke-width:0.63098973;stroke-linecap:round;stroke-linejoin:round;stroke-miterlimit:10;stroke-opacity:1;stroke-dasharray:0.63098972, 1.26197944;stroke-dashoffset:0"
         id="path3296" /></g><g
       transform="matrix(1.1408985,0,0,1.1412306,-1825.6891,-3500.628)"
       id="g3298"><path
         inkscape:connector-curvature="0"
         d="m 1686.6,3090.6 0,113.4"
         style="fill:none;stroke:#000000;stroke-width:0.63098973;stroke-linecap:round;stroke-linejoin:round;stroke-miterlimit:10;stroke-opacity:1;stroke-dasharray:0.63098972, 1.26197944;stroke-dashoffset:0"
         id="path3300" /></g><g
       transform="matrix(1.1408985,0,0,1.1412306,-1825.6891,-3500.628)"
       id="g3302"><path
         inkscape:connector-curvature="0"
         d="m 1701,3090.6 0,113.4"
         style="fill:none;stroke:#000000;stroke-width:0.63098973;stroke-linecap:round;stroke-linejoin:round;stroke-miterlimit:10;stroke-opacity:1;stroke-dasharray:0.63098972, 1.26197944;stroke-dashoffset:0"
         id="path3304" /></g><g
       transform="matrix(1.1408985,0,0,1.1412306,-1825.6891,-3500.628)"
       id="g3306"><path
         inkscape:connector-curvature="0"
         d="m 1714.8,3090.6 0,113.4"
         style="fill:none;stroke:#000000;stroke-width:0.63098973;stroke-linecap:round;stroke-linejoin:round;stroke-miterlimit:10;stroke-opacity:1;stroke-dasharray:0.63098972, 1.26197944;stroke-dashoffset:0"
         id="path3308" /></g><text
       style="font-size:13.69277477px"
       y="-14.622662"
       x="123.9989"
       id="text3310"
       transform="scale(0.99985452,-1.0001455)"><tspan
         style="font-size:6.84627771px;font-variant:normal;font-weight:bold;writing-mode:lr-tb;fill:#7030a0;fill-opacity:1;fill-rule:nonzero;stroke:none;font-family:ARIAL;-inkscape-font-specification:ARIAL Bold"
         x="123.9989 127.80647 131.61401"
         y="-14.622662"
         sodipodi:role="line"
         id="tspan3312">111</tspan></text>
<text
       style="font-size:13.69277477px"
       y="-14.5542"
       x="12.003431"
       id="text3314"
       transform="scale(0.99985452,-1.0001455)"><tspan
         style="font-size:6.84627771px;font-variant:normal;font-weight:bold;writing-mode:lr-tb;fill:#7030a0;fill-opacity:1;fill-rule:nonzero;stroke:none;font-family:ARIAL;-inkscape-font-specification:ARIAL Bold"
         x="12.003431 15.810978 19.618528"
         y="-14.5542"
         sodipodi:role="line"
         id="tspan3316">000</tspan></text>
<text
       style="font-size:13.69277477px"
       y="-14.5542"
       x="28.183723"
       id="text3318"
       transform="scale(0.99985452,-1.0001455)"><tspan
         style="font-size:6.84627771px;font-variant:normal;font-weight:bold;writing-mode:lr-tb;fill:#7030a0;fill-opacity:1;fill-rule:nonzero;stroke:none;font-family:ARIAL;-inkscape-font-specification:ARIAL Bold"
         x="28.183723 31.991274 35.798824"
         y="-14.5542"
         sodipodi:role="line"
         id="tspan3320">001</tspan></text>
<text
       style="font-size:13.69277477px"
       y="-14.645474"
       x="44.352612"
       id="text3322"
       transform="scale(0.99985452,-1.0001455)"><tspan
         style="font-size:6.84627771px;font-variant:normal;font-weight:bold;writing-mode:lr-tb;fill:#7030a0;fill-opacity:1;fill-rule:nonzero;stroke:none;font-family:ARIAL;-inkscape-font-specification:ARIAL Bold"
         x="44.352612 48.160152 51.967705 55.775253"
         y="-14.645474"
         sodipodi:role="line"
         id="tspan3324">010</tspan></text>
<text
       style="font-size:13.69277477px"
       y="-14.462909"
       x="60.521488"
       id="text3326"
       transform="scale(0.99985452,-1.0001455)"><tspan
         style="font-size:6.84627771px;font-variant:normal;font-weight:bold;writing-mode:lr-tb;fill:#7030a0;fill-opacity:1;fill-rule:nonzero;stroke:none;font-family:ARIAL;-inkscape-font-specification:ARIAL Bold"
         x="60.521488 64.329041 68.136589 71.944145"
         y="-14.462909"
         sodipodi:role="line"
         id="tspan3328">011</tspan></text>
<text
       style="font-size:13.69277477px"
       y="-14.5542"
       x="76.701782"
       id="text3330"
       transform="scale(0.99985452,-1.0001455)"><tspan
         style="font-size:6.84627771px;font-variant:normal;font-weight:bold;writing-mode:lr-tb;fill:#7030a0;fill-opacity:1;fill-rule:nonzero;stroke:none;font-family:ARIAL;-inkscape-font-specification:ARIAL Bold"
         x="76.701782 80.509331 84.316879 88.124428"
         y="-14.5542"
         sodipodi:role="line"
         id="tspan3332">100</tspan></text>
<text
       style="font-size:13.69277477px"
       y="-14.5542"
       x="92.870667"
       id="text3334"
       transform="scale(0.99985452,-1.0001455)"><tspan
         style="font-size:6.84627771px;font-variant:normal;font-weight:bold;writing-mode:lr-tb;fill:#7030a0;fill-opacity:1;fill-rule:nonzero;stroke:none;font-family:ARIAL;-inkscape-font-specification:ARIAL Bold"
         x="92.870667 96.678215 100.48576 104.29331"
         y="-14.5542"
         sodipodi:role="line"
         id="tspan3336">101</tspan></text>
<text
       style="font-size:13.69277477px"
       y="-14.5542"
       x="108.72005"
       id="text3338"
       transform="scale(0.99985452,-1.0001455)"><tspan
         style="font-size:6.84627771px;font-variant:normal;font-weight:bold;writing-mode:lr-tb;fill:#7030a0;fill-opacity:1;fill-rule:nonzero;stroke:none;font-family:ARIAL;-inkscape-font-specification:ARIAL Bold"
         x="108.72005 112.52762 116.33515 120.14271"
         y="-14.5542"
         sodipodi:role="line"
         id="tspan3340">110</tspan></text>
<g
       transform="matrix(1.1408985,0,0,1.1412306,-1825.6891,-3500.628)"
       id="g3342"><path
         inkscape:connector-curvature="0"
         d="m 1729.2,3104.4 -113.4,0"
         style="fill:none;stroke:#000000;stroke-width:0.63098973;stroke-linecap:round;stroke-linejoin:round;stroke-miterlimit:10;stroke-opacity:1;stroke-dasharray:0.63098972, 1.26197944;stroke-dashoffset:0"
         id="path3344" /></g><g
       transform="matrix(1.1408985,0,0,1.1412306,-1825.6891,-3500.628)"
       id="g3346"><path
         inkscape:connector-curvature="0"
         d="m 1729.2,3118.8 -113.4,0"
         style="fill:none;stroke:#000000;stroke-width:0.63098973;stroke-linecap:round;stroke-linejoin:round;stroke-miterlimit:10;stroke-opacity:1;stroke-dasharray:0.63098972, 1.26197944;stroke-dashoffset:0"
         id="path3348" /></g><g
       transform="matrix(1.1408985,0,0,1.1412306,-1825.6891,-3500.628)"
       id="g3350"><path
         inkscape:connector-curvature="0"
         d="m 1729.2,3133.2 -113.4,0"
         style="fill:none;stroke:#000000;stroke-width:0.63098973;stroke-linecap:round;stroke-linejoin:round;stroke-miterlimit:10;stroke-opacity:1;stroke-dasharray:0.63098972, 1.26197944;stroke-dashoffset:0"
         id="path3352" /></g><g
       transform="matrix(1.1408985,0,0,1.1412306,-1825.6891,-3500.628)"
       id="g3354"><path
         inkscape:connector-curvature="0"
         d="m 1729.2,3147 -113.4,0"
         style="fill:none;stroke:#000000;stroke-width:0.63098973;stroke-linecap:round;stroke-linejoin:round;stroke-miterlimit:10;stroke-opacity:1;stroke-dasharray:0.63098972, 1.26197944;stroke-dashoffset:0"
         id="path3356" /></g><g
       transform="matrix(1.1408985,0,0,1.1412306,-1825.6891,-3500.628)"
       id="g3358"><path
         inkscape:connector-curvature="0"
         d="m 1729.2,3161.4 -113.4,0"
         style="fill:none;stroke:#000000;stroke-width:0.63098973;stroke-linecap:round;stroke-linejoin:round;stroke-miterlimit:10;stroke-opacity:1;stroke-dasharray:0.63098972, 1.26197944;stroke-dashoffset:0"
         id="path3360" /></g><g
       transform="matrix(1.1408985,0,0,1.1412306,-1825.6891,-3500.628)"
       id="g3362"><path
         inkscape:connector-curvature="0"
         d="m 1729.2,3175.8 -113.4,0"
         style="fill:none;stroke:#000000;stroke-width:0.63098973;stroke-linecap:round;stroke-linejoin:round;stroke-miterlimit:10;stroke-opacity:1;stroke-dasharray:0.63098972, 1.26197944;stroke-dashoffset:0"
         id="path3364" /></g><g
       transform="matrix(1.1408985,0,0,1.1412306,-1825.6891,-3500.628)"
       id="g3366"><path
         inkscape:connector-curvature="0"
         d="m 1729.2,3189.6 -113.4,0"
         style="fill:none;stroke:#000000;stroke-width:0.63098973;stroke-linecap:round;stroke-linejoin:round;stroke-miterlimit:10;stroke-opacity:1;stroke-dasharray:0.63098972, 1.26197944;stroke-dashoffset:0"
         id="path3368" /></g><path
       inkscape:connector-curvature="0"
       d="m 133.33624,139.53248 c 0,1.34665 -1.08386,2.43082 -2.43012,2.43082 -1.33485,0 -2.43011,-1.08417 -2.43011,-2.43082 0,-1.33524 1.09526,-2.41941 2.43011,-2.41941 1.34626,0 2.43012,1.08417 2.43012,2.41941 z"
       style="fill:#000000;fill-opacity:1;fill-rule:evenodd;stroke:none"
       id="path3370" /><path
       inkscape:connector-curvature="0"
       d="m 133.33623,139.53248 c 0,1.34665 -1.08385,2.43082 -2.43011,2.43082 -1.33485,0 -2.43011,-1.08417 -2.43011,-2.43082 0,-1.33524 1.09526,-2.41941 2.43011,-2.41941 1.34626,0 2.43011,1.08417 2.43011,2.41941 z"
       style="fill:none;stroke:#000000;stroke-width:0.72000003;stroke-linecap:round;stroke-linejoin:round;stroke-miterlimit:10;stroke-opacity:1;stroke-dasharray:none"
       id="path3372" /><path
       inkscape:connector-curvature="0"
       d="m 117.1583,123.36124 c 0,1.34665 -1.08386,2.43082 -2.41871,2.43082 -1.34626,0 -2.43011,-1.08417 -2.43011,-2.43082 0,-1.33524 1.08385,-2.41941 2.43011,-2.41941 1.33485,0 2.41871,1.08417 2.41871,2.41941 z"
       style="fill:#000000;fill-opacity:1;fill-rule:evenodd;stroke:none"
       id="path3374" /><path
       inkscape:connector-curvature="0"
       d="m 117.15829,123.36124 c 0,1.34665 -1.08385,2.43082 -2.4187,2.43082 -1.34626,0 -2.43012,-1.08417 -2.43012,-2.43082 0,-1.33524 1.08386,-2.41941 2.43012,-2.41941 1.33485,0 2.4187,1.08417 2.4187,2.41941 z"
       style="fill:none;stroke:#000000;stroke-width:0.72000003;stroke-linecap:round;stroke-linejoin:round;stroke-miterlimit:10;stroke-opacity:1;stroke-dasharray:none"
       id="path3376" /><path
       inkscape:connector-curvature="0"
       d="m 100.99177,107.19 c 0,1.33524 -1.08386,2.41941 -2.43012,2.41941 -1.33485,0 -2.418703,-1.08417 -2.418703,-2.41941 0,-1.34665 1.083853,-2.43082 2.418703,-2.43082 1.34626,0 2.43012,1.08417 2.43012,2.43082 z"
       style="fill:#000000;fill-opacity:1;fill-rule:evenodd;stroke:none"
       id="path3378" /><path
       inkscape:connector-curvature="0"
       d="m 100.99176,107.19 c 0,1.33524 -1.08385,2.41941 -2.43011,2.41941 -1.33485,0 -2.418706,-1.08417 -2.418706,-2.41941 0,-1.34665 1.083856,-2.43082 2.418706,-2.43082 1.34626,0 2.43011,1.08417 2.43011,2.43082 z"
       style="fill:none;stroke:#000000;stroke-width:0.72000003;stroke-linecap:round;stroke-linejoin:round;stroke-miterlimit:10;stroke-opacity:1;stroke-dasharray:none"
       id="path3380" /><path
       inkscape:connector-curvature="0"
       d="m 84.825236,91.007353 c 0,1.346652 -1.083854,2.430822 -2.430114,2.430822 -1.334851,0 -2.418705,-1.08417 -2.418705,-2.430822 0,-1.335239 1.083854,-2.419409 2.418705,-2.419409 1.34626,0 2.430114,1.08417 2.430114,2.419409 z"
       style="fill:#000000;fill-opacity:1;fill-rule:evenodd;stroke:none"
       id="path3382" /><path
       inkscape:connector-curvature="0"
       d="m 84.825233,91.007354 c 0,1.346652 -1.083853,2.430821 -2.430113,2.430821 -1.334852,0 -2.418705,-1.084169 -2.418705,-2.430821 0,-1.33524 1.083853,-2.419409 2.418705,-2.419409 1.34626,0 2.430113,1.084169 2.430113,2.419409 z"
       style="fill:none;stroke:#000000;stroke-width:0.72000003;stroke-linecap:round;stroke-linejoin:round;stroke-miterlimit:10;stroke-opacity:1;stroke-dasharray:none"
       id="path3384" /><path
       inkscape:connector-curvature="0"
       d="m 68.647295,74.836116 c 0,1.346652 -1.083854,2.430821 -2.418705,2.430821 -1.346261,0 -2.430114,-1.084169 -2.430114,-2.430821 0,-1.33524 1.083853,-2.419409 2.430114,-2.419409 1.334851,0 2.418705,1.084169 2.418705,2.419409 z"
       style="fill:#000000;fill-opacity:1;fill-rule:evenodd;stroke:none"
       id="path3386" /><path
       inkscape:connector-curvature="0"
       d="m 68.647293,74.836116 c 0,1.346652 -1.083854,2.430821 -2.418705,2.430821 -1.34626,0 -2.430114,-1.084169 -2.430114,-2.430821 0,-1.33524 1.083854,-2.419409 2.430114,-2.419409 1.334851,0 2.418705,1.084169 2.418705,2.419409 z"
       style="fill:none;stroke:#000000;stroke-width:0.72000003;stroke-linecap:round;stroke-linejoin:round;stroke-miterlimit:10;stroke-opacity:1;stroke-dasharray:none"
       id="path3388" /><path
       inkscape:connector-curvature="0"
       d="m 52.480762,58.664878 c 0,1.33524 -1.083853,2.419409 -2.430113,2.419409 -1.334852,0 -2.418705,-1.084169 -2.418705,-2.419409 0,-1.346652 1.083853,-2.430821 2.418705,-2.430821 1.34626,0 2.430113,1.084169 2.430113,2.430821 z"
       style="fill:#000000;fill-opacity:1;fill-rule:evenodd;stroke:none"
       id="path3390" /><path
       inkscape:connector-curvature="0"
       d="m 52.480761,58.664878 c 0,1.33524 -1.083854,2.419409 -2.430114,2.419409 -1.334851,0 -2.418705,-1.084169 -2.418705,-2.419409 0,-1.346652 1.083854,-2.430821 2.418705,-2.430821 1.34626,0 2.430114,1.084169 2.430114,2.430821 z"
       style="fill:none;stroke:#000000;stroke-width:0.72000003;stroke-linecap:round;stroke-linejoin:round;stroke-miterlimit:10;stroke-opacity:1;stroke-dasharray:none"
       id="path3392" /><path
       inkscape:connector-curvature="0"
       d="m 36.31423,42.493641 c 0,1.335239 -1.083853,2.419409 -2.430114,2.419409 -1.334851,0 -2.418704,-1.08417 -2.418704,-2.419409 0,-1.346652 1.083853,-2.430821 2.418704,-2.430821 1.346261,0 2.430114,1.084169 2.430114,2.430821 z"
       style="fill:#000000;fill-opacity:1;fill-rule:evenodd;stroke:none"
       id="path3394" /><path
       inkscape:connector-curvature="0"
       d="m 36.314229,42.493641 c 0,1.33524 -1.083853,2.419409 -2.430114,2.419409 -1.334851,0 -2.418704,-1.084169 -2.418704,-2.419409 0,-1.346652 1.083853,-2.430821 2.418704,-2.430821 1.346261,0 2.430114,1.084169 2.430114,2.430821 z"
       style="fill:none;stroke:#000000;stroke-width:0.72000003;stroke-linecap:round;stroke-linejoin:round;stroke-miterlimit:10;stroke-opacity:1;stroke-dasharray:none"
       id="path3396" /><path
       inkscape:connector-curvature="0"
       d="m 20.136289,26.310991 c 0,1.346652 -1.083853,2.430821 -2.418705,2.430821 -1.34626,0 -2.430114,-1.084169 -2.430114,-2.430821 0,-1.33524 1.083854,-2.419409 2.430114,-2.419409 1.334852,0 2.418705,1.084169 2.418705,2.419409 z"
       style="fill:#000000;fill-opacity:1;fill-rule:evenodd;stroke:none"
       id="path3398" /><path
       inkscape:connector-curvature="0"
       d="m 20.136289,26.310991 c 0,1.346652 -1.083854,2.430821 -2.418705,2.430821 -1.346261,0 -2.430114,-1.084169 -2.430114,-2.430821 0,-1.33524 1.083853,-2.419409 2.430114,-2.419409 1.334851,0 2.418705,1.084169 2.418705,2.419409 z"
       style="fill:none;stroke:#000000;stroke-width:0.72000003;stroke-linecap:round;stroke-linejoin:round;stroke-miterlimit:10;stroke-opacity:1;stroke-dasharray:none"
       id="path3400" /><text
       style="font-size:13.69277477px"
       y="-152.95392"
       x="0.80958652"
       id="text3402"
       transform="scale(0.99985452,-1.0001455)"><tspan
         style="font-size:9.12842464px;font-variant:normal;font-weight:bold;writing-mode:lr-tb;fill:#7030a0;fill-opacity:1;fill-rule:nonzero;stroke:none;font-family:ARIAL;-inkscape-font-specification:ARIAL Bold"
         x="0.80958652 6.3856392"
         y="-152.95392"
         sodipodi:role="line"
         id="tspan3404">FS</tspan></text>
<text
       style="font-size:13.69277477px"
       y="6.7431231"
       x="66.963287"
       transform="matrix(0,1.0001455,0.99985452,0,0,0)"
       id="text3406"><tspan
         style="font-size:6.84627771px;font-variant:normal;font-weight:bold;writing-mode:lr-tb;fill:#7030a0;fill-opacity:1;fill-rule:nonzero;stroke:none;font-family:ARIAL;-inkscape-font-specification:ARIAL Bold"
         x="66.963287 71.907562 76.089584 79.897141 81.799149 85.981155 90.163177 93.967186 98.149216 102.33124 104.61125 108.79327 112.9753 115.25532"
         y="6.7431231"
         sodipodi:role="line"
         id="tspan3408">Analog output</tspan></text>
<text
       style="font-size:13.69277477px"
       y="-162.85837"
       x="72.399979"
       id="text3410"
       transform="scale(0.99985452,-1.0001455)"><tspan
         style="font-size:9.12842464px;font-variant:normal;font-weight:bold;writing-mode:lr-tb;fill:#7030a0;fill-opacity:1;fill-rule:nonzero;stroke:none;font-family:ARIAL;-inkscape-font-specification:ARIAL Bold"
         x="72.399979 78.992386 85.584793"
         y="-162.85837"
         sodipodi:role="line"
         id="tspan3412">DAC</tspan></text>
<text
       style="font-size:13.69277477px"
       y="-3.1435573"
       x="61.571266"
       id="text3414"
       transform="scale(0.99985452,-1.0001455)"><tspan
         style="font-size:6.84627771px;font-variant:normal;font-weight:bold;writing-mode:lr-tb;fill:#7030a0;fill-opacity:1;fill-rule:nonzero;stroke:none;font-family:ARIAL;-inkscape-font-specification:ARIAL Bold"
         x="61.571266 66.515533 68.417549 72.599564 74.501579 76.781586 80.589142 82.491142 86.295166 88.197174 92.379181 96.561203 100.74323"
         y="-3.1435573"
         sodipodi:role="line"
         id="tspan3416">Digital input</tspan></text>
<path
       inkscape:connector-curvature="0"
       d="m 186.17124,26.459351 129.37789,0 0,129.415549 -129.37789,0 0,-129.415549"
       style="fill:none;stroke:#000000;stroke-width:0.72000003;stroke-linecap:round;stroke-linejoin:round;stroke-miterlimit:10;stroke-opacity:1;stroke-dasharray:none"
       id="path3418" /><g
       transform="matrix(1.1408985,0,0,1.1412306,-1825.6891,-3500.628)"
       id="g3420"><path
         inkscape:connector-curvature="0"
         d="m 1763.4,3090.6 99,99"
         style="fill:none;stroke:#c0cfe2;stroke-width:0.8763746;stroke-linecap:round;stroke-linejoin:round;stroke-miterlimit:10;stroke-opacity:1;stroke-dasharray:0.87637461, 1.75274922;stroke-dashoffset:0"
         id="path3422" /></g><g
       transform="matrix(1.1408985,0,0,1.1412306,-1825.6891,-3500.628)"
       id="g3424"><path
         inkscape:connector-curvature="0"
         d="m 1777.2,3090.6 0,113.4"
         style="fill:none;stroke:#000000;stroke-width:0.63098973;stroke-linecap:round;stroke-linejoin:round;stroke-miterlimit:10;stroke-opacity:1;stroke-dasharray:0.63098972, 1.26197944;stroke-dashoffset:0"
         id="path3426" /></g><g
       transform="matrix(1.1408985,0,0,1.1412306,-1825.6891,-3500.628)"
       id="g3428"><path
         inkscape:connector-curvature="0"
         d="m 1791.6,3090.6 0,113.4"
         style="fill:none;stroke:#000000;stroke-width:0.63098973;stroke-linecap:round;stroke-linejoin:round;stroke-miterlimit:10;stroke-opacity:1;stroke-dasharray:0.63098972, 1.26197944;stroke-dashoffset:0"
         id="path3430" /></g><g
       transform="matrix(1.1408985,0,0,1.1412306,-1825.6891,-3500.628)"
       id="g3432"><path
         inkscape:connector-curvature="0"
         d="m 1805.4,3090.6 0,113.4"
         style="fill:none;stroke:#000000;stroke-width:0.63098973;stroke-linecap:round;stroke-linejoin:round;stroke-miterlimit:10;stroke-opacity:1;stroke-dasharray:0.63098972, 1.26197944;stroke-dashoffset:0"
         id="path3434" /></g><g
       transform="matrix(1.1408985,0,0,1.1412306,-1825.6891,-3500.628)"
       id="g3436"><path
         inkscape:connector-curvature="0"
         d="m 1819.8,3090.6 0,113.4"
         style="fill:none;stroke:#000000;stroke-width:0.63098973;stroke-linecap:round;stroke-linejoin:round;stroke-miterlimit:10;stroke-opacity:1;stroke-dasharray:0.63098972, 1.26197944;stroke-dashoffset:0"
         id="path3438" /></g><g
       transform="matrix(1.1408985,0,0,1.1412306,-1825.6891,-3500.628)"
       id="g3440"><path
         inkscape:connector-curvature="0"
         d="m 1834.2,3090.6 0,113.4"
         style="fill:none;stroke:#000000;stroke-width:0.63098973;stroke-linecap:round;stroke-linejoin:round;stroke-miterlimit:10;stroke-opacity:1;stroke-dasharray:0.63098972, 1.26197944;stroke-dashoffset:0"
         id="path3442" /></g><g
       transform="matrix(1.1408985,0,0,1.1412306,-1825.6891,-3500.628)"
       id="g3444"><path
         inkscape:connector-curvature="0"
         d="m 1848,3090.6 0,113.4"
         style="fill:none;stroke:#000000;stroke-width:0.63098973;stroke-linecap:round;stroke-linejoin:round;stroke-miterlimit:10;stroke-opacity:1;stroke-dasharray:0.63098972, 1.26197944;stroke-dashoffset:0"
         id="path3446" /></g><g
       transform="matrix(1.1408985,0,0,1.1412306,-1825.6891,-3500.628)"
       id="g3448"><path
         inkscape:connector-curvature="0"
         d="m 1862.4,3090.6 0,113.4"
         style="fill:none;stroke:#000000;stroke-width:0.63098973;stroke-linecap:round;stroke-linejoin:round;stroke-miterlimit:10;stroke-opacity:1;stroke-dasharray:0.63098972, 1.26197944;stroke-dashoffset:0"
         id="path3450" /></g><text
       style="font-size:13.69277477px"
       y="-137.45827"
       x="169.03674"
       id="text3452"
       transform="scale(0.99985452,-1.0001455)"><tspan
         style="font-size:6.84627771px;font-variant:normal;font-weight:bold;writing-mode:lr-tb;fill:#7030a0;fill-opacity:1;fill-rule:nonzero;stroke:none;font-family:ARIAL;-inkscape-font-specification:ARIAL Bold"
         x="169.03674 172.84428 176.65182"
         y="-137.45827"
         sodipodi:role="line"
         id="tspan3454">111</tspan></text>
<text
       style="font-size:13.69277477px"
       y="-24.253248"
       x="168.63736"
       id="text3456"
       transform="scale(0.99985452,-1.0001455)"><tspan
         style="font-size:6.84627771px;font-variant:normal;font-weight:bold;writing-mode:lr-tb;fill:#7030a0;fill-opacity:1;fill-rule:nonzero;stroke:none;font-family:ARIAL;-inkscape-font-specification:ARIAL Bold"
         x="168.63736 172.4449 176.25247"
         y="-24.253248"
         sodipodi:role="line"
         id="tspan3458">000</tspan></text>
<text
       style="font-size:13.69277477px"
       y="-40.433537"
       x="168.87698"
       id="text3460"
       transform="scale(0.99985452,-1.0001455)"><tspan
         style="font-size:6.84627771px;font-variant:normal;font-weight:bold;writing-mode:lr-tb;fill:#7030a0;fill-opacity:1;fill-rule:nonzero;stroke:none;font-family:ARIAL;-inkscape-font-specification:ARIAL Bold"
         x="168.87698 172.68454 176.49208"
         y="-40.433537"
         sodipodi:role="line"
         id="tspan3462">001</tspan></text>
<text
       style="font-size:13.69277477px"
       y="-56.602432"
       x="168.71722"
       id="text3464"
       transform="scale(0.99985452,-1.0001455)"><tspan
         style="font-size:6.84627771px;font-variant:normal;font-weight:bold;writing-mode:lr-tb;fill:#7030a0;fill-opacity:1;fill-rule:nonzero;stroke:none;font-family:ARIAL;-inkscape-font-specification:ARIAL Bold"
         x="168.71722 172.5248 176.33234 180.13986"
         y="-56.602432"
         sodipodi:role="line"
         id="tspan3466">010</tspan></text>
<text
       style="font-size:13.69277477px"
       y="-72.771309"
       x="168.87698"
       id="text3468"
       transform="scale(0.99985452,-1.0001455)"><tspan
         style="font-size:6.84627771px;font-variant:normal;font-weight:bold;writing-mode:lr-tb;fill:#7030a0;fill-opacity:1;fill-rule:nonzero;stroke:none;font-family:ARIAL;-inkscape-font-specification:ARIAL Bold"
         x="168.87698 172.68454 176.49208 180.29964"
         y="-72.771309"
         sodipodi:role="line"
         id="tspan3470">011</tspan></text>
<text
       style="font-size:13.69277477px"
       y="-88.951614"
       x="168.5575"
       id="text3472"
       transform="scale(0.99985452,-1.0001455)"><tspan
         style="font-size:6.84627771px;font-variant:normal;font-weight:bold;writing-mode:lr-tb;fill:#7030a0;fill-opacity:1;fill-rule:nonzero;stroke:none;font-family:ARIAL;-inkscape-font-specification:ARIAL Bold"
         x="168.5575 172.36504 176.17259 179.98012"
         y="-88.951614"
         sodipodi:role="line"
         id="tspan3474">100</tspan></text>
<text
       style="font-size:13.69277477px"
       y="-104.31034"
       x="169.36765"
       id="text3476"
       transform="scale(0.99985452,-1.0001455)"><tspan
         style="font-size:6.84627771px;font-variant:normal;font-weight:bold;writing-mode:lr-tb;fill:#7030a0;fill-opacity:1;fill-rule:nonzero;stroke:none;font-family:ARIAL;-inkscape-font-specification:ARIAL Bold"
         x="169.36765 173.1752 176.98276 180.7903"
         y="-104.31034"
         sodipodi:role="line"
         id="tspan3478">101</tspan></text>
<text
       style="font-size:13.69277477px"
       y="-121.1981"
       x="168.87698"
       id="text3480"
       transform="scale(0.99985452,-1.0001455)"><tspan
         style="font-size:6.84627771px;font-variant:normal;font-weight:bold;writing-mode:lr-tb;fill:#7030a0;fill-opacity:1;fill-rule:nonzero;stroke:none;font-family:ARIAL;-inkscape-font-specification:ARIAL Bold"
         x="168.87698 172.68454 176.49208 180.29964"
         y="-121.1981"
         sodipodi:role="line"
         id="tspan3482">110</tspan></text>
<g
       transform="matrix(1.1408985,0,0,1.1412306,-1825.6891,-3500.628)"
       id="g3484"><path
         inkscape:connector-curvature="0"
         d="m 1876.8,3105 -113.4,0"
         style="fill:none;stroke:#000000;stroke-width:0.63098973;stroke-linecap:round;stroke-linejoin:round;stroke-miterlimit:10;stroke-opacity:1;stroke-dasharray:0.63098972, 1.26197944;stroke-dashoffset:0"
         id="path3486" /></g><g
       transform="matrix(1.1408985,0,0,1.1412306,-1825.6891,-3500.628)"
       id="g3488"><path
         inkscape:connector-curvature="0"
         d="m 1876.8,3118.8 -113.4,0"
         style="fill:none;stroke:#000000;stroke-width:0.63098973;stroke-linecap:round;stroke-linejoin:round;stroke-miterlimit:10;stroke-opacity:1;stroke-dasharray:0.63098972, 1.26197944;stroke-dashoffset:0"
         id="path3490" /></g><g
       transform="matrix(1.1408985,0,0,1.1412306,-1825.6891,-3500.628)"
       id="g3492"><path
         inkscape:connector-curvature="0"
         d="m 1876.8,3133.2 -113.4,0"
         style="fill:none;stroke:#000000;stroke-width:0.63098973;stroke-linecap:round;stroke-linejoin:round;stroke-miterlimit:10;stroke-opacity:1;stroke-dasharray:0.63098972, 1.26197944;stroke-dashoffset:0"
         id="path3494" /></g><g
       transform="matrix(1.1408985,0,0,1.1412306,-1825.6891,-3500.628)"
       id="g3496"><path
         inkscape:connector-curvature="0"
         d="m 1876.8,3147 -113.4,0"
         style="fill:none;stroke:#000000;stroke-width:0.63098973;stroke-linecap:round;stroke-linejoin:round;stroke-miterlimit:10;stroke-opacity:1;stroke-dasharray:0.63098972, 1.26197944;stroke-dashoffset:0"
         id="path3498" /></g><g
       transform="matrix(1.1408985,0,0,1.1412306,-1825.6891,-3500.628)"
       id="g3500"><path
         inkscape:connector-curvature="0"
         d="m 1876.8,3161.4 -113.4,0"
         style="fill:none;stroke:#000000;stroke-width:0.63098973;stroke-linecap:round;stroke-linejoin:round;stroke-miterlimit:10;stroke-opacity:1;stroke-dasharray:0.63098972, 1.26197944;stroke-dashoffset:0"
         id="path3502" /></g><g
       transform="matrix(1.1408985,0,0,1.1412306,-1825.6891,-3500.628)"
       id="g3504"><path
         inkscape:connector-curvature="0"
         d="m 1876.8,3175.8 -113.4,0"
         style="fill:none;stroke:#000000;stroke-width:0.63098973;stroke-linecap:round;stroke-linejoin:round;stroke-miterlimit:10;stroke-opacity:1;stroke-dasharray:0.63098972, 1.26197944;stroke-dashoffset:0"
         id="path3506" /></g><g
       transform="matrix(1.1408985,0,0,1.1412306,-1825.6891,-3500.628)"
       id="g3508"><path
         inkscape:connector-curvature="0"
         d="m 1876.8,3189.6 -113.4,0"
         style="fill:none;stroke:#000000;stroke-width:0.63098973;stroke-linecap:round;stroke-linejoin:round;stroke-miterlimit:10;stroke-opacity:1;stroke-dasharray:0.63098972, 1.26197944;stroke-dashoffset:0"
         id="path3510" /></g><text
       style="font-size:13.69277477px"
       y="-15.489868"
       x="308.08685"
       id="text3512"
       transform="scale(0.99985452,-1.0001455)"><tspan
         style="font-size:9.12842464px;font-variant:normal;font-weight:bold;writing-mode:lr-tb;fill:#7030a0;fill-opacity:1;fill-rule:nonzero;stroke:none;font-family:ARIAL;-inkscape-font-specification:ARIAL Bold"
         x="308.08685 313.6629"
         y="-15.489868"
         sodipodi:role="line"
         id="tspan3514">FS</tspan></text>
<text
       style="font-size:13.69277477px"
       y="-4.8437452"
       x="236.5421"
       id="text3516"
       transform="scale(0.99985452,-1.0001455)"><tspan
         style="font-size:6.84627771px;font-variant:normal;font-weight:bold;writing-mode:lr-tb;fill:#7030a0;fill-opacity:1;fill-rule:nonzero;stroke:none;font-family:ARIAL;-inkscape-font-specification:ARIAL Bold"
         x="236.5421 241.48637 245.6684 249.47594 251.37794 255.55995 259.74197 263.54599 265.448 269.63004 273.81204 277.99405 280.27408"
         y="-4.8437452"
         sodipodi:role="line"
         id="tspan3518">Analog input</tspan></text>
<text
       style="font-size:13.69277477px"
       y="-162.94965"
       x="240.71838"
       id="text3520"
       transform="scale(0.99985452,-1.0001455)"><tspan
         style="font-size:9.12842464px;font-variant:normal;font-weight:bold;writing-mode:lr-tb;fill:#7030a0;fill-opacity:1;fill-rule:nonzero;stroke:none;font-family:ARIAL;-inkscape-font-specification:ARIAL Bold"
         x="240.71838 247.31081 253.90323"
         y="-162.94965"
         sodipodi:role="line"
         id="tspan3522">ADC</tspan></text>
<text
       style="font-size:13.69277477px"
       y="160.38747"
       x="75.977707"
       transform="matrix(0,1.0001455,0.99985452,0,0,0)"
       id="text3524"><tspan
         style="font-size:6.84627771px;font-variant:normal;font-weight:bold;writing-mode:lr-tb;fill:#7030a0;fill-opacity:1;fill-rule:nonzero;stroke:none;font-family:ARIAL;-inkscape-font-specification:ARIAL Bold"
         x="75.977707 80.921974 82.823982 87.006004 88.908028 91.188011 94.995567 96.897583 100.7016 104.88363 109.06564 111.34565 115.52767 119.70968"
         y="160.38747"
         sodipodi:role="line"
         id="tspan3526">Digital output</tspan></text>
<path
       inkscape:connector-curvature="0"
       d="m 193.70117,26.459351 0,16.433721 16.42894,0 0,15.748982 15.7444,0 0,16.43372 16.42894,0 0,15.748983 16.42894,0 0,16.433723 15.7444,0 0,16.43372 16.42893,0 0,15.74898 24.64341,0"
       style="fill:none;stroke:#000000;stroke-width:1;stroke-linecap:round;stroke-linejoin:round;stroke-miterlimit:10;stroke-opacity:1;stroke-dasharray:none"
       id="path3528" /><path
       inkscape:connector-curvature="0"
       d="m 258.04785,70.282606 0,-19.172674 0,19.172674 m 16.42894,0 0,-19.172674 0,19.172674 m 0,-11.640552 21.22071,0 0,0 0,0 -21.22071,0"
       style="fill:none;stroke:#000000;stroke-width:0.75;stroke-linecap:round;stroke-linejoin:round;stroke-miterlimit:10;stroke-opacity:1;stroke-dasharray:none"
       id="path3530" /><path
       inkscape:connector-curvature="0"
       d="m 266.26232,58.642054 -2.73816,0 m 2.73816,0 3.42269,0"
       style="fill:none;stroke:#000000;stroke-width:0.75;stroke-linecap:round;stroke-linejoin:round;stroke-miterlimit:10;stroke-opacity:1;stroke-dasharray:none"
       id="path3532" /><path
       inkscape:connector-curvature="0"
       d="m 264.20871,55.9031 -6.16086,2.738954 6.16086,2.738953 0,-5.477907 z"
       style="fill:#000000;fill-opacity:1;fill-rule:evenodd;stroke:none"
       id="path3534" /><path
       inkscape:connector-curvature="0"
       d="m 269.00048,61.381007 5.47631,-2.738953 -5.47631,-2.738954 0,5.477907 z"
       style="fill:#000000;fill-opacity:1;fill-rule:evenodd;stroke:none"
       id="path3536" /><path
       inkscape:connector-curvature="0"
       d="m 279.26857,44.947286 33.54241,0 0,27.389535 -33.54241,0 0,-27.389535 z"
       style="fill:#ffffff;fill-opacity:1;fill-rule:evenodd;stroke:none"
       id="path3538" /><text
       style="font-size:13.69277477px"
       y="-62.170822"
       x="282.1048"
       id="text3540"
       transform="scale(0.99985452,-1.0001455)"><tspan
         style="font-size:11.41073704px;font-variant:normal;font-weight:normal;writing-mode:lr-tb;fill:#000000;fill-opacity:1;fill-rule:nonzero;stroke:none;font-family:FREESTYLE SCRIPT;-inkscape-font-specification:FREESTYLE SCRIPT"
         x="282.1048 286.16086 289.31995 292.27283 295.20914 297.995 299.49936 302.00098 304.95383 308.07404 311.01031"
         y="-62.170822"
         sodipodi:role="line"
         id="tspan3542">kvantizacní</tspan></text>
<text
       style="font-size:13.69277477px"
       y="-48.478039"
       x="285.21991"
       id="text3544"
       transform="scale(0.99985452,-1.0001455)"><tspan
         style="font-size:11.41073704px;font-variant:normal;font-weight:normal;writing-mode:lr-tb;fill:#000000;fill-opacity:1;fill-rule:nonzero;stroke:none;font-family:FREESTYLE SCRIPT;-inkscape-font-specification:FREESTYLE SCRIPT"
         x="285.21991 288.15619 291.28745 293.82254 295.3269 298.22968 301.01553 303.66187 306.44772"
         y="-48.478039"
         sodipodi:role="line"
         id="tspan3546">nejistota</tspan></text>
<path
       inkscape:connector-curvature="0"
       d="M 258.73239,90.824757 258.04785,71.652083"
       style="fill:none;stroke:#000000;stroke-width:0.72000003;stroke-linecap:round;stroke-linejoin:round;stroke-miterlimit:10;stroke-opacity:1;stroke-dasharray:none"
       id="path3548" /><path
       inkscape:connector-curvature="0"
       d="m 274.47679,107.25848 0,-32.867444"
       style="fill:none;stroke:#000000;stroke-width:0.72000003;stroke-linecap:round;stroke-linejoin:round;stroke-miterlimit:10;stroke-opacity:1;stroke-dasharray:none"
       id="path3550" /><path
       inkscape:connector-curvature="0"
       d="m 234.08898,26.459351 0,-3.423692"
       style="fill:none;stroke:#000000;stroke-width:0.72000003;stroke-linecap:round;stroke-linejoin:round;stroke-miterlimit:10;stroke-opacity:1;stroke-dasharray:none"
       id="path3552" /><path
       inkscape:connector-curvature="0"
       d="m 282.69126,26.459351 0,-4.10843"
       style="fill:none;stroke:#000000;stroke-width:0.72000003;stroke-linecap:round;stroke-linejoin:round;stroke-miterlimit:10;stroke-opacity:1;stroke-dasharray:none"
       id="path3554" /><path
       inkscape:connector-curvature="0"
       d="m 299.12019,26.459351 0,-3.423692"
       style="fill:none;stroke:#000000;stroke-width:0.72000003;stroke-linecap:round;stroke-linejoin:round;stroke-miterlimit:10;stroke-opacity:1;stroke-dasharray:none"
       id="path3556" /><path
       inkscape:connector-curvature="0"
       d="m 250.51792,26.459351 0,-4.10843"
       style="fill:none;stroke:#000000;stroke-width:0.72000003;stroke-linecap:round;stroke-linejoin:round;stroke-miterlimit:10;stroke-opacity:1;stroke-dasharray:none"
       id="path3558" /><path
       inkscape:connector-curvature="0"
       d="m 266.94686,26.459351 0,-3.423692"
       style="fill:none;stroke:#000000;stroke-width:0.72000003;stroke-linecap:round;stroke-linejoin:round;stroke-miterlimit:10;stroke-opacity:1;stroke-dasharray:none"
       id="path3560" /><path
       inkscape:connector-curvature="0"
       d="m 201.91564,26.459351 0,-4.10843"
       style="fill:none;stroke:#000000;stroke-width:0.72000003;stroke-linecap:round;stroke-linejoin:round;stroke-miterlimit:10;stroke-opacity:1;stroke-dasharray:none"
       id="path3562" /><path
       inkscape:connector-curvature="0"
       d="m 218.34458,25.089874 0,-3.423692"
       style="fill:none;stroke:#000000;stroke-width:0.72000003;stroke-linecap:round;stroke-linejoin:round;stroke-miterlimit:10;stroke-opacity:1;stroke-dasharray:none"
       id="path3564" /><path
       inkscape:connector-curvature="0"
       d="m 17.774629,139.44118 -2.738157,0"
       style="fill:none;stroke:#000000;stroke-width:0.72000003;stroke-linecap:round;stroke-linejoin:round;stroke-miterlimit:10;stroke-opacity:1;stroke-dasharray:none"
       id="path3566" /><path
       inkscape:connector-curvature="0"
       d="m 17.774629,123.6922 -2.738157,0"
       style="fill:none;stroke:#000000;stroke-width:0.72000003;stroke-linecap:round;stroke-linejoin:round;stroke-miterlimit:10;stroke-opacity:1;stroke-dasharray:none"
       id="path3568" /><path
       inkscape:connector-curvature="0"
       d="m 17.774629,107.25848 -2.738157,0"
       style="fill:none;stroke:#000000;stroke-width:0.72000003;stroke-linecap:round;stroke-linejoin:round;stroke-miterlimit:10;stroke-opacity:1;stroke-dasharray:none"
       id="path3570" /><path
       inkscape:connector-curvature="0"
       d="m 17.774629,90.824757 -3.422696,0"
       style="fill:none;stroke:#000000;stroke-width:0.72000003;stroke-linecap:round;stroke-linejoin:round;stroke-miterlimit:10;stroke-opacity:1;stroke-dasharray:none"
       id="path3572" /><path
       inkscape:connector-curvature="0"
       d="m 17.774629,75.075774 -3.422696,0"
       style="fill:none;stroke:#000000;stroke-width:0.72000003;stroke-linecap:round;stroke-linejoin:round;stroke-miterlimit:10;stroke-opacity:1;stroke-dasharray:none"
       id="path3574" /><path
       inkscape:connector-curvature="0"
       d="m 17.774629,58.642054 -3.422696,0"
       style="fill:none;stroke:#000000;stroke-width:0.72000003;stroke-linecap:round;stroke-linejoin:round;stroke-miterlimit:10;stroke-opacity:1;stroke-dasharray:none"
       id="path3576" /><path
       inkscape:connector-curvature="0"
       d="m 17.774629,42.208333 -3.422696,0"
       style="fill:none;stroke:#000000;stroke-width:0.72000003;stroke-linecap:round;stroke-linejoin:round;stroke-miterlimit:10;stroke-opacity:1;stroke-dasharray:none"
       id="path3578" /><path
       inkscape:connector-curvature="0"
       d="m 84.174921,75.075774 18.482549,0 -18.482549,0 m 0,15.748983 18.482549,0 -18.482549,0 m 10.952624,-15.748983 0,-19.857412 3.422695,0 -3.422695,0 0,19.857412"
       style="fill:none;stroke:#000000;stroke-width:0.75;stroke-linecap:round;stroke-linejoin:round;stroke-miterlimit:10;stroke-opacity:1;stroke-dasharray:none"
       id="path3580" /><path
       inkscape:connector-curvature="0"
       d="m 95.127545,82.607895 0,-2.738953 m 0,2.738953 0,3.423693"
       style="fill:none;stroke:#000000;stroke-width:0.75;stroke-linecap:round;stroke-linejoin:round;stroke-miterlimit:10;stroke-opacity:1;stroke-dasharray:none"
       id="path3582" /><path
       inkscape:connector-curvature="0"
       d="m 98.55024,80.55368 -3.422693,-5.477906 -2.738154,5.477906 6.160847,0 z"
       style="fill:#000000;fill-opacity:1;fill-rule:evenodd;stroke:none"
       id="path3584" /><path
       inkscape:connector-curvature="0"
       d="m 92.389393,85.34685 2.738154,5.477906 3.422693,-5.477906 -6.160847,0 z"
       style="fill:#000000;fill-opacity:1;fill-rule:evenodd;stroke:none"
       id="path3586" /><path
       inkscape:connector-curvature="0"
       d="m 82.121306,41.523595 32.857874,0 0,27.389534 -32.857874,0 0,-27.389534 z"
       style="fill:#ffffff;fill-opacity:1;fill-rule:evenodd;stroke:none"
       id="path3588" /><text
       style="font-size:13.69277477px"
       y="-58.838909"
       x="84.803337"
       id="text3590"
       transform="scale(0.99985452,-1.0001455)"><tspan
         style="font-size:11.41073704px;font-variant:normal;font-weight:normal;writing-mode:lr-tb;fill:#000000;fill-opacity:1;fill-rule:nonzero;stroke:none;font-family:FREESTYLE SCRIPT;-inkscape-font-specification:FREESTYLE SCRIPT"
         x="84.803337 88.859421 92.018501 94.971375 97.907654 100.6935 102.19788 104.69946 107.65234 110.77257 113.70885"
         y="-58.838909"
         sodipodi:role="line"
         id="tspan3592">kvantizacní</tspan></text>
<text
       style="font-size:13.69277477px"
       y="-45.146133"
       x="87.918457"
       id="text3594"
       transform="scale(0.99985452,-1.0001455)"><tspan
         style="font-size:11.41073704px;font-variant:normal;font-weight:normal;writing-mode:lr-tb;fill:#000000;fill-opacity:1;fill-rule:nonzero;stroke:none;font-family:FREESTYLE SCRIPT;-inkscape-font-specification:FREESTYLE SCRIPT"
         x="87.918457 90.854721 93.98597 96.521072 98.025436 100.92821 103.71406 106.3604 109.14626"
         y="-45.146133"
         sodipodi:role="line"
         id="tspan3596">nejistota</tspan></text>
<path
       inkscape:connector-curvature="0"
       d="m 17.774629,155.8749 -2.738157,0"
       style="fill:none;stroke:#000000;stroke-width:0.72000003;stroke-linecap:round;stroke-linejoin:round;stroke-miterlimit:10;stroke-opacity:1;stroke-dasharray:none"
       id="path3598" /><path
       inkscape:connector-curvature="0"
       d="m 315.54913,26.459351 0,-3.423692"
       style="fill:none;stroke:#000000;stroke-width:0.72000003;stroke-linecap:round;stroke-linejoin:round;stroke-miterlimit:10;stroke-opacity:1;stroke-dasharray:none"
       id="path3600" /><text
       style="font-size:13.69277477px"
       y="-15.843596"
       x="184.00748"
       id="text3602"
       transform="scale(0.99985452,-1.0001455)"><tspan
         style="font-size:6.84627771px;font-variant:normal;font-weight:bold;writing-mode:lr-tb;fill:#7030a0;fill-opacity:1;fill-rule:nonzero;stroke:none;font-family:ARIAL;-inkscape-font-specification:ARIAL Bold"
         x="184.00748"
         y="-15.843596"
         id="tspan3604">0</tspan></text>
<text
       style="font-size:13.69277477px"
       y="-24.161957"
       x="7.4848127"
       id="text3606"
       transform="scale(0.99985452,-1.0001455)"><tspan
         style="font-size:6.84627771px;font-variant:normal;font-weight:bold;writing-mode:lr-tb;fill:#7030a0;fill-opacity:1;fill-rule:nonzero;stroke:none;font-family:ARIAL;-inkscape-font-specification:ARIAL Bold"
         x="7.4848127"
         y="-24.161957"
         id="tspan3608">0</tspan></text>
<path
       inkscape:connector-curvature="0"
       d="m 186.17124,26.459351 0,-4.10843"
       style="fill:none;stroke:#000000;stroke-width:0.72000003;stroke-linecap:round;stroke-linejoin:round;stroke-miterlimit:10;stroke-opacity:1;stroke-dasharray:none"
       id="path3610" /><path
       inkscape:connector-curvature="0"
       d="m 17.774629,26.459351 -4.791774,0"
       style="fill:none;stroke:#000000;stroke-width:0.72000003;stroke-linecap:round;stroke-linejoin:round;stroke-miterlimit:10;stroke-opacity:1;stroke-dasharray:none"
       id="path3612" /><path
       style="fill:none;stroke:#000000;stroke-width:0.5;stroke-linecap:butt;stroke-linejoin:miter;stroke-miterlimit:4;stroke-opacity:1;stroke-dasharray:none"
       d="m 382.5,136.30769 c 0.0629,0.0653 0.12705,0.12937 0.19231,0.19231 0.12418,0.11976 0.25248,0.23523 0.38461,0.34615 0.15724,-0.18868 0.33868,-0.35718 0.53847,-0.50004 0.14508,-0.10375 0.29981,-0.194 0.46153,-0.26923"
       id="path4136"
       inkscape:path-effect="#path-effect4138"
       inkscape:original-d="m 382.5,136.30769 c 0.54076,0.2859 -0.50793,-0.30786 0.19231,0.19231 0.17224,0.12303 0.14989,0.22879 0.38461,0.34615 0.47515,0.17556 0.41119,-0.38184 0.53847,-0.50004 0.0957,-0.0957 0.39384,-0.26923 0.46153,-0.26923"
       inkscape:connector-curvature="0"
       transform="matrix(0.8,0,0,-0.8,0,176)"
       sodipodi:nodetypes="csccc" /><path
       style="fill:none;stroke:#000000;stroke-width:0.40000001;stroke-linecap:butt;stroke-linejoin:miter;stroke-miterlimit:4;stroke-opacity:1;stroke-dasharray:none"
       d="m 108.93846,63.738445 c 0.0503,-0.05221 0.10164,-0.103501 0.15385,-0.15385 0.0993,-0.0958 0.20199,-0.188185 0.30769,-0.27692 0.12579,0.150952 0.27094,0.285749 0.43077,0.40004 0.11607,0.083 0.23985,0.155202 0.36923,0.21538"
       id="path4136-0"
       inkscape:path-effect="#path-effect4138-4"
       inkscape:original-d="m 108.93846,63.738445 c 0.43261,-0.22872 -0.40634,0.24629 0.15385,-0.15385 0.13779,-0.0984 0.11991,-0.18303 0.30769,-0.27692 0.38012,-0.14044 0.32895,0.30548 0.43077,0.40004 0.0766,0.0766 0.31507,0.21538 0.36923,0.21538"
       inkscape:connector-curvature="0"
       sodipodi:nodetypes="csccc" /></g></svg>