<?xml version="1.0" encoding="UTF-8" standalone="no"?>
<!-- Created with Inkscape (http://www.inkscape.org/) -->

<svg
   xmlns:dc="http://purl.org/dc/elements/1.1/"
   xmlns:cc="http://creativecommons.org/ns#"
   xmlns:rdf="http://www.w3.org/1999/02/22-rdf-syntax-ns#"
   xmlns:svg="http://www.w3.org/2000/svg"
   xmlns="http://www.w3.org/2000/svg"
   xmlns:sodipodi="http://sodipodi.sourceforge.net/DTD/sodipodi-0.dtd"
   xmlns:inkscape="http://www.inkscape.org/namespaces/inkscape"
   width="40mm"
   height="30mm"
   viewBox="0 0 40 30"
   version="1.1"
   id="svg2070"
   inkscape:version="0.92.3 (2405546, 2018-03-11)"
   sodipodi:docname="aes_fig069a.svg">
  <defs
     id="defs2064">
    <clipPath
       clipPathUnits="userSpaceOnUse"
       id="clipPath1185">
      <path
         d="m 315.08,499.82 h 242.899 v 85.05 H 315.08 Z"
         id="path1183"
         inkscape:connector-curvature="0" />
    </clipPath>
  </defs>
  <sodipodi:namedview
     id="base"
     pagecolor="#ffffff"
     bordercolor="#666666"
     borderopacity="1.0"
     inkscape:pageopacity="0.0"
     inkscape:pageshadow="2"
     inkscape:zoom="1.979899"
     inkscape:cx="120.76731"
     inkscape:cy="7.8411961"
     inkscape:document-units="mm"
     inkscape:current-layer="g1181"
     showgrid="false"
     inkscape:window-width="1844"
     inkscape:window-height="1177"
     inkscape:window-x="68"
     inkscape:window-y="-8"
     inkscape:window-maximized="1" />
  <metadata
     id="metadata2067">
    <rdf:RDF>
      <cc:Work
         rdf:about="">
        <dc:format>image/svg+xml</dc:format>
        <dc:type
           rdf:resource="http://purl.org/dc/dcmitype/StillImage" />
        <dc:title></dc:title>
      </cc:Work>
    </rdf:RDF>
  </metadata>
  <g
     inkscape:label="Vrstva 1"
     inkscape:groupmode="layer"
     id="layer1"
     transform="translate(0,-267)">
    <g
       id="g1155"
       transform="matrix(0.08450174,0,0,0.08403343,39.735796,281.91968)">
      <path
         d="M 0,0 H -186"
         style="fill:none;stroke:#000000;stroke-width:3;stroke-linecap:butt;stroke-linejoin:miter;stroke-miterlimit:14;stroke-dasharray:none;stroke-opacity:1"
         id="path1157"
         inkscape:connector-curvature="0" />
    </g>
    <g
       id="g1159"
       transform="matrix(0.08450174,0,0,0.08403343,8.4701568,274.10457)">
      <path
         d="M 0,0 V 183"
         style="fill:none;stroke:#000000;stroke-width:3;stroke-linecap:butt;stroke-linejoin:miter;stroke-miterlimit:14;stroke-dasharray:none;stroke-opacity:1"
         id="path1161"
         inkscape:connector-curvature="0" />
    </g>
    <g
       id="g1163"
       transform="matrix(0.08450174,0,0,0.08403343,16.244316,292.00369)">
      <path
         d="M 0,0 H 22"
         style="fill:none;stroke:#000000;stroke-width:3;stroke-linecap:square;stroke-linejoin:miter;stroke-miterlimit:14;stroke-dasharray:none;stroke-opacity:1"
         id="path1165"
         inkscape:connector-curvature="0" />
    </g>
    <g
       id="g1167"
       transform="matrix(0.08450174,0,0,0.08403343,16.328824,293.60028)">
      <path
         d="m 0,0 9,-19 h 1 L 20,0 Z"
         style="fill:#000000;fill-opacity:1;fill-rule:nonzero;stroke:none"
         id="path1169"
         inkscape:connector-curvature="0" />
    </g>
    <g
       id="g1171"
       transform="matrix(0.08450174,0,0,0.08403343,16.328816,293.60033)">
      <path
         d="m 0,0 9,-19 h 1 L 20,0 Z"
         style="fill:none;stroke:#000000;stroke-width:3;stroke-linecap:butt;stroke-linejoin:miter;stroke-miterlimit:4;stroke-dasharray:none;stroke-opacity:1"
         id="path1173"
         inkscape:connector-curvature="0" />
    </g>
    <g
       id="g1175"
       transform="matrix(0.08450174,0,0,0.08403343,16.328816,293.60033)">
      <path
         d="m 0,0 9,-19 h 1 L 20,0 Z"
         style="fill:none;stroke:#000000;stroke-width:3;stroke-linecap:butt;stroke-linejoin:miter;stroke-miterlimit:14;stroke-dasharray:none;stroke-opacity:1"
         id="path1177"
         inkscape:connector-curvature="0" />
    </g>
    <g
       transform="matrix(0.35277777,0,0,-0.35277777,-110.79867,473.01152)"
       id="g1179">
      <g
         id="g1181"
         clip-path="url(#clipPath1185)">
        <g
           id="g1187"
           transform="matrix(0.2395325,0,0,-0.238205,405.3935,551.92048)">
          <path
             d="m 0,0 c 25,0 45,19 45,42 0,24 -20,43 -45,43 -1,0 0,0 0,0 H -60 V 0 H 1"
             style="fill:#ffffff;fill-opacity:1;fill-rule:evenodd;stroke:#000000;stroke-width:3;stroke-linecap:butt;stroke-linejoin:miter;stroke-miterlimit:4;stroke-dasharray:none;stroke-opacity:1"
             id="path1189"
             inkscape:connector-curvature="0" />
        </g>
        <g
           id="g1191"
           transform="matrix(0.2395325,0,0,-0.238205,382.15885,500.7064)">
          <path
             d="M 0,0 V -58"
             style="fill:none;stroke:#000000;stroke-width:3;stroke-linecap:square;stroke-linejoin:miter;stroke-miterlimit:14;stroke-dasharray:none;stroke-opacity:1"
             id="path1193"
             inkscape:connector-curvature="0" />
        </g>
        <g
           id="g1195"
           transform="matrix(0.2395325,0,0,-0.238205,375.931,517.38075)">
          <path
             d="M 0,0 25,11"
             style="fill:none;stroke:#000000;stroke-width:3;stroke-linecap:square;stroke-linejoin:miter;stroke-miterlimit:14;stroke-dasharray:none;stroke-opacity:1"
             id="path1197"
             inkscape:connector-curvature="0" />
        </g>
        <g
           id="g1199"
           transform="matrix(0.2395325,0,0,-0.238205,375.69147,514.28409)">
          <path
             d="M 0,0 V -51"
             style="fill:none;stroke:#000000;stroke-width:3;stroke-linecap:square;stroke-linejoin:miter;stroke-miterlimit:14;stroke-dasharray:none;stroke-opacity:1"
             id="path1201"
             inkscape:connector-curvature="0" />
        </g>
        <g
           id="g1203"
           transform="matrix(0.2395325,0,0,-0.238205,362.99625,520.23921)">
          <path
             d="M 0,0 H 53"
             style="fill:none;stroke:#000000;stroke-width:3;stroke-linecap:square;stroke-linejoin:miter;stroke-miterlimit:14;stroke-dasharray:none;stroke-opacity:1"
             id="path1205"
             inkscape:connector-curvature="0" />
        </g>
        <g
           id="g1207"
           transform="matrix(0.2395325,0,0,-0.238205,375.931,523.57408)">
          <path
             d="M 0,0 25,-12"
             style="fill:none;stroke:#000000;stroke-width:3;stroke-linecap:square;stroke-linejoin:miter;stroke-miterlimit:14;stroke-dasharray:none;stroke-opacity:1"
             id="path1209"
             inkscape:connector-curvature="0" />
        </g>
        <g
           id="g1211"
           transform="matrix(0.2395325,0,0,-0.238205,382.15885,526.43254)">
          <path
             d="M 0,0 V -64"
             style="fill:none;stroke:#000000;stroke-width:3;stroke-linecap:square;stroke-linejoin:miter;stroke-miterlimit:14;stroke-dasharray:none;stroke-opacity:1"
             id="path1213"
             inkscape:connector-curvature="0" />
        </g>
        <g
           id="g1215"
           transform="matrix(0.2395325,0,0,-0.238205,375.931,516.90434)">
          <path
             d="M 0,0 V 0"
             style="fill:none;stroke:#000000;stroke-width:3;stroke-linecap:square;stroke-linejoin:miter;stroke-miterlimit:14;stroke-dasharray:none;stroke-opacity:1"
             id="path1217"
             inkscape:connector-curvature="0" />
        </g>
        <g
           id="g1219"
           transform="matrix(0.2395325,0,0,-0.238205,378.08679,514.9987)">
          <path
             d="M 0,0 15,1 4,-10 Z"
             style="fill:#000000;fill-opacity:1;fill-rule:evenodd;stroke:none"
             id="path1221"
             inkscape:connector-curvature="0" />
        </g>
        <g
           id="g1223"
           transform="matrix(0.2395325,0,0,-0.238205,383.35651,541.67766)">
          <path
             d="m 0,0 v 0 c 0,-3 -2,-5 -5,-5 -3,0 -6,2 -6,5 0,3 3,6 6,6 3,0 5,-3 5,-6"
             style="fill:#000000;fill-opacity:1;fill-rule:nonzero;stroke:none"
             id="path1225"
             inkscape:connector-curvature="0" />
        </g>
        <g
           id="g1227"
           transform="matrix(0.2395325,0,0,-0.238205,383.35651,541.67766)">
          <path
             d="m 0,0 v 0 c 0,-3 -2,-5 -5,-5 -3,0 -6,2 -6,5 0,3 3,6 6,6 3,0 5,-3 5,-6 z"
             style="fill:none;stroke:#000000;stroke-width:2;stroke-linecap:butt;stroke-linejoin:miter;stroke-miterlimit:14;stroke-dasharray:none;stroke-opacity:1"
             id="path1229"
             inkscape:connector-curvature="0" />
        </g>
        <g
           id="g1231"
           transform="matrix(0.2395325,0,0,-0.238205,363.23578,535.96074)">
          <path
             d="M 0,0 V 35 L -5,34 V -2 Z"
             style="fill:#ffffff;fill-opacity:1;fill-rule:nonzero;stroke:none"
             id="path1233"
             inkscape:connector-curvature="0" />
        </g>
        <g
           id="g1235"
           transform="matrix(0.2395325,0,0,-0.238205,354.85214,541.91587)">
          <path
             d="m 0,0 h 33 v 26 l 5,3 -10,6 10,6 -10,6 10,6 -10,5 5,3 v 113 h 267"
             style="fill:none;stroke:#000000;stroke-width:3;stroke-linecap:butt;stroke-linejoin:miter;stroke-miterlimit:14;stroke-dasharray:none;stroke-opacity:1"
             id="path1237"
             inkscape:connector-curvature="0" />
        </g>
        <g
           id="g1239"
           transform="matrix(0.2395325,0,0,-0.238205,324.67105,558.82842)">
          <path
             d="M 0,0 V 144 L 126,72 Z"
             style="fill:#ffffff;fill-opacity:1;fill-rule:nonzero;stroke:none"
             id="path1241"
             inkscape:connector-curvature="0" />
        </g>
        <g
           id="g1243"
           transform="matrix(0.2395325,0,0,-0.238205,324.67105,558.82842)">
          <path
             d="M 0,0 V 144 L 126,72 Z"
             style="fill:none;stroke:#000000;stroke-width:3;stroke-linecap:butt;stroke-linejoin:miter;stroke-miterlimit:14;stroke-dasharray:none;stroke-opacity:1"
             id="path1245"
             inkscape:connector-curvature="0" />
        </g>
        <g
           id="g1247"
           transform="matrix(0.2395325,0,0,-0.238205,314.85021,550.96766)">
          <path
             d="M 0,0 H 40"
             style="fill:none;stroke:#000000;stroke-width:3;stroke-linecap:butt;stroke-linejoin:miter;stroke-miterlimit:14;stroke-dasharray:none;stroke-opacity:1"
             id="path1249"
             inkscape:connector-curvature="0" />
        </g>
        <g
           id="g1251"
           transform="matrix(0.2395325,0,0,-0.238205,314.85021,532.38767)">
          <path
             d="M 0,0 H 40"
             style="fill:none;stroke:#000000;stroke-width:3;stroke-linecap:butt;stroke-linejoin:miter;stroke-miterlimit:14;stroke-dasharray:none;stroke-opacity:1"
             id="path1253"
             inkscape:connector-curvature="0" />
        </g>
        <text
           transform="scale(1.0027774,-0.99723032)"
           style="font-variant:normal;font-weight:bold;font-stretch:normal;font-size:5.73277807px;font-family:Arial;-inkscape-font-specification:Arial-BoldMT;writing-mode:lr-tb;fill:#000000;fill-opacity:1;fill-rule:nonzero;stroke:none;stroke-width:0.99723029"
           id="text1257"
           x="325.5986"
           y="-540.82965">
          <tspan
             x="325.5986 330.05869 335.15512 339.21393 344.06961"
             y="-540.82965"
             sodipodi:role="line"
             id="tspan1255"
             style="stroke-width:0.99723029">OPAMP</tspan>
        </text>
        <g
           id="g1259"
           transform="matrix(0.2395325,0,0,-0.238205,326.58731,551.20566)">
          <path
             d="M 0,0 H 12 Z"
             style="fill:#ffffff;fill-opacity:1;fill-rule:nonzero;stroke:none"
             id="path1261"
             inkscape:connector-curvature="0" />
        </g>
        <g
           id="g1263"
           transform="matrix(0.2395325,0,0,-0.238205,326.58731,551.20566)">
          <path
             d="M 0,0 H 12"
             style="fill:none;stroke:#000000;stroke-width:3;stroke-linecap:butt;stroke-linejoin:miter;stroke-miterlimit:14;stroke-dasharray:none;stroke-opacity:1"
             id="path1265"
             inkscape:connector-curvature="0" />
        </g>
        <g
           id="g1267"
           transform="matrix(0.2395325,0,0,-0.238205,328.0245,552.8731)">
          <path
             d="M 0,0 V 13 Z"
             style="fill:#ffffff;fill-opacity:1;fill-rule:nonzero;stroke:none"
             id="path1269"
             inkscape:connector-curvature="0" />
        </g>
        <g
           id="g1271"
           transform="matrix(0.2395325,0,0,-0.238205,328.0245,552.8731)">
          <path
             d="M 0,0 V 13"
             style="fill:none;stroke:#000000;stroke-width:3;stroke-linecap:butt;stroke-linejoin:miter;stroke-miterlimit:14;stroke-dasharray:none;stroke-opacity:1"
             id="path1273"
             inkscape:connector-curvature="0" />
        </g>
        <g
           id="g1275"
           transform="matrix(0.2395325,0,0,-0.238205,329.4617,531.91106)">
          <path
             d="M 0,0 H -12 Z"
             style="fill:#ffffff;fill-opacity:1;fill-rule:nonzero;stroke:none"
             id="path1277"
             inkscape:connector-curvature="0" />
        </g>
        <g
           id="g1279"
           transform="matrix(0.2395325,0,0,-0.238205,329.4617,531.91106)">
          <path
             d="M 0,0 H -12"
             style="fill:none;stroke:#000000;stroke-width:3;stroke-linecap:butt;stroke-linejoin:miter;stroke-miterlimit:14;stroke-dasharray:none;stroke-opacity:1"
             id="path1281"
             inkscape:connector-curvature="0" />
        </g>
        <g
           id="g1283"
           transform="matrix(0.2395325,0,0,-0.238205,382.63791,564.78335)">
          <path
             d="M 0,0 V 35 L -5,34 V -2 Z"
             style="fill:#ffffff;fill-opacity:1;fill-rule:nonzero;stroke:none"
             id="path1285"
             inkscape:connector-curvature="0" />
        </g>
        <g
           id="g1287"
           transform="matrix(0.2395325,0,0,-0.238205,381.91931,541.67746)">
          <path
             d="m 0,0 v -61 l -4,-3 10,-6 -10,-5 10,-6 -10,-6 10,-6 -6,-3 v -45 h 187"
             style="fill:none;stroke:#000000;stroke-width:3;stroke-linecap:butt;stroke-linejoin:miter;stroke-miterlimit:14;stroke-dasharray:none;stroke-opacity:1"
             id="path1289"
             inkscape:connector-curvature="0" />
        </g>
        <g
           id="g1291"
           transform="matrix(0.2395325,0,0,-0.238205,364.19391,520.23901)">
          <path
             d="m 0,0 v 0 c 0,-3 -3,-6 -6,-6 -3,0 -6,3 -6,6 0,3 3,5 6,5 3,0 6,-2 6,-5"
             style="fill:#000000;fill-opacity:1;fill-rule:nonzero;stroke:none"
             id="path1293"
             inkscape:connector-curvature="0" />
        </g>
        <g
           id="g1295"
           transform="matrix(0.2395325,0,0,-0.238205,364.19391,520.23901)">
          <path
             d="m 0,0 v 0 c 0,-3 -3,-6 -6,-6 -3,0 -6,3 -6,6 0,3 3,5 6,5 3,0 6,-2 6,-5 z"
             style="fill:none;stroke:#000000;stroke-width:2;stroke-linecap:butt;stroke-linejoin:miter;stroke-miterlimit:14;stroke-dasharray:none;stroke-opacity:1"
             id="path1297"
             inkscape:connector-curvature="0" />
        </g>
        <g
           id="g1299"
           transform="matrix(0.2395325,0,0,-0.238205,383.35651,500.7062)">
          <path
             d="m 0,0 v 0 c 0,-3 -2,-5 -5,-5 -3,0 -6,2 -6,5 0,3 3,6 6,6 3,0 5,-3 5,-6"
             style="fill:#000000;fill-opacity:1;fill-rule:nonzero;stroke:none"
             id="path1301"
             inkscape:connector-curvature="0" />
        </g>
        <g
           id="g1303"
           transform="matrix(0.2395325,0,0,-0.238205,383.35651,500.7062)">
          <path
             d="m 0,0 v 0 c 0,-3 -2,-5 -5,-5 -3,0 -6,2 -6,5 0,3 3,6 6,6 3,0 5,-3 5,-6 z"
             style="fill:none;stroke:#000000;stroke-width:2;stroke-linecap:butt;stroke-linejoin:miter;stroke-miterlimit:14;stroke-dasharray:none;stroke-opacity:1"
             id="path1305"
             inkscape:connector-curvature="0" />
        </g>
        <text
           transform="scale(1.0027774,-0.99723032)"
           style="font-variant:normal;font-weight:bold;font-stretch:normal;font-size:5.73277807px;font-family:Arial;-inkscape-font-specification:Arial-BoldMT;writing-mode:lr-tb;fill:#000000;fill-opacity:1;fill-rule:nonzero;stroke:none;stroke-width:0.99723029"
           id="text1309"
           x="331.58655"
           y="-568.53778">
          <tspan
             x="331.58655 334.92877"
             y="-568.53778"
             sodipodi:role="line"
             id="tspan1307"
             style="stroke-width:0.99723029">+V</tspan>
        </text>
        <text
           transform="scale(1.0027774,-0.99723033)"
           style="font-variant:normal;font-weight:bold;font-stretch:normal;font-size:4.77733135px;font-family:Arial;-inkscape-font-specification:Arial-BoldMT;writing-mode:lr-tb;fill:#000000;fill-opacity:1;fill-rule:nonzero;stroke:none;stroke-width:0.99723035"
           id="text1313"
           x="338.75815"
           y="-567.10461">
          <tspan
             x="338.75815"
             y="-567.10461"
             id="tspan1311"
             style="stroke-width:0.99723035">A</tspan>
        </text>
        <text
           transform="scale(1.0027774,-0.99723032)"
           style="font-variant:normal;font-weight:bold;font-stretch:normal;font-size:5.73277807px;font-family:Arial;-inkscape-font-specification:Arial-BoldMT;writing-mode:lr-tb;fill:#000000;fill-opacity:1;fill-rule:nonzero;stroke:none;stroke-width:0.99723029"
           id="text1317"
           x="331.66684"
           y="-514.71301">
          <tspan
             x="331.66684 334.77402"
             y="-514.71301"
             sodipodi:role="line"
             id="tspan1315"
             style="stroke-width:0.99723029">–V</tspan>
        </text>
        <text
           transform="scale(1.0027774,-0.99723033)"
           style="font-variant:normal;font-weight:bold;font-stretch:normal;font-size:4.77733135px;font-family:Arial;-inkscape-font-specification:Arial-BoldMT;writing-mode:lr-tb;fill:#000000;fill-opacity:1;fill-rule:nonzero;stroke:none;stroke-width:0.99723035"
           id="text1321"
           x="338.67886"
           y="-513.27985">
          <tspan
             x="338.67886"
             y="-513.27985"
             id="tspan1319"
             style="stroke-width:0.99723035">A</tspan>
        </text>
        <text
           transform="scale(1.0027774,-0.99723032)"
           style="font-variant:normal;font-weight:bold;font-stretch:normal;font-size:5.73277807px;font-family:Arial;-inkscape-font-specification:Arial-BoldMT;writing-mode:lr-tb;fill:#000000;fill-opacity:1;fill-rule:nonzero;stroke:none;stroke-width:0.99723029"
           id="text1325"
           x="370.90704"
           y="-561.52997">
          <tspan
             x="370.90704"
             y="-561.52997"
             id="tspan1323"
             style="stroke-width:0.99723029">R</tspan>
        </text>
        <text
           transform="scale(1.0027774,-0.99723033)"
           style="font-variant:normal;font-weight:bold;font-stretch:normal;font-size:4.77733135px;font-family:Arial;-inkscape-font-specification:Arial-BoldMT;writing-mode:lr-tb;fill:#000000;fill-opacity:1;fill-rule:nonzero;stroke:none;stroke-width:0.99723035"
           id="text1329"
           x="375.04706"
           y="-560.0968">
          <tspan
             x="375.04706"
             y="-560.0968"
             id="tspan1327"
             style="stroke-width:0.99723035">L</tspan>
        </text>
        <text
           transform="scale(1.0027774,-0.99723032)"
           style="font-variant:normal;font-weight:bold;font-stretch:normal;font-size:5.73277807px;font-family:Arial;-inkscape-font-specification:Arial-BoldMT;writing-mode:lr-tb;fill:#000000;fill-opacity:1;fill-rule:nonzero;stroke:none;stroke-width:0.99723029"
           id="text1333"
           x="351.21274"
           y="-531.59357">
          <tspan
             x="351.21274"
             y="-531.59357"
             id="tspan1331"
             style="stroke-width:0.99723029">R</tspan>
        </text>
        <text
           transform="scale(1.0027774,-0.99723033)"
           style="font-variant:normal;font-weight:bold;font-stretch:normal;font-size:4.77733135px;font-family:Arial;-inkscape-font-specification:Arial-BoldMT;writing-mode:lr-tb;fill:#000000;fill-opacity:1;fill-rule:nonzero;stroke:none;stroke-width:0.99723035"
           id="text1337"
           x="355.35275"
           y="-530.16028">
          <tspan
             x="355.35275"
             y="-530.16028"
             id="tspan1335"
             style="stroke-width:0.99723035">B</tspan>
        </text>
        <text
           transform="scale(1.0027774,-0.99723032)"
           style="font-variant:normal;font-weight:bold;font-stretch:normal;font-size:5.73277807px;font-family:Arial;-inkscape-font-specification:Arial-BoldMT;writing-mode:lr-tb;fill:#000000;fill-opacity:1;fill-rule:nonzero;stroke:none;stroke-width:0.99723029"
           id="text1343"
           x="393.18179"
           y="-541.14709">
          <tspan
             x="393.18179 396.76477 401.30515 405.84549 407.51947"
             y="-541.14709"
             sodipodi:role="line"
             id="tspan1339"
             style="stroke-width:0.99723029">LOGIC</tspan>
          <tspan
             x="413.18344 416.52567"
             y="-580.31915"
             sodipodi:role="line"
             id="tspan1341"
             style="stroke-width:0.99723029">+V</tspan>
        </text>
        <text
           transform="scale(1.0027774,-0.99723033)"
           style="font-variant:normal;font-weight:bold;font-stretch:normal;font-size:4.77733135px;font-family:Arial;-inkscape-font-specification:Arial-BoldMT;writing-mode:lr-tb;fill:#000000;fill-opacity:1;fill-rule:nonzero;stroke:none;stroke-width:0.99723035"
           id="text1347"
           x="420.35272"
           y="-578.88721">
          <tspan
             x="420.35272"
             y="-578.88721"
             id="tspan1345"
             style="stroke-width:0.99723035">L</tspan>
        </text>
        <text
           transform="scale(1.0027774,-0.99723032)"
           style="font-variant:normal;font-weight:bold;font-stretch:normal;font-size:5.73277807px;font-family:Arial;-inkscape-font-specification:Arial-BoldMT;writing-mode:lr-tb;fill:#000000;fill-opacity:1;fill-rule:nonzero;stroke:none;stroke-width:0.99723029"
           id="text1351"
           x="413.26141"
           y="-505.79459">
          <tspan
             x="413.26141 416.36859"
             y="-505.79459"
             sodipodi:role="line"
             id="tspan1349"
             style="stroke-width:0.99723029">–V</tspan>
        </text>
        <text
           transform="scale(1.0027774,-0.99723033)"
           style="font-variant:normal;font-weight:bold;font-stretch:normal;font-size:4.77733135px;font-family:Arial;-inkscape-font-specification:Arial-BoldMT;writing-mode:lr-tb;fill:#000000;fill-opacity:1;fill-rule:nonzero;stroke:none;stroke-width:0.99723035"
           id="text1355"
           x="420.27344"
           y="-504.36142">
          <tspan
             x="420.27344"
             y="-504.36142"
             id="tspan1353"
             style="stroke-width:0.99723035">L</tspan>
        </text>
      </g>
    </g>
  </g>
</svg>
