<?xml version="1.0" encoding="UTF-8" standalone="no"?>
<!-- Created with Inkscape (http://www.inkscape.org/) -->

<svg
   xmlns:dc="http://purl.org/dc/elements/1.1/"
   xmlns:cc="http://creativecommons.org/ns#"
   xmlns:rdf="http://www.w3.org/1999/02/22-rdf-syntax-ns#"
   xmlns:svg="http://www.w3.org/2000/svg"
   xmlns="http://www.w3.org/2000/svg"
   xmlns:sodipodi="http://sodipodi.sourceforge.net/DTD/sodipodi-0.dtd"
   xmlns:inkscape="http://www.inkscape.org/namespaces/inkscape"
   width="41mm"
   height="18mm"
   viewBox="0 0 41 18"
   version="1.1"
   id="svg9073"
   inkscape:version="0.92.3 (2405546, 2018-03-11)"
   sodipodi:docname="aes_fig071.svg">
  <defs
     id="defs9067">
    <clipPath
       clipPathUnits="userSpaceOnUse"
       id="clipPath1041">
      <path
         d="m 94.13,123.471 h 126.75 v 48.75 H 94.13 Z"
         id="path1039"
         inkscape:connector-curvature="0" />
    </clipPath>
  </defs>
  <sodipodi:namedview
     id="base"
     pagecolor="#ffffff"
     bordercolor="#666666"
     borderopacity="1.0"
     inkscape:pageopacity="0.0"
     inkscape:pageshadow="2"
     inkscape:zoom="2.8"
     inkscape:cx="38.9611"
     inkscape:cy="47.555555"
     inkscape:document-units="mm"
     inkscape:current-layer="layer1"
     showgrid="false"
     inkscape:window-width="1842"
     inkscape:window-height="1177"
     inkscape:window-x="70"
     inkscape:window-y="-8"
     inkscape:window-maximized="1" />
  <metadata
     id="metadata9070">
    <rdf:RDF>
      <cc:Work
         rdf:about="">
        <dc:format>image/svg+xml</dc:format>
        <dc:type
           rdf:resource="http://purl.org/dc/dcmitype/StillImage" />
        <dc:title></dc:title>
      </cc:Work>
    </rdf:RDF>
  </metadata>
  <g
     inkscape:label="Vrstva 1"
     inkscape:groupmode="layer"
     id="layer1"
     transform="translate(0,-279)">
    <g
       id="g1031"
       transform="matrix(0.08767769,0,0,0.08682718,41.069519,288.07987)">
      <path
         d="M 0,0 H -299"
         style="fill:none;stroke:#000000;stroke-width:3;stroke-linecap:butt;stroke-linejoin:miter;stroke-miterlimit:14;stroke-dasharray:none;stroke-opacity:1"
         id="path1033"
         inkscape:connector-curvature="0" />
    </g>
    <g
       transform="matrix(0.35277777,0,0,-0.35277777,-33.077882,340.4964)"
       id="g1035">
      <g
         id="g1037"
         clip-path="url(#clipPath1041)">
        <g
           id="g1043"
           transform="matrix(0.2485352,0,0,-0.2461243,210.18161,170.9796)">
          <path
             d="M 0,0 H -370 V 182 H 0"
             style="fill:none;stroke:#000000;stroke-width:3;stroke-linecap:butt;stroke-linejoin:miter;stroke-miterlimit:14;stroke-dasharray:none;stroke-opacity:1"
             id="path1045"
             inkscape:connector-curvature="0" />
        </g>
        <g
           id="g1047"
           transform="matrix(0.2485352,0,0,-0.2461243,188.06196,159.16563)">
          <path
             d="M 0,0 C 25,0 45,19 45,42 45,66 25,85 0,85 H -60 V 0 H 1"
             style="fill:#ffffff;fill-opacity:1;fill-rule:evenodd;stroke:none"
             id="path1049"
             inkscape:connector-curvature="0" />
        </g>
        <g
           id="g1051"
           transform="matrix(0.2485352,0,0,-0.2461243,188.06194,159.16563)">
          <path
             d="M 0,0 C 25,0 45,19 45,42 45,66 25,85 0,85 H -60 V 0 H 1"
             style="fill:none;stroke:#000000;stroke-width:3;stroke-linecap:butt;stroke-linejoin:miter;stroke-miterlimit:4;stroke-dasharray:none;stroke-opacity:1"
             id="path1053"
             inkscape:connector-curvature="0" />
        </g>
        <g
           id="g1055"
           transform="matrix(0.2485352,0,0,-0.2461243,104.30556,166.30324)">
          <path
             d="M 0,0 V 144 L 127,72 Z"
             style="fill:#ffffff;fill-opacity:1;fill-rule:nonzero;stroke:none"
             id="path1057"
             inkscape:connector-curvature="0" />
        </g>
        <g
           id="g1059"
           transform="matrix(0.2485352,0,0,-0.2461243,104.30556,166.30324)">
          <path
             d="M 0,0 V 144 L 127,72 Z"
             style="fill:none;stroke:#000000;stroke-width:3;stroke-linecap:butt;stroke-linejoin:miter;stroke-miterlimit:14;stroke-dasharray:none;stroke-opacity:1"
             id="path1061"
             inkscape:connector-curvature="0" />
        </g>
        <g
           id="g1063"
           transform="matrix(0.2485352,0,0,-0.2461243,94.115606,158.18113)">
          <path
             d="M 0,0 H 41"
             style="fill:none;stroke:#000000;stroke-width:3;stroke-linecap:butt;stroke-linejoin:miter;stroke-miterlimit:14;stroke-dasharray:none;stroke-opacity:1"
             id="path1065"
             inkscape:connector-curvature="0" />
        </g>
        <g
           id="g1067"
           transform="matrix(0.2485352,0,0,-0.2461243,94.115591,138.98344)">
          <path
             d="M 0,0 H 41"
             style="fill:none;stroke:#000000;stroke-width:3;stroke-linecap:butt;stroke-linejoin:miter;stroke-miterlimit:14;stroke-dasharray:none;stroke-opacity:1"
             id="path1069"
             inkscape:connector-curvature="0" />
        </g>
        <text
           transform="matrix(1,0,0,-0.99025985,106.2682,146.1437)"
           style="font-variant:normal;font-weight:bold;font-stretch:normal;font-size:5.96500015px;font-family:Arial;-inkscape-font-specification:Arial-BoldMT;writing-mode:lr-tb;fill:#000000;fill-opacity:1;fill-rule:nonzero;stroke:none"
           id="text1073">
          <tspan
             x="0 4.64077 9.943655 14.166875 19.219231"
             y="0"
             sodipodi:role="line"
             id="tspan1071">OPAMP</tspan>
        </text>
        <g
           id="g1075"
           transform="matrix(0.2485352,0,0,-0.2461243,106.29386,158.18123)">
          <path
             d="M 0,0 H 12 Z"
             style="fill:#ffffff;fill-opacity:1;fill-rule:nonzero;stroke:none"
             id="path1077"
             inkscape:connector-curvature="0" />
        </g>
        <g
           id="g1079"
           transform="matrix(0.2485352,0,0,-0.2461243,106.29386,158.1812)">
          <path
             d="M 0,0 H 12"
             style="fill:none;stroke:#000000;stroke-width:3;stroke-linecap:butt;stroke-linejoin:miter;stroke-miterlimit:14;stroke-dasharray:none;stroke-opacity:1"
             id="path1081"
             inkscape:connector-curvature="0" />
        </g>
        <g
           id="g1083"
           transform="matrix(0.2485352,0,0,-0.2461243,107.78506,159.65794)">
          <path
             d="M 0,0 V 13 Z"
             style="fill:#ffffff;fill-opacity:1;fill-rule:nonzero;stroke:none"
             id="path1085"
             inkscape:connector-curvature="0" />
        </g>
        <g
           id="g1087"
           transform="matrix(0.2485352,0,0,-0.2461243,107.78504,159.65794)">
          <path
             d="M 0,0 V 13"
             style="fill:none;stroke:#000000;stroke-width:3;stroke-linecap:butt;stroke-linejoin:miter;stroke-miterlimit:14;stroke-dasharray:none;stroke-opacity:1"
             id="path1089"
             inkscape:connector-curvature="0" />
        </g>
        <g
           id="g1091"
           transform="matrix(0.2485352,0,0,-0.2461243,109.52477,138.73738)">
          <path
             d="M 0,0 H -13 Z"
             style="fill:#ffffff;fill-opacity:1;fill-rule:nonzero;stroke:none"
             id="path1093"
             inkscape:connector-curvature="0" />
        </g>
        <g
           id="g1095"
           transform="matrix(0.2485352,0,0,-0.2461243,109.52476,138.73738)">
          <path
             d="M 0,0 H -13"
             style="fill:none;stroke:#000000;stroke-width:3;stroke-linecap:butt;stroke-linejoin:miter;stroke-miterlimit:14;stroke-dasharray:none;stroke-opacity:1"
             id="path1097"
             inkscape:connector-curvature="0" />
        </g>
        <g
           id="g1099"
           transform="matrix(0.2485352,0,0,-0.2461243,184.33385,125.93891)">
          <path
             d="m 0,0 v 0 c 0,-3 -2,-6 -6,-6 -3,0 -5,3 -5,6 0,3 2,5 5,5 4,0 6,-2 6,-5"
             style="fill:#000000;fill-opacity:1;fill-rule:nonzero;stroke:none"
             id="path1101"
             inkscape:connector-curvature="0" />
        </g>
        <g
           id="g1103"
           transform="matrix(0.2485352,0,0,-0.2461243,184.33384,125.93891)">
          <path
             d="m 0,0 v 0 c 0,-3 -2,-6 -6,-6 -3,0 -5,3 -5,6 0,3 2,5 5,5 4,0 6,-2 6,-5 z"
             style="fill:none;stroke:#000000;stroke-width:2;stroke-linecap:butt;stroke-linejoin:miter;stroke-miterlimit:14;stroke-dasharray:none;stroke-opacity:1"
             id="path1105"
             inkscape:connector-curvature="0" />
        </g>
        <text
           transform="matrix(1,0,0,-0.99025985,176.5886,146.4711)"
           style="font-variant:normal;font-weight:bold;font-stretch:normal;font-size:5.96500015px;font-family:Arial;-inkscape-font-specification:Arial-BoldMT;writing-mode:lr-tb;fill:#000000;fill-opacity:1;fill-rule:nonzero;stroke:none"
           id="text1109">
          <tspan
             x="0 3.7281251 8.452405 13.176685 14.918465"
             y="0"
             sodipodi:role="line"
             id="tspan1107">LOGIC</tspan>
        </text>
        <g
           id="g1111"
           transform="matrix(0.2485352,0,0,-0.2461243,182.84263,159.41182)">
          <path
             d="M 0,0 V -49"
             style="fill:none;stroke:#000000;stroke-width:3;stroke-linecap:butt;stroke-linejoin:miter;stroke-miterlimit:14;stroke-dasharray:none;stroke-opacity:1"
             id="path1113"
             inkscape:connector-curvature="0" />
        </g>
        <g
           id="g1115"
           transform="matrix(0.2485352,0,0,-0.2461243,182.84261,138.49125)">
          <path
             d="M 0,0 V 52"
             style="fill:none;stroke:#000000;stroke-width:3;stroke-linecap:butt;stroke-linejoin:miter;stroke-miterlimit:14;stroke-dasharray:none;stroke-opacity:1"
             id="path1117"
             inkscape:connector-curvature="0" />
        </g>
        <g
           id="g1119"
           transform="matrix(0.2485352,0,0,-0.2461243,184.0853,170.97966)">
          <path
             d="m 0,0 v 0 c 0,-3 -3,-5 -6,-5 -3,0 -5,2 -5,5 0,3 2,6 5,6 3,0 6,-3 6,-6"
             style="fill:#000000;fill-opacity:1;fill-rule:nonzero;stroke:none"
             id="path1121"
             inkscape:connector-curvature="0" />
        </g>
        <g
           id="g1123"
           transform="matrix(0.2485352,0,0,-0.2461243,184.08527,170.97966)">
          <path
             d="m 0,0 v 0 c 0,-3 -3,-5 -6,-5 -3,0 -5,2 -5,5 0,3 2,6 5,6 3,0 6,-3 6,-6 z"
             style="fill:none;stroke:#000000;stroke-width:2;stroke-linecap:butt;stroke-linejoin:miter;stroke-miterlimit:14;stroke-dasharray:none;stroke-opacity:1"
             id="path1125"
             inkscape:connector-curvature="0" />
        </g>
      </g>
    </g>
  </g>
</svg>
