<?xml version="1.0" encoding="UTF-8" standalone="no"?>
<!-- Created with Inkscape (http://www.inkscape.org/) -->

<svg
   xmlns:dc="http://purl.org/dc/elements/1.1/"
   xmlns:cc="http://creativecommons.org/ns#"
   xmlns:rdf="http://www.w3.org/1999/02/22-rdf-syntax-ns#"
   xmlns:svg="http://www.w3.org/2000/svg"
   xmlns="http://www.w3.org/2000/svg"
   xmlns:sodipodi="http://sodipodi.sourceforge.net/DTD/sodipodi-0.dtd"
   xmlns:inkscape="http://www.inkscape.org/namespaces/inkscape"
   width="83mm"
   height="53mm"
   viewBox="0 0 83 53"
   version="1.1"
   id="svg8350"
   inkscape:version="0.92.3 (2405546, 2018-03-11)"
   sodipodi:docname="aes_fig070.svg">
  <defs
     id="defs8344">
    <clipPath
       clipPathUnits="userSpaceOnUse"
       id="clipPath947">
      <path
         d="M 36.08,443.57 H 278.93 V 590.869 H 36.08 Z"
         id="path945"
         inkscape:connector-curvature="0" />
    </clipPath>
    <clipPath
       clipPathUnits="userSpaceOnUse"
       id="clipPath899">
      <path
         d="M 36.08,443.57 H 278.93 V 590.869 H 36.08 Z"
         id="path897"
         inkscape:connector-curvature="0" />
    </clipPath>
  </defs>
  <sodipodi:namedview
     id="base"
     pagecolor="#ffffff"
     bordercolor="#666666"
     borderopacity="1.0"
     inkscape:pageopacity="0.0"
     inkscape:pageshadow="2"
     inkscape:zoom="1.979899"
     inkscape:cx="93.750608"
     inkscape:cy="59.999125"
     inkscape:document-units="mm"
     inkscape:current-layer="layer1"
     showgrid="false"
     inkscape:window-width="1842"
     inkscape:window-height="1177"
     inkscape:window-x="70"
     inkscape:window-y="-8"
     inkscape:window-maximized="1" />
  <metadata
     id="metadata8347">
    <rdf:RDF>
      <cc:Work
         rdf:about="">
        <dc:format>image/svg+xml</dc:format>
        <dc:type
           rdf:resource="http://purl.org/dc/dcmitype/StillImage" />
        <dc:title></dc:title>
      </cc:Work>
    </rdf:RDF>
  </metadata>
  <g
     inkscape:label="Vrstva 1"
     inkscape:groupmode="layer"
     id="layer1"
     transform="translate(0,-244)">
    <g
       transform="matrix(0.35277777,0,0,-0.35277777,-12.545931,453.68103)"
       id="g893">
      <g
         id="g895"
         clip-path="url(#clipPath899)">
        <g
           id="g901"
           transform="matrix(0.246048,0,0,-0.2454834,44.45145,591.09947)">
          <path
             d="M 0,0 V 598"
             style="fill:none;stroke:#000000;stroke-width:2;stroke-linecap:butt;stroke-linejoin:miter;stroke-miterlimit:4;stroke-dasharray:none;stroke-opacity:1"
             id="path903"
             inkscape:connector-curvature="0" />
        </g>
      </g>
    </g>
    <g
       id="g905"
       transform="matrix(0.08680026,0,0,0.08660109,3.0487532,250.35034)">
      <path
         d="M 0,0 H 507 L 629,479 H 895"
         style="fill:none;stroke:#000000;stroke-width:4;stroke-linecap:butt;stroke-linejoin:miter;stroke-miterlimit:4;stroke-dasharray:none;stroke-opacity:1"
         id="path907"
         inkscape:connector-curvature="0" />
    </g>
    <g
       id="g909"
       transform="matrix(0.08680026,0,0,0.08660109,3.2223542,258.31765)">
      <path
         d="m 0,0 h 387 l 76,298 h 430"
         style="fill:none;stroke:#000000;stroke-width:4;stroke-linecap:butt;stroke-linejoin:miter;stroke-miterlimit:4;stroke-dasharray:none;stroke-opacity:1"
         id="path911"
         inkscape:connector-curvature="0" />
    </g>
    <g
       id="g913"
       transform="matrix(0.08680026,0,0,0.08660109,3.0487532,265.93854)">
      <path
         d="M 0,0 H 300 V 120 H 896"
         style="fill:none;stroke:#000000;stroke-width:5;stroke-linecap:butt;stroke-linejoin:miter;stroke-miterlimit:4;stroke-dasharray:none;stroke-opacity:1"
         id="path915"
         inkscape:connector-curvature="0" />
    </g>
    <g
       id="g917"
       transform="matrix(0.08680026,0,0,0.08660109,33.342043,266.11174)">
      <path
         d="M 0,0 H 41"
         style="fill:none;stroke:#000000;stroke-width:2;stroke-linecap:butt;stroke-linejoin:miter;stroke-miterlimit:4;stroke-dasharray:none;stroke-opacity:1"
         id="path919"
         inkscape:connector-curvature="0" />
    </g>
    <g
       id="g921"
       transform="matrix(0.08680026,0,0,0.08660109,36.466865,265.41895)">
      <path
         d="M 0,0 27,8 0,14.999 Z"
         style="fill:#000000;fill-opacity:1;fill-rule:nonzero;stroke:none"
         id="path923"
         inkscape:connector-curvature="0" />
    </g>
    <g
       id="g925"
       transform="matrix(0.08680026,0,0,0.08660109,56.344114,266.11174)">
      <path
         d="M 0,0 H -41"
         style="fill:none;stroke:#000000;stroke-width:2;stroke-linecap:butt;stroke-linejoin:miter;stroke-miterlimit:4;stroke-dasharray:none;stroke-opacity:1"
         id="path927"
         inkscape:connector-curvature="0" />
    </g>
    <g
       id="g929"
       transform="matrix(0.08680026,0,0,0.08660109,50.875674,266.11176)">
      <path
         d="M 0,0 27,-8 V 6.999 Z"
         style="fill:#000000;fill-opacity:1;fill-rule:nonzero;stroke:none"
         id="path931"
         inkscape:connector-curvature="0" />
    </g>
    <g
       id="g933"
       transform="matrix(0.08680026,0,0,0.08660109,1.7467552,271.13461)">
      <path
         d="M 0,0 H 889"
         style="fill:none;stroke:#000000;stroke-width:2;stroke-linecap:butt;stroke-linejoin:miter;stroke-miterlimit:4;stroke-dasharray:none;stroke-opacity:1"
         id="path935"
         inkscape:connector-curvature="0" />
    </g>
    <g
       id="g937"
       transform="matrix(0.08680026,0,0,0.08660109,78.478208,270.52835)">
      <path
         d="M 0,0 27,7 0,15 Z"
         style="fill:#000000;fill-opacity:1;fill-rule:nonzero;stroke:none"
         id="path939"
         inkscape:connector-curvature="0" />
    </g>
    <g
       transform="matrix(0.35277777,0,0,-0.35277777,-12.545931,453.68103)"
       id="g941">
      <g
         id="g943"
         clip-path="url(#clipPath947)">
        <text
           transform="matrix(1,0,0,-0.99773081,74.2724,585.4622)"
           style="font-variant:normal;font-weight:bold;font-stretch:normal;font-size:5.9052px;font-family:Arial;-inkscape-font-specification:Arial-BoldMT;writing-mode:lr-tb;fill:#000000;fill-opacity:1;fill-rule:nonzero;stroke:none"
           id="text955">
          <tspan
             x="0 4.6769185 8.8577995 12.54855 16.487318 20.6682 24.35895 26.083269 30.760187 34.450935 36.175255 40.350231 45.605858 49.786739 54.788445 58.620922 60.345238 64.526123 68.46489 72.403656"
             y="0"
             sodipodi:role="line"
             id="tspan949">OUTPUT OF OPAMP USED</tspan>
          <tspan
             x="9.6845284 13.86541 17.88685 19.363152 23.355066 25.079384 29.260265 33.937183 38.773544 42.275326 46.456207 50.802437 54.6231 58.124882 62.801804"
             y="6.8913684"
             sodipodi:role="line"
             id="tspan951">AS A COMPARATOR</tspan>
          <tspan
             x="-13.2867 -8.6097813"
             y="22.309847"
             sodipodi:role="line"
             id="tspan953">OU</tspan>
        </text>
        <text
           transform="matrix(1,0,0,-0.99773081,69.846,563.20511)"
           style="font-variant:normal;font-weight:bold;font-stretch:normal;font-size:5.9052px;font-family:Arial;-inkscape-font-specification:Arial-BoldMT;writing-mode:lr-tb;fill:#000000;fill-opacity:1;fill-rule:nonzero;stroke:none"
           id="text965">
          <tspan
             x="0 3.6907499 7.6295185 11.8104 15.50115 17.225468 21.902388 25.593138 27.317455 31.492432 36.748058 40.92894 45.930645 49.763119 51.487438 55.66832 59.60709 63.545856"
             y="0"
             sodipodi:role="line"
             id="tspan957">TPUT OF OPAMP USED</tspan>
          <tspan
             x="7.8775368 12.058418 15.749168 20.426086 24.364855 28.303623 32.484505 34.450935 38.141685 42.818604 47.247505"
             y="6.8913684"
             sodipodi:role="line"
             id="tspan959">CLOSED-LOOP</tspan>
          <tspan
             x="3.5076888 5.4741206 9.6550016 14.331921 16.056238 19.912334 23.738905 27.429653 31.610535 35.874088 39.700661 43.391411 45.115726 49.792645 53.97353"
             y="15.749168"
             sodipodi:role="line"
             id="tspan961">(NO SATURATION/</tspan>
          <tspan
             x="5.4741206 9.6550016 13.59377 17.615211 21.441782 25.132532 29.313414 33.576965 37.403538 41.094288 42.818604 47.495525 51.676407"
             y="22.640537"
             sodipodi:role="line"
             id="tspan963">DESATURATION)</tspan>
        </text>
        <text
           transform="matrix(1,0,0,-0.99773562,46.8284,534.7287)"
           style="font-variant:normal;font-weight:bold;font-stretch:normal;font-size:6.88929987px;font-family:Arial;-inkscape-font-specification:Arial-BoldMT;writing-mode:lr-tb;fill:#000000;fill-opacity:1;fill-rule:nonzero;stroke:none"
           id="text969">
          <tspan
             x="0 1.9703398 6.8892999 11.567135 16.486095"
             y="0"
             sodipodi:role="line"
             id="tspan967">INPUT</tspan>
        </text>
        <text
           transform="matrix(1,0,0,-0.99773081,197.2455,532.7643)"
           style="font-variant:normal;font-weight:bold;font-stretch:normal;font-size:5.9052px;font-family:Arial;-inkscape-font-specification:Arial-BoldMT;writing-mode:lr-tb;fill:#000000;fill-opacity:1;fill-rule:nonzero;stroke:none"
           id="text975">
          <tspan
             x="0 4.1808815 8.1196499 11.8104 15.530676 19.363152 21.087469 25.268351 29.449232 35.11232 38.614101"
             y="0"
             sodipodi:role="line"
             id="tspan971">DELAY DUETO</tspan>
          <tspan
             x="0 4.1808815 8.1196499 12.141091 15.967661 19.658411 23.839293 28.102846 31.929417 35.620167 37.344486 42.021404"
             y="6.8913684"
             sodipodi:role="line"
             id="tspan973">DESATURATION</tspan>
        </text>
        <text
           transform="matrix(1,0,0,-0.99773562,266.139,515.4161)"
           style="font-variant:normal;font-weight:bold;font-stretch:normal;font-size:6.88929987px;font-family:Arial;-inkscape-font-specification:Arial-BoldMT;writing-mode:lr-tb;fill:#000000;fill-opacity:1;fill-rule:nonzero;stroke:none"
           id="text979">
          <tspan
             x="0"
             y="0"
             id="tspan977">t</tspan>
        </text>
        <text
           transform="matrix(1,0,0,-0.99773081,35.8384,515.4171)"
           style="font-variant:normal;font-weight:bold;font-stretch:normal;font-size:5.9052px;font-family:Arial;-inkscape-font-specification:Arial-BoldMT;writing-mode:lr-tb;fill:#000000;fill-opacity:1;fill-rule:nonzero;stroke:none"
           id="text983">
          <tspan
             x="0"
             y="0"
             id="tspan981">0</tspan>
        </text>
      </g>
    </g>
  </g>
</svg>
