<?xml version="1.0" encoding="UTF-8" standalone="no"?>
<!-- Created with Inkscape (http://www.inkscape.org/) -->

<svg
   xmlns:dc="http://purl.org/dc/elements/1.1/"
   xmlns:cc="http://creativecommons.org/ns#"
   xmlns:rdf="http://www.w3.org/1999/02/22-rdf-syntax-ns#"
   xmlns:svg="http://www.w3.org/2000/svg"
   xmlns="http://www.w3.org/2000/svg"
   xmlns:sodipodi="http://sodipodi.sourceforge.net/DTD/sodipodi-0.dtd"
   xmlns:inkscape="http://www.inkscape.org/namespaces/inkscape"
   id="svg2984"
   version="1.1"
   inkscape:version="0.48.1 "
   width="270"
   height="180"
   xml:space="preserve"
   sodipodi:docname="skici.pdf"><metadata
     id="metadata2990"><rdf:RDF><cc:Work
         rdf:about=""><dc:format>image/svg+xml</dc:format><dc:type
           rdf:resource="http://purl.org/dc/dcmitype/StillImage" /><dc:title></dc:title></cc:Work></rdf:RDF></metadata><defs
     id="defs2988" /><sodipodi:namedview
     pagecolor="#ffffff"
     bordercolor="#666666"
     borderopacity="1"
     objecttolerance="10"
     gridtolerance="10"
     guidetolerance="10"
     inkscape:pageopacity="0"
     inkscape:pageshadow="2"
     inkscape:window-width="1920"
     inkscape:window-height="1125"
     id="namedview2986"
     showgrid="false"
     inkscape:zoom="5.15"
     inkscape:cx="135"
     inkscape:cy="90"
     inkscape:window-x="0"
     inkscape:window-y="0"
     inkscape:window-maximized="1"
     inkscape:current-layer="g2992" /><g
     id="g2992"
     inkscape:groupmode="layer"
     inkscape:label="skici"
     transform="matrix(1.25,0,0,-1.25,0,180)"><path
       d="m 71.73432,31.751975 c 0,7.05 5.71,12.76 12.76,12.76 7.04,0 12.75,-5.71 12.75,-12.76 0,0 0,0 0,0 0,-7.04 -5.71,-12.75 -12.75,-12.75 -7.05,0 -12.76,5.71 -12.76,12.75 z"
       style="fill:#ffffff;fill-opacity:1;fill-rule:evenodd;stroke:none"
       id="path2994"
       inkscape:connector-curvature="0" /><path
       d="m 71.73432,31.751975 c 0,7.05 5.71,12.76 12.76,12.76 7.04,0 12.75,-5.71 12.75,-12.76 0,0 0,0 0,0 0,-7.04 -5.71,-12.75 -12.75,-12.75 -7.05,0 -12.76,5.71 -12.76,12.75"
       style="fill:none;stroke:#000000;stroke-width:1;stroke-linecap:round;stroke-linejoin:round;stroke-miterlimit:10;stroke-opacity:1;stroke-dasharray:none"
       id="path2996"
       inkscape:connector-curvature="0" /><path
       d="m 67.24432,31.641975 13.2,0 m 0,-8.4 0,16.8 m 0,-4.2 12.6,5.4 0,7.8 m -12.6,-21.6 12.6,-5.4 0,-7.2"
       style="fill:none;stroke:#000000;stroke-width:1;stroke-linecap:round;stroke-linejoin:round;stroke-miterlimit:10;stroke-opacity:1;stroke-dasharray:none"
       id="path2998"
       inkscape:connector-curvature="0" /><path
       d="m 93.04432,22.041975 -3.6,0 1.2,3 2.4,-3 z"
       style="fill:#000000;fill-opacity:1;fill-rule:evenodd;stroke:none"
       id="path3000"
       inkscape:connector-curvature="0" /><path
       d="m 93.04432,22.041975 -3.6,0 1.2,3 2.4,-3 z"
       style="fill:none;stroke:#000000;stroke-width:1;stroke-linecap:round;stroke-linejoin:round;stroke-miterlimit:10;stroke-opacity:1;stroke-dasharray:none"
       id="path3002"
       inkscape:connector-curvature="0" /><path
       d="m 18.044319,4.641975 150.000001,0"
       style="fill:none;stroke:#000000;stroke-width:1;stroke-linecap:round;stroke-linejoin:round;stroke-miterlimit:10;stroke-opacity:1;stroke-dasharray:none"
       id="path3004"
       inkscape:connector-curvature="0" /><path
       d="m 18.224319,4.821975 c 0,1.76 -1.42,3.18 -3.18,3.18 -1.76,0 -3.18,-1.42 -3.18,-3.18 0,0 0,0 0,0 0,-1.75 1.42,-3.18 3.18,-3.18 1.76,0 3.18,1.43 3.18,3.18"
       style="fill:none;stroke:#000000;stroke-width:1;stroke-linecap:round;stroke-linejoin:round;stroke-miterlimit:10;stroke-opacity:1;stroke-dasharray:none"
       id="path3006"
       inkscape:connector-curvature="0" /><path
       d="m 167.77432,4.821975 c 0,-1.75 1.42,-3.18 3.18,-3.18 1.75,0 3.18,1.43 3.18,3.18 0,0 0,0 0,0 0,1.76 -1.43,3.18 -3.18,3.18 -1.76,0 -3.18,-1.42 -3.18,-3.18"
       style="fill:none;stroke:#000000;stroke-width:1;stroke-linecap:round;stroke-linejoin:round;stroke-miterlimit:10;stroke-opacity:1;stroke-dasharray:none"
       id="path3008"
       inkscape:connector-curvature="0" /><path
       d="m 168.04432,122.24197 -75,0 0,-11.4"
       style="fill:none;stroke:#000000;stroke-width:1;stroke-linecap:round;stroke-linejoin:round;stroke-miterlimit:10;stroke-opacity:1;stroke-dasharray:none"
       id="path3010"
       inkscape:connector-curvature="0" /><path
       d="m 167.77432,122.46197 c 0,1.76 1.42,3.18 3.18,3.18 1.75,0 3.18,-1.42 3.18,-3.18 0,0 0,0 0,0 0,-1.75 -1.43,-3.18 -3.18,-3.18 -1.76,0 -3.18,1.43 -3.18,3.18"
       style="fill:none;stroke:#000000;stroke-width:1;stroke-linecap:round;stroke-linejoin:round;stroke-miterlimit:10;stroke-opacity:1;stroke-dasharray:none"
       id="path3012"
       inkscape:connector-curvature="0" /><path
       d="m 94.41432,4.821975 c 0,0.79 -0.63,1.42 -1.42,1.42 -0.78,0 -1.41,-0.63 -1.41,-1.42 0,-0.78 0.63,-1.41 1.41,-1.41 0.79,0 1.42,0.63 1.42,1.41 z"
       style="fill:#000000;fill-opacity:1;fill-rule:evenodd;stroke:none"
       id="path3014"
       inkscape:connector-curvature="0" /><path
       d="m 94.41432,4.821975 c 0,0.79 -0.63,1.42 -1.42,1.42 -0.78,0 -1.41,-0.63 -1.41,-1.42 0,-0.78 0.63,-1.41 1.41,-1.41 0.79,0 1.42,0.63 1.42,1.41 z"
       style="fill:none;stroke:#000000;stroke-width:1;stroke-linecap:round;stroke-linejoin:round;stroke-miterlimit:10;stroke-opacity:1;stroke-dasharray:none"
       id="path3016"
       inkscape:connector-curvature="0" /><path
       d="m 93.04432,61.64197 -28.2,0"
       style="fill:none;stroke:#000000;stroke-width:1;stroke-linecap:round;stroke-linejoin:round;stroke-miterlimit:10;stroke-opacity:1;stroke-dasharray:none"
       id="path3018"
       inkscape:connector-curvature="0" /><path
       d="m 94.41432,61.52197 c 0,0.78 -0.63,1.41 -1.42,1.41 -0.78,0 -1.41,-0.63 -1.41,-1.41 0,-0.79 0.63,-1.42 1.41,-1.42 0.79,0 1.42,0.63 1.42,1.42 z"
       style="fill:#000000;fill-opacity:1;fill-rule:evenodd;stroke:none"
       id="path3020"
       inkscape:connector-curvature="0" /><path
       d="m 94.41432,61.52197 c 0,0.78 -0.63,1.41 -1.42,1.41 -0.78,0 -1.41,-0.63 -1.41,-1.41 0,-0.79 0.63,-1.42 1.41,-1.42 0.79,0 1.42,0.63 1.42,1.42 z"
       style="fill:none;stroke:#000000;stroke-width:1;stroke-linecap:round;stroke-linejoin:round;stroke-miterlimit:10;stroke-opacity:1;stroke-dasharray:none"
       id="path3022"
       inkscape:connector-curvature="0" /><path
       d="m 171.04432,116.84197 0,-97.799995"
       style="fill:none;stroke:#ea700d;stroke-width:0.75;stroke-linecap:round;stroke-linejoin:round;stroke-miterlimit:10;stroke-opacity:1;stroke-dasharray:none"
       id="path3024"
       inkscape:connector-curvature="0" /><path
       d="m 173.44432,19.641975 -2.4,-7.8 -2.4,7.8 4.8,0 z"
       style="fill:#ea700d;fill-opacity:1;fill-rule:evenodd;stroke:none"
       id="path3026"
       inkscape:connector-curvature="0" /><text
       transform="scale(1,-1)"
       id="text3028"
       x="173.70406"
       y="-59.172012"><tspan
         style="font-size:13.99967957px;font-variant:normal;font-weight:normal;writing-mode:lr-tb;fill:#ea700d;fill-opacity:1;fill-rule:nonzero;stroke:none;font-family:FREESTYLE SCRIPT;-inkscape-font-specification:FREESTYLE SCRIPT"
         x="173.70406"
         y="-59.172012"
         id="tspan3030">U</tspan></text>
<text
       transform="scale(1,-1)"
       id="text3032"
       x="180.98407"
       y="-59.172012"><tspan
         style="font-size:13.99967957px;font-variant:normal;font-weight:normal;writing-mode:lr-tb;fill:#ea700d;fill-opacity:1;fill-rule:nonzero;stroke:none;font-family:FREESTYLE SCRIPT;-inkscape-font-specification:FREESTYLE SCRIPT"
         x="180.98407"
         y="-59.172012"
         id="tspan3034">2</tspan></text>
<text
       transform="scale(1,-1)"
       id="text3036"
       x="49.394379"
       y="-68.442032"><tspan
         style="font-size:18px;font-variant:normal;font-weight:normal;writing-mode:lr-tb;fill:#000000;fill-opacity:1;fill-rule:nonzero;stroke:none;font-family:FREESTYLE SCRIPT;-inkscape-font-specification:FREESTYLE SCRIPT"
         x="49.394379"
         y="-68.442032"
         id="tspan3038">L</tspan></text>
<path
       d="m 107.44432,44.241975 0,-26.4"
       style="fill:none;stroke:#ea700d;stroke-width:0.75;stroke-linecap:round;stroke-linejoin:round;stroke-miterlimit:10;stroke-opacity:1;stroke-dasharray:none"
       id="path3040"
       inkscape:connector-curvature="0" /><path
       d="m 109.84432,18.441975 -2.4,-7.2 -3,7.2 5.4,0 z"
       style="fill:#ea700d;fill-opacity:1;fill-rule:evenodd;stroke:none"
       id="path3042"
       inkscape:connector-curvature="0" /><text
       transform="scale(1,-1)"
       id="text3044"
       x="110.08414"
       y="-26.572014"><tspan
         style="font-size:13.99967957px;font-variant:normal;font-weight:normal;writing-mode:lr-tb;fill:#ea700d;fill-opacity:1;fill-rule:nonzero;stroke:none;font-family:FREESTYLE SCRIPT;-inkscape-font-specification:FREESTYLE SCRIPT"
         x="110.08414"
         y="-26.572014"
         id="tspan3046">U</tspan></text>
<text
       transform="scale(1,-1)"
       id="text3048"
       x="117.36411"
       y="-24.572012"><tspan
         style="font-size:9.09864044px;font-variant:normal;font-weight:normal;writing-mode:lr-tb;fill:#ea700d;fill-opacity:1;fill-rule:nonzero;stroke:none;font-family:FREESTYLE SCRIPT;-inkscape-font-specification:FREESTYLE SCRIPT"
         x="117.36411"
         y="-24.572012"
         id="tspan3050">X</tspan></text>
<path
       d="m 100.24432,58.04197 0,-10.199995"
       style="fill:none;stroke:#7030a0;stroke-width:0.75;stroke-linecap:round;stroke-linejoin:round;stroke-miterlimit:10;stroke-opacity:1;stroke-dasharray:none"
       id="path3052"
       inkscape:connector-curvature="0" /><path
       d="m 102.64432,48.441975 -2.4,-7.8 -3,7.8 5.4,0 z"
       style="fill:#7030a0;fill-opacity:1;fill-rule:evenodd;stroke:none"
       id="path3054"
       inkscape:connector-curvature="0" /><text
       transform="scale(1,-1)"
       id="text3056"
       x="102.27417"
       y="-54.922012"><tspan
         style="font-size:13.99967957px;font-variant:normal;font-weight:normal;writing-mode:lr-tb;fill:#7030a0;fill-opacity:1;fill-rule:nonzero;stroke:none;font-family:FREESTYLE SCRIPT;-inkscape-font-specification:FREESTYLE SCRIPT"
         x="102.27417"
         y="-54.922012"
         id="tspan3058">i</tspan></text>
<text
       transform="scale(1,-1)"
       id="text3060"
       x="104.11415"
       y="-52.922012"><tspan
         style="font-size:9.09864044px;font-variant:normal;font-weight:normal;writing-mode:lr-tb;fill:#7030a0;fill-opacity:1;fill-rule:nonzero;stroke:none;font-family:FREESTYLE SCRIPT;-inkscape-font-specification:FREESTYLE SCRIPT"
         x="104.11415"
         y="-52.922012"
         id="tspan3062">x</tspan></text>
<path
       d="m 18.044319,69.44197 12,0"
       style="fill:none;stroke:#7030a0;stroke-width:0.75;stroke-linecap:round;stroke-linejoin:round;stroke-miterlimit:10;stroke-opacity:1;stroke-dasharray:none"
       id="path3064"
       inkscape:connector-curvature="0" /><path
       d="m 29.444319,71.24197 6.600001,-1.8 -6.600001,-2.4 0,4.2 z"
       style="fill:#7030a0;fill-opacity:1;fill-rule:evenodd;stroke:none"
       id="path3066"
       inkscape:connector-curvature="0" /><text
       transform="scale(1,-1)"
       id="text3068"
       x="21.924372"
       y="-73.341995"><tspan
         style="font-size:13.99967957px;font-variant:normal;font-weight:normal;writing-mode:lr-tb;fill:#7030a0;fill-opacity:1;fill-rule:nonzero;stroke:none;font-family:FREESTYLE SCRIPT;-inkscape-font-specification:FREESTYLE SCRIPT"
         x="21.924372"
         y="-73.341995"
         id="tspan3070">i</tspan></text>
<text
       transform="scale(1,-1)"
       id="text3072"
       x="23.76437"
       y="-71.341995"><tspan
         style="font-size:9.09864044px;font-variant:normal;font-weight:normal;writing-mode:lr-tb;fill:#7030a0;fill-opacity:1;fill-rule:nonzero;stroke:none;font-family:FREESTYLE SCRIPT;-inkscape-font-specification:FREESTYLE SCRIPT"
         x="23.76437"
         y="-71.341995"
         id="tspan3074">1</tspan></text>
<path
       d="m 100.24432,128.24197 12,0"
       style="fill:none;stroke:#7030a0;stroke-width:0.75;stroke-linecap:round;stroke-linejoin:round;stroke-miterlimit:10;stroke-opacity:1;stroke-dasharray:none"
       id="path3076"
       inkscape:connector-curvature="0" /><path
       d="m 111.64432,130.04197 6.6,-1.8 -6.6,-2.4 0,4.2 z"
       style="fill:#7030a0;fill-opacity:1;fill-rule:evenodd;stroke:none"
       id="path3078"
       inkscape:connector-curvature="0" /><text
       transform="scale(1,-1)"
       id="text3080"
       x="98.194183"
       y="-133.13181"><tspan
         style="font-size:13.99967957px;font-variant:normal;font-weight:normal;writing-mode:lr-tb;fill:#7030a0;fill-opacity:1;fill-rule:nonzero;stroke:none;font-family:FREESTYLE SCRIPT;-inkscape-font-specification:FREESTYLE SCRIPT"
         x="98.194183"
         y="-133.13181"
         id="tspan3082">i</tspan></text>
<text
       transform="scale(1,-1)"
       id="text3084"
       x="100.04418"
       y="-131.13181"><tspan
         style="font-size:9.09864044px;font-variant:normal;font-weight:normal;writing-mode:lr-tb;fill:#7030a0;fill-opacity:1;fill-rule:nonzero;stroke:none;font-family:FREESTYLE SCRIPT;-inkscape-font-specification:FREESTYLE SCRIPT"
         x="100.04418"
         y="-131.13181"
         id="tspan3086">2</tspan></text>
<text
       transform="scale(1,-1)"
       id="text3088"
       x="103.15417"
       y="-133.13181"><tspan
         style="font-size:13.99967957px;font-variant:normal;font-weight:normal;writing-mode:lr-tb;fill:#7030a0;fill-opacity:1;fill-rule:nonzero;stroke:none;font-family:FREESTYLE SCRIPT;-inkscape-font-specification:FREESTYLE SCRIPT"
         x="103.15417"
         y="-133.13181"
         id="tspan3090">=</tspan></text>
<text
       transform="scale(1,-1)"
       id="text3092"
       x="107.93416"
       y="-133.13181"><tspan
         style="font-size:13.99967957px;font-variant:normal;font-weight:normal;writing-mode:lr-tb;fill:#7030a0;fill-opacity:1;fill-rule:nonzero;stroke:none;font-family:FREESTYLE SCRIPT;-inkscape-font-specification:FREESTYLE SCRIPT"
         x="107.93416"
         y="-133.13181"
         id="tspan3094">i</tspan></text>
<text
       transform="scale(1,-1)"
       id="text3096"
       x="109.78413"
       y="-131.13181"><tspan
         style="font-size:9.09864044px;font-variant:normal;font-weight:normal;writing-mode:lr-tb;fill:#7030a0;fill-opacity:1;fill-rule:nonzero;stroke:none;font-family:FREESTYLE SCRIPT;-inkscape-font-specification:FREESTYLE SCRIPT"
         x="109.78413"
         y="-131.13181"
         id="tspan3098">D</tspan></text>
<path
       d="m 143.44432,59.84197 -15.6,0 m 15.6,4.2 -15.6,0"
       style="fill:none;stroke:#000000;stroke-width:1;stroke-linecap:round;stroke-linejoin:round;stroke-miterlimit:10;stroke-opacity:1;stroke-dasharray:none"
       id="path3100"
       inkscape:connector-curvature="0" /><path
       d="m 135.64432,42.441975 0,17.399995 m 0,4.2 0,17.4"
       style="fill:none;stroke:#000000;stroke-width:1;stroke-linecap:round;stroke-linejoin:round;stroke-miterlimit:10;stroke-opacity:1;stroke-dasharray:none"
       id="path3102"
       inkscape:connector-curvature="0" /><path
       d="m 136.82432,122.46197 c 0,0.78 -0.64,1.42 -1.42,1.42 -0.78,0 -1.42,-0.64 -1.42,-1.42 0,-0.78 0.64,-1.42 1.42,-1.42 0.78,0 1.42,0.64 1.42,1.42 z"
       style="fill:#000000;fill-opacity:1;fill-rule:evenodd;stroke:none"
       id="path3104"
       inkscape:connector-curvature="0" /><path
       d="m 136.82432,122.46197 c 0,0.78 -0.64,1.42 -1.42,1.42 -0.78,0 -1.42,-0.64 -1.42,-1.42 0,-0.78 0.64,-1.42 1.42,-1.42 0.78,0 1.42,0.64 1.42,1.42 z"
       style="fill:none;stroke:#000000;stroke-width:1;stroke-linecap:round;stroke-linejoin:round;stroke-miterlimit:10;stroke-opacity:1;stroke-dasharray:none"
       id="path3106"
       inkscape:connector-curvature="0" /><path
       d="m 136.82432,5.531975 c 0,0.79 -0.64,1.42 -1.42,1.42 -0.78,0 -1.42,-0.63 -1.42,-1.42 0,-0.78 0.64,-1.41 1.42,-1.41 0.78,0 1.42,0.63 1.42,1.41 z"
       style="fill:#000000;fill-opacity:1;fill-rule:evenodd;stroke:none"
       id="path3108"
       inkscape:connector-curvature="0" /><path
       d="m 136.82432,5.531975 c 0,0.79 -0.64,1.42 -1.42,1.42 -0.78,0 -1.42,-0.63 -1.42,-1.42 0,-0.78 0.64,-1.41 1.42,-1.41 0.78,0 1.42,0.63 1.42,1.41 z"
       style="fill:none;stroke:#000000;stroke-width:1;stroke-linecap:round;stroke-linejoin:round;stroke-miterlimit:10;stroke-opacity:1;stroke-dasharray:none"
       id="path3110"
       inkscape:connector-curvature="0" /><text
       transform="scale(1,-1)"
       id="text3112"
       x="197.18405"
       y="-57.102013"><tspan
         style="font-size:18px;font-variant:normal;font-weight:normal;writing-mode:lr-tb;fill:#000000;fill-opacity:1;fill-rule:nonzero;stroke:none;font-family:FREESTYLE SCRIPT;-inkscape-font-specification:FREESTYLE SCRIPT"
         x="197.18405 205.11197"
         y="-57.102013"
         sodipodi:role="line"
         id="tspan3114">Rz</tspan></text>
<path
       d="m 192.04432,41.841975 0,39.599995"
       style="fill:none;stroke:#000000;stroke-width:1;stroke-linecap:round;stroke-linejoin:round;stroke-miterlimit:10;stroke-opacity:1;stroke-dasharray:none"
       id="path3116"
       inkscape:connector-curvature="0" /><path
       d="m 189.04432,55.04197 6,0 0,15.6 -6,0 0,-15.6 z"
       style="fill:#ffffff;fill-opacity:1;fill-rule:evenodd;stroke:none"
       id="path3118"
       inkscape:connector-curvature="0" /><path
       d="m 189.04432,55.04197 6,0 0,15.6 -6,0 0,-15.6 z"
       style="fill:none;stroke:#000000;stroke-width:1;stroke-linecap:round;stroke-linejoin:round;stroke-miterlimit:10;stroke-opacity:1;stroke-dasharray:none"
       id="path3120"
       inkscape:connector-curvature="0" /><path
       d="m 192.04432,78.44197 0,-7.8"
       style="fill:none;stroke:#000000;stroke-width:1;stroke-linecap:round;stroke-linejoin:round;stroke-miterlimit:10;stroke-opacity:1;stroke-dasharray:none"
       id="path3122"
       inkscape:connector-curvature="0" /><path
       d="m 192.04432,47.241975 0,7.799995"
       style="fill:none;stroke:#000000;stroke-width:1;stroke-linecap:round;stroke-linejoin:round;stroke-miterlimit:10;stroke-opacity:1;stroke-dasharray:none"
       id="path3124"
       inkscape:connector-curvature="0" /><text
       transform="scale(1,-1)"
       id="text3126"
       x="148.47406"
       y="-56.122025"><tspan
         style="font-size:18px;font-variant:normal;font-weight:normal;writing-mode:lr-tb;fill:#000000;fill-opacity:1;fill-rule:nonzero;stroke:none;font-family:FREESTYLE SCRIPT;-inkscape-font-specification:FREESTYLE SCRIPT"
         x="148.47406"
         y="-56.122025"
         id="tspan3128">C</tspan></text>
<path
       d="m 36.30432,61.52197 c -0.08,2.25 1.44,4.16 3.4,4.25 1.96,0.09 3.61,-1.67 3.69,-3.93 0,-0.11 0,-0.21 0,-0.32 -0.08,2.25 1.44,4.16 3.4,4.25 1.95,0.09 3.6,-1.67 3.68,-3.93 0.01,-0.11 0.01,-0.21 0,-0.32 -0.08,2.25 1.45,4.16 3.4,4.25 1.96,0.09 3.61,-1.67 3.69,-3.93 0,-0.11 0,-0.21 0,-0.32 -0.08,2.25 1.44,4.16 3.4,4.25 1.96,0.09 3.61,-1.67 3.69,-3.93 0,-0.11 0,-0.21 0,-0.32"
       style="fill:none;stroke:#000000;stroke-width:1;stroke-linecap:round;stroke-linejoin:round;stroke-miterlimit:10;stroke-opacity:1;stroke-dasharray:none"
       id="path3130"
       inkscape:connector-curvature="0" /><path
       d="m 97.84432,88.04197 -4.8,9 -4.8,-9 9.6,0 z"
       style="fill:#ffffff;fill-opacity:1;fill-rule:evenodd;stroke:none"
       id="path3132"
       inkscape:connector-curvature="0" /><path
       d="m 97.84432,88.04197 -4.8,9 -4.8,-9 9.6,0"
       style="fill:none;stroke:#000000;stroke-width:1;stroke-linecap:round;stroke-linejoin:round;stroke-miterlimit:10;stroke-opacity:1;stroke-dasharray:none"
       id="path3134"
       inkscape:connector-curvature="0" /><path
       d="m 88.24432,97.04197 9.6,0"
       style="fill:none;stroke:#000000;stroke-width:1;stroke-linecap:round;stroke-linejoin:round;stroke-miterlimit:10;stroke-opacity:1;stroke-dasharray:none"
       id="path3136"
       inkscape:connector-curvature="0" /><path
       d="m 93.04432,74.24197 0,36.6"
       style="fill:none;stroke:#000000;stroke-width:1;stroke-linecap:round;stroke-linejoin:round;stroke-miterlimit:10;stroke-opacity:1;stroke-dasharray:none"
       id="path3138"
       inkscape:connector-curvature="0" /><path
       d="m 93.04432,49.041975 0,25.199995"
       style="fill:none;stroke:#000000;stroke-width:1;stroke-linecap:round;stroke-linejoin:round;stroke-miterlimit:10;stroke-opacity:1;stroke-dasharray:none"
       id="path3140"
       inkscape:connector-curvature="0" /><path
       d="m 93.04432,14.841975 0,-10.2"
       style="fill:none;stroke:#000000;stroke-width:1;stroke-linecap:round;stroke-linejoin:round;stroke-miterlimit:10;stroke-opacity:1;stroke-dasharray:none"
       id="path3142"
       inkscape:connector-curvature="0" /><path
       d="m 135.64432,81.44197 0,39.6"
       style="fill:none;stroke:#000000;stroke-width:1;stroke-linecap:round;stroke-linejoin:round;stroke-miterlimit:10;stroke-opacity:1;stroke-dasharray:none"
       id="path3144"
       inkscape:connector-curvature="0" /><path
       d="m 135.64432,42.441975 0,-38.4"
       style="fill:none;stroke:#000000;stroke-width:1;stroke-linecap:round;stroke-linejoin:round;stroke-miterlimit:10;stroke-opacity:1;stroke-dasharray:none"
       id="path3146"
       inkscape:connector-curvature="0" /><path
       d="m 192.04432,81.44197 0,40.8"
       style="fill:none;stroke:#000000;stroke-width:1;stroke-linecap:round;stroke-linejoin:round;stroke-miterlimit:10;stroke-opacity:1;stroke-dasharray:none"
       id="path3148"
       inkscape:connector-curvature="0" /><path
       d="m 174.04432,122.24197 18,0"
       style="fill:none;stroke:#000000;stroke-width:1;stroke-linecap:round;stroke-linejoin:round;stroke-miterlimit:10;stroke-opacity:1;stroke-dasharray:none"
       id="path3150"
       inkscape:connector-curvature="0" /><path
       d="m 174.04432,4.641975 18,0 0,37.2"
       style="fill:none;stroke:#000000;stroke-width:1;stroke-linecap:round;stroke-linejoin:round;stroke-miterlimit:10;stroke-opacity:1;stroke-dasharray:none"
       id="path3152"
       inkscape:connector-curvature="0" /><path
       d="m 18.044319,61.64197 18.000001,0"
       style="fill:none;stroke:#000000;stroke-width:1;stroke-linecap:round;stroke-linejoin:round;stroke-miterlimit:10;stroke-opacity:1;stroke-dasharray:none"
       id="path3154"
       inkscape:connector-curvature="0" /><path
       d="m 18.224319,61.52197 c 0,1.75 -1.42,3.18 -3.18,3.18 -1.76,0 -3.18,-1.43 -3.18,-3.18 0,0 0,0 0,0 0,-1.76 1.42,-3.18 3.18,-3.18 1.76,0 3.18,1.42 3.18,3.18"
       style="fill:none;stroke:#000000;stroke-width:1;stroke-linecap:round;stroke-linejoin:round;stroke-miterlimit:10;stroke-opacity:1;stroke-dasharray:none"
       id="path3156"
       inkscape:connector-curvature="0" /><path
       d="m 15.044319,55.04197 0,-38.999995"
       style="fill:none;stroke:#ea700d;stroke-width:0.75;stroke-linecap:round;stroke-linejoin:round;stroke-miterlimit:10;stroke-opacity:1;stroke-dasharray:none"
       id="path3158"
       inkscape:connector-curvature="0" /><path
       d="m 17.444319,16.641975 -2.4,-7.8 -2.4,7.8 4.8,0 z"
       style="fill:#ea700d;fill-opacity:1;fill-rule:evenodd;stroke:none"
       id="path3160"
       inkscape:connector-curvature="0" /><text
       transform="scale(1,-1)"
       id="text3162"
       x="1.9243516"
       y="-28.972019"><tspan
         style="font-size:13.99967957px;font-variant:normal;font-weight:normal;writing-mode:lr-tb;fill:#ea700d;fill-opacity:1;fill-rule:nonzero;stroke:none;font-family:FREESTYLE SCRIPT;-inkscape-font-specification:FREESTYLE SCRIPT"
         x="1.9243516"
         y="-28.972019"
         id="tspan3164">U</tspan></text>
<text
       transform="scale(1,-1)"
       id="text3166"
       x="9.2043552"
       y="-28.972019"><tspan
         style="font-size:13.99967957px;font-variant:normal;font-weight:normal;writing-mode:lr-tb;fill:#ea700d;fill-opacity:1;fill-rule:nonzero;stroke:none;font-family:FREESTYLE SCRIPT;-inkscape-font-specification:FREESTYLE SCRIPT"
         x="9.2043552"
         y="-28.972019"
         id="tspan3168">1</tspan></text>
<text
       transform="scale(1,-1)"
       id="text3170"
       x="101.64417"
       y="-86.321983"><tspan
         style="font-size:18px;font-variant:normal;font-weight:normal;writing-mode:lr-tb;fill:#000000;fill-opacity:1;fill-rule:nonzero;stroke:none;font-family:FREESTYLE SCRIPT;-inkscape-font-specification:FREESTYLE SCRIPT"
         x="101.64417"
         y="-86.321983"
         id="tspan3172">D</tspan></text>
<text
       transform="scale(1,-1)"
       id="text3174"
       x="109.94415"
       y="-86.321983"><tspan
         style="font-size:18px;font-variant:normal;font-weight:normal;writing-mode:lr-tb;fill:#000000;fill-opacity:1;fill-rule:nonzero;stroke:none;font-family:FREESTYLE SCRIPT;-inkscape-font-specification:FREESTYLE SCRIPT"
         x="109.94415"
         y="-86.321983"
         id="tspan3176">1</tspan></text>
<text
       transform="scale(1,-1)"
       id="text3178"
       x="59.214363"
       y="-40.092018"><tspan
         style="font-size:18px;font-variant:normal;font-weight:normal;writing-mode:lr-tb;fill:#000000;fill-opacity:1;fill-rule:nonzero;stroke:none;font-family:FREESTYLE SCRIPT;-inkscape-font-specification:FREESTYLE SCRIPT"
         x="59.214363"
         y="-40.092018"
         id="tspan3180">T</tspan></text>
<text
       transform="scale(1,-1)"
       id="text3182"
       x="67.33432"
       y="-40.092018"><tspan
         style="font-size:18px;font-variant:normal;font-weight:normal;writing-mode:lr-tb;fill:#000000;fill-opacity:1;fill-rule:nonzero;stroke:none;font-family:FREESTYLE SCRIPT;-inkscape-font-specification:FREESTYLE SCRIPT"
         x="67.33432"
         y="-40.092018"
         id="tspan3184">1</tspan></text>
</g></svg>