<?xml version="1.0" encoding="UTF-8" standalone="no"?>
<!-- Created with Inkscape (http://www.inkscape.org/) -->

<svg
   xmlns:dc="http://purl.org/dc/elements/1.1/"
   xmlns:cc="http://creativecommons.org/ns#"
   xmlns:rdf="http://www.w3.org/1999/02/22-rdf-syntax-ns#"
   xmlns:svg="http://www.w3.org/2000/svg"
   xmlns="http://www.w3.org/2000/svg"
   xmlns:sodipodi="http://sodipodi.sourceforge.net/DTD/sodipodi-0.dtd"
   xmlns:inkscape="http://www.inkscape.org/namespaces/inkscape"
   width="43mm"
   height="32mm"
   viewBox="0 0 43 32"
   version="1.1"
   id="svg6218"
   inkscape:version="0.92.3 (2405546, 2018-03-11)"
   sodipodi:docname="aes_fig069c.svg">
  <defs
     id="defs6212">
    <clipPath
       clipPathUnits="userSpaceOnUse"
       id="clipPath3797">
      <path
         d="m 370.53,198.821 h 131.999 v 90 H 370.53 Z"
         id="path3795"
         inkscape:connector-curvature="0" />
    </clipPath>
  </defs>
  <sodipodi:namedview
     id="base"
     pagecolor="#ffffff"
     bordercolor="#666666"
     borderopacity="1.0"
     inkscape:pageopacity="0.0"
     inkscape:pageshadow="2"
     inkscape:zoom="3.959798"
     inkscape:cx="29.591328"
     inkscape:cy="56.716284"
     inkscape:document-units="mm"
     inkscape:current-layer="g3791"
     showgrid="false"
     inkscape:window-width="1842"
     inkscape:window-height="1177"
     inkscape:window-x="70"
     inkscape:window-y="-8"
     inkscape:window-maximized="1" />
  <metadata
     id="metadata6215">
    <rdf:RDF>
      <cc:Work
         rdf:about="">
        <dc:format>image/svg+xml</dc:format>
        <dc:type
           rdf:resource="http://purl.org/dc/dcmitype/StillImage" />
        <dc:title></dc:title>
      </cc:Work>
    </rdf:RDF>
  </metadata>
  <g
     inkscape:label="Vrstva 1"
     inkscape:groupmode="layer"
     id="layer1"
     transform="translate(0,-265)">
    <g
       transform="matrix(0.35277777,0,0,-0.35277777,-130.74523,367.6056)"
       id="g3791">
      <g
         id="g3793"
         clip-path="url(#clipPath3797)">
        <g
           id="g3799"
           transform="matrix(0.2485809,0,0,-0.2479401,469.44856,251.39466)">
          <path
             d="M 0,0 C 25,0 45,19 45,43 45,66 25,86 0,86 H -60 V 0 H 1"
             style="fill:#ffffff;fill-opacity:1;fill-rule:evenodd;stroke:none"
             id="path3801"
             inkscape:connector-curvature="0" />
        </g>
        <g
           id="g3803"
           transform="matrix(0.2485809,0,0,-0.2479401,469.44854,251.39468)">
          <path
             d="M 0,0 C 25,0 45,19 45,43 45,66 25,86 0,86 H -60 V 0 H 1"
             style="fill:none;stroke:#000000;stroke-width:3;stroke-linecap:butt;stroke-linejoin:miter;stroke-miterlimit:4;stroke-dasharray:none;stroke-opacity:1"
             id="path3805"
             inkscape:connector-curvature="0" />
        </g>
        <text
           transform="matrix(1,0,0,-0.99736847,457.9426,238.5007)"
           style="font-variant:normal;font-weight:bold;font-stretch:normal;font-size:5.96610022px;font-family:Arial;-inkscape-font-specification:Arial-BoldMT;writing-mode:lr-tb;fill:#000000;fill-opacity:1;fill-rule:nonzero;stroke:none"
           id="text3809">
          <tspan
             x="0 3.7288125 8.4539633 13.179115 14.921216"
             y="0"
             sodipodi:role="line"
             id="tspan3807">LOGIC</tspan>
        </text>
        <g
           id="g3811"
           transform="matrix(0.2485809,0,0,-0.2479401,431.41562,221.14599)">
          <path
             d="M 0,0 H -32 V -79 H -76"
             style="fill:none;stroke:#000000;stroke-width:3;stroke-linecap:butt;stroke-linejoin:miter;stroke-miterlimit:14;stroke-dasharray:none;stroke-opacity:1"
             id="path3813"
             inkscape:connector-curvature="0" />
        </g>
        <g
           id="g3815"
           transform="matrix(0.2485809,0,0,-0.2479401,431.41561,228.08831)">
          <path
             d="M 0,0 V 56"
             style="fill:none;stroke:#000000;stroke-width:3;stroke-linecap:butt;stroke-linejoin:miter;stroke-miterlimit:14;stroke-dasharray:none;stroke-opacity:1"
             id="path3817"
             inkscape:connector-curvature="0" />
        </g>
        <g
           id="g3819"
           transform="matrix(0.2485809,0,0,-0.2479401,434.64714,228.08831)">
          <path
             d="M 0,0 V 57"
             style="fill:none;stroke:#000000;stroke-width:3;stroke-linecap:butt;stroke-linejoin:miter;stroke-miterlimit:14;stroke-dasharray:none;stroke-opacity:1"
             id="path3821"
             inkscape:connector-curvature="0" />
        </g>
        <g
           id="g3823"
           transform="matrix(0.2485809,0,0,-0.2479401,441.11023,216.18719)">
          <path
             d="M 0,0 V 60 H 203"
             style="fill:none;stroke:#000000;stroke-width:3;stroke-linecap:square;stroke-linejoin:miter;stroke-miterlimit:14;stroke-dasharray:none;stroke-opacity:1"
             id="path3825"
             inkscape:connector-curvature="0" />
        </g>
        <g
           id="g3827"
           transform="matrix(0.2485809,0,0,-0.2479401,441.11021,239.24561)">
          <path
             d="M 0,0 V 53"
             style="fill:none;stroke:#000000;stroke-width:3;stroke-linecap:square;stroke-linejoin:miter;stroke-miterlimit:14;stroke-dasharray:none;stroke-opacity:1"
             id="path3829"
             inkscape:connector-curvature="0" />
        </g>
        <g
           id="g3831"
           transform="matrix(0.2485809,0,0,-0.2479401,441.1102,226.10479)">
          <path
             d="M 0,0 H -26"
             style="fill:none;stroke:#000000;stroke-width:3;stroke-linecap:butt;stroke-linejoin:miter;stroke-miterlimit:14;stroke-dasharray:none;stroke-opacity:1"
             id="path3833"
             inkscape:connector-curvature="0" />
        </g>
        <g
           id="g3835"
           transform="matrix(0.2485809,0,0,-0.2479401,441.11018,216.18719)">
          <path
             d="M 0,0 H -26"
             style="fill:none;stroke:#000000;stroke-width:3;stroke-linecap:butt;stroke-linejoin:miter;stroke-miterlimit:14;stroke-dasharray:none;stroke-opacity:1"
             id="path3837"
             inkscape:connector-curvature="0" />
        </g>
        <g
           id="g3839"
           transform="matrix(0.2485809,0,0,-0.2479401,441.11017,216.18719)">
          <path
             d="M 0,0 H -24"
             style="fill:none;stroke:#000000;stroke-width:3;stroke-linecap:butt;stroke-linejoin:miter;stroke-miterlimit:14;stroke-dasharray:none;stroke-opacity:1"
             id="path3841"
             inkscape:connector-curvature="0" />
        </g>
        <g
           id="g3843"
           transform="matrix(0.2485809,0,0,-0.2479401,454.7821,240.48532)">
          <path
             d="M 0,0 H -55"
             style="fill:none;stroke:#000000;stroke-width:3;stroke-linecap:butt;stroke-linejoin:miter;stroke-miterlimit:14;stroke-dasharray:none;stroke-opacity:1"
             id="path3845"
             inkscape:connector-curvature="0" />
        </g>
        <g
           id="g3847"
           transform="matrix(0.2485809,0,0,-0.2479401,394.87409,263.54374)">
          <path
             d="M 0,0 V 182"
             style="fill:none;stroke:#000000;stroke-width:3;stroke-linecap:butt;stroke-linejoin:miter;stroke-miterlimit:14;stroke-dasharray:none;stroke-opacity:1"
             id="path3849"
             inkscape:connector-curvature="0" />
        </g>
        <g
           id="g3851"
           transform="matrix(0.2485809,0,0,-0.2479401,442.35323,240.48532)">
          <path
             d="m 0,0 v 0 c 0,-3 -2,-6 -5,-6 -4,0 -6,3 -6,6 0,3 2,5 6,5 3,0 5,-2 5,-5"
             style="fill:#000000;fill-opacity:1;fill-rule:nonzero;stroke:none"
             id="path3853"
             inkscape:connector-curvature="0" />
        </g>
        <g
           id="g3855"
           transform="matrix(0.2485809,0,0,-0.2479401,442.35303,240.48532)">
          <path
             d="m 0,0 v 0 c 0,-3 -2,-6 -5,-6 -4,0 -6,3 -6,6 0,3 2,5 6,5 3,0 5,-2 5,-5 z"
             style="fill:none;stroke:#000000;stroke-width:2;stroke-linecap:butt;stroke-linejoin:miter;stroke-miterlimit:14;stroke-dasharray:none;stroke-opacity:1"
             id="path3857"
             inkscape:connector-curvature="0" />
        </g>
        <g
           id="g3859"
           transform="matrix(0.2485809,0,0,-0.2479401,380.95353,258.337)">
          <path
             d="M 0,0 V 143 L 127,71 Z"
             style="fill:#ffffff;fill-opacity:1;fill-rule:nonzero;stroke:none"
             id="path3861"
             inkscape:connector-curvature="0" />
        </g>
        <g
           id="g3863"
           transform="matrix(0.2485809,0,0,-0.2479401,380.95353,258.337)">
          <path
             d="M 0,0 V 143 L 127,71 Z"
             style="fill:none;stroke:#000000;stroke-width:3;stroke-linecap:butt;stroke-linejoin:miter;stroke-miterlimit:14;stroke-dasharray:none;stroke-opacity:1"
             id="path3865"
             inkscape:connector-curvature="0" />
        </g>
        <g
           id="g3867"
           transform="matrix(0.2485809,0,0,-0.2479401,370.7617,250.40292)">
          <path
             d="M 0,0 H 40"
             style="fill:none;stroke:#000000;stroke-width:3;stroke-linecap:butt;stroke-linejoin:miter;stroke-miterlimit:14;stroke-dasharray:none;stroke-opacity:1"
             id="path3869"
             inkscape:connector-curvature="0" />
        </g>
        <g
           id="g3871"
           transform="matrix(0.2485809,0,0,-0.2479401,370.76168,230.81565)">
          <path
             d="M 0,0 H 40"
             style="fill:none;stroke:#000000;stroke-width:3;stroke-linecap:butt;stroke-linejoin:miter;stroke-miterlimit:14;stroke-dasharray:none;stroke-opacity:1"
             id="path3873"
             inkscape:connector-curvature="0" />
        </g>
        <text
           transform="matrix(1,0,0,-0.99736847,382.8834,238.1691)"
           style="font-variant:normal;font-weight:bold;font-stretch:normal;font-size:5.96610022px;font-family:Arial;-inkscape-font-specification:Arial-BoldMT;writing-mode:lr-tb;fill:#000000;fill-opacity:1;fill-rule:nonzero;stroke:none"
           id="text3877">
          <tspan
             x="0 4.6416259 9.9454889 14.169488 19.222775"
             y="0"
             sodipodi:role="line"
             id="tspan3875">OPAMP</tspan>
        </text>
        <g
           id="g3879"
           transform="matrix(0.2485809,0,0,-0.2479401,382.94201,250.40287)">
          <path
             d="M 0,0 H 12 Z"
             style="fill:#ffffff;fill-opacity:1;fill-rule:nonzero;stroke:none"
             id="path3881"
             inkscape:connector-curvature="0" />
        </g>
        <g
           id="g3883"
           transform="matrix(0.2485809,0,0,-0.2479401,382.94199,250.40289)">
          <path
             d="M 0,0 H 12"
             style="fill:none;stroke:#000000;stroke-width:3;stroke-linecap:butt;stroke-linejoin:miter;stroke-miterlimit:14;stroke-dasharray:none;stroke-opacity:1"
             id="path3885"
             inkscape:connector-curvature="0" />
        </g>
        <g
           id="g3887"
           transform="matrix(0.2485809,0,0,-0.2479401,384.43346,251.89053)">
          <path
             d="M 0,0 V 13 Z"
             style="fill:#ffffff;fill-opacity:1;fill-rule:nonzero;stroke:none"
             id="path3889"
             inkscape:connector-curvature="0" />
        </g>
        <g
           id="g3891"
           transform="matrix(0.2485809,0,0,-0.2479401,384.43345,251.89053)">
          <path
             d="M 0,0 V 13"
             style="fill:none;stroke:#000000;stroke-width:3;stroke-linecap:butt;stroke-linejoin:miter;stroke-miterlimit:14;stroke-dasharray:none;stroke-opacity:1"
             id="path3893"
             inkscape:connector-curvature="0" />
        </g>
        <g
           id="g3895"
           transform="matrix(0.2485809,0,0,-0.2479401,385.92492,230.56768)">
          <path
             d="M 0,0 H -12 Z"
             style="fill:#ffffff;fill-opacity:1;fill-rule:nonzero;stroke:none"
             id="path3897"
             inkscape:connector-curvature="0" />
        </g>
        <g
           id="g3899"
           transform="matrix(0.2485809,0,0,-0.2479401,385.9249,230.56768)">
          <path
             d="M 0,0 H -12"
             style="fill:none;stroke:#000000;stroke-width:3;stroke-linecap:butt;stroke-linejoin:miter;stroke-miterlimit:14;stroke-dasharray:none;stroke-opacity:1"
             id="path3901"
             inkscape:connector-curvature="0" />
        </g>
        <g
           id="g3903"
           transform="matrix(0.2485809,0,0,-0.2479401,466.96228,201.31075)">
          <path
             d="m 0,0 v 0 c 0,-3 -3,-5 -6,-5 -3,0 -6,2 -6,5 0,3 3,6 6,6 3,0 6,-3 6,-6"
             style="fill:#000000;fill-opacity:1;fill-rule:nonzero;stroke:none"
             id="path3905"
             inkscape:connector-curvature="0" />
        </g>
        <g
           id="g3907"
           transform="matrix(0.2485809,0,0,-0.2479401,466.96226,201.31075)">
          <path
             d="m 0,0 v 0 c 0,-3 -3,-5 -6,-5 -3,0 -6,2 -6,5 0,3 3,6 6,6 3,0 6,-3 6,-6 z"
             style="fill:none;stroke:#000000;stroke-width:2;stroke-linecap:butt;stroke-linejoin:miter;stroke-miterlimit:14;stroke-dasharray:none;stroke-opacity:1"
             id="path3909"
             inkscape:connector-curvature="0" />
        </g>
        <g
           id="g3911"
           transform="matrix(0.2485809,0,0,-0.2479401,466.71368,280.1557)">
          <path
             d="m 0,0 v 0 c 0,-3 -2,-5 -6,-5 -3,0 -5,2 -5,5 0,3 2,6 5,6 4,0 6,-3 6,-6"
             style="fill:#000000;fill-opacity:1;fill-rule:nonzero;stroke:none"
             id="path3913"
             inkscape:connector-curvature="0" />
        </g>
        <g
           id="g3915"
           transform="matrix(0.2485809,0,0,-0.2479401,466.71367,280.1557)">
          <path
             d="m 0,0 v 0 c 0,-3 -2,-5 -6,-5 -3,0 -5,2 -5,5 0,3 2,6 5,6 4,0 6,-3 6,-6 z"
             style="fill:none;stroke:#000000;stroke-width:2;stroke-linecap:butt;stroke-linejoin:miter;stroke-miterlimit:14;stroke-dasharray:none;stroke-opacity:1"
             id="path3917"
             inkscape:connector-curvature="0" />
        </g>
        <text
           transform="matrix(1,0,0,-0.99736847,389.1143,266.9294)"
           style="font-variant:normal;font-weight:bold;font-stretch:normal;font-size:5.96610022px;font-family:Arial;-inkscape-font-specification:Arial-BoldMT;writing-mode:lr-tb;fill:#000000;fill-opacity:1;fill-rule:nonzero;stroke:none"
           id="text3921">
          <tspan
             x="0 3.4782362"
             y="0"
             sodipodi:role="line"
             id="tspan3919">+V</tspan>
        </text>
        <text
           transform="matrix(1,0,0,-0.99736514,396.5778,265.4417)"
           style="font-variant:normal;font-weight:bold;font-stretch:normal;font-size:4.97179985px;font-family:Arial;-inkscape-font-specification:Arial-BoldMT;writing-mode:lr-tb;fill:#000000;fill-opacity:1;fill-rule:nonzero;stroke:none"
           id="text3925">
          <tspan
             x="0"
             y="0"
             id="tspan3923">A</tspan>
        </text>
        <text
           transform="matrix(1,0,0,-0.99736847,389.1978,211.0628)"
           style="font-variant:normal;font-weight:bold;font-stretch:normal;font-size:5.96610022px;font-family:Arial;-inkscape-font-specification:Arial-BoldMT;writing-mode:lr-tb;fill:#000000;fill-opacity:1;fill-rule:nonzero;stroke:none"
           id="text3929">
          <tspan
             x="0 3.2336261"
             y="0"
             sodipodi:role="line"
             id="tspan3927">–V</tspan>
        </text>
        <text
           transform="matrix(1,0,0,-0.99736514,396.4951,209.5752)"
           style="font-variant:normal;font-weight:bold;font-stretch:normal;font-size:4.97179985px;font-family:Arial;-inkscape-font-specification:Arial-BoldMT;writing-mode:lr-tb;fill:#000000;fill-opacity:1;fill-rule:nonzero;stroke:none"
           id="text3933">
          <tspan
             x="0"
             y="0"
             id="tspan3931">A</tspan>
        </text>
        <text
           transform="matrix(1,0,0,-0.99736847,478.7558,283.8547)"
           style="font-variant:normal;font-weight:bold;font-stretch:normal;font-size:5.96610022px;font-family:Arial;-inkscape-font-specification:Arial-BoldMT;writing-mode:lr-tb;fill:#000000;fill-opacity:1;fill-rule:nonzero;stroke:none"
           id="text3937">
          <tspan
             x="0 3.4782362"
             y="0"
             sodipodi:role="line"
             id="tspan3935">+V</tspan>
        </text>
        <text
           transform="matrix(1,0,0,-0.99736514,486.2192,282.3671)"
           style="font-variant:normal;font-weight:bold;font-stretch:normal;font-size:4.97179985px;font-family:Arial;-inkscape-font-specification:Arial-BoldMT;writing-mode:lr-tb;fill:#000000;fill-opacity:1;fill-rule:nonzero;stroke:none"
           id="text3941">
          <tspan
             x="0"
             y="0"
             id="tspan3939">L</tspan>
        </text>
        <text
           transform="matrix(1,0,0,-0.99736847,478.8392,205.3758)"
           style="font-variant:normal;font-weight:bold;font-stretch:normal;font-size:5.96610022px;font-family:Arial;-inkscape-font-specification:Arial-BoldMT;writing-mode:lr-tb;fill:#000000;fill-opacity:1;fill-rule:nonzero;stroke:none"
           id="text3945">
          <tspan
             x="0 3.2336261"
             y="0"
             sodipodi:role="line"
             id="tspan3943">–V</tspan>
        </text>
        <text
           transform="matrix(1,0,0,-0.99736514,486.1366,203.8882)"
           style="font-variant:normal;font-weight:bold;font-stretch:normal;font-size:4.97179985px;font-family:Arial;-inkscape-font-specification:Arial-BoldMT;writing-mode:lr-tb;fill:#000000;fill-opacity:1;fill-rule:nonzero;stroke:none"
           id="text3949">
          <tspan
             x="0"
             y="0"
             id="tspan3947">L</tspan>
        </text>
        <g
           id="g3951"
           transform="matrix(0.2485809,0,0,-0.2479401,465.47044,279.65971)">
          <path
             d="M 0,0 V 113"
             style="fill:none;stroke:#000000;stroke-width:3;stroke-linecap:butt;stroke-linejoin:miter;stroke-miterlimit:14;stroke-dasharray:none;stroke-opacity:1"
             id="path3953"
             inkscape:connector-curvature="0" />
        </g>
        <g
           id="g3955"
           transform="matrix(0.2485809,0,0,-0.2479401,465.47043,230.07171)">
          <path
             d="M 0,0 V 116"
             style="fill:none;stroke:#000000;stroke-width:3;stroke-linecap:butt;stroke-linejoin:miter;stroke-miterlimit:14;stroke-dasharray:none;stroke-opacity:1"
             id="path3957"
             inkscape:connector-curvature="0" />
        </g>
        <g
           id="g3959"
           transform="matrix(0.2485809,0,0,-0.2479401,481.13101,240.73313)">
          <path
             d="M 0,0 H 42"
             style="fill:none;stroke:#000000;stroke-width:3;stroke-linecap:square;stroke-linejoin:miter;stroke-miterlimit:14;stroke-dasharray:none;stroke-opacity:1"
             id="path3961"
             inkscape:connector-curvature="0" />
        </g>
        <g
           id="g3963"
           transform="matrix(0.2485809,0,0,-0.2479401,431.41481,260.07246)">
          <path
             d="M 0,0 H -32 V 78"
             style="fill:none;stroke:#000000;stroke-width:3;stroke-linecap:butt;stroke-linejoin:miter;stroke-miterlimit:14;stroke-dasharray:none;stroke-opacity:1"
             id="path3965"
             inkscape:connector-curvature="0" />
        </g>
        <g
           id="g3967"
           transform="matrix(0.2485809,0,0,-0.2479401,431.4148,253.13014)">
          <path
             d="M 0,0 V -56"
             style="fill:none;stroke:#000000;stroke-width:3;stroke-linecap:butt;stroke-linejoin:miter;stroke-miterlimit:14;stroke-dasharray:none;stroke-opacity:1"
             id="path3969"
             inkscape:connector-curvature="0" />
        </g>
        <g
           id="g3971"
           transform="matrix(0.2485809,0,0,-0.2479401,434.64633,253.13014)">
          <path
             d="M 0,0 V -57"
             style="fill:none;stroke:#000000;stroke-width:3;stroke-linecap:butt;stroke-linejoin:miter;stroke-miterlimit:14;stroke-dasharray:none;stroke-opacity:1"
             id="path3973"
             inkscape:connector-curvature="0" />
        </g>
        <g
           id="g3975"
           transform="matrix(0.2485809,0,0,-0.2479401,441.10942,265.2792)">
          <path
             d="M 0,0 V -59 H 203"
             style="fill:none;stroke:#000000;stroke-width:3;stroke-linecap:square;stroke-linejoin:miter;stroke-miterlimit:14;stroke-dasharray:none;stroke-opacity:1"
             id="path3977"
             inkscape:connector-curvature="0" />
        </g>
        <g
           id="g3979"
           transform="matrix(0.2485809,0,0,-0.2479401,441.10941,242.22077)">
          <path
             d="M 0,0 V -52"
             style="fill:none;stroke:#000000;stroke-width:3;stroke-linecap:square;stroke-linejoin:miter;stroke-miterlimit:14;stroke-dasharray:none;stroke-opacity:1"
             id="path3981"
             inkscape:connector-curvature="0" />
        </g>
        <g
           id="g3983"
           transform="matrix(0.2485809,0,0,-0.2479401,441.10939,255.11366)">
          <path
             d="M 0,0 H -26"
             style="fill:none;stroke:#000000;stroke-width:3;stroke-linecap:butt;stroke-linejoin:miter;stroke-miterlimit:14;stroke-dasharray:none;stroke-opacity:1"
             id="path3985"
             inkscape:connector-curvature="0" />
        </g>
        <g
           id="g3987"
           transform="matrix(0.2485809,0,0,-0.2479401,441.10938,265.2792)">
          <path
             d="M 0,0 H -26"
             style="fill:none;stroke:#000000;stroke-width:3;stroke-linecap:butt;stroke-linejoin:miter;stroke-miterlimit:14;stroke-dasharray:none;stroke-opacity:1"
             id="path3989"
             inkscape:connector-curvature="0" />
        </g>
        <g
           id="g3991"
           transform="matrix(0.2485809,0,0,-0.2479401,441.10936,265.2792)">
          <path
             d="M 0,0 H -24"
             style="fill:none;stroke:#000000;stroke-width:3;stroke-linecap:butt;stroke-linejoin:miter;stroke-miterlimit:14;stroke-dasharray:none;stroke-opacity:1"
             id="path3993"
             inkscape:connector-curvature="0" />
        </g>
        <g
           id="g3995"
           transform="matrix(0.2485809,0,0,-0.2479401,424.95207,240.73323)">
          <path
             d="m 0,0 v 0 c 0,-3 -3,-5 -6,-5 -3,0 -6,2 -6,5 0,4 3,6 6,6 3,0 6,-2 6,-6"
             style="fill:#000000;fill-opacity:1;fill-rule:nonzero;stroke:none"
             id="path3997"
             inkscape:connector-curvature="0" />
        </g>
        <g
           id="g3999"
           transform="matrix(0.2485809,0,0,-0.2479401,424.95159,240.73313)">
          <path
             d="m 0,0 v 0 c 0,-3 -3,-5 -6,-5 -3,0 -6,2 -6,5 0,4 3,6 6,6 3,0 6,-2 6,-6 z"
             style="fill:none;stroke:#000000;stroke-width:2;stroke-linecap:butt;stroke-linejoin:miter;stroke-miterlimit:14;stroke-dasharray:none;stroke-opacity:1"
             id="path4001"
             inkscape:connector-curvature="0" />
        </g>
        <text
           transform="matrix(1,0,0,-0.99736847,442.198,257.9988)"
           style="font-variant:normal;font-weight:bold;font-stretch:normal;font-size:5.96610022px;font-family:Arial;-inkscape-font-specification:Arial-BoldMT;writing-mode:lr-tb;fill:#000000;fill-opacity:1;fill-rule:nonzero;stroke:none"
           id="text4007">
          <tspan
             x="0"
             y="0"
             id="tspan4003">P</tspan>
          <tspan
             x="0"
             y="38.779652"
             id="tspan4005">N</tspan>
        </text>
      </g>
    </g>
  </g>
</svg>
