<?xml version="1.0" encoding="UTF-8" standalone="no"?>
<!-- Created with Inkscape (http://www.inkscape.org/) -->

<svg
   xmlns:ns0="http://www.iki.fi/pav/software/textext/"
   xmlns:dc="http://purl.org/dc/elements/1.1/"
   xmlns:cc="http://creativecommons.org/ns#"
   xmlns:rdf="http://www.w3.org/1999/02/22-rdf-syntax-ns#"
   xmlns:svg="http://www.w3.org/2000/svg"
   xmlns="http://www.w3.org/2000/svg"
   xmlns:sodipodi="http://sodipodi.sourceforge.net/DTD/sodipodi-0.dtd"
   xmlns:inkscape="http://www.inkscape.org/namespaces/inkscape"
   id="svg2984"
   version="1.1"
   inkscape:version="0.48.1 "
   width="720"
   height="150"
   xml:space="preserve"
   sodipodi:docname="Dosta_OP_znacka.svg"><sodipodi:namedview
     pagecolor="#ffffff"
     bordercolor="#666666"
     borderopacity="1"
     objecttolerance="10"
     gridtolerance="10"
     guidetolerance="10"
     inkscape:pageopacity="0"
     inkscape:pageshadow="2"
     inkscape:window-width="1831"
     inkscape:window-height="1173"
     id="namedview2986"
     showgrid="false"
     inkscape:zoom="2.4152778"
     inkscape:cx="360"
     inkscape:cy="75"
     inkscape:window-x="80"
     inkscape:window-y="-9"
     inkscape:window-maximized="1"
     inkscape:current-layer="g2992" /><metadata
     id="metadata2990"><rdf:RDF><cc:Work
         rdf:about=""><dc:format>image/svg+xml</dc:format><dc:type
           rdf:resource="http://purl.org/dc/dcmitype/StillImage" /><dc:title /></cc:Work></rdf:RDF></metadata><defs
     id="defs2988" /><g
     transform="matrix(1.25,0,0,-1.25,0,150)"
     inkscape:label="skici"
     inkscape:groupmode="layer"
     id="g2992"><path
   inkscape:connector-curvature="0"
   id="path2994"
   style="fill:none;stroke:#000000;stroke-width:1.5;stroke-linecap:round;stroke-linejoin:round;stroke-miterlimit:10;stroke-opacity:1;stroke-dasharray:none"
   d="m 294.97859,106.38262 0,-102.7599968" /><path
   inkscape:connector-curvature="0"
   id="path2996"
   style="fill:#bfbfbf;fill-opacity:1;fill-rule:evenodd;stroke:none"
   d="m 95.058595,31.792623 56.689995,28.35 -56.689995,28.34 0,-56.69 z" /><path
   inkscape:connector-curvature="0"
   id="path2998"
   style="fill:none;stroke:#000000;stroke-width:2.16000009;stroke-linecap:round;stroke-linejoin:round;stroke-miterlimit:10;stroke-opacity:1;stroke-dasharray:none"
   d="m 95.058595,31.792623 56.689995,28.35 -56.689995,28.34 0,-56.69 z" /><path
   inkscape:connector-curvature="0"
   id="path3000"
   style="fill:none;stroke:#000000;stroke-width:2.16000009;stroke-linecap:round;stroke-linejoin:round;stroke-miterlimit:10;stroke-opacity:1;stroke-dasharray:none"
   d="m 99.58859,74.312623 6.8,0" /><path
   inkscape:connector-curvature="0"
   id="path3002"
   style="fill:none;stroke:#000000;stroke-width:2.16000009;stroke-linecap:round;stroke-linejoin:round;stroke-miterlimit:10;stroke-opacity:1;stroke-dasharray:none"
   d="m 100.15859,45.962623 6.8,0" /><path
   inkscape:connector-curvature="0"
   id="path3004"
   style="fill:none;stroke:#000000;stroke-width:2.16000009;stroke-linecap:round;stroke-linejoin:round;stroke-miterlimit:10;stroke-opacity:1;stroke-dasharray:none"
   d="m 100.15859,45.962623 6.8,0" /><path
   inkscape:connector-curvature="0"
   id="path3006"
   style="fill:none;stroke:#000000;stroke-width:2.16000009;stroke-linecap:round;stroke-linejoin:round;stroke-miterlimit:10;stroke-opacity:1;stroke-dasharray:none"
   d="m 103.55859,49.362623 0,-6.8" /><text
   y="-36.842625"
   x="142.58858"
   id="text3008"
   transform="scale(1,-1)"><tspan
     id="tspan3010"
     sodipodi:role="line"
     y="-36.842625"
     x="142.58858 153.47858"
     style="font-size:13.99967957px;font-variant:normal;font-weight:normal;writing-mode:lr-tb;fill:#000000;fill-opacity:1;fill-rule:nonzero;stroke:none;font-family:ARIAL;-inkscape-font-specification:ARIAL">OZ</tspan></text>



<path
   inkscape:connector-curvature="0"
   id="path3012"
   style="fill:#bfbfbf;fill-opacity:1;fill-rule:evenodd;stroke:none"
   d="m 177.60859,60.312623 c 0,1.57 -1.26,2.84 -2.83,2.84 -1.57,0 -2.83,-1.27 -2.83,-2.84 0,-1.56 1.26,-2.83 2.83,-2.83 1.57,0 2.83,1.27 2.83,2.83 z" /><path
   inkscape:connector-curvature="0"
   id="path3014"
   style="fill:none;stroke:#000000;stroke-width:1.5;stroke-linecap:round;stroke-linejoin:round;stroke-miterlimit:10;stroke-opacity:1;stroke-dasharray:none"
   d="m 177.60859,60.312623 c 0,1.57 -1.26,2.84 -2.83,2.84 -1.57,0 -2.83,-1.27 -2.83,-2.84 0,-1.56 1.26,-2.83 2.83,-2.83 1.57,0 2.83,1.27 2.83,2.83 z" /><path
   inkscape:connector-curvature="0"
   id="path3016"
   style="fill:none;stroke:#000000;stroke-width:1.5;stroke-linecap:round;stroke-linejoin:round;stroke-miterlimit:10;stroke-opacity:1;stroke-dasharray:none"
   d="m 151.74859,60.272623 20.27,0" /><path
   inkscape:connector-curvature="0"
   id="path3018"
   style="fill:#bfbfbf;fill-opacity:1;fill-rule:evenodd;stroke:none"
   d="m 67.948595,81.292623 c 0,1.57 1.27,2.83 2.83,2.83 1.57,0 2.84,-1.26 2.84,-2.83 0,-1.57 -1.27,-2.84 -2.84,-2.84 -1.56,0 -2.83,1.27 -2.83,2.84 z" /><path
   inkscape:connector-curvature="0"
   id="path3020"
   style="fill:none;stroke:#000000;stroke-width:1.5;stroke-linecap:round;stroke-linejoin:round;stroke-miterlimit:10;stroke-opacity:1;stroke-dasharray:none"
   d="m 67.948595,81.292623 c 0,1.57 1.27,2.83 2.83,2.83 1.57,0 2.84,-1.26 2.84,-2.83 0,-1.57 -1.27,-2.84 -2.84,-2.84 -1.56,0 -2.83,1.27 -2.83,2.84 z" /><path
   inkscape:connector-curvature="0"
   id="path3022"
   style="fill:none;stroke:#000000;stroke-width:1.5;stroke-linecap:round;stroke-linejoin:round;stroke-miterlimit:10;stroke-opacity:1;stroke-dasharray:none"
   d="m 93.818595,81.572623 -20.28,0" /><path
   inkscape:connector-curvature="0"
   id="path3024"
   style="fill:#bfbfbf;fill-opacity:1;fill-rule:evenodd;stroke:none"
   d="m 68.058595,39.052623 c 0,1.57 1.26,2.84 2.83,2.84 1.57,0 2.84,-1.27 2.84,-2.84 0,-1.56 -1.27,-2.83 -2.84,-2.83 -1.57,0 -2.83,1.27 -2.83,2.83 z" /><path
   inkscape:connector-curvature="0"
   id="path3026"
   style="fill:none;stroke:#000000;stroke-width:1.5;stroke-linecap:round;stroke-linejoin:round;stroke-miterlimit:10;stroke-opacity:1;stroke-dasharray:none"
   d="m 68.058595,39.052623 c 0,1.57 1.26,2.84 2.83,2.84 1.57,0 2.84,-1.27 2.84,-2.84 0,-1.56 -1.27,-2.83 -2.84,-2.83 -1.57,0 -2.83,1.27 -2.83,2.83 z" /><path
   inkscape:connector-curvature="0"
   id="path3028"
   style="fill:none;stroke:#000000;stroke-width:1.5;stroke-linecap:round;stroke-linejoin:round;stroke-miterlimit:10;stroke-opacity:1;stroke-dasharray:none"
   d="m 93.918595,39.012623 -20.27,0" /><path
   inkscape:connector-curvature="0"
   id="path3030"
   style="fill:none;stroke:#000000;stroke-width:1.5;stroke-linecap:round;stroke-linejoin:round;stroke-miterlimit:10;stroke-opacity:1;stroke-dasharray:none"
   d="m 126.13859,47.332623 0,-20.27" /><path
   inkscape:connector-curvature="0"
   id="path3032"
   style="fill:none;stroke:#000000;stroke-width:2.25;stroke-linecap:round;stroke-linejoin:round;stroke-miterlimit:10;stroke-opacity:1;stroke-dasharray:none"
   d="m 130.76859,26.582623 -9.07,0" /><text
   y="-56.112621"
   x="184.30858"
   id="text3034"
   transform="scale(1,-1)"><tspan
     id="tspan3036"
     y="-56.112621"
     x="184.30858"
     style="font-size:13.99967957px;font-variant:normal;font-weight:normal;writing-mode:lr-tb;fill:#000000;fill-opacity:1;fill-rule:nonzero;stroke:none;font-family:ARIAL;-inkscape-font-specification:ARIAL">v</tspan></text>



<text
   y="-56.112621"
   x="191.30858"
   id="text3038"
   transform="scale(1,-1)"><tspan
     id="tspan3040"
     sodipodi:role="line"
     y="-56.112621"
     x="191.30858 198.30849 205.3084 209.19812 216.98421"
     style="font-size:13.99967957px;font-variant:normal;font-weight:normal;writing-mode:lr-tb;fill:#000000;fill-opacity:1;fill-rule:nonzero;stroke:none;font-family:ARIAL;-inkscape-font-specification:ARIAL">ýstup</tspan></text>



<text
   y="-87.192627"
   x="15.488594"
   id="text3042"
   transform="scale(1,-1)"><tspan
     id="tspan3044"
     sodipodi:role="line"
     y="-87.192627"
     x="15.488594 18.59885 26.38493 33.384846 41.170925 45.833 49.722725 57.508804 60.619064 64.508789 71.508705 75.39843"
     style="font-size:13.99967957px;font-variant:normal;font-weight:normal;writing-mode:lr-tb;fill:#000000;fill-opacity:1;fill-rule:nonzero;stroke:none;font-family:ARIAL;-inkscape-font-specification:ARIAL">invertující </tspan></text>



<text
   y="-70.392624"
   x="28.718596"
   id="text3046"
   transform="scale(1,-1)"><tspan
     id="tspan3048"
     sodipodi:role="line"
     y="-70.392624"
     x="28.718596 35.71851 42.718422 46.60815 54.394234"
     style="font-size:13.99967957px;font-variant:normal;font-weight:normal;writing-mode:lr-tb;fill:#000000;fill-opacity:1;fill-rule:nonzero;stroke:none;font-family:ARIAL;-inkscape-font-specification:ARIAL">vstup</tspan></text>



<text
   y="-45.292622"
   x="7.3485942"
   id="text3050"
   transform="scale(1,-1)"><tspan
     id="tspan3052"
     sodipodi:role="line"
     y="-45.292622"
     x="7.3485942 15.134674 22.920753 26.03101 33.817097 40.817005 48.603088 53.26516 57.154888 64.940971 68.051224 71.940956 78.940865 82.830597"
     style="font-size:13.99967957px;font-variant:normal;font-weight:normal;writing-mode:lr-tb;fill:#000000;fill-opacity:1;fill-rule:nonzero;stroke:none;font-family:ARIAL;-inkscape-font-specification:ARIAL">neinvertující </tspan></text>



<text
   y="-28.492622"
   x="28.358595"
   id="text3054"
   transform="scale(1,-1)"><tspan
     id="tspan3056"
     sodipodi:role="line"
     y="-28.492622"
     x="28.358595 35.358513 42.358421 46.24815 54.034233"
     style="font-size:13.99967957px;font-variant:normal;font-weight:normal;writing-mode:lr-tb;fill:#000000;fill-opacity:1;fill-rule:nonzero;stroke:none;font-family:ARIAL;-inkscape-font-specification:ARIAL">vstup</tspan></text>



<path
   inkscape:connector-curvature="0"
   id="path3058"
   style="fill:#bfbfbf;fill-opacity:1;fill-rule:evenodd;stroke:none"
   d="m 263.88859,31.972623 56.7,28.34 -56.7,28.35 0,-56.69 z" /><path
   inkscape:connector-curvature="0"
   id="path3060"
   style="fill:none;stroke:#000000;stroke-width:2.16000009;stroke-linecap:round;stroke-linejoin:round;stroke-miterlimit:10;stroke-opacity:1;stroke-dasharray:none"
   d="m 263.88859,31.972623 56.7,28.34 -56.7,28.35 0,-56.69 z" /><path
   inkscape:connector-curvature="0"
   id="path3062"
   style="fill:none;stroke:#000000;stroke-width:2.16000009;stroke-linecap:round;stroke-linejoin:round;stroke-miterlimit:10;stroke-opacity:1;stroke-dasharray:none"
   d="m 268.42859,74.492623 6.8,0" /><path
   inkscape:connector-curvature="0"
   id="path3064"
   style="fill:none;stroke:#000000;stroke-width:2.16000009;stroke-linecap:round;stroke-linejoin:round;stroke-miterlimit:10;stroke-opacity:1;stroke-dasharray:none"
   d="m 268.99859,46.142623 6.8,0" /><path
   inkscape:connector-curvature="0"
   id="path3066"
   style="fill:none;stroke:#000000;stroke-width:2.16000009;stroke-linecap:round;stroke-linejoin:round;stroke-miterlimit:10;stroke-opacity:1;stroke-dasharray:none"
   d="m 268.99859,46.142623 6.8,0" /><path
   inkscape:connector-curvature="0"
   id="path3068"
   style="fill:none;stroke:#000000;stroke-width:2.16000009;stroke-linecap:round;stroke-linejoin:round;stroke-miterlimit:10;stroke-opacity:1;stroke-dasharray:none"
   d="m 272.39859,49.542623 0,-6.8" /><text
   y="-37.022625"
   x="311.42859"
   id="text3070"
   transform="scale(1,-1)"><tspan
     id="tspan3072"
     sodipodi:role="line"
     y="-37.022625"
     x="311.42859 322.31857"
     style="font-size:13.99967957px;font-variant:normal;font-weight:normal;writing-mode:lr-tb;fill:#000000;fill-opacity:1;fill-rule:nonzero;stroke:none;font-family:ARIAL;-inkscape-font-specification:ARIAL">OZ</tspan></text>



<path
   inkscape:connector-curvature="0"
   id="path3074"
   style="fill:#bfbfbf;fill-opacity:1;fill-rule:evenodd;stroke:none"
   d="m 346.44859,60.492623 c 0,1.57 -1.27,2.84 -2.83,2.84 -1.57,0 -2.84,-1.27 -2.84,-2.84 0,-1.57 1.27,-2.83 2.84,-2.83 1.56,0 2.83,1.26 2.83,2.83 z" /><path
   inkscape:connector-curvature="0"
   id="path3076"
   style="fill:none;stroke:#000000;stroke-width:1.5;stroke-linecap:round;stroke-linejoin:round;stroke-miterlimit:10;stroke-opacity:1;stroke-dasharray:none"
   d="m 346.44859,60.492623 c 0,1.57 -1.27,2.84 -2.83,2.84 -1.57,0 -2.84,-1.27 -2.84,-2.84 0,-1.57 1.27,-2.83 2.84,-2.83 1.56,0 2.83,1.26 2.83,2.83 z" /><path
   inkscape:connector-curvature="0"
   id="path3078"
   style="fill:none;stroke:#000000;stroke-width:1.5;stroke-linecap:round;stroke-linejoin:round;stroke-miterlimit:10;stroke-opacity:1;stroke-dasharray:none"
   d="m 320.58859,60.442623 20.27,0" /><path
   inkscape:connector-curvature="0"
   id="path3080"
   style="fill:#bfbfbf;fill-opacity:1;fill-rule:evenodd;stroke:none"
   d="m 236.78859,81.472623 c 0,1.56 1.27,2.83 2.83,2.83 1.57,0 2.84,-1.27 2.84,-2.83 0,-1.57 -1.27,-2.84 -2.84,-2.84 -1.56,0 -2.83,1.27 -2.83,2.84 z" /><path
   inkscape:connector-curvature="0"
   id="path3082"
   style="fill:none;stroke:#000000;stroke-width:1.5;stroke-linecap:round;stroke-linejoin:round;stroke-miterlimit:10;stroke-opacity:1;stroke-dasharray:none"
   d="m 236.78859,81.472623 c 0,1.56 1.27,2.83 2.83,2.83 1.57,0 2.84,-1.27 2.84,-2.83 0,-1.57 -1.27,-2.84 -2.84,-2.84 -1.56,0 -2.83,1.27 -2.83,2.84 z" /><path
   inkscape:connector-curvature="0"
   id="path3084"
   style="fill:none;stroke:#000000;stroke-width:1.5;stroke-linecap:round;stroke-linejoin:round;stroke-miterlimit:10;stroke-opacity:1;stroke-dasharray:none"
   d="m 262.64859,81.752623 -20.27,0" /><path
   inkscape:connector-curvature="0"
   id="path3086"
   style="fill:#bfbfbf;fill-opacity:1;fill-rule:evenodd;stroke:none"
   d="m 236.88859,39.232623 c 0,1.57 1.27,2.84 2.84,2.84 1.56,0 2.83,-1.27 2.83,-2.84 0,-1.57 -1.27,-2.83 -2.83,-2.83 -1.57,0 -2.84,1.26 -2.84,2.83 z" /><path
   inkscape:connector-curvature="0"
   id="path3088"
   style="fill:none;stroke:#000000;stroke-width:1.5;stroke-linecap:round;stroke-linejoin:round;stroke-miterlimit:10;stroke-opacity:1;stroke-dasharray:none"
   d="m 236.88859,39.232623 c 0,1.57 1.27,2.84 2.84,2.84 1.56,0 2.83,-1.27 2.83,-2.84 0,-1.57 -1.27,-2.83 -2.83,-2.83 -1.57,0 -2.84,1.26 -2.84,2.83 z" /><path
   inkscape:connector-curvature="0"
   id="path3090"
   style="fill:none;stroke:#000000;stroke-width:1.5;stroke-linecap:round;stroke-linejoin:round;stroke-miterlimit:10;stroke-opacity:1;stroke-dasharray:none"
   d="m 262.75859,39.182623 -20.27,0" /><path
   inkscape:connector-curvature="0"
   id="path3092"
   style="fill:none;stroke:#000000;stroke-width:2.25;stroke-linecap:round;stroke-linejoin:round;stroke-miterlimit:10;stroke-opacity:1;stroke-dasharray:none"
   d="m 299.99859,3.6226232 -9.07,0" /><path
   inkscape:connector-curvature="0"
   id="path3094"
   style="fill:none;stroke:#000000;stroke-width:1.5;stroke-linecap:round;stroke-linejoin:round;stroke-miterlimit:10;stroke-opacity:1;stroke-dasharray:none"
   d="m 364.34859,106.38262 0,-13.289997 m 0,-5.32 0,-13.28 m 15.94,18.6 -31.89,0 m 26.58,-5.32 -21.26,0 m 23.39,10.63 -4.27,0 m 2.14,2.139997 0,-4.269997 m 0,-11.68 0,-4.27" /><path
   inkscape:connector-curvature="0"
   id="path3096"
   style="fill:none;stroke:#000000;stroke-width:1.5;stroke-linecap:round;stroke-linejoin:round;stroke-miterlimit:10;stroke-opacity:1;stroke-dasharray:none"
   d="m 364.34859,106.38262 -69.37,0" /><path
   inkscape:connector-curvature="0"
   id="path3098"
   style="fill:none;stroke:#000000;stroke-width:1.5;stroke-linecap:round;stroke-linejoin:round;stroke-miterlimit:10;stroke-opacity:1;stroke-dasharray:none"
   d="m 294.97859,14.252623 69.37,0" /><path
   inkscape:connector-curvature="0"
   id="path3100"
   style="fill:#000000;fill-opacity:1;fill-rule:evenodd;stroke:none"
   d="m 297.98859,14.252623 c 0,1.67 -1.35,3.02 -3.01,3.02 -1.67,0 -3.02,-1.35 -3.02,-3.02 0,0 0,0 0,0 0,-1.67 1.35,-3.02 3.02,-3.02 1.66,0 3.01,1.35 3.01,3.02 z" /><path
   inkscape:connector-curvature="0"
   id="path3102"
   style="fill:none;stroke:#000000;stroke-width:1.5;stroke-linecap:round;stroke-linejoin:round;stroke-miterlimit:10;stroke-opacity:1;stroke-dasharray:none"
   d="m 364.34859,74.492623 0,-60.24" /><path
   inkscape:connector-curvature="0"
   id="path3104"
   style="fill:none;stroke:#000000;stroke-width:1.5;stroke-linecap:round;stroke-linejoin:round;stroke-miterlimit:10;stroke-opacity:1;stroke-dasharray:none"
   d="m 457.96859,106.38262 0,-92.129997" /><path
   inkscape:connector-curvature="0"
   id="path3106"
   style="fill:#bfbfbf;fill-opacity:1;fill-rule:evenodd;stroke:none"
   d="m 426.88859,31.972623 56.69,28.34 -56.69,28.35 0,-56.69 z" /><path
   inkscape:connector-curvature="0"
   id="path3108"
   style="fill:none;stroke:#000000;stroke-width:2.16000009;stroke-linecap:round;stroke-linejoin:round;stroke-miterlimit:10;stroke-opacity:1;stroke-dasharray:none"
   d="m 426.88859,31.972623 56.69,28.34 -56.69,28.35 0,-56.69 z" /><path
   inkscape:connector-curvature="0"
   id="path3110"
   style="fill:none;stroke:#000000;stroke-width:2.16000009;stroke-linecap:round;stroke-linejoin:round;stroke-miterlimit:10;stroke-opacity:1;stroke-dasharray:none"
   d="m 431.41859,74.492623 6.8,0" /><path
   inkscape:connector-curvature="0"
   id="path3112"
   style="fill:none;stroke:#000000;stroke-width:2.16000009;stroke-linecap:round;stroke-linejoin:round;stroke-miterlimit:10;stroke-opacity:1;stroke-dasharray:none"
   d="m 431.98859,46.142623 6.8,0" /><path
   inkscape:connector-curvature="0"
   id="path3114"
   style="fill:none;stroke:#000000;stroke-width:2.16000009;stroke-linecap:round;stroke-linejoin:round;stroke-miterlimit:10;stroke-opacity:1;stroke-dasharray:none"
   d="m 431.98859,46.142623 6.8,0" /><path
   inkscape:connector-curvature="0"
   id="path3116"
   style="fill:none;stroke:#000000;stroke-width:2.16000009;stroke-linecap:round;stroke-linejoin:round;stroke-miterlimit:10;stroke-opacity:1;stroke-dasharray:none"
   d="m 435.38859,49.542623 0,-6.8" /><text
   y="-37.022625"
   x="474.42859"
   id="text3118"
   transform="scale(1,-1)"><tspan
     id="tspan3120"
     sodipodi:role="line"
     y="-37.022625"
     x="474.42859 485.31857"
     style="font-size:13.99967957px;font-variant:normal;font-weight:normal;writing-mode:lr-tb;fill:#000000;fill-opacity:1;fill-rule:nonzero;stroke:none;font-family:ARIAL;-inkscape-font-specification:ARIAL">OZ</tspan></text>



<path
   inkscape:connector-curvature="0"
   id="path3122"
   style="fill:#bfbfbf;fill-opacity:1;fill-rule:evenodd;stroke:none"
   d="m 509.44859,60.492623 c 0,1.57 -1.27,2.84 -2.84,2.84 -1.56,0 -2.83,-1.27 -2.83,-2.84 0,-1.57 1.27,-2.83 2.83,-2.83 1.57,0 2.84,1.26 2.84,2.83 z" /><path
   inkscape:connector-curvature="0"
   id="path3124"
   style="fill:none;stroke:#000000;stroke-width:1.5;stroke-linecap:round;stroke-linejoin:round;stroke-miterlimit:10;stroke-opacity:1;stroke-dasharray:none"
   d="m 509.44859,60.492623 c 0,1.57 -1.27,2.84 -2.84,2.84 -1.56,0 -2.83,-1.27 -2.83,-2.84 0,-1.57 1.27,-2.83 2.83,-2.83 1.57,0 2.84,1.26 2.84,2.83 z" /><path
   inkscape:connector-curvature="0"
   id="path3126"
   style="fill:none;stroke:#000000;stroke-width:1.5;stroke-linecap:round;stroke-linejoin:round;stroke-miterlimit:10;stroke-opacity:1;stroke-dasharray:none"
   d="m 483.57859,60.442623 20.27,0" /><path
   inkscape:connector-curvature="0"
   id="path3128"
   style="fill:#bfbfbf;fill-opacity:1;fill-rule:evenodd;stroke:none"
   d="m 399.77859,81.472623 c 0,1.56 1.27,2.83 2.83,2.83 1.57,0 2.84,-1.27 2.84,-2.83 0,-1.57 -1.27,-2.84 -2.84,-2.84 -1.56,0 -2.83,1.27 -2.83,2.84 z" /><path
   inkscape:connector-curvature="0"
   id="path3130"
   style="fill:none;stroke:#000000;stroke-width:1.5;stroke-linecap:round;stroke-linejoin:round;stroke-miterlimit:10;stroke-opacity:1;stroke-dasharray:none"
   d="m 399.77859,81.472623 c 0,1.56 1.27,2.83 2.83,2.83 1.57,0 2.84,-1.27 2.84,-2.83 0,-1.57 -1.27,-2.84 -2.84,-2.84 -1.56,0 -2.83,1.27 -2.83,2.84 z" /><path
   inkscape:connector-curvature="0"
   id="path3132"
   style="fill:none;stroke:#000000;stroke-width:1.5;stroke-linecap:round;stroke-linejoin:round;stroke-miterlimit:10;stroke-opacity:1;stroke-dasharray:none"
   d="m 425.64859,81.752623 -20.28,0" /><path
   inkscape:connector-curvature="0"
   id="path3134"
   style="fill:#bfbfbf;fill-opacity:1;fill-rule:evenodd;stroke:none"
   d="m 399.88859,39.232623 c 0,1.57 1.27,2.84 2.83,2.84 1.57,0 2.84,-1.27 2.84,-2.84 0,-1.57 -1.27,-2.83 -2.84,-2.83 -1.56,0 -2.83,1.26 -2.83,2.83 z" /><path
   inkscape:connector-curvature="0"
   id="path3136"
   style="fill:none;stroke:#000000;stroke-width:1.5;stroke-linecap:round;stroke-linejoin:round;stroke-miterlimit:10;stroke-opacity:1;stroke-dasharray:none"
   d="m 399.88859,39.232623 c 0,1.57 1.27,2.84 2.83,2.84 1.57,0 2.84,-1.27 2.84,-2.84 0,-1.57 -1.27,-2.83 -2.84,-2.83 -1.56,0 -2.83,1.26 -2.83,2.83 z" /><path
   inkscape:connector-curvature="0"
   id="path3138"
   style="fill:none;stroke:#000000;stroke-width:1.5;stroke-linecap:round;stroke-linejoin:round;stroke-miterlimit:10;stroke-opacity:1;stroke-dasharray:none"
   d="m 425.74859,39.182623 -20.27,0" /><path
   inkscape:connector-curvature="0"
   id="path3140"
   style="fill:none;stroke:#000000;stroke-width:2.25;stroke-linecap:round;stroke-linejoin:round;stroke-miterlimit:10;stroke-opacity:1;stroke-dasharray:none"
   d="m 545.75859,53.232623 -9.07,0" /><path
   inkscape:connector-curvature="0"
   id="path3142"
   style="fill:none;stroke:#000000;stroke-width:1.5;stroke-linecap:round;stroke-linejoin:round;stroke-miterlimit:10;stroke-opacity:1;stroke-dasharray:none"
   d="m 527.33859,106.38262 0,-13.289997 m 0,-5.32 0,-13.28 m 15.94,18.6 -31.89,0 m 26.58,-5.32 -21.26,0 m 23.4,10.63 -4.28,0 m 2.14,2.139997 0,-4.269997 m 0,-11.68 0,-4.27" /><path
   inkscape:connector-curvature="0"
   id="path3144"
   style="fill:none;stroke:#000000;stroke-width:1.5;stroke-linecap:round;stroke-linejoin:round;stroke-miterlimit:10;stroke-opacity:1;stroke-dasharray:none"
   d="m 527.33859,106.38262 -69.37,0" /><path
   inkscape:connector-curvature="0"
   id="path3146"
   style="fill:none;stroke:#000000;stroke-width:1.5;stroke-linecap:round;stroke-linejoin:round;stroke-miterlimit:10;stroke-opacity:1;stroke-dasharray:none"
   d="m 527.33859,14.252623 -69.37,0" /><path
   inkscape:connector-curvature="0"
   id="path3148"
   style="fill:none;stroke:#000000;stroke-width:1.5;stroke-linecap:round;stroke-linejoin:round;stroke-miterlimit:10;stroke-opacity:1;stroke-dasharray:none"
   d="m 527.33859,46.142623 0,-13.29 m 0,-5.31 0,-13.29 m 15.94,18.6 -31.89,0 m 26.58,-5.31 -21.26,0 m 23.4,10.63 -4.28,0 m 2.14,2.13 0,-4.27 m 0,-11.67 0,-4.28" /><path
   inkscape:connector-curvature="0"
   id="path3150"
   style="fill:none;stroke:#000000;stroke-width:1.5;stroke-linecap:round;stroke-linejoin:round;stroke-miterlimit:10;stroke-opacity:1;stroke-dasharray:none"
   d="m 527.33859,74.492623 0,-31.18" /><path
   inkscape:connector-curvature="0"
   id="path3152"
   style="fill:none;stroke:#000000;stroke-width:1.5;stroke-linecap:round;stroke-linejoin:round;stroke-miterlimit:10;stroke-opacity:1;stroke-dasharray:none"
   d="m 541.50859,60.312623 0,-7.08" /><path
   inkscape:connector-curvature="0"
   id="path3154"
   style="fill:none;stroke:#000000;stroke-width:1.5;stroke-linecap:round;stroke-linejoin:round;stroke-miterlimit:10;stroke-opacity:1;stroke-dasharray:none"
   d="m 527.33859,60.312623 14.17,0" /><path
   inkscape:connector-curvature="0"
   id="path3156"
   style="fill:#000000;fill-opacity:1;fill-rule:evenodd;stroke:none"
   d="m 530.34859,60.312623 c 0,1.67 -1.35,3.02 -3.01,3.02 -1.67,0 -3.02,-1.35 -3.02,-3.02 0,0 0,0 0,0 0,-1.66 1.35,-3.01 3.02,-3.01 1.66,0 3.01,1.35 3.01,3.01 z" /><g
   ns0:preamble=""
   ns0:text="$$U_S$$\n"
   word-spacing="normal"
   letter-spacing="normal"
   font-size-adjust="none"
   font-stretch="normal"
   font-weight="normal"
   font-variant="normal"
   font-style="normal"
   stroke-miterlimit="10.433"
   xml:space="preserve"
   transform="matrix(1.8178225,0,0,1.7420659,-324.07965,-1140.7028)"
   id="content"
   style="font-style:normal;font-variant:normal;font-weight:normal;font-stretch:normal;letter-spacing:normal;word-spacing:normal;text-anchor:start;fill:none;stroke:#000000;stroke-width:2.24777055;stroke-linecap:butt;stroke-linejoin:miter;stroke-miterlimit:10.43299961;stroke-opacity:1;stroke-dasharray:none;stroke-dashoffset:0">
<path
   id="path3246"
   d="m 395.33,712.88 0.02,0.07 0.01,0.04 0.01,0.04 0.02,0.03 0.01,0.03 0.01,0.04 0.02,0.03 0.02,0.03 0.01,0.03 0.02,0.03 0.03,0.03 0.02,0.03 0.02,0.03 0.03,0.02 0.03,0.03 0.03,0.02 0.03,0.02 0.04,0.03 0.03,0.02 0.04,0.01 0.04,0.02 0.05,0.02 0.05,0.01 0.05,0.02 0.05,0.01 0.06,0.01 0.06,0.01 0.06,0.01 0.07,0.01 0.06,0 0.04,0 0.04,0 c 0.05,0 0.17,0.01 0.17,0.2 0,0.01 0,0.11 -0.13,0.11 -0.33,0 -0.68,-0.03 -1.02,-0.03 -0.34,0 -0.71,0.03 -1.04,0.03 -0.06,0 -0.18,0 -0.18,-0.2 0,-0.11 0.1,-0.11 0.18,-0.11 0.57,-0.01 0.68,-0.21 0.68,-0.43 0,-0.03 -0.02,-0.18 -0.03,-0.21 l -0.9,-3.56 c -0.33,-1.33 -1.48,-2.19 -2.48,-2.19 -0.68,0 -1.21,0.43 -1.21,1.29 0,0.02 0,0.34 0.11,0.77 l 0.96,3.88 c 0.09,0.36 0.11,0.45 0.84,0.45 0.26,0 0.34,0 0.34,0.2 0,0.11 -0.11,0.11 -0.14,0.11 -0.28,0 -1,-0.03 -1.28,-0.03 -0.29,0 -0.99,0.03 -1.28,0.03 -0.08,0 -0.19,0 -0.19,-0.2 0,-0.11 0.09,-0.11 0.28,-0.11 0.02,0 0.21,0 0.38,-0.02 0.18,-0.02 0.27,-0.03 0.27,-0.16 0,-0.05 -0.11,-0.47 -0.17,-0.7 l -0.22,-0.88 c -0.09,-0.39 -0.57,-2.27 -0.61,-2.46 -0.07,-0.27 -0.07,-0.42 -0.07,-0.57 0,-1.22 0.91,-1.91 1.95,-1.91 1.26,0 2.49,1.12 2.82,2.43 z"
   inkscape:connector-curvature="0"
   style="fill:#000000;stroke-width:0" />
<path
   id="path3248"
   d="m 400.75,710.43 0,0 0,0.01 0,0 0,0 0,0.01 0,0 -0.01,0 0,0.01 0,0 0,0.01 0,0 0,0 0,0.01 -0.01,0 0,0 0,0.01 0,0 -0.01,0 0,0.01 0,0 -0.01,0 0,0.01 0,0 -0.01,0 0,0 -0.01,0 0,0.01 -0.01,0 0,0 0,0 -0.01,0 0,0 0,0 -0.01,0 0,0 0,0 c -0.05,0 -0.05,-0.01 -0.14,-0.1 l -0.34,-0.39 c -0.27,0.36 -0.71,0.49 -1.13,0.49 -0.98,0 -1.85,-0.79 -1.85,-1.59 0,-0.11 0.02,-0.39 0.23,-0.64 0.23,-0.28 0.49,-0.34 0.96,-0.45 0.14,-0.04 0.49,-0.12 0.6,-0.14 0.22,-0.06 0.64,-0.21 0.64,-0.73 0,-0.57 -0.59,-1.23 -1.38,-1.23 -0.61,0 -1.35,0.22 -1.35,0.99 0,0.07 0.01,0.22 0.04,0.35 0.01,0.02 0.01,0.03 0.01,0.04 0,0.09 -0.09,0.09 -0.12,0.09 -0.09,0 -0.1,-0.01 -0.13,-0.14 l -0.35,-1.39 c -0.01,-0.03 -0.02,-0.07 -0.02,-0.1 0,-0.05 0.02,-0.09 0.09,-0.09 0.04,0 0.05,0.01 0.14,0.1 0.08,0.08 0.26,0.31 0.34,0.39 0.37,-0.4 0.91,-0.49 1.33,-0.49 1.05,0 1.9,0.91 1.9,1.73 0,0.3 -0.13,0.58 -0.28,0.74 -0.24,0.25 -0.35,0.28 -1.25,0.49 -0.14,0.03 -0.37,0.09 -0.44,0.11 -0.17,0.06 -0.46,0.23 -0.46,0.63 0,0.55 0.62,1.11 1.34,1.11 0.75,0 1.12,-0.43 1.12,-1.09 0,-0.09 -0.03,-0.25 -0.03,-0.31 0,-0.1 0.08,-0.1 0.12,-0.1 0.1,0 0.11,0.04 0.14,0.16 z"
   inkscape:connector-curvature="0"
   style="fill:#000000;stroke-width:0" />
</g>
<g
   id="g3466"
   transform="matrix(1.8178225,0,0,1.7420659,-162.27673,-1139.0556)"
   xml:space="preserve"
   stroke="black"
   stroke-linecap="butt"
   stroke-linejoin="miter"
   stroke-miterlimit="10.433"
   stroke-dasharray="none"
   stroke-dashoffset="0"
   stroke-opacity="1"
   fill="none"
   fill-rule="evenodd"
   fill-opacity="1"
   font-style="normal"
   font-variant="normal"
   font-weight="normal"
   font-stretch="normal"
   font-size-adjust="none"
   letter-spacing="normal"
   word-spacing="normal"
   text-anchor="start"
   ns0:text="$$U_S^+$$\n\n"
   ns0:preamble=""
   style="font-style:normal;font-variant:normal;font-weight:normal;font-stretch:normal;letter-spacing:normal;word-spacing:normal;text-anchor:start;fill:none;stroke:#000000;stroke-width:2.24777055;stroke-linecap:butt;stroke-linejoin:miter;stroke-miterlimit:10.43299961;stroke-opacity:1;stroke-dasharray:none;stroke-dashoffset:0">
<path
   d="M394.37,712.88 L394.39,712.95 L394.4,712.99 L394.41,713.03 L394.42,713.06 L394.43,713.09 L394.45,713.13 L394.46,713.16 L394.48,713.19 L394.5,713.22 L394.52,713.25 L394.54,713.28 L394.56,713.31 L394.59,713.34 L394.61,713.36 L394.64,713.39 L394.67,713.41 L394.71,713.43 L394.74,713.46 L394.78,713.48 L394.82,713.49 L394.86,713.51 L394.9,713.53 L394.95,713.54 L395,713.56 L395.06,713.57 L395.11,713.58 L395.17,713.59 L395.23,713.6 L395.3,713.61 L395.37,713.61 L395.41,713.61 L395.44,713.61 C395.49,713.61,395.61,713.62,395.61,713.81 C395.61,713.82,395.61,713.92,395.48,713.92 C395.15,713.92,394.8,713.89,394.47,713.89 C394.13,713.89,393.76,713.92,393.43,713.92 C393.37,713.92,393.25,713.92,393.25,713.72 C393.25,713.61,393.35,713.61,393.43,713.61 C394,713.6,394.11,713.4,394.11,713.18 C394.11,713.15,394.09,713,394.08,712.97 L393.18,709.41 C392.84,708.08,391.69,707.22,390.7,707.22 C390.02,707.22,389.48,707.65,389.48,708.51 C389.48,708.53,389.48,708.85,389.59,709.28 L390.56,713.16 C390.65,713.52,390.67,713.61,391.39,713.61 C391.65,713.61,391.73,713.61,391.73,713.81 C391.73,713.92,391.63,713.92,391.6,713.92 C391.32,713.92,390.6,713.89,390.32,713.89 C390.03,713.89,389.32,713.92,389.03,713.92 C388.95,713.92,388.84,713.92,388.84,713.72 C388.84,713.61,388.93,713.61,389.12,713.61 C389.14,713.61,389.33,713.61,389.5,713.59 C389.68,713.57,389.77,713.56,389.77,713.43 C389.77,713.38,389.66,712.96,389.6,712.73 L389.38,711.85 C389.29,711.46,388.81,709.58,388.77,709.39 C388.7,709.12,388.7,708.97,388.7,708.82 C388.7,707.6,389.61,706.91,390.66,706.91 C391.91,706.91,393.15,708.03,393.48,709.34 Z "
   stroke-width="0"
   fill="black"
   id="path3468" />
<path
   d="M399.15,712.96 H401.28 C401.37,712.96,401.54,712.96,401.54,713.13 C401.54,713.3,401.38,713.3,401.28,713.3 H399.15 V715.43 C399.15,715.52,399.15,715.69,398.98,715.69 C398.81,715.69,398.81,715.53,398.81,715.43 V713.3 H396.67 C396.58,713.3,396.41,713.3,396.41,713.13 C396.41,712.96,396.57,712.96,396.67,712.96 H398.81 V710.82 C398.81,710.73,398.81,710.57,398.98,710.57 C399.15,710.57,399.15,710.73,399.15,710.82 Z "
   stroke-width="0"
   fill="black"
   id="path3470" />
<path
   d="M399.78,708.99 L399.78,709 L399.78,709 L399.78,709.01 L399.78,709.01 L399.78,709.01 L399.78,709.02 L399.78,709.02 L399.78,709.02 L399.78,709.03 L399.78,709.03 L399.78,709.04 L399.77,709.04 L399.77,709.04 L399.77,709.05 L399.77,709.05 L399.76,709.05 L399.76,709.06 L399.76,709.06 L399.76,709.06 L399.75,709.07 L399.75,709.07 L399.75,709.07 L399.74,709.07 L399.74,709.08 L399.73,709.08 L399.73,709.08 L399.72,709.08 L399.72,709.08 L399.71,709.08 L399.71,709.08 L399.71,709.08 L399.71,709.08 L399.7,709.08 L399.7,709.08 L399.7,709.08 L399.69,709.09 C399.65,709.09,399.64,709.08,399.55,708.99 L399.21,708.59 C398.95,708.96,398.51,709.09,398.08,709.09 C397.1,709.09,396.23,708.29,396.23,707.49 C396.23,707.39,396.25,707.11,396.46,706.85 C396.7,706.58,396.96,706.51,397.43,706.4 C397.57,706.37,397.92,706.29,398.02,706.26 C398.24,706.21,398.67,706.05,398.67,705.53 C398.67,704.97,398.08,704.31,397.28,704.31 C396.67,704.31,395.93,704.52,395.93,705.3 C395.93,705.36,395.95,705.52,395.97,705.64 C395.98,705.67,395.98,705.68,395.98,705.68 C395.98,705.78,395.9,705.78,395.87,705.78 C395.77,705.78,395.77,705.76,395.74,705.64 L395.38,704.25 C395.38,704.22,395.36,704.18,395.36,704.14 C395.36,704.1,395.39,704.06,395.46,704.06 C395.5,704.06,395.51,704.07,395.6,704.16 C395.67,704.24,395.86,704.46,395.93,704.54 C396.3,704.14,396.85,704.06,397.26,704.06 C398.31,704.06,399.16,704.96,399.16,705.78 C399.16,706.09,399.04,706.37,398.89,706.53 C398.64,706.78,398.54,706.8,397.64,707.01 C397.49,707.05,397.26,707.1,397.2,707.12 C397.03,707.19,396.73,707.36,396.73,707.76 C396.73,708.31,397.35,708.86,398.08,708.86 C398.83,708.86,399.19,708.44,399.19,707.78 C399.19,707.69,399.16,707.53,399.16,707.47 C399.16,707.37,399.25,707.37,399.28,707.37 C399.39,707.37,399.39,707.4,399.42,707.52 Z "
   stroke-width="0"
   fill="black"
   id="path3472" />
</g>
<g
   style="font-style:normal;font-variant:normal;font-weight:normal;font-stretch:normal;letter-spacing:normal;word-spacing:normal;text-anchor:start;fill:none;stroke:#000000;stroke-width:2.24777055;stroke-linecap:butt;stroke-linejoin:miter;stroke-miterlimit:10.43299961;stroke-opacity:1;stroke-dasharray:none;stroke-dashoffset:0"
   ns0:preamble=""
   ns0:text="$$U_S^-$$\n\n"
   text-anchor="start"
   word-spacing="normal"
   letter-spacing="normal"
   font-size-adjust="none"
   font-stretch="normal"
   font-weight="normal"
   font-variant="normal"
   font-style="normal"
   fill-opacity="1"
   fill-rule="evenodd"
   fill="none"
   stroke-opacity="1"
   stroke-dashoffset="0"
   stroke-dasharray="none"
   stroke-miterlimit="10.433"
   stroke-linejoin="miter"
   stroke-linecap="butt"
   stroke="black"
   xml:space="preserve"
   transform="matrix(1.8178225,0,0,1.7420659,-161.31065,-1199.0624)"
   id="g3663">
<path
   id="path3665"
   fill="black"
   stroke-width="0"
   d="M394.31,712.88 L394.33,712.95 L394.34,712.99 L394.35,713.03 L394.37,713.06 L394.38,713.09 L394.39,713.13 L394.41,713.16 L394.43,713.19 L394.44,713.22 L394.46,713.25 L394.49,713.28 L394.51,713.31 L394.53,713.34 L394.56,713.36 L394.59,713.39 L394.62,713.41 L394.65,713.43 L394.69,713.46 L394.72,713.48 L394.76,713.49 L394.8,713.51 L394.85,713.53 L394.9,713.54 L394.95,713.56 L395,713.57 L395.06,713.58 L395.12,713.59 L395.18,713.6 L395.24,713.61 L395.31,713.61 L395.35,713.61 L395.39,713.61 C395.44,713.61,395.56,713.62,395.56,713.81 C395.56,713.82,395.56,713.92,395.43,713.92 C395.1,713.92,394.75,713.89,394.41,713.89 C394.07,713.89,393.7,713.92,393.37,713.92 C393.31,713.92,393.19,713.92,393.19,713.72 C393.19,713.61,393.29,713.61,393.37,713.61 C393.94,713.6,394.05,713.4,394.05,713.18 C394.05,713.15,394.03,713,394.02,712.97 L393.13,709.41 C392.79,708.08,391.64,707.22,390.64,707.22 C389.96,707.22,389.43,707.65,389.43,708.51 C389.43,708.53,389.43,708.85,389.54,709.28 L390.5,713.16 C390.59,713.52,390.61,713.61,391.34,713.61 C391.6,713.61,391.68,713.61,391.68,713.81 C391.68,713.92,391.57,713.92,391.54,713.92 C391.26,713.92,390.54,713.89,390.26,713.89 C389.98,713.89,389.27,713.92,388.98,713.92 C388.9,713.92,388.79,713.92,388.79,713.72 C388.79,713.61,388.88,713.61,389.07,713.61 C389.09,713.61,389.28,713.61,389.45,713.59 C389.63,713.57,389.71,713.56,389.71,713.43 C389.71,713.38,389.61,712.96,389.55,712.73 L389.33,711.85 C389.24,711.46,388.76,709.58,388.72,709.39 C388.65,709.12,388.65,708.97,388.65,708.82 C388.65,707.6,389.56,706.91,390.6,706.91 C391.86,706.91,393.1,708.03,393.42,709.34 Z " />
<path
   id="path3667"
   fill="black"
   stroke-width="0"
   d="M401.05,712.96 L401.06,712.96 L401.07,712.96 L401.08,712.96 L401.09,712.96 L401.12,712.96 L401.13,712.96 L401.14,712.96 L401.15,712.96 L401.16,712.96 L401.18,712.96 L401.19,712.97 L401.2,712.97 L401.21,712.97 L401.22,712.98 L401.23,712.98 L401.24,712.98 L401.25,712.99 L401.26,712.99 L401.27,713 L401.28,713.01 L401.29,713.01 L401.29,713.02 L401.3,713.02 L401.3,713.03 L401.3,713.03 L401.31,713.04 L401.31,713.04 L401.31,713.05 L401.32,713.05 L401.32,713.06 L401.32,713.06 L401.32,713.07 L401.32,713.08 L401.32,713.08 L401.33,713.09 L401.33,713.1 L401.33,713.1 L401.33,713.11 L401.33,713.12 L401.33,713.13 C401.33,713.3,401.17,713.3,401.05,713.3 H396.9 C396.79,713.3,396.62,713.3,396.62,713.13 C396.62,712.96,396.78,712.96,396.9,712.96 Z " />
<path
   id="path3669"
   fill="black"
   stroke-width="0"
   d="M399.73,708.99 L399.73,709 L399.73,709 L399.73,709.01 L399.73,709.01 L399.73,709.01 L399.73,709.02 L399.72,709.02 L399.72,709.02 L399.72,709.03 L399.72,709.03 L399.72,709.04 L399.72,709.04 L399.72,709.04 L399.71,709.05 L399.71,709.05 L399.71,709.05 L399.71,709.06 L399.7,709.06 L399.7,709.06 L399.7,709.07 L399.69,709.07 L399.69,709.07 L399.69,709.07 L399.68,709.08 L399.68,709.08 L399.67,709.08 L399.67,709.08 L399.66,709.08 L399.66,709.08 L399.66,709.08 L399.65,709.08 L399.65,709.08 L399.65,709.08 L399.64,709.08 L399.64,709.08 L399.64,709.09 C399.6,709.09,399.59,709.08,399.5,708.99 L399.16,708.59 C398.89,708.96,398.45,709.09,398.03,709.09 C397.05,709.09,396.18,708.29,396.18,707.49 C396.18,707.39,396.2,707.11,396.41,706.85 C396.64,706.58,396.9,706.51,397.37,706.4 C397.51,706.37,397.86,706.29,397.97,706.26 C398.19,706.21,398.61,706.05,398.61,705.53 C398.61,704.97,398.02,704.31,397.23,704.31 C396.61,704.31,395.88,704.52,395.88,705.3 C395.88,705.36,395.89,705.52,395.92,705.64 C395.92,705.67,395.92,705.68,395.92,705.68 C395.92,705.78,395.84,705.78,395.81,705.78 C395.72,705.78,395.71,705.76,395.68,705.64 L395.33,704.25 C395.32,704.22,395.3,704.18,395.3,704.14 C395.3,704.1,395.33,704.06,395.4,704.06 C395.45,704.06,395.45,704.07,395.54,704.16 C395.62,704.24,395.8,704.46,395.88,704.54 C396.24,704.14,396.79,704.06,397.21,704.06 C398.26,704.06,399.11,704.96,399.11,705.78 C399.11,706.09,398.98,706.37,398.83,706.53 C398.59,706.78,398.48,706.8,397.58,707.01 C397.44,707.05,397.21,707.1,397.14,707.12 C396.97,707.19,396.68,707.36,396.68,707.76 C396.68,708.31,397.3,708.86,398.02,708.86 C398.77,708.86,399.14,708.44,399.14,707.78 C399.14,707.69,399.11,707.53,399.11,707.47 C399.11,707.37,399.19,707.37,399.23,707.37 C399.33,707.37,399.34,707.4,399.37,707.52 Z " />
</g>
</g></svg>