<?xml version="1.0" encoding="UTF-8" standalone="no"?>
<!-- Created with Inkscape (http://www.inkscape.org/) -->

<svg
   xmlns:dc="http://purl.org/dc/elements/1.1/"
   xmlns:cc="http://creativecommons.org/ns#"
   xmlns:rdf="http://www.w3.org/1999/02/22-rdf-syntax-ns#"
   xmlns:svg="http://www.w3.org/2000/svg"
   xmlns="http://www.w3.org/2000/svg"
   xmlns:sodipodi="http://sodipodi.sourceforge.net/DTD/sodipodi-0.dtd"
   xmlns:inkscape="http://www.inkscape.org/namespaces/inkscape"
   width="40mm"
   height="30mm"
   viewBox="0 0 40 30"
   version="1.1"
   id="svg2070"
   inkscape:version="0.92.3 (2405546, 2018-03-11)"
   sodipodi:docname="aes_fig069b.svg">
  <defs
     id="defs2064">
    <clipPath
       clipPathUnits="userSpaceOnUse"
       id="clipPath1185">
      <path
         d="m 315.08,499.82 h 242.899 v 85.05 H 315.08 Z"
         id="path1183"
         inkscape:connector-curvature="0" />
    </clipPath>
  </defs>
  <sodipodi:namedview
     id="base"
     pagecolor="#ffffff"
     bordercolor="#666666"
     borderopacity="1.0"
     inkscape:pageopacity="0.0"
     inkscape:pageshadow="2"
     inkscape:zoom="1.979899"
     inkscape:cx="120.76731"
     inkscape:cy="7.8411961"
     inkscape:document-units="mm"
     inkscape:current-layer="g1181"
     showgrid="false"
     inkscape:window-width="1844"
     inkscape:window-height="1177"
     inkscape:window-x="68"
     inkscape:window-y="-8"
     inkscape:window-maximized="1" />
  <metadata
     id="metadata2067">
    <rdf:RDF>
      <cc:Work
         rdf:about="">
        <dc:format>image/svg+xml</dc:format>
        <dc:type
           rdf:resource="http://purl.org/dc/dcmitype/StillImage" />
        <dc:title></dc:title>
      </cc:Work>
    </rdf:RDF>
  </metadata>
  <g
     inkscape:label="Vrstva 1"
     inkscape:groupmode="layer"
     id="layer1"
     transform="translate(0,-267)">
    <g
       transform="matrix(0.35277777,0,0,-0.35277777,-110.79867,473.01152)"
       id="g1179">
      <g
         id="g1181"
         clip-path="url(#clipPath1185)">
        <g
           id="g1357"
           transform="matrix(0.2395325,0,0,-0.238205,402.87838,551.92016)">
          <path
             d="M 0,0 C 25,0 45,19 45,42 45,66 25,85 0,85 H -60 V 0 H 1"
             style="fill:#ffffff;fill-opacity:1;fill-rule:evenodd;stroke:#000000;stroke-width:3;stroke-linecap:butt;stroke-linejoin:miter;stroke-miterlimit:4;stroke-dasharray:none;stroke-opacity:1"
             id="path1359"
             inkscape:connector-curvature="0" />
        </g>
        <text
           transform="scale(1.0027774,-0.9972303)"
           style="font-variant:normal;font-weight:bold;font-stretch:normal;font-size:5.73277807px;font-family:Arial;-inkscape-font-specification:Arial-BoldMT;writing-mode:lr-tb;fill:#000000;fill-opacity:1;fill-rule:nonzero;stroke:none;stroke-width:0.99723029"
           id="text1363"
           x="390.68707"
           y="-541.1488">
          <tspan
             x="390.68707 394.27008 398.81042 403.35077 405.02478"
             y="-541.1488"
             sodipodi:role="line"
             id="tspan1361"
             style="stroke-width:0.99723029">LOGIC</tspan>
        </text>
        <g
           id="g1365"
           transform="matrix(0.2395325,0,0,-0.238205,370.30199,519.52422)">
          <path
             d="M 0,0 H -31 V -93 H -57"
             style="fill:none;stroke:#000000;stroke-width:3;stroke-linecap:butt;stroke-linejoin:miter;stroke-miterlimit:14;stroke-dasharray:none;stroke-opacity:1"
             id="path1367"
             inkscape:connector-curvature="0" />
        </g>
        <g
           id="g1369"
           transform="matrix(0.2395325,0,0,-0.238205,370.30199,526.43216)">
          <path
             d="M 0,0 V 57"
             style="fill:none;stroke:#000000;stroke-width:3;stroke-linecap:butt;stroke-linejoin:miter;stroke-miterlimit:14;stroke-dasharray:none;stroke-opacity:1"
             id="path1371"
             inkscape:connector-curvature="0" />
        </g>
        <g
           id="g1373"
           transform="matrix(0.2395325,0,0,-0.238205,373.41591,526.43216)">
          <path
             d="M 0,0 V 58"
             style="fill:none;stroke:#000000;stroke-width:3;stroke-linecap:butt;stroke-linejoin:miter;stroke-miterlimit:14;stroke-dasharray:none;stroke-opacity:1"
             id="path1375"
             inkscape:connector-curvature="0" />
        </g>
        <g
           id="g1377"
           transform="matrix(0.2395325,0,0,-0.238205,379.64375,514.76012)">
          <path
             d="M 0,0 V 60 H 186"
             style="fill:none;stroke:#000000;stroke-width:3;stroke-linecap:square;stroke-linejoin:miter;stroke-miterlimit:14;stroke-dasharray:none;stroke-opacity:1"
             id="path1379"
             inkscape:connector-curvature="0" />
        </g>
        <g
           id="g1381"
           transform="matrix(0.2395325,0,0,-0.238205,379.64375,540.24805)">
          <path
             d="M 0,0 V 67"
             style="fill:none;stroke:#000000;stroke-width:3;stroke-linecap:square;stroke-linejoin:miter;stroke-miterlimit:14;stroke-dasharray:none;stroke-opacity:1"
             id="path1383"
             inkscape:connector-curvature="0" />
        </g>
        <g
           id="g1385"
           transform="matrix(0.2395325,0,0,-0.238205,379.64375,524.28832)">
          <path
             d="M 0,0 H -26"
             style="fill:none;stroke:#000000;stroke-width:3;stroke-linecap:butt;stroke-linejoin:miter;stroke-miterlimit:14;stroke-dasharray:none;stroke-opacity:1"
             id="path1387"
             inkscape:connector-curvature="0" />
        </g>
        <g
           id="g1389"
           transform="matrix(0.2395325,0,0,-0.238205,379.64375,514.76012)">
          <path
             d="M 0,0 H -26"
             style="fill:none;stroke:#000000;stroke-width:3;stroke-linecap:butt;stroke-linejoin:miter;stroke-miterlimit:14;stroke-dasharray:none;stroke-opacity:1"
             id="path1391"
             inkscape:connector-curvature="0" />
        </g>
        <g
           id="g1393"
           transform="matrix(0.2395325,0,0,-0.238205,379.64375,514.76012)">
          <path
             d="M 0,0 H -24"
             style="fill:none;stroke:#000000;stroke-width:3;stroke-linecap:butt;stroke-linejoin:miter;stroke-miterlimit:14;stroke-dasharray:none;stroke-opacity:1"
             id="path1395"
             inkscape:connector-curvature="0" />
        </g>
        <g
           id="g1397"
           transform="matrix(0.2395325,0,0,-0.238205,388.74599,541.67728)">
          <path
             d="M 0,0 H -38"
             style="fill:none;stroke:#000000;stroke-width:3;stroke-linecap:butt;stroke-linejoin:miter;stroke-miterlimit:14;stroke-dasharray:none;stroke-opacity:1"
             id="path1399"
             inkscape:connector-curvature="0" />
        </g>
        <g
           id="g1401"
           transform="matrix(0.2395325,0,0,-0.238205,339.88136,563.83035)">
          <path
             d="M 0,0 V 183"
             style="fill:none;stroke:#000000;stroke-width:3;stroke-linecap:butt;stroke-linejoin:miter;stroke-miterlimit:14;stroke-dasharray:none;stroke-opacity:1"
             id="path1403"
             inkscape:connector-curvature="0" />
        </g>
        <g
           id="g1405"
           transform="matrix(0.2395325,0,0,-0.238205,381.08092,541.67734)">
          <path
             d="m 0,0 v 0 c 0,-3 -3,-5 -6,-5 -3,0 -6,2 -6,5 0,3 3,6 6,6 3,0 6,-3 6,-6"
             style="fill:#000000;fill-opacity:1;fill-rule:nonzero;stroke:none"
             id="path1407"
             inkscape:connector-curvature="0" />
        </g>
        <g
           id="g1409"
           transform="matrix(0.2395325,0,0,-0.238205,381.08095,541.67728)">
          <path
             d="m 0,0 v 0 c 0,-3 -3,-5 -6,-5 -3,0 -6,2 -6,5 0,3 3,6 6,6 3,0 6,-3 6,-6 z"
             style="fill:none;stroke:#000000;stroke-width:2;stroke-linecap:butt;stroke-linejoin:miter;stroke-miterlimit:14;stroke-dasharray:none;stroke-opacity:1"
             id="path1411"
             inkscape:connector-curvature="0" />
        </g>
        <g
           id="g1413"
           transform="matrix(0.2395325,0,0,-0.238205,326.22801,558.82804)">
          <path
             d="M 0,0 V 144 L 127,72 Z"
             style="fill:#ffffff;fill-opacity:1;fill-rule:nonzero;stroke:none"
             id="path1415"
             inkscape:connector-curvature="0" />
        </g>
        <g
           id="g1417"
           transform="matrix(0.2395325,0,0,-0.238205,326.22801,558.82804)">
          <path
             d="M 0,0 V 144 L 127,72 Z"
             style="fill:none;stroke:#000000;stroke-width:3;stroke-linecap:butt;stroke-linejoin:miter;stroke-miterlimit:14;stroke-dasharray:none;stroke-opacity:1"
             id="path1419"
             inkscape:connector-curvature="0" />
        </g>
        <g
           id="g1421"
           transform="matrix(0.2395325,0,0,-0.238205,316.64671,550.96728)">
          <path
             d="M 0,0 H 40"
             style="fill:none;stroke:#000000;stroke-width:3;stroke-linecap:butt;stroke-linejoin:miter;stroke-miterlimit:14;stroke-dasharray:none;stroke-opacity:1"
             id="path1423"
             inkscape:connector-curvature="0" />
        </g>
        <g
           id="g1425"
           transform="matrix(0.2395325,0,0,-0.238205,316.64671,532.38729)">
          <path
             d="M 0,0 H 40"
             style="fill:none;stroke:#000000;stroke-width:3;stroke-linecap:butt;stroke-linejoin:miter;stroke-miterlimit:14;stroke-dasharray:none;stroke-opacity:1"
             id="path1427"
             inkscape:connector-curvature="0" />
        </g>
        <text
           transform="scale(1.0027774,-0.9972303)"
           style="font-variant:normal;font-weight:bold;font-stretch:normal;font-size:5.73277807px;font-family:Arial;-inkscape-font-specification:Arial-BoldMT;writing-mode:lr-tb;fill:#000000;fill-opacity:1;fill-rule:nonzero;stroke:none;stroke-width:0.99723029"
           id="text1431"
           x="327.36893"
           y="-540.82935">
          <tspan
             x="327.36893 331.82904 336.92548 340.98428 345.83994"
             y="-540.82935"
             sodipodi:role="line"
             id="tspan1429"
             style="stroke-width:0.99723029">OPAMP</tspan>
        </text>
        <g
           id="g1433"
           transform="matrix(0.2395325,0,0,-0.238205,328.14427,550.96728)">
          <path
             d="M 0,0 H 13 Z"
             style="fill:#ffffff;fill-opacity:1;fill-rule:nonzero;stroke:none"
             id="path1435"
             inkscape:connector-curvature="0" />
        </g>
        <g
           id="g1437"
           transform="matrix(0.2395325,0,0,-0.238205,328.14427,550.96728)">
          <path
             d="M 0,0 H 13"
             style="fill:none;stroke:#000000;stroke-width:3;stroke-linecap:butt;stroke-linejoin:miter;stroke-miterlimit:14;stroke-dasharray:none;stroke-opacity:1"
             id="path1439"
             inkscape:connector-curvature="0" />
        </g>
        <g
           id="g1441"
           transform="matrix(0.2395325,0,0,-0.238205,329.58146,552.63471)">
          <path
             d="M 0,0 V 13 Z"
             style="fill:#ffffff;fill-opacity:1;fill-rule:nonzero;stroke:none"
             id="path1443"
             inkscape:connector-curvature="0" />
        </g>
        <g
           id="g1445"
           transform="matrix(0.2395325,0,0,-0.238205,329.58146,552.63471)">
          <path
             d="M 0,0 V 13"
             style="fill:none;stroke:#000000;stroke-width:3;stroke-linecap:butt;stroke-linejoin:miter;stroke-miterlimit:14;stroke-dasharray:none;stroke-opacity:1"
             id="path1447"
             inkscape:connector-curvature="0" />
        </g>
        <g
           id="g1449"
           transform="matrix(0.2395325,0,0,-0.238205,331.25819,532.14908)">
          <path
             d="M 0,0 H -12 Z"
             style="fill:#ffffff;fill-opacity:1;fill-rule:nonzero;stroke:none"
             id="path1451"
             inkscape:connector-curvature="0" />
        </g>
        <g
           id="g1453"
           transform="matrix(0.2395325,0,0,-0.238205,331.25819,532.14908)">
          <path
             d="M 0,0 H -12"
             style="fill:none;stroke:#000000;stroke-width:3;stroke-linecap:butt;stroke-linejoin:miter;stroke-miterlimit:14;stroke-dasharray:none;stroke-opacity:1"
             id="path1455"
             inkscape:connector-curvature="0" />
        </g>
        <g
           id="g1457"
           transform="matrix(0.2395325,0,0,-0.238205,380.12282,564.78317)">
          <path
             d="M 0,0 V 35 L -5,34 V -2 Z"
             style="fill:#ffffff;fill-opacity:1;fill-rule:nonzero;stroke:none"
             id="path1459"
             inkscape:connector-curvature="0" />
        </g>
        <g
           id="g1461"
           transform="matrix(0.2395325,0,0,-0.238205,379.40422,541.67728)">
          <path
             d="m 0,0 v -61 l -4,-3 10,-6 -10,-5 10,-6 -10,-6 10,-6 -6,-3 v -45 h 187"
             style="fill:none;stroke:#000000;stroke-width:3;stroke-linecap:butt;stroke-linejoin:miter;stroke-miterlimit:14;stroke-dasharray:none;stroke-opacity:1"
             id="path1463"
             inkscape:connector-curvature="0" />
        </g>
        <g
           id="g1465"
           transform="matrix(0.2395325,0,0,-0.238205,400.48308,500.46782)">
          <path
             d="m 0,0 v 0 c 0,-3 -3,-6 -6,-6 -3,0 -6,3 -6,6 0,3 3,6 6,6 3,0 6,-3 6,-6"
             style="fill:#000000;fill-opacity:1;fill-rule:nonzero;stroke:none"
             id="path1467"
             inkscape:connector-curvature="0" />
        </g>
        <g
           id="g1469"
           transform="matrix(0.2395325,0,0,-0.238205,400.48308,500.46782)">
          <path
             d="m 0,0 v 0 c 0,-3 -3,-6 -6,-6 -3,0 -6,3 -6,6 0,3 3,6 6,6 3,0 6,-3 6,-6 z"
             style="fill:none;stroke:#000000;stroke-width:2;stroke-linecap:butt;stroke-linejoin:miter;stroke-miterlimit:14;stroke-dasharray:none;stroke-opacity:1"
             id="path1471"
             inkscape:connector-curvature="0" />
        </g>
        <g
           id="g1473"
           transform="matrix(0.2395325,0,0,-0.238205,400.48308,575.02598)">
          <path
             d="m 0,0 v 0 c 0,-3 -3,-6 -6,-6 -3,0 -6,3 -6,6 0,3 3,5 6,5 3,0 6,-2 6,-5"
             style="fill:#000000;fill-opacity:1;fill-rule:nonzero;stroke:none"
             id="path1475"
             inkscape:connector-curvature="0" />
        </g>
        <g
           id="g1477"
           transform="matrix(0.2395325,0,0,-0.238205,400.48308,575.02598)">
          <path
             d="m 0,0 v 0 c 0,-3 -3,-6 -6,-6 -3,0 -6,3 -6,6 0,3 3,5 6,5 3,0 6,-2 6,-5 z"
             style="fill:none;stroke:#000000;stroke-width:2;stroke-linecap:butt;stroke-linejoin:miter;stroke-miterlimit:14;stroke-dasharray:none;stroke-opacity:1"
             id="path1479"
             inkscape:connector-curvature="0" />
        </g>
        <text
           transform="scale(1.0027774,-0.9972303)"
           style="font-variant:normal;font-weight:bold;font-stretch:normal;font-size:5.73277807px;font-family:Arial;-inkscape-font-specification:Arial-BoldMT;writing-mode:lr-tb;fill:#000000;fill-opacity:1;fill-rule:nonzero;stroke:none;stroke-width:0.99723029"
           id="text1483"
           x="333.3555"
           y="-568.5376">
          <tspan
             x="333.3555 336.69772"
             y="-568.5376"
             sodipodi:role="line"
             id="tspan1481"
             style="stroke-width:0.99723029">+V</tspan>
        </text>
        <text
           transform="scale(1.0027774,-0.9972303)"
           style="font-variant:normal;font-weight:bold;font-stretch:normal;font-size:4.77733135px;font-family:Arial;-inkscape-font-specification:Arial-BoldMT;writing-mode:lr-tb;fill:#000000;fill-opacity:1;fill-rule:nonzero;stroke:none;stroke-width:0.99723035"
           id="text1487"
           x="340.5271"
           y="-567.10437">
          <tspan
             x="340.5271"
             y="-567.10437"
             id="tspan1485"
             style="stroke-width:0.99723035">A</tspan>
        </text>
        <text
           transform="scale(1.0027774,-0.9972303)"
           style="font-variant:normal;font-weight:bold;font-stretch:normal;font-size:5.73277807px;font-family:Arial;-inkscape-font-specification:Arial-BoldMT;writing-mode:lr-tb;fill:#000000;fill-opacity:1;fill-rule:nonzero;stroke:none;stroke-width:0.99723029"
           id="text1491"
           x="333.43579"
           y="-514.71472">
          <tspan
             x="333.43579 336.54294"
             y="-514.71472"
             sodipodi:role="line"
             id="tspan1489"
             style="stroke-width:0.99723029">–V</tspan>
        </text>
        <text
           transform="scale(1.0027774,-0.9972303)"
           style="font-variant:normal;font-weight:bold;font-stretch:normal;font-size:4.77733135px;font-family:Arial;-inkscape-font-specification:Arial-BoldMT;writing-mode:lr-tb;fill:#000000;fill-opacity:1;fill-rule:nonzero;stroke:none;stroke-width:0.99723035"
           id="text1495"
           x="340.44772"
           y="-513.28149">
          <tspan
             x="340.44772"
             y="-513.28149"
             id="tspan1493"
             style="stroke-width:0.99723035">A</tspan>
        </text>
        <text
           transform="scale(1.0027774,-0.9972303)"
           style="font-variant:normal;font-weight:bold;font-stretch:normal;font-size:5.73277807px;font-family:Arial;-inkscape-font-specification:Arial-BoldMT;writing-mode:lr-tb;fill:#000000;fill-opacity:1;fill-rule:nonzero;stroke:none;stroke-width:0.99723029"
           id="text1499"
           x="368.41183"
           y="-561.53168">
          <tspan
             x="368.41183"
             y="-561.53168"
             id="tspan1497"
             style="stroke-width:0.99723029">R</tspan>
        </text>
        <text
           transform="scale(1.0027774,-0.9972303)"
           style="font-variant:normal;font-weight:bold;font-stretch:normal;font-size:4.77733135px;font-family:Arial;-inkscape-font-specification:Arial-BoldMT;writing-mode:lr-tb;fill:#000000;fill-opacity:1;fill-rule:nonzero;stroke:none;stroke-width:0.99723035"
           id="text1503"
           x="372.55185"
           y="-560.09839">
          <tspan
             x="372.55185"
             y="-560.09839"
             id="tspan1501"
             style="stroke-width:0.99723035">L</tspan>
        </text>
        <text
           transform="scale(1.0027774,-0.9972303)"
           style="font-variant:normal;font-weight:bold;font-stretch:normal;font-size:5.73277807px;font-family:Arial;-inkscape-font-specification:Arial-BoldMT;writing-mode:lr-tb;fill:#000000;fill-opacity:1;fill-rule:nonzero;stroke:none;stroke-width:0.99723029"
           id="text1507"
           x="410.6864"
           y="-580.32208">
          <tspan
             x="410.6864 414.02863"
             y="-580.32208"
             sodipodi:role="line"
             id="tspan1505"
             style="stroke-width:0.99723029">+V</tspan>
        </text>
        <text
           transform="scale(1.0027774,-0.9972303)"
           style="font-variant:normal;font-weight:bold;font-stretch:normal;font-size:4.77733135px;font-family:Arial;-inkscape-font-specification:Arial-BoldMT;writing-mode:lr-tb;fill:#000000;fill-opacity:1;fill-rule:nonzero;stroke:none;stroke-width:0.99723035"
           id="text1511"
           x="417.85803"
           y="-578.88885">
          <tspan
             x="417.85803"
             y="-578.88885"
             id="tspan1509"
             style="stroke-width:0.99723035">L</tspan>
        </text>
        <text
           transform="scale(1.0027774,-0.9972303)"
           style="font-variant:normal;font-weight:bold;font-stretch:normal;font-size:5.73277807px;font-family:Arial;-inkscape-font-specification:Arial-BoldMT;writing-mode:lr-tb;fill:#000000;fill-opacity:1;fill-rule:nonzero;stroke:none;stroke-width:0.99723029"
           id="text1515"
           x="410.76672"
           y="-505.7963">
          <tspan
             x="410.76672 413.8739"
             y="-505.7963"
             sodipodi:role="line"
             id="tspan1513"
             style="stroke-width:0.99723029">–V</tspan>
        </text>
        <text
           transform="scale(1.0027774,-0.9972303)"
           style="font-variant:normal;font-weight:bold;font-stretch:normal;font-size:4.77733135px;font-family:Arial;-inkscape-font-specification:Arial-BoldMT;writing-mode:lr-tb;fill:#000000;fill-opacity:1;fill-rule:nonzero;stroke:none;stroke-width:0.99723035"
           id="text1519"
           x="417.77875"
           y="-504.36313">
          <tspan
             x="417.77875"
             y="-504.36313"
             id="tspan1517"
             style="stroke-width:0.99723035">L</tspan>
        </text>
        <g
           id="g1521"
           transform="matrix(0.2395325,0,0,-0.238205,399.04589,575.50227)">
          <path
             d="M 0,0 V 98"
             style="fill:none;stroke:#000000;stroke-width:3;stroke-linecap:butt;stroke-linejoin:miter;stroke-miterlimit:14;stroke-dasharray:none;stroke-opacity:1"
             id="path1523"
             inkscape:connector-curvature="0" />
        </g>
        <g
           id="g1525"
           transform="matrix(0.2395325,0,0,-0.238205,399.04589,531.67255)">
          <path
             d="M 0,0 V 131"
             style="fill:none;stroke:#000000;stroke-width:3;stroke-linecap:butt;stroke-linejoin:miter;stroke-miterlimit:14;stroke-dasharray:none;stroke-opacity:1"
             id="path1527"
             inkscape:connector-curvature="0" />
        </g>
        <g
           id="g1529"
           transform="matrix(0.2395325,0,0,-0.238205,414.13643,541.67716)">
          <path
             d="M 0,0 H 42"
             style="fill:none;stroke:#000000;stroke-width:3;stroke-linecap:square;stroke-linejoin:miter;stroke-miterlimit:14;stroke-dasharray:none;stroke-opacity:1"
             id="path1531"
             inkscape:connector-curvature="0" />
        </g>
      </g>
    </g>
  </g>
</svg>
