<?xml version="1.0" encoding="UTF-8" standalone="no"?>
<!-- Created with Inkscape (http://www.inkscape.org/) -->

<svg
   xmlns:dc="http://purl.org/dc/elements/1.1/"
   xmlns:cc="http://creativecommons.org/ns#"
   xmlns:rdf="http://www.w3.org/1999/02/22-rdf-syntax-ns#"
   xmlns:svg="http://www.w3.org/2000/svg"
   xmlns="http://www.w3.org/2000/svg"
   xmlns:sodipodi="http://sodipodi.sourceforge.net/DTD/sodipodi-0.dtd"
   xmlns:inkscape="http://www.inkscape.org/namespaces/inkscape"
   id="svg2984"
   version="1.1"
   inkscape:version="0.48.0 r9654"
   width="140"
   height="175"
   xml:space="preserve"
   sodipodi:docname="patocka_dolni_spinac.pdf"><title
     id="title3164">Dolni spinac</title><metadata
     id="metadata2990"><rdf:RDF><cc:Work
         rdf:about=""><dc:format>image/svg+xml</dc:format><dc:type
           rdf:resource="http://purl.org/dc/dcmitype/StillImage" /><dc:title>Dolni spinac</dc:title></cc:Work></rdf:RDF></metadata><defs
     id="defs2988" /><sodipodi:namedview
     pagecolor="#ffffff"
     bordercolor="#666666"
     borderopacity="1"
     objecttolerance="10"
     gridtolerance="10"
     guidetolerance="10"
     inkscape:pageopacity="0"
     inkscape:pageshadow="2"
     inkscape:window-width="640"
     inkscape:window-height="480"
     id="namedview2986"
     showgrid="false"
     inkscape:zoom="1.3828571"
     inkscape:cx="70"
     inkscape:cy="87.5"
     inkscape:window-x="0"
     inkscape:window-y="0"
     inkscape:window-maximized="0"
     inkscape:current-layer="g2992" /><g
     id="g2992"
     inkscape:groupmode="layer"
     inkscape:label="patocka_dolni_spinac"
     transform="matrix(1.25,0,0,-1.25,0,175)"><g
       id="g2994"><g
         id="g2996"
         transform="matrix(1,0,0,-1,0,140)"><path
           d="m 46.77,8.18 0,68.402"
           style="fill:none;stroke:#000000;stroke-opacity:1;stroke-width:2.16;stroke-linecap:round;stroke-linejoin:round;stroke-miterlimit:10;stroke-dasharray:none"
           id="path2998" /></g><g
         id="g3000"
         transform="matrix(1,0,0,-1,0,140)"><path
           d="m 46.77,28.582 -7.797,15.598 15.597,0 -7.8,-15.598 z"
           style="fill:#ffffff;fill-opacity:1;fill-rule:evenodd;stroke:#000000;stroke-opacity:1;stroke-width:2.16;stroke-linecap:round;stroke-linejoin:round;stroke-miterlimit:10;stroke-dasharray:none"
           id="path3002" /></g><g
         id="g3004"
         transform="matrix(1,0,0,-1,0,140)"><path
           d="m 39.57,28.582 14.403,0"
           style="fill:none;stroke:#000000;stroke-opacity:1;stroke-width:2.16;stroke-linecap:round;stroke-linejoin:round;stroke-miterlimit:10;stroke-dasharray:none"
           id="path3006" /></g><g
         id="g3008"
         transform="matrix(1,0,0,-1,0,140)"><path
           d="m 46.77,76.582 43.203,0"
           style="fill:none;stroke:#000000;stroke-opacity:1;stroke-width:2.16;stroke-linecap:round;stroke-linejoin:round;stroke-miterlimit:10;stroke-dasharray:none"
           id="path3010" /></g><g
         id="g3012"
         transform="matrix(1,0,0,-1,0,140)"><path
           d="m 46.77,8.18 43.203,0"
           style="fill:none;stroke:#000000;stroke-opacity:1;stroke-width:2.16;stroke-linecap:round;stroke-linejoin:round;stroke-miterlimit:10;stroke-dasharray:none"
           id="path3014" /></g><g
         id="g3016"
         transform="matrix(1,0,0,-1,0,140)"><path
           d="m 93.582,7.219 c 0,-1.957 -1.582,-3.547 -3.539,-3.547 -1.961,0 -3.543,1.59 -3.543,3.547 0,1.953 1.582,3.543 3.543,3.543 1.957,0 3.539,-1.59 3.539,-3.543 z"
           style="fill:#ffffff;fill-opacity:1;fill-rule:evenodd;stroke:#000000;stroke-opacity:1;stroke-width:2.16;stroke-linecap:round;stroke-linejoin:round;stroke-miterlimit:10;stroke-dasharray:none"
           id="path3018" /></g><g
         id="g3020"
         transform="matrix(1,0,0,-1,0,140)"><path
           d="m 92.883,76.672 c 0,-1.961 -1.59,-3.551 -3.551,-3.551 -1.949,0 -3.539,1.59 -3.539,3.551 0,1.949 1.59,3.539 3.539,3.539 1.961,0 3.551,-1.59 3.551,-3.539 z"
           style="fill:#ffffff;fill-opacity:1;fill-rule:evenodd;stroke:#000000;stroke-opacity:1;stroke-width:2.16;stroke-linecap:round;stroke-linejoin:round;stroke-miterlimit:10;stroke-dasharray:none"
           id="path3022" /></g><g
         id="g3024"
         transform="matrix(1,0,0,-1,0,140)"><path
           d="m 46.77,133.582 43.203,0"
           style="fill:none;stroke:#000000;stroke-opacity:1;stroke-width:2.16;stroke-linecap:round;stroke-linejoin:round;stroke-miterlimit:10;stroke-dasharray:none"
           id="path3026" /></g><g
         id="g3028"
         transform="matrix(1,0,0,-1,0,140)"><path
           d="m 92.883,133.359 c 0,-1.957 -1.59,-3.546 -3.551,-3.546 -1.949,0 -3.539,1.589 -3.539,3.546 0,1.961 1.59,3.543 3.539,3.543 1.961,0 3.551,-1.582 3.551,-3.543 z"
           style="fill:#ffffff;fill-opacity:1;fill-rule:evenodd;stroke:#000000;stroke-opacity:1;stroke-width:2.16;stroke-linecap:round;stroke-linejoin:round;stroke-miterlimit:10;stroke-dasharray:none"
           id="path3030" /></g><text
         transform="matrix(1,0,0,-1,100.32131,127.08926)"
         id="text3032"><tspan
           style="fill:#9d3d35;fill-opacity:1;fill-rule:nonzero;stroke:none;font-family:Arial;font-variant:normal;font-weight:normal;font-size:13.99968;writing-mode:lr;-inkscape-font-specification:Arial"
           x="0"
           y="0"
           id="tspan3034">1</tspan><tspan
           style="fill:#9d3d35;fill-opacity:1;fill-rule:nonzero;stroke:none;font-family:Arial;font-variant:normal;font-weight:normal;font-size:13.99968;writing-mode:lr;-inkscape-font-specification:Arial"
           x="-1.4200015"
           y="65.039993"
           id="tspan3036">3</tspan><tspan
           style="fill:#9d3d35;fill-opacity:1;fill-rule:nonzero;stroke:none;font-family:Arial;font-variant:normal;font-weight:normal;font-size:13.99968;writing-mode:lr;-inkscape-font-specification:Arial"
           x="-1.4200015"
           y="124.65"
           id="tspan3038">2</tspan></text>
<text
         transform="matrix(1,0,0,-1,16.221315,96.279295)"
         id="text3040"><tspan
           style="fill:#000000;fill-opacity:1;fill-rule:nonzero;stroke:none;font-family:Arial;font-variant:normal;font-weight:normal;font-size:18;writing-mode:lr;-inkscape-font-specification:Arial"
           x="0"
           y="0"
           id="tspan3042">D</tspan></text>
<g
         id="g3044"
         transform="matrix(1,0,0,-1,0,140)"><path
           d="m 82.953,83.75 c -12.101,0 -22.863,5.762 -26.801,14.352"
           style="fill:none;stroke:#285ea6;stroke-opacity:1;stroke-width:2.16;stroke-linecap:round;stroke-linejoin:round;stroke-miterlimit:10;stroke-dasharray:none"
           id="path3046" /></g><path
         d="m 54.57,35.219 -2.398,10.199 -0.09,-0.277 c 2.551,-2.082 5.938,-2.832 9.129,-2.032 L 61.172,43.02 54.57,35.219 z"
         style="fill:#285ea6;fill-opacity:1;fill-rule:evenodd;stroke:none"
         id="path3048" /><path
         d="M 82.953,70.418 C 70.852,70.418 60.09,76.18 56.152,84.77"
         style="fill:none;stroke:#285ea6;stroke-opacity:1;stroke-width:2.16;stroke-linecap:round;stroke-linejoin:round;stroke-miterlimit:10;stroke-dasharray:2.16,4.32;stroke-dashoffset:0"
         id="path3050" /><path
         d="m 54.57,91.621 -2.398,-10.203 -0.09,0.113 c 2.551,2.078 5.938,2.828 9.129,2.028 l -0.039,0.261 -6.602,7.801 z"
         style="fill:#285ea6;fill-opacity:1;fill-rule:evenodd;stroke:none"
         id="path3052" /><g
         id="g3054"
         transform="matrix(1,0,0,-1,0,140)"><path
           d="m 4.172,117.379 21,0 0,-24"
           style="fill:none;stroke:#000000;stroke-opacity:1;stroke-width:2.16;stroke-linecap:round;stroke-linejoin:round;stroke-miterlimit:10;stroke-dasharray:none"
           id="path3056" /></g><g
         id="g3058"
         transform="matrix(1,0,0,-1,0,140)"><path
           d="m 30.57,93.379 0,5.402"
           style="fill:none;stroke:#000000;stroke-opacity:1;stroke-width:2.16;stroke-linecap:round;stroke-linejoin:round;stroke-miterlimit:10;stroke-dasharray:none"
           id="path3060" /></g><g
         id="g3062"
         transform="matrix(1,0,0,-1,0,140)"><path
           d="m 30.57,96.379 16.2,0"
           style="fill:none;stroke:#000000;stroke-opacity:1;stroke-width:2.16;stroke-linecap:round;stroke-linejoin:round;stroke-miterlimit:10;stroke-dasharray:none"
           id="path3064" /></g><g
         id="g3066"
         transform="matrix(1,0,0,-1,0,140)"><path
           d="m 30.57,111.98 0,5.399"
           style="fill:none;stroke:#000000;stroke-opacity:1;stroke-width:2.16;stroke-linecap:round;stroke-linejoin:round;stroke-miterlimit:10;stroke-dasharray:none"
           id="path3068" /></g><g
         id="g3070"
         transform="matrix(1,0,0,-1,0,140)"><path
           d="m 30.57,114.98 16.2,0"
           style="fill:none;stroke:#000000;stroke-opacity:1;stroke-width:2.16;stroke-linecap:round;stroke-linejoin:round;stroke-miterlimit:10;stroke-dasharray:none"
           id="path3072" /></g><g
         id="g3074"
         transform="matrix(1,0,0,-1,0,140)"><path
           d="m 30.57,111.98 0,5.399"
           style="fill:none;stroke:#000000;stroke-opacity:1;stroke-width:2.16;stroke-linecap:round;stroke-linejoin:round;stroke-miterlimit:10;stroke-dasharray:none"
           id="path3076" /></g><g
         id="g3078"
         transform="matrix(1,0,0,-1,0,140)"><path
           d="m 30.57,114.98 16.2,0"
           style="fill:none;stroke:#000000;stroke-opacity:1;stroke-width:2.16;stroke-linecap:round;stroke-linejoin:round;stroke-miterlimit:10;stroke-dasharray:none"
           id="path3080" /></g><g
         id="g3082"
         transform="matrix(1,0,0,-1,0,140)"><path
           d="m 30.57,111.98 0,5.399"
           style="fill:none;stroke:#000000;stroke-opacity:1;stroke-width:2.16;stroke-linecap:round;stroke-linejoin:round;stroke-miterlimit:10;stroke-dasharray:none"
           id="path3084" /></g><g
         id="g3086"
         transform="matrix(1,0,0,-1,0,140)"><path
           d="m 30.57,114.98 16.2,0"
           style="fill:none;stroke:#000000;stroke-opacity:1;stroke-width:2.16;stroke-linecap:round;stroke-linejoin:round;stroke-miterlimit:10;stroke-dasharray:none"
           id="path3088" /></g><g
         id="g3090"
         transform="matrix(1,0,0,-1,0,140)"><path
           d="m 30.57,111.98 0,5.399"
           style="fill:none;stroke:#000000;stroke-opacity:1;stroke-width:2.16;stroke-linecap:round;stroke-linejoin:round;stroke-miterlimit:10;stroke-dasharray:none"
           id="path3092" /></g><g
         id="g3094"
         transform="matrix(1,0,0,-1,0,140)"><path
           d="m 30.57,114.98 16.2,0"
           style="fill:none;stroke:#000000;stroke-opacity:1;stroke-width:2.16;stroke-linecap:round;stroke-linejoin:round;stroke-miterlimit:10;stroke-dasharray:none"
           id="path3096" /></g><g
         id="g3098"
         transform="matrix(1,0,0,-1,0,140)"><path
           d="m 30.57,111.98 0,5.399"
           style="fill:none;stroke:#000000;stroke-opacity:1;stroke-width:2.16;stroke-linecap:round;stroke-linejoin:round;stroke-miterlimit:10;stroke-dasharray:none"
           id="path3100" /></g><g
         id="g3102"
         transform="matrix(1,0,0,-1,0,140)"><path
           d="m 30.57,114.98 16.2,0"
           style="fill:none;stroke:#000000;stroke-opacity:1;stroke-width:2.16;stroke-linecap:round;stroke-linejoin:round;stroke-miterlimit:10;stroke-dasharray:none"
           id="path3104" /></g><g
         id="g3106"
         transform="matrix(1,0,0,-1,0,140)"><path
           d="m 30.57,111.98 0,5.399"
           style="fill:none;stroke:#000000;stroke-opacity:1;stroke-width:2.16;stroke-linecap:round;stroke-linejoin:round;stroke-miterlimit:10;stroke-dasharray:none"
           id="path3108" /></g><g
         id="g3110"
         transform="matrix(1,0,0,-1,0,140)"><path
           d="m 30.57,114.98 16.2,0"
           style="fill:none;stroke:#000000;stroke-opacity:1;stroke-width:2.16;stroke-linecap:round;stroke-linejoin:round;stroke-miterlimit:10;stroke-dasharray:none"
           id="path3112" /></g><g
         id="g3114"
         transform="matrix(1,0,0,-1,0,140)"><path
           d="m 30.57,102.98 0,5.399"
           style="fill:none;stroke:#000000;stroke-opacity:1;stroke-width:2.16;stroke-linecap:round;stroke-linejoin:round;stroke-miterlimit:10;stroke-dasharray:none"
           id="path3116" /></g><g
         id="g3118"
         transform="matrix(1,0,0,-1,0,140)"><path
           d="m 30.57,105.98 16.2,0"
           style="fill:none;stroke:#000000;stroke-opacity:1;stroke-width:2.16;stroke-linecap:round;stroke-linejoin:round;stroke-miterlimit:10;stroke-dasharray:none"
           id="path3120" /></g><g
         id="g3122"
         transform="matrix(1,0,0,-1,0,140)"><path
           d="m 30.57,102.98 0,5.399"
           style="fill:none;stroke:#000000;stroke-opacity:1;stroke-width:2.16;stroke-linecap:round;stroke-linejoin:round;stroke-miterlimit:10;stroke-dasharray:none"
           id="path3124" /></g><g
         id="g3126"
         transform="matrix(1,0,0,-1,0,140)"><path
           d="m 30.57,105.98 16.2,0"
           style="fill:none;stroke:#000000;stroke-opacity:1;stroke-width:2.16;stroke-linecap:round;stroke-linejoin:round;stroke-miterlimit:10;stroke-dasharray:none"
           id="path3128" /></g><g
         id="g3130"
         transform="matrix(1,0,0,-1,0,140)"><path
           d="m 30.57,102.98 0,5.399"
           style="fill:none;stroke:#000000;stroke-opacity:1;stroke-width:2.16;stroke-linecap:round;stroke-linejoin:round;stroke-miterlimit:10;stroke-dasharray:none"
           id="path3132" /></g><g
         id="g3134"
         transform="matrix(1,0,0,-1,0,140)"><path
           d="m 43.172,105.98 3.598,0"
           style="fill:none;stroke:#000000;stroke-opacity:1;stroke-width:2.16;stroke-linecap:round;stroke-linejoin:round;stroke-miterlimit:10;stroke-dasharray:none"
           id="path3136" /></g><path
         d="m 44.371,29.82 -13.801,4.2 13.801,4.8 0,-9 z"
         style="fill:#000000;fill-opacity:1;fill-rule:evenodd;stroke:none"
         id="path3138" /><g
         id="g3140"
         transform="matrix(1,0,0,-1,0,140)"><path
           d="m 46.77,105.98 0,16.2"
           style="fill:none;stroke:#000000;stroke-opacity:1;stroke-width:2.16;stroke-linecap:round;stroke-linejoin:round;stroke-miterlimit:10;stroke-dasharray:none"
           id="path3142" /></g><g
         id="g3144"
         transform="matrix(1,0,0,-1,0,140)"><path
           d="m 46.77,96.379 0,-7.797"
           style="fill:none;stroke:#000000;stroke-opacity:1;stroke-width:2.16;stroke-linecap:round;stroke-linejoin:round;stroke-miterlimit:10;stroke-dasharray:none"
           id="path3146" /></g><g
         id="g3148"
         transform="matrix(1,0,0,-1,0,140)"><path
           d="m 46.77,62.18 0,26.402"
           style="fill:none;stroke:#000000;stroke-opacity:1;stroke-width:2.16;stroke-linecap:round;stroke-linejoin:round;stroke-miterlimit:10;stroke-dasharray:none"
           id="path3150" /></g><g
         id="g3152"
         transform="matrix(1,0,0,-1,0,140)"><path
           d="m 49.691,76.789 c 0,-1.547 -1.25,-2.797 -2.8,-2.797 -1.551,0 -2.801,1.25 -2.801,2.797 0,1.551 1.25,2.801 2.801,2.801 1.55,0 2.8,-1.25 2.8,-2.801 z"
           style="fill:#000000;fill-opacity:1;fill-rule:evenodd;stroke:#000000;stroke-opacity:1;stroke-width:2.16;stroke-linecap:round;stroke-linejoin:round;stroke-miterlimit:10;stroke-dasharray:none"
           id="path3154" /></g><text
         transform="matrix(1,0,0,-1,10.131316,50.419285)"
         id="text3156"><tspan
           style="fill:#000000;fill-opacity:1;fill-rule:nonzero;stroke:none;font-family:Arial;font-variant:normal;font-weight:normal;font-size:18;writing-mode:lr;-inkscape-font-specification:Arial"
           x="0"
           y="0"
           id="tspan3158">T</tspan></text>
<g
         id="g3160"
         transform="matrix(1,0,0,-1,0,140)"><path
           d="m 46.77,118.582 0,15"
           style="fill:none;stroke:#000000;stroke-opacity:1;stroke-width:2.16;stroke-linecap:round;stroke-linejoin:round;stroke-miterlimit:10;stroke-dasharray:none"
           id="path3162" /></g></g></g></svg>