<?xml version="1.0" encoding="UTF-8" standalone="no"?>
<!-- Created with Inkscape (http://www.inkscape.org/) -->

<svg
   xmlns:ns0="http://www.iki.fi/pav/software/textext/"
   xmlns:dc="http://purl.org/dc/elements/1.1/"
   xmlns:cc="http://creativecommons.org/ns#"
   xmlns:rdf="http://www.w3.org/1999/02/22-rdf-syntax-ns#"
   xmlns:svg="http://www.w3.org/2000/svg"
   xmlns="http://www.w3.org/2000/svg"
   xmlns:sodipodi="http://sodipodi.sourceforge.net/DTD/sodipodi-0.dtd"
   xmlns:inkscape="http://www.inkscape.org/namespaces/inkscape"
   id="svg2"
   version="1.1"
   inkscape:version="0.48.1 "
   width="260"
   height="220"
   xml:space="preserve"
   sodipodi:docname="DA_doba_Tu.svg"><sodipodi:namedview
     pagecolor="#ffffff"
     bordercolor="#666666"
     borderopacity="1"
     objecttolerance="10"
     gridtolerance="10"
     guidetolerance="10"
     inkscape:pageopacity="0"
     inkscape:pageshadow="2"
     inkscape:window-width="1920"
     inkscape:window-height="1125"
     id="namedview4"
     showgrid="false"
     inkscape:zoom="4.1318182"
     inkscape:cx="154.18332"
     inkscape:cy="59.736363"
     inkscape:window-x="-9"
     inkscape:window-y="-9"
     inkscape:window-maximized="1"
     inkscape:current-layer="g12" /><metadata
     id="metadata8"><rdf:RDF><cc:Work
         rdf:about=""><dc:format>image/svg+xml</dc:format><dc:type
           rdf:resource="http://purl.org/dc/dcmitype/StillImage" /><dc:title></dc:title></cc:Work></rdf:RDF></metadata><defs
     id="defs6"><marker
       inkscape:stockid="Arrow1Lend"
       orient="auto"
       refY="0"
       refX="0"
       id="Arrow1Lend"
       style="overflow:visible"><path
         id="path5033"
         d="M 0,0 5,-5 -12.5,0 5,5 0,0 z"
         style="fill-rule:evenodd;stroke:#000000;stroke-width:1pt;marker-start:none"
         transform="matrix(-0.8,0,0,-0.8,-10,0)"
         inkscape:connector-curvature="0" /></marker><marker
       inkscape:stockid="Arrow1Lstart"
       orient="auto"
       refY="0"
       refX="0"
       id="Arrow1Lstart"
       style="overflow:visible"><path
         id="path5030"
         d="M 0,0 5,-5 -12.5,0 5,5 0,0 z"
         style="fill-rule:evenodd;stroke:#000000;stroke-width:1pt;marker-start:none"
         transform="matrix(0.8,0,0,0.8,10,0)"
         inkscape:connector-curvature="0" /></marker><marker
       style="overflow:visible"
       id="Arrow1Mstart"
       refX="0"
       refY="0"
       orient="auto"
       inkscape:stockid="Arrow1Mstart"><path
         transform="matrix(0.4,0,0,0.4,4,0)"
         style="fill-rule:evenodd;stroke:#000000;stroke-width:1pt;marker-start:none"
         d="M 0,0 5,-5 -12.5,0 5,5 0,0 z"
         id="path5036"
         inkscape:connector-curvature="0" /></marker><inkscape:path-effect
       is_visible="true"
       id="path-effect5025"
       effect="spiro" /><marker
       style="overflow:visible"
       id="Arrow1Mstart-5"
       refX="0"
       refY="0"
       orient="auto"
       inkscape:stockid="Arrow1Mstart"><path
         transform="matrix(0.4,0,0,0.4,4,0)"
         style="fill-rule:evenodd;stroke:#000000;stroke-width:1pt;marker-start:none"
         d="M 0,0 5,-5 -12.5,0 5,5 0,0 z"
         id="path5036-2"
         inkscape:connector-curvature="0" /></marker><inkscape:path-effect
       is_visible="true"
       id="path-effect5025-5"
       effect="spiro" /><marker
       style="overflow:visible"
       id="Arrow1Mstart-9"
       refX="0"
       refY="0"
       orient="auto"
       inkscape:stockid="Arrow1Mstart"><path
         transform="matrix(0.4,0,0,0.4,4,0)"
         style="fill-rule:evenodd;stroke:#000000;stroke-width:1pt;marker-start:none"
         d="M 0,0 5,-5 -12.5,0 5,5 0,0 z"
         id="path5036-3"
         inkscape:connector-curvature="0" /></marker><inkscape:path-effect
       is_visible="true"
       id="path-effect5025-8"
       effect="spiro" /><marker
       style="overflow:visible"
       id="Arrow1Mstart-1"
       refX="0"
       refY="0"
       orient="auto"
       inkscape:stockid="Arrow1Mstart"><path
         transform="matrix(0.4,0,0,0.4,4,0)"
         style="fill-rule:evenodd;stroke:#000000;stroke-width:1pt;marker-start:none"
         d="M 0,0 5,-5 -12.5,0 5,5 0,0 z"
         id="path5036-0"
         inkscape:connector-curvature="0" /></marker><inkscape:path-effect
       is_visible="true"
       id="path-effect5025-8-5"
       effect="spiro" /><marker
       style="overflow:visible"
       id="Arrow1Mstart-50"
       refX="0"
       refY="0"
       orient="auto"
       inkscape:stockid="Arrow1Mstart"><path
         inkscape:connector-curvature="0"
         transform="matrix(0.4,0,0,0.4,4,0)"
         style="fill-rule:evenodd;stroke:#000000;stroke-width:1pt;marker-start:none"
         d="M 0,0 5,-5 -12.5,0 5,5 0,0 z"
         id="path5036-5" /></marker><inkscape:path-effect
       is_visible="true"
       id="path-effect5025-8-5-0"
       effect="spiro" /><marker
       style="overflow:visible"
       id="Arrow1Mstart-6"
       refX="0"
       refY="0"
       orient="auto"
       inkscape:stockid="Arrow1Mstart"><path
         inkscape:connector-curvature="0"
         transform="matrix(0.4,0,0,0.4,4,0)"
         style="fill-rule:evenodd;stroke:#000000;stroke-width:1pt;marker-start:none"
         d="M 0,0 5,-5 -12.5,0 5,5 0,0 z"
         id="path5036-08" /></marker><inkscape:path-effect
       is_visible="true"
       id="path-effect5025-8-5-0-6"
       effect="spiro" /></defs><g
     transform="matrix(1.25,0,0,-1.25,0,220)"
     inkscape:label="EM4-13-zadani"
     inkscape:groupmode="layer"
     id="g10"><g
       transform="scale(0.24,0.24)"
       id="g12"><path
         inkscape:connector-curvature="0"
         id="path14"
         style="fill:none;stroke:#000000;stroke-width:2.0709703;stroke-linecap:round;stroke-linejoin:round;stroke-miterlimit:10;stroke-opacity:1;stroke-dasharray:none"
         d="m 110.33813,692.05999 0,-293.2494" /><path
         inkscape:connector-curvature="0"
         id="path16"
         style="fill:none;stroke:#000000;stroke-width:2.0709703;stroke-linecap:round;stroke-linejoin:round;stroke-miterlimit:10;stroke-opacity:1;stroke-dasharray:none"
         d="m 36.715137,471.19101 808.302223,0" /><path
         inkscape:connector-curvature="0"
         id="path18"
         style="fill:none;stroke:#000000;stroke-width:1.03507102;stroke-linecap:round;stroke-linejoin:round;stroke-miterlimit:10;stroke-opacity:1;stroke-dasharray:none"
         d="m 110.33813,325.1876 0,-294.491983" /><path
         inkscape:connector-curvature="0"
         id="path20"
         style="fill:none;stroke:#000000;stroke-width:1.03507102;stroke-linecap:round;stroke-linejoin:round;stroke-miterlimit:10;stroke-opacity:1;stroke-dasharray:none"
         d="m 36.715137,104.31861 808.302223,0" /><path
         inkscape:connector-curvature="0"
         id="path22"
         style="fill:none;stroke:#ca0000;stroke-width:3.10521293;stroke-linecap:round;stroke-linejoin:round;stroke-miterlimit:10;stroke-opacity:1;stroke-dasharray:none"
         d="m 110.33813,471.19101 163.7102,0 0,147.24598 570.96903,0" /><path
         inkscape:connector-curvature="0"
         id="path24"
         style="fill:none;stroke:#000000;stroke-width:1.03507102;stroke-linecap:round;stroke-linejoin:round;stroke-miterlimit:10;stroke-opacity:1;stroke-dasharray:1.03507096, 3.10521285;stroke-dashoffset:0"
         d="m 110.33813,251.5646 734.67923,0" /><path
         inkscape:connector-curvature="0"
         id="path26"
         style="fill:none;stroke:#000000;stroke-width:1.03507102;stroke-linecap:round;stroke-linejoin:round;stroke-miterlimit:10;stroke-opacity:1;stroke-dasharray:none"
         d="m 110.33813,266.16495 734.67923,0" /><path
         inkscape:connector-curvature="0"
         id="path28"
         style="fill:none;stroke:#000000;stroke-width:1.03507102;stroke-linecap:round;stroke-linejoin:round;stroke-miterlimit:10;stroke-opacity:1;stroke-dasharray:none"
         d="m 110.33813,236.96426 734.67923,0" /><path
         inkscape:connector-curvature="0"
         id="path34"
         style="fill:none;stroke:#00cb00;stroke-width:3.10521293;stroke-linecap:round;stroke-linejoin:round;stroke-miterlimit:10;stroke-opacity:1;stroke-dasharray:none"
         d="m 654.281,251.5646 190.73636,0" /><path
         inkscape:connector-curvature="0"
         id="path36"
         style="fill:none;stroke:#000000;stroke-width:1.03507102;stroke-linecap:round;stroke-linejoin:round;stroke-miterlimit:10;stroke-opacity:1;stroke-dasharray:1.03507096, 2.07014189;stroke-dashoffset:0"
         d="m 543.38053,266.16495 0,-161.84634" /><path
         inkscape:connector-curvature="0"
         id="path38"
         style="fill:none;stroke:#000000;stroke-width:1.03507102;stroke-linecap:round;stroke-linejoin:round;stroke-miterlimit:10;stroke-opacity:1;stroke-dasharray:1.03507096, 2.07014189;stroke-dashoffset:0"
         d="m 272.18446,471.19101 0,-366.8724" /><path
         inkscape:connector-curvature="0"
         id="path46"
         style="fill:none;stroke:#000000;stroke-width:1.03507102;stroke-linecap:round;stroke-linejoin:round;stroke-miterlimit:10;stroke-opacity:1;stroke-dasharray:1.03507096, 2.07014189;stroke-dashoffset:0"
         d="m 272.18446,618.43699 -161.84633,0" /><g
         transform="matrix(2.5887149,0,0,2.5887149,-331.45513,-1295.4086)"
         id="g62">


<text
   style="font-size:11.98589134px"
   y="-531.45398"
   x="164.64565"
   id="text94"
   transform="scale(0.99882431,-1.0011771)"><tspan
     id="tspan96"
     y="-531.45398"
     x="164.64565"
     style="font-size:9.99563408px;font-variant:normal;font-weight:normal;writing-mode:lr-tb;fill:#000000;fill-opacity:1;fill-rule:nonzero;stroke:none;font-family:TTE27CB5E8t00;-inkscape-font-specification:TTE27CB5E8t00">0</tspan></text>

<text
   transform="scale(1,-1)"
   sodipodi:linespacing="125%"
   id="text5498"
   y="-763.95294"
   x="149.97125"
   style="font-size:15.90228367px;font-style:normal;font-weight:normal;line-height:125%;letter-spacing:0px;word-spacing:0px;fill:#000000;fill-opacity:1;stroke:none;font-family:Sans"
   xml:space="preserve"><tspan
     style="font-style:oblique;font-variant:normal;font-weight:normal;font-stretch:normal;font-family:Segoe UI;-inkscape-font-specification:Segoe UI Oblique"
     y="-763.95294"
     x="149.97125"
     id="tspan5500"
     sodipodi:role="line">D</tspan></text>

<text
   transform="scale(1,-1)"
   sodipodi:linespacing="125%"
   id="text5498-6"
   y="-738.18811"
   x="142.48123"
   style="font-size:15.90228367px;font-style:normal;font-weight:normal;line-height:125%;letter-spacing:0px;word-spacing:0px;fill:#000000;fill-opacity:1;stroke:none;font-family:Sans"
   xml:space="preserve"><tspan
     style="font-style:oblique;font-variant:normal;font-weight:normal;font-stretch:normal;font-family:Segoe UI;-inkscape-font-specification:Segoe UI Oblique"
     y="-738.18811"
     x="142.48123"
     id="tspan5500-6"
     sodipodi:role="line">D<tspan
   id="tspan5523"
   style="font-size:8.26925564px;baseline-shift:sub">max</tspan></tspan></text>

<text
   transform="scale(1,-1)"
   sodipodi:linespacing="125%"
   id="text5498-6-0"
   y="-630.65155"
   x="143.77151"
   style="font-size:15.90228367px;font-style:normal;font-weight:normal;line-height:125%;letter-spacing:0px;word-spacing:0px;fill:#000000;fill-opacity:1;stroke:none;font-family:Sans"
   xml:space="preserve"><tspan
     style="font-style:oblique;font-variant:normal;font-weight:normal;font-stretch:normal;font-family:Segoe UI;-inkscape-font-specification:Segoe UI Oblique"
     y="-630.65155"
     x="143.77151"
     id="tspan5500-6-6"
     sodipodi:role="line">U<tspan
   id="tspan5523-0"
   style="font-size:8.26925564px;baseline-shift:sub">A</tspan></tspan></text>

<g
   ns0:preamble=""
   ns0:text="$$\\pm\\Delta U$$\n"
   word-spacing="normal"
   letter-spacing="normal"
   font-size-adjust="none"
   font-stretch="normal"
   font-weight="normal"
   font-variant="normal"
   font-style="normal"
   stroke-miterlimit="10.433"
   xml:space="preserve"
   transform="matrix(1.2902984,0,0,1.2902984,-82.883142,-301.87757)"
   id="content"
   style="font-style:normal;font-variant:normal;font-weight:normal;font-stretch:normal;letter-spacing:normal;word-spacing:normal;text-anchor:start;fill:none;stroke:#000000;stroke-linecap:butt;stroke-linejoin:miter;stroke-miterlimit:10.43299961;stroke-opacity:1;stroke-dasharray:none;stroke-dashoffset:0">
<path
   id="path5659"
   d="m 387.39,710.24 h 2.78 c 0.17,0 0.35,0 0.35,0.2 0,0.2 -0.18,0.2 -0.35,0.2 h -2.78 v 2.75 c 0,0.15 0,0.36 -0.19,0.36 -0.2,0 -0.2,-0.18 -0.2,-0.34 v -2.77 h -2.79 c -0.16,0 -0.34,0 -0.34,-0.2 0,-0.2 0.18,-0.2 0.34,-0.2 H 387 v -2.72 h -2.79 c -0.16,0 -0.34,0 -0.34,-0.2 0,-0.19 0.18,-0.19 0.34,-0.19 h 5.96 c 0.17,0 0.35,0 0.35,0.19 0,0.2 -0.18,0.2 -0.35,0.2 h -2.78 z"
   inkscape:connector-curvature="0"
   style="fill:#000000;stroke-width:0" />
<path
   id="path5661"
   d="m 395.47,714.07 0,0.01 -0.01,0.02 -0.01,0.01 0,0.01 -0.01,0.01 0,0.01 -0.01,0.01 0,0 -0.01,0.01 0,0.01 -0.01,0.01 -0.01,0.01 0,0 -0.01,0.01 0,0 -0.01,0.01 -0.01,0.01 0,0 -0.01,0 -0.01,0.01 -0.01,0 -0.01,0.01 0,0 -0.01,0 -0.01,0 -0.02,0.01 -0.01,0 -0.01,0 -0.01,0 -0.02,0 -0.01,0 -0.02,0 c -0.17,0 -0.19,-0.05 -0.26,-0.18 l -0.06,-0.81 2.69,-5.38 h -5.38 l 2.69,5.38 0.06,0.81 -3.37,-6.75 c -0.04,-0.09 -0.04,-0.1 -0.04,-0.11 0,-0.08 0.06,-0.08 0.22,-0.08 h 6.91 c 0.16,0 0.22,0 0.22,0.08 0,0.01 0,0.02 -0.05,0.11 z"
   inkscape:connector-curvature="0"
   style="fill:#000000;stroke-width:0" />
<path
   id="path5663"
   d="m 405.7,712.88 0.02,0.07 0.01,0.04 0.01,0.04 0.01,0.03 0.02,0.03 0.01,0.04 0.02,0.03 0.01,0.03 0.02,0.03 0.02,0.03 0.02,0.03 0.03,0.03 0.02,0.03 0.03,0.02 0.03,0.03 0.03,0.02 0.03,0.02 0.03,0.03 0.04,0.02 0.04,0.01 0.04,0.02 0.05,0.02 0.04,0.01 0.06,0.02 0.05,0.01 0.05,0.01 0.06,0.01 0.07,0.01 0.06,0.01 0.07,0 0.04,0 0.03,0 c 0.06,0 0.18,0.01 0.18,0.2 0,0.01 0,0.11 -0.13,0.11 -0.33,0 -0.68,-0.03 -1.02,-0.03 -0.34,0 -0.71,0.03 -1.04,0.03 -0.06,0 -0.18,0 -0.18,-0.2 0,-0.11 0.1,-0.11 0.18,-0.11 0.57,-0.01 0.68,-0.21 0.68,-0.43 0,-0.03 -0.02,-0.18 -0.03,-0.21 l -0.9,-3.56 c -0.34,-1.33 -1.48,-2.19 -2.48,-2.19 -0.68,0 -1.22,0.43 -1.22,1.29 0,0.02 0,0.34 0.11,0.77 l 0.97,3.88 c 0.09,0.36 0.11,0.45 0.84,0.45 0.26,0 0.34,0 0.34,0.2 0,0.11 -0.11,0.11 -0.14,0.11 -0.28,0 -1,-0.03 -1.28,-0.03 -0.29,0 -1,0.03 -1.28,0.03 -0.08,0 -0.19,0 -0.19,-0.2 0,-0.11 0.09,-0.11 0.28,-0.11 0.02,0 0.21,0 0.37,-0.02 0.18,-0.02 0.27,-0.03 0.27,-0.16 0,-0.05 -0.11,-0.47 -0.17,-0.7 l -0.22,-0.88 c -0.08,-0.39 -0.56,-2.27 -0.6,-2.46 -0.07,-0.27 -0.07,-0.42 -0.07,-0.57 0,-1.22 0.9,-1.91 1.95,-1.91 1.26,0 2.49,1.12 2.82,2.43 z"
   inkscape:connector-curvature="0"
   style="fill:#000000;stroke-width:0" />
</g>
</g><path
         inkscape:connector-curvature="0"
         id="path98"
         style="fill:none;stroke:#000000;stroke-width:1.03507102;stroke-linecap:round;stroke-linejoin:round;stroke-miterlimit:10;stroke-opacity:1;stroke-dasharray:none"
         d="m 272.18446,104.31861 0,-59.022652" /><path
         inkscape:connector-curvature="0"
         id="path100"
         style="fill:none;stroke:#000000;stroke-width:1.03507102;stroke-linecap:round;stroke-linejoin:round;stroke-miterlimit:10;stroke-opacity:1;stroke-dasharray:none"
         d="m 543.38053,104.31861 0,-59.022652" /><path
         inkscape:connector-curvature="0"
         id="path102"
         style="fill:none;stroke:#000000;stroke-width:1.03548515;stroke-linecap:round;stroke-linejoin:round;stroke-miterlimit:10;stroke-opacity:1;stroke-dasharray:none;marker-start:url(#Arrow1Lstart);marker-end:url(#Arrow1Lend)"
         d="m 272.18446,60.828235 271.19607,0" /><g
         transform="matrix(3.2813179,0,0,3.2813179,-543.58874,-1595.9932)"
         id="g116"><text
   id="text118"
   transform="matrix(0.99765,0,0,-1,289.079,509.001)"><tspan
     id="tspan120"
     y="0"
     x="0"
     style="font-size:10.00739956px;font-variant:normal;font-weight:normal;writing-mode:lr-tb;fill:#000000;fill-opacity:1;fill-rule:nonzero;stroke:none;font-family:TTE27CB5E8t00;-inkscape-font-specification:TTE27CB5E8t00">T</tspan></text>

<text
   id="text122"
   transform="matrix(1,0,0,-0.97370983,294.719,505.761)"><tspan
     id="tspan124"
     y="0"
     x="0"
     style="font-size:6.98857069px;font-variant:normal;font-weight:normal;writing-mode:lr-tb;fill:#000000;fill-opacity:1;fill-rule:nonzero;stroke:none;font-family:TTE27CB5E8t00;-inkscape-font-specification:TTE27CB5E8t00">u</tspan></text>

</g><g
         transform="matrix(2.5887149,0,0,2.5887149,-349.25804,-1279.1537)"
         id="g138"><text
   id="text140"
   transform="matrix(0.99765,0,0,-1,439.559,660.321)"><tspan
     id="tspan142"
     y="0"
     x="0"
     style="font-size:10.00739956px;font-variant:normal;font-weight:normal;writing-mode:lr-tb;fill:#000000;fill-opacity:1;fill-rule:nonzero;stroke:none;font-family:TTE27CB5E8t00;-inkscape-font-specification:TTE27CB5E8t00">t</tspan><tspan
     id="tspan144"
     y="141.72"
     x="0"
     style="font-size:10.00739956px;font-variant:normal;font-weight:normal;writing-mode:lr-tb;fill:#000000;fill-opacity:1;fill-rule:nonzero;stroke:none;font-family:TTE27CB5E8t00;-inkscape-font-specification:TTE27CB5E8t00">t</tspan></text>

</g><path
         inkscape:connector-curvature="0"
         id="path146"
         style="fill:none;stroke:#000000;stroke-width:1.66666663;stroke-linecap:round;stroke-linejoin:round;stroke-miterlimit:10;stroke-opacity:1;stroke-dasharray:none"
         d="m 823.74225,269.88481 0,-34.1462" /><path
         inkscape:connector-curvature="0"
         inkscape:original-d="m 846.25578,455.24886 c -20.56573,3.96168 -48.9386,0 -65.67948,0"
         inkscape:path-effect="#path-effect5025"
         id="path5023"
         d="m 846.25578,455.24886 -65.67948,0"
         style="fill:none;stroke:#000000;stroke-width:2.0709703px;stroke-linecap:butt;stroke-linejoin:miter;stroke-opacity:1;marker-start:url(#Arrow1Mstart)" /><path
         inkscape:connector-curvature="0"
         inkscape:original-d="m 843.86487,92.44488 c -20.56573,3.961725 -48.9386,0 -65.67948,0"
         inkscape:path-effect="#path-effect5025-5"
         id="path5023-7"
         d="m 843.86487,92.44488 -65.67948,0"
         style="fill:none;stroke:#000000;stroke-width:2.0709703px;stroke-linecap:butt;stroke-linejoin:miter;stroke-opacity:1;marker-start:url(#Arrow1Mstart)" /><path
         inkscape:connector-curvature="0"
         inkscape:original-d="m 95.660385,706.47997 c -3.961725,-20.56573 0,-48.93854 0,-65.67941"
         inkscape:path-effect="#path-effect5025-8"
         id="path5023-3"
         d="m 95.660385,706.47997 0,-65.67941"
         style="fill:none;stroke:#000000;stroke-width:2.0709703px;stroke-linecap:butt;stroke-linejoin:miter;stroke-opacity:1;marker-start:url(#Arrow1Mstart)" /><path
         inkscape:connector-curvature="0"
         inkscape:original-d="m 92.779663,342.49526 c -3.961724,-20.56573 0,-48.93854 0,-65.67942"
         inkscape:path-effect="#path-effect5025-8-5"
         id="path5023-3-0"
         d="m 92.779663,342.49526 0,-65.67942"
         style="fill:none;stroke:#000000;stroke-width:2.0709703px;stroke-linecap:butt;stroke-linejoin:miter;stroke-opacity:1;marker-start:url(#Arrow1Mstart)" /><path
         inkscape:connector-curvature="0"
         inkscape:original-d="m 823.70607,235.54699 c -2.23203,-11.58666 0,-27.5718 0,-37.00355"
         inkscape:path-effect="#path-effect5025-8-5-0"
         id="path5023-3-0-3"
         d="m 823.70607,235.54699 0,-37.00355"
         style="fill:none;stroke:#000000;stroke-width:1.66666675;stroke-linecap:butt;stroke-linejoin:miter;stroke-miterlimit:4;stroke-opacity:1;stroke-dasharray:none;marker-start:url(#Arrow1Mstart)" /><path
         inkscape:connector-curvature="0"
         inkscape:original-d="m 823.6959,267.95688 c -2.23203,11.58665 0,27.57178 0,37.00354"
         inkscape:path-effect="#path-effect5025-8-5-0-6"
         id="path5023-3-0-3-7"
         d="m 823.6959,267.95688 0,37.00354"
         style="fill:none;stroke:#000000;stroke-width:1.66666675;stroke-linecap:butt;stroke-linejoin:miter;stroke-miterlimit:4;stroke-opacity:1;stroke-dasharray:none;marker-start:url(#Arrow1Mstart)" /><path
         sodipodi:nodetypes="cccc"
         inkscape:connector-curvature="0"
         id="path6794"
         d="m 331.2096,104.31861 c 107.35425,-5.668051 99.30274,169.26745 155.28701,188.51059 29.05281,5.48242 65.48027,-56.99748 117.24151,-54.09941 15.45111,-0.71884 28.66588,13.23812 50.41241,12.82065"
         style="fill:none;stroke:#00cb00;stroke-width:3.10645556;stroke-linecap:round;stroke-linejoin:round;stroke-miterlimit:10;stroke-opacity:1;stroke-dasharray:none" /><path
         inkscape:connector-curvature="0"
         id="path34-6"
         style="fill:none;stroke:#00cb00;stroke-width:3.10645556;stroke-linecap:round;stroke-linejoin:round;stroke-miterlimit:10;stroke-opacity:1;stroke-dasharray:none"
         d="m 111.69752,104.38316 218.78682,0" /></g></g></svg>