<?xml version="1.0" encoding="UTF-8" standalone="no"?>
<!-- Created with Inkscape (http://www.inkscape.org/) -->

<svg
   xmlns:ns0="http://www.iki.fi/pav/software/textext/"
   xmlns:dc="http://purl.org/dc/elements/1.1/"
   xmlns:cc="http://creativecommons.org/ns#"
   xmlns:rdf="http://www.w3.org/1999/02/22-rdf-syntax-ns#"
   xmlns:svg="http://www.w3.org/2000/svg"
   xmlns="http://www.w3.org/2000/svg"
   xmlns:sodipodi="http://sodipodi.sourceforge.net/DTD/sodipodi-0.dtd"
   xmlns:inkscape="http://www.inkscape.org/namespaces/inkscape"
   sodipodi:docname="Dostal_Opamp_model.svg"
   xml:space="preserve"
   height="390"
   width="480"
   inkscape:version="0.48.1 "
   version="1.1"
   id="svg2984"><sodipodi:namedview
     pagecolor="#ffffff"
     bordercolor="#666666"
     borderopacity="1"
     objecttolerance="10"
     gridtolerance="10"
     guidetolerance="10"
     inkscape:pageopacity="0"
     inkscape:pageshadow="2"
     inkscape:window-width="1920"
     inkscape:window-height="1173"
     id="namedview2986"
     showgrid="false"
     inkscape:zoom="7.0710678"
     inkscape:cx="208.9718"
     inkscape:cy="240.8933"
     inkscape:window-x="1911"
     inkscape:window-y="-9"
     inkscape:window-maximized="1"
     inkscape:current-layer="1" /><metadata
     id="metadata2990"><rdf:RDF><cc:Work
         rdf:about=""><dc:format>image/svg+xml</dc:format><dc:type
           rdf:resource="http://purl.org/dc/dcmitype/StillImage" /></cc:Work></rdf:RDF></metadata><defs
     id="defs2988"><marker
       style="overflow:visible"
       id="TriangleInL"
       refX="0"
       refY="0"
       orient="auto"
       inkscape:stockid="TriangleInL"><path
         inkscape:connector-curvature="0"
         transform="scale(-0.8,-0.8)"
         style="fill-rule:evenodd;stroke:#000000;stroke-width:1pt;marker-start:none"
         d="m 5.77,0 -8.65,5 0,-10 8.65,5 z"
         id="path4017" /></marker><marker
       style="overflow:visible"
       id="Arrow2Lstart"
       refX="0"
       refY="0"
       orient="auto"
       inkscape:stockid="Arrow2Lstart"><path
         inkscape:connector-curvature="0"
         transform="matrix(1.1,0,0,1.1,1.1,0)"
         d="M 8.7185878,4.0337352 -2.2072895,0.01601326 8.7185884,-4.0017078 c -1.7454984,2.3720609 -1.7354408,5.6174519 -6e-7,8.035443 z"
         style="font-size:12px;fill-rule:evenodd;stroke-width:0.625;stroke-linejoin:round"
         id="path3901" /></marker><marker
       style="overflow:visible"
       id="TriangleOutL"
       refX="0"
       refY="0"
       orient="auto"
       inkscape:stockid="TriangleOutL"><path
         inkscape:connector-curvature="0"
         transform="scale(0.8,0.8)"
         style="fill-rule:evenodd;stroke:#000000;stroke-width:1pt;marker-start:none"
         d="m 5.77,0 -8.65,5 0,-10 8.65,5 z"
         id="path4026" /></marker><marker
       style="overflow:visible"
       id="Arrow1Lend"
       refX="0"
       refY="0"
       orient="auto"
       inkscape:stockid="Arrow1Lend"><path
         inkscape:connector-curvature="0"
         transform="matrix(-0.8,0,0,-0.8,-10,0)"
         style="fill-rule:evenodd;stroke:#000000;stroke-width:1pt;marker-start:none"
         d="M 0,0 5,-5 -12.5,0 5,5 0,0 z"
         id="path3886" /></marker><marker
       style="overflow:visible"
       id="Arrow1Mend"
       refX="0"
       refY="0"
       orient="auto"
       inkscape:stockid="Arrow1Mend"><path
         inkscape:connector-curvature="0"
         transform="matrix(-0.4,0,0,-0.4,-4,0)"
         style="fill-rule:evenodd;stroke:#000000;stroke-width:1pt;marker-start:none"
         d="M 0,0 5,-5 -12.5,0 5,5 0,0 z"
         id="path3892" /></marker><marker
       style="overflow:visible"
       id="Arrow2Mend"
       refX="0"
       refY="0"
       orient="auto"
       inkscape:stockid="Arrow2Mend"><path
         inkscape:connector-curvature="0"
         transform="scale(-0.6,-0.6)"
         d="M 8.7185878,4.0337352 -2.2072895,0.01601326 8.7185884,-4.0017078 c -1.7454984,2.3720609 -1.7354408,5.6174519 -6e-7,8.035443 z"
         style="font-size:12px;fill-rule:evenodd;stroke-width:0.625;stroke-linejoin:round"
         id="path3910" /></marker><marker
       style="overflow:visible"
       id="TriangleOutL-5"
       refX="0"
       refY="0"
       orient="auto"
       inkscape:stockid="TriangleOutL"><path
         inkscape:connector-curvature="0"
         transform="scale(0.8,0.8)"
         style="fill-rule:evenodd;stroke:#000000;stroke-width:1pt;marker-start:none"
         d="m 5.77,0 -8.65,5 0,-10 8.65,5 z"
         id="path4026-8" /></marker><marker
       style="overflow:visible"
       id="TriangleOutL-4"
       refX="0"
       refY="0"
       orient="auto"
       inkscape:stockid="TriangleOutL"><path
         transform="scale(0.8,0.8)"
         style="fill-rule:evenodd;stroke:#000000;stroke-width:1pt;marker-start:none"
         d="m 5.77,0 -8.65,5 0,-10 8.65,5 z"
         id="path4026-9"
         inkscape:connector-curvature="0" /></marker><marker
       style="overflow:visible"
       id="TriangleOutL-0"
       refX="0"
       refY="0"
       orient="auto"
       inkscape:stockid="TriangleOutL"><path
         inkscape:connector-curvature="0"
         transform="scale(0.8,0.8)"
         style="fill-rule:evenodd;stroke:#000000;stroke-width:1pt;marker-start:none"
         d="m 5.77,0 -8.65,5 0,-10 8.65,5 z"
         id="path4026-85" /></marker></defs><g
     transform="matrix(1.25,0,0,-1.25,0,390)"
     inkscape:label="skici"
     inkscape:groupmode="layer"
     id="g2992"
     style="display:inline">







































<g
   id="1"
   transform="matrix(0.8,0,0,-0.8,51.621725,293.8484)"><path
   d="M 56.8,1.6 330.4,181.6 56.8,360.8 56.8,1.6 z"
   style="fill:#eaeff5;fill-opacity:1;fill-rule:evenodd;stroke:none"
   id="2"
   inkscape:connector-curvature="0" /><path
   d="M 56.8,1.6 330.4,181.6 56.8,360.8 56.8,1.6 z"
   style="fill:none;stroke:#000000;stroke-width:0.94999999px;stroke-linecap:round;stroke-linejoin:round;stroke-opacity:1;stroke-dasharray:none"
   id="3"
   inkscape:connector-curvature="0" /><path
   d="M 194.4,181.6 141.6,126.4"
   style="fill:none;stroke:#000000;stroke-width:0.94999999px;stroke-linecap:round;stroke-linejoin:round;stroke-opacity:1;stroke-dasharray:none"
   id="4"
   inkscape:connector-curvature="0" /><path
   d="m 194.4,181.6 -52.8,52.8 0,-108"
   style="fill:none;stroke:#000000;stroke-width:0.94999999px;stroke-linecap:round;stroke-linejoin:round;stroke-opacity:1;stroke-dasharray:none"
   id="5"
   inkscape:connector-curvature="0" /><path
   d="m 184,163.2 -26.4,-28 -8,8 26.4,27.2 8,-7.2 z"
   style="fill:#bfbfbf;fill-opacity:1;fill-rule:evenodd;stroke:none"
   id="6"
   inkscape:connector-curvature="0" /><path
   d="m 184,163.2 -26.4,-28 -8,8 26.4,27.2 8,-7.2 z"
   style="fill:none;stroke:#000000;stroke-width:0.94999999px;stroke-linecap:round;stroke-linejoin:round;stroke-opacity:1;stroke-dasharray:none"
   id="7"
   inkscape:connector-curvature="0" /><path
   d="m 157.6,224.8 27.2,-26.4 -8,-7.2 -26.4,26.4 7.2,7.2 z"
   style="fill:#bfbfbf;fill-opacity:1;fill-rule:evenodd;stroke:none"
   id="8"
   inkscape:connector-curvature="0" /><path
   d="m 157.6,224.8 27.2,-26.4 -8,-7.2 -26.4,26.4 7.2,7.2 z"
   style="fill:none;stroke:#000000;stroke-width:0.94999999px;stroke-linecap:round;stroke-linejoin:round;stroke-opacity:1;stroke-dasharray:none"
   id="9"
   inkscape:connector-curvature="0" /><path
   d="m 136,162.4 0,37.6 10.4,0 0,-37.6 -10.4,0 z"
   style="fill:#bfbfbf;fill-opacity:1;fill-rule:evenodd;stroke:none"
   id="10"
   inkscape:connector-curvature="0" /><path
   d="m 146.4,200 0,-37.6 -10.4,0 0,37.6 10.4,0 z"
   style="fill:none;stroke:#000000;stroke-width:0.94999999px;stroke-linecap:round;stroke-linejoin:round;stroke-opacity:1;stroke-dasharray:none"
   id="11"
   inkscape:connector-curvature="0" /><path
   d="m 141.6,126.4 -132,0"
   style="fill:none;stroke:#000000;stroke-width:0.94999999px;stroke-linecap:round;stroke-linejoin:round;stroke-opacity:1;stroke-dasharray:none"
   id="12"
   inkscape:connector-curvature="0" /><path
   d="m 93.65,126.55 c 0,-7.85 -6.35,-14.2 -14.15,-14.2 -7.85,0 -14.2,6.35 -14.2,14.2 0,7.8 6.35,14.15 14.2,14.15 7.8,0 14.15,-6.35 14.15,-14.15"
   style="fill:#bfbfbf;fill-opacity:1;fill-rule:evenodd;stroke:none"
   id="13"
   inkscape:connector-curvature="0" /><path
   d="m 93.65,126.55 c 0,-7.85 -6.35,-14.2 -14.15,-14.2 -7.85,0 -14.2,6.35 -14.2,14.2 0,7.8 6.35,14.15 14.2,14.15 7.8,0 14.15,-6.35 14.15,-14.15"
   style="fill:none;stroke:#000000;stroke-width:0.94999999px;stroke-linecap:round;stroke-linejoin:round;stroke-opacity:1;stroke-dasharray:none"
   id="14"
   inkscape:connector-curvature="0" /><path
   d="m 132.4,127.1 c 0,-7.8 -6.35,-14.15 -14.2,-14.15 -7.8,0 -14.15,6.35 -14.15,14.15 0,7.85 6.35,14.2 14.15,14.2 7.85,0 14.2,-6.35 14.2,-14.2"
   style="fill:#bfbfbf;fill-opacity:1;fill-rule:evenodd;stroke:none"
   id="15"
   inkscape:connector-curvature="0" /><path
   d="m 132.4,127.1 c 0,-7.8 -6.35,-14.15 -14.2,-14.15 -7.8,0 -14.15,6.35 -14.15,14.15 0,7.85 6.35,14.2 14.15,14.2 7.85,0 14.2,-6.35 14.2,-14.2"
   style="fill:none;stroke:#000000;stroke-width:0.94999999px;stroke-linecap:round;stroke-linejoin:round;stroke-opacity:1;stroke-dasharray:none"
   id="16"
   inkscape:connector-curvature="0" /><path
   d="m 194.4,181.6 34.4,-32"
   style="fill:none;stroke:#000000;stroke-width:0.94999999px;stroke-linecap:round;stroke-linejoin:round;stroke-opacity:1;stroke-dasharray:none"
   id="17"
   inkscape:connector-curvature="0" /><path
   d="m 176,94.4 52.8,55.2"
   style="fill:none;stroke:#000000;stroke-width:0.94999999px;stroke-linecap:round;stroke-linejoin:round;stroke-opacity:1;stroke-dasharray:none"
   id="18"
   inkscape:connector-curvature="0" /><path
   d="m 194.4,181.6 35.2,32"
   style="fill:none;stroke:#000000;stroke-width:0.94999999px;stroke-linecap:round;stroke-linejoin:round;stroke-opacity:1;stroke-dasharray:none"
   id="19"
   inkscape:connector-curvature="0" /><path
   d="m 141.6,234.4 35.2,32"
   style="fill:none;stroke:#000000;stroke-width:0.94999999px;stroke-linecap:round;stroke-linejoin:round;stroke-opacity:1;stroke-dasharray:none"
   id="20"
   inkscape:connector-curvature="0" /><path
   d="m 229.6,213.6 -52.8,52.8"
   style="fill:none;stroke:#000000;stroke-width:0.94999999px;stroke-linecap:round;stroke-linejoin:round;stroke-opacity:1;stroke-dasharray:none"
   id="21"
   inkscape:connector-curvature="0" /><path
   d="m 194.4,181.6 174.4,0"
   style="fill:none;stroke:#000000;stroke-width:0.94999999px;stroke-linecap:round;stroke-linejoin:round;stroke-opacity:1;stroke-dasharray:none"
   id="22"
   inkscape:connector-curvature="0" /><path
   d="m 262.4,181.55 c 0,-7.85 -6.35,-14.2 -14.15,-14.2 -7.85,0 -14.2,6.35 -14.2,14.2 0,7.8 6.35,14.15 14.2,14.15 7.8,0 14.15,-6.35 14.15,-14.15"
   style="fill:#bfbfbf;fill-opacity:1;fill-rule:evenodd;stroke:none"
   id="23"
   inkscape:connector-curvature="0" /><path
   d="m 262.4,181.55 c 0,-7.85 -6.35,-14.2 -14.15,-14.2 -7.85,0 -14.2,6.35 -14.2,14.2 0,7.8 6.35,14.15 14.2,14.15 7.8,0 14.15,-6.35 14.15,-14.15"
   style="fill:none;stroke:#000000;stroke-width:0.94999999px;stroke-linecap:round;stroke-linejoin:round;stroke-opacity:1;stroke-dasharray:none"
   id="24"
   inkscape:connector-curvature="0" /><path
   d="m 275.2,176 0,11.2 37.6,0 0,-11.2 -37.6,0 z"
   style="fill:#bfbfbf;fill-opacity:1;fill-rule:evenodd;stroke:none"
   id="25"
   inkscape:connector-curvature="0" /><path
   d="m 275.2,187.2 37.6,0 0,-11.2 -37.6,0 0,11.2 z"
   style="fill:none;stroke:#000000;stroke-width:0.94999999px;stroke-linecap:round;stroke-linejoin:round;stroke-opacity:1;stroke-dasharray:none"
   id="26"
   inkscape:connector-curvature="0" /><path
   d="m 141.6,234.4 -132,0"
   style="fill:none;stroke:#000000;stroke-width:0.94999999px;stroke-linecap:round;stroke-linejoin:round;stroke-opacity:1;stroke-dasharray:none"
   id="27"
   inkscape:connector-curvature="0" /><path
   d="M 330.4,181.6 56.8,1.6"
   style="fill:none;stroke:#000000;stroke-width:0.94999999px;stroke-linecap:round;stroke-linejoin:round;stroke-opacity:1;stroke-dasharray:none"
   id="28"
   inkscape:connector-curvature="0" /><path
   d="m 56.8,1.6 0,359.2 273.6,-179.2"
   style="fill:none;stroke:#000000;stroke-width:0.94999999px;stroke-linecap:round;stroke-linejoin:round;stroke-opacity:1;stroke-dasharray:none"
   id="29"
   inkscape:connector-curvature="0" /><path
   d="m 194.15,181.55 42.2,14.25 0,46.95"
   style="fill:none;stroke:#000000;stroke-width:2px;stroke-linecap:round;stroke-linejoin:round;stroke-opacity:1;stroke-dasharray:none"
   id="30"
   inkscape:connector-curvature="0" /><path
   d="m 197,181.55 c 0,-1.6 -1.25,-2.85 -2.85,-2.85 -1.55,0 -2.8,1.25 -2.8,2.85 0,1.55 1.25,2.8 2.8,2.8 1.6,0 2.85,-1.25 2.85,-2.8"
   style="fill:#000000;fill-opacity:1;fill-rule:evenodd;stroke:none"
   id="31"
   inkscape:connector-curvature="0" /><path
   d="m 197,181.55 c 0,-1.6 -1.25,-2.85 -2.85,-2.85 -1.55,0 -2.8,1.25 -2.8,2.85 0,1.55 1.25,2.8 2.8,2.8 1.6,0 2.85,-1.25 2.85,-2.8"
   style="fill:none;stroke:#000000;stroke-width:0.94999999px;stroke-linecap:round;stroke-linejoin:round;stroke-opacity:1;stroke-dasharray:none"
   id="32"
   inkscape:connector-curvature="0" /><path
   d="m 144.1,234.45 c 0,-1.55 -1.3,-2.85 -2.85,-2.85 -1.55,0 -2.85,1.3 -2.85,2.85 0,1.55 1.3,2.85 2.85,2.85 1.55,0 2.85,-1.3 2.85,-2.85"
   style="fill:#000000;fill-opacity:1;fill-rule:evenodd;stroke:none"
   id="33"
   inkscape:connector-curvature="0" /><path
   d="m 144.1,234.45 c 0,-1.55 -1.3,-2.85 -2.85,-2.85 -1.55,0 -2.85,1.3 -2.85,2.85 0,1.55 1.3,2.85 2.85,2.85 1.55,0 2.85,-1.3 2.85,-2.85"
   style="fill:none;stroke:#000000;stroke-width:0.94999999px;stroke-linecap:round;stroke-linejoin:round;stroke-opacity:1;stroke-dasharray:none"
   id="34"
   inkscape:connector-curvature="0" /><path
   d="m 144.3,126.9 c 0,-1.55 -1.3,-2.8 -2.85,-2.8 -1.55,0 -2.85,1.25 -2.85,2.8 0,1.6 1.3,2.85 2.85,2.85 1.55,0 2.85,-1.25 2.85,-2.85"
   style="fill:#000000;fill-opacity:1;fill-rule:evenodd;stroke:none"
   id="35"
   inkscape:connector-curvature="0" /><path
   d="m 144.3,126.9 c 0,-1.55 -1.3,-2.8 -2.85,-2.8 -1.55,0 -2.85,1.25 -2.85,2.8 0,1.6 1.3,2.85 2.85,2.85 1.55,0 2.85,-1.25 2.85,-2.85"
   style="fill:none;stroke:#000000;stroke-width:0.94999999px;stroke-linecap:round;stroke-linejoin:round;stroke-opacity:1;stroke-dasharray:none"
   id="36"
   inkscape:connector-curvature="0" /><path
   d="m 9.55,126.35 c 0,-2.1 -1.7,-3.8 -3.75,-3.8 -2.1,0 -3.8,1.7 -3.8,3.8 0,2.1 1.7,3.8 3.8,3.8 2.05,0 3.75,-1.7 3.75,-3.8"
   style="fill:#bfbfbf;fill-opacity:1;fill-rule:evenodd;stroke:none"
   id="37"
   inkscape:connector-curvature="0" /><path
   d="m 9.55,126.35 c 0,-2.1 -1.7,-3.8 -3.75,-3.8 -2.1,0 -3.8,1.7 -3.8,3.8 0,2.1 1.7,3.8 3.8,3.8 2.05,0 3.75,-1.7 3.75,-3.8"
   style="fill:none;stroke:#000000;stroke-width:0.94999999px;stroke-linecap:round;stroke-linejoin:round;stroke-opacity:1;stroke-dasharray:none"
   id="38"
   inkscape:connector-curvature="0" /><path
   d="m 9.55,234.45 c 0,-2.1 -1.7,-3.8 -3.75,-3.8 -2.1,0 -3.8,1.7 -3.8,3.8 0,2.1 1.7,3.75 3.8,3.75 2.05,0 3.75,-1.65 3.75,-3.75"
   style="fill:#bfbfbf;fill-opacity:1;fill-rule:evenodd;stroke:none"
   id="39"
   inkscape:connector-curvature="0" /><path
   d="m 9.55,234.45 c 0,-2.1 -1.7,-3.8 -3.75,-3.8 -2.1,0 -3.8,1.7 -3.8,3.8 0,2.1 1.7,3.75 3.8,3.75 2.05,0 3.75,-1.65 3.75,-3.75"
   style="fill:none;stroke:#000000;stroke-width:0.94999999px;stroke-linecap:round;stroke-linejoin:round;stroke-opacity:1;stroke-dasharray:none"
   id="40"
   inkscape:connector-curvature="0" /><path
   d="m 372.4,181.55 c 0,-2.1 -1.7,-3.8 -3.8,-3.8 -2.05,0 -3.75,1.7 -3.75,3.8 0,2.05 1.7,3.75 3.75,3.75 2.1,0 3.8,-1.7 3.8,-3.75"
   style="fill:#bfbfbf;fill-opacity:1;fill-rule:evenodd;stroke:none"
   id="41"
   inkscape:connector-curvature="0" /><path
   d="m 372.4,181.55 c 0,-2.1 -1.7,-3.8 -3.8,-3.8 -2.05,0 -3.75,1.7 -3.75,3.8 0,2.05 1.7,3.75 3.75,3.75 2.1,0 3.8,-1.7 3.8,-3.75"
   style="fill:none;stroke:#000000;stroke-width:0.94999999px;stroke-linecap:round;stroke-linejoin:round;stroke-opacity:1;stroke-dasharray:none"
   id="42"
   inkscape:connector-curvature="0" /><path
   d="m 236,243.20001 0,93.55486"
   style="fill:none;stroke:#000000;stroke-width:0.94999993px;stroke-linecap:round;stroke-linejoin:round;stroke-opacity:1;stroke-dasharray:none"
   id="43"
   inkscape:connector-curvature="0" /><path
   d="m 228.8,337.9 15.1,0"
   style="fill:none;stroke:#000000;stroke-width:4px;stroke-linecap:round;stroke-linejoin:round;stroke-opacity:1;stroke-dasharray:none"
   id="44"
   inkscape:connector-curvature="0" /><path
   d="m 240.1,322.8 c 0,-2.1 -1.7,-3.8 -3.75,-3.8 -2.1,0 -3.8,1.7 -3.8,3.8 0,2.1 1.7,3.75 3.8,3.75 2.05,0 3.75,-1.65 3.75,-3.75"
   style="fill:#bfbfbf;fill-opacity:1;fill-rule:evenodd;stroke:none"
   id="45"
   inkscape:connector-curvature="0" /><path
   d="m 240.1,322.8 c 0,-2.1 -1.7,-3.8 -3.75,-3.8 -2.1,0 -3.8,1.7 -3.8,3.8 0,2.1 1.7,3.75 3.8,3.75 2.05,0 3.75,-1.65 3.75,-3.75"
   style="fill:none;stroke:#000000;stroke-width:0.94999999px;stroke-linecap:round;stroke-linejoin:round;stroke-opacity:1;stroke-dasharray:none"
   id="46"
   inkscape:connector-curvature="0" /><text
   style="font-size:16px;font-style:normal;font-weight:normal;text-align:start;text-anchor:start;fill:#000000;font-family:Arial"
   y="118.0929"
   x="58.400002"
   xml:space="preserve"
   id="47">+</text>












<text
   style="font-size:16px;font-style:normal;font-weight:normal;text-align:start;text-anchor:start;fill:#000000;font-family:Arial"
   y="117.40592"
   x="96.800003"
   xml:space="preserve"
   id="48">+</text>












<path
   d="m 217.05,122 c 0,-7.8 -6.35,-14.15 -14.15,-14.15 -7.85,0 -14.2,6.35 -14.2,14.15 0,7.85 6.35,14.2 14.2,14.2 7.8,0 14.15,-6.35 14.15,-14.2"
   style="fill:#bfbfbf;fill-opacity:1;fill-rule:evenodd;stroke:none"
   id="49"
   inkscape:connector-curvature="0" /><path
   d="m 217.05,122 c 0,-7.8 -6.35,-14.15 -14.15,-14.15 -7.85,0 -14.2,6.35 -14.2,14.15 0,7.85 6.35,14.2 14.2,14.2 7.8,0 14.15,-6.35 14.15,-14.2"
   style="fill:none;stroke:#000000;stroke-width:0.94999999px;stroke-linecap:round;stroke-linejoin:round;stroke-opacity:1;stroke-dasharray:none"
   id="50"
   inkscape:connector-curvature="0" /><path
   d="m 195.2,114.4 10.4,10.4"
   style="fill:none;stroke:#000000;stroke-width:0.94999999px;stroke-linecap:round;stroke-linejoin:round;stroke-opacity:1;stroke-dasharray:none"
   id="51"
   inkscape:connector-curvature="0" /><path
   d="m 207.2,122.4 4,8 -8,-4 4,-4 z"
   style="fill:#000000;fill-opacity:1;fill-rule:evenodd;stroke:none"
   id="52"
   inkscape:connector-curvature="0" /><path
   d="M 141.6,126.4 176,94.4"
   style="fill:none;stroke:#000000;stroke-width:0.94999999px;stroke-linecap:round;stroke-linejoin:round;stroke-opacity:1;stroke-dasharray:none"
   id="53"
   inkscape:connector-curvature="0" /><path
   d="m 201.55,227.05 c -7.8,0 -14.15,6.35 -14.15,14.2 0,7.85 6.35,14.15 14.15,14.15 7.85,0 14.2,-6.3 14.2,-14.15 0,-7.85 -6.35,-14.2 -14.2,-14.2"
   style="fill:#bfbfbf;fill-opacity:1;fill-rule:evenodd;stroke:none"
   id="54"
   inkscape:connector-curvature="0" /><path
   d="m 201.55,227.05 c -7.8,0 -14.15,6.35 -14.15,14.2 0,7.85 6.35,14.15 14.15,14.15 7.85,0 14.2,-6.3 14.2,-14.15 0,-7.85 -6.35,-14.2 -14.2,-14.2"
   style="fill:none;stroke:#000000;stroke-width:0.94999999px;stroke-linecap:round;stroke-linejoin:round;stroke-opacity:1;stroke-dasharray:none"
   id="55"
   inkscape:connector-curvature="0" /><path
   d="M 193.6,249.6 204,238.4"
   style="fill:none;stroke:#000000;stroke-width:0.94999999px;stroke-linecap:round;stroke-linejoin:round;stroke-opacity:1;stroke-dasharray:none"
   id="56"
   inkscape:connector-curvature="0" /><path
   d="m 201.6,236.8 8,-4 -4,8 -4,-4 z"
   style="fill:#000000;fill-opacity:1;fill-rule:evenodd;stroke:none"
   id="57"
   inkscape:connector-curvature="0" /><text
   style="font-size:16px;font-style:normal;font-weight:normal;text-align:start;text-anchor:start;fill:#000000;display:inline;font-family:Arial"
   y="120.54722"
   x="317.60098"
   xml:space="preserve"
   id="47-7" />
<text
   xml:space="preserve"
   style="font-size:40px;font-style:normal;font-variant:normal;font-weight:normal;font-stretch:normal;text-align:start;line-height:125%;letter-spacing:0px;word-spacing:0px;writing-mode:lr-tb;text-anchor:start;fill:#000000;fill-opacity:1;stroke:none;font-family:Freestyle Script;-inkscape-font-specification:Freestyle Script"
   x="87.241867"
   y="118.11085"
   id="text15395"
   sodipodi:linespacing="125%"><tspan
     sodipodi:role="line"
     id="tspan15397"
     x="87.241867"
     y="118.11085"
     style="font-size:24px;font-style:normal;font-variant:normal;font-weight:normal;font-stretch:normal;font-family:Arial;-inkscape-font-specification:Arial">-</tspan></text>
<text
   xml:space="preserve"
   style="font-size:40px;font-style:normal;font-variant:normal;font-weight:normal;font-stretch:normal;text-align:start;line-height:125%;letter-spacing:0px;word-spacing:0px;writing-mode:lr-tb;text-anchor:start;fill:#000000;fill-opacity:1;stroke:none;display:inline;font-family:Freestyle Script;-inkscape-font-specification:Freestyle Script"
   x="225.87091"
   y="176.72729"
   id="text15395-9"
   sodipodi:linespacing="125%"><tspan
     sodipodi:role="line"
     id="tspan15397-8"
     x="225.87091"
     y="176.72729"
     style="font-size:24px;font-style:normal;font-variant:normal;font-weight:normal;font-stretch:normal;font-family:Arial;-inkscape-font-specification:Arial">-</tspan></text>
<text
   xml:space="preserve"
   style="font-size:40px;font-style:normal;font-variant:normal;font-weight:normal;font-stretch:normal;text-align:start;line-height:125%;letter-spacing:0px;word-spacing:0px;writing-mode:lr-tb;text-anchor:start;fill:#000000;fill-opacity:1;stroke:none;display:inline;font-family:Freestyle Script;-inkscape-font-specification:Freestyle Script"
   x="130.27089"
   y="118.16161"
   id="text15395-9-4"
   sodipodi:linespacing="125%"><tspan
     sodipodi:role="line"
     id="tspan15397-8-6"
     x="130.27089"
     y="118.16161"
     style="font-size:24px;font-style:normal;font-variant:normal;font-weight:normal;font-stretch:normal;font-family:Arial;-inkscape-font-specification:Arial">-</tspan></text>
</g></g><g
     inkscape:groupmode="layer"
     id="layer1"
     inkscape:label="text"
     style="display:inline"><text
   style="font-size:15px;display:inline"
   y="197.92557"
   x="325.38654"
   id="text3102-8"><tspan
     id="tspan3104-7"
     y="197.92557"
     x="325.38654"
     style="font-size:15.00030041px;font-variant:normal;font-weight:normal;writing-mode:lr-tb;fill:#000000;fill-opacity:1;fill-rule:nonzero;stroke:none;font-family:ARIAL;-inkscape-font-specification:ARIAL">+</tspan></text>












<g
   style="font-style:normal;font-variant:normal;font-weight:normal;font-stretch:normal;letter-spacing:normal;word-spacing:normal;text-anchor:start;fill:none;stroke:#000000;stroke-width:3.00574708;stroke-linecap:butt;stroke-linejoin:miter;stroke-miterlimit:10.43299961;stroke-opacity:1;stroke-dasharray:none;stroke-dashoffset:0;display:inline"
   ns0:preamble=""
   ns0:text="$e_{CM}$\n\n\n\n"
   word-spacing="normal"
   letter-spacing="normal"
   font-size-adjust="none"
   font-stretch="normal"
   font-weight="normal"
   font-variant="normal"
   font-style="normal"
   stroke-miterlimit="10.433"
   xml:space="preserve"
   transform="matrix(1.6602427,0,0,-1.6667234,-241.71412,1305.6417)"
   id="g6444">
<path
   id="path6446"
   d="m 225.3,709.42 0.02,0 0.04,0 0.03,0 0.03,0.01 0.04,0 0.04,0 0.04,0 0.05,0 0.04,0 0.05,0.01 0.05,0 0.04,0 0.05,0.01 0.06,0 0.1,0.01 0.11,0.01 0.11,0.02 0.1,0.02 0.11,0.02 0.11,0.02 0.05,0.02 0.05,0.01 0.06,0.02 0.04,0.02 0.05,0.01 0.05,0.02 c 0.7,0.3 0.75,0.89 0.75,1.03 0,0.44 -0.38,0.84 -1.07,0.84 v -0.22 c 0.47,0 0.74,-0.28 0.74,-0.62 0,-1.04 -1.59,-1.04 -2,-1.04 h -0.41 c 0.39,1.52 1.41,1.66 1.67,1.66 v 0.22 c -1.1,0 -2.61,-0.96 -2.61,-2.7 0,-1.02 0.59,-1.8 1.57,-1.8 1.42,0 2.26,1.05 2.26,1.17 0,0.06 -0.06,0.13 -0.12,0.13 -0.05,0 -0.07,-0.02 -0.13,-0.1 -0.79,-0.99 -1.87,-0.99 -1.99,-0.99 -0.78,0 -0.87,0.84 -0.87,1.16 0,0.12 0.01,0.43 0.16,1.03 z"
   inkscape:connector-curvature="0"
   style="fill:#000000;stroke-width:0" />
<path
   id="path6448"
   d="m 233.94,710.43 0,0 0,0.01 0,0 0,0 0,0.01 0,0 0,0 0,0.01 0,0 0,0.01 -0.01,0 0,0 0,0.01 0,0 0,0 -0.01,0.01 0,0 0,0 -0.01,0.01 0,0 0,0 -0.01,0.01 0,0 0,0 -0.01,0 0,0 -0.01,0.01 0,0 -0.01,0 0,0 0,0 -0.01,0 0,0 0,0 0,0 -0.01,0 c -0.05,0 -0.06,-0.01 -0.12,-0.08 l -0.51,-0.54 c -0.07,0.08 -0.46,0.62 -1.31,0.62 -1.69,0 -3.35,-1.5 -3.35,-3.07 0,-1.13 0.89,-1.96 2.14,-1.96 0.37,0 1.04,0.08 1.76,0.68 0.55,0.47 0.7,1.07 0.7,1.13 0,0.09 -0.08,0.09 -0.12,0.09 -0.09,0 -0.1,-0.04 -0.12,-0.11 -0.29,-0.95 -1.26,-1.54 -2.1,-1.54 -0.74,0 -1.56,0.4 -1.56,1.5 0,0.2 0.04,1.3 0.84,2.17 0.49,0.54 1.22,0.86 1.88,0.86 0.81,0 1.28,-0.59 1.28,-1.36 0,-0.2 -0.02,-0.25 -0.02,-0.29 0,-0.09 0.09,-0.09 0.12,-0.09 0.12,0 0.12,0.02 0.15,0.15 z"
   inkscape:connector-curvature="0"
   style="fill:#000000;stroke-width:0" />
<path
   id="path6450"
   d="m 241.38,709.82 0.01,0.02 0.01,0.02 0,0.02 0.01,0.02 0,0.02 0.01,0.02 0,0.02 0.01,0.01 0.01,0.02 0.01,0.01 0,0.02 0.01,0.01 0.01,0.01 0.01,0.01 0.02,0.01 0.01,0.01 0.02,0.01 0.01,0.01 0.02,0 0.02,0.01 0.02,0 0.01,0.01 0.01,0 0.02,0 0.01,0 0.01,0.01 0.02,0 0.01,0 0.01,0 0.02,0 0.02,0 0.01,0 0.02,0.01 0.02,0 0.02,0 0.01,0 0.02,0 0.02,0 0.03,0 0.02,0 0.02,0 0.02,0 0.03,0 c 0.14,0 0.23,0 0.23,0.15 0,0.1 -0.08,0.1 -0.21,0.1 h -0.94 c -0.21,0 -0.21,-0.01 -0.3,-0.14 l -2.69,-3.96 -0.69,3.91 c -0.03,0.18 -0.03,0.19 -0.24,0.19 h -1 c -0.14,0 -0.23,0 -0.23,-0.15 0,-0.1 0.08,-0.1 0.24,-0.1 0.11,0 0.14,0 0.26,-0.01 0.14,-0.02 0.16,-0.03 0.16,-0.1 0,-0.01 0,-0.05 -0.03,-0.15 l -0.88,-3.49 c -0.06,-0.24 -0.17,-0.48 -0.73,-0.5 -0.05,0 -0.14,-0.01 -0.14,-0.15 0,-0.01 0.01,-0.1 0.1,-0.1 0.21,0 0.51,0.03 0.73,0.03 0.17,0 0.57,-0.03 0.74,-0.03 0.03,0 0.13,0 0.13,0.15 0,0.09 -0.09,0.1 -0.15,0.1 -0.44,0.02 -0.44,0.2 -0.44,0.29 0,0.03 0,0.07 0.02,0.18 l 0.93,3.7 h 0.01 l 0.74,-4.23 c 0.02,-0.13 0.04,-0.19 0.14,-0.19 0.1,0 0.16,0.08 0.2,0.15 l 2.93,4.34 0.01,-0.01 -0.99,-3.94 c -0.05,-0.23 -0.07,-0.29 -0.61,-0.29 -0.12,0 -0.21,0 -0.21,-0.15 0,-0.01 0,-0.1 0.11,-0.1 0.14,0 0.3,0.02 0.44,0.02 0.13,0 0.29,0.01 0.43,0.01 0.2,0 0.69,-0.03 0.89,-0.03 0.04,0 0.15,0 0.15,0.15 0,0.1 -0.09,0.1 -0.23,0.1 -0.01,0 -0.14,0 -0.26,0.02 -0.16,0.01 -0.16,0.03 -0.16,0.1 0,0.04 0.02,0.11 0.02,0.15 z"
   inkscape:connector-curvature="0"
   style="fill:#000000;stroke-width:0" />
</g><g
   id="g6659"
   transform="matrix(1.6602427,0,0,-1.6667234,-199.27392,1306.8417)"
   xml:space="preserve"
   stroke-miterlimit="10.433"
   font-style="normal"
   font-variant="normal"
   font-weight="normal"
   font-stretch="normal"
   font-size-adjust="none"
   letter-spacing="normal"
   word-spacing="normal"
   ns0:text="$E_R$\n\n\n\n"
   ns0:preamble=""
   style="font-style:normal;font-variant:normal;font-weight:normal;font-stretch:normal;letter-spacing:normal;word-spacing:normal;text-anchor:start;fill:none;stroke:#000000;stroke-width:3.00574708;stroke-linecap:butt;stroke-linejoin:miter;stroke-miterlimit:10.43299961;stroke-opacity:1;stroke-dasharray:none;stroke-dashoffset:0;display:inline">
<path
   d="m 230.49,709.44 0,0.01 0,0 0.01,0.01 0,0.01 0.01,0.01 0,0.01 0,0.01 0.01,0.01 0,0.01 0,0.01 0.01,0 0,0.01 0,0 0,0.01 0,0 0,0.01 0,0 0.01,0 0,0.01 0,0 0,0 0,0.01 0,0 0,0 0,0 c 0,0.01 0,0.11 -0.12,0.11 -0.09,0 -0.11,-0.06 -0.13,-0.12 -0.65,-1.47 -1.02,-2.14 -2.72,-2.14 h -1.46 c -0.14,0 -0.16,0 -0.22,0.01 -0.1,0.01 -0.13,0.02 -0.13,0.1 0,0.03 0,0.05 0.05,0.23 l 0.68,2.72 h 0.99 c 0.85,0 0.85,-0.21 0.85,-0.46 0,-0.07 0,-0.19 -0.07,-0.49 -0.02,-0.05 -0.03,-0.08 -0.03,-0.11 0,-0.05 0.04,-0.11 0.13,-0.11 0.08,0 0.11,0.05 0.15,0.2 l 0.56,2.33 c 0,0.06 -0.05,0.11 -0.12,0.11 -0.08,0 -0.1,-0.06 -0.13,-0.18 -0.21,-0.75 -0.39,-0.98 -1.31,-0.98 h -0.94 l 0.6,2.4 c 0.09,0.34 0.1,0.38 0.54,0.38 h 1.4 c 1.22,0 1.52,-0.29 1.52,-1.1 0,-0.24 0,-0.26 -0.04,-0.53 0,-0.06 -0.01,-0.13 -0.01,-0.18 0,-0.05 0.03,-0.12 0.12,-0.12 0.11,0 0.12,0.06 0.14,0.25 l 0.2,1.72 c 0.03,0.27 -0.02,0.27 -0.27,0.27 h -5.03 c -0.2,0 -0.3,0 -0.3,-0.2 0,-0.11 0.08,-0.11 0.27,-0.11 0.37,0 0.65,0 0.65,-0.17 0,-0.05 0,-0.07 -0.05,-0.24 L 225,707.9 c -0.1,-0.39 -0.12,-0.47 -0.91,-0.47 -0.17,0 -0.28,0 -0.28,-0.19 0,-0.11 0.09,-0.11 0.28,-0.11 h 5.17 c 0.23,0 0.24,0.01 0.31,0.16 z"
   id="path6661"
   inkscape:connector-curvature="0"
   style="fill:#000000;stroke-width:0" />
<path
   d="m 234.92,707.99 0.08,0.02 0.08,0.03 0.07,0.02 0.08,0.02 0.07,0.03 0.08,0.03 0.07,0.02 0.07,0.04 0.07,0.03 0.06,0.03 0.07,0.04 0.06,0.03 0.06,0.04 0.06,0.04 0.06,0.04 0.06,0.04 0.05,0.05 0.05,0.04 0.05,0.05 0.04,0.04 0.04,0.05 0.04,0.05 0.04,0.05 0.03,0.05 0.03,0.05 0.03,0.05 0.02,0.06 0.02,0.05 0.01,0.06 0.01,0.05 0.01,0.06 0,0.06 c 0,0.6 -0.71,1.07 -1.72,1.07 h -2.14 c -0.13,0 -0.22,0 -0.22,-0.15 0,-0.1 0.08,-0.1 0.22,-0.1 0.01,0 0.14,0 0.27,-0.01 0.14,-0.02 0.16,-0.03 0.16,-0.1 0,-0.01 0,-0.05 -0.03,-0.15 l -0.93,-3.7 c -0.05,-0.23 -0.07,-0.29 -0.61,-0.29 -0.12,0 -0.21,0 -0.21,-0.15 0,-0.06 0.05,-0.1 0.11,-0.1 0.13,0 0.29,0.02 0.43,0.02 0.14,0 0.34,0.01 0.46,0.01 0.14,0 0.3,-0.01 0.45,-0.01 0.15,0 0.32,-0.02 0.47,-0.02 0.03,0 0.14,0 0.14,0.15 0,0.1 -0.07,0.1 -0.23,0.1 -0.11,0 -0.14,0 -0.26,0.02 -0.16,0.02 -0.16,0.03 -0.16,0.1 0,0.01 0,0.05 0.03,0.15 l 0.44,1.76 h 0.95 l 0.01,0.2 h -0.9 l 0.44,1.78 c 0.05,0.2 0.07,0.22 0.22,0.24 h 0.44 c 0.65,0 1.45,0 1.45,-0.72 0,-0.28 -0.13,-0.72 -0.46,-0.97 -0.28,-0.22 -0.71,-0.33 -1.19,-0.33 l -0.01,-0.2 c 0.6,0 0.85,-0.3 0.85,-0.62 0,-0.09 -0.06,-0.33 -0.09,-0.49 -0.09,-0.32 -0.11,-0.42 -0.11,-0.54 0,-0.55 0.5,-0.77 1.02,-0.77 0.64,0 0.92,0.68 0.92,0.81 0,0.02 -0.02,0.1 -0.12,0.1 -0.09,0 -0.1,-0.05 -0.12,-0.12 -0.1,-0.31 -0.36,-0.59 -0.65,-0.59 -0.18,0 -0.32,0.07 -0.32,0.45 0,0.17 0.05,0.53 0.07,0.72 0.03,0.19 0.03,0.26 0.03,0.33 0,0.08 0,0.3 -0.19,0.51 -0.14,0.15 -0.32,0.24 -0.48,0.29 z"
   id="path6663"
   inkscape:connector-curvature="0"
   style="fill:#000000;stroke-width:0" />
</g><g
   style="font-style:normal;font-variant:normal;font-weight:normal;font-stretch:normal;letter-spacing:normal;word-spacing:normal;text-anchor:start;fill:none;stroke:#000000;stroke-width:3.00574708;stroke-linecap:butt;stroke-linejoin:miter;stroke-miterlimit:10.43299961;stroke-opacity:1;stroke-dasharray:none;stroke-dashoffset:0;display:inline"
   ns0:preamble=""
   ns0:text="$I_R^-$\n\n\n\n"
   word-spacing="normal"
   letter-spacing="normal"
   font-size-adjust="none"
   font-stretch="normal"
   font-weight="normal"
   font-variant="normal"
   font-style="normal"
   stroke-miterlimit="10.433"
   xml:space="preserve"
   transform="matrix(1.6602427,0,0,-1.6667234,-107.80385,1352.3044)"
   id="g6872">
<path
   id="path6874"
   d="m 227.16,713.16 0.01,0.03 0.01,0.03 0,0.03 0.01,0.03 0.01,0.03 0.01,0.02 0.01,0.03 0.01,0.02 0.01,0.02 0.01,0.02 0.01,0.02 0.02,0.02 0.01,0.02 0.02,0.01 0.02,0.02 0.02,0.01 0.03,0.01 0.02,0.01 0.03,0.01 0.03,0.01 0.03,0.01 0.02,0.01 0.02,0 0.01,0 0.02,0.01 0.02,0 0.03,0 0.02,0.01 0.02,0 0.02,0 0.03,0 0.02,0 0.03,0.01 0.03,0 0.03,0 0.02,0 0.03,0 0.04,0 0.03,0 0.03,0 0.04,0 0.03,0 0.04,0 c 0.24,0 0.32,0 0.32,0.19 0,0.12 -0.11,0.12 -0.15,0.12 -0.29,0 -1.03,-0.03 -1.32,-0.03 -0.3,0 -1.03,0.03 -1.32,0.03 -0.08,0 -0.2,0 -0.2,-0.2 0,-0.11 0.09,-0.11 0.28,-0.11 0.41,0 0.68,0 0.68,-0.19 0,-0.04 0,-0.07 -0.02,-0.15 L 225,707.9 c -0.09,-0.37 -0.12,-0.47 -0.91,-0.47 -0.23,0 -0.32,0 -0.32,-0.2 0,-0.1 0.12,-0.1 0.15,-0.1 0.29,0 1.02,0.03 1.31,0.03 0.29,0 1.03,-0.03 1.33,-0.03 0.08,0 0.2,0 0.2,0.18 0,0.12 -0.08,0.12 -0.3,0.12 -0.18,0 -0.23,0 -0.43,0.02 -0.21,0.02 -0.24,0.06 -0.24,0.17 0,0.08 0.01,0.16 0.03,0.23 z"
   inkscape:connector-curvature="0"
   style="fill:#000000;stroke-width:0" />
<path
   id="path6876"
   d="m 233.77,712.96 0.02,0 0.01,0 0.01,0 0.01,0 0.02,0 0.01,0 0.02,0 0.01,0 0.01,0 0.01,0 0.01,0.01 0.01,0 0.01,0 0.02,0.01 0.01,0 0.01,0 0.01,0.01 0.01,0 0,0.01 0.01,0.01 0.01,0 0.01,0.01 0,0 0.01,0.01 0,0 0,0.01 0,0 0.01,0.01 0,0 0,0.01 0,0 0.01,0.01 0,0.01 0,0 0,0.01 0,0.01 0,0 0,0.01 0,0.01 0,0.01 c 0,0.17 -0.16,0.17 -0.28,0.17 h -4.15 c -0.11,0 -0.27,0 -0.27,-0.17 0,-0.17 0.16,-0.17 0.27,-0.17 z"
   inkscape:connector-curvature="0"
   style="fill:#000000;stroke-width:0" />
<path
   id="path6878"
   d="m 231.95,706.56 0.08,0.02 0.07,0.02 0.08,0.02 0.07,0.03 0.08,0.02 0.07,0.03 0.07,0.03 0.07,0.03 0.07,0.03 0.07,0.04 0.07,0.03 0.06,0.04 0.06,0.04 0.06,0.04 0.06,0.04 0.05,0.04 0.06,0.04 0.05,0.05 0.04,0.04 0.05,0.05 0.04,0.05 0.04,0.05 0.04,0.05 0.03,0.05 0.03,0.05 0.02,0.05 0.02,0.05 0.02,0.06 0.02,0.05 0.01,0.06 0,0.06 0.01,0.06 c 0,0.59 -0.72,1.07 -1.72,1.07 h -2.14 c -0.14,0 -0.23,0 -0.23,-0.16 0,-0.09 0.09,-0.09 0.23,-0.09 0,0 0.14,0 0.26,-0.02 0.15,-0.01 0.16,-0.03 0.16,-0.09 0,-0.02 0,-0.05 -0.03,-0.16 l -0.92,-3.69 c -0.06,-0.24 -0.07,-0.29 -0.62,-0.29 -0.11,0 -0.2,0 -0.2,-0.15 0,-0.07 0.04,-0.1 0.11,-0.1 0.13,0 0.29,0.02 0.43,0.02 0.13,0 0.33,0 0.46,0 0.14,0 0.3,0 0.45,0 0.14,0 0.31,-0.02 0.46,-0.02 0.04,0 0.15,0 0.15,0.14 0,0.11 -0.07,0.11 -0.23,0.11 -0.11,0 -0.14,0 -0.27,0.01 -0.15,0.02 -0.15,0.04 -0.15,0.11 0,0 0,0.04 0.03,0.15 l 0.44,1.76 h 0.94 l 0.01,0.19 h -0.9 l 0.45,1.79 c 0.05,0.19 0.06,0.21 0.21,0.24 h 0.45 c 0.65,0 1.45,0 1.45,-0.72 0,-0.28 -0.13,-0.72 -0.46,-0.97 -0.29,-0.23 -0.72,-0.34 -1.2,-0.34 l -0.01,-0.19 c 0.6,0 0.86,-0.3 0.86,-0.63 0,-0.09 -0.06,-0.32 -0.1,-0.49 -0.08,-0.32 -0.11,-0.42 -0.11,-0.54 0,-0.55 0.51,-0.76 1.02,-0.76 0.65,0 0.93,0.68 0.93,0.8 0,0.03 -0.02,0.1 -0.12,0.1 -0.09,0 -0.11,-0.05 -0.13,-0.12 -0.1,-0.3 -0.35,-0.59 -0.65,-0.59 -0.18,0 -0.31,0.08 -0.31,0.46 0,0.17 0.04,0.53 0.07,0.72 0.03,0.18 0.03,0.25 0.03,0.33 0,0.08 0,0.3 -0.2,0.51 -0.13,0.14 -0.32,0.24 -0.47,0.29 z"
   inkscape:connector-curvature="0"
   style="fill:#000000;stroke-width:0" />
</g><g
   id="g7089"
   transform="matrix(1.6602427,0,0,-1.6667234,-107.19208,1420.6343)"
   xml:space="preserve"
   stroke-miterlimit="10.433"
   font-style="normal"
   font-variant="normal"
   font-weight="normal"
   font-stretch="normal"
   font-size-adjust="none"
   letter-spacing="normal"
   word-spacing="normal"
   ns0:text="$I_R^+$\n\n\n\n"
   ns0:preamble=""
   style="font-style:normal;font-variant:normal;font-weight:normal;font-stretch:normal;letter-spacing:normal;word-spacing:normal;text-anchor:start;fill:none;stroke:#000000;stroke-width:3.00574708;stroke-linecap:butt;stroke-linejoin:miter;stroke-miterlimit:10.43299961;stroke-opacity:1;stroke-dasharray:none;stroke-dashoffset:0;display:inline">
<path
   d="m 227.16,713.16 0.01,0.03 0.01,0.03 0,0.03 0.01,0.03 0.01,0.03 0.01,0.02 0.01,0.03 0.01,0.02 0.01,0.02 0.01,0.02 0.01,0.02 0.02,0.02 0.01,0.02 0.02,0.01 0.02,0.02 0.02,0.01 0.03,0.01 0.02,0.01 0.03,0.01 0.03,0.01 0.03,0.01 0.02,0.01 0.02,0 0.01,0 0.02,0.01 0.02,0 0.03,0 0.02,0.01 0.02,0 0.02,0 0.03,0 0.02,0 0.03,0.01 0.03,0 0.03,0 0.02,0 0.03,0 0.04,0 0.03,0 0.03,0 0.04,0 0.03,0 0.04,0 c 0.24,0 0.32,0 0.32,0.19 0,0.12 -0.11,0.12 -0.15,0.12 -0.29,0 -1.03,-0.03 -1.32,-0.03 -0.3,0 -1.03,0.03 -1.32,0.03 -0.08,0 -0.2,0 -0.2,-0.2 0,-0.11 0.09,-0.11 0.28,-0.11 0.41,0 0.68,0 0.68,-0.19 0,-0.04 0,-0.07 -0.02,-0.15 L 225,707.9 c -0.09,-0.37 -0.12,-0.47 -0.91,-0.47 -0.23,0 -0.32,0 -0.32,-0.2 0,-0.1 0.12,-0.1 0.15,-0.1 0.29,0 1.02,0.03 1.31,0.03 0.29,0 1.03,-0.03 1.33,-0.03 0.08,0 0.2,0 0.2,0.18 0,0.12 -0.08,0.12 -0.3,0.12 -0.18,0 -0.23,0 -0.43,0.02 -0.21,0.02 -0.24,0.06 -0.24,0.17 0,0.08 0.01,0.16 0.03,0.23 z"
   id="path7091"
   inkscape:connector-curvature="0"
   style="fill:#000000;stroke-width:0" />
<path
   d="m 231.82,712.96 h 2.13 c 0.09,0 0.26,0 0.26,0.17 0,0.17 -0.16,0.17 -0.26,0.17 h -2.13 v 2.13 c 0,0.09 0,0.26 -0.17,0.26 -0.17,0 -0.17,-0.16 -0.17,-0.26 v -2.13 h -2.14 c -0.09,0 -0.26,0 -0.26,-0.17 0,-0.17 0.16,-0.17 0.26,-0.17 h 2.14 v -2.14 c 0,-0.09 0,-0.25 0.16,-0.25 0.18,0 0.18,0.16 0.18,0.25 z"
   id="path7093"
   inkscape:connector-curvature="0"
   style="fill:#000000;stroke-width:0" />
<path
   d="m 231.95,706.56 0.08,0.02 0.07,0.02 0.08,0.02 0.07,0.03 0.08,0.02 0.07,0.03 0.07,0.03 0.07,0.03 0.07,0.03 0.07,0.04 0.07,0.03 0.06,0.04 0.06,0.04 0.06,0.04 0.06,0.04 0.05,0.04 0.06,0.04 0.05,0.05 0.04,0.04 0.05,0.05 0.04,0.05 0.04,0.05 0.04,0.05 0.03,0.05 0.03,0.05 0.02,0.05 0.02,0.05 0.02,0.06 0.02,0.05 0.01,0.06 0,0.06 0.01,0.06 c 0,0.59 -0.72,1.07 -1.72,1.07 h -2.14 c -0.14,0 -0.23,0 -0.23,-0.16 0,-0.09 0.09,-0.09 0.23,-0.09 0,0 0.14,0 0.26,-0.02 0.15,-0.01 0.16,-0.03 0.16,-0.09 0,-0.02 0,-0.05 -0.03,-0.16 l -0.92,-3.69 c -0.06,-0.24 -0.07,-0.29 -0.62,-0.29 -0.11,0 -0.2,0 -0.2,-0.15 0,-0.07 0.04,-0.1 0.11,-0.1 0.13,0 0.29,0.02 0.43,0.02 0.13,0 0.33,0 0.46,0 0.14,0 0.3,0 0.45,0 0.14,0 0.31,-0.02 0.46,-0.02 0.04,0 0.15,0 0.15,0.14 0,0.11 -0.07,0.11 -0.23,0.11 -0.11,0 -0.14,0 -0.27,0.01 -0.15,0.02 -0.15,0.04 -0.15,0.11 0,0 0,0.04 0.03,0.15 l 0.44,1.76 h 0.94 l 0.01,0.19 h -0.9 l 0.45,1.79 c 0.05,0.19 0.06,0.21 0.21,0.24 h 0.45 c 0.65,0 1.45,0 1.45,-0.72 0,-0.28 -0.13,-0.72 -0.46,-0.97 -0.29,-0.23 -0.72,-0.34 -1.2,-0.34 l -0.01,-0.19 c 0.6,0 0.86,-0.3 0.86,-0.63 0,-0.09 -0.06,-0.32 -0.1,-0.49 -0.08,-0.32 -0.11,-0.42 -0.11,-0.54 0,-0.55 0.51,-0.76 1.02,-0.76 0.65,0 0.93,0.68 0.93,0.8 0,0.03 -0.02,0.1 -0.12,0.1 -0.09,0 -0.11,-0.05 -0.13,-0.12 -0.1,-0.3 -0.35,-0.59 -0.65,-0.59 -0.18,0 -0.31,0.08 -0.31,0.46 0,0.17 0.04,0.53 0.07,0.72 0.03,0.18 0.03,0.25 0.03,0.33 0,0.08 0,0.3 -0.2,0.51 -0.13,0.14 -0.32,0.24 -0.47,0.29 z"
   id="path7095"
   inkscape:connector-curvature="0"
   style="fill:#000000;stroke-width:0" />
</g><g
   style="font-style:normal;font-variant:normal;font-weight:normal;font-stretch:normal;letter-spacing:normal;word-spacing:normal;text-anchor:start;fill:none;stroke:#000000;stroke-width:3.00574708;stroke-linecap:butt;stroke-linejoin:miter;stroke-miterlimit:10.43299961;stroke-opacity:1;stroke-dasharray:none;stroke-dashoffset:0;display:inline"
   ns0:preamble=""
   ns0:text="$R_D$\n\n\n\n"
   word-spacing="normal"
   letter-spacing="normal"
   font-size-adjust="none"
   font-stretch="normal"
   font-weight="normal"
   font-variant="normal"
   font-style="normal"
   stroke-miterlimit="10.433"
   xml:space="preserve"
   transform="matrix(1.6602427,0,0,-1.6667234,-198.56752,1387.2583)"
   id="g7308">
<path
   id="path7310"
   d="m 228.61,710.51 0.09,0.02 0.1,0.03 0.09,0.02 0.1,0.03 0.1,0.04 0.09,0.03 0.1,0.04 0.09,0.04 0.1,0.04 0.09,0.05 0.09,0.05 0.09,0.05 0.09,0.05 0.09,0.06 0.08,0.05 0.08,0.06 0.08,0.07 0.07,0.06 0.07,0.07 0.07,0.07 0.06,0.07 0.06,0.07 0.06,0.08 0.05,0.08 0.04,0.08 0.04,0.08 0.04,0.08 0.03,0.09 0.02,0.09 0.02,0.09 0.01,0.09 0,0.09 c 0,0.86 -0.9,1.49 -2.2,1.49 h -2.84 c -0.21,0 -0.29,0 -0.29,-0.2 0,-0.11 0.08,-0.11 0.27,-0.11 0.02,0 0.21,0 0.38,-0.02 0.18,-0.02 0.27,-0.03 0.27,-0.16 0,-0.03 -0.01,-0.07 -0.04,-0.18 l -1.33,-5.35 c -0.1,-0.39 -0.12,-0.47 -0.91,-0.47 -0.18,0 -0.27,0 -0.27,-0.2 0,-0.1 0.12,-0.1 0.14,-0.1 0.28,0 0.98,0.03 1.26,0.03 0.27,0 0.98,-0.03 1.26,-0.03 0.08,0 0.2,0 0.2,0.19 0,0.11 -0.09,0.11 -0.28,0.11 -0.37,0 -0.65,0 -0.65,0.18 0,0.06 0.02,0.11 0.03,0.17 l 0.66,2.64 h 1.19 l -0.01,0.22 h -1.12 l 0.65,2.6 c 0.06,0.23 0.09,0.33 0.28,0.36 0.09,0.01 0.41,0.01 0.61,0.01 0.7,0 1.81,0 1.81,-0.98 0,-0.34 -0.16,-1.03 -0.55,-1.41 -0.26,-0.26 -0.78,-0.58 -1.68,-0.58 l 0.01,-0.22 c 0.91,0 1.09,-0.56 1.09,-0.91 0,-0.15 -0.09,-0.45 -0.14,-0.68 -0.07,-0.28 -0.16,-0.65 -0.16,-0.85 0,-1.07 1.19,-1.07 1.32,-1.07 0.85,0 1.2,1 1.2,1.14 0,0.12 -0.11,0.12 -0.12,0.12 -0.09,0 -0.11,-0.07 -0.13,-0.14 -0.25,-0.74 -0.68,-0.9 -0.91,-0.9 -0.33,0 -0.4,0.21 -0.4,0.6 0,0.31 0.06,0.82 0.1,1.14 0.02,0.14 0.04,0.33 0.04,0.46 0,0.77 -0.66,1.08 -0.93,1.18 z"
   inkscape:connector-curvature="0"
   style="fill:#000000;stroke-width:0" />
<path
   id="path7312"
   d="m 232.31,706.17 0,-0.02 -0.01,-0.02 0,-0.02 -0.01,-0.02 0,-0.01 -0.01,-0.02 0,-0.02 -0.01,-0.01 -0.01,-0.02 0,-0.01 -0.01,-0.01 -0.01,-0.01 -0.01,-0.01 -0.01,-0.01 -0.02,-0.01 -0.01,-0.01 -0.02,-0.01 -0.01,-0.01 -0.02,0 -0.02,-0.01 -0.01,0 -0.01,0 -0.02,-0.01 -0.01,0 -0.01,0 -0.01,0 -0.02,0 -0.01,-0.01 -0.02,0 -0.01,0 -0.02,0 -0.02,0 -0.01,0 -0.02,0 -0.02,-0.01 -0.02,0 -0.02,0 -0.02,0 -0.02,0 -0.02,0 -0.03,0 -0.02,0 -0.02,0 -0.03,0 c -0.13,0 -0.21,0 -0.21,-0.15 0,-0.1 0.08,-0.1 0.21,-0.1 h 2.49 l -0.13,0.25 h -0.95 c -0.21,0 -0.22,0.01 -0.22,0.07 0,0.01 0,0.04 0.03,0.15 l 0.95,3.79 c 0.06,0.22 0.07,0.24 0.36,0.24 h 0.89 c 0.78,0 1.43,-0.39 1.43,-1.34 0,-0.15 -0.06,-1.36 -0.76,-2.15 -0.27,-0.31 -0.87,-0.76 -1.73,-0.76 l 0.13,-0.25 c 1.54,0 3.03,1.42 3.03,2.94 0,1.01 -0.71,1.81 -1.84,1.81 h -2.54 c -0.14,0 -0.22,0 -0.22,-0.15 0,-0.1 0.08,-0.1 0.23,-0.1 0.11,0 0.14,0 0.26,-0.01 0.14,-0.02 0.16,-0.03 0.16,-0.1 0,-0.01 0,-0.05 -0.03,-0.15 z"
   inkscape:connector-curvature="0"
   style="fill:#000000;stroke-width:0" />
</g><g
   id="g7525"
   transform="matrix(1.1355601,1.2111601,1.2158878,-1.1399927,-879.85054,690.353)"
   xml:space="preserve"
   stroke-miterlimit="10.433"
   font-style="normal"
   font-variant="normal"
   font-weight="normal"
   font-stretch="normal"
   font-size-adjust="none"
   letter-spacing="normal"
   word-spacing="normal"
   ns0:text="$R_{CM}^-$\n\n\n\n"
   ns0:preamble=""
   style="font-style:normal;font-variant:normal;font-weight:normal;font-stretch:normal;letter-spacing:normal;word-spacing:normal;text-anchor:start;fill:none;stroke:#000000;stroke-width:3.00574708;stroke-linecap:butt;stroke-linejoin:miter;stroke-miterlimit:10.43299961;stroke-opacity:1;stroke-dasharray:none;stroke-dashoffset:0;display:inline">
<path
   d="m 228.61,710.51 0.09,0.02 0.1,0.03 0.09,0.02 0.1,0.03 0.1,0.04 0.09,0.03 0.1,0.04 0.09,0.04 0.1,0.04 0.09,0.05 0.09,0.05 0.09,0.05 0.09,0.05 0.09,0.06 0.08,0.05 0.08,0.06 0.08,0.07 0.07,0.06 0.07,0.07 0.07,0.07 0.06,0.07 0.06,0.07 0.06,0.08 0.05,0.08 0.04,0.08 0.04,0.08 0.04,0.08 0.03,0.09 0.02,0.09 0.02,0.09 0.01,0.09 0,0.09 c 0,0.86 -0.9,1.49 -2.2,1.49 h -2.84 c -0.21,0 -0.29,0 -0.29,-0.2 0,-0.11 0.08,-0.11 0.27,-0.11 0.02,0 0.21,0 0.38,-0.02 0.18,-0.02 0.27,-0.03 0.27,-0.16 0,-0.03 -0.01,-0.07 -0.04,-0.18 l -1.33,-5.35 c -0.1,-0.39 -0.12,-0.47 -0.91,-0.47 -0.18,0 -0.27,0 -0.27,-0.2 0,-0.1 0.12,-0.1 0.14,-0.1 0.28,0 0.98,0.03 1.26,0.03 0.27,0 0.98,-0.03 1.26,-0.03 0.08,0 0.2,0 0.2,0.19 0,0.11 -0.09,0.11 -0.28,0.11 -0.37,0 -0.65,0 -0.65,0.18 0,0.06 0.02,0.11 0.03,0.17 l 0.66,2.64 h 1.19 l -0.01,0.22 h -1.12 l 0.65,2.6 c 0.06,0.23 0.09,0.33 0.28,0.36 0.09,0.01 0.41,0.01 0.61,0.01 0.7,0 1.81,0 1.81,-0.98 0,-0.34 -0.16,-1.03 -0.55,-1.41 -0.26,-0.26 -0.78,-0.58 -1.68,-0.58 l 0.01,-0.22 c 0.91,0 1.09,-0.56 1.09,-0.91 0,-0.15 -0.09,-0.45 -0.14,-0.68 -0.07,-0.28 -0.16,-0.65 -0.16,-0.85 0,-1.07 1.19,-1.07 1.32,-1.07 0.85,0 1.2,1 1.2,1.14 0,0.12 -0.11,0.12 -0.12,0.12 -0.09,0 -0.11,-0.07 -0.13,-0.14 -0.25,-0.74 -0.68,-0.9 -0.91,-0.9 -0.33,0 -0.4,0.21 -0.4,0.6 0,0.31 0.06,0.82 0.1,1.14 0.02,0.14 0.04,0.33 0.04,0.46 0,0.77 -0.66,1.08 -0.93,1.18 z"
   id="path7527"
   inkscape:connector-curvature="0"
   style="fill:#000000;stroke-width:0" />
<path
   d="m 236.26,712.96 0.01,0 0.01,0 0.01,0 0.01,0 0.02,0 0.01,0 0.02,0 0.01,0 0.01,0 0.01,0 0.01,0.01 0.01,0 0.02,0 0.01,0.01 0.01,0 0.01,0 0.01,0.01 0.01,0 0.01,0.01 0,0.01 0.01,0 0.01,0.01 0,0 0.01,0.01 0,0 0,0.01 0.01,0 0,0.01 0,0 0,0.01 0,0 0.01,0.01 0,0.01 0,0 0,0.01 0,0.01 0,0 0,0.01 0,0.01 0,0.01 c 0,0.17 -0.16,0.17 -0.27,0.17 h -4.16 c -0.11,0 -0.27,0 -0.27,-0.17 0,-0.17 0.16,-0.17 0.27,-0.17 z"
   id="path7529"
   inkscape:connector-curvature="0"
   style="fill:#000000;stroke-width:0" />
<path
   d="m 236.87,708.99 0,0.01 0,0 0,0.01 0,0 0,0 0,0.01 -0.01,0 0,0 0,0.01 0,0 0,0.01 0,0 0,0 -0.01,0.01 0,0 0,0 0,0.01 -0.01,0 0,0 0,0.01 -0.01,0 0,0 0,0 -0.01,0.01 0,0 -0.01,0 0,0 -0.01,0 0,0 0,0 -0.01,0 0,0 0,0 -0.01,0 0,0 0,0.01 c -0.05,0 -0.07,-0.02 -0.13,-0.09 l -0.51,-0.53 c -0.06,0.08 -0.45,0.62 -1.31,0.62 -1.69,0 -3.34,-1.5 -3.34,-3.07 0,-1.13 0.89,-1.96 2.13,-1.96 0.38,0 1.05,0.07 1.76,0.68 0.55,0.47 0.71,1.07 0.71,1.13 0,0.09 -0.09,0.09 -0.12,0.09 -0.09,0 -0.1,-0.04 -0.13,-0.12 -0.28,-0.95 -1.26,-1.53 -2.1,-1.53 -0.74,0 -1.56,0.4 -1.56,1.49 0,0.21 0.05,1.3 0.85,2.18 0.48,0.54 1.21,0.86 1.87,0.86 0.81,0 1.29,-0.59 1.29,-1.37 0,-0.19 -0.03,-0.24 -0.03,-0.28 0,-0.09 0.1,-0.09 0.13,-0.09 0.11,0 0.11,0.02 0.15,0.15 z"
   id="path7531"
   inkscape:connector-curvature="0"
   style="fill:#000000;stroke-width:0" />
<path
   d="m 244.31,708.38 0.01,0.03 0,0.02 0.01,0.02 0,0.02 0.01,0.02 0,0.02 0.01,0.01 0.01,0.02 0,0.02 0.01,0.01 0.01,0.01 0.01,0.01 0.01,0.02 0.01,0.01 0.01,0.01 0.02,0.01 0.01,0 0.02,0.01 0.02,0.01 0.01,0 0.03,0.01 0.01,0 0.01,0.01 0.01,0 0.01,0 0.02,0 0.01,0 0.02,0 0.01,0.01 0.02,0 0.01,0 0.02,0 0.02,0 0.01,0 0.02,0 0.02,0 0.02,0 0.02,0 0.02,0.01 0.02,0 0.03,0 0.02,0 0.02,0 c 0.15,0 0.24,0 0.24,0.14 0,0.11 -0.09,0.11 -0.21,0.11 h -0.95 c -0.2,0 -0.21,-0.01 -0.3,-0.14 l -2.69,-3.97 -0.68,3.92 c -0.04,0.18 -0.04,0.19 -0.25,0.19 h -0.99 c -0.14,0 -0.23,0 -0.23,-0.16 0,-0.09 0.08,-0.09 0.23,-0.09 0.11,0 0.14,0 0.27,-0.02 0.14,-0.01 0.15,-0.03 0.15,-0.09 0,-0.01 0,-0.05 -0.03,-0.16 l -0.87,-3.49 c -0.07,-0.23 -0.17,-0.47 -0.73,-0.49 -0.06,0 -0.15,-0.01 -0.15,-0.16 0,0 0.01,-0.09 0.11,-0.09 0.21,0 0.5,0.02 0.72,0.02 0.17,0 0.58,-0.02 0.74,-0.02 0.04,0 0.14,0 0.14,0.15 0,0.09 -0.09,0.1 -0.15,0.1 -0.45,0.01 -0.45,0.19 -0.45,0.29 0,0.03 0,0.06 0.03,0.17 l 0.93,3.7 h 0 l 0.75,-4.22 c 0.02,-0.13 0.03,-0.19 0.14,-0.19 0.09,0 0.15,0.07 0.2,0.15 l 2.92,4.33 0.01,-0.01 -0.98,-3.93 c -0.06,-0.24 -0.07,-0.29 -0.61,-0.29 -0.13,0 -0.21,0 -0.21,-0.16 0,0 0,-0.09 0.11,-0.09 0.13,0 0.29,0.02 0.43,0.02 0.14,0 0.3,0 0.44,0 0.2,0 0.69,-0.02 0.88,-0.02 0.05,0 0.15,0 0.15,0.15 0,0.1 -0.08,0.1 -0.22,0.1 -0.01,0 -0.14,0 -0.27,0.01 -0.16,0.01 -0.16,0.04 -0.16,0.11 0,0.04 0.02,0.11 0.03,0.15 z"
   id="path7533"
   inkscape:connector-curvature="0"
   style="fill:#000000;stroke-width:0" />
</g><g
   style="font-style:normal;font-variant:normal;font-weight:normal;font-stretch:normal;letter-spacing:normal;word-spacing:normal;text-anchor:start;fill:none;stroke:#000000;stroke-width:3.00574708;stroke-linecap:butt;stroke-linejoin:miter;stroke-miterlimit:10.43299961;stroke-opacity:1;stroke-dasharray:none;stroke-dashoffset:0;display:inline"
   ns0:preamble=""
   ns0:text="$R_{CM}^+$\n\n\n\n\n"
   word-spacing="normal"
   letter-spacing="normal"
   font-size-adjust="none"
   font-stretch="normal"
   font-weight="normal"
   font-variant="normal"
   font-style="normal"
   stroke-miterlimit="10.433"
   xml:space="preserve"
   transform="matrix(1.1070365,-1.2372858,-1.2421155,-1.1113577,866.96267,1319.8951)"
   id="g7780">
<path
   id="path7782"
   d="m 228.61,710.51 0.09,0.02 0.1,0.03 0.09,0.02 0.1,0.03 0.1,0.04 0.09,0.03 0.1,0.04 0.09,0.04 0.1,0.04 0.09,0.05 0.09,0.05 0.09,0.05 0.09,0.05 0.09,0.06 0.08,0.05 0.08,0.06 0.08,0.07 0.07,0.06 0.07,0.07 0.07,0.07 0.06,0.07 0.06,0.07 0.06,0.08 0.05,0.08 0.04,0.08 0.04,0.08 0.04,0.08 0.03,0.09 0.02,0.09 0.02,0.09 0.01,0.09 0,0.09 c 0,0.86 -0.9,1.49 -2.2,1.49 h -2.84 c -0.21,0 -0.29,0 -0.29,-0.2 0,-0.11 0.08,-0.11 0.27,-0.11 0.02,0 0.21,0 0.38,-0.02 0.18,-0.02 0.27,-0.03 0.27,-0.16 0,-0.03 -0.01,-0.07 -0.04,-0.18 l -1.33,-5.35 c -0.1,-0.39 -0.12,-0.47 -0.91,-0.47 -0.18,0 -0.27,0 -0.27,-0.2 0,-0.1 0.12,-0.1 0.14,-0.1 0.28,0 0.98,0.03 1.26,0.03 0.27,0 0.98,-0.03 1.26,-0.03 0.08,0 0.2,0 0.2,0.19 0,0.11 -0.09,0.11 -0.28,0.11 -0.37,0 -0.65,0 -0.65,0.18 0,0.06 0.02,0.11 0.03,0.17 l 0.66,2.64 h 1.19 l -0.01,0.22 h -1.12 l 0.65,2.6 c 0.06,0.23 0.09,0.33 0.28,0.36 0.09,0.01 0.41,0.01 0.61,0.01 0.7,0 1.81,0 1.81,-0.98 0,-0.34 -0.16,-1.03 -0.55,-1.41 -0.26,-0.26 -0.78,-0.58 -1.68,-0.58 l 0.01,-0.22 c 0.91,0 1.09,-0.56 1.09,-0.91 0,-0.15 -0.09,-0.45 -0.14,-0.68 -0.07,-0.28 -0.16,-0.65 -0.16,-0.85 0,-1.07 1.19,-1.07 1.32,-1.07 0.85,0 1.2,1 1.2,1.14 0,0.12 -0.11,0.12 -0.12,0.12 -0.09,0 -0.11,-0.07 -0.13,-0.14 -0.25,-0.74 -0.68,-0.9 -0.91,-0.9 -0.33,0 -0.4,0.21 -0.4,0.6 0,0.31 0.06,0.82 0.1,1.14 0.02,0.14 0.04,0.33 0.04,0.46 0,0.77 -0.66,1.08 -0.93,1.18 z"
   inkscape:connector-curvature="0"
   style="fill:#000000;stroke-width:0" />
<path
   id="path7784"
   d="m 234.3,712.96 h 2.13 c 0.09,0 0.26,0 0.26,0.17 0,0.17 -0.16,0.17 -0.26,0.17 h -2.13 v 2.13 c 0,0.09 0,0.26 -0.17,0.26 -0.17,0 -0.17,-0.16 -0.17,-0.26 v -2.13 h -2.14 c -0.09,0 -0.26,0 -0.26,-0.17 0,-0.17 0.16,-0.17 0.26,-0.17 h 2.14 v -2.14 c 0,-0.09 0,-0.25 0.16,-0.25 0.18,0 0.18,0.16 0.18,0.25 z"
   inkscape:connector-curvature="0"
   style="fill:#000000;stroke-width:0" />
<path
   id="path7786"
   d="m 236.87,708.99 0,0.01 0,0 0,0.01 0,0 0,0 0,0.01 -0.01,0 0,0 0,0.01 0,0 0,0.01 0,0 0,0 -0.01,0.01 0,0 0,0 0,0.01 -0.01,0 0,0 0,0.01 -0.01,0 0,0 0,0 -0.01,0.01 0,0 -0.01,0 0,0 -0.01,0 0,0 0,0 -0.01,0 0,0 0,0 -0.01,0 0,0 0,0.01 c -0.05,0 -0.07,-0.02 -0.13,-0.09 l -0.51,-0.53 c -0.06,0.08 -0.45,0.62 -1.31,0.62 -1.69,0 -3.34,-1.5 -3.34,-3.07 0,-1.13 0.89,-1.96 2.13,-1.96 0.38,0 1.05,0.07 1.76,0.68 0.55,0.47 0.71,1.07 0.71,1.13 0,0.09 -0.09,0.09 -0.12,0.09 -0.09,0 -0.1,-0.04 -0.13,-0.12 -0.28,-0.95 -1.26,-1.53 -2.1,-1.53 -0.74,0 -1.56,0.4 -1.56,1.49 0,0.21 0.05,1.3 0.85,2.18 0.48,0.54 1.21,0.86 1.87,0.86 0.81,0 1.29,-0.59 1.29,-1.37 0,-0.19 -0.03,-0.24 -0.03,-0.28 0,-0.09 0.1,-0.09 0.13,-0.09 0.11,0 0.11,0.02 0.15,0.15 z"
   inkscape:connector-curvature="0"
   style="fill:#000000;stroke-width:0" />
<path
   id="path7788"
   d="m 244.31,708.38 0.01,0.03 0,0.02 0.01,0.02 0,0.02 0.01,0.02 0,0.02 0.01,0.01 0.01,0.02 0,0.02 0.01,0.01 0.01,0.01 0.01,0.01 0.01,0.02 0.01,0.01 0.01,0.01 0.02,0.01 0.01,0 0.02,0.01 0.02,0.01 0.01,0 0.03,0.01 0.01,0 0.01,0.01 0.01,0 0.01,0 0.02,0 0.01,0 0.02,0 0.01,0.01 0.02,0 0.01,0 0.02,0 0.02,0 0.01,0 0.02,0 0.02,0 0.02,0 0.02,0 0.02,0.01 0.02,0 0.03,0 0.02,0 0.02,0 c 0.15,0 0.24,0 0.24,0.14 0,0.11 -0.09,0.11 -0.21,0.11 h -0.95 c -0.2,0 -0.21,-0.01 -0.3,-0.14 l -2.69,-3.97 -0.68,3.92 c -0.04,0.18 -0.04,0.19 -0.25,0.19 h -0.99 c -0.14,0 -0.23,0 -0.23,-0.16 0,-0.09 0.08,-0.09 0.23,-0.09 0.11,0 0.14,0 0.27,-0.02 0.14,-0.01 0.15,-0.03 0.15,-0.09 0,-0.01 0,-0.05 -0.03,-0.16 l -0.87,-3.49 c -0.07,-0.23 -0.17,-0.47 -0.73,-0.49 -0.06,0 -0.15,-0.01 -0.15,-0.16 0,0 0.01,-0.09 0.11,-0.09 0.21,0 0.5,0.02 0.72,0.02 0.17,0 0.58,-0.02 0.74,-0.02 0.04,0 0.14,0 0.14,0.15 0,0.09 -0.09,0.1 -0.15,0.1 -0.45,0.01 -0.45,0.19 -0.45,0.29 0,0.03 0,0.06 0.03,0.17 l 0.93,3.7 h 0 l 0.75,-4.22 c 0.02,-0.13 0.03,-0.19 0.14,-0.19 0.09,0 0.15,0.07 0.2,0.15 l 2.92,4.33 0.01,-0.01 -0.98,-3.93 c -0.06,-0.24 -0.07,-0.29 -0.61,-0.29 -0.13,0 -0.21,0 -0.21,-0.16 0,0 0,-0.09 0.11,-0.09 0.13,0 0.29,0.02 0.43,0.02 0.14,0 0.3,0 0.44,0 0.2,0 0.69,-0.02 0.88,-0.02 0.05,0 0.15,0 0.15,0.15 0,0.1 -0.08,0.1 -0.22,0.1 -0.01,0 -0.14,0 -0.27,0.01 -0.16,0.01 -0.16,0.04 -0.16,0.11 0,0.04 0.02,0.11 0.03,0.15 z"
   inkscape:connector-curvature="0"
   style="fill:#000000;stroke-width:0" />
</g><path
   style="fill:none;stroke:#000000;stroke-width:1px;stroke-linecap:butt;stroke-linejoin:miter;stroke-opacity:1;marker-end:url(#TriangleOutL)"
   d="m 424.8,195.49198 36.4,-0.18396"
   id="path8570"
   inkscape:connector-curvature="0" /><path
   style="fill:none;stroke:#000000;stroke-width:1px;stroke-linecap:butt;stroke-linejoin:miter;stroke-opacity:1;marker-end:url(#TriangleOutL);display:inline"
   d="m 18.484714,149.05533 36.399999,-0.18396"
   id="path8570-5"
   inkscape:connector-curvature="0" /><text
   xml:space="preserve"
   style="font-size:32.7597084px;font-style:normal;font-variant:normal;font-weight:normal;font-stretch:normal;text-align:start;line-height:125%;letter-spacing:0px;word-spacing:0px;writing-mode:lr-tb;text-anchor:start;fill:#000000;fill-opacity:1;stroke:none;font-family:Freestyle Script;-inkscape-font-specification:Freestyle Script"
   x="84.577377"
   y="169.59674"
   id="text9032"
   sodipodi:linespacing="125%"><tspan
     sodipodi:role="line"
     x="84.577377"
     y="169.59674"
     id="tspan9036">inv</tspan></text>












<g
   id="g9157"
   transform="matrix(2.3515715,0,0,-2.4284939,-519.67743,1871.2512)"
   xml:space="preserve"
   stroke-miterlimit="10.433"
   font-style="normal"
   font-variant="normal"
   font-weight="normal"
   font-stretch="normal"
   font-size-adjust="none"
   letter-spacing="normal"
   word-spacing="normal"
   ns0:text="$i^-$\n\n\n"
   ns0:preamble=""
   style="font-style:normal;font-variant:normal;font-weight:normal;font-stretch:normal;letter-spacing:normal;word-spacing:normal;text-anchor:start;fill:none;stroke:#000000;stroke-width:2.09229255;stroke-linecap:butt;stroke-linejoin:miter;stroke-miterlimit:10.43299961;stroke-opacity:1;stroke-dasharray:none;stroke-dashoffset:0;display:inline">
<path
   style="fill:#000000;stroke-width:0"
   inkscape:connector-curvature="0"
   d="m 226.26,713.34 0,0.02 0,0.02 0,0.02 0,0.02 -0.01,0.01 0,0.02 -0.01,0.02 0,0.02 -0.01,0.01 -0.01,0.02 0,0.01 -0.01,0.02 -0.01,0.01 -0.01,0.01 -0.01,0.02 -0.02,0.01 -0.01,0.01 -0.01,0.01 -0.01,0.01 -0.02,0.01 -0.01,0.01 -0.02,0.01 -0.02,0.01 -0.01,0.01 -0.02,0 -0.02,0.01 -0.02,0 -0.01,0.01 -0.02,0 -0.02,0 -0.02,0 -0.03,0 c -0.26,0 -0.53,-0.25 -0.53,-0.52 0,-0.19 0.13,-0.36 0.38,-0.36 0.22,0 0.52,0.23 0.52,0.52 z"
   id="path9159" />
<path
   style="fill:#000000;stroke-width:0"
   inkscape:connector-curvature="0"
   d="m 225.51,709.6 0.01,0.03 0.01,0.02 0.01,0.03 0,0.02 0.01,0.02 0.01,0.02 0.01,0.02 0.01,0.02 0,0.01 0.01,0.02 0.01,0.02 0,0.01 0.01,0.02 0,0.01 0.01,0.03 0.01,0.03 0.01,0.03 0.01,0.01 0,0.02 0.01,0.01 0.01,0.02 0,0.01 0.01,0.02 0,0.02 0.01,0.02 0.01,0.02 0.01,0.02 0.01,0.03 0.01,0.02 c 0.07,0.2 0.12,0.34 0.12,0.53 0,0.45 -0.31,0.81 -0.81,0.81 -0.94,0 -1.32,-1.44 -1.32,-1.53 0,-0.1 0.1,-0.1 0.12,-0.1 0.1,0 0.11,0.02 0.16,0.18 0.27,0.94 0.67,1.23 1.01,1.23 0.08,0 0.25,0 0.25,-0.31 0,-0.21 -0.07,-0.42 -0.11,-0.52 -0.08,-0.26 -0.53,-1.41 -0.69,-1.84 -0.1,-0.26 -0.23,-0.59 -0.23,-0.8 0,-0.47 0.34,-0.81 0.82,-0.81 0.93,0 1.3,1.44 1.3,1.53 0,0.1 -0.09,0.1 -0.12,0.1 -0.1,0 -0.1,-0.03 -0.15,-0.18 -0.18,-0.63 -0.51,-1.24 -1.01,-1.24 -0.17,0 -0.24,0.1 -0.24,0.33 0,0.25 0.06,0.39 0.29,1 z"
   id="path9161" />
<path
   style="fill:#000000;stroke-width:0"
   inkscape:connector-curvature="0"
   d="m 232.05,712.31 0.01,0 0.01,0 0.01,0 0.01,0 0.02,0 0.01,0 0.02,0 0.01,0 0.01,0.01 0.01,0 0.01,0 0.01,0 0.02,0 0.01,0.01 0.01,0 0.01,0.01 0.01,0 0.01,0.01 0.01,0 0,0.01 0.01,0.01 0.01,0 0,0.01 0.01,0 0,0.01 0,0 0.01,0.01 0,0 0,0.01 0,0 0,0.01 0.01,0 0,0.01 0,0.01 0,0 0,0.01 0,0.01 0,0 0,0.01 0,0.01 c 0,0.17 -0.16,0.17 -0.27,0.17 h -4.15 c -0.12,0 -0.28,0 -0.28,-0.17 0,-0.17 0.16,-0.17 0.28,-0.17 z"
   id="path9163" />
</g>
<path
   style="fill:none;stroke:#000000;stroke-width:1px;stroke-linecap:butt;stroke-linejoin:miter;stroke-opacity:1;marker-end:url(#TriangleOutL);display:inline"
   d="M 20.656287,257.97646 57.056286,257.7925"
   id="path8570-5-9"
   inkscape:connector-curvature="0" /><g
   style="font-style:normal;font-variant:normal;font-weight:normal;font-stretch:normal;letter-spacing:normal;word-spacing:normal;text-anchor:start;fill:none;stroke:#000000;stroke-width:2.09229255;stroke-linecap:butt;stroke-linejoin:miter;stroke-miterlimit:10.43299961;stroke-opacity:1;stroke-dasharray:none;stroke-dashoffset:0;display:inline"
   ns0:preamble=""
   ns0:text="$i^+$\n\n\n\n"
   word-spacing="normal"
   letter-spacing="normal"
   font-size-adjust="none"
   font-stretch="normal"
   font-weight="normal"
   font-variant="normal"
   font-style="normal"
   stroke-miterlimit="10.433"
   xml:space="preserve"
   transform="matrix(2.3515715,0,0,-2.4284939,-519.58281,1981.565)"
   id="g9444">
<path
   id="path9446"
   d="m 226.26,713.34 0,0.02 0,0.02 0,0.02 0,0.02 -0.01,0.01 0,0.02 -0.01,0.02 0,0.02 -0.01,0.01 -0.01,0.02 0,0.01 -0.01,0.02 -0.01,0.01 -0.01,0.01 -0.01,0.02 -0.02,0.01 -0.01,0.01 -0.01,0.01 -0.01,0.01 -0.02,0.01 -0.01,0.01 -0.02,0.01 -0.02,0.01 -0.01,0.01 -0.02,0 -0.02,0.01 -0.02,0 -0.01,0.01 -0.02,0 -0.02,0 -0.02,0 -0.03,0 c -0.26,0 -0.53,-0.25 -0.53,-0.52 0,-0.19 0.13,-0.36 0.38,-0.36 0.22,0 0.52,0.23 0.52,0.52 z"
   inkscape:connector-curvature="0"
   style="fill:#000000;stroke-width:0" />
<path
   id="path9448"
   d="m 225.51,709.6 0.01,0.03 0.01,0.02 0.01,0.03 0,0.02 0.01,0.02 0.01,0.02 0.01,0.02 0.01,0.02 0,0.01 0.01,0.02 0.01,0.02 0,0.01 0.01,0.02 0,0.01 0.01,0.03 0.01,0.03 0.01,0.03 0.01,0.01 0,0.02 0.01,0.01 0.01,0.02 0,0.01 0.01,0.02 0,0.02 0.01,0.02 0.01,0.02 0.01,0.02 0.01,0.03 0.01,0.02 c 0.07,0.2 0.12,0.34 0.12,0.53 0,0.45 -0.31,0.81 -0.81,0.81 -0.94,0 -1.32,-1.44 -1.32,-1.53 0,-0.1 0.1,-0.1 0.12,-0.1 0.1,0 0.11,0.02 0.16,0.18 0.27,0.94 0.67,1.23 1.01,1.23 0.08,0 0.25,0 0.25,-0.31 0,-0.21 -0.07,-0.42 -0.11,-0.52 -0.08,-0.26 -0.53,-1.41 -0.69,-1.84 -0.1,-0.26 -0.23,-0.59 -0.23,-0.8 0,-0.47 0.34,-0.81 0.82,-0.81 0.93,0 1.3,1.44 1.3,1.53 0,0.1 -0.09,0.1 -0.12,0.1 -0.1,0 -0.1,-0.03 -0.15,-0.18 -0.18,-0.63 -0.51,-1.24 -1.01,-1.24 -0.17,0 -0.24,0.1 -0.24,0.33 0,0.25 0.06,0.39 0.29,1 z"
   inkscape:connector-curvature="0"
   style="fill:#000000;stroke-width:0" />
<path
   id="path9450"
   d="m 230.09,712.31 h 2.13 c 0.09,0 0.26,0 0.26,0.17 0,0.17 -0.16,0.17 -0.26,0.17 h -2.13 v 2.14 c 0,0.09 0,0.25 -0.17,0.25 -0.17,0 -0.17,-0.16 -0.17,-0.25 v -2.14 h -2.14 c -0.09,0 -0.26,0 -0.26,-0.17 0,-0.17 0.16,-0.17 0.26,-0.17 h 2.14 v -2.13 c 0,-0.09 0,-0.26 0.16,-0.26 0.18,0 0.18,0.16 0.18,0.26 z"
   inkscape:connector-curvature="0"
   style="fill:#000000;stroke-width:0" />
</g>
<text
   xml:space="preserve"
   style="font-size:32.7597084px;font-style:normal;font-variant:normal;font-weight:normal;font-stretch:normal;text-align:start;line-height:125%;letter-spacing:0px;word-spacing:0px;writing-mode:lr-tb;text-anchor:start;fill:#000000;fill-opacity:1;stroke:none;display:inline;font-family:Freestyle Script;-inkscape-font-specification:Freestyle Script"
   x="79.412109"
   y="248.88167"
   id="text9032-1"
   sodipodi:linespacing="125%"><tspan
     sodipodi:role="line"
     x="79.412109"
     y="248.88167"
     id="tspan9036-7">neinv</tspan></text>










<path
   style="fill:none;stroke:#000000;stroke-width:1px;stroke-linecap:butt;stroke-linejoin:miter;stroke-opacity:1;marker-end:url(#TriangleOutL);display:inline"
   d="m 70.626553,155.47055 -0.177047,89.97447"
   id="path8570-5-1"
   inkscape:connector-curvature="0" /><g
   id="g9783"
   transform="matrix(1.6602427,0,0,-1.6667234,-295.84707,1385.337)"
   xml:space="preserve"
   stroke-miterlimit="10.433"
   font-style="normal"
   font-variant="normal"
   font-weight="normal"
   font-stretch="normal"
   font-size-adjust="none"
   letter-spacing="normal"
   word-spacing="normal"
   ns0:text="$u_{D}$\n\n\n\n\n"
   ns0:preamble=""
   style="font-style:normal;font-variant:normal;font-weight:normal;font-stretch:normal;letter-spacing:normal;word-spacing:normal;text-anchor:start;fill:none;stroke:#000000;stroke-width:3.00574708;stroke-linecap:butt;stroke-linejoin:miter;stroke-miterlimit:10.43299961;stroke-opacity:1;stroke-dasharray:none;stroke-dashoffset:0;display:inline">
<path
   style="fill:#000000;stroke-width:0"
   inkscape:connector-curvature="0"
   d="m 226.92,707.68 0.01,-0.04 0.01,-0.03 0.02,-0.04 0.01,-0.03 0.02,-0.04 0.02,-0.03 0.02,-0.03 0.02,-0.03 0.02,-0.03 0.02,-0.03 0.02,-0.03 0.03,-0.03 0.02,-0.02 0.03,-0.03 0.03,-0.02 0.02,-0.02 0.03,-0.03 0.03,-0.01 0.04,-0.02 0.03,-0.02 0.03,-0.02 0.03,-0.01 0.04,-0.02 0.03,-0.01 0.04,-0.01 0.04,-0.01 0.03,-0.01 0.04,0 0.04,-0.01 0.04,0 0.04,0 0.04,0 c 0.35,0 0.58,0.22 0.74,0.54 0.16,0.36 0.3,0.97 0.3,0.99 0,0.1 -0.09,0.1 -0.12,0.1 -0.1,0 -0.11,-0.04 -0.14,-0.18 -0.14,-0.56 -0.33,-1.24 -0.75,-1.24 -0.21,0 -0.31,0.13 -0.31,0.46 0,0.22 0.12,0.69 0.2,1.04 l 0.28,1.07 c 0.03,0.15 0.13,0.53 0.17,0.68 0.05,0.23 0.15,0.61 0.15,0.67 0,0.18 -0.14,0.26 -0.29,0.26 -0.05,0 -0.31,0 -0.39,-0.34 -0.19,-0.73 -0.63,-2.47 -0.75,-3 -0.01,-0.04 -0.41,-0.84 -1.14,-0.84 -0.51,0 -0.61,0.45 -0.61,0.82 0,0.56 0.28,1.34 0.53,2.03 0.12,0.3 0.17,0.44 0.17,0.63 0,0.45 -0.31,0.81 -0.81,0.81 -0.95,0 -1.32,-1.44 -1.32,-1.53 0,-0.1 0.1,-0.1 0.12,-0.1 0.1,0 0.11,0.02 0.16,0.18 0.25,0.87 0.63,1.23 1.01,1.23 0.09,0 0.25,-0.01 0.25,-0.32 0,-0.24 -0.11,-0.53 -0.17,-0.68 -0.37,-0.98 -0.58,-1.6 -0.58,-2.09 0,-0.95 0.69,-1.19 1.23,-1.19 0.65,0 1.01,0.44 1.18,0.66 z"
   id="path9785" />
<path
   style="fill:#000000;stroke-width:0"
   inkscape:connector-curvature="0"
   d="m 230.45,706.17 0,-0.02 -0.01,-0.02 0,-0.02 -0.01,-0.02 0,-0.01 -0.01,-0.02 -0.01,-0.02 0,-0.01 -0.01,-0.02 -0.01,-0.01 0,-0.01 -0.01,-0.01 -0.01,-0.01 -0.02,-0.01 -0.01,-0.01 -0.01,-0.01 -0.02,-0.01 -0.01,-0.01 -0.02,0 -0.02,-0.01 -0.01,0 -0.02,0 -0.01,-0.01 -0.01,0 -0.01,0 -0.02,0 -0.01,0 -0.01,-0.01 -0.02,0 -0.02,0 -0.01,0 -0.02,0 -0.02,0 -0.01,0 -0.02,-0.01 -0.02,0 -0.02,0 -0.02,0 -0.02,0 -0.03,0 -0.02,0 -0.02,0 -0.03,0 -0.02,0 c -0.13,0 -0.21,0 -0.21,-0.15 0,-0.1 0.08,-0.1 0.21,-0.1 h 2.48 l -0.12,0.25 h -0.95 c -0.21,0 -0.22,0.01 -0.22,0.07 0,0.01 0,0.04 0.03,0.15 l 0.95,3.79 c 0.06,0.22 0.06,0.24 0.36,0.24 h 0.89 c 0.78,0 1.43,-0.39 1.43,-1.34 0,-0.15 -0.07,-1.36 -0.76,-2.15 -0.28,-0.31 -0.87,-0.76 -1.73,-0.76 l 0.12,-0.25 c 1.55,0 3.03,1.42 3.03,2.94 0,1.01 -0.7,1.81 -1.83,1.81 h -2.54 c -0.14,0 -0.22,0 -0.22,-0.15 0,-0.1 0.07,-0.1 0.23,-0.1 0.11,0 0.14,0 0.26,-0.01 0.14,-0.02 0.15,-0.03 0.15,-0.1 0,-0.01 0,-0.05 -0.02,-0.15 z"
   id="path9787" />
</g>
<g
   style="font-style:normal;font-variant:normal;font-weight:normal;font-stretch:normal;letter-spacing:normal;word-spacing:normal;text-anchor:start;fill:none;stroke:#000000;stroke-width:2.35896206;stroke-linecap:butt;stroke-linejoin:miter;stroke-miterlimit:10.43299961;stroke-opacity:1;stroke-dasharray:none;stroke-dashoffset:0;display:inline"
   ns0:preamble=""
   ns0:text="$e_{CM} = \\frac{u_{CM}}{X}$\n\n\n\n\n"
   word-spacing="normal"
   letter-spacing="normal"
   font-size-adjust="none"
   font-stretch="normal"
   font-weight="normal"
   font-variant="normal"
   font-style="normal"
   stroke-miterlimit="10.433"
   xml:space="preserve"
   transform="matrix(2.0976784,0,0,-2.1417024,-186.8367,1589.8252)"
   id="g10113">
<path
   style="fill:#000000;stroke-width:0"
   inkscape:connector-curvature="0"
   id="path10115"
   d="m 225.3,709.42 0.02,0 0.04,0 0.03,0 0.03,0.01 0.04,0 0.04,0 0.04,0 0.05,0 0.04,0 0.05,0.01 0.05,0 0.04,0 0.05,0.01 0.06,0 0.1,0.01 0.11,0.01 0.11,0.02 0.1,0.02 0.11,0.02 0.11,0.02 0.05,0.02 0.05,0.01 0.06,0.02 0.04,0.02 0.05,0.01 0.05,0.02 c 0.7,0.3 0.75,0.89 0.75,1.03 0,0.44 -0.38,0.84 -1.07,0.84 v -0.22 c 0.47,0 0.74,-0.28 0.74,-0.62 0,-1.04 -1.59,-1.04 -2,-1.04 h -0.41 c 0.39,1.52 1.41,1.66 1.67,1.66 v 0.22 c -1.1,0 -2.61,-0.96 -2.61,-2.7 0,-1.02 0.59,-1.8 1.57,-1.8 1.42,0 2.26,1.05 2.26,1.17 0,0.06 -0.06,0.13 -0.12,0.13 -0.05,0 -0.07,-0.02 -0.13,-0.1 -0.79,-0.99 -1.87,-0.99 -1.99,-0.99 -0.78,0 -0.87,0.84 -0.87,1.16 0,0.12 0.01,0.43 0.16,1.03 z" />
<path
   style="fill:#000000;stroke-width:0"
   inkscape:connector-curvature="0"
   id="path10117"
   d="m 233.94,710.43 0,0 0,0.01 0,0 0,0 0,0.01 0,0 0,0 0,0.01 0,0 0,0.01 -0.01,0 0,0 0,0.01 0,0 0,0 -0.01,0.01 0,0 0,0 -0.01,0.01 0,0 0,0 -0.01,0.01 0,0 0,0 -0.01,0 0,0 -0.01,0.01 0,0 -0.01,0 0,0 0,0 -0.01,0 0,0 0,0 0,0 -0.01,0 c -0.05,0 -0.06,-0.01 -0.12,-0.08 l -0.51,-0.54 c -0.07,0.08 -0.46,0.62 -1.31,0.62 -1.69,0 -3.35,-1.5 -3.35,-3.07 0,-1.13 0.89,-1.96 2.14,-1.96 0.37,0 1.04,0.08 1.76,0.68 0.55,0.47 0.7,1.07 0.7,1.13 0,0.09 -0.08,0.09 -0.12,0.09 -0.09,0 -0.1,-0.04 -0.12,-0.11 -0.29,-0.95 -1.26,-1.54 -2.1,-1.54 -0.74,0 -1.56,0.4 -1.56,1.5 0,0.2 0.04,1.3 0.84,2.17 0.49,0.54 1.22,0.86 1.88,0.86 0.81,0 1.28,-0.59 1.28,-1.36 0,-0.2 -0.02,-0.25 -0.02,-0.29 0,-0.09 0.09,-0.09 0.12,-0.09 0.12,0 0.12,0.02 0.15,0.15 z" />
<path
   style="fill:#000000;stroke-width:0"
   inkscape:connector-curvature="0"
   id="path10119"
   d="m 241.38,709.82 0.01,0.02 0.01,0.02 0,0.02 0.01,0.02 0,0.02 0.01,0.02 0,0.02 0.01,0.01 0.01,0.02 0.01,0.01 0,0.02 0.01,0.01 0.01,0.01 0.01,0.01 0.02,0.01 0.01,0.01 0.02,0.01 0.01,0.01 0.02,0 0.02,0.01 0.02,0 0.01,0.01 0.01,0 0.02,0 0.01,0 0.01,0.01 0.02,0 0.01,0 0.01,0 0.02,0 0.02,0 0.01,0 0.02,0.01 0.02,0 0.02,0 0.01,0 0.02,0 0.02,0 0.03,0 0.02,0 0.02,0 0.02,0 0.03,0 c 0.14,0 0.23,0 0.23,0.15 0,0.1 -0.08,0.1 -0.21,0.1 h -0.94 c -0.21,0 -0.21,-0.01 -0.3,-0.14 l -2.69,-3.96 -0.69,3.91 c -0.03,0.18 -0.03,0.19 -0.24,0.19 h -1 c -0.14,0 -0.23,0 -0.23,-0.15 0,-0.1 0.08,-0.1 0.24,-0.1 0.11,0 0.14,0 0.26,-0.01 0.14,-0.02 0.16,-0.03 0.16,-0.1 0,-0.01 0,-0.05 -0.03,-0.15 l -0.88,-3.49 c -0.06,-0.24 -0.17,-0.48 -0.73,-0.5 -0.05,0 -0.14,-0.01 -0.14,-0.15 0,-0.01 0.01,-0.1 0.1,-0.1 0.21,0 0.51,0.03 0.73,0.03 0.17,0 0.57,-0.03 0.74,-0.03 0.03,0 0.13,0 0.13,0.15 0,0.09 -0.09,0.1 -0.15,0.1 -0.44,0.02 -0.44,0.2 -0.44,0.29 0,0.03 0,0.07 0.02,0.18 l 0.93,3.7 h 0.01 l 0.74,-4.23 c 0.02,-0.13 0.04,-0.19 0.14,-0.19 0.1,0 0.16,0.08 0.2,0.15 l 2.93,4.34 0.01,-0.01 -0.99,-3.94 c -0.05,-0.23 -0.07,-0.29 -0.61,-0.29 -0.12,0 -0.21,0 -0.21,-0.15 0,-0.01 0,-0.1 0.11,-0.1 0.14,0 0.3,0.02 0.44,0.02 0.13,0 0.29,0.01 0.43,0.01 0.2,0 0.69,-0.03 0.89,-0.03 0.04,0 0.15,0 0.15,0.15 0,0.1 -0.09,0.1 -0.23,0.1 -0.01,0 -0.14,0 -0.26,0.02 -0.16,0.01 -0.16,0.03 -0.16,0.1 0,0.04 0.02,0.11 0.02,0.15 z" />
<path
   style="fill:#000000;stroke-width:0"
   inkscape:connector-curvature="0"
   id="path10121"
   d="m 252.73,710.38 0.03,0 0.03,0 0.03,0 0.01,0 0.02,0 0.01,0 0.02,0.01 0.01,0 0.02,0 0.01,0 0.01,0.01 0.02,0 0.01,0 0.01,0.01 0.01,0 0.01,0.01 0.01,0.01 0.01,0.01 0.01,0 0.01,0.01 0.01,0.01 0,0.01 0.01,0 0,0.01 0,0.01 0.01,0 0,0.01 0,0.01 0,0 0,0.01 0.01,0.01 0,0 0,0.01 0,0.01 0,0.01 0,0.01 0,0.01 c 0,0.2 -0.19,0.2 -0.33,0.2 h -5.97 c -0.14,0 -0.33,0 -0.33,-0.2 0,-0.2 0.19,-0.2 0.34,-0.2 z" />
<path
   style="fill:#000000;stroke-width:0"
   inkscape:connector-curvature="0"
   id="path10123"
   d="m 252.74,708.45 0.03,0 0.03,0 0.02,0 0.02,0 0.01,0 0.02,0 0.01,0.01 0.01,0 0.02,0 0.01,0 0.01,0.01 0.02,0 0.01,0 0.01,0.01 0.01,0 0.01,0.01 0.01,0.01 0.01,0.01 0.01,0 0.01,0.01 0.01,0.01 0,0 0,0.01 0.01,0 0,0.01 0,0.01 0.01,0 0,0.01 0,0.01 0,0 0,0.01 0.01,0.01 0,0 0,0.01 0,0.01 0,0.01 0,0.01 0,0.01 c 0,0.2 -0.19,0.2 -0.34,0.2 h -5.95 c -0.15,0 -0.34,0 -0.34,-0.2 0,-0.2 0.19,-0.2 0.33,-0.2 z" />
<path
   style="fill:#000000;stroke-width:0"
   inkscape:connector-curvature="0"
   id="path10125"
   d="m 260.54,712.34 0,-0.01 0,-0.02 -0.01,-0.01 0,-0.02 -0.01,-0.01 0,-0.02 0,-0.01 -0.01,-0.02 -0.01,-0.03 -0.01,-0.04 0,-0.03 -0.01,-0.02 0,-0.01 -0.01,-0.02 0,-0.01 0,-0.02 -0.01,-0.01 0,-0.02 0,-0.01 -0.01,-0.01 0,-0.01 0,-0.01 -0.01,-0.01 0,-0.01 0,-0.01 0,0 0,0 -0.01,0 0,0 0,-0.01 0,0 0,0 0,0 c -0.13,-0.21 -0.41,-0.59 -0.84,-0.59 -0.48,0 -0.48,0.45 -0.48,0.58 0,0.41 0.19,0.9 0.39,1.41 0.05,0.14 0.1,0.24 0.1,0.35 0,0.36 -0.31,0.6 -0.67,0.6 -0.69,0 -1.01,-0.95 -1.01,-1.06 0,-0.09 0.1,-0.09 0.12,-0.09 0.1,0 0.11,0.03 0.13,0.11 0.16,0.57 0.47,0.85 0.74,0.85 0.12,0 0.18,-0.08 0.18,-0.25 0,-0.16 -0.06,-0.3 -0.13,-0.46 -0.38,-0.96 -0.38,-1.16 -0.38,-1.35 0,-0.12 0,-0.44 0.26,-0.66 0.21,-0.17 0.48,-0.22 0.72,-0.22 0.44,0 0.68,0.23 0.9,0.45 0.16,-0.44 0.62,-0.45 0.71,-0.45 0.24,0 0.42,0.13 0.55,0.36 0.15,0.27 0.25,0.68 0.25,0.7 0,0.09 -0.1,0.09 -0.12,0.09 -0.1,0 -0.1,-0.03 -0.15,-0.22 -0.09,-0.32 -0.22,-0.74 -0.51,-0.74 -0.18,0 -0.23,0.16 -0.23,0.34 0,0.12 0.06,0.37 0.1,0.55 0.05,0.19 0.12,0.47 0.16,0.63 l 0.16,0.61 c 0.04,0.18 0.12,0.49 0.12,0.52 0,0.14 -0.11,0.22 -0.23,0.22 -0.26,0 -0.31,-0.2 -0.37,-0.42 z" />
<path
   style="fill:#000000;stroke-width:0"
   inkscape:connector-curvature="0"
   id="path10127"
   d="m 267.16,713.65 0,0 0,0 0,0 0,0 0,0 0,0 0,0 0,0 0,0.01 -0.01,0 0,0 0,0 0,0.01 0,0 0,0 0,0.01 0,0 0,0 -0.01,0.01 0,0 0,0 0,0.01 0,0 -0.01,0 0,0 0,0 0,0 0,0 -0.01,0 0,0.01 0,0 0,0 0,0 -0.01,0 0,0 0,0 0,0 -0.01,0 0,0 0,0 -0.01,0 0,0.01 0,0 -0.01,0 0,0 0,0 c -0.03,0 -0.04,-0.01 -0.1,-0.06 l -0.34,-0.35 c -0.01,-0.01 -0.05,-0.04 -0.06,-0.04 -0.01,0 -0.02,0.01 -0.02,0.01 -0.1,0.11 -0.4,0.44 -1.05,0.44 -1.37,0 -2.63,-1.07 -2.63,-2.16 0,-0.81 0.7,-1.46 1.76,-1.46 0.5,0 0.94,0.17 1.25,0.37 0.63,0.41 0.71,0.94 0.71,0.95 0,0.07 -0.07,0.07 -0.11,0.07 -0.05,0 -0.08,-0.01 -0.1,-0.07 -0.24,-0.78 -1.06,-1.09 -1.63,-1.09 -0.58,0 -1.33,0.25 -1.33,1.12 0,0.55 0.29,1.13 0.61,1.43 0.57,0.54 1.23,0.61 1.54,0.61 0.64,0 1.04,-0.41 1.04,-0.98 0,-0.11 -0.01,-0.13 -0.01,-0.17 0,-0.07 0.07,-0.07 0.11,-0.07 0.1,0 0.1,0.01 0.12,0.11 z" />
<path
   style="fill:#000000;stroke-width:0"
   inkscape:connector-curvature="0"
   id="path10129"
   d="m 273.4,713.18 0,0.02 0,0.01 0.01,0.02 0,0.01 0,0.01 0.01,0.01 0,0.01 0.01,0.01 0,0.01 0.01,0.01 0,0.01 0.01,0.01 0.01,0 0,0.01 0.01,0.01 0.01,0 0.01,0.01 0.02,0 0.01,0.01 0.01,0 0.02,0.01 0.01,0 0.01,0 0,0 0.01,0 0.01,0 0.01,0 0.01,0.01 0.01,0 0.02,0 0.01,0 0.01,0 0.01,0 0.02,0 0.01,0 0.01,0 0.02,0 0.01,0 0.02,0 0.01,0 0.02,0 0.02,0 0.01,0 c 0.13,0 0.14,0 0.16,0.02 0.03,0.03 0.05,0.09 0.05,0.12 0,0.09 -0.08,0.09 -0.16,0.09 h -0.75 c -0.11,0 -0.17,0 -0.24,-0.1 l -2.06,-2.84 -0.64,2.8 c -0.03,0.13 -0.06,0.14 -0.2,0.14 h -0.79 c -0.1,0 -0.18,0 -0.18,-0.14 0,-0.09 0.06,-0.09 0.19,-0.09 0.05,0 0.21,0 0.32,-0.03 0,-0.06 0,-0.07 -0.02,-0.12 l -0.61,-2.46 c -0.04,-0.13 -0.09,-0.32 -0.55,-0.33 -0.04,0 -0.12,-0.01 -0.12,-0.14 0,-0.05 0.04,-0.09 0.08,-0.09 0.09,0 0.2,0.02 0.29,0.02 0.09,0 0.18,0 0.28,0 0.1,0 0.19,0 0.29,0 0.09,0 0.2,-0.02 0.29,-0.02 0.06,0 0.12,0.04 0.12,0.14 0,0.09 -0.08,0.09 -0.13,0.09 -0.25,0 -0.35,0.07 -0.35,0.19 0,0.03 0.01,0.06 0.02,0.11 l 0.66,2.61 h 0 l 0.68,-2.99 c 0.02,-0.09 0.04,-0.15 0.13,-0.15 0.05,0 0.11,0.02 0.18,0.12 l 2.22,3.06 0.01,0 -0.69,-2.76 c -0.04,-0.15 -0.05,-0.19 -0.43,-0.19 -0.13,0 -0.2,0 -0.2,-0.14 0,-0.04 0.03,-0.09 0.09,-0.09 0.1,0 0.22,0.02 0.33,0.02 0.11,0 0.22,0 0.34,0 0.11,0 0.22,0 0.34,0 0.11,0 0.23,-0.02 0.34,-0.02 0.03,0 0.13,0 0.13,0.14 0,0.09 -0.07,0.09 -0.17,0.09 -0.01,0 -0.13,0 -0.21,0.01 -0.13,0.01 -0.13,0.01 -0.13,0.05 0,0.01 0,0.02 0.01,0.07 z" />
<line
   style="stroke-width:0.31235728"
   id="line10131"
   y2="709.62"
   x2="275.04001"
   y1="709.62"
   x1="257.60001" />
<path
   style="fill:#000000;stroke-width:0"
   inkscape:connector-curvature="0"
   id="path10133"
   d="m 266.65,706.35 0.67,0.66 c 0.89,0.87 1.16,1.14 1.79,1.18 0.09,0.01 0.17,0.01 0.17,0.15 0,0.08 -0.08,0.1 -0.1,0.1 -0.2,0 -0.44,-0.03 -0.65,-0.03 -0.18,0 -0.63,0.03 -0.81,0.03 -0.06,0 -0.14,-0.02 -0.14,-0.15 0,-0.01 0,-0.09 0.1,-0.1 0.07,-0.01 0.24,-0.02 0.24,-0.17 0,-0.11 -0.1,-0.22 -0.17,-0.29 -0.06,-0.05 -0.94,-0.91 -1.2,-1.18 l -0.7,1.37 c -0.02,0.02 -0.04,0.07 -0.04,0.1 0,0.04 0.13,0.15 0.37,0.17 0.05,0 0.15,0.01 0.15,0.15 0,0.01 -0.01,0.1 -0.12,0.1 -0.15,0 -0.32,-0.02 -0.47,-0.02 -0.14,0 -0.31,-0.01 -0.45,-0.01 -0.12,0 -0.29,0 -0.41,0.01 -0.12,0 -0.27,0.02 -0.38,0.02 -0.03,0 -0.14,0 -0.14,-0.15 0,-0.1 0.09,-0.1 0.2,-0.1 0.4,0 0.44,-0.07 0.51,-0.21 l 0.97,-1.92 -0.39,-0.39 c -0.13,-0.12 -0.46,-0.44 -0.58,-0.57 -0.85,-0.84 -1.14,-1.13 -1.77,-1.16 -0.09,-0.01 -0.17,-0.01 -0.17,-0.15 0,-0.03 0.02,-0.1 0.1,-0.1 0.2,0 0.44,0.03 0.65,0.03 0.11,0 0.29,0 0.41,-0.01 0.12,-0.01 0.28,-0.02 0.39,-0.02 0.04,0 0.15,0 0.15,0.15 0,0.09 -0.08,0.1 -0.13,0.1 -0.06,0.01 -0.21,0.03 -0.21,0.17 0,0.11 0.09,0.21 0.24,0.36 l 1.42,1.38 0.84,-1.64 c 0.03,-0.07 0.04,-0.09 0.04,-0.1 0,-0.04 -0.13,-0.15 -0.37,-0.17 -0.06,-0.01 -0.15,-0.01 -0.15,-0.15 0,-0.01 0.01,-0.1 0.12,-0.1 0.14,0 0.32,0.02 0.46,0.02 0.15,0 0.31,0.01 0.46,0.01 0.11,0 0.28,0 0.41,-0.01 0.12,-0.01 0.26,-0.02 0.37,-0.02 0.04,0 0.15,0 0.15,0.15 0,0.1 -0.09,0.1 -0.2,0.1 -0.41,0 -0.44,0.08 -0.5,0.2 z" />
</g>
<text
   xml:space="preserve"
   style="font-size:32.7597084px;font-style:normal;font-variant:normal;font-weight:normal;font-stretch:normal;text-align:start;line-height:125%;letter-spacing:0px;word-spacing:0px;writing-mode:lr-tb;text-anchor:start;fill:#000000;fill-opacity:1;stroke:none;display:inline;font-family:Freestyle Script;-inkscape-font-specification:Freestyle Script"
   x="273.78156"
   y="377.78735"
   id="text9032-11"
   sodipodi:linespacing="125%"><tspan
     sodipodi:role="line"
     x="273.78156"
     y="377.78735"
     id="tspan9036-6">ground</tspan></text>







<path
   inkscape:connector-curvature="0"
   id="path10623"
   d="m 195.6,164.4 c -62.02406,18.30288 -49.44449,64.30088 -4.8,82.4"
   style="fill:none;stroke:#000000;stroke-width:1px;stroke-linecap:butt;stroke-linejoin:miter;stroke-opacity:1;marker-end:url(#TriangleOutL-0)" /><path
   sodipodi:nodetypes="cc"
   inkscape:connector-curvature="0"
   id="path10625"
   d="M 432.49706,210.20589 C 419.06809,268.10432 403.65879,316.87072 313.35148,343.06072"
   style="fill:none;stroke:#000000;stroke-width:1px;stroke-linecap:butt;stroke-linejoin:miter;stroke-opacity:1;marker-end:url(#TriangleOutL-0)" /><path
   sodipodi:nodetypes="cc"
   inkscape:connector-curvature="0"
   id="path10627"
   d="m 73.131371,275.9397 c 30.147089,86.36932 160.807979,86.45509 215.482839,72.6666"
   style="fill:none;stroke:#000000;stroke-width:1px;stroke-linecap:butt;stroke-linejoin:miter;stroke-opacity:1;marker-start:none;marker-end:url(#TriangleOutL-0)" /><text
   xml:space="preserve"
   style="font-size:32.7597084px;font-style:normal;font-variant:normal;font-weight:normal;font-stretch:normal;text-align:start;line-height:125%;letter-spacing:0px;word-spacing:0px;writing-mode:lr-tb;text-anchor:start;fill:#000000;fill-opacity:1;stroke:none;display:inline;font-family:Freestyle Script;-inkscape-font-specification:Freestyle Script"
   x="441.50638"
   y="218.61371"
   id="text9032-11-8"
   sodipodi:linespacing="125%"><tspan
     sodipodi:role="line"
     x="441.50638"
     y="218.61371"
     id="tspan9036-6-4">out</tspan></text>







<g
   style="font-style:normal;font-variant:normal;font-weight:normal;font-stretch:normal;letter-spacing:normal;word-spacing:normal;text-anchor:start;fill:none;stroke:#000000;stroke-width:3.00574708;stroke-linecap:butt;stroke-linejoin:miter;stroke-miterlimit:10.43299961;stroke-opacity:1;stroke-dasharray:none;stroke-dashoffset:0;display:inline"
   ns0:preamble=""
   ns0:text="$u_{CM}$\n\n\n\n\n"
   word-spacing="normal"
   letter-spacing="normal"
   font-size-adjust="none"
   font-stretch="normal"
   font-weight="normal"
   font-variant="normal"
   font-style="normal"
   stroke-miterlimit="10.433"
   xml:space="preserve"
   transform="matrix(1.6602427,0,0,-1.6667234,-186.66977,1547.6887)"
   id="g12614">
<path
   style="fill:#000000;stroke-width:0"
   inkscape:connector-curvature="0"
   id="path12616"
   d="m 226.92,707.68 0.01,-0.04 0.01,-0.03 0.02,-0.04 0.01,-0.03 0.02,-0.04 0.02,-0.03 0.02,-0.03 0.02,-0.03 0.02,-0.03 0.02,-0.03 0.02,-0.03 0.03,-0.03 0.02,-0.02 0.03,-0.03 0.03,-0.02 0.02,-0.02 0.03,-0.03 0.03,-0.01 0.04,-0.02 0.03,-0.02 0.03,-0.02 0.03,-0.01 0.04,-0.02 0.03,-0.01 0.04,-0.01 0.04,-0.01 0.03,-0.01 0.04,0 0.04,-0.01 0.04,0 0.04,0 0.04,0 c 0.35,0 0.58,0.22 0.74,0.54 0.16,0.36 0.3,0.97 0.3,0.99 0,0.1 -0.09,0.1 -0.12,0.1 -0.1,0 -0.11,-0.04 -0.14,-0.18 -0.14,-0.56 -0.33,-1.24 -0.75,-1.24 -0.21,0 -0.31,0.13 -0.31,0.46 0,0.22 0.12,0.69 0.2,1.04 l 0.28,1.07 c 0.03,0.15 0.13,0.53 0.17,0.68 0.05,0.23 0.15,0.61 0.15,0.67 0,0.18 -0.14,0.26 -0.29,0.26 -0.05,0 -0.31,0 -0.39,-0.34 -0.19,-0.73 -0.63,-2.47 -0.75,-3 -0.01,-0.04 -0.41,-0.84 -1.14,-0.84 -0.51,0 -0.61,0.45 -0.61,0.82 0,0.56 0.28,1.34 0.53,2.03 0.12,0.3 0.17,0.44 0.17,0.63 0,0.45 -0.31,0.81 -0.81,0.81 -0.95,0 -1.32,-1.44 -1.32,-1.53 0,-0.1 0.1,-0.1 0.12,-0.1 0.1,0 0.11,0.02 0.16,0.18 0.25,0.87 0.63,1.23 1.01,1.23 0.09,0 0.25,-0.01 0.25,-0.32 0,-0.24 -0.11,-0.53 -0.17,-0.68 -0.37,-0.98 -0.58,-1.6 -0.58,-2.09 0,-0.95 0.69,-1.19 1.23,-1.19 0.65,0 1.01,0.44 1.18,0.66 z" />
<path
   style="fill:#000000;stroke-width:0"
   inkscape:connector-curvature="0"
   id="path12618"
   d="m 235.01,710.43 0,0 0,0.01 0,0 -0.01,0 0,0.01 0,0 0,0 0,0.01 0,0 0,0.01 0,0 0,0 -0.01,0.01 0,0 0,0 0,0.01 -0.01,0 0,0 0,0.01 -0.01,0 0,0 0,0.01 -0.01,0 0,0 -0.01,0 0,0 -0.01,0.01 0,0 0,0 -0.01,0 0,0 0,0 0,0 -0.01,0 0,0 0,0 c -0.05,0 -0.07,-0.01 -0.13,-0.08 l -0.51,-0.54 c -0.06,0.08 -0.45,0.62 -1.31,0.62 -1.69,0 -3.35,-1.5 -3.35,-3.07 0,-1.13 0.89,-1.96 2.14,-1.96 0.38,0 1.04,0.08 1.76,0.68 0.55,0.47 0.71,1.07 0.71,1.13 0,0.09 -0.09,0.09 -0.12,0.09 -0.09,0 -0.11,-0.04 -0.13,-0.11 -0.28,-0.95 -1.26,-1.54 -2.1,-1.54 -0.74,0 -1.56,0.4 -1.56,1.5 0,0.2 0.05,1.3 0.85,2.17 0.48,0.54 1.21,0.86 1.87,0.86 0.81,0 1.28,-0.59 1.28,-1.36 0,-0.2 -0.02,-0.25 -0.02,-0.29 0,-0.09 0.09,-0.09 0.13,-0.09 0.11,0 0.11,0.02 0.14,0.15 z" />
<path
   style="fill:#000000;stroke-width:0"
   inkscape:connector-curvature="0"
   id="path12620"
   d="m 242.45,709.82 0,0.02 0.01,0.02 0,0.02 0.01,0.02 0.01,0.02 0,0.02 0.01,0.02 0,0.01 0.01,0.02 0.01,0.01 0.01,0.02 0.01,0.01 0.01,0.01 0.01,0.01 0.01,0.01 0.01,0.01 0.02,0.01 0.02,0.01 0.01,0 0.02,0.01 0.02,0 0.02,0.01 0.01,0 0.01,0 0.01,0 0.02,0.01 0.01,0 0.01,0 0.02,0 0.01,0 0.02,0 0.02,0 0.01,0.01 0.02,0 0.02,0 0.02,0 0.02,0 0.02,0 0.02,0 0.02,0 0.02,0 0.03,0 0.02,0 c 0.15,0 0.24,0 0.24,0.15 0,0.1 -0.09,0.1 -0.21,0.1 h -0.95 c -0.2,0 -0.21,-0.01 -0.3,-0.14 l -2.69,-3.96 -0.69,3.91 c -0.03,0.18 -0.03,0.19 -0.24,0.19 h -1 c -0.13,0 -0.23,0 -0.23,-0.15 0,-0.1 0.09,-0.1 0.24,-0.1 0.11,0 0.14,0 0.27,-0.01 0.14,-0.02 0.15,-0.03 0.15,-0.1 0,-0.01 0,-0.05 -0.03,-0.15 l -0.88,-3.49 c -0.06,-0.24 -0.16,-0.48 -0.72,-0.5 -0.06,0 -0.15,-0.01 -0.15,-0.15 0,-0.01 0.01,-0.1 0.11,-0.1 0.21,0 0.5,0.03 0.72,0.03 0.17,0 0.57,-0.03 0.74,-0.03 0.04,0 0.14,0 0.14,0.15 0,0.09 -0.09,0.1 -0.15,0.1 -0.45,0.02 -0.45,0.2 -0.45,0.29 0,0.03 0,0.07 0.03,0.18 l 0.92,3.7 h 0.01 l 0.75,-4.23 c 0.02,-0.13 0.03,-0.19 0.14,-0.19 0.09,0 0.15,0.08 0.2,0.15 l 2.92,4.34 0.01,-0.01 -0.98,-3.94 c -0.06,-0.23 -0.07,-0.29 -0.61,-0.29 -0.13,0 -0.21,0 -0.21,-0.15 0,-0.01 0,-0.1 0.11,-0.1 0.13,0 0.29,0.02 0.43,0.02 0.14,0 0.3,0.01 0.44,0.01 0.19,0 0.69,-0.03 0.88,-0.03 0.04,0 0.15,0 0.15,0.15 0,0.1 -0.08,0.1 -0.22,0.1 -0.01,0 -0.14,0 -0.27,0.02 -0.16,0.01 -0.16,0.03 -0.16,0.1 0,0.04 0.02,0.11 0.03,0.15 z" />
</g>
<g
   id="g13022"
   transform="matrix(1.6602427,0,0,-1.6667234,19.058293,1493.383)"
   xml:space="preserve"
   stroke-miterlimit="10.433"
   font-style="normal"
   font-variant="normal"
   font-weight="normal"
   font-stretch="normal"
   font-size-adjust="none"
   letter-spacing="normal"
   word-spacing="normal"
   ns0:text="$u_{0}$\n\n\n\n\n\n"
   ns0:preamble=""
   style="font-style:normal;font-variant:normal;font-weight:normal;font-stretch:normal;letter-spacing:normal;word-spacing:normal;text-anchor:start;fill:none;stroke:#000000;stroke-width:3.00574708;stroke-linecap:butt;stroke-linejoin:miter;stroke-miterlimit:10.43299961;stroke-opacity:1;stroke-dasharray:none;stroke-dashoffset:0;display:inline">
<path
   style="fill:#000000;stroke-width:0"
   inkscape:connector-curvature="0"
   d="m 226.92,707.68 0.01,-0.04 0.01,-0.03 0.02,-0.04 0.01,-0.03 0.02,-0.04 0.02,-0.03 0.02,-0.03 0.02,-0.03 0.02,-0.03 0.02,-0.03 0.02,-0.03 0.03,-0.03 0.02,-0.02 0.03,-0.03 0.03,-0.02 0.02,-0.02 0.03,-0.03 0.03,-0.01 0.04,-0.02 0.03,-0.02 0.03,-0.02 0.03,-0.01 0.04,-0.02 0.03,-0.01 0.04,-0.01 0.04,-0.01 0.03,-0.01 0.04,0 0.04,-0.01 0.04,0 0.04,0 0.04,0 c 0.35,0 0.58,0.22 0.74,0.54 0.16,0.36 0.3,0.97 0.3,0.99 0,0.1 -0.09,0.1 -0.12,0.1 -0.1,0 -0.11,-0.04 -0.14,-0.18 -0.14,-0.56 -0.33,-1.24 -0.75,-1.24 -0.21,0 -0.31,0.13 -0.31,0.46 0,0.22 0.12,0.69 0.2,1.04 l 0.28,1.07 c 0.03,0.15 0.13,0.53 0.17,0.68 0.05,0.23 0.15,0.61 0.15,0.67 0,0.18 -0.14,0.26 -0.29,0.26 -0.05,0 -0.31,0 -0.39,-0.34 -0.19,-0.73 -0.63,-2.47 -0.75,-3 -0.01,-0.04 -0.41,-0.84 -1.14,-0.84 -0.51,0 -0.61,0.45 -0.61,0.82 0,0.56 0.28,1.34 0.53,2.03 0.12,0.3 0.17,0.44 0.17,0.63 0,0.45 -0.31,0.81 -0.81,0.81 -0.95,0 -1.32,-1.44 -1.32,-1.53 0,-0.1 0.1,-0.1 0.12,-0.1 0.1,0 0.11,0.02 0.16,0.18 0.25,0.87 0.63,1.23 1.01,1.23 0.09,0 0.25,-0.01 0.25,-0.32 0,-0.24 -0.11,-0.53 -0.17,-0.68 -0.37,-0.98 -0.58,-1.6 -0.58,-2.09 0,-0.95 0.69,-1.19 1.23,-1.19 0.65,0 1.01,0.44 1.18,0.66 z"
   id="path13024" />
<path
   style="fill:#000000;stroke-width:0"
   inkscape:connector-curvature="0"
   d="m 232.73,707.85 0,0.14 -0.01,0.14 0,0.13 -0.01,0.12 -0.01,0.13 -0.02,0.12 -0.01,0.11 -0.03,0.11 -0.02,0.11 -0.03,0.11 -0.03,0.1 -0.04,0.1 -0.05,0.1 -0.04,0.09 -0.05,0.1 -0.03,0.04 -0.03,0.05 c -0.22,0.32 -0.65,0.6 -1.21,0.6 v -0.2 c 0.38,0 0.74,-0.23 0.87,-0.63 0.11,-0.38 0.12,-0.88 0.12,-1.48 0,-0.52 0,-1.03 -0.1,-1.47 -0.13,-0.63 -0.61,-0.78 -0.89,-0.78 h 0 c -0.32,0 -0.74,0.18 -0.88,0.75 -0.1,0.41 -0.1,0.98 -0.1,1.5 0,0.51 0,1.04 0.11,1.42 0.14,0.55 0.59,0.69 0.87,0.69 v 0.2 c -1.61,0 -1.61,-1.9 -1.61,-2.4 0,-0.5 0,-2.36 1.61,-2.36 1.62,0 1.62,1.86 1.62,2.36 z"
   id="path13026" />
</g>
<g
   style="font-style:normal;font-variant:normal;font-weight:normal;font-stretch:normal;letter-spacing:normal;word-spacing:normal;text-anchor:start;fill:none;stroke:#000000;stroke-width:2.09229255;stroke-linecap:butt;stroke-linejoin:miter;stroke-miterlimit:10.43299961;stroke-opacity:1;stroke-dasharray:none;stroke-dashoffset:0;display:inline"
   ns0:preamble=""
   ns0:text="$i_0$\n\n\n"
   word-spacing="normal"
   letter-spacing="normal"
   font-size-adjust="none"
   font-stretch="normal"
   font-weight="normal"
   font-variant="normal"
   font-style="normal"
   stroke-miterlimit="10.433"
   xml:space="preserve"
   transform="matrix(2.3515715,0,0,-2.4284939,-98.29108,1904.457)"
   id="g13370">
<path
   style="fill:#000000;stroke-width:0"
   inkscape:connector-curvature="0"
   id="path13372"
   d="m 226.26,713.34 0,0.02 0,0.02 0,0.02 0,0.02 -0.01,0.01 0,0.02 -0.01,0.02 0,0.02 -0.01,0.01 -0.01,0.02 0,0.01 -0.01,0.02 -0.01,0.01 -0.01,0.01 -0.01,0.02 -0.02,0.01 -0.01,0.01 -0.01,0.01 -0.01,0.01 -0.02,0.01 -0.01,0.01 -0.02,0.01 -0.02,0.01 -0.01,0.01 -0.02,0 -0.02,0.01 -0.02,0 -0.01,0.01 -0.02,0 -0.02,0 -0.02,0 -0.03,0 c -0.26,0 -0.53,-0.25 -0.53,-0.52 0,-0.19 0.13,-0.36 0.38,-0.36 0.22,0 0.52,0.23 0.52,0.52 z" />
<path
   style="fill:#000000;stroke-width:0"
   inkscape:connector-curvature="0"
   id="path13374"
   d="m 225.51,709.6 0.01,0.03 0.01,0.02 0.01,0.03 0,0.02 0.01,0.02 0.01,0.02 0.01,0.02 0.01,0.02 0,0.01 0.01,0.02 0.01,0.02 0,0.01 0.01,0.02 0,0.01 0.01,0.03 0.01,0.03 0.01,0.03 0.01,0.01 0,0.02 0.01,0.01 0.01,0.02 0,0.01 0.01,0.02 0,0.02 0.01,0.02 0.01,0.02 0.01,0.02 0.01,0.03 0.01,0.02 c 0.07,0.2 0.12,0.34 0.12,0.53 0,0.45 -0.31,0.81 -0.81,0.81 -0.94,0 -1.32,-1.44 -1.32,-1.53 0,-0.1 0.1,-0.1 0.12,-0.1 0.1,0 0.11,0.02 0.16,0.18 0.27,0.94 0.67,1.23 1.01,1.23 0.08,0 0.25,0 0.25,-0.31 0,-0.21 -0.07,-0.42 -0.11,-0.52 -0.08,-0.26 -0.53,-1.41 -0.69,-1.84 -0.1,-0.26 -0.23,-0.59 -0.23,-0.8 0,-0.47 0.34,-0.81 0.82,-0.81 0.93,0 1.3,1.44 1.3,1.53 0,0.1 -0.09,0.1 -0.12,0.1 -0.1,0 -0.1,-0.03 -0.15,-0.18 -0.18,-0.63 -0.51,-1.24 -1.01,-1.24 -0.17,0 -0.24,0.1 -0.24,0.33 0,0.25 0.06,0.39 0.29,1 z" />
<path
   style="fill:#000000;stroke-width:0"
   inkscape:connector-curvature="0"
   id="path13376"
   d="m 230.46,707.85 0,0.14 -0.01,0.14 0,0.13 -0.01,0.12 -0.01,0.13 -0.02,0.12 -0.02,0.11 -0.02,0.11 -0.02,0.11 -0.03,0.11 -0.04,0.1 -0.03,0.1 -0.05,0.1 -0.04,0.09 -0.06,0.1 -0.02,0.04 -0.03,0.05 c -0.22,0.32 -0.65,0.6 -1.21,0.6 v -0.2 c 0.38,0 0.74,-0.23 0.87,-0.63 0.11,-0.38 0.11,-0.88 0.11,-1.48 0,-0.52 0,-1.03 -0.09,-1.47 -0.14,-0.63 -0.61,-0.78 -0.89,-0.78 h 0 c -0.32,0 -0.74,0.18 -0.88,0.75 -0.1,0.41 -0.1,0.98 -0.1,1.5 0,0.51 0,1.04 0.1,1.42 0.15,0.55 0.6,0.69 0.88,0.69 v 0.2 c -1.61,0 -1.61,-1.9 -1.61,-2.4 0,-0.5 0,-2.36 1.61,-2.36 1.62,0 1.62,1.86 1.62,2.36 z" />
</g>
<g
   id="g13715"
   transform="matrix(2.0976784,0,0,-2.1417024,-164.09376,1623.3372)"
   xml:space="preserve"
   stroke-miterlimit="10.433"
   font-style="normal"
   font-variant="normal"
   font-weight="normal"
   font-stretch="normal"
   font-size-adjust="none"
   letter-spacing="normal"
   word-spacing="normal"
   ns0:text="$e_0=-Ae_D$\n\n\n\n\n\n"
   ns0:preamble=""
   style="font-style:normal;font-variant:normal;font-weight:normal;font-stretch:normal;letter-spacing:normal;word-spacing:normal;text-anchor:start;fill:none;stroke:#000000;stroke-width:2.35896206;stroke-linecap:butt;stroke-linejoin:miter;stroke-miterlimit:10.43299961;stroke-opacity:1;stroke-dasharray:none;stroke-dashoffset:0;display:inline">
<path
   style="fill:#000000;stroke-width:0"
   inkscape:connector-curvature="0"
   d="m 225.3,709.42 0.02,0 0.04,0 0.03,0 0.03,0.01 0.04,0 0.04,0 0.04,0 0.05,0 0.04,0 0.05,0.01 0.05,0 0.04,0 0.05,0.01 0.06,0 0.1,0.01 0.11,0.01 0.11,0.02 0.1,0.02 0.11,0.02 0.11,0.02 0.05,0.02 0.05,0.01 0.06,0.02 0.04,0.02 0.05,0.01 0.05,0.02 c 0.7,0.3 0.75,0.89 0.75,1.03 0,0.44 -0.38,0.84 -1.07,0.84 v -0.22 c 0.47,0 0.74,-0.28 0.74,-0.62 0,-1.04 -1.59,-1.04 -2,-1.04 h -0.41 c 0.39,1.52 1.41,1.66 1.67,1.66 v 0.22 c -1.1,0 -2.61,-0.96 -2.61,-2.7 0,-1.02 0.59,-1.8 1.57,-1.8 1.42,0 2.26,1.05 2.26,1.17 0,0.06 -0.06,0.13 -0.12,0.13 -0.05,0 -0.07,-0.02 -0.13,-0.1 -0.79,-0.99 -1.87,-0.99 -1.99,-0.99 -0.78,0 -0.87,0.84 -0.87,1.16 0,0.12 0.01,0.43 0.16,1.03 z"
   id="path13717" />
<path
   style="fill:#000000;stroke-width:0"
   inkscape:connector-curvature="0"
   d="m 231.66,707.85 0,0.14 0,0.14 -0.01,0.13 0,0.12 -0.02,0.13 -0.01,0.12 -0.02,0.11 -0.02,0.11 -0.03,0.11 -0.03,0.11 -0.03,0.1 -0.04,0.1 -0.04,0.1 -0.05,0.09 -0.05,0.1 -0.03,0.04 -0.03,0.05 c -0.21,0.32 -0.64,0.6 -1.2,0.6 v -0.2 c 0.38,0 0.74,-0.23 0.86,-0.63 0.11,-0.38 0.12,-0.88 0.12,-1.48 0,-0.52 0,-1.03 -0.09,-1.47 -0.14,-0.63 -0.61,-0.78 -0.89,-0.78 h 0 c -0.32,0 -0.75,0.18 -0.89,0.75 -0.09,0.41 -0.09,0.98 -0.09,1.5 0,0.51 0,1.04 0.1,1.42 0.15,0.55 0.59,0.69 0.88,0.69 v 0.2 c -1.62,0 -1.62,-1.9 -1.62,-2.4 0,-0.5 0,-2.36 1.62,-2.36 1.61,0 1.61,1.86 1.61,2.36 z"
   id="path13719" />
<path
   style="fill:#000000;stroke-width:0"
   inkscape:connector-curvature="0"
   d="m 242.16,710.38 0.02,0 0.03,0 0.03,0 0.02,0 0.01,0 0.02,0 0.01,0.01 0.02,0 0.01,0 0.01,0 0.02,0.01 0.01,0 0.01,0 0.01,0.01 0.02,0 0.01,0.01 0.01,0.01 0.01,0.01 0.01,0 0.01,0.01 0,0.01 0.01,0.01 0,0 0,0.01 0.01,0.01 0,0 0,0.01 0,0.01 0.01,0 0,0.01 0,0.01 0,0 0,0.01 0,0.01 0,0.01 0,0.01 0,0.01 c 0,0.2 -0.18,0.2 -0.32,0.2 h -5.97 c -0.14,0 -0.33,0 -0.33,-0.2 0,-0.2 0.19,-0.2 0.34,-0.2 z"
   id="path13721" />
<path
   style="fill:#000000;stroke-width:0"
   inkscape:connector-curvature="0"
   d="m 242.17,708.45 0.02,0 0.03,0 0.03,0 0.01,0 0.02,0 0.01,0 0.01,0.01 0.02,0 0.01,0 0.01,0 0.02,0.01 0.01,0 0.01,0 0.01,0.01 0.02,0 0.01,0.01 0.01,0.01 0.01,0.01 0.01,0 0.01,0.01 0,0.01 0,0 0.01,0.01 0,0 0,0.01 0.01,0.01 0,0 0,0.01 0,0.01 0.01,0 0,0.01 0,0.01 0,0 0,0.01 0,0.01 0,0.01 0,0.01 0,0.01 c 0,0.2 -0.18,0.2 -0.33,0.2 h -5.95 c -0.15,0 -0.34,0 -0.34,-0.2 0,-0.2 0.19,-0.2 0.33,-0.2 z"
   id="path13723" />
<path
   style="fill:#000000;stroke-width:0"
   inkscape:connector-curvature="0"
   d="m 252.39,709.41 0.03,0 0.04,0 0.03,0.01 0.01,0 0.02,0 0.01,0 0.02,0 0.01,0 0.02,0 0.01,0.01 0.02,0 0.01,0 0.01,0.01 0.01,0 0.01,0.01 0.02,0.01 0.01,0 0.01,0.01 0.01,0.01 0,0.01 0.01,0.01 0,0 0.01,0.01 0,0 0,0.01 0.01,0.01 0,0 0,0.01 0,0.01 0.01,0 0,0.01 0,0.01 0,0.01 0,0.01 0,0 0,0.01 0,0.01 c 0,0.2 -0.18,0.2 -0.35,0.2 H 247 c -0.17,0 -0.35,0 -0.35,-0.2 0,-0.2 0.18,-0.2 0.35,-0.2 z"
   id="path13725" />
<path
   style="fill:#000000;stroke-width:0"
   inkscape:connector-curvature="0"
   d="m 255.36,708.27 -0.04,-0.06 -0.04,-0.06 -0.03,-0.05 -0.04,-0.06 -0.04,-0.05 -0.04,-0.04 -0.03,-0.05 -0.04,-0.04 -0.04,-0.04 -0.04,-0.03 -0.03,-0.04 -0.04,-0.03 -0.04,-0.03 -0.04,-0.03 -0.03,-0.02 -0.04,-0.03 -0.04,-0.02 -0.04,-0.02 -0.03,-0.02 -0.04,-0.01 -0.04,-0.02 -0.04,-0.01 -0.04,-0.02 -0.04,-0.01 -0.04,-0.01 -0.04,-0.01 -0.04,0 -0.04,-0.01 -0.08,-0.01 -0.08,-0.01 c -0.12,-0.01 -0.21,-0.01 -0.21,-0.2 0,-0.06 0.05,-0.1 0.13,-0.1 0.27,0 0.58,0.03 0.86,0.03 0.33,0 0.68,-0.03 1,-0.03 0.05,0 0.19,0 0.19,0.18 0,0.11 -0.09,0.12 -0.16,0.12 -0.23,0.02 -0.47,0.1 -0.47,0.35 0,0.12 0.06,0.23 0.14,0.37 l 0.75,1.27 h 2.51 l -0.03,0.31 h -2.29 l 1.97,3.29 0.32,-3.29 0.03,-0.31 c 0.02,-0.2 0.16,-1.56 0.16,-1.66 0,-0.3 -0.52,-0.33 -0.72,-0.33 -0.14,0 -0.24,0 -0.24,-0.2 0,-0.1 0.12,-0.1 0.14,-0.1 0.41,0 0.84,0.03 1.24,0.03 0.25,0 0.88,-0.03 1.13,-0.03 0.06,0 0.18,0 0.18,0.19 0,0.11 -0.1,0.11 -0.23,0.11 -0.62,0 -0.62,0.07 -0.65,0.36 l -0.61,6.22 c -0.01,0.2 -0.01,0.24 -0.18,0.24 -0.16,0 -0.2,-0.07 -0.26,-0.17 z"
   id="path13727" />
<path
   style="fill:#000000;stroke-width:0"
   inkscape:connector-curvature="0"
   d="m 262.91,709.42 0.03,0 0.03,0 0.03,0 0.04,0.01 0.03,0 0.04,0 0.05,0 0.04,0 0.04,0 0.05,0.01 0.05,0 0.05,0 0.05,0.01 0.05,0 0.1,0.01 0.11,0.01 0.11,0.02 0.11,0.02 0.11,0.02 0.1,0.02 0.06,0.02 0.05,0.01 0.05,0.02 0.05,0.02 0.05,0.01 0.04,0.02 c 0.7,0.3 0.75,0.89 0.75,1.03 0,0.44 -0.38,0.84 -1.07,0.84 v -0.22 c 0.47,0 0.74,-0.28 0.74,-0.62 0,-1.04 -1.59,-1.04 -2,-1.04 h -0.41 c 0.39,1.52 1.42,1.66 1.67,1.66 v 0.22 c -1.1,0 -2.61,-0.96 -2.61,-2.7 0,-1.02 0.59,-1.8 1.57,-1.8 1.42,0 2.26,1.05 2.26,1.17 0,0.06 -0.06,0.13 -0.12,0.13 -0.05,0 -0.07,-0.02 -0.13,-0.1 -0.78,-0.99 -1.87,-0.99 -1.99,-0.99 -0.78,0 -0.87,0.84 -0.87,1.16 0,0.12 0.01,0.43 0.16,1.03 z"
   id="path13729" />
<path
   style="fill:#000000;stroke-width:0"
   inkscape:connector-curvature="0"
   d="m 267,706.17 -0.01,-0.02 0,-0.02 -0.01,-0.02 0,-0.02 -0.01,-0.01 0,-0.02 -0.01,-0.02 0,-0.01 -0.01,-0.02 -0.01,-0.01 -0.01,-0.01 -0.01,-0.01 -0.01,-0.01 -0.01,-0.01 -0.01,-0.01 -0.01,-0.01 -0.02,-0.01 -0.02,-0.01 -0.02,0 -0.02,-0.01 -0.01,0 -0.01,0 -0.01,-0.01 -0.01,0 -0.01,0 -0.02,0 -0.01,0 -0.02,-0.01 -0.01,0 -0.02,0 -0.01,0 -0.02,0 -0.02,0 -0.02,0 -0.01,-0.01 -0.02,0 -0.02,0 -0.02,0 -0.03,0 -0.02,0 -0.02,0 -0.02,0 -0.03,0 -0.02,0 c -0.13,0 -0.21,0 -0.21,-0.15 0,-0.1 0.08,-0.1 0.21,-0.1 h 2.48 l -0.12,0.25 h -0.95 c -0.22,0 -0.22,0.01 -0.22,0.07 0,0.01 0,0.04 0.03,0.15 l 0.95,3.79 c 0.05,0.22 0.06,0.24 0.35,0.24 h 0.9 c 0.78,0 1.43,-0.39 1.43,-1.34 0,-0.15 -0.07,-1.36 -0.76,-2.15 -0.28,-0.31 -0.88,-0.76 -1.73,-0.76 l 0.12,-0.25 c 1.55,0 3.03,1.42 3.03,2.94 0,1.01 -0.7,1.81 -1.84,1.81 h -2.53 c -0.14,0 -0.22,0 -0.22,-0.15 0,-0.1 0.07,-0.1 0.23,-0.1 0.11,0 0.13,0 0.26,-0.01 0.14,-0.02 0.15,-0.03 0.15,-0.1 0,-0.01 0,-0.05 -0.02,-0.15 z"
   id="path13731" />
</g>
<g
   style="font-style:normal;font-variant:normal;font-weight:normal;font-stretch:normal;letter-spacing:normal;word-spacing:normal;text-anchor:start;fill:none;stroke:#000000;stroke-width:3.00574708;stroke-linecap:butt;stroke-linejoin:miter;stroke-miterlimit:10.43299961;stroke-opacity:1;stroke-dasharray:none;stroke-dashoffset:0;display:inline"
   ns0:preamble=""
   ns0:text="$e_0$\n\n\n\n\n"
   word-spacing="normal"
   letter-spacing="normal"
   font-size-adjust="none"
   font-stretch="normal"
   font-weight="normal"
   font-variant="normal"
   font-style="normal"
   stroke-miterlimit="10.433"
   xml:space="preserve"
   transform="matrix(1.6602427,0,0,-1.6667234,-63.59898,1364.0651)"
   id="g14076">
<path
   style="fill:#000000;stroke-width:0"
   inkscape:connector-curvature="0"
   id="path14078"
   d="m 225.3,709.42 0.02,0 0.04,0 0.03,0 0.03,0.01 0.04,0 0.04,0 0.04,0 0.05,0 0.04,0 0.05,0.01 0.05,0 0.04,0 0.05,0.01 0.06,0 0.1,0.01 0.11,0.01 0.11,0.02 0.1,0.02 0.11,0.02 0.11,0.02 0.05,0.02 0.05,0.01 0.06,0.02 0.04,0.02 0.05,0.01 0.05,0.02 c 0.7,0.3 0.75,0.89 0.75,1.03 0,0.44 -0.38,0.84 -1.07,0.84 v -0.22 c 0.47,0 0.74,-0.28 0.74,-0.62 0,-1.04 -1.59,-1.04 -2,-1.04 h -0.41 c 0.39,1.52 1.41,1.66 1.67,1.66 v 0.22 c -1.1,0 -2.61,-0.96 -2.61,-2.7 0,-1.02 0.59,-1.8 1.57,-1.8 1.42,0 2.26,1.05 2.26,1.17 0,0.06 -0.06,0.13 -0.12,0.13 -0.05,0 -0.07,-0.02 -0.13,-0.1 -0.79,-0.99 -1.87,-0.99 -1.99,-0.99 -0.78,0 -0.87,0.84 -0.87,1.16 0,0.12 0.01,0.43 0.16,1.03 z" />
<path
   style="fill:#000000;stroke-width:0"
   inkscape:connector-curvature="0"
   id="path14080"
   d="m 231.66,707.85 0,0.14 0,0.14 -0.01,0.13 0,0.12 -0.02,0.13 -0.01,0.12 -0.02,0.11 -0.02,0.11 -0.03,0.11 -0.03,0.11 -0.03,0.1 -0.04,0.1 -0.04,0.1 -0.05,0.09 -0.05,0.1 -0.03,0.04 -0.03,0.05 c -0.21,0.32 -0.64,0.6 -1.2,0.6 v -0.2 c 0.38,0 0.74,-0.23 0.86,-0.63 0.11,-0.38 0.12,-0.88 0.12,-1.48 0,-0.52 0,-1.03 -0.09,-1.47 -0.14,-0.63 -0.61,-0.78 -0.89,-0.78 h 0 c -0.32,0 -0.75,0.18 -0.89,0.75 -0.09,0.41 -0.09,0.98 -0.09,1.5 0,0.51 0,1.04 0.1,1.42 0.15,0.55 0.59,0.69 0.88,0.69 v 0.2 c -1.62,0 -1.62,-1.9 -1.62,-2.4 0,-0.5 0,-2.36 1.62,-2.36 1.61,0 1.61,1.86 1.61,2.36 z" />
</g>
<g
   id="content"
   transform="matrix(1.6602427,0,0,-1.6667234,-30.437022,1372.6148)"
   xml:space="preserve"
   stroke-miterlimit="10.433"
   font-style="normal"
   font-variant="normal"
   font-weight="normal"
   font-stretch="normal"
   font-size-adjust="none"
   letter-spacing="normal"
   word-spacing="normal"
   ns0:text="$R_0$\n\n\n\n"
   ns0:preamble=""
   style="font-style:normal;font-variant:normal;font-weight:normal;font-stretch:normal;letter-spacing:normal;word-spacing:normal;text-anchor:start;fill:none;stroke:#000000;stroke-width:3.00574708;stroke-linecap:butt;stroke-linejoin:miter;stroke-miterlimit:10.43299961;stroke-opacity:1;stroke-dasharray:none;stroke-dashoffset:0;display:inline">
<path
   style="fill:#000000;stroke-width:0"
   inkscape:connector-curvature="0"
   d="m 228.61,710.51 0.09,0.02 0.1,0.03 0.09,0.02 0.1,0.03 0.1,0.04 0.09,0.03 0.1,0.04 0.09,0.04 0.1,0.04 0.09,0.05 0.09,0.05 0.09,0.05 0.09,0.05 0.09,0.06 0.08,0.05 0.08,0.06 0.08,0.07 0.07,0.06 0.07,0.07 0.07,0.07 0.06,0.07 0.06,0.07 0.06,0.08 0.05,0.08 0.04,0.08 0.04,0.08 0.04,0.08 0.03,0.09 0.02,0.09 0.02,0.09 0.01,0.09 0,0.09 c 0,0.86 -0.9,1.49 -2.2,1.49 h -2.84 c -0.21,0 -0.29,0 -0.29,-0.2 0,-0.11 0.08,-0.11 0.27,-0.11 0.02,0 0.21,0 0.38,-0.02 0.18,-0.02 0.27,-0.03 0.27,-0.16 0,-0.03 -0.01,-0.07 -0.04,-0.18 l -1.33,-5.35 c -0.1,-0.39 -0.12,-0.47 -0.91,-0.47 -0.18,0 -0.27,0 -0.27,-0.2 0,-0.1 0.12,-0.1 0.14,-0.1 0.28,0 0.98,0.03 1.26,0.03 0.27,0 0.98,-0.03 1.26,-0.03 0.08,0 0.2,0 0.2,0.19 0,0.11 -0.09,0.11 -0.28,0.11 -0.37,0 -0.65,0 -0.65,0.18 0,0.06 0.02,0.11 0.03,0.17 l 0.66,2.64 h 1.19 l -0.01,0.22 h -1.12 l 0.65,2.6 c 0.06,0.23 0.09,0.33 0.28,0.36 0.09,0.01 0.41,0.01 0.61,0.01 0.7,0 1.81,0 1.81,-0.98 0,-0.34 -0.16,-1.03 -0.55,-1.41 -0.26,-0.26 -0.78,-0.58 -1.68,-0.58 l 0.01,-0.22 c 0.91,0 1.09,-0.56 1.09,-0.91 0,-0.15 -0.09,-0.45 -0.14,-0.68 -0.07,-0.28 -0.16,-0.65 -0.16,-0.85 0,-1.07 1.19,-1.07 1.32,-1.07 0.85,0 1.2,1 1.2,1.14 0,0.12 -0.11,0.12 -0.12,0.12 -0.09,0 -0.11,-0.07 -0.13,-0.14 -0.25,-0.74 -0.68,-0.9 -0.91,-0.9 -0.33,0 -0.4,0.21 -0.4,0.6 0,0.31 0.06,0.82 0.1,1.14 0.02,0.14 0.04,0.33 0.04,0.46 0,0.77 -0.66,1.08 -0.93,1.18 z"
   id="path14426" />
<path
   style="fill:#000000;stroke-width:0"
   inkscape:connector-curvature="0"
   d="m 234.59,707.85 0,0.14 0,0.14 -0.01,0.13 -0.01,0.12 -0.01,0.13 -0.01,0.12 -0.02,0.11 -0.02,0.11 -0.03,0.11 -0.03,0.11 -0.03,0.1 -0.04,0.1 -0.04,0.1 -0.05,0.09 -0.05,0.1 -0.03,0.04 -0.03,0.05 c -0.22,0.32 -0.65,0.6 -1.2,0.6 v -0.2 c 0.37,0 0.73,-0.23 0.86,-0.63 0.11,-0.38 0.12,-0.88 0.12,-1.48 0,-0.52 0,-1.03 -0.09,-1.47 -0.14,-0.63 -0.62,-0.78 -0.89,-0.78 h 0 c -0.33,0 -0.75,0.18 -0.89,0.75 -0.1,0.41 -0.1,0.98 -0.1,1.5 0,0.51 0,1.04 0.11,1.42 0.14,0.55 0.59,0.69 0.88,0.69 v 0.2 c -1.62,0 -1.62,-1.9 -1.62,-2.4 0,-0.5 0,-2.36 1.62,-2.36 1.61,0 1.61,1.86 1.61,2.36 z"
   id="path14428" />
</g>
<g
   style="font-style:normal;font-variant:normal;font-weight:normal;font-stretch:normal;letter-spacing:normal;word-spacing:normal;text-anchor:start;fill:none;stroke:#000000;stroke-width:3.00574708;stroke-linecap:butt;stroke-linejoin:miter;stroke-miterlimit:10.43299961;stroke-opacity:1;stroke-dasharray:none;stroke-dashoffset:0;display:inline"
   ns0:preamble=""
   ns0:text="$e_{D}$\n\n\n\n\n\n"
   text-anchor="start"
   word-spacing="normal"
   letter-spacing="normal"
   font-size-adjust="none"
   font-stretch="normal"
   font-weight="normal"
   font-variant="normal"
   font-style="normal"
   fill-opacity="1"
   fill-rule="evenodd"
   fill="none"
   stroke-opacity="1"
   stroke-dashoffset="0"
   stroke-dasharray="none"
   stroke-miterlimit="10.433"
   stroke-linejoin="miter"
   stroke-linecap="butt"
   stroke="black"
   xml:space="preserve"
   transform="matrix(1.6602427,0,0,-1.6667234,-242.28381,1385.7985)"
   id="g15196">
<path
   id="path15198"
   fill="black"
   stroke-width="0"
   d="M225.3,709.42 L225.32,709.42 L225.36,709.42 L225.39,709.42 L225.42,709.43 L225.46,709.43 L225.5,709.43 L225.54,709.43 L225.59,709.43 L225.63,709.43 L225.68,709.44 L225.73,709.44 L225.77,709.44 L225.82,709.45 L225.88,709.45 L225.98,709.46 L226.09,709.47 L226.2,709.49 L226.3,709.51 L226.41,709.53 L226.52,709.55 L226.57,709.57 L226.62,709.58 L226.68,709.6 L226.72,709.62 L226.77,709.63 L226.82,709.65 C227.52,709.95,227.57,710.54,227.57,710.68 C227.57,711.12,227.19,711.52,226.5,711.52 V711.3 C226.97,711.3,227.24,711.02,227.24,710.68 C227.24,709.64,225.65,709.64,225.24,709.64 H224.83 C225.22,711.16,226.24,711.3,226.5,711.3 V711.52 C225.4,711.52,223.89,710.56,223.89,708.82 C223.89,707.8,224.48,707.02,225.46,707.02 C226.88,707.02,227.72,708.07,227.72,708.19 C227.72,708.25,227.66,708.32,227.6,708.32 C227.55,708.32,227.53,708.3,227.47,708.22 C226.68,707.23,225.6,707.23,225.48,707.23 C224.7,707.23,224.61,708.07,224.61,708.39 C224.61,708.51,224.62,708.82,224.77,709.42 Z " />
<path
   id="path15200"
   fill="black"
   stroke-width="0"
   d="M229.39,706.17 L229.38,706.15 L229.38,706.13 L229.37,706.11 L229.37,706.09 L229.36,706.08 L229.36,706.06 L229.35,706.04 L229.34,706.03 L229.34,706.01 L229.33,706 L229.32,705.99 L229.31,705.98 L229.3,705.97 L229.29,705.96 L229.28,705.95 L229.26,705.94 L229.25,705.93 L229.23,705.92 L229.21,705.92 L229.19,705.91 L229.18,705.91 L229.17,705.91 L229.16,705.9 L229.15,705.9 L229.13,705.9 L229.12,705.9 L229.11,705.9 L229.09,705.89 L229.08,705.89 L229.06,705.89 L229.04,705.89 L229.03,705.89 L229.01,705.89 L228.99,705.89 L228.97,705.88 L228.95,705.88 L228.93,705.88 L228.91,705.88 L228.89,705.88 L228.87,705.88 L228.85,705.88 L228.82,705.88 L228.8,705.88 L228.77,705.88 C228.65,705.88,228.57,705.88,228.57,705.73 C228.57,705.63,228.65,705.63,228.77,705.63 H231.26 L231.13,705.88 H230.19 C229.97,705.88,229.96,705.89,229.96,705.95 C229.96,705.96,229.96,705.99,229.99,706.1 L230.95,709.89 C231,710.11,231.01,710.13,231.3,710.13 H232.19 C232.97,710.13,233.63,709.74,233.63,708.79 C233.63,708.64,233.56,707.43,232.86,706.64 C232.59,706.33,231.99,705.88,231.13,705.88 L231.26,705.63 C232.81,705.63,234.29,707.05,234.29,708.57 C234.29,709.58,233.59,710.38,232.45,710.38 H229.92 C229.78,710.38,229.69,710.38,229.69,710.23 C229.69,710.13,229.77,710.13,229.92,710.13 C230.04,710.13,230.06,710.13,230.19,710.12 C230.33,710.1,230.34,710.09,230.34,710.02 C230.34,710.01,230.34,709.97,230.31,709.87 Z " />
</g>
</g></svg>