<?xml version="1.0" encoding="UTF-8" standalone="no"?>
<!-- Created with Inkscape (http://www.inkscape.org/) -->

<svg
   xmlns:dc="http://purl.org/dc/elements/1.1/"
   xmlns:cc="http://creativecommons.org/ns#"
   xmlns:rdf="http://www.w3.org/1999/02/22-rdf-syntax-ns#"
   xmlns:svg="http://www.w3.org/2000/svg"
   xmlns="http://www.w3.org/2000/svg"
   xmlns:sodipodi="http://sodipodi.sourceforge.net/DTD/sodipodi-0.dtd"
   xmlns:inkscape="http://www.inkscape.org/namespaces/inkscape"
   id="svg2984"
   version="1.1"
   inkscape:version="0.48.1 "
   width="670"
   height="330"
   xml:space="preserve"
   sodipodi:docname="LTspice_pwm_gen.pdf"><metadata
     id="metadata2990"><rdf:RDF><cc:Work
         rdf:about=""><dc:format>image/svg+xml</dc:format><dc:type
           rdf:resource="http://purl.org/dc/dcmitype/StillImage" /><dc:title></dc:title></cc:Work></rdf:RDF></metadata><defs
     id="defs2988"><clipPath
       clipPathUnits="userSpaceOnUse"
       id="clipPath3148"><path
         d="m 225.96,18 143.16,0 0,13.2 -143.16,0 0,-13.2 z"
         id="path3150"
         inkscape:connector-curvature="0" /></clipPath></defs><sodipodi:namedview
     pagecolor="#ffffff"
     bordercolor="#666666"
     borderopacity="1"
     objecttolerance="10"
     gridtolerance="10"
     guidetolerance="10"
     inkscape:pageopacity="0"
     inkscape:pageshadow="2"
     inkscape:window-width="1831"
     inkscape:window-height="1173"
     id="namedview2986"
     showgrid="false"
     inkscape:zoom="1.2977612"
     inkscape:cx="306.77229"
     inkscape:cy="107.62047"
     inkscape:window-x="80"
     inkscape:window-y="-9"
     inkscape:window-maximized="1"
     inkscape:current-layer="g2992" /><g
     id="g2992"
     inkscape:groupmode="layer"
     inkscape:label="LTspice_pwm_gen"
     transform="matrix(1.25,0,0,-1.25,0,330)"><path
       d="m 423.19236,233.63846 -365.28,0"
       style="fill:none;stroke:#00007f;stroke-width:1.6;stroke-linecap:butt;stroke-linejoin:miter;stroke-miterlimit:10;stroke-opacity:1;stroke-dasharray:none"
       id="path2994"
       inkscape:connector-curvature="0" /><path
       d="m 2.4321986,234.75135 0.12,0 0,0.12 -0.12,0 0,-0.12 z"
       style="fill:#00007f;fill-opacity:1;fill-rule:nonzero;stroke:none"
       id="path2996"
       inkscape:connector-curvature="0" /><text
       transform="scale(1,-1)"
       id="text2998"
       x="163.3522"
       y="-82.231346"><tspan
         style="font-size:13.56000042px;font-variant:normal;font-weight:bold;writing-mode:lr-tb;fill:#000000;fill-opacity:1;fill-rule:nonzero;stroke:none;font-family:Arial;-inkscape-font-specification:Arial Bold"
         x="163.3522 172.8322"
         y="-82.231346"
         sodipodi:role="line"
         id="tspan3000">B1</tspan><tspan
         style="font-size:13.56000042px;font-variant:normal;font-weight:bold;writing-mode:lr-tb;fill:#000000;fill-opacity:1;fill-rule:nonzero;stroke:none;font-family:Arial;-inkscape-font-specification:Arial Bold"
         x="163.3522 172.1122 179.79221 183.51219 187.95219 192.3922 196.8322 201.2722 209.1922 212.9122 224.6722 231.9922 236.43221 240.87219 244.59219 252.6322 260.67221 265.83221 270.27219 278.1922 281.9122 293.67221 300.99219 306.15219 310.59219 315.0322 318.7522 323.1922 327.6322 332.79221 342.27219 349.59219 357.6322 365.67221 372.99219 378.15219 382.59219 387.0322 394.71219 401.9122 406.3522 410.0722 418.11218 426.15219 434.1922 438.6322 443.0722 446.79221 455.55222 463.59219 467.31219 475.3522 483.39221 487.11221 495.87219 499.59219 507.6322 518.18188"
         y="-34.471348"
         sodipodi:role="line"
         id="tspan3002">V=if(((Time-floor(Time*f)/f)*Range*f)&lt;v(input),Vhigh,Vlow)</tspan></text>
<path
       d="m 145.9522,76.111347 8.64,0"
       style="fill:none;stroke:#00007f;stroke-width:1.6;stroke-linecap:butt;stroke-linejoin:miter;stroke-miterlimit:10;stroke-opacity:1;stroke-dasharray:none"
       id="path3004"
       inkscape:connector-curvature="0" /><path
       d="m 154.5922,75.991347 0.12,0 0,0.12 -0.12,0 0,-0.12 z"
       style="fill:#00007f;fill-opacity:1;fill-rule:nonzero;stroke:none;stroke-width:1.6;stroke-miterlimit:10;stroke-dasharray:none"
       id="path3006"
       inkscape:connector-curvature="0" /><path
       d="m 145.9522,54.391347 8.64,0"
       style="fill:none;stroke:#00007f;stroke-width:1.6;stroke-linecap:butt;stroke-linejoin:miter;stroke-miterlimit:10;stroke-opacity:1;stroke-dasharray:none"
       id="path3008"
       inkscape:connector-curvature="0" /><path
       d="m 154.5922,54.271347 0.12,0 0,0.12 -0.12,0 0,-0.12 z"
       style="fill:#00007f;fill-opacity:1;fill-rule:nonzero;stroke:none;stroke-width:1.6;stroke-miterlimit:10;stroke-dasharray:none"
       id="path3010"
       inkscape:connector-curvature="0" /><path
       d="m 150.2722,80.431347 0,-8.64"
       style="fill:none;stroke:#00007f;stroke-width:1.6;stroke-linecap:butt;stroke-linejoin:miter;stroke-miterlimit:10;stroke-opacity:1;stroke-dasharray:none"
       id="path3012"
       inkscape:connector-curvature="0" /><path
       d="m 150.2722,71.671347 0.12,0 0,0.12 -0.12,0 0,-0.12 z"
       style="fill:#00007f;fill-opacity:1;fill-rule:nonzero;stroke:none;stroke-width:1.6;stroke-miterlimit:10;stroke-dasharray:none"
       id="path3014"
       inkscape:connector-curvature="0" /><path
       d="m 150.2722,43.471347 0,4.32"
       style="fill:none;stroke:#00007f;stroke-width:1.6;stroke-linecap:butt;stroke-linejoin:miter;stroke-miterlimit:10;stroke-opacity:1;stroke-dasharray:none"
       id="path3016"
       inkscape:connector-curvature="0" /><path
       d="m 150.2722,47.671347 0.12,0 0,0.12 -0.12,0 0,-0.12 z"
       style="fill:#00007f;fill-opacity:1;fill-rule:nonzero;stroke:none;stroke-width:1.6;stroke-miterlimit:10;stroke-dasharray:none"
       id="path3018"
       inkscape:connector-curvature="0" /><path
       d="m 150.2722,86.911347 0,-4.32"
       style="fill:none;stroke:#00007f;stroke-width:1.6;stroke-linecap:butt;stroke-linejoin:miter;stroke-miterlimit:10;stroke-opacity:1;stroke-dasharray:none"
       id="path3020"
       inkscape:connector-curvature="0" /><path
       d="m 150.2722,82.471347 0.12,0 0,0.12 -0.12,0 0,-0.12 z"
       style="fill:#00007f;fill-opacity:1;fill-rule:nonzero;stroke:none;stroke-width:1.6;stroke-miterlimit:10;stroke-dasharray:none"
       id="path3022"
       inkscape:connector-curvature="0" /><path
       d="m 167.5522,65.311347 c 0,9.6 -7.8,17.28 -17.4,17.28 -9.6,0 -17.28,-7.68 -17.28,-17.28 0,-9.6 7.68,-17.4 17.28,-17.4 9.6,0 17.4,7.8 17.4,17.4 z"
       style="fill:none;stroke:#00007f;stroke-width:1.6;stroke-linecap:butt;stroke-linejoin:miter;stroke-miterlimit:10;stroke-opacity:1;stroke-dasharray:none"
       id="path3024"
       inkscape:connector-curvature="0" /><text
       transform="scale(1,-1)"
       id="text3026"
       x="50.1922"
       y="-82.231346"><tspan
         style="font-size:13.56000042px;font-variant:normal;font-weight:bold;writing-mode:lr-tb;fill:#000000;fill-opacity:1;fill-rule:nonzero;stroke:none;font-family:Arial;-inkscape-font-specification:Arial Bold"
         x="50.1922 58.952198"
         y="-82.231346"
         sodipodi:role="line"
         id="tspan3028">V1</tspan><tspan
         style="font-size:13.56000042px;font-variant:normal;font-weight:bold;writing-mode:lr-tb;fill:#000000;fill-opacity:1;fill-rule:nonzero;stroke:none;font-family:Arial;-inkscape-font-specification:Arial Bold"
         x="50.1922 58.952198 71.432198 79.472198 83.912201 91.232201 94.952194 102.2722 105.9922 113.31219 117.0322 124.3522"
         y="-34.471348"
         sodipodi:role="line"
         id="tspan3030">PWL(0 0 1 5)</tspan></text>
<path
       d="m 32.792199,76.111347 8.76,0"
       style="fill:none;stroke:#00007f;stroke-width:1.6;stroke-linecap:butt;stroke-linejoin:miter;stroke-miterlimit:10;stroke-opacity:1;stroke-dasharray:none"
       id="path3032"
       inkscape:connector-curvature="0" /><path
       d="m 41.552199,75.991347 0.12,0 0,0.12 -0.12,0 0,-0.12 z"
       style="fill:#00007f;fill-opacity:1;fill-rule:nonzero;stroke:none;stroke-width:1.6;stroke-miterlimit:10;stroke-dasharray:none"
       id="path3034"
       inkscape:connector-curvature="0" /><path
       d="m 32.792199,54.391347 8.76,0"
       style="fill:none;stroke:#00007f;stroke-width:1.6;stroke-linecap:butt;stroke-linejoin:miter;stroke-miterlimit:10;stroke-opacity:1;stroke-dasharray:none"
       id="path3036"
       inkscape:connector-curvature="0" /><path
       d="m 41.552199,54.271347 0.12,0 0,0.12 -0.12,0 0,-0.12 z"
       style="fill:#00007f;fill-opacity:1;fill-rule:nonzero;stroke:none;stroke-width:1.6;stroke-miterlimit:10;stroke-dasharray:none"
       id="path3038"
       inkscape:connector-curvature="0" /><path
       d="m 37.232199,80.431347 0,-8.64"
       style="fill:none;stroke:#00007f;stroke-width:1.6;stroke-linecap:butt;stroke-linejoin:miter;stroke-miterlimit:10;stroke-opacity:1;stroke-dasharray:none"
       id="path3040"
       inkscape:connector-curvature="0" /><path
       d="m 37.232199,71.671347 0.12,0 0,0.12 -0.12,0 0,-0.12 z"
       style="fill:#00007f;fill-opacity:1;fill-rule:nonzero;stroke:none;stroke-width:1.6;stroke-miterlimit:10;stroke-dasharray:none"
       id="path3042"
       inkscape:connector-curvature="0" /><path
       d="m 37.232199,43.471347 0,4.32"
       style="fill:none;stroke:#00007f;stroke-width:1.6;stroke-linecap:butt;stroke-linejoin:miter;stroke-miterlimit:10;stroke-opacity:1;stroke-dasharray:none"
       id="path3044"
       inkscape:connector-curvature="0" /><path
       d="m 37.232199,47.671347 0.12,0 0,0.12 -0.12,0 0,-0.12 z"
       style="fill:#00007f;fill-opacity:1;fill-rule:nonzero;stroke:none;stroke-width:1.6;stroke-miterlimit:10;stroke-dasharray:none"
       id="path3046"
       inkscape:connector-curvature="0" /><path
       d="m 37.232199,86.911347 0,-4.32"
       style="fill:none;stroke:#00007f;stroke-width:1.6;stroke-linecap:butt;stroke-linejoin:miter;stroke-miterlimit:10;stroke-opacity:1;stroke-dasharray:none"
       id="path3048"
       inkscape:connector-curvature="0" /><path
       d="m 37.232199,82.471347 0.12,0 0,0.12 -0.12,0 0,-0.12 z"
       style="fill:#00007f;fill-opacity:1;fill-rule:nonzero;stroke:none;stroke-width:1.6;stroke-miterlimit:10;stroke-dasharray:none"
       id="path3050"
       inkscape:connector-curvature="0" /><path
       d="m 54.512199,65.311347 c 0,9.6 -7.8,17.28 -17.4,17.28 -9.6,0 -17.28,-7.68 -17.28,-17.28 0,-9.6 7.68,-17.4 17.28,-17.4 9.6,0 17.4,7.8 17.4,17.4 z"
       style="fill:none;stroke:#00007f;stroke-width:1.6;stroke-linecap:butt;stroke-linejoin:miter;stroke-miterlimit:10;stroke-opacity:1;stroke-dasharray:none"
       id="path3052"
       inkscape:connector-curvature="0" /><path
       d="m 140.5522,17.431347 19.56,0"
       style="fill:none;stroke:#0000ff;stroke-width:1.6;stroke-linecap:butt;stroke-linejoin:miter;stroke-miterlimit:10;stroke-opacity:1;stroke-dasharray:none"
       id="path3054"
       inkscape:connector-curvature="0" /><path
       d="m 160.1122,17.311347 0.12,0 0,0.12 -0.12,0 0,-0.12 z"
       style="fill:#000000;fill-opacity:1;fill-rule:nonzero;stroke:none;stroke-width:1.6;stroke-miterlimit:10;stroke-dasharray:none"
       id="path3056"
       inkscape:connector-curvature="0" /><path
       d="m 160.1122,17.431347 -9.84,-9.8399998"
       style="fill:none;stroke:#0000ff;stroke-width:1.6;stroke-linecap:butt;stroke-linejoin:miter;stroke-miterlimit:10;stroke-opacity:1;stroke-dasharray:none"
       id="path3058"
       inkscape:connector-curvature="0" /><path
       d="m 150.2722,7.4713472 0.12,0 0,0.12 -0.12,0 0,-0.12 z"
       style="fill:#000000;fill-opacity:1;fill-rule:nonzero;stroke:none;stroke-width:1.6;stroke-miterlimit:10;stroke-dasharray:none"
       id="path3060"
       inkscape:connector-curvature="0" /><path
       d="m 150.2722,7.5913472 -9.72,9.8399998"
       style="fill:none;stroke:#0000ff;stroke-width:1.6;stroke-linecap:butt;stroke-linejoin:miter;stroke-miterlimit:10;stroke-opacity:1;stroke-dasharray:none"
       id="path3062"
       inkscape:connector-curvature="0" /><path
       d="m 140.5522,17.311347 0.12,0 0,0.12 -0.12,0 0,-0.12 z"
       style="fill:#000000;fill-opacity:1;fill-rule:nonzero;stroke:none;stroke-width:1.6;stroke-miterlimit:10;stroke-dasharray:none"
       id="path3064"
       inkscape:connector-curvature="0" /><path
       d="m 27.392199,17.431347 19.56,0"
       style="fill:none;stroke:#0000ff;stroke-width:1.6;stroke-linecap:butt;stroke-linejoin:miter;stroke-miterlimit:10;stroke-opacity:1;stroke-dasharray:none"
       id="path3066"
       inkscape:connector-curvature="0" /><path
       d="m 46.952199,17.311347 0.12,0 0,0.12 -0.12,0 0,-0.12 z"
       style="fill:#000000;fill-opacity:1;fill-rule:nonzero;stroke:none;stroke-width:1.6;stroke-miterlimit:10;stroke-dasharray:none"
       id="path3068"
       inkscape:connector-curvature="0" /><path
       d="m 46.952199,17.431347 -9.72,-9.8399998"
       style="fill:none;stroke:#0000ff;stroke-width:1.6;stroke-linecap:butt;stroke-linejoin:miter;stroke-miterlimit:10;stroke-opacity:1;stroke-dasharray:none"
       id="path3070"
       inkscape:connector-curvature="0" /><path
       d="m 37.232199,7.4713472 0.12,0 0,0.12 -0.12,0 0,-0.12 z"
       style="fill:#000000;fill-opacity:1;fill-rule:nonzero;stroke:none;stroke-width:1.6;stroke-miterlimit:10;stroke-dasharray:none"
       id="path3072"
       inkscape:connector-curvature="0" /><path
       d="m 37.232199,7.5913472 -9.84,9.8399998"
       style="fill:none;stroke:#0000ff;stroke-width:1.6;stroke-linecap:butt;stroke-linejoin:miter;stroke-miterlimit:10;stroke-opacity:1;stroke-dasharray:none"
       id="path3074"
       inkscape:connector-curvature="0" /><path
       d="m 27.392199,17.311347 0.12,0 0,0.12 -0.12,0 0,-0.12 z"
       style="fill:#000000;fill-opacity:1;fill-rule:nonzero;stroke:none;stroke-width:1.6;stroke-miterlimit:10;stroke-dasharray:none"
       id="path3076"
       inkscape:connector-curvature="0" /><text
       transform="matrix(0,1,1,0,0,0)"
       id="text3078"
       x="131.55135"
       y="42.152199"><tspan
         style="font-size:13.56000042px;font-variant:normal;font-weight:bold;writing-mode:lr-tb;fill:#000000;fill-opacity:1;fill-rule:nonzero;stroke:none;font-family:Arial;-inkscape-font-specification:Arial Bold"
         x="131.55135 135.27135 143.5565 151.84166 160.12683"
         y="42.152199"
         sodipodi:role="line"
         id="tspan3080">input</tspan></text>
<path
       d="m 167.6722,140.19135 0,15.12"
       style="fill:none;stroke:#0000ff;stroke-width:1.6;stroke-linecap:butt;stroke-linejoin:miter;stroke-miterlimit:10;stroke-opacity:1;stroke-dasharray:none"
       id="path3082"
       inkscape:connector-curvature="0" /><path
       d="m 167.6722,140.19135 40.8,0"
       style="fill:none;stroke:#0000ff;stroke-width:1.6;stroke-linecap:butt;stroke-linejoin:miter;stroke-miterlimit:10;stroke-opacity:1;stroke-dasharray:none"
       id="path3084"
       inkscape:connector-curvature="0" /><path
       d="m 167.6722,155.31135 40.8,0"
       style="fill:none;stroke:#0000ff;stroke-width:1.6;stroke-linecap:butt;stroke-linejoin:miter;stroke-miterlimit:10;stroke-opacity:1;stroke-dasharray:none"
       id="path3086"
       inkscape:connector-curvature="0" /><path
       d="m 208.4722,140.19135 7.56,7.68"
       style="fill:none;stroke:#0000ff;stroke-width:1.6;stroke-linecap:butt;stroke-linejoin:miter;stroke-miterlimit:10;stroke-opacity:1;stroke-dasharray:none"
       id="path3088"
       inkscape:connector-curvature="0" /><path
       d="m 216.0322,147.87135 -7.56,7.44"
       style="fill:none;stroke:#0000ff;stroke-width:1.6;stroke-linecap:butt;stroke-linejoin:miter;stroke-miterlimit:10;stroke-opacity:1;stroke-dasharray:none"
       id="path3090"
       inkscape:connector-curvature="0" /><text
       transform="scale(1,-1)"
       id="text3092"
       x="168.9922"
       y="-143.07135"><tspan
         style="font-size:13.56000042px;font-variant:normal;font-weight:bold;writing-mode:lr-tb;fill:#000000;fill-opacity:1;fill-rule:nonzero;stroke:none;font-family:Arial;-inkscape-font-specification:Arial Bold"
         x="168.9922 177.7522 190.23219"
         y="-143.07135"
         sodipodi:role="line"
         id="tspan3094">PWM</tspan><tspan
         style="font-size:13.56000042px;font-variant:normal;font-weight:bold;writing-mode:lr-tb;fill:#000000;fill-opacity:1;fill-rule:nonzero;stroke:none;font-family:Arial;-inkscape-font-specification:Arial Bold"
         x="6.752193 10.472195 14.912197 20.072201 27.392193 35.432201 39.152203 46.472202 50.192196 57.512196 61.232197 68.552193 72.272194 75.992195 83.312195"
         y="-173.67134"
         sodipodi:role="line"
         id="tspan3096">.tran 0 1 0 .2m</tspan><tspan
         style="font-size:13.56000042px;font-variant:normal;font-weight:bold;writing-mode:lr-tb;fill:#000000;fill-opacity:1;fill-rule:nonzero;stroke:none;font-family:Arial;-inkscape-font-specification:Arial Bold"
         x="232.95219 236.6722 244.7122 252.0322 257.1922 264.51221 276.27219 279.99219 289.4722 296.79221 304.83218 312.87219 320.1922 327.89188 335.21188"
         y="-186.63135"
         sodipodi:role="line"
         id="tspan3098">.param Range=5V</tspan><tspan
         style="font-size:13.56000042px;font-variant:normal;font-weight:bold;writing-mode:lr-tb;fill:#000000;fill-opacity:1;fill-rule:nonzero;stroke:none;font-family:Arial;-inkscape-font-specification:Arial Bold"
         x="232.95219 236.6722 244.7122 252.0322 257.1922 264.51221 276.27219 283.71219 288.15219 295.83218 303.13251 310.43283 319.91284"
         y="-151.83134"
         sodipodi:role="line"
         id="tspan3100">.param f=30Hz</tspan><tspan
         style="font-size:13.56000042px;font-variant:normal;font-weight:bold;writing-mode:lr-tb;fill:#000000;fill-opacity:1;fill-rule:nonzero;stroke:none;font-family:Arial;-inkscape-font-specification:Arial Bold"
         x="232.95219 236.6722 244.7122 252.0322 257.1922 264.51221 276.27219 283.71219 292.4722 300.51221 304.23221 312.27219 320.31219 327.98608 335.30606"
         y="-117.03135"
         sodipodi:role="line"
         id="tspan3102">.param Vhigh=5V</tspan><tspan
         style="font-size:13.56000042px;font-variant:normal;font-weight:bold;writing-mode:lr-tb;fill:#000000;fill-opacity:1;fill-rule:nonzero;stroke:none;font-family:Arial;-inkscape-font-specification:Arial Bold"
         x="232.95219 236.6722 244.7122 252.0322 257.1922 264.51221 276.27219 279.99219 288.7522 292.4722 300.51221 311.06189 318.74188 326.04221"
         y="-82.231346"
         sodipodi:role="line"
         id="tspan3104">.param Vlow=0V</tspan><tspan
         style="font-size:13.56000042px;font-variant:normal;font-weight:bold;writing-mode:lr-tb;fill:#0000c8;fill-opacity:1;fill-rule:nonzero;stroke:none;font-family:Arial;-inkscape-font-specification:Arial Bold"
         x="202.4722 211.23219 218.5522 223.7122 231.0322 242.79221 250.1122 254.5522 261.87219 267.0322 274.3522 278.0722 288.62189 296.66187 300.38187 307.70187 315.74188 319.46188 326.78186 334.10187 342.14188 345.86188 353.90189 361.22186 364.94186 372.26187 380.30188 384.02188 392.06189 399.38187 403.82187 411.14188 419.18188"
         y="-217.11134"
         sodipodi:role="line"
         id="tspan3106">Parameters which can be adjusted:</tspan><tspan
         style="font-size:13.56000042px;font-variant:normal;font-weight:bold;writing-mode:lr-tb;fill:#0000c8;fill-opacity:1;fill-rule:nonzero;stroke:none;font-family:Arial;-inkscape-font-specification:Arial Bold"
         x="232.95219 240.87219 248.9122 256.23221 259.95221 265.11221 272.43219 280.4722 288.51221 295.83218 299.55219 303.27219 311.31219 315.0322 325.58188 333.62189 337.34189 344.66187 352.70187 356.42188 360.86188 368.90189 376.22186 379.94186 383.66187 391.70187 399.74188 407.78186 412.22186 415.94186 423.14188 431.18185 434.90186 439.34186 446.66187 454.70187 462.02188 465.74188 473.06186 480.38187 488.42188 492.14188 499.34186 506.66187 511.82187 518.90186"
         y="-199.71135"
         sodipodi:role="line"
         id="tspan3108">The range in which the input voltage can vary:</tspan><tspan
         style="font-size:13.56000042px;font-variant:normal;font-weight:bold;writing-mode:lr-tb;fill:#0000c8;fill-opacity:1;fill-rule:nonzero;stroke:none;font-family:Arial;-inkscape-font-specification:Arial Bold"
         x="232.95219 240.87219 248.9122 256.23221 259.95221 264.39221 269.55219 276.87219 284.9122 292.95221 300.27219 308.31219 315.6322 322.71219 326.43219 334.4722 338.9122 342.6322 347.0722 355.11218 362.43219 366.15219 374.9122 387.39218 398.31219 402.0322 409.3522 413.0722 421.11218 429.15219 436.4722"
         y="-164.91135"
         sodipodi:role="line"
         id="tspan3110">The frequency of the PWM signal</tspan><tspan
         style="font-size:13.56000042px;font-variant:normal;font-weight:bold;writing-mode:lr-tb;fill:#0000c8;fill-opacity:1;fill-rule:nonzero;stroke:none;font-family:Arial;-inkscape-font-specification:Arial Bold"
         x="232.95219 240.87219 248.9122 256.23221 259.95221 267.15219 275.1922 278.9122 283.3522 290.67221 298.71219 306.0322 309.7522 320.30188 328.34189 335.66187 343.70187 347.42188 351.86188 359.90189 367.22186 370.94186 379.70187 392.18188 403.10187 406.82187 414.14188 417.86188 425.90186 433.94186 441.26187 444.98187 448.70187 452.42188 459.74188 463.46185 471.50186 475.22186 483.26187 491.30188"
         y="-130.11134"
         sodipodi:role="line"
         id="tspan3112">The voltage when the PWM signal is high:</tspan><tspan
         style="font-size:13.56000042px;font-variant:normal;font-weight:bold;writing-mode:lr-tb;fill:#0000c8;fill-opacity:1;fill-rule:nonzero;stroke:none;font-family:Arial;-inkscape-font-specification:Arial Bold"
         x="232.95219 240.87219 248.9122 256.23221 259.95221 267.15219 275.1922 278.9122 283.3522 290.67221 298.71219 306.0322 309.7522 320.30188 328.34189 335.66187 343.70187 347.42188 351.86188 359.90189 367.22186 370.94186 379.70187 392.18188 403.10187 406.82187 414.14188 417.86188 425.90186 433.94186 441.26187 444.98187 448.70187 452.42188 459.74188 463.46185 467.18185 475.22186 485.77155"
         y="-95.311348"
         sodipodi:role="line"
         id="tspan3114">The voltage when the PWM signal is low:</tspan><tspan
         style="font-size:13.56000042px;font-variant:normal;font-weight:bold;writing-mode:lr-tb;fill:#0000c8;fill-opacity:1;fill-rule:nonzero;stroke:none;font-family:Arial;-inkscape-font-specification:Arial Bold"
         sodipodi:role="line"
         id="tspan3116"
         x="168.9922"
         y="0" /><tspan
         style="font-size:13.56000042px;font-variant:normal;font-weight:bold;writing-mode:lr-tb;fill:#0000c8;fill-opacity:1;fill-rule:nonzero;stroke:none;font-family:Arial;-inkscape-font-specification:Arial Bold"
         x="6.752193 14.672192 22.7122 30.032192 33.752193 41.072201 44.792202 52.832195 60.872196 68.192192 71.912193 75.632195 80.072197 88.112198 91.832191 99.872192 107.1922"
         y="-217.11134"
         sodipodi:role="line"
         id="tspan3118">The signal to be </tspan><tspan
         style="font-size:13.56000042px;font-variant:normal;font-weight:bold;writing-mode:lr-tb;fill:#0000c8;fill-opacity:1;fill-rule:nonzero;stroke:none;font-family:Arial;-inkscape-font-specification:Arial Bold"
         x="6.752193 15.512203 23.552197 27.272198 34.592205 41.912197 45.632198 58.112202 61.832195 69.872192 74.312195 82.352196 86.072197 96.992195 105.0322 113.0722 121.1122 124.8322 132.15219 136.59219 143.9122 151.95219"
         y="-201.87135"
         sodipodi:role="line"
         id="tspan3120">Pulse Width Modulated </tspan><tspan
         style="font-size:13.56000042px;font-variant:normal;font-weight:bold;writing-mode:lr-tb;fill:#0000c8;fill-opacity:1;fill-rule:nonzero;stroke:none;font-family:Arial;-inkscape-font-specification:Arial Bold"
         x="6.752193 14.072201 22.112194 30.152203 38.192196 41.912197 49.952198 53.672199 61.7122 69.032196 72.752197 80.072197 87.392197 91.112198 94.832191 102.1522 110.1922 113.91219 117.0322 120.7522 128.79219 136.8322 144.87219 149.31219"
         y="-186.63135"
         sodipodi:role="line"
         id="tspan3122">should be called 'input'</tspan></text>
<path
       d="m 167.6722,147.87135 -17.4,0"
       style="fill:none;stroke:#0000ff;stroke-width:1.6;stroke-linecap:butt;stroke-linejoin:miter;stroke-miterlimit:10;stroke-opacity:1;stroke-dasharray:none"
       id="path3124"
       inkscape:connector-curvature="0" /><path
       d="m 150.2722,147.75135 0.12,0 0,0.12 -0.12,0 0,-0.12 z"
       style="fill:#0000ff;fill-opacity:1;fill-rule:nonzero;stroke:none;stroke-width:1.6;stroke-miterlimit:10;stroke-dasharray:none"
       id="path3126"
       inkscape:connector-curvature="0" /><path
       d="m 37.232199,86.911347 0,43.560003"
       style="fill:none;stroke:#0000ff;stroke-width:1.6;stroke-linecap:butt;stroke-linejoin:miter;stroke-miterlimit:10;stroke-opacity:1;stroke-dasharray:none"
       id="path3128"
       inkscape:connector-curvature="0" /><path
       d="m 37.232199,130.35135 0.12,0 0,0.12 -0.12,0 0,-0.12 z"
       style="fill:#0000ff;fill-opacity:1;fill-rule:nonzero;stroke:none;stroke-width:1.6;stroke-miterlimit:10;stroke-dasharray:none"
       id="path3130"
       inkscape:connector-curvature="0" /><path
       d="m 150.2722,86.911347 0,60.960003"
       style="fill:none;stroke:#0000ff;stroke-width:1.6;stroke-linecap:butt;stroke-linejoin:miter;stroke-miterlimit:10;stroke-opacity:1;stroke-dasharray:none"
       id="path3132"
       inkscape:connector-curvature="0" /><path
       d="m 150.2722,147.75135 0.12,0 0,0.12 -0.12,0 0,-0.12 z"
       style="fill:#0000ff;fill-opacity:1;fill-rule:nonzero;stroke:none;stroke-width:1.6;stroke-miterlimit:10;stroke-dasharray:none"
       id="path3134"
       inkscape:connector-curvature="0" /><path
       d="m 37.232199,17.431347 0,26.04"
       style="fill:none;stroke:#0000ff;stroke-width:1.6;stroke-linecap:butt;stroke-linejoin:miter;stroke-miterlimit:10;stroke-opacity:1;stroke-dasharray:none"
       id="path3136"
       inkscape:connector-curvature="0" /><path
       d="m 37.232199,43.351347 0.12,0 0,0.12 -0.12,0 0,-0.12 z"
       style="fill:#0000ff;fill-opacity:1;fill-rule:nonzero;stroke:none;stroke-width:1.6;stroke-miterlimit:10;stroke-dasharray:none"
       id="path3138"
       inkscape:connector-curvature="0" /><path
       d="m 150.2722,17.431347 0,26.04"
       style="fill:none;stroke:#0000ff;stroke-width:1.6;stroke-linecap:butt;stroke-linejoin:miter;stroke-miterlimit:10;stroke-opacity:1;stroke-dasharray:none"
       id="path3140"
       inkscape:connector-curvature="0" /><path
       d="m 150.2722,43.351347 0.12,0 0,0.12 -0.12,0 0,-0.12 z"
       style="fill:#0000ff;fill-opacity:1;fill-rule:nonzero;stroke:none;stroke-width:1.6;stroke-miterlimit:10;stroke-dasharray:none"
       id="path3142"
       inkscape:connector-curvature="0" /><text
       xml:space="preserve"
       style="font-size:32px;font-style:normal;font-variant:normal;font-weight:normal;font-stretch:normal;text-align:start;line-height:125%;letter-spacing:0px;word-spacing:0px;writing-mode:lr-tb;text-anchor:start;fill:#000000;fill-opacity:1;stroke:none;font-family:Freestyle Script;-inkscape-font-specification:Freestyle Script"
       x="74.589996"
       y="-236.71535"
       id="text3924"
       sodipodi:linespacing="125%"
       transform="scale(1,-1)"><tspan
         sodipodi:role="line"
         id="tspan3926"
         x="74.589996"
         y="-236.71535">PWM generator for use within LTSpice </tspan></text>
</g></svg>