<?xml version="1.0" encoding="UTF-8" standalone="no"?>
<!-- Created with Inkscape (http://www.inkscape.org/) -->

<svg
   xmlns:dc="http://purl.org/dc/elements/1.1/"
   xmlns:cc="http://creativecommons.org/ns#"
   xmlns:rdf="http://www.w3.org/1999/02/22-rdf-syntax-ns#"
   xmlns:svg="http://www.w3.org/2000/svg"
   xmlns="http://www.w3.org/2000/svg"
   xmlns:sodipodi="http://sodipodi.sourceforge.net/DTD/sodipodi-0.dtd"
   xmlns:inkscape="http://www.inkscape.org/namespaces/inkscape"
   width="200"
   height="195"
   id="svg2"
   inkscape:label="Pozadí"
   version="1.1"
   inkscape:version="0.48.0 r9654"
   sodipodi:docname="patocka_pracovni_kvadranty_sch.svg">
  <defs
     id="defs25923" />
  <sodipodi:namedview
     id="base"
     pagecolor="#ffffff"
     bordercolor="#666666"
     borderopacity="1.0"
     inkscape:pageopacity="0.0"
     inkscape:pageshadow="2"
     inkscape:zoom="2.8"
     inkscape:cx="163.31008"
     inkscape:cy="84.582766"
     inkscape:document-units="px"
     inkscape:current-layer="layer1"
     showgrid="false"
     inkscape:window-width="1917"
     inkscape:window-height="1125"
     inkscape:window-x="-9"
     inkscape:window-y="-9"
     inkscape:window-maximized="1" />
  <metadata
     id="metadata25926">
    <rdf:RDF>
      <cc:Work
         rdf:about="">
        <dc:format>image/svg+xml</dc:format>
        <dc:type
           rdf:resource="http://purl.org/dc/dcmitype/StillImage" />
        <dc:title></dc:title>
      </cc:Work>
    </rdf:RDF>
  </metadata>
  <g
     inkscape:label="Vrstva 1"
     inkscape:groupmode="layer"
     id="layer1"
     transform="translate(0,-857.36218)">
    <path
       inkscape:connector-curvature="0"
       d="m 97.843867,1019.6923 62.250003,0 0,-62.25002 -62.250003,0 0,62.25002 z"
       style="fill:#f8b57e;fill-opacity:1;fill-rule:evenodd;stroke:none"
       id="path15858" />
    <text
       style="font-size:15px"
       y="995.19226"
       x="114.98136"
       id="text15860">
      <tspan
         style="font-size:22.5px;font-variant:normal;font-weight:normal;writing-mode:lr-tb;fill:#000000;fill-opacity:1;fill-rule:nonzero;stroke:none;font-family:ARIAL;-inkscape-font-specification:ARIAL"
         x="114.98136 121.23258"
         y="995.19226"
         sodipodi:role="line"
         id="tspan15862">IV</tspan>
    </text>
    <text
       style="font-size:15px"
       y="995.19226"
       x="136.24388"
       id="text15864">
      <tspan
         style="font-size:22.5px;font-variant:normal;font-weight:normal;writing-mode:lr-tb;fill:#000000;fill-opacity:1;fill-rule:nonzero;stroke:none;font-family:ARIAL;-inkscape-font-specification:ARIAL"
         x="136.24388"
         y="995.19226"
         id="tspan15866">.</tspan>
    </text>
    <path
       inkscape:connector-curvature="0"
       d="m 35.593867,1019.6923 62.25,0 0,-62.25002 -62.25,0 0,62.25002 z"
       style="fill:#71bfd2;fill-opacity:1;fill-rule:evenodd;stroke:none"
       id="path15868" />
    <text
       style="font-size:15px"
       y="995.19226"
       x="54.231361"
       id="text15870">
      <tspan
         style="font-size:22.5px;font-variant:normal;font-weight:normal;writing-mode:lr-tb;fill:#000000;fill-opacity:1;fill-rule:nonzero;stroke:none;font-family:ARIAL;-inkscape-font-specification:ARIAL"
         x="54.231361 60.482582 66.733803"
         y="995.19226"
         sodipodi:role="line"
         id="tspan15872">III</tspan>
    </text>
    <text
       style="font-size:15px"
       y="995.19226"
       x="72.981361"
       id="text15874">
      <tspan
         style="font-size:22.5px;font-variant:normal;font-weight:normal;writing-mode:lr-tb;fill:#000000;fill-opacity:1;fill-rule:nonzero;stroke:none;font-family:ARIAL;-inkscape-font-specification:ARIAL"
         x="72.981361"
         y="995.19226"
         id="tspan15876">.</tspan>
    </text>
    <path
       inkscape:connector-curvature="0"
       d="m 97.843867,957.44228 62.250003,0 0,-62.25 -62.250003,0 0,62.25 z"
       style="fill:#b5cb85;fill-opacity:1;fill-rule:evenodd;stroke:none"
       id="path15878" />
    <text
       style="font-size:15px"
       y="933.19226"
       x="122.49387"
       id="text15880">
      <tspan
         style="font-size:22.5px;font-variant:normal;font-weight:normal;writing-mode:lr-tb;fill:#000000;fill-opacity:1;fill-rule:nonzero;stroke:none;font-family:ARIAL;-inkscape-font-specification:ARIAL"
         x="122.49387"
         y="933.19226"
         id="tspan15882">I</tspan>
    </text>
    <text
       style="font-size:15px"
       y="933.19226"
       x="128.74388"
       id="text15884">
      <tspan
         style="font-size:22.5px;font-variant:normal;font-weight:normal;writing-mode:lr-tb;fill:#000000;fill-opacity:1;fill-rule:nonzero;stroke:none;font-family:ARIAL;-inkscape-font-specification:ARIAL"
         x="128.74388"
         y="933.19226"
         id="tspan15886">.</tspan>
    </text>
    <path
       inkscape:connector-curvature="0"
       d="m 35.593867,957.44228 62.25,0 0,-62.25 -62.25,0 0,62.25 z"
       style="fill:#bfb1cf;fill-opacity:1;fill-rule:evenodd;stroke:none"
       id="path15888" />
    <text
       style="font-size:15px"
       y="933.19226"
       x="57.356361"
       id="text15890">
      <tspan
         style="font-size:22.5px;font-variant:normal;font-weight:normal;writing-mode:lr-tb;fill:#000000;fill-opacity:1;fill-rule:nonzero;stroke:none;font-family:ARIAL;-inkscape-font-specification:ARIAL"
         x="57.356361 63.607582"
         y="933.19226"
         sodipodi:role="line"
         id="tspan15892">II</tspan>
    </text>
    <text
       style="font-size:15px"
       y="933.19226"
       x="69.856361"
       id="text15894">
      <tspan
         style="font-size:22.5px;font-variant:normal;font-weight:normal;writing-mode:lr-tb;fill:#000000;fill-opacity:1;fill-rule:nonzero;stroke:none;font-family:ARIAL;-inkscape-font-specification:ARIAL"
         x="69.856361"
         y="933.19226"
         id="tspan15896">.</tspan>
    </text>
    <path
       inkscape:connector-curvature="0"
       d="m 97.843867,877.94228 0,157.50002"
       style="fill:none;stroke:#000000;stroke-width:2.70000005;stroke-linecap:round;stroke-linejoin:round;stroke-miterlimit:10;stroke-opacity:1;stroke-dasharray:none"
       id="path15898" />
    <path
       inkscape:connector-curvature="0"
       d="m 91.843867,879.44228 6,-18 6.000003,18 -12.000003,0 z"
       style="fill:#000000;fill-opacity:1;fill-rule:evenodd;stroke:none"
       id="path15900" />
    <path
       inkscape:connector-curvature="0"
       d="m 103.84387,1033.9423 -6.000003,17.25 -6,-17.25 12.000003,0 z"
       style="fill:#000000;fill-opacity:1;fill-rule:evenodd;stroke:none"
       id="path15902" />
    <path
       inkscape:connector-curvature="0"
       d="m 19.843867,957.44228 159.000003,0"
       style="fill:none;stroke:#000000;stroke-width:2.70000005;stroke-linecap:round;stroke-linejoin:round;stroke-miterlimit:10;stroke-opacity:1;stroke-dasharray:none"
       id="path15904" />
    <path
       inkscape:connector-curvature="0"
       d="m 21.343867,963.44228 -17.2499999,-6 17.2499999,-6 0,12 z"
       style="fill:#000000;fill-opacity:1;fill-rule:evenodd;stroke:none"
       id="path15906" />
    <path
       inkscape:connector-curvature="0"
       d="m 177.34387,951.44228 18,6 -18,6 0,-12 z"
       style="fill:#000000;fill-opacity:1;fill-rule:evenodd;stroke:none"
       id="path15908" />
    <text
       style="font-size:15px"
       y="872.25299"
       x="105.89566"
       id="text15910">
      <tspan
         style="font-size:17.49959946px;font-variant:normal;font-weight:normal;writing-mode:lr-tb;fill:#000000;fill-opacity:1;fill-rule:nonzero;stroke:none;font-family:ARIAL;-inkscape-font-specification:ARIAL"
         x="105.89566"
         y="872.25299"
         id="tspan15912">U</tspan>
    </text>
    <text
       style="font-size:15px"
       y="874.66547"
       x="118.53318"
       id="text15914">
      <tspan
         style="font-size:11.37330055px;font-variant:normal;font-weight:normal;writing-mode:lr-tb;fill:#000000;fill-opacity:1;fill-rule:nonzero;stroke:none;font-family:ARIAL;-inkscape-font-specification:ARIAL"
         x="118.53318"
         y="874.66547"
         id="tspan15916">2</tspan>
    </text>
    <text
       style="font-size:15px"
       y="978.11542"
       x="187.31708"
       id="text15918">
      <tspan
         style="font-size:17.49959946px;font-variant:normal;font-weight:normal;writing-mode:lr-tb;fill:#000000;fill-opacity:1;fill-rule:nonzero;stroke:none;font-family:ARIAL;-inkscape-font-specification:ARIAL"
         x="187.31708"
         y="978.11542"
         id="tspan15920">I</tspan>
    </text>
    <text
       style="font-size:15px"
       y="980.54047"
       x="192.17957"
       id="text15922">
      <tspan
         style="font-size:11.37330055px;font-variant:normal;font-weight:normal;writing-mode:lr-tb;fill:#000000;fill-opacity:1;fill-rule:nonzero;stroke:none;font-family:ARIAL;-inkscape-font-specification:ARIAL"
         x="192.17957"
         y="980.54047"
         id="tspan15924">2</tspan>
    </text>
    <path
       inkscape:connector-curvature="0"
       d="m 163.88137,958.22978 c 0,-4.0125 -3.25,-7.2625 -7.2625,-7.2625 -4.0125,0 -7.2625,3.25 -7.2625,7.2625 0,4.0125 3.25,7.2625 7.2625,7.2625 4.0125,0 7.2625,-3.25 7.2625,-7.2625 z"
       style="fill:#ffffff;fill-opacity:1;fill-rule:evenodd;stroke:none"
       id="path15926" />
    <path
       inkscape:connector-curvature="0"
       d="m 163.88137,958.22978 c 0,-4.0125 -3.25,-7.2625 -7.2625,-7.2625 -4.0125,0 -7.2625,3.25 -7.2625,7.2625 0,4.0125 3.25,7.2625 7.2625,7.2625 4.0125,0 7.2625,-3.25 7.2625,-7.2625 z"
       style="fill:none;stroke:#000000;stroke-width:0.90000004;stroke-linecap:round;stroke-linejoin:round;stroke-miterlimit:10;stroke-opacity:1;stroke-dasharray:none"
       id="path15928" />
    <text
       style="font-size:15px"
       y="963.61731"
       x="152.34386"
       id="text15930">
      <tspan
         style="font-size:15.00030041px;font-variant:normal;font-weight:normal;writing-mode:lr-tb;fill:#000000;fill-opacity:1;fill-rule:nonzero;stroke:none;font-family:ARIAL;-inkscape-font-specification:ARIAL"
         x="152.34386"
         y="963.61731"
         id="tspan15932">+</tspan>
    </text>
    <path
       inkscape:connector-curvature="0"
       d="m 105.05637,898.19228 c 0,-4.0125 -3.25,-7.2625 -7.262503,-7.2625 -4.0125,0 -7.2625,3.25 -7.2625,7.2625 0,4.0125 3.25,7.2625 7.2625,7.2625 4.012503,0 7.262503,-3.25 7.262503,-7.2625 z"
       style="fill:#ffffff;fill-opacity:1;fill-rule:evenodd;stroke:none"
       id="path15934" />
    <path
       inkscape:connector-curvature="0"
       d="m 105.05637,898.19228 c 0,-4.0125 -3.25,-7.2625 -7.262503,-7.2625 -4.0125,0 -7.2625,3.25 -7.2625,7.2625 0,4.0125 3.25,7.2625 7.2625,7.2625 4.012503,0 7.262503,-3.25 7.262503,-7.2625 z"
       style="fill:none;stroke:#000000;stroke-width:0.90000004;stroke-linecap:round;stroke-linejoin:round;stroke-miterlimit:10;stroke-opacity:1;stroke-dasharray:none"
       id="path15936" />
    <text
       style="font-size:15px"
       y="903.57971"
       x="93.518837"
       id="text15938">
      <tspan
         style="font-size:15.00030041px;font-variant:normal;font-weight:normal;writing-mode:lr-tb;fill:#000000;fill-opacity:1;fill-rule:nonzero;stroke:none;font-family:ARIAL;-inkscape-font-specification:ARIAL"
         x="93.518837"
         y="903.57971"
         id="tspan15940">+</tspan>
    </text>
    <path
       inkscape:connector-curvature="0"
       d="m 105.19387,1016.6423 c 0,-4.0125 -3.2625,-7.2625 -7.262503,-7.2625 -4.0125,0 -7.275,3.25 -7.275,7.2625 0,4.0125 3.2625,7.2625 7.275,7.2625 4.000003,0 7.262503,-3.25 7.262503,-7.2625 z"
       style="fill:#ffffff;fill-opacity:1;fill-rule:evenodd;stroke:none"
       id="path15942" />
    <path
       inkscape:connector-curvature="0"
       d="m 105.19387,1016.6423 c 0,-4.0125 -3.2625,-7.2625 -7.262503,-7.2625 -4.0125,0 -7.275,3.25 -7.275,7.2625 0,4.0125 3.2625,7.2625 7.275,7.2625 4.000003,0 7.262503,-3.25 7.262503,-7.2625 z"
       style="fill:none;stroke:#000000;stroke-width:0.90000004;stroke-linecap:round;stroke-linejoin:round;stroke-miterlimit:10;stroke-opacity:1;stroke-dasharray:none"
       id="path15944" />
    <text
       style="font-size:15px"
       y="1022.6548"
       x="94.343849"
       id="text15946">
      <tspan
         style="font-size:22.5px;font-variant:normal;font-weight:normal;writing-mode:lr-tb;fill:#000000;fill-opacity:1;fill-rule:nonzero;stroke:none;font-family:ARIAL;-inkscape-font-specification:ARIAL"
         x="94.343849"
         y="1022.6548"
         id="tspan15948">-</tspan>
    </text>
    <path
       inkscape:connector-curvature="0"
       d="m 46.718867,957.14228 c 0,-4.0125 -3.2625,-7.275 -7.2625,-7.275 -4.0125,0 -7.275,3.2625 -7.275,7.275 0,4 3.2625,7.2625 7.275,7.2625 4,0 7.2625,-3.2625 7.2625,-7.2625 z"
       style="fill:#ffffff;fill-opacity:1;fill-rule:evenodd;stroke:none"
       id="path15950" />
    <path
       inkscape:connector-curvature="0"
       d="m 46.718867,957.14228 c 0,-4.0125 -3.2625,-7.275 -7.2625,-7.275 -4.0125,0 -7.275,3.2625 -7.275,7.275 0,4 3.2625,7.2625 7.275,7.2625 4,0 7.2625,-3.2625 7.2625,-7.2625 z"
       style="fill:none;stroke:#000000;stroke-width:0.90000004;stroke-linecap:round;stroke-linejoin:round;stroke-miterlimit:10;stroke-opacity:1;stroke-dasharray:none"
       id="path15952" />
    <text
       style="font-size:15px"
       y="963.14221"
       x="35.868874"
       id="text15954">
      <tspan
         style="font-size:22.5px;font-variant:normal;font-weight:normal;writing-mode:lr-tb;fill:#000000;fill-opacity:1;fill-rule:nonzero;stroke:none;font-family:ARIAL;-inkscape-font-specification:ARIAL"
         x="35.868874"
         y="963.14221"
         id="tspan15956">-</tspan>
    </text>
  </g>
</svg>
