<?xml version="1.0" encoding="UTF-8" standalone="no"?>
<!-- Created with Inkscape (http://www.inkscape.org/) -->

<svg
   xmlns:dc="http://purl.org/dc/elements/1.1/"
   xmlns:cc="http://creativecommons.org/ns#"
   xmlns:rdf="http://www.w3.org/1999/02/22-rdf-syntax-ns#"
   xmlns:svg="http://www.w3.org/2000/svg"
   xmlns="http://www.w3.org/2000/svg"
   xmlns:sodipodi="http://sodipodi.sourceforge.net/DTD/sodipodi-0.dtd"
   xmlns:inkscape="http://www.inkscape.org/namespaces/inkscape"
   width="195"
   height="100"
   id="svg2"
   inkscape:label="Pozadí"
   version="1.1"
   inkscape:version="0.48.0 r9654"
   sodipodi:docname="patocka_aktivni_zatez_nahrad_sch.svg">
  <defs
     id="defs41718">
    <clipPath
       clipPathUnits="userSpaceOnUse"
       id="clipPath33066">
      <path
         inkscape:connector-curvature="0"
         d="m 0,0 261.08,0 0,465.43 L 0,465.43 0,0 z"
         id="path33068" />
    </clipPath>
    <clipPath
       clipPathUnits="userSpaceOnUse"
       id="clipPath33074">
      <path
         inkscape:connector-curvature="0"
         d="m 0,-0.40549 260.67,0 0,465.83 -260.67,0 0,-465.83 z"
         clip-rule="evenodd"
         id="path33076" />
    </clipPath>
    <clipPath
       clipPathUnits="userSpaceOnUse"
       id="clipPath33086">
      <path
         inkscape:connector-curvature="0"
         d="m 0,-0.40549 260.67,0 0,465.83 -260.67,0 0,-465.83 z"
         clip-rule="evenodd"
         id="path33088" />
    </clipPath>
    <clipPath
       clipPathUnits="userSpaceOnUse"
       id="clipPath33098">
      <path
         inkscape:connector-curvature="0"
         d="m 0,-0.40549 260.67,0 0,465.83 -260.67,0 0,-465.83 z"
         clip-rule="evenodd"
         id="path33100" />
    </clipPath>
    <clipPath
       clipPathUnits="userSpaceOnUse"
       id="clipPath33110">
      <path
         inkscape:connector-curvature="0"
         d="m 0,-0.40549 260.67,0 0,465.83 -260.67,0 0,-465.83 z"
         clip-rule="evenodd"
         id="path33112" />
    </clipPath>
    <clipPath
       clipPathUnits="userSpaceOnUse"
       id="clipPath33184">
      <path
         inkscape:connector-curvature="0"
         d="m 0,0 261.08,0 0,465.43 L 0,465.43 0,0 z"
         id="path33186" />
    </clipPath>
    <clipPath
       clipPathUnits="userSpaceOnUse"
       id="clipPath33192">
      <path
         inkscape:connector-curvature="0"
         d="m 0,-0.40549 260.67,0 0,465.83 -260.67,0 0,-465.83 z"
         clip-rule="evenodd"
         id="path33194" />
    </clipPath>
    <clipPath
       clipPathUnits="userSpaceOnUse"
       id="clipPath33204">
      <path
         inkscape:connector-curvature="0"
         d="m 0,-0.40549 260.67,0 0,465.83 -260.67,0 0,-465.83 z"
         clip-rule="evenodd"
         id="path33206" />
    </clipPath>
    <clipPath
       clipPathUnits="userSpaceOnUse"
       id="clipPath33216">
      <path
         inkscape:connector-curvature="0"
         d="m 0,-0.40549 260.67,0 0,465.83 -260.67,0 0,-465.83 z"
         clip-rule="evenodd"
         id="path33218" />
    </clipPath>
    <clipPath
       clipPathUnits="userSpaceOnUse"
       id="clipPath33228">
      <path
         inkscape:connector-curvature="0"
         d="m 0,-0.40549 260.67,0 0,465.83 -260.67,0 0,-465.83 z"
         clip-rule="evenodd"
         id="path33230" />
    </clipPath>
  </defs>
  <sodipodi:namedview
     id="base"
     pagecolor="#ffffff"
     bordercolor="#666666"
     borderopacity="1.0"
     inkscape:pageopacity="0.0"
     inkscape:pageshadow="2"
     inkscape:zoom="5.6"
     inkscape:cx="137.8714"
     inkscape:cy="25.785753"
     inkscape:document-units="px"
     inkscape:current-layer="g33060"
     showgrid="false"
     inkscape:window-width="1917"
     inkscape:window-height="1125"
     inkscape:window-x="-9"
     inkscape:window-y="-9"
     inkscape:window-maximized="1" />
  <metadata
     id="metadata41721">
    <rdf:RDF>
      <cc:Work
         rdf:about="">
        <dc:format>image/svg+xml</dc:format>
        <dc:type
           rdf:resource="http://purl.org/dc/dcmitype/StillImage" />
        <dc:title></dc:title>
      </cc:Work>
    </rdf:RDF>
  </metadata>
  <g
     inkscape:label="Vrstva 1"
     inkscape:groupmode="layer"
     id="layer1"
     transform="translate(0,-952.36218)">
    <g
       id="g33060"
       transform="matrix(0.206675,0,-7.5375e-7,-0.3690875,5.3489285,973.45479)">
      <text
         xml:space="preserve"
         style="font-size:46.22157669px;font-style:normal;font-variant:normal;font-weight:normal;font-stretch:normal;line-height:125%;letter-spacing:0px;word-spacing:0px;fill:#000000;fill-opacity:1;stroke:none;font-family:Segoe UI;-inkscape-font-specification:Segoe UI"
         x="-15.950603"
         y="22.785263"
         id="text41843"
         sodipodi:linespacing="125%"
         transform="matrix(1.3363515,0,-2.7290952e-6,-0.74830612,0,0)"><tspan
           sodipodi:role="line"
           id="tspan41845"
           x="-15.950603"
           y="22.785263">+</tspan></text>
      <text
         xml:space="preserve"
         style="font-size:62.76609039px;font-style:normal;font-variant:normal;font-weight:normal;font-stretch:normal;line-height:125%;letter-spacing:0px;word-spacing:0px;fill:#000000;fill-opacity:1;stroke:none;font-family:Segoe UI;-inkscape-font-specification:Segoe UI"
         x="-13.766632"
         y="-43.040131"
         id="text41847"
         sodipodi:linespacing="125%"
         transform="matrix(1.6815966,0,-2.1687903e-6,-0.59467294,0,0)"><tspan
           sodipodi:role="line"
           id="tspan41849"
           x="-13.766632"
           y="-43.040131">-</tspan></text>
      <path
         inkscape:connector-curvature="0"
         d="m 809.40172,-111.97702 c -10e-5,-14.39361 20.866,-26.04396 46.5706,-26.04396 25.7046,0 46.57071,11.65035 46.57081,26.04396 0,14.393607 -20.86601,26.077827 -46.57061,26.077827 -25.7046,0 -46.5708,-11.68422 -46.5708,-26.077827 z"
         style="fill:#ffffff;fill-opacity:1;fill-rule:evenodd;stroke:none"
         id="path33118" />
      <path
         inkscape:connector-curvature="0"
         d="m 809.40172,-111.97702 c -10e-5,-14.39361 20.866,-26.04396 46.5706,-26.04396 25.7046,0 46.57071,11.65035 46.57081,26.04396 0,14.393607 -20.86601,26.077827 -46.57061,26.077827 -25.7046,0 -46.5708,-11.68422 -46.5708,-26.077827 z"
         style="fill:none;stroke:#000000;stroke-width:3.25862122;stroke-linecap:round;stroke-linejoin:round;stroke-miterlimit:10;stroke-opacity:1;stroke-dasharray:none"
         id="path33120" />
      <path
         inkscape:connector-curvature="0"
         d="m 37.213786,-201.46476 819.160304,0"
         style="fill:none;stroke:#000000;stroke-width:3.07195473;stroke-linecap:round;stroke-linejoin:round;stroke-miterlimit:10;stroke-opacity:1;stroke-dasharray:none"
         id="path33122" />
      <path
         inkscape:connector-curvature="0"
         d="m 856.3106,-137.95841 -2e-4,-62.99319"
         style="fill:none;stroke:#000000;stroke-width:3.25862122;stroke-linecap:round;stroke-linejoin:round;stroke-miterlimit:10;stroke-opacity:1;stroke-dasharray:none"
         id="path33124" />
      <path
         inkscape:connector-curvature="0"
         d="m 857.22724,-85.228514 1.9e-4,53.107169"
         style="fill:none;stroke:#000000;stroke-width:3.20599318;stroke-linecap:round;stroke-linejoin:round;stroke-miterlimit:10;stroke-opacity:1;stroke-dasharray:none"
         id="path33126" />
      <path
         inkscape:connector-curvature="0"
         d="m 506.75292,-31.437121 350.48385,0"
         style="fill:none;stroke:#000000;stroke-width:3.25158691;stroke-linecap:round;stroke-linejoin:round;stroke-miterlimit:10;stroke-opacity:1;stroke-dasharray:none"
         id="path33128" />
      <path
         inkscape:connector-curvature="0"
         d="m 27.234356,-202.04051 c -2e-5,-3.89474 5.62474,-7.0444 12.58011,-7.0444 6.95536,0 12.58015,3.14966 12.58016,7.0444 2e-5,3.89474 -5.62475,7.0444 -12.58011,7.0444 -6.95536,0 -12.58015,-3.14966 -12.58016,-7.0444 z"
         style="fill:#ffffff;fill-opacity:1;fill-rule:evenodd;stroke:none"
         id="path33130" />
      <path
         inkscape:connector-curvature="0"
         d="m 27.234356,-202.04051 c -2e-5,-3.89474 5.62474,-7.0444 12.58011,-7.0444 6.95536,0 12.58015,3.14966 12.58016,7.0444 2e-5,3.89474 -5.62475,7.0444 -12.58011,7.0444 -6.95536,0 -12.58015,-3.14966 -12.58016,-7.0444 z"
         style="fill:none;stroke:#000000;stroke-width:3.25862122;stroke-linecap:round;stroke-linejoin:round;stroke-miterlimit:10;stroke-opacity:1;stroke-dasharray:none"
         id="path33132" />
      <path
         inkscape:connector-curvature="0"
         d="m 773.53258,-54.674171 -4e-4,-109.730079"
         style="fill:none;stroke:#285ea6;stroke-width:3.25862122;stroke-linecap:round;stroke-linejoin:round;stroke-miterlimit:10;stroke-opacity:1;stroke-dasharray:none"
         id="path33134" />
      <path
         inkscape:connector-curvature="0"
         d="m 784.41878,-164.40425 -10.8867,-20.32038 -14.5155,20.32038 25.4022,0 z"
         style="fill:#285ea6;fill-opacity:1;fill-rule:evenodd;stroke:none"
         id="path33136" />
      <path
         inkscape:connector-curvature="0"
         d="m 69.874476,-6.3890667 83.464374,0"
         style="fill:none;stroke:#688037;stroke-width:3.25862122;stroke-linecap:round;stroke-linejoin:round;stroke-miterlimit:10;stroke-opacity:1;stroke-dasharray:none"
         id="path33138" />
      <path
         inkscape:connector-curvature="0"
         d="m 149.70999,-0.29295673 39.91772,-6.09610997 -39.91777,-8.1281603 5e-5,14.22427027 z"
         style="fill:#688037;fill-opacity:1;fill-rule:evenodd;stroke:none"
         id="path33140" />
      <text
         style="font-size:54.31035233px"
         y="172.21912"
         x="440.73587"
         id="text33142"
         transform="matrix(1.3363515,0,-2.7290952e-6,-0.74830612,0,0)">
        <tspan
           style="font-size:54.31143951px;font-style:italic;font-variant:normal;font-weight:normal;writing-mode:lr-tb;fill:#1f477d;fill-opacity:1;fill-rule:nonzero;stroke:none;font-family:ARIAL;-inkscape-font-specification:ARIAL Italic"
           x="440.73587"
           y="172.21912"
           id="tspan33144">U</tspan>
      </text>
      <text
         style="font-size:54.31035233px"
         y="179.68678"
         x="479.97519"
         id="text33146"
         transform="matrix(1.3363515,0,-2.7290952e-6,-0.74830612,0,0)">
        <tspan
           style="font-size:35.2941246px;font-style:italic;font-variant:normal;font-weight:normal;writing-mode:lr-tb;fill:#1f477d;fill-opacity:1;fill-rule:nonzero;stroke:none;font-family:ARIAL;-inkscape-font-specification:ARIAL Italic"
           x="479.97519"
           y="179.68678"
           id="tspan33148">i</tspan>
      </text>
      <text
         style="font-size:54.31035233px"
         y="172.21912"
         x="487.80484"
         id="text33150"
         transform="matrix(1.3363515,0,-2.7290952e-6,-0.74830612,0,0)">
        <tspan
           style="font-size:54.31143951px;font-style:italic;font-variant:normal;font-weight:normal;writing-mode:lr-tb;fill:#1f477d;fill-opacity:1;fill-rule:nonzero;stroke:none;font-family:ARIAL;-inkscape-font-specification:ARIAL Italic"
           x="487.80484"
           y="172.21912"
           id="tspan33152">~</tspan>
      </text>
      <text
         style="font-size:54.31035233px"
         y="172.21912"
         x="519.53119"
         id="text33154"
         transform="matrix(1.3363515,0,-2.7290952e-6,-0.74830612,0,0)">
        <tspan
           style="font-size:54.31143951px;font-style:italic;font-variant:normal;font-weight:normal;writing-mode:lr-tb;fill:#1f477d;fill-opacity:1;fill-rule:nonzero;stroke:none;font-family:ARIAL;-inkscape-font-specification:ARIAL Italic"
           x="519.53119"
           y="172.21912"
           id="tspan33156">ω</tspan>
      </text>
      <path
         inkscape:connector-curvature="0"
         d="m 593.84614,-43.629351 137.89766,0 9e-5,24.38446 -137.89766,0 -9e-5,-24.38446 z"
         style="fill:#ffffff;fill-opacity:1;fill-rule:evenodd;stroke:none"
         id="path33158" />
      <path
         inkscape:connector-curvature="0"
         d="m 593.84614,-43.629351 137.89766,0 9e-5,24.38446 -137.89766,0 -9e-5,-24.38446 z"
         style="fill:none;stroke:#000000;stroke-width:3.25862122;stroke-linecap:round;stroke-linejoin:round;stroke-miterlimit:10;stroke-opacity:1;stroke-dasharray:none"
         id="path33160" />
      <text
         style="font-size:54.31035233px"
         y="169.78076"
         x="626.13751"
         id="text33162"
         transform="matrix(1.3363515,0,-2.7290952e-6,-0.74830612,0,0)">
        <tspan
           style="font-size:54.31143951px;font-variant:normal;font-weight:normal;writing-mode:lr-tb;fill:#000000;fill-opacity:1;fill-rule:nonzero;stroke:none;font-family:ARIAL;-inkscape-font-specification:ARIAL"
           x="626.13751"
           y="169.78076"
           id="tspan33164">=</tspan>
      </text>
      <path
         inkscape:connector-curvature="0"
         d="m 189.62785,32.219663 -87.09326,0"
         style="fill:none;stroke:#688037;stroke-width:3.25862122;stroke-linecap:round;stroke-linejoin:round;stroke-miterlimit:10;stroke-opacity:1;stroke-dasharray:none"
         id="path33166" />
      <path
         inkscape:connector-curvature="0"
         d="m 106.16345,24.091503 -36.288834,8.12816 36.288884,6.09611 -5e-5,-14.22427 z"
         style="fill:#688037;fill-opacity:1;fill-rule:evenodd;stroke:none"
         id="path33168" />
      <text
         style="font-size:54.31035233px"
         y="-8.3617897"
         x="473.66119"
         id="text33170"
         transform="matrix(1.3363515,0,-2.7290952e-6,-0.74830612,0,0)">
        <tspan
           style="font-size:54.31143951px;font-variant:normal;font-weight:normal;writing-mode:lr-tb;fill:#000000;fill-opacity:1;fill-rule:nonzero;stroke:none;font-family:ARIAL;-inkscape-font-specification:ARIAL"
           x="473.66119"
           y="-8.3617897"
           id="tspan33172">R</tspan>
      </text>
      <text
         style="font-size:54.31035233px"
         y="-0.84888119"
         x="512.90045"
         id="text33174"
         transform="matrix(1.3363515,0,-2.7290952e-6,-0.74830612,0,0)">
        <tspan
           style="font-size:35.2941246px;font-variant:normal;font-weight:normal;writing-mode:lr-tb;fill:#000000;fill-opacity:1;fill-rule:nonzero;stroke:none;font-family:ARIAL;-inkscape-font-specification:ARIAL"
           x="512.90045"
           y="-0.84888119"
           id="tspan33176">i</tspan>
      </text>
      <g
         id="g33178"
         transform="translate(-19.093764,-21.222947)">
        <g
           id="g33180"
           transform="scale(0.27578,0.1547)">
          <g
             id="g33182"
             clip-path="url(#clipPath33184)">
            <g
               id="g33188">
              <g
                 id="g33190"
                 clip-path="url(#clipPath33192)">
                <text
                   transform="matrix(1,0,0,-1,156.47,31.12)"
                   id="text33196">
                  <tspan
                     style="font-size:186.38000488px;font-style:italic;font-variant:normal;font-weight:normal;writing-mode:lr-tb;fill:#000000;fill-opacity:1;fill-rule:nonzero;stroke:none;font-family:Times New Roman;-inkscape-font-specification:'Times New Roman, Italic'"
                     x="0"
                     y="0"
                     id="tspan33198">I</tspan>
                </text>
              </g>
            </g>
            <g
               id="g33200">
              <g
                 id="g33202"
                 clip-path="url(#clipPath33204)">
                <text
                   transform="matrix(1,0,0,-1,154.77,310.62)"
                   id="text33208">
                  <tspan
                     style="font-size:186.38000488px;font-style:italic;font-variant:normal;font-weight:normal;writing-mode:lr-tb;fill:#000000;fill-opacity:1;fill-rule:nonzero;stroke:none;font-family:Times New Roman;-inkscape-font-specification:'Times New Roman, Italic'"
                     x="0"
                     y="0"
                     id="tspan33210">I</tspan>
                </text>
              </g>
            </g>
            <g
               id="g33212">
              <g
                 id="g33214"
                 clip-path="url(#clipPath33216)">
                <text
                   transform="matrix(1,0,0,-1,25.288,31.12)"
                   id="text33220">
                  <tspan
                     style="font-size:186.38000488px;font-variant:normal;font-weight:normal;writing-mode:lr-tb;fill:#000000;fill-opacity:1;fill-rule:nonzero;stroke:none;font-family:SYMBOL;-inkscape-font-specification:SYMBOL"
                     x="0"
                     y="0"
                     id="tspan33222"></tspan>
                </text>
              </g>
            </g>
            <g
               id="g33224">
              <g
                 id="g33226"
                 clip-path="url(#clipPath33228)">
                <text
                   transform="matrix(1,0,0,-1,25.288,310.62)"
                   id="text33232">
                  <tspan
                     style="font-size:186.38000488px;font-variant:normal;font-weight:normal;writing-mode:lr-tb;fill:#000000;fill-opacity:1;fill-rule:nonzero;stroke:none;font-family:SYMBOL;-inkscape-font-specification:SYMBOL"
                     x="0"
                     y="0"
                     id="tspan33234"></tspan>
                </text>
              </g>
            </g>
          </g>
        </g>
      </g>
      <path
         inkscape:connector-curvature="0"
         d="m 223.57498,-31.446042 c -0.78621,12.63251 14.39467,23.2329797 33.93017,23.74099 19.53551,0.508 35.98642,-9.31351 36.77263,-21.91215 0.0605,-0.60961 0.0605,-1.21923 0,-1.82884 -0.78622,12.63251 14.45514,23.2329797 33.93017,23.74099 19.5355,0.508 36.0469,-9.31351 36.83311,-21.91215 0,-0.60961 -1e-5,-1.21923 -1e-5,-1.82884 -0.78621,12.63251 14.39467,23.2329797 33.93017,23.74099 19.5355,0.508 35.98641,-9.31351 36.77262,-21.91215 0,-0.60961 0,-1.21923 0,-1.82884 -0.78622,12.63251 14.39466,23.2329797 33.93017,23.74099 19.5355,0.508 35.98641,-9.31351 36.77263,-21.91215 0.0605,-0.60961 0.0605,-1.21923 -10e-6,-1.82884"
         style="fill:none;stroke:#000000;stroke-width:3.25862122;stroke-linecap:round;stroke-linejoin:round;stroke-miterlimit:10;stroke-opacity:1;stroke-dasharray:none"
         id="path33236" />
      <path
         inkscape:connector-curvature="0"
         d="m 33.585516,-32.805567 190.396284,0"
         style="fill:none;stroke:#000000;stroke-width:2.63895178;stroke-linecap:round;stroke-linejoin:round;stroke-miterlimit:10;stroke-opacity:1;stroke-dasharray:none"
         id="path33238" />
      <path
         inkscape:connector-curvature="0"
         d="m 26.630156,-33.381317 c -2e-5,-3.89474 5.62474,-7.0444 12.58011,-7.0444 6.95536,0 12.58015,3.14966 12.58016,7.0444 2e-5,3.89474 -5.62474,7.0444 -12.58011,7.0444 -6.95536,0 -12.58015,-3.14966 -12.58016,-7.0444 z"
         style="fill:#ffffff;fill-opacity:1;fill-rule:evenodd;stroke:none"
         id="path33240" />
      <path
         inkscape:connector-curvature="0"
         d="m 26.630156,-33.381317 c -2e-5,-3.89474 5.62474,-7.0444 12.58011,-7.0444 6.95536,0 12.58015,3.14966 12.58016,7.0444 2e-5,3.89474 -5.62474,7.0444 -12.58011,7.0444 -6.95536,0 -12.58015,-3.14966 -12.58016,-7.0444 z"
         style="fill:none;stroke:#000000;stroke-width:3.25862122;stroke-linecap:round;stroke-linejoin:round;stroke-miterlimit:10;stroke-opacity:1;stroke-dasharray:none"
         id="path33242" />
      <text
         style="font-size:54.31035233px"
         y="-9.2550449"
         x="269.08923"
         id="text33244"
         transform="matrix(1.3363515,0,-2.7290952e-6,-0.74830612,0,0)">
        <tspan
           style="font-size:54.31143951px;font-variant:normal;font-weight:normal;writing-mode:lr-tb;fill:#000000;fill-opacity:1;fill-rule:nonzero;stroke:none;font-family:ARIAL;-inkscape-font-specification:ARIAL"
           x="269.08923"
           y="-9.2550449"
           id="tspan33246">L</tspan>
      </text>
    </g>
  </g>
</svg>
