<?xml version="1.0" encoding="UTF-8" standalone="no"?>
<!-- Created with Inkscape (http://www.inkscape.org/) -->

<svg
   xmlns:dc="http://purl.org/dc/elements/1.1/"
   xmlns:cc="http://creativecommons.org/ns#"
   xmlns:rdf="http://www.w3.org/1999/02/22-rdf-syntax-ns#"
   xmlns:svg="http://www.w3.org/2000/svg"
   xmlns="http://www.w3.org/2000/svg"
   xmlns:sodipodi="http://sodipodi.sourceforge.net/DTD/sodipodi-0.dtd"
   xmlns:inkscape="http://www.inkscape.org/namespaces/inkscape"
   id="svg2"
   version="1.1"
   inkscape:version="0.48.0 r9654"
   width="680"
   height="800"
   xml:space="preserve"
   sodipodi:docname="patocka_stabilizator_ZD_VA.svg"><metadata
     id="metadata8"><rdf:RDF><cc:Work
         rdf:about=""><dc:format>image/svg+xml</dc:format><dc:type
           rdf:resource="http://purl.org/dc/dcmitype/StillImage" /><dc:title></dc:title></cc:Work></rdf:RDF></metadata><defs
     id="defs6" /><sodipodi:namedview
     pagecolor="#ffffff"
     bordercolor="#666666"
     borderopacity="1"
     objecttolerance="10"
     gridtolerance="10"
     guidetolerance="10"
     inkscape:pageopacity="0"
     inkscape:pageshadow="2"
     inkscape:window-width="1920"
     inkscape:window-height="1125"
     id="namedview4"
     showgrid="false"
     inkscape:zoom="2.42"
     inkscape:cx="362.63353"
     inkscape:cy="569.93316"
     inkscape:window-x="-9"
     inkscape:window-y="-9"
     inkscape:window-maximized="1"
     inkscape:current-layer="g12" /><g
     id="g10"
     inkscape:groupmode="layer"
     inkscape:label="patocka_stabilizator_ZD_VA"
     transform="matrix(1.25,0,0,-1.25,0,800)"><g
       id="g12"><g
   id="g14"
   transform="matrix(1,0,0,-1,0,640)"><path
     d="M 464,633.938 C 463.992,432.527 464.066,201.637 463.988,15.75"
     style="fill:none;stroke:#000000;stroke-opacity:1;stroke-width:2.48388;stroke-linecap:butt;stroke-linejoin:miter;stroke-miterlimit:4;stroke-dasharray:none"
     id="path16" /></g><g
   id="g18"
   transform="matrix(1,0,0,-1,0,640)"><path
     d="m 36.359,270.695 487.364,-0.086"
     style="fill:none;stroke:#000000;stroke-opacity:1;stroke-width:2.599491;stroke-linecap:butt;stroke-linejoin:miter;stroke-miterlimit:4;stroke-dasharray:none"
     id="path20" /></g><g
   id="g22"
   transform="matrix(1,0,0,-1,0,640)"><path
     d="m 84.27,213.41 381.757,-0.371"
     style="fill:none;stroke:#000000;stroke-opacity:1;stroke-width:1.6;stroke-linecap:butt;stroke-linejoin:miter;stroke-miterlimit:4;stroke-dasharray:none"
     id="path24" /></g><g
   id="g26"
   transform="matrix(1,0,0,-1,0,640)"><path
     d="m 81.414,147.328 381.754,0.363"
     style="fill:none;stroke:#000000;stroke-opacity:1;stroke-width:1.6;stroke-linecap:butt;stroke-linejoin:miter;stroke-miterlimit:4;stroke-dasharray:none"
     id="path28" /></g><g
   id="g30"
   transform="matrix(1,0,0,-1,0,640)"><path
     d="m 82.559,84.754 381.179,0.367"
     style="fill:none;stroke:#000000;stroke-opacity:1;stroke-width:1.6;stroke-linecap:butt;stroke-linejoin:miter;stroke-miterlimit:4;stroke-dasharray:none"
     id="path32" /></g><g
   id="g34"
   transform="matrix(1,0,0,-1,0,640)"><path
     d="M 263.148,84.652 464.293,270.938"
     style="fill:none;stroke:#969696;stroke-opacity:1;stroke-width:1.6;stroke-linecap:butt;stroke-linejoin:miter;stroke-miterlimit:4;stroke-dasharray:none"
     id="path36" /></g><g
   id="g38"
   transform="matrix(1,0,0,-1,0,640)"><path
     d="m 261.434,145.797 202.05,124.801"
     style="fill:none;stroke:#969696;stroke-opacity:1;stroke-width:1.6;stroke-linecap:butt;stroke-linejoin:miter;stroke-miterlimit:4;stroke-dasharray:none"
     id="path40" /></g><g
   id="g42"
   transform="matrix(1,0,0,-1,0,640)"><path
     d="m 261.578,213.652 201.668,57.114"
     style="fill:none;stroke:#969696;stroke-opacity:1;stroke-width:1.6;stroke-linecap:butt;stroke-linejoin:miter;stroke-miterlimit:4;stroke-dasharray:none"
     id="path44" /></g><g
   id="g46"
   transform="matrix(1,0,0,-1,0,640)"><path
     d="m 82.25,82.367 0.082,130.696"
     style="fill:none;stroke:#000000;stroke-opacity:1;stroke-width:1.616762;stroke-linecap:butt;stroke-linejoin:miter;stroke-miterlimit:4;stroke-dasharray:none"
     id="path48" /></g><g
   id="g50"
   transform="matrix(1,0,0,-1,0,640)"><path
     d="m 151.418,84.082 0.031,129.008"
     style="fill:none;stroke:#000000;stroke-opacity:1;stroke-width:1.61716;stroke-linecap:butt;stroke-linejoin:miter;stroke-miterlimit:4;stroke-dasharray:none"
     id="path52" /></g><g
   id="g54"
   transform="matrix(1,0,0,-1,0,640)"><path
     d="m 213.984,83.508 0.043,129.148"
     style="fill:none;stroke:#000000;stroke-opacity:1;stroke-width:1.6;stroke-linecap:butt;stroke-linejoin:miter;stroke-miterlimit:4;stroke-dasharray:none"
     id="path56" /></g><g
   id="g58"
   transform="matrix(1,0,0,-1,0,640)"><path
     d="m 262.148,84.367 0.571,326.145"
     style="fill:none;stroke:#000000;stroke-opacity:1;stroke-width:1.603874;stroke-linecap:butt;stroke-linejoin:miter;stroke-miterlimit:4;stroke-dasharray:none"
     id="path60" /></g><g
   id="g62"
   transform="matrix(1,0,0,-1,0,640)"><path
     d="m 248.117,269.93 0.207,259.652"
     style="fill:#da0000;fill-opacity:1;fill-rule:nonzero;stroke:#f00000;stroke-opacity:1;stroke-width:1.606402;stroke-linecap:butt;stroke-linejoin:miter;stroke-miterlimit:4;stroke-dasharray:none"
     id="path64" /></g><g
   id="g66"
   transform="matrix(1,0,0,-1,0,640)"><path
     d="M 82.863,147.652 248.578,529.938"
     style="fill:none;stroke:#000000;stroke-opacity:1;stroke-width:0.8;stroke-linecap:butt;stroke-linejoin:miter;stroke-miterlimit:4;stroke-dasharray:none"
     id="path68" /></g><g
   id="g70"
   transform="matrix(1,0,0,-1,0,640)"><path
     d="m 151.434,213.938 104.285,249"
     style="fill:none;stroke:#000000;stroke-opacity:1;stroke-width:0.8;stroke-linecap:butt;stroke-linejoin:miter;stroke-miterlimit:4;stroke-dasharray:none"
     id="path72" /></g><g
   id="g74"
   transform="matrix(1,0,0,-1,0,640)"><path
     d="M 151.582,146.227 262.785,411.313"
     style="fill:none;stroke:#000000;stroke-opacity:1;stroke-width:0.8;stroke-linecap:butt;stroke-linejoin:miter;stroke-miterlimit:4;stroke-dasharray:none"
     id="path76" /></g><g
   id="g78"
   transform="matrix(1,0,0,-1,0,640)"><path
     d="M 152.055,83.574 267.078,367.082"
     style="fill:none;stroke:#000000;stroke-opacity:1;stroke-width:0.8;stroke-linecap:butt;stroke-linejoin:miter;stroke-miterlimit:4;stroke-dasharray:none"
     id="path80" /></g><g
   id="g82"
   transform="matrix(1,0,0,-1,0,640)"><path
     d="m 213.863,146.938 63.063,149.109"
     style="fill:none;stroke:#834b21;stroke-opacity:0.561837;stroke-width:0.8;stroke-linecap:butt;stroke-linejoin:miter;stroke-miterlimit:4;stroke-dasharray:none"
     id="path84" /></g><g
   id="g86"
   transform="matrix(1,0,0,-1,0,640)"><path
     d="M 82.797,214.379 240.863,578.367"
     style="fill:none;stroke:#000000;stroke-opacity:1;stroke-width:0.8;stroke-linecap:butt;stroke-linejoin:miter;stroke-miterlimit:4;stroke-dasharray:6.4,6.4;stroke-dashoffset:0"
     id="path88" /></g><g
   id="g90"
   transform="matrix(1,0,0,-1,0,640)"><path
     d="m 278.844,296.867 187.433,0.317"
     style="fill:none;stroke:#000000;stroke-opacity:1;stroke-width:0.8;stroke-linecap:butt;stroke-linejoin:miter;stroke-miterlimit:4;stroke-dasharray:4.8,4.8;stroke-dashoffset:0"
     id="path92" /></g><g
   id="g94"
   transform="matrix(1,0,0,-1,0,640)"><path
     d="m 261.703,411.668 203.809,-0.527"
     style="fill:none;stroke:#000000;stroke-opacity:1;stroke-width:0.58718;stroke-linecap:butt;stroke-linejoin:miter;stroke-miterlimit:4;stroke-dasharray:3.523082,3.523082;stroke-dashoffset:0"
     id="path96" /></g><g
   id="g98"
   transform="matrix(1,0,0,-1,0,640)"><path
     d="m 245.934,530.813 217.793,0.253"
     style="fill:none;stroke:#000000;stroke-opacity:1;stroke-width:0.802228;stroke-linecap:butt;stroke-linejoin:miter;stroke-miterlimit:4;stroke-dasharray:4.813369,4.813369;stroke-dashoffset:0"
     id="path100" /></g><g
   id="g102"
   transform="matrix(1,0,0,-1,0,640)"><path
     d="m 214.039,84.313 81.109,164.91"
     style="fill:none;stroke:#000000;stroke-opacity:1;stroke-width:0.8;stroke-linecap:butt;stroke-linejoin:miter;stroke-miterlimit:4;stroke-dasharray:4.8,4.8;stroke-dashoffset:0"
     id="path104" /></g><g
   id="g106"
   transform="matrix(1,0,0,-1,0,640)"><path
     d="m 166.004,502.367 c 10.105,2.313 23.297,2.168 37.426,6.305 13.855,4.058 28.617,12.348 42.254,20.117 25.644,14.621 47.039,38.563 57.894,49.863 16.535,17.215 24.047,30.641 31.57,39"
     style="fill:none;stroke:#b10000;stroke-opacity:1;stroke-width:2.4;stroke-linecap:butt;stroke-linejoin:miter;stroke-miterlimit:4;stroke-dasharray:none"
     id="path108" /></g><g
   id="g110"
   transform="matrix(1,0,0,-1,0,640)"><path
     d="m 463.281,273.148 c -29.84,-0.261 -79.211,0.012 -115.785,-0.171 -11.742,-0.063 -27.469,-0.094 -39.652,-0.032 -13.289,0.067 -18.781,1.395 -25.203,7.34 -4.7,4.352 -4.473,6.594 -6.77,17.981 -0.469,2.336 -2.012,13.136 -2.32,15.554 -1.918,14.961 -6.996,59.555 -8.891,76.469 -1.894,16.914 -4.133,37.633 -6.062,54.852 -4.871,43.543 -12.231,100.769 -17.676,145.261"
     style="fill:none;stroke:#0000e3;stroke-opacity:1;stroke-width:2.4;stroke-linecap:butt;stroke-linejoin:miter;stroke-miterlimit:4;stroke-dasharray:none"
     id="path112" /></g><g
   id="g114"
   transform="matrix(1,0,0,-1,0,640)"><path
     d="m 250.934,530.367 c 0,1.301 -1.055,2.356 -2.356,2.356 -1.305,0 -2.359,-1.055 -2.359,-2.356 0,-1.301 1.054,-2.355 2.359,-2.355 1.301,0 2.356,1.054 2.356,2.355 z"
     style="fill:#0e0000;fill-opacity:1;fill-rule:nonzero;stroke:#000000;stroke-opacity:1;stroke-width:2.4;stroke-linecap:butt;stroke-linejoin:miter;stroke-miterlimit:4;stroke-dasharray:none"
     id="path116" /></g><g
   id="g118"
   transform="matrix(1,0,0,-1,0,640)"><path
     d="m 259.004,464.582 c 0,1.301 -1.055,2.356 -2.356,2.356 -1.3,0 -2.355,-1.055 -2.355,-2.356 0,-1.301 1.055,-2.359 2.355,-2.359 1.301,0 2.356,1.058 2.356,2.359 z"
     style="fill:#0e0000;fill-opacity:1;fill-rule:nonzero;stroke:#000000;stroke-opacity:1;stroke-width:2.4;stroke-linecap:butt;stroke-linejoin:miter;stroke-miterlimit:4;stroke-dasharray:none"
     id="path120" /></g><g
   id="g122"
   transform="matrix(1,0,0,-1,0,640)"><path
     d="m 264.863,410.152 c 0,1.301 -1.054,2.36 -2.359,2.36 -1.301,0 -2.356,-1.059 -2.356,-2.36 0,-1.3 1.055,-2.355 2.356,-2.355 1.305,0 2.359,1.055 2.359,2.355 z"
     style="fill:#0e0000;fill-opacity:1;fill-rule:nonzero;stroke:#000000;stroke-opacity:1;stroke-width:2.4;stroke-linecap:butt;stroke-linejoin:miter;stroke-miterlimit:4;stroke-dasharray:none"
     id="path124" /></g><g
   id="g126"
   transform="matrix(1,0,0,-1,0,640)"><path
     d="m 269.934,366.938 c 0,1.3 -1.055,2.359 -2.356,2.359 -1.305,0 -2.359,-1.059 -2.359,-2.359 0,-1.301 1.054,-2.356 2.359,-2.356 1.301,0 2.356,1.055 2.356,2.356 z"
     style="fill:#0e0000;fill-opacity:1;fill-rule:nonzero;stroke:#000000;stroke-opacity:1;stroke-width:2.4;stroke-linecap:butt;stroke-linejoin:miter;stroke-miterlimit:4;stroke-dasharray:none"
     id="path128" /></g><g
   id="g130"
   transform="matrix(1,0,0,-1,0,640)"><path
     d="m 278.934,296.512 c 0,1.301 -1.055,2.355 -2.356,2.355 -1.305,0 -2.359,-1.054 -2.359,-2.355 0,-1.305 1.054,-2.36 2.359,-2.36 1.301,0 2.356,1.055 2.356,2.36 z"
     style="fill:#00aeaa;fill-opacity:1;fill-rule:nonzero;stroke:#00aeaa;stroke-opacity:1;stroke-width:2.4;stroke-linecap:butt;stroke-linejoin:miter;stroke-miterlimit:4;stroke-dasharray:none"
     id="path132" /></g><g
   id="g134"
   transform="matrix(1,0,0,-1,0,640)"><path
     d="m 278.934,270.148 c 0,1.301 -1.055,2.356 -2.36,2.356 -1.301,0 -2.355,-1.055 -2.355,-2.356 0,-1.3 1.054,-2.359 2.355,-2.359 1.305,0 2.36,1.059 2.36,2.359 z"
     style="fill:#00aeaa;fill-opacity:1;fill-rule:nonzero;stroke:#00aeaa;stroke-opacity:1;stroke-width:2.4;stroke-linecap:butt;stroke-linejoin:miter;stroke-miterlimit:4;stroke-dasharray:none"
     id="path136" /></g><g
   id="g138"
   transform="matrix(1,0,0,-1,0,640)"><path
     d="m 250.363,270.367 c 0,1.301 -1.054,2.356 -2.359,2.356 -1.301,0 -2.356,-1.055 -2.356,-2.356 0,-1.301 1.055,-2.355 2.356,-2.355 1.305,0 2.359,1.054 2.359,2.355 z"
     style="fill:#e10000;fill-opacity:1;fill-rule:nonzero;stroke:#da0000;stroke-opacity:1;stroke-width:2.4;stroke-linecap:butt;stroke-linejoin:miter;stroke-miterlimit:4;stroke-dasharray:none"
     id="path140" /></g><g
   id="g142"
   transform="matrix(1,0,0,-1,0,640)"><path
     d="m 264.648,270.367 c 0,1.301 -1.054,2.356 -2.355,2.356 -1.305,0 -2.359,-1.055 -2.359,-2.356 0,-1.301 1.054,-2.355 2.359,-2.355 1.301,0 2.355,1.054 2.355,2.355 z"
     style="fill:#0e0000;fill-opacity:1;fill-rule:nonzero;stroke:#000000;stroke-opacity:1;stroke-width:2.4;stroke-linecap:butt;stroke-linejoin:miter;stroke-miterlimit:4;stroke-dasharray:none"
     id="path144" /></g><g
   id="g146"
   transform="matrix(1,0,0,-1,0,640)"><path
     d="m 263.793,213.223 c 0,1.304 -1.059,2.359 -2.359,2.359 -1.301,0 -2.356,-1.055 -2.356,-2.359 0,-1.301 1.055,-2.356 2.356,-2.356 1.3,0 2.359,1.055 2.359,2.356 z"
     style="fill:#0e0000;fill-opacity:1;fill-rule:nonzero;stroke:#000000;stroke-opacity:1;stroke-width:2.4;stroke-linecap:butt;stroke-linejoin:miter;stroke-miterlimit:4;stroke-dasharray:none"
     id="path148" /></g><g
   id="g150"
   transform="matrix(1,0,0,-1,0,640)"><path
     d="m 264.648,146.797 c 0,1.301 -1.054,2.355 -2.355,2.355 -1.305,0 -2.359,-1.054 -2.359,-2.355 0,-1.305 1.054,-2.359 2.359,-2.359 1.301,0 2.355,1.054 2.355,2.359 z"
     style="fill:#0e0000;fill-opacity:1;fill-rule:nonzero;stroke:#000000;stroke-opacity:1;stroke-width:2.4;stroke-linecap:butt;stroke-linejoin:miter;stroke-miterlimit:4;stroke-dasharray:none"
     id="path152" /></g><g
   id="g154"
   transform="matrix(1,0,0,-1,0,640)"><path
     d="m 216.504,213.223 c 0,1.304 -1.055,2.359 -2.356,2.359 -1.3,0 -2.355,-1.055 -2.355,-2.359 0,-1.301 1.055,-2.356 2.355,-2.356 1.301,0 2.356,1.055 2.356,2.356 z"
     style="fill:#0e0000;fill-opacity:1;fill-rule:nonzero;stroke:#000000;stroke-opacity:1;stroke-width:2.4;stroke-linecap:butt;stroke-linejoin:miter;stroke-miterlimit:4;stroke-dasharray:none"
     id="path156" /></g><g
   id="g158"
   transform="matrix(1,0,0,-1,0,640)"><path
     d="m 216.504,146.938 c 0,1.3 -1.055,2.359 -2.356,2.359 -1.3,0 -2.355,-1.059 -2.355,-2.359 0,-1.301 1.055,-2.356 2.355,-2.356 1.301,0 2.356,1.055 2.356,2.356 z"
     style="fill:#0e0000;fill-opacity:1;fill-rule:nonzero;stroke:#000000;stroke-opacity:1;stroke-width:2.4;stroke-linecap:butt;stroke-linejoin:miter;stroke-miterlimit:4;stroke-dasharray:none"
     id="path160" /></g><g
   id="g162"
   transform="matrix(1,0,0,-1,0,640)"><path
     d="m 153.934,146.223 c 0,1.304 -1.055,2.359 -2.356,2.359 -1.305,0 -2.359,-1.055 -2.359,-2.359 0,-1.301 1.054,-2.356 2.359,-2.356 1.301,0 2.356,1.055 2.356,2.356 z"
     style="fill:#0e0000;fill-opacity:1;fill-rule:nonzero;stroke:#000000;stroke-opacity:1;stroke-width:2.4;stroke-linecap:butt;stroke-linejoin:miter;stroke-miterlimit:4;stroke-dasharray:none"
     id="path164" /></g><g
   id="g166"
   transform="matrix(1,0,0,-1,0,640)"><path
     d="m 84.504,146.512 c 0,1.301 -1.055,2.355 -2.356,2.355 -1.3,0 -2.355,-1.054 -2.355,-2.355 0,-1.305 1.055,-2.36 2.355,-2.36 1.301,0 2.356,1.055 2.356,2.36 z"
     style="fill:#0e0000;fill-opacity:1;fill-rule:nonzero;stroke:#000000;stroke-opacity:1;stroke-width:2.4;stroke-linecap:butt;stroke-linejoin:miter;stroke-miterlimit:4;stroke-dasharray:none"
     id="path168" /></g><g
   id="g170"
   transform="matrix(1,0,0,-1,0,640)"><path
     d="m 84.445,212.504 c 0,1.305 -1.054,2.359 -2.355,2.359 -1.301,0 -2.36,-1.054 -2.36,-2.359 0,-1.301 1.059,-2.356 2.36,-2.356 1.301,0 2.355,1.055 2.355,2.356 z"
     style="fill:#0e0000;fill-opacity:1;fill-rule:nonzero;stroke:#000000;stroke-opacity:1;stroke-width:2.4;stroke-linecap:butt;stroke-linejoin:miter;stroke-miterlimit:4;stroke-dasharray:none"
     id="path172" /></g><g
   id="g174"
   transform="matrix(1,0,0,-1,0,640)"><path
     d="m 84.219,84.223 c 0,1.304 -1.055,2.359 -2.356,2.359 -1.3,0 -2.359,-1.055 -2.359,-2.359 0,-1.301 1.059,-2.356 2.359,-2.356 1.301,0 2.356,1.055 2.356,2.356 z"
     style="fill:#0e0000;fill-opacity:1;fill-rule:nonzero;stroke:#000000;stroke-opacity:1;stroke-width:2.4;stroke-linecap:butt;stroke-linejoin:miter;stroke-miterlimit:4;stroke-dasharray:none"
     id="path176" /></g><g
   id="g178"
   transform="matrix(1,0,0,-1,0,640)"><path
     d="m 154.094,83.367 c 0,1.301 -1.055,2.356 -2.356,2.356 -1.304,0 -2.359,-1.055 -2.359,-2.356 0,-1.301 1.055,-2.355 2.359,-2.355 1.301,0 2.356,1.054 2.356,2.355 z"
     style="fill:#0e0000;fill-opacity:1;fill-rule:nonzero;stroke:#000000;stroke-opacity:1;stroke-width:2.4;stroke-linecap:butt;stroke-linejoin:miter;stroke-miterlimit:4;stroke-dasharray:none"
     id="path180" /></g><g
   id="g182"
   transform="matrix(1,0,0,-1,0,640)"><path
     d="m 216.211,84.711 c 0,1.301 -1.055,2.359 -2.359,2.359 -1.301,0 -2.356,-1.058 -2.356,-2.359 0,-1.301 1.055,-2.356 2.356,-2.356 1.304,0 2.359,1.055 2.359,2.356 z"
     style="fill:#0e0000;fill-opacity:1;fill-rule:nonzero;stroke:#000000;stroke-opacity:1;stroke-width:2.4;stroke-linecap:butt;stroke-linejoin:miter;stroke-miterlimit:4;stroke-dasharray:none"
     id="path184" /></g><g
   id="g186"
   transform="matrix(1,0,0,-1,0,640)"><path
     d="m 264.934,84.512 c 0,1.301 -1.055,2.355 -2.356,2.355 -1.305,0 -2.359,-1.054 -2.359,-2.355 0,-1.305 1.054,-2.36 2.359,-2.36 1.301,0 2.356,1.055 2.356,2.36 z"
     style="fill:#0e0000;fill-opacity:1;fill-rule:nonzero;stroke:#000000;stroke-opacity:1;stroke-width:2.4;stroke-linecap:butt;stroke-linejoin:miter;stroke-miterlimit:4;stroke-dasharray:none"
     id="path188" /></g><g
   id="g190"
   transform="matrix(1,0,0,-1,-1.7249149,640)"><path
     d="m 467.945,531.355 c 0,1.305 -1.054,2.36 -2.359,2.36 -1.301,0 -2.356,-1.055 -2.356,-2.36 0,-1.3 1.055,-2.355 2.356,-2.355 1.305,0 2.359,1.055 2.359,2.355 z"
     style="fill:#0e0000;fill-opacity:1;fill-rule:nonzero;stroke:#000000;stroke-width:2.4000001;stroke-linecap:butt;stroke-linejoin:miter;stroke-miterlimit:4;stroke-opacity:1;stroke-dasharray:none"
     id="path192"
     inkscape:connector-curvature="0" /></g><g
   id="g194"
   transform="matrix(1,0,0,-1,0,640)"><path
     d="m 466.363,411.223 c 0,1.304 -1.054,2.359 -2.359,2.359 -1.301,0 -2.356,-1.055 -2.356,-2.359 0,-1.301 1.055,-2.356 2.356,-2.356 1.305,0 2.359,1.055 2.359,2.356 z"
     style="fill:#0e0000;fill-opacity:1;fill-rule:nonzero;stroke:#000000;stroke-opacity:1;stroke-width:2.4;stroke-linecap:butt;stroke-linejoin:miter;stroke-miterlimit:4;stroke-dasharray:none"
     id="path196" /></g><g
   id="g198"
   transform="matrix(1,0,0,-1,-0.49586778,641.32232)"><path
     d="m 467.121,298.137 c 0,1.301 -1.055,2.355 -2.355,2.355 -1.305,0 -2.36,-1.054 -2.36,-2.355 0,-1.301 1.055,-2.36 2.36,-2.36 1.3,0 2.355,1.059 2.355,2.36 z"
     style="fill:#0e0000;fill-opacity:1;fill-rule:nonzero;stroke:#000000;stroke-width:2.4000001;stroke-linecap:butt;stroke-linejoin:miter;stroke-miterlimit:4;stroke-opacity:1;stroke-dasharray:none"
     id="path200"
     inkscape:connector-curvature="0" /></g><g
   id="g202"
   transform="matrix(1,0,0,-1,0,640)"><path
     d="m 466.684,213.289 c 0,1.301 -1.055,2.356 -2.36,2.356 -1.301,0 -2.355,-1.055 -2.355,-2.356 0,-1.305 1.054,-2.359 2.355,-2.359 1.305,0 2.36,1.054 2.36,2.359 z"
     style="fill:#0e0000;fill-opacity:1;fill-rule:nonzero;stroke:#000000;stroke-opacity:1;stroke-width:2.4;stroke-linecap:butt;stroke-linejoin:miter;stroke-miterlimit:4;stroke-dasharray:none"
     id="path204" /></g><g
   id="g206"
   transform="matrix(1,0,0,-1,0,640)"><path
     d="m 466.48,147.824 c 0,1.301 -1.054,2.356 -2.355,2.356 -1.305,0 -2.359,-1.055 -2.359,-2.356 0,-1.301 1.054,-2.355 2.359,-2.355 1.301,0 2.355,1.054 2.355,2.355 z"
     style="fill:#0e0000;fill-opacity:1;fill-rule:nonzero;stroke:#000000;stroke-opacity:1;stroke-width:2.4;stroke-linecap:butt;stroke-linejoin:miter;stroke-miterlimit:4;stroke-dasharray:none"
     id="path208" /></g><g
   id="g210"
   transform="matrix(1,0,0,-1,0,640)"><path
     d="m 466.48,85.93 c 0,1.3 -1.054,2.355 -2.355,2.355 -1.305,0 -2.359,-1.055 -2.359,-2.355 0,-1.305 1.054,-2.36 2.359,-2.36 1.301,0 2.355,1.055 2.355,2.36 z"
     style="fill:#0e0000;fill-opacity:1;fill-rule:nonzero;stroke:#000000;stroke-opacity:1;stroke-width:2.4;stroke-linecap:butt;stroke-linejoin:miter;stroke-miterlimit:4;stroke-dasharray:none"
     id="path212" /></g><g
   id="g214"
   transform="matrix(1,0,0,-1,0,640)"><path
     d="m 153.793,213.082 c 0,1.301 -1.059,2.356 -2.359,2.356 -1.301,0 -2.356,-1.055 -2.356,-2.356 0,-1.301 1.055,-2.359 2.356,-2.359 1.3,0 2.359,1.058 2.359,2.359 z"
     style="fill:#0e0000;fill-opacity:1;fill-rule:nonzero;stroke:#000000;stroke-opacity:1;stroke-width:2.4;stroke-linecap:butt;stroke-linejoin:miter;stroke-miterlimit:4;stroke-dasharray:none"
     id="path216" /></g><g
   id="g218"
   transform="matrix(1,0,0,-1,0,640)"><path
     d="m 276.512,270.156 0.035,26.367"
     style="fill:#00aeaa;fill-opacity:1;fill-rule:nonzero;stroke:#00aeaa;stroke-opacity:1;stroke-width:1.6;stroke-linecap:butt;stroke-linejoin:miter;stroke-miterlimit:4;stroke-dasharray:none"
     id="path220" /></g><g
   id="g234"
   transform="matrix(1,0,0,-1,0,640)"><path
     d="m 303.434,265.512 10.57,21.855"
     style="fill:none;stroke:#000000;stroke-opacity:1;stroke-width:0.8;stroke-linecap:butt;stroke-linejoin:miter;stroke-miterlimit:4;stroke-dasharray:4.8,4.8;stroke-dashoffset:0"
     id="path236" /></g><text
   transform="scale(1,-1)"
   id="text238"
   x="478.08542"
   y="-9.2954655"><tspan
     style="font-size:32px;font-variant:normal;writing-mode:lr-tb;fill:#000000;fill-opacity:1;fill-rule:nonzero;stroke:none;font-family:CairoFont-0;-inkscape-font-specification:CairoFont-0-0"
     x="478.08542"
     y="-9.2954655"
     id="tspan240">I</tspan></text>

<text
   transform="scale(1,-1)"
   id="text242"
   x="486.39792"
   y="-2.895462"><tspan
     style="font-size:20.80029297px;font-variant:normal;writing-mode:lr-tb;fill:#000000;fill-opacity:1;fill-rule:nonzero;stroke:none;font-family:CairoFont-0;-inkscape-font-specification:CairoFont-0-0"
     x="486.39792"
     y="-2.895462"
     id="tspan244">Z</tspan></text>

<text
   transform="matrix(1,0,0,-1,478.8123,98.994971)"
   id="text246"><tspan
     style="fill:#000000;fill-opacity:1;fill-rule:nonzero;stroke:none;font-family:CairoFont-0;font-variant:normal;font-size:32;writing-mode:lr;-inkscape-font-specification:CairoFont-0-0"
     x="0"
     y="0"
     id="tspan248">I</tspan></text>

<text
   transform="matrix(1,0,0,-1,487.3123,92.594971)"
   id="text250"><tspan
     style="font-size:20.80029297px;font-variant:normal;writing-mode:lr-tb;fill:#000000;fill-opacity:1;fill-rule:nonzero;stroke:none;font-family:CairoFont-0;-inkscape-font-specification:CairoFont-0-0"
     x="0 11.273759 29.07881 40.35257"
     sodipodi:role="line"
     id="tspan252"
     y="0">Zmax</tspan></text>

<text
   transform="matrix(1,0,0,-1,482.85293,218.19294)"
   id="text254"><tspan
     style="fill:#000000;fill-opacity:1;fill-rule:nonzero;stroke:none;font-family:CairoFont-0;font-variant:normal;font-size:32;writing-mode:lr;-inkscape-font-specification:CairoFont-0-0"
     x="0"
     y="0"
     id="tspan256">I</tspan></text>

<text
   transform="matrix(1,0,0,-1,491.35293,211.79294)"
   id="text258"><tspan
     style="font-size:20.80029297px;font-variant:normal;writing-mode:lr-tb;fill:#000000;fill-opacity:1;fill-rule:nonzero;stroke:none;font-family:CairoFont-0;-inkscape-font-specification:CairoFont-0-0"
     x="0"
     y="0"
     id="tspan260">Z</tspan></text>

<text
   transform="matrix(1,0,0,-1,477.60015,333.35034)"
   id="text262"><tspan
     style="fill:#000000;fill-opacity:1;fill-rule:nonzero;stroke:none;font-family:CairoFont-0;font-variant:normal;font-size:32;writing-mode:lr;-inkscape-font-specification:CairoFont-0-0"
     x="0"
     y="0"
     id="tspan264">I</tspan></text>

<text
   transform="matrix(1,0,0,-1,486.10015,326.95034)"
   id="text266"><tspan
     style="font-size:20.80029297px;font-variant:normal;writing-mode:lr-tb;fill:#000000;fill-opacity:1;fill-rule:nonzero;stroke:none;font-family:CairoFont-0;-inkscape-font-specification:CairoFont-0-0"
     x="0 11.273759 29.07881 34.466087"
     y="0"
     sodipodi:role="line"
     id="tspan268">Zmin</tspan></text>

<text
   transform="matrix(1,0,0,-1,475.98389,420.62751)"
   id="text270"><tspan
     style="fill:#000000;fill-opacity:1;fill-rule:nonzero;stroke:none;font-family:CairoFont-0;font-variant:normal;font-size:32;writing-mode:lr;-inkscape-font-specification:CairoFont-0-0"
     x="0"
     y="0"
     id="tspan272">I</tspan></text>

<text
   transform="matrix(1,0,0,-1,484.48389,414.22751)"
   id="text274"><tspan
     style="font-size:20.80029297px;font-variant:normal;writing-mode:lr-tb;fill:#000000;fill-opacity:1;fill-rule:nonzero;stroke:none;font-family:CairoFont-0;-inkscape-font-specification:CairoFont-0-0"
     x="0 11.211358 29.037209 34.403687"
     y="0"
     sodipodi:role="line"
     id="tspan276">Lmin</tspan></text>

<text
   transform="matrix(1,0,0,-1,478.40825,485.27728)"
   id="text278"><tspan
     style="fill:#000000;fill-opacity:1;fill-rule:nonzero;stroke:none;font-family:CairoFont-0;font-variant:normal;font-size:32;writing-mode:lr;-inkscape-font-specification:CairoFont-0-0"
     x="0"
     y="0"
     id="tspan280">I</tspan></text>

<text
   transform="matrix(1,0,0,-1,486.90825,478.87728)"
   id="text282"><tspan
     style="font-size:20.80029297px;font-variant:normal;writing-mode:lr-tb;fill:#000000;fill-opacity:1;fill-rule:nonzero;stroke:none;font-family:CairoFont-0;-inkscape-font-specification:CairoFont-0-0"
     x="0"
     y="0"
     id="tspan284">L</tspan></text>

<text
   transform="matrix(1,0,0,-1,475.17578,547.90674)"
   id="text286"><tspan
     style="fill:#000000;fill-opacity:1;fill-rule:nonzero;stroke:none;font-family:CairoFont-0;font-variant:normal;font-size:32;writing-mode:lr;-inkscape-font-specification:CairoFont-0-0"
     x="0"
     y="0"
     id="tspan288">I</tspan></text>

<text
   transform="matrix(1,0,0,-1,483.67578,541.50674)"
   id="text290"><tspan
     style="font-size:20.80029297px;font-variant:normal;writing-mode:lr-tb;fill:#000000;fill-opacity:1;fill-rule:nonzero;stroke:none;font-family:CairoFont-0;-inkscape-font-specification:CairoFont-0-0"
     x="0 11.211358 29.037209 40.290169"
     y="0"
     sodipodi:role="line"
     id="tspan292">Lmax</tspan></text>

<text
   transform="matrix(1,0,0,-1,240.41631,19.799023)"
   id="text294"><tspan
     style="fill:#000000;fill-opacity:1;fill-rule:nonzero;stroke:none;font-family:CairoFont-1;font-variant:normal;font-size:32;writing-mode:lr;-inkscape-font-specification:CairoFont-1-0"
     x="0"
     y="0"
     id="tspan296">r</tspan></text>

<text
   transform="matrix(1,0,0,-1,251.54131,13.399023)"
   id="text298"><tspan
     style="fill:#000000;fill-opacity:1;fill-rule:nonzero;stroke:none;font-family:CairoFont-1;font-variant:normal;font-size:20.800293;writing-mode:lr;-inkscape-font-specification:CairoFont-1-0"
     x="0"
     y="0"
     id="tspan300">z</tspan></text>

<text
   transform="matrix(1,0,0,-1,337.03938,10.762598)"
   id="text302"><tspan
     style="fill:#000000;fill-opacity:1;fill-rule:nonzero;stroke:none;font-family:CairoFont-1;font-variant:normal;font-size:32;writing-mode:lr;-inkscape-font-specification:CairoFont-1-0"
     x="0"
     y="0"
     id="tspan304">P</tspan></text>

<text
   transform="matrix(1,0,0,-1,354.97688,4.362598)"
   id="text306"><tspan
     style="fill:#000000;fill-opacity:1;fill-rule:nonzero;stroke:none;font-family:CairoFont-1;font-variant:normal;font-size:20.800293;writing-mode:lr;-inkscape-font-specification:CairoFont-1-0"
     x="0 12.23057228 24.39874369"
     y="0"
     sodipodi:role="line"
     id="tspan308">dov</tspan></text>

<text
   transform="matrix(1,0,0,-1,252.06873,111.00454)"
   id="text310"><tspan
     style="fill:#000000;fill-opacity:1;fill-rule:nonzero;stroke:none;font-family:CairoFont-1;font-variant:normal;font-size:22.418971;writing-mode:lr;-inkscape-font-specification:CairoFont-1-0"
     x="0"
     y="0"
     id="tspan312">G</tspan></text>

<text
   transform="matrix(1,0,0,-1,262.05964,168.83984)"
   id="text314"><tspan
     style="fill:#000000;fill-opacity:1;fill-rule:nonzero;stroke:none;font-family:CairoFont-1;font-variant:normal;font-size:19.027747;writing-mode:lr;-inkscape-font-specification:CairoFont-1-0"
     x="0 13.05303444"
     y="0"
     sodipodi:role="line"
     id="tspan316">G´</tspan></text>

<text
   transform="matrix(1,0,0,-1,263.53472,210.5158)"
   id="text318"><tspan
     style="fill:#000000;fill-opacity:1;fill-rule:nonzero;stroke:none;font-family:CairoFont-1;font-variant:normal;font-size:21.148865;writing-mode:lr;-inkscape-font-specification:CairoFont-1-0"
     x="0"
     y="0"
     id="tspan320">P</tspan></text>

<text
   transform="matrix(1,0,0,-1,272.67585,260.95757)"
   id="text322"><tspan
     style="fill:#000000;fill-opacity:1;fill-rule:nonzero;stroke:none;font-family:CairoFont-1;font-variant:normal;font-size:20.612489;writing-mode:lr;-inkscape-font-specification:CairoFont-1-0"
     x="0 10.05889463"
     y="0"
     sodipodi:role="line"
     id="tspan324">F´</tspan></text>

<text
   transform="matrix(1,0,0,-1,279.55676,322.43227)"
   id="text326"><tspan
     style="fill:#000000;fill-opacity:1;fill-rule:nonzero;stroke:none;font-family:CairoFont-1;font-variant:normal;font-size:21.551021;writing-mode:lr;-inkscape-font-specification:CairoFont-1-0"
     x="0"
     y="0"
     id="tspan328">F</tspan></text>

<text
   transform="matrix(1,0,0,-1,242.42349,561.42843)"
   id="text330"><tspan
     style="fill:#000000;fill-opacity:1;fill-rule:nonzero;stroke:none;font-family:CairoFont-1;font-variant:normal;font-size:22.476961;writing-mode:lr;-inkscape-font-specification:CairoFont-1-0"
     x="0"
     y="0"
     id="tspan332">D</tspan></text>

<text
   transform="matrix(1,0,0,-1,195.56943,560.99565)"
   id="text334"><tspan
     style="fill:#000000;fill-opacity:1;fill-rule:nonzero;stroke:none;font-family:CairoFont-1;font-variant:normal;font-size:23.504279;writing-mode:lr;-inkscape-font-specification:CairoFont-1-0"
     x="0"
     y="0"
     id="tspan336">Y</tspan></text>

<text
   transform="matrix(1,0,0,-1,133.68506,561.8731)"
   id="text338"><tspan
     style="fill:#000000;fill-opacity:1;fill-rule:nonzero;stroke:none;font-family:CairoFont-1;font-variant:normal;font-size:22.093518;writing-mode:lr;-inkscape-font-specification:CairoFont-1-0"
     x="0 15.48755612"
     y="0"
     sodipodi:role="line"
     id="tspan340">D´</tspan></text>

<text
   transform="matrix(1,0,0,-1,63.356311,562.09441)"
   id="text342"><tspan
     style="fill:#000000;fill-opacity:1;fill-rule:nonzero;stroke:none;font-family:CairoFont-1;font-variant:normal;font-size:21.686722;writing-mode:lr;-inkscape-font-specification:CairoFont-1-0"
     x="0"
     y="0"
     id="tspan344">H</tspan></text>

<text
   transform="matrix(0.6921271,0.72177564,0.72177564,-0.6921271,0,0)"
   id="text346"
   x="592.26239"
   y="-102.33672"
   style="font-size:12px"><tspan
     style="font-size:22.58719826px;font-variant:normal;writing-mode:lr-tb;fill:#000000;fill-opacity:1;fill-rule:nonzero;stroke:none;font-family:CairoFont-1;-inkscape-font-specification:CairoFont-1-0"
     x="592.26239"
     y="-102.33672"
     id="tspan348">R</tspan></text>

<text
   transform="matrix(0.6921271,0.72177564,0.72177564,-0.6921271,0,0)"
   id="text350"
   x="607.57983"
   y="-97.819283"
   style="font-size:12px"><tspan
     style="font-size:14.68188477px;font-variant:normal;writing-mode:lr-tb;fill:#000000;fill-opacity:1;fill-rule:nonzero;stroke:none;font-family:CairoFont-1;-inkscape-font-specification:CairoFont-1-0"
     x="607.57983 614.48035 627.12146 630.67444"
     y="-97.819283"
     sodipodi:role="line"
     id="tspan352">Lmin</tspan></text>

<text
   transform="matrix(0.53608842,0.84416184,0.84416184,-0.53608842,0,0)"
   id="text354"
   x="559.5575"
   y="51.320038"
   style="font-size:12px"><tspan
     style="font-size:20.59515572px;font-variant:normal;writing-mode:lr-tb;fill:#000000;fill-opacity:1;fill-rule:nonzero;stroke:none;font-family:CairoFont-1;-inkscape-font-specification:CairoFont-1-0"
     x="559.5575"
     y="51.320038"
     id="tspan356">R</tspan></text>

<text
   transform="matrix(0.53608842,0.84416184,0.84416184,-0.53608842,0,0)"
   id="text358"
   x="574.1803"
   y="55.439072"
   style="font-size:12px"><tspan
     style="font-size:13.38703918px;font-variant:normal;writing-mode:lr-tb;fill:#000000;fill-opacity:1;fill-rule:nonzero;stroke:none;font-family:CairoFont-1;-inkscape-font-specification:CairoFont-1-0"
     x="574.1803"
     y="55.439072"
     id="tspan360">L</tspan></text>

<text
   transform="scale(1,-1)"
   id="text362"
   x="242.98784"
   y="-406.82547"><tspan
     style="font-size:21.79876328px;font-variant:normal;writing-mode:lr-tb;fill:#000000;fill-opacity:1;fill-rule:nonzero;stroke:none;font-family:CairoFont-1;-inkscape-font-specification:CairoFont-1-0"
     x="242.98784"
     y="-406.82547"
     id="tspan364">E</tspan></text>

<text
   transform="matrix(1,0,0,-1,131.57572,406.18776)"
   id="text366"><tspan
     style="fill:#000000;fill-opacity:1;fill-rule:nonzero;stroke:none;font-family:CairoFont-1;font-variant:normal;font-size:20.484798;writing-mode:lr;-inkscape-font-specification:CairoFont-1-0"
     x="0 10.34482299"
     y="0"
     sodipodi:role="line"
     id="tspan368">E´</tspan></text>

<text
   transform="matrix(0.66006161,0.75121147,0.75121147,-0.66006161,293.03291,372.89861)"
   id="text370"><tspan
     style="fill:#00a800;fill-opacity:1;fill-rule:nonzero;stroke:none;font-family:CairoFont-0;font-variant:normal;font-size:14.68922727;writing-mode:lr;-inkscape-font-specification:CairoFont-0-0"
     x="0"
     y="0"
     id="tspan372">U</tspan></text>

<text
   transform="matrix(0.66006155,0.75121152,0.75121152,-0.66006155,301.92465,378.56737)"
   id="text374"><tspan
     style="fill:#00a800;fill-opacity:1;fill-rule:nonzero;stroke:none;font-family:CairoFont-0;font-variant:normal;font-size:9.5481323;writing-mode:lr;-inkscape-font-specification:CairoFont-0-0"
     x="0"
     y="0"
     id="tspan376">R</tspan></text>

<text
   transform="matrix(0.68347053,0.7299781,0.7299781,-0.68347053,272.4359,373.93043)"
   id="text378"><tspan
     style="fill:#00aeb1;fill-opacity:1;fill-rule:nonzero;stroke:none;font-family:CairoFont-0;font-variant:normal;font-size:15.57092734;writing-mode:lr;-inkscape-font-specification:CairoFont-0-0"
     x="0"
     y="0"
     id="tspan380">U</tspan></text>

<text
   transform="matrix(0.68347051,0.72997812,0.72997812,-0.68347051,282.04653,379.6386)"
   id="text382"><tspan
     style="fill:#00aeb1;fill-opacity:1;fill-rule:nonzero;stroke:none;font-family:CairoFont-0;font-variant:normal;font-size:10.12124576;writing-mode:lr;-inkscape-font-specification:CairoFont-0-0"
     x="0 5.75898884 14.43289646 17.04417786"
     y="0"
     sodipodi:role="line"
     id="tspan384">Zmin</tspan></text>

<text
   transform="matrix(0.68074333,0.73252203,0.73252203,-0.68074333,0,0)"
   id="text386"
   x="533.44385"
   y="-17.611105"
   style="font-size:12px"><tspan
     style="font-size:21.53551483px;font-variant:normal;writing-mode:lr-tb;fill:#000000;fill-opacity:1;fill-rule:nonzero;stroke:none;font-family:CairoFont-1;-inkscape-font-specification:CairoFont-1-0"
     x="533.44385"
     y="-17.611105"
     id="tspan388">R</tspan></text>

<text
   transform="matrix(0.68074333,0.73252203,0.73252203,-0.68074333,0,0)"
   id="text390"
   x="548.2981"
   y="-13.303999"
   style="font-size:12px"><tspan
     style="font-size:13.99828243px;font-variant:normal;writing-mode:lr-tb;fill:#000000;fill-opacity:1;fill-rule:nonzero;stroke:none;font-family:CairoFont-1;-inkscape-font-specification:CairoFont-1-0"
     x="548.2981 554.87726 566.92981 574.04089"
     y="-13.303999"
     sodipodi:role="line"
     id="tspan392">Lmax</tspan></text>

<text
   transform="matrix(0.63343842,0.7737931,0.7737931,-0.63343842,0,0)"
   id="text394"
   x="445.02768"
   y="-239.79808"
   style="font-size:12px"><tspan
     style="font-size:18.2069397px;font-variant:normal;writing-mode:lr-tb;fill:#000000;fill-opacity:1;fill-rule:nonzero;stroke:none;font-family:CairoFont-0;-inkscape-font-specification:CairoFont-0-0"
     x="445.02768"
     y="-239.79808"
     id="tspan396">U</tspan></text>

<text
   transform="matrix(0.64125444,0.76732831,0.76732831,-0.64125444,0,0)"
   id="text398"
   x="453.33469"
   y="-237.7982"
   style="font-size:12px"><tspan
     style="font-size:11.8346777px;font-variant:normal;writing-mode:lr-tb;fill:#000000;fill-opacity:1;fill-rule:nonzero;stroke:none;font-family:CairoFont-0;-inkscape-font-specification:CairoFont-0-0"
     x="453.33469 459.71356 469.8559 476.25845"
     y="-237.7982"
     sodipodi:role="line"
     id="tspan400">1max</tspan></text>

<text
   transform="matrix(0.73795599,0.67484884,0.67484884,-0.73795599,167.08111,493.89775)"
   id="text402"><tspan
     style="fill:#000000;fill-opacity:1;fill-rule:nonzero;stroke:none;font-family:CairoFont-0;font-variant:normal;font-size:21.56792173;writing-mode:lr;-inkscape-font-specification:CairoFont-0-0"
     x="0"
     y="0"
     id="tspan404">U</tspan></text>

<text
   transform="matrix(0.73795599,0.67484884,0.67484884,-0.73795599,180.96559,500.74957)"
   id="text406"><tspan
     style="fill:#000000;fill-opacity:1;fill-rule:nonzero;stroke:none;font-family:CairoFont-0;font-variant:normal;font-size:14.01934689;writing-mode:lr;-inkscape-font-specification:CairoFont-0-0"
     x="0"
     y="0"
     id="tspan408">1</tspan></text>

<text
   transform="matrix(0.59300912,0.80519574,0.80519574,-0.59300912,228.68232,494.48948)"
   id="text410"><tspan
     style="fill:#000000;fill-opacity:1;fill-rule:nonzero;stroke:none;font-family:CairoFont-0;font-variant:normal;font-size:19.7738663;writing-mode:lr;-inkscape-font-specification:CairoFont-0-0"
     x="0"
     y="0"
     id="tspan412">U</tspan></text>

<text
   transform="matrix(0.59300912,0.80519574,0.80519574,-0.59300912,239.95128,503.12162)"
   id="text414"><tspan
     style="fill:#000000;fill-opacity:1;fill-rule:nonzero;stroke:none;font-family:CairoFont-0;font-variant:normal;font-size:12.85319517;writing-mode:lr;-inkscape-font-specification:CairoFont-0-0"
     x="0 6.9278722 17.94306046 21.25918482"
     y="0"
     sodipodi:role="line"
     id="tspan416">1min</tspan></text>

<text
   transform="matrix(1,0,0,-1,189.17145,473.58164)"
   id="text418"><tspan
     style="fill:#000000;fill-opacity:1;fill-rule:nonzero;stroke:none;font-family:CairoFont-1;font-variant:normal;font-size:21.339502;writing-mode:lr;-inkscape-font-specification:CairoFont-1-0"
     x="0"
     y="0"
     id="tspan420">C</tspan></text>

<text
   transform="matrix(1,0,0,-1,132.86116,474.28641)"
   id="text422"><tspan
     style="fill:#000000;fill-opacity:1;fill-rule:nonzero;stroke:none;font-family:CairoFont-1;font-variant:normal;font-size:22.05986;writing-mode:lr;-inkscape-font-specification:CairoFont-1-0"
     x="0"
     y="0"
     id="tspan424">B</tspan></text>

<text
   transform="matrix(1,0,0,-1,61.282587,476.03638)"
   id="text426"><tspan
     style="fill:#000000;fill-opacity:1;fill-rule:nonzero;stroke:none;font-family:CairoFont-1;font-variant:normal;font-size:23.287057;writing-mode:lr;-inkscape-font-specification:CairoFont-1-0"
     x="0"
     y="0"
     id="tspan428">A</tspan></text>

<text
   transform="matrix(1,0,0,-1,62.549487,407.48959)"
   id="text430"><tspan
     style="fill:#000000;fill-opacity:1;fill-rule:nonzero;stroke:none;font-family:CairoFont-1;font-variant:normal;font-size:20.317461;writing-mode:lr;-inkscape-font-specification:CairoFont-1-0"
     x="0"
     y="0"
     id="tspan432">X</tspan></text>

<text
   transform="matrix(0.68347053,0.7299781,0.7299781,-0.68347053,236.56838,372.19979)"
   id="text434"><tspan
     style="fill:#f00000;fill-opacity:1;fill-rule:nonzero;stroke:none;font-family:CairoFont-0;font-variant:normal;font-size:15.57092734;writing-mode:lr;-inkscape-font-specification:CairoFont-0-0"
     x="0"
     y="0"
     id="tspan436">U</tspan></text>

<text
   transform="matrix(0.68347051,0.72997812,0.72997812,-0.68347051,246.17902,377.90796)"
   id="text438"><tspan
     style="fill:#f00000;fill-opacity:1;fill-rule:nonzero;stroke:none;font-family:CairoFont-0;font-variant:normal;font-size:10.12124576;writing-mode:lr;-inkscape-font-specification:CairoFont-0-0"
     x="0 5.75898884 14.43289646 19.90849041"
     y="0"
     sodipodi:role="line"
     id="tspan440">Zmax</tspan></text>

<text
   transform="scale(1,-1)"
   id="text442"
   x="14.60936"
   y="-340.12894"><tspan
     style="font-size:29.63323975px;font-variant:normal;writing-mode:lr-tb;fill:#000000;fill-opacity:1;fill-rule:nonzero;stroke:none;font-family:CairoFont-0;-inkscape-font-specification:CairoFont-0-0"
     x="14.60936"
     y="-340.12894"
     id="tspan444">U</tspan></text>

<text
   transform="scale(1,-1)"
   id="text446"
   x="35.040089"
   y="-334.2023"><tspan
     style="font-size:19.26187706px;font-variant:normal;writing-mode:lr-tb;fill:#000000;fill-opacity:1;fill-rule:nonzero;stroke:none;font-family:CairoFont-0;-inkscape-font-specification:CairoFont-0-0"
     x="35.040089"
     y="-334.2023"
     id="tspan448">2</tspan></text>

<path
   d="m 458.76192,616.71435 5.64955,15.26412 5.58598,-15.28954 c -3.31345,2.44575 -7.85216,2.44575 -11.23553,0.0254 z"
   style="fill:#000000;fill-opacity:1;fill-rule:evenodd;stroke:none"
   id="path454"
   inkscape:connector-curvature="0" /><text
   transform="matrix(1,0,0,-1,482.25771,608.22322)"
   id="text456"><tspan
     style="font-size:32px;font-variant:normal;writing-mode:lr-tb;fill:#000000;fill-opacity:1;fill-rule:nonzero;stroke:none;font-family:CairoFont-0;-inkscape-font-specification:CairoFont-0-0"
     x="0"
     y="0"
     id="tspan458">I</tspan></text>

<text
   transform="matrix(1,0,0,-1,490.57021,601.82322)"
   id="text460"><tspan
     style="font-size:20.80029297px;font-variant:normal;writing-mode:lr-tb;fill:#000000;fill-opacity:1;fill-rule:nonzero;stroke:none;font-family:CairoFont-0;-inkscape-font-specification:CairoFont-0-0"
     x="0"
     y="0"
     id="tspan462">L</tspan></text>

<flowRoot
   xml:space="preserve"
   id="flowRoot3439"
   style="fill:black;stroke:none;stroke-opacity:1;stroke-width:1px;stroke-linejoin:miter;stroke-linecap:butt;fill-opacity:1;font-family:Segoe UI;font-style:normal;font-weight:normal;font-size:40px;line-height:125%;letter-spacing:0px;word-spacing:0px;-inkscape-font-specification:Segoe UI;font-stretch:normal;font-variant:normal"><flowRegion
     id="flowRegion3441"><rect
       id="rect3443"
       width="900"
       height="975.2066"
       x="-112.3967"
       y="-48.76033" /></flowRegion><flowPara
     id="flowPara3445" /></flowRoot><path
   d="m 458.15078,16.268259 5.64955,-15.2641195 5.58598,15.2895395 c -3.31345,-2.44575 -7.85216,-2.44575 -11.23553,-0.0254 z"
   style="fill:#000000;fill-opacity:1;fill-rule:evenodd;stroke:none"
   id="path454-2"
   inkscape:connector-curvature="0" /><path
   d="m 45.718524,363.72109 -15.26412,5.64955 15.28954,5.58598 c -2.44575,-3.31345 -2.44575,-7.85216 -0.0254,-11.23553 z"
   style="fill:#000000;fill-opacity:1;fill-rule:evenodd;stroke:none"
   id="path454-3"
   inkscape:connector-curvature="0" /></g></g></svg>