<?xml version="1.0" encoding="UTF-8" standalone="no"?>
<!-- Created with Inkscape (http://www.inkscape.org/) -->

<svg
   xmlns:ns0="http://www.iki.fi/pav/software/textext/"
   xmlns:dc="http://purl.org/dc/elements/1.1/"
   xmlns:cc="http://creativecommons.org/ns#"
   xmlns:rdf="http://www.w3.org/1999/02/22-rdf-syntax-ns#"
   xmlns:svg="http://www.w3.org/2000/svg"
   xmlns="http://www.w3.org/2000/svg"
   xmlns:sodipodi="http://sodipodi.sourceforge.net/DTD/sodipodi-0.dtd"
   xmlns:inkscape="http://www.inkscape.org/namespaces/inkscape"
   width="360"
   height="210"
   id="svg2"
   inkscape:label="Pozadí"
   version="1.1"
   inkscape:version="0.48.0 r9654"
   sodipodi:docname="patocka_stabilizator_ZD_sch.svg">
  <sodipodi:namedview
     id="base"
     pagecolor="#ffffff"
     bordercolor="#666666"
     borderopacity="1.0"
     inkscape:pageopacity="0.0"
     inkscape:pageshadow="2"
     inkscape:zoom="2.8"
     inkscape:cx="217.78673"
     inkscape:cy="83.25627"
     inkscape:document-units="px"
     inkscape:current-layer="layer1"
     showgrid="false"
     inkscape:window-width="1917"
     inkscape:window-height="1125"
     inkscape:window-x="-9"
     inkscape:window-y="-9"
     inkscape:window-maximized="1" />
  <defs
     id="defs26213" />
  <metadata
     id="metadata26216">
    <rdf:RDF>
      <cc:Work
         rdf:about="">
        <dc:format>image/svg+xml</dc:format>
        <dc:type
           rdf:resource="http://purl.org/dc/dcmitype/StillImage" />
        <dc:title />
      </cc:Work>
    </rdf:RDF>
  </metadata>
  <g
     transform="translate(0,-842.36218)"
     id="layer1"
     inkscape:groupmode="layer"
     inkscape:label="Vrstva 1">
    <path
       id="path8743"
       style="fill:#ffffff;fill-opacity:1;fill-rule:evenodd;stroke:none"
       d="m 168.19318,935.58504 -17.25,36.75 35.25,0 -18,-36.75 z"
       inkscape:connector-curvature="0" />
    <path
       id="path8745"
       style="fill:none;stroke:#000000;stroke-width:2.70000005;stroke-linecap:round;stroke-linejoin:round;stroke-miterlimit:10;stroke-opacity:1;stroke-dasharray:none"
       d="m 168.19318,935.58504 -17.25,36.75 35.25,0 -18,-36.75 z"
       inkscape:connector-curvature="0" />
    <path
       id="path8747"
       style="fill:none;stroke:#000000;stroke-width:2.70000005;stroke-linecap:round;stroke-linejoin:round;stroke-miterlimit:10;stroke-opacity:1;stroke-dasharray:none"
       d="m 168.19318,890.58504 0,124.49996"
       inkscape:connector-curvature="0" />
    <path
       id="path8749"
       style="fill:none;stroke:#000000;stroke-width:2.70000005;stroke-linecap:round;stroke-linejoin:round;stroke-miterlimit:10;stroke-opacity:1;stroke-dasharray:none"
       d="m 150.94318,935.58504 35.25,0"
       inkscape:connector-curvature="0" />
    <path
       id="path8751"
       style="fill:none;stroke:#000000;stroke-width:2.70000005;stroke-linecap:round;stroke-linejoin:round;stroke-miterlimit:10;stroke-opacity:1;stroke-dasharray:none"
       d="m 6.1931762,1042.085 267.7500038,0"
       inkscape:connector-curvature="0" />
    <path
       id="path8753"
       style="fill:none;stroke:#000000;stroke-width:2.70000005;stroke-linecap:round;stroke-linejoin:round;stroke-miterlimit:10;stroke-opacity:1;stroke-dasharray:none"
       d="m 168.19318,882.33504 0,158.99996"
       inkscape:connector-curvature="0" />
    <path
       id="path8755"
       style="fill:none;stroke:#000000;stroke-width:2.70000005;stroke-linecap:round;stroke-linejoin:round;stroke-miterlimit:10;stroke-opacity:1;stroke-dasharray:none"
       d="m 6.9431762,883.08504 264.0000038,0"
       inkscape:connector-curvature="0" />
    <path
       id="path8757"
       style="fill:#ffffff;fill-opacity:1;fill-rule:evenodd;stroke:none"
       d="m 279.55568,882.93504 c 0,-2.45 -1.9875,-4.425 -4.4375,-4.425 -2.4375,0 -4.425,1.975 -4.425,4.425 0,2.45 1.9875,4.4375 4.425,4.4375 2.45,0 4.4375,-1.9875 4.4375,-4.4375 z"
       inkscape:connector-curvature="0" />
    <path
       id="path8759"
       style="fill:none;stroke:#000000;stroke-width:2.70000005;stroke-linecap:round;stroke-linejoin:round;stroke-miterlimit:10;stroke-opacity:1;stroke-dasharray:none"
       d="m 279.55568,882.93504 c 0,-2.45 -1.9875,-4.425 -4.4375,-4.425 -2.4375,0 -4.425,1.975 -4.425,4.425 0,2.45 1.9875,4.4375 4.425,4.4375 2.45,0 4.4375,-1.9875 4.4375,-4.4375 z"
       inkscape:connector-curvature="0" />
    <path
       id="path8761"
       style="fill:#ffffff;fill-opacity:1;fill-rule:evenodd;stroke:none"
       d="m 279.55568,1042.385 c 0,-2.45 -1.9875,-4.425 -4.4375,-4.425 -2.4375,0 -4.425,1.975 -4.425,4.425 0,2.45 1.9875,4.425 4.425,4.425 2.45,0 4.4375,-1.975 4.4375,-4.425 z"
       inkscape:connector-curvature="0" />
    <path
       id="path8763"
       style="fill:none;stroke:#000000;stroke-width:2.70000005;stroke-linecap:round;stroke-linejoin:round;stroke-miterlimit:10;stroke-opacity:1;stroke-dasharray:none"
       d="m 279.55568,1042.385 c 0,-2.45 -1.9875,-4.425 -4.4375,-4.425 -2.4375,0 -4.425,1.975 -4.425,4.425 0,2.45 1.9875,4.425 4.425,4.425 2.45,0 4.4375,-1.975 4.4375,-4.425 z"
       inkscape:connector-curvature="0" />
    <path
       id="path8765"
       style="fill:none;stroke:#000000;stroke-width:2.70000005;stroke-linecap:round;stroke-linejoin:round;stroke-miterlimit:10;stroke-opacity:1;stroke-dasharray:none"
       d="m 279.19318,883.08504 22.5,0 0,158.99996 -22.5,0"
       inkscape:connector-curvature="0" />
    <path
       id="path8767"
       style="fill:#ffffff;fill-opacity:1;fill-rule:evenodd;stroke:none"
       d="m 292.69318,979.83504 18,0 0,-45 -18,0 0,45 z"
       inkscape:connector-curvature="0" />
    <path
       id="path8769"
       style="fill:none;stroke:#000000;stroke-width:2.70000005;stroke-linecap:round;stroke-linejoin:round;stroke-miterlimit:10;stroke-opacity:1;stroke-dasharray:none"
       d="m 292.69318,979.83504 18,0 0,-45 -18,0 0,45 z"
       inkscape:connector-curvature="0" />
    <path
       id="path8771"
       style="fill:#000000;fill-opacity:1;fill-rule:evenodd;stroke:none"
       d="m 172.81818,882.04754 c 0,-2.4375 -1.975,-4.425 -4.425,-4.425 -2.45,0 -4.425,1.9875 -4.425,4.425 0,2.45 1.975,4.4375 4.425,4.4375 2.45,0 4.425,-1.9875 4.425,-4.4375 z"
       inkscape:connector-curvature="0" />
    <path
       id="path8773"
       style="fill:none;stroke:#000000;stroke-width:2.70000005;stroke-linecap:round;stroke-linejoin:round;stroke-miterlimit:10;stroke-opacity:1;stroke-dasharray:none"
       d="m 172.81818,882.04754 c 0,-2.4375 -1.975,-4.425 -4.425,-4.425 -2.45,0 -4.425,1.9875 -4.425,4.425 0,2.45 1.975,4.4375 4.425,4.4375 2.45,0 4.425,-1.9875 4.425,-4.4375 z"
       inkscape:connector-curvature="0" />
    <path
       id="path8775"
       style="fill:#000000;fill-opacity:1;fill-rule:evenodd;stroke:none"
       d="m 172.81818,1041.4975 c 0,-2.4375 -1.975,-4.425 -4.425,-4.425 -2.45,0 -4.425,1.9875 -4.425,4.425 0,2.45 1.975,4.4375 4.425,4.4375 2.45,0 4.425,-1.9875 4.425,-4.4375 z"
       inkscape:connector-curvature="0" />
    <path
       id="path8777"
       style="fill:none;stroke:#000000;stroke-width:2.70000005;stroke-linecap:round;stroke-linejoin:round;stroke-miterlimit:10;stroke-opacity:1;stroke-dasharray:none"
       d="m 172.81818,1041.4975 c 0,-2.4375 -1.975,-4.425 -4.425,-4.425 -2.45,0 -4.425,1.9875 -4.425,4.425 0,2.45 1.975,4.4375 4.425,4.4375 2.45,0 4.425,-1.9875 4.425,-4.4375 z"
       inkscape:connector-curvature="0" />
    <text
       id="text8779"
       x="192.79053"
       y="937.10114"
       style="font-size:18.4020977px">
      <tspan
         id="tspan8781"
         sodipodi:role="line"
         y="937.10114"
         x="192.79053 205.90421"
         style="font-size:21.46862221px;font-variant:normal;font-weight:normal;writing-mode:lr-tb;fill:#000000;fill-opacity:1;fill-rule:nonzero;stroke:none;font-family:ARIAL;-inkscape-font-specification:ARIAL">ZD</tspan>
    </text>
    <path
       id="path8783"
       style="fill:none;stroke:#0000ff;stroke-width:0.90000004;stroke-linecap:round;stroke-linejoin:round;stroke-miterlimit:10;stroke-opacity:1;stroke-dasharray:none"
       d="m 327.94318,987.33504 0,29.99996"
       inkscape:connector-curvature="0" />
    <path
       id="path8785"
       style="fill:#0000ff;fill-opacity:1;fill-rule:evenodd;stroke:none"
       d="m 331.69318,1015.835 -3.75,12.75 -4.5,-12.75 8.25,0 z"
       inkscape:connector-curvature="0" />
    <text
       id="text8787"
       x="333.06818"
       y="1014.81"
       style="font-size:15px">
      <tspan
         id="tspan8789"
         y="1014.81"
         x="333.06818"
         style="font-size:17.49959946px;font-variant:normal;font-weight:normal;writing-mode:lr-tb;fill:#0070c0;fill-opacity:1;fill-rule:nonzero;stroke:none;font-family:ARIAL;-inkscape-font-specification:ARIAL">I</tspan>
    </text>
    <text
       id="text8791"
       x="337.93066"
       y="1017.2225"
       style="font-size:15px">
      <tspan
         id="tspan8793"
         y="1017.2225"
         x="337.93066"
         style="font-size:11.37330055px;font-variant:normal;font-weight:normal;writing-mode:lr-tb;fill:#0070c0;fill-opacity:1;fill-rule:nonzero;stroke:none;font-family:ARIAL;-inkscape-font-specification:ARIAL">L</tspan>
    </text>
    <path
       id="path8795"
       style="fill:none;stroke:#0000ff;stroke-width:0.90000004;stroke-linecap:round;stroke-linejoin:round;stroke-miterlimit:10;stroke-opacity:1;stroke-dasharray:none"
       d="m 274.69318,898.83504 0,121.49996"
       inkscape:connector-curvature="0" />
    <path
       id="path8797"
       style="fill:#0000ff;fill-opacity:1;fill-rule:evenodd;stroke:none"
       d="m 278.44318,1019.585 -3.75,12 -3.75,-12 7.5,0 z"
       inkscape:connector-curvature="0" />
    <path
       id="path8799"
       style="fill:#ffffff;fill-opacity:1;fill-rule:evenodd;stroke:none"
       d="m 14.705676,1043.2725 c 0,-2.45 -1.9875,-4.425 -4.4375,-4.425 -2.4374998,0 -4.4249998,1.975 -4.4249998,4.425 0,2.45 1.9875,4.425 4.4249998,4.425 2.45,0 4.4375,-1.975 4.4375,-4.425 z"
       inkscape:connector-curvature="0" />
    <path
       id="path8801"
       style="fill:none;stroke:#000000;stroke-width:2.70000005;stroke-linecap:round;stroke-linejoin:round;stroke-miterlimit:10;stroke-opacity:1;stroke-dasharray:none"
       d="m 14.705676,1043.2725 c 0,-2.45 -1.9875,-4.425 -4.4375,-4.425 -2.4374998,0 -4.4249998,1.975 -4.4249998,4.425 0,2.45 1.9875,4.425 4.4249998,4.425 2.45,0 4.4375,-1.975 4.4375,-4.425 z"
       inkscape:connector-curvature="0" />
    <path
       id="path8803"
       style="fill:#ffffff;fill-opacity:1;fill-rule:evenodd;stroke:none"
       d="m 15.580676,882.93504 c 0,-2.45 -1.975,-4.425 -4.425,-4.425 -2.4499998,0 -4.4249998,1.975 -4.4249998,4.425 0,2.45 1.975,4.4375 4.4249998,4.4375 2.45,0 4.425,-1.9875 4.425,-4.4375 z"
       inkscape:connector-curvature="0" />
    <path
       id="path8805"
       style="fill:none;stroke:#000000;stroke-width:2.70000005;stroke-linecap:round;stroke-linejoin:round;stroke-miterlimit:10;stroke-opacity:1;stroke-dasharray:none"
       d="m 15.580676,882.93504 c 0,-2.45 -1.975,-4.425 -4.425,-4.425 -2.4499998,0 -4.4249998,1.975 -4.4249998,4.425 0,2.45 1.975,4.4375 4.4249998,4.4375 2.45,0 4.425,-1.9875 4.425,-4.4375 z"
       inkscape:connector-curvature="0" />
    <path
       id="path8807"
       style="fill:none;stroke:#0000ff;stroke-width:0.90000004;stroke-linecap:round;stroke-linejoin:round;stroke-miterlimit:10;stroke-opacity:1;stroke-dasharray:none"
       d="m 9.1931762,898.83504 0,121.49996"
       inkscape:connector-curvature="0" />
    <path
       id="path8809"
       style="fill:#0000ff;fill-opacity:1;fill-rule:evenodd;stroke:none"
       d="m 12.943176,1019.585 -3.7499998,12 -4.5,-12 8.2499998,0 z"
       inkscape:connector-curvature="0" />
    <path
       id="path8811"
       style="fill:#ffffff;fill-opacity:1;fill-rule:evenodd;stroke:none"
       d="m 57.943177,892.08504 44.250003,0 0,-18 -44.250003,0 0,18 z"
       inkscape:connector-curvature="0" />
    <path
       id="path8813"
       style="fill:none;stroke:#000000;stroke-width:2.70000005;stroke-linecap:round;stroke-linejoin:round;stroke-miterlimit:10;stroke-opacity:1;stroke-dasharray:none"
       d="m 57.943177,892.08504 44.250003,0 0,-18 -44.250003,0 0,18 z"
       inkscape:connector-curvature="0" />
    <text
       id="text8815"
       x="72.547684"
       y="869.32257"
       style="font-size:21.41493607px">
      <tspan
         id="tspan8817"
         y="869.32257"
         x="72.547684"
         style="font-size:24.98352051px;font-variant:normal;font-weight:normal;writing-mode:lr-tb;fill:#000000;fill-opacity:1;fill-rule:nonzero;stroke:none;font-family:ARIAL;-inkscape-font-specification:ARIAL">R</tspan>
    </text>
    <text
       id="text8819"
       x="317.0376"
       y="936.66168"
       style="font-size:21.09620094px">
      <tspan
         id="tspan8821"
         y="936.66168"
         x="317.0376"
         style="font-size:24.61167145px;font-variant:normal;font-weight:normal;writing-mode:lr-tb;fill:#000000;fill-opacity:1;fill-rule:nonzero;stroke:none;font-family:ARIAL;-inkscape-font-specification:ARIAL">R</tspan>
    </text>
    <text
       id="text8823"
       x="334.81119"
       y="940.05463"
       style="font-size:21.09620094px">
      <tspan
         id="tspan8825"
         y="940.05463"
         x="334.81119"
         style="font-size:15.99556255px;font-variant:normal;font-weight:normal;writing-mode:lr-tb;fill:#000000;fill-opacity:1;fill-rule:nonzero;stroke:none;font-family:ARIAL;-inkscape-font-specification:ARIAL">L</tspan>
    </text>
    <path
       id="path8827"
       style="fill:none;stroke:#0000ff;stroke-width:0.90000004;stroke-linecap:round;stroke-linejoin:round;stroke-miterlimit:10;stroke-opacity:1;stroke-dasharray:none"
       d="m 186.19318,987.33504 0,29.99996"
       inkscape:connector-curvature="0" />
    <path
       id="path8829"
       style="fill:#0000ff;fill-opacity:1;fill-rule:evenodd;stroke:none"
       d="m 189.94318,1015.835 -3.75,12.75 -4.5,-12.75 8.25,0 z"
       inkscape:connector-curvature="0" />
    <text
       id="text8831"
       x="191.8432"
       y="1010.435"
       style="font-size:15px">
      <tspan
         id="tspan8833"
         y="1010.435"
         x="191.8432"
         style="font-size:17.49959946px;font-variant:normal;font-weight:normal;writing-mode:lr-tb;fill:#0070c0;fill-opacity:1;fill-rule:nonzero;stroke:none;font-family:ARIAL;-inkscape-font-specification:ARIAL">I</tspan>
    </text>
    <text
       id="text8835"
       x="196.70567"
       y="1012.8475"
       style="font-size:15px">
      <tspan
         id="tspan8837"
         sodipodi:role="line"
         y="1012.8475"
         x="196.70567 203.65279"
         style="font-size:11.37330055px;font-variant:normal;font-weight:normal;writing-mode:lr-tb;fill:#0070c0;fill-opacity:1;fill-rule:nonzero;stroke:none;font-family:ARIAL;-inkscape-font-specification:ARIAL">ZD</tspan>
    </text>
    <path
       id="path8839"
       style="fill:none;stroke:#0000ff;stroke-width:0.90000004;stroke-linecap:round;stroke-linejoin:round;stroke-miterlimit:10;stroke-opacity:1;stroke-dasharray:none"
       d="m 35.443176,907.83504 30.000001,0"
       inkscape:connector-curvature="0" />
    <path
       id="path8841"
       style="fill:#0000ff;fill-opacity:1;fill-rule:evenodd;stroke:none"
       d="m 63.943177,903.33504 12,4.5 -12,3.75 0,-8.25 z"
       inkscape:connector-curvature="0" />
    <text
       id="text8843"
       x="52.768173"
       y="926.22253"
       style="font-size:15px;fill:#0070c0;fill-opacity:1">
      <tspan
         id="tspan8845"
         y="926.22253"
         x="52.768173"
         style="font-size:17.49959945999999900px;font-variant:normal;font-weight:normal;writing-mode:lr-tb;fill:#0070c0;fill-opacity:1;fill-rule:nonzero;stroke:none;font-family:ARIAL;-inkscape-font-specification:ARIAL">I<tspan
   style="font-size:65%;baseline-shift:sub;fill:#0070c0;fill-opacity:1"
   id="tspan26566">1</tspan>
</tspan>
    </text>
    <text
       id="text8847"
       x="23.418177"
       y="983.92255"
       style="font-size:15px">
      <tspan
         id="tspan8849"
         y="983.92255"
         x="23.418177"
         style="font-size:17.49959946px;font-variant:normal;font-weight:normal;writing-mode:lr-tb;fill:#0070c0;fill-opacity:1;fill-rule:nonzero;stroke:none;font-family:ARIAL;-inkscape-font-specification:ARIAL">U</tspan>
    </text>
    <text
       id="text8851"
       x="36.055672"
       y="986.34753"
       style="font-size:15px">
      <tspan
         id="tspan8853"
         sodipodi:role="line"
         y="986.34753"
         x="36.055672 42.380699"
         style="font-size:11.37330055px;font-variant:normal;font-weight:normal;writing-mode:lr-tb;fill:#0070c0;fill-opacity:1;fill-rule:nonzero;stroke:none;font-family:ARIAL;-inkscape-font-specification:ARIAL">1</tspan>
    </text>
    <text
       id="text8855"
       x="45.543175"
       y="983.92255"
       style="font-size:15px">
      <tspan
         id="tspan8857"
         y="983.92255"
         x="45.543175"
         style="font-size:17.49959946px;font-variant:normal;font-weight:normal;writing-mode:lr-tb;fill:#0070c0;fill-opacity:1;fill-rule:nonzero;stroke:none;font-family:Times New Roman;-inkscape-font-specification:Times New">±</tspan>
    </text>
    <text
       id="text8863"
       x="68.623535"
       y="984.01184"
       style="font-size:15px">
      <tspan
         id="tspan8865"
         y="984.01184"
         x="68.623535"
         style="font-size:17.49959946px;font-variant:normal;font-weight:normal;writing-mode:lr-tb;fill:#0070c0;fill-opacity:1;fill-rule:nonzero;stroke:none;font-family:ARIAL;-inkscape-font-specification:ARIAL">U</tspan>
    </text>
    <text
       id="text8867"
       x="81.261032"
       y="986.43683"
       style="font-size:15px">
      <tspan
         id="tspan8869"
         y="986.43683"
         x="81.261032"
         style="font-size:11.37330055px;font-variant:normal;font-weight:normal;writing-mode:lr-tb;fill:#0070c0;fill-opacity:1;fill-rule:nonzero;stroke:none;font-family:ARIAL;-inkscape-font-specification:ARIAL">1</tspan>
    </text>
    <text
       id="text8871"
       x="207.6682"
       y="983.92255"
       style="font-size:15px">
      <tspan
         id="tspan8873"
         y="983.92255"
         x="207.6682"
         style="font-size:17.49959946px;font-variant:normal;font-weight:normal;writing-mode:lr-tb;fill:#0070c0;fill-opacity:1;fill-rule:nonzero;stroke:none;font-family:ARIAL;-inkscape-font-specification:ARIAL">U</tspan>
    </text>
    <text
       id="text8875"
       x="220.30568"
       y="986.34753"
       style="font-size:15px">
      <tspan
         id="tspan8877"
         sodipodi:role="line"
         y="986.34753"
         x="220.30568 226.63072"
         style="font-size:11.37330055px;font-variant:normal;font-weight:normal;writing-mode:lr-tb;fill:#0070c0;fill-opacity:1;fill-rule:nonzero;stroke:none;font-family:ARIAL;-inkscape-font-specification:ARIAL">2</tspan>
    </text>
    <text
       id="text8879"
       x="229.7932"
       y="983.92255"
       style="font-size:15px">
      <tspan
         id="tspan8881"
         y="983.92255"
         x="229.7932"
         style="font-size:17.49959946px;font-variant:normal;font-weight:normal;writing-mode:lr-tb;fill:#0070c0;fill-opacity:1;fill-rule:nonzero;stroke:none;font-family:Times New Roman;-inkscape-font-specification:Times New">±</tspan>
    </text>
    <text
       id="text8887"
       x="250.1057"
       y="983.92255"
       style="font-size:15px">
      <tspan
         id="tspan8889"
         y="983.92255"
         x="250.1057"
         style="font-size:17.49959946px;font-variant:normal;font-weight:normal;writing-mode:lr-tb;fill:#0070c0;fill-opacity:1;fill-rule:nonzero;stroke:none;font-family:ARIAL;-inkscape-font-specification:ARIAL">U</tspan>
    </text>
    <text
       id="text8891"
       x="262.74316"
       y="986.34753"
       style="font-size:15px">
      <tspan
         id="tspan8893"
         y="986.34753"
         x="262.74316"
         style="font-size:11.37330055px;font-variant:normal;font-weight:normal;writing-mode:lr-tb;fill:#0070c0;fill-opacity:1;fill-rule:nonzero;stroke:none;font-family:ARIAL;-inkscape-font-specification:ARIAL">2</tspan>
    </text>
    <path
       id="path8895"
       style="fill:none;stroke:#000000;stroke-width:2.70000005;stroke-linecap:round;stroke-linejoin:round;stroke-miterlimit:10;stroke-opacity:1;stroke-dasharray:none"
       d="m 186.19318,935.58504 0,7.5"
       inkscape:connector-curvature="0" />
    <text
       id="text8897"
       x="131.88068"
       y="957.28503"
       style="font-size:15px;fill:#0070c0;fill-opacity:1">
      <tspan
         id="tspan8899"
         y="957.28503"
         x="131.88068"
         style="font-size:17.49959945999999900px;font-variant:normal;font-weight:normal;writing-mode:lr-tb;fill:#0070c0;fill-opacity:1;fill-rule:nonzero;stroke:none;font-family:ARIAL;-inkscape-font-specification:ARIAL">r</tspan>
    </text>
    <text
       id="text8901"
       x="137.71819"
       y="959.69751"
       style="font-size:15px;fill:#0070c0;fill-opacity:1">
      <tspan
         id="tspan8903"
         y="959.69751"
         x="137.71819"
         style="font-size:11.37330055000000000px;font-variant:normal;font-weight:normal;writing-mode:lr-tb;fill:#0070c0;fill-opacity:1;fill-rule:nonzero;stroke:none;font-family:ARIAL;-inkscape-font-specification:ARIAL">Z</tspan>
    </text>
    <g
       ns0:preamble=""
       ns0:text="$$\\Delta$$\n"
       word-spacing="normal"
       letter-spacing="normal"
       font-size-adjust="none"
       font-stretch="normal"
       font-weight="normal"
       font-variant="normal"
       font-style="normal"
       stroke-miterlimit="10.433"
       xml:space="preserve"
       transform="matrix(1.4489796,0,0,-1.4489796,-509.3878,2008.0612)"
       id="content"
       style="font-style:normal;font-variant:normal;font-weight:normal;font-stretch:normal;letter-spacing:normal;word-spacing:normal;text-anchor:start;fill:#0070c0;stroke:#000000;stroke-linecap:butt;stroke-linejoin:miter;stroke-miterlimit:10.43299961000000000;stroke-opacity:1;stroke-dasharray:none;stroke-dashoffset:0;fill-opacity:1">
<path
   id="path26461"
   d="m 395.54,714.07 0,0.01 -0.01,0.02 -0.01,0.01 0,0.01 -0.01,0.01 0,0.01 -0.01,0.01 0,0 -0.01,0.01 0,0.01 -0.01,0.01 -0.01,0.01 0,0 -0.01,0.01 0,0 -0.01,0.01 -0.01,0.01 0,0 -0.01,0 -0.01,0.01 -0.01,0 -0.01,0.01 0,0 -0.01,0 -0.01,0 -0.02,0.01 -0.01,0 -0.01,0 -0.01,0 -0.02,0 -0.01,0 -0.02,0 c -0.17,0 -0.19,-0.05 -0.26,-0.18 l -0.06,-0.81 2.69,-5.38 h -5.38 l 2.69,5.38 0.06,0.81 -3.37,-6.75 c -0.04,-0.09 -0.04,-0.1 -0.04,-0.11 0,-0.08 0.06,-0.08 0.22,-0.08 h 6.91 c 0.16,0 0.22,0 0.22,0.08 0,0.01 0,0.02 -0.05,0.11 z"
   inkscape:connector-curvature="0"
   style="fill:#0070c0;stroke-width:0;fill-opacity:1" />
</g>    <g
       ns0:preamble=""
       ns0:text="$$\\Delta$$\n"
       word-spacing="normal"
       letter-spacing="normal"
       font-size-adjust="none"
       font-stretch="normal"
       font-weight="normal"
       font-variant="normal"
       font-style="normal"
       stroke-miterlimit="10.433"
       xml:space="preserve"
       transform="matrix(1.4489796,0,0,-1.4489796,-327.29283,2008.3963)"
       id="content-3"
       style="font-style:normal;font-variant:normal;font-weight:normal;font-stretch:normal;letter-spacing:normal;word-spacing:normal;text-anchor:start;fill:#0070c0;fill-opacity:1;stroke:#000000;stroke-linecap:butt;stroke-linejoin:miter;stroke-miterlimit:10.43299961;stroke-opacity:1;stroke-dasharray:none;stroke-dashoffset:0">
<path
   id="path26461-6"
   d="m 395.54,714.07 0,0.01 -0.01,0.02 -0.01,0.01 0,0.01 -0.01,0.01 0,0.01 -0.01,0.01 0,0 -0.01,0.01 0,0.01 -0.01,0.01 -0.01,0.01 0,0 -0.01,0.01 0,0 -0.01,0.01 -0.01,0.01 0,0 -0.01,0 -0.01,0.01 -0.01,0 -0.01,0.01 0,0 -0.01,0 -0.01,0 -0.02,0.01 -0.01,0 -0.01,0 -0.01,0 -0.02,0 -0.01,0 -0.02,0 c -0.17,0 -0.19,-0.05 -0.26,-0.18 l -0.06,-0.81 2.69,-5.38 h -5.38 l 2.69,5.38 0.06,0.81 -3.37,-6.75 c -0.04,-0.09 -0.04,-0.1 -0.04,-0.11 0,-0.08 0.06,-0.08 0.22,-0.08 h 6.91 c 0.16,0 0.22,0 0.22,0.08 0,0.01 0,0.02 -0.05,0.11 z"
   inkscape:connector-curvature="0"
   style="fill:#0070c0;fill-opacity:1;stroke-width:0" />
</g>  </g>
</svg>
