<?xml version="1.0" encoding="UTF-8" standalone="no"?>
<!-- Created with Inkscape (http://www.inkscape.org/) -->

<svg
   xmlns:dc="http://purl.org/dc/elements/1.1/"
   xmlns:cc="http://creativecommons.org/ns#"
   xmlns:rdf="http://www.w3.org/1999/02/22-rdf-syntax-ns#"
   xmlns:svg="http://www.w3.org/2000/svg"
   xmlns="http://www.w3.org/2000/svg"
   xmlns:sodipodi="http://sodipodi.sourceforge.net/DTD/sodipodi-0.dtd"
   xmlns:inkscape="http://www.inkscape.org/namespaces/inkscape"
   width="320"
   height="130"
   id="svg2"
   inkscape:label="Pozadí"
   version="1.1"
   inkscape:version="0.48.0 r9654"
   sodipodi:docname="patocka_step_down_princip.svg">
  <defs
     id="defs38232" />
  <sodipodi:namedview
     id="base"
     pagecolor="#ffffff"
     bordercolor="#666666"
     borderopacity="1.0"
     inkscape:pageopacity="0.0"
     inkscape:pageshadow="2"
     inkscape:zoom="1.979899"
     inkscape:cx="179.05515"
     inkscape:cy="125.03634"
     inkscape:document-units="px"
     inkscape:current-layer="layer1"
     showgrid="false"
     inkscape:window-width="1917"
     inkscape:window-height="1125"
     inkscape:window-x="-9"
     inkscape:window-y="-9"
     inkscape:window-maximized="1" />
  <metadata
     id="metadata38235">
    <rdf:RDF>
      <cc:Work
         rdf:about="">
        <dc:format>image/svg+xml</dc:format>
        <dc:type
           rdf:resource="http://purl.org/dc/dcmitype/StillImage" />
        <dc:title />
      </cc:Work>
    </rdf:RDF>
  </metadata>
  <g
     inkscape:label="Vrstva 1"
     inkscape:groupmode="layer"
     id="layer1"
     transform="translate(0,-922.36214)">
    <path
       inkscape:connector-curvature="0"
       d="m 162.96664,962.99549 c -0.2375,-6.9125 4.425,-12.7375 10.4125,-13.0125 6,-0.275 11.05,5.1 11.2875,12.0125 0.0125,0.3375 0.0125,0.6625 0,1 -0.2375,-6.9125 4.425,-12.7375 10.425,-13.0125 5.9875,-0.275 11.0375,5.1 11.275,12.0125 0.0125,0.3375 0.0125,0.6625 0,1 -0.2375,-6.9125 4.425,-12.7375 10.425,-13.0125 5.9875,-0.275 11.0375,5.1 11.2875,12.0125 0.0125,0.3375 0.0125,0.6625 0,1 -0.25,-6.9125 4.425,-12.7375 10.41251,-13.0125 5.9875,-0.275 11.05,5.1 11.2875,12.0125 0.0125,0.3375 0.0125,0.6625 0,1 m -87.13751,-0.3 0,0.75 m 87.00001,-0.75 0,0.75"
       style="fill:none;stroke:#000000;stroke-width:1.5;stroke-linecap:round;stroke-linejoin:round;stroke-miterlimit:10;stroke-opacity:1;stroke-dasharray:none"
       id="path25648" />
    <text
       style="font-size:15px"
       y="982.42053"
       x="202.39163"
       id="text25650">
      <tspan
         style="font-size:17.49959946px;font-variant:normal;font-weight:normal;writing-mode:lr-tb;fill:#000000;fill-opacity:1;fill-rule:nonzero;stroke:none;font-family:ARIAL;-inkscape-font-specification:ARIAL"
         x="202.39163"
         y="982.42053"
         id="tspan25652">L</tspan>
    </text>
    <path
       inkscape:connector-curvature="0"
       d="m 81.46664,945.28299 c 0,-2.9375 -2.375,-5.3125 -5.3125,-5.3125 -2.9375,0 -5.3125,2.375 -5.3125,5.3125 0,2.9375 2.375,5.3125 5.3125,5.3125 2.9375,0 5.3125,-2.375 5.3125,-5.3125 z"
       style="fill:#ffffff;fill-opacity:1;fill-rule:evenodd;stroke:none"
       id="path25654" />
    <path
       inkscape:connector-curvature="0"
       d="m 81.46664,945.28299 c 0,-2.9375 -2.375,-5.3125 -5.3125,-5.3125 -2.9375,0 -5.3125,2.375 -5.3125,5.3125 0,2.9375 2.375,5.3125 5.3125,5.3125 2.9375,0 5.3125,-2.375 5.3125,-5.3125 z"
       style="fill:none;stroke:#000000;stroke-width:1.5;stroke-linecap:round;stroke-linejoin:round;stroke-miterlimit:10;stroke-opacity:1;stroke-dasharray:none"
       id="path25656" />
    <path
       inkscape:connector-curvature="0"
       d="m 81.46664,980.70799 c 0,-2.925 -2.375,-5.3125 -5.3125,-5.3125 -2.9375,0 -5.3125,2.3875 -5.3125,5.3125 0,2.9375 2.375,5.325 5.3125,5.325 2.9375,0 5.3125,-2.3875 5.3125,-5.325 z"
       style="fill:#ffffff;fill-opacity:1;fill-rule:evenodd;stroke:none"
       id="path25658" />
    <path
       inkscape:connector-curvature="0"
       d="m 81.46664,980.70799 c 0,-2.925 -2.375,-5.3125 -5.3125,-5.3125 -2.9375,0 -5.3125,2.3875 -5.3125,5.3125 0,2.9375 2.375,5.325 5.3125,5.325 2.9375,0 5.3125,-2.3875 5.3125,-5.325 z"
       style="fill:none;stroke:#000000;stroke-width:1.5;stroke-linecap:round;stroke-linejoin:round;stroke-miterlimit:10;stroke-opacity:1;stroke-dasharray:none"
       id="path25660" />
    <path
       inkscape:connector-curvature="0"
       d="m 116.90414,962.99549 c 0,-2.9375 -2.375,-5.3125 -5.3125,-5.3125 -2.9375,0 -5.3125,2.375 -5.3125,5.3125 0,2.9375 2.375,5.3125 5.3125,5.3125 2.9375,0 5.3125,-2.375 5.3125,-5.3125 z"
       style="fill:#ffffff;fill-opacity:1;fill-rule:evenodd;stroke:none"
       id="path25662" />
    <path
       inkscape:connector-curvature="0"
       d="m 116.90414,962.99549 c 0,-2.9375 -2.375,-5.3125 -5.3125,-5.3125 -2.9375,0 -5.3125,2.375 -5.3125,5.3125 0,2.9375 2.375,5.3125 5.3125,5.3125 2.9375,0 5.3125,-2.375 5.3125,-5.3125 z"
       style="fill:none;stroke:#000000;stroke-width:1.5;stroke-linecap:round;stroke-linejoin:round;stroke-miterlimit:10;stroke-opacity:1;stroke-dasharray:none"
       id="path25664" />
    <path
       inkscape:connector-curvature="0"
       d="m 162.64164,963.44549 -45.75,-0.75"
       style="fill:none;stroke:#000000;stroke-width:1.5;stroke-linecap:round;stroke-linejoin:round;stroke-miterlimit:10;stroke-opacity:1;stroke-dasharray:none"
       id="path25666" />
    <path
       inkscape:connector-curvature="0"
       d="m 76.39164,985.94549 0,48.00001"
       style="fill:none;stroke:#000000;stroke-width:1.5;stroke-linecap:round;stroke-linejoin:round;stroke-miterlimit:10;stroke-opacity:1;stroke-dasharray:none"
       id="path25668" />
    <path
       inkscape:connector-curvature="0"
       d="m 23.14164,1033.9455 265.50001,0"
       style="fill:none;stroke:#000000;stroke-width:1.5;stroke-linecap:round;stroke-linejoin:round;stroke-miterlimit:10;stroke-opacity:1;stroke-dasharray:none"
       id="path25670" />
    <path
       inkscape:connector-curvature="0"
       d="m 249.64165,963.44549 39,0"
       style="fill:none;stroke:#000000;stroke-width:1.5;stroke-linecap:round;stroke-linejoin:round;stroke-miterlimit:10;stroke-opacity:1;stroke-dasharray:none"
       id="path25672" />
    <path
       inkscape:connector-curvature="0"
       d="m 79.70414,1033.858 c 0,-1.95 -1.5875,-3.5375 -3.55,-3.5375 -1.95,0 -3.5375,1.5875 -3.5375,3.5375 0,1.9625 1.5875,3.55 3.5375,3.55 1.9625,0 3.55,-1.5875 3.55,-3.55 z"
       style="fill:#000000;fill-opacity:1;fill-rule:evenodd;stroke:none"
       id="path25674" />
    <path
       inkscape:connector-curvature="0"
       d="m 79.70414,1033.858 c 0,-1.95 -1.5875,-3.5375 -3.55,-3.5375 -1.95,0 -3.5375,1.5875 -3.5375,3.5375 0,1.9625 1.5875,3.55 3.5375,3.55 1.9625,0 3.55,-1.5875 3.55,-3.55 z"
       style="fill:none;stroke:#000000;stroke-width:0.90000004;stroke-linecap:round;stroke-linejoin:round;stroke-miterlimit:10;stroke-opacity:1;stroke-dasharray:none"
       id="path25676" />
    <path
       inkscape:connector-curvature="0"
       d="m 104.89164,967.19549 -21.75,10.5"
       style="fill:none;stroke:#000000;stroke-width:5.0999999;stroke-linecap:round;stroke-linejoin:round;stroke-miterlimit:10;stroke-opacity:1;stroke-dasharray:none"
       id="path25678" />
    <path
       inkscape:connector-curvature="0"
       d="m 71.14164,944.69549 -48,0"
       style="fill:none;stroke:#000000;stroke-width:1.5;stroke-linecap:round;stroke-linejoin:round;stroke-miterlimit:10;stroke-opacity:1;stroke-dasharray:none"
       id="path25680" />
    <path
       inkscape:connector-curvature="0"
       d="m 28.32039,945.28299 c 0,-2.9375 -2.37875,-5.3125 -5.315,-5.3125 -2.935,0 -5.315,2.375 -5.315,5.3125 0,2.9375 2.38,5.3125 5.315,5.3125 2.93625,0 5.315,-2.375 5.315,-5.3125 z"
       style="fill:#ffffff;fill-opacity:1;fill-rule:evenodd;stroke:none"
       id="path25682" />
    <path
       inkscape:connector-curvature="0"
       d="m 28.32039,945.28299 c 0,-2.9375 -2.37875,-5.3125 -5.315,-5.3125 -2.935,0 -5.315,2.375 -5.315,5.3125 0,2.9375 2.38,5.3125 5.315,5.3125 2.93625,0 5.315,-2.375 5.315,-5.3125 z"
       style="fill:none;stroke:#000000;stroke-width:1.5;stroke-linecap:round;stroke-linejoin:round;stroke-miterlimit:10;stroke-opacity:1;stroke-dasharray:none"
       id="path25684" />
    <path
       inkscape:connector-curvature="0"
       d="m 28.32039,1033.858 c 0,-2.925 -2.37875,-5.3125 -5.315,-5.3125 -2.935,0 -5.315,2.3875 -5.315,5.3125 0,2.9375 2.38,5.325 5.315,5.325 2.93625,0 5.315,-2.3875 5.315,-5.325 z"
       style="fill:#ffffff;fill-opacity:1;fill-rule:evenodd;stroke:none"
       id="path25686" />
    <path
       inkscape:connector-curvature="0"
       d="m 28.32039,1033.858 c 0,-2.925 -2.37875,-5.3125 -5.315,-5.3125 -2.935,0 -5.315,2.3875 -5.315,5.3125 0,2.9375 2.38,5.325 5.315,5.325 2.93625,0 5.315,-2.3875 5.315,-5.325 z"
       style="fill:none;stroke:#000000;stroke-width:1.5;stroke-linecap:round;stroke-linejoin:round;stroke-miterlimit:10;stroke-opacity:1;stroke-dasharray:none"
       id="path25688" />
    <path
       inkscape:connector-curvature="0"
       d="m 294.06665,962.99549 c 0,-2.9375 -2.375,-5.3125 -5.3125,-5.3125 -2.9375,0 -5.3125,2.375 -5.3125,5.3125 0,2.9375 2.375,5.3125 5.3125,5.3125 2.9375,0 5.3125,-2.375 5.3125,-5.3125 z"
       style="fill:#ffffff;fill-opacity:1;fill-rule:evenodd;stroke:none"
       id="path25690" />
    <path
       inkscape:connector-curvature="0"
       d="m 294.06665,962.99549 c 0,-2.9375 -2.375,-5.3125 -5.3125,-5.3125 -2.9375,0 -5.3125,2.375 -5.3125,5.3125 0,2.9375 2.375,5.3125 5.3125,5.3125 2.9375,0 5.3125,-2.375 5.3125,-5.3125 z"
       style="fill:none;stroke:#000000;stroke-width:1.5;stroke-linecap:round;stroke-linejoin:round;stroke-miterlimit:10;stroke-opacity:1;stroke-dasharray:none"
       id="path25692" />
    <path
       inkscape:connector-curvature="0"
       d="m 294.06665,1033.858 c 0,-2.925 -2.375,-5.3125 -5.3125,-5.3125 -2.9375,0 -5.3125,2.3875 -5.3125,5.3125 0,2.9375 2.375,5.325 5.3125,5.325 2.9375,0 5.3125,-2.3875 5.3125,-5.325 z"
       style="fill:#ffffff;fill-opacity:1;fill-rule:evenodd;stroke:none"
       id="path25694" />
    <path
       inkscape:connector-curvature="0"
       d="m 294.06665,1033.858 c 0,-2.925 -2.375,-5.3125 -5.3125,-5.3125 -2.9375,0 -5.3125,2.3875 -5.3125,5.3125 0,2.9375 2.375,5.325 5.3125,5.325 2.9375,0 5.3125,-2.3875 5.3125,-5.325 z"
       style="fill:none;stroke:#000000;stroke-width:1.5;stroke-linecap:round;stroke-linejoin:round;stroke-miterlimit:10;stroke-opacity:1;stroke-dasharray:none"
       id="path25696" />
    <path
       inkscape:connector-curvature="0"
       d="m 288.64165,971.69549 0,45.75001"
       style="fill:none;stroke:#1f477d;stroke-width:0.90000004;stroke-linecap:round;stroke-linejoin:round;stroke-miterlimit:10;stroke-opacity:1;stroke-dasharray:none"
       id="path25698" />
    <path
       inkscape:connector-curvature="0"
       d="m 288.64165,1023.4455 -3.75,-8.25 -0.1875,-0.062 c 2.55,1.275 5.55,1.275 8.1,0 l 0.3375,0.062 -4.5,8.25 z"
       style="fill:#1f477d;fill-opacity:1;fill-rule:evenodd;stroke:none"
       id="path25700" />
    <path
       inkscape:connector-curvature="0"
       d="m 111.64164,973.94549 0,48.75001"
       style="fill:none;stroke:#1f477d;stroke-width:0.90000004;stroke-linecap:round;stroke-linejoin:round;stroke-miterlimit:10;stroke-opacity:1;stroke-dasharray:none"
       id="path25702" />
    <path
       inkscape:connector-curvature="0"
       d="m 111.64164,1028.6955 -3.75,-8.25 -0.35,0 c 2.55,1.275 5.55,1.275 8.1,0 l -0.25,0 -3.75,8.25 z"
       style="fill:#1f477d;fill-opacity:1;fill-rule:evenodd;stroke:none"
       id="path25704" />
    <path
       inkscape:connector-curvature="0"
       d="m 23.14164,955.94549 0,63.00001"
       style="fill:none;stroke:#1f477d;stroke-width:0.90000004;stroke-linecap:round;stroke-linejoin:round;stroke-miterlimit:10;stroke-opacity:1;stroke-dasharray:none"
       id="path25706" />
    <path
       inkscape:connector-curvature="0"
       d="m 23.14164,1024.9455 -4.5,-8.25 0.31375,0.2125 c 2.55,1.275 5.55125,1.275 8.1,0 l -0.16375,-0.2125 -3.75,8.25 z"
       style="fill:#1f477d;fill-opacity:1;fill-rule:evenodd;stroke:none"
       id="path25708" />
    <text
       style="font-size:15px"
       y="1002.933"
       x="117.90414"
       id="text25710">
      <tspan
         style="font-size:15.00030041px;font-variant:normal;font-weight:normal;writing-mode:lr-tb;fill:#285ea6;fill-opacity:1;fill-rule:nonzero;stroke:none;font-family:ARIAL;-inkscape-font-specification:ARIAL"
         x="117.90414"
         y="1002.933"
         id="tspan25712">U</tspan>
    </text>
    <text
       style="font-size:15px"
       y="1005.0079"
       x="128.74164"
       id="text25714">
      <tspan
         style="font-size:9.74790001px;font-variant:normal;font-weight:normal;writing-mode:lr-tb;fill:#285ea6;fill-opacity:1;fill-rule:nonzero;stroke:none;font-family:ARIAL;-inkscape-font-specification:ARIAL"
         x="128.74164"
         y="1005.0079"
         id="tspan25716">x</tspan>
    </text>
    <text
       style="font-size:15px"
       y="999.38293"
       x="293.02914"
       id="text25718">
      <tspan
         style="font-size:15.00030041px;font-variant:normal;font-weight:normal;writing-mode:lr-tb;fill:#285ea6;fill-opacity:1;fill-rule:nonzero;stroke:none;font-family:ARIAL;-inkscape-font-specification:ARIAL"
         x="293.02914"
         y="999.38293"
         id="tspan25720">U</tspan>
    </text>
    <text
       style="font-size:15px"
       y="1001.458"
       x="303.86664"
       id="text25722">
      <tspan
         style="font-size:9.74790001px;font-variant:normal;font-weight:normal;writing-mode:lr-tb;fill:#285ea6;fill-opacity:1;fill-rule:nonzero;stroke:none;font-family:ARIAL;-inkscape-font-specification:ARIAL"
         x="303.86664"
         y="1001.458"
         id="tspan25724">2</tspan>
    </text>
    <text
       style="font-size:15px"
       y="994.17053"
       x="27.280396"
       id="text25726">
      <tspan
         style="font-size:15.00030041px;font-variant:normal;font-weight:normal;writing-mode:lr-tb;fill:#285ea6;fill-opacity:1;fill-rule:nonzero;stroke:none;font-family:ARIAL;-inkscape-font-specification:ARIAL"
         x="27.280396"
         y="994.17053"
         id="tspan25728">U</tspan>
    </text>
    <text
       style="font-size:15px"
       y="996.24548"
       x="38.116669"
       id="text25730">
      <tspan
         style="font-size:9.74790001px;font-variant:normal;font-weight:normal;writing-mode:lr-tb;fill:#285ea6;fill-opacity:1;fill-rule:nonzero;stroke:none;font-family:ARIAL;-inkscape-font-specification:ARIAL"
         x="38.116669"
         y="996.24548"
         id="tspan25732">1</tspan>
    </text>
    <text
       style="font-size:15px"
       y="936.63293"
       x="72.679153"
       id="text25734">
      <tspan
         style="font-size:12.50010014px;font-variant:normal;font-weight:normal;writing-mode:lr-tb;fill:#000000;fill-opacity:1;fill-rule:nonzero;stroke:none;font-family:ARIAL;-inkscape-font-specification:ARIAL"
         x="72.679153"
         y="936.63293"
         id="tspan25736">1</tspan>
    </text>
    <text
       style="font-size:15px"
       y="972.05798"
       x="72.679153"
       id="text25738">
      <tspan
         style="font-size:12.50010014px;font-variant:normal;font-weight:normal;writing-mode:lr-tb;fill:#000000;fill-opacity:1;fill-rule:nonzero;stroke:none;font-family:ARIAL;-inkscape-font-specification:ARIAL"
         x="72.679153"
         y="972.05798"
         id="tspan25740">2</tspan>
    </text>
    <text
       style="font-size:15px"
       y="954.34546"
       x="108.11664"
       id="text25742">
      <tspan
         style="font-size:12.50010014px;font-variant:normal;font-weight:normal;writing-mode:lr-tb;fill:#000000;fill-opacity:1;fill-rule:nonzero;stroke:none;font-family:ARIAL;-inkscape-font-specification:ARIAL"
         x="108.11664"
         y="954.34546"
         id="tspan25744">3</tspan>
    </text>
    <path
       inkscape:connector-curvature="0"
       d="m 97.41664,955.90799 c -14.6125,12.8125 -9.85,23.925 10.625,24.8 0,0 0,0 0,0"
       style="fill:none;stroke:#688037;stroke-width:0.90000004;stroke-linecap:round;stroke-linejoin:round;stroke-miterlimit:10;stroke-opacity:1;stroke-dasharray:none"
       id="path25934" />
    <path
       inkscape:connector-curvature="0"
       d="m 97.39164,961.94549 0,-6 -6,-0.75"
       style="fill:none;stroke:#688037;stroke-width:0.90000004;stroke-linecap:round;stroke-linejoin:round;stroke-miterlimit:10;stroke-opacity:1;stroke-dasharray:none"
       id="path25936" />
    <path
       inkscape:connector-curvature="0"
       d="m 104.14164,984.44549 3.75,-3.75 -3.75,-4.5"
       style="fill:none;stroke:#688037;stroke-width:0.90000004;stroke-linecap:round;stroke-linejoin:round;stroke-miterlimit:10;stroke-opacity:1;stroke-dasharray:none"
       id="path25938" />
    <text
       style="font-size:15px"
       y="946.23303"
       x="89.079132"
       id="text25940">
      <tspan
         style="font-size:15.00030041px;font-variant:normal;font-weight:normal;writing-mode:lr-tb;fill:#00b050;fill-opacity:1;fill-rule:nonzero;stroke:none;font-family:ARIAL;-inkscape-font-specification:ARIAL"
         x="89.079132"
         y="946.23303"
         id="tspan25942">t</tspan>
    </text>
    <text
       style="font-size:15px"
       y="948.30798"
       x="93.241638"
       id="text25944">
      <tspan
         style="font-size:9.74790001px;font-variant:normal;font-weight:normal;writing-mode:lr-tb;fill:#00b050;fill-opacity:1;fill-rule:nonzero;stroke:none;font-family:ARIAL;-inkscape-font-specification:ARIAL"
         x="93.241638"
         y="948.30798"
         id="tspan25946">1</tspan>
    </text>
    <text
       style="font-size:15px"
       y="993.97046"
       x="87.304138"
       id="text25948">
      <tspan
         style="font-size:15.00030041px;font-variant:normal;font-weight:normal;writing-mode:lr-tb;fill:#00b050;fill-opacity:1;fill-rule:nonzero;stroke:none;font-family:ARIAL;-inkscape-font-specification:ARIAL"
         x="87.304138"
         y="993.97046"
         id="tspan25950">t</tspan>
    </text>
    <text
       style="font-size:15px"
       y="996.04553"
       x="91.479141"
       id="text25952">
      <tspan
         style="font-size:9.74790001px;font-variant:normal;font-weight:normal;writing-mode:lr-tb;fill:#00b050;fill-opacity:1;fill-rule:nonzero;stroke:none;font-family:ARIAL;-inkscape-font-specification:ARIAL"
         x="91.479141"
         y="996.04553"
         id="tspan25954">2</tspan>
    </text>
    <text
       style="font-size:15px"
       y="939.88147"
       x="176.84848"
       id="text26340">
      <tspan
         style="font-size:15.00030041px;font-variant:normal;font-weight:normal;writing-mode:lr-tb;fill:#000000;fill-opacity:1;fill-rule:nonzero;stroke:none;font-family:ARIAL;-inkscape-font-specification:ARIAL"
         x="176.84848"
         y="939.88147"
         id="tspan26342">U</tspan>
    </text>
    <text
       style="font-size:15px"
       y="941.95642"
       x="187.67349"
       id="text26344">
      <tspan
         style="font-size:9.74790001px;font-variant:normal;font-weight:normal;writing-mode:lr-tb;fill:#000000;fill-opacity:1;fill-rule:nonzero;stroke:none;font-family:ARIAL;-inkscape-font-specification:ARIAL"
         x="187.67349"
         y="941.95642"
         id="tspan26346">L</tspan>
    </text>
    <text
       style="font-size:20.92801476px"
       y="994.85211"
       x="184.44646"
       id="text26348"
       transform="scale(1.0524089,0.95020102)">
      <tspan
         style="font-size:9.06702137px;font-variant:normal;font-weight:normal;writing-mode:lr-tb;fill:#000000;fill-opacity:1;fill-rule:nonzero;stroke:none;font-family:ARIAL;-inkscape-font-specification:ARIAL"
         x="184.44646 190.49396"
         y="994.85211"
         sodipodi:role="line"
         id="tspan26350">AV</tspan>
    </text>
    <text
       style="font-size:15px"
       y="939.88147"
       x="209.52423"
       id="text26352">
      <tspan
         style="font-size:15.00030041px;font-variant:normal;font-weight:normal;writing-mode:lr-tb;fill:#000000;fill-opacity:1;fill-rule:nonzero;stroke:none;font-family:ARIAL;-inkscape-font-specification:ARIAL"
         x="209.52423 218.28412"
         y="939.88147"
         sodipodi:role="line"
         id="tspan26354">=</tspan>
    </text>
    <text
       style="font-size:15px"
       y="939.88147"
       x="222.44925"
       id="text26356">
      <tspan
         style="font-size:15.00030041px;font-variant:normal;font-weight:normal;writing-mode:lr-tb;fill:#000000;fill-opacity:1;fill-rule:nonzero;stroke:none;font-family:ARIAL;-inkscape-font-specification:ARIAL"
         x="222.44925"
         y="939.88147"
         id="tspan26358">0</tspan>
    </text>
  </g>
</svg>
