<?xml version="1.0" encoding="UTF-8" standalone="no"?>
<!-- Created with Inkscape (http://www.inkscape.org/) -->

<svg
   xmlns:dc="http://purl.org/dc/elements/1.1/"
   xmlns:cc="http://creativecommons.org/ns#"
   xmlns:rdf="http://www.w3.org/1999/02/22-rdf-syntax-ns#"
   xmlns:svg="http://www.w3.org/2000/svg"
   xmlns="http://www.w3.org/2000/svg"
   xmlns:sodipodi="http://sodipodi.sourceforge.net/DTD/sodipodi-0.dtd"
   xmlns:inkscape="http://www.inkscape.org/namespaces/inkscape"
   width="170"
   height="100"
   id="svg2"
   inkscape:label="Pozadí"
   version="1.1"
   inkscape:version="0.48.0 r9654"
   sodipodi:docname="Nový dokument 59">
  <defs
     id="defs41718">
    <clipPath
       clipPathUnits="userSpaceOnUse"
       id="clipPath33066">
      <path
         inkscape:connector-curvature="0"
         d="m 0,0 261.08,0 0,465.43 L 0,465.43 0,0 z"
         id="path33068" />
    </clipPath>
    <clipPath
       clipPathUnits="userSpaceOnUse"
       id="clipPath33074">
      <path
         inkscape:connector-curvature="0"
         d="m 0,-0.40549 260.67,0 0,465.83 -260.67,0 0,-465.83 z"
         clip-rule="evenodd"
         id="path33076" />
    </clipPath>
    <clipPath
       clipPathUnits="userSpaceOnUse"
       id="clipPath33086">
      <path
         inkscape:connector-curvature="0"
         d="m 0,-0.40549 260.67,0 0,465.83 -260.67,0 0,-465.83 z"
         clip-rule="evenodd"
         id="path33088" />
    </clipPath>
    <clipPath
       clipPathUnits="userSpaceOnUse"
       id="clipPath33098">
      <path
         inkscape:connector-curvature="0"
         d="m 0,-0.40549 260.67,0 0,465.83 -260.67,0 0,-465.83 z"
         clip-rule="evenodd"
         id="path33100" />
    </clipPath>
    <clipPath
       clipPathUnits="userSpaceOnUse"
       id="clipPath33110">
      <path
         inkscape:connector-curvature="0"
         d="m 0,-0.40549 260.67,0 0,465.83 -260.67,0 0,-465.83 z"
         clip-rule="evenodd"
         id="path33112" />
    </clipPath>
  </defs>
  <sodipodi:namedview
     id="base"
     pagecolor="#ffffff"
     bordercolor="#666666"
     borderopacity="1.0"
     inkscape:pageopacity="0.0"
     inkscape:pageshadow="2"
     inkscape:zoom="2.8"
     inkscape:cx="185.25369"
     inkscape:cy="91.843442"
     inkscape:document-units="px"
     inkscape:current-layer="g33060"
     showgrid="false"
     inkscape:window-width="1917"
     inkscape:window-height="1125"
     inkscape:window-x="-9"
     inkscape:window-y="-9"
     inkscape:window-maximized="1" />
  <metadata
     id="metadata41721">
    <rdf:RDF>
      <cc:Work
         rdf:about="">
        <dc:format>image/svg+xml</dc:format>
        <dc:type
           rdf:resource="http://purl.org/dc/dcmitype/StillImage" />
        <dc:title></dc:title>
      </cc:Work>
    </rdf:RDF>
  </metadata>
  <g
     inkscape:label="Vrstva 1"
     inkscape:groupmode="layer"
     id="layer1"
     transform="translate(0,-952.36218)">
    <path
       inkscape:connector-curvature="0"
       d="m 122.14179,1015.1869 c 0,5.3125 4.3125,9.6125 9.625,9.6125 5.3125,0 9.625,-4.3 9.625,-9.6125 0,-5.3125 -4.3125,-9.625 -9.625,-9.625 -5.3125,0 -9.625,4.3125 -9.625,9.625 z"
       style="fill:#ffffff;fill-opacity:1;fill-rule:evenodd;stroke:none"
       id="path33004" />
    <path
       inkscape:connector-curvature="0"
       d="m 122.14179,1015.1869 c 0,5.3125 4.3125,9.6125 9.625,9.6125 5.3125,0 9.625,-4.3 9.625,-9.6125 0,-5.3125 -4.3125,-9.625 -9.625,-9.625 -5.3125,0 -9.625,4.3125 -9.625,9.625 z"
       style="fill:none;stroke:#000000;stroke-width:0.90000004;stroke-linecap:round;stroke-linejoin:round;stroke-miterlimit:10;stroke-opacity:1;stroke-dasharray:none"
       id="path33006" />
    <path
       inkscape:connector-curvature="0"
       d="m 14.166786,1047.8369 118.500004,0"
       style="fill:none;stroke:#000000;stroke-width:0.90000004;stroke-linecap:round;stroke-linejoin:round;stroke-miterlimit:10;stroke-opacity:1;stroke-dasharray:none"
       id="path33008" />
    <path
       inkscape:connector-curvature="0"
       d="m 132.66679,1024.5869 0,23.25"
       style="fill:none;stroke:#000000;stroke-width:0.90000004;stroke-linecap:round;stroke-linejoin:round;stroke-miterlimit:10;stroke-opacity:1;stroke-dasharray:none"
       id="path33010" />
    <path
       inkscape:connector-curvature="0"
       d="m 132.66679,1005.8369 0,-20.24997"
       style="fill:none;stroke:#000000;stroke-width:0.90000004;stroke-linecap:round;stroke-linejoin:round;stroke-miterlimit:10;stroke-opacity:1;stroke-dasharray:none"
       id="path33012" />
    <path
       inkscape:connector-curvature="0"
       d="m 14.166786,985.58693 118.500004,0"
       style="fill:none;stroke:#000000;stroke-width:0.90000004;stroke-linecap:round;stroke-linejoin:round;stroke-miterlimit:10;stroke-opacity:1;stroke-dasharray:none"
       id="path33014" />
    <path
       inkscape:connector-curvature="0"
       d="m 12.054286,1048.0494 c 0,1.4375 1.1625,2.6 2.6,2.6 1.4375,0 2.6,-1.1625 2.6,-2.6 0,-1.4375 -1.1625,-2.6 -2.6,-2.6 -1.4375,0 -2.6,1.1625 -2.6,2.6 z"
       style="fill:#ffffff;fill-opacity:1;fill-rule:evenodd;stroke:none"
       id="path33016" />
    <path
       inkscape:connector-curvature="0"
       d="m 12.054286,1048.0494 c 0,1.4375 1.1625,2.6 2.6,2.6 1.4375,0 2.6,-1.1625 2.6,-2.6 0,-1.4375 -1.1625,-2.6 -2.6,-2.6 -1.4375,0 -2.6,1.1625 -2.6,2.6 z"
       style="fill:none;stroke:#000000;stroke-width:0.90000004;stroke-linecap:round;stroke-linejoin:round;stroke-miterlimit:10;stroke-opacity:1;stroke-dasharray:none"
       id="path33018" />
    <path
       inkscape:connector-curvature="0"
       d="m 11.941786,985.79943 c 0,1.4375 1.1625,2.6 2.6,2.6 1.4375,0 2.6,-1.1625 2.6,-2.6 0,-1.4375 -1.1625,-2.6 -2.6,-2.6 -1.4375,0 -2.6,1.1625 -2.6,2.6 z"
       style="fill:#ffffff;fill-opacity:1;fill-rule:evenodd;stroke:none"
       id="path33020" />
    <path
       inkscape:connector-curvature="0"
       d="m 11.941786,985.79943 c 0,1.4375 1.1625,2.6 2.6,2.6 1.4375,0 2.6,-1.1625 2.6,-2.6 0,-1.4375 -1.1625,-2.6 -2.6,-2.6 -1.4375,0 -2.6,1.1625 -2.6,2.6 z"
       style="fill:none;stroke:#000000;stroke-width:0.90000004;stroke-linecap:round;stroke-linejoin:round;stroke-miterlimit:10;stroke-opacity:1;stroke-dasharray:none"
       id="path33022" />
    <path
       inkscape:connector-curvature="0"
       d="m 148.41679,990.08693 0,40.49997"
       style="fill:none;stroke:#285ea6;stroke-width:0.90000004;stroke-linecap:round;stroke-linejoin:round;stroke-miterlimit:10;stroke-opacity:1;stroke-dasharray:none"
       id="path33024" />
    <path
       inkscape:connector-curvature="0"
       d="m 151.41679,1030.5869 -3,7.5 -2.25,-7.5 5.25,0 z"
       style="fill:#285ea6;fill-opacity:1;fill-rule:evenodd;stroke:none"
       id="path33026" />
    <path
       inkscape:connector-curvature="0"
       d="m 20.916786,975.83693 17.25,0"
       style="fill:none;stroke:#688037;stroke-width:0.90000004;stroke-linecap:round;stroke-linejoin:round;stroke-miterlimit:10;stroke-opacity:1;stroke-dasharray:none"
       id="path33028" />
    <path
       inkscape:connector-curvature="0"
       d="m 37.416786,973.58693 8.25,2.25 -8.25,3 0,-5.25 z"
       style="fill:#688037;fill-opacity:1;fill-rule:evenodd;stroke:none"
       id="path33030" />
    <text
       style="font-size:15px"
       y="1030.0745"
       x="154.77928"
       id="text33032">
      <tspan
         style="font-size:15.00030041px;font-style:italic;font-variant:normal;font-weight:normal;writing-mode:lr-tb;fill:#1f477d;fill-opacity:1;fill-rule:nonzero;stroke:none;font-family:ARIAL;-inkscape-font-specification:ARIAL Italic"
         x="154.77928"
         y="1030.0745"
         id="tspan33034">U</tspan>
    </text>
    <text
       style="font-size:15px"
       y="1032.137"
       x="165.60428"
       id="text33036">
      <tspan
         style="font-size:9.74790001px;font-style:italic;font-variant:normal;font-weight:normal;writing-mode:lr-tb;fill:#1f477d;fill-opacity:1;fill-rule:nonzero;stroke:none;font-family:ARIAL;-inkscape-font-specification:ARIAL Italic"
         x="165.60428"
         y="1032.137"
         id="tspan33038">i</tspan>
    </text>
    <path
       inkscape:connector-curvature="0"
       d="m 56.166786,990.08693 28.5,0 0,-9 -28.5,0 0,9 z"
       style="fill:#ffffff;fill-opacity:1;fill-rule:evenodd;stroke:none"
       id="path33040" />
    <path
       inkscape:connector-curvature="0"
       d="m 56.166786,990.08693 28.5,0 0,-9 -28.5,0 0,9 z"
       style="fill:none;stroke:#000000;stroke-width:0.90000004;stroke-linecap:round;stroke-linejoin:round;stroke-miterlimit:10;stroke-opacity:1;stroke-dasharray:none"
       id="path33042" />
    <text
       style="font-size:15px"
       y="1020.7494"
       x="127.79179"
       id="text33044">
      <tspan
         style="font-size:15.00030041px;font-variant:normal;font-weight:normal;writing-mode:lr-tb;fill:#000000;fill-opacity:1;fill-rule:nonzero;stroke:none;font-family:ARIAL;-inkscape-font-specification:ARIAL"
         x="127.79179"
         y="1020.7494"
         id="tspan33046">=</tspan>
    </text>
    <path
       inkscape:connector-curvature="0"
       d="m 45.666786,961.58693 -18,0"
       style="fill:none;stroke:#688037;stroke-width:0.90000004;stroke-linecap:round;stroke-linejoin:round;stroke-miterlimit:10;stroke-opacity:1;stroke-dasharray:none"
       id="path33048" />
    <path
       inkscape:connector-curvature="0"
       d="m 28.416786,964.58693 -7.5,-3 7.5,-2.25 0,5.25 z"
       style="fill:#688037;fill-opacity:1;fill-rule:evenodd;stroke:none"
       id="path33050" />
    <text
       style="font-size:15px"
       y="975.22443"
       x="63.629284"
       id="text33052">
      <tspan
         style="font-size:15.00030041px;font-variant:normal;font-weight:normal;writing-mode:lr-tb;fill:#000000;fill-opacity:1;fill-rule:nonzero;stroke:none;font-family:ARIAL;-inkscape-font-specification:ARIAL"
         x="63.629284"
         y="975.22443"
         id="tspan33054">R</tspan>
    </text>
    <text
       style="font-size:15px"
       y="977.28693"
       x="74.454285"
       id="text33056">
      <tspan
         style="font-size:9.74790001px;font-variant:normal;font-weight:normal;writing-mode:lr-tb;fill:#000000;fill-opacity:1;fill-rule:nonzero;stroke:none;font-family:ARIAL;-inkscape-font-specification:ARIAL"
         x="74.454285"
         y="977.28693"
         id="tspan33058">i</tspan>
    </text>
    <g
       id="g33060"
       transform="matrix(0.206675,0,-7.5375e-7,-0.3690875,5.3489285,973.45479)">
      <g
         id="g33062"
         transform="matrix(0.27578,0,0,0.1547,-13.824405,-21.288022)">
        <g
           id="g33064"
           clip-path="url(#clipPath33066)">
          <g
             id="g33070">
            <g
               id="g33072"
               clip-path="url(#clipPath33074)">
              <text
                 transform="matrix(1,0,0,-1,156.47,31.12)"
                 id="text33078">
                <tspan
                   style="font-size:186.38000488px;font-style:italic;font-variant:normal;font-weight:normal;writing-mode:lr-tb;fill:#000000;fill-opacity:1;fill-rule:nonzero;stroke:none;font-family:Times New Roman;-inkscape-font-specification:'Times New Roman, Italic'"
                   x="0"
                   y="0"
                   id="tspan33080">I</tspan>
              </text>
            </g>
          </g>
          <g
             id="g33082">
            <g
               id="g33084"
               clip-path="url(#clipPath33086)">
              <text
                 transform="matrix(1,0,0,-1,154.77,310.62)"
                 id="text33090">
                <tspan
                   style="font-size:186.38000488px;font-style:italic;font-variant:normal;font-weight:normal;writing-mode:lr-tb;fill:#000000;fill-opacity:1;fill-rule:nonzero;stroke:none;font-family:Times New Roman;-inkscape-font-specification:'Times New Roman, Italic'"
                   x="0"
                   y="0"
                   id="tspan33092">I</tspan>
              </text>
            </g>
          </g>
          <g
             id="g33094">
            <g
               id="g33096"
               clip-path="url(#clipPath33098)">
              <text
                 transform="matrix(1,0,0,-1,25.288,31.12)"
                 id="text33102">
                <tspan
                   style="font-size:186.38000488px;font-variant:normal;font-weight:normal;writing-mode:lr-tb;fill:#000000;fill-opacity:1;fill-rule:nonzero;stroke:none;font-family:SYMBOL;-inkscape-font-specification:SYMBOL"
                   x="0"
                   y="0"
                   id="tspan33104"></tspan>
              </text>
            </g>
          </g>
          <g
             id="g33106">
            <g
               id="g33108"
               clip-path="url(#clipPath33110)">
              <text
                 transform="matrix(1,0,0,-1,25.288,310.62)"
                 id="text33114">
                <tspan
                   style="font-size:186.38000488px;font-variant:normal;font-weight:normal;writing-mode:lr-tb;fill:#000000;fill-opacity:1;fill-rule:nonzero;stroke:none;font-family:SYMBOL;-inkscape-font-specification:SYMBOL"
                   x="0"
                   y="0"
                   id="tspan33116"></tspan>
              </text>
            </g>
          </g>
        </g>
      </g>
      <text
         xml:space="preserve"
         style="font-size:46.22157669px;font-style:normal;font-variant:normal;font-weight:normal;font-stretch:normal;line-height:125%;letter-spacing:0px;word-spacing:0px;fill:#000000;fill-opacity:1;stroke:none;font-family:Segoe UI;-inkscape-font-specification:Segoe UI"
         x="-10.778187"
         y="21.492174"
         id="text41843"
         sodipodi:linespacing="125%"
         transform="matrix(1.3363515,0,-2.7290952e-6,-0.74830612,0,0)"><tspan
           sodipodi:role="line"
           id="tspan41845"
           x="-10.778187"
           y="21.492174">+</tspan></text>
      <text
         xml:space="preserve"
         style="font-size:62.76609039px;font-style:normal;font-variant:normal;font-weight:normal;font-stretch:normal;line-height:125%;letter-spacing:0px;word-spacing:0px;fill:#000000;fill-opacity:1;stroke:none;font-family:Segoe UI;-inkscape-font-specification:Segoe UI"
         x="-9.6561537"
         y="-44.667282"
         id="text41847"
         sodipodi:linespacing="125%"
         transform="matrix(1.6815966,0,-2.1687903e-6,-0.59467294,0,0)"><tspan
           sodipodi:role="line"
           id="tspan41849"
           x="-9.6561537"
           y="-44.667282">-</tspan></text>
    </g>
  </g>
</svg>
