<?xml version="1.0" encoding="UTF-8" standalone="no"?>
<!-- Created with Inkscape (http://www.inkscape.org/) -->

<svg
   xmlns:dc="http://purl.org/dc/elements/1.1/"
   xmlns:cc="http://creativecommons.org/ns#"
   xmlns:rdf="http://www.w3.org/1999/02/22-rdf-syntax-ns#"
   xmlns:svg="http://www.w3.org/2000/svg"
   xmlns="http://www.w3.org/2000/svg"
   xmlns:sodipodi="http://sodipodi.sourceforge.net/DTD/sodipodi-0.dtd"
   xmlns:inkscape="http://www.inkscape.org/namespaces/inkscape"
   width="148"
   height="130"
   id="svg2"
   inkscape:label="Pozadí"
   version="1.1"
   inkscape:version="0.48.0 r9654"
   sodipodi:docname="patocka_buck_boost_princip.svg">
  <defs
     id="defs38232" />
  <sodipodi:namedview
     id="base"
     pagecolor="#ffffff"
     bordercolor="#666666"
     borderopacity="1.0"
     inkscape:pageopacity="0.0"
     inkscape:pageshadow="2"
     inkscape:zoom="3.959798"
     inkscape:cx="123.38264"
     inkscape:cy="90.423343"
     inkscape:document-units="px"
     inkscape:current-layer="layer1"
     showgrid="false"
     inkscape:window-width="1917"
     inkscape:window-height="1125"
     inkscape:window-x="-9"
     inkscape:window-y="-9"
     inkscape:window-maximized="1" />
  <metadata
     id="metadata38235">
    <rdf:RDF>
      <cc:Work
         rdf:about="">
        <dc:format>image/svg+xml</dc:format>
        <dc:type
           rdf:resource="http://purl.org/dc/dcmitype/StillImage" />
        <dc:title />
      </cc:Work>
    </rdf:RDF>
  </metadata>
  <g
     inkscape:label="Vrstva 1"
     inkscape:groupmode="layer"
     id="layer1"
     transform="translate(0,-922.36214)"
     style="display:inline">
    <path
       inkscape:connector-curvature="0"
       d="m 66.083396,934.82992 -59.4233582,0"
       style="fill:none;stroke:#000000;stroke-width:1.03344965;stroke-linecap:round;stroke-linejoin:round;stroke-miterlimit:10;stroke-opacity:1;stroke-dasharray:none"
       id="path25640" />
    <path
       inkscape:connector-curvature="0"
       d="m 77.968069,962.21633 0,13.43484"
       style="fill:none;stroke:#000000;stroke-width:1.03344965;stroke-linecap:round;stroke-linejoin:round;stroke-miterlimit:10;stroke-opacity:1;stroke-dasharray:none"
       id="path25642" />
    <path
       inkscape:connector-curvature="0"
       d="m 77.968069,1035.0745 0,13.4349"
       style="fill:none;stroke:#000000;stroke-width:1.03344965;stroke-linecap:round;stroke-linejoin:round;stroke-miterlimit:10;stroke-opacity:1;stroke-dasharray:none"
       id="path25840" />
    <path
       inkscape:connector-curvature="0"
       d="m 90.369464,934.82992 50.122306,0"
       style="fill:none;stroke:#000000;stroke-width:0.6200698;stroke-linecap:round;stroke-linejoin:round;stroke-miterlimit:10;stroke-opacity:1;stroke-dasharray:none"
       id="path25842" />
    <path
       inkscape:connector-curvature="0"
       d="m 77.847496,1035.2123 c -4.762478,0.1637 -8.77571,-3.0486 -8.965176,-7.1738 -0.189466,-4.1338 3.513732,-7.6131 8.276213,-7.7767 0.223916,-0.01 0.456443,-0.01 0.688963,0 -4.762478,0.1636 -8.77571,-3.0487 -8.965176,-7.1825 -0.189466,-4.1252 3.513732,-7.6045 8.276213,-7.7681 0.223916,-0.01 0.456443,-0.01 0.688963,0 -4.762478,0.1636 -8.77571,-3.0487 -8.965176,-7.18249 -0.189466,-4.12519 3.513732,-7.60447 8.276213,-7.77671 0.223916,0 0.456443,0 0.688963,0 -4.762478,0.17224 -8.77571,-3.04867 -8.965176,-7.17387 -0.189466,-4.12518 3.513732,-7.61308 8.276213,-7.77671 0.223916,-0.009 0.456443,-0.009 0.688963,0 m 0.120573,59.67308 0,0 m 0,-59.42333 0,0"
       style="fill:none;stroke:#000000;stroke-width:1.03344965;stroke-linecap:round;stroke-linejoin:round;stroke-miterlimit:10;stroke-opacity:1;stroke-dasharray:none"
       id="path25844" />
    <path
       inkscape:connector-curvature="0"
       d="m 65.928378,938.78286 c -2.023839,0 -3.660134,-1.6363 -3.660134,-3.66014 0,-2.02383 1.636295,-3.66013 3.660134,-3.66013 2.023837,0 3.660133,1.6363 3.660133,3.66013 0,2.02384 -1.636296,3.66014 -3.660133,3.66014 z"
       style="fill:#ffffff;fill-opacity:1;fill-rule:evenodd;stroke:none"
       id="path25850" />
    <path
       inkscape:connector-curvature="0"
       d="m 65.928378,938.78286 c -2.023839,0 -3.660134,-1.6363 -3.660134,-3.66014 0,-2.02383 1.636295,-3.66013 3.660134,-3.66013 2.023837,0 3.660133,1.6363 3.660133,3.66013 0,2.02384 -1.636296,3.66014 -3.660133,3.66014 z"
       style="fill:none;stroke:#000000;stroke-width:1.03344965;stroke-linecap:round;stroke-linejoin:round;stroke-miterlimit:10;stroke-opacity:1;stroke-dasharray:none"
       id="path25852" />
    <path
       inkscape:connector-curvature="0"
       d="m 90.343631,938.78286 c -2.023841,0 -3.668747,-1.6363 -3.668747,-3.66014 0,-2.02383 1.644906,-3.66013 3.668747,-3.66013 2.023832,0 3.660127,1.6363 3.660127,3.66013 0,2.02384 -1.636295,3.66014 -3.660127,3.66014 z"
       style="fill:#ffffff;fill-opacity:1;fill-rule:evenodd;stroke:none"
       id="path25854" />
    <path
       inkscape:connector-curvature="0"
       d="m 90.343631,938.78286 c -2.023841,0 -3.668747,-1.6363 -3.668747,-3.66014 0,-2.02383 1.644906,-3.66013 3.668747,-3.66013 2.023832,0 3.660127,1.6363 3.660127,3.66013 0,2.02384 -1.636295,3.66014 -3.660127,3.66014 z"
       style="fill:none;stroke:#000000;stroke-width:1.03344965;stroke-linecap:round;stroke-linejoin:round;stroke-miterlimit:10;stroke-opacity:1;stroke-dasharray:none"
       id="path25856" />
    <path
       inkscape:connector-curvature="0"
       d="m 78.131698,963.1981 c -2.015227,0 -3.660135,-1.63629 -3.660135,-3.66012 0,-2.02385 1.644908,-3.66014 3.660135,-3.66014 2.023841,0 3.668747,1.63629 3.668747,3.66014 0,2.02383 -1.644906,3.66012 -3.668747,3.66012 z"
       style="fill:#ffffff;fill-opacity:1;fill-rule:evenodd;stroke:none"
       id="path25858" />
    <path
       inkscape:connector-curvature="0"
       d="m 78.131698,963.1981 c -2.015227,0 -3.660135,-1.63629 -3.660135,-3.66012 0,-2.02385 1.644908,-3.66014 3.660135,-3.66014 2.023841,0 3.668747,1.63629 3.668747,3.66014 0,2.02383 -1.644906,3.66012 -3.668747,3.66012 z"
       style="fill:none;stroke:#000000;stroke-width:1.03344965;stroke-linecap:round;stroke-linejoin:round;stroke-miterlimit:10;stroke-opacity:1;stroke-dasharray:none"
       id="path25860" />
    <path
       inkscape:connector-curvature="0"
       d="m 7.1767627,1047.9927 133.3150073,0"
       style="fill:none;stroke:#000000;stroke-width:1.03344965;stroke-linecap:round;stroke-linejoin:round;stroke-miterlimit:10;stroke-opacity:1;stroke-dasharray:none"
       id="path25862" />
    <path
       inkscape:connector-curvature="0"
       d="m 81.068418,954.98218 7.23415,-14.98502"
       style="fill:none;stroke:#000000;stroke-width:3.51372886;stroke-linecap:round;stroke-linejoin:round;stroke-miterlimit:10;stroke-opacity:1;stroke-dasharray:none"
       id="path25864" />
    <path
       inkscape:connector-curvature="0"
       d="m 11.491415,935.12272 c 0,-2.02383 -1.6449077,-3.66013 -3.6601343,-3.66013 -2.0238389,0 -3.668746,1.6363 -3.668746,3.66013 0,2.02384 1.6449071,3.66014 3.668746,3.66014 2.0152266,0 3.6601343,-1.6363 3.6601343,-3.66014 z"
       style="fill:#ffffff;fill-opacity:1;fill-rule:evenodd;stroke:none"
       id="path25866" />
    <path
       inkscape:connector-curvature="0"
       d="m 11.491415,935.12272 c 0,-2.02383 -1.6449077,-3.66013 -3.6601343,-3.66013 -2.0238389,0 -3.668746,1.6363 -3.668746,3.66013 0,2.02384 1.6449071,3.66014 3.668746,3.66014 2.0152266,0 3.6601343,-1.6363 3.6601343,-3.66014 z"
       style="fill:none;stroke:#000000;stroke-width:1.03344965;stroke-linecap:round;stroke-linejoin:round;stroke-miterlimit:10;stroke-opacity:1;stroke-dasharray:none"
       id="path25868" />
    <path
       inkscape:connector-curvature="0"
       d="m 11.000526,1048.0271 c 0,-2.0238 -1.6362951,-3.6601 -3.6601339,-3.6601 -2.0238386,0 -3.6601339,1.6363 -3.6601339,3.6601 0,2.0238 1.6362953,3.6601 3.6601339,3.6601 2.0238388,0 3.6601339,-1.6363 3.6601339,-3.6601 z"
       style="fill:#ffffff;fill-opacity:1;fill-rule:evenodd;stroke:none"
       id="path25870" />
    <path
       inkscape:connector-curvature="0"
       d="m 11.000526,1048.0271 c 0,-2.0238 -1.6362951,-3.6601 -3.6601339,-3.6601 -2.0238386,0 -3.6601339,1.6363 -3.6601339,3.6601 0,2.0238 1.6362953,3.6601 3.6601339,3.6601 2.0238388,0 3.6601339,-1.6363 3.6601339,-3.6601 z"
       style="fill:none;stroke:#000000;stroke-width:1.03344965;stroke-linecap:round;stroke-linejoin:round;stroke-miterlimit:10;stroke-opacity:1;stroke-dasharray:none"
       id="path25872" />
    <path
       inkscape:connector-curvature="0"
       d="m 144.04856,935.12272 c 0,-2.02383 -1.63629,-3.66013 -3.66013,-3.66013 -2.02384,0 -3.66014,1.6363 -3.66014,3.66013 0,2.02384 1.6363,3.66014 3.66014,3.66014 2.02384,0 3.66013,-1.6363 3.66013,-3.66014 z"
       style="fill:#ffffff;fill-opacity:1;fill-rule:evenodd;stroke:none"
       id="path25874" />
    <path
       inkscape:connector-curvature="0"
       d="m 144.04856,935.12272 c 0,-2.02383 -1.63629,-3.66013 -3.66013,-3.66013 -2.02384,0 -3.66014,1.6363 -3.66014,3.66013 0,2.02384 1.6363,3.66014 3.66014,3.66014 2.02384,0 3.66013,-1.6363 3.66013,-3.66014 z"
       style="fill:none;stroke:#000000;stroke-width:1.03344965;stroke-linecap:round;stroke-linejoin:round;stroke-miterlimit:10;stroke-opacity:1;stroke-dasharray:none"
       id="path25876" />
    <path
       inkscape:connector-curvature="0"
       d="m 144.04856,1047.4156 c 0,-2.0151 -1.63629,-3.6601 -3.66013,-3.6601 -2.02384,0 -3.66014,1.645 -3.66014,3.6601 0,2.0239 1.6363,3.6688 3.66014,3.6688 2.02384,0 3.66013,-1.6449 3.66013,-3.6688 z"
       style="fill:#ffffff;fill-opacity:1;fill-rule:evenodd;stroke:none"
       id="path25878" />
    <path
       inkscape:connector-curvature="0"
       d="m 144.04856,1047.4156 c 0,-2.0151 -1.63629,-3.6601 -3.66013,-3.6601 -2.02384,0 -3.66014,1.645 -3.66014,3.6601 0,2.0239 1.6363,3.6688 3.66014,3.6688 2.02384,0 3.66013,-1.6449 3.66013,-3.6688 z"
       style="fill:none;stroke:#000000;stroke-width:1.03344965;stroke-linecap:round;stroke-linejoin:round;stroke-miterlimit:10;stroke-opacity:1;stroke-dasharray:none"
       id="path25880" />
    <path
       inkscape:connector-curvature="0"
       d="m 140.49177,941.03061 0,92.49379"
       style="fill:none;stroke:#1f477d;stroke-width:0.6200698;stroke-linecap:round;stroke-linejoin:round;stroke-miterlimit:10;stroke-opacity:1;stroke-dasharray:none"
       id="path25882" />
    <path
       inkscape:connector-curvature="0"
       d="m 140.49177,1037.6582 -3.10035,-5.6839 0.20669,0.1032 c 1.75686,0.8785 3.82377,0.8785 5.58063,0 l -0.10334,-0.1032 -2.58363,5.6839 z"
       style="fill:#1f477d;fill-opacity:1;fill-rule:evenodd;stroke:none"
       id="path25884" />
    <path
       inkscape:connector-curvature="0"
       d="m 7.1767627,941.03061 0,96.62759"
       style="fill:none;stroke:#1f477d;stroke-width:0.6200698;stroke-linecap:round;stroke-linejoin:round;stroke-miterlimit:10;stroke-opacity:1;stroke-dasharray:none"
       id="path25886" />
    <path
       inkscape:connector-curvature="0"
       d="m 7.1767627,1041.792 -2.583624,-5.684 -0.04306,0.2411 c 1.7568641,0.8785 3.8237635,0.8785 5.5806273,0 l 0.146405,-0.2411 -3.100348,5.684 z"
       style="fill:#1f477d;fill-opacity:1;fill-rule:evenodd;stroke:none"
       id="path25888" />
    <path
       inkscape:connector-curvature="0"
       d="m 80.577529,1048.6386 c 0,-1.3435 -1.093738,-2.4372 -2.445831,-2.4372 -1.343488,0 -2.437219,1.0937 -2.437219,2.4372 0,1.3521 1.093731,2.4458 2.437219,2.4458 1.352093,0 2.445831,-1.0937 2.445831,-2.4458 z"
       style="fill:#000000;fill-opacity:1;fill-rule:evenodd;stroke:none"
       id="path25918" />
    <path
       inkscape:connector-curvature="0"
       d="m 80.577529,1048.6386 c 0,-1.3435 -1.093738,-2.4372 -2.445831,-2.4372 -1.343488,0 -2.437219,1.0937 -2.437219,2.4372 0,1.3521 1.093731,2.4458 2.437219,2.4458 1.352093,0 2.445831,-1.0937 2.445831,-2.4458 z"
       style="fill:none;stroke:#000000;stroke-width:0.6200698;stroke-linecap:round;stroke-linejoin:round;stroke-miterlimit:10;stroke-opacity:1;stroke-dasharray:none"
       id="path25920" />
    <path
       inkscape:connector-curvature="0"
       d="m 87.174688,992.86478 0,39.46792"
       style="fill:none;stroke:#1f477d;stroke-width:0.52389109;stroke-linecap:round;stroke-linejoin:round;stroke-miterlimit:10;stroke-opacity:1;stroke-dasharray:none"
       id="path25922" />
    <path
       inkscape:connector-curvature="0"
       d="m 87.174688,1036.4665 -3.100349,-5.684 0.180852,0.2412 c 1.75686,0.8783 3.823765,0.8783 5.580625,0 l -0.07751,-0.2412 -2.583619,5.684 z"
       style="fill:#1f477d;fill-opacity:1;fill-rule:evenodd;stroke:none"
       id="path25924" />
    <path
       inkscape:connector-curvature="0"
       d="m 90.343631,959.53798 c 1.610453,-13.49514 -6.855216,-17.86146 -18.920745,-9.76611 0,0 0,0 0,0"
       style="fill:none;stroke:#688037;stroke-width:0.6200698;stroke-linecap:round;stroke-linejoin:round;stroke-miterlimit:10;stroke-opacity:1;stroke-dasharray:none"
       id="path26298" />
    <path
       inkscape:connector-curvature="0"
       d="m 87.785838,956.53236 2.583626,3.10035 3.100349,-2.58363"
       style="fill:none;stroke:#688037;stroke-width:0.6200698;stroke-linecap:round;stroke-linejoin:round;stroke-miterlimit:10;stroke-opacity:1;stroke-dasharray:none"
       id="path26300" />
    <path
       inkscape:connector-curvature="0"
       d="m 72.284095,945.68114 -1.03345,4.13379 4.133799,0.51673"
       style="fill:none;stroke:#688037;stroke-width:0.6200698;stroke-linecap:round;stroke-linejoin:round;stroke-miterlimit:10;stroke-opacity:1;stroke-dasharray:none"
       id="path26302" />
  </g>
  <g
     inkscape:groupmode="layer"
     id="layer4"
     inkscape:label="text"
     style="display:inline"
     transform="translate(0,-40)"
     sodipodi:insensitive="true">
    <text
       style="font-size:15px"
       y="125.58054"
       x="54.080002"
       id="text25846">
      <tspan
         style="font-size:17.49959946px;font-variant:normal;font-weight:normal;writing-mode:lr-tb;fill:#000000;fill-opacity:1;fill-rule:nonzero;stroke:none;font-family:ARIAL;-inkscape-font-specification:ARIAL"
         x="54.080002"
         y="125.58054"
         id="tspan25848">L</tspan>
    </text>
    <text
       style="font-size:15px;display:inline"
       y="104.24585"
       x="80.982948"
       id="text26340">
      <tspan
         style="font-size:15.00030041px;font-variant:normal;font-weight:normal;writing-mode:lr-tb;fill:#000000;fill-opacity:1;fill-rule:nonzero;stroke:none;font-family:ARIAL;-inkscape-font-specification:ARIAL"
         x="80.982948"
         y="104.24585"
         id="tspan26342">U</tspan>
    </text>
    <text
       style="font-size:15px;display:inline"
       y="106.32082"
       x="91.807961"
       id="text26344">
      <tspan
         style="font-size:9.74790001px;font-variant:normal;font-weight:normal;writing-mode:lr-tb;fill:#000000;fill-opacity:1;fill-rule:nonzero;stroke:none;font-family:ARIAL;-inkscape-font-specification:ARIAL"
         x="91.807961"
         y="106.32082"
         id="tspan26346">L</tspan>
    </text>
    <text
       style="font-size:20.92801476px;display:inline"
       y="115.42164"
       x="93.354935"
       id="text26348"
       transform="scale(1.0524089,0.95020102)">
      <tspan
         style="font-size:9.06702137px;font-variant:normal;font-weight:normal;writing-mode:lr-tb;fill:#000000;fill-opacity:1;fill-rule:nonzero;stroke:none;font-family:ARIAL;-inkscape-font-specification:ARIAL"
         x="93.354935 99.402451"
         y="115.42164"
         sodipodi:role="line"
         id="tspan26350">AV</tspan>
    </text>
    <text
       style="font-size:15px;display:inline"
       y="104.24585"
       x="113.65874"
       id="text26352">
      <tspan
         style="font-size:15.00030041px;font-variant:normal;font-weight:normal;writing-mode:lr-tb;fill:#000000;fill-opacity:1;fill-rule:nonzero;stroke:none;font-family:ARIAL;-inkscape-font-specification:ARIAL"
         x="113.65874 122.41863"
         y="104.24585"
         sodipodi:role="line"
         id="tspan26354">=</tspan>
    </text>
    <text
       style="font-size:15px;display:inline"
       y="104.24585"
       x="126.58376"
       id="text26356">
      <tspan
         style="font-size:15.00030041px;font-variant:normal;font-weight:normal;writing-mode:lr-tb;fill:#000000;fill-opacity:1;fill-rule:nonzero;stroke:none;font-family:ARIAL;-inkscape-font-specification:ARIAL"
         x="126.58376"
         y="104.24585"
         id="tspan26358">0</tspan>
    </text>
    <text
       style="font-size:15px;display:inline"
       y="143.9742"
       x="8.967761"
       id="text25898">
      <tspan
         style="font-size:15.00030041px;font-variant:normal;font-weight:normal;writing-mode:lr-tb;fill:#285ea6;fill-opacity:1;fill-rule:nonzero;stroke:none;font-family:ARIAL;-inkscape-font-specification:ARIAL"
         x="8.967761"
         y="143.9742"
         id="tspan25900">U</tspan>
    </text>
    <text
       style="font-size:15px;display:inline"
       y="146.04903"
       x="19.792778"
       id="text25902">
      <tspan
         style="font-size:9.74790001px;font-variant:normal;font-weight:normal;writing-mode:lr-tb;fill:#285ea6;fill-opacity:1;fill-rule:nonzero;stroke:none;font-family:ARIAL;-inkscape-font-specification:ARIAL"
         x="19.792778"
         y="146.04903"
         id="tspan25904">1</tspan>
    </text>
    <text
       style="font-size:15px;display:inline"
       y="142.90274"
       x="121.18085"
       id="text25890">
      <tspan
         style="font-size:15.00030041px;font-variant:normal;font-weight:normal;writing-mode:lr-tb;fill:#285ea6;fill-opacity:1;fill-rule:nonzero;stroke:none;font-family:ARIAL;-inkscape-font-specification:ARIAL"
         x="121.18085"
         y="142.90274"
         id="tspan25892">U</tspan>
    </text>
    <text
       style="font-size:15px;display:inline"
       y="144.97763"
       x="132.01837"
       id="text25894">
      <tspan
         style="font-size:9.74790001px;font-variant:normal;font-weight:normal;writing-mode:lr-tb;fill:#285ea6;fill-opacity:1;fill-rule:nonzero;stroke:none;font-family:ARIAL;-inkscape-font-specification:ARIAL"
         x="132.01837"
         y="144.97763"
         id="tspan25896">2</tspan>
    </text>
    <text
       style="font-size:15px;display:inline"
       y="50.154221"
       x="55.235046"
       id="text25906">
      <tspan
         style="font-size:12.50010014px;font-variant:normal;font-weight:normal;writing-mode:lr-tb;fill:#000000;fill-opacity:1;fill-rule:nonzero;stroke:none;font-family:ARIAL;-inkscape-font-specification:ARIAL"
         x="55.235046"
         y="50.154221"
         id="tspan25908">1</tspan>
    </text>
    <text
       style="font-size:15px;display:inline"
       y="50.794514"
       x="95.503929"
       id="text25910">
      <tspan
         style="font-size:12.50010014px;font-variant:normal;font-weight:normal;writing-mode:lr-tb;fill:#000000;fill-opacity:1;fill-rule:nonzero;stroke:none;font-family:ARIAL;-inkscape-font-specification:ARIAL"
         x="95.503929"
         y="50.794514"
         id="tspan25912">2</tspan>
    </text>
    <text
       style="font-size:15px;display:inline"
       y="143.25995"
       x="88.733208"
       id="text25926">
      <tspan
         style="font-size:15.00030041px;font-variant:normal;font-weight:normal;writing-mode:lr-tb;fill:#285ea6;fill-opacity:1;fill-rule:nonzero;stroke:none;font-family:ARIAL;-inkscape-font-specification:ARIAL"
         x="88.733208"
         y="143.25995"
         id="tspan25928">U</tspan>
    </text>
    <text
       style="font-size:15px;display:inline"
       y="145.33472"
       x="99.570732"
       id="text25930">
      <tspan
         style="font-size:9.74790001px;font-variant:normal;font-weight:normal;writing-mode:lr-tb;fill:#285ea6;fill-opacity:1;fill-rule:nonzero;stroke:none;font-family:ARIAL;-inkscape-font-specification:ARIAL"
         x="99.570732"
         y="145.33472"
         id="tspan25932">x</tspan>
    </text>
    <text
       style="font-size:15px;display:inline"
       y="67.42469"
       x="59.185379"
       id="text26304">
      <tspan
         style="font-size:15.00030041px;font-variant:normal;font-weight:normal;writing-mode:lr-tb;fill:#00b050;fill-opacity:1;fill-rule:nonzero;stroke:none;font-family:ARIAL;-inkscape-font-specification:ARIAL"
         x="59.185379"
         y="67.42469"
         id="tspan26306">t</tspan>
    </text>
    <text
       style="font-size:15px;display:inline"
       y="69.499702"
       x="63.347855"
       id="text26308">
      <tspan
         style="font-size:9.74790001px;font-variant:normal;font-weight:normal;writing-mode:lr-tb;fill:#00b050;fill-opacity:1;fill-rule:nonzero;stroke:none;font-family:ARIAL;-inkscape-font-specification:ARIAL"
         x="63.347855"
         y="69.499702"
         id="tspan26310">1</tspan>
    </text>
    <text
       style="font-size:15px;display:inline"
       y="66.710396"
       x="94.077026"
       id="text26312">
      <tspan
         style="font-size:15.00030041px;font-variant:normal;font-weight:normal;writing-mode:lr-tb;fill:#00b050;fill-opacity:1;fill-rule:nonzero;stroke:none;font-family:ARIAL;-inkscape-font-specification:ARIAL"
         x="94.077026"
         y="66.710396"
         id="tspan26314">t</tspan>
    </text>
    <text
       style="font-size:15px;display:inline"
       y="68.785408"
       x="98.252037"
       id="text26316">
      <tspan
         style="font-size:9.74790001px;font-variant:normal;font-weight:normal;writing-mode:lr-tb;fill:#00b050;fill-opacity:1;fill-rule:nonzero;stroke:none;font-family:ARIAL;-inkscape-font-specification:ARIAL"
         x="98.252037"
         y="68.785408"
         id="tspan26318">2</tspan>
    </text>
    <text
       style="font-size:15px;display:inline"
       y="80.841446"
       x="66.009666"
       id="text25914">
      <tspan
         style="font-size:12.50010014px;font-variant:normal;font-weight:normal;writing-mode:lr-tb;fill:#000000;fill-opacity:1;fill-rule:nonzero;stroke:none;font-family:ARIAL;-inkscape-font-specification:ARIAL"
         x="66.009666"
         y="80.841446"
         id="tspan25916">3</tspan>
    </text>
  </g>
</svg>
