<?xml version="1.0" encoding="UTF-8" standalone="no"?>
<!-- Created with Inkscape (http://www.inkscape.org/) -->

<svg
   xmlns:dc="http://purl.org/dc/elements/1.1/"
   xmlns:cc="http://creativecommons.org/ns#"
   xmlns:rdf="http://www.w3.org/1999/02/22-rdf-syntax-ns#"
   xmlns:svg="http://www.w3.org/2000/svg"
   xmlns="http://www.w3.org/2000/svg"
   xmlns:sodipodi="http://sodipodi.sourceforge.net/DTD/sodipodi-0.dtd"
   xmlns:inkscape="http://www.inkscape.org/namespaces/inkscape"
   width="310"
   height="140"
   id="svg2"
   inkscape:label="Pozadí"
   version="1.1"
   inkscape:version="0.48.0 r9654"
   sodipodi:docname="patocka_step_up_princip.svg">
  <defs
     id="defs38232" />
  <sodipodi:namedview
     id="base"
     pagecolor="#ffffff"
     bordercolor="#666666"
     borderopacity="1.0"
     inkscape:pageopacity="0.0"
     inkscape:pageshadow="2"
     inkscape:zoom="1.979899"
     inkscape:cx="179.05515"
     inkscape:cy="205.84854"
     inkscape:document-units="px"
     inkscape:current-layer="layer1"
     showgrid="false"
     inkscape:window-width="1917"
     inkscape:window-height="1125"
     inkscape:window-x="-9"
     inkscape:window-y="-9"
     inkscape:window-maximized="1" />
  <metadata
     id="metadata38235">
    <rdf:RDF>
      <cc:Work
         rdf:about="">
        <dc:format>image/svg+xml</dc:format>
        <dc:type
           rdf:resource="http://purl.org/dc/dcmitype/StillImage" />
        <dc:title></dc:title>
      </cc:Work>
    </rdf:RDF>
  </metadata>
  <g
     inkscape:label="Vrstva 1"
     inkscape:groupmode="layer"
     id="layer1"
     transform="translate(0,-912.36214)">
    <path
       inkscape:connector-curvature="0"
       d="m 203.56417,970.88784 0,72.74996"
       style="fill:none;stroke:#000000;stroke-width:1.5;stroke-linecap:round;stroke-linejoin:round;stroke-miterlimit:10;stroke-opacity:1;stroke-dasharray:none"
       id="path25644" />
    <path
       inkscape:connector-curvature="0"
       d="m 203.56417,937.13784 72.75,0"
       style="fill:none;stroke:#000000;stroke-width:0.90000004;stroke-linecap:round;stroke-linejoin:round;stroke-miterlimit:10;stroke-opacity:1;stroke-dasharray:none"
       id="path25646" />
    <path
       inkscape:connector-curvature="0"
       d="m 40.401678,954.55034 c -0.2375,-6.9125 4.425,-12.7375 10.4125,-13.0125 6,-0.275 11.05,5.1 11.2875,12.0125 0.0125,0.3375 0.0125,0.675 0,1 -0.2375,-6.9125 4.425,-12.7375 10.425,-13.0125 5.9875,-0.275 11.0375,5.1 11.275,12.0125 0.0125,0.3375 0.0125,0.675 0,1 -0.2375,-6.9125 4.425,-12.7375 10.425,-13.0125 5.987502,-0.275 11.037502,5.1 11.287502,12.0125 0.0125,0.3375 0.0125,0.675 0,1 -0.25,-6.9125 4.42499,-12.7375 10.41249,-13.0125 5.9875,-0.275 11.05,5.1 11.2875,12.0125 0.0125,0.3375 0.0125,0.675 0,1 m -87.149992,-0.1625 0,0 m 86.999992,0 0,0"
       style="fill:none;stroke:#000000;stroke-width:1.5;stroke-linecap:round;stroke-linejoin:round;stroke-miterlimit:10;stroke-opacity:1;stroke-dasharray:none"
       id="path25746" />
    <text
       style="font-size:15px"
       y="972.62531"
       x="77.164162"
       id="text25748">
      <tspan
         style="font-size:17.49959946px;font-variant:normal;font-weight:normal;writing-mode:lr-tb;fill:#000000;fill-opacity:1;fill-rule:nonzero;stroke:none;font-family:ARIAL;-inkscape-font-specification:ARIAL"
         x="77.164162"
         y="972.62531"
         id="tspan25750">L</tspan>
    </text>
    <path
       inkscape:connector-curvature="0"
       d="m 198.07667,936.37534 c 0,-2.9375 2.375,-5.325 5.3125,-5.325 2.9375,0 5.3125,2.3875 5.3125,5.325 0,2.925 -2.375,5.3125 -5.3125,5.3125 -2.9375,0 -5.3125,-2.3875 -5.3125,-5.3125 z"
       style="fill:#ffffff;fill-opacity:1;fill-rule:evenodd;stroke:none"
       id="path25752" />
    <path
       inkscape:connector-curvature="0"
       d="m 198.07667,936.37534 c 0,-2.9375 2.375,-5.325 5.3125,-5.325 2.9375,0 5.3125,2.3875 5.3125,5.325 0,2.925 -2.375,5.3125 -5.3125,5.3125 -2.9375,0 -5.3125,-2.3875 -5.3125,-5.3125 z"
       style="fill:none;stroke:#000000;stroke-width:1.5;stroke-linecap:round;stroke-linejoin:round;stroke-miterlimit:10;stroke-opacity:1;stroke-dasharray:none"
       id="path25754" />
    <path
       inkscape:connector-curvature="0"
       d="m 198.07667,971.80034 c 0,-2.9375 2.375,-5.3125 5.3125,-5.3125 2.9375,0 5.3125,2.375 5.3125,5.3125 0,2.9375 -2.375,5.3125 -5.3125,5.3125 -2.9375,0 -5.3125,-2.375 -5.3125,-5.3125 z"
       style="fill:#ffffff;fill-opacity:1;fill-rule:evenodd;stroke:none"
       id="path25756" />
    <path
       inkscape:connector-curvature="0"
       d="m 198.07667,971.80034 c 0,-2.9375 2.375,-5.3125 5.3125,-5.3125 2.9375,0 5.3125,2.375 5.3125,5.3125 0,2.9375 -2.375,5.3125 -5.3125,5.3125 -2.9375,0 -5.3125,-2.375 -5.3125,-5.3125 z"
       style="fill:none;stroke:#000000;stroke-width:1.5;stroke-linecap:round;stroke-linejoin:round;stroke-miterlimit:10;stroke-opacity:1;stroke-dasharray:none"
       id="path25758" />
    <path
       inkscape:connector-curvature="0"
       d="m 162.63917,954.08784 c 0,-2.9375 2.3875,-5.3125 5.325,-5.3125 2.925,0 5.3125,2.375 5.3125,5.3125 0,2.9375 -2.3875,5.3125 -5.3125,5.3125 -2.9375,0 -5.325,-2.375 -5.325,-5.3125 z"
       style="fill:#ffffff;fill-opacity:1;fill-rule:evenodd;stroke:none"
       id="path25760" />
    <path
       inkscape:connector-curvature="0"
       d="m 162.63917,954.08784 c 0,-2.9375 2.3875,-5.3125 5.325,-5.3125 2.925,0 5.3125,2.375 5.3125,5.3125 0,2.9375 -2.3875,5.3125 -5.3125,5.3125 -2.9375,0 -5.325,-2.375 -5.325,-5.3125 z"
       style="fill:none;stroke:#000000;stroke-width:1.5;stroke-linecap:round;stroke-linejoin:round;stroke-miterlimit:10;stroke-opacity:1;stroke-dasharray:none"
       id="path25762" />
    <path
       inkscape:connector-curvature="0"
       d="m 10.814178,1043.6378 266.249992,0"
       style="fill:none;stroke:#000000;stroke-width:1.5;stroke-linecap:round;stroke-linejoin:round;stroke-miterlimit:10;stroke-opacity:1;stroke-dasharray:none"
       id="path25764" />
    <path
       inkscape:connector-curvature="0"
       d="m 127.06417,954.38784 35.25,0"
       style="fill:none;stroke:#000000;stroke-width:1.5;stroke-linecap:round;stroke-linejoin:round;stroke-miterlimit:10;stroke-opacity:1;stroke-dasharray:none"
       id="path25766" />
    <path
       inkscape:connector-curvature="0"
       d="m 174.31417,958.13784 21.75,10.5"
       style="fill:none;stroke:#000000;stroke-width:5.0999999;stroke-linecap:round;stroke-linejoin:round;stroke-miterlimit:10;stroke-opacity:1;stroke-dasharray:none"
       id="path25768" />
    <path
       inkscape:connector-curvature="0"
       d="m 40.064178,954.38784 -29.25,0"
       style="fill:none;stroke:#000000;stroke-width:1.5;stroke-linecap:round;stroke-linejoin:round;stroke-miterlimit:10;stroke-opacity:1;stroke-dasharray:none"
       id="path25770" />
    <path
       inkscape:connector-curvature="0"
       d="m 16.489178,954.97534 c 0,-2.9375 -2.3875,-5.3125 -5.325,-5.3125 -2.9250001,0 -5.3125001,2.375 -5.3125001,5.3125 0,2.9375 2.3875,5.3125 5.3125001,5.3125 2.9375,0 5.325,-2.375 5.325,-5.3125 z"
       style="fill:#ffffff;fill-opacity:1;fill-rule:evenodd;stroke:none"
       id="path25772" />
    <path
       inkscape:connector-curvature="0"
       d="m 16.489178,954.97534 c 0,-2.9375 -2.3875,-5.3125 -5.325,-5.3125 -2.9250001,0 -5.3125001,2.375 -5.3125001,5.3125 0,2.9375 2.3875,5.3125 5.3125001,5.3125 2.9375,0 5.325,-2.375 5.325,-5.3125 z"
       style="fill:none;stroke:#000000;stroke-width:1.5;stroke-linecap:round;stroke-linejoin:round;stroke-miterlimit:10;stroke-opacity:1;stroke-dasharray:none"
       id="path25774" />
    <path
       inkscape:connector-curvature="0"
       d="m 16.489178,1043.5503 c 0,-2.925 -2.3875,-5.3125 -5.325,-5.3125 -2.9250001,0 -5.3125001,2.3875 -5.3125001,5.3125 0,2.9375 2.3875,5.325 5.3125001,5.325 2.9375,0 5.325,-2.3875 5.325,-5.325 z"
       style="fill:#ffffff;fill-opacity:1;fill-rule:evenodd;stroke:none"
       id="path25776" />
    <path
       inkscape:connector-curvature="0"
       d="m 16.489178,1043.5503 c 0,-2.925 -2.3875,-5.3125 -5.325,-5.3125 -2.9250001,0 -5.3125001,2.3875 -5.3125001,5.3125 0,2.9375 2.3875,5.325 5.3125001,5.325 2.9375,0 5.325,-2.3875 5.325,-5.325 z"
       style="fill:none;stroke:#000000;stroke-width:1.5;stroke-linecap:round;stroke-linejoin:round;stroke-miterlimit:10;stroke-opacity:1;stroke-dasharray:none"
       id="path25778" />
    <path
       inkscape:connector-curvature="0"
       d="m 281.35167,937.25034 c 0,-2.925 -2.3875,-5.3125 -5.325,-5.3125 -2.9375,0 -5.3125,2.3875 -5.3125,5.3125 0,2.9375 2.375,5.325 5.3125,5.325 2.9375,0 5.325,-2.3875 5.325,-5.325 z"
       style="fill:#ffffff;fill-opacity:1;fill-rule:evenodd;stroke:none"
       id="path25780" />
    <path
       inkscape:connector-curvature="0"
       d="m 281.35167,937.25034 c 0,-2.925 -2.3875,-5.3125 -5.325,-5.3125 -2.9375,0 -5.3125,2.3875 -5.3125,5.3125 0,2.9375 2.375,5.325 5.3125,5.325 2.9375,0 5.325,-2.3875 5.325,-5.325 z"
       style="fill:none;stroke:#000000;stroke-width:1.5;stroke-linecap:round;stroke-linejoin:round;stroke-miterlimit:10;stroke-opacity:1;stroke-dasharray:none"
       id="path25782" />
    <path
       inkscape:connector-curvature="0"
       d="m 282.22667,1043.5503 c 0,-2.925 -2.375,-5.3125 -5.3125,-5.3125 -2.9375,0 -5.3125,2.3875 -5.3125,5.3125 0,2.9375 2.375,5.325 5.3125,5.325 2.9375,0 5.3125,-2.3875 5.3125,-5.325 z"
       style="fill:#ffffff;fill-opacity:1;fill-rule:evenodd;stroke:none"
       id="path25784" />
    <path
       inkscape:connector-curvature="0"
       d="m 282.22667,1043.5503 c 0,-2.925 -2.375,-5.3125 -5.3125,-5.3125 -2.9375,0 -5.3125,2.3875 -5.3125,5.3125 0,2.9375 2.375,5.325 5.3125,5.325 2.9375,0 5.3125,-2.3875 5.3125,-5.325 z"
       style="fill:none;stroke:#000000;stroke-width:1.5;stroke-linecap:round;stroke-linejoin:round;stroke-miterlimit:10;stroke-opacity:1;stroke-dasharray:none"
       id="path25786" />
    <path
       inkscape:connector-curvature="0"
       d="m 277.06417,946.13784 0,80.99996"
       style="fill:none;stroke:#1f477d;stroke-width:0.90000004;stroke-linecap:round;stroke-linejoin:round;stroke-miterlimit:10;stroke-opacity:1;stroke-dasharray:none"
       id="path25788" />
    <path
       inkscape:connector-curvature="0"
       d="m 277.06417,1033.1378 -4.5,-8.25 0.3,-0.062 c 2.55,1.275 5.55,1.275 8.1,0 l -0.15,0.062 -3.75,8.25 z"
       style="fill:#1f477d;fill-opacity:1;fill-rule:evenodd;stroke:none"
       id="path25790" />
    <path
       inkscape:connector-curvature="0"
       d="m 10.814178,965.63784 0,62.99996"
       style="fill:none;stroke:#1f477d;stroke-width:0.90000004;stroke-linecap:round;stroke-linejoin:round;stroke-miterlimit:10;stroke-opacity:1;stroke-dasharray:none"
       id="path25792" />
    <path
       inkscape:connector-curvature="0"
       d="m 10.814178,1034.6378 -3.7500001,-8.25 0.05,0.2125 c 2.55,1.275 5.5500001,1.275 8.1000001,0 l 0.1,-0.2125 -4.5,8.25 z"
       style="fill:#1f477d;fill-opacity:1;fill-rule:evenodd;stroke:none"
       id="path25794" />
    <text
       style="font-size:15px"
       y="1009.0752"
       x="281.18915"
       id="text25796">
      <tspan
         style="font-size:15.00030041px;font-variant:normal;font-weight:normal;writing-mode:lr-tb;fill:#285ea6;fill-opacity:1;fill-rule:nonzero;stroke:none;font-family:ARIAL;-inkscape-font-specification:ARIAL"
         x="281.18915"
         y="1009.0752"
         id="tspan25798">U</tspan>
    </text>
    <text
       style="font-size:15px"
       y="1011.1503"
       x="292.02667"
       id="text25800">
      <tspan
         style="font-size:9.74790001px;font-variant:normal;font-weight:normal;writing-mode:lr-tb;fill:#285ea6;fill-opacity:1;fill-rule:nonzero;stroke:none;font-family:ARIAL;-inkscape-font-specification:ARIAL"
         x="292.02667"
         y="1011.1503"
         id="tspan25802">2</tspan>
    </text>
    <text
       style="font-size:15px"
       y="1003.8628"
       x="15.439184"
       id="text25804">
      <tspan
         style="font-size:15.00030041px;font-variant:normal;font-weight:normal;writing-mode:lr-tb;fill:#285ea6;fill-opacity:1;fill-rule:nonzero;stroke:none;font-family:ARIAL;-inkscape-font-specification:ARIAL"
         x="15.439184"
         y="1003.8628"
         id="tspan25806">U</tspan>
    </text>
    <text
       style="font-size:15px"
       y="1005.9378"
       x="26.276678"
       id="text25808">
      <tspan
         style="font-size:9.74790001px;font-variant:normal;font-weight:normal;writing-mode:lr-tb;fill:#285ea6;fill-opacity:1;fill-rule:nonzero;stroke:none;font-family:ARIAL;-inkscape-font-specification:ARIAL"
         x="26.276678"
         y="1005.9378"
         id="tspan25810">1</tspan>
    </text>
    <text
       style="font-size:15px"
       y="927.71277"
       x="199.91415"
       id="text25812">
      <tspan
         style="font-size:12.50010014px;font-variant:normal;font-weight:normal;writing-mode:lr-tb;fill:#000000;fill-opacity:1;fill-rule:nonzero;stroke:none;font-family:ARIAL;-inkscape-font-specification:ARIAL"
         x="199.91415"
         y="927.71277"
         id="tspan25814">1</tspan>
    </text>
    <text
       style="font-size:15px"
       y="963.15027"
       x="199.91415"
       id="text25816">
      <tspan
         style="font-size:12.50010014px;font-variant:normal;font-weight:normal;writing-mode:lr-tb;fill:#000000;fill-opacity:1;fill-rule:nonzero;stroke:none;font-family:ARIAL;-inkscape-font-specification:ARIAL"
         x="199.91415"
         y="963.15027"
         id="tspan25818">2</tspan>
    </text>
    <text
       style="font-size:15px"
       y="945.43781"
       x="164.48918"
       id="text25820">
      <tspan
         style="font-size:12.50010014px;font-variant:normal;font-weight:normal;writing-mode:lr-tb;fill:#000000;fill-opacity:1;fill-rule:nonzero;stroke:none;font-family:ARIAL;-inkscape-font-specification:ARIAL"
         x="164.48918"
         y="945.43781"
         id="tspan25822">3</tspan>
    </text>
    <path
       inkscape:connector-curvature="0"
       d="m 206.93917,1043.5503 c 0,-1.95 -1.5875,-3.5375 -3.55,-3.5375 -1.95,0 -3.5375,1.5875 -3.5375,3.5375 0,1.9625 1.5875,3.55 3.5375,3.55 1.9625,0 3.55,-1.5875 3.55,-3.55 z"
       style="fill:#000000;fill-opacity:1;fill-rule:evenodd;stroke:none"
       id="path25824" />
    <path
       inkscape:connector-curvature="0"
       d="m 206.93917,1043.5503 c 0,-1.95 -1.5875,-3.5375 -3.55,-3.5375 -1.95,0 -3.5375,1.5875 -3.5375,3.5375 0,1.9625 1.5875,3.55 3.5375,3.55 1.9625,0 3.55,-1.5875 3.55,-3.55 z"
       style="fill:none;stroke:#000000;stroke-width:0.90000004;stroke-linecap:round;stroke-linejoin:round;stroke-miterlimit:10;stroke-opacity:1;stroke-dasharray:none"
       id="path25826" />
    <path
       inkscape:connector-curvature="0"
       d="m 168.31417,964.13784 0,68.99996"
       style="fill:none;stroke:#1f477d;stroke-width:0.90000004;stroke-linecap:round;stroke-linejoin:round;stroke-miterlimit:10;stroke-opacity:1;stroke-dasharray:none"
       id="path25828" />
    <path
       inkscape:connector-curvature="0"
       d="m 168.31417,1039.1378 -4.5,-8.25 0.1,0.1375 c 2.55,1.275 5.55,1.275 8.1,0 l 0.05,-0.1375 -3.75,8.25 z"
       style="fill:#1f477d;fill-opacity:1;fill-rule:evenodd;stroke:none"
       id="path25830" />
    <text
       style="font-size:15px"
       y="1013.5127"
       x="174.27667"
       id="text25832">
      <tspan
         style="font-size:15.00030041px;font-variant:normal;font-weight:normal;writing-mode:lr-tb;fill:#285ea6;fill-opacity:1;fill-rule:nonzero;stroke:none;font-family:ARIAL;-inkscape-font-specification:ARIAL"
         x="174.27667"
         y="1013.5127"
         id="tspan25834">U</tspan>
    </text>
    <text
       style="font-size:15px"
       y="1015.5752"
       x="185.11417"
       id="text25836">
      <tspan
         style="font-size:9.74790001px;font-variant:normal;font-weight:normal;writing-mode:lr-tb;fill:#285ea6;fill-opacity:1;fill-rule:nonzero;stroke:none;font-family:ARIAL;-inkscape-font-specification:ARIAL"
         x="185.11417"
         y="1015.5752"
         id="tspan25838">x</tspan>
    </text>
    <path
       inkscape:connector-curvature="0"
       d="m 183.90167,947.88784 c 14.6125,12.8125 9.85,23.9125 -10.625,24.8 0,0 0,0 0,0"
       style="fill:none;stroke:#688037;stroke-width:0.90000004;stroke-linecap:round;stroke-linejoin:round;stroke-miterlimit:10;stroke-opacity:1;stroke-dasharray:none"
       id="path26276" />
    <path
       inkscape:connector-curvature="0"
       d="m 184.06417,953.63784 0,-6 5.25,0"
       style="fill:none;stroke:#688037;stroke-width:0.90000004;stroke-linecap:round;stroke-linejoin:round;stroke-miterlimit:10;stroke-opacity:1;stroke-dasharray:none"
       id="path26278" />
    <path
       inkscape:connector-curvature="0"
       d="m 177.31417,976.88784 -3.75,-4.5 3.75,-3.75"
       style="fill:none;stroke:#688037;stroke-width:0.90000004;stroke-linecap:round;stroke-linejoin:round;stroke-miterlimit:10;stroke-opacity:1;stroke-dasharray:none"
       id="path26280" />
    <text
       style="font-size:15px"
       y="936.53778"
       x="179.11417"
       id="text26282">
      <tspan
         style="font-size:15.00030041px;font-variant:normal;font-weight:normal;writing-mode:lr-tb;fill:#00b050;fill-opacity:1;fill-rule:nonzero;stroke:none;font-family:ARIAL;-inkscape-font-specification:ARIAL"
         x="179.11417"
         y="936.53778"
         id="tspan26284">t</tspan>
    </text>
    <text
       style="font-size:15px"
       y="938.61279"
       x="183.27664"
       id="text26286">
      <tspan
         style="font-size:9.74790001px;font-variant:normal;font-weight:normal;writing-mode:lr-tb;fill:#00b050;fill-opacity:1;fill-rule:nonzero;stroke:none;font-family:ARIAL;-inkscape-font-specification:ARIAL"
         x="183.27664"
         y="938.61279"
         id="tspan26288">1</tspan>
    </text>
    <text
       style="font-size:15px"
       y="985.95026"
       x="182.65164"
       id="text26290">
      <tspan
         style="font-size:15.00030041px;font-variant:normal;font-weight:normal;writing-mode:lr-tb;fill:#00b050;fill-opacity:1;fill-rule:nonzero;stroke:none;font-family:ARIAL;-inkscape-font-specification:ARIAL"
         x="182.65164"
         y="985.95026"
         id="tspan26292">t</tspan>
    </text>
    <text
       style="font-size:15px"
       y="988.02527"
       x="186.82663"
       id="text26294">
      <tspan
         style="font-size:9.74790001px;font-variant:normal;font-weight:normal;writing-mode:lr-tb;fill:#00b050;fill-opacity:1;fill-rule:nonzero;stroke:none;font-family:ARIAL;-inkscape-font-specification:ARIAL"
         x="186.82663"
         y="988.02527"
         id="tspan26296">2</tspan>
    </text>
    <text
       style="font-size:15px"
       y="931.12531"
       x="56.701672"
       id="text26340">
      <tspan
         style="font-size:15.00030041px;font-variant:normal;font-weight:normal;writing-mode:lr-tb;fill:#000000;fill-opacity:1;fill-rule:nonzero;stroke:none;font-family:ARIAL;-inkscape-font-specification:ARIAL"
         x="56.701672"
         y="931.12531"
         id="tspan26342">U</tspan>
    </text>
    <text
       style="font-size:15px"
       y="933.20026"
       x="67.52668"
       id="text26344">
      <tspan
         style="font-size:9.74790001px;font-variant:normal;font-weight:normal;writing-mode:lr-tb;fill:#000000;fill-opacity:1;fill-rule:nonzero;stroke:none;font-family:ARIAL;-inkscape-font-specification:ARIAL"
         x="67.52668"
         y="933.20026"
         id="tspan26346">L</tspan>
    </text>
    <text
       style="font-size:20.92801476px"
       y="985.63708"
       x="70.282829"
       id="text26348"
       transform="scale(1.0524089,0.95020102)">
      <tspan
         style="font-size:9.06702137px;font-variant:normal;font-weight:normal;writing-mode:lr-tb;fill:#000000;fill-opacity:1;fill-rule:nonzero;stroke:none;font-family:ARIAL;-inkscape-font-specification:ARIAL"
         x="70.282829 76.330338"
         y="985.63708"
         sodipodi:role="line"
         id="tspan26350">AV</tspan>
    </text>
    <text
       style="font-size:15px"
       y="931.12531"
       x="89.377434"
       id="text26352">
      <tspan
         style="font-size:15.00030041px;font-variant:normal;font-weight:normal;writing-mode:lr-tb;fill:#000000;fill-opacity:1;fill-rule:nonzero;stroke:none;font-family:ARIAL;-inkscape-font-specification:ARIAL"
         x="89.377434 98.137321"
         y="931.12531"
         sodipodi:role="line"
         id="tspan26354">=</tspan>
    </text>
    <text
       style="font-size:15px"
       y="931.12531"
       x="102.30245"
       id="text26356">
      <tspan
         style="font-size:15.00030041px;font-variant:normal;font-weight:normal;writing-mode:lr-tb;fill:#000000;fill-opacity:1;fill-rule:nonzero;stroke:none;font-family:ARIAL;-inkscape-font-specification:ARIAL"
         x="102.30245"
         y="931.12531"
         id="tspan26358">0</tspan>
    </text>
  </g>
</svg>
