<?xml version="1.0" encoding="UTF-8" standalone="no"?>
<!-- Created with Inkscape (http://www.inkscape.org/) -->

<svg
   xmlns:dc="http://purl.org/dc/elements/1.1/"
   xmlns:cc="http://creativecommons.org/ns#"
   xmlns:rdf="http://www.w3.org/1999/02/22-rdf-syntax-ns#"
   xmlns:svg="http://www.w3.org/2000/svg"
   xmlns="http://www.w3.org/2000/svg"
   xmlns:sodipodi="http://sodipodi.sourceforge.net/DTD/sodipodi-0.dtd"
   xmlns:inkscape="http://www.inkscape.org/namespaces/inkscape"
   width="440"
   height="220"
   id="svg2"
   inkscape:label="Pozadí"
   version="1.1"
   inkscape:version="0.48.0 r9654"
   sodipodi:docname="patocka_jednocestny_1f_usm_LRzatez.svg">
  <defs
     id="defs33547" />
  <sodipodi:namedview
     id="base"
     pagecolor="#ffffff"
     bordercolor="#666666"
     borderopacity="1.0"
     inkscape:pageopacity="0.0"
     inkscape:pageshadow="2"
     inkscape:zoom="2.8"
     inkscape:cx="290.62162"
     inkscape:cy="184.19729"
     inkscape:document-units="px"
     inkscape:current-layer="layer1"
     showgrid="false"
     inkscape:window-width="1920"
     inkscape:window-height="1125"
     inkscape:window-x="-9"
     inkscape:window-y="-9"
     inkscape:window-maximized="1" />
  <metadata
     id="metadata33550">
    <rdf:RDF>
      <cc:Work
         rdf:about="">
        <dc:format>image/svg+xml</dc:format>
        <dc:type
           rdf:resource="http://purl.org/dc/dcmitype/StillImage" />
        <dc:title />
      </cc:Work>
    </rdf:RDF>
  </metadata>
  <g
     inkscape:label="Vrstva 1"
     inkscape:groupmode="layer"
     id="layer1"
     transform="translate(0,-832.36218)">
    <path
       d="m 158.71676,875.84206 -36,-18 0,35.25 36,-17.25 z"
       style="fill:#ffffff;fill-opacity:1;fill-rule:evenodd;stroke:none"
       id="path7795"
       inkscape:connector-curvature="0" />
    <path
       d="m 158.71676,875.84206 -36,-18 0,35.25 36,-17.25 z"
       style="fill:none;stroke:#000000;stroke-width:2.70000005;stroke-linecap:round;stroke-linejoin:round;stroke-miterlimit:10;stroke-opacity:1;stroke-dasharray:none"
       id="path7797"
       inkscape:connector-curvature="0" />
    <path
       d="m 203.71676,875.84206 -123.750005,0"
       style="fill:none;stroke:#000000;stroke-width:2.70000005;stroke-linecap:round;stroke-linejoin:round;stroke-miterlimit:10;stroke-opacity:1;stroke-dasharray:none"
       id="path7799"
       inkscape:connector-curvature="0" />
    <path
       d="m 159.46676,857.84206 0,35.25"
       style="fill:none;stroke:#000000;stroke-width:2.70000005;stroke-linecap:round;stroke-linejoin:round;stroke-miterlimit:10;stroke-opacity:1;stroke-dasharray:none"
       id="path7801"
       inkscape:connector-curvature="0" />
    <path
       d="m 44.304255,990.70456 c 0,-9.7875 -7.925,-17.7125 -17.7125,-17.7125 -9.7875,0 -17.7124998,7.925 -17.7124998,17.7125 0,9.78754 7.9249998,17.71254 17.7124998,17.71254 9.7875,0 17.7125,-7.925 17.7125,-17.71254 z"
       style="fill:#ffffff;fill-opacity:1;fill-rule:evenodd;stroke:none"
       id="path7803"
       inkscape:connector-curvature="0" />
    <path
       d="m 44.304255,990.70456 c 0,-9.7875 -7.925,-17.7125 -17.7125,-17.7125 -9.7875,0 -17.7124998,7.925 -17.7124998,17.7125 0,9.78754 7.9249998,17.71254 17.7124998,17.71254 9.7875,0 17.7125,-7.925 17.7125,-17.71254 z"
       style="fill:none;stroke:#000000;stroke-width:2.70000005;stroke-linecap:round;stroke-linejoin:round;stroke-miterlimit:10;stroke-opacity:1;stroke-dasharray:none"
       id="path7805"
       inkscape:connector-curvature="0" />
    <path
       d="m 17.716755,937.34206 18,0 0,-44.25 -18,0 0,44.25 z"
       style="fill:#ffffff;fill-opacity:1;fill-rule:evenodd;stroke:none"
       id="path7807"
       inkscape:connector-curvature="0" />
    <path
       d="m 17.716755,937.34206 18,0 0,-44.25 -18,0 0,44.25 z"
       style="fill:none;stroke:#000000;stroke-width:2.70000005;stroke-linecap:round;stroke-linejoin:round;stroke-miterlimit:10;stroke-opacity:1;stroke-dasharray:none"
       id="path7809"
       inkscape:connector-curvature="0" />
    <path
       d="m 26.716755,893.09206 0,-17.25 221.250005,0"
       style="fill:none;stroke:#000000;stroke-width:2.70000005;stroke-linecap:round;stroke-linejoin:round;stroke-miterlimit:10;stroke-opacity:1;stroke-dasharray:none"
       id="path7811"
       inkscape:connector-curvature="0" />
    <path
       d="m 26.716755,937.34206 0,36"
       style="fill:none;stroke:#000000;stroke-width:2.70000005;stroke-linecap:round;stroke-linejoin:round;stroke-miterlimit:10;stroke-opacity:1;stroke-dasharray:none"
       id="path7813"
       inkscape:connector-curvature="0" />
    <path
       d="m 25.966755,1008.5921 0,26.25"
       style="fill:none;stroke:#000000;stroke-width:2.70000005;stroke-linecap:round;stroke-linejoin:round;stroke-miterlimit:10;stroke-opacity:1;stroke-dasharray:none"
       id="path7815"
       inkscape:connector-curvature="0" />
    <path
       d="m 212.71676,929.09206 -18,36.75 35.25,0 -17.25,-36.75 z"
       style="fill:#ffffff;fill-opacity:1;fill-rule:evenodd;stroke:none"
       id="path7817"
       inkscape:connector-curvature="0" />
    <g
       id="g7819"
       transform="matrix(1.25,0,0,-1.25,-2765.5331,7250.8421)">
      <path
         d="m 2382.6,5057.4 -14.4,-29.4 28.2,0 -13.8,29.4 z"
         style="fill:none;stroke:#000000;stroke-width:2.16000009;stroke-linecap:round;stroke-linejoin:round;stroke-miterlimit:10;stroke-opacity:1;stroke-dasharray:2.16, 4.32;stroke-dashoffset:0"
         id="path7821"
         inkscape:connector-curvature="0" />
    </g>
    <g
       id="g7823"
       transform="matrix(1.25,0,0,-1.25,-2765.5331,7250.8421)">
      <path
         d="m 2382.6,5093.4 0,-99.6"
         style="fill:none;stroke:#000000;stroke-width:2.16000009;stroke-linecap:round;stroke-linejoin:round;stroke-miterlimit:10;stroke-opacity:1;stroke-dasharray:2.16, 4.32;stroke-dashoffset:0"
         id="path7825"
         inkscape:connector-curvature="0" />
    </g>
    <g
       id="g7827"
       transform="matrix(1.25,0,0,-1.25,-2765.5331,7250.8421)">
      <path
         d="m 2368.2,5057.4 28.2,0"
         style="fill:none;stroke:#000000;stroke-width:2.16000009;stroke-linecap:round;stroke-linejoin:round;stroke-miterlimit:10;stroke-opacity:1;stroke-dasharray:2.16, 4.32;stroke-dashoffset:0"
         id="path7829"
         inkscape:connector-curvature="0" />
    </g>
    <path
       d="m 25.966755,1034.8421 367.500005,0"
       style="fill:none;stroke:#000000;stroke-width:2.70000005;stroke-linecap:round;stroke-linejoin:round;stroke-miterlimit:10;stroke-opacity:1;stroke-dasharray:none"
       id="path7831"
       inkscape:connector-curvature="0" />
    <g
       id="g7833"
       transform="matrix(1.25,0,0,-1.25,-2765.5331,7250.8421)">
      <path
         d="m 2382.6,5100 0,-127.2"
         style="fill:none;stroke:#000000;stroke-width:2.16000009;stroke-linecap:round;stroke-linejoin:round;stroke-miterlimit:10;stroke-opacity:1;stroke-dasharray:2.16, 4.32;stroke-dashoffset:0"
         id="path7835"
         inkscape:connector-curvature="0" />
    </g>
    <path
       d="m 248.05426,875.54206 c -0.3,-8.45 5.4125,-15.5875 12.75,-15.925 7.3375,-0.3375 13.525,6.2375 13.825,14.7 0.0125,0.4125 0.0125,0.825 0,1.225 -0.3,-8.45 5.4125,-15.5875 12.75,-15.925 7.3375,-0.3375 13.525,6.2375 13.825,14.7 0.0125,0.4125 0.0125,0.825 0,1.225 -0.3,-8.45 5.4125,-15.5875 12.75,-15.925 7.3375,-0.3375 13.525,6.2375 13.825,14.7 0.0125,0.4125 0.0125,0.825 0,1.225 -0.3,-8.45 5.4125,-15.5875 12.75,-15.925 7.3375,-0.3375 13.525,6.2375 13.825,14.7 0.0125,0.4125 0.0125,0.825 0,1.225"
       style="fill:none;stroke:#000000;stroke-width:2.70000005;stroke-linecap:round;stroke-linejoin:round;stroke-miterlimit:10;stroke-opacity:1;stroke-dasharray:none"
       id="path7837"
       inkscape:connector-curvature="0" />
    <path
       d="m 247.96676,848.84206 106.5,0"
       style="fill:none;stroke:#000000;stroke-width:2.70000005;stroke-linecap:round;stroke-linejoin:round;stroke-miterlimit:10;stroke-opacity:1;stroke-dasharray:none"
       id="path7839"
       inkscape:connector-curvature="0" />
    <path
       d="m 354.46676,875.84206 35.25,0"
       style="fill:none;stroke:#000000;stroke-width:2.70000005;stroke-linecap:round;stroke-linejoin:round;stroke-miterlimit:10;stroke-opacity:1;stroke-dasharray:none"
       id="path7841"
       inkscape:connector-curvature="0" />
    <path
       d="m 398.64176,875.54206 c 0,-2.4375 -1.9875,-4.425 -4.425,-4.425 -2.45,0 -4.4375,1.9875 -4.4375,4.425 0,2.45 1.9875,4.4375 4.4375,4.4375 2.4375,0 4.425,-1.9875 4.425,-4.4375 z"
       style="fill:#ffffff;fill-opacity:1;fill-rule:evenodd;stroke:none"
       id="path7843"
       inkscape:connector-curvature="0" />
    <path
       d="m 398.64176,875.54206 c 0,-2.4375 -1.9875,-4.425 -4.425,-4.425 -2.45,0 -4.4375,1.9875 -4.4375,4.425 0,2.45 1.9875,4.4375 4.4375,4.4375 2.4375,0 4.425,-1.9875 4.425,-4.4375 z"
       style="fill:none;stroke:#000000;stroke-width:2.70000005;stroke-linecap:round;stroke-linejoin:round;stroke-miterlimit:10;stroke-opacity:1;stroke-dasharray:none"
       id="path7845"
       inkscape:connector-curvature="0" />
    <path
       d="m 398.64176,1034.9921 c 0,-2.4375 -1.9875,-4.425 -4.425,-4.425 -2.45,0 -4.4375,1.9875 -4.4375,4.425 0,2.45 1.9875,4.4375 4.4375,4.4375 2.4375,0 4.425,-1.9875 4.425,-4.4375 z"
       style="fill:#ffffff;fill-opacity:1;fill-rule:evenodd;stroke:none"
       id="path7847"
       inkscape:connector-curvature="0" />
    <path
       d="m 398.64176,1034.9921 c 0,-2.4375 -1.9875,-4.425 -4.425,-4.425 -2.45,0 -4.4375,1.9875 -4.4375,4.425 0,2.45 1.9875,4.4375 4.4375,4.4375 2.4375,0 4.425,-1.9875 4.425,-4.4375 z"
       style="fill:none;stroke:#000000;stroke-width:2.70000005;stroke-linecap:round;stroke-linejoin:round;stroke-miterlimit:10;stroke-opacity:1;stroke-dasharray:none"
       id="path7849"
       inkscape:connector-curvature="0" />
    <path
       d="m 398.71676,875.84206 21.75,0 0,159.00004 -21.75,0"
       style="fill:none;stroke:#000000;stroke-width:2.70000005;stroke-linecap:round;stroke-linejoin:round;stroke-miterlimit:10;stroke-opacity:1;stroke-dasharray:none"
       id="path7851"
       inkscape:connector-curvature="0" />
    <path
       d="m 412.21676,971.84206 17.25,0 0,-44.25 -17.25,0 0,44.25 z"
       style="fill:#ffffff;fill-opacity:1;fill-rule:evenodd;stroke:none"
       id="path7853"
       inkscape:connector-curvature="0" />
    <path
       d="m 412.21676,971.84206 17.25,0 0,-44.25 -17.25,0 0,44.25 z"
       style="fill:none;stroke:#000000;stroke-width:2.70000005;stroke-linecap:round;stroke-linejoin:round;stroke-miterlimit:10;stroke-opacity:1;stroke-dasharray:none"
       id="path7855"
       inkscape:connector-curvature="0" />
    <path
       d="m 217.04176,875.54206 c 0,-2.4375 -1.975,-4.425 -4.425,-4.425 -2.45,0 -4.425,1.9875 -4.425,4.425 0,2.45 1.975,4.4375 4.425,4.4375 2.45,0 4.425,-1.9875 4.425,-4.4375 z"
       style="fill:#000000;fill-opacity:1;fill-rule:evenodd;stroke:none"
       id="path7857"
       inkscape:connector-curvature="0" />
    <path
       d="m 217.04176,875.54206 c 0,-2.4375 -1.975,-4.425 -4.425,-4.425 -2.45,0 -4.425,1.9875 -4.425,4.425 0,2.45 1.975,4.4375 4.425,4.4375 2.45,0 4.425,-1.9875 4.425,-4.4375 z"
       style="fill:none;stroke:#000000;stroke-width:2.70000005;stroke-linecap:round;stroke-linejoin:round;stroke-miterlimit:10;stroke-opacity:1;stroke-dasharray:none"
       id="path7859"
       inkscape:connector-curvature="0" />
    <path
       d="m 217.04176,1034.9921 c 0,-2.4375 -1.975,-4.425 -4.425,-4.425 -2.45,0 -4.425,1.9875 -4.425,4.425 0,2.45 1.975,4.4375 4.425,4.4375 2.45,0 4.425,-1.9875 4.425,-4.4375 z"
       style="fill:#000000;fill-opacity:1;fill-rule:evenodd;stroke:none"
       id="path7861"
       inkscape:connector-curvature="0" />
    <path
       d="m 217.04176,1034.9921 c 0,-2.4375 -1.975,-4.425 -4.425,-4.425 -2.45,0 -4.425,1.9875 -4.425,4.425 0,2.45 1.975,4.4375 4.425,4.4375 2.45,0 4.425,-1.9875 4.425,-4.4375 z"
       style="fill:none;stroke:#000000;stroke-width:2.70000005;stroke-linecap:round;stroke-linejoin:round;stroke-miterlimit:10;stroke-opacity:1;stroke-dasharray:none"
       id="path7863"
       inkscape:connector-curvature="0" />
    <text
       style="font-size:15px"
       id="text7865"
       x="45.691948"
       y="922.29205">
      <tspan
         style="font-size:17.49959946px;font-variant:normal;font-weight:normal;writing-mode:lr-tb;fill:#000000;fill-opacity:1;fill-rule:nonzero;stroke:none;font-family:ARIAL;-inkscape-font-specification:ARIAL"
         x="45.691948"
         y="922.29205"
         id="tspan7867">R</tspan>
    </text>
    <text
       style="font-size:15px"
       id="text7869"
       x="58.341789"
       y="924.70447">
      <tspan
         style="font-size:11.37330055px;font-variant:normal;font-weight:normal;writing-mode:lr-tb;fill:#000000;fill-opacity:1;fill-rule:nonzero;stroke:none;font-family:ARIAL;-inkscape-font-specification:ARIAL"
         x="58.341789"
         y="924.70447"
         id="tspan7871">i</tspan>
    </text>
    <text
       style="font-size:15px"
       id="text7873"
       x="131.55267"
       y="912.56903">
      <tspan
         style="font-size:17.49959946px;font-variant:normal;font-weight:normal;writing-mode:lr-tb;fill:#000000;fill-opacity:1;fill-rule:nonzero;stroke:none;font-family:ARIAL;-inkscape-font-specification:ARIAL"
         x="131.55267"
         y="912.56903"
         id="tspan7875">D</tspan>
    </text>
    <text
       style="font-size:15px"
       id="text7877"
       x="144.19"
       y="914.98145">
      <tspan
         style="font-size:11.37330055px;font-variant:normal;font-weight:normal;writing-mode:lr-tb;fill:#000000;fill-opacity:1;fill-rule:nonzero;stroke:none;font-family:ARIAL;-inkscape-font-specification:ARIAL"
         x="144.19"
         y="914.98145"
         id="tspan7879">1</tspan>
    </text>
    <text
       style="font-size:15px"
       id="text7881"
       x="239.84203"
       y="951.66705">
      <tspan
         style="font-size:17.49959946px;font-variant:normal;font-weight:normal;writing-mode:lr-tb;fill:#000000;fill-opacity:1;fill-rule:nonzero;stroke:none;font-family:ARIAL;-inkscape-font-specification:ARIAL"
         x="239.84203"
         y="951.66705"
         id="tspan7883">D</tspan>
    </text>
    <text
       style="font-size:15px"
       id="text7885"
       x="252.47935"
       y="954.07947">
      <tspan
         style="font-size:11.37330055px;font-variant:normal;font-weight:normal;writing-mode:lr-tb;fill:#000000;fill-opacity:1;fill-rule:nonzero;stroke:none;font-family:ARIAL;-inkscape-font-specification:ARIAL"
         x="252.47935"
         y="954.07947"
         id="tspan7887">r</tspan>
    </text>
    <text
       style="font-size:15px"
       id="text7889"
       x="296.32947"
       y="898.51703">
      <tspan
         style="font-size:17.49959946px;font-variant:normal;font-weight:normal;writing-mode:lr-tb;fill:#000000;fill-opacity:1;fill-rule:nonzero;stroke:none;font-family:ARIAL;-inkscape-font-specification:ARIAL"
         x="296.32947"
         y="898.51703"
         id="tspan7891">L</tspan>
    </text>
    <path
       d="m 371.71676,857.84206 42,0"
       style="fill:none;stroke:#0000ff;stroke-width:0.90000004;stroke-linecap:round;stroke-linejoin:round;stroke-miterlimit:10;stroke-opacity:1;stroke-dasharray:none"
       id="path7893"
       inkscape:connector-curvature="0" />
    <path
       d="m 412.96676,854.09206 12,3.75 -12,3.75 0,-7.5 z"
       style="fill:#0000ff;fill-opacity:1;fill-rule:evenodd;stroke:none"
       id="path7895"
       inkscape:connector-curvature="0" />
    <text
       style="font-size:15px"
       id="text7897"
       x="384.69189"
       y="849.8421">
      <tspan
         style="font-size:17.49959946px;font-variant:normal;font-weight:normal;writing-mode:lr-tb;fill:#0070c0;fill-opacity:1;fill-rule:nonzero;stroke:none;font-family:ARIAL;-inkscape-font-specification:ARIAL"
         x="384.69189"
         y="849.8421"
         id="tspan7899">I</tspan>
    </text>
    <text
       style="font-size:15px"
       id="text7901"
       x="389.55426"
       y="852.26703">
      <tspan
         style="font-size:11.37330055px;font-variant:normal;font-weight:normal;writing-mode:lr-tb;fill:#0070c0;fill-opacity:1;fill-rule:nonzero;stroke:none;font-family:ARIAL;-inkscape-font-specification:ARIAL"
         x="389.55426 397.14001"
         y="852.26703"
         sodipodi:role="line"
         id="tspan7903">AV</tspan>
    </text>
    <path
       d="m 393.71676,884.95107 0,124.48133"
       style="fill:none;stroke:#0000ff;stroke-width:1.21546721;stroke-linecap:round;stroke-linejoin:round;stroke-miterlimit:10;stroke-opacity:1;stroke-dasharray:none"
       id="path7905"
       inkscape:connector-curvature="0" />
    <path
       d="m 398.21676,1008.4218 -4.5,16.1703 -3.75,-16.1703 8.25,0 z"
       style="fill:#0000ff;fill-opacity:1;fill-rule:evenodd;stroke:none"
       id="path7907"
       inkscape:connector-curvature="0" />
    <text
       style="font-size:15px"
       id="text7909"
       x="362.74176"
       y="951.66705">
      <tspan
         style="font-size:17.49959946px;font-variant:normal;font-weight:normal;writing-mode:lr-tb;fill:#0070c0;fill-opacity:1;fill-rule:nonzero;stroke:none;font-family:ARIAL;-inkscape-font-specification:ARIAL"
         x="362.74176"
         y="951.66705"
         id="tspan7911">U</tspan>
    </text>
    <text
       style="font-size:15px"
       id="text7913"
       x="375.37939"
       y="954.07947">
      <tspan
         style="font-size:11.37330055px;font-variant:normal;font-weight:normal;writing-mode:lr-tb;fill:#0070c0;fill-opacity:1;fill-rule:nonzero;stroke:none;font-family:ARIAL;-inkscape-font-specification:ARIAL"
         x="375.37939 382.96515"
         y="954.07947"
         sodipodi:role="line"
         id="tspan7915">AV</tspan>
    </text>
    <text
       style="font-size:15px"
       id="text7917"
       x="20.016897"
       y="999.22961">
      <tspan
         style="font-size:22.5px;font-variant:normal;font-weight:normal;writing-mode:lr-tb;fill:#000000;fill-opacity:1;fill-rule:nonzero;stroke:none;font-family:ARIAL;-inkscape-font-specification:ARIAL"
         x="20.016897"
         y="999.22961"
         id="tspan7919">~</tspan>
    </text>
    <text
       style="font-size:15px"
       id="text7921"
       x="52.054253"
       y="995.01697">
      <tspan
         style="font-size:17.49959946px;font-variant:normal;font-weight:normal;writing-mode:lr-tb;fill:#000000;fill-opacity:1;fill-rule:nonzero;stroke:none;font-family:ARIAL;-inkscape-font-specification:ARIAL"
         x="52.054253"
         y="995.01697"
         id="tspan7923">U</tspan>
    </text>
  </g>
</svg>
