<?xml version="1.0" encoding="UTF-8" standalone="no"?>
<!-- Created with Inkscape (http://www.inkscape.org/) -->

<svg
   xmlns:ns0="http://www.iki.fi/pav/software/textext/"
   xmlns:dc="http://purl.org/dc/elements/1.1/"
   xmlns:cc="http://creativecommons.org/ns#"
   xmlns:rdf="http://www.w3.org/1999/02/22-rdf-syntax-ns#"
   xmlns:svg="http://www.w3.org/2000/svg"
   xmlns="http://www.w3.org/2000/svg"
   xmlns:sodipodi="http://sodipodi.sourceforge.net/DTD/sodipodi-0.dtd"
   xmlns:inkscape="http://www.inkscape.org/namespaces/inkscape"
   id="svg2"
   version="1.1"
   inkscape:version="0.48.0 r9654"
   width="500"
   height="500"
   xml:space="preserve"
   sodipodi:docname="fig_vl_vektory.svg"><sodipodi:namedview
     pagecolor="#ffffff"
     bordercolor="#666666"
     borderopacity="1"
     objecttolerance="10"
     gridtolerance="10"
     guidetolerance="10"
     inkscape:pageopacity="0"
     inkscape:pageshadow="2"
     inkscape:window-width="1917"
     inkscape:window-height="1138"
     id="namedview4"
     showgrid="false"
     inkscape:zoom="1.6665272"
     inkscape:cx="258.00778"
     inkscape:cy="223.15797"
     inkscape:window-x="-8"
     inkscape:window-y="-8"
     inkscape:window-maximized="1"
     inkscape:current-layer="g10" /><metadata
     id="metadata8"><rdf:RDF><cc:Work
         rdf:about=""><dc:format>image/svg+xml</dc:format><dc:type
           rdf:resource="http://purl.org/dc/dcmitype/StillImage" /><dc:title /></cc:Work></rdf:RDF></metadata><defs
     id="defs6" /><g
     transform="matrix(1.25,0,0,-1.25,0,500)"
     inkscape:label="skici"
     inkscape:groupmode="layer"
     id="g10"><path
   inkscape:connector-curvature="0"
   id="path12"
   style="fill:#5880b3;fill-opacity:1;fill-rule:evenodd;stroke:none"
   d="m 333.47302,117.33313 27.61031,27.61032 23.19267,-35.34121 -50.80298,7.73089 z" /><path
   inkscape:connector-curvature="0"
   id="path14"
   style="fill:none;stroke:#548bd4;stroke-width:1.0602361;stroke-linecap:round;stroke-linejoin:round;stroke-miterlimit:10;stroke-opacity:1;stroke-dasharray:none"
   d="m 333.47302,117.33313 27.61031,27.61032 23.19267,-35.34121 -50.80298,7.73089 z" /><path
   inkscape:connector-curvature="0"
   id="path16"
   style="fill:none;stroke:#000000;stroke-width:1.0602361;stroke-linecap:round;stroke-linejoin:round;stroke-miterlimit:10;stroke-opacity:1;stroke-dasharray:none"
   d="M 384.276,109.60224 301.44505,235.50528 8.7757219,276.36855 92.71108,151.56992 384.276,109.60224" /><path
   inkscape:connector-curvature="0"
   id="path18"
   style="fill:none;stroke:#c00000;stroke-width:1.0602361;stroke-linecap:round;stroke-linejoin:round;stroke-miterlimit:10;stroke-opacity:1;stroke-dasharray:none"
   d="M 188.79497,205.68614 217.5097,339.32007" /><path
   inkscape:connector-curvature="0"
   id="path20"
   style="fill:none;stroke:#c00000;stroke-width:1.0602361;stroke-linecap:round;stroke-linejoin:round;stroke-miterlimit:10;stroke-opacity:1;stroke-dasharray:none"
   d="M 174.43761,139.42138 141.30523,4.683046" /><path
   inkscape:connector-curvature="0"
   id="path22"
   style="fill:none;stroke:#000000;stroke-width:2.20882511;stroke-linecap:round;stroke-linejoin:round;stroke-miterlimit:10;stroke-opacity:1;stroke-dasharray:none"
   d="m 158.97583,295.14356 29.81914,-90.56183 86.14418,-56.32504" /><path
   inkscape:connector-curvature="0"
   id="path24"
   style="fill:#000000;fill-opacity:1;fill-rule:evenodd;stroke:none"
   d="m 153.45377,291.83032 0,18.77502 11.04412,-14.35737 -11.04412,-4.41765 z" /><path
   inkscape:connector-curvature="0"
   id="path26"
   style="fill:#000000;fill-opacity:1;fill-rule:evenodd;stroke:none"
   d="m 277.14798,153.77875 11.04412,-14.35737 -17.6706,4.41765 6.62648,9.93972 z" /><path
   inkscape:connector-curvature="0"
   id="path28"
   style="fill:none;stroke:#000000;stroke-width:2.20882511;stroke-linecap:round;stroke-linejoin:round;stroke-miterlimit:10;stroke-opacity:1;stroke-dasharray:none"
   d="m 188.79497,205.68614 10.87387,50.19332"
   sodipodi:nodetypes="cc" /><path
   inkscape:connector-curvature="0"
   id="path30"
   style="fill:#000000;fill-opacity:1;fill-rule:evenodd;stroke:none"
   d="m 194.38679,257.07956 8.83531,15.46178 2.20882,-18.77501 -11.04413,3.31323 z" /><path
   inkscape:connector-curvature="0"
   id="path32"
   style="fill:none;stroke:#000000;stroke-width:1.0602361;stroke-linecap:round;stroke-linejoin:round;stroke-miterlimit:10;stroke-opacity:1;stroke-dasharray:none"
   d="m 154.55818,310.60534 53.0118,-15.46178" /><path
   inkscape:connector-curvature="0"
   id="path34"
   style="fill:none;stroke:#000000;stroke-width:2.20882511;stroke-linecap:round;stroke-linejoin:round;stroke-miterlimit:10;stroke-opacity:1;stroke-dasharray:none"
   d="m 150.14053,217.83468 38.65444,-12.14854" /><path
   inkscape:connector-curvature="0"
   id="path36"
   style="fill:#000000;fill-opacity:1;fill-rule:evenodd;stroke:none"
   d="m 149.03612,211.2082 -14.35736,11.04413 18.77501,1.10441 -4.41765,-12.14854 z" /><path
   inkscape:connector-curvature="0"
   id="path38"
   style="fill:none;stroke:#000000;stroke-width:1.0602361;stroke-linecap:round;stroke-linejoin:round;stroke-miterlimit:10;stroke-opacity:1;stroke-dasharray:none"
   d="m 134.67876,222.25233 18.77501,88.35301" /><path
   inkscape:connector-curvature="0"
   id="path40"
   style="fill:#ffffff;fill-opacity:1;fill-rule:evenodd;stroke:none"
   d="m 191.94623,205.81867 c 0,2.03212 -1.56091,3.68138 -3.47522,3.68138 -1.92904,0 -3.48995,-1.64926 -3.48995,-3.68138 0,-2.03212 1.56091,-3.6961 3.48995,-3.6961 1.91431,0 3.47522,1.66398 3.47522,3.6961 z" /><path
   inkscape:connector-curvature="0"
   id="path42"
   style="fill:none;stroke:#000000;stroke-width:1.0602361;stroke-linecap:round;stroke-linejoin:round;stroke-miterlimit:10;stroke-opacity:1;stroke-dasharray:none"
   d="m 191.94623,205.81867 c 0,2.03212 -1.56091,3.68138 -3.47522,3.68138 -1.92904,0 -3.48995,-1.64926 -3.48995,-3.68138 0,-2.03212 1.56091,-3.6961 3.48995,-3.6961 1.91431,0 3.47522,1.66398 3.47522,3.6961 z" /><g
   ns0:preamble=""
   ns0:text="$\\mathcal{U}^\\bot=\\ker{P}$\n"
   word-spacing="normal"
   letter-spacing="normal"
   font-size-adjust="none"
   font-stretch="normal"
   font-weight="normal"
   font-variant="normal"
   font-style="normal"
   stroke-miterlimit="10.433"
   xml:space="preserve"
   transform="matrix(1.6689344,0,0,1.6689344,-142.4893,-844.28943)"
   id="content"
   style="font-style:normal;font-variant:normal;font-weight:normal;font-stretch:normal;letter-spacing:normal;word-spacing:normal;text-anchor:start;fill:none;stroke:#000000;stroke-linecap:butt;stroke-linejoin:miter;stroke-miterlimit:10.43299961;stroke-opacity:1;stroke-dasharray:none;stroke-dashoffset:0">








<g
   ns0:preamble=""
   ns0:text="$\\mathcal{U}^\\bot=\\ker{\\mathbf{P}}$\n"
   word-spacing="normal"
   letter-spacing="normal"
   font-size-adjust="none"
   font-stretch="normal"
   font-weight="normal"
   font-variant="normal"
   font-style="normal"
   stroke-miterlimit="10.433"
   xml:space="preserve"
   transform="matrix(1.0036486,0,0,1.0036486,-0.86020835,-4.1208771)"
   id="g3190"
   style="font-style:normal;font-variant:normal;font-weight:normal;font-stretch:normal;letter-spacing:normal;word-spacing:normal;text-anchor:start;fill:none;stroke:#000000;stroke-linecap:butt;stroke-linejoin:miter;stroke-miterlimit:10.43299961;stroke-opacity:1;stroke-dasharray:none;stroke-dashoffset:0">
<path
   id="path3192"
   d="m 228.35,710.07 -0.03,-0.08 -0.02,-0.08 -0.04,-0.17 -0.05,-0.18 -0.05,-0.18 -0.05,-0.18 -0.05,-0.19 -0.04,-0.19 -0.05,-0.19 -0.04,-0.19 -0.04,-0.19 -0.03,-0.19 -0.03,-0.18 -0.02,-0.08 -0.01,-0.09 -0.01,-0.09 -0.01,-0.08 0,-0.08 -0.01,-0.08 0,-0.07 0,-0.08 c 0,-0.26 0.17,-0.38 0.41,-0.38 0.4,0 1.14,0.42 1.14,0.62 0,0.05 -0.05,0.07 -0.1,0.07 -0.12,0 -0.29,-0.09 -0.4,-0.15 -0.14,0.02 -0.2,0.12 -0.2,0.26 0,1.22 1.13,4.7 1.42,5.44 0.12,0.27 0.25,0.68 0.25,0.76 0,0.07 -0.06,0.07 -0.1,0.07 -0.21,0 -0.66,-0.27 -0.74,-0.45 -0.13,-0.35 -0.15,-0.4 -0.27,-0.77 -0.33,-0.95 -1.31,-2.59 -2.3,-3.74 -0.31,-0.35 -1.28,-1.51 -1.99,-1.51 -0.48,0 -0.78,0.41 -0.78,1.07 0,0.7 0.39,1.59 0.99,2.95 0.36,0.82 0.66,1.53 0.66,1.98 0,0.46 -0.32,0.47 -0.5,0.47 -0.77,0 -1.73,-0.62 -1.73,-0.82 0,-0.06 0.07,-0.06 0.11,-0.06 0.12,0 0.3,0.08 0.46,0.19 0.07,0.05 0.23,0.15 0.5,0.15 0.22,0 0.31,-0.14 0.31,-0.36 0,-0.44 -0.36,-1.26 -0.78,-2.21 -0.66,-1.49 -0.87,-2.13 -0.87,-2.71 0,-0.66 0.26,-1.19 0.97,-1.19 0.62,0 1.53,0.4 2.54,1.35 0.69,0.65 1.14,1.24 1.57,1.82 z"
   inkscape:connector-curvature="0"
   style="fill:#000000;stroke-width:0" />
<path
   id="path3194"
   d="m 233.94,715.29 0,0.01 0,0.01 0,0.01 0,0.02 -0.01,0.02 0,0.01 0,0.01 0,0.01 0,0.01 0,0.01 0,0.02 -0.01,0.01 0,0.01 0,0.01 0,0.01 -0.01,0.01 0,0.01 -0.01,0.01 0,0.01 -0.01,0.01 -0.01,0 -0.01,0.01 0,0 0,0.01 -0.01,0 0,0 -0.01,0.01 0,0 -0.01,0 0,0 -0.01,0.01 -0.01,0 0,0 -0.01,0 0,0 -0.01,0 -0.01,0 -0.01,0.01 0,0 -0.01,0 c -0.17,0 -0.17,-0.16 -0.17,-0.28 v -4.21 h -2.13 c -0.1,0 -0.28,0 -0.28,-0.17 0,-0.17 0.16,-0.17 0.28,-0.17 h 4.59 c 0.11,0 0.28,0 0.28,0.17 0,0.17 -0.16,0.17 -0.28,0.17 h -2.12 z"
   inkscape:connector-curvature="0"
   style="fill:#000000;stroke-width:0" />
<path
   id="path3196"
   d="m 247,710.38 0.03,0 0.02,0 0.03,0 0.02,0 0.01,0 0.02,0 0.01,0.01 0.02,0 0.01,0 0.01,0 0.02,0.01 0.01,0 0.01,0 0.01,0.01 0.02,0 0.01,0.01 0.01,0.01 0.01,0.01 0.01,0 0.01,0.01 0,0.01 0.01,0.01 0,0 0,0.01 0.01,0.01 0,0 0,0.01 0.01,0.01 0,0 0,0.01 0,0.01 0,0 0,0.01 0,0.01 0.01,0.01 0,0.01 0,0.01 c 0,0.2 -0.19,0.2 -0.33,0.2 h -5.97 c -0.14,0 -0.33,0 -0.33,-0.2 0,-0.2 0.19,-0.2 0.34,-0.2 z"
   inkscape:connector-curvature="0"
   style="fill:#000000;stroke-width:0" />
<path
   id="path3198"
   d="m 247.01,708.45 0.02,0 0.03,0 0.03,0 0.01,0 0.02,0 0.01,0 0.02,0.01 0.01,0 0.01,0 0.02,0 0.01,0.01 0.01,0 0.01,0 0.02,0.01 0.01,0 0.01,0.01 0.01,0.01 0.01,0.01 0.01,0 0.01,0.01 0,0.01 0,0 0.01,0.01 0,0 0,0.01 0.01,0.01 0,0 0,0.01 0.01,0.01 0,0 0,0.01 0,0.01 0,0 0,0.01 0,0.01 0.01,0.01 0,0.01 0,0.01 c 0,0.2 -0.19,0.2 -0.34,0.2 h -5.95 c -0.15,0 -0.34,0 -0.34,-0.2 0,-0.2 0.19,-0.2 0.33,-0.2 z"
   inkscape:connector-curvature="0"
   style="fill:#000000;stroke-width:0" />
<path
   id="path3200"
   d="m 251.72,707.88 0,-0.02 0,-0.02 0,-0.04 0,-0.03 0,-0.04 -0.01,-0.03 0,-0.03 -0.01,-0.02 0,-0.03 -0.01,-0.02 -0.01,-0.02 -0.01,-0.02 -0.02,-0.02 -0.01,-0.01 -0.02,-0.02 -0.01,-0.01 -0.02,-0.01 -0.03,-0.01 -0.02,-0.01 -0.03,-0.01 -0.02,0 -0.03,-0.01 -0.04,0 -0.03,-0.01 -0.02,0 -0.02,0 -0.02,0 -0.02,0 -0.02,0 -0.02,0 -0.03,0 -0.02,0 -0.02,0 -0.03,-0.01 -0.02,0 -0.03,0 -0.03,0 -0.02,0 -0.03,0 -0.03,0 -0.03,0 -0.03,0 v -0.3 c 0.33,0.01 0.79,0.03 1.08,0.03 0.3,0 0.7,-0.01 1.1,-0.03 v 0.3 c -0.67,0 -0.78,0 -0.78,0.45 v 1.03 l 0.64,0.54 c 0.77,-1.05 1.19,-1.61 1.19,-1.79 0,-0.19 -0.17,-0.23 -0.36,-0.23 v -0.3 c 0.28,0.01 0.86,0.03 1.07,0.03 0.29,0 0.58,-0.01 0.87,-0.03 v 0.3 c -0.37,0 -0.59,0 -0.97,0.53 l -1.26,1.78 c -0.01,0.02 -0.06,0.08 -0.06,0.11 0,0.04 0.71,0.64 0.81,0.72 0.62,0.51 1.04,0.53 1.25,0.54 v 0.3 c -0.29,-0.02 -0.42,-0.02 -0.7,-0.02 -0.35,0 -0.97,0.02 -1.11,0.02 v -0.3 c 0.19,-0.01 0.29,-0.12 0.29,-0.25 0,-0.2 -0.14,-0.32 -0.22,-0.39 l -1.41,-1.21 v 4.77 l -1.43,-0.11 v -0.31 c 0.69,0 0.77,-0.07 0.77,-0.55 z"
   inkscape:connector-curvature="0"
   style="fill:#000000;stroke-width:0" />
<path
   id="path3202"
   d="m 256.75,709.42 0.01,0.21 c 0.06,1.49 0.9,1.73 1.24,1.73 1.03,0 1.13,-1.34 1.13,-1.73 h -2.37 l -0.01,-0.21 h 2.78 c 0.22,0 0.25,0 0.25,0.21 0,0.99 -0.54,1.95 -1.78,1.95 -1.16,0 -2.07,-1.02 -2.07,-2.26 0,-1.34 1.04,-2.3 2.19,-2.3 1.21,0 1.66,1.1 1.66,1.29 0,0.1 -0.08,0.12 -0.13,0.12 -0.09,0 -0.11,-0.06 -0.13,-0.14 -0.34,-1.03 -1.24,-1.03 -1.34,-1.03 -0.5,0 -0.9,0.3 -1.13,0.67 -0.3,0.48 -0.3,1.14 -0.3,1.49 z"
   inkscape:connector-curvature="0"
   style="fill:#000000;stroke-width:0" />
<path
   id="path3204"
   d="m 261.74,710.43 v 1.09 l -1.39,-0.11 v -0.3 c 0.7,0 0.78,-0.07 0.78,-0.56 v -2.67 c 0,-0.45 -0.11,-0.45 -0.78,-0.45 v -0.3 c 0.39,0.01 0.86,0.03 1.14,0.03 0.4,0 0.87,0 1.27,-0.03 v 0.3 h -0.21 c -0.74,0 -0.76,0.11 -0.76,0.47 v 1.53 c 0,0.99 0.42,1.87 1.17,1.87 0.08,0 0.09,0 0.12,-0.01 -0.03,-0.01 -0.23,-0.12 -0.23,-0.38 0,-0.28 0.2,-0.43 0.42,-0.43 0.18,0 0.43,0.12 0.43,0.44 0,0.31 -0.31,0.6 -0.74,0.6 -0.72,0 -1.08,-0.66 -1.22,-1.09 z"
   inkscape:connector-curvature="0"
   style="fill:#000000;stroke-width:0" />
<path
   id="path3206"
   d="m 268.52,710.13 -0.06,0.41 v 2.94 h 1.34 c 1.5,0 1.5,-0.75 1.5,-1.47 0,-0.71 0,-1.47 -1.51,-1.47 h 0 -1.33 l 0.06,-0.41 h 1.76 c 1.39,0 2.54,0.72 2.54,1.88 0,1.1 -0.98,1.94 -2.64,1.94 h -4.16 v -0.47 h 1.08 v -5.89 h -1.08 v -0.46 c 0.38,0.03 1.36,0.03 1.79,0.03 0.43,0 1.4,0 1.78,-0.03 v 0.46 h -1.07 z"
   inkscape:connector-curvature="0"
   style="fill:#000000;stroke-width:0" />
</g>
</g>
<g
   style="font-style:normal;font-variant:normal;font-weight:normal;font-stretch:normal;letter-spacing:normal;word-spacing:normal;text-anchor:start;fill:none;stroke:#000000;stroke-linecap:butt;stroke-linejoin:miter;stroke-miterlimit:10.43299961;stroke-opacity:1;stroke-dasharray:none;stroke-dashoffset:0"
   id="g3289"
   transform="matrix(1.7304906,0,0,1.7304906,-118.78803,-1065.8004)"
   xml:space="preserve"
   stroke-miterlimit="10.433"
   font-style="normal"
   font-variant="normal"
   font-weight="normal"
   font-stretch="normal"
   font-size-adjust="none"
   letter-spacing="normal"
   word-spacing="normal"
   ns0:text="$\\mathbf{u}=\\mathbf{Pu}$\n"
   ns0:preamble="">
<path
   style="fill:#000000;stroke-width:0"
   inkscape:connector-curvature="0"
   d="m 227.8,707.84 v -0.77 l 1.76,0.06 v 0.46 c -0.61,0 -0.68,0 -0.68,0.39 v 3.62 l -1.83,-0.08 v -0.46 c 0.62,0 0.69,0 0.69,-0.39 v -1.9 c 0,-0.82 -0.51,-1.35 -1.24,-1.35 -0.76,0 -0.79,0.25 -0.79,0.79 v 3.39 l -1.83,-0.08 v -0.46 c 0.62,0 0.69,0 0.69,-0.39 v -2.32 c 0,-1.07 0.81,-1.28 1.79,-1.28 0.26,0 0.98,0 1.44,0.77 z"
   id="path3291" />
<path
   style="fill:#000000;stroke-width:0"
   inkscape:connector-curvature="0"
   d="m 239.41,710.38 0.03,0 0.03,0 0.03,0 0.01,0 0.02,0 0.01,0 0.02,0.01 0.01,0 0.02,0 0.01,0 0.01,0.01 0.02,0 0.01,0 0.01,0.01 0.01,0 0.01,0.01 0.01,0.01 0.01,0.01 0.01,0 0.01,0.01 0.01,0.01 0,0.01 0.01,0 0,0.01 0,0.01 0.01,0 0,0.01 0,0.01 0,0 0,0.01 0.01,0.01 0,0 0,0.01 0,0.01 0,0.01 0,0.01 0,0.01 c 0,0.2 -0.19,0.2 -0.33,0.2 h -5.97 c -0.14,0 -0.33,0 -0.33,-0.2 0,-0.2 0.19,-0.2 0.34,-0.2 z"
   id="path3293" />
<path
   style="fill:#000000;stroke-width:0"
   inkscape:connector-curvature="0"
   d="m 239.42,708.45 0.03,0 0.03,0 0.02,0 0.02,0 0.01,0 0.02,0 0.01,0.01 0.01,0 0.02,0 0.01,0 0.01,0.01 0.02,0 0.01,0 0.01,0.01 0.01,0 0.01,0.01 0.01,0.01 0.01,0.01 0.01,0 0.01,0.01 0.01,0.01 0,0 0,0.01 0.01,0 0,0.01 0,0.01 0.01,0 0,0.01 0,0.01 0,0 0,0.01 0.01,0.01 0,0 0,0.01 0,0.01 0,0.01 0,0.01 0,0.01 c 0,0.2 -0.19,0.2 -0.34,0.2 h -5.95 c -0.15,0 -0.34,0 -0.34,-0.2 0,-0.2 0.19,-0.2 0.33,-0.2 z"
   id="path3295" />
<path
   style="fill:#000000;stroke-width:0"
   inkscape:connector-curvature="0"
   d="m 245.96,710.13 -0.06,0.41 v 2.94 h 1.35 c 1.49,0 1.49,-0.75 1.49,-1.47 0,-0.71 0,-1.47 -1.5,-1.47 h 0 -1.34 l 0.06,-0.41 h 1.77 c 1.38,0 2.54,0.72 2.54,1.88 0,1.1 -0.99,1.94 -2.64,1.94 h -4.16 v -0.47 h 1.07 v -5.89 h -1.07 v -0.46 c 0.38,0.03 1.35,0.03 1.78,0.03 0.43,0 1.41,0 1.79,-0.03 v 0.46 h -1.08 z"
   id="path3297" />
<path
   style="fill:#000000;stroke-width:0"
   inkscape:connector-curvature="0"
   d="m 255.28,707.84 v -0.77 l 1.76,0.06 v 0.46 c -0.62,0 -0.69,0 -0.69,0.39 v 3.62 l -1.82,-0.08 v -0.46 c 0.62,0 0.69,0 0.69,-0.39 v -1.9 c 0,-0.82 -0.51,-1.35 -1.24,-1.35 -0.77,0 -0.8,0.25 -0.8,0.79 v 3.39 l -1.82,-0.08 v -0.46 c 0.62,0 0.69,0 0.69,-0.39 v -2.32 c 0,-1.07 0.8,-1.28 1.79,-1.28 0.26,0 0.98,0 1.44,0.77 z"
   id="path3299" />
</g>
<g
   id="g3494"
   transform="matrix(1.6724138,0,0,1.6724138,-175.11721,-959.04114)"
   xml:space="preserve"
   stroke-miterlimit="10.433"
   font-style="normal"
   font-variant="normal"
   font-weight="normal"
   font-stretch="normal"
   font-size-adjust="none"
   letter-spacing="normal"
   word-spacing="normal"
   ns0:text="$\\mathbf{v},\\,\\mathbf{Pv}=0$\n\n"
   ns0:preamble=""
   style="font-style:normal;font-variant:normal;font-weight:normal;font-stretch:normal;letter-spacing:normal;word-spacing:normal;text-anchor:start;fill:none;stroke:#000000;stroke-linecap:butt;stroke-linejoin:miter;stroke-miterlimit:10.43299961;stroke-opacity:1;stroke-dasharray:none;stroke-dashoffset:0">
<path
   d="m 228.48,710.87 0.01,0.02 0.01,0.03 0.01,0.01 0,0.01 0.01,0.01 0.01,0.01 0.01,0.01 0.01,0.01 0.01,0.01 0.01,0 0.01,0.01 0.02,0.01 0.01,0.01 0.02,0 0.02,0.01 0.02,0.01 0.02,0 0.03,0.01 0.02,0 0.02,0 0.01,0.01 0.02,0 0.01,0 0.02,0 0.02,0 0.02,0 0.01,0.01 0.02,0 0.02,0 0.02,0 0.03,0 0.02,0 0.02,0 0.03,0 0.02,0 0.03,0 0.02,0.01 0.03,0 0.03,0 0.02,0 0.03,0 v 0.46 c -0.25,-0.02 -0.53,-0.03 -0.78,-0.03 -0.25,0 -0.7,0.02 -0.91,0.03 v -0.46 c 0.19,0 0.48,-0.03 0.48,-0.11 0,-0.01 -0.01,-0.03 -0.05,-0.12 l -1.16,-2.49 -1.27,2.72 h 0.54 v 0.46 c -0.32,-0.02 -1.22,-0.03 -1.23,-0.03 -0.28,0 -0.73,0.02 -1.14,0.03 v -0.46 h 0.64 l 1.74,-3.75 c 0.12,-0.24 0.25,-0.24 0.38,-0.24 0.17,0 0.27,0.02 0.37,0.23 z"
   id="path3496"
   inkscape:connector-curvature="0"
   style="fill:#000000;stroke-width:0" />
<path
   d="m 231.66,707.14 0,0.06 0,0.06 0,0.05 -0.01,0.06 -0.01,0.05 0,0.06 -0.01,0.05 -0.01,0.05 -0.01,0.04 -0.02,0.05 -0.01,0.04 -0.02,0.04 -0.01,0.04 -0.02,0.04 -0.02,0.04 -0.02,0.03 -0.02,0.04 -0.03,0.03 -0.02,0.03 -0.02,0.02 -0.03,0.03 -0.03,0.02 -0.02,0.02 -0.03,0.02 -0.03,0.02 -0.03,0.01 -0.03,0.01 -0.04,0.01 -0.03,0.01 -0.03,0.01 -0.04,0 -0.04,0 c -0.32,0 -0.53,-0.25 -0.53,-0.53 0,-0.27 0.21,-0.52 0.53,-0.52 0.12,0 0.25,0.03 0.35,0.12 0.03,0.02 0.04,0.03 0.05,0.03 0.01,0 0.02,-0.01 0.02,-0.14 0,-0.74 -0.35,-1.34 -0.68,-1.67 -0.11,-0.11 -0.11,-0.13 -0.11,-0.16 0,-0.07 0.06,-0.11 0.1,-0.11 0.11,0 0.91,0.77 0.91,1.94 z"
   id="path3498"
   inkscape:connector-curvature="0"
   style="fill:#000000;stroke-width:0" />
<path
   d="m 238.61,710.13 -0.06,0.41 v 2.94 h 1.34 c 1.5,0 1.5,-0.75 1.5,-1.47 0,-0.71 0,-1.47 -1.51,-1.47 h 0 -1.33 l 0.06,-0.41 h 1.76 c 1.39,0 2.54,0.72 2.54,1.88 0,1.1 -0.98,1.94 -2.64,1.94 h -4.15 v -0.47 h 1.07 v -5.89 h -1.07 v -0.46 c 0.37,0.03 1.35,0.03 1.78,0.03 0.43,0 1.4,0 1.78,-0.03 v 0.46 h -1.07 z"
   id="path3500"
   inkscape:connector-curvature="0"
   style="fill:#000000;stroke-width:0" />
<path
   d="m 248.6,710.87 0.01,0.02 0.01,0.03 0.01,0.01 0.01,0.01 0,0.01 0.01,0.01 0.01,0.01 0.01,0.01 0.01,0.01 0.01,0 0.02,0.01 0.01,0.01 0.02,0.01 0.01,0 0.02,0.01 0.02,0.01 0.03,0 0.02,0.01 0.03,0 0.01,0 0.02,0.01 0.01,0 0.02,0 0.02,0 0.01,0 0.02,0 0.02,0.01 0.02,0 0.02,0 0.02,0 0.02,0 0.02,0 0.03,0 0.02,0 0.02,0 0.03,0 0.03,0.01 0.02,0 0.03,0 0.03,0 0.03,0 v 0.46 c -0.25,-0.02 -0.54,-0.03 -0.79,-0.03 -0.25,0 -0.7,0.02 -0.9,0.03 v -0.46 c 0.18,0 0.47,-0.03 0.47,-0.11 0,-0.01 -0.01,-0.03 -0.05,-0.12 l -1.15,-2.49 -1.27,2.72 h 0.54 v 0.46 c -0.33,-0.02 -1.23,-0.03 -1.24,-0.03 -0.28,0 -0.72,0.02 -1.13,0.03 v -0.46 h 0.64 l 1.74,-3.75 c 0.12,-0.24 0.25,-0.24 0.38,-0.24 0.17,0 0.27,0.02 0.37,0.23 z"
   id="path3502"
   inkscape:connector-curvature="0"
   style="fill:#000000;stroke-width:0" />
<path
   d="m 259.38,710.38 0.03,0 0.03,0 0.03,0 0.01,0 0.02,0 0.01,0 0.01,0.01 0.02,0 0.01,0 0.02,0 0.01,0.01 0.01,0 0.01,0 0.02,0.01 0.01,0 0.01,0.01 0.01,0.01 0.01,0.01 0.01,0 0.01,0.01 0.01,0.01 0,0.01 0,0 0.01,0.01 0,0.01 0,0 0.01,0.01 0,0.01 0,0 0,0.01 0,0.01 0,0 0.01,0.01 0,0.01 0,0.01 0,0.01 0,0.01 c 0,0.2 -0.19,0.2 -0.33,0.2 h -5.97 c -0.14,0 -0.33,0 -0.33,-0.2 0,-0.2 0.19,-0.2 0.34,-0.2 z"
   id="path3504"
   inkscape:connector-curvature="0"
   style="fill:#000000;stroke-width:0" />
<path
   d="m 259.39,708.45 0.03,0 0.02,0 0.03,0 0.02,0 0.01,0 0.01,0 0.02,0.01 0.01,0 0.01,0 0.02,0 0.01,0.01 0.01,0 0.02,0 0.01,0.01 0.01,0 0.01,0.01 0.01,0.01 0.01,0.01 0.01,0 0.01,0.01 0,0.01 0.01,0 0,0.01 0,0 0.01,0.01 0,0.01 0,0 0.01,0.01 0,0.01 0,0 0,0.01 0,0.01 0,0 0.01,0.01 0,0.01 0,0.01 0,0.01 0,0.01 c 0,0.2 -0.19,0.2 -0.34,0.2 h -5.95 c -0.15,0 -0.34,0 -0.34,-0.2 0,-0.2 0.19,-0.2 0.33,-0.2 z"
   id="path3506"
   inkscape:connector-curvature="0"
   style="fill:#000000;stroke-width:0" />
<path
   d="m 267.64,710.31 -0.01,0.15 0,0.15 0,0.15 -0.01,0.15 -0.01,0.14 -0.01,0.15 -0.01,0.15 -0.02,0.15 -0.03,0.14 -0.02,0.15 -0.04,0.14 -0.03,0.15 -0.05,0.14 -0.05,0.14 -0.05,0.14 -0.03,0.07 -0.03,0.07 c -0.46,0.95 -1.28,1.11 -1.7,1.11 -0.6,0 -1.32,-0.26 -1.73,-1.18 -0.32,-0.69 -0.37,-1.46 -0.37,-2.26 0,-0.75 0.04,-1.64 0.45,-2.4 0.43,-0.81 1.15,-1 1.64,-1 v 0.22 c -0.39,0 -0.98,0.24 -1.15,1.2 -0.11,0.6 -0.11,1.51 -0.11,2.1 0,0.64 0,1.29 0.08,1.83 0.19,1.19 0.93,1.27 1.18,1.27 0.33,0 0.99,-0.18 1.18,-1.16 0.1,-0.56 0.1,-1.31 0.1,-1.94 0,-0.75 0,-1.42 -0.11,-2.06 -0.15,-0.95 -0.72,-1.24 -1.17,-1.24 h 0 v -0.22 c 0.54,0 1.3,0.2 1.74,1.15 0.31,0.69 0.37,1.46 0.37,2.25 z"
   id="path3508"
   inkscape:connector-curvature="0"
   style="fill:#000000;stroke-width:0" />
</g>
<g
   style="font-style:normal;font-variant:normal;font-weight:normal;font-stretch:normal;letter-spacing:normal;word-spacing:normal;text-anchor:start;fill:none;stroke:#000000;stroke-linecap:butt;stroke-linejoin:miter;stroke-miterlimit:10.43299961;stroke-opacity:1;stroke-dasharray:none;stroke-dashoffset:0"
   ns0:preamble=""
   ns0:text="$\\mathcal{U}=\\mathrm{Im}\\,\\mathbf{P}$ \n\n"
   word-spacing="normal"
   letter-spacing="normal"
   font-size-adjust="none"
   font-stretch="normal"
   font-weight="normal"
   font-variant="normal"
   font-style="normal"
   stroke-miterlimit="10.433"
   xml:space="preserve"
   transform="matrix(1.8008135,0,0,1.8008135,-84.979443,-1184.3732)"
   id="g3605">
<path
   id="path3607"
   d="m 228.35,710.07 -0.03,-0.08 -0.02,-0.08 -0.04,-0.17 -0.05,-0.18 -0.05,-0.18 -0.05,-0.18 -0.05,-0.19 -0.04,-0.19 -0.05,-0.19 -0.04,-0.19 -0.04,-0.19 -0.03,-0.19 -0.03,-0.18 -0.02,-0.08 -0.01,-0.09 -0.01,-0.09 -0.01,-0.08 0,-0.08 -0.01,-0.08 0,-0.07 0,-0.08 c 0,-0.26 0.17,-0.38 0.41,-0.38 0.4,0 1.14,0.42 1.14,0.62 0,0.05 -0.05,0.07 -0.1,0.07 -0.12,0 -0.29,-0.09 -0.4,-0.15 -0.14,0.02 -0.2,0.12 -0.2,0.26 0,1.22 1.13,4.7 1.42,5.44 0.12,0.27 0.25,0.68 0.25,0.76 0,0.07 -0.06,0.07 -0.1,0.07 -0.21,0 -0.66,-0.27 -0.74,-0.45 -0.13,-0.35 -0.15,-0.4 -0.27,-0.77 -0.33,-0.95 -1.31,-2.59 -2.3,-3.74 -0.31,-0.35 -1.28,-1.51 -1.99,-1.51 -0.48,0 -0.78,0.41 -0.78,1.07 0,0.7 0.39,1.59 0.99,2.95 0.36,0.82 0.66,1.53 0.66,1.98 0,0.46 -0.32,0.47 -0.5,0.47 -0.77,0 -1.73,-0.62 -1.73,-0.82 0,-0.06 0.07,-0.06 0.11,-0.06 0.12,0 0.3,0.08 0.46,0.19 0.07,0.05 0.23,0.15 0.5,0.15 0.22,0 0.31,-0.14 0.31,-0.36 0,-0.44 -0.36,-1.26 -0.78,-2.21 -0.66,-1.49 -0.87,-2.13 -0.87,-2.71 0,-0.66 0.26,-1.19 0.97,-1.19 0.62,0 1.53,0.4 2.54,1.35 0.69,0.65 1.14,1.24 1.57,1.82 z"
   inkscape:connector-curvature="0"
   style="fill:#000000;stroke-width:0" />
<path
   id="path3609"
   d="m 240.27,710.38 0.03,0 0.03,0 0.03,0 0.01,0 0.02,0 0.01,0 0.02,0.01 0.01,0 0.02,0 0.01,0 0.01,0.01 0.02,0 0.01,0 0.01,0.01 0.01,0 0.01,0.01 0.01,0.01 0.01,0.01 0.01,0 0.01,0.01 0.01,0.01 0,0.01 0.01,0 0,0.01 0,0.01 0.01,0 0,0.01 0,0.01 0,0 0,0.01 0.01,0.01 0,0 0,0.01 0,0.01 0,0.01 0,0.01 0,0.01 c 0,0.2 -0.19,0.2 -0.33,0.2 h -5.97 c -0.14,0 -0.33,0 -0.33,-0.2 0,-0.2 0.19,-0.2 0.34,-0.2 z"
   inkscape:connector-curvature="0"
   style="fill:#000000;stroke-width:0" />
<path
   id="path3611"
   d="m 240.28,708.45 0.03,0 0.03,0 0.02,0 0.02,0 0.01,0 0.02,0 0.01,0.01 0.01,0 0.02,0 0.01,0 0.01,0.01 0.02,0 0.01,0 0.01,0.01 0.01,0 0.01,0.01 0.01,0.01 0.01,0.01 0.01,0 0.01,0.01 0.01,0.01 0,0 0,0.01 0.01,0 0,0.01 0,0.01 0.01,0 0,0.01 0,0.01 0,0 0,0.01 0.01,0.01 0,0 0,0.01 0,0.01 0,0.01 0,0.01 0,0.01 c 0,0.2 -0.19,0.2 -0.34,0.2 h -5.95 c -0.15,0 -0.34,0 -0.34,-0.2 0,-0.2 0.19,-0.2 0.33,-0.2 z"
   inkscape:connector-curvature="0"
   style="fill:#000000;stroke-width:0" />
<path
   id="path3613"
   d="m 246.18,713.15 0.01,0.03 0,0.03 0,0.03 0,0.03 0,0.03 0,0.02 0.01,0.03 0,0.02 0.01,0.02 0.01,0.02 0.01,0.02 0.01,0.02 0.01,0.02 0.01,0.02 0.02,0.01 0.02,0.01 0.02,0.02 0.02,0.01 0.02,0.01 0.01,0 0.01,0.01 0.02,0 0.01,0.01 0.02,0 0.02,0 0.01,0.01 0.02,0 0.02,0.01 0.02,0 0.02,0 0.02,0 0.03,0.01 0.02,0 0.02,0 0.03,0 0.03,0.01 0.02,0 0.03,0 0.03,0 0.03,0 0.03,0 0.03,0 0.04,0 0.03,0 0.04,0 0.03,0 h 0.26 v 0.31 c -0.35,-0.03 -1.13,-0.03 -1.51,-0.03 -0.39,0 -1.18,0 -1.53,0.03 v -0.31 h 0.26 c 0.79,0 0.82,-0.1 0.82,-0.46 v -5.25 c 0,-0.36 -0.03,-0.47 -0.82,-0.47 h -0.26 v -0.3 c 0.35,0.03 1.14,0.03 1.52,0.03 0.39,0 1.17,0 1.52,-0.03 v 0.3 H 247 c -0.79,0 -0.82,0.11 -0.82,0.47 z"
   inkscape:connector-curvature="0"
   style="fill:#000000;stroke-width:0" />
<path
   id="path3615"
   d="m 248.64,710.55 v -2.67 c 0,-0.45 -0.11,-0.45 -0.78,-0.45 v -0.3 c 0.35,0.01 0.86,0.03 1.13,0.03 0.25,0 0.77,-0.02 1.11,-0.03 v 0.3 c -0.67,0 -0.78,0 -0.78,0.45 v 1.83 c 0,1.04 0.71,1.59 1.35,1.59 0.63,0 0.74,-0.53 0.74,-1.1 v -2.32 c 0,-0.45 -0.11,-0.45 -0.78,-0.45 v -0.3 c 0.35,0.01 0.86,0.03 1.13,0.03 0.26,0 0.77,-0.02 1.11,-0.03 v 0.3 c -0.66,0 -0.77,0 -0.77,0.45 v 1.83 c 0,1.04 0.7,1.59 1.34,1.59 0.63,0 0.74,-0.53 0.74,-1.1 v -2.32 c 0,-0.45 -0.11,-0.45 -0.78,-0.45 v -0.3 c 0.35,0.01 0.86,0.03 1.13,0.03 0.26,0 0.77,-0.02 1.11,-0.03 v 0.3 c -0.51,0 -0.76,0 -0.77,0.3 v 1.9 c 0,0.86 0,1.17 -0.31,1.53 -0.14,0.17 -0.47,0.36 -1.05,0.36 -0.84,0 -1.27,-0.59 -1.44,-0.97 -0.14,0.86 -0.88,0.97 -1.33,0.97 -0.73,0 -1.2,-0.42 -1.48,-1.04 v 1.04 l -1.4,-0.11 v -0.3 c 0.7,0 0.78,-0.07 0.78,-0.56 z"
   inkscape:connector-curvature="0"
   style="fill:#000000;stroke-width:0" />
<path
   id="path3617"
   d="m 260.38,710.13 -0.06,0.41 v 2.94 h 1.35 c 1.49,0 1.49,-0.75 1.49,-1.47 0,-0.71 0,-1.47 -1.5,-1.47 h 0 -1.34 l 0.06,-0.41 h 1.76 c 1.39,0 2.55,0.72 2.55,1.88 0,1.1 -0.99,1.94 -2.64,1.94 h -4.16 v -0.47 h 1.07 v -5.89 h -1.07 v -0.46 c 0.38,0.03 1.35,0.03 1.78,0.03 0.43,0 1.41,0 1.79,-0.03 v 0.46 h -1.08 z"
   inkscape:connector-curvature="0"
   style="fill:#000000;stroke-width:0" />
</g>
<g
   style="font-style:normal;font-variant:normal;font-weight:normal;font-stretch:normal;letter-spacing:normal;word-spacing:normal;text-anchor:start;fill:none;stroke:#000000;stroke-linecap:butt;stroke-linejoin:miter;stroke-miterlimit:10.43299961;stroke-opacity:1;stroke-dasharray:none;stroke-dashoffset:0"
   id="g3721"
   transform="matrix(1.94279,0,0,1.94279,-263.8705,-1097.0879)"
   xml:space="preserve"
   stroke-miterlimit="10.433"
   font-style="normal"
   font-variant="normal"
   font-weight="normal"
   font-stretch="normal"
   font-size-adjust="none"
   letter-spacing="normal"
   word-spacing="normal"
   ns0:text="$\\mathbf{x}$\n"
   ns0:preamble="">
<path
   style="fill:#000000;stroke-width:0"
   inkscape:connector-curvature="0"
   d="m 226.88,709.57 1.17,1.3 c 0.13,0.14 0.19,0.21 1.01,0.21 v 0.46 c -0.35,-0.02 -0.86,-0.03 -0.91,-0.03 -0.25,0 -0.75,0.02 -1.03,0.03 v -0.46 c 0.14,0 0.26,-0.02 0.38,-0.09 -0.04,-0.06 -0.04,-0.08 -0.08,-0.12 l -0.84,-0.94 -0.98,1.15 h 0.4 v 0.46 c -0.26,-0.01 -0.88,-0.03 -1.2,-0.03 -0.32,0 -0.77,0.02 -1.1,0.03 v -0.46 h 0.71 l 1.55,-1.84 -1.3,-1.46 c -0.17,-0.19 -0.53,-0.19 -1.01,-0.19 v -0.46 c 0.35,0.02 0.87,0.03 0.92,0.03 0.25,0 0.83,-0.02 1.03,-0.03 v 0.46 c -0.18,0 -0.37,0.05 -0.37,0.11 0,0.01 0,0.02 0.07,0.1 l 0.96,1.09 1.1,-1.3 h -0.39 v -0.46 c 0.26,0.01 0.87,0.03 1.2,0.03 0.32,0 0.76,-0.02 1.09,-0.03 v 0.46 h -0.7 z"
   id="path3723" />
</g>
<g
   ns0:preamble=""
   ns0:text="$\\mathbf{Px}$\n"
   word-spacing="normal"
   letter-spacing="normal"
   font-size-adjust="none"
   font-stretch="normal"
   font-weight="normal"
   font-variant="normal"
   font-style="normal"
   stroke-miterlimit="10.433"
   xml:space="preserve"
   transform="matrix(1.9121576,0,0,1.9121576,-286.53535,-1158.3859)"
   id="g3831"
   style="font-style:normal;font-variant:normal;font-weight:normal;font-stretch:normal;letter-spacing:normal;word-spacing:normal;text-anchor:start;fill:none;stroke:#000000;stroke-linecap:butt;stroke-linejoin:miter;stroke-miterlimit:10.43299961;stroke-opacity:1;stroke-dasharray:none;stroke-dashoffset:0">
<path
   id="path3833"
   d="m 226.31,710.13 -0.06,0.41 v 2.94 h 1.35 c 1.49,0 1.49,-0.75 1.49,-1.47 0,-0.71 0,-1.47 -1.5,-1.47 h 0 -1.34 l 0.06,-0.41 h 1.77 c 1.38,0 2.54,0.72 2.54,1.88 0,1.1 -0.99,1.94 -2.64,1.94 h -4.16 v -0.47 h 1.08 v -5.89 h -1.08 v -0.46 c 0.38,0.03 1.36,0.03 1.78,0.03 0.43,0 1.41,0 1.79,-0.03 v 0.46 h -1.08 z"
   inkscape:connector-curvature="0"
   style="fill:#000000;stroke-width:0" />
<path
   id="path3835"
   d="m 234.71,709.57 1.17,1.3 c 0.13,0.14 0.19,0.21 1.02,0.21 v 0.46 c -0.35,-0.02 -0.87,-0.03 -0.92,-0.03 -0.25,0 -0.75,0.02 -1.03,0.03 v -0.46 c 0.14,0 0.26,-0.02 0.38,-0.09 -0.04,-0.06 -0.04,-0.08 -0.08,-0.12 l -0.84,-0.94 -0.97,1.15 h 0.4 v 0.46 c -0.26,-0.01 -0.89,-0.03 -1.21,-0.03 -0.32,0 -0.77,0.02 -1.1,0.03 v -0.46 h 0.71 l 1.56,-1.84 -1.31,-1.46 c -0.17,-0.19 -0.53,-0.19 -1.01,-0.19 v -0.46 c 0.35,0.02 0.87,0.03 0.92,0.03 0.25,0 0.83,-0.02 1.03,-0.03 v 0.46 c -0.18,0 -0.37,0.05 -0.37,0.11 0,0.01 0,0.02 0.07,0.1 l 0.97,1.09 1.09,-1.3 h -0.39 v -0.46 c 0.26,0.01 0.87,0.03 1.2,0.03 0.32,0 0.77,-0.02 1.1,-0.03 v 0.46 h -0.71 z"
   inkscape:connector-curvature="0"
   style="fill:#000000;stroke-width:0" />
</g>
</g></svg>