<?xml version="1.0" encoding="UTF-8" standalone="no"?>
<!-- Created with Inkscape (http://www.inkscape.org/) -->

<svg
   xmlns:dc="http://purl.org/dc/elements/1.1/"
   xmlns:cc="http://creativecommons.org/ns#"
   xmlns:rdf="http://www.w3.org/1999/02/22-rdf-syntax-ns#"
   xmlns:svg="http://www.w3.org/2000/svg"
   xmlns="http://www.w3.org/2000/svg"
   xmlns:sodipodi="http://sodipodi.sourceforge.net/DTD/sodipodi-0.dtd"
   xmlns:inkscape="http://www.inkscape.org/namespaces/inkscape"
   id="svg2"
   version="1.1"
   inkscape:version="0.48.0 r9654"
   width="632.5"
   height="206.5"
   xml:space="preserve"
   sodipodi:docname="motivace.svg"><title
     id="title3889">ODR motivace</title><metadata
     id="metadata8"><rdf:RDF><cc:Work
         rdf:about=""><dc:format>image/svg+xml</dc:format><dc:type
           rdf:resource="http://purl.org/dc/dcmitype/StillImage" /><dc:title>ODR motivace</dc:title></cc:Work></rdf:RDF></metadata><defs
     id="defs6" /><sodipodi:namedview
     pagecolor="#ffffff"
     bordercolor="#666666"
     borderopacity="1"
     objecttolerance="10"
     gridtolerance="10"
     guidetolerance="10"
     inkscape:pageopacity="0"
     inkscape:pageshadow="2"
     inkscape:window-width="1917"
     inkscape:window-height="1125"
     id="namedview4"
     showgrid="false"
     inkscape:zoom="10.24"
     inkscape:cx="123.83353"
     inkscape:cy="163.43269"
     inkscape:window-x="-9"
     inkscape:window-y="-9"
     inkscape:window-maximized="1"
     inkscape:current-layer="g10" /><g
     id="g10"
     inkscape:groupmode="layer"
     inkscape:label="motivace"
     transform="matrix(1.25,0,0,-1.25,0,206.5)"><path
   d="m 61.056031,112.52587 35.249999,0 0,14.25 -35.249999,0 0,-14.25 z"
   style="fill:#ffffff;fill-opacity:1;fill-rule:evenodd;stroke:none"
   id="path12"
   inkscape:connector-curvature="0" /><path
   d="m 61.056031,112.52587 35.249999,0 0,14.25 -35.249999,0 0,-14.25 z"
   style="fill:none;stroke:#000000;stroke-width:1;stroke-linecap:round;stroke-linejoin:round;stroke-miterlimit:10;stroke-opacity:1;stroke-dasharray:none"
   id="path14"
   inkscape:connector-curvature="0" /><path
   d="m 61.056031,112.52587 35.249999,0 0,14.25 -35.249999,0 0,-14.25"
   style="fill:none;stroke:#000000;stroke-width:1;stroke-linecap:round;stroke-linejoin:round;stroke-miterlimit:10;stroke-opacity:1;stroke-dasharray:none"
   id="path16"
   inkscape:connector-curvature="0" /><path
   d="m 21.306031,85.52587 0,33.75 14.25,0"
   style="fill:none;stroke:#000000;stroke-width:0.75;stroke-linecap:round;stroke-linejoin:round;stroke-miterlimit:10;stroke-opacity:1;stroke-dasharray:none"
   id="path18"
   inkscape:connector-curvature="0" /><path
   d="m 21.306031,85.52587 0,-14.250001 m 0,-6 0,-14.25 m 17.25,20.25 -33.75,0 m 27.75,-6 -22.5,0 m 24.75,11.25 -4.5,0 m 2.25,3.000001 0,-5.250001 m 0,-12 0,-4.5"
   style="fill:none;stroke:#000000;stroke-width:0.75;stroke-linecap:round;stroke-linejoin:round;stroke-miterlimit:10;stroke-opacity:1;stroke-dasharray:none"
   id="path20"
   inkscape:connector-curvature="0" /><path
   d="m 143.34603,119.40587 c -0.19,5.53 3.54,10.19 8.34,10.41 4.79,0.22 8.83,-4.08 9.03,-9.61 0,-0.27 0,-0.53 0,-0.8 -0.2,5.53 3.53,10.19 8.33,10.41 4.79,0.22 8.84,-4.08 9.03,-9.61 0.01,-0.27 0.01,-0.53 0,-0.8 -0.19,5.53 3.54,10.19 8.33,10.41 4.8,0.22 8.84,-4.08 9.03,-9.61 0.01,-0.27 0.01,-0.53 0,-0.8 -0.19,5.53 3.54,10.19 8.33,10.41 4.8,0.22 8.84,-4.08 9.03,-9.61 0.01,-0.27 0.01,-0.53 0,-0.8 m -69.24,-0.13 0,0 m 69,0 0,0"
   style="fill:none;stroke:#000000;stroke-width:0.75;stroke-linecap:round;stroke-linejoin:round;stroke-miterlimit:10;stroke-opacity:1;stroke-dasharray:none"
   id="path22"
   inkscape:connector-curvature="0" /><path
   d="m 96.30603,119.27587 47.25,0"
   style="fill:none;stroke:#000000;stroke-width:0.72000003;stroke-linecap:round;stroke-linejoin:round;stroke-miterlimit:10;stroke-opacity:1;stroke-dasharray:none"
   id="path24"
   inkscape:connector-curvature="0" /><path
   d="m 212.55603,119.27587 24,0"
   style="fill:none;stroke:#000000;stroke-width:0.72000003;stroke-linecap:round;stroke-linejoin:round;stroke-miterlimit:10;stroke-opacity:1;stroke-dasharray:none"
   id="path26"
   inkscape:connector-curvature="0" /><text
   transform="scale(1,-1)"
   id="text28"
   x="72.236031"
   y="-135.29579"><tspan
     style="font-size:13.99967957px;font-variant:normal;font-weight:normal;writing-mode:lr-tb;fill:#000000;fill-opacity:1;fill-rule:nonzero;stroke:none;font-family:FREESTYLE SCRIPT;-inkscape-font-specification:FREESTYLE SCRIPT"
     x="72.236031"
     y="-135.29579"
     id="tspan30">R</tspan></text>

<text
   transform="scale(1,-1)"
   id="text32"
   x="178.03601"
   y="-136.71596"><tspan
     style="font-size:13.99967957px;font-variant:normal;font-weight:normal;writing-mode:lr-tb;fill:#000000;fill-opacity:1;fill-rule:nonzero;stroke:none;font-family:FREESTYLE SCRIPT;-inkscape-font-specification:FREESTYLE SCRIPT"
     x="178.03601"
     y="-136.71596"
     id="tspan34">L</tspan></text>

<path
   d="m 61.056031,119.27587 -25.5,0"
   style="fill:none;stroke:#000000;stroke-width:0.75;stroke-linecap:round;stroke-linejoin:round;stroke-miterlimit:10;stroke-opacity:1;stroke-dasharray:none"
   id="path36"
   inkscape:connector-curvature="0" /><path
   d="m 21.306031,51.025869 0,-16.5 85.499999,0"
   style="fill:none;stroke:#000000;stroke-width:0.75;stroke-linecap:round;stroke-linejoin:round;stroke-miterlimit:10;stroke-opacity:1;stroke-dasharray:none"
   id="path38"
   inkscape:connector-curvature="0" /><path
   d="m 127.80603,34.525869 -21,0"
   style="fill:none;stroke:#000000;stroke-width:0.75;stroke-linecap:round;stroke-linejoin:round;stroke-miterlimit:10;stroke-opacity:1;stroke-dasharray:none"
   id="path40"
   inkscape:connector-curvature="0" /><path
   d="m 163.05603,34.525869 73.5,0 0,84.750001"
   style="fill:none;stroke:#000000;stroke-width:0.75;stroke-linecap:round;stroke-linejoin:round;stroke-miterlimit:10;stroke-opacity:1;stroke-dasharray:none"
   id="path42"
   inkscape:connector-curvature="0" /><text
   transform="scale(0.95414832,-1.0480551)"
   id="text44"
   x="153.29401"
   y="-12.340292"
   style="font-size:18.15719032px"><tspan
     style="font-size:18.15755463px;font-variant:normal;font-weight:normal;writing-mode:lr-tb;fill:#000000;fill-opacity:1;fill-rule:nonzero;stroke:none;font-family:FREESTYLE SCRIPT;-inkscape-font-specification:FREESTYLE SCRIPT"
     x="153.29401"
     y="-12.340292"
     id="tspan46">t</tspan></text>

<text
   transform="scale(0.95414832,-1.0480551)"
   id="text48"
   x="157.72746"
   y="-12.340292"
   style="font-size:18.15719032px"><tspan
     style="font-size:18.15755463px;font-variant:normal;font-weight:normal;writing-mode:lr-tb;fill:#000000;fill-opacity:1;fill-rule:nonzero;stroke:none;font-family:FREESTYLE SCRIPT;-inkscape-font-specification:FREESTYLE SCRIPT"
     x="157.72746"
     y="-12.340292"
     id="tspan50">=</tspan></text>

<text
   transform="scale(0.95414832,-1.0480551)"
   id="text52"
   x="163.93114"
   y="-12.340292"
   style="font-size:18.15719032px"><tspan
     style="font-size:18.15755463px;font-variant:normal;font-weight:normal;writing-mode:lr-tb;fill:#000000;fill-opacity:1;fill-rule:nonzero;stroke:none;font-family:FREESTYLE SCRIPT;-inkscape-font-specification:FREESTYLE SCRIPT"
     x="163.93114"
     y="-12.340292"
     id="tspan54">0</tspan></text>

<path
   d="m 134.84603,48.535869 c 5.39,0 10.32,-4.28 12.71,-11.05"
   style="fill:none;stroke:#000000;stroke-width:0.72000003;stroke-linecap:round;stroke-linejoin:round;stroke-miterlimit:10;stroke-opacity:1;stroke-dasharray:none"
   id="path56"
   inkscape:connector-curvature="0" /><path
   d="m 150.30603,39.025869 -1.5,-10.5 -4.5,9 6,1.5 z"
   style="fill:#000000;fill-opacity:1;fill-rule:evenodd;stroke:none"
   id="path58"
   inkscape:connector-curvature="0" /><text
   transform="scale(1.0354156,-0.96579576)"
   id="text60"
   x="47.665379"
   y="-65.738457"
   style="font-size:18.68956184px"><tspan
     style="font-size:18.68993568px;font-variant:normal;font-weight:normal;writing-mode:lr-tb;fill:#000000;fill-opacity:1;fill-rule:nonzero;stroke:none;font-family:FREESTYLE SCRIPT;-inkscape-font-specification:FREESTYLE SCRIPT"
     x="47.665379"
     y="-65.738457"
     id="tspan62">U</tspan></text>

<text
   transform="scale(1.0354156,-0.96579576)"
   id="text64"
   x="57.383942"
   y="-65.738457"
   style="font-size:18.68956184px"><tspan
     style="font-size:18.68993568px;font-variant:normal;font-weight:normal;writing-mode:lr-tb;fill:#000000;fill-opacity:1;fill-rule:nonzero;stroke:none;font-family:FREESTYLE SCRIPT;-inkscape-font-specification:FREESTYLE SCRIPT"
     x="57.383942"
     y="-65.738457"
     id="tspan66">(</tspan></text>

<text
   transform="scale(1.0354156,-0.96579576)"
   id="text68"
   x="64.065521"
   y="-65.738457"
   style="font-size:18.68956184px"><tspan
     style="font-size:18.68993568px;font-variant:normal;font-weight:normal;writing-mode:lr-tb;fill:#000000;fill-opacity:1;fill-rule:nonzero;stroke:none;font-family:FREESTYLE SCRIPT;-inkscape-font-specification:FREESTYLE SCRIPT"
     x="64.065521"
     y="-65.738457"
     id="tspan70">t</tspan></text>

<text
   transform="scale(1.0354156,-0.96579576)"
   id="text72"
   x="68.628876"
   y="-65.738457"
   style="font-size:18.68956184px"><tspan
     style="font-size:18.68993568px;font-variant:normal;font-weight:normal;writing-mode:lr-tb;fill:#000000;fill-opacity:1;fill-rule:nonzero;stroke:none;font-family:FREESTYLE SCRIPT;-inkscape-font-specification:FREESTYLE SCRIPT"
     x="68.628876"
     y="-65.738457"
     id="tspan74">)</tspan></text>

<path
   d="m 24.306031,128.27587 19.5,0"
   style="fill:none;stroke:#000000;stroke-width:0.72000003;stroke-linecap:round;stroke-linejoin:round;stroke-miterlimit:10;stroke-opacity:1;stroke-dasharray:none"
   id="path76"
   inkscape:connector-curvature="0" /><path
   d="m 43.056031,131.27587 9.75,-3 -9.75,-3.75 0,6.75 z"
   style="fill:#000000;fill-opacity:1;fill-rule:evenodd;stroke:none"
   id="path78"
   inkscape:connector-curvature="0" /><text
   transform="scale(1.069958,-0.93461613)"
   id="text80"
   x="27.531889"
   y="-147.92207"
   style="font-size:17.51484871px"><tspan
     style="font-size:17.51519966px;font-variant:normal;font-weight:normal;writing-mode:lr-tb;fill:#000000;fill-opacity:1;fill-rule:nonzero;stroke:none;font-family:FREESTYLE SCRIPT;-inkscape-font-specification:FREESTYLE SCRIPT"
     x="27.531889"
     y="-147.92207"
     id="tspan82">i</tspan></text>

<text
   transform="scale(1.069958,-0.93461613)"
   id="text84"
   x="29.837946"
   y="-147.92207"
   style="font-size:17.51484871px"><tspan
     style="font-size:17.51519966px;font-variant:normal;font-weight:normal;writing-mode:lr-tb;fill:#000000;fill-opacity:1;fill-rule:nonzero;stroke:none;font-family:FREESTYLE SCRIPT;-inkscape-font-specification:FREESTYLE SCRIPT"
     x="29.837946"
     y="-147.92207"
     id="tspan86">(</tspan></text>

<text
   transform="scale(1.069958,-0.93461613)"
   id="text88"
   x="36.09956"
   y="-147.92207"
   style="font-size:17.51484871px"><tspan
     style="font-size:17.51519966px;font-variant:normal;font-weight:normal;writing-mode:lr-tb;fill:#000000;fill-opacity:1;fill-rule:nonzero;stroke:none;font-family:FREESTYLE SCRIPT;-inkscape-font-specification:FREESTYLE SCRIPT"
     x="36.09956"
     y="-147.92207"
     id="tspan90">t</tspan></text>

<text
   transform="scale(1.069958,-0.93461613)"
   id="text92"
   x="40.376095"
   y="-147.92207"
   style="font-size:17.51484871px"><tspan
     style="font-size:17.51519966px;font-variant:normal;font-weight:normal;writing-mode:lr-tb;fill:#000000;fill-opacity:1;fill-rule:nonzero;stroke:none;font-family:FREESTYLE SCRIPT;-inkscape-font-specification:FREESTYLE SCRIPT"
     x="40.376095"
     y="-147.92207"
     id="tspan94">)</tspan></text>

<path
   d="m 278.431,19.400869 0,124.500001"
   style="fill:none;stroke:#000080;stroke-width:0.72000003;stroke-linecap:round;stroke-linejoin:round;stroke-miterlimit:10;stroke-opacity:1;stroke-dasharray:none"
   id="path96"
   inkscape:connector-curvature="0" /><path
   d="m 275.431,143.15087 3,6.75 3,-6.75 -6,0 z"
   style="fill:#000080;fill-opacity:1;fill-rule:evenodd;stroke:none"
   id="path98"
   inkscape:connector-curvature="0" /><path
   d="m 278.431,19.400869 201.74995,0"
   style="fill:none;stroke:#000080;stroke-width:0.72000003;stroke-linecap:round;stroke-linejoin:round;stroke-miterlimit:10;stroke-opacity:1;stroke-dasharray:none"
   id="path100"
   inkscape:connector-curvature="0" /><path
   d="m 478.68095,23.150869 6.75,-3.75 -6.75,-3 0,6.75 z"
   style="fill:#000080;fill-opacity:1;fill-rule:evenodd;stroke:none"
   id="path102"
   inkscape:connector-curvature="0" /><path
   d="M 278.561,118.76087 C 278.563,89.9773 290.48754,65.054937 320.58953,50.359752 350.69152,35.664567 399.93106,34.076797 448.64095,33.720869 l 0,0"
   style="fill:none;stroke:#d10000;stroke-width:1.20000005;stroke-linecap:round;stroke-linejoin:round;stroke-miterlimit:10;stroke-opacity:1;stroke-dasharray:none"
   id="path104"
   inkscape:connector-curvature="0"
   sodipodi:nodetypes="cscc" /><g
   id="g106"
   transform="translate(-1082.069,-4926.0991)"><path
     d="m 1551.75,4958.25 -196.5,0"
     style="fill:none;stroke:#000000;stroke-width:0.72000003;stroke-linecap:round;stroke-linejoin:round;stroke-miterlimit:10;stroke-opacity:1;stroke-dasharray:5.04, 3.6;stroke-dashoffset:0"
     id="path108"
     inkscape:connector-curvature="0" /></g><text
   transform="scale(1,-1)"
   id="text110"
   x="264.61108"
   y="-113.46083"><tspan
     style="font-size:18px;font-variant:normal;font-weight:normal;writing-mode:lr-tb;fill:#000000;fill-opacity:1;fill-rule:nonzero;stroke:none;font-family:FREESTYLE SCRIPT;-inkscape-font-specification:FREESTYLE SCRIPT"
     x="264.61108"
     y="-113.46083"
     id="tspan112">I</tspan></text>

<text
   transform="scale(1,-1)"
   id="text114"
   x="268.67102"
   y="-110.89101"><tspan
     style="font-size:11.69855976px;font-variant:normal;font-weight:normal;writing-mode:lr-tb;fill:#000000;fill-opacity:1;fill-rule:nonzero;stroke:none;font-family:FREESTYLE SCRIPT;-inkscape-font-specification:FREESTYLE SCRIPT"
     x="268.67102"
     y="-110.89101"
     id="tspan116">0</tspan></text>

<text
   transform="scale(1,-1)"
   id="text118"
   x="270.29102"
   y="-147.48085"><tspan
     style="font-size:18px;font-variant:normal;font-weight:normal;writing-mode:lr-tb;fill:#000000;fill-opacity:1;fill-rule:nonzero;stroke:none;font-family:FREESTYLE SCRIPT;-inkscape-font-specification:FREESTYLE SCRIPT"
     x="270.29102"
     y="-147.48085"
     id="tspan120">i</tspan></text>

<text
   transform="scale(1.1103414,-0.90062388)"
   id="text122"
   x="440.41092"
   y="-14.491347"
   style="font-size:20.49467468px"><tspan
     style="font-size:20.49508667px;font-variant:normal;font-weight:normal;writing-mode:lr-tb;fill:#000000;fill-opacity:1;fill-rule:nonzero;stroke:none;font-family:FREESTYLE SCRIPT;-inkscape-font-specification:FREESTYLE SCRIPT"
     x="440.41092"
     y="-14.491347"
     id="tspan124">t</tspan></text>

<path
   d="m 160.96603,34.325869 c -0.01,-1.23 0.98,-2.22 2.21,-2.22 1.22,0 2.21,0.99 2.21,2.21 0,0 0,0 0,0.01 0,1.22 -0.99,2.21 -2.21,2.21 -1.22,0 -2.21,-0.99 -2.21,-2.21 0,0 0,0 0,0 z m -35.42,0 c 0,-1.23 0.99,-2.22 2.21,-2.22 1.23,0 2.22,0.99 2.22,2.21 0,0 0,0 0,0.01 0,1.22 -0.99,2.21 -2.21,2.21 -1.23,0 -2.22,-0.99 -2.22,-2.21 0,0 0,0 0,0 z"
   style="fill:#ffffff;fill-opacity:1;fill-rule:evenodd;stroke:none"
   id="path126"
   inkscape:connector-curvature="0" /><path
   d="m 160.96603,34.325869 c -0.01,-1.23 0.98,-2.22 2.21,-2.22 1.22,0 2.21,0.99 2.21,2.21 0,0 0,0 0,0.01 0,1.22 -0.99,2.21 -2.21,2.21 -1.22,0 -2.21,-0.99 -2.21,-2.21 0,0 0,0 0,0 m -35.42,0 c 0,-1.23 0.99,-2.22 2.21,-2.22 1.23,0 2.22,0.99 2.22,2.21 0,0 0,0 0,0.01 0,1.22 -0.99,2.21 -2.21,2.21 -1.23,0 -2.22,-0.99 -2.22,-2.21 0,0 0,0 0,0"
   style="fill:none;stroke:#000000;stroke-width:0.75;stroke-linecap:round;stroke-linejoin:round;stroke-miterlimit:10;stroke-opacity:1;stroke-dasharray:none"
   id="path128"
   inkscape:connector-curvature="0" /><path
   d="m 130.05603,35.275869 28.5,10.5"
   style="fill:none;stroke:#000000;stroke-width:0.75;stroke-linecap:round;stroke-linejoin:round;stroke-miterlimit:10;stroke-opacity:1;stroke-dasharray:none"
   id="path130"
   inkscape:connector-curvature="0" /><text
   transform="scale(1,-1)"
   id="text132"
   x="259.93103"
   y="-35.89101"><tspan
     style="font-size:12.00024033px;font-variant:normal;font-weight:normal;writing-mode:lr-tb;fill:#000000;fill-opacity:1;fill-rule:nonzero;stroke:none;font-family:FREESTYLE SCRIPT;-inkscape-font-specification:FREESTYLE SCRIPT"
     x="259.93103"
     y="-35.89101"
     id="tspan134">U</tspan></text>

<text
   transform="scale(1,-1)"
   id="text136"
   x="266.17102"
   y="-34.170795"><tspan
     style="font-size:7.79831982px;font-variant:normal;font-weight:normal;writing-mode:lr-tb;fill:#000000;fill-opacity:1;fill-rule:nonzero;stroke:none;font-family:FREESTYLE SCRIPT;-inkscape-font-specification:FREESTYLE SCRIPT"
     x="266.17102"
     y="-34.170795"
     id="tspan138">0</tspan></text>

<text
   transform="scale(1,-1)"
   id="text140"
   x="259.89099"
   y="-19.700825"><tspan
     style="font-size:13.99967957px;font-variant:normal;font-weight:normal;writing-mode:lr-tb;fill:#000000;fill-opacity:1;fill-rule:nonzero;stroke:none;font-family:FREESTYLE SCRIPT;-inkscape-font-specification:FREESTYLE SCRIPT"
     x="259.89099"
     y="-19.700825"
     id="tspan142">R</tspan></text>

<path
   d="m 260.431,32.150869 8.25,0"
   style="fill:none;stroke:#000000;stroke-width:0.72000003;stroke-linecap:round;stroke-linejoin:round;stroke-miterlimit:10;stroke-opacity:1;stroke-dasharray:none"
   id="path144"
   inkscape:connector-curvature="0" /></g></svg>