<?xml version="1.0" encoding="UTF-8" standalone="no"?>
<!-- Created with Inkscape (http://www.inkscape.org/) -->
<svg
   xmlns:svg="http://www.w3.org/2000/svg"
   xmlns="http://www.w3.org/2000/svg"
   xmlns:xlink="http://www.w3.org/1999/xlink"
   version="1.0"
   width="570"
   height="570"
   id="svg2">
  <defs
     id="defs4">
    <linearGradient
       id="linearGradient3397">
      <stop
         id="stop3399"
         style="stop-color:#bdee00;stop-opacity:1"
         offset="0" />
      <stop
         id="stop3401"
         style="stop-color:#360000;stop-opacity:1"
         offset="1" />
    </linearGradient>
    <linearGradient
       id="linearGradient3219">
      <stop
         id="stop3221"
         style="stop-color:#caf320;stop-opacity:1"
         offset="0" />
      <stop
         id="stop3223"
         style="stop-color:#dc2652;stop-opacity:1"
         offset="1" />
    </linearGradient>
    <linearGradient
       x1="62.33247"
       y1="285"
       x2="294.42239"
       y2="285"
       id="linearGradient3225"
       xlink:href="#linearGradient3219"
       gradientUnits="userSpaceOnUse" />
    <linearGradient
       x1="3.1784744"
       y1="288.51328"
       x2="381.30447"
       y2="288.51328"
       id="linearGradient3403"
       xlink:href="#linearGradient3397"
       gradientUnits="userSpaceOnUse" />
    <linearGradient
       x1="62.33247"
       y1="285"
       x2="294.42239"
       y2="285"
       id="linearGradient3459"
       xlink:href="#linearGradient3219"
       gradientUnits="userSpaceOnUse" />
    <linearGradient
       x1="3.1784744"
       y1="288.51328"
       x2="381.30447"
       y2="288.51328"
       id="linearGradient3461"
       xlink:href="#linearGradient3397"
       gradientUnits="userSpaceOnUse" />
    <linearGradient
       x1="62.33247"
       y1="285"
       x2="294.42239"
       y2="285"
       id="linearGradient3306"
       xlink:href="#linearGradient3219"
       gradientUnits="userSpaceOnUse" />
    <linearGradient
       x1="62.33247"
       y1="285"
       x2="294.42239"
       y2="285"
       id="linearGradient3365"
       xlink:href="#linearGradient3219"
       gradientUnits="userSpaceOnUse" />
    <linearGradient
       x1="3.1784744"
       y1="288.51328"
       x2="381.30447"
       y2="288.51328"
       id="linearGradient3367"
       xlink:href="#linearGradient3397"
       gradientUnits="userSpaceOnUse" />
  </defs>
  <g
     transform="scale(0.4999999,0.4999999)"
     id="g3336">
    <g
       transform="scale(0.300593,0.300593)"
       id="g3308">
      <g
         id="g3227">
        <path
           d="M 0,0 L 378.126,0 L 378.126,570 L 0,570 L 0,0 z"
           id="rect2446"
           style="opacity:1;fill:url(#linearGradient3365);fill-opacity:1;fill-rule:evenodd;stroke:none;stroke-width:0.60000002;stroke-linecap:round;stroke-linejoin:round;stroke-miterlimit:4;stroke-dashoffset:2.98999994;stroke-opacity:1" />
        <g
           transform="translate(-3.1784744,-3.5132776)"
           id="layer1">
          <path
             d="M 3.1784744,3.5132776 L 3.1784744,573.51328 L 97.917994,573.51328 L 97.917994,300.16672 L 73.846644,300.16672 L 73.846644,217.26752 L 97.917994,217.26752 L 97.917994,3.5132776 L 3.1784744,3.5132776 z M 153.21244,3.5132776 L 153.21244,217.26752 L 166.25887,217.26752 L 166.25887,300.16672 L 153.21244,300.16672 L 153.21244,573.51328 L 214.45253,573.51328 L 214.45253,3.5132776 L 153.21244,3.5132776 z M 265.19431,3.5132776 L 265.19431,573.51328 L 308.46158,573.51328 L 308.46158,352.47137 C 291.59546,346.84177 279.3959,330.62183 279.3959,311.49742 C 279.3959,292.373 291.59546,276.15306 308.46158,270.52346 L 308.46158,3.5132776 L 265.19431,3.5132776 z M 338.03689,3.5132776 L 338.03689,271.83151 C 353.09399,278.40564 363.6541,293.70154 363.6541,311.49742 C 363.6541,329.2933 353.09399,344.57221 338.03689,351.14634 L 338.03689,573.51328 L 381.30447,573.51328 L 381.30416,3.5132776 L 338.03689,3.5132776 z"
             id="rect2383"
             style="fill:url(#linearGradient3367);fill-opacity:1;fill-rule:nonzero;stroke:none;stroke-width:3;stroke-linecap:butt;stroke-linejoin:miter;stroke-miterlimit:4;stroke-dashoffset:2.98999994;stroke-opacity:1" />
        </g>
      </g>
      <use
         transform="matrix(0,-1,1,0,0,948.126)"
         id="use3234"
         style="fill:#000000;stroke:#000000"
         x="0"
         y="0"
         width="378.12567"
         height="570"
         xlink:href="#g3227" />
      <use
         transform="translate(0,948.126)"
         id="use3236"
         style="fill:#000000;stroke:#000000"
         x="0"
         y="0"
         width="378.12567"
         height="570"
         xlink:href="#g3227" />
      <use
         transform="matrix(0,-1,1,0,0,1896.252)"
         id="use3238"
         style="fill:#000000;stroke:#000000"
         x="0"
         y="0"
         width="378.12567"
         height="570"
         xlink:href="#g3227" />
      <use
         transform="matrix(0,1,-1,0,948.126,0)"
         id="use3240"
         style="fill:#000000;stroke:#000000"
         x="0"
         y="0"
         width="378.12567"
         height="570"
         xlink:href="#g3227" />
      <use
         transform="matrix(-1,0,0,-1,948.126,948.126)"
         id="use3242"
         style="fill:#000000;stroke:#000000"
         x="0"
         y="0"
         width="378.12567"
         height="570"
         xlink:href="#g3227" />
      <use
         transform="matrix(0,1,-1,0,948.126,948.126)"
         id="use3244"
         style="fill:#000000;stroke:#000000"
         x="0"
         y="0"
         width="378.12567"
         height="570"
         xlink:href="#g3227" />
      <use
         transform="matrix(-1,0,0,-1,948.126,1896.252)"
         id="use3246"
         style="fill:#000000;stroke:#000000"
         x="0"
         y="0"
         width="378.12567"
         height="570"
         xlink:href="#g3227" />
      <use
         transform="translate(948.126,0)"
         id="use3248"
         style="fill:#000000;stroke:#000000"
         x="0"
         y="0"
         width="378.12567"
         height="570"
         xlink:href="#g3227" />
      <use
         transform="matrix(0,-1,1,0,948.126,948.126)"
         id="use3250"
         style="fill:#000000;stroke:#000000"
         x="0"
         y="0"
         width="378.12567"
         height="570"
         xlink:href="#g3227" />
      <use
         transform="translate(948.126,948.126)"
         id="use3252"
         style="fill:#000000;stroke:#000000"
         x="0"
         y="0"
         width="378.12567"
         height="570"
         xlink:href="#g3227" />
      <use
         transform="matrix(0,-1,1,0,948.126,1896.252)"
         id="use3254"
         style="fill:#000000;stroke:#000000"
         x="0"
         y="0"
         width="378.12567"
         height="570"
         xlink:href="#g3227" />
      <use
         transform="matrix(0,1,-1,0,1896.252,0)"
         id="use3256"
         style="fill:#000000;stroke:#000000"
         x="0"
         y="0"
         width="378.12567"
         height="570"
         xlink:href="#g3227" />
      <use
         transform="matrix(-1,0,0,-1,1896.252,948.126)"
         id="use3258"
         style="fill:#000000;stroke:#000000"
         x="0"
         y="0"
         width="378.12567"
         height="570"
         xlink:href="#g3227" />
      <use
         transform="matrix(0,1,-1,0,1896.252,948.126)"
         id="use3260"
         style="fill:#000000;stroke:#000000"
         x="0"
         y="0"
         width="378.12567"
         height="570"
         xlink:href="#g3227" />
      <use
         transform="matrix(-1,0,0,-1,1896.252,1896.252)"
         id="use3262"
         style="fill:#000000;stroke:#000000"
         x="0"
         y="0"
         width="378.12567"
         height="570"
         xlink:href="#g3227" />
    </g>
    <use
       transform="matrix(1,0,0,-1,0,1140.0002)"
       id="use3330"
       style="fill:#000000;stroke:#000000"
       x="0"
       y="0"
       width="570.00006"
       height="570.00006"
       xlink:href="#g3308" />
    <use
       transform="matrix(-1,0,0,1,1140.0002,0)"
       id="use3332"
       style="fill:#000000;stroke:#000000"
       x="0"
       y="0"
       width="570.00006"
       height="570.00006"
       xlink:href="#g3308" />
    <use
       transform="matrix(-1,0,0,-1,1140.0002,1140.0002)"
       id="use3334"
       style="fill:#000000;stroke:#000000"
       x="0"
       y="0"
       width="570.00006"
       height="570.00006"
       xlink:href="#g3308" />
  </g>
</svg>
