<?xml version="1.0" encoding="UTF-8" standalone="no"?>
<!-- Created with Inkscape (http://www.inkscape.org/) -->
<svg
   xmlns:svg="http://www.w3.org/2000/svg"
   xmlns="http://www.w3.org/2000/svg"
   xmlns:xlink="http://www.w3.org/1999/xlink"
   version="1.0"
   width="570"
   height="570.00024"
   id="svg2">
  <defs
     id="defs4">
    <linearGradient
       id="linearGradient3159">
      <stop
         id="stop3161"
         style="stop-color:#ec9000;stop-opacity:1"
         offset="0" />
      <stop
         id="stop3163"
         style="stop-color:#ff0000;stop-opacity:0"
         offset="1" />
    </linearGradient>
    <linearGradient
       x1="40.505421"
       y1="50.582088"
       x2="148.73845"
       y2="50.582088"
       id="linearGradient3971"
       xlink:href="#linearGradient3159"
       gradientUnits="userSpaceOnUse" />
    <linearGradient
       x1="40.505421"
       y1="50.582088"
       x2="148.73845"
       y2="50.582088"
       id="linearGradient2588"
       xlink:href="#linearGradient3159"
       gradientUnits="userSpaceOnUse" />
    <linearGradient
       x1="40.505421"
       y1="50.582088"
       x2="148.73845"
       y2="50.582088"
       id="linearGradient2630"
       xlink:href="#linearGradient3159"
       gradientUnits="userSpaceOnUse" />
    <linearGradient
       x1="40.505421"
       y1="50.582088"
       x2="148.73845"
       y2="50.582088"
       id="linearGradient2672"
       xlink:href="#linearGradient3159"
       gradientUnits="userSpaceOnUse" />
    <linearGradient
       x1="40.505421"
       y1="50.582088"
       x2="148.73845"
       y2="50.582088"
       id="linearGradient2714"
       xlink:href="#linearGradient3159"
       gradientUnits="userSpaceOnUse" />
    <linearGradient
       x1="40.505421"
       y1="50.582088"
       x2="148.73845"
       y2="50.582088"
       id="linearGradient2968"
       xlink:href="#linearGradient3159"
       gradientUnits="userSpaceOnUse" />
    <linearGradient
       x1="40.505421"
       y1="50.582088"
       x2="148.73845"
       y2="50.582088"
       id="linearGradient2976"
       xlink:href="#linearGradient3159"
       gradientUnits="userSpaceOnUse" />
    <linearGradient
       x1="40.505421"
       y1="50.582088"
       x2="148.73845"
       y2="50.582088"
       id="linearGradient2984"
       xlink:href="#linearGradient3159"
       gradientUnits="userSpaceOnUse" />
    <linearGradient
       x1="40.505421"
       y1="50.582088"
       x2="148.73845"
       y2="50.582088"
       id="linearGradient2992"
       xlink:href="#linearGradient3159"
       gradientUnits="userSpaceOnUse" />
    <linearGradient
       x1="40.505421"
       y1="50.582088"
       x2="148.73845"
       y2="50.582088"
       id="linearGradient3000"
       xlink:href="#linearGradient3159"
       gradientUnits="userSpaceOnUse" />
    <linearGradient
       x1="40.505421"
       y1="50.582088"
       x2="148.73845"
       y2="50.582088"
       id="linearGradient3008"
       xlink:href="#linearGradient3159"
       gradientUnits="userSpaceOnUse" />
    <linearGradient
       x1="40.505421"
       y1="50.582088"
       x2="148.73845"
       y2="50.582088"
       id="linearGradient3016"
       xlink:href="#linearGradient3159"
       gradientUnits="userSpaceOnUse" />
    <linearGradient
       x1="40.505421"
       y1="50.582088"
       x2="148.73845"
       y2="50.582088"
       id="linearGradient3024"
       xlink:href="#linearGradient3159"
       gradientUnits="userSpaceOnUse" />
    <linearGradient
       x1="40.505421"
       y1="50.582088"
       x2="148.73845"
       y2="50.582088"
       id="linearGradient3032"
       xlink:href="#linearGradient3159"
       gradientUnits="userSpaceOnUse" />
    <linearGradient
       x1="40.505421"
       y1="50.582088"
       x2="148.73845"
       y2="50.582088"
       id="linearGradient3040"
       xlink:href="#linearGradient3159"
       gradientUnits="userSpaceOnUse" />
    <linearGradient
       x1="40.505421"
       y1="50.582088"
       x2="148.73845"
       y2="50.582088"
       id="linearGradient3048"
       xlink:href="#linearGradient3159"
       gradientUnits="userSpaceOnUse" />
    <linearGradient
       x1="40.505421"
       y1="50.582088"
       x2="148.73845"
       y2="50.582088"
       id="linearGradient3056"
       xlink:href="#linearGradient3159"
       gradientUnits="userSpaceOnUse" />
    <linearGradient
       x1="40.505421"
       y1="50.582088"
       x2="148.73845"
       y2="50.582088"
       id="linearGradient3064"
       xlink:href="#linearGradient3159"
       gradientUnits="userSpaceOnUse" />
    <linearGradient
       x1="40.505421"
       y1="50.582088"
       x2="148.73845"
       y2="50.582088"
       id="linearGradient3072"
       xlink:href="#linearGradient3159"
       gradientUnits="userSpaceOnUse" />
    <linearGradient
       x1="40.505421"
       y1="50.582088"
       x2="148.73845"
       y2="50.582088"
       id="linearGradient3080"
       xlink:href="#linearGradient3159"
       gradientUnits="userSpaceOnUse" />
    <linearGradient
       x1="40.505421"
       y1="50.582088"
       x2="148.73845"
       y2="50.582088"
       id="linearGradient3088"
       xlink:href="#linearGradient3159"
       gradientUnits="userSpaceOnUse" />
    <linearGradient
       x1="40.505421"
       y1="50.582088"
       x2="148.73845"
       y2="50.582088"
       id="linearGradient3096"
       xlink:href="#linearGradient3159"
       gradientUnits="userSpaceOnUse" />
    <linearGradient
       x1="40.505421"
       y1="50.582088"
       x2="148.73845"
       y2="50.582088"
       id="linearGradient3104"
       xlink:href="#linearGradient3159"
       gradientUnits="userSpaceOnUse" />
    <linearGradient
       x1="40.505421"
       y1="50.582088"
       x2="148.73845"
       y2="50.582088"
       id="linearGradient3112"
       xlink:href="#linearGradient3159"
       gradientUnits="userSpaceOnUse" />
    <linearGradient
       x1="40.505421"
       y1="50.582088"
       x2="148.73845"
       y2="50.582088"
       id="linearGradient3120"
       xlink:href="#linearGradient3159"
       gradientUnits="userSpaceOnUse" />
    <linearGradient
       x1="40.505421"
       y1="50.582088"
       x2="148.73845"
       y2="50.582088"
       id="linearGradient3128"
       xlink:href="#linearGradient3159"
       gradientUnits="userSpaceOnUse" />
    <linearGradient
       x1="40.505421"
       y1="50.582088"
       x2="148.73845"
       y2="50.582088"
       id="linearGradient3136"
       xlink:href="#linearGradient3159"
       gradientUnits="userSpaceOnUse" />
    <linearGradient
       x1="40.505421"
       y1="50.582088"
       x2="148.73845"
       y2="50.582088"
       id="linearGradient3144"
       xlink:href="#linearGradient3159"
       gradientUnits="userSpaceOnUse" />
    <linearGradient
       x1="40.505421"
       y1="50.582088"
       x2="148.73845"
       y2="50.582088"
       id="linearGradient3152"
       xlink:href="#linearGradient3159"
       gradientUnits="userSpaceOnUse" />
    <linearGradient
       x1="40.505421"
       y1="50.582088"
       x2="148.73845"
       y2="50.582088"
       id="linearGradient3160"
       xlink:href="#linearGradient3159"
       gradientUnits="userSpaceOnUse" />
    <linearGradient
       x1="40.505421"
       y1="50.582088"
       x2="148.73845"
       y2="50.582088"
       id="linearGradient3168"
       xlink:href="#linearGradient3159"
       gradientUnits="userSpaceOnUse" />
    <linearGradient
       x1="40.505421"
       y1="50.582088"
       x2="148.73845"
       y2="50.582088"
       id="linearGradient3176"
       xlink:href="#linearGradient3159"
       gradientUnits="userSpaceOnUse" />
    <linearGradient
       x1="40.505421"
       y1="50.582088"
       x2="148.73845"
       y2="50.582088"
       id="linearGradient3184"
       xlink:href="#linearGradient3159"
       gradientUnits="userSpaceOnUse" />
    <linearGradient
       x1="40.505421"
       y1="50.582088"
       x2="148.73845"
       y2="50.582088"
       id="linearGradient3192"
       xlink:href="#linearGradient3159"
       gradientUnits="userSpaceOnUse" />
    <linearGradient
       x1="40.505421"
       y1="50.582088"
       x2="148.73845"
       y2="50.582088"
       id="linearGradient3200"
       xlink:href="#linearGradient3159"
       gradientUnits="userSpaceOnUse" />
    <linearGradient
       x1="40.505421"
       y1="50.582088"
       x2="148.73845"
       y2="50.582088"
       id="linearGradient3208"
       xlink:href="#linearGradient3159"
       gradientUnits="userSpaceOnUse" />
    <linearGradient
       x1="40.505421"
       y1="50.582088"
       x2="148.73845"
       y2="50.582088"
       id="linearGradient3216"
       xlink:href="#linearGradient3159"
       gradientUnits="userSpaceOnUse" />
    <linearGradient
       x1="40.505421"
       y1="50.582088"
       x2="148.73845"
       y2="50.582088"
       id="linearGradient3224"
       xlink:href="#linearGradient3159"
       gradientUnits="userSpaceOnUse" />
    <linearGradient
       x1="40.505421"
       y1="50.582088"
       x2="148.73845"
       y2="50.582088"
       id="linearGradient3232"
       xlink:href="#linearGradient3159"
       gradientUnits="userSpaceOnUse" />
    <linearGradient
       x1="40.505421"
       y1="50.582088"
       x2="148.73845"
       y2="50.582088"
       id="linearGradient3240"
       xlink:href="#linearGradient3159"
       gradientUnits="userSpaceOnUse" />
    <linearGradient
       x1="40.505421"
       y1="50.582088"
       x2="148.73845"
       y2="50.582088"
       id="linearGradient3248"
       xlink:href="#linearGradient3159"
       gradientUnits="userSpaceOnUse" />
    <linearGradient
       x1="40.505421"
       y1="50.582088"
       x2="148.73845"
       y2="50.582088"
       id="linearGradient3256"
       xlink:href="#linearGradient3159"
       gradientUnits="userSpaceOnUse" />
    <linearGradient
       x1="40.505421"
       y1="50.582088"
       x2="148.73845"
       y2="50.582088"
       id="linearGradient3264"
       xlink:href="#linearGradient3159"
       gradientUnits="userSpaceOnUse" />
    <linearGradient
       x1="40.505421"
       y1="50.582088"
       x2="148.73845"
       y2="50.582088"
       id="linearGradient3272"
       xlink:href="#linearGradient3159"
       gradientUnits="userSpaceOnUse" />
    <linearGradient
       x1="40.505421"
       y1="50.582088"
       x2="148.73845"
       y2="50.582088"
       id="linearGradient3280"
       xlink:href="#linearGradient3159"
       gradientUnits="userSpaceOnUse" />
    <linearGradient
       x1="40.505421"
       y1="50.582088"
       x2="148.73845"
       y2="50.582088"
       id="linearGradient3288"
       xlink:href="#linearGradient3159"
       gradientUnits="userSpaceOnUse" />
    <linearGradient
       x1="40.505421"
       y1="50.582088"
       x2="148.73845"
       y2="50.582088"
       id="linearGradient3296"
       xlink:href="#linearGradient3159"
       gradientUnits="userSpaceOnUse" />
    <linearGradient
       x1="40.505421"
       y1="50.582088"
       x2="148.73845"
       y2="50.582088"
       id="linearGradient3304"
       xlink:href="#linearGradient3159"
       gradientUnits="userSpaceOnUse" />
    <linearGradient
       x1="40.505421"
       y1="50.582088"
       x2="148.73845"
       y2="50.582088"
       id="linearGradient3312"
       xlink:href="#linearGradient3159"
       gradientUnits="userSpaceOnUse" />
    <linearGradient
       x1="40.505421"
       y1="50.582088"
       x2="148.73845"
       y2="50.582088"
       id="linearGradient3320"
       xlink:href="#linearGradient3159"
       gradientUnits="userSpaceOnUse" />
    <linearGradient
       x1="40.505421"
       y1="50.582088"
       x2="148.73845"
       y2="50.582088"
       id="linearGradient3328"
       xlink:href="#linearGradient3159"
       gradientUnits="userSpaceOnUse" />
    <linearGradient
       x1="40.505421"
       y1="50.582088"
       x2="148.73845"
       y2="50.582088"
       id="linearGradient3336"
       xlink:href="#linearGradient3159"
       gradientUnits="userSpaceOnUse" />
    <linearGradient
       x1="40.505421"
       y1="50.582088"
       x2="148.73845"
       y2="50.582088"
       id="linearGradient3344"
       xlink:href="#linearGradient3159"
       gradientUnits="userSpaceOnUse" />
    <linearGradient
       x1="40.505421"
       y1="50.582088"
       x2="148.73845"
       y2="50.582088"
       id="linearGradient3352"
       xlink:href="#linearGradient3159"
       gradientUnits="userSpaceOnUse" />
    <linearGradient
       x1="40.505421"
       y1="50.582088"
       x2="148.73845"
       y2="50.582088"
       id="linearGradient3360"
       xlink:href="#linearGradient3159"
       gradientUnits="userSpaceOnUse" />
    <linearGradient
       x1="40.505421"
       y1="50.582088"
       x2="148.73845"
       y2="50.582088"
       id="linearGradient3368"
       xlink:href="#linearGradient3159"
       gradientUnits="userSpaceOnUse" />
    <linearGradient
       x1="40.505421"
       y1="50.582088"
       x2="148.73845"
       y2="50.582088"
       id="linearGradient3376"
       xlink:href="#linearGradient3159"
       gradientUnits="userSpaceOnUse" />
    <linearGradient
       x1="40.505421"
       y1="50.582088"
       x2="148.73845"
       y2="50.582088"
       id="linearGradient3384"
       xlink:href="#linearGradient3159"
       gradientUnits="userSpaceOnUse" />
    <linearGradient
       x1="40.505421"
       y1="50.582088"
       x2="148.73845"
       y2="50.582088"
       id="linearGradient3392"
       xlink:href="#linearGradient3159"
       gradientUnits="userSpaceOnUse" />
    <linearGradient
       x1="40.505421"
       y1="50.582088"
       x2="148.73845"
       y2="50.582088"
       id="linearGradient3400"
       xlink:href="#linearGradient3159"
       gradientUnits="userSpaceOnUse" />
    <linearGradient
       x1="40.505421"
       y1="50.582088"
       x2="148.73845"
       y2="50.582088"
       id="linearGradient3408"
       xlink:href="#linearGradient3159"
       gradientUnits="userSpaceOnUse" />
    <linearGradient
       x1="40.505421"
       y1="50.582088"
       x2="148.73845"
       y2="50.582088"
       id="linearGradient3416"
       xlink:href="#linearGradient3159"
       gradientUnits="userSpaceOnUse" />
    <linearGradient
       x1="40.505421"
       y1="50.582088"
       x2="148.73845"
       y2="50.582088"
       id="linearGradient3424"
       xlink:href="#linearGradient3159"
       gradientUnits="userSpaceOnUse" />
    <linearGradient
       x1="40.505421"
       y1="50.582088"
       x2="148.73845"
       y2="50.582088"
       id="linearGradient3432"
       xlink:href="#linearGradient3159"
       gradientUnits="userSpaceOnUse" />
    <linearGradient
       x1="40.505421"
       y1="50.582088"
       x2="148.73845"
       y2="50.582088"
       id="linearGradient3440"
       xlink:href="#linearGradient3159"
       gradientUnits="userSpaceOnUse" />
    <linearGradient
       x1="40.505421"
       y1="50.582088"
       x2="148.73845"
       y2="50.582088"
       id="linearGradient3900"
       xlink:href="#linearGradient3159"
       gradientUnits="userSpaceOnUse" />
    <linearGradient
       x1="40.505421"
       y1="50.582088"
       x2="148.73845"
       y2="50.582088"
       id="linearGradient3902"
       xlink:href="#linearGradient3159"
       gradientUnits="userSpaceOnUse" />
    <linearGradient
       x1="40.505421"
       y1="50.582088"
       x2="148.73845"
       y2="50.582088"
       id="linearGradient3904"
       xlink:href="#linearGradient3159"
       gradientUnits="userSpaceOnUse" />
    <linearGradient
       x1="40.505421"
       y1="50.582088"
       x2="148.73845"
       y2="50.582088"
       id="linearGradient3906"
       xlink:href="#linearGradient3159"
       gradientUnits="userSpaceOnUse" />
    <linearGradient
       x1="40.505421"
       y1="50.582088"
       x2="148.73845"
       y2="50.582088"
       id="linearGradient3908"
       xlink:href="#linearGradient3159"
       gradientUnits="userSpaceOnUse" />
    <linearGradient
       x1="40.505421"
       y1="50.582088"
       x2="148.73845"
       y2="50.582088"
       id="linearGradient3910"
       xlink:href="#linearGradient3159"
       gradientUnits="userSpaceOnUse" />
    <linearGradient
       x1="40.505421"
       y1="50.582088"
       x2="148.73845"
       y2="50.582088"
       id="linearGradient3912"
       xlink:href="#linearGradient3159"
       gradientUnits="userSpaceOnUse" />
    <linearGradient
       x1="40.505421"
       y1="50.582088"
       x2="148.73845"
       y2="50.582088"
       id="linearGradient3914"
       xlink:href="#linearGradient3159"
       gradientUnits="userSpaceOnUse" />
    <linearGradient
       x1="40.505421"
       y1="50.582088"
       x2="148.73845"
       y2="50.582088"
       id="linearGradient3916"
       xlink:href="#linearGradient3159"
       gradientUnits="userSpaceOnUse" />
    <linearGradient
       x1="40.505421"
       y1="50.582088"
       x2="148.73845"
       y2="50.582088"
       id="linearGradient3918"
       xlink:href="#linearGradient3159"
       gradientUnits="userSpaceOnUse" />
    <linearGradient
       x1="40.505421"
       y1="50.582088"
       x2="148.73845"
       y2="50.582088"
       id="linearGradient3920"
       xlink:href="#linearGradient3159"
       gradientUnits="userSpaceOnUse" />
    <linearGradient
       x1="40.505421"
       y1="50.582088"
       x2="148.73845"
       y2="50.582088"
       id="linearGradient3922"
       xlink:href="#linearGradient3159"
       gradientUnits="userSpaceOnUse" />
    <linearGradient
       x1="40.505421"
       y1="50.582088"
       x2="148.73845"
       y2="50.582088"
       id="linearGradient3924"
       xlink:href="#linearGradient3159"
       gradientUnits="userSpaceOnUse" />
    <linearGradient
       x1="40.505421"
       y1="50.582088"
       x2="148.73845"
       y2="50.582088"
       id="linearGradient3926"
       xlink:href="#linearGradient3159"
       gradientUnits="userSpaceOnUse" />
    <linearGradient
       x1="40.505421"
       y1="50.582088"
       x2="148.73845"
       y2="50.582088"
       id="linearGradient3928"
       xlink:href="#linearGradient3159"
       gradientUnits="userSpaceOnUse" />
    <linearGradient
       x1="40.505421"
       y1="50.582088"
       x2="148.73845"
       y2="50.582088"
       id="linearGradient3930"
       xlink:href="#linearGradient3159"
       gradientUnits="userSpaceOnUse" />
    <linearGradient
       x1="40.505421"
       y1="50.582088"
       x2="148.73845"
       y2="50.582088"
       id="linearGradient3980"
       xlink:href="#linearGradient3159"
       gradientUnits="userSpaceOnUse" />
    <linearGradient
       x1="40.505421"
       y1="50.582088"
       x2="148.73845"
       y2="50.582088"
       id="linearGradient3982"
       xlink:href="#linearGradient3159"
       gradientUnits="userSpaceOnUse" />
    <linearGradient
       x1="40.505421"
       y1="50.582088"
       x2="148.73845"
       y2="50.582088"
       id="linearGradient3984"
       xlink:href="#linearGradient3159"
       gradientUnits="userSpaceOnUse" />
    <linearGradient
       x1="40.505421"
       y1="50.582088"
       x2="148.73845"
       y2="50.582088"
       id="linearGradient3986"
       xlink:href="#linearGradient3159"
       gradientUnits="userSpaceOnUse" />
    <linearGradient
       x1="40.505421"
       y1="50.582088"
       x2="148.73845"
       y2="50.582088"
       id="linearGradient3988"
       xlink:href="#linearGradient3159"
       gradientUnits="userSpaceOnUse" />
    <linearGradient
       x1="40.505421"
       y1="50.582088"
       x2="148.73845"
       y2="50.582088"
       id="linearGradient3990"
       xlink:href="#linearGradient3159"
       gradientUnits="userSpaceOnUse" />
    <linearGradient
       x1="40.505421"
       y1="50.582088"
       x2="148.73845"
       y2="50.582088"
       id="linearGradient3992"
       xlink:href="#linearGradient3159"
       gradientUnits="userSpaceOnUse" />
    <linearGradient
       x1="40.505421"
       y1="50.582088"
       x2="148.73845"
       y2="50.582088"
       id="linearGradient3994"
       xlink:href="#linearGradient3159"
       gradientUnits="userSpaceOnUse" />
    <linearGradient
       x1="40.505421"
       y1="50.582088"
       x2="148.73845"
       y2="50.582088"
       id="linearGradient3996"
       xlink:href="#linearGradient3159"
       gradientUnits="userSpaceOnUse" />
    <linearGradient
       x1="40.505421"
       y1="50.582088"
       x2="148.73845"
       y2="50.582088"
       id="linearGradient3998"
       xlink:href="#linearGradient3159"
       gradientUnits="userSpaceOnUse" />
    <linearGradient
       x1="40.505421"
       y1="50.582088"
       x2="148.73845"
       y2="50.582088"
       id="linearGradient4000"
       xlink:href="#linearGradient3159"
       gradientUnits="userSpaceOnUse" />
    <linearGradient
       x1="40.505421"
       y1="50.582088"
       x2="148.73845"
       y2="50.582088"
       id="linearGradient4002"
       xlink:href="#linearGradient3159"
       gradientUnits="userSpaceOnUse" />
    <linearGradient
       x1="40.505421"
       y1="50.582088"
       x2="148.73845"
       y2="50.582088"
       id="linearGradient4004"
       xlink:href="#linearGradient3159"
       gradientUnits="userSpaceOnUse" />
    <linearGradient
       x1="40.505421"
       y1="50.582088"
       x2="148.73845"
       y2="50.582088"
       id="linearGradient4006"
       xlink:href="#linearGradient3159"
       gradientUnits="userSpaceOnUse" />
    <linearGradient
       x1="40.505421"
       y1="50.582088"
       x2="148.73845"
       y2="50.582088"
       id="linearGradient4008"
       xlink:href="#linearGradient3159"
       gradientUnits="userSpaceOnUse" />
    <linearGradient
       x1="40.505421"
       y1="50.582088"
       x2="148.73845"
       y2="50.582088"
       id="linearGradient4010"
       xlink:href="#linearGradient3159"
       gradientUnits="userSpaceOnUse" />
    <linearGradient
       x1="40.505421"
       y1="50.582088"
       x2="148.73845"
       y2="50.582088"
       id="linearGradient4158"
       xlink:href="#linearGradient3159"
       gradientUnits="userSpaceOnUse" />
    <linearGradient
       x1="40.505421"
       y1="50.582088"
       x2="148.73845"
       y2="50.582088"
       id="linearGradient4161"
       xlink:href="#linearGradient3159"
       gradientUnits="userSpaceOnUse"
       gradientTransform="matrix(0,1.7655042,-1.7655042,0,344.53543,536.96016)" />
    <linearGradient
       x1="40.505421"
       y1="50.582088"
       x2="148.73845"
       y2="50.582088"
       id="linearGradient4164"
       xlink:href="#linearGradient3159"
       gradientUnits="userSpaceOnUse" />
    <linearGradient
       x1="40.505421"
       y1="50.582088"
       x2="148.73845"
       y2="50.582088"
       id="linearGradient4167"
       xlink:href="#linearGradient3159"
       gradientUnits="userSpaceOnUse"
       gradientTransform="matrix(1.7655042,0,0,1.7655042,-33.039923,510.46465)" />
    <linearGradient
       x1="40.505421"
       y1="50.582088"
       x2="148.73845"
       y2="50.582088"
       id="linearGradient4170"
       xlink:href="#linearGradient3159"
       gradientUnits="userSpaceOnUse" />
    <linearGradient
       x1="40.505421"
       y1="50.582088"
       x2="148.73845"
       y2="50.582088"
       id="linearGradient4173"
       xlink:href="#linearGradient3159"
       gradientUnits="userSpaceOnUse"
       gradientTransform="matrix(-1.7655042,0,0,-1.7655042,318.03993,914.53551)" />
    <linearGradient
       x1="40.505421"
       y1="50.582088"
       x2="148.73845"
       y2="50.582088"
       id="linearGradient4176"
       xlink:href="#linearGradient3159"
       gradientUnits="userSpaceOnUse" />
    <linearGradient
       x1="40.505421"
       y1="50.582088"
       x2="148.73845"
       y2="50.582088"
       id="linearGradient4179"
       xlink:href="#linearGradient3159"
       gradientUnits="userSpaceOnUse"
       gradientTransform="matrix(0,-1.7655042,1.7655042,0,-59.535427,888.04001)" />
    <linearGradient
       x1="40.505421"
       y1="50.582088"
       x2="148.73845"
       y2="50.582088"
       id="linearGradient4182"
       xlink:href="#linearGradient3159"
       gradientUnits="userSpaceOnUse" />
    <linearGradient
       x1="40.505421"
       y1="50.582088"
       x2="148.73845"
       y2="50.582088"
       id="linearGradient4185"
       xlink:href="#linearGradient3159"
       gradientUnits="userSpaceOnUse"
       gradientTransform="matrix(-1.7655042,0,0,1.7655042,318.03993,510.46455)" />
    <linearGradient
       x1="40.505421"
       y1="50.582088"
       x2="148.73845"
       y2="50.582088"
       id="linearGradient4188"
       xlink:href="#linearGradient3159"
       gradientUnits="userSpaceOnUse" />
    <linearGradient
       x1="40.505421"
       y1="50.582088"
       x2="148.73845"
       y2="50.582088"
       id="linearGradient4191"
       xlink:href="#linearGradient3159"
       gradientUnits="userSpaceOnUse"
       gradientTransform="matrix(0,-1.7655042,-1.7655042,0,344.53543,888.0399)" />
    <linearGradient
       x1="40.505421"
       y1="50.582088"
       x2="148.73845"
       y2="50.582088"
       id="linearGradient4194"
       xlink:href="#linearGradient3159"
       gradientUnits="userSpaceOnUse" />
    <linearGradient
       x1="40.505421"
       y1="50.582088"
       x2="148.73845"
       y2="50.582088"
       id="linearGradient4197"
       xlink:href="#linearGradient3159"
       gradientUnits="userSpaceOnUse"
       gradientTransform="matrix(0,1.7655042,1.7655042,0,-59.535427,536.96005)" />
    <linearGradient
       x1="40.505421"
       y1="50.582088"
       x2="148.73845"
       y2="50.582088"
       id="linearGradient4200"
       xlink:href="#linearGradient3159"
       gradientUnits="userSpaceOnUse" />
    <linearGradient
       x1="40.505421"
       y1="50.582088"
       x2="148.73845"
       y2="50.582088"
       id="linearGradient4203"
       xlink:href="#linearGradient3159"
       gradientUnits="userSpaceOnUse"
       gradientTransform="matrix(1.7655042,0,0,-1.7655042,-33.039923,914.53541)" />
  </defs>
  <g
     transform="scale(0.2500001,0.2500001)"
     id="g2537">
    <path
       d="M 383.35983,569.9988 C 383.35983,466.97412 297.48575,383.35984 191.67657,383.35984 C 86.428464,383.35984 0.87658,467.52492 0,569.99978 L 383.35983,569.9988 z M 126.71778,560.23756 L 319.43128,560.23756 C 347.00533,560.23756 369.20396,538.03895 369.20396,510.46488 C 369.20396,482.89082 347.00533,460.69221 319.43128,460.69221 L 126.71778,460.69221 C 99.143714,460.69221 76.945104,482.89082 76.945104,510.46488 C 76.945104,538.03895 99.143714,560.23756 126.71778,560.23756 z M 0.00099,383.35982 C 103.02567,383.35982 186.63994,297.48572 186.63994,191.6766 C 186.63994,86.428463 102.47487,0.87657997 0,2.7033931e-14 L 0.00099,383.35982 z M 9.7622298,126.71779 L 9.7622298,319.43125 C 9.7622298,347.00531 31.96084,369.20394 59.534903,369.20394 C 87.108965,369.20394 109.30758,347.00531 109.30758,319.43125 L 109.30758,126.71779 C 109.30758,99.143717 87.108965,76.945107 59.534903,76.945107 C 31.96084,76.945107 9.7622298,99.143717 9.7622298,126.71779 z M 569.99881,186.63996 C 466.97414,186.63996 383.35985,272.51407 383.35985,378.32318 C 383.35985,483.57132 467.52494,569.1232 569.99979,569.99978 L 569.99881,186.63996 z M 560.23758,443.28199 L 560.23758,250.56853 C 560.23758,222.99447 538.03897,200.79584 510.4649,200.79584 C 482.89083,200.79584 460.69222,222.99447 460.69222,250.56853 L 460.69222,443.28199 C 460.69222,470.85606 482.89083,493.05467 510.4649,493.05467 C 538.03897,493.05467 560.23758,470.85606 560.23758,443.28199 z M 186.63996,0.001 C 186.63996,103.02568 272.5141,186.63996 378.32321,186.63996 C 483.57135,186.63996 569.12323,102.47488 569.99981,2e-05 L 186.63996,0.001 z M 443.28203,9.7622399 L 250.56857,9.7622399 C 222.9945,9.7622399 200.79583,31.96085 200.79583,59.534914 C 200.79583,87.108982 222.9945,109.30759 250.56857,109.30759 L 443.28203,109.30759 C 470.85609,109.30759 493.05471,87.108982 493.05471,59.534914 C 493.05471,31.96085 470.85609,9.7622399 443.28203,9.7622399 z M 0.00099,186.64018 C 103.02567,186.64018 186.63994,272.51429 186.63994,378.3234 C 186.63994,483.57154 102.47487,569.12342 0,570 L 0.00099,186.64018 z M 9.7622298,443.28221 L 9.7622298,250.56875 C 9.7622298,222.99469 31.96084,200.79606 59.534903,200.79606 C 87.108965,200.79606 109.30758,222.99469 109.30758,250.56875 L 109.30758,443.28221 C 109.30758,470.85628 87.108965,493.05489 59.534903,493.05489 C 31.96084,493.05489 9.7622298,470.85628 9.7622298,443.28221 z M 186.63996,569.999 C 186.63996,466.97432 272.5141,383.36004 378.32321,383.36004 C 483.57135,383.36004 569.12323,467.52512 569.99981,569.99998 L 186.63996,569.999 z M 443.28203,560.23776 L 250.56857,560.23776 C 222.9945,560.23776 200.79583,538.03915 200.79583,510.46508 C 200.79583,482.89102 222.9945,460.69241 250.56857,460.69241 L 443.28203,460.69241 C 470.85609,460.69241 493.05471,482.89102 493.05471,510.46508 C 493.05471,538.03915 470.85609,560.23776 443.28203,560.23776 z M 383.35983,0.0012 C 383.35983,103.02588 297.48575,186.64016 191.67657,186.64016 C 86.428464,186.64016 0.87658,102.47508 0,0.00022 L 383.35983,0.0012 z M 126.71778,9.7624399 L 319.43128,9.7624399 C 347.00533,9.7624399 369.20396,31.96105 369.20396,59.535114 C 369.20396,87.109182 347.00533,109.30779 319.43128,109.30779 L 126.71778,109.30779 C 99.143714,109.30779 76.945104,87.109182 76.945104,59.535114 C 76.945104,31.96105 99.143714,9.7624399 126.71778,9.7624399 z M 569.99881,383.36004 C 466.97414,383.36004 383.35985,297.48594 383.35985,191.67682 C 383.35985,86.428683 467.52494,0.87679997 569.99979,0.00022 L 569.99881,383.36004 z M 560.23758,126.71801 L 560.23758,319.43147 C 560.23758,347.00553 538.03897,369.20416 510.4649,369.20416 C 482.89083,369.20416 460.69222,347.00553 460.69222,319.43147 L 460.69222,126.71801 C 460.69222,99.143937 482.89083,76.945327 510.4649,76.945327 C 538.03897,76.945327 560.23758,99.143937 560.23758,126.71801 z"
       id="path2972"
       style="fill:#000000;fill-opacity:1;fill-rule:nonzero;stroke:none;stroke-width:5.88250017;stroke-linecap:round;stroke-linejoin:round;stroke-miterlimit:4;stroke-dashoffset:4.95999985;stroke-opacity:1" />
    <use
       transform="matrix(1,0,0,-1,0,1140)"
       id="use2507"
       style="fill:#000000;stroke:#000000"
       x="0"
       y="0"
       width="569.99982"
       height="570"
       xlink:href="#path2972" />
    <use
       transform="translate(0,1140)"
       id="use2509"
       style="fill:#000000;stroke:#000000"
       x="0"
       y="0"
       width="569.99982"
       height="570"
       xlink:href="#path2972" />
    <use
       transform="matrix(1,0,0,-1,0,2280)"
       id="use2511"
       style="fill:#000000;stroke:#000000"
       x="0"
       y="0"
       width="569.99982"
       height="570"
       xlink:href="#path2972" />
    <use
       transform="matrix(-1,0,0,1,1139.9996,0)"
       id="use2513"
       style="fill:#000000;stroke:#000000"
       x="0"
       y="0"
       width="569.99982"
       height="570"
       xlink:href="#path2972" />
    <use
       transform="matrix(-1,0,0,-1,1139.9996,1140)"
       id="use2515"
       style="fill:#000000;stroke:#000000"
       x="0"
       y="0"
       width="569.99982"
       height="570"
       xlink:href="#path2972" />
    <use
       transform="matrix(-1,0,0,1,1139.9996,1140)"
       id="use2517"
       style="fill:#000000;stroke:#000000"
       x="0"
       y="0"
       width="569.99982"
       height="570"
       xlink:href="#path2972" />
    <use
       transform="matrix(-1,0,0,-1,1139.9996,2280)"
       id="use2519"
       style="fill:#000000;stroke:#000000"
       x="0"
       y="0"
       width="569.99982"
       height="570"
       xlink:href="#path2972" />
    <use
       transform="translate(1139.9996,0)"
       id="use2521"
       style="fill:#000000;stroke:#000000"
       x="0"
       y="0"
       width="569.99982"
       height="570"
       xlink:href="#path2972" />
    <use
       transform="matrix(1,0,0,-1,1139.9996,1140)"
       id="use2523"
       style="fill:#000000;stroke:#000000"
       x="0"
       y="0"
       width="569.99982"
       height="570"
       xlink:href="#path2972" />
    <use
       transform="translate(1139.9996,1140)"
       id="use2525"
       style="fill:#000000;stroke:#000000"
       x="0"
       y="0"
       width="569.99982"
       height="570"
       xlink:href="#path2972" />
    <use
       transform="matrix(1,0,0,-1,1139.9996,2280)"
       id="use2527"
       style="fill:#000000;stroke:#000000"
       x="0"
       y="0"
       width="569.99982"
       height="570"
       xlink:href="#path2972" />
    <use
       transform="matrix(-1,0,0,1,2279.9992,0)"
       id="use2529"
       style="fill:#000000;stroke:#000000"
       x="0"
       y="0"
       width="569.99982"
       height="570"
       xlink:href="#path2972" />
    <use
       transform="matrix(-1,0,0,-1,2279.9992,1140)"
       id="use2531"
       style="fill:#000000;stroke:#000000"
       x="0"
       y="0"
       width="569.99982"
       height="570"
       xlink:href="#path2972" />
    <use
       transform="matrix(-1,0,0,1,2279.9992,1140)"
       id="use2533"
       style="fill:#000000;stroke:#000000"
       x="0"
       y="0"
       width="569.99982"
       height="570"
       xlink:href="#path2972" />
    <use
       transform="matrix(-1,0,0,-1,2279.9992,2280)"
       id="use2535"
       style="fill:#000000;stroke:#000000"
       x="0"
       y="0"
       width="569.99982"
       height="570"
       xlink:href="#path2972" />
  </g>
</svg>
